<?xml version="1.0" standalone="no"?>
<!DOCTYPE svg PUBLIC "-//W3C//DTD SVG 1.1//EN" "http://www.w3.org/Graphics/SVG/1.1/DTD/svg11.dtd" >
<svg xmlns="http://www.w3.org/2000/svg" xmlns:xlink="http://www.w3.org/1999/xlink" version="1.1">
<metadata>
Created by FontForge 20170731 at Wed Nov 22 21:06:51 2017
 By Aleksey,,,
Copyright (c) 2017 by Andreu Balius. All rights reserved.
</metadata>
<defs>
<font id="SeatBcn-Web-UltraLightItalic" horiz-adv-x="559" >
  <font-face 
    font-family="Seat Bcn - Web UltraLight"
    font-weight="250"
    font-style="italic"
    font-stretch="normal"
    units-per-em="1000"
    panose-1="0 0 3 0 0 0 0 0 0 0"
    ascent="760"
    descent="-240"
    x-height="500"
    cap-height="760"
    bbox="-336 -220 1234 1248"
    underline-thickness="50"
    underline-position="-150"
    slope="-8"
    unicode-range="U+000D-FB02"
  />
<missing-glyph horiz-adv-x="700" 
d="M164 705h401v-705h-401v705zM503 62v581h-277v-581h277z" />
    <glyph glyph-name="fi" unicode="fi" horiz-adv-x="509" 
d="M473 500l-70 -500h-18l68 483h-322l-68 -483h-18l68 483h-60l7 17h55l12 86q13 89 65.5 135.5t138.5 46.5q81 0 149 -41l-10 -15q-65 39 -142 39q-76 0 -124 -43.5t-59 -123.5l-12 -84h340z" />
    <glyph glyph-name="fl" unicode="fl" horiz-adv-x="575" 
d="M510 9l-1 -17h-3q-54 0 -80.5 18.5t-26.5 69.5q0 20 3 44l80 580q-68 47 -154 47q-76 0 -124 -43t-59 -123l-12 -85h178l-3 -17h-177l-68 -483h-18l68 483h-60l7 17h55l12 86q13 90 65.5 136t138.5 46q91 0 170 -54l-81 -589q-3 -24 -3 -42q0 -46 21 -60t69 -14h3z" />
    <glyph glyph-name="f_f" unicode="ff" horiz-adv-x="613" 
d="M489 615l-16 -115h165l-3 -17h-164l-68 -483h-18l67 483h-319l-68 -483h-18l67 483h-61l7 17h57l16 116q21 152 147 152q49 0 90 -23l-5 -17q-46 23 -88 23q-107 0 -126 -136l-16 -115h320l16 116q21 152 147 152q49 0 90 -23l-5 -17q-46 23 -88 23q-107 0 -126 -136z
" />
    <glyph glyph-name="f_f_i" unicode="ffi" horiz-adv-x="847" 
d="M811 500l-70 -500h-18l68 483h-320l-68 -483h-18l68 483h-320l-68 -483h-18l67 483h-61l7 17h57l16 116q21 152 147 152q49 0 90 -23l-5 -17q-46 23 -88 23q-53 0 -84.5 -33.5t-41.5 -104.5l-16 -113h320l12 86q13 89 65.5 135.5t138.5 46.5q81 0 149 -41l-10 -15
q-65 39 -142 39q-76 0 -124 -43.5t-59 -123.5l-12 -84h338z" />
    <glyph glyph-name="f_f_l" unicode="ffl" horiz-adv-x="915" 
d="M850 9l-1 -17h-3q-54 0 -80.5 18.5t-26.5 69.5q0 20 3 44l80 580q-68 47 -154 47q-76 0 -124 -43t-59 -123l-12 -85h176l-3 -17h-175l-68 -483h-18l68 483h-320l-68 -483h-18l67 483h-61l7 17h57l16 116q21 152 147 152q49 0 90 -23l-5 -17q-46 23 -88 23
q-53 0 -84.5 -33.5t-41.5 -104.5l-16 -113h320l12 86q13 90 65.5 136t138.5 46q91 0 170 -54l-81 -589q-3 -24 -3 -42q0 -46 21 -60t69 -14h3z" />
    <glyph glyph-name="uni04570457.liga" unicode="&#x457;&#x457;" horiz-adv-x="322" 
d="M49 623q-8 8 -8 19t8 19t20 8q11 0 19 -8t8 -19t-8 -19t-19 -8q-12 0 -20 8zM144 623q-8 8 -8 19t8 19t20 8q11 0 19 -8t8 -19t-8 -19t-19 -8q-12 0 -20 8zM250 623q-8 8 -8 19t8 19t20 8q11 0 19 -8t8 -19t-8 -19t-19 -8q-12 0 -20 8zM345 623q-8 8 -8 19t8 19t20 8
q11 0 19 -8t8 -19t-8 -19t-19 -8q-12 0 -20 8zM87 500h18l-70 -500h-18zM288 500h18l-70 -500h-18z" />
    <glyph glyph-name=".notdef" horiz-adv-x="700" 
d="M164 705h401v-705h-401v705zM503 62v581h-277v-581h277z" />
    <glyph glyph-name=".null" horiz-adv-x="600" 
 />
    <glyph glyph-name="nonmarkingreturn" unicode="&#xd;" horiz-adv-x="600" 
 />
    <glyph glyph-name="space" unicode=" " horiz-adv-x="230" 
 />
    <glyph glyph-name="exclam" unicode="!" horiz-adv-x="181" 
d="M151 760h22l-92 -610h-18zM37 1q-9 9 -9 21t9 21t22 9q12 0 21 -9t9 -21t-9 -21t-21 -9q-13 0 -22 9z" />
    <glyph glyph-name="quotedbl" unicode="&#x22;" horiz-adv-x="272" 
d="M115 640l17 120h22l-17 -120l-26 -156h-14zM245 640l17 120h22l-17 -120l-26 -156h-14z" />
    <glyph glyph-name="numbersign" unicode="#" horiz-adv-x="734" 
d="M586 520l-108 -269h103l-3 -17h-106l-94 -234h-19l94 234h-253l-94 -234h-19l94 234h-103l3 17h106l108 269h-104l3 17h108l89 223h19l-89 -223h253l89 223h19l-89 -223h101l-3 -17h-105zM567 520h-253l-108 -269h253z" />
    <glyph glyph-name="dollar" unicode="$" horiz-adv-x="651" 
d="M542.5 698.5q-46.5 44.5 -130.5 51.5l-48 -350l31 -12q64 -24 100 -47.5t52 -54.5t16 -77q0 -100 -66.5 -158t-189.5 -59l-17 -119h-18l17 119q-216 6 -216 210l18 2q0 -97 50 -144.5t150 -50.5l53 380l-40 15q-62 23 -97 46t-51 52.5t-16 72.5q0 57 31 101t86.5 68
t126.5 24h13l17 123h18l-17 -124q89 -7 140 -55.5t54 -120.5l-18 -2q-2 65 -48.5 109.5zM394 751h-10q-66 0 -117.5 -22t-80 -62.5t-28.5 -92.5q0 -37 13.5 -62.5t46 -47t93.5 -44.5l35 -13zM361 382l-52 -373q114 1 175 54.5t61 145.5q0 43 -16 71.5t-49.5 49.5t-93.5 43z
" />
    <glyph glyph-name="percent" unicode="%" horiz-adv-x="800" 
d="M155 453.5q-29 38.5 -29 105.5q0 59 21.5 106t56.5 73.5t73 26.5q47 0 76 -38.5t29 -104.5q0 -59 -21.5 -106.5t-56.5 -74t-74 -26.5q-46 0 -75 38.5zM720 760h22l-660 -760h-22zM296.5 454.5q30.5 24.5 49.5 68t19 98.5q0 60 -24.5 94.5t-65.5 34.5q-34 0 -64.5 -24.5
t-49 -68.5t-18.5 -99q0 -59 24.5 -93.5t64.5 -34.5q34 0 64.5 24.5zM483 33.5q-29 38.5 -29 105.5q0 59 21.5 106t56.5 73.5t73 26.5q47 0 76 -38.5t29 -104.5q0 -59 -21.5 -106.5t-56.5 -74t-74 -26.5q-46 0 -75 38.5zM624.5 34.5q30.5 24.5 49.5 68t19 98.5
q0 60 -24.5 94.5t-65.5 34.5q-34 0 -64.5 -24.5t-49 -68.5t-18.5 -99q0 -59 24.5 -93.5t64.5 -34.5q34 0 64.5 24.5z" />
    <glyph glyph-name="ampersand" unicode="&#x26;" horiz-adv-x="670" 
d="M551.5 208.5q-20.5 -54.5 -52.5 -98.5l76 -110h-21l-66 95q-40 -48 -93.5 -75.5t-120.5 -27.5q-93 0 -147 51.5t-54 139.5q0 74 43 133t143 112q-33 47 -51 88t-18 85q0 45 19 83.5t55 61t87 22.5q55 0 92 -30.5t37 -90.5q0 -64 -46.5 -118.5t-150.5 -106.5l206 -297
q55 80 73 196h18q-8 -58 -28.5 -112.5zM245 708.5q-37 -42.5 -37 -107.5q0 -40 17 -78.5t49 -87.5q94 47 141 98t47 113q0 51 -31.5 78t-81.5 27q-67 0 -104 -42.5zM388 35q51 26 90 75l-206 298l-4 6q-89 -50 -133 -102.5t-44 -128.5q0 -85 52 -129.5t133 -44.5
q61 0 112 26z" />
    <glyph glyph-name="quotesingle" unicode="'" horiz-adv-x="142" 
d="M115 640l17 120h22l-17 -120l-26 -156h-14z" />
    <glyph glyph-name="parenleft" unicode="(" horiz-adv-x="293" 
d="M98.5 -23q-24.5 26 -24.5 72q0 16 3 35l87 622q9 64 41 99t91 35l-3 -17q-95 0 -111 -117l-87 -622q-3 -24 -3 -33q0 -84 81 -84l-2 -17q-48 1 -72.5 27z" />
    <glyph glyph-name="parenright" unicode=")" horiz-adv-x="293" 
d="M235.5 812q24.5 -26 24.5 -72q0 -16 -3 -35l-87 -622q-9 -64 -41 -99t-91 -35l3 17q95 0 111 117l87 622q3 24 3 33q0 84 -81 84l2 17q48 -1 72.5 -27z" />
    <glyph glyph-name="asterisk" unicode="*" horiz-adv-x="496" 
d="M300 539l82 -131l-14 -9l-81 132l-117 -132l-12 9l119 130l-149 55l8 15l148 -55l22 166h16l-24 -166l162 52l4 -15z" />
    <glyph glyph-name="plus" unicode="+" horiz-adv-x="490" 
d="M411 260h-156l-22 -157h-17l22 157h-157l3 17h156l22 156h17l-22 -156h157z" />
    <glyph glyph-name="comma" unicode="," horiz-adv-x="169" 
d="M77.5 43.5q8.5 -8.5 8.5 -23.5q0 -31 -21.5 -63t-55.5 -52l-6 9q48 34 58 79q-2 -1 -6 -1q-12 0 -21 9t-9 21t9 21t22 9t21.5 -8.5z" />
    <glyph glyph-name="hyphen" unicode="-" horiz-adv-x="420" 
d="M64 277h300l-3 -17h-300z" />
    <glyph glyph-name="period" unicode="." horiz-adv-x="161" 
d="M27 1q-9 9 -9 21t9 21t22 9q12 0 21 -9t9 -21t-9 -21t-21 -9q-13 0 -22 9z" />
    <glyph glyph-name="slash" unicode="/" horiz-adv-x="370" 
d="M373 760h19l-358 -760h-19z" />
    <glyph glyph-name="zero" unicode="0" horiz-adv-x="667" 
d="M133.5 71q-60.5 79 -60.5 224q0 117 40 226t115.5 178t178.5 69q104 0 164 -78.5t60 -222.5q0 -120 -40 -229.5t-115.5 -177.5t-177.5 -68q-104 0 -164.5 79zM466.5 76q71.5 67 109 172t37.5 216q0 138 -55 212.5t-153 74.5q-96 0 -167.5 -67t-109 -172t-37.5 -216
q0 -138 55.5 -212.5t152.5 -74.5q96 0 167.5 67z" />
    <glyph glyph-name="one" unicode="1" horiz-adv-x="332" 
d="M273 758l-107 -758h-18l98 693q-22 -20 -56.5 -26.5t-91.5 -6.5l3 17q57 0 89 7.5t46.5 25t18.5 48.5h18z" />
    <glyph glyph-name="two" unicode="2" horiz-adv-x="526" 
d="M94.5 198q-44.5 -69 -57.5 -181h406l-3 -17h-424l1 8q15 117 58.5 191.5t137.5 130.5l122 73q77 45 114.5 94t37.5 111q0 66 -43 104.5t-118 38.5q-73 0 -124.5 -37t-79.5 -94l-20 1q34 72 92.5 109.5t133.5 37.5q82 0 129.5 -43.5t47.5 -114.5q0 -67 -38.5 -119
t-115.5 -98l-119 -71q-93 -55 -137.5 -124z" />
    <glyph glyph-name="three" unicode="3" horiz-adv-x="550" 
d="M445.5 343q38.5 -51 38.5 -120t-31.5 -121.5t-86 -81t-121.5 -28.5q-85 0 -143 38.5t-65 123.5l18 3q8 -84 63 -116t127 -32q60 0 110.5 25t80.5 73t30 115q0 78 -50 126t-149 48h-48l3 17h33q70 0 123.5 27.5t83 73t29.5 98.5q0 63 -43 101t-117 38t-124 -37t-76 -94
l-20 1q32 72 89.5 109.5t132.5 37.5q81 0 128.5 -43t47.5 -113q0 -77 -51.5 -133t-127.5 -72q77 -13 115.5 -64z" />
    <glyph glyph-name="four" unicode="4" horiz-adv-x="590" 
d="M565 212h-107l-30 -212h-18l30 212h-385l2 17l205 531h18l-205 -531h367l38 271h18l-38 -271h107z" />
    <glyph glyph-name="five" unicode="5" horiz-adv-x="570" 
d="M166 743l-45 -318q82 65 194 65q97 0 151.5 -57t54.5 -149q0 -81 -35 -148t-98.5 -105.5t-145.5 -38.5q-77 0 -133.5 37.5t-71.5 125.5l18 2q15 -85 68.5 -116.5t121.5 -31.5q77 0 135.5 37t90.5 100t32 138q0 89 -53 139t-138 50q-110 0 -196 -72l-15 10l49 349h381
l-3 -17h-362z" />
    <glyph glyph-name="six" unicode="6" horiz-adv-x="610" 
d="M196 643q-77 -108 -105 -301l-6 -40q30 90 102 139t162 49q63 0 111 -27t74 -75.5t26 -112.5q0 -80 -36.5 -145t-100 -101.5t-140.5 -36.5q-99 0 -158 66.5t-59 199.5q0 39 7 84q26 189 106 307.5t216 118.5q74 0 122 -38t61 -110l-18 -1q-30 132 -165 132
q-122 0 -199 -108zM220.5 440.5q-59.5 -32.5 -95.5 -90t-36 -129.5q0 -95 52 -153.5t143 -58.5q71 0 130 34.5t93.5 95.5t34.5 136q0 60 -24.5 105t-69 69t-100.5 24q-68 0 -127.5 -32.5z" />
    <glyph glyph-name="seven" unicode="7" horiz-adv-x="500" 
d="M572 760l-516 -760h-22l505 743h-450l3 17h480z" />
    <glyph glyph-name="eight" unicode="8" horiz-adv-x="585" 
d="M492 320.5q37 -40.5 37 -97.5q0 -61 -31.5 -113.5t-93 -85t-147.5 -32.5q-69 0 -117.5 26t-73 68.5t-24.5 92.5q0 157 187 240q-52 24 -81 61.5t-29 87.5q0 57 29.5 102.5t84.5 71.5t130 26q65 0 110 -23t68 -60t23 -80q0 -72 -50 -127t-135 -90q76 -27 113 -67.5z
M290 415l60 -18l7 -2q91 38 140 90t49 118q0 39 -21 73t-62.5 54.5t-100.5 20.5q-68 0 -119 -23t-78.5 -64t-27.5 -93q0 -111 153 -156zM388 36q57 27 90 76t33 112t-46 98.5t-125 59.5l-60 18q-9 3 -17 5.5t-14 4.5q-189 -78 -189 -230q0 -50 24.5 -88.5t69.5 -60.5
t105 -22q72 0 129 27z" />
    <glyph glyph-name="nine" unicode="9" horiz-adv-x="610" 
d="M523 701q58 -67 58 -199q0 -38 -7 -84q-29 -190 -108 -308t-215 -118q-74 0 -122 38t-61 110l18 1q30 -132 165 -132q122 0 199.5 108t105.5 301l6 40q-31 -89 -103.5 -138.5t-161.5 -49.5q-97 0 -154 55.5t-57 154.5q0 81 37 146.5t100 103.5t140 38q102 0 160 -67z
M425.5 319.5q59.5 32.5 96 90t36.5 129.5q0 95 -52.5 153.5t-143.5 58.5q-71 0 -130 -35.5t-93.5 -97.5t-34.5 -138q0 -93 53 -143t141 -50q68 0 127.5 32.5z" />
    <glyph glyph-name="colon" unicode=":" horiz-adv-x="161" 
d="M27 1q-9 9 -9 21t9 21t22 9q12 0 21 -9t9 -21t-9 -21t-21 -9q-13 0 -22 9zM76 351q-9 9 -9 21t9 21t22 9q12 0 21 -9t9 -21t-9 -21t-21 -9q-13 0 -22 9z" />
    <glyph glyph-name="semicolon" unicode=";" horiz-adv-x="169" 
d="M77.5 43.5q8.5 -8.5 8.5 -23.5q0 -31 -21.5 -63t-55.5 -52l-6 9q48 34 58 79q-2 -1 -6 -1q-12 0 -21 9t-9 21t9 21t22 9t21.5 -8.5zM84 351q-9 9 -9 21t9 21t22 9q12 0 21 -9t9 -21t-9 -21t-21 -9q-13 0 -22 9z" />
    <glyph glyph-name="less" unicode="&#x3c;" horiz-adv-x="490" 
d="M437 440l-339 -170l291 -172l-3 -18l-305 180l3 20l355 180z" />
    <glyph glyph-name="equal" unicode="=" horiz-adv-x="492" 
d="M96 357h330l-3 -17h-330zM73 197h330l-1 -17h-330z" />
    <glyph glyph-name="greater" unicode="&#x3e;" horiz-adv-x="491" 
d="M59 100l339 170l-291 172l3 18l305 -180l-3 -20l-355 -180z" />
    <glyph glyph-name="question" unicode="?" horiz-adv-x="540" 
d="M213 168q6 56 17 97.5t37.5 79t73.5 62.5l49 26q120 64 120 177q0 73 -46.5 107t-120.5 34q-71 0 -123.5 -28.5t-86.5 -72.5l-16 9q37 49 94 79t132 30q84 0 134.5 -40t50.5 -119q0 -66 -35 -112t-97 -80l-47 -25q-56 -30 -81 -79t-36 -139l-3 -24h-18zM192 1q-9 9 -9 21
t9 21t22 9q12 0 21 -9t9 -21t-9 -21t-21 -9q-13 0 -22 9z" />
    <glyph glyph-name="at" unicode="@" horiz-adv-x="1029" 
d="M803 726q80 -42 123.5 -118.5t43.5 -175.5q0 -75 -25.5 -149.5t-73 -122.5t-108.5 -48q-40 0 -62.5 25.5t-22.5 72.5q0 14 6 46q-39 -68 -100.5 -106t-132.5 -38q-75 0 -120 43.5t-45 119.5q0 77 38.5 144.5t102 107.5t136.5 40q69 0 111 -36.5t49 -104.5l32 133h18
l-72 -304q-5 -18 -5 -40q0 -86 69 -86q55 0 97.5 46t66 116.5t23.5 139.5q0 96 -42 168.5t-118.5 112t-176.5 39.5q-141 0 -258.5 -67.5t-186 -185.5t-68.5 -263q0 -97 39.5 -172t112.5 -117t170 -42q60 0 124 18t125 51l7 -16q-134 -70 -260 -70q-100 0 -176.5 44.5
t-118 123t-41.5 178.5q0 153 71 275.5t193.5 191t270.5 68.5q104 0 184 -42zM582.5 167.5q58.5 38.5 92.5 102.5t34 136q0 66 -40.5 105t-107.5 39q-69 0 -128 -38.5t-94 -101.5t-35 -132q0 -70 39.5 -109.5t110.5 -39.5q70 0 128.5 38.5z" />
    <glyph glyph-name="A" unicode="A" 
d="M467 162h-400l-78 -162h-19l370 760h22l157 -760h-19zM463 179l-115 563l-272 -563h387z" />
    <glyph glyph-name="B" unicode="B" horiz-adv-x="555" 
d="M481.5 340q33.5 -43 33.5 -104q0 -102 -63 -169t-193 -67h-214l107 760h202q100 0 146 -42t46 -110q0 -74 -41 -132t-124 -77q67 -16 100.5 -59zM121 409h187q76 0 125.5 27.5t72 72t22.5 97.5q0 64 -41.5 100.5t-132.5 36.5h-186zM439 78q58 61 58 159q0 71 -50 113
t-148 42h-181l-53 -375h199q117 0 175 61z" />
    <glyph glyph-name="C" unicode="C" horiz-adv-x="810" 
d="M218 33q-71 41 -109.5 117t-38.5 177q0 116 56.5 217.5t153.5 162.5t211 61q121 0 201 -65.5t105 -176.5l-18 -2q-25 106 -99.5 166.5t-190.5 60.5q-109 0 -201 -59t-146 -156.5t-54 -206.5q0 -98 36.5 -170t103.5 -111t157 -39q115 0 208 62t147 168l18 -2
q-57 -113 -154 -179t-221 -66q-94 0 -165 41z" />
    <glyph glyph-name="D" unicode="D" horiz-adv-x="740" 
d="M550.5 719q77.5 -41 117 -113t39.5 -163q0 -126 -56 -227t-156 -158.5t-227 -57.5h-223l107 760h212q109 0 186.5 -41zM487 72.5q95 55.5 148.5 152.5t53.5 217q0 87 -37 155t-110.5 107t-179.5 39h-194l-103 -726h206q121 0 216 55.5z" />
    <glyph glyph-name="E" unicode="E" horiz-adv-x="541" 
d="M168 743l-47 -334h373l-3 -17h-373l-53 -375h383l-3 -17h-400l107 760h395l-3 -17h-376z" />
    <glyph glyph-name="F" unicode="F" horiz-adv-x="490" 
d="M168 743l-47 -334h343l-3 -17h-343l-55 -392h-18l107 760h365l-3 -17h-346z" />
    <glyph glyph-name="G" unicode="G" horiz-adv-x="795" 
d="M284.5 691q-91.5 -60 -144 -157.5t-52.5 -204.5q0 -154 85 -237t235 -83q77 0 147.5 21t124.5 55l38 267h-314l2 17h332l-41 -294q-58 -37 -132.5 -60t-157.5 -23q-104 0 -179.5 39.5t-116.5 115t-41 182.5q0 113 55 214.5t151.5 163t212.5 61.5q82 0 141.5 -30t93.5 -75
t46 -93l-18 -3q-12 47 -45.5 89t-89.5 68.5t-130 26.5q-111 0 -202.5 -60z" />
    <glyph glyph-name="H" unicode="H" horiz-adv-x="650" 
d="M642 760l-107 -760h-18l55 392h-454l-55 -392h-18l107 760h18l-49 -351h454l49 351h18z" />
    <glyph glyph-name="I" unicode="I" horiz-adv-x="178" 
d="M152 760h18l-107 -760h-18z" />
    <glyph glyph-name="J" unicode="J" horiz-adv-x="500" 
d="M27 158l18 2q0 -76 37 -113.5t116 -37.5q87 0 138.5 50.5t67.5 164.5l74 536h18l-75 -542q-16 -116 -72.5 -171t-152.5 -55q-169 0 -169 166z" />
    <glyph glyph-name="K" unicode="K" horiz-adv-x="550" 
d="M311 432l189 -432h-19l-183 417l-210 -239l-25 -178h-18l107 760h18l-78 -554l487 554h20z" />
    <glyph glyph-name="L" unicode="L" horiz-adv-x="480" 
d="M417 17l-3 -17h-369l107 760h18l-105 -743h352z" />
    <glyph glyph-name="M" unicode="M" horiz-adv-x="805" 
d="M737 760l-17 -760h-18l17 724l-341 -724h-18l-140 726l-186 -726h-19l197 760h16l144 -733l348 733h17z" />
    <glyph glyph-name="N" unicode="N" horiz-adv-x="650" 
d="M642 760l-107 -760h-18l-352 728l-102 -728h-18l107 760h18v-2l351 -727l103 729h18z" />
    <glyph glyph-name="O" unicode="O" horiz-adv-x="840" 
d="M217.5 33.5q-70.5 41.5 -109 117.5t-38.5 176q0 116 57 217.5t154.5 162.5t212.5 61q93 0 163.5 -41.5t109.5 -117.5t39 -177q0 -116 -57 -217t-155 -162t-213 -61q-93 0 -163.5 41.5zM585.5 67.5q93.5 58.5 148 156t54.5 207.5q0 96 -36 168.5t-103 112t-157 39.5
q-110 0 -202.5 -59t-147 -156.5t-54.5 -207.5q0 -96 36 -168t102.5 -111.5t155.5 -39.5q110 0 203.5 58.5z" />
    <glyph glyph-name="P" unicode="P" horiz-adv-x="605" 
d="M544.5 704q54.5 -56 54.5 -155q0 -81 -34 -144.5t-97.5 -100t-147.5 -36.5h-219l-38 -268h-18l107 760h217q121 0 175.5 -56zM460.5 320q58.5 35 89.5 94.5t31 132.5q0 95 -50 145.5t-166 50.5h-197l-65 -458h221q78 0 136.5 35z" />
    <glyph glyph-name="Q" unicode="Q" horiz-adv-x="840" 
d="M755 226.5q-51 -96.5 -137 -158.5l107 -167l-15 -10l-107 167q-105 -66 -222 -66q-93 0 -163.5 41.5t-109 117.5t-38.5 176q0 116 57 217.5t154.5 162.5t212.5 61q93 0 163.5 -41.5t109.5 -117.5t39 -177q0 -109 -51 -205.5zM593 73l-165 257l15 10l165 -257
q83 59 131.5 152t48.5 196q0 96 -36 168.5t-103 112t-157 39.5q-110 0 -202.5 -59t-147 -156.5t-54.5 -207.5q0 -96 36 -168t102.5 -111.5t155.5 -39.5q113 0 211 64z" />
    <glyph glyph-name="R" unicode="R" horiz-adv-x="605" 
d="M542.5 369q-57.5 -75 -156.5 -95l112 -274h-19l-110 271q-24 -3 -48 -3h-220l-38 -268h-18l107 760h218q121 0 175.5 -56t54.5 -155q0 -105 -57.5 -180zM461.5 320q58.5 35 89.5 94.5t31 132.5q0 95 -50 145.5t-166 50.5h-198l-65 -458h222q78 0 136.5 35z" />
    <glyph glyph-name="S" unicode="S" horiz-adv-x="601" 
d="M48 202l18 2q0 -100 53 -147.5t159 -47.5q117 0 179.5 53t62.5 147q0 43 -16 71.5t-49.5 49.5t-93.5 43l-82 31q-62 23 -97 46t-51 52.5t-16 72.5q0 57 31 101t86.5 68t126.5 24q102 0 162 -49t63 -128l-18 -2q-2 70 -56 116t-151 46q-66 0 -117.5 -22t-80 -62.5
t-28.5 -92.5q0 -37 13.5 -62.5t46 -47t93.5 -44.5l84 -32q64 -24 100 -47.5t52 -54.5t16 -77q0 -101 -68 -159t-193 -58q-229 0 -229 210z" />
    <glyph glyph-name="T" unicode="T" horiz-adv-x="571" 
d="M610 743h-245l-105 -743h-18l105 743h-248l3 17h511z" />
    <glyph glyph-name="U" unicode="U" horiz-adv-x="645" 
d="M128 42q-58 50 -58 148q0 29 5 62l72 508h18l-72 -512q-5 -30 -5 -57q0 -90 52.5 -136t150.5 -46q111 0 177 59t82 171l74 521h18l-73 -518q-18 -122 -87 -186t-191 -64q-105 0 -163 50z" />
    <glyph glyph-name="V" unicode="V" 
d="M626 760l-369 -760h-24l-156 760h18l152 -742l359 742h20z" />
    <glyph glyph-name="W" unicode="W" horiz-adv-x="930" 
d="M987 760l-323 -760h-25l-110 740l-306 -740h-25l-111 760h18l107 -743l307 743h25l109 -743l314 743h20z" />
    <glyph glyph-name="X" unicode="X" horiz-adv-x="510" 
d="M284 385l186 -385h-19l-178 369l-282 -369h-21l295 387l-180 373h19l172 -357l272 357h21z" />
    <glyph glyph-name="Y" unicode="Y" horiz-adv-x="520" 
d="M587 760l-506 -760h-20l218 329l-192 431h19l185 -414l275 414h21z" />
    <glyph glyph-name="Z" unicode="Z" horiz-adv-x="565" 
d="M40 17h452l-3 -17h-484l546 743h-420l3 17h452z" />
    <glyph glyph-name="bracketleft" unicode="[" horiz-adv-x="334" 
d="M199 823l-121 -856h136l-2 -17h-154l125 890h149l-3 -17h-130z" />
    <glyph glyph-name="backslash" unicode="\" horiz-adv-x="585" 
d="M142 760h-19l358 -760h19z" />
    <glyph glyph-name="bracketright" unicode="]" horiz-adv-x="334" 
d="M175 -40l121 856h-136l2 17h154l-125 -890h-149l3 17h130z" />
    <glyph glyph-name="asciicircum" unicode="^" horiz-adv-x="422" 
d="M343 400l-84 189l-137 -189h-21l149 205h20l93 -205h-20z" />
    <glyph glyph-name="underscore" unicode="_" horiz-adv-x="610" 
d="M-21 -112h550l-2 -17h-550z" />
    <glyph glyph-name="grave" unicode="`" horiz-adv-x="270" 
d="M144 760l124 -168h-15l-131 168h22z" />
    <glyph glyph-name="a" unicode="a" horiz-adv-x="599" 
d="M564 500l-70 -500h-16l21 157q-34 -77 -99.5 -121t-145.5 -44q-61 0 -108.5 27t-73.5 77t-26 116q0 81 36.5 149t100 107.5t142.5 39.5q80 0 133 -42t66 -119l22 153h18zM388.5 48.5q58.5 39.5 91.5 104.5t33 140q0 94 -51.5 146t-137.5 52q-74 0 -133.5 -38t-93 -101.5
t-33.5 -138.5q0 -94 52.5 -149t139.5 -55q74 0 132.5 39.5z" />
    <glyph glyph-name="b" unicode="b" horiz-adv-x="598" 
d="M454 481.5q47 -26.5 73 -75t26 -112.5q0 -86 -36 -155t-100 -108t-144 -39q-79 0 -131.5 43t-66.5 120l-24 -155h-16l107 760h18l-59 -416q34 77 98.5 120.5t146.5 43.5q61 0 108 -26.5zM407.5 46q59.5 37 93.5 101.5t34 145.5q0 91 -52 144.5t-139 53.5q-74 0 -133 -39
t-92 -104.5t-33 -141.5q0 -92 51.5 -144.5t136.5 -52.5q74 0 133.5 37z" />
    <glyph glyph-name="c" unicode="c" 
d="M102.5 51q-56.5 59 -56.5 158q0 87 36 155t100 106t143 38q73 0 125.5 -37t72.5 -102l-18 -3q-19 60 -67 92.5t-114 32.5q-75 0 -134 -36t-92.5 -100t-33.5 -144q0 -94 51 -148t139 -54q72 0 133.5 39t95.5 108l18 -2q-36 -76 -102 -119t-145 -43q-95 0 -151.5 59z" />
    <glyph glyph-name="d" unicode="d" horiz-adv-x="599" 
d="M601 760l-107 -760h-16l21 157q-34 -77 -99.5 -121t-145.5 -44q-61 0 -108.5 27t-73.5 76t-26 115q0 82 36 150.5t100 108t143 39.5q80 0 133 -42t66 -119l59 413h18zM388 48.5q59 39.5 92 105t33 141.5q0 92 -51.5 144t-138.5 52q-74 0 -133 -38t-92.5 -102t-33.5 -140
q0 -93 52 -147.5t139 -54.5q74 0 133 39.5z" />
    <glyph glyph-name="e" unicode="e" horiz-adv-x="562" 
d="M66 249q-3 -21 -3 -41q0 -92 53 -145.5t141 -53.5q69 0 123 34.5t89 97.5l18 -2q-37 -71 -96.5 -109t-136.5 -38q-61 0 -108.5 26.5t-74 75t-26.5 113.5q0 80 35 149.5t97.5 110.5t140.5 41q88 0 144 -53t56 -149q0 -27 -4 -57h-448zM201.5 461q-52.5 -30 -87 -81.5
t-46.5 -113.5h429q3 18 3 38q0 91 -50.5 139t-132.5 48q-63 0 -115.5 -30z" />
    <glyph glyph-name="f" unicode="f" horiz-adv-x="275" 
d="M192.5 717.5q-31.5 -33.5 -41.5 -104.5l-16 -113h165l-3 -17h-164l-68 -483h-18l67 483h-61l7 17h57l16 116q21 152 147 152q49 0 90 -23l-5 -17q-46 23 -88 23q-53 0 -84.5 -33.5z" />
    <glyph glyph-name="g" unicode="g" horiz-adv-x="599" 
d="M564 500l-63 -447q-19 -134 -84 -193.5t-172 -59.5q-88 0 -136 34t-59 80l17 4q12 -41 55.5 -71t123.5 -30q99 0 159.5 55.5t77.5 180.5l14 99q-34 -75 -99 -117.5t-144 -42.5q-61 0 -108 26.5t-73.5 75.5t-26.5 114q0 82 36 150.5t99.5 109t143.5 40.5t133 -43t66 -119
l24 154h16zM387.5 47.5q58.5 38.5 92 104.5t33.5 144q0 91 -52 143t-136 52q-75 0 -134.5 -38t-93 -102.5t-33.5 -141.5q0 -92 53 -146t139 -54q73 0 131.5 38.5z" />
    <glyph glyph-name="h" unicode="h" horiz-adv-x="550" 
d="M447 467q49 -41 49 -122q0 -19 -3 -40l-43 -305h-18l43 305q3 18 3 38q0 72 -41.5 110t-117.5 38q-90 0 -152.5 -61.5t-77.5 -174.5l-36 -255h-18l107 760h18l-56 -396q32 73 88.5 108.5t127.5 35.5q78 0 127 -41z" />
    <glyph glyph-name="i" unicode="i" horiz-adv-x="161" 
d="M116 623q-8 8 -8 19t8 19t20 8q11 0 19 -8t8 -19t-8 -19t-19 -8q-12 0 -20 8zM107 500h18l-70 -500h-18z" />
    <glyph glyph-name="j" unicode="j" horiz-adv-x="171" 
d="M126 623q-8 8 -8 19t8 19t20 8q11 0 19 -8t8 -19t-8 -19t-19 -8q-12 0 -20 8zM-161 -182l4 18q13 -8 32.5 -13.5t38.5 -5.5q52 0 84.5 34t42.5 104l76 545h18l-76 -548q-11 -78 -49 -115t-98 -37q-42 0 -73 18z" />
    <glyph glyph-name="k" unicode="k" horiz-adv-x="460" 
d="M255 324l165 -324h-19l-159 312l-167 -154l-22 -158h-18l107 760h18l-81 -575l342 315h25z" />
    <glyph glyph-name="l" unicode="l" horiz-adv-x="225" 
d="M75 10.5q-26 18.5 -26 69.5q0 20 3 44l90 636h18l-90 -635q-3 -24 -3 -42q0 -45 21 -59.5t66 -14.5h6l-1 -17h-5q-53 0 -79 18.5z" />
    <glyph glyph-name="m" unicode="m" horiz-adv-x="878" 
d="M778.5 467q45.5 -41 45.5 -120q0 -19 -3 -42l-43 -305h-18l43 305q3 20 3 40q0 68 -37 107t-105 39q-83 0 -140.5 -64.5t-72.5 -171.5l-36 -255h-18l43 305q3 20 3 41q0 67 -37 106t-105 39q-82 0 -139.5 -64.5t-72.5 -171.5l-36 -255h-18l70 500h16l-18 -138
q31 72 83.5 109t115.5 37q68 0 113 -40t46 -117q29 77 83 117t120 40q69 0 114.5 -41z" />
    <glyph glyph-name="n" unicode="n" horiz-adv-x="550" 
d="M447 467q49 -41 49 -122q0 -19 -3 -40l-43 -305h-18l43 305q3 18 3 38q0 72 -41.5 110t-117.5 38q-90 0 -152.5 -61.5t-77.5 -174.5l-36 -255h-18l70 500h16l-18 -138q32 74 89 110t128 36q78 0 127 -41z" />
    <glyph glyph-name="o" unicode="o" horiz-adv-x="580" 
d="M103.5 50.5q-57.5 58.5 -57.5 161.5q0 82 36.5 150t100.5 107t142 39q95 0 152 -58t57 -161q0 -82 -36.5 -150t-100 -107.5t-141.5 -39.5q-95 0 -152.5 58.5zM389 46.5q59 37.5 93 101.5t34 141q0 95 -51.5 148.5t-139.5 53.5q-74 0 -134 -37.5t-93.5 -101.5t-33.5 -140
q0 -96 52 -149.5t140 -53.5q74 0 133 37.5z" />
    <glyph glyph-name="p" unicode="p" horiz-adv-x="599" 
d="M453 482q47 -26 73.5 -74.5t26.5 -114.5q0 -85 -36 -154t-100 -108t-144 -39t-132.5 42.5t-65.5 118.5l-48 -345h-18l96 692h16l-21 -158q33 77 98 121.5t148 44.5q60 0 107 -26zM408.5 46.5q59.5 37.5 93 102.5t33.5 143q0 93 -52.5 146t-138.5 53q-74 0 -133 -39
t-92 -104.5t-33 -141.5q0 -92 52 -144.5t137 -52.5q74 0 133.5 37.5z" />
    <glyph glyph-name="q" unicode="q" horiz-adv-x="599" 
d="M564 500l-97 -692h-18l50 350q-33 -78 -98.5 -122t-146.5 -44q-61 0 -108.5 27t-73.5 76.5t-26 115.5q0 82 36 150t100 107.5t143 39.5q81 0 134 -43t65 -122l24 157h16zM388.5 48.5q58.5 39.5 91.5 105t33 141.5q0 92 -51.5 144t-138.5 52q-73 0 -132.5 -38t-93 -102
t-33.5 -140q0 -92 52.5 -147t139.5 -55q74 0 132.5 39.5z" />
    <glyph glyph-name="r" unicode="r" horiz-adv-x="344" 
d="M355 505l-5 -17q-18 3 -43 3q-50 0 -94.5 -29t-77 -81t-46.5 -121l-36 -260h-18l70 500h16l-20 -154q32 78 87 120t120 42q23 0 47 -3z" />
    <glyph glyph-name="s" unicode="s" horiz-adv-x="434" 
d="M65 24q-40 32 -40 102l18 2q0 -66 36 -92.5t109 -26.5q79 0 124.5 35.5t45.5 103.5q0 29 -15.5 47.5t-40.5 29t-72 25.5l-39 12q-63 19 -95 42.5t-32 69.5q0 63 46 98.5t127 35.5q72 0 116 -28.5t45 -85.5l-18 -2q-1 51 -40.5 75t-104.5 24q-71 0 -112 -31.5t-41 -85.5
q0 -39 29.5 -59t86.5 -37l39 -12q48 -15 76 -27.5t45.5 -34t17.5 -55.5q0 -76 -51 -116.5t-138 -40.5q-82 0 -122 32z" />
    <glyph glyph-name="t" unicode="t" horiz-adv-x="310" 
d="M84 145q-3 -21 -3 -40q0 -96 90 -96q41 0 76 12l-2 -18q-37 -11 -76 -11q-51 0 -78.5 27.5t-27.5 83.5q0 19 3 41l48 339h-61l3 17h60l20 140h18l-20 -140h165l-2 -17h-165z" />
    <glyph glyph-name="u" unicode="u" horiz-adv-x="535" 
d="M500 500l-70 -500h-16l17 136q-31 -73 -86.5 -108.5t-125.5 -35.5q-72 0 -118.5 39.5t-46.5 119.5q0 19 3 40l43 309h18l-43 -309q-3 -19 -3 -38q0 -70 39.5 -107t109.5 -37q87 0 147 58.5t77 167.5l37 265h18z" />
    <glyph glyph-name="v" unicode="v" horiz-adv-x="462" 
d="M492 500l-285 -500h-22l-145 500h18l140 -482l274 482h20z" />
    <glyph glyph-name="w" unicode="w" horiz-adv-x="770" 
d="M790 500l-248 -500h-23l-102 473l-236 -473h-23l-108 500h18l104 -482l239 482h17l105 -482l237 482h20z" />
    <glyph glyph-name="x" unicode="x" horiz-adv-x="405" 
d="M214 256l146 -256h-20l-137 243l-206 -243h-22l218 257l-137 243h20l129 -228l194 228h22z" />
    <glyph glyph-name="y" unicode="y" horiz-adv-x="535" 
d="M500 500l-64 -457q-34 -243 -231 -243q-79 0 -120 30t-52 80l18 4q21 -97 156 -97q89 0 142 55.5t69 170.5l13 92q-32 -73 -87.5 -108t-124.5 -35q-72 0 -118.5 39.5t-46.5 119.5q0 19 3 40l43 309h18l-43 -309q-3 -19 -3 -38q0 -70 39.5 -107t109.5 -37q88 0 149 61
t76 173l36 257h18z" />
    <glyph glyph-name="z" unicode="z" horiz-adv-x="431" 
d="M36 17h327l-3 -17h-360l384 483h-304l5 17h335z" />
    <glyph glyph-name="braceleft" unicode="{" horiz-adv-x="393" 
d="M396 840l-3 -17q-51 0 -77.5 -26t-35.5 -91l-27 -185q-8 -54 -28 -84.5t-56 -40.5q28 -8 40.5 -29.5t12.5 -57.5q0 -18 -3 -39l-26 -186q-3 -18 -3 -38q0 -44 20 -61.5t63 -17.5l-2 -17h-2q-97 0 -97 93q0 20 3 41l26 186q3 20 3 37q0 44 -20.5 62t-63.5 18l2 11v6
q51 0 77.5 26t35.5 91l27 185q10 70 41 102t91 32h2z" />
    <glyph glyph-name="bar" unicode="|" horiz-adv-x="258" 
d="M192 760h18l-134 -952h-18z" />
    <glyph glyph-name="braceright" unicode="}" horiz-adv-x="393" 
d="M38 -51l3 17q51 0 77.5 26t35.5 91l27 185q8 54 28 84.5t56 40.5q-28 8 -40.5 29.5t-12.5 57.5q0 18 3 39l26 186q3 18 3 38q0 44 -20 61.5t-63 17.5l2 17h2q97 0 97 -93q0 -20 -3 -41l-26 -186q-3 -20 -3 -37q0 -44 20.5 -62t63.5 -18l-2 -11v-6q-51 0 -77.5 -26
t-35.5 -91l-27 -185q-10 -70 -41 -102t-91 -32h-2z" />
    <glyph glyph-name="asciitilde" unicode="~" horiz-adv-x="585" 
d="M372.5 444q-23.5 7 -53.5 20q-31 14 -53 20.5t-49 6.5q-34 0 -59.5 -12t-50.5 -37l4 23q21 20 49 31.5t60 11.5q27 0 50.5 -7t53.5 -20q31 -13 53 -20t48 -7q64 0 116 49l-4 -23q-22 -20 -51.5 -31.5t-61.5 -11.5q-28 0 -51.5 7z" />
    <glyph glyph-name="uni00A0" unicode="&#xa0;" horiz-adv-x="230" 
 />
    <glyph glyph-name="exclamdown" unicode="&#xa1;" horiz-adv-x="182" 
d="M154 567q9 -9 9 -21t-9 -21t-22 -9q-12 0 -21 9t-9 21t9 21t21 9q13 0 22 -9zM40 -192h-22l92 610h18z" />
    <glyph glyph-name="cent" unicode="&#xa2;" horiz-adv-x="626" 
d="M471 457.5q-47 32.5 -113 33.5l-68 -482q72 2 132 40.5t93 106.5l18 -2q-36 -75 -101.5 -118t-143.5 -44l-17 -119h-18l17 119q-88 5 -140 63.5t-52 153.5q0 85 34 151.5t94.5 105.5t136.5 42l18 130h18l-18 -130q71 -1 122.5 -37.5t71.5 -101.5l-18 -3q-19 59 -66 91.5z
M143 67.5q47 -53.5 129 -58.5l68 482q-71 -4 -126.5 -41t-86.5 -99t-31 -140q0 -90 47 -143.5z" />
    <glyph glyph-name="sterling" unicode="&#xa3;" horiz-adv-x="596" 
d="M244 726q-48 -25 -74.5 -69t-26.5 -100q0 -40 16 -73t48 -71q36 -43 56 -85h213l-3 -17h-203q15 -37 15 -74q0 -61 -31 -119.5t-78 -100.5h307l-3 -17h-412l3 17h82q53 49 83.5 102.5t30.5 116.5q0 39 -16 75h-138l3 17h127q-19 35 -50 73q-33 40 -50.5 76.5t-17.5 78.5
q0 60 28.5 108.5t80.5 76t121 27.5q75 0 124 -40.5t66 -105.5l-18 -2q-19 59 -62 95t-112 36q-61 0 -109 -25z" />
    <glyph glyph-name="currency" unicode="&#xa4;" horiz-adv-x="670" 
d="M580 387q0 -57 -21 -108t-58 -89l69 -81l-14 -13l-69 81q-35 -31 -79 -48t-94 -17q-48 0 -87.5 16t-65.5 46l-88 -76l-11 12l89 77q-38 52 -38 126q0 59 21.5 111t60.5 90l-67 80l14 13l68 -79q34 29 77 44.5t91 15.5q49 0 89 -16.5t66 -47.5l92 80l11 -12l-93 -81
q37 -51 37 -124zM182 179q51 -50 134 -50q70 0 126.5 35t88 94t31.5 128q0 85 -51.5 135t-135.5 50q-69 0 -125 -34.5t-87.5 -93.5t-31.5 -129q0 -85 51 -135z" />
    <glyph glyph-name="yen" unicode="&#xa5;" horiz-adv-x="612" 
d="M338 364h184l-3 -17h-190l-16 -113h190l-1 -17h-191l-31 -217h-18l31 217h-191l1 17h192l16 113h-192l3 17h184l-154 396h18l152 -391l262 391h20z" />
    <glyph glyph-name="brokenbar" unicode="&#xa6;" horiz-adv-x="259" 
d="M192 760h18l-46 -330h-18zM104 138h18l-46 -330h-18z" />
    <glyph glyph-name="section" unicode="&#xa7;" horiz-adv-x="565" 
d="M478.5 726.5q52.5 -41.5 57.5 -115.5l-18 -2q-6 67 -52.5 104.5t-119.5 37.5q-87 0 -136.5 -47t-49.5 -120q0 -48 35 -85.5t97 -59.5l38 -14q75 -27 106.5 -61t31.5 -79q0 -49 -27.5 -96t-80.5 -77q73 -47 73 -119q0 -56 -26.5 -100t-74.5 -68.5t-111 -24.5
q-81 0 -129 40.5t-53 116.5l18 2q6 -70 48.5 -106t117.5 -36q85 0 138.5 48t53.5 127q0 91 -132 138l-39 14q-74 27 -106 61t-32 80q0 49 28.5 95.5t81.5 76.5q-74 51 -74 127q0 52 24.5 94t71 66t110.5 24q78 0 130.5 -41.5zM286 423q-26 9 -55 25q-50 -26 -78.5 -70.5
t-28.5 -90.5q0 -45 31.5 -74.5t99.5 -54.5l33 -12q36 -14 56 -25q50 27 78 72t28 90t-31.5 75t-98.5 53z" />
    <glyph glyph-name="dieresis" unicode="&#xa8;" horiz-adv-x="290" 
d="M113 623q-8 8 -8 19t8 19t20 8q11 0 19 -8t8 -19t-8 -19t-19 -8q-12 0 -20 8zM248 623q-8 8 -8 19t8 19t20 8q11 0 19 -8t8 -19t-8 -19t-19 -8q-12 0 -20 8z" />
    <glyph glyph-name="copyright" unicode="&#xa9;" horiz-adv-x="962" 
d="M299 44q-91 52 -144 141t-53 195t53 195t144 141t200 52t200 -52t144 -141t53 -195t-53 -195t-144 -141t-200 -52t-200 52zM690 59q87 50 137.5 135t50.5 186t-50.5 186t-137.5 135t-191 50t-191 -50t-137.5 -135t-50.5 -186t50.5 -186t137.5 -135t191 -50t191 50z
M391 175q-50 29 -78.5 82.5t-28.5 123.5q0 71 29.5 124.5t79.5 81.5t112 28q68 0 118 -34t77 -92l-18 -3q-25 54 -72 83t-107 29q-57 0 -103 -26.5t-72 -76t-26 -114.5t26 -114.5t72 -76.5t103 -27q67 0 116.5 35.5t70.5 96.5l17 -2q-22 -69 -77 -108t-127 -39
q-62 0 -112 29z" />
    <glyph glyph-name="ordfeminine" unicode="&#xaa;" horiz-adv-x="427" 
d="M438 760l-41 -293h-17l10 77q-23 -38 -62.5 -60t-84.5 -22q-60 0 -96.5 38t-36.5 96q0 50 24 89t64 61t86 22q45 0 79 -23.5t47 -62.5l11 78h17zM342 511.5q43 33.5 56 85.5l4 29v8q0 51 -33 84.5t-86 33.5q-39 0 -75 -20t-58.5 -55t-22.5 -78q0 -54 32 -87.5t87 -33.5
q53 0 96 33.5z" />
    <glyph glyph-name="guillemotleft" unicode="&#xab;" horiz-adv-x="370" 
d="M202 480h20l-141 -209l82 -207h-18l-82 208zM322 480h20l-141 -209l82 -207h-18l-82 208z" />
    <glyph glyph-name="logicalnot" unicode="&#xac;" horiz-adv-x="585" 
d="M524 383l-23 -163h-18l20 146h-407l3 17h425z" />
    <glyph glyph-name="uni00AD" unicode="&#xad;" horiz-adv-x="420" 
d="M64 277h300l-3 -17h-300z" />
    <glyph glyph-name="registered" unicode="&#xae;" horiz-adv-x="685" 
d="M515 734.5q59 -33.5 92 -90.5t33 -125t-33 -125.5t-92 -91t-135 -33.5t-135 33.5t-92 90.5t-33 126q0 68 33 125t92 90.5t135 33.5t135 -33.5zM506 316.5q55 30.5 85.5 84t30.5 118.5q0 64 -30.5 117t-85.5 84t-126 31q-70 0 -125.5 -31t-86 -84t-30.5 -117
q0 -65 30.5 -118.5t85.5 -84t126 -30.5t126 30.5zM454 532q-15 -20 -40 -28l48 -98h-21l-46 94h-8h-53v-94h-18v248h69q40 0 62 -22.5t22 -54.5q0 -25 -15 -45zM432 534.5q18 17.5 18 42.5t-18 42.5t-45 17.5h-53v-120h53q27 0 45 17.5z" />
    <glyph glyph-name="macron" unicode="&#xaf;" horiz-adv-x="370" 
d="M109 672h270l-2 -14h-270z" />
    <glyph glyph-name="degree" unicode="&#xb0;" horiz-adv-x="412" 
d="M172.5 554.5q-36.5 36.5 -36.5 88.5t36.5 88.5t88.5 36.5t88.5 -36.5t36.5 -88.5t-36.5 -88.5t-88.5 -36.5t-88.5 36.5zM337.5 566.5q31.5 31.5 31.5 76.5t-31.5 76.5t-76.5 31.5t-76.5 -31.5t-31.5 -76.5t31.5 -76.5t76.5 -31.5t76.5 31.5z" />
    <glyph glyph-name="plusminus" unicode="&#xb1;" horiz-adv-x="502" 
d="M428 376h-156l-22 -157h-17l22 157h-157l3 17h156l22 156h17l-22 -156h157zM69 87h330l-3 -17h-330z" />
    <glyph glyph-name="uni00B2" unicode="&#xb2;" horiz-adv-x="377" 
d="M153 509.5q-21 -30.5 -27 -68.5h198l-3 -15h-215l1 9q8 49 31 82t73 60l57 30q34 18 49.5 38.5t15.5 48.5q0 26 -20 42.5t-55 16.5q-29 0 -55.5 -13t-39.5 -32l-18 2q17 26 47 42t67 16q43 0 67 -20t24 -52q0 -34 -19.5 -58.5t-55.5 -43.5l-53 -28q-48 -26 -69 -56.5z
" />
    <glyph glyph-name="uni00B3" unicode="&#xb3;" horiz-adv-x="385" 
d="M326.5 576q16.5 -22 16.5 -51q0 -48 -35.5 -77.5t-91.5 -29.5q-42 0 -68.5 16t-35.5 43l17 2q9 -21 30.5 -33.5t57.5 -12.5q46 0 77.5 26t31.5 66q0 33 -25 52.5t-75 19.5h-26l3 15h20q50 0 80 24.5t30 58.5q0 26 -18.5 42t-52.5 16q-30 0 -55 -12.5t-38 -32.5l-18 2
q17 27 46 42.5t66 15.5q40 0 63.5 -20t23.5 -52q0 -30 -20.5 -54.5t-53.5 -35.5q34 -8 50.5 -30z" />
    <glyph glyph-name="acute" unicode="&#xb4;" horiz-adv-x="222" 
d="M113 592h-15l124 168h22z" />
    <glyph glyph-name="uni00B5" unicode="&#xb5;" horiz-adv-x="560" 
d="M515 500l-70 -500h-18l19 135q-33 -71 -90 -107t-117 -36q-58 0 -102 27t-60 81l-41 -292h-18l52 371l2 17l43 304h18l-45 -323q-1 -6 -1 -18q0 -70 41.5 -110t113.5 -40q51 0 97.5 27t79 80.5t42.5 127.5l36 256h18z" />
    <glyph glyph-name="paragraph" unicode="&#xb6;" horiz-adv-x="670" 
d="M659 743h-106l-131 -935h-18l131 935h-152l-131 -935h-18l73 520q-54 0 -97 24.5t-67 67t-24 94.5q0 64 35 120.5t92.5 91t120.5 34.5h295z" />
    <glyph glyph-name="periodcentered" unicode="&#xb7;" horiz-adv-x="161" 
d="M77 357q-9 9 -9 21t9 21t22 9q12 0 21 -9t9 -21t-9 -21t-21 -9q-13 0 -22 9z" />
    <glyph glyph-name="cedilla" unicode="&#xb8;" horiz-adv-x="250" 
d="M129.5 -67q18.5 -17 18.5 -48q0 -40 -27 -62.5t-70 -22.5q-16 0 -34 4t-28 9l8 16q10 -5 25 -8.5t29 -3.5q37 0 58 18.5t21 49.5q0 22 -13.5 35t-38.5 13q-26 0 -48 -13l-11 9l31 76h18l-25 -62q17 7 38 7q30 0 48.5 -17z" />
    <glyph glyph-name="uni00B9" unicode="&#xb9;" horiz-adv-x="247" 
d="M239 760l-48 -338h-17l42 296q-12 -6 -28 -8t-44 -2l2 14q43 0 58 8t20 30h15z" />
    <glyph glyph-name="ordmasculine" unicode="&#xba;" horiz-adv-x="426" 
d="M147.5 499.5q-36.5 37.5 -36.5 98.5q0 46 23.5 85t63 62t85.5 23q61 0 98 -37.5t37 -96.5q0 -47 -23.5 -86.5t-63.5 -62.5t-86 -23q-61 0 -97.5 37.5zM323.5 499.5q35.5 21.5 56.5 57.5t21 77q0 53 -32.5 85.5t-84.5 32.5q-42 0 -78 -21t-57 -56.5t-21 -77.5
q0 -53 32 -86t85 -33q43 0 78.5 21.5z" />
    <glyph glyph-name="guillemotright" unicode="&#xbb;" horiz-adv-x="370" 
d="M174 64h-20l141 209l-82 207h18l82 -208zM54 64h-20l141 209l-82 207h18l82 -208z" />
    <glyph glyph-name="onequarter" unicode="&#xbc;" horiz-adv-x="830" 
d="M239 760l-48 -338h-17l42 296q-12 -6 -28 -8t-44 -2l2 14q43 0 58 8t20 30h15zM705 760h22l-660 -760h-22zM727 94h-63l-13 -94h-17l13 94h-185l3 15l100 229h17l-100 -229h167l17 117h17l-17 -117h64z" />
    <glyph glyph-name="onehalf" unicode="&#xbd;" horiz-adv-x="796" 
d="M239 760l-48 -338h-17l42 296q-12 -6 -28 -8t-44 -2l2 14q43 0 58 8t20 30h15zM512 83.5q-21 -30.5 -27 -68.5h198l-3 -15h-215l1 9q8 49 31 82t73 60l57 30q34 18 49.5 38.5t15.5 48.5q0 26 -20 42.5t-55 16.5q-29 0 -55.5 -13t-39.5 -32l-18 2q17 26 47 42t67 16
q43 0 67 -20t24 -52q0 -34 -19.5 -58.5t-55.5 -43.5l-53 -28q-48 -26 -69 -56.5zM705 760h22l-660 -760h-22z" />
    <glyph glyph-name="threequarters" unicode="&#xbe;" horiz-adv-x="870" 
d="M326.5 576q16.5 -22 16.5 -51q0 -48 -35.5 -77.5t-91.5 -29.5q-42 0 -68.5 16t-35.5 43l17 2q9 -21 30.5 -33.5t57.5 -12.5q46 0 77.5 26t31.5 66q0 33 -25 52.5t-75 19.5h-26l3 15h20q50 0 80 24.5t30 58.5q0 26 -18.5 42t-52.5 16q-30 0 -55 -12.5t-38 -32.5l-18 2
q17 27 46 42.5t66 15.5q40 0 63.5 -20t23.5 -52q0 -30 -20.5 -54.5t-53.5 -35.5q34 -8 50.5 -30zM745 760h22l-660 -760h-22zM767 94h-63l-13 -94h-17l13 94h-185l3 15l100 229h17l-100 -229h167l17 117h17l-17 -117h64z" />
    <glyph glyph-name="questiondown" unicode="&#xbf;" horiz-adv-x="540" 
d="M336 400q-6 -56 -17 -97.5t-37.5 -79t-73.5 -62.5l-49 -26q-120 -64 -120 -177q0 -73 46.5 -107t120.5 -34q71 0 123.5 28.5t86.5 72.5l16 -9q-37 -49 -94 -79t-132 -30q-84 0 -134.5 40t-50.5 119q0 66 35 112t97 80l47 25q56 30 81 79t36 139l3 24h18zM357 567
q9 -9 9 -21t-9 -21t-22 -9q-12 0 -21 9t-9 21t9 21t21 9q13 0 22 -9z" />
    <glyph glyph-name="Agrave" unicode="&#xc0;" 
d="M467 162h-400l-78 -162h-19l370 760h22l157 -760h-19zM463 179l-115 563l-272 -563h387zM265 1020l124 -168h-15l-131 168h22z" />
    <glyph glyph-name="Aacute" unicode="&#xc1;" 
d="M467 162h-400l-78 -162h-19l370 760h22l157 -760h-19zM463 179l-115 563l-272 -563h387zM358 852h-15l124 168h22z" />
    <glyph glyph-name="Acircumflex" unicode="&#xc2;" 
d="M467 162h-400l-78 -162h-19l370 760h22l157 -760h-19zM463 179l-115 563l-272 -563h387zM491 850l-114 156l-156 -156h-24l171 170h19l125 -170h-21z" />
    <glyph glyph-name="Atilde" unicode="&#xc3;" 
d="M467 162h-400l-78 -162h-19l370 760h22l157 -760h-19zM463 179l-115 563l-272 -563h387zM403.5 900.5q-16.5 9.5 -37.5 28.5q-17 16 -33 25t-34 9q-23 0 -45 -14t-40 -41l-13 8q20 29 46 45.5t54 16.5q23 0 40.5 -10t37.5 -28q19 -17 33.5 -25.5t33.5 -8.5q23 0 47 14.5
t43 41.5l13 -8q-51 -63 -106 -63q-23 0 -39.5 9.5z" />
    <glyph glyph-name="Adieresis" unicode="&#xc4;" 
d="M467 162h-400l-78 -162h-19l370 760h22l157 -760h-19zM463 179l-115 563l-272 -563h387zM284 883q-8 8 -8 19t8 19t20 8q11 0 19 -8t8 -19t-8 -19t-19 -8q-12 0 -20 8zM419 883q-8 8 -8 19t8 19t20 8q11 0 19 -8t8 -19t-8 -19t-19 -8q-12 0 -20 8z" />
    <glyph glyph-name="Aring" unicode="&#xc5;" 
d="M467 162h-400l-78 -162h-19l370 760h22l157 -760h-19zM463 179l-115 563l-272 -563h387zM299 867q-29 29 -29 71t29 71t71 29t71 -29t29 -71t-29 -71t-71 -29t-71 29zM431 877q24 24 24 61q0 36 -24 60.5t-61 24.5t-61 -24.5t-24 -60.5q0 -37 24 -61t61 -24t61 24z" />
    <glyph glyph-name="AE" unicode="&#xc6;" horiz-adv-x="856" 
d="M505 743l-47 -334h351l-3 -17h-351l-53 -375h361l-3 -17h-378l30 212h-287l-144 -212h-21l519 760h383l-3 -17h-354zM414 229l72 513l-349 -513h277z" />
    <glyph glyph-name="Ccedilla" unicode="&#xc7;" horiz-adv-x="810" 
d="M218 33q-71 41 -109.5 117t-38.5 177q0 116 56.5 217.5t153.5 162.5t211 61q121 0 201 -65.5t105 -176.5l-18 -2q-25 106 -99.5 166.5t-190.5 60.5q-109 0 -201 -59t-146 -156.5t-54 -206.5q0 -98 36.5 -170t103.5 -111t157 -39q115 0 208 62t147 168l18 -2
q-57 -113 -154 -179t-221 -66q-94 0 -165 41zM435.5 -67q18.5 -17 18.5 -48q0 -40 -27 -62.5t-70 -22.5q-16 0 -34 4t-28 9l8 16q10 -5 25 -8.5t29 -3.5q37 0 58 18.5t21 49.5q0 22 -13.5 35t-38.5 13q-26 0 -48 -13l-11 9l31 76h18l-25 -62q17 7 38 7q30 0 48.5 -17z" />
    <glyph glyph-name="Egrave" unicode="&#xc8;" horiz-adv-x="541" 
d="M168 743l-47 -334h373l-3 -17h-373l-53 -375h383l-3 -17h-400l107 760h395l-3 -17h-376zM260 1020l124 -168h-15l-131 168h22z" />
    <glyph glyph-name="Eacute" unicode="&#xc9;" horiz-adv-x="541" 
d="M168 743l-47 -334h373l-3 -17h-373l-53 -375h383l-3 -17h-400l107 760h395l-3 -17h-376zM353 852h-15l124 168h22z" />
    <glyph glyph-name="Ecircumflex" unicode="&#xca;" horiz-adv-x="541" 
d="M168 743l-47 -334h373l-3 -17h-373l-53 -375h383l-3 -17h-400l107 760h395l-3 -17h-376zM486 850l-114 156l-156 -156h-24l171 170h19l125 -170h-21z" />
    <glyph glyph-name="Edieresis" unicode="&#xcb;" horiz-adv-x="541" 
d="M168 743l-47 -334h373l-3 -17h-373l-53 -375h383l-3 -17h-400l107 760h395l-3 -17h-376zM279 883q-8 8 -8 19t8 19t20 8q11 0 19 -8t8 -19t-8 -19t-19 -8q-12 0 -20 8zM414 883q-8 8 -8 19t8 19t20 8q11 0 19 -8t8 -19t-8 -19t-19 -8q-12 0 -20 8z" />
    <glyph glyph-name="Igrave" unicode="&#xcc;" horiz-adv-x="178" 
d="M152 760h18l-107 -760h-18zM75 1020l124 -168h-15l-131 168h22z" />
    <glyph glyph-name="Iacute" unicode="&#xcd;" horiz-adv-x="178" 
d="M152 760h18l-107 -760h-18zM168 852h-15l124 168h22z" />
    <glyph glyph-name="Icircumflex" unicode="&#xce;" horiz-adv-x="178" 
d="M152 760h18l-107 -760h-18zM301 850l-114 156l-156 -156h-24l171 170h19l125 -170h-21z" />
    <glyph glyph-name="Idieresis" unicode="&#xcf;" horiz-adv-x="178" 
d="M152 760h18l-107 -760h-18zM94 883q-8 8 -8 19t8 19t20 8q11 0 19 -8t8 -19t-8 -19t-19 -8q-12 0 -20 8zM229 883q-8 8 -8 19t8 19t20 8q11 0 19 -8t8 -19t-8 -19t-19 -8q-12 0 -20 8z" />
    <glyph glyph-name="Eth" unicode="&#xd0;" horiz-adv-x="785" 
d="M595.5 719q77.5 -41 117 -113t39.5 -163q0 -126 -56 -227t-156 -158.5t-227 -57.5h-223l55 392h-105l3 17h105l49 351h212q109 0 186.5 -41zM532 72.5q95 55.5 148.5 152.5t53.5 217q0 87 -37 155t-110.5 107t-179.5 39h-194l-47 -334h287l-3 -17h-287l-53 -375h206
q121 0 216 55.5z" />
    <glyph glyph-name="Ntilde" unicode="&#xd1;" horiz-adv-x="650" 
d="M642 760l-107 -760h-18l-352 728l-102 -728h-18l107 760h18v-2l351 -727l103 729h18zM450.5 900.5q-16.5 9.5 -37.5 28.5q-17 16 -33 25t-34 9q-23 0 -45 -14t-40 -41l-13 8q20 29 46 45.5t54 16.5q23 0 40.5 -10t37.5 -28q19 -17 33.5 -25.5t33.5 -8.5q23 0 47 14.5
t43 41.5l13 -8q-51 -63 -106 -63q-23 0 -39.5 9.5z" />
    <glyph glyph-name="Ograve" unicode="&#xd2;" horiz-adv-x="840" 
d="M217.5 33.5q-70.5 41.5 -109 117.5t-38.5 176q0 116 57 217.5t154.5 162.5t212.5 61q93 0 163.5 -41.5t109.5 -117.5t39 -177q0 -116 -57 -217t-155 -162t-213 -61q-93 0 -163.5 41.5zM585.5 67.5q93.5 58.5 148 156t54.5 207.5q0 96 -36 168.5t-103 112t-157 39.5
q-110 0 -202.5 -59t-147 -156.5t-54.5 -207.5q0 -96 36 -168t102.5 -111.5t155.5 -39.5q110 0 203.5 58.5zM411 1020l124 -168h-15l-131 168h22z" />
    <glyph glyph-name="Oacute" unicode="&#xd3;" horiz-adv-x="840" 
d="M217.5 33.5q-70.5 41.5 -109 117.5t-38.5 176q0 116 57 217.5t154.5 162.5t212.5 61q93 0 163.5 -41.5t109.5 -117.5t39 -177q0 -116 -57 -217t-155 -162t-213 -61q-93 0 -163.5 41.5zM585.5 67.5q93.5 58.5 148 156t54.5 207.5q0 96 -36 168.5t-103 112t-157 39.5
q-110 0 -202.5 -59t-147 -156.5t-54.5 -207.5q0 -96 36 -168t102.5 -111.5t155.5 -39.5q110 0 203.5 58.5zM504 852h-15l124 168h22z" />
    <glyph glyph-name="Ocircumflex" unicode="&#xd4;" horiz-adv-x="840" 
d="M217.5 33.5q-70.5 41.5 -109 117.5t-38.5 176q0 116 57 217.5t154.5 162.5t212.5 61q93 0 163.5 -41.5t109.5 -117.5t39 -177q0 -116 -57 -217t-155 -162t-213 -61q-93 0 -163.5 41.5zM585.5 67.5q93.5 58.5 148 156t54.5 207.5q0 96 -36 168.5t-103 112t-157 39.5
q-110 0 -202.5 -59t-147 -156.5t-54.5 -207.5q0 -96 36 -168t102.5 -111.5t155.5 -39.5q110 0 203.5 58.5zM637 850l-114 156l-156 -156h-24l171 170h19l125 -170h-21z" />
    <glyph glyph-name="Otilde" unicode="&#xd5;" horiz-adv-x="840" 
d="M217.5 33.5q-70.5 41.5 -109 117.5t-38.5 176q0 116 57 217.5t154.5 162.5t212.5 61q93 0 163.5 -41.5t109.5 -117.5t39 -177q0 -116 -57 -217t-155 -162t-213 -61q-93 0 -163.5 41.5zM585.5 67.5q93.5 58.5 148 156t54.5 207.5q0 96 -36 168.5t-103 112t-157 39.5
q-110 0 -202.5 -59t-147 -156.5t-54.5 -207.5q0 -96 36 -168t102.5 -111.5t155.5 -39.5q110 0 203.5 58.5zM549.5 900.5q-16.5 9.5 -37.5 28.5q-17 16 -33 25t-34 9q-23 0 -45 -14t-40 -41l-13 8q20 29 46 45.5t54 16.5q23 0 40.5 -10t37.5 -28q19 -17 33.5 -25.5t33.5 -8.5
q23 0 47 14.5t43 41.5l13 -8q-51 -63 -106 -63q-23 0 -39.5 9.5z" />
    <glyph glyph-name="Odieresis" unicode="&#xd6;" horiz-adv-x="840" 
d="M217.5 33.5q-70.5 41.5 -109 117.5t-38.5 176q0 116 57 217.5t154.5 162.5t212.5 61q93 0 163.5 -41.5t109.5 -117.5t39 -177q0 -116 -57 -217t-155 -162t-213 -61q-93 0 -163.5 41.5zM585.5 67.5q93.5 58.5 148 156t54.5 207.5q0 96 -36 168.5t-103 112t-157 39.5
q-110 0 -202.5 -59t-147 -156.5t-54.5 -207.5q0 -96 36 -168t102.5 -111.5t155.5 -39.5q110 0 203.5 58.5zM470.75 883q-7.7207 8 -7.33594 19q0.383789 11 8.66309 19t20.2793 8q11 0 18.7207 -8t7.33691 -19q-0.384766 -11 -8.66406 -19t-19.2793 -8q-12 0 -19.7207 8z
M605.75 883q-7.7207 8 -7.33594 19q0.383789 11 8.66309 19t20.2793 8q11 0 18.7207 -8t7.33691 -19q-0.384766 -11 -8.66406 -19t-19.2793 -8q-12 0 -19.7207 8z" />
    <glyph glyph-name="multiply" unicode="&#xd7;" horiz-adv-x="448" 
d="M239 268l113 -132l-13 -12l-114 132l-150 -132l-11 12l151 132l-114 132l14 12l113 -132l151 132l10 -12z" />
    <glyph glyph-name="Oslash" unicode="&#xd8;" horiz-adv-x="840" 
d="M779.5 582.5q26.5 -66.5 26.5 -150.5q0 -116 -57 -217t-155 -162t-213 -61q-121 0 -201 68l-50 -60h-21l58 71q-47 44 -72 109.5t-25 146.5q0 116 57 217.5t154.5 162.5t212.5 61q116 0 197 -64l46 56h21l-55 -66q50 -45 76.5 -111.5zM111.5 189.5
q23.5 -62.5 67.5 -104.5l500 605q-77 61 -187 61t-203 -59t-147 -156.5t-54 -207.5q0 -76 23.5 -138.5zM586 67.5q93 58.5 147.5 156t54.5 207.5q0 79 -25 143t-71 106l-501 -606q77 -65 191 -65q111 0 204 58.5z" />
    <glyph glyph-name="Ugrave" unicode="&#xd9;" horiz-adv-x="645" 
d="M128 42q-58 50 -58 148q0 29 5 62l72 508h18l-72 -512q-5 -30 -5 -57q0 -90 52.5 -136t150.5 -46q111 0 177 59t82 171l74 521h18l-73 -518q-18 -122 -87 -186t-191 -64q-105 0 -163 50zM298 1020l124 -168h-15l-131 168h22z" />
    <glyph glyph-name="Uacute" unicode="&#xda;" horiz-adv-x="645" 
d="M128 42q-58 50 -58 148q0 29 5 62l72 508h18l-72 -512q-5 -30 -5 -57q0 -90 52.5 -136t150.5 -46q111 0 177 59t82 171l74 521h18l-73 -518q-18 -122 -87 -186t-191 -64q-105 0 -163 50zM391 852h-15l124 168h22z" />
    <glyph glyph-name="Ucircumflex" unicode="&#xdb;" horiz-adv-x="645" 
d="M128 42q-58 50 -58 148q0 29 5 62l72 508h18l-72 -512q-5 -30 -5 -57q0 -90 52.5 -136t150.5 -46q111 0 177 59t82 171l74 521h18l-73 -518q-18 -122 -87 -186t-191 -64q-105 0 -163 50zM524 850l-114 156l-156 -156h-24l171 170h19l125 -170h-21z" />
    <glyph glyph-name="Udieresis" unicode="&#xdc;" horiz-adv-x="645" 
d="M128 42q-58 50 -58 148q0 29 5 62l72 508h18l-72 -512q-5 -30 -5 -57q0 -90 52.5 -136t150.5 -46q111 0 177 59t82 171l74 521h18l-73 -518q-18 -122 -87 -186t-191 -64q-105 0 -163 50zM317 883q-8 8 -8 19t8 19t20 8q11 0 19 -8t8 -19t-8 -19t-19 -8q-12 0 -20 8z
M452 883q-8 8 -8 19t8 19t20 8q11 0 19 -8t8 -19t-8 -19t-19 -8q-12 0 -20 8z" />
    <glyph glyph-name="Yacute" unicode="&#xdd;" horiz-adv-x="520" 
d="M587 760l-506 -760h-20l218 329l-192 431h19l185 -414l275 414h21zM344 852h-15l124 168h22z" />
    <glyph glyph-name="Thorn" unicode="&#xde;" horiz-adv-x="605" 
d="M525.5 574q54.5 -56 54.5 -155q0 -81 -34 -144.5t-97.5 -100t-147.5 -36.5h-219l-19 -138h-18l107 760h18l-18 -130h198q121 0 175.5 -56zM441.5 190q58.5 35 89.5 94.5t31 132.5q0 95 -50 145.5t-166 50.5h-197l-64 -458h220q78 0 136.5 35z" />
    <glyph glyph-name="germandbls" unicode="&#xdf;" horiz-adv-x="547" 
d="M439.5 357q51.5 -51 51.5 -134q0 -71 -33 -123.5t-88 -80t-118 -27.5q-66 0 -114 22l7 16q27 -11 51.5 -16t57.5 -5q58 0 108 26t80.5 74t30.5 113q0 87 -58.5 133.5t-159.5 46.5h-12l3 13v5q54 6 102.5 34.5t78 73t29.5 97.5q0 56 -36.5 91t-100.5 35q-76 0 -123.5 -49
t-60.5 -136l-82 -566h-18l83 571q14 97 68 147t135 50q70 0 111.5 -39.5t41.5 -102.5q0 -48 -23.5 -91.5t-64 -74.5t-89.5 -44q91 -8 142.5 -59z" />
    <glyph glyph-name="agrave" unicode="&#xe0;" horiz-adv-x="599" 
d="M564 500l-70 -500h-16l21 157q-34 -77 -99.5 -121t-145.5 -44q-61 0 -108.5 27t-73.5 77t-26 116q0 81 36.5 149t100 107.5t142.5 39.5q80 0 133 -42t66 -119l22 153h18zM388.5 48.5q58.5 39.5 91.5 104.5t33 140q0 94 -51.5 146t-137.5 52q-74 0 -133.5 -38t-93 -101.5
t-33.5 -138.5q0 -94 52.5 -149t139.5 -55q74 0 132.5 39.5zM246 760l124 -168h-15l-131 168h22z" />
    <glyph glyph-name="aacute" unicode="&#xe1;" horiz-adv-x="599" 
d="M564 500l-70 -500h-16l21 157q-34 -77 -99.5 -121t-145.5 -44q-61 0 -108.5 27t-73.5 77t-26 116q0 81 36.5 149t100 107.5t142.5 39.5q80 0 133 -42t66 -119l22 153h18zM388.5 48.5q58.5 39.5 91.5 104.5t33 140q0 94 -51.5 146t-137.5 52q-74 0 -133.5 -38t-93 -101.5
t-33.5 -138.5q0 -94 52.5 -149t139.5 -55q74 0 132.5 39.5zM339 592h-15l124 168h22z" />
    <glyph glyph-name="acircumflex" unicode="&#xe2;" horiz-adv-x="599" 
d="M564 500l-70 -500h-16l21 157q-34 -77 -99.5 -121t-145.5 -44q-61 0 -108.5 27t-73.5 77t-26 116q0 81 36.5 149t100 107.5t142.5 39.5q80 0 133 -42t66 -119l22 153h18zM388.5 48.5q58.5 39.5 91.5 104.5t33 140q0 94 -51.5 146t-137.5 52q-74 0 -133.5 -38t-93 -101.5
t-33.5 -138.5q0 -94 52.5 -149t139.5 -55q74 0 132.5 39.5zM472 590l-114 156l-156 -156h-24l171 170h19l125 -170h-21z" />
    <glyph glyph-name="atilde" unicode="&#xe3;" horiz-adv-x="599" 
d="M564 500l-70 -500h-16l21 157q-34 -77 -99.5 -121t-145.5 -44q-61 0 -108.5 27t-73.5 77t-26 116q0 81 36.5 149t100 107.5t142.5 39.5q80 0 133 -42t66 -119l22 153h18zM388.5 48.5q58.5 39.5 91.5 104.5t33 140q0 94 -51.5 146t-137.5 52q-74 0 -133.5 -38t-93 -101.5
t-33.5 -138.5q0 -94 52.5 -149t139.5 -55q74 0 132.5 39.5zM384.5 640.5q-16.5 9.5 -37.5 28.5q-17 16 -33 25t-34 9q-23 0 -45 -14t-40 -41l-13 8q20 29 46 45.5t54 16.5q23 0 40.5 -10t37.5 -28q19 -17 33.5 -25.5t33.5 -8.5q23 0 47 14.5t43 41.5l13 -8q-51 -63 -106 -63
q-23 0 -39.5 9.5z" />
    <glyph glyph-name="adieresis" unicode="&#xe4;" horiz-adv-x="599" 
d="M564 500l-70 -500h-16l21 157q-34 -77 -99.5 -121t-145.5 -44q-61 0 -108.5 27t-73.5 77t-26 116q0 81 36.5 149t100 107.5t142.5 39.5q80 0 133 -42t66 -119l22 153h18zM388.5 48.5q58.5 39.5 91.5 104.5t33 140q0 94 -51.5 146t-137.5 52q-74 0 -133.5 -38t-93 -101.5
t-33.5 -138.5q0 -94 52.5 -149t139.5 -55q74 0 132.5 39.5zM265 623q-8 8 -8 19t8 19t20 8q11 0 19 -8t8 -19t-8 -19t-19 -8q-12 0 -20 8zM400 623q-8 8 -8 19t8 19t20 8q11 0 19 -8t8 -19t-8 -19t-19 -8q-12 0 -20 8z" />
    <glyph glyph-name="aring" unicode="&#xe5;" horiz-adv-x="599" 
d="M564 500l-70 -500h-16l21 157q-34 -77 -99.5 -121t-145.5 -44q-61 0 -108.5 27t-73.5 77t-26 116q0 81 36.5 149t100 107.5t142.5 39.5q80 0 133 -42t66 -119l22 153h18zM388.5 48.5q58.5 39.5 91.5 104.5t33 140q0 94 -51.5 146t-137.5 52q-74 0 -133.5 -38t-93 -101.5
t-33.5 -138.5q0 -94 52.5 -149t139.5 -55q74 0 132.5 39.5zM280 607q-29 29 -29 71t29 71t71 29t71 -29t29 -71t-29 -71t-71 -29t-71 29zM412 617q24 24 24 61q0 36 -24 60.5t-61 24.5t-61 -24.5t-24 -60.5q0 -37 24 -61t61 -24t61 24z" />
    <glyph glyph-name="ae" unicode="&#xe6;" horiz-adv-x="945" 
d="M469 233q-1 -11 -1 -31q0 -90 49 -141.5t133 -51.5q73 0 122.5 36t82.5 106l18 -3q-71 -156 -225 -156q-80 0 -133 45.5t-63 124.5q-31 -80 -105 -125t-157 -45q-70 0 -113.5 32t-43.5 91q0 81 54.5 121t153.5 40h217q7 56 7 71q0 65 -43.5 104.5t-119.5 39.5
q-111 0 -187 -91l-15 9q80 99 205 99q84 0 131 -43.5t47 -117.5q34 73 94.5 117t136.5 44q53 0 95.5 -23t67.5 -67t25 -105q0 -30 -4 -54h-425q-2 -18 -4 -26zM605 462.5q-49 -28.5 -82 -77t-47 -109.5h405q2 24 2 34q0 86 -49 133.5t-123 47.5q-57 0 -106 -28.5zM308.5 35
q56.5 26 95 74t46.5 110l2 14q0 6 2 18l1 8h-217q-88 0 -137 -35t-49 -105q0 -52 39 -81t102 -29q59 0 115.5 26z" />
    <glyph glyph-name="ccedilla" unicode="&#xe7;" 
d="M102.5 51q-56.5 59 -56.5 158q0 87 36 155t100 106t143 38q73 0 125.5 -37t72.5 -102l-18 -3q-19 60 -67 92.5t-114 32.5q-75 0 -134 -36t-92.5 -100t-33.5 -144q0 -94 51 -148t139 -54q72 0 133.5 39t95.5 108l18 -2q-36 -76 -102 -119t-145 -43q-95 0 -151.5 59z
M301.5 -67q18.5 -17 18.5 -48q0 -40 -27 -62.5t-70 -22.5q-16 0 -34 4t-28 9l8 16q10 -5 25 -8.5t29 -3.5q37 0 58 18.5t21 49.5q0 22 -13.5 35t-38.5 13q-26 0 -48 -13l-11 9l31 76h18l-25 -62q17 7 38 7q30 0 48.5 -17z" />
    <glyph glyph-name="egrave" unicode="&#xe8;" horiz-adv-x="562" 
d="M66 249q-3 -21 -3 -41q0 -92 53 -145.5t141 -53.5q69 0 123 34.5t89 97.5l18 -2q-37 -71 -96.5 -109t-136.5 -38q-61 0 -108.5 26.5t-74 75t-26.5 113.5q0 80 35 149.5t97.5 110.5t140.5 41q88 0 144 -53t56 -149q0 -27 -4 -57h-448zM201.5 461q-52.5 -30 -87 -81.5
t-46.5 -113.5h429q3 18 3 38q0 91 -50.5 139t-132.5 48q-63 0 -115.5 -30zM241 760l124 -168h-15l-131 168h22z" />
    <glyph glyph-name="eacute" unicode="&#xe9;" horiz-adv-x="562" 
d="M66 249q-3 -21 -3 -41q0 -92 53 -145.5t141 -53.5q69 0 123 34.5t89 97.5l18 -2q-37 -71 -96.5 -109t-136.5 -38q-61 0 -108.5 26.5t-74 75t-26.5 113.5q0 80 35 149.5t97.5 110.5t140.5 41q88 0 144 -53t56 -149q0 -27 -4 -57h-448zM201.5 461q-52.5 -30 -87 -81.5
t-46.5 -113.5h429q3 18 3 38q0 91 -50.5 139t-132.5 48q-63 0 -115.5 -30zM334 592h-15l124 168h22z" />
    <glyph glyph-name="ecircumflex" unicode="&#xea;" horiz-adv-x="562" 
d="M66 249q-3 -21 -3 -41q0 -92 53 -145.5t141 -53.5q69 0 123 34.5t89 97.5l18 -2q-37 -71 -96.5 -109t-136.5 -38q-61 0 -108.5 26.5t-74 75t-26.5 113.5q0 80 35 149.5t97.5 110.5t140.5 41q88 0 144 -53t56 -149q0 -27 -4 -57h-448zM201.5 461q-52.5 -30 -87 -81.5
t-46.5 -113.5h429q3 18 3 38q0 91 -50.5 139t-132.5 48q-63 0 -115.5 -30zM467 590l-114 156l-156 -156h-24l171 170h19l125 -170h-21z" />
    <glyph glyph-name="edieresis" unicode="&#xeb;" horiz-adv-x="562" 
d="M66 249q-3 -21 -3 -41q0 -92 53 -145.5t141 -53.5q69 0 123 34.5t89 97.5l18 -2q-37 -71 -96.5 -109t-136.5 -38q-61 0 -108.5 26.5t-74 75t-26.5 113.5q0 80 35 149.5t97.5 110.5t140.5 41q88 0 144 -53t56 -149q0 -27 -4 -57h-448zM201.5 461q-52.5 -30 -87 -81.5
t-46.5 -113.5h429q3 18 3 38q0 91 -50.5 139t-132.5 48q-63 0 -115.5 -30zM260 623q-8 8 -8 19t8 19t20 8q11 0 19 -8t8 -19t-8 -19t-19 -8q-12 0 -20 8zM395 623q-8 8 -8 19t8 19t20 8q11 0 19 -8t8 -19t-8 -19t-19 -8q-12 0 -20 8z" />
    <glyph glyph-name="igrave" unicode="&#xec;" horiz-adv-x="161" 
d="M107 500h18l-70 -500h-18zM30 760l124 -168h-15l-131 168h22z" />
    <glyph glyph-name="iacute" unicode="&#xed;" horiz-adv-x="161" 
d="M107 500h18l-70 -500h-18zM123 592h-15l124 168h22z" />
    <glyph glyph-name="icircumflex" unicode="&#xee;" horiz-adv-x="161" 
d="M107 500h18l-70 -500h-18zM217 590l-75 155l-117 -155h-23l131 170h19l85 -170h-20z" />
    <glyph glyph-name="idieresis" unicode="&#xef;" horiz-adv-x="161" 
d="M107 500h18l-70 -500h-18zM49 623q-8 8 -8 19t8 19t20 8q11 0 19 -8t8 -19t-8 -19t-19 -8q-12 0 -20 8zM184 623q-8 8 -8 19t8 19t20 8q11 0 19 -8t8 -19t-8 -19t-19 -8q-12 0 -20 8z" />
    <glyph glyph-name="eth" unicode="&#xf0;" horiz-adv-x="594" 
d="M489 647q62 -91 62 -228q0 -109 -35.5 -207t-104 -159t-163.5 -61q-59 0 -105.5 26t-72.5 73t-26 108q0 80 35.5 147.5t98 107.5t139.5 40q54 0 99.5 -22.5t73.5 -66.5t32 -106q5 40 8 67.5t3 53.5q0 132 -61 219l-148 -66l-5 15l144 64q-59 75 -156 99l8 17
q105 -28 165 -108l105 47l6 -15zM376.5 49.5q58.5 40.5 93 105t34.5 133.5q0 56 -24.5 99t-67.5 66.5t-96 23.5q-73 0 -131 -38t-90.5 -101.5t-32.5 -137.5q0 -59 24.5 -102t67.5 -66t95 -23q69 0 127.5 40.5z" />
    <glyph glyph-name="ntilde" unicode="&#xf1;" horiz-adv-x="550" 
d="M447 467q49 -41 49 -122q0 -19 -3 -40l-43 -305h-18l43 305q3 18 3 38q0 72 -41.5 110t-117.5 38q-90 0 -152.5 -61.5t-77.5 -174.5l-36 -255h-18l70 500h16l-18 -138q32 74 89 110t128 36q78 0 127 -41zM368.5 640.5q-16.5 9.5 -37.5 28.5q-17 16 -33 25t-34 9
q-23 0 -45 -14t-40 -41l-13 8q20 29 46 45.5t54 16.5q23 0 40.5 -10t37.5 -28q19 -17 33.5 -25.5t33.5 -8.5q23 0 47 14.5t43 41.5l13 -8q-51 -63 -106 -63q-23 0 -39.5 9.5z" />
    <glyph glyph-name="ograve" unicode="&#xf2;" horiz-adv-x="580" 
d="M103.5 50.5q-57.5 58.5 -57.5 161.5q0 82 36.5 150t100.5 107t142 39q95 0 152 -58t57 -161q0 -82 -36.5 -150t-100 -107.5t-141.5 -39.5q-95 0 -152.5 58.5zM389 46.5q59 37.5 93 101.5t34 141q0 95 -51.5 148.5t-139.5 53.5q-74 0 -134 -37.5t-93.5 -101.5t-33.5 -140
q0 -96 52 -149.5t140 -53.5q74 0 133 37.5zM239 760l124 -168h-15l-131 168h22z" />
    <glyph glyph-name="oacute" unicode="&#xf3;" horiz-adv-x="580" 
d="M103.5 50.5q-57.5 58.5 -57.5 161.5q0 82 36.5 150t100.5 107t142 39q95 0 152 -58t57 -161q0 -82 -36.5 -150t-100 -107.5t-141.5 -39.5q-95 0 -152.5 58.5zM389 46.5q59 37.5 93 101.5t34 141q0 95 -51.5 148.5t-139.5 53.5q-74 0 -134 -37.5t-93.5 -101.5t-33.5 -140
q0 -96 52 -149.5t140 -53.5q74 0 133 37.5zM332 592h-15l124 168h22z" />
    <glyph glyph-name="ocircumflex" unicode="&#xf4;" horiz-adv-x="580" 
d="M103.5 50.5q-57.5 58.5 -57.5 161.5q0 82 36.5 150t100.5 107t142 39q95 0 152 -58t57 -161q0 -82 -36.5 -150t-100 -107.5t-141.5 -39.5q-95 0 -152.5 58.5zM389 46.5q59 37.5 93 101.5t34 141q0 95 -51.5 148.5t-139.5 53.5q-74 0 -134 -37.5t-93.5 -101.5t-33.5 -140
q0 -96 52 -149.5t140 -53.5q74 0 133 37.5zM465 590l-114 156l-156 -156h-24l171 170h19l125 -170h-21z" />
    <glyph glyph-name="otilde" unicode="&#xf5;" horiz-adv-x="580" 
d="M103.5 50.5q-57.5 58.5 -57.5 161.5q0 82 36.5 150t100.5 107t142 39q95 0 152 -58t57 -161q0 -82 -36.5 -150t-100 -107.5t-141.5 -39.5q-95 0 -152.5 58.5zM389 46.5q59 37.5 93 101.5t34 141q0 95 -51.5 148.5t-139.5 53.5q-74 0 -134 -37.5t-93.5 -101.5t-33.5 -140
q0 -96 52 -149.5t140 -53.5q74 0 133 37.5zM377.5 640.5q-16.5 9.5 -37.5 28.5q-17 16 -33 25t-34 9q-23 0 -45 -14t-40 -41l-13 8q20 29 46 45.5t54 16.5q23 0 40.5 -10t37.5 -28q19 -17 33.5 -25.5t33.5 -8.5q23 0 47 14.5t43 41.5l13 -8q-51 -63 -106 -63
q-23 0 -39.5 9.5z" />
    <glyph glyph-name="odieresis" unicode="&#xf6;" horiz-adv-x="580" 
d="M103.5 50.5q-57.5 58.5 -57.5 161.5q0 82 36.5 150t100.5 107t142 39q95 0 152 -58t57 -161q0 -82 -36.5 -150t-100 -107.5t-141.5 -39.5q-95 0 -152.5 58.5zM389 46.5q59 37.5 93 101.5t34 141q0 95 -51.5 148.5t-139.5 53.5q-74 0 -134 -37.5t-93.5 -101.5t-33.5 -140
q0 -96 52 -149.5t140 -53.5q74 0 133 37.5zM258 623q-8 8 -8 19t8 19t20 8q11 0 19 -8t8 -19t-8 -19t-19 -8q-12 0 -20 8zM393 623q-8 8 -8 19t8 19t20 8q11 0 19 -8t8 -19t-8 -19t-19 -8q-12 0 -20 8z" />
    <glyph glyph-name="divide" unicode="&#xf7;" horiz-adv-x="491" 
d="M237 381q-8 8 -8 19t8 19t20 8q11 0 19 -8t8 -19t-8 -19t-19 -8q-12 0 -20 8zM84 277h330l-2 -17h-330zM217 118q-8 8 -8 19t8 19t20 8q11 0 19 -8t8 -19t-8 -19t-19 -8q-12 0 -20 8z" />
    <glyph glyph-name="oslash" unicode="&#xf8;" horiz-adv-x="580" 
d="M518 384.5q16 -42.5 16 -95.5q0 -82 -36.5 -150t-100 -107.5t-141.5 -39.5q-80 0 -133 41l-27 -33h-22l36 44q-31 28 -47.5 71t-16.5 97q0 82 36.5 150t100.5 107t142 39q82 0 134 -42l28 34h22l-37 -45q30 -28 46 -70.5zM121 57l327 396q-49 38 -123 38t-134 -37.5
t-93.5 -101.5t-33.5 -140q0 -100 57 -155zM389 46.5q59 37.5 93 101.5t34 141q0 99 -55 152l-327 -395q49 -37 122 -37q74 0 133 37.5z" />
    <glyph glyph-name="ugrave" unicode="&#xf9;" horiz-adv-x="535" 
d="M500 500l-70 -500h-16l17 136q-31 -73 -86.5 -108.5t-125.5 -35.5q-72 0 -118.5 39.5t-46.5 119.5q0 19 3 40l43 309h18l-43 -309q-3 -19 -3 -38q0 -70 39.5 -107t109.5 -37q87 0 147 58.5t77 167.5l37 265h18zM217 760l124 -168h-15l-131 168h22z" />
    <glyph glyph-name="uacute" unicode="&#xfa;" horiz-adv-x="535" 
d="M500 500l-70 -500h-16l17 136q-31 -73 -86.5 -108.5t-125.5 -35.5q-72 0 -118.5 39.5t-46.5 119.5q0 19 3 40l43 309h18l-43 -309q-3 -19 -3 -38q0 -70 39.5 -107t109.5 -37q87 0 147 58.5t77 167.5l37 265h18zM310 592h-15l124 168h22z" />
    <glyph glyph-name="ucircumflex" unicode="&#xfb;" horiz-adv-x="535" 
d="M500 500l-70 -500h-16l17 136q-31 -73 -86.5 -108.5t-125.5 -35.5q-72 0 -118.5 39.5t-46.5 119.5q0 19 3 40l43 309h18l-43 -309q-3 -19 -3 -38q0 -70 39.5 -107t109.5 -37q87 0 147 58.5t77 167.5l37 265h18zM443 590l-114 156l-156 -156h-24l171 170h19l125 -170h-21z
" />
    <glyph glyph-name="udieresis" unicode="&#xfc;" horiz-adv-x="535" 
d="M500 500l-70 -500h-16l17 136q-31 -73 -86.5 -108.5t-125.5 -35.5q-72 0 -118.5 39.5t-46.5 119.5q0 19 3 40l43 309h18l-43 -309q-3 -19 -3 -38q0 -70 39.5 -107t109.5 -37q87 0 147 58.5t77 167.5l37 265h18zM236 623q-8 8 -8 19t8 19t20 8q11 0 19 -8t8 -19t-8 -19
t-19 -8q-12 0 -20 8zM371 623q-8 8 -8 19t8 19t20 8q11 0 19 -8t8 -19t-8 -19t-19 -8q-12 0 -20 8z" />
    <glyph glyph-name="yacute" unicode="&#xfd;" horiz-adv-x="535" 
d="M500 500l-64 -457q-34 -243 -231 -243q-79 0 -120 30t-52 80l18 4q21 -97 156 -97q89 0 142 55.5t69 170.5l13 92q-32 -73 -87.5 -108t-124.5 -35q-72 0 -118.5 39.5t-46.5 119.5q0 19 3 40l43 309h18l-43 -309q-3 -19 -3 -38q0 -70 39.5 -107t109.5 -37q88 0 149 61
t76 173l36 257h18zM310 592h-15l124 168h22z" />
    <glyph glyph-name="thorn" unicode="&#xfe;" horiz-adv-x="598" 
d="M453.5 482.5q46.5 -25.5 73 -74t26.5 -114.5q0 -85 -36 -154t-100 -108.5t-144 -39.5t-132.5 42.5t-65.5 118.5l-48 -345h-18l133 952h18l-59 -414q34 75 99.5 118.5t145.5 43.5q61 0 107.5 -25.5zM408.5 46.5q59.5 37.5 93 102.5t33.5 143q0 93 -52.5 146t-138.5 53
q-74 0 -133 -39t-92 -104.5t-33 -141.5q0 -92 52 -144.5t137 -52.5q74 0 133.5 37.5z" />
    <glyph glyph-name="ydieresis" unicode="&#xff;" horiz-adv-x="535" 
d="M500 500l-64 -457q-34 -243 -231 -243q-79 0 -120 30t-52 80l18 4q21 -97 156 -97q89 0 142 55.5t69 170.5l13 92q-32 -73 -87.5 -108t-124.5 -35q-72 0 -118.5 39.5t-46.5 119.5q0 19 3 40l43 309h18l-43 -309q-3 -19 -3 -38q0 -70 39.5 -107t109.5 -37q88 0 149 61
t76 173l36 257h18zM236 623q-8 8 -8 19t8 19t20 8q11 0 19 -8t8 -19t-8 -19t-19 -8q-12 0 -20 8zM371 623q-8 8 -8 19t8 19t20 8q11 0 19 -8t8 -19t-8 -19t-19 -8q-12 0 -20 8z" />
    <glyph glyph-name="Amacron" unicode="&#x100;" 
d="M467 162h-400l-78 -162h-19l370 760h22l157 -760h-19zM463 179l-115 563l-272 -563h387zM240 932h270l-2 -14h-270z" />
    <glyph glyph-name="amacron" unicode="&#x101;" horiz-adv-x="599" 
d="M564 500l-70 -500h-16l21 157q-34 -77 -99.5 -121t-145.5 -44q-61 0 -108.5 27t-73.5 77t-26 116q0 81 36.5 149t100 107.5t142.5 39.5q80 0 133 -42t66 -119l22 153h18zM388.5 48.5q58.5 39.5 91.5 104.5t33 140q0 94 -51.5 146t-137.5 52q-74 0 -133.5 -38t-93 -101.5
t-33.5 -138.5q0 -94 52.5 -149t139.5 -55q74 0 132.5 39.5zM221 672h270l-2 -14h-270z" />
    <glyph glyph-name="Abreve" unicode="&#x102;" 
d="M467 162h-400l-78 -162h-19l370 760h22l157 -760h-19zM463 179l-115 563l-272 -563h387zM271.5 910.5q-32.5 39.5 -32.5 109.5h16q0 -65 29 -99.5t85 -34.5q58 0 99 35.5t53 98.5h16q-14 -69 -58 -109t-110 -40q-65 0 -97.5 39.5z" />
    <glyph glyph-name="abreve" unicode="&#x103;" horiz-adv-x="599" 
d="M564 500l-70 -500h-16l21 157q-34 -77 -99.5 -121t-145.5 -44q-61 0 -108.5 27t-73.5 77t-26 116q0 81 36.5 149t100 107.5t142.5 39.5q80 0 133 -42t66 -119l22 153h18zM388.5 48.5q58.5 39.5 91.5 104.5t33 140q0 94 -51.5 146t-137.5 52q-74 0 -133.5 -38t-93 -101.5
t-33.5 -138.5q0 -94 52.5 -149t139.5 -55q74 0 132.5 39.5zM252.5 650.5q-32.5 39.5 -32.5 109.5h16q0 -65 29 -99.5t85 -34.5q58 0 99 35.5t53 98.5h16q-14 -69 -58 -109t-110 -40q-65 0 -97.5 39.5z" />
    <glyph glyph-name="Aogonek" unicode="&#x104;" 
d="M467 162h-400l-78 -162h-19l370 760h22l157 -760h-19zM463 179l-115 563l-272 -563h387zM415.5 -43q-30.5 -29 -30.5 -74q0 -30 20 -48t60 -18q29 0 58 13l-2 -18q-31 -12 -58 -12q-46 0 -71 21.5t-25 58.5q0 51 32.5 85t93.5 50l3 -15q-50 -14 -80.5 -43z" />
    <glyph glyph-name="aogonek" unicode="&#x105;" horiz-adv-x="599" 
d="M564 500l-70 -500h-16l21 157q-34 -77 -99.5 -121t-145.5 -44q-61 0 -108.5 27t-73.5 77t-26 116q0 81 36.5 149t100 107.5t142.5 39.5q80 0 133 -42t66 -119l22 153h18zM388.5 48.5q58.5 39.5 91.5 104.5t33 140q0 94 -51.5 146t-137.5 52q-74 0 -133.5 -38t-93 -101.5
t-33.5 -138.5q0 -94 52.5 -149t139.5 -55q74 0 132.5 39.5zM404.5 -43q-30.5 -29 -30.5 -74q0 -30 20 -48t60 -18q29 0 58 13l-2 -18q-31 -12 -58 -12q-46 0 -71 21.5t-25 58.5q0 51 32.5 85t93.5 50l3 -15q-50 -14 -80.5 -43z" />
    <glyph glyph-name="Cacute" unicode="&#x106;" horiz-adv-x="810" 
d="M218 33q-71 41 -109.5 117t-38.5 177q0 116 56.5 217.5t153.5 162.5t211 61q121 0 201 -65.5t105 -176.5l-18 -2q-25 106 -99.5 166.5t-190.5 60.5q-109 0 -201 -59t-146 -156.5t-54 -206.5q0 -98 36.5 -170t103.5 -111t157 -39q115 0 208 62t147 168l18 -2
q-57 -113 -154 -179t-221 -66q-94 0 -165 41zM493 852h-15l124 168h22z" />
    <glyph glyph-name="cacute" unicode="&#x107;" 
d="M102.5 51q-56.5 59 -56.5 158q0 87 36 155t100 106t143 38q73 0 125.5 -37t72.5 -102l-18 -3q-19 60 -67 92.5t-114 32.5q-75 0 -134 -36t-92.5 -100t-33.5 -144q0 -94 51 -148t139 -54q72 0 133.5 39t95.5 108l18 -2q-36 -76 -102 -119t-145 -43q-95 0 -151.5 59z
M331 592h-15l124 168h22z" />
    <glyph glyph-name="Ccircumflex" unicode="&#x108;" horiz-adv-x="810" 
d="M218 33q-71 41 -109.5 117t-38.5 177q0 116 56.5 217.5t153.5 162.5t211 61q121 0 201 -65.5t105 -176.5l-18 -2q-25 106 -99.5 166.5t-190.5 60.5q-109 0 -201 -59t-146 -156.5t-54 -206.5q0 -98 36.5 -170t103.5 -111t157 -39q115 0 208 62t147 168l18 -2
q-57 -113 -154 -179t-221 -66q-94 0 -165 41zM626 850l-114 156l-156 -156h-24l171 170h19l125 -170h-21z" />
    <glyph glyph-name="ccircumflex" unicode="&#x109;" 
d="M102.5 51q-56.5 59 -56.5 158q0 87 36 155t100 106t143 38q73 0 125.5 -37t72.5 -102l-18 -3q-19 60 -67 92.5t-114 32.5q-75 0 -134 -36t-92.5 -100t-33.5 -144q0 -94 51 -148t139 -54q72 0 133.5 39t95.5 108l18 -2q-36 -76 -102 -119t-145 -43q-95 0 -151.5 59z
M464 590l-114 156l-156 -156h-24l171 170h19l125 -170h-21z" />
    <glyph glyph-name="Cdotaccent" unicode="&#x10a;" horiz-adv-x="810" 
d="M218 33q-71 41 -109.5 117t-38.5 177q0 116 56.5 217.5t153.5 162.5t211 61q121 0 201 -65.5t105 -176.5l-18 -2q-25 106 -99.5 166.5t-190.5 60.5q-109 0 -201 -59t-146 -156.5t-54 -206.5q0 -98 36.5 -170t103.5 -111t157 -39q115 0 208 62t147 168l18 -2
q-57 -113 -154 -179t-221 -66q-94 0 -165 41zM486 883q-8 8 -8 19t8 19t20 8q11 0 19 -8t8 -19t-8 -19t-19 -8q-12 0 -20 8z" />
    <glyph glyph-name="cdotaccent" unicode="&#x10b;" 
d="M102.5 51q-56.5 59 -56.5 158q0 87 36 155t100 106t143 38q73 0 125.5 -37t72.5 -102l-18 -3q-19 60 -67 92.5t-114 32.5q-75 0 -134 -36t-92.5 -100t-33.5 -144q0 -94 51 -148t139 -54q72 0 133.5 39t95.5 108l18 -2q-36 -76 -102 -119t-145 -43q-95 0 -151.5 59z
M324 623q-8 8 -8 19t8 19t20 8q11 0 19 -8t8 -19t-8 -19t-19 -8q-12 0 -20 8z" />
    <glyph glyph-name="Ccaron" unicode="&#x10c;" horiz-adv-x="810" 
d="M218 33q-71 41 -109.5 117t-38.5 177q0 116 56.5 217.5t153.5 162.5t211 61q121 0 201 -65.5t105 -176.5l-18 -2q-25 106 -99.5 166.5t-190.5 60.5q-109 0 -201 -59t-146 -156.5t-54 -206.5q0 -98 36.5 -170t103.5 -111t157 -39q115 0 208 62t147 168l18 -2
q-57 -113 -154 -179t-221 -66q-94 0 -165 41zM668 1020l-171 -170h-19l-125 170h21l114 -156l156 156h24z" />
    <glyph glyph-name="ccaron" unicode="&#x10d;" 
d="M102.5 51q-56.5 59 -56.5 158q0 87 36 155t100 106t143 38q73 0 125.5 -37t72.5 -102l-18 -3q-19 60 -67 92.5t-114 32.5q-75 0 -134 -36t-92.5 -100t-33.5 -144q0 -94 51 -148t139 -54q72 0 133.5 39t95.5 108l18 -2q-36 -76 -102 -119t-145 -43q-95 0 -151.5 59z
M506 760l-171 -170h-19l-125 170h21l114 -156l156 156h24z" />
    <glyph glyph-name="Dcaron" unicode="&#x10e;" horiz-adv-x="740" 
d="M550.5 719q77.5 -41 117 -113t39.5 -163q0 -126 -56 -227t-156 -158.5t-227 -57.5h-223l107 760h212q109 0 186.5 -41zM487 72.5q95 55.5 148.5 152.5t53.5 217q0 87 -37 155t-110.5 107t-179.5 39h-194l-103 -726h206q121 0 216 55.5zM563 1020l-171 -170h-19l-125 170
h21l114 -156l156 156h24z" />
    <glyph glyph-name="dcaron" unicode="&#x10f;" horiz-adv-x="680" 
d="M583 760h18l-107 -760h-16l21 157q-34 -77 -99.5 -121t-145.5 -44q-61 0 -108.5 27t-73.5 76t-26 115q0 82 36 150.5t100 108t143 39.5q80 0 133 -42t66 -119zM732 760l-43 -168h-15l36 168h22zM388 48.5q59 39.5 92 105t33 141.5q0 92 -51.5 144t-138.5 52
q-74 0 -133 -38t-92.5 -102t-33.5 -140q0 -93 52 -147.5t139 -54.5q74 0 133 39.5z" />
    <glyph glyph-name="Dcroat" unicode="&#x110;" horiz-adv-x="785" 
d="M595.5 719q77.5 -41 117 -113t39.5 -163q0 -126 -56 -227t-156 -158.5t-227 -57.5h-223l55 392h-105l3 17h105l49 351h212q109 0 186.5 -41zM532 72.5q95 55.5 148.5 152.5t53.5 217q0 87 -37 155t-110.5 107t-179.5 39h-194l-47 -334h287l-3 -17h-287l-53 -375h206
q121 0 216 55.5z" />
    <glyph glyph-name="dcroat" unicode="&#x111;" horiz-adv-x="650" 
d="M703 629h-120l-89 -629h-16l21 157q-34 -77 -99.5 -121t-145.5 -44q-61 0 -108.5 27t-73.5 76t-26 115q0 82 36 150.5t100 108t143 39.5q80 0 133 -42t66 -119l40 282h-239l3 16h239l16 115h18l-16 -115h121zM388 48.5q59 39.5 92 105t33 141.5q0 92 -51.5 144t-138.5 52
q-74 0 -133 -38t-92.5 -102t-33.5 -140q0 -93 52 -147.5t139 -54.5q74 0 133 39.5z" />
    <glyph glyph-name="Emacron" unicode="&#x112;" horiz-adv-x="541" 
d="M168 743l-47 -334h373l-3 -17h-373l-53 -375h383l-3 -17h-400l107 760h395l-3 -17h-376zM235 932h270l-2 -14h-270z" />
    <glyph glyph-name="emacron" unicode="&#x113;" horiz-adv-x="562" 
d="M66 249q-3 -21 -3 -41q0 -92 53 -145.5t141 -53.5q69 0 123 34.5t89 97.5l18 -2q-37 -71 -96.5 -109t-136.5 -38q-61 0 -108.5 26.5t-74 75t-26.5 113.5q0 80 35 149.5t97.5 110.5t140.5 41q88 0 144 -53t56 -149q0 -27 -4 -57h-448zM201.5 461q-52.5 -30 -87 -81.5
t-46.5 -113.5h429q3 18 3 38q0 91 -50.5 139t-132.5 48q-63 0 -115.5 -30zM216 672h270l-2 -14h-270z" />
    <glyph glyph-name="Ebreve" unicode="&#x114;" horiz-adv-x="541" 
d="M168 743l-47 -334h373l-3 -17h-373l-53 -375h383l-3 -17h-400l107 760h395l-3 -17h-376zM266.5 910.5q-32.5 39.5 -32.5 109.5h16q0 -65 29 -99.5t85 -34.5q58 0 99 35.5t53 98.5h16q-14 -69 -58 -109t-110 -40q-65 0 -97.5 39.5z" />
    <glyph glyph-name="ebreve" unicode="&#x115;" horiz-adv-x="562" 
d="M66 249q-3 -21 -3 -41q0 -92 53 -145.5t141 -53.5q69 0 123 34.5t89 97.5l18 -2q-37 -71 -96.5 -109t-136.5 -38q-61 0 -108.5 26.5t-74 75t-26.5 113.5q0 80 35 149.5t97.5 110.5t140.5 41q88 0 144 -53t56 -149q0 -27 -4 -57h-448zM201.5 461q-52.5 -30 -87 -81.5
t-46.5 -113.5h429q3 18 3 38q0 91 -50.5 139t-132.5 48q-63 0 -115.5 -30zM247.5 650.5q-32.5 39.5 -32.5 109.5h16q0 -65 29 -99.5t85 -34.5q58 0 99 35.5t53 98.5h16q-14 -69 -58 -109t-110 -40q-65 0 -97.5 39.5z" />
    <glyph glyph-name="Edotaccent" unicode="&#x116;" horiz-adv-x="541" 
d="M168 743l-47 -334h373l-3 -17h-373l-53 -375h383l-3 -17h-400l107 760h395l-3 -17h-376zM346 883q-8 8 -8 19t8 19t20 8q11 0 19 -8t8 -19t-8 -19t-19 -8q-12 0 -20 8z" />
    <glyph glyph-name="edotaccent" unicode="&#x117;" horiz-adv-x="562" 
d="M66 249q-3 -21 -3 -41q0 -92 53 -145.5t141 -53.5q69 0 123 34.5t89 97.5l18 -2q-37 -71 -96.5 -109t-136.5 -38q-61 0 -108.5 26.5t-74 75t-26.5 113.5q0 80 35 149.5t97.5 110.5t140.5 41q88 0 144 -53t56 -149q0 -27 -4 -57h-448zM201.5 461q-52.5 -30 -87 -81.5
t-46.5 -113.5h429q3 18 3 38q0 91 -50.5 139t-132.5 48q-63 0 -115.5 -30zM327 623q-8 8 -8 19t8 19t20 8q11 0 19 -8t8 -19t-8 -19t-19 -8q-12 0 -20 8z" />
    <glyph glyph-name="Eogonek" unicode="&#x118;" horiz-adv-x="541" 
d="M168 743l-47 -334h373l-3 -17h-373l-53 -375h383l-3 -17h-400l107 760h395l-3 -17h-376zM323.5 -43q-30.5 -29 -30.5 -74q0 -30 20 -48t60 -18q29 0 58 13l-2 -18q-31 -12 -58 -12q-46 0 -71 21.5t-25 58.5q0 51 32.5 85t93.5 50l3 -15q-50 -14 -80.5 -43z" />
    <glyph glyph-name="eogonek" unicode="&#x119;" horiz-adv-x="562" 
d="M66 249q-3 -21 -3 -41q0 -92 53 -145.5t141 -53.5q69 0 123 34.5t89 97.5l18 -2q-37 -71 -96.5 -109t-136.5 -38q-61 0 -108.5 26.5t-74 75t-26.5 113.5q0 80 35 149.5t97.5 110.5t140.5 41q88 0 144 -53t56 -149q0 -27 -4 -57h-448zM201.5 461q-52.5 -30 -87 -81.5
t-46.5 -113.5h429q3 18 3 38q0 91 -50.5 139t-132.5 48q-63 0 -115.5 -30zM238.5 -43q-30.5 -29 -30.5 -74q0 -30 20 -48t60 -18q29 0 58 13l-2 -18q-31 -12 -58 -12q-46 0 -71 21.5t-25 58.5q0 51 32.5 85t93.5 50l3 -15q-50 -14 -80.5 -43z" />
    <glyph glyph-name="Ecaron" unicode="&#x11a;" horiz-adv-x="541" 
d="M168 743l-47 -334h373l-3 -17h-373l-53 -375h383l-3 -17h-400l107 760h395l-3 -17h-376zM528 1020l-171 -170h-19l-125 170h21l114 -156l156 156h24z" />
    <glyph glyph-name="ecaron" unicode="&#x11b;" horiz-adv-x="562" 
d="M66 249q-3 -21 -3 -41q0 -92 53 -145.5t141 -53.5q69 0 123 34.5t89 97.5l18 -2q-37 -71 -96.5 -109t-136.5 -38q-61 0 -108.5 26.5t-74 75t-26.5 113.5q0 80 35 149.5t97.5 110.5t140.5 41q88 0 144 -53t56 -149q0 -27 -4 -57h-448zM201.5 461q-52.5 -30 -87 -81.5
t-46.5 -113.5h429q3 18 3 38q0 91 -50.5 139t-132.5 48q-63 0 -115.5 -30zM509 760l-171 -170h-19l-125 170h21l114 -156l156 156h24z" />
    <glyph glyph-name="Gcircumflex" unicode="&#x11c;" horiz-adv-x="795" 
d="M284.5 691q-91.5 -60 -144 -157.5t-52.5 -204.5q0 -154 85 -237t235 -83q77 0 147.5 21t124.5 55l38 267h-314l2 17h332l-41 -294q-58 -37 -132.5 -60t-157.5 -23q-104 0 -179.5 39.5t-116.5 115t-41 182.5q0 113 55 214.5t151.5 163t212.5 61.5q82 0 141.5 -30t93.5 -75
t46 -93l-18 -3q-12 47 -45.5 89t-89.5 68.5t-130 26.5q-111 0 -202.5 -60zM634 850l-114 156l-156 -156h-24l171 170h19l125 -170h-21z" />
    <glyph glyph-name="gcircumflex" unicode="&#x11d;" horiz-adv-x="599" 
d="M564 500l-63 -447q-19 -134 -84 -193.5t-172 -59.5q-88 0 -136 34t-59 80l17 4q12 -41 55.5 -71t123.5 -30q99 0 159.5 55.5t77.5 180.5l14 99q-34 -75 -99 -117.5t-144 -42.5q-61 0 -108 26.5t-73.5 75.5t-26.5 114q0 82 36 150.5t99.5 109t143.5 40.5t133 -43t66 -119
l24 154h16zM387.5 47.5q58.5 38.5 92 104.5t33.5 144q0 91 -52 143t-136 52q-75 0 -134.5 -38t-93 -102.5t-33.5 -141.5q0 -92 53 -146t139 -54q73 0 131.5 38.5zM468 590l-114 156l-156 -156h-24l171 170h19l125 -170h-21z" />
    <glyph glyph-name="Gbreve" unicode="&#x11e;" horiz-adv-x="795" 
d="M284.5 691q-91.5 -60 -144 -157.5t-52.5 -204.5q0 -154 85 -237t235 -83q77 0 147.5 21t124.5 55l38 267h-314l2 17h332l-41 -294q-58 -37 -132.5 -60t-157.5 -23q-104 0 -179.5 39.5t-116.5 115t-41 182.5q0 113 55 214.5t151.5 163t212.5 61.5q82 0 141.5 -30t93.5 -75
t46 -93l-18 -3q-12 47 -45.5 89t-89.5 68.5t-130 26.5q-111 0 -202.5 -60zM414.5 910.5q-32.5 39.5 -32.5 109.5h16q0 -65 29 -99.5t85 -34.5q58 0 99 35.5t53 98.5h16q-14 -69 -58 -109t-110 -40q-65 0 -97.5 39.5z" />
    <glyph glyph-name="gbreve" unicode="&#x11f;" horiz-adv-x="599" 
d="M564 500l-63 -447q-19 -134 -84 -193.5t-172 -59.5q-88 0 -136 34t-59 80l17 4q12 -41 55.5 -71t123.5 -30q99 0 159.5 55.5t77.5 180.5l14 99q-34 -75 -99 -117.5t-144 -42.5q-61 0 -108 26.5t-73.5 75.5t-26.5 114q0 82 36 150.5t99.5 109t143.5 40.5t133 -43t66 -119
l24 154h16zM387.5 47.5q58.5 38.5 92 104.5t33.5 144q0 91 -52 143t-136 52q-75 0 -134.5 -38t-93 -102.5t-33.5 -141.5q0 -92 53 -146t139 -54q73 0 131.5 38.5zM248.5 650.5q-32.5 39.5 -32.5 109.5h16q0 -65 29 -99.5t85 -34.5q58 0 99 35.5t53 98.5h16q-14 -69 -58 -109
t-110 -40q-65 0 -97.5 39.5z" />
    <glyph glyph-name="Gdotaccent" unicode="&#x120;" horiz-adv-x="795" 
d="M284.5 691q-91.5 -60 -144 -157.5t-52.5 -204.5q0 -154 85 -237t235 -83q77 0 147.5 21t124.5 55l38 267h-314l2 17h332l-41 -294q-58 -37 -132.5 -60t-157.5 -23q-104 0 -179.5 39.5t-116.5 115t-41 182.5q0 113 55 214.5t151.5 163t212.5 61.5q82 0 141.5 -30t93.5 -75
t46 -93l-18 -3q-12 47 -45.5 89t-89.5 68.5t-130 26.5q-111 0 -202.5 -60zM494 883q-8 8 -8 19t8 19t20 8q11 0 19 -8t8 -19t-8 -19t-19 -8q-12 0 -20 8z" />
    <glyph glyph-name="gdotaccent" unicode="&#x121;" horiz-adv-x="599" 
d="M564 500l-63 -447q-19 -134 -84 -193.5t-172 -59.5q-88 0 -136 34t-59 80l17 4q12 -41 55.5 -71t123.5 -30q99 0 159.5 55.5t77.5 180.5l14 99q-34 -75 -99 -117.5t-144 -42.5q-61 0 -108 26.5t-73.5 75.5t-26.5 114q0 82 36 150.5t99.5 109t143.5 40.5t133 -43t66 -119
l24 154h16zM387.5 47.5q58.5 38.5 92 104.5t33.5 144q0 91 -52 143t-136 52q-75 0 -134.5 -38t-93 -102.5t-33.5 -141.5q0 -92 53 -146t139 -54q73 0 131.5 38.5zM328 623q-8 8 -8 19t8 19t20 8q11 0 19 -8t8 -19t-8 -19t-19 -8q-12 0 -20 8z" />
    <glyph glyph-name="Gcommaaccent" unicode="&#x122;" horiz-adv-x="795" 
d="M284.5 691q-91.5 -60 -144 -157.5t-52.5 -204.5q0 -154 85 -237t235 -83q77 0 147.5 21t124.5 55l38 267h-314l2 17h332l-41 -294q-58 -37 -132.5 -60t-157.5 -23q-104 0 -179.5 39.5t-116.5 115t-41 182.5q0 113 55 214.5t151.5 163t212.5 61.5q82 0 141.5 -30t93.5 -75
t46 -93l-18 -3q-12 47 -45.5 89t-89.5 68.5t-130 26.5q-111 0 -202.5 -60zM312 -220h-15l86 150h22z" />
    <glyph glyph-name="gcommaaccent" unicode="&#x123;" horiz-adv-x="598" 
d="M564 500l-63 -447q-19 -134 -84 -193.5t-172 -59.5q-88 0 -136 34t-59 80l17 4q12 -41 55.5 -71t123.5 -30q99 0 159.5 55.5t77.5 180.5l14 99q-34 -75 -99 -117.5t-144 -42.5q-61 0 -108 26.5t-73.5 75.5t-26.5 114q0 82 36 150.5t99.5 109t143.5 40.5t133 -43t66 -119
l24 154h16zM387.5 47.5q58.5 38.5 92 104.5t33.5 144q0 91 -52 143t-136 52q-75 0 -134.5 -38t-93 -102.5t-33.5 -141.5q0 -92 53 -146t139 -54q73 0 131.5 38.5zM417 740h15l-86 -150h-22z" />
    <glyph glyph-name="Hcircumflex" unicode="&#x124;" horiz-adv-x="650" 
d="M642 760l-107 -760h-18l55 392h-454l-55 -392h-18l107 760h18l-49 -351h454l49 351h18zM537 850l-114 156l-156 -156h-24l171 170h19l125 -170h-21z" />
    <glyph glyph-name="hcircumflex" unicode="&#x125;" horiz-adv-x="550" 
d="M447 467q49 -41 49 -122q0 -19 -3 -40l-43 -305h-18l43 305q3 18 3 38q0 72 -41.5 110t-117.5 38q-90 0 -152.5 -61.5t-77.5 -174.5l-36 -255h-18l107 760h18l-56 -396q32 73 88.5 108.5t127.5 35.5q78 0 127 -41zM497 850l-114 156l-156 -156h-24l171 170h19l125 -170
h-21z" />
    <glyph glyph-name="Hbar" unicode="&#x126;" horiz-adv-x="661" 
d="M693 552h-75l-78 -552h-18l55 392h-454l-55 -392h-18l78 552h-75l2 17h75l27 191h18l-27 -191h454l27 191h18l-27 -191h75zM600 552h-454l-20 -143h454z" />
    <glyph glyph-name="hbar" unicode="&#x127;" horiz-adv-x="600" 
d="M497 467q49 -41 49 -122q0 -19 -3 -40l-43 -305h-18l43 305q3 18 3 38q0 72 -41.5 110t-117.5 38q-90 0 -152.5 -61.5t-77.5 -174.5l-36 -255h-18l89 629h-121l3 16h120l16 115h18l-16 -115h240l-3 -16h-239l-38 -265q32 73 88.5 108.5t127.5 35.5q78 0 127 -41z" />
    <glyph glyph-name="Itilde" unicode="&#x128;" horiz-adv-x="178" 
d="M152 760h18l-107 -760h-18zM213.5 900.5q-16.5 9.5 -37.5 28.5q-17 16 -33 25t-34 9q-23 0 -45 -14t-40 -41l-13 8q20 29 46 45.5t54 16.5q23 0 40.5 -10t37.5 -28q19 -17 33.5 -25.5t33.5 -8.5q23 0 47 14.5t43 41.5l13 -8q-51 -63 -106 -63q-23 0 -39.5 9.5z" />
    <glyph glyph-name="itilde" unicode="&#x129;" horiz-adv-x="161" 
d="M107 500h18l-70 -500h-18zM168.5 640.5q-16.5 9.5 -37.5 28.5q-17 16 -33 25t-34 9q-23 0 -45 -14t-40 -41l-13 8q20 29 46 45.5t54 16.5q23 0 40.5 -10t37.5 -28q19 -17 33.5 -25.5t33.5 -8.5q23 0 47 14.5t43 41.5l13 -8q-51 -63 -106 -63q-23 0 -39.5 9.5z" />
    <glyph glyph-name="Imacron" unicode="&#x12a;" horiz-adv-x="178" 
d="M152 760h18l-107 -760h-18zM50 932h270l-2 -14h-270z" />
    <glyph glyph-name="imacron" unicode="&#x12b;" horiz-adv-x="161" 
d="M107 500h18l-70 -500h-18zM5 672h270l-2 -14h-270z" />
    <glyph glyph-name="Ibreve" unicode="&#x12c;" horiz-adv-x="178" 
d="M152 760h18l-107 -760h-18zM81.5 910.5q-32.5 39.5 -32.5 109.5h16q0 -65 29 -99.5t85 -34.5q58 0 99 35.5t53 98.5h16q-14 -69 -58 -109t-110 -40q-65 0 -97.5 39.5z" />
    <glyph glyph-name="ibreve" unicode="&#x12d;" horiz-adv-x="161" 
d="M107 500h18l-70 -500h-18zM36.5 650.5q-32.5 39.5 -32.5 109.5h16q0 -65 29 -99.5t85 -34.5q58 0 99 35.5t53 98.5h16q-14 -69 -58 -109t-110 -40q-65 0 -97.5 39.5z" />
    <glyph glyph-name="Iogonek" unicode="&#x12e;" horiz-adv-x="178" 
d="M152 760h18l-107 -760h-18zM-27.5 -43q-30.5 -29 -30.5 -74q0 -30 20 -48t60 -18q29 0 58 13l-2 -18q-31 -12 -58 -12q-46 0 -71 21.5t-25 58.5q0 51 32.5 85t93.5 50l3 -15q-50 -14 -80.5 -43z" />
    <glyph glyph-name="iogonek" unicode="&#x12f;" horiz-adv-x="161" 
d="M107 500h18l-70 -500h-18zM116 623q-8 8 -8 19t8 19t20 8q11 0 19 -8t8 -19t-8 -19t-19 -8q-12 0 -20 8zM-33.5 -43q-30.5 -29 -30.5 -74q0 -30 20 -48t60 -18q29 0 58 13l-2 -18q-31 -12 -58 -12q-46 0 -71 21.5t-25 58.5q0 51 32.5 85t93.5 50l3 -15q-50 -14 -80.5 -43
z" />
    <glyph glyph-name="Idotaccent" unicode="&#x130;" horiz-adv-x="178" 
d="M152 760h18l-107 -760h-18zM161 883q-8 8 -8 19t8 19t20 8q11 0 19 -8t8 -19t-8 -19t-19 -8q-12 0 -20 8z" />
    <glyph glyph-name="dotlessi" unicode="&#x131;" horiz-adv-x="161" 
d="M107 500h18l-70 -500h-18z" />
    <glyph glyph-name="IJ" unicode="&#x132;" horiz-adv-x="494" 
d="M152 760h18l-75 -530h-18zM94 32l12 15q47 -38 109 -38q68 0 116.5 43.5t59.5 124.5l82 583h18l-82 -582q-12 -87 -65 -136.5t-131 -49.5q-68 0 -119 40z" />
    <glyph glyph-name="ij" unicode="&#x133;" horiz-adv-x="332" 
d="M116 623q-8 8 -8 19t8 19t20 8q11 0 19 -8t8 -19t-8 -19t-19 -8q-12 0 -20 8zM107 500h18l-70 -500h-18zM287 623q-8 8 -8 19t8 19t20 8q11 0 19 -8t8 -19t-8 -19t-19 -8q-12 0 -20 8zM0 -182l4 18q13 -8 32.5 -13.5t38.5 -5.5q52 0 84.5 34t42.5 104l76 545h18l-76 -548
q-11 -78 -49 -115t-98 -37q-42 0 -73 18z" />
    <glyph glyph-name="Jcircumflex" unicode="&#x134;" horiz-adv-x="500" 
d="M27 158l18 2q0 -76 37 -113.5t116 -37.5q87 0 138.5 50.5t67.5 164.5l74 536h18l-75 -542q-16 -116 -72.5 -171t-152.5 -55q-169 0 -169 166zM625 850l-114 156l-156 -156h-24l171 170h19l125 -170h-21z" />
    <glyph glyph-name="jcircumflex" unicode="&#x135;" horiz-adv-x="172" 
d="M-161 -182l4 18q13 -8 33.5 -13.5t40.5 -5.5q106 0 124 136l76 547h18l-76 -548q-11 -76 -49 -114t-95 -38q-47 0 -76 18zM226 590l-75 155l-117 -155h-23l131 170h19l85 -170h-20z" />
    <glyph glyph-name="Kcommaaccent" unicode="&#x136;" horiz-adv-x="550" 
d="M311 432l189 -432h-19l-183 417l-210 -239l-25 -178h-18l107 760h18l-78 -554l487 554h20zM152 -220h-15l86 150h22z" />
    <glyph glyph-name="kcommaaccent" unicode="&#x137;" horiz-adv-x="460" 
d="M255 324l165 -324h-19l-159 312l-167 -154l-22 -158h-18l107 760h18l-81 -575l342 315h25zM125 -220h-15l86 150h22z" />
    <glyph glyph-name="kgreenlandic" unicode="&#x138;" horiz-adv-x="450" 
d="M457 500l-3 -17h-12q-25 0 -43 -11t-47 -40l-109 -104l167 -328h-19l-161 315l-153 -147l-24 -168h-18l70 500h18l-43 -304l267 255q27 27 48.5 38t50.5 11h11z" />
    <glyph glyph-name="Lacute" unicode="&#x139;" horiz-adv-x="480" 
d="M417 17l-3 -17h-369l107 760h18l-105 -743h352zM188 852h-15l124 168h22z" />
    <glyph glyph-name="lacute" unicode="&#x13a;" horiz-adv-x="225" 
d="M75 10.5q-26 18.5 -26 69.5q0 20 3 44l90 636h18l-90 -635q-3 -24 -3 -42q0 -45 21 -59.5t66 -14.5h6l-1 -17h-5q-53 0 -79 18.5zM158 852h-15l124 168h22z" />
    <glyph glyph-name="Lcommaaccent" unicode="&#x13b;" horiz-adv-x="480" 
d="M417 17l-3 -17h-369l107 760h18l-105 -743h352zM147 -220h-15l86 150h22z" />
    <glyph glyph-name="lcommaaccent" unicode="&#x13c;" horiz-adv-x="225" 
d="M75 10.5q-26 18.5 -26 69.5q0 20 3 44l90 636h18l-90 -635q-3 -24 -3 -42q0 -45 21 -59.5t66 -14.5h6l-1 -17h-5q-53 0 -79 18.5zM0 -220h-15l86 150h22z" />
    <glyph glyph-name="Lcaron" unicode="&#x13d;" horiz-adv-x="480" 
d="M65 17h352l-3 -17h-369l107 760h18zM392 570h-15l39 190h22z" />
    <glyph glyph-name="lcaron" unicode="&#x13e;" horiz-adv-x="240" 
d="M75 10.5q-26 18.5 -26 69.5q0 20 3 44l90 636h18l-90 -635q-3 -24 -3 -42q0 -45 21 -59.5t66 -14.5h6l-1 -17h-5q-53 0 -79 18.5zM249 592h-15l36 168h22z" />
    <glyph glyph-name="Ldot" unicode="&#x13f;" horiz-adv-x="480" 
d="M417 17l-3 -17h-369l107 760h18l-105 -743h352zM325.464 357q-8.68652 9 -8.2666 21q0.417969 12 9.73242 21t22.3145 9q12 0 20.6855 -9t8.26758 -21q-0.419922 -12 -9.7334 -21q-9.31445 -9 -21.3145 -9q-13 0 -21.6855 9z" />
    <glyph glyph-name="ldot" unicode="&#x140;" horiz-adv-x="280" 
d="M215.464 357q-8.68652 9 -8.2666 21q0.417969 12 9.73242 21t22.3145 9q12 0 20.6855 -9t8.26758 -21q-0.419922 -12 -9.7334 -21q-9.31445 -9 -21.3145 -9q-13 0 -21.6855 9zM75 10.5q-26 18.5 -26 69.5q0 20 3 44l90 636h18l-90 -635q-3 -24 -3 -42q0 -45 21 -59.5
t66 -14.5h6l-1 -17h-5q-53 0 -79 18.5z" />
    <glyph glyph-name="Lslash" unicode="&#x141;" horiz-adv-x="530" 
d="M467 17l-3 -17h-369l51 362l-110 -50l-5 16l118 54l53 378h18l-52 -370l247 113l4 -16l-254 -116l-50 -354h352z" />
    <glyph glyph-name="lslash" unicode="&#x142;" horiz-adv-x="275" 
d="M118 23.5q21 -14.5 66 -14.5h6l-1 -17h-5q-53 0 -79 18.5t-26 69.5q0 20 3 44l32 229l-88 -40l-5 15l96 44l55 388h18l-54 -380l151 69l4 -15l-157 -72l-34 -237q-3 -24 -3 -42q0 -45 21 -59.5z" />
    <glyph glyph-name="Nacute" unicode="&#x143;" horiz-adv-x="650" 
d="M642 760l-107 -760h-18l-352 728l-102 -728h-18l107 760h18v-2l351 -727l103 729h18zM405 852h-15l124 168h22z" />
    <glyph glyph-name="nacute" unicode="&#x144;" horiz-adv-x="550" 
d="M447 467q49 -41 49 -122q0 -19 -3 -40l-43 -305h-18l43 305q3 18 3 38q0 72 -41.5 110t-117.5 38q-90 0 -152.5 -61.5t-77.5 -174.5l-36 -255h-18l70 500h16l-18 -138q32 74 89 110t128 36q78 0 127 -41zM323 592h-15l124 168h22z" />
    <glyph glyph-name="Ncommaaccent" unicode="&#x145;" horiz-adv-x="650" 
d="M642 760l-107 -760h-18l-352 728l-102 -728h-18l107 760h18v-2l351 -727l103 729h18zM203 -220h-15l86 150h22z" />
    <glyph glyph-name="ncommaaccent" unicode="&#x146;" horiz-adv-x="550" 
d="M447 467q49 -41 49 -122q0 -19 -3 -40l-43 -305h-18l43 305q3 18 3 38q0 72 -41.5 110t-117.5 38q-90 0 -152.5 -61.5t-77.5 -174.5l-36 -255h-18l70 500h16l-18 -138q32 74 89 110t128 36q78 0 127 -41zM156 -220h-15l86 150h22z" />
    <glyph glyph-name="Ncaron" unicode="&#x147;" horiz-adv-x="650" 
d="M642 760l-107 -760h-18l-352 728l-102 -728h-18l107 760h18v-2l351 -727l103 729h18zM580 1020l-171 -170h-19l-125 170h21l114 -156l156 156h24z" />
    <glyph glyph-name="ncaron" unicode="&#x148;" horiz-adv-x="550" 
d="M447 467q49 -41 49 -122q0 -19 -3 -40l-43 -305h-18l43 305q3 18 3 38q0 72 -41.5 110t-117.5 38q-90 0 -152.5 -61.5t-77.5 -174.5l-36 -255h-18l70 500h16l-18 -138q32 74 89 110t128 36q78 0 127 -41zM498 760l-171 -170h-19l-125 170h21l114 -156l156 156h24z" />
    <glyph glyph-name="napostrophe" unicode="&#x149;" horiz-adv-x="560" 
d="M64 590h-16l123 170h24zM457 467q49 -41 49 -122q0 -19 -3 -40l-43 -305h-18l43 305q3 18 3 38q0 72 -41.5 110t-117.5 38q-90 0 -152.5 -61.5t-77.5 -174.5l-36 -255h-18l70 500h16l-18 -138q32 74 89 110t128 36q78 0 127 -41z" />
    <glyph glyph-name="Eng" unicode="&#x14a;" horiz-adv-x="650" 
d="M642 760l-105 -744q-16 -110 -71 -163t-151 -53q-20 0 -29 1l3 17q9 -1 28 -1q83 0 133 44t67 140l-351 728l-103 -729h-18l107 760h18l351 -727l103 727h18z" />
    <glyph glyph-name="eng" unicode="&#x14b;" horiz-adv-x="551" 
d="M493 305l-30 -213l-19 -140q-10 -76 -48 -114t-96 -38q-47 0 -76 18l4 18q13 -8 33.5 -13.5t40.5 -5.5q50 0 82 33.5t42 102.5l6 47l43 305q3 18 3 38q0 72 -41.5 110t-117.5 38q-90 0 -152.5 -61.5t-77.5 -174.5l-36 -255h-18l70 500h16l-17 -136q32 73 89 108.5
t128 35.5q78 0 126.5 -41t48.5 -122q0 -19 -3 -40z" />
    <glyph glyph-name="Omacron" unicode="&#x14c;" horiz-adv-x="840" 
d="M217.5 33.5q-70.5 41.5 -109 117.5t-38.5 176q0 116 57 217.5t154.5 162.5t212.5 61q93 0 163.5 -41.5t109.5 -117.5t39 -177q0 -116 -57 -217t-155 -162t-213 -61q-93 0 -163.5 41.5zM585.5 67.5q93.5 58.5 148 156t54.5 207.5q0 96 -36 168.5t-103 112t-157 39.5
q-110 0 -202.5 -59t-147 -156.5t-54.5 -207.5q0 -96 36 -168t102.5 -111.5t155.5 -39.5q110 0 203.5 58.5zM386 932h270l-2 -14h-270z" />
    <glyph glyph-name="omacron" unicode="&#x14d;" horiz-adv-x="580" 
d="M103.5 50.5q-57.5 58.5 -57.5 161.5q0 82 36.5 150t100.5 107t142 39q95 0 152 -58t57 -161q0 -82 -36.5 -150t-100 -107.5t-141.5 -39.5q-95 0 -152.5 58.5zM389 46.5q59 37.5 93 101.5t34 141q0 95 -51.5 148.5t-139.5 53.5q-74 0 -134 -37.5t-93.5 -101.5t-33.5 -140
q0 -96 52 -149.5t140 -53.5q74 0 133 37.5zM214 672h270l-2 -14h-270z" />
    <glyph glyph-name="Obreve" unicode="&#x14e;" horiz-adv-x="840" 
d="M217.5 33.5q-70.5 41.5 -109 117.5t-38.5 176q0 116 57 217.5t154.5 162.5t212.5 61q93 0 163.5 -41.5t109.5 -117.5t39 -177q0 -116 -57 -217t-155 -162t-213 -61q-93 0 -163.5 41.5zM585.5 67.5q93.5 58.5 148 156t54.5 207.5q0 96 -36 168.5t-103 112t-157 39.5
q-110 0 -202.5 -59t-147 -156.5t-54.5 -207.5q0 -96 36 -168t102.5 -111.5t155.5 -39.5q110 0 203.5 58.5zM417.5 910.5q-32.5 39.5 -32.5 109.5h16q0 -65 29 -99.5t85 -34.5q58 0 99 35.5t53 98.5h16q-14 -69 -58 -109t-110 -40q-65 0 -97.5 39.5z" />
    <glyph glyph-name="obreve" unicode="&#x14f;" horiz-adv-x="580" 
d="M103.5 50.5q-57.5 58.5 -57.5 161.5q0 82 36.5 150t100.5 107t142 39q95 0 152 -58t57 -161q0 -82 -36.5 -150t-100 -107.5t-141.5 -39.5q-95 0 -152.5 58.5zM389 46.5q59 37.5 93 101.5t34 141q0 95 -51.5 148.5t-139.5 53.5q-74 0 -134 -37.5t-93.5 -101.5t-33.5 -140
q0 -96 52 -149.5t140 -53.5q74 0 133 37.5zM245.5 650.5q-32.5 39.5 -32.5 109.5h16q0 -65 29 -99.5t85 -34.5q58 0 99 35.5t53 98.5h16q-14 -69 -58 -109t-110 -40q-65 0 -97.5 39.5z" />
    <glyph glyph-name="Ohungarumlaut" unicode="&#x150;" horiz-adv-x="840" 
d="M217.5 33.5q-70.5 41.5 -109 117.5t-38.5 176q0 116 57 217.5t154.5 162.5t212.5 61q93 0 163.5 -41.5t109.5 -117.5t39 -177q0 -116 -57 -217t-155 -162t-213 -61q-93 0 -163.5 41.5zM585.5 67.5q93.5 58.5 148 156t54.5 207.5q0 96 -36 168.5t-103 112t-157 39.5
q-110 0 -202.5 -59t-147 -156.5t-54.5 -207.5q0 -96 36 -168t102.5 -111.5t155.5 -39.5q110 0 203.5 58.5zM395 852h-15l124 168h22zM575 852h-15l124 168h22z" />
    <glyph glyph-name="ohungarumlaut" unicode="&#x151;" horiz-adv-x="580" 
d="M103.5 50.5q-57.5 58.5 -57.5 161.5q0 82 36.5 150t100.5 107t142 39q95 0 152 -58t57 -161q0 -82 -36.5 -150t-100 -107.5t-141.5 -39.5q-95 0 -152.5 58.5zM389 46.5q59 37.5 93 101.5t34 141q0 95 -51.5 148.5t-139.5 53.5q-74 0 -134 -37.5t-93.5 -101.5t-33.5 -140
q0 -96 52 -149.5t140 -53.5q74 0 133 37.5zM223 592h-15l124 168h22zM403 592h-15l124 168h22z" />
    <glyph glyph-name="OE" unicode="&#x152;" horiz-adv-x="1228" 
d="M217.5 33.5q-70.5 41.5 -109 117.5t-38.5 176q0 116 57 217.5t154.5 162.5t212.5 61q93 0 163.5 -41.5t109.5 -117.5t39 -177q0 -116 -57 -217t-155 -162t-213 -61q-93 0 -163.5 41.5zM585.5 67.5q93.5 58.5 148 156t54.5 207.5q0 96 -36 168.5t-103 112t-157 39.5
q-110 0 -202.5 -59t-147 -156.5t-54.5 -207.5q0 -96 36 -168t102.5 -111.5t155.5 -39.5q110 0 203.5 58.5zM855 743l-47 -334h373l-3 -17h-373l-53 -375h383l-3 -17h-400l107 760h395l-3 -17h-376z" />
    <glyph glyph-name="oe" unicode="&#x153;" horiz-adv-x="1027" 
d="M103.5 50.5q-57.5 58.5 -57.5 161.5q0 82 36.5 150t100.5 107t142 39q95 0 152 -58t57 -161q0 -82 -36.5 -150t-100 -107.5t-141.5 -39.5q-95 0 -152.5 58.5zM389 46.5q59 37.5 93 101.5t34 141q0 95 -51.5 148.5t-139.5 53.5q-74 0 -134 -37.5t-93.5 -101.5t-33.5 -140
q0 -96 52 -149.5t140 -53.5q74 0 133 37.5zM531 249q-3 -21 -3 -41q0 -92 53 -145.5t141 -53.5q69 0 123 34.5t89 97.5l18 -2q-37 -71 -96.5 -109t-136.5 -38q-61 0 -108.5 26.5t-74 75t-26.5 113.5q0 80 35 149.5t97.5 110.5t140.5 41q88 0 144 -53t56 -149q0 -27 -4 -57
h-448zM666.5 461q-52.5 -30 -87 -81.5t-46.5 -113.5h429q3 18 3 38q0 91 -50.5 139t-132.5 48q-63 0 -115.5 -30z" />
    <glyph glyph-name="Racute" unicode="&#x154;" horiz-adv-x="605" 
d="M542.5 369q-57.5 -75 -156.5 -95l112 -274h-19l-110 271q-24 -3 -48 -3h-220l-38 -268h-18l107 760h218q121 0 175.5 -56t54.5 -155q0 -105 -57.5 -180zM461.5 320q58.5 35 89.5 94.5t31 132.5q0 95 -50 145.5t-166 50.5h-198l-65 -458h222q78 0 136.5 35zM365 852h-15
l124 168h22z" />
    <glyph glyph-name="racute" unicode="&#x155;" horiz-adv-x="344" 
d="M355 505l-5 -17q-18 3 -43 3q-50 0 -94.5 -29t-77 -81t-46.5 -121l-36 -260h-18l70 500h16l-20 -154q32 78 87 120t120 42q23 0 47 -3zM212 592h-15l124 168h22z" />
    <glyph glyph-name="Rcommaaccent" unicode="&#x156;" horiz-adv-x="605" 
d="M542.5 369q-57.5 -75 -156.5 -95l112 -274h-19l-110 271q-24 -3 -48 -3h-220l-38 -268h-18l107 760h218q121 0 175.5 -56t54.5 -155q0 -105 -57.5 -180zM461.5 320q58.5 35 89.5 94.5t31 132.5q0 95 -50 145.5t-166 50.5h-198l-65 -458h222q78 0 136.5 35zM163 -220h-15
l86 150h22z" />
    <glyph glyph-name="rcommaaccent" unicode="&#x157;" horiz-adv-x="344" 
d="M355 505l-5 -17q-18 3 -43 3q-50 0 -94.5 -29t-77 -81t-46.5 -121l-36 -260h-18l70 500h16l-20 -154q32 78 87 120t120 42q23 0 47 -3zM7 -220h-15l86 150h22z" />
    <glyph glyph-name="Rcaron" unicode="&#x158;" horiz-adv-x="605" 
d="M542.5 369q-57.5 -75 -156.5 -95l112 -274h-19l-110 271q-24 -3 -48 -3h-220l-38 -268h-18l107 760h218q121 0 175.5 -56t54.5 -155q0 -105 -57.5 -180zM461.5 320q58.5 35 89.5 94.5t31 132.5q0 95 -50 145.5t-166 50.5h-198l-65 -458h222q78 0 136.5 35zM540 1020
l-171 -170h-19l-125 170h21l114 -156l156 156h24z" />
    <glyph glyph-name="rcaron" unicode="&#x159;" horiz-adv-x="344" 
d="M355 505l-5 -17q-18 3 -43 3q-50 0 -94.5 -29t-77 -81t-46.5 -121l-36 -260h-18l70 500h16l-20 -154q32 78 87 120t120 42q23 0 47 -3zM387 760l-171 -170h-19l-125 170h21l114 -156l156 156h24z" />
    <glyph glyph-name="Sacute" unicode="&#x15a;" horiz-adv-x="601" 
d="M48 202l18 2q0 -100 53 -147.5t159 -47.5q117 0 179.5 53t62.5 147q0 43 -16 71.5t-49.5 49.5t-93.5 43l-82 31q-62 23 -97 46t-51 52.5t-16 72.5q0 57 31 101t86.5 68t126.5 24q102 0 162 -49t63 -128l-18 -2q-2 70 -56 116t-151 46q-66 0 -117.5 -22t-80 -62.5
t-28.5 -92.5q0 -37 13.5 -62.5t46 -47t93.5 -44.5l84 -32q64 -24 100 -47.5t52 -54.5t16 -77q0 -101 -68 -159t-193 -58q-229 0 -229 210zM380 852h-15l124 168h22z" />
    <glyph glyph-name="sacute" unicode="&#x15b;" horiz-adv-x="434" 
d="M65 24q-40 32 -40 102l18 2q0 -66 36 -92.5t109 -26.5q79 0 124.5 35.5t45.5 103.5q0 29 -15.5 47.5t-40.5 29t-72 25.5l-39 12q-63 19 -95 42.5t-32 69.5q0 63 46 98.5t127 35.5q72 0 116 -28.5t45 -85.5l-18 -2q-1 51 -40.5 75t-104.5 24q-71 0 -112 -31.5t-41 -85.5
q0 -39 29.5 -59t86.5 -37l39 -12q48 -15 76 -27.5t45.5 -34t17.5 -55.5q0 -76 -51 -116.5t-138 -40.5q-82 0 -122 32zM251 592h-15l124 168h22z" />
    <glyph glyph-name="Scircumflex" unicode="&#x15c;" horiz-adv-x="601" 
d="M48 202l18 2q0 -100 53 -147.5t159 -47.5q117 0 179.5 53t62.5 147q0 43 -16 71.5t-49.5 49.5t-93.5 43l-82 31q-62 23 -97 46t-51 52.5t-16 72.5q0 57 31 101t86.5 68t126.5 24q102 0 162 -49t63 -128l-18 -2q-2 70 -56 116t-151 46q-66 0 -117.5 -22t-80 -62.5
t-28.5 -92.5q0 -37 13.5 -62.5t46 -47t93.5 -44.5l84 -32q64 -24 100 -47.5t52 -54.5t16 -77q0 -101 -68 -159t-193 -58q-229 0 -229 210zM513 850l-114 156l-156 -156h-24l171 170h19l125 -170h-21z" />
    <glyph glyph-name="scircumflex" unicode="&#x15d;" horiz-adv-x="434" 
d="M65 24q-40 32 -40 102l18 2q0 -66 36 -92.5t109 -26.5q79 0 124.5 35.5t45.5 103.5q0 29 -15.5 47.5t-40.5 29t-72 25.5l-39 12q-63 19 -95 42.5t-32 69.5q0 63 46 98.5t127 35.5q72 0 116 -28.5t45 -85.5l-18 -2q-1 51 -40.5 75t-104.5 24q-71 0 -112 -31.5t-41 -85.5
q0 -39 29.5 -59t86.5 -37l39 -12q48 -15 76 -27.5t45.5 -34t17.5 -55.5q0 -76 -51 -116.5t-138 -40.5q-82 0 -122 32zM384 590l-114 156l-156 -156h-24l171 170h19l125 -170h-21z" />
    <glyph glyph-name="Scedilla" unicode="&#x15e;" horiz-adv-x="601" 
d="M48 202l18 2q0 -100 53 -147.5t159 -47.5q117 0 179.5 53t62.5 147q0 43 -16 71.5t-49.5 49.5t-93.5 43l-82 31q-62 23 -97 46t-51 52.5t-16 72.5q0 57 31 101t86.5 68t126.5 24q102 0 162 -49t63 -128l-18 -2q-2 70 -56 116t-151 46q-66 0 -117.5 -22t-80 -62.5
t-28.5 -92.5q0 -37 13.5 -62.5t46 -47t93.5 -44.5l84 -32q64 -24 100 -47.5t52 -54.5t16 -77q0 -101 -68 -159t-193 -58q-229 0 -229 210zM340.5 -67q18.5 -17 18.5 -48q0 -40 -27 -62.5t-70 -22.5q-16 0 -34 4t-28 9l8 16q10 -5 25 -8.5t29 -3.5q37 0 58 18.5t21 49.5
q0 22 -13.5 35t-38.5 13q-26 0 -48 -13l-11 9l31 76h18l-25 -62q17 7 38 7q30 0 48.5 -17z" />
    <glyph glyph-name="scedilla" unicode="&#x15f;" horiz-adv-x="434" 
d="M65 24q-40 32 -40 102l18 2q0 -66 36 -92.5t109 -26.5q79 0 124.5 35.5t45.5 103.5q0 29 -15.5 47.5t-40.5 29t-72 25.5l-39 12q-63 19 -95 42.5t-32 69.5q0 63 46 98.5t127 35.5q72 0 116 -28.5t45 -85.5l-18 -2q-1 51 -40.5 75t-104.5 24q-71 0 -112 -31.5t-41 -85.5
q0 -39 29.5 -59t86.5 -37l39 -12q48 -15 76 -27.5t45.5 -34t17.5 -55.5q0 -76 -51 -116.5t-138 -40.5q-82 0 -122 32zM248.5 -67q18.5 -17 18.5 -48q0 -40 -27 -62.5t-70 -22.5q-16 0 -34 4t-28 9l8 16q10 -5 25 -8.5t29 -3.5q37 0 58 18.5t21 49.5q0 22 -13.5 35t-38.5 13
q-26 0 -48 -13l-11 9l31 76h18l-25 -62q17 7 38 7q30 0 48.5 -17z" />
    <glyph glyph-name="Scaron" unicode="&#x160;" horiz-adv-x="601" 
d="M48 202l18 2q0 -100 53 -147.5t159 -47.5q117 0 179.5 53t62.5 147q0 43 -16 71.5t-49.5 49.5t-93.5 43l-82 31q-62 23 -97 46t-51 52.5t-16 72.5q0 57 31 101t86.5 68t126.5 24q102 0 162 -49t63 -128l-18 -2q-2 70 -56 116t-151 46q-66 0 -117.5 -22t-80 -62.5
t-28.5 -92.5q0 -37 13.5 -62.5t46 -47t93.5 -44.5l84 -32q64 -24 100 -47.5t52 -54.5t16 -77q0 -101 -68 -159t-193 -58q-229 0 -229 210zM555 1020l-171 -170h-19l-125 170h21l114 -156l156 156h24z" />
    <glyph glyph-name="scaron" unicode="&#x161;" horiz-adv-x="434" 
d="M65 24q-40 32 -40 102l18 2q0 -66 36 -92.5t109 -26.5q79 0 124.5 35.5t45.5 103.5q0 29 -15.5 47.5t-40.5 29t-72 25.5l-39 12q-63 19 -95 42.5t-32 69.5q0 63 46 98.5t127 35.5q72 0 116 -28.5t45 -85.5l-18 -2q-1 51 -40.5 75t-104.5 24q-71 0 -112 -31.5t-41 -85.5
q0 -39 29.5 -59t86.5 -37l39 -12q48 -15 76 -27.5t45.5 -34t17.5 -55.5q0 -76 -51 -116.5t-138 -40.5q-82 0 -122 32zM426 760l-171 -170h-19l-125 170h21l114 -156l156 156h24z" />
    <glyph glyph-name="uni0162" unicode="&#x162;" horiz-adv-x="571" 
d="M610 743h-245l-105 -743h-18l105 743h-248l3 17h511zM324.5 -67q18.5 -17 18.5 -48q0 -40 -27 -62.5t-70 -22.5q-16 0 -34 4t-28 9l8 16q10 -5 25 -8.5t29 -3.5q37 0 58 18.5t21 49.5q0 22 -13.5 35t-38.5 13q-26 0 -48 -13l-11 9l31 76h18l-25 -62q17 7 38 7
q30 0 48.5 -17z" />
    <glyph glyph-name="uni0163" unicode="&#x163;" horiz-adv-x="310" 
d="M84 145q-3 -21 -3 -40q0 -96 90 -96q41 0 76 12l-2 -18q-37 -11 -76 -11q-51 0 -78.5 27.5t-27.5 83.5q0 19 3 41l48 339h-61l3 17h60l20 140h18l-20 -140h165l-2 -17h-165zM196.5 -67q18.5 -17 18.5 -48q0 -40 -27 -62.5t-70 -22.5q-16 0 -34 4t-28 9l8 16
q10 -5 25 -8.5t29 -3.5q37 0 58 18.5t21 49.5q0 22 -13.5 35t-38.5 13q-26 0 -48 -13l-11 9l31 76h18l-25 -62q17 7 38 7q30 0 48.5 -17z" />
    <glyph glyph-name="Tcaron" unicode="&#x164;" horiz-adv-x="571" 
d="M610 743h-245l-105 -743h-18l105 743h-248l3 17h511zM545 1020l-171 -170h-19l-125 170h21l114 -156l156 156h24z" />
    <glyph glyph-name="tcaron" unicode="&#x165;" horiz-adv-x="315" 
d="M256 592h-15l124 168h22zM134 500h165l-2 -17h-165l-48 -338q-3 -21 -3 -40q0 -96 90 -96q41 0 76 12l-2 -18q-37 -11 -76 -11q-51 0 -78.5 27.5t-27.5 83.5q0 19 3 41l48 339h-61l3 17h60l20 140h18z" />
    <glyph glyph-name="Tbar" unicode="&#x166;" horiz-adv-x="571" 
d="M365 743l-46 -324h208l-3 -17h-207l-57 -402h-18l57 402h-205l3 17h204l46 324h-248l3 17h511l-3 -17h-245z" />
    <glyph glyph-name="tbar" unicode="&#x167;" horiz-adv-x="310" 
d="M132 483l-28 -198h165l-2 -16h-165l-18 -124q-3 -21 -3 -40q0 -96 90 -96q41 0 76 12l-2 -18q-37 -11 -76 -11q-51 0 -78.5 27.5t-27.5 83.5q0 19 3 41l18 125h-61l2 16h61l28 198h-61l3 17h60l20 140h18l-20 -140h165l-2 -17h-165z" />
    <glyph glyph-name="Utilde" unicode="&#x168;" horiz-adv-x="645" 
d="M128 42q-58 50 -58 148q0 29 5 62l72 508h18l-72 -512q-5 -30 -5 -57q0 -90 52.5 -136t150.5 -46q111 0 177 59t82 171l74 521h18l-73 -518q-18 -122 -87 -186t-191 -64q-105 0 -163 50zM436.5 900.5q-16.5 9.5 -37.5 28.5q-17 16 -33 25t-34 9q-23 0 -45 -14t-40 -41
l-13 8q20 29 46 45.5t54 16.5q23 0 40.5 -10t37.5 -28q19 -17 33.5 -25.5t33.5 -8.5q23 0 47 14.5t43 41.5l13 -8q-51 -63 -106 -63q-23 0 -39.5 9.5z" />
    <glyph glyph-name="utilde" unicode="&#x169;" horiz-adv-x="535" 
d="M500 500l-70 -500h-16l17 136q-31 -73 -86.5 -108.5t-125.5 -35.5q-72 0 -118.5 39.5t-46.5 119.5q0 19 3 40l43 309h18l-43 -309q-3 -19 -3 -38q0 -70 39.5 -107t109.5 -37q87 0 147 58.5t77 167.5l37 265h18zM355.5 640.5q-16.5 9.5 -37.5 28.5q-17 16 -33 25t-34 9
q-23 0 -45 -14t-40 -41l-13 8q20 29 46 45.5t54 16.5q23 0 40.5 -10t37.5 -28q19 -17 33.5 -25.5t33.5 -8.5q23 0 47 14.5t43 41.5l13 -8q-51 -63 -106 -63q-23 0 -39.5 9.5z" />
    <glyph glyph-name="Umacron" unicode="&#x16a;" horiz-adv-x="645" 
d="M128 42q-58 50 -58 148q0 29 5 62l72 508h18l-72 -512q-5 -30 -5 -57q0 -90 52.5 -136t150.5 -46q111 0 177 59t82 171l74 521h18l-73 -518q-18 -122 -87 -186t-191 -64q-105 0 -163 50zM273 932h270l-2 -14h-270z" />
    <glyph glyph-name="umacron" unicode="&#x16b;" horiz-adv-x="535" 
d="M500 500l-70 -500h-16l17 136q-31 -73 -86.5 -108.5t-125.5 -35.5q-72 0 -118.5 39.5t-46.5 119.5q0 19 3 40l43 309h18l-43 -309q-3 -19 -3 -38q0 -70 39.5 -107t109.5 -37q87 0 147 58.5t77 167.5l37 265h18zM192 672h270l-2 -14h-270z" />
    <glyph glyph-name="Ubreve" unicode="&#x16c;" horiz-adv-x="645" 
d="M128 42q-58 50 -58 148q0 29 5 62l72 508h18l-72 -512q-5 -30 -5 -57q0 -90 52.5 -136t150.5 -46q111 0 177 59t82 171l74 521h18l-73 -518q-18 -122 -87 -186t-191 -64q-105 0 -163 50zM304.5 910.5q-32.5 39.5 -32.5 109.5h16q0 -65 29 -99.5t85 -34.5q58 0 99 35.5
t53 98.5h16q-14 -69 -58 -109t-110 -40q-65 0 -97.5 39.5z" />
    <glyph glyph-name="ubreve" unicode="&#x16d;" horiz-adv-x="535" 
d="M500 500l-70 -500h-16l17 136q-31 -73 -86.5 -108.5t-125.5 -35.5q-72 0 -118.5 39.5t-46.5 119.5q0 19 3 40l43 309h18l-43 -309q-3 -19 -3 -38q0 -70 39.5 -107t109.5 -37q87 0 147 58.5t77 167.5l37 265h18zM223.5 650.5q-32.5 39.5 -32.5 109.5h16q0 -65 29 -99.5
t85 -34.5q58 0 99 35.5t53 98.5h16q-14 -69 -58 -109t-110 -40q-65 0 -97.5 39.5z" />
    <glyph glyph-name="Uring" unicode="&#x16e;" horiz-adv-x="645" 
d="M128 42q-58 50 -58 148q0 29 5 62l72 508h18l-72 -512q-5 -30 -5 -57q0 -90 52.5 -136t150.5 -46q111 0 177 59t82 171l74 521h18l-73 -518q-18 -122 -87 -186t-191 -64q-105 0 -163 50zM332 867q-29 29 -29 71t29 71t71 29t71 -29t29 -71t-29 -71t-71 -29t-71 29z
M464 877q24 24 24 61q0 36 -24 60.5t-61 24.5t-61 -24.5t-24 -60.5q0 -37 24 -61t61 -24t61 24z" />
    <glyph glyph-name="uring" unicode="&#x16f;" horiz-adv-x="535" 
d="M500 500l-70 -500h-16l17 136q-31 -73 -86.5 -108.5t-125.5 -35.5q-72 0 -118.5 39.5t-46.5 119.5q0 19 3 40l43 309h18l-43 -309q-3 -19 -3 -38q0 -70 39.5 -107t109.5 -37q87 0 147 58.5t77 167.5l37 265h18zM251 607q-29 29 -29 71t29 71t71 29t71 -29t29 -71t-29 -71
t-71 -29t-71 29zM383 617q24 24 24 61q0 36 -24 60.5t-61 24.5t-61 -24.5t-24 -60.5q0 -37 24 -61t61 -24t61 24z" />
    <glyph glyph-name="Uhungarumlaut" unicode="&#x170;" horiz-adv-x="645" 
d="M128 42q-58 50 -58 148q0 29 5 62l72 508h18l-72 -512q-5 -30 -5 -57q0 -90 52.5 -136t150.5 -46q111 0 177 59t82 171l74 521h18l-73 -518q-18 -122 -87 -186t-191 -64q-105 0 -163 50zM282 852h-15l124 168h22zM462 852h-15l124 168h22z" />
    <glyph glyph-name="uhungarumlaut" unicode="&#x171;" horiz-adv-x="535" 
d="M500 500l-70 -500h-16l17 136q-31 -73 -86.5 -108.5t-125.5 -35.5q-72 0 -118.5 39.5t-46.5 119.5q0 19 3 40l43 309h18l-43 -309q-3 -19 -3 -38q0 -70 39.5 -107t109.5 -37q87 0 147 58.5t77 167.5l37 265h18zM201 592h-15l124 168h22zM381 592h-15l124 168h22z" />
    <glyph glyph-name="Uogonek" unicode="&#x172;" horiz-adv-x="645" 
d="M128 42q-58 50 -58 148q0 29 5 62l72 508h18l-72 -512q-5 -30 -5 -57q0 -90 52.5 -136t150.5 -46q111 0 177 59t82 171l74 521h18l-73 -518q-18 -122 -87 -186t-191 -64q-105 0 -163 50zM286.5 -43q-30.5 -29 -30.5 -74q0 -30 20 -48t60 -18q29 0 58 13l-2 -18
q-31 -12 -58 -12q-46 0 -71 21.5t-25 58.5q0 51 32.5 85t93.5 50l3 -15q-50 -14 -80.5 -43z" />
    <glyph glyph-name="uogonek" unicode="&#x173;" horiz-adv-x="535" 
d="M500 500l-70 -500h-16l17 136q-31 -73 -86.5 -108.5t-125.5 -35.5q-72 0 -118.5 39.5t-46.5 119.5q0 19 3 40l43 309h18l-43 -309q-3 -19 -3 -38q0 -70 39.5 -107t109.5 -37q87 0 147 58.5t77 167.5l37 265h18zM345.5 -43q-30.5 -29 -30.5 -74q0 -30 20 -48t60 -18
q29 0 58 13l-2 -18q-31 -12 -58 -12q-46 0 -71 21.5t-25 58.5q0 51 32.5 85t93.5 50l3 -15q-50 -14 -80.5 -43z" />
    <glyph glyph-name="Wcircumflex" unicode="&#x174;" horiz-adv-x="930" 
d="M987 760l-323 -760h-25l-110 740l-306 -740h-25l-111 760h18l107 -743l307 743h25l109 -743l314 743h20zM677 850l-114 156l-156 -156h-24l171 170h19l125 -170h-21z" />
    <glyph glyph-name="wcircumflex" unicode="&#x175;" horiz-adv-x="770" 
d="M790 500l-248 -500h-23l-102 473l-236 -473h-23l-108 500h18l104 -482l239 482h17l105 -482l237 482h20zM560 590l-114 156l-156 -156h-24l171 170h19l125 -170h-21z" />
    <glyph glyph-name="Ycircumflex" unicode="&#x176;" horiz-adv-x="520" 
d="M587 760l-506 -760h-20l218 329l-192 431h19l185 -414l275 414h21zM477 850l-114 156l-156 -156h-24l171 170h19l125 -170h-21z" />
    <glyph glyph-name="ycircumflex" unicode="&#x177;" horiz-adv-x="535" 
d="M500 500l-64 -457q-34 -243 -231 -243q-79 0 -120 30t-52 80l18 4q21 -97 156 -97q89 0 142 55.5t69 170.5l13 92q-32 -73 -87.5 -108t-124.5 -35q-72 0 -118.5 39.5t-46.5 119.5q0 19 3 40l43 309h18l-43 -309q-3 -19 -3 -38q0 -70 39.5 -107t109.5 -37q88 0 149 61
t76 173l36 257h18zM443 590l-114 156l-156 -156h-24l171 170h19l125 -170h-21z" />
    <glyph glyph-name="Ydieresis" unicode="&#x178;" horiz-adv-x="520" 
d="M587 760l-506 -760h-20l218 329l-192 431h19l185 -414l275 414h21zM270 883q-8 8 -8 19t8 19t20 8q11 0 19 -8t8 -19t-8 -19t-19 -8q-12 0 -20 8zM405 883q-8 8 -8 19t8 19t20 8q11 0 19 -8t8 -19t-8 -19t-19 -8q-12 0 -20 8z" />
    <glyph glyph-name="Zacute" unicode="&#x179;" horiz-adv-x="565" 
d="M40 17h452l-3 -17h-484l546 743h-420l3 17h452zM369 852h-15l124 168h22z" />
    <glyph glyph-name="zacute" unicode="&#x17a;" horiz-adv-x="431" 
d="M36 17h327l-3 -17h-360l384 483h-304l5 17h335zM259 592h-15l124 168h22z" />
    <glyph glyph-name="Zdotaccent" unicode="&#x17b;" horiz-adv-x="565" 
d="M40 17h452l-3 -17h-484l546 743h-420l3 17h452zM362 883q-8 8 -8 19t8 19t20 8q11 0 19 -8t8 -19t-8 -19t-19 -8q-12 0 -20 8z" />
    <glyph glyph-name="zdotaccent" unicode="&#x17c;" horiz-adv-x="431" 
d="M36 17h327l-3 -17h-360l384 483h-304l5 17h335zM252 623q-8 8 -8 19t8 19t20 8q11 0 19 -8t8 -19t-8 -19t-19 -8q-12 0 -20 8z" />
    <glyph glyph-name="Zcaron" unicode="&#x17d;" horiz-adv-x="565" 
d="M40 17h452l-3 -17h-484l546 743h-420l3 17h452zM544 1020l-171 -170h-19l-125 170h21l114 -156l156 156h24z" />
    <glyph glyph-name="zcaron" unicode="&#x17e;" horiz-adv-x="431" 
d="M36 17h327l-3 -17h-360l384 483h-304l5 17h335zM434 760l-171 -170h-19l-125 170h21l114 -156l156 156h24z" />
    <glyph glyph-name="longs" unicode="&#x17f;" horiz-adv-x="220" 
d="M370 745l-5 -17q-46 23 -88 23q-53 0 -84.5 -33.5t-41.5 -104.5l-86 -613h-18l67 483h-61l7 17h57l16 116q21 152 147 152q49 0 90 -23z" />
    <glyph glyph-name="uni018F" unicode="&#x18f;" horiz-adv-x="840" 
d="M658 726.5q71 -41.5 109.5 -117.5t38.5 -177q0 -116 -57 -217t-155 -162t-213 -61q-93 0 -163.5 41.5t-109 117t-38.5 176.5q0 26 3 51h712q3 26 3 53q0 96 -36.5 168.5t-103.5 112t-156 39.5q-108 0 -199 -56.5t-146 -149.5l-18 3q56 99 153.5 159.5t211.5 60.5
q93 0 164 -41.5zM566.5 56q85.5 47 142.5 128t73 177h-692q-2 -20 -2 -33q0 -96 36.5 -168t103 -111.5t154.5 -39.5q99 0 184.5 47z" />
    <glyph glyph-name="florin" unicode="&#x192;" horiz-adv-x="490" 
d="M389.5 715.5q-31.5 -27.5 -49.5 -101.5l-47 -188h110l-3 -17h-111l-113 -458q-19 -77 -55 -110t-101 -33h-2l3 17q56 0 87.5 28t49.5 101l113 455h-81l3 17h82l48 192q19 78 55 110t102 32h2l-4 -17q-57 0 -88.5 -27.5z" />
    <glyph glyph-name="uni019D" unicode="&#x19d;" horiz-adv-x="650" 
d="M642 760l-107 -760h-18l-351 729l-101 -713q-16 -110 -71 -163t-151 -53q-20 0 -29 1l3 17q9 -1 28 -1q86 0 136.5 47.5t65.5 150.5l105 745h18l352 -728l102 728h18z" />
    <glyph glyph-name="uni01CD" unicode="&#x1cd;" 
d="M467 162h-400l-78 -162h-19l370 760h22l157 -760h-19zM463 179l-115 563l-272 -563h387zM533 1020l-171 -170h-19l-125 170h21l114 -156l156 156h24z" />
    <glyph glyph-name="uni01CE" unicode="&#x1ce;" horiz-adv-x="599" 
d="M564 500l-70 -500h-16l21 157q-34 -77 -99.5 -121t-145.5 -44q-61 0 -108.5 27t-73.5 77t-26 116q0 81 36.5 149t100 107.5t142.5 39.5q80 0 133 -42t66 -119l22 153h18zM388.5 48.5q58.5 39.5 91.5 104.5t33 140q0 94 -51.5 146t-137.5 52q-74 0 -133.5 -38t-93 -101.5
t-33.5 -138.5q0 -94 52.5 -149t139.5 -55q74 0 132.5 39.5zM514 760l-171 -170h-19l-125 170h21l114 -156l156 156h24z" />
    <glyph glyph-name="Gcaron" unicode="&#x1e6;" horiz-adv-x="795" 
d="M284.5 691q-91.5 -60 -144 -157.5t-52.5 -204.5q0 -154 85 -237t235 -83q77 0 147.5 21t124.5 55l38 267h-314l2 17h332l-41 -294q-58 -37 -132.5 -60t-157.5 -23q-104 0 -179.5 39.5t-116.5 115t-41 182.5q0 113 55 214.5t151.5 163t212.5 61.5q82 0 141.5 -30t93.5 -75
t46 -93l-18 -3q-12 47 -45.5 89t-89.5 68.5t-130 26.5q-111 0 -202.5 -60zM676 1020l-171 -170h-19l-125 170h21l114 -156l156 156h24z" />
    <glyph glyph-name="gcaron" unicode="&#x1e7;" horiz-adv-x="599" 
d="M564 500l-63 -447q-19 -134 -84 -193.5t-172 -59.5q-88 0 -136 34t-59 80l17 4q12 -41 55.5 -71t123.5 -30q99 0 159.5 55.5t77.5 180.5l14 99q-34 -75 -99 -117.5t-144 -42.5q-61 0 -108 26.5t-73.5 75.5t-26.5 114q0 82 36 150.5t99.5 109t143.5 40.5t133 -43t66 -119
l24 154h16zM387.5 47.5q58.5 38.5 92 104.5t33.5 144q0 91 -52 143t-136 52q-75 0 -134.5 -38t-93 -102.5t-33.5 -141.5q0 -92 53 -146t139 -54q73 0 131.5 38.5zM510 760l-171 -170h-19l-125 170h21l114 -156l156 156h24z" />
    <glyph glyph-name="Aringacute" unicode="&#x1fa;" 
d="M467 162h-400l-78 -162h-19l370 760h22l157 -760h-19zM463 179l-115 563l-272 -563h387zM299 867q-29 29 -29 71t29 71t71 29t71 -29t29 -71t-29 -71t-71 -29t-71 29zM431 877q24 24 24 61q0 36 -24 60.5t-61 24.5t-61 -24.5t-24 -60.5q0 -37 24 -61t61 -24t61 24z
M374 1080h-15l124 168h22z" />
    <glyph glyph-name="aringacute" unicode="&#x1fb;" horiz-adv-x="599" 
d="M564 500l-70 -500h-16l21 157q-34 -77 -99.5 -121t-145.5 -44q-61 0 -108.5 27t-73.5 77t-26 116q0 81 36.5 149t100 107.5t142.5 39.5q80 0 133 -42t66 -119l22 153h18zM388.5 48.5q58.5 39.5 91.5 104.5t33 140q0 94 -51.5 146t-137.5 52q-74 0 -133.5 -38t-93 -101.5
t-33.5 -138.5q0 -94 52.5 -149t139.5 -55q74 0 132.5 39.5zM280 607q-29 29 -29 71t29 71t71 29t71 -29t29 -71t-29 -71t-71 -29t-71 29zM412 617q24 24 24 61q0 36 -24 60.5t-61 24.5t-61 -24.5t-24 -60.5q0 -37 24 -61t61 -24t61 24zM355 820h-15l124 168h22z" />
    <glyph glyph-name="AEacute" unicode="&#x1fc;" horiz-adv-x="856" 
d="M505 743l-47 -334h351l-3 -17h-351l-53 -375h361l-3 -17h-378l30 212h-287l-144 -212h-21l519 760h383l-3 -17h-354zM414 229l72 513l-349 -513h277zM667 852h-15l124 168h22z" />
    <glyph glyph-name="aeacute" unicode="&#x1fd;" horiz-adv-x="945" 
d="M469 233q-1 -11 -1 -31q0 -90 49 -141.5t133 -51.5q73 0 122.5 36t82.5 106l18 -3q-71 -156 -225 -156q-80 0 -133 45.5t-63 124.5q-31 -80 -105 -125t-157 -45q-70 0 -113.5 32t-43.5 91q0 81 54.5 121t153.5 40h217q7 56 7 71q0 65 -43.5 104.5t-119.5 39.5
q-111 0 -187 -91l-15 9q80 99 205 99q84 0 131 -43.5t47 -117.5q34 73 94.5 117t136.5 44q53 0 95.5 -23t67.5 -67t25 -105q0 -30 -4 -54h-425q-2 -18 -4 -26zM605 462.5q-49 -28.5 -82 -77t-47 -109.5h405q2 24 2 34q0 86 -49 133.5t-123 47.5q-57 0 -106 -28.5zM308.5 35
q56.5 26 95 74t46.5 110l2 14q0 6 2 18l1 8h-217q-88 0 -137 -35t-49 -105q0 -52 39 -81t102 -29q59 0 115.5 26zM517 592h-15l124 168h22z" />
    <glyph glyph-name="Oslashacute" unicode="&#x1fe;" horiz-adv-x="840" 
d="M779.5 582.5q26.5 -66.5 26.5 -150.5q0 -116 -57 -217t-155 -162t-213 -61q-121 0 -201 68l-50 -60h-21l58 71q-47 44 -72 109.5t-25 146.5q0 116 57 217.5t154.5 162.5t212.5 61q116 0 197 -64l46 56h21l-55 -66q50 -45 76.5 -111.5zM111.5 189.5
q23.5 -62.5 67.5 -104.5l500 605q-77 61 -187 61t-203 -59t-147 -156.5t-54 -207.5q0 -76 23.5 -138.5zM586 67.5q93 58.5 147.5 156t54.5 207.5q0 79 -25 143t-71 106l-501 -606q77 -65 191 -65q111 0 204 58.5zM499 852h-15l124 168h22z" />
    <glyph glyph-name="oslashacute" unicode="&#x1ff;" horiz-adv-x="580" 
d="M518 384.5q16 -42.5 16 -95.5q0 -82 -36.5 -150t-100 -107.5t-141.5 -39.5q-80 0 -133 41l-27 -33h-22l36 44q-31 28 -47.5 71t-16.5 97q0 82 36.5 150t100.5 107t142 39q82 0 134 -42l28 34h22l-37 -45q30 -28 46 -70.5zM121 57l327 396q-49 38 -123 38t-134 -37.5
t-93.5 -101.5t-33.5 -140q0 -100 57 -155zM389 46.5q59 37.5 93 101.5t34 141q0 99 -55 152l-327 -395q49 -37 122 -37q74 0 133 37.5zM332 592h-15l124 168h22z" />
    <glyph glyph-name="Scommaaccent" unicode="&#x218;" horiz-adv-x="601" 
d="M48 202l18 2q0 -100 53 -147.5t159 -47.5q117 0 179.5 53t62.5 147q0 43 -16 71.5t-49.5 49.5t-93.5 43l-82 31q-62 23 -97 46t-51 52.5t-16 72.5q0 57 31 101t86.5 68t126.5 24q102 0 162 -49t63 -128l-18 -2q-2 70 -56 116t-151 46q-66 0 -117.5 -22t-80 -62.5
t-28.5 -92.5q0 -37 13.5 -62.5t46 -47t93.5 -44.5l84 -32q64 -24 100 -47.5t52 -54.5t16 -77q0 -101 -68 -159t-193 -58q-229 0 -229 210zM206 -220h-15l86 150h22z" />
    <glyph glyph-name="scommaaccent" unicode="&#x219;" horiz-adv-x="434" 
d="M65 24q-40 32 -40 102l18 2q0 -66 36 -92.5t109 -26.5q79 0 124.5 35.5t45.5 103.5q0 29 -15.5 47.5t-40.5 29t-72 25.5l-39 12q-63 19 -95 42.5t-32 69.5q0 63 46 98.5t127 35.5q72 0 116 -28.5t45 -85.5l-18 -2q-1 51 -40.5 75t-104.5 24q-71 0 -112 -31.5t-41 -85.5
q0 -39 29.5 -59t86.5 -37l39 -12q48 -15 76 -27.5t45.5 -34t17.5 -55.5q0 -76 -51 -116.5t-138 -40.5q-82 0 -122 32zM114 -220h-15l86 150h22z" />
    <glyph glyph-name="uni021A" unicode="&#x21a;" horiz-adv-x="571" 
d="M610 743h-245l-105 -743h-18l105 743h-248l3 17h511zM190 -220h-15l86 150h22z" />
    <glyph glyph-name="uni021B" unicode="&#x21b;" horiz-adv-x="310" 
d="M84 145q-3 -21 -3 -40q0 -96 90 -96q41 0 76 12l-2 -18q-37 -11 -76 -11q-51 0 -78.5 27.5t-27.5 83.5q0 19 3 41l48 339h-61l3 17h60l20 140h18l-20 -140h165l-2 -17h-165zM62 -220h-15l86 150h22z" />
    <glyph glyph-name="uni0232" unicode="&#x232;" horiz-adv-x="520" 
d="M587 760l-506 -760h-20l218 329l-192 431h19l185 -414l275 414h21zM226 932h270l-2 -14h-270z" />
    <glyph glyph-name="uni0233" unicode="&#x233;" horiz-adv-x="535" 
d="M500 500l-64 -457q-34 -243 -231 -243q-79 0 -120 30t-52 80l18 4q21 -97 156 -97q89 0 142 55.5t69 170.5l13 92q-32 -73 -87.5 -108t-124.5 -35q-72 0 -118.5 39.5t-46.5 119.5q0 19 3 40l43 309h18l-43 -309q-3 -19 -3 -38q0 -70 39.5 -107t109.5 -37q88 0 149 61
t76 173l36 257h18zM192 672h270l-2 -14h-270z" />
    <glyph glyph-name="uni0237" unicode="&#x237;" horiz-adv-x="172" 
d="M-161 -182l4 18q13 -8 33.5 -13.5t40.5 -5.5q106 0 124 136l76 547h18l-76 -548q-11 -76 -49 -114t-95 -38q-47 0 -76 18z" />
    <glyph glyph-name="uni0259" unicode="&#x259;" horiz-adv-x="562" 
d="M496 251q3 21 3 41q0 92 -53 145.5t-141 53.5q-69 0 -123 -34.5t-89 -97.5l-18 2q37 71 96.5 109t136.5 38q61 0 108.5 -26.5t74 -75t26.5 -113.5q0 -80 -35 -149.5t-97.5 -110.5t-140.5 -41q-88 0 -144 53t-56 149q0 27 4 57h448zM360.5 39q52.5 30 87 81.5t46.5 113.5
h-429q-3 -18 -3 -38q0 -91 50.5 -139t132.5 -48q63 0 115.5 30z" />
    <glyph glyph-name="uni0272" unicode="&#x272;" horiz-adv-x="562" 
d="M459.5 467q48.5 -41 48.5 -122q0 -19 -3 -40l-43 -305h-18l43 305q3 18 3 38q0 72 -41.5 110t-117.5 38q-90 0 -152.5 -61.5t-77.5 -174.5l-23 -163l-19 -140q-10 -76 -48 -114t-96 -38q-47 0 -76 18l4 18q13 -8 33.5 -13.5t40.5 -5.5q50 0 82 33.5t42 102.5l6 47l70 500
h16l-17 -136q32 73 89 108.5t128 35.5q78 0 126.5 -41z" />
    <glyph glyph-name="circumflex" unicode="&#x2c6;" horiz-adv-x="415" 
d="M392 590l-114 156l-156 -156h-24l171 170h19l125 -170h-21z" />
    <glyph glyph-name="caron" unicode="&#x2c7;" horiz-adv-x="415" 
d="M437 760l-171 -170h-19l-125 170h21l114 -156l156 156h24z" />
    <glyph glyph-name="breve" unicode="&#x2d8;" horiz-adv-x="398" 
d="M154.5 650.5q-32.5 39.5 -32.5 109.5h16q0 -65 29 -99.5t85 -34.5q58 0 99 35.5t53 98.5h16q-14 -69 -58 -109t-110 -40q-65 0 -97.5 39.5z" />
    <glyph glyph-name="dotaccent" unicode="&#x2d9;" horiz-adv-x="155" 
d="M113 623q-8 8 -8 19t8 19t20 8q11 0 19 -8t8 -19t-8 -19t-19 -8q-12 0 -20 8z" />
    <glyph glyph-name="ring" unicode="&#x2da;" horiz-adv-x="302" 
d="M140 607q-29 29 -29 71t29 71t71 29t71 -29t29 -71t-29 -71t-71 -29t-71 29zM272 617q24 24 24 61q0 36 -24 60.5t-61 24.5t-61 -24.5t-24 -60.5q0 -37 24 -61t61 -24t61 24z" />
    <glyph glyph-name="ogonek" unicode="&#x2db;" horiz-adv-x="265" 
d="M47.5 -43q-30.5 -29 -30.5 -74q0 -30 20 -48t60 -18q29 0 58 13l-2 -18q-31 -12 -58 -12q-46 0 -71 21.5t-25 58.5q0 51 32.5 85t93.5 50l3 -15q-50 -14 -80.5 -43z" />
    <glyph glyph-name="tilde" unicode="&#x2dc;" horiz-adv-x="443" 
d="M309.5 640.5q-16.5 9.5 -37.5 28.5q-17 16 -33 25t-34 9q-23 0 -45 -14t-40 -41l-13 8q20 29 46 45.5t54 16.5q23 0 40.5 -10t37.5 -28q19 -17 33.5 -25.5t33.5 -8.5q23 0 47 14.5t43 41.5l13 -8q-51 -63 -106 -63q-23 0 -39.5 9.5z" />
    <glyph glyph-name="hungarumlaut" unicode="&#x2dd;" horiz-adv-x="402" 
d="M113 592h-15l124 168h22zM293 592h-15l124 168h22z" />
    <glyph glyph-name="gravecomb" unicode="&#x300;" horiz-adv-x="0" 
d="M-126 760l124 -168h-15l-131 168h22z" />
    <glyph glyph-name="acutecomb" unicode="&#x301;" horiz-adv-x="0" 
d="M-109 592h-15l124 168h22z" />
    <glyph glyph-name="uni0302" unicode="&#x302;" horiz-adv-x="0" 
d="M-23 590l-114 156l-156 -156h-24l171 170h19l125 -170h-21z" />
    <glyph glyph-name="tildecomb" unicode="&#x303;" horiz-adv-x="0" 
d="M-133.5 640.5q-16.5 9.5 -37.5 28.5q-17 16 -33 25t-34 9q-23 0 -45 -14t-40 -41l-13 8q20 29 46 45.5t54 16.5q23 0 40.5 -10t37.5 -28q19 -17 33.5 -25.5t33.5 -8.5q23 0 47 14.5t43 41.5l13 -8q-51 -63 -106 -63q-23 0 -39.5 9.5z" />
    <glyph glyph-name="uni0304" unicode="&#x304;" horiz-adv-x="0" 
d="M-261 672h270l-2 -14h-270z" />
    <glyph glyph-name="uni0306" unicode="&#x306;" horiz-adv-x="0" 
d="M-243.5 650.5q-32.5 39.5 -32.5 109.5h16q0 -65 29 -99.5t85 -34.5q58 0 99 35.5t53 98.5h16q-14 -69 -58 -109t-110 -40q-65 0 -97.5 39.5z" />
    <glyph glyph-name="uni0307" unicode="&#x307;" horiz-adv-x="0" 
d="M-42 623q-8 8 -8 19t8 19t20 8q11 0 19 -8t8 -19t-8 -19t-19 -8q-12 0 -20 8z" />
    <glyph glyph-name="uni0308" unicode="&#x308;" horiz-adv-x="0" 
d="M-177 623q-8 8 -8 19t8 19t20 8q11 0 19 -8t8 -19t-8 -19t-19 -8q-12 0 -20 8zM-42 623q-8 8 -8 19t8 19t20 8q11 0 19 -8t8 -19t-8 -19t-19 -8q-12 0 -20 8z" />
    <glyph glyph-name="uni030A" unicode="&#x30a;" horiz-adv-x="0" 
d="M-162 607q-29 29 -29 71t29 71t71 29t71 -29t29 -71t-29 -71t-71 -29t-71 29zM-30 617q24 24 24 61q0 36 -24 60.5t-61 24.5t-61 -24.5t-24 -60.5q0 -37 24 -61t61 -24t61 24z" />
    <glyph glyph-name="uni030B" unicode="&#x30b;" horiz-adv-x="0" 
d="M-289 592h-15l124 168h22zM-109 592h-15l124 168h22z" />
    <glyph glyph-name="uni030C" unicode="&#x30c;" horiz-adv-x="0" 
d="M22 760l-171 -170h-19l-125 170h21l114 -156l156 156h24z" />
    <glyph glyph-name="uni0326" unicode="&#x326;" horiz-adv-x="0" 
d="M-188 -220h-15l86 150h22z" />
    <glyph glyph-name="uni0327" unicode="&#x327;" horiz-adv-x="0" 
d="M-120.5 -67q18.5 -17 18.5 -48q0 -40 -27 -62.5t-70 -22.5q-16 0 -34 4t-28 9l8 16q10 -5 25 -8.5t29 -3.5q37 0 58 18.5t21 49.5q0 22 -13.5 35t-38.5 13q-26 0 -48 -13l-11 9l31 76h18l-25 -62q17 7 38 7q30 0 48.5 -17z" />
    <glyph glyph-name="uni0328" unicode="&#x328;" horiz-adv-x="0" 
d="M-217.5 -43q-30.5 -29 -30.5 -74q0 -30 20 -48t60 -18q29 0 58 13l-2 -18q-31 -12 -58 -12q-46 0 -71 21.5t-25 58.5q0 51 32.5 85t93.5 50l3 -15q-50 -14 -80.5 -43z" />
    <glyph glyph-name="tonos" unicode="&#x384;" horiz-adv-x="222" 
d="M98 590l124 170h22l-131 -170h-15z" />
    <glyph glyph-name="dieresistonos" unicode="&#x385;" horiz-adv-x="307" 
d="M284 760h22l-131 -168h-15zM113 623q-8 8 -8 19t8 19t20 8q11 0 19 -8t8 -19t-8 -19t-19 -8q-12 0 -20 8zM265 623q-8 8 -8 19t8 19t20 8q11 0 19 -8t8 -19t-8 -19t-19 -8q-12 0 -20 8z" />
    <glyph glyph-name="Alphatonos" unicode="&#x386;" 
d="M467 162h-400l-78 -162h-19l370 760h22l157 -760h-19zM463 179l-115 563l-272 -563h387zM16 590l124 170h22l-131 -170h-15z" />
    <glyph glyph-name="anoteleia" unicode="&#x387;" horiz-adv-x="161" 
d="M76 351q-9 9 -9 21t9 21t22 9q12 0 21 -9t9 -21t-9 -21t-21 -9q-13 0 -22 9z" />
    <glyph glyph-name="Epsilontonos" unicode="&#x388;" horiz-adv-x="541" 
d="M168 743l-47 -334h373l-3 -17h-373l-53 -375h383l-3 -17h-400l107 760h395l-3 -17h-376zM-76 590l124 170h22l-131 -170h-15z" />
    <glyph glyph-name="Etatonos" unicode="&#x389;" horiz-adv-x="650" 
d="M642 760l-107 -760h-18l55 392h-454l-55 -392h-18l107 760h18l-49 -351h454l49 351h18zM-76 590l124 170h22l-131 -170h-15z" />
    <glyph glyph-name="Iotatonos" unicode="&#x38a;" horiz-adv-x="178" 
d="M152 760h18l-107 -760h-18zM-76 590l124 170h22l-131 -170h-15z" />
    <glyph glyph-name="Omicrontonos" unicode="&#x38c;" horiz-adv-x="840" 
d="M217.5 33.5q-70.5 41.5 -109 117.5t-38.5 176q0 116 57 217.5t154.5 162.5t212.5 61q93 0 163.5 -41.5t109.5 -117.5t39 -177q0 -116 -57 -217t-155 -162t-213 -61q-93 0 -163.5 41.5zM585.5 67.5q93.5 58.5 148 156t54.5 207.5q0 96 -36 168.5t-103 112t-157 39.5
q-110 0 -202.5 -59t-147 -156.5t-54.5 -207.5q0 -96 36 -168t102.5 -111.5t155.5 -39.5q110 0 203.5 58.5zM-36 590l124 170h22l-131 -170h-15z" />
    <glyph glyph-name="Upsilontonos" unicode="&#x38e;" horiz-adv-x="520" 
d="M587 760l-506 -760h-20l218 329l-192 431h19l185 -414l275 414h21zM-106 590l124 170h22l-131 -170h-15z" />
    <glyph glyph-name="Omegatonos" unicode="&#x38f;" horiz-adv-x="830" 
d="M763.5 257q-38.5 -87 -106 -149.5t-152.5 -90.5h229l-2 -17h-261l3 22q86 23 156.5 83t112 147t41.5 187q0 89 -37.5 160t-105.5 111.5t-156 40.5q-106 0 -199 -58.5t-148.5 -157t-55.5 -214.5q0 -113 59 -193.5t160 -105.5l-3 -22h-268l2 17h236q-95 31 -149.5 110
t-54.5 189q0 123 58.5 227t155.5 164.5t209 60.5q93 0 164.5 -42t111 -116t39.5 -168q0 -98 -38.5 -185zM-36 590l124 170h22l-131 -170h-15z" />
    <glyph glyph-name="iotadieresistonos" unicode="&#x390;" horiz-adv-x="234" 
d="M82 14.5q-23 22.5 -23 71.5q0 17 3 38l53 376h18l-53 -375q-3 -19 -3 -35q0 -50 22 -65.5t66 -15.5h14l-1 -17h-13q-60 0 -83 22.5zM225 760h22l-131 -168h-15zM54 623q-8 8 -8 19t8 19t20 8q11 0 19 -8t8 -19t-8 -19t-19 -8q-12 0 -20 8zM206 623q-8 8 -8 19t8 19t20 8
q11 0 19 -8t8 -19t-8 -19t-19 -8q-12 0 -20 8z" />
    <glyph glyph-name="Alpha" unicode="&#x391;" 
d="M467 162h-400l-78 -162h-19l370 760h22l157 -760h-19zM463 179l-115 563l-272 -563h387z" />
    <glyph glyph-name="Beta" unicode="&#x392;" horiz-adv-x="555" 
d="M481.5 340q33.5 -43 33.5 -104q0 -102 -63 -169t-193 -67h-214l107 760h202q100 0 146 -42t46 -110q0 -74 -41 -132t-124 -77q67 -16 100.5 -59zM121 409h187q76 0 125.5 27.5t72 72t22.5 97.5q0 64 -41.5 100.5t-132.5 36.5h-186zM439 78q58 61 58 159q0 71 -50 113
t-148 42h-181l-53 -375h199q117 0 175 61z" />
    <glyph glyph-name="Gamma" unicode="&#x393;" horiz-adv-x="476" 
d="M64 0h-18l106 760h365l-2 -17h-347z" />
    <glyph glyph-name="uni0394" unicode="&#x394;" horiz-adv-x="579" 
d="M539 0h-569l380 760h22zM516 17l-157 726l-361 -726h518z" />
    <glyph glyph-name="Epsilon" unicode="&#x395;" horiz-adv-x="541" 
d="M168 743l-47 -334h373l-3 -17h-373l-53 -375h383l-3 -17h-400l107 760h395l-3 -17h-376z" />
    <glyph glyph-name="Zeta" unicode="&#x396;" horiz-adv-x="565" 
d="M40 17h452l-3 -17h-484l546 743h-420l3 17h452z" />
    <glyph glyph-name="Eta" unicode="&#x397;" horiz-adv-x="650" 
d="M642 760l-107 -760h-18l55 392h-454l-55 -392h-18l107 760h18l-49 -351h454l49 351h18z" />
    <glyph glyph-name="Theta" unicode="&#x398;" horiz-adv-x="840" 
d="M217.5 33.5q-70.5 41.5 -109 117.5t-38.5 176q0 116 57 217.5t154.5 162.5t212.5 61q93 0 163.5 -41.5t109.5 -117.5t39 -177q0 -116 -57 -217t-155 -162t-213 -61q-93 0 -163.5 41.5zM585.5 67.5q93.5 58.5 148 156t54.5 207.5q0 96 -36 168.5t-103 112t-157 39.5
q-110 0 -202.5 -59t-147 -156.5t-54.5 -207.5q0 -96 36 -168t102.5 -111.5t155.5 -39.5q110 0 203.5 58.5zM274 409h335l-3 -17h-335z" />
    <glyph glyph-name="Iota" unicode="&#x399;" horiz-adv-x="178" 
d="M152 760h18l-107 -760h-18z" />
    <glyph glyph-name="Kappa" unicode="&#x39a;" horiz-adv-x="550" 
d="M311 432l189 -432h-19l-183 417l-210 -239l-25 -178h-18l107 760h18l-78 -554l487 554h20z" />
    <glyph glyph-name="Lambda" unicode="&#x39b;" horiz-adv-x="579" 
d="M520 0l-161 743l-369 -743h-20l380 760h22l167 -760h-19z" />
    <glyph glyph-name="Mu" unicode="&#x39c;" horiz-adv-x="805" 
d="M737 760l-17 -760h-18l17 724l-341 -724h-18l-140 726l-186 -726h-19l197 760h16l144 -733l348 733h17z" />
    <glyph glyph-name="Nu" unicode="&#x39d;" horiz-adv-x="650" 
d="M642 760l-107 -760h-18l-352 728l-102 -728h-18l107 760h18v-2l351 -727l103 729h18z" />
    <glyph glyph-name="Xi" unicode="&#x39e;" horiz-adv-x="637" 
d="M146 760h487l-2 -17h-487zM123 409h434l-2 -17h-434zM27 17h517l-2 -17h-517z" />
    <glyph glyph-name="Omicron" unicode="&#x39f;" horiz-adv-x="840" 
d="M217.5 33.5q-70.5 41.5 -109 117.5t-38.5 176q0 116 57 217.5t154.5 162.5t212.5 61q93 0 163.5 -41.5t109.5 -117.5t39 -177q0 -116 -57 -217t-155 -162t-213 -61q-93 0 -163.5 41.5zM585.5 67.5q93.5 58.5 148 156t54.5 207.5q0 96 -36 168.5t-103 112t-157 39.5
q-110 0 -202.5 -59t-147 -156.5t-54.5 -207.5q0 -96 36 -168t102.5 -111.5t155.5 -39.5q110 0 203.5 58.5z" />
    <glyph glyph-name="Pi" unicode="&#x3a0;" horiz-adv-x="661" 
d="M546 0h-18l104 743h-464l-104 -743h-18l106 760h500z" />
    <glyph glyph-name="Rho" unicode="&#x3a1;" horiz-adv-x="605" 
d="M544.5 704q54.5 -56 54.5 -155q0 -81 -34 -144.5t-97.5 -100t-147.5 -36.5h-219l-38 -268h-18l107 760h217q121 0 175.5 -56zM460.5 320q58.5 35 89.5 94.5t31 132.5q0 95 -50 145.5t-166 50.5h-197l-65 -458h221q78 0 136.5 35z" />
    <glyph glyph-name="Sigma" unicode="&#x3a3;" horiz-adv-x="586" 
d="M295 404l-181 356h469l-2 -17h-438l173 -341l-277 -385h479l-2 -17h-511z" />
    <glyph glyph-name="Tau" unicode="&#x3a4;" horiz-adv-x="571" 
d="M610 743h-245l-105 -743h-18l105 743h-248l3 17h511z" />
    <glyph glyph-name="Upsilon" unicode="&#x3a5;" horiz-adv-x="520" 
d="M587 760l-506 -760h-20l218 329l-192 431h19l185 -414l275 414h21z" />
    <glyph glyph-name="Phi" unicode="&#x3a6;" horiz-adv-x="829" 
d="M749 268.5q-54 -78.5 -146.5 -125t-201.5 -48.5l-13 -95h-18l13 95q-93 2 -164.5 37t-110.5 96t-39 137q0 93 54 171.5t146 125.5t201 48l7 50h18l-7 -50q94 -2 165.5 -37t110.5 -95.5t39 -137.5q0 -93 -54 -171.5zM124 236q37 -57 105 -89.5t157 -34.5l82 581
q-104 -2 -191.5 -47t-138.5 -119t-51 -161q0 -73 37 -130zM594.5 158.5q87.5 44.5 139 119t51.5 161.5q0 73 -37 130.5t-105 90t-157 33.5l-82 -581q103 2 190.5 46.5z" />
    <glyph glyph-name="Chi" unicode="&#x3a7;" horiz-adv-x="510" 
d="M284 385l186 -385h-19l-178 369l-282 -369h-21l295 387l-180 373h19l172 -357l272 357h21z" />
    <glyph glyph-name="Psi" unicode="&#x3a8;" horiz-adv-x="697" 
d="M709 760l-34 -241q-19 -131 -93.5 -198t-225.5 -72l-35 -249h-18l35 249q-117 3 -180 61t-63 160q0 29 4 54l35 236h18l-35 -245q-3 -25 -3 -48q0 -94 57.5 -146t168.5 -55l69 494h18l-69 -494q139 3 210 66.5t89 188.5l34 239h18z" />
    <glyph glyph-name="uni03A9" unicode="&#x3a9;" horiz-adv-x="830" 
d="M763.5 257q-38.5 -87 -106 -149.5t-152.5 -90.5h229l-2 -17h-261l3 22q86 23 156.5 83t112 147t41.5 187q0 89 -37.5 160t-105.5 111.5t-156 40.5q-106 0 -199 -58.5t-148.5 -157t-55.5 -214.5q0 -113 59 -193.5t160 -105.5l-3 -22h-268l2 17h236q-95 31 -149.5 110
t-54.5 189q0 123 58.5 227t155.5 164.5t209 60.5q93 0 164.5 -42t111 -116t39.5 -168q0 -98 -38.5 -185z" />
    <glyph glyph-name="Iotadieresis" unicode="&#x3aa;" horiz-adv-x="178" 
d="M152 760h18l-107 -760h-18zM94 883q-8 8 -8 19t8 19t20 8q11 0 19 -8t8 -19t-8 -19t-19 -8q-12 0 -20 8zM229 883q-8 8 -8 19t8 19t20 8q11 0 19 -8t8 -19t-8 -19t-19 -8q-12 0 -20 8z" />
    <glyph glyph-name="Upsilondieresis" unicode="&#x3ab;" horiz-adv-x="520" 
d="M587 760l-506 -760h-20l218 329l-192 431h19l185 -414l275 414h21zM265 883q-8 8 -8 19t8 19t20 8q11 0 19 -8t8 -19t-8 -19t-19 -8q-12 0 -20 8zM400 883q-8 8 -8 19t8 19t20 8q11 0 19 -8t8 -19t-8 -19t-19 -8q-12 0 -20 8z" />
    <glyph glyph-name="alphatonos" unicode="&#x3ac;" horiz-adv-x="657" 
d="M144 19q-47 27 -72.5 76t-25.5 113q0 90 38 158t102 105t140 37q79 0 131.5 -43.5t64.5 -120.5l22 156h18l-50 -356q-4 -24 -4 -48q0 -54 21.5 -70.5t58.5 -16.5h13v-16q-9 -1 -21 -1q-47 0 -68.5 26.5t-21.5 69.5q0 34 9 67q-35 -76 -98 -119.5t-148 -43.5
q-62 0 -109 27zM387.5 48.5q58.5 39.5 91.5 104.5t33 140q0 94 -51.5 146t-137.5 52q-74 0 -133.5 -38t-93 -101.5t-33.5 -138.5q0 -94 52.5 -149t139.5 -55q74 0 132.5 39.5zM306 590l124 170h22l-131 -170h-15z" />
    <glyph glyph-name="epsilontonos" unicode="&#x3ad;" horiz-adv-x="460" 
d="M71.5 27.5q-43.5 35.5 -43.5 88.5q0 45 28.5 90t104.5 60v3q-46 8 -66 34.5t-20 57.5q0 39 26 73t72 54t104 20q126 0 156 -94l-17 -6q-13 40 -48.5 61.5t-90.5 21.5q-60 0 -101.5 -20.5t-62 -50.5t-20.5 -59q0 -44 37.5 -64t81.5 -20h77l-2 -17h-61q-55 0 -95.5 -18.5
t-62.5 -51t-22 -71.5q0 -46 37.5 -78t120.5 -32q71 0 124.5 32.5t77.5 93.5l17 -4q-26 -70 -84.5 -104.5t-137.5 -34.5q-86 0 -129.5 35.5zM237 590l124 170h22l-131 -170h-15z" />
    <glyph glyph-name="etatonos" unicode="&#x3ae;" horiz-adv-x="550" 
d="M447 467q49 -41 49 -122q0 -19 -3 -40l-70 -497h-18l70 497q3 18 3 38q0 72 -41.5 110t-117.5 38q-90 0 -152.5 -61.5t-77.5 -174.5l-36 -255h-18l70 500h16l-18 -138q32 74 89 110t128 36q78 0 127 -41zM282 590l124 170h22l-131 -170h-15z" />
    <glyph glyph-name="iotatonos" unicode="&#x3af;" horiz-adv-x="234" 
d="M82 14.5q-23 22.5 -23 71.5q0 17 3 38l53 376h18l-53 -375q-3 -19 -3 -35q0 -50 22 -65.5t66 -15.5h14l-1 -17h-13q-60 0 -83 22.5zM97 590l124 170h22l-131 -170h-15z" />
    <glyph glyph-name="upsilondieresistonos" unicode="&#x3b0;" horiz-adv-x="530" 
d="M102.5 33.5q-48.5 41.5 -48.5 122.5q0 18 3 39l43 305h18l-43 -305q-3 -18 -3 -36q0 -70 41.5 -110t115.5 -40q88 0 143 49t68 144l42 298h18l-42 -300q-16 -116 -83.5 -162t-150.5 -46q-73 0 -121.5 41.5zM400 760h22l-131 -168h-15zM229 623q-8 8 -8 19t8 19t20 8
q11 0 19 -8t8 -19t-8 -19t-19 -8q-12 0 -20 8zM381 623q-8 8 -8 19t8 19t20 8q11 0 19 -8t8 -19t-8 -19t-19 -8q-12 0 -20 8z" />
    <glyph glyph-name="alpha" unicode="&#x3b1;" horiz-adv-x="657" 
d="M144 19q-47 27 -72.5 76t-25.5 113q0 90 38 158t102 105t140 37q79 0 131.5 -43.5t64.5 -120.5l22 156h18l-50 -356q-4 -24 -4 -48q0 -54 21.5 -70.5t58.5 -16.5h13v-16q-9 -1 -21 -1q-47 0 -68.5 26.5t-21.5 69.5q0 34 9 67q-35 -76 -98 -119.5t-148 -43.5
q-62 0 -109 27zM387.5 48.5q58.5 39.5 91.5 104.5t33 140q0 94 -51.5 146t-137.5 52q-74 0 -133.5 -38t-93 -101.5t-33.5 -138.5q0 -94 52.5 -149t139.5 -55q74 0 132.5 39.5z" />
    <glyph glyph-name="beta" unicode="&#x3b2;" horiz-adv-x="565" 
d="M479.5 384q39.5 -49 39.5 -121q0 -67 -33 -130t-93 -102t-135 -39q-66 0 -118 34.5t-68 107.5l-46 -326h-18l104 740q14 99 73 159t154 60q78 0 124 -40t46 -104q0 -42 -16.5 -81t-50 -65.5t-81.5 -32.5q79 -11 118.5 -60zM388.5 48.5q55.5 39.5 84 98.5t28.5 116
q0 88 -55.5 130t-135.5 42h-16l2 17h16q72 0 112 31t53.5 70t13.5 71q0 59 -43 92.5t-111 33.5q-100 0 -148.5 -64.5t-59.5 -145.5l-43 -306q-4 -24 -4 -45q0 -47 19.5 -88t59 -66.5t95.5 -25.5q77 0 132.5 39.5z" />
    <glyph glyph-name="gamma" unicode="&#x3b3;" horiz-adv-x="452" 
d="M477 500l-272 -461l-33 -232h-18l33 229l-142 464h19l133 -441l261 441h19z" />
    <glyph glyph-name="delta" unicode="&#x3b4;" horiz-adv-x="570" 
d="M137 17.5q-47 25.5 -71 69.5t-24 98q0 84 38.5 151.5t102.5 106t139 38.5q34 0 68.5 -9t58.5 -31l-282 304l2 15h379l-2 -17h-355l238 -254q48 -52 71 -102t23 -110q0 -80 -35.5 -145t-98 -102.5t-139.5 -37.5q-66 0 -113 25.5zM378.5 43.5q58.5 34.5 92.5 95t34 134.5
q0 82 -45.5 136.5t-138.5 54.5q-80 0 -139 -41t-90.5 -104.5t-31.5 -127.5q0 -82 49.5 -132t140.5 -50q70 0 128.5 34.5z" />
    <glyph glyph-name="epsilon" unicode="&#x3b5;" horiz-adv-x="460" 
d="M71.5 27.5q-43.5 35.5 -43.5 88.5q0 45 28.5 90t104.5 60v3q-46 8 -66 34.5t-20 57.5q0 39 26 73t72 54t104 20q126 0 156 -94l-17 -6q-13 40 -48.5 61.5t-90.5 21.5q-60 0 -101.5 -20.5t-62 -50.5t-20.5 -59q0 -44 37.5 -64t81.5 -20h77l-2 -17h-61q-55 0 -95.5 -18.5
t-62.5 -51t-22 -71.5q0 -46 37.5 -78t120.5 -32q71 0 124.5 32.5t77.5 93.5l17 -4q-26 -70 -84.5 -104.5t-137.5 -34.5q-86 0 -129.5 35.5z" />
    <glyph glyph-name="zeta" unicode="&#x3b6;" horiz-adv-x="445" 
d="M257 -158q82 84 82 109q0 13 -20.5 27.5t-55.5 31.5l-92 45q-48 24 -73 40t-40 38.5t-15 56.5q0 74 80 180.5t188.5 207.5t196.5 165h-364l5 17h388l-3 -16q-98 -74 -207.5 -176t-187.5 -205t-78 -171q0 -41 27.5 -65.5t87.5 -54.5l95 -47q52 -26 69.5 -41.5t17.5 -30.5
q0 -34 -89 -123z" />
    <glyph glyph-name="eta" unicode="&#x3b7;" horiz-adv-x="550" 
d="M447 467q49 -41 49 -122q0 -19 -3 -40l-70 -497h-18l70 497q3 18 3 38q0 72 -41.5 110t-117.5 38q-90 0 -152.5 -61.5t-77.5 -174.5l-36 -255h-18l70 500h16l-18 -138q32 74 89 110t128 36q78 0 127 -41z" />
    <glyph glyph-name="theta" unicode="&#x3b8;" horiz-adv-x="542" 
d="M479.5 698q43.5 -70 43.5 -194q0 -128 -32.5 -245.5t-97.5 -192t-158 -74.5q-92 0 -136 70.5t-44 194.5q0 128 32.5 245t98 191.5t158.5 74.5q92 0 135.5 -70zM175 653.5q-65 -97.5 -89 -244.5h414q5 53 5 96q0 123 -42 184.5t-122 61.5q-101 0 -166 -97.5zM365.5 62.5
q54.5 53.5 87.5 140.5t45 189h-415q-10 -66 -10 -137q0 -123 42.5 -184.5t121.5 -61.5q74 0 128.5 53.5z" />
    <glyph glyph-name="iota" unicode="&#x3b9;" horiz-adv-x="234" 
d="M82 14.5q-23 22.5 -23 71.5q0 17 3 38l53 376h18l-53 -375q-3 -19 -3 -35q0 -50 22 -65.5t66 -15.5h14l-1 -17h-13q-60 0 -83 22.5z" />
    <glyph glyph-name="kappa" unicode="&#x3ba;" horiz-adv-x="445" 
d="M255 324l165 -324h-19l-159 312l-167 -153l-22 -159h-18l70 500h18l-44 -315l342 315h25z" />
    <glyph glyph-name="lambda" unicode="&#x3bb;" horiz-adv-x="476" 
d="M457 9l-2 -16q-6 -1 -13 -1q-25 0 -38 15t-22 48l-117 431l-275 -486h-20l288 510l-50 184q-7 26 -16 38t-21 15.5t-34 3.5h-13l2 16l23 1q32 0 47.5 -13t23.5 -42l174 -637q9 -31 16 -45t15 -18t21 -4h11z" />
    <glyph glyph-name="uni03BC" unicode="&#x3bc;" horiz-adv-x="540" 
d="M505 500l-70 -500h-18l19 135q-33 -71 -90 -107t-117 -36q-58 0 -102 27t-60 81l-41 -292h-18l52 371l2 17l43 304h18l-45 -323q-1 -6 -1 -18q0 -70 41.5 -110t113.5 -40q51 0 97.5 27t79 80.5t42.5 127.5l36 256h18z" />
    <glyph glyph-name="nu" unicode="&#x3bd;" horiz-adv-x="462" 
d="M492 500l-285 -500h-22l-145 500h18l140 -482l274 482h20z" />
    <glyph glyph-name="xi" unicode="&#x3be;" horiz-adv-x="451" 
d="M294 -158q82 84 82 108q0 10 -19.5 22.5t-72.5 34.5l-52 21q-66 27 -105 50t-60.5 53t-21.5 71q0 44 23 91.5t68 84.5t109 51q-68 16 -100 52.5t-32 87.5q0 58 31 103.5t81.5 70.5t104.5 25q69 0 111.5 -32.5t56.5 -80.5l-17 -5q-14 40 -50 70.5t-103 30.5
q-51 0 -96.5 -23.5t-73 -65t-27.5 -91.5q0 -68 53.5 -100.5t127.5 -32.5h68l-2 -17h-70q-69 0 -125 -32t-88 -82t-32 -102q0 -40 22 -68.5t58 -48t97 -44.5l53 -22q59 -24 80 -38.5t21 -30.5q0 -35 -88 -123z" />
    <glyph glyph-name="omicron" unicode="&#x3bf;" horiz-adv-x="580" 
d="M103.5 50.5q-57.5 58.5 -57.5 161.5q0 82 36.5 150t100.5 107t142 39q95 0 152 -58t57 -161q0 -82 -36.5 -150t-100 -107.5t-141.5 -39.5q-95 0 -152.5 58.5zM389 46.5q59 37.5 93 101.5t34 141q0 95 -51.5 148.5t-139.5 53.5q-74 0 -134 -37.5t-93.5 -101.5t-33.5 -140
q0 -96 52 -149.5t140 -53.5q74 0 133 37.5z" />
    <glyph glyph-name="pi" unicode="&#x3c0;" horiz-adv-x="548" 
d="M492 483h-372l-67 -483h-18l70 500h408l-70 -500h-18z" />
    <glyph glyph-name="rho" unicode="&#x3c1;" horiz-adv-x="597" 
d="M413.5 32q64.5 40 101.5 109t37 153q0 94 -54 154t-157 60q-76 0 -135.5 -36t-95 -93.5t-44.5 -121.5l-63 -447h18l49 343q17 -81 74 -121t125 -40q80 0 144.5 40zM484.5 436q49.5 -55 49.5 -144q0 -81 -35.5 -145.5t-95.5 -101t-131 -36.5q-60 0 -103.5 27.5t-65.5 73
t-22 98.5q0 78 34.5 143t94 102.5t130.5 37.5q95 0 144.5 -55z" />
    <glyph glyph-name="uni03C2" unicode="&#x3c2;" horiz-adv-x="480" 
d="M236 -159q82 86 82 110q0 9 -14 18t-59 30l-75 35q-63 30 -93.5 70t-30.5 109q0 79 31.5 147t89.5 108t133 40q67 0 109.5 -34.5t50.5 -83.5l-17 -2q-9 41 -45.5 72t-99.5 31q-70 0 -123 -38.5t-82 -102t-29 -136.5q0 -64 29.5 -101t92.5 -67l69 -32q47 -22 64 -34
t17 -26q0 -35 -89 -124z" />
    <glyph glyph-name="sigma" unicode="&#x3c3;" horiz-adv-x="592" 
d="M139.5 19.5q-46.5 27.5 -70.5 76t-24 108.5q0 81 37.5 149t100 107.5t134.5 39.5h285l-3 -17h-194q69 -20 98.5 -76t29.5 -117q0 -81 -36.5 -149.5t-100.5 -108.5t-144 -40q-66 0 -112.5 27.5zM388.5 47.5q59.5 38.5 93 103t33.5 138.5q0 87 -51 141t-142 54
q-70 0 -129.5 -37t-94.5 -101t-35 -141q0 -87 50.5 -141.5t141.5 -54.5q74 0 133.5 38.5z" />
    <glyph glyph-name="tau" unicode="&#x3c4;" horiz-adv-x="415" 
d="M168 102q0 20 3 42l47 339h-165l4 17h363l-3 -17h-181l-47 -338q-3 -21 -3 -40q0 -50 21.5 -73t66.5 -23q40 0 76 11l-1 -17q-36 -11 -76 -11q-105 0 -105 110z" />
    <glyph glyph-name="upsilon" unicode="&#x3c5;" horiz-adv-x="530" 
d="M102.5 33.5q-48.5 41.5 -48.5 122.5q0 18 3 39l43 305h18l-43 -305q-3 -18 -3 -36q0 -70 41.5 -110t115.5 -40q88 0 143 49t68 144l42 298h18l-42 -300q-16 -116 -83.5 -162t-150.5 -46q-73 0 -121.5 41.5z" />
    <glyph glyph-name="phi" unicode="&#x3c6;" horiz-adv-x="690" 
d="M298 -14q-123 7 -188.5 67.5t-65.5 151.5q0 62 26 119.5t72 101t102 63.5l4 -15q-85 -34 -135.5 -109t-50.5 -159q0 -56 28 -101t82 -72.5t128 -29.5l70 500h14q77 0 136 -27t91.5 -76.5t32.5 -114.5q0 -76 -38.5 -144.5t-113 -111.5t-176.5 -43l-25 -176h-18zM482 43
q70 40 107 104.5t37 134.5q0 87 -60 143t-180 62l-68 -484q94 0 164 40z" />
    <glyph glyph-name="chi" unicode="&#x3c7;" horiz-adv-x="459" 
d="M375.5 -188.5q-14.5 11.5 -26.5 39.5l-128 318l-259 -361h-21l272 378l-101 248q-15 37 -29 47t-43 10h-6l2 16q5 1 16 1q27 0 43 -12.5t27 -38.5l103 -254l214 297h21l-227 -314l126 -312q14 -36 25 -47t38 -11h6l-2 -15q-3 -1 -10 -1q-26 0 -40.5 11.5z" />
    <glyph glyph-name="psi" unicode="&#x3c8;" horiz-adv-x="641" 
d="M273 -8q-99 0 -156 52.5t-57 147.5q0 25 4 49l37 259h18l-37 -259q-4 -32 -4 -47q0 -84 49.5 -134.5t148.5 -50.5l69 491h18l-69 -491q117 0 181.5 58t78.5 158l39 275h18l-39 -277q-17 -121 -94 -176t-187 -55l-25 -182h-18z" />
    <glyph glyph-name="omega" unicode="&#x3c9;" horiz-adv-x="780" 
d="M80.5 39q-38.5 47 -38.5 129q0 75 27 145.5t77.5 122t116.5 70.5l3 -17q-62 -18 -109 -67t-72 -115.5t-25 -135.5q0 -76 33.5 -119t99.5 -43q53 0 91 27.5t60 69.5t28 86l16 112h18l-16 -112q-3 -18 -3 -34q0 -61 32 -105t98 -44q63 0 107 38t66 100t22 133
q0 79 -34 134.5t-96 75.5l7 16q65 -21 103 -80t38 -146q0 -78 -25 -143.5t-73.5 -105t-115.5 -39.5q-57 0 -94.5 32t-49.5 98q-31 -66 -77 -98t-103 -32q-73 0 -111.5 47z" />
    <glyph glyph-name="iotadieresis" unicode="&#x3ca;" horiz-adv-x="234" 
d="M82 14.5q-23 22.5 -23 71.5q0 17 3 38l53 376h18l-53 -375q-3 -19 -3 -35q0 -50 22 -65.5t66 -15.5h14l-1 -17h-13q-60 0 -83 22.5zM58 623q-8 8 -8 19t8 19t20 8q11 0 19 -8t8 -19t-8 -19t-19 -8q-12 0 -20 8zM193 623q-8 8 -8 19t8 19t20 8q11 0 19 -8t8 -19t-8 -19
t-19 -8q-12 0 -20 8z" />
    <glyph glyph-name="upsilondieresis" unicode="&#x3cb;" horiz-adv-x="530" 
d="M102.5 33.5q-48.5 41.5 -48.5 122.5q0 18 3 39l43 305h18l-43 -305q-3 -18 -3 -36q0 -70 41.5 -110t115.5 -40q88 0 143 49t68 144l42 298h18l-42 -300q-16 -116 -83.5 -162t-150.5 -46q-73 0 -121.5 41.5zM233 623q-8 8 -8 19t8 19t20 8q11 0 19 -8t8 -19t-8 -19t-19 -8
q-12 0 -20 8zM368 623q-8 8 -8 19t8 19t20 8q11 0 19 -8t8 -19t-8 -19t-19 -8q-12 0 -20 8z" />
    <glyph glyph-name="omicrontonos" unicode="&#x3cc;" horiz-adv-x="580" 
d="M103.5 50.5q-57.5 58.5 -57.5 161.5q0 82 36.5 150t100.5 107t142 39q95 0 152 -58t57 -161q0 -82 -36.5 -150t-100 -107.5t-141.5 -39.5q-95 0 -152.5 58.5zM389 46.5q59 37.5 93 101.5t34 141q0 95 -51.5 148.5t-139.5 53.5q-74 0 -134 -37.5t-93.5 -101.5t-33.5 -140
q0 -96 52 -149.5t140 -53.5q74 0 133 37.5zM297 590l124 170h22l-131 -170h-15z" />
    <glyph glyph-name="upsilontonos" unicode="&#x3cd;" horiz-adv-x="530" 
d="M102.5 33.5q-48.5 41.5 -48.5 122.5q0 18 3 39l43 305h18l-43 -305q-3 -18 -3 -36q0 -70 41.5 -110t115.5 -40q88 0 143 49t68 144l42 298h18l-42 -300q-16 -116 -83.5 -162t-150.5 -46q-73 0 -121.5 41.5zM272 590l124 170h22l-131 -170h-15z" />
    <glyph glyph-name="omegatonos" unicode="&#x3ce;" horiz-adv-x="780" 
d="M80.5 39q-38.5 47 -38.5 129q0 75 27 145.5t77.5 122t116.5 70.5l3 -17q-62 -18 -109 -67t-72 -115.5t-25 -135.5q0 -76 33.5 -119t99.5 -43q53 0 91 27.5t60 69.5t28 86l16 112h18l-16 -112q-3 -18 -3 -34q0 -61 32 -105t98 -44q63 0 107 38t66 100t22 133
q0 79 -34 134.5t-96 75.5l7 16q65 -21 103 -80t38 -146q0 -78 -25 -143.5t-73.5 -105t-115.5 -39.5q-57 0 -94.5 32t-49.5 98q-31 -66 -77 -98t-103 -32q-73 0 -111.5 47zM397 590l124 170h22l-131 -170h-15z" />
    <glyph glyph-name="uni0400" unicode="&#x400;" horiz-adv-x="541" 
d="M168 743l-47 -334h373l-3 -17h-373l-53 -375h383l-3 -17h-400l107 760h395l-3 -17h-376zM267 1020l124 -168h-15l-131 168h22z" />
    <glyph glyph-name="uni0401" unicode="&#x401;" horiz-adv-x="541" 
d="M168 743l-47 -334h373l-3 -17h-373l-53 -375h383l-3 -17h-400l107 760h395l-3 -17h-376zM286 883q-8 8 -8 19t8 19t20 8q11 0 19 -8t8 -19t-8 -19t-19 -8q-12 0 -20 8zM421 883q-8 8 -8 19t8 19t20 8q11 0 19 -8t8 -19t-8 -19t-19 -8q-12 0 -20 8z" />
    <glyph glyph-name="uni0402" unicode="&#x402;" horiz-adv-x="780" 
d="M672.5 419.5q63.5 -50.5 63.5 -141.5q0 -73 -32.5 -132t-89 -98.5t-126.5 -55.5l1 16q104 29 166.5 99.5t62.5 169.5q0 81 -56.5 128.5t-167.5 47.5h-203l-64 -453h-18l105 743h-215l3 17h528l-3 -17h-295l-39 -273h203q113 0 176.5 -50.5z" />
    <glyph glyph-name="uni0403" unicode="&#x403;" horiz-adv-x="470" 
d="M514 743h-346l-104 -743h-18l106 760h364zM343 852h-15l124 168h22z" />
    <glyph glyph-name="uni0404" unicode="&#x404;" horiz-adv-x="815" 
d="M221 34.5q-71 42.5 -110.5 119t-39.5 174.5q0 115 57 216.5t154 162.5t211 61q77 0 141 -30.5t107 -86t58 -128.5l-18 -2q-24 104 -101 167t-189 63q-99 0 -185.5 -50t-143 -134t-69.5 -181h494l-2 -17h-494q-2 -26 -2 -39q0 -94 36.5 -167t104 -113.5t157.5 -40.5
q110 0 204.5 62t147.5 165l19 -2q-56 -110 -156 -176t-218 -66q-92 0 -163 42.5z" />
    <glyph glyph-name="uni0405" unicode="&#x405;" horiz-adv-x="601" 
d="M48 202l18 2q0 -100 53 -147.5t159 -47.5q117 0 179.5 53t62.5 147q0 43 -16 71.5t-49.5 49.5t-93.5 43l-82 31q-62 23 -97 46t-51 52.5t-16 72.5q0 57 31 101t86.5 68t126.5 24q102 0 162 -49t63 -128l-18 -2q-2 70 -56 116t-151 46q-66 0 -117.5 -22t-80 -62.5
t-28.5 -92.5q0 -37 13.5 -62.5t46 -47t93.5 -44.5l84 -32q64 -24 100 -47.5t52 -54.5t16 -77q0 -101 -68 -159t-193 -58q-229 0 -229 210z" />
    <glyph glyph-name="uni0406" unicode="&#x406;" horiz-adv-x="178" 
d="M152 760h18l-107 -760h-18z" />
    <glyph glyph-name="uni0407" unicode="&#x407;" horiz-adv-x="178" 
d="M152 760h18l-107 -760h-18zM94 883q-8 8 -8 19t8 19t20 8q11 0 19 -8t8 -19t-8 -19t-19 -8q-12 0 -20 8zM229 883q-8 8 -8 19t8 19t20 8q11 0 19 -8t8 -19t-8 -19t-19 -8q-12 0 -20 8z" />
    <glyph glyph-name="uni0408" unicode="&#x408;" horiz-adv-x="500" 
d="M27 158l18 2q0 -76 37 -113.5t116 -37.5q87 0 138.5 50.5t67.5 164.5l74 536h18l-75 -542q-16 -116 -72.5 -171t-152.5 -55q-169 0 -169 166z" />
    <glyph glyph-name="uni0409" unicode="&#x409;" horiz-adv-x="958" 
d="M857.5 423q56.5 -57 56.5 -145q0 -80 -37 -143t-102.5 -99t-148.5 -36h-228l104 742h-6l-507 -742h-19l517 760h36l-39 -280h209q108 0 164.5 -57zM766.5 51q61.5 34 95.5 94t34 133q0 83 -52 134t-151 51h-212l-63 -446h209q78 0 139.5 34z" />
    <glyph glyph-name="uni040A" unicode="&#x40a;" horiz-adv-x="1060" 
d="M959.5 423q56.5 -57 56.5 -145q0 -80 -37 -143t-102.5 -99t-148.5 -36h-228l55 393h-437l-55 -393h-18l107 760h18l-49 -350h437l49 350h18l-39 -280h209q108 0 164.5 -57zM868.5 51q61.5 34 95.5 94t34 133q0 83 -52 134t-151 51h-212l-63 -446h209q78 0 139.5 34z" />
    <glyph glyph-name="uni040B" unicode="&#x40b;" horiz-adv-x="775" 
d="M663 429q54 -41 54 -137q0 -24 -5 -61l-32 -231h-18l32 231q5 37 5 59q0 86 -47.5 124.5t-147.5 38.5h-213l-64 -453h-18l105 743h-215l3 17h528l-3 -17h-295l-39 -273h214q102 0 156 -41z" />
    <glyph glyph-name="uni040C" unicode="&#x40c;" horiz-adv-x="550" 
d="M311 432l189 -432h-19l-183 417l-210 -239l-25 -178h-18l107 760h18l-78 -554l487 554h20zM354 852h-15l124 168h22z" />
    <glyph glyph-name="uni040D" unicode="&#x40d;" horiz-adv-x="660" 
d="M652 760l-107 -760h-18l103 729l-567 -729h-18l107 760h18l-103 -729l567 729h18zM321 1020l124 -168h-15l-131 168h22z" />
    <glyph glyph-name="uni040E" unicode="&#x40e;" horiz-adv-x="525" 
d="M592 760l-476 -760h-20l182 290l-186 470h19l178 -452l283 452h20zM256.5 910.5q-32.5 39.5 -32.5 109.5h16q0 -65 29 -99.5t85 -34.5q58 0 99 35.5t53 98.5h16q-14 -69 -58 -109t-110 -40q-65 0 -97.5 39.5z" />
    <glyph glyph-name="uni040F" unicode="&#x40f;" horiz-adv-x="640" 
d="M632 760l-107 -760h-231l-20 -140h-18l20 140h-231l107 760h18l-105 -743h444l105 743h18z" />
    <glyph glyph-name="uni0410" unicode="&#x410;" 
d="M467 162h-400l-78 -162h-19l370 760h22l157 -760h-19zM463 179l-115 563l-272 -563h387z" />
    <glyph glyph-name="uni0411" unicode="&#x411;" horiz-adv-x="605" 
d="M168 743l-37 -263h209q108 0 164.5 -57t56.5 -145q0 -80 -37 -143t-102.5 -99t-148.5 -36h-228l105 743h-1l3 17h415l-3 -17h-396zM128 463l-63 -446h209q78 0 139.5 34t95.5 94t34 133q0 83 -52 134t-151 51h-212z" />
    <glyph glyph-name="uni0412" unicode="&#x412;" horiz-adv-x="555" 
d="M481.5 340q33.5 -43 33.5 -104q0 -102 -63 -169t-193 -67h-214l107 760h202q100 0 146 -42t46 -110q0 -74 -41 -132t-124 -77q67 -16 100.5 -59zM121 409h187q76 0 125.5 27.5t72 72t22.5 97.5q0 64 -41.5 100.5t-132.5 36.5h-186zM439 78q58 61 58 159q0 71 -50 113
t-148 42h-181l-53 -375h199q117 0 175 61z" />
    <glyph glyph-name="uni0413" unicode="&#x413;" horiz-adv-x="470" 
d="M514 743h-346l-104 -743h-18l106 760h364z" />
    <glyph glyph-name="uni0414" unicode="&#x414;" horiz-adv-x="646" 
d="M581 -140h-18l20 140h-590l2 17h27l361 743h22l153 -743h45zM540 17l-149 722l-350 -722h499zM-23 17h18l-22 -157h-18z" />
    <glyph glyph-name="uni0415" unicode="&#x415;" horiz-adv-x="541" 
d="M168 743l-47 -334h373l-3 -17h-373l-53 -375h383l-3 -17h-400l107 760h395l-3 -17h-376z" />
    <glyph glyph-name="uni0416" unicode="&#x416;" horiz-adv-x="890" 
d="M641 473l199 -473h-19l-192 459l-172 -189l-38 -270h-18l39 275l-118 186l-321 -461h-21l332 476l-180 284h20l291 -461l65 461h18l-65 -462l418 462h23z" />
    <glyph glyph-name="uni0417" unicode="&#x417;" horiz-adv-x="557" 
d="M482.5 340q33.5 -44 33.5 -111q0 -69 -34 -123t-96.5 -84t-144.5 -30q-105 0 -160.5 47.5t-55.5 122.5q0 15 2 33l18 1q-2 -20 -2 -31q0 -70 50.5 -113t147.5 -43q76 0 134.5 27.5t90.5 77t32 113.5q0 79 -50 122t-149 43h-80l2 17h86q103 0 163 51.5t60 138.5
q0 72 -44.5 112t-135.5 40q-104 0 -165.5 -51t-73.5 -134l-18 1q11 87 77 144t181 57q100 0 148.5 -45.5t48.5 -122.5q0 -76 -45 -129.5t-121 -70.5q67 -16 100.5 -60z" />
    <glyph glyph-name="uni0418" unicode="&#x418;" horiz-adv-x="660" 
d="M652 760l-107 -760h-18l103 729l-567 -729h-18l107 760h18l-103 -729l567 729h18z" />
    <glyph glyph-name="uni0419" unicode="&#x419;" horiz-adv-x="660" 
d="M652 760l-107 -760h-18l103 729l-567 -729h-18l107 760h18l-103 -729l567 729h18zM327.5 910.5q-32.5 39.5 -32.5 109.5h16q0 -65 29 -99.5t85 -34.5q58 0 99 35.5t53 98.5h16q-14 -69 -58 -109t-110 -40q-65 0 -97.5 39.5z" />
    <glyph glyph-name="uni041A" unicode="&#x41a;" horiz-adv-x="550" 
d="M311 432l189 -432h-19l-183 417l-210 -239l-25 -178h-18l107 760h18l-78 -554l487 554h20z" />
    <glyph glyph-name="uni041B" unicode="&#x41b;" 
d="M501 0l-153 739l-359 -739h-19l370 760h22l157 -760h-18z" />
    <glyph glyph-name="uni041C" unicode="&#x41c;" horiz-adv-x="805" 
d="M737 760l-17 -760h-18l17 724l-341 -724h-18l-140 726l-186 -726h-19l197 760h16l144 -733l348 733h17z" />
    <glyph glyph-name="uni041D" unicode="&#x41d;" horiz-adv-x="650" 
d="M642 760l-107 -760h-18l55 392h-454l-55 -392h-18l107 760h18l-49 -351h454l49 351h18z" />
    <glyph glyph-name="uni041E" unicode="&#x41e;" horiz-adv-x="840" 
d="M217.5 33.5q-70.5 41.5 -109 117.5t-38.5 176q0 116 57 217.5t154.5 162.5t212.5 61q93 0 163.5 -41.5t109.5 -117.5t39 -177q0 -116 -57 -217t-155 -162t-213 -61q-93 0 -163.5 41.5zM585.5 67.5q93.5 58.5 148 156t54.5 207.5q0 96 -36 168.5t-103 112t-157 39.5
q-110 0 -202.5 -59t-147 -156.5t-54.5 -207.5q0 -96 36 -168t102.5 -111.5t155.5 -39.5q110 0 203.5 58.5z" />
    <glyph glyph-name="uni041F" unicode="&#x41f;" horiz-adv-x="640" 
d="M525 0h-18l105 743h-444l-105 -743h-18l107 760h480z" />
    <glyph glyph-name="uni0420" unicode="&#x420;" horiz-adv-x="605" 
d="M544.5 704q54.5 -56 54.5 -155q0 -81 -34 -144.5t-97.5 -100t-147.5 -36.5h-219l-38 -268h-18l107 760h217q121 0 175.5 -56zM460.5 320q58.5 35 89.5 94.5t31 132.5q0 95 -50 145.5t-166 50.5h-197l-65 -458h221q78 0 136.5 35z" />
    <glyph glyph-name="uni0421" unicode="&#x421;" horiz-adv-x="810" 
d="M218 33q-71 41 -109.5 117t-38.5 177q0 116 56.5 217.5t153.5 162.5t211 61q121 0 201 -65.5t105 -176.5l-18 -2q-25 106 -99.5 166.5t-190.5 60.5q-109 0 -201 -59t-146 -156.5t-54 -206.5q0 -98 36.5 -170t103.5 -111t157 -39q115 0 208 62t147 168l18 -2
q-57 -113 -154 -179t-221 -66q-94 0 -165 41z" />
    <glyph glyph-name="uni0422" unicode="&#x422;" horiz-adv-x="571" 
d="M610 743h-245l-105 -743h-18l105 743h-248l3 17h511z" />
    <glyph glyph-name="uni0423" unicode="&#x423;" horiz-adv-x="525" 
d="M592 760l-476 -760h-20l182 290l-186 470h19l178 -452l283 452h20z" />
    <glyph glyph-name="uni0424" unicode="&#x424;" horiz-adv-x="809" 
d="M731 240.5q-48 -73.5 -135.5 -111t-204.5 -37.5l-14 -102h-18l14 102q-137 0 -221.5 61.5t-84.5 188.5q0 104 48 177.5t135.5 111t204.5 37.5l14 102h18l-14 -102q137 0 221.5 -61.5t84.5 -188.5q0 -104 -48 -177.5zM164.5 166.5q79.5 -56.5 211.5 -57.5l76 542
q-110 -1 -193 -36.5t-128.5 -104.5t-45.5 -166q0 -121 79.5 -177.5zM587 145.5q83 35.5 128.5 104.5t45.5 166q0 121 -79.5 177.5t-211.5 57.5l-76 -542q110 1 193 36.5z" />
    <glyph glyph-name="uni0425" unicode="&#x425;" horiz-adv-x="510" 
d="M284 386l186 -386h-20l-178 369l-281 -369h-21l294 386l-179 374h20l171 -356l272 356h21z" />
    <glyph glyph-name="uni0426" unicode="&#x426;" horiz-adv-x="645" 
d="M577 17l-2 -17l-20 -140h-18l20 140h-512l107 760h18l-105 -743h444l105 743h18l-105 -743h50z" />
    <glyph glyph-name="uni0427" unicode="&#x427;" horiz-adv-x="590" 
d="M582 760l-107 -760h-18l44 313h-187q-100 0 -159.5 52.5t-59.5 147.5q0 22 3 46l29 201h18l-29 -201q-3 -22 -3 -44q0 -87 53.5 -136t148.5 -49h188l61 430h18z" />
    <glyph glyph-name="uni0428" unicode="&#x428;" horiz-adv-x="884" 
d="M753 17l-2 -17h-706l107 760h18l-105 -743h335l105 743h18l-105 -743h335zM876 760l-107 -760h-18l107 760h18z" />
    <glyph glyph-name="uni0429" unicode="&#x429;" horiz-adv-x="890" 
d="M800 -140h-18l20 140h-757l107 760h18l-105 -743h335l105 743h18l-105 -743h335l105 743h18l-105 -743h51z" />
    <glyph glyph-name="uni042A" unicode="&#x42a;" horiz-adv-x="725" 
d="M624.5 423q56.5 -57 56.5 -145q0 -80 -37 -143t-102.5 -99t-148.5 -36h-228l105 743h-171l3 17h188l-39 -280h209q108 0 164.5 -57zM533.5 51q61.5 34 95.5 94t34 133q0 83 -52 134t-151 51h-212l-63 -446h209q78 0 139.5 34z" />
    <glyph glyph-name="uni042B" unicode="&#x42b;" horiz-adv-x="760" 
d="M504.5 423q56.5 -57 56.5 -145q0 -80 -37 -143t-102.5 -99t-148.5 -36h-228l107 760h18l-39 -280h209q108 0 164.5 -57zM752 760l-107 -760h-18l107 760h18zM413.5 51q61.5 34 95.5 94t34 133q0 83 -52 134t-151 51h-212l-63 -446h209q78 0 139.5 34z" />
    <glyph glyph-name="uni042C" unicode="&#x42c;" horiz-adv-x="605" 
d="M504.5 423q56.5 -57 56.5 -145q0 -80 -37 -143t-102.5 -99t-148.5 -36h-228l107 760h18l-39 -280h209q108 0 164.5 -57zM413.5 51q61.5 34 95.5 94t34 133q0 83 -52 134t-151 51h-212l-63 -446h209q78 0 139.5 34z" />
    <glyph glyph-name="uni042D" unicode="&#x42d;" horiz-adv-x="815" 
d="M631 725.5q71 -42.5 110.5 -119t39.5 -174.5q0 -115 -57 -216.5t-154 -162.5t-211 -61q-77 0 -141 30.5t-107 86t-58 128.5l18 2q24 -104 101 -167t189 -63q99 0 185.5 50t143 134t69.5 181h-494l2 17h494q2 26 2 39q0 94 -36.5 167t-104 113.5t-157.5 40.5
q-110 0 -204.5 -62t-147.5 -165l-19 2q56 110 156 176t218 66q92 0 163 -42.5z" />
    <glyph glyph-name="uni042E" unicode="&#x42e;" horiz-adv-x="1025" 
d="M845.5 726.5q68.5 -41.5 107 -118t38.5 -176.5q0 -115 -56.5 -216.5t-152 -162.5t-206.5 -61q-88 0 -156.5 41.5t-106.5 117.5t-38 176q0 30 5 65h-162l-55 -392h-18l107 760h18l-49 -351h162q18 98 77 180.5t145.5 130.5t183.5 48q88 0 156.5 -41.5zM774 68
q91 59 145 156.5t54 206.5q0 96 -35.5 168.5t-100.5 112t-150 39.5q-105 0 -196 -59t-144.5 -156.5t-53.5 -207.5q0 -96 35.5 -168t100 -111.5t148.5 -39.5q106 0 197 59z" />
    <glyph glyph-name="uni042F" unicode="&#x42f;" horiz-adv-x="610" 
d="M495 0h-18l36 258h-202q-42 0 -73 7l-156 -265h-20l159 269q-141 37 -141 206q0 86 36.5 150t106.5 99.5t167 35.5h212zM516 275l66 468h-197q-91 0 -156 -34.5t-98 -95.5t-33 -140q0 -198 212 -198h206z" />
    <glyph glyph-name="uni0430" unicode="&#x430;" horiz-adv-x="599" 
d="M564 500l-70 -500h-16l21 157q-34 -77 -99.5 -121t-145.5 -44q-61 0 -108.5 27t-73.5 77t-26 116q0 81 36.5 149t100 107.5t142.5 39.5q80 0 133 -42t66 -119l22 153h18zM388.5 48.5q58.5 39.5 91.5 104.5t33 140q0 94 -51.5 146t-137.5 52q-74 0 -133.5 -38t-93 -101.5
t-33.5 -138.5q0 -94 52.5 -149t139.5 -55q74 0 132.5 39.5z" />
    <glyph glyph-name="uni0431" unicode="&#x431;" horiz-adv-x="591" 
d="M249.5 686.5q-66.5 -43.5 -101.5 -124.5t-58 -218q37 80 102.5 122t143.5 42q62 0 109.5 -26t74 -74t26.5 -112q0 -82 -36 -151.5t-100 -111t-145 -41.5q-61 0 -108.5 26t-73.5 74t-26 113q0 22 3 46q25 179 56 278t103.5 158t210.5 66l140 7l-3 -17l-138 -7
q-113 -6 -179.5 -49.5zM201.5 452.5q-59.5 -38.5 -93 -104.5t-33.5 -144q0 -89 52.5 -142t138.5 -53q74 0 134 38.5t94 104.5t34 143q0 91 -52.5 143.5t-139.5 52.5q-75 0 -134.5 -38.5z" />
    <glyph glyph-name="uni0432" unicode="&#x432;" horiz-adv-x="420" 
d="M351.5 221.5q23.5 -29.5 23.5 -69.5q0 -42 -22 -76.5t-66 -55t-106 -20.5h-146l70 500h147q73 0 107 -29t34 -76q0 -48 -28 -84t-85 -49q48 -11 71.5 -40.5zM91 270h128q78 0 117 36t39 88q0 41 -29.5 65t-92.5 24h-132zM311 54.5q46 37.5 46 97.5q0 45 -35.5 73
t-103.5 28h-130l-33 -236h129q81 0 127 37.5z" />
    <glyph glyph-name="uni0433" unicode="&#x433;" horiz-adv-x="360" 
d="M368 483h-247l-68 -483h-18l70 500h265z" />
    <glyph glyph-name="uni0434" unicode="&#x434;" horiz-adv-x="521" 
d="M457 -130h-18l19 130h-464l-19 -130h-18l21 147h43l264 483h22l127 -483h44zM415 17l-120 468l-254 -468h374z" />
    <glyph glyph-name="uni0435" unicode="&#x435;" horiz-adv-x="562" 
d="M66 249q-3 -21 -3 -41q0 -92 53 -145.5t141 -53.5q69 0 123 34.5t89 97.5l18 -2q-37 -71 -96.5 -109t-136.5 -38q-61 0 -108.5 26.5t-74 75t-26.5 113.5q0 80 35 149.5t97.5 110.5t140.5 41q88 0 144 -53t56 -149q0 -27 -4 -57h-448zM201.5 461q-52.5 -30 -87 -81.5
t-46.5 -113.5h429q3 18 3 38q0 91 -50.5 139t-132.5 48q-63 0 -115.5 -30z" />
    <glyph glyph-name="uni0436" unicode="&#x436;" horiz-adv-x="614" 
d="M441 313l128 -313h-19l-122 300l-121 -122l-25 -178h-18l25 181l-87 120l-205 -301h-22l217 315l-134 185h21l214 -296l41 296h18l-41 -296l293 296h24z" />
    <glyph glyph-name="uni0437" unicode="&#x437;" horiz-adv-x="400" 
d="M331.5 224q23.5 -29 23.5 -71q0 -71 -50 -116t-147 -45q-76 0 -116.5 32.5t-40.5 84.5q0 6 2 18l17 1q-1 -6 -1 -18q0 -47 36 -74t105 -27q84 0 130.5 39.5t46.5 103.5q0 50 -35 77t-104 27h-50l2 17h52q69 0 112 35.5t43 93.5q0 39 -31 64t-94 25q-66 0 -108.5 -27
t-55.5 -73l-19 1q14 53 60 84.5t124 31.5q72 0 107 -30.5t35 -75.5q0 -50 -30.5 -87t-83.5 -51q47 -11 70.5 -40z" />
    <glyph glyph-name="uni0438" unicode="&#x438;" horiz-adv-x="500" 
d="M465 500l-70 -500h-18l65 468l-389 -468h-18l70 500h18l-65 -468l389 468h18z" />
    <glyph glyph-name="uni0439" unicode="&#x439;" horiz-adv-x="500" 
d="M465 500l-70 -500h-18l65 468l-389 -468h-18l70 500h18l-65 -468l389 468h18zM209.5 650.5q-32.5 39.5 -32.5 109.5h16q0 -65 29 -99.5t85 -34.5q58 0 99 35.5t53 98.5h16q-14 -69 -58 -109t-110 -40q-65 0 -97.5 39.5z" />
    <glyph glyph-name="uni043A" unicode="&#x43a;" horiz-adv-x="405" 
d="M207 287l153 -287h-19l-147 275l-119 -116l-22 -159h-18l70 500h18l-44 -313l323 313h24z" />
    <glyph glyph-name="uni043B" unicode="&#x43b;" horiz-adv-x="436" 
d="M377 0l-124 485l-263 -485h-20l273 500h22l131 -500h-19z" />
    <glyph glyph-name="uni043C" unicode="&#x43c;" horiz-adv-x="573" 
d="M514 500l-6 -500h-18l6 467l-237 -467h-15l-105 467l-125 -467h-19l134 500h19l107 -473l240 473h19z" />
    <glyph glyph-name="uni043D" unicode="&#x43d;" horiz-adv-x="495" 
d="M460 500l-70 -500h-18l36 256h-319l-36 -256h-18l70 500h18l-32 -227h319l32 227h18z" />
    <glyph glyph-name="uni043E" unicode="&#x43e;" horiz-adv-x="580" 
d="M103.5 50.5q-57.5 58.5 -57.5 161.5q0 82 36.5 150t100.5 107t142 39q95 0 152 -58t57 -161q0 -82 -36.5 -150t-100 -107.5t-141.5 -39.5q-95 0 -152.5 58.5zM389 46.5q59 37.5 93 101.5t34 141q0 95 -51.5 148.5t-139.5 53.5q-74 0 -134 -37.5t-93.5 -101.5t-33.5 -140
q0 -96 52 -149.5t140 -53.5q74 0 133 37.5z" />
    <glyph glyph-name="uni043F" unicode="&#x43f;" horiz-adv-x="490" 
d="M385 0h-18l68 483h-314l-68 -483h-18l70 500h350z" />
    <glyph glyph-name="uni0440" unicode="&#x440;" horiz-adv-x="599" 
d="M453 482q47 -26 73.5 -74.5t26.5 -114.5q0 -85 -36 -154t-100 -108t-144 -39t-132.5 42.5t-65.5 118.5l-48 -345h-18l96 692h16l-21 -158q33 77 98 121.5t148 44.5q60 0 107 -26zM408.5 46.5q59.5 37.5 93 102.5t33.5 143q0 93 -52.5 146t-138.5 53q-74 0 -133 -39
t-92 -104.5t-33 -141.5q0 -92 52 -144.5t137 -52.5q74 0 133.5 37.5z" />
    <glyph glyph-name="uni0441" unicode="&#x441;" 
d="M102.5 51q-56.5 59 -56.5 158q0 87 36 155t100 106t143 38q73 0 125.5 -37t72.5 -102l-18 -3q-19 60 -67 92.5t-114 32.5q-75 0 -134 -36t-92.5 -100t-33.5 -144q0 -94 51 -148t139 -54q72 0 133.5 39t95.5 108l18 -2q-36 -76 -102 -119t-145 -43q-95 0 -151.5 59z" />
    <glyph glyph-name="uni0442" unicode="&#x442;" horiz-adv-x="420" 
d="M428 483h-176l-68 -483h-18l68 483h-176l2 17h370z" />
    <glyph glyph-name="uni0443" unicode="&#x443;" horiz-adv-x="535" 
d="M500 500l-64 -457q-34 -243 -231 -243q-79 0 -120 30t-52 80l18 4q21 -97 156 -97q89 0 142 55.5t69 170.5l13 92q-32 -73 -87.5 -108t-124.5 -35q-72 0 -118.5 39.5t-46.5 119.5q0 19 3 40l43 309h18l-43 -309q-3 -19 -3 -38q0 -70 39.5 -107t109.5 -37q88 0 149 61
t76 173l36 257h18z" />
    <glyph glyph-name="uni0444" unicode="&#x444;" horiz-adv-x="624" 
d="M541.5 140q-37.5 -69 -104.5 -108.5t-152 -39.5l-26 -184h-18l26 184q-103 1 -162.5 58t-59.5 155q0 86 37.5 155t104.5 108.5t152 39.5l35 252h18l-35 -252q103 -1 162.5 -58t59.5 -155q0 -86 -37.5 -155zM118 61q55 -52 151 -52l67 482q-79 0 -141.5 -38t-97 -103
t-34.5 -145q0 -92 55 -144zM429.5 47q62.5 38 97 103t34.5 145q0 92 -55.5 144t-151.5 52l-67 -482q80 0 142.5 38z" />
    <glyph glyph-name="uni0445" unicode="&#x445;" horiz-adv-x="405" 
d="M214 256l146 -256h-20l-137 243l-206 -243h-22l218 257l-137 243h20l129 -228l194 228h22z" />
    <glyph glyph-name="uni0446" unicode="&#x446;" horiz-adv-x="493" 
d="M425 17l-2 -17l-18 -130h-18l18 130h-370l70 500h18l-68 -483h307l68 483h18l-68 -483h45z" />
    <glyph glyph-name="uni0447" unicode="&#x447;" horiz-adv-x="451" 
d="M416 500l-70 -500h-18l29 207h-125q-73 0 -117 35.5t-44 101.5q0 19 2 30l18 126h18l-18 -126q-2 -20 -2 -29q0 -58 37.5 -89.5t108.5 -31.5h124l39 276h18z" />
    <glyph glyph-name="uni0448" unicode="&#x448;" horiz-adv-x="670" 
d="M635 500l-70 -500h-530l70 500h18l-68 -483h238l68 483h18l-68 -483h238l68 483h18z" />
    <glyph glyph-name="uni0449" unicode="&#x449;" horiz-adv-x="680" 
d="M612 17l-2 -17l-18 -130h-18l18 130h-557l70 500h18l-68 -483h238l68 483h18l-68 -483h238l68 483h18l-68 -483h45z" />
    <glyph glyph-name="uni044A" unicode="&#x44a;" horiz-adv-x="525" 
d="M436.5 291q42.5 -37 42.5 -99q0 -91 -57 -141.5t-156 -50.5h-156l68 483h-120l2 17h138l-24 -172h137q83 0 125.5 -37zM409.5 63q51.5 46 51.5 128q0 57 -37.5 88.5t-112.5 31.5h-139l-42 -294h139q89 0 140.5 46z" />
    <glyph glyph-name="uni044B" unicode="&#x44b;" horiz-adv-x="605" 
d="M361.5 291q42.5 -37 42.5 -99q0 -91 -57 -141.5t-156 -50.5h-156l70 500h18l-24 -172h137q83 0 125.5 -37zM570 500l-70 -500h-18l70 500h18zM334.5 63q51.5 46 51.5 128q0 57 -37.5 88.5t-112.5 31.5h-139l-42 -294h139q89 0 140.5 46z" />
    <glyph glyph-name="uni044C" unicode="&#x44c;" horiz-adv-x="450" 
d="M361.5 291q42.5 -37 42.5 -99q0 -91 -57 -141.5t-156 -50.5h-156l70 500h18l-24 -172h137q83 0 125.5 -37zM334.5 63q51.5 46 51.5 128q0 57 -37.5 88.5t-112.5 31.5h-139l-42 -294h139q89 0 140.5 46z" />
    <glyph glyph-name="uni044D" unicode="&#x44d;" horiz-adv-x="563" 
d="M418 481.5q48 -26.5 74 -74.5t26 -111q0 -84 -36 -153.5t-100.5 -110t-145.5 -40.5q-76 0 -132.5 45.5t-68.5 117.5l17 2q12 -66 63.5 -107t121.5 -41q68 0 123.5 31t90.5 84.5t45 119.5h-333l2 17h333q2 22 2 34q0 90 -52.5 143t-140.5 53q-71 0 -133.5 -40.5
t-93.5 -105.5l-18 2q34 73 100.5 117t144.5 44q63 0 111 -26.5z" />
    <glyph glyph-name="uni044E" unicode="&#x44e;" horiz-adv-x="732" 
d="M587 482q47 -26 73.5 -74t26.5 -112q0 -81 -36 -151t-100 -111.5t-143 -41.5q-60 0 -107 26t-73.5 74.5t-26.5 111.5q0 29 4 52h-116l-36 -256h-18l70 500h18l-32 -227h117q14 66 52 119.5t94.5 84.5t124.5 31q61 0 108 -26zM541.5 48q59.5 39 93.5 105t34 142
q0 90 -52.5 143t-137.5 53q-73 0 -132.5 -39t-93.5 -105t-34 -142q0 -90 52.5 -143t137.5 -53q73 0 132.5 39z" />
    <glyph glyph-name="uni044F" unicode="&#x44f;" horiz-adv-x="463" 
d="M358 0h-18l23 167h-140q-31 0 -52 4l-109 -171h-21l113 175q-49 13 -74 47t-25 82q0 92 56.5 144t156.5 52h160zM366 184l42 299h-142q-90 0 -141.5 -48t-51.5 -131q0 -57 37.5 -88.5t112.5 -31.5h143z" />
    <glyph glyph-name="uni0450" unicode="&#x450;" horiz-adv-x="562" 
d="M66 249q-3 -21 -3 -41q0 -92 53 -145.5t141 -53.5q69 0 123 34.5t89 97.5l18 -2q-37 -71 -96.5 -109t-136.5 -38q-61 0 -108.5 26.5t-74 75t-26.5 113.5q0 80 35 149.5t97.5 110.5t140.5 41q88 0 144 -53t56 -149q0 -27 -4 -57h-448zM201.5 461q-52.5 -30 -87 -81.5
t-46.5 -113.5h429q3 18 3 38q0 91 -50.5 139t-132.5 48q-63 0 -115.5 -30zM241 760l124 -168h-15l-131 168h22z" />
    <glyph glyph-name="uni0451" unicode="&#x451;" horiz-adv-x="562" 
d="M66 249q-3 -21 -3 -41q0 -92 53 -145.5t141 -53.5q69 0 123 34.5t89 97.5l18 -2q-37 -71 -96.5 -109t-136.5 -38q-61 0 -108.5 26.5t-74 75t-26.5 113.5q0 80 35 149.5t97.5 110.5t140.5 41q88 0 144 -53t56 -149q0 -27 -4 -57h-448zM201.5 461q-52.5 -30 -87 -81.5
t-46.5 -113.5h429q3 18 3 38q0 91 -50.5 139t-132.5 48q-63 0 -115.5 -30zM260 623q-8 8 -8 19t8 19t20 8q11 0 19 -8t8 -19t-8 -19t-19 -8q-12 0 -20 8zM395 623q-8 8 -8 19t8 19t20 8q11 0 19 -8t8 -19t-8 -19t-19 -8q-12 0 -20 8z" />
    <glyph glyph-name="uni0452" unicode="&#x452;" horiz-adv-x="620" 
d="M517 467q49 -41 49 -122q0 -19 -3 -40l-50 -353q-11 -78 -49 -115t-98 -37q-41 0 -73 18l4 18q13 -8 32.5 -13.5t38.5 -5.5q107 0 127 138l50 350q3 18 3 38q0 72 -41.5 110t-117.5 38q-90 0 -152.5 -61.5t-77.5 -174.5l-36 -255h-18l89 629h-121l3 16h120l16 115h18
l-16 -115h200l-3 -16h-199l-38 -265q32 73 88.5 108.5t127.5 35.5q78 0 127 -41z" />
    <glyph glyph-name="uni0453" unicode="&#x453;" horiz-adv-x="360" 
d="M368 483h-247l-68 -483h-18l70 500h265zM245 592h-15l124 168h22z" />
    <glyph glyph-name="uni0454" unicode="&#x454;" horiz-adv-x="563" 
d="M145 18.5q-48 26.5 -74 74.5t-26 111q0 84 36 153.5t100.5 110t145.5 40.5q76 0 132.5 -45.5t68.5 -117.5l-17 -2q-12 66 -63.5 107t-121.5 41q-68 0 -123.5 -31t-90.5 -84.5t-45 -119.5h333l-2 -17h-333q-2 -22 -2 -34q0 -90 52.5 -143t140.5 -53q71 0 133.5 40.5
t93.5 105.5l18 -2q-34 -73 -100.5 -117t-144.5 -44q-63 0 -111 26.5z" />
    <glyph glyph-name="uni0455" unicode="&#x455;" horiz-adv-x="434" 
d="M65 24q-40 32 -40 102l18 2q0 -66 36 -92.5t109 -26.5q79 0 124.5 35.5t45.5 103.5q0 29 -15.5 47.5t-40.5 29t-72 25.5l-39 12q-63 19 -95 42.5t-32 69.5q0 63 46 98.5t127 35.5q72 0 116 -28.5t45 -85.5l-18 -2q-1 51 -40.5 75t-104.5 24q-71 0 -112 -31.5t-41 -85.5
q0 -39 29.5 -59t86.5 -37l39 -12q48 -15 76 -27.5t45.5 -34t17.5 -55.5q0 -76 -51 -116.5t-138 -40.5q-82 0 -122 32z" />
    <glyph glyph-name="uni0456" unicode="&#x456;" horiz-adv-x="161" 
d="M116 623q-8 8 -8 19t8 19t20 8q11 0 19 -8t8 -19t-8 -19t-19 -8q-12 0 -20 8zM107 500h18l-70 -500h-18z" />
    <glyph glyph-name="uni0457" unicode="&#x457;" horiz-adv-x="161" 
d="M107 500h18l-70 -500h-18zM49 623q-8 8 -8 19t8 19t20 8q11 0 19 -8t8 -19t-8 -19t-19 -8q-12 0 -20 8zM184 623q-8 8 -8 19t8 19t20 8q11 0 19 -8t8 -19t-8 -19t-19 -8q-12 0 -20 8z" />
    <glyph glyph-name="uni0458" unicode="&#x458;" horiz-adv-x="171" 
d="M126 623q-8 8 -8 19t8 19t20 8q11 0 19 -8t8 -19t-8 -19t-19 -8q-12 0 -20 8zM-161 -182l4 18q13 -8 32.5 -13.5t38.5 -5.5q52 0 84.5 34t42.5 104l76 545h18l-76 -548q-11 -78 -49 -115t-98 -37q-42 0 -73 18z" />
    <glyph glyph-name="uni0459" unicode="&#x459;" horiz-adv-x="680" 
d="M591.5 291q42.5 -37 42.5 -99q0 -91 -57 -141.5t-156 -50.5h-156l68 483h-4l-339 -483h-20l349 500h34l-24 -172h137q83 0 125.5 -37zM564.5 63q51.5 46 51.5 128q0 57 -37.5 88.5t-112.5 31.5h-139l-42 -294h139q89 0 140.5 46z" />
    <glyph glyph-name="uni045A" unicode="&#x45a;" horiz-adv-x="785" 
d="M696.5 291q42.5 -37 42.5 -99q0 -91 -57 -141.5t-156 -50.5h-156l36 257h-317l-36 -257h-18l70 500h18l-32 -226h317l32 226h18l-24 -172h137q83 0 125.5 -37zM669.5 63q51.5 46 51.5 128q0 57 -37.5 88.5t-112.5 31.5h-139l-42 -294h139q89 0 140.5 46z" />
    <glyph glyph-name="uni045B" unicode="&#x45b;" horiz-adv-x="620" 
d="M517 467q49 -41 49 -122q0 -19 -3 -40l-43 -305h-18l43 305q3 18 3 38q0 72 -41.5 110t-117.5 38q-90 0 -152.5 -61.5t-77.5 -174.5l-36 -255h-18l89 629h-121l3 16h120l16 115h18l-16 -115h200l-3 -16h-199l-38 -265q32 73 88.5 108.5t127.5 35.5q78 0 127 -41z" />
    <glyph glyph-name="uni045C" unicode="&#x45c;" horiz-adv-x="405" 
d="M207 287l153 -287h-19l-147 275l-119 -116l-22 -159h-18l70 500h18l-44 -313l323 313h24zM265 592h-15l124 168h22z" />
    <glyph glyph-name="uni045D" unicode="&#x45d;" horiz-adv-x="500" 
d="M465 500l-70 -500h-18l65 468l-389 -468h-18l70 500h18l-65 -468l389 468h18zM203 760l124 -168h-15l-131 168h22z" />
    <glyph glyph-name="uni045E" unicode="&#x45e;" horiz-adv-x="535" 
d="M500 500l-64 -457q-34 -243 -231 -243q-79 0 -120 30t-52 80l18 4q21 -97 156 -97q89 0 142 55.5t69 170.5l13 92q-32 -73 -87.5 -108t-124.5 -35q-72 0 -118.5 39.5t-46.5 119.5q0 19 3 40l43 309h18l-43 -309q-3 -19 -3 -38q0 -70 39.5 -107t109.5 -37q88 0 149 61
t76 173l36 257h18zM223.5 650.5q-32.5 39.5 -32.5 109.5h16q0 -65 29 -99.5t85 -34.5q58 0 99 35.5t53 98.5h16q-14 -69 -58 -109t-110 -40q-65 0 -97.5 39.5z" />
    <glyph glyph-name="uni045F" unicode="&#x45f;" horiz-adv-x="490" 
d="M455 500l-70 -500h-163l-20 -140h-18l20 140h-169l70 500h18l-68 -483h314l68 483h18z" />
    <glyph glyph-name="uni0462" unicode="&#x462;" horiz-adv-x="700" 
d="M600 424q56 -56 56 -144q0 -80 -37 -144t-102.5 -100t-147.5 -36h-229l86 610h-150l2 17h150l19 133h18l-19 -133h230l-2 -17h-230l-18 -130h210q108 0 164 -56zM509 51.5q61 34.5 95 94t34 133.5q0 83 -51.5 133.5t-150.5 50.5h-213l-63 -446h211q77 0 138 34.5z" />
    <glyph glyph-name="uni0463" unicode="&#x463;" horiz-adv-x="525" 
d="M436.5 291q42.5 -37 42.5 -99q0 -91 -57 -141.5t-156 -50.5h-156l68 484h-120l2 16h120l37 260h18l-37 -260h200l-2 -16h-200l-22 -156h137q83 0 125.5 -37zM409.5 63q51.5 46 51.5 128q0 57 -37.5 88.5t-112.5 31.5h-139l-42 -294h139q89 0 140.5 46z" />
    <glyph glyph-name="uni0472" unicode="&#x472;" horiz-adv-x="840" 
d="M657.5 726.5q70.5 -41.5 109.5 -117.5t39 -177q0 -116 -57 -217t-155 -162t-213 -61q-93 0 -163.5 41.5t-109 117.5t-38.5 176q0 116 57 217.5t154.5 162.5t212.5 61q93 0 163.5 -41.5zM307 702.5q-86 -48.5 -142.5 -131t-71.5 -180.5h693q2 26 2 40q0 96 -36 168.5
t-103 112t-157 39.5q-99 0 -185 -48.5zM570 58.5q87 49.5 144 133t70 182.5h-693q-3 -22 -3 -46q0 -96 36 -168t102.5 -111.5t155.5 -39.5q101 0 188 49.5z" />
    <glyph glyph-name="uni0473" unicode="&#x473;" horiz-adv-x="580" 
d="M477 450q57 -58 57 -161q0 -82 -36.5 -150t-100 -107.5t-141.5 -39.5q-95 0 -152.5 58.5t-57.5 161.5q0 82 36.5 150t100.5 107t142 39q95 0 152 -58zM204 461q-55 -30 -90.5 -82.5t-45.5 -117.5h447q1 9 1 28q0 95 -51.5 148.5t-139.5 53.5q-66 0 -121 -30zM377 40
q55 31 91 84.5t45 119.5h-447q-2 -22 -2 -32q0 -96 52 -149.5t140 -53.5q66 0 121 31z" />
    <glyph glyph-name="uni0474" unicode="&#x474;" horiz-adv-x="615" 
d="M687 760l-4 -17h-25q-22 0 -36 -9t-25 -31l-342 -703h-22l-156 760h19l150 -741l336 691q13 27 32 38.5t47 11.5h26z" />
    <glyph glyph-name="uni0475" unicode="&#x475;" horiz-adv-x="470" 
d="M505 500l-3 -17h-5q-34 0 -57 -40l-243 -443h-22l-135 500h18l129 -482l239 435q13 22 32 34.5t41 12.5h6z" />
    <glyph glyph-name="uni048A" unicode="&#x48a;" horiz-adv-x="653" 
d="M327.5 910.5q-32.5 39.5 -32.5 109.5h16q0 -65 29 -99.5t85 -34.5q58 0 99 35.5t53 98.5h16q-14 -69 -58 -109t-110 -40q-65 0 -97.5 39.5zM520 -140h-19l71 140h-45l103 729l-567 -729h-18l107 760h18l-103 -729l567 729h18l-105 -743h53z" />
    <glyph glyph-name="uni048B" unicode="&#x48b;" horiz-adv-x="509" 
d="M209.5 650.5q-32.5 39.5 -32.5 109.5h16q0 -65 29 -99.5t85 -34.5q58 0 99 35.5t53 98.5h16q-14 -69 -58 -109t-110 -40q-65 0 -97.5 39.5zM465 500l-68 -483h44l-74 -147h-19l65 130h-36l65 468l-389 -468h-18l70 500h18l-65 -468l389 468h18z" />
    <glyph glyph-name="uni048C" unicode="&#x48c;" horiz-adv-x="700" 
d="M600 424q56 -56 56 -144q0 -80 -37 -144t-102.5 -100t-147.5 -36h-229l86 610h-150l2 17h150l19 133h18l-19 -133h230l-2 -17h-230l-18 -130h210q108 0 164 -56zM509 51.5q61 34.5 95 94t34 133.5q0 83 -51.5 133.5t-150.5 50.5h-213l-63 -446h211q77 0 138 34.5z" />
    <glyph glyph-name="uni048D" unicode="&#x48d;" horiz-adv-x="525" 
d="M436.5 291q42.5 -37 42.5 -99q0 -91 -57 -141.5t-156 -50.5h-156l68 484h-120l2 16h120l37 260h18l-37 -260h200l-2 -16h-200l-22 -156h137q83 0 125.5 -37zM409.5 63q51.5 46 51.5 128q0 57 -37.5 88.5t-112.5 31.5h-139l-42 -294h139q89 0 140.5 46z" />
    <glyph glyph-name="uni048E" unicode="&#x48e;" horiz-adv-x="605" 
d="M552.5 383q-46.5 -71 -129.5 -99l63 -144l-15 -8l-64 147q-42 -11 -87 -11h-219l-38 -268h-18l107 760h217q121 0 175.5 -56t54.5 -155q0 -95 -46.5 -166zM537.5 392.5q43.5 66.5 43.5 154.5q0 95 -50 145.5t-166 50.5h-197l-65 -458h221q43 0 76 10l-69 157l15 8
l70 -160q78 26 121.5 92.5z" />
    <glyph glyph-name="uni048F" unicode="&#x48f;" horiz-adv-x="599" 
d="M514 133q-39 -71 -107 -108l46 -106l-15 -9l-46 108q-55 -26 -119 -26q-80 0 -132.5 42.5t-65.5 118.5l-48 -345h-18l96 692h16l-21 -158q33 77 98 121.5t148 44.5q60 0 107 -26t73.5 -74.5t26.5 -114.5q0 -89 -39 -160zM499 143.5q36 66.5 36 148.5q0 93 -52.5 146
t-138.5 53q-74 0 -133 -39t-92 -104.5t-33 -141.5q0 -92 52 -144.5t137 -52.5q57 0 110 24l-71 164l15 8l71 -164q63 36 99 102.5z" />
    <glyph glyph-name="uni0490" unicode="&#x490;" horiz-adv-x="470" 
d="M532 870l-18 -127h-346l-104 -743h-18l106 760h346l16 110h18z" />
    <glyph glyph-name="uni0491" unicode="&#x491;" horiz-adv-x="360" 
d="M382 582l-14 -99h-247l-68 -483h-18l70 500h248l14 82h15z" />
    <glyph glyph-name="uni0492" unicode="&#x492;" horiz-adv-x="570" 
d="M268 743l-53 -379h229v-17h-232l-48 -347h-18l48 347h-148v17h151l55 396h364l-2 -17h-346z" />
    <glyph glyph-name="uni0493" unicode="&#x493;" horiz-adv-x="401" 
d="M162 483l-29 -208h171l-2 -16h-172l-36 -259h-18l36 259h-90l2 16h91l31 225h265l-2 -17h-247z" />
    <glyph glyph-name="uni0494" unicode="&#x494;" horiz-adv-x="605" 
d="M479 416.5q75 -53.5 75 -178.5q0 -89 -34 -187t-96.5 -169t-142.5 -82l1 16q76 16 134 83.5t89 159.5t31 178q0 115 -69 165.5t-201 50.5h-139l-64 -453h-18l107 760h365l-3 -17h-346l-39 -273h140q135 0 210 -53.5z" />
    <glyph glyph-name="uni0495" unicode="&#x495;" horiz-adv-x="470" 
d="M357.5 269q52.5 -41 52.5 -135q0 -68 -25 -143t-72 -128.5t-107 -62.5v17q57 12 99.5 62.5t64.5 119.5t22 135q0 85 -46.5 122t-136.5 37h-115l-41 -293h-18l70 500h265l-3 -17h-246l-25 -173h116q93 0 145.5 -41z" />
    <glyph glyph-name="uni0496" unicode="&#x496;" horiz-adv-x="942" 
d="M641 473l199 -473h-19l-192 459l-172 -189l-38 -270h-18l39 275l-118 186l-321 -461h-21l332 476l-180 284h20l291 -461l65 461h18l-65 -462l418 462h23zM872 -140h-18l20 140h-52l3 17h69z" />
    <glyph glyph-name="uni0497" unicode="&#x497;" horiz-adv-x="660" 
d="M441 313l128 -313h-19l-122 300l-121 -122l-25 -178h-18l25 181l-87 120l-205 -301h-22l217 315l-134 185h21l214 -296l41 296h18l-41 -296l293 296h24zM596 -130h-18l19 130h-47l2 17h65z" />
    <glyph glyph-name="uni0498" unicode="&#x498;" horiz-adv-x="557" 
d="M482.5 340q33.5 -44 33.5 -111q0 -69 -33 -122t-93.5 -83.5t-140.5 -31.5l-20 -142h-18l20 142q-100 2 -153 49t-53 121q0 15 2 33l18 1q-2 -20 -2 -31q0 -70 50.5 -113t147.5 -43q76 0 134.5 27.5t90.5 77t32 113.5q0 79 -50 122t-149 43h-80l2 17h86q103 0 163 51.5
t60 138.5q0 72 -44.5 112t-135.5 40q-104 0 -165.5 -51t-73.5 -134l-18 1q11 87 77 144t181 57q100 0 148.5 -45.5t48.5 -122.5q0 -76 -45 -129.5t-121 -70.5q67 -16 100.5 -60z" />
    <glyph glyph-name="uni0499" unicode="&#x499;" horiz-adv-x="400" 
d="M331.5 224q23.5 -29 23.5 -71q0 -68 -47 -113t-138 -48l-19 -132h-18l19 132q-73 1 -112 33.5t-39 83.5q0 6 2 18l17 1q-1 -6 -1 -18q0 -47 36 -74t105 -27q84 0 130.5 39.5t46.5 103.5q0 50 -35 77t-104 27h-50l2 17h52q69 0 112 35.5t43 93.5q0 39 -31 64t-94 25
q-66 0 -108.5 -27t-55.5 -73l-19 1q14 53 60 84.5t124 31.5q72 0 107 -30.5t35 -75.5q0 -50 -30.5 -87t-83.5 -51q47 -11 70.5 -40z" />
    <glyph glyph-name="uni049A" unicode="&#x49a;" horiz-adv-x="601" 
d="M311 432l189 -432h-19l-183 417l-210 -239l-25 -178h-18l107 760h18l-78 -554l487 554h20zM531 -140h-18l20 140h-52l3 17h69z" />
    <glyph glyph-name="uni049B" unicode="&#x49b;" horiz-adv-x="452" 
d="M207 287l153 -287h-19l-147 275l-119 -116l-22 -159h-18l70 500h18l-44 -313l323 313h24zM388 -130h-18l19 130h-47l2 17h65z" />
    <glyph glyph-name="uni049C" unicode="&#x49c;" horiz-adv-x="550" 
d="M310 431l190 -431h-19l-183 417l-40 -45l-25 -182h-18l23 162l-149 -170l-26 -182h-18l107 760h18l-77 -548l149 170l26 188h18l-23 -168l314 358h22z" />
    <glyph glyph-name="uni049D" unicode="&#x49d;" horiz-adv-x="406" 
d="M208 288l153 -288h-19l-147 276l-23 -23l-20 -138h-17l17 121l-76 -73l-23 -163h-18l70 500h18l-43 -310l76 73l20 142h17l-18 -125l227 220h24z" />
    <glyph glyph-name="uni049E" unicode="&#x49e;" horiz-adv-x="625" 
d="M386 432l189 -432h-19l-182 418l-211 -240l-25 -178h-18l86 610h-130l2 17h130l19 133h18l-19 -133h150l-2 -17h-150l-57 -402l485 552h22z" />
    <glyph glyph-name="uni049F" unicode="&#x49f;" horiz-adv-x="477" 
d="M278 287l154 -287h-19l-147 275l-120 -116l-22 -159h-18l88 629h-120l2 16h120l16 115h18l-16 -115h180l-2 -16h-180l-62 -442l323 313h24z" />
    <glyph glyph-name="uni04A0" unicode="&#x4a0;" horiz-adv-x="717" 
d="M478 432l189 -432h-19l-183 417l-210 -239l-25 -178h-18l105 743h-218l3 17h235l-78 -554l487 554h20z" />
    <glyph glyph-name="uni04A1" unicode="&#x4a1;" horiz-adv-x="510" 
d="M312 287l153 -287h-19l-147 275l-119 -116l-22 -159h-18l68 483h-150l2 17h168l-44 -313l323 313h24z" />
    <glyph glyph-name="uni04A2" unicode="&#x4a2;" horiz-adv-x="650" 
d="M642 760l-107 -760h-18l55 392h-454l-55 -392h-18l107 760h18l-49 -351h454l49 351h18zM567 -140h-18l20 140h-52l3 17h69z" />
    <glyph glyph-name="uni04A3" unicode="&#x4a3;" horiz-adv-x="508" 
d="M460 500l-70 -500h-18l36 256h-319l-36 -256h-18l70 500h18l-32 -227h319l32 227h18zM419 -130h-18l19 130h-47l2 17h65z" />
    <glyph glyph-name="uni04A4" unicode="&#x4a4;" horiz-adv-x="942" 
d="M642 760l-107 -760h-18l55 392h-454l-55 -392h-18l107 760h18l-49 -351h454l49 351h18zM986 743h-346l-104 -743h-18l106 760h364z" />
    <glyph glyph-name="uni04A5" unicode="&#x4a5;" horiz-adv-x="697" 
d="M460 500l-70 -500h-18l36 256h-319l-36 -256h-18l70 500h18l-32 -227h319l32 227h18zM705 483h-247l-68 -483h-18l70 500h265z" />
    <glyph glyph-name="uni04A6" unicode="&#x4a6;" horiz-adv-x="1065" 
d="M938 416.5q75 -53.5 75 -178.5q0 -91 -33.5 -188.5t-95.5 -167.5t-144 -82l1 16q77 15 135 82.5t88.5 159.5t30.5 179q0 116 -68.5 166t-201.5 50h-136l-64 -453h-18l105 743h-444l-105 -743h-18l107 760h480l-41 -290h137q135 0 210 -53.5z" />
    <glyph glyph-name="uni04A7" unicode="&#x4a7;" horiz-adv-x="799" 
d="M686.5 269q52.5 -41 52.5 -135q0 -68 -25 -143t-72 -128.5t-107 -62.5v17q57 12 99.5 62.5t64.5 119.5t22 135q0 85 -46.5 122t-136.5 37h-112l-41 -293h-18l68 483h-314l-68 -483h-18l70 500h350l-27 -190h113q93 0 145.5 -41z" />
    <glyph glyph-name="uni04A8" unicode="&#x4a8;" horiz-adv-x="860" 
d="M684 9q59 0 113 13l-1 -17q-55 -13 -114 -13q-84 0 -150 25q-72 -25 -146 -25q-91 0 -163 36.5t-113.5 110.5t-41.5 181q0 104 39.5 196.5t111.5 158.5t166 93l-1 -17q-92 -29 -159.5 -95t-103 -154.5t-35.5 -182.5q0 -101 39.5 -170.5t108.5 -104.5t155 -35q64 0 119 18
q-91 41 -142.5 126.5t-51.5 209.5q0 105 37.5 198t110 150t172.5 57q104 0 162 -66t58 -197q0 -104 -37.5 -199.5t-104.5 -168t-155 -110.5q59 -18 127 -18zM385.5 154.5q53.5 -83.5 147.5 -119.5q89 34 158 105t107 166t38 199q0 123 -53.5 184.5t-150.5 61.5
q-95 0 -163 -55.5t-102.5 -145t-34.5 -188.5q0 -124 53.5 -207.5z" />
    <glyph glyph-name="uni04A9" unicode="&#x4a9;" horiz-adv-x="609" 
d="M459 9q44 0 86 10l-1 -18q-40 -9 -86 -9q-52 0 -95 17q-48 -17 -99 -17q-102 0 -164.5 56.5t-62.5 154.5q0 67 26 131t74.5 111t113.5 62v-17q-60 -15 -104.5 -60t-68 -105t-23.5 -121q0 -93 57.5 -144t152.5 -51q36 0 74 10q-56 29 -88 86t-32 129q0 74 25.5 136.5
t73.5 100t113 37.5q74 0 112.5 -47.5t38.5 -127.5q0 -105 -53.5 -190t-140.5 -124q31 -10 71 -10zM271 106q34 -54 93 -79q58 22 103.5 67.5t71 107t25.5 130.5q0 74 -33.5 116.5t-99.5 42.5q-61 0 -105 -35.5t-66.5 -94.5t-22.5 -128q0 -73 34 -127z" />
    <glyph glyph-name="uni04AA" unicode="&#x4aa;" horiz-adv-x="810" 
d="M288 692q-92 -59 -146 -156.5t-54 -206.5q0 -98 36.5 -170t103.5 -111t157 -39q115 0 208 62t147 168l18 -2q-57 -113 -154 -179t-221 -66h-4l-20 -142h-18l21 143q-88 4 -154 46.5t-102 116.5t-36 171q0 116 56.5 217.5t153.5 162.5t211 61q121 0 201 -65.5t105 -176.5
l-18 -2q-25 106 -99.5 166.5t-190.5 60.5q-109 0 -201 -59z" />
    <glyph glyph-name="uni04AB" unicode="&#x4ab;" 
d="M190 455q-59 -36 -92.5 -100t-33.5 -144q0 -94 51 -148t139 -54q72 0 133.5 39t95.5 108l18 -2q-35 -74 -99 -117t-141 -45l-19 -132h-18l19 132q-90 4 -143.5 62.5t-53.5 154.5q0 87 36 155t100 106t143 38q73 0 125.5 -37t72.5 -102l-18 -3q-19 60 -67 92.5t-114 32.5
q-75 0 -134 -36z" />
    <glyph glyph-name="uni04AC" unicode="&#x4ac;" horiz-adv-x="571" 
d="M610 743h-245l-105 -743h-18l105 743h-248l3 17h511zM292 -140h-18l20 140h-52l3 17h69z" />
    <glyph glyph-name="uni04AD" unicode="&#x4ad;" horiz-adv-x="420" 
d="M428 483h-176l-68 -483h-18l68 483h-176l2 17h370zM213 -130h-18l19 130h-47l2 17h65z" />
    <glyph glyph-name="uni04AE" unicode="&#x4ae;" horiz-adv-x="492" 
d="M269 350l-49 -350h-18l49 351l-179 409h19l170 -391l282 391h21z" />
    <glyph glyph-name="uni04AF" unicode="&#x4af;" horiz-adv-x="440" 
d="M194 0l-27 -192h-18l27 193l-136 499h18l129 -480l263 480h20z" />
    <glyph glyph-name="uni04B0" unicode="&#x4b0;" horiz-adv-x="492" 
d="M279 364h184v-17h-195l-48 -347h-18l48 347h-185v17h180l-173 396h19l170 -391l282 391h21z" />
    <glyph glyph-name="uni04B1" unicode="&#x4b1;" horiz-adv-x="440" 
d="M203 16h144l-2 -16h-151l-27 -192h-18l27 192h-149l2 16h143l-132 484h18l129 -480l263 480h20z" />
    <glyph glyph-name="uni04B2" unicode="&#x4b2;" horiz-adv-x="569" 
d="M284 386l186 -386h-20l-178 369l-281 -369h-21l294 386l-179 374h20l171 -356l272 356h21zM499 -140h-18l20 140h-52l3 17h69z" />
    <glyph glyph-name="uni04B3" unicode="&#x4b3;" horiz-adv-x="450" 
d="M214 256l146 -256h-20l-137 243l-206 -243h-22l218 257l-137 243h20l129 -228l194 228h22zM386 -130h-18l19 130h-47l2 17h65z" />
    <glyph glyph-name="uni04B4" unicode="&#x4b4;" horiz-adv-x="842" 
d="M774 17l-2 -17l-20 -140h-18l20 140h-512l105 743h-248l3 17h511l-3 -17h-245l-103 -726h444l105 743h18l-105 -743h50z" />
    <glyph glyph-name="uni04B5" unicode="&#x4b5;" horiz-adv-x="624" 
d="M556 17l-2 -17l-18 -130h-18l18 130h-370l68 483h-176l2 17h370l-2 -17h-176l-66 -466h307l68 483h18l-68 -483h45z" />
    <glyph glyph-name="uni04B6" unicode="&#x4b6;" horiz-adv-x="597" 
d="M582 760l-107 -760h-18l44 313h-187q-100 0 -159.5 52.5t-59.5 147.5q0 22 3 46l29 201h18l-29 -201q-3 -22 -3 -44q0 -87 53.5 -136t148.5 -49h188l61 430h18zM507 -140h-18l20 140h-52l3 17h69z" />
    <glyph glyph-name="uni04B7" unicode="&#x4b7;" horiz-adv-x="465" 
d="M416 500l-70 -500h-18l29 207h-125q-73 0 -117 35.5t-44 101.5q0 19 2 30l18 126h18l-18 -126q-2 -20 -2 -29q0 -58 37.5 -89.5t108.5 -31.5h124l39 276h18zM376 -130h-18l19 130h-47l2 17h65z" />
    <glyph glyph-name="uni04B8" unicode="&#x4b8;" horiz-adv-x="590" 
d="M582 760l-107 -760h-18l44 313h-187h-2l-29 -203h-18l29 204q-92 5 -145.5 57.5t-53.5 142.5q0 21 3 45l29 201h18l-29 -201q-3 -22 -3 -43q0 -84 48 -132t135 -53l28 199h18l-28 -200h1h188l61 430h18z" />
    <glyph glyph-name="uni04B9" unicode="&#x4b9;" horiz-adv-x="451" 
d="M416 500l-70 -500h-18l29 207h-125h-4l-19 -136h-17l19 137q-64 5 -102 40t-38 96q0 19 2 30l18 126h18l-18 -126q-2 -20 -2 -29q0 -54 32 -84.5t93 -35.5l23 165h17l-23 -166h4h124l39 276h18z" />
    <glyph glyph-name="uni04BA" unicode="&#x4ba;" horiz-adv-x="600" 
d="M472.5 392.5q63.5 -52.5 63.5 -149.5q0 -21 -3 -44l-28 -199h-18l28 199q3 23 3 42q0 90 -58 138.5t-167 48.5h-170l-60 -428h-18l107 760h18l-44 -315h168q115 0 178.5 -52.5z" />
    <glyph glyph-name="uni04BB" unicode="&#x4bb;" horiz-adv-x="550" 
d="M447 467q49 -41 49 -122q0 -19 -3 -40l-43 -305h-18l43 305q3 18 3 38q0 72 -41.5 110t-117.5 38q-90 0 -152.5 -61.5t-77.5 -174.5l-36 -255h-18l107 760h18l-56 -396q32 73 88.5 108.5t127.5 35.5q78 0 127 -41z" />
    <glyph glyph-name="uni04BC" unicode="&#x4bc;" horiz-adv-x="956" 
d="M206 382q-3 -25 -3 -51q0 -95 36.5 -168t104.5 -113.5t158 -40.5q102 0 194.5 56t146.5 149l18 -2q-57 -100 -153.5 -160t-207.5 -60q-93 0 -164.5 42.5t-111 118.5t-39.5 175q0 27 3 54q-67 1 -100.5 27t-33.5 73q0 24 8.5 51.5t22.5 48.5l19 -2q-14 -20 -23 -46.5
t-9 -50.5q0 -83 119 -84q16 101 75.5 185.5t149.5 134t193 49.5q91 0 163 -42t112 -115.5t40 -164.5q0 -36 -4 -64h-714zM425 703q-85 -48 -142.5 -128.5t-73.5 -175.5h695q2 30 2 45q0 87 -37.5 157t-105.5 110t-157 40q-96 0 -181 -48z" />
    <glyph glyph-name="uni04BD" unicode="&#x4bd;" horiz-adv-x="673" 
d="M174 208q0 -92 53 -145.5t141 -53.5q69 0 123 34.5t89 97.5l18 -2q-37 -71 -96.5 -109t-136.5 -38q-61 0 -108.5 26.5t-74 75t-26.5 113.5q0 21 3 42q-62 3 -92.5 29t-30.5 73q0 23 8.5 50.5t21.5 47.5l19 -2q-13 -18 -22 -45t-9 -49q0 -41 26 -62.5t81 -24.5
q12 68 49 123t94 87t125 32q88 0 144 -53t56 -149q0 -27 -4 -57h-448q-3 -21 -3 -41zM312.5 461q-52.5 -30 -87 -81.5t-46.5 -113.5h429q3 18 3 38q0 91 -50.5 139t-132.5 48q-63 0 -115.5 -30z" />
    <glyph glyph-name="uni04BE" unicode="&#x4be;" horiz-adv-x="956" 
d="M206 382q-3 -25 -3 -51q0 -95 36.5 -168t104.5 -113.5t158 -40.5q102 0 194.5 56t146.5 149l18 -2q-56 -99 -150 -158.5t-203 -61.5l-19 -142h-18l19 142q-90 2 -159.5 45t-107.5 118.5t-38 172.5q0 27 3 54q-67 1 -100.5 27t-33.5 73q0 24 8.5 51.5t22.5 48.5l19 -2
q-14 -20 -23 -46.5t-9 -50.5q0 -83 119 -84q16 101 75.5 185.5t149.5 134t193 49.5q91 0 163 -42t112 -115.5t40 -164.5q0 -36 -4 -64h-714zM425 703q-85 -48 -142.5 -128.5t-73.5 -175.5h695q2 30 2 45q0 87 -37.5 157t-105.5 110t-157 40q-96 0 -181 -48z" />
    <glyph glyph-name="uni04BF" unicode="&#x4bf;" horiz-adv-x="673" 
d="M174 208q0 -92 53 -145.5t141 -53.5q69 0 123 34.5t89 97.5l18 -2q-37 -71 -96.5 -109t-135.5 -38l-19 -132h-18l19 133q-87 5 -139.5 63t-52.5 151q0 21 3 42q-62 3 -92.5 29t-30.5 73q0 23 8.5 50.5t21.5 47.5l19 -2q-13 -18 -22 -45t-9 -49q0 -41 26 -62.5t81 -24.5
q12 68 49 123t94 87t125 32q88 0 144 -53t56 -149q0 -27 -4 -57h-448q-3 -21 -3 -41zM312.5 461q-52.5 -30 -87 -81.5t-46.5 -113.5h429q3 18 3 38q0 91 -50.5 139t-132.5 48q-63 0 -115.5 -30z" />
    <glyph glyph-name="uni04C0" unicode="&#x4c0;" horiz-adv-x="178" 
d="M152 760h18l-107 -760h-18z" />
    <glyph glyph-name="uni04C1" unicode="&#x4c1;" horiz-adv-x="890" 
d="M641 473l199 -473h-19l-192 459l-172 -189l-38 -270h-18l39 275l-118 186l-321 -461h-21l332 476l-180 284h20l291 -461l65 461h18l-65 -462l418 462h23zM438.5 910.5q-32.5 39.5 -32.5 109.5h16q0 -65 29 -99.5t85 -34.5q58 0 99 35.5t53 98.5h16q-14 -69 -58 -109
t-110 -40q-65 0 -97.5 39.5z" />
    <glyph glyph-name="uni04C2" unicode="&#x4c2;" horiz-adv-x="614" 
d="M441 313l128 -313h-19l-122 300l-121 -122l-25 -178h-18l25 181l-87 120l-205 -301h-22l217 315l-134 185h21l214 -296l41 296h18l-41 -296l293 296h24zM264.5 650.5q-32.5 39.5 -32.5 109.5h16q0 -65 29 -99.5t85 -34.5q58 0 99 35.5t53 98.5h16q-14 -69 -58 -109
t-110 -40q-65 0 -97.5 39.5z" />
    <glyph glyph-name="uni04C3" unicode="&#x4c3;" horiz-adv-x="571" 
d="M420.5 353q41.5 -40 67 -91t25.5 -115q0 -76 -31.5 -152t-87 -129.5t-123.5 -65.5l1 16q65 15 116 66t79 121.5t28 141.5q0 86 -47.5 148.5t-142.5 130.5l-217 -248l-25 -176h-18l107 760h18l-78 -554l485 554h22l-283 -323q63 -44 104.5 -84z" />
    <glyph glyph-name="uni04C4" unicode="&#x4c4;" horiz-adv-x="439" 
d="M295 220.5q34 -30.5 54.5 -70t20.5 -91.5q0 -57 -23.5 -114.5t-64.5 -97.5t-91 -47v17q46 9 82.5 46t57.5 89.5t21 104.5q0 48 -18.5 84.5t-51.5 66.5t-87 67l-120 -116l-22 -159h-18l70 500h18l-44 -313l323 313h24l-219 -213q54 -36 88 -66.5z" />
    <glyph glyph-name="uni04C5" unicode="&#x4c5;" horiz-adv-x="616" 
d="M493 -140h-19l71 140h-44l-153 739l-359 -739h-19l370 760h22l153 -743h58z" />
    <glyph glyph-name="uni04C6" unicode="&#x4c6;" horiz-adv-x="485" 
d="M373 -130h-19l65 130h-42l-124 485l-263 -485h-20l273 500h22l127 -483h55z" />
    <glyph glyph-name="uni04C7" unicode="&#x4c7;" horiz-adv-x="651" 
d="M642 760l-104 -745q-16 -111 -71 -163t-151 -52q-18 0 -26 1l1 17q8 -1 26 -1q86 0 137 48t66 151l53 376h-454l-55 -392h-18l106 760h18l-49 -351h454l49 351h18z" />
    <glyph glyph-name="uni04C8" unicode="&#x4c8;" horiz-adv-x="495" 
d="M460 500l-70 -500l-7 -48q-11 -77 -48.5 -114.5t-94.5 -37.5q-47 0 -77 18l5 18q13 -8 33.5 -13.5t40.5 -5.5q50 0 81.5 33.5t41.5 102.5l21 147l22 156h-319l-36 -256h-18l70 500h18l-32 -227h319l32 227h18z" />
    <glyph glyph-name="uni04C9" unicode="&#x4c9;" horiz-adv-x="643" 
d="M510 -140h-19l71 140h-45l55 392h-454l-55 -392h-18l107 760h18l-49 -351h454l49 351h18l-105 -743h53z" />
    <glyph glyph-name="uni04CA" unicode="&#x4ca;" horiz-adv-x="504" 
d="M362 -130h-19l65 130h-36l36 256h-319l-36 -256h-18l70 500h18l-32 -227h319l32 227h18l-68 -483h44z" />
    <glyph glyph-name="uni04CB" unicode="&#x4cb;" horiz-adv-x="590" 
d="M582 760l-107 -760h-49l-20 -140h-18l20 140h-1l3 17h49l42 296h-187q-100 0 -159.5 52.5t-59.5 147.5q0 22 3 46l29 201h18l-29 -201q-3 -22 -3 -44q0 -87 53.5 -136t148.5 -49h188l61 430h18z" />
    <glyph glyph-name="uni04CC" unicode="&#x4cc;" horiz-adv-x="451" 
d="M416 500l-70 -500h-47l-19 -130h-18l21 147h47l27 190h-125q-73 0 -117 35.5t-44 101.5q0 19 2 30l18 126h18l-18 -126q-2 -20 -2 -29q0 -58 37.5 -89.5t108.5 -31.5h124l39 276h18z" />
    <glyph glyph-name="uni04CD" unicode="&#x4cd;" horiz-adv-x="823" 
d="M695 -140h-19l71 140h-45l17 724l-341 -724h-18l-140 726l-186 -726h-19l197 760h16l144 -733l348 733h17l-17 -743h55z" />
    <glyph glyph-name="uni04CE" unicode="&#x4ce;" horiz-adv-x="598" 
d="M481 -130h-19l65 130h-37l6 467l-237 -467h-15l-105 467l-125 -467h-19l134 500h19l107 -473l240 473h19l-6 -483h47z" />
    <glyph glyph-name="uni04CF" unicode="&#x4cf;" horiz-adv-x="159" 
d="M142 760h18l-106 -760h-18z" />
    <glyph glyph-name="uni04D0" unicode="&#x4d0;" 
d="M467 162h-400l-78 -162h-19l370 760h22l157 -760h-19zM463 179l-115 563l-272 -563h387zM271.5 910.5q-32.5 39.5 -32.5 109.5h16q0 -65 29 -99.5t85 -34.5q58 0 99 35.5t53 98.5h16q-14 -69 -58 -109t-110 -40q-65 0 -97.5 39.5z" />
    <glyph glyph-name="uni04D1" unicode="&#x4d1;" horiz-adv-x="599" 
d="M564 500l-70 -500h-16l21 157q-34 -77 -99.5 -121t-145.5 -44q-61 0 -108.5 27t-73.5 77t-26 116q0 81 36.5 149t100 107.5t142.5 39.5q80 0 133 -42t66 -119l22 153h18zM388.5 48.5q58.5 39.5 91.5 104.5t33 140q0 94 -51.5 146t-137.5 52q-74 0 -133.5 -38t-93 -101.5
t-33.5 -138.5q0 -94 52.5 -149t139.5 -55q74 0 132.5 39.5zM252.5 650.5q-32.5 39.5 -32.5 109.5h16q0 -65 29 -99.5t85 -34.5q58 0 99 35.5t53 98.5h16q-14 -69 -58 -109t-110 -40q-65 0 -97.5 39.5z" />
    <glyph glyph-name="uni04D2" unicode="&#x4d2;" 
d="M467 162h-400l-78 -162h-19l370 760h22l157 -760h-19zM463 179l-115 563l-272 -563h387zM284 883q-8 8 -8 19t8 19t20 8q11 0 19 -8t8 -19t-8 -19t-19 -8q-12 0 -20 8zM419 883q-8 8 -8 19t8 19t20 8q11 0 19 -8t8 -19t-8 -19t-19 -8q-12 0 -20 8z" />
    <glyph glyph-name="uni04D3" unicode="&#x4d3;" horiz-adv-x="599" 
d="M564 500l-70 -500h-16l21 157q-34 -77 -99.5 -121t-145.5 -44q-61 0 -108.5 27t-73.5 77t-26 116q0 81 36.5 149t100 107.5t142.5 39.5q80 0 133 -42t66 -119l22 153h18zM388.5 48.5q58.5 39.5 91.5 104.5t33 140q0 94 -51.5 146t-137.5 52q-74 0 -133.5 -38t-93 -101.5
t-33.5 -138.5q0 -94 52.5 -149t139.5 -55q74 0 132.5 39.5zM265 623q-8 8 -8 19t8 19t20 8q11 0 19 -8t8 -19t-8 -19t-19 -8q-12 0 -20 8zM400 623q-8 8 -8 19t8 19t20 8q11 0 19 -8t8 -19t-8 -19t-19 -8q-12 0 -20 8z" />
    <glyph glyph-name="uni04D4" unicode="&#x4d4;" horiz-adv-x="856" 
d="M505 743l-47 -334h351l-3 -17h-351l-53 -375h361l-3 -17h-378l30 212h-287l-144 -212h-21l519 760h383l-3 -17h-354zM414 229l72 513l-349 -513h277z" />
    <glyph glyph-name="uni04D5" unicode="&#x4d5;" horiz-adv-x="935" 
d="M459 233q-1 -11 -1 -31q0 -90 49 -141.5t133 -51.5q73 0 122.5 36t82.5 106l18 -3q-71 -156 -225 -156q-80 0 -133 45.5t-63 124.5q-31 -80 -105 -125t-157 -45q-70 0 -113.5 32t-43.5 91q0 81 54.5 121t153.5 40h217q7 56 7 71q0 65 -43.5 104.5t-119.5 39.5
q-111 0 -187 -91l-15 9q80 99 205 99q84 0 131 -43.5t47 -117.5q34 73 94.5 117t136.5 44q53 0 95.5 -23t67.5 -67t25 -105q0 -30 -4 -54h-425q-2 -18 -4 -26zM595 462.5q-49 -28.5 -82 -77t-47 -109.5h405q2 24 2 34q0 86 -49 133.5t-123 47.5q-57 0 -106 -28.5zM298.5 35
q56.5 26 95 74t46.5 110l2 14q0 6 2 18l1 8h-217q-88 0 -137 -35t-49 -105q0 -52 39 -81t102 -29q59 0 115.5 26z" />
    <glyph glyph-name="uni04D6" unicode="&#x4d6;" horiz-adv-x="541" 
d="M168 743l-47 -334h373l-3 -17h-373l-53 -375h383l-3 -17h-400l107 760h395l-3 -17h-376zM273.5 910.5q-32.5 39.5 -32.5 109.5h16q0 -65 29 -99.5t85 -34.5q58 0 99 35.5t53 98.5h16q-14 -69 -58 -109t-110 -40q-65 0 -97.5 39.5z" />
    <glyph glyph-name="uni04D7" unicode="&#x4d7;" horiz-adv-x="562" 
d="M66 249q-3 -21 -3 -41q0 -92 53 -145.5t141 -53.5q69 0 123 34.5t89 97.5l18 -2q-37 -71 -96.5 -109t-136.5 -38q-61 0 -108.5 26.5t-74 75t-26.5 113.5q0 80 35 149.5t97.5 110.5t140.5 41q88 0 144 -53t56 -149q0 -27 -4 -57h-448zM201.5 461q-52.5 -30 -87 -81.5
t-46.5 -113.5h429q3 18 3 38q0 91 -50.5 139t-132.5 48q-63 0 -115.5 -30zM247.5 650.5q-32.5 39.5 -32.5 109.5h16q0 -65 29 -99.5t85 -34.5q58 0 99 35.5t53 98.5h16q-14 -69 -58 -109t-110 -40q-65 0 -97.5 39.5z" />
    <glyph glyph-name="uni04D8" unicode="&#x4d8;" horiz-adv-x="842" 
d="M659 726q71 -42 110.5 -116t39.5 -168q0 -121 -57.5 -224.5t-154.5 -164.5t-211 -61q-92 0 -164 42t-112 115.5t-40 164.5q0 35 5 77h713q3 24 3 49q0 90 -36.5 160.5t-104 110.5t-158.5 40q-104 0 -195 -55.5t-146 -149.5l-18 2q57 102 153 161t209 59q93 0 164 -42z
M572 58q86 49 142.5 133t71.5 183h-695q-3 -30 -3 -59q0 -87 37.5 -157t106 -109.5t156.5 -39.5q98 0 184 49z" />
    <glyph glyph-name="uni04D9" unicode="&#x4d9;" horiz-adv-x="563" 
d="M462 450q56 -58 56 -154q0 -81 -35 -151t-97.5 -111.5t-141.5 -41.5q-88 0 -144 53t-56 149q0 37 6 68h448q2 22 2 34q0 89 -51.5 142t-139.5 53q-72 0 -126.5 -34t-88.5 -98l-19 2q38 71 97 109t138 38q96 0 152 -58zM364.5 40q53.5 31 87.5 85t44 120h-431
q-3 -25 -3 -51q0 -90 51 -137.5t132 -47.5q66 0 119.5 31z" />
    <glyph glyph-name="uni04DA" unicode="&#x4da;" horiz-adv-x="842" 
d="M659 726q71 -42 110.5 -116t39.5 -168q0 -121 -57.5 -224.5t-154.5 -164.5t-211 -61q-92 0 -164 42t-112 115.5t-40 164.5q0 35 5 77h713q3 24 3 49q0 90 -36.5 160.5t-104 110.5t-158.5 40q-104 0 -195 -55.5t-146 -149.5l-18 2q57 102 153 161t209 59q93 0 164 -42z
M572 58q86 49 142.5 133t71.5 183h-695q-3 -30 -3 -59q0 -87 37.5 -157t106 -109.5t156.5 -39.5q98 0 184 49zM427 883q-8 8 -8 19t8 19t20 8q11 0 19 -8t8 -19t-8 -19t-19 -8q-12 0 -20 8zM562 883q-8 8 -8 19t8 19t20 8q11 0 19 -8t8 -19t-8 -19t-19 -8q-12 0 -20 8z" />
    <glyph glyph-name="uni04DB" unicode="&#x4db;" horiz-adv-x="563" 
d="M462 450q56 -58 56 -154q0 -81 -35 -151t-97.5 -111.5t-141.5 -41.5q-88 0 -144 53t-56 149q0 37 6 68h448q2 22 2 34q0 89 -51.5 142t-139.5 53q-72 0 -126.5 -34t-88.5 -98l-19 2q38 71 97 109t138 38q96 0 152 -58zM364.5 40q53.5 31 87.5 85t44 120h-431
q-3 -25 -3 -51q0 -90 51 -137.5t132 -47.5q66 0 119.5 31zM239 623q-8 8 -8 19t8 19t20 8q11 0 19 -8t8 -19t-8 -19t-19 -8q-12 0 -20 8zM374 623q-8 8 -8 19t8 19t20 8q11 0 19 -8t8 -19t-8 -19t-19 -8q-12 0 -20 8z" />
    <glyph glyph-name="uni04DC" unicode="&#x4dc;" horiz-adv-x="890" 
d="M641 473l199 -473h-19l-192 459l-172 -189l-38 -270h-18l39 275l-118 186l-321 -461h-21l332 476l-180 284h20l291 -461l65 461h18l-65 -462l418 462h23zM451 883q-8 8 -8 19t8 19t20 8q11 0 19 -8t8 -19t-8 -19t-19 -8q-12 0 -20 8zM586 883q-8 8 -8 19t8 19t20 8
q11 0 19 -8t8 -19t-8 -19t-19 -8q-12 0 -20 8z" />
    <glyph glyph-name="uni04DD" unicode="&#x4dd;" horiz-adv-x="614" 
d="M441 313l128 -313h-19l-122 300l-121 -122l-25 -178h-18l25 181l-87 120l-205 -301h-22l217 315l-134 185h21l214 -296l41 296h18l-41 -296l293 296h24zM277 623q-8 8 -8 19t8 19t20 8q11 0 19 -8t8 -19t-8 -19t-19 -8q-12 0 -20 8zM412 623q-8 8 -8 19t8 19t20 8
q11 0 19 -8t8 -19t-8 -19t-19 -8q-12 0 -20 8z" />
    <glyph glyph-name="uni04DE" unicode="&#x4de;" horiz-adv-x="557" 
d="M482.5 340q33.5 -44 33.5 -111q0 -69 -34 -123t-96.5 -84t-144.5 -30q-105 0 -160.5 47.5t-55.5 122.5q0 15 2 33l18 1q-2 -20 -2 -31q0 -70 50.5 -113t147.5 -43q76 0 134.5 27.5t90.5 77t32 113.5q0 79 -50 122t-149 43h-80l2 17h86q103 0 163 51.5t60 138.5
q0 72 -44.5 112t-135.5 40q-104 0 -165.5 -51t-73.5 -134l-18 1q11 87 77 144t181 57q100 0 148.5 -45.5t48.5 -122.5q0 -76 -45 -129.5t-121 -70.5q67 -16 100.5 -60zM283 883q-8 8 -8 19t8 19t20 8q11 0 19 -8t8 -19t-8 -19t-19 -8q-12 0 -20 8zM418 883q-8 8 -8 19t8 19
t20 8q11 0 19 -8t8 -19t-8 -19t-19 -8q-12 0 -20 8z" />
    <glyph glyph-name="uni04DF" unicode="&#x4df;" horiz-adv-x="400" 
d="M331.5 224q23.5 -29 23.5 -71q0 -71 -50 -116t-147 -45q-76 0 -116.5 32.5t-40.5 84.5q0 6 2 18l17 1q-1 -6 -1 -18q0 -47 36 -74t105 -27q84 0 130.5 39.5t46.5 103.5q0 50 -35 77t-104 27h-50l2 17h52q69 0 112 35.5t43 93.5q0 39 -31 64t-94 25q-66 0 -108.5 -27
t-55.5 -73l-19 1q14 53 60 84.5t124 31.5q72 0 107 -30.5t35 -75.5q0 -50 -30.5 -87t-83.5 -51q47 -11 70.5 -40zM161 623q-8 8 -8 19t8 19t20 8q11 0 19 -8t8 -19t-8 -19t-19 -8q-12 0 -20 8zM296 623q-8 8 -8 19t8 19t20 8q11 0 19 -8t8 -19t-8 -19t-19 -8q-12 0 -20 8z
" />
    <glyph glyph-name="uni04E0" unicode="&#x4e0;" horiz-adv-x="560" 
d="M462 392q57 -47 57 -131q0 -79 -36 -140t-100.5 -95t-147.5 -34q-103 0 -156.5 47.5t-53.5 124.5q0 21 2 32l18 -1q-2 -20 -2 -30q0 -71 49.5 -113.5t143.5 -42.5q78 0 138 32t93.5 89.5t33.5 129.5q0 76 -50 119t-148 43h-47l2 17l298 304h-429l2 17h468l-315 -321h19
q104 0 161 -47z" />
    <glyph glyph-name="uni04E1" unicode="&#x4e1;" horiz-adv-x="451" 
d="M331 166q58 -40 58 -126q0 -70 -30.5 -124.5t-85 -85t-126.5 -30.5q-53 0 -90.5 17.5t-56.5 46t-19 62.5v10l18 -1v-7q0 -48 38.5 -79.5t110.5 -31.5q67 0 117.5 28.5t78 79t27.5 114.5q0 77 -51.5 113.5t-132.5 36.5q-25 0 -64 -3l2 17l279 280h-337l3 17h375l-294 -295
l38 1q84 0 142 -40z" />
    <glyph glyph-name="uni04E2" unicode="&#x4e2;" horiz-adv-x="660" 
d="M652 760l-107 -760h-18l103 729l-567 -729h-18l107 760h18l-103 -729l567 729h18zM296 932h270l-2 -14h-270z" />
    <glyph glyph-name="uni04E3" unicode="&#x4e3;" horiz-adv-x="500" 
d="M465 500l-70 -500h-18l65 468l-389 -468h-18l70 500h18l-65 -468l389 468h18zM178 672h270l-2 -14h-270z" />
    <glyph glyph-name="uni04E4" unicode="&#x4e4;" horiz-adv-x="660" 
d="M652 760l-107 -760h-18l103 729l-567 -729h-18l107 760h18l-103 -729l567 729h18zM340 883q-8 8 -8 19t8 19t20 8q11 0 19 -8t8 -19t-8 -19t-19 -8q-12 0 -20 8zM475 883q-8 8 -8 19t8 19t20 8q11 0 19 -8t8 -19t-8 -19t-19 -8q-12 0 -20 8z" />
    <glyph glyph-name="uni04E5" unicode="&#x4e5;" horiz-adv-x="500" 
d="M465 500l-70 -500h-18l65 468l-389 -468h-18l70 500h18l-65 -468l389 468h18zM222 623q-8 8 -8 19t8 19t20 8q11 0 19 -8t8 -19t-8 -19t-19 -8q-12 0 -20 8zM357 623q-8 8 -8 19t8 19t20 8q11 0 19 -8t8 -19t-8 -19t-19 -8q-12 0 -20 8z" />
    <glyph glyph-name="uni04E6" unicode="&#x4e6;" horiz-adv-x="840" 
d="M217.5 33.5q-70.5 41.5 -109 117.5t-38.5 176q0 116 57 217.5t154.5 162.5t212.5 61q93 0 163.5 -41.5t109.5 -117.5t39 -177q0 -116 -57 -217t-155 -162t-213 -61q-93 0 -163.5 41.5zM585.5 67.5q93.5 58.5 148 156t54.5 207.5q0 96 -36 168.5t-103 112t-157 39.5
q-110 0 -202.5 -59t-147 -156.5t-54.5 -207.5q0 -96 36 -168t102.5 -111.5t155.5 -39.5q110 0 203.5 58.5zM430 883q-8 8 -8 19t8 19t20 8q11 0 19 -8t8 -19t-8 -19t-19 -8q-12 0 -20 8zM565 883q-8 8 -8 19t8 19t20 8q11 0 19 -8t8 -19t-8 -19t-19 -8q-12 0 -20 8z" />
    <glyph glyph-name="uni04E7" unicode="&#x4e7;" horiz-adv-x="580" 
d="M103.5 50.5q-57.5 58.5 -57.5 161.5q0 82 36.5 150t100.5 107t142 39q95 0 152 -58t57 -161q0 -82 -36.5 -150t-100 -107.5t-141.5 -39.5q-95 0 -152.5 58.5zM389 46.5q59 37.5 93 101.5t34 141q0 95 -51.5 148.5t-139.5 53.5q-74 0 -134 -37.5t-93.5 -101.5t-33.5 -140
q0 -96 52 -149.5t140 -53.5q74 0 133 37.5zM258 623q-8 8 -8 19t8 19t20 8q11 0 19 -8t8 -19t-8 -19t-19 -8q-12 0 -20 8zM393 623q-8 8 -8 19t8 19t20 8q11 0 19 -8t8 -19t-8 -19t-19 -8q-12 0 -20 8z" />
    <glyph glyph-name="uni04E8" unicode="&#x4e8;" horiz-adv-x="840" 
d="M657.5 726.5q70.5 -41.5 109.5 -117.5t39 -177q0 -116 -57 -217t-155 -162t-213 -61q-93 0 -163.5 41.5t-109 117.5t-38.5 176q0 116 57 217.5t154.5 162.5t212.5 61q93 0 163.5 -41.5zM307 702.5q-86 -48.5 -142.5 -131t-71.5 -180.5h693q2 26 2 40q0 96 -36 168.5
t-103 112t-157 39.5q-99 0 -185 -48.5zM570 58.5q87 49.5 144 133t70 182.5h-693q-3 -22 -3 -46q0 -96 36 -168t102.5 -111.5t155.5 -39.5q101 0 188 49.5z" />
    <glyph glyph-name="uni04E9" unicode="&#x4e9;" horiz-adv-x="580" 
d="M477 450q57 -58 57 -161q0 -82 -36.5 -150t-100 -107.5t-141.5 -39.5q-95 0 -152.5 58.5t-57.5 161.5q0 82 36.5 150t100.5 107t142 39q95 0 152 -58zM204 461q-55 -30 -90.5 -82.5t-45.5 -117.5h447q1 9 1 28q0 95 -51.5 148.5t-139.5 53.5q-66 0 -121 -30zM377 40
q55 31 91 84.5t45 119.5h-447q-2 -22 -2 -32q0 -96 52 -149.5t140 -53.5q66 0 121 31z" />
    <glyph glyph-name="uni04EA" unicode="&#x4ea;" horiz-adv-x="840" 
d="M657.5 726.5q70.5 -41.5 109.5 -117.5t39 -177q0 -116 -57 -217t-155 -162t-213 -61q-93 0 -163.5 41.5t-109 117.5t-38.5 176q0 116 57 217.5t154.5 162.5t212.5 61q93 0 163.5 -41.5zM307 702.5q-86 -48.5 -142.5 -131t-71.5 -180.5h693q2 26 2 40q0 96 -36 168.5
t-103 112t-157 39.5q-99 0 -185 -48.5zM570 58.5q87 49.5 144 133t70 182.5h-693q-3 -22 -3 -46q0 -96 36 -168t102.5 -111.5t155.5 -39.5q101 0 188 49.5zM430 883q-8 8 -8 19t8 19t20 8q11 0 19 -8t8 -19t-8 -19t-19 -8q-12 0 -20 8zM565 883q-8 8 -8 19t8 19t20 8
q11 0 19 -8t8 -19t-8 -19t-19 -8q-12 0 -20 8z" />
    <glyph glyph-name="uni04EB" unicode="&#x4eb;" horiz-adv-x="580" 
d="M477 450q57 -58 57 -161q0 -82 -36.5 -150t-100 -107.5t-141.5 -39.5q-95 0 -152.5 58.5t-57.5 161.5q0 82 36.5 150t100.5 107t142 39q95 0 152 -58zM204 461q-55 -30 -90.5 -82.5t-45.5 -117.5h447q1 9 1 28q0 95 -51.5 148.5t-139.5 53.5q-66 0 -121 -30zM377 40
q55 31 91 84.5t45 119.5h-447q-2 -22 -2 -32q0 -96 52 -149.5t140 -53.5q66 0 121 31zM257 623q-8 8 -8 19t8 19t20 8q11 0 19 -8t8 -19t-8 -19t-19 -8q-12 0 -20 8zM392 623q-8 8 -8 19t8 19t20 8q11 0 19 -8t8 -19t-8 -19t-19 -8q-12 0 -20 8z" />
    <glyph glyph-name="uni04EC" unicode="&#x4ec;" horiz-adv-x="815" 
d="M631 725.5q71 -42.5 110.5 -119t39.5 -174.5q0 -115 -57 -216.5t-154 -162.5t-211 -61q-77 0 -141 30.5t-107 86t-58 128.5l18 2q24 -104 101 -167t189 -63q99 0 185.5 50t143 134t69.5 181h-494l2 17h494q2 26 2 39q0 94 -36.5 167t-104 113.5t-157.5 40.5
q-110 0 -204.5 -62t-147.5 -165l-19 2q56 110 156 176t218 66q92 0 163 -42.5zM413 883q-8 8 -8 19t8 19t20 8q11 0 19 -8t8 -19t-8 -19t-19 -8q-12 0 -20 8zM548 883q-8 8 -8 19t8 19t20 8q11 0 19 -8t8 -19t-8 -19t-19 -8q-12 0 -20 8z" />
    <glyph glyph-name="uni04ED" unicode="&#x4ed;" horiz-adv-x="563" 
d="M418 481.5q48 -26.5 74 -74.5t26 -111q0 -84 -36 -153.5t-100.5 -110t-145.5 -40.5q-76 0 -132.5 45.5t-68.5 117.5l17 2q12 -66 63.5 -107t121.5 -41q68 0 123.5 31t90.5 84.5t45 119.5h-333l2 17h333q2 22 2 34q0 90 -52.5 143t-140.5 53q-71 0 -133.5 -40.5
t-93.5 -105.5l-18 2q34 73 100.5 117t144.5 44q63 0 111 -26.5zM240 623q-8 8 -8 19t8 19t20 8q11 0 19 -8t8 -19t-8 -19t-19 -8q-12 0 -20 8zM375 623q-8 8 -8 19t8 19t20 8q11 0 19 -8t8 -19t-8 -19t-19 -8q-12 0 -20 8z" />
    <glyph glyph-name="uni04EE" unicode="&#x4ee;" horiz-adv-x="525" 
d="M592 760l-476 -760h-20l182 290l-186 470h19l178 -452l283 452h20zM225 932h270l-2 -14h-270z" />
    <glyph glyph-name="uni04EF" unicode="&#x4ef;" horiz-adv-x="535" 
d="M500 500l-64 -457q-34 -243 -231 -243q-79 0 -120 30t-52 80l18 4q21 -97 156 -97q89 0 142 55.5t69 170.5l13 92q-32 -73 -87.5 -108t-124.5 -35q-72 0 -118.5 39.5t-46.5 119.5q0 19 3 40l43 309h18l-43 -309q-3 -19 -3 -38q0 -70 39.5 -107t109.5 -37q88 0 149 61
t76 173l36 257h18zM192 672h270l-2 -14h-270z" />
    <glyph glyph-name="uni04F0" unicode="&#x4f0;" horiz-adv-x="525" 
d="M592 760l-476 -760h-20l182 290l-186 470h19l178 -452l283 452h20zM269 883q-8 8 -8 19t8 19t20 8q11 0 19 -8t8 -19t-8 -19t-19 -8q-12 0 -20 8zM404 883q-8 8 -8 19t8 19t20 8q11 0 19 -8t8 -19t-8 -19t-19 -8q-12 0 -20 8z" />
    <glyph glyph-name="uni04F1" unicode="&#x4f1;" horiz-adv-x="535" 
d="M500 500l-64 -457q-34 -243 -231 -243q-79 0 -120 30t-52 80l18 4q21 -97 156 -97q89 0 142 55.5t69 170.5l13 92q-32 -73 -87.5 -108t-124.5 -35q-72 0 -118.5 39.5t-46.5 119.5q0 19 3 40l43 309h18l-43 -309q-3 -19 -3 -38q0 -70 39.5 -107t109.5 -37q88 0 149 61
t76 173l36 257h18zM236 623q-8 8 -8 19t8 19t20 8q11 0 19 -8t8 -19t-8 -19t-19 -8q-12 0 -20 8zM371 623q-8 8 -8 19t8 19t20 8q11 0 19 -8t8 -19t-8 -19t-19 -8q-12 0 -20 8z" />
    <glyph glyph-name="uni04F2" unicode="&#x4f2;" horiz-adv-x="525" 
d="M592 760l-476 -760h-20l182 290l-186 470h19l178 -452l283 452h20zM234 852h-15l124 168h22zM414 852h-15l124 168h22z" />
    <glyph glyph-name="uni04F3" unicode="&#x4f3;" horiz-adv-x="535" 
d="M500 500l-64 -457q-34 -243 -231 -243q-79 0 -120 30t-52 80l18 4q21 -97 156 -97q89 0 142 55.5t69 170.5l13 92q-32 -73 -87.5 -108t-124.5 -35q-72 0 -118.5 39.5t-46.5 119.5q0 19 3 40l43 309h18l-43 -309q-3 -19 -3 -38q0 -70 39.5 -107t109.5 -37q88 0 149 61
t76 173l36 257h18zM201 592h-15l124 168h22zM381 592h-15l124 168h22z" />
    <glyph glyph-name="uni04F4" unicode="&#x4f4;" horiz-adv-x="590" 
d="M582 760l-107 -760h-18l44 313h-187q-100 0 -159.5 52.5t-59.5 147.5q0 22 3 46l29 201h18l-29 -201q-3 -22 -3 -44q0 -87 53.5 -136t148.5 -49h188l61 430h18zM296 883q-8 8 -8 19t8 19t20 8q11 0 19 -8t8 -19t-8 -19t-19 -8q-12 0 -20 8zM431 883q-8 8 -8 19t8 19t20 8
q11 0 19 -8t8 -19t-8 -19t-19 -8q-12 0 -20 8z" />
    <glyph glyph-name="uni04F5" unicode="&#x4f5;" horiz-adv-x="451" 
d="M416 500l-70 -500h-18l29 207h-125q-73 0 -117 35.5t-44 101.5q0 19 2 30l18 126h18l-18 -126q-2 -20 -2 -29q0 -58 37.5 -89.5t108.5 -31.5h124l39 276h18zM188 623q-8 8 -8 19t8 19t20 8q11 0 19 -8t8 -19t-8 -19t-19 -8q-12 0 -20 8zM323 623q-8 8 -8 19t8 19t20 8
q11 0 19 -8t8 -19t-8 -19t-19 -8q-12 0 -20 8z" />
    <glyph glyph-name="uni04F6" unicode="&#x4f6;" horiz-adv-x="470" 
d="M514 743h-346l-104 -743h-18l106 760h364zM96 -140h-18l20 140h-52l3 17h69z" />
    <glyph glyph-name="uni04F7" unicode="&#x4f7;" horiz-adv-x="360" 
d="M368 483h-247l-68 -483h-18l70 500h265zM82 -130h-18l19 130h-47l2 17h65z" />
    <glyph glyph-name="uni04F8" unicode="&#x4f8;" horiz-adv-x="760" 
d="M504.5 423q56.5 -57 56.5 -145q0 -80 -37 -143t-102.5 -99t-148.5 -36h-228l107 760h18l-39 -280h209q108 0 164.5 -57zM752 760l-107 -760h-18l107 760h18zM413.5 51q61.5 34 95.5 94t34 133q0 83 -52 134t-151 51h-212l-63 -446h209q78 0 139.5 34zM390 883q-8 8 -8 19
t8 19t20 8q11 0 19 -8t8 -19t-8 -19t-19 -8q-12 0 -20 8zM525 883q-8 8 -8 19t8 19t20 8q11 0 19 -8t8 -19t-8 -19t-19 -8q-12 0 -20 8z" />
    <glyph glyph-name="uni04F9" unicode="&#x4f9;" horiz-adv-x="605" 
d="M361.5 291q42.5 -37 42.5 -99q0 -91 -57 -141.5t-156 -50.5h-156l70 500h18l-24 -172h137q83 0 125.5 -37zM570 500l-70 -500h-18l70 500h18zM334.5 63q51.5 46 51.5 128q0 57 -37.5 88.5t-112.5 31.5h-139l-42 -294h139q89 0 140.5 46zM269 623q-8 8 -8 19t8 19t20 8
q11 0 19 -8t8 -19t-8 -19t-19 -8q-12 0 -20 8zM404 623q-8 8 -8 19t8 19t20 8q11 0 19 -8t8 -19t-8 -19t-19 -8q-12 0 -20 8z" />
    <glyph glyph-name="uni04FC" unicode="&#x4fc;" horiz-adv-x="532" 
d="M461 15q20 -43 20 -82q0 -65 -48 -99t-125 -34l3 17q67 0 109.5 30t42.5 84q0 40 -20 80l-171 358l-281 -369h-21l294 386l-179 374h20l171 -358l272 358h21l-285 -374z" />
    <glyph glyph-name="uni04FD" unicode="&#x4fd;" horiz-adv-x="420" 
d="M326 60q20 -35 29.5 -63t9.5 -53q0 -69 -50 -106.5t-129 -37.5l3 17q73 0 115.5 33.5t42.5 93.5q0 44 -36 106l-109 191l-206 -241h-21l218 257l-138 243h21l130 -228l193 228h21l-206 -243z" />
    <glyph glyph-name="uni0510" unicode="&#x510;" horiz-adv-x="558" 
d="M503.5 721q52.5 -47 52.5 -119q0 -17 -3 -35l-18 -1q3 17 3 31q0 70 -47.5 112t-142.5 42q-67 0 -119.5 -26t-82 -73t-29.5 -108q0 -63 46.5 -99t131.5 -36h86l-3 -17h-80q-75 0 -132.5 -28t-89.5 -79t-32 -118q0 -75 54 -116.5t151 -41.5q98 0 166 48.5t82 138.5l18 -1
q-17 -99 -90.5 -151t-180.5 -52q-68 0 -117 22t-75 61t-26 88q0 89 51.5 153t140.5 84q-56 14 -87.5 51t-31.5 90q0 68 32 119.5t89.5 79.5t131.5 28q99 0 151.5 -47z" />
    <glyph glyph-name="uni0511" unicode="&#x511;" horiz-adv-x="401" 
d="M123.5 457q-42.5 -34 -42.5 -93q0 -42 33.5 -66.5t91.5 -24.5h52l-3 -17h-50q-79 0 -127 -38.5t-48 -105.5q0 -48 36.5 -75.5t105.5 -27.5q68 0 117.5 32t56.5 87l18 -1q-7 -62 -62 -98.5t-130 -36.5q-74 0 -117 32t-43 88q0 58 34.5 99t97.5 54q-38 11 -59.5 38.5
t-21.5 60.5q0 66 48 105t130 39q72 0 110.5 -31.5t40.5 -84.5l-18 -1q-2 47 -36.5 73.5t-100.5 26.5q-71 0 -113.5 -34z" />
    <glyph glyph-name="uni0512" unicode="&#x512;" horiz-adv-x="580" 
d="M529 -70q0 -62 -47 -96t-121 -34v17q66 0 108 29.5t42 83.5q0 22 -10 70l-151 742l-360 -742h-20l370 760h22l157 -761q10 -46 10 -69z" />
    <glyph glyph-name="uni0513" unicode="&#x513;" horiz-adv-x="457" 
d="M407 -58q0 -68 -48.5 -104.5t-128.5 -37.5v17q71 0 115 31.5t44 92.5q0 19 -5 39l-132 505l-263 -485h-19l272 500h22l136 -513q7 -25 7 -45z" />
    <glyph glyph-name="uni051C" unicode="&#x51c;" horiz-adv-x="930" 
d="M987 760l-323 -760h-25l-110 740l-306 -740h-25l-111 760h18l107 -743l307 743h25l109 -743l314 743h20z" />
    </font>
</defs>
</svg>
