<?xml version="1.0" standalone="no"?>
<!DOCTYPE svg PUBLIC "-//W3C//DTD SVG 1.1//EN" "http://www.w3.org/Graphics/SVG/1.1/DTD/svg11.dtd" >
<svg xmlns="http://www.w3.org/2000/svg" xmlns:xlink="http://www.w3.org/1999/xlink" version="1.1">
<metadata>
Created by FontForge 20170731 at Wed Nov 22 21:06:52 2017
 By Aleksey,,,
Copyright (c) 2017 by Andreu Balius. All rights reserved.
</metadata>
<defs>
<font id="SeatBcn-Web-MediumItalic" horiz-adv-x="654" >
  <font-face 
    font-family="Seat Bcn - Web Medium"
    font-weight="500"
    font-style="italic"
    font-stretch="normal"
    units-per-em="1000"
    panose-1="0 0 6 0 0 0 0 0 0 0"
    ascent="760"
    descent="-240"
    x-height="517"
    cap-height="760"
    bbox="-430 -210 1281 1280"
    underline-thickness="50"
    underline-position="-150"
    slope="-8"
    unicode-range="U+000D-FB02"
  />
<missing-glyph horiz-adv-x="700" 
d="M163 705h401v-705h-401v705zM502 62v581h-277v-581h277z" />
    <glyph glyph-name="fi" unicode="fi" horiz-adv-x="614" 
d="M517 0h-129l58 413h-208l-57 -413h-130l57 413h-78l24 104h69l4 29q17 123 80.5 174.5t166.5 51.5q56 0 102.5 -12.5t79.5 -32.5l-42 -86q-64 30 -125 30q-56 0 -89.5 -28t-43.5 -98l-4 -28h337z" />
    <glyph glyph-name="fl" unicode="fl" horiz-adv-x="668" 
d="M621 94l-7 -103q-18 -3 -41 -3q-82 0 -123.5 30t-41.5 99q0 26 6 68l65 473q-45 13 -89 13q-57 0 -90.5 -28t-43.5 -98l-4 -28h118l-15 -104h-117l-57 -413h-130l57 413h-78l24 104h69l4 29q17 124 81 175t169 51q69 0 134.5 -15.5t105.5 -36.5l-73 -530q-4 -21 -4 -40
q0 -32 16 -44t55 -12h10z" />
    <glyph glyph-name="f_f" unicode="ff" horiz-adv-x="696" 
d="M626 650.5q-21 -20.5 -29 -75.5l-8 -58h129l-15 -104h-129l-57 -413h-129l57 413h-206l-58 -413h-130l57 413h-78l24 104h68l10 69q14 100 65 143t132 43q60 0 107 -21l-20 -91q-33 13 -67 13q-37 0 -58 -19.5t-29 -75.5l-9 -61h206l10 69q14 100 64.5 143t131.5 43
q34 0 66 -6.5t49 -15.5l-22 -94q-36 15 -73 15q-38 0 -59 -20.5z" />
    <glyph glyph-name="f_f_i" unicode="ffi" horiz-adv-x="950" 
d="M853 0h-129l58 413h-207l-58 -413h-129l57 413h-206l-58 -413h-130l57 413h-78l24 104h68l10 69q14 100 65 143t132 43q60 0 107 -21l-20 -91q-33 13 -67 13q-37 0 -58 -19.5t-29 -74.5l-9 -62h206l4 29q17 123 80.5 174.5t166.5 51.5q105 0 183 -45l-43 -86
q-64 30 -125 30q-55 0 -88.5 -28t-43.5 -98l-4 -28h336z" />
    <glyph glyph-name="f_f_l" unicode="ffl" horiz-adv-x="1005" 
d="M957 94l-7 -103q-17 -3 -41 -3q-82 0 -123.5 30t-41.5 99q0 26 6 68l65 473q-45 13 -88 13q-57 0 -90.5 -28t-43.5 -98l-4 -28h117l-15 -104h-116l-58 -413h-129l57 413h-206l-58 -413h-130l57 413h-78l24 104h68l10 69q14 100 65 143t132 43q60 0 107 -21l-20 -91
q-33 13 -67 13q-37 0 -58 -19.5t-29 -74.5l-9 -62h206l4 29q17 124 81 175t170 51q69 0 134 -15.5t106 -36.5l-74 -530q-4 -32 -4 -40q0 -32 16 -44t55 -12h10z" />
    <glyph glyph-name="uni04570457.liga" unicode="&#x457;&#x457;" horiz-adv-x="538" 
d="M31.5 638q-18.5 19 -18.5 46t18.5 46t45.5 19q26 0 45.5 -19t19.5 -46q0 -26 -19.5 -45.5t-45.5 -19.5q-27 0 -45.5 19zM198 638.5q-19 19.5 -19 45.5q0 27 19 46t46 19q26 0 44.5 -19t18.5 -46q0 -26 -18.5 -45.5t-44.5 -19.5q-27 0 -46 19.5zM367.5 638
q-18.5 19 -18.5 46t18.5 46t45.5 19q26 0 45.5 -19t19.5 -46q0 -26 -19.5 -45.5t-45.5 -19.5q-27 0 -45.5 19zM534 638.5q-19 19.5 -19 45.5q0 27 19 46t46 19q26 0 44.5 -19t18.5 -46q0 -26 -18.5 -45.5t-44.5 -19.5q-27 0 -46 19.5zM72 517h130l-72 -517h-130zM408 517
h130l-72 -517h-130z" />
    <glyph glyph-name=".notdef" horiz-adv-x="700" 
d="M163 705h401v-705h-401v705zM502 62v581h-277v-581h277z" />
    <glyph glyph-name=".null" horiz-adv-x="600" 
 />
    <glyph glyph-name="nonmarkingreturn" unicode="&#xd;" horiz-adv-x="600" 
 />
    <glyph glyph-name="space" unicode=" " horiz-adv-x="217" 
 />
    <glyph glyph-name="exclam" unicode="!" horiz-adv-x="283" 
d="M146 760h125l-89 -532h-99zM57.5 12q-23.5 24 -23.5 57t23.5 57t57.5 24q33 0 56.5 -24t23.5 -57t-23.5 -57t-56.5 -24q-34 0 -57.5 24z" />
    <glyph glyph-name="quotedbl" unicode="&#x22;" horiz-adv-x="420" 
d="M114 640l17 120h116l-18 -120l-39 -156h-79zM298 640l17 120h116l-18 -120l-39 -156h-79z" />
    <glyph glyph-name="numbersign" unicode="#" horiz-adv-x="838" 
d="M682 479l-75 -189h81l-13 -98h-107l-77 -192h-127l76 192h-158l-77 -192h-128l77 192h-83l14 98h108l75 189h-83l14 97h108l73 184h128l-73 -184h158l73 184h128l-73 -184h81l-13 -97h-107zM554 479h-158l-75 -189h158z" />
    <glyph glyph-name="dollar" unicode="$" horiz-adv-x="741" 
d="M568.5 395.5q40.5 -22.5 64 -60t23.5 -96.5q0 -107 -74 -172t-194 -77l-16 -117h-119l17 120q-97 16 -146.5 74.5t-49.5 145.5l134 10q0 -92 78 -119l34 244q-97 30 -143 78t-46 124q0 96 67 154t181 67l16 110h118l-16 -115q97 -17 143.5 -74.5t46.5 -137.5l-137 -13
q0 91 -69 114l-30 -214l13 -4q64 -19 104.5 -41.5zM286 514q16 -20 52 -36l26 182q-43 -9 -68.5 -33.5t-25.5 -63.5q0 -29 16 -49zM486 142.5q30 31.5 30 78.5q0 38 -20 57.5t-63 33.5l-29 -212q52 11 82 42.5z" />
    <glyph glyph-name="percent" unicode="%" horiz-adv-x="983" 
d="M162 405.5q-40 43.5 -40 124.5q0 68 23.5 122t67 84t100.5 30q66 0 106 -43.5t40 -124.5q0 -69 -23.5 -122.5t-67 -83.5t-100.5 -30q-66 0 -106 43.5zM767 760h137l-661 -760h-136zM336 492q20 45 20 106q0 44 -12.5 63.5t-37.5 19.5q-42 0 -61.5 -45.5t-19.5 -107.5
q0 -42 12.5 -61.5t37.5 -19.5q41 0 61 45zM598 37.5q-40 43.5 -40 124.5q0 68 23 122t66.5 84t100.5 30q66 0 106.5 -43.5t40.5 -124.5q0 -69 -23.5 -122.5t-67 -83.5t-100.5 -30q-66 0 -106 43.5zM772 123q20 44 20 105q0 45 -12.5 65t-37.5 20q-42 0 -61.5 -45.5
t-19.5 -107.5q0 -42 12 -61.5t38 -19.5q41 0 61 44z" />
    <glyph glyph-name="ampersand" unicode="&#x26;" horiz-adv-x="765" 
d="M553 0l-39 52q-91 -64 -210 -64q-109 0 -172 53t-63 142q0 76 43 134t126 97q-31 41 -48 80t-17 82q0 56 26.5 100.5t76 70t116.5 25.5q63 0 106 -21t64 -55.5t21 -74.5q0 -67 -48.5 -124.5t-141.5 -100.5l138 -182q32 52 47 128h110q-22 -123 -93 -213l98 -129h-140z
M320.5 643.5q-24.5 -26.5 -24.5 -69.5q0 -26 11.5 -52t33.5 -57l3 -4q55 30 85 67t30 75q0 29 -19 48t-55 19q-40 0 -64.5 -26.5zM455 128l-164 216q-44 -26 -68 -63.5t-24 -78.5q0 -52 35 -82t97 -30q70 0 124 38z" />
    <glyph glyph-name="quotesingle" unicode="'" horiz-adv-x="236" 
d="M114 640l17 120h116l-18 -120l-39 -156h-79z" />
    <glyph glyph-name="parenleft" unicode="(" horiz-adv-x="386" 
d="M122.5 -46q-45.5 40 -45.5 115q0 15 4 49l78 559q14 104 67.5 149.5t165.5 45.5l-14 -98q-54 0 -74.5 -28t-27.5 -80l-77 -547q-3 -18 -3 -37q0 -34 16 -52t59 -18l-13 -98q-90 0 -135.5 40z" />
    <glyph glyph-name="parenright" unicode=")" horiz-adv-x="386" 
d="M301.5 832q45.5 -40 45.5 -115q0 -15 -4 -49l-78 -559q-14 -104 -67.5 -149.5t-165.5 -45.5l14 98q54 0 74.5 28t27.5 80l77 547q3 18 3 37q0 34 -16 52t-59 18l13 98q90 0 135.5 -40z" />
    <glyph glyph-name="asterisk" unicode="*" horiz-adv-x="596" 
d="M409 509l81 -110l-104 -70l-58 132l-97 -132l-86 70l114 110l-139 32l56 114l125 -60l6 147h119l-34 -147l142 60l22 -114z" />
    <glyph glyph-name="plus" unicode="+" horiz-adv-x="579" 
d="M493 217h-160l-23 -161h-98l23 161h-160l13 97h160l23 161h98l-23 -161h160z" />
    <glyph glyph-name="comma" unicode="," horiz-adv-x="264" 
d="M161 127q24 -23 24 -59q0 -56 -44 -115t-113 -90l-21 34q30 23 49 44.5t30 49.5q-27 5 -44.5 27t-17.5 50q0 35 23.5 58.5t56.5 23.5t57 -23z" />
    <glyph glyph-name="hyphen" unicode="-" horiz-adv-x="443" 
d="M68 316h322l-13 -103h-323z" />
    <glyph glyph-name="period" unicode="." horiz-adv-x="263" 
d="M47.5 12q-23.5 24 -23.5 57t23.5 57t57.5 24q33 0 56.5 -24t23.5 -57t-23.5 -57t-56.5 -24q-34 0 -57.5 24z" />
    <glyph glyph-name="slash" unicode="/" horiz-adv-x="491" 
d="M374 760h138l-360 -760h-138z" />
    <glyph glyph-name="zero" unicode="0" horiz-adv-x="728" 
d="M187 25.5q-59 37.5 -90.5 105t-31.5 155.5q0 139 44 249.5t127.5 173.5t198.5 63q80 0 139.5 -37.5t91 -105t31.5 -155.5q0 -139 -44 -249.5t-128 -173.5t-199 -63q-80 0 -139 37.5zM461 158.5q49 50.5 73.5 131t24.5 170.5q0 93 -36.5 142.5t-103.5 49.5
q-70 0 -118.5 -50t-73 -131t-24.5 -171q0 -93 36.5 -142.5t102.5 -49.5q70 0 119 50.5z" />
    <glyph glyph-name="one" unicode="1" horiz-adv-x="424" 
d="M378 761l-107 -761h-134l81 572q-55 -11 -134 -11l14 105q77 0 118 21t61 74h101z" />
    <glyph glyph-name="two" unicode="2" horiz-adv-x="606" 
d="M164 112h367l-16 -112h-513l8 58q17 115 65.5 191t156.5 131l122 64q54 28 81.5 61.5t27.5 77.5q0 37 -27 57.5t-77 20.5q-52 0 -88.5 -25t-50.5 -63l-133 9q31 89 106 139.5t183 50.5q73 0 124 -24.5t76 -65t25 -88.5q0 -86 -52.5 -145.5t-151.5 -109.5l-99 -53
q-118 -61 -134 -174z" />
    <glyph glyph-name="three" unicode="3" horiz-adv-x="629" 
d="M546.5 340q28.5 -44 28.5 -103q0 -77 -35.5 -133t-101 -86t-151.5 -30q-106 0 -173.5 54.5t-78.5 148.5l132 9q8 -52 43.5 -74.5t85.5 -22.5q66 0 105 35.5t39 97.5q0 55 -37.5 84t-113.5 29h-59l13 101h50q76 0 122 34.5t46 95.5q0 37 -24.5 59t-74.5 22
q-48 0 -83.5 -23.5t-53.5 -64.5l-133 9q34 89 107 139.5t180 50.5q68 0 117.5 -23t75 -62.5t25.5 -88.5q0 -63 -35 -112t-97 -79q53 -23 81.5 -67z" />
    <glyph glyph-name="four" unicode="4" horiz-adv-x="665" 
d="M642 169h-119l-24 -169h-132l24 169h-356l15 106l190 485h136l-193 -485h222l34 242h132l-34 -242h121z" />
    <glyph glyph-name="five" unicode="5" horiz-adv-x="635" 
d="M491 480q51 -29 76 -78.5t25 -111.5q0 -90 -39 -158.5t-109.5 -106t-163.5 -37.5q-102 0 -170 54t-77 147l131 10q3 -53 39 -77.5t84 -24.5q76 0 123.5 50.5t47.5 129.5q0 64 -36 96.5t-97 32.5q-42 0 -82 -16t-68 -38l-96 24l54 384h466l-16 -108h-336l-25 -177
q64 34 144 34q74 0 125 -29z" />
    <glyph glyph-name="six" unicode="6" horiz-adv-x="682" 
d="M580 451q59 -58 59 -153q0 -94 -43 -164.5t-116 -108t-161 -37.5q-121 0 -190 71.5t-69 203.5q0 29 5 74q24 204 117.5 319.5t250.5 115.5q89 0 150.5 -46t76.5 -133l-131 -9q-11 43 -40.5 62t-71.5 19q-80 0 -131 -65.5t-74 -172.5q40 40 92.5 61t111.5 21
q105 0 164 -58zM416 120.5q40 23.5 64.5 65.5t24.5 93q0 58 -34 92.5t-97 34.5q-48 0 -88.5 -23t-64.5 -63.5t-24 -89.5q0 -60 36.5 -96.5t97.5 -36.5q45 0 85 23.5z" />
    <glyph glyph-name="seven" unicode="7" horiz-adv-x="552" 
d="M629 760l-498 -760h-143l430 651h-349l15 109h545z" />
    <glyph glyph-name="eight" unicode="8" horiz-adv-x="662" 
d="M582.5 332q30.5 -41 30.5 -99q0 -69 -37.5 -124.5t-109.5 -88t-173 -32.5q-82 0 -140.5 26t-88 70t-29.5 99q0 75 46.5 132t124.5 89q-87 61 -87 156q0 55 31.5 103.5t95.5 78.5t157 30q80 0 134.5 -22.5t81.5 -61t27 -85.5q0 -64 -42 -114.5t-112 -84.5q60 -31 90.5 -72
zM291.5 642.5q-37.5 -26.5 -37.5 -77.5q0 -34 23 -59.5t83 -48.5l40 -15q57 31 84 65.5t27 75.5t-32 63.5t-87 22.5q-63 0 -100.5 -26.5zM392.5 112q39.5 18 62.5 48.5t23 65.5q0 66 -107 106l-75 29q-60 -29 -92.5 -69.5t-32.5 -91.5q0 -50 37 -78t99 -28q46 0 85.5 18z
" />
    <glyph glyph-name="nine" unicode="9" horiz-adv-x="682" 
d="M587 699.5q69 -72.5 69 -204.5q0 -44 -4 -72q-23 -209 -113 -322t-249 -113q-89 0 -155.5 43.5t-84.5 135.5l133 9q10 -43 41 -62t74 -19q82 0 132.5 63.5t73.5 173.5q-39 -39 -92 -60t-111 -21q-70 0 -120.5 28.5t-76.5 78t-26 110.5q0 92 41.5 161t115 106t165.5 37
q118 0 187 -72.5zM430 377q41 23 64.5 63.5t23.5 88.5q0 60 -36 97t-95 37q-47 0 -87 -22t-64 -63t-24 -96q0 -59 33.5 -93.5t93.5 -34.5q50 0 91 23z" />
    <glyph glyph-name="colon" unicode=":" horiz-adv-x="264" 
d="M48.5 12q-23.5 24 -23.5 57t23.5 57t57.5 24q33 0 56.5 -24t23.5 -57t-23.5 -57t-56.5 -24q-34 0 -57.5 24zM96.5 354q-23.5 24 -23.5 57t23.5 57t57.5 24q33 0 56.5 -24t23.5 -57t-23.5 -57t-56.5 -24q-34 0 -57.5 24z" />
    <glyph glyph-name="semicolon" unicode=";" horiz-adv-x="265" 
d="M162 127q24 -23 24 -59q0 -56 -44 -115t-113 -90l-21 34q30 23 49 44.5t30 49.5q-27 5 -44.5 27t-17.5 50q0 35 23.5 58.5t56.5 23.5t57 -23zM96.5 354q-23.5 24 -23.5 57t23.5 57t57.5 24q33 0 56.5 -24t23.5 -57t-23.5 -57t-56.5 -24q-34 0 -57.5 24z" />
    <glyph glyph-name="less" unicode="&#x3c;" horiz-adv-x="569" 
d="M512 419l-332 -150l289 -157l-17 -115l-378 217l16 112l437 213z" />
    <glyph glyph-name="equal" unicode="=" horiz-adv-x="579" 
d="M103 417h418l-14 -97h-418zM74 211h418l-14 -98h-418z" />
    <glyph glyph-name="greater" unicode="&#x3e;" horiz-adv-x="569" 
d="M60 117l332 150l-289 157l17 115l378 -217l-16 -112l-437 -213z" />
    <glyph glyph-name="question" unicode="?" horiz-adv-x="607" 
d="M207 253q8 54 22 89.5t43.5 64.5t82.5 55l36 17q71 36 71 100q0 40 -27 60t-72 20q-90 0 -149 -74l-104 49q98 138 268 138q104 0 160.5 -49.5t56.5 -130.5q0 -65 -36 -112.5t-105 -82.5l-39 -20q-41 -22 -58.5 -47.5t-24.5 -67.5l-5 -37h-124zM198.5 12
q-23.5 24 -23.5 57t23.5 57t57.5 24q33 0 56.5 -24t23.5 -57t-23.5 -57t-56.5 -24q-34 0 -57.5 24z" />
    <glyph glyph-name="at" unicode="@" horiz-adv-x="1087" 
d="M834.5 726.5q89.5 -45.5 139.5 -125.5t50 -181q0 -89 -30 -165t-86 -121.5t-131 -45.5q-55 0 -91.5 25t-46.5 68q-72 -93 -186 -93q-45 0 -81.5 21t-57.5 59t-21 87q0 76 38 143.5t100 108t129 40.5q83 0 124 -63l13 53h121l-67 -257q-7 -24 -7 -36q0 -25 16 -39.5
t40 -14.5q35 0 60.5 34t39 84.5t13.5 98.5q0 81 -37 142t-103.5 93.5t-152.5 32.5q-118 0 -216 -61t-155 -162.5t-57 -217.5q0 -84 36 -147t103.5 -96.5t159.5 -33.5q57 0 107 12t102 36l19 -91q-67 -29 -126 -42.5t-127 -13.5q-115 0 -202.5 46.5t-135.5 129.5t-48 188
q0 149 73 275.5t199.5 200.5t278.5 74q114 0 203.5 -45.5zM575 211q35 24 56 63.5t21 83.5q0 41 -22.5 66.5t-61.5 25.5q-38 0 -74 -23t-58 -62t-22 -83q0 -42 23.5 -68.5t64.5 -26.5q38 0 73 24z" />
    <glyph glyph-name="A" unicode="A" 
d="M457 123h-297l-53 -123h-140l354 760h152l141 -760h-138zM441 226l-62 404l-174 -404h236z" />
    <glyph glyph-name="B" unicode="B" horiz-adv-x="619" 
d="M561.5 339.5q25.5 -40.5 25.5 -94.5q0 -72 -33.5 -127.5t-97.5 -86.5t-152 -31h-276l107 760h258q104 0 160 -47t56 -121q0 -62 -30.5 -110.5t-89.5 -78.5q47 -23 72.5 -63.5zM251 654l-29 -210h108q69 0 107 36.5t38 91.5q0 38 -26 60t-80 22h-118zM420.5 145.5
q36.5 38.5 36.5 102.5q0 44 -30 72t-86 28h-133l-34 -241h134q76 0 112.5 38.5z" />
    <glyph glyph-name="C" unicode="C" horiz-adv-x="827" 
d="M218 30.5q-77 42.5 -119.5 120.5t-42.5 182q0 119 56 219.5t154.5 160t219.5 59.5q93 0 165 -35t115.5 -98t55.5 -145l-139 -12q-15 81 -67.5 125.5t-133.5 44.5q-80 0 -146 -43t-104 -116t-38 -157q0 -104 56.5 -165t150.5 -61q82 0 150 46.5t104 123.5l135 -13
q-50 -127 -154.5 -203t-240.5 -76q-100 0 -177 42.5z" />
    <glyph glyph-name="D" unicode="D" horiz-adv-x="768" 
d="M584 718q78 -42 121 -115.5t43 -164.5q0 -127 -57.5 -226.5t-159 -155.5t-227.5 -56h-276l107 760h270q101 0 179 -42zM463.5 153q69.5 41 108 112.5t38.5 159.5q0 105 -62.5 164t-168.5 59h-126l-75 -536h126q90 0 159.5 41z" />
    <glyph glyph-name="E" unicode="E" horiz-adv-x="556" 
d="M253 648l-28 -198h296l-15 -110h-296l-32 -228h306l-15 -112h-441l107 760h437l-16 -112h-303z" />
    <glyph glyph-name="F" unicode="F" horiz-adv-x="521" 
d="M253 648l-28 -198h278l-15 -109h-278l-48 -341h-134l107 760h418l-16 -112h-284z" />
    <glyph glyph-name="G" unicode="G" horiz-adv-x="815" 
d="M411 414h364l-44 -318q-65 -48 -147.5 -78t-179.5 -30q-109 0 -187.5 42t-120 119t-41.5 179q0 122 55 223.5t153 161t222 59.5q87 0 153 -31.5t107 -83.5t57 -114l-142 -13q-16 50 -63.5 86.5t-123.5 36.5q-83 0 -147.5 -44.5t-99.5 -118.5t-35 -158q0 -109 59.5 -168.5
t171.5 -59.5q106 0 191 51l21 157h-237z" />
    <glyph glyph-name="H" unicode="H" horiz-adv-x="692" 
d="M698 760l-106 -760h-134l48 338h-296l-48 -338h-134l107 760h134l-44 -310h296l44 310h133z" />
    <glyph glyph-name="I" unicode="I" horiz-adv-x="262" 
d="M135 760h134l-107 -760h-134z" />
    <glyph glyph-name="J" unicode="J" horiz-adv-x="609" 
d="M93.5 51q-64.5 63 -64.5 177l133 9q0 -64 27.5 -95.5t79.5 -31.5q124 0 147 156l70 494h133l-69 -493q-20 -145 -92.5 -212t-193.5 -67q-106 0 -170.5 63z" />
    <glyph glyph-name="K" unicode="K" horiz-adv-x="638" 
d="M403 440l194 -440h-142l-143 338l-122 -136l-28 -202h-134l107 760h134l-52 -369l319 369h153z" />
    <glyph glyph-name="L" unicode="L" horiz-adv-x="502" 
d="M461 112l-16 -112h-417l107 760h134l-91 -648h283z" />
    <glyph glyph-name="M" unicode="M" horiz-adv-x="882" 
d="M840 760l-34 -760h-129l30 568l-262 -568h-78l-105 571l-129 -571h-129l179 760h145l103 -574l261 574h148z" />
    <glyph glyph-name="N" unicode="N" horiz-adv-x="695" 
d="M701 760l-106 -760h-132l-223 568l-80 -568h-132l107 760h132l223 -566l79 566h132z" />
    <glyph glyph-name="O" unicode="O" horiz-adv-x="848" 
d="M216.5 31q-76.5 43 -118.5 121.5t-42 181.5q0 123 58 223t157.5 157.5t217.5 57.5q101 0 177.5 -43t118.5 -121.5t42 -181.5q0 -123 -58 -223t-157.5 -157.5t-217.5 -57.5q-101 0 -177.5 43zM544.5 151.5q66.5 42.5 105.5 115t39 158.5q0 104 -56 165t-150 61
q-78 0 -144.5 -42.5t-105.5 -115t-39 -158.5q0 -104 56 -165t150 -61q78 0 144.5 42.5z" />
    <glyph glyph-name="P" unicode="P" horiz-adv-x="649" 
d="M583 701q65 -59 65 -168q0 -89 -38 -158t-108.5 -108t-165.5 -39h-142l-32 -228h-134l107 760h261q122 0 187 -59zM465 390q47 53 47 133q0 64 -34 96t-111 32h-113l-45 -314h122q87 0 134 53z" />
    <glyph glyph-name="Q" unicode="Q" horiz-adv-x="848" 
d="M782.5 229q-44.5 -90 -122.5 -151l87 -145l-115 -76l-93 155q-72 -24 -145 -24q-101 0 -177.5 43t-118.5 121.5t-42 181.5q0 123 58 223t157.5 157.5t217.5 57.5q101 0 177.5 -43t118.5 -121.5t42 -181.5q0 -107 -44.5 -197zM475 120l-112 188l117 71l113 -189
q45 44 70.5 105t25.5 130q0 104 -56 165t-150 61q-78 0 -144.5 -42.5t-105.5 -115t-39 -158.5q0 -104 56 -165t150 -61q37 0 75 11z" />
    <glyph glyph-name="R" unicode="R" horiz-adv-x="652" 
d="M604 366.5q-44 -72.5 -122 -107.5l99 -259h-141l-84 229q-8 -1 -24 -1h-138l-32 -228h-134l107 760h261q122 0 187 -59t65 -168q0 -94 -44 -166.5zM209 337h122q87 0 134.5 53t47.5 133q0 63 -34.5 95.5t-111.5 32.5h-113z" />
    <glyph glyph-name="S" unicode="S" horiz-adv-x="666" 
d="M102.5 49.5q-67.5 61.5 -67.5 163.5l134 10q0 -72 41.5 -100t102.5 -28q73 0 118.5 34t45.5 92q0 30 -13 48t-34 28.5t-60 22.5l-86 27q-99 30 -145.5 78.5t-46.5 124.5q0 104 78 163t210 59q136 0 202 -61t66 -157l-137 -13q0 62 -32.5 93t-101.5 31q-64 0 -105 -26
t-41 -76q0 -37 26 -59.5t87 -41.5l81 -25q64 -19 104.5 -41.5t64 -60t23.5 -96.5q0 -79 -41 -135.5t-112.5 -86t-161.5 -29.5q-132 0 -199.5 61.5z" />
    <glyph glyph-name="T" unicode="T" horiz-adv-x="608" 
d="M639 648h-214l-90 -648h-135l91 648h-213l16 112h561z" />
    <glyph glyph-name="U" unicode="U" horiz-adv-x="704" 
d="M131 53q-70 65 -70 181q0 28 5 70l65 456h134l-66 -462q-4 -28 -4 -52q0 -66 35.5 -101t101.5 -35q76 0 123 47t60 139l66 464h134l-65 -458q-23 -164 -101.5 -239t-228.5 -75q-119 0 -189 65z" />
    <glyph glyph-name="V" unicode="V" 
d="M721 760l-357 -760h-147l-143 760h136l97 -626l271 626h143z" />
    <glyph glyph-name="W" unicode="W" horiz-adv-x="997" 
d="M1054 760l-305 -760h-140l-68 563l-224 -563h-140l-93 760h137l49 -616l241 616h117l64 -619l221 619h141z" />
    <glyph glyph-name="X" unicode="X" horiz-adv-x="637" 
d="M407 389l190 -389h-139l-131 281l-211 -281h-149l303 392l-179 368h139l120 -265l195 265h148z" />
    <glyph glyph-name="Y" unicode="Y" horiz-adv-x="606" 
d="M682 760l-490 -760h-141l205 317l-182 443h140l119 -322l208 322h141z" />
    <glyph glyph-name="Z" unicode="Z" horiz-adv-x="621" 
d="M210 111h354l-16 -111h-559l457 649h-331l16 111h535z" />
    <glyph glyph-name="bracketleft" unicode="[" horiz-adv-x="429" 
d="M291 774l-105 -762h127l-12 -98h-247l132 958h243l-13 -98h-125z" />
    <glyph glyph-name="backslash" unicode="\" horiz-adv-x="704" 
d="M258 760h-138l360 -760h138z" />
    <glyph glyph-name="bracketright" unicode="]" horiz-adv-x="429" 
d="M176 12l105 762h-127l12 98h247l-132 -958h-243l13 98h125z" />
    <glyph glyph-name="asciicircum" unicode="^" horiz-adv-x="539" 
d="M363 397l-50 152l-95 -152h-119l162 232h125l92 -232h-115z" />
    <glyph glyph-name="underscore" unicode="_" horiz-adv-x="611" 
d="M-16 -71h550l-13 -98h-550z" />
    <glyph glyph-name="grave" unicode="`" horiz-adv-x="362" 
d="M264 760l94 -171h-88l-149 171h143z" />
    <glyph glyph-name="a" unicode="a" horiz-adv-x="647" 
d="M624 517l-72 -517h-119l3 85q-33 -43 -81.5 -70t-107.5 -27q-58 0 -105.5 28.5t-75 81.5t-27.5 124q0 88 37 158t100 109t138 39q61 0 104.5 -27t64.5 -72l12 88h129zM379 121q40 26 63 69.5t23 95.5q0 62 -32.5 98.5t-90.5 36.5q-45 0 -84.5 -23.5t-63 -66.5t-23.5 -99
q0 -64 33 -100.5t88 -36.5q47 0 87 26z" />
    <glyph glyph-name="b" unicode="b" horiz-adv-x="648" 
d="M511 499.5q47 -28.5 73 -79.5t26 -117q0 -91 -38 -163t-102 -112t-141 -40q-59 0 -101 25t-64 70l-20 -83h-120l107 760h130l-47 -329q34 46 83 71.5t107 25.5q60 0 107 -28.5zM392 119q39 24 62 67.5t23 99.5q0 65 -33 100t-89 35q-48 0 -87.5 -25.5t-62 -69
t-22.5 -94.5q0 -62 33.5 -99.5t91.5 -37.5q45 0 84 24z" />
    <glyph glyph-name="c" unicode="c" horiz-adv-x="607" 
d="M152 18q-54 30 -83.5 82.5t-29.5 117.5q0 93 40 163.5t110 108.5t158 38q98 0 160 -50.5t74 -136.5l-129 -10q-8 44 -38 67t-73 23q-51 0 -90.5 -25t-60.5 -68t-21 -97q0 -63 32.5 -99.5t89.5 -36.5q46 0 85.5 25.5t59.5 71.5l123 -11q-29 -89 -102 -141t-180 -52
q-71 0 -125 30z" />
    <glyph glyph-name="d" unicode="d" horiz-adv-x="649" 
d="M659 760l-106 -760h-120l4 87q-33 -44 -81.5 -71.5t-106.5 -27.5q-59 0 -106.5 28t-75.5 81t-28 125q0 88 37 158t100 109t138 39q61 0 104.5 -26.5t64.5 -71.5l46 330h130zM379.5 120.5q39.5 25.5 62.5 69.5t23 96q0 62 -32.5 98.5t-90.5 36.5q-45 0 -84 -23.5
t-62.5 -66.5t-23.5 -99q0 -64 32.5 -100.5t87.5 -36.5q48 0 87.5 25.5z" />
    <glyph glyph-name="e" unicode="e" horiz-adv-x="617" 
d="M168 220v-4q0 -61 33.5 -96t84.5 -35q49 0 85 21t58 57l128 -12q-42 -80 -113.5 -121.5t-166.5 -41.5q-72 0 -126 31t-83 84t-29 116q0 90 39 160.5t108.5 109.5t158.5 39q75 0 128 -29.5t80 -79.5t27 -113q0 -36 -9 -86h-403zM240 396.5q-43 -34.5 -61 -96.5h273v1
q0 63 -29 96.5t-82 33.5q-58 0 -101 -34.5z" />
    <glyph glyph-name="f" unicode="f" horiz-adv-x="360" 
d="M290 650.5q-21 -19.5 -29 -75.5l-8 -58h129l-15 -104h-129l-57 -413h-130l57 413h-78l24 104h68l10 69q14 100 65 143t133 43q33 0 64.5 -6.5t49.5 -15.5l-21 -93q-31 13 -74 13q-38 0 -59 -19.5z" />
    <glyph glyph-name="g" unicode="g" horiz-adv-x="648" 
d="M624 517l-64 -460q-19 -133 -92 -200t-203 -67q-93 0 -153.5 36.5t-77.5 97.5l132 17q24 -59 103 -59q136 0 159 161l6 43q-32 -41 -80 -66.5t-106 -25.5q-59 0 -106.5 27.5t-75 79.5t-27.5 122q0 88 37 157.5t100.5 108.5t140.5 39q60 0 103 -27.5t63 -73.5l22 90h119z
M379.5 122.5q39.5 25.5 62.5 69t23 95.5q0 59 -33.5 96.5t-89.5 37.5q-46 0 -85.5 -23t-62.5 -65.5t-23 -97.5q0 -65 32 -101.5t91 -36.5q46 0 85.5 25.5z" />
    <glyph glyph-name="h" unicode="h" horiz-adv-x="602" 
d="M518.5 482q40.5 -46 40.5 -118q0 -23 -5 -55l-43 -309h-130l41 295q5 35 5 45q0 44 -21 65.5t-66 21.5q-60 0 -97 -41.5t-49 -100.5l-40 -285h-130l107 760h130l-46 -325q34 46 81 69.5t102 23.5q80 0 120.5 -46z" />
    <glyph glyph-name="i" unicode="i" horiz-adv-x="253" 
d="M128 627q-24 24 -24 58t24 58.5t58 24.5t58 -24.5t24 -58.5t-24 -58t-58 -24t-58 24zM97 517h130l-72 -517h-130z" />
    <glyph glyph-name="j" unicode="j" horiz-adv-x="269" 
d="M144 627q-24 24 -24 58t24 58.5t58 24.5t58 -24t24 -59q0 -34 -24 -58t-58 -24t-58 24zM-134 -194l23 100q37 -10 71 -10q39 0 55.5 20.5t24.5 74.5l74 526h129l-77 -548q-14 -96 -61.5 -137.5t-128.5 -41.5q-64 0 -110 16z" />
    <glyph glyph-name="k" unicode="k" horiz-adv-x="534" 
d="M338 320l165 -320h-131l-122 238l-73 -67l-24 -171h-129l107 760h128l-60 -433l196 190h156z" />
    <glyph glyph-name="l" unicode="l" horiz-adv-x="304" 
d="M85 18.5q-41 30.5 -41 101.5q0 21 6 65l81 575h129l-80 -570q-4 -21 -4 -40q0 -32 16 -44t55 -12h10l-7 -103q-18 -3 -41 -3q-83 0 -124 30.5z" />
    <glyph glyph-name="m" unicode="m" horiz-adv-x="897" 
d="M812 486.5q42 -41.5 42 -119.5q0 -23 -3 -46l-44 -321h-130l41 296q4 26 4 47q0 84 -74 84q-58 0 -90 -47t-40 -110h-1l-37 -270h-130l42 296q1 7 2.5 22.5t1.5 24.5q0 84 -75 84q-56 0 -87 -43.5t-41 -102.5l-39 -281h-130l72 517h117v-80q30 44 72 67.5t92 23.5
q58 0 96.5 -30.5t50.5 -81.5q31 54 77 83t100 29q69 0 111 -41.5z" />
    <glyph glyph-name="n" unicode="n" horiz-adv-x="602" 
d="M518 482q41 -46 41 -118q0 -23 -5 -55l-43 -309h-130l41 295q4 28 4 45q0 45 -20.5 66t-65.5 21q-62 0 -99.5 -44t-47.5 -106l-39 -277h-130l72 517h117v-85q33 47 81 71.5t104 24.5q79 0 120 -46z" />
    <glyph glyph-name="o" unicode="o" horiz-adv-x="630" 
d="M155 17.5q-55 29.5 -85.5 82t-30.5 120.5q0 92 39.5 162t110 108t161.5 38q71 0 125.5 -29t85 -82t30.5 -121q0 -92 -39.5 -162t-110 -108t-161.5 -38q-70 0 -125 29.5zM375.5 119q39.5 24 62.5 68t23 100q0 64 -32.5 99t-86.5 35q-47 0 -86.5 -24t-63 -67.5t-23.5 -99.5
q0 -65 32.5 -100t87.5 -35q47 0 86.5 24z" />
    <glyph glyph-name="p" unicode="p" horiz-adv-x="648" 
d="M511.5 499.5q46.5 -28.5 72.5 -79.5t26 -117q0 -91 -38 -163t-102.5 -112t-141.5 -40q-57 0 -98.5 24.5t-64.5 67.5l-39 -278h-130l100 715h120l-4 -91q33 49 83 75.5t111 26.5q59 0 105.5 -28.5zM392.5 119q38.5 24 61.5 67.5t23 100.5q0 63 -33 98.5t-89 35.5
q-49 0 -88 -25.5t-61.5 -69t-22.5 -95.5q0 -62 34 -99t93 -37q44 0 82.5 24z" />
    <glyph glyph-name="q" unicode="q" horiz-adv-x="645" 
d="M625 517l-101 -715h-130l40 280q-33 -42 -82 -68t-104 -26q-59 0 -106.5 28.5t-75 81.5t-27.5 123q0 87 36.5 157.5t99.5 110t139 39.5q62 0 105.5 -27.5t63.5 -73.5l22 90h120zM379 121q40 26 63 69.5t23 95.5q0 62 -32.5 98.5t-90.5 36.5q-45 0 -84.5 -23.5t-63 -66.5
t-23.5 -99q0 -64 33 -100.5t88 -36.5q47 0 87 26z" />
    <glyph glyph-name="r" unicode="r" horiz-adv-x="395" 
d="M416 525l-26 -124q-26 6 -55 6q-59 0 -95.5 -41t-50.5 -109l-36 -257h-130l73 517h115l1 -93q33 51 76 77.5t90 26.5q26 0 38 -3z" />
    <glyph glyph-name="s" unicode="s" horiz-adv-x="523" 
d="M69 30.5q-55 42.5 -57 115.5l139 12q0 -39 19.5 -58.5t63.5 -19.5q48 0 76.5 17t28.5 55q0 25 -21.5 37.5t-78.5 31.5l-36 12q-75 24 -113 54t-38 84q0 78 64.5 117.5t171.5 39.5q93 0 148 -39t58 -105l-135 -11q-1 28 -20 46.5t-61 18.5q-41 0 -64.5 -14.5t-23.5 -40.5
q0 -16 17.5 -27t59.5 -25l46 -13q56 -17 90 -34t54.5 -44.5t20.5 -70.5q0 -90 -66.5 -135.5t-183.5 -45.5q-104 0 -159 42.5z" />
    <glyph glyph-name="t" unicode="t" horiz-adv-x="386" 
d="M206 181q-3 -22 -3 -36q0 -29 13 -40.5t43 -11.5t67 7l-6 -100q-57 -12 -106 -12q-66 0 -104.5 31t-38.5 101q0 16 4 50l34 243h-79l21 104h73l18 126h129l-18 -126h123l-15 -104h-122z" />
    <glyph glyph-name="u" unicode="u" horiz-adv-x="593" 
d="M570 517l-72 -517h-117l2 86q-34 -47 -81 -72.5t-102 -25.5q-75 0 -116 44.5t-41 111.5q0 24 3 48l45 325h130l-42 -304q-3 -22 -3 -42q0 -43 22.5 -62t65.5 -19q59 0 93 44.5t44 103.5l39 279h130z" />
    <glyph glyph-name="v" unicode="v" horiz-adv-x="546" 
d="M586 517l-279 -517h-139l-135 517h135l84 -406l193 406h141z" />
    <glyph glyph-name="w" unicode="w" horiz-adv-x="812" 
d="M842 517l-235 -517h-132l-56 361l-153 -361h-132l-91 517h133l46 -389l163 389h111l55 -389l153 389h138z" />
    <glyph glyph-name="x" unicode="x" horiz-adv-x="519" 
d="M331 263l151 -263h-135l-94 181l-148 -181h-141l230 268l-144 249h136l86 -166l135 166h141z" />
    <glyph glyph-name="y" unicode="y" horiz-adv-x="594" 
d="M570 517l-66 -475q-17 -124 -88.5 -188t-188.5 -64q-90 0 -145 36.5t-67 98.5l130 16q5 -29 27.5 -44t61.5 -15q61 0 94.5 39t44.5 117l7 50q-33 -45 -79 -69t-100 -24q-75 0 -116 44.5t-41 111.5q0 27 4 48l43 318h130l-41 -297q-3 -22 -3 -42q0 -44 22 -62.5t66 -18.5
q57 0 91 42.5t45 100.5l39 277h130z" />
    <glyph glyph-name="z" unicode="z" horiz-adv-x="509" 
d="M200 103h255l-15 -103h-456l320 414h-235l21 103h432z" />
    <glyph glyph-name="braceleft" unicode="{" horiz-adv-x="473" 
d="M477 872l-12 -94q-49 0 -71.5 -23t-29.5 -68l-22 -160q-7 -46 -30 -80t-57 -54q52 -34 52 -105q0 -14 -3 -38l-22 -151q-1 -8 -1 -22q0 -35 16.5 -52t58.5 -17l-12 -94h-21q-72 0 -116.5 40.5t-44.5 110.5q0 25 4 53l20 135q2 26 2 33q0 29 -17 45.5t-58 16.5l3 18h-1
l10 72q49 0 70.5 22.5t27.5 63.5l22 155q15 103 61.5 148t138.5 45h32z" />
    <glyph glyph-name="bar" unicode="|" horiz-adv-x="374" 
d="M191 760h133l-135 -958h-133z" />
    <glyph glyph-name="braceright" unicode="}" horiz-adv-x="473" 
d="M34 -86l12 94q49 0 71.5 23t29.5 68l22 160q7 46 30 80t57 54q-52 34 -52 105q0 14 3 38l22 151q1 8 1 22q0 35 -16.5 52t-58.5 17l12 94h21q72 0 116.5 -40.5t44.5 -110.5q0 -25 -4 -53l-20 -135q-2 -26 -2 -33q0 -29 17 -45.5t58 -16.5l-3 -18h1l-10 -72
q-49 0 -70.5 -22.5t-27.5 -63.5l-22 -155q-15 -103 -61.5 -148t-138.5 -45h-32z" />
    <glyph glyph-name="asciitilde" unicode="~" horiz-adv-x="600" 
d="M369 380.5q-23 6.5 -53 20.5t-52 20.5t-51 6.5q-65 0 -115 -41l15 103q46 38 114 38q29 0 52.5 -7t54.5 -21q30 -13 53.5 -19.5t51.5 -6.5q69 0 117 41l-14 -103q-22 -18 -54 -28t-67 -10q-29 0 -52 6.5z" />
    <glyph glyph-name="uni00A0" unicode="&#xa0;" horiz-adv-x="217" 
 />
    <glyph glyph-name="exclamdown" unicode="&#xa1;" horiz-adv-x="283" 
d="M231.5 550q23.5 -24 23.5 -57t-23.5 -57t-57.5 -24q-33 0 -56.5 24t-23.5 57t23.5 57t56.5 24q34 0 57.5 -24zM143 -198h-125l89 532h99z" />
    <glyph glyph-name="cent" unicode="&#xa2;" horiz-adv-x="689" 
d="M437 137.5q24 22.5 38 54.5l123 -11q-25 -78 -84.5 -128t-146.5 -62l-16 -118h-120l17 123q-78 19 -124 79.5t-46 142.5q0 81 30.5 145.5t86 105t127.5 53.5l16 116h119l-16 -115q75 -13 121.5 -61t57.5 -121l-129 -10q-6 31 -23 52t-42 30l-43 -309q30 11 54 33.5z
M222.5 158.5q14.5 -30.5 41.5 -46.5l41 293q-46 -22 -71.5 -68t-25.5 -106q0 -42 14.5 -72.5z" />
    <glyph glyph-name="sterling" unicode="&#xa3;" horiz-adv-x="663" 
d="M359 188q-17 -44 -47 -83h249l-15 -105h-491l15 105h95q75 77 75 151q0 8 -2 26h-145l12 84h98q-2 3 -17 26q-29 42 -46 80t-17 79q0 61 31.5 111.5t91 80t138.5 29.5q106 0 168.5 -52.5t70.5 -150.5l-127 -8q-6 45 -34 72t-79 27q-54 0 -89 -28t-35 -76q0 -26 12.5 -52
t41.5 -68q27 -40 41 -70h180l-12 -84h-146v-8q0 -42 -17 -86z" />
    <glyph glyph-name="currency" unicode="&#xa4;" horiz-adv-x="759" 
d="M641 302.5q-16 -43.5 -45 -80.5l67 -76l-99 -88l-69 81q-64 -33 -138 -33t-127 32l-90 -80l-75 88l85 74q-25 47 -25 104q0 95 61 172l-62 72l100 88l66 -77q62 32 135 32t132 -35l90 80l75 -88l-88 -76q23 -44 23 -100q0 -46 -16 -89.5zM288 245.5q32 -32.5 82 -32.5
q42 0 77.5 21.5t57 60t21.5 88.5q0 56 -31.5 88.5t-82.5 32.5q-44 0 -79.5 -23t-56 -62t-20.5 -86q0 -55 32 -87.5z" />
    <glyph glyph-name="yen" unicode="&#xa5;" horiz-adv-x="745" 
d="M503 410h129l-12 -84h-170l-10 -68h171l-12 -85h-171l-24 -173h-134l24 173h-168l12 85h168l10 68h-169l12 84h126l-134 350h139l104 -319l199 319h143z" />
    <glyph glyph-name="brokenbar" unicode="&#xa6;" horiz-adv-x="375" 
d="M191 760h134l-50 -352h-133zM106 154h133l-49 -352h-134z" />
    <glyph glyph-name="section" unicode="&#xa7;" horiz-adv-x="677" 
d="M485 128q58 -48 58 -118q0 -98 -66 -159t-194 -61q-75 0 -128.5 28.5t-81 78t-28.5 110.5l133 12q0 -61 27 -92t85 -31q55 0 89 26.5t34 69.5q0 29 -18.5 49t-54.5 34l-62 24q-85 33 -127 70t-42 101q0 102 92 169q-58 48 -58 118q0 101 67 158t192 57q75 0 128.5 -29
t81 -78.5t27.5 -109.5l-132 -12q0 57 -29 90t-86 33q-56 0 -87.5 -24.5t-31.5 -71.5q0 -27 18.5 -46t54.5 -33l61 -24q85 -32 127 -69t42 -100q0 -101 -91 -170zM262 239q24 -23 86 -46l47 -17q23 17 38 43.5t15 53.5q0 30 -24.5 53.5t-86.5 46.5l-46 17q-23 -17 -38 -43.5
t-15 -53.5q0 -31 24 -54z" />
    <glyph glyph-name="dieresis" unicode="&#xa8;" horiz-adv-x="446" 
d="M131 634.5q-20 20.5 -20 49.5t20 49.5t49 20.5t49.5 -20.5t20.5 -49.5t-20.5 -49.5t-49.5 -20.5t-49 20.5zM337.5 634.5q-20.5 20.5 -20.5 49.5t20.5 49.5t49.5 20.5q28 0 48 -20.5t20 -49.5t-20 -49.5t-48 -20.5q-29 0 -49.5 20.5z" />
    <glyph glyph-name="copyright" unicode="&#xa9;" horiz-adv-x="988" 
d="M298.5 40.5q-93.5 52.5 -145.5 142t-52 197.5t52 197.5t145.5 142t212.5 52.5q120 0 213 -52.5t145 -142t52 -197.5t-52 -197.5t-145 -142t-213 -52.5q-119 0 -212.5 52.5zM685.5 100.5q76.5 43.5 119 117.5t42.5 162t-42.5 162t-119 117.5t-174.5 43.5t-174 -43.5
t-118.5 -117.5t-42.5 -162t42.5 -162t118.5 -117.5t174 -43.5t174.5 43.5zM389 176q-53 30 -80.5 83.5t-27.5 121.5t28.5 121t81.5 83.5t124 30.5q85 0 145 -43.5t79 -116.5l-111 -12q-13 39 -43 60.5t-70 21.5q-53 0 -88 -39.5t-35 -105.5q0 -65 35 -104.5t88 -39.5
q41 0 72 23t44 64l108 -12q-18 -75 -77.5 -120.5t-146.5 -45.5q-73 0 -126 30z" />
    <glyph glyph-name="ordfeminine" unicode="&#xaa;" horiz-adv-x="540" 
d="M550 760l-54 -385h-95l2 51q-27 -29 -62.5 -45t-76.5 -16q-72 0 -117 48.5t-45 127.5q0 65 28.5 118t78 83t109.5 30q40 0 72 -16t52 -46l7 50h101zM359 471q28 17 44.5 47.5t16.5 67.5q0 45 -25.5 71t-65.5 26q-52 0 -87.5 -35.5t-35.5 -91.5q0 -45 26 -73.5t67 -28.5
q32 0 60 17z" />
    <glyph glyph-name="guillemotleft" unicode="&#xab;" horiz-adv-x="526" 
d="M197 480h114l-139 -207l80 -209h-109l-80 211zM384 480h114l-139 -207l80 -209h-109l-80 211z" />
    <glyph glyph-name="logicalnot" unicode="&#xac;" horiz-adv-x="643" 
d="M586 424l-34 -239h-110l20 141h-373l14 98h483z" />
    <glyph glyph-name="uni00AD" unicode="&#xad;" horiz-adv-x="443" 
d="M68 316h322l-13 -103h-323z" />
    <glyph glyph-name="registered" unicode="&#xae;" horiz-adv-x="719" 
d="M538 737q63 -35 98 -95.5t35 -133.5q0 -72 -35 -132.5t-98 -96t-143 -35.5q-81 0 -144 35.5t-98 96t-35 132.5q0 73 35 133.5t98 95.5t144 35q80 0 143 -35zM502 335.5q47 26.5 73 72t26 100.5t-26 100.5t-73 72t-107 26.5q-61 0 -108 -26.5t-73 -72t-26 -100.5
t26 -100.5t73 -72t108 -26.5q60 0 107 26.5zM486.5 516q-10.5 -19 -30.5 -30l46 -98h-75l-39 85h-13v-85h-69v255h98q43 0 68 -23t25 -61q0 -24 -10.5 -43zM375 529h17q18 0 28 8t10 22q0 13 -9.5 21t-25.5 8h-20v-59z" />
    <glyph glyph-name="macron" unicode="&#xaf;" horiz-adv-x="385" 
d="M117 733h285l-11 -82h-286z" />
    <glyph glyph-name="degree" unicode="&#xb0;" horiz-adv-x="427" 
d="M196.5 515.5q-32.5 18.5 -51 50t-18.5 68.5t18.5 69t51 50.5t70.5 18.5t70 -18.5t50.5 -50.5t18.5 -69t-18.5 -68.5t-50.5 -50t-70 -18.5t-70.5 18.5zM313 588.5q19 19.5 19 45.5q0 27 -19 46t-46 19t-46.5 -19t-19.5 -46q0 -26 19.5 -45.5t46.5 -19.5t46 19.5z" />
    <glyph glyph-name="plusminus" unicode="&#xb1;" horiz-adv-x="591" 
d="M516 384h-160l-23 -161h-98l23 161h-160l13 97h160l23 161h98l-23 -161h160zM73 119h418l-13 -97h-418z" />
    <glyph glyph-name="uni00B2" unicode="&#xb2;" horiz-adv-x="466" 
d="M235 483.5q-15 -14.5 -22 -35.5h198l-12 -79h-303l6 38q8 59 36.5 99t91.5 71l56 27q27 14 38 25.5t11 29.5q0 14 -10.5 22.5t-30.5 8.5q-19 0 -35 -9.5t-21 -24.5l-100 6q22 52 65 78t104 26q63 0 96 -28t33 -71q0 -44 -26.5 -72.5t-76.5 -52.5l-53 -28
q-30 -16 -45 -30.5z" />
    <glyph glyph-name="uni00B3" unicode="&#xb3;" horiz-adv-x="465" 
d="M416 492q0 -60 -45.5 -94.5t-113.5 -34.5q-62 0 -101 28.5t-46 76.5l100 7q2 -16 14 -25.5t33 -9.5q28 0 44.5 15t16.5 42q0 20 -16 30t-50 10h-43l9 67h32q37 0 57 14t20 40q0 14 -10 23t-29 9t-34 -9t-21 -25l-95 7q18 48 61.5 75.5t106.5 27.5q57 0 89 -26.5t32 -69.5
q0 -32 -15.5 -56.5t-45.5 -40.5q50 -25 50 -81z" />
    <glyph glyph-name="acute" unicode="&#xb4;" horiz-adv-x="314" 
d="M185 589h-88l94 171h143z" />
    <glyph glyph-name="uni00B5" unicode="&#xb5;" horiz-adv-x="651" 
d="M607 517l-72 -517h-118l1 81q-36 -45 -85 -69t-105 -24q-33 0 -55 7l-27 -193h-130l85 601l16 114h130l-41 -296q-4 -26 -4 -40q0 -91 88 -91q60 0 97 40.5t49 96.5l41 290h130z" />
    <glyph glyph-name="paragraph" unicode="&#xb6;" horiz-adv-x="859" 
d="M153.5 612q41.5 67 109.5 107.5t144 40.5l-73 -512q-63 0 -114 29t-79.5 79.5t-28.5 111.5q0 77 41.5 144zM835 658h-79l-121 -856h-114l121 856h-136l-121 -856h-113l135 958h443z" />
    <glyph glyph-name="periodcentered" unicode="&#xb7;" horiz-adv-x="256" 
d="M93 339q-23 23 -23 55t23 54.5t54 22.5q32 0 55 -22.5t23 -54.5t-23 -55t-55 -23q-31 0 -54 23z" />
    <glyph glyph-name="cedilla" unicode="&#xb8;" horiz-adv-x="298" 
d="M172.5 -56q22.5 -19 22.5 -52q0 -49 -34 -75.5t-88 -26.5q-25 0 -48 5.5t-38 15.5l27 51q22 -13 46 -13q20 0 32 10.5t12 28.5q0 13 -7.5 19.5t-21.5 6.5q-19 0 -38 -13l-25 16l45 106h65l-21 -60h11q38 0 60.5 -19z" />
    <glyph glyph-name="uni00B9" unicode="&#xb9;" horiz-adv-x="339" 
d="M329 760l-55 -392h-104l37 264q-26 -8 -75 -8l12 88q48 0 76 11t38 37h71z" />
    <glyph glyph-name="ordmasculine" unicode="&#xba;" horiz-adv-x="531" 
d="M187.5 388q-41.5 23 -63.5 62.5t-22 88.5q0 66 30 119.5t83 83.5t119 30q56 0 97 -23t63 -63t22 -89q0 -66 -30.5 -119t-84 -83t-117.5 -30q-55 0 -96.5 23zM378 489q35 36 35 100q0 42 -25.5 68.5t-64.5 26.5q-49 0 -83.5 -37t-34.5 -98q0 -43 25 -69.5t65 -26.5
q48 0 83 36z" />
    <glyph glyph-name="guillemotright" unicode="&#xbb;" horiz-adv-x="526" 
d="M333 64h-114l139 207l-80 209h109l80 -211zM146 64h-114l139 207l-80 209h109l80 -211z" />
    <glyph glyph-name="onequarter" unicode="&#xbc;" horiz-adv-x="1032" 
d="M329 760l-55 -392h-104l37 264q-26 -8 -75 -8l12 88q48 0 76 11t38 37h71zM730 760h137l-661 -760h-136zM929 95h-62l-14 -95h-91l14 95h-196l11 79l99 217h93l-100 -217h104l16 113h92l-17 -113h62z" />
    <glyph glyph-name="onehalf" unicode="&#xbd;" horiz-adv-x="995" 
d="M329 760l-55 -392h-104l37 264q-26 -8 -75 -8l12 88q48 0 76 11t38 37h71zM713 115.5q-15 -14.5 -22 -35.5h198l-12 -79h-303l6 38q8 59 36.5 99t91.5 71l56 27q27 14 38 25.5t11 29.5q0 14 -10.5 22.5t-30.5 8.5q-19 0 -35 -9.5t-21 -24.5l-100 6q22 52 65 78t104 26
q63 0 96 -28t33 -71q0 -44 -26.5 -72.5t-76.5 -52.5l-53 -28q-30 -16 -45 -30.5zM730 760h137l-661 -760h-136z" />
    <glyph glyph-name="threequarters" unicode="&#xbe;" horiz-adv-x="1109" 
d="M416 492q0 -60 -45.5 -94.5t-113.5 -34.5q-62 0 -101 28.5t-46 76.5l100 7q2 -16 14 -25.5t33 -9.5q28 0 44.5 15t16.5 42q0 20 -16 30t-50 10h-43l9 67h32q37 0 57 14t20 40q0 14 -10 23t-29 9t-34 -9t-21 -25l-95 7q18 48 61.5 75.5t106.5 27.5q57 0 89 -26.5t32 -69.5
q0 -32 -15.5 -56.5t-45.5 -40.5q50 -25 50 -81zM807 760h137l-661 -760h-136zM1007 95h-62l-14 -95h-91l14 95h-196l11 79l99 217h93l-100 -217h104l16 113h92l-17 -113h62z" />
    <glyph glyph-name="questiondown" unicode="&#xbf;" horiz-adv-x="607" 
d="M406 309q-8 -54 -22 -89.5t-43.5 -64.5t-82.5 -55l-36 -17q-71 -36 -71 -100q0 -40 27 -60t72 -20q90 0 149 74l104 -49q-98 -138 -268 -138q-104 0 -160.5 49.5t-56.5 130.5q0 65 36 112.5t105 82.5l39 20q41 22 58.5 47.5t24.5 67.5l5 37h124zM414.5 550
q23.5 -24 23.5 -57t-23.5 -57t-57.5 -24q-33 0 -56.5 24t-23.5 57t23.5 57t56.5 24q34 0 57.5 -24z" />
    <glyph glyph-name="Agrave" unicode="&#xc0;" 
d="M457 123h-297l-53 -123h-140l354 760h152l141 -760h-138zM441 226l-62 404l-174 -404h236zM359 1004l94 -171h-88l-149 171h143z" />
    <glyph glyph-name="Aacute" unicode="&#xc1;" 
d="M457 123h-297l-53 -123h-140l354 760h152l141 -760h-138zM441 226l-62 404l-174 -404h236zM452 833h-88l94 171h143z" />
    <glyph glyph-name="Acircumflex" unicode="&#xc2;" 
d="M457 123h-297l-53 -123h-140l354 760h152l141 -760h-138zM441 226l-62 404l-174 -404h236zM479 836l-60 98l-89 -98h-121l171 168h91l123 -168h-115z" />
    <glyph glyph-name="Atilde" unicode="&#xc3;" 
d="M457 123h-297l-53 -123h-140l354 760h152l141 -760h-138zM441 226l-62 404l-174 -404h236zM435.5 876.5q-18.5 8.5 -42.5 23.5q-17 12 -28.5 17.5t-21.5 5.5q-32 0 -62 -39l-58 39q54 88 139 88q26 0 46.5 -8.5t42.5 -23.5q17 -11 28.5 -17t22.5 -6q31 0 61 39l60 -35
q-27 -43 -64 -67.5t-80 -24.5q-25 0 -43.5 8.5z" />
    <glyph glyph-name="Adieresis" unicode="&#xc4;" 
d="M457 123h-297l-53 -123h-140l354 760h152l141 -760h-138zM441 226l-62 404l-174 -404h236zM267 878.5q-20 20.5 -20 49.5t20 49.5t49 20.5t49.5 -20.5t20.5 -49.5t-20.5 -49.5t-49.5 -20.5t-49 20.5zM473.5 878.5q-20.5 20.5 -20.5 49.5t20.5 49.5t49.5 20.5
q28 0 48 -20.5t20 -49.5t-20 -49.5t-48 -20.5q-29 0 -49.5 20.5z" />
    <glyph glyph-name="Aring" unicode="&#xc5;" 
d="M457 123h-297l-53 -123h-140l354 760h152l141 -760h-138zM441 226l-62 404l-174 -404h236zM331.5 862q-33.5 34 -33.5 81q0 48 33.5 81.5t82.5 33.5q48 0 81.5 -34t33.5 -81t-33.5 -81t-81.5 -34q-49 0 -82.5 34zM454 900.5q17 17.5 17 42.5t-17 42.5t-40 17.5
q-24 0 -41 -17.5t-17 -42.5t17 -42.5t41 -17.5q23 0 40 17.5z" />
    <glyph glyph-name="AE" unicode="&#xc6;" horiz-adv-x="957" 
d="M664 649l-28 -200h286l-15 -108h-286l-32 -230h297l-16 -111h-431l23 161h-258l-107 -161h-138l523 760h491l-16 -111h-293zM530 650l-258 -387h204z" />
    <glyph glyph-name="Ccedilla" unicode="&#xc7;" horiz-adv-x="827" 
d="M218 30.5q-77 42.5 -119.5 120.5t-42.5 182q0 119 56 219.5t154.5 160t219.5 59.5q93 0 165 -35t115.5 -98t55.5 -145l-139 -12q-15 81 -67.5 125.5t-133.5 44.5q-80 0 -146 -43t-104 -116t-38 -157q0 -104 56.5 -165t150.5 -61q82 0 150 46.5t104 123.5l135 -13
q-50 -127 -154.5 -203t-240.5 -76q-100 0 -177 42.5zM449.5 -56q22.5 -19 22.5 -52q0 -49 -34 -75.5t-88 -26.5q-25 0 -48 5.5t-38 15.5l27 51q22 -13 46 -13q20 0 32 10.5t12 28.5q0 13 -7.5 19.5t-21.5 6.5q-19 0 -38 -13l-25 16l45 106h65l-21 -60h11q38 0 60.5 -19z" />
    <glyph glyph-name="Egrave" unicode="&#xc8;" horiz-adv-x="556" 
d="M253 648l-28 -198h296l-15 -110h-296l-32 -228h306l-15 -112h-441l107 760h437l-16 -112h-303zM315 1004l94 -171h-88l-149 171h143z" />
    <glyph glyph-name="Eacute" unicode="&#xc9;" horiz-adv-x="556" 
d="M253 648l-28 -198h296l-15 -110h-296l-32 -228h306l-15 -112h-441l107 760h437l-16 -112h-303zM408 833h-88l94 171h143z" />
    <glyph glyph-name="Ecircumflex" unicode="&#xca;" horiz-adv-x="556" 
d="M253 648l-28 -198h296l-15 -110h-296l-32 -228h306l-15 -112h-441l107 760h437l-16 -112h-303zM435 836l-60 98l-89 -98h-121l171 168h91l123 -168h-115z" />
    <glyph glyph-name="Edieresis" unicode="&#xcb;" horiz-adv-x="556" 
d="M253 648l-28 -198h296l-15 -110h-296l-32 -228h306l-15 -112h-441l107 760h437l-16 -112h-303zM223 878.5q-20 20.5 -20 49.5t20 49.5t49 20.5t49.5 -20.5t20.5 -49.5t-20.5 -49.5t-49.5 -20.5t-49 20.5zM429.5 878.5q-20.5 20.5 -20.5 49.5t20.5 49.5t49.5 20.5
q28 0 48 -20.5t20 -49.5t-20 -49.5t-48 -20.5q-29 0 -49.5 20.5z" />
    <glyph glyph-name="Igrave" unicode="&#xcc;" horiz-adv-x="262" 
d="M135 760h134l-107 -760h-134zM162 1004l94 -171h-88l-149 171h143z" />
    <glyph glyph-name="Iacute" unicode="&#xcd;" horiz-adv-x="262" 
d="M135 760h134l-107 -760h-134zM255 833h-88l94 171h143z" />
    <glyph glyph-name="Icircumflex" unicode="&#xce;" horiz-adv-x="262" 
d="M135 760h134l-107 -760h-134zM282 836l-60 98l-89 -98h-121l171 168h91l123 -168h-115z" />
    <glyph glyph-name="Idieresis" unicode="&#xcf;" horiz-adv-x="262" 
d="M135 760h134l-107 -760h-134zM70 878.5q-20 20.5 -20 49.5t20 49.5t49 20.5t49.5 -20.5t20.5 -49.5t-20.5 -49.5t-49.5 -20.5t-49 20.5zM276.5 878.5q-20.5 20.5 -20.5 49.5t20.5 49.5t49.5 20.5q28 0 48 -20.5t20 -49.5t-20 -49.5t-48 -20.5q-29 0 -49.5 20.5z" />
    <glyph glyph-name="Eth" unicode="&#xd0;" horiz-adv-x="804" 
d="M620 718q78 -42 121 -115.5t43 -164.5q0 -127 -57.5 -226.5t-159 -155.5t-227.5 -56h-276l49 347h-89l13 99h90l44 314h270q101 0 179 -42zM499.5 153q69.5 41 108 112.5t38.5 159.5q0 105 -62.5 164t-168.5 59h-126l-28 -202h202l-13 -99h-203l-33 -235h126
q90 0 159.5 41z" />
    <glyph glyph-name="Ntilde" unicode="&#xd1;" horiz-adv-x="695" 
d="M701 760l-106 -760h-132l-223 568l-80 -568h-132l107 760h132l223 -566l79 566h132zM456.5 876.5q-18.5 8.5 -42.5 23.5q-17 12 -28.5 17.5t-21.5 5.5q-32 0 -62 -39l-58 39q54 88 139 88q26 0 46.5 -8.5t42.5 -23.5q17 -11 28.5 -17t22.5 -6q31 0 61 39l60 -35
q-27 -43 -64 -67.5t-80 -24.5q-25 0 -43.5 8.5z" />
    <glyph glyph-name="Ograve" unicode="&#xd2;" horiz-adv-x="848" 
d="M216.5 31q-76.5 43 -118.5 121.5t-42 181.5q0 123 58 223t157.5 157.5t217.5 57.5q101 0 177.5 -43t118.5 -121.5t42 -181.5q0 -123 -58 -223t-157.5 -157.5t-217.5 -57.5q-101 0 -177.5 43zM544.5 151.5q66.5 42.5 105.5 115t39 158.5q0 104 -56 165t-150 61
q-78 0 -144.5 -42.5t-105.5 -115t-39 -158.5q0 -104 56 -165t150 -61q78 0 144.5 42.5zM457 1004l94 -171h-88l-149 171h143z" />
    <glyph glyph-name="Oacute" unicode="&#xd3;" horiz-adv-x="848" 
d="M216.5 31q-76.5 43 -118.5 121.5t-42 181.5q0 123 58 223t157.5 157.5t217.5 57.5q101 0 177.5 -43t118.5 -121.5t42 -181.5q0 -123 -58 -223t-157.5 -157.5t-217.5 -57.5q-101 0 -177.5 43zM544.5 151.5q66.5 42.5 105.5 115t39 158.5q0 104 -56 165t-150 61
q-78 0 -144.5 -42.5t-105.5 -115t-39 -158.5q0 -104 56 -165t150 -61q78 0 144.5 42.5zM550 833h-88l94 171h143z" />
    <glyph glyph-name="Ocircumflex" unicode="&#xd4;" horiz-adv-x="848" 
d="M216.5 31q-76.5 43 -118.5 121.5t-42 181.5q0 123 58 223t157.5 157.5t217.5 57.5q101 0 177.5 -43t118.5 -121.5t42 -181.5q0 -123 -58 -223t-157.5 -157.5t-217.5 -57.5q-101 0 -177.5 43zM544.5 151.5q66.5 42.5 105.5 115t39 158.5q0 104 -56 165t-150 61
q-78 0 -144.5 -42.5t-105.5 -115t-39 -158.5q0 -104 56 -165t150 -61q78 0 144.5 42.5zM577 836l-60 98l-89 -98h-121l171 168h91l123 -168h-115z" />
    <glyph glyph-name="Otilde" unicode="&#xd5;" horiz-adv-x="848" 
d="M216.5 31q-76.5 43 -118.5 121.5t-42 181.5q0 123 58 223t157.5 157.5t217.5 57.5q101 0 177.5 -43t118.5 -121.5t42 -181.5q0 -123 -58 -223t-157.5 -157.5t-217.5 -57.5q-101 0 -177.5 43zM544.5 151.5q66.5 42.5 105.5 115t39 158.5q0 104 -56 165t-150 61
q-78 0 -144.5 -42.5t-105.5 -115t-39 -158.5q0 -104 56 -165t150 -61q78 0 144.5 42.5zM533.5 876.5q-18.5 8.5 -42.5 23.5q-17 12 -28.5 17.5t-21.5 5.5q-32 0 -62 -39l-58 39q54 88 139 88q26 0 46.5 -8.5t42.5 -23.5q17 -11 28.5 -17t22.5 -6q31 0 61 39l60 -35
q-27 -43 -64 -67.5t-80 -24.5q-25 0 -43.5 8.5z" />
    <glyph glyph-name="Odieresis" unicode="&#xd6;" horiz-adv-x="848" 
d="M216.5 31q-76.5 43 -118.5 121.5t-42 181.5q0 123 58 223t157.5 157.5t217.5 57.5q101 0 177.5 -43t118.5 -121.5t42 -181.5q0 -123 -58 -223t-157.5 -157.5t-217.5 -57.5q-101 0 -177.5 43zM544.5 151.5q66.5 42.5 105.5 115t39 158.5q0 104 -56 165t-150 61
q-78 0 -144.5 -42.5t-105.5 -115t-39 -158.5q0 -104 56 -165t150 -61q78 0 144.5 42.5zM365 878.5q-20 20.5 -20 49.5t20 49.5t49 20.5t49.5 -20.5t20.5 -49.5t-20.5 -49.5t-49.5 -20.5t-49 20.5zM571.5 878.5q-20.5 20.5 -20.5 49.5t20.5 49.5t49.5 20.5q28 0 48 -20.5
t20 -49.5t-20 -49.5t-48 -20.5q-29 0 -49.5 20.5z" />
    <glyph glyph-name="multiply" unicode="&#xd7;" horiz-adv-x="553" 
d="M346 265l109 -127l-78 -68l-109 127l-146 -128l-59 69l146 128l-109 127l78 69l109 -128l146 127l59 -68z" />
    <glyph glyph-name="Oslash" unicode="&#xd8;" horiz-adv-x="848" 
d="M740 671q42 -45 64.5 -107.5t22.5 -137.5q0 -123 -58 -223t-157.5 -157.5t-217.5 -57.5q-102 0 -181 45l-46 -56h-117l93 112q-42 45 -64.5 107.5t-22.5 137.5q0 123 58 223t157.5 157.5t217.5 57.5q102 0 181 -45l46 56h117zM226 190l365 441q-46 26 -107 26
q-80 0 -148 -43t-108 -117t-40 -163q0 -86 38 -144zM656 569l-364 -440q46 -26 107 -26q80 0 147.5 43t107.5 117t40 163q0 87 -38 143z" />
    <glyph glyph-name="Ugrave" unicode="&#xd9;" horiz-adv-x="704" 
d="M131 53q-70 65 -70 181q0 28 5 70l65 456h134l-66 -462q-4 -28 -4 -52q0 -66 35.5 -101t101.5 -35q76 0 123 47t60 139l66 464h134l-65 -458q-23 -164 -101.5 -239t-228.5 -75q-119 0 -189 65zM384 1004l94 -171h-88l-149 171h143z" />
    <glyph glyph-name="Uacute" unicode="&#xda;" horiz-adv-x="704" 
d="M131 53q-70 65 -70 181q0 28 5 70l65 456h134l-66 -462q-4 -28 -4 -52q0 -66 35.5 -101t101.5 -35q76 0 123 47t60 139l66 464h134l-65 -458q-23 -164 -101.5 -239t-228.5 -75q-119 0 -189 65zM477 833h-88l94 171h143z" />
    <glyph glyph-name="Ucircumflex" unicode="&#xdb;" horiz-adv-x="704" 
d="M131 53q-70 65 -70 181q0 28 5 70l65 456h134l-66 -462q-4 -28 -4 -52q0 -66 35.5 -101t101.5 -35q76 0 123 47t60 139l66 464h134l-65 -458q-23 -164 -101.5 -239t-228.5 -75q-119 0 -189 65zM504 836l-60 98l-89 -98h-121l171 168h91l123 -168h-115z" />
    <glyph glyph-name="Udieresis" unicode="&#xdc;" horiz-adv-x="704" 
d="M131 53q-70 65 -70 181q0 28 5 70l65 456h134l-66 -462q-4 -28 -4 -52q0 -66 35.5 -101t101.5 -35q76 0 123 47t60 139l66 464h134l-65 -458q-23 -164 -101.5 -239t-228.5 -75q-119 0 -189 65zM292 878.5q-20 20.5 -20 49.5t20 49.5t49 20.5t49.5 -20.5t20.5 -49.5
t-20.5 -49.5t-49.5 -20.5t-49 20.5zM498.5 878.5q-20.5 20.5 -20.5 49.5t20.5 49.5t49.5 20.5q28 0 48 -20.5t20 -49.5t-20 -49.5t-48 -20.5q-29 0 -49.5 20.5z" />
    <glyph glyph-name="Yacute" unicode="&#xdd;" horiz-adv-x="606" 
d="M682 760l-490 -760h-141l205 317l-182 443h140l119 -322l208 322h141zM422 833h-88l94 171h143z" />
    <glyph glyph-name="Thorn" unicode="&#xde;" horiz-adv-x="649" 
d="M568 597q65 -59 65 -168q0 -89 -38 -158t-109 -108t-165 -39h-142l-17 -124h-134l107 760h134l-15 -104h127q122 0 187 -59zM450 286q47 53 47 133q0 64 -34 96t-111 32h-113l-44 -314h121q87 0 134 53z" />
    <glyph glyph-name="germandbls" unicode="&#xdf;" horiz-adv-x="596" 
d="M511 357q36 -50 36 -120q0 -72 -33 -129t-92 -88.5t-132 -31.5q-61 0 -106 17l26 90q26 -9 66 -9q64 0 108 38t44 107q0 60 -37.5 93.5t-99.5 33.5h-25l1 9l11 82q61 19 96.5 57.5t35.5 86.5q0 36 -20 57.5t-59 21.5q-45 0 -72.5 -28.5t-35.5 -81.5l-81 -562h-118l79 556
q16 117 79.5 166.5t157.5 49.5q81 0 132 -43t51 -116q0 -53 -28 -99.5t-82 -82.5q62 -24 98 -74z" />
    <glyph glyph-name="agrave" unicode="&#xe0;" horiz-adv-x="647" 
d="M624 517l-72 -517h-119l3 85q-33 -43 -81.5 -70t-107.5 -27q-58 0 -105.5 28.5t-75 81.5t-27.5 124q0 88 37 158t100 109t138 39q61 0 104.5 -27t64.5 -72l12 88h129zM379 121q40 26 63 69.5t23 95.5q0 62 -32.5 98.5t-90.5 36.5q-45 0 -84.5 -23.5t-63 -66.5t-23.5 -99
q0 -64 33 -100.5t88 -36.5q47 0 87 26zM301 761l94 -171h-88l-149 171h143z" />
    <glyph glyph-name="aacute" unicode="&#xe1;" horiz-adv-x="647" 
d="M624 517l-72 -517h-119l3 85q-33 -43 -81.5 -70t-107.5 -27q-58 0 -105.5 28.5t-75 81.5t-27.5 124q0 88 37 158t100 109t138 39q61 0 104.5 -27t64.5 -72l12 88h129zM379 121q40 26 63 69.5t23 95.5q0 62 -32.5 98.5t-90.5 36.5q-45 0 -84.5 -23.5t-63 -66.5t-23.5 -99
q0 -64 33 -100.5t88 -36.5q47 0 87 26zM394 590h-88l94 171h143z" />
    <glyph glyph-name="acircumflex" unicode="&#xe2;" horiz-adv-x="647" 
d="M624 517l-72 -517h-119l3 85q-33 -43 -81.5 -70t-107.5 -27q-58 0 -105.5 28.5t-75 81.5t-27.5 124q0 88 37 158t100 109t138 39q61 0 104.5 -27t64.5 -72l12 88h129zM379 121q40 26 63 69.5t23 95.5q0 62 -32.5 98.5t-90.5 36.5q-45 0 -84.5 -23.5t-63 -66.5t-23.5 -99
q0 -64 33 -100.5t88 -36.5q47 0 87 26zM421 593l-60 98l-89 -98h-121l171 168h91l123 -168h-115z" />
    <glyph glyph-name="atilde" unicode="&#xe3;" horiz-adv-x="647" 
d="M624 517l-72 -517h-119l3 85q-33 -43 -81.5 -70t-107.5 -27q-58 0 -105.5 28.5t-75 81.5t-27.5 124q0 88 37 158t100 109t138 39q61 0 104.5 -27t64.5 -72l12 88h129zM379 121q40 26 63 69.5t23 95.5q0 62 -32.5 98.5t-90.5 36.5q-45 0 -84.5 -23.5t-63 -66.5t-23.5 -99
q0 -64 33 -100.5t88 -36.5q47 0 87 26zM377.5 633.5q-18.5 8.5 -42.5 23.5q-17 12 -28.5 17.5t-21.5 5.5q-32 0 -62 -39l-58 39q54 88 139 88q26 0 46.5 -8.5t42.5 -23.5q17 -11 28.5 -17t22.5 -6q31 0 61 39l60 -35q-27 -43 -64 -67.5t-80 -24.5q-25 0 -43.5 8.5z" />
    <glyph glyph-name="adieresis" unicode="&#xe4;" horiz-adv-x="647" 
d="M624 517l-72 -517h-119l3 85q-33 -43 -81.5 -70t-107.5 -27q-58 0 -105.5 28.5t-75 81.5t-27.5 124q0 88 37 158t100 109t138 39q61 0 104.5 -27t64.5 -72l12 88h129zM379 121q40 26 63 69.5t23 95.5q0 62 -32.5 98.5t-90.5 36.5q-45 0 -84.5 -23.5t-63 -66.5t-23.5 -99
q0 -64 33 -100.5t88 -36.5q47 0 87 26zM209 635.5q-20 20.5 -20 49.5t20 49.5t49 20.5t49.5 -20.5t20.5 -49.5t-20.5 -49.5t-49.5 -20.5t-49 20.5zM415.5 635.5q-20.5 20.5 -20.5 49.5t20.5 49.5t49.5 20.5q28 0 48 -20.5t20 -49.5t-20 -49.5t-48 -20.5q-29 0 -49.5 20.5z
" />
    <glyph glyph-name="aring" unicode="&#xe5;" horiz-adv-x="647" 
d="M624 517l-72 -517h-119l3 85q-33 -43 -81.5 -70t-107.5 -27q-58 0 -105.5 28.5t-75 81.5t-27.5 124q0 88 37 158t100 109t138 39q61 0 104.5 -27t64.5 -72l12 88h129zM379 121q40 26 63 69.5t23 95.5q0 62 -32.5 98.5t-90.5 36.5q-45 0 -84.5 -23.5t-63 -66.5t-23.5 -99
q0 -64 33 -100.5t88 -36.5q47 0 87 26zM273.5 619q-33.5 34 -33.5 81q0 48 33.5 81.5t82.5 33.5q48 0 81.5 -34t33.5 -81t-33.5 -81t-81.5 -34q-49 0 -82.5 34zM396 657.5q17 17.5 17 42.5t-17 42.5t-40 17.5q-24 0 -41 -17.5t-17 -42.5t17 -42.5t41 -17.5q23 0 40 17.5z
" />
    <glyph glyph-name="ae" unicode="&#xe6;" horiz-adv-x="951" 
d="M519 226v-12q0 -61 32.5 -95t87.5 -34q42 0 75.5 20t56.5 54l120 -12q-44 -77 -112 -118t-154 -41q-68 0 -118 27.5t-77 77.5q-73 -105 -226 -105q-84 0 -132 36.5t-48 105.5q0 93 68.5 133.5t184.5 40.5h133l3 36q0 49 -28 70t-71 21q-81 0 -125 -68l-118 12
q79 153 261 153q55 0 101 -18t72 -56q38 35 85.5 54.5t102.5 19.5q104 0 161 -60t57 -158q0 -22 -2.5 -46t-6.5 -38h-383zM587.5 395.5q-37.5 -34.5 -55.5 -91.5h258v6q0 57 -29 88.5t-80 31.5q-56 0 -93.5 -34.5zM341.5 107q44.5 34 53.5 95l4 24h-121q-76 0 -105.5 -21
t-29.5 -62q0 -35 24.5 -52.5t69.5 -17.5q60 0 104.5 34z" />
    <glyph glyph-name="ccedilla" unicode="&#xe7;" horiz-adv-x="607" 
d="M152 18q-54 30 -83.5 82.5t-29.5 117.5q0 93 40 163.5t110 108.5t158 38q98 0 160 -50.5t74 -136.5l-129 -10q-8 44 -38 67t-73 23q-51 0 -90.5 -25t-60.5 -68t-21 -97q0 -63 32.5 -99.5t89.5 -36.5q46 0 85.5 25.5t59.5 71.5l123 -11q-29 -89 -102 -141t-180 -52
q-71 0 -125 30zM343.5 -56q22.5 -19 22.5 -52q0 -49 -34 -75.5t-88 -26.5q-25 0 -48 5.5t-38 15.5l27 51q22 -13 46 -13q20 0 32 10.5t12 28.5q0 13 -7.5 19.5t-21.5 6.5q-19 0 -38 -13l-25 16l45 106h65l-21 -60h11q38 0 60.5 -19z" />
    <glyph glyph-name="egrave" unicode="&#xe8;" horiz-adv-x="617" 
d="M168 220v-4q0 -61 33.5 -96t84.5 -35q49 0 85 21t58 57l128 -12q-42 -80 -113.5 -121.5t-166.5 -41.5q-72 0 -126 31t-83 84t-29 116q0 90 39 160.5t108.5 109.5t158.5 39q75 0 128 -29.5t80 -79.5t27 -113q0 -36 -9 -86h-403zM240 396.5q-43 -34.5 -61 -96.5h273v1
q0 63 -29 96.5t-82 33.5q-58 0 -101 -34.5zM306 761l94 -171h-88l-149 171h143z" />
    <glyph glyph-name="eacute" unicode="&#xe9;" horiz-adv-x="617" 
d="M168 220v-4q0 -61 33.5 -96t84.5 -35q49 0 85 21t58 57l128 -12q-42 -80 -113.5 -121.5t-166.5 -41.5q-72 0 -126 31t-83 84t-29 116q0 90 39 160.5t108.5 109.5t158.5 39q75 0 128 -29.5t80 -79.5t27 -113q0 -36 -9 -86h-403zM240 396.5q-43 -34.5 -61 -96.5h273v1
q0 63 -29 96.5t-82 33.5q-58 0 -101 -34.5zM399 590h-88l94 171h143z" />
    <glyph glyph-name="ecircumflex" unicode="&#xea;" horiz-adv-x="617" 
d="M168 220v-4q0 -61 33.5 -96t84.5 -35q49 0 85 21t58 57l128 -12q-42 -80 -113.5 -121.5t-166.5 -41.5q-72 0 -126 31t-83 84t-29 116q0 90 39 160.5t108.5 109.5t158.5 39q75 0 128 -29.5t80 -79.5t27 -113q0 -36 -9 -86h-403zM240 396.5q-43 -34.5 -61 -96.5h273v1
q0 63 -29 96.5t-82 33.5q-58 0 -101 -34.5zM426 593l-60 98l-89 -98h-121l171 168h91l123 -168h-115z" />
    <glyph glyph-name="edieresis" unicode="&#xeb;" horiz-adv-x="617" 
d="M168 220v-4q0 -61 33.5 -96t84.5 -35q49 0 85 21t58 57l128 -12q-42 -80 -113.5 -121.5t-166.5 -41.5q-72 0 -126 31t-83 84t-29 116q0 90 39 160.5t108.5 109.5t158.5 39q75 0 128 -29.5t80 -79.5t27 -113q0 -36 -9 -86h-403zM240 396.5q-43 -34.5 -61 -96.5h273v1
q0 63 -29 96.5t-82 33.5q-58 0 -101 -34.5zM214 635.5q-20 20.5 -20 49.5t20 49.5t49 20.5t49.5 -20.5t20.5 -49.5t-20.5 -49.5t-49.5 -20.5t-49 20.5zM420.5 635.5q-20.5 20.5 -20.5 49.5t20.5 49.5t49.5 20.5q28 0 48 -20.5t20 -49.5t-20 -49.5t-48 -20.5
q-29 0 -49.5 20.5z" />
    <glyph glyph-name="igrave" unicode="&#xec;" horiz-adv-x="252" 
d="M97 517h130l-72 -517h-130zM125 761l94 -171h-88l-149 171h143z" />
    <glyph glyph-name="iacute" unicode="&#xed;" horiz-adv-x="252" 
d="M97 517h130l-72 -517h-130zM218 590h-88l94 171h143z" />
    <glyph glyph-name="icircumflex" unicode="&#xee;" horiz-adv-x="252" 
d="M97 517h130l-72 -517h-130zM223 593l-32 101l-60 -101h-118l141 168h91l93 -168h-115z" />
    <glyph glyph-name="idieresis" unicode="&#xef;" horiz-adv-x="252" 
d="M97 517h130l-72 -517h-130zM33 635.5q-20 20.5 -20 49.5t20 49.5t49 20.5t49.5 -20.5t20.5 -49.5t-20.5 -49.5t-49.5 -20.5t-49 20.5zM239.5 635.5q-20.5 20.5 -20.5 49.5t20.5 49.5t49.5 20.5q28 0 48 -20.5t20 -49.5t-20 -49.5t-48 -20.5q-29 0 -49.5 20.5z" />
    <glyph glyph-name="eth" unicode="&#xf0;" horiz-adv-x="647" 
d="M565 638q55 -85 55 -217q0 -129 -39.5 -226.5t-117.5 -152t-190 -54.5q-65 0 -119 27t-85.5 78.5t-31.5 119.5q0 78 39 141.5t107.5 100t151.5 36.5q103 0 161 -52v3q0 87 -40 147l-108 -49l-22 66l79 36q-45 32 -107 45l34 85q116 -16 187 -79l98 44l23 -65zM374 119.5
q39 24.5 63 66t24 89.5q0 57 -35.5 91t-90.5 34q-45 0 -83 -22t-60.5 -61.5t-22.5 -89.5q0 -61 34.5 -96.5t87.5 -35.5q44 0 83 24.5z" />
    <glyph glyph-name="ntilde" unicode="&#xf1;" horiz-adv-x="602" 
d="M518 482q41 -46 41 -118q0 -23 -5 -55l-43 -309h-130l41 295q4 28 4 45q0 45 -20.5 66t-65.5 21q-62 0 -99.5 -44t-47.5 -106l-39 -277h-130l72 517h117v-85q33 47 81 71.5t104 24.5q79 0 120 -46zM381.5 633.5q-18.5 8.5 -42.5 23.5q-17 12 -28.5 17.5t-21.5 5.5
q-32 0 -62 -39l-58 39q54 88 139 88q26 0 46.5 -8.5t42.5 -23.5q17 -11 28.5 -17t22.5 -6q31 0 61 39l60 -35q-27 -43 -64 -67.5t-80 -24.5q-25 0 -43.5 8.5z" />
    <glyph glyph-name="ograve" unicode="&#xf2;" horiz-adv-x="630" 
d="M155 17.5q-55 29.5 -85.5 82t-30.5 120.5q0 92 39.5 162t110 108t161.5 38q71 0 125.5 -29t85 -82t30.5 -121q0 -92 -39.5 -162t-110 -108t-161.5 -38q-70 0 -125 29.5zM375.5 119q39.5 24 62.5 68t23 100q0 64 -32.5 99t-86.5 35q-47 0 -86.5 -24t-63 -67.5t-23.5 -99.5
q0 -65 32.5 -100t87.5 -35q47 0 86.5 24zM313 761l94 -171h-88l-149 171h143z" />
    <glyph glyph-name="oacute" unicode="&#xf3;" horiz-adv-x="630" 
d="M155 17.5q-55 29.5 -85.5 82t-30.5 120.5q0 92 39.5 162t110 108t161.5 38q71 0 125.5 -29t85 -82t30.5 -121q0 -92 -39.5 -162t-110 -108t-161.5 -38q-70 0 -125 29.5zM375.5 119q39.5 24 62.5 68t23 100q0 64 -32.5 99t-86.5 35q-47 0 -86.5 -24t-63 -67.5t-23.5 -99.5
q0 -65 32.5 -100t87.5 -35q47 0 86.5 24zM406 590h-88l94 171h143z" />
    <glyph glyph-name="ocircumflex" unicode="&#xf4;" horiz-adv-x="630" 
d="M155 17.5q-55 29.5 -85.5 82t-30.5 120.5q0 92 39.5 162t110 108t161.5 38q71 0 125.5 -29t85 -82t30.5 -121q0 -92 -39.5 -162t-110 -108t-161.5 -38q-70 0 -125 29.5zM375.5 119q39.5 24 62.5 68t23 100q0 64 -32.5 99t-86.5 35q-47 0 -86.5 -24t-63 -67.5t-23.5 -99.5
q0 -65 32.5 -100t87.5 -35q47 0 86.5 24zM433 593l-60 98l-89 -98h-121l171 168h91l123 -168h-115z" />
    <glyph glyph-name="otilde" unicode="&#xf5;" horiz-adv-x="630" 
d="M155 17.5q-55 29.5 -85.5 82t-30.5 120.5q0 92 39.5 162t110 108t161.5 38q71 0 125.5 -29t85 -82t30.5 -121q0 -92 -39.5 -162t-110 -108t-161.5 -38q-70 0 -125 29.5zM375.5 119q39.5 24 62.5 68t23 100q0 64 -32.5 99t-86.5 35q-47 0 -86.5 -24t-63 -67.5t-23.5 -99.5
q0 -65 32.5 -100t87.5 -35q47 0 86.5 24zM389.5 633.5q-18.5 8.5 -42.5 23.5q-17 12 -28.5 17.5t-21.5 5.5q-32 0 -62 -39l-58 39q54 88 139 88q26 0 46.5 -8.5t42.5 -23.5q17 -11 28.5 -17t22.5 -6q31 0 61 39l60 -35q-27 -43 -64 -67.5t-80 -24.5q-25 0 -43.5 8.5z" />
    <glyph glyph-name="odieresis" unicode="&#xf6;" horiz-adv-x="630" 
d="M155 17.5q-55 29.5 -85.5 82t-30.5 120.5q0 92 39.5 162t110 108t161.5 38q71 0 125.5 -29t85 -82t30.5 -121q0 -92 -39.5 -162t-110 -108t-161.5 -38q-70 0 -125 29.5zM375.5 119q39.5 24 62.5 68t23 100q0 64 -32.5 99t-86.5 35q-47 0 -86.5 -24t-63 -67.5t-23.5 -99.5
q0 -65 32.5 -100t87.5 -35q47 0 86.5 24zM221 635.5q-20 20.5 -20 49.5t20 49.5t49 20.5t49.5 -20.5t20.5 -49.5t-20.5 -49.5t-49.5 -20.5t-49 20.5zM427.5 635.5q-20.5 20.5 -20.5 49.5t20.5 49.5t49.5 20.5q28 0 48 -20.5t20 -49.5t-20 -49.5t-48 -20.5q-29 0 -49.5 20.5z
" />
    <glyph glyph-name="divide" unicode="&#xf7;" horiz-adv-x="582" 
d="M251.5 388q-20.5 21 -20.5 50t20.5 50t49.5 21q30 0 51 -21t21 -50t-21 -50t-51 -21q-29 0 -49.5 21zM88 314h418l-10 -97h-418zM231.5 38q-20.5 21 -20.5 50t20.5 49.5t49.5 20.5q30 0 51 -20.5t21 -49.5t-21 -50t-51 -21q-29 0 -49.5 21z" />
    <glyph glyph-name="oslash" unicode="&#xf8;" horiz-adv-x="630" 
d="M574.5 388q16.5 -42 16.5 -92q0 -92 -39.5 -162t-110 -108t-161.5 -38q-68 0 -122 28l-29 -36h-88l62 75q-31 31 -47.5 73.5t-16.5 91.5q0 92 39.5 162t110 108t161.5 38q66 0 122 -27l29 35h88l-62 -75q31 -31 47.5 -73zM181 150l220 265q-25 12 -58 12q-49 0 -90 -25
t-65 -70t-24 -103q0 -47 17 -79zM377.5 114.5q40.5 24.5 64.5 70t24 103.5q0 47 -17 79l-219 -265q26 -12 58 -12q49 0 89.5 24.5z" />
    <glyph glyph-name="ugrave" unicode="&#xf9;" horiz-adv-x="593" 
d="M570 517l-72 -517h-117l2 86q-34 -47 -81 -72.5t-102 -25.5q-75 0 -116 44.5t-41 111.5q0 24 3 48l45 325h130l-42 -304q-3 -22 -3 -42q0 -43 22.5 -62t65.5 -19q59 0 93 44.5t44 103.5l39 279h130zM293 761l94 -171h-88l-149 171h143z" />
    <glyph glyph-name="uacute" unicode="&#xfa;" horiz-adv-x="593" 
d="M570 517l-72 -517h-117l2 86q-34 -47 -81 -72.5t-102 -25.5q-75 0 -116 44.5t-41 111.5q0 24 3 48l45 325h130l-42 -304q-3 -22 -3 -42q0 -43 22.5 -62t65.5 -19q59 0 93 44.5t44 103.5l39 279h130zM386 590h-88l94 171h143z" />
    <glyph glyph-name="ucircumflex" unicode="&#xfb;" horiz-adv-x="593" 
d="M570 517l-72 -517h-117l2 86q-34 -47 -81 -72.5t-102 -25.5q-75 0 -116 44.5t-41 111.5q0 24 3 48l45 325h130l-42 -304q-3 -22 -3 -42q0 -43 22.5 -62t65.5 -19q59 0 93 44.5t44 103.5l39 279h130zM413 593l-60 98l-89 -98h-121l171 168h91l123 -168h-115z" />
    <glyph glyph-name="udieresis" unicode="&#xfc;" horiz-adv-x="593" 
d="M570 517l-72 -517h-117l2 86q-34 -47 -81 -72.5t-102 -25.5q-75 0 -116 44.5t-41 111.5q0 24 3 48l45 325h130l-42 -304q-3 -22 -3 -42q0 -43 22.5 -62t65.5 -19q59 0 93 44.5t44 103.5l39 279h130zM201 635.5q-20 20.5 -20 49.5t20 49.5t49 20.5t49.5 -20.5t20.5 -49.5
t-20.5 -49.5t-49.5 -20.5t-49 20.5zM407.5 635.5q-20.5 20.5 -20.5 49.5t20.5 49.5t49.5 20.5q28 0 48 -20.5t20 -49.5t-20 -49.5t-48 -20.5q-29 0 -49.5 20.5z" />
    <glyph glyph-name="yacute" unicode="&#xfd;" horiz-adv-x="594" 
d="M570 517l-66 -475q-17 -124 -88.5 -188t-188.5 -64q-90 0 -145 36.5t-67 98.5l130 16q5 -29 27.5 -44t61.5 -15q61 0 94.5 39t44.5 117l7 50q-33 -45 -79 -69t-100 -24q-75 0 -116 44.5t-41 111.5q0 27 4 48l43 318h130l-41 -297q-3 -22 -3 -42q0 -44 22 -62.5t66 -18.5
q57 0 91 42.5t45 100.5l39 277h130zM390 590h-88l94 171h143z" />
    <glyph glyph-name="thorn" unicode="&#xfe;" horiz-adv-x="648" 
d="M511.5 500q46.5 -28 72.5 -79t26 -118q0 -90 -38 -162t-102.5 -112.5t-141.5 -40.5q-57 0 -99 24.5t-64 67.5l-39 -278h-130l135 958h130l-47 -328q34 45 83 70.5t108 25.5q60 0 106.5 -28zM391.5 119q38.5 24 62 67.5t23.5 100.5q0 63 -33 98.5t-89 35.5
q-49 0 -88 -25.5t-61.5 -69t-22.5 -95.5q0 -62 33.5 -99t91.5 -37q45 0 83.5 24z" />
    <glyph glyph-name="ydieresis" unicode="&#xff;" horiz-adv-x="594" 
d="M570 517l-66 -475q-17 -124 -88.5 -188t-188.5 -64q-90 0 -145 36.5t-67 98.5l130 16q5 -29 27.5 -44t61.5 -15q61 0 94.5 39t44.5 117l7 50q-33 -45 -79 -69t-100 -24q-75 0 -116 44.5t-41 111.5q0 27 4 48l43 318h130l-41 -297q-3 -22 -3 -42q0 -44 22 -62.5t66 -18.5
q57 0 91 42.5t45 100.5l39 277h130zM205 635.5q-20 20.5 -20 49.5t20 49.5t49 20.5t49.5 -20.5t20.5 -49.5t-20.5 -49.5t-49.5 -20.5t-49 20.5zM411.5 635.5q-20.5 20.5 -20.5 49.5t20.5 49.5t49.5 20.5q28 0 48 -20.5t20 -49.5t-20 -49.5t-48 -20.5q-29 0 -49.5 20.5z" />
    <glyph glyph-name="Amacron" unicode="&#x100;" 
d="M457 123h-297l-53 -123h-140l354 760h152l141 -760h-138zM441 226l-62 404l-174 -404h236zM285 977h285l-11 -82h-286z" />
    <glyph glyph-name="amacron" unicode="&#x101;" horiz-adv-x="647" 
d="M624 517l-72 -517h-119l3 85q-33 -43 -81.5 -70t-107.5 -27q-58 0 -105.5 28.5t-75 81.5t-27.5 124q0 88 37 158t100 109t138 39q61 0 104.5 -27t64.5 -72l12 88h129zM379 121q40 26 63 69.5t23 95.5q0 62 -32.5 98.5t-90.5 36.5q-45 0 -84.5 -23.5t-63 -66.5t-23.5 -99
q0 -64 33 -100.5t88 -36.5q47 0 87 26zM227 734h285l-11 -82h-286z" />
    <glyph glyph-name="Abreve" unicode="&#x102;" 
d="M457 123h-297l-53 -123h-140l354 760h152l141 -760h-138zM441 226l-62 404l-174 -404h236zM293.5 875q-39.5 45 -39.5 129h81q0 -46 22 -70.5t60 -24.5q73 0 102 95h81q-18 -85 -68.5 -129.5t-124.5 -44.5t-113.5 45z" />
    <glyph glyph-name="abreve" unicode="&#x103;" horiz-adv-x="647" 
d="M624 517l-72 -517h-119l3 85q-33 -43 -81.5 -70t-107.5 -27q-58 0 -105.5 28.5t-75 81.5t-27.5 124q0 88 37 158t100 109t138 39q61 0 104.5 -27t64.5 -72l12 88h129zM379 121q40 26 63 69.5t23 95.5q0 62 -32.5 98.5t-90.5 36.5q-45 0 -84.5 -23.5t-63 -66.5t-23.5 -99
q0 -64 33 -100.5t88 -36.5q47 0 87 26zM235.5 632q-39.5 45 -39.5 129h81q0 -46 22 -70.5t60 -24.5q73 0 102 95h81q-18 -85 -68.5 -129.5t-124.5 -44.5t-113.5 45z" />
    <glyph glyph-name="Aogonek" unicode="&#x104;" 
d="M457 123h-297l-53 -123h-140l354 760h152l141 -760h-138zM441 226l-62 404l-174 -404h236zM491 -25q-24 -22 -24 -57q0 -27 17 -40.5t49 -13.5q16 0 44 6l-5 -63q-34 -17 -80 -17q-51 0 -83 26t-32 74q0 60 48 99.5t119 49.5l4 -33q-33 -9 -57 -31z" />
    <glyph glyph-name="aogonek" unicode="&#x105;" horiz-adv-x="647" 
d="M624 517l-72 -517h-119l3 85q-33 -43 -81.5 -70t-107.5 -27q-58 0 -105.5 28.5t-75 81.5t-27.5 124q0 88 37 158t100 109t138 39q61 0 104.5 -27t64.5 -72l12 88h129zM379 121q40 26 63 69.5t23 95.5q0 62 -32.5 98.5t-90.5 36.5q-45 0 -84.5 -23.5t-63 -66.5t-23.5 -99
q0 -64 33 -100.5t88 -36.5q47 0 87 26zM461 -25q-24 -22 -24 -57q0 -27 17 -40.5t49 -13.5q16 0 44 6l-5 -63q-34 -17 -80 -17q-51 0 -83 26t-32 74q0 60 48 99.5t119 49.5l4 -33q-33 -9 -57 -31z" />
    <glyph glyph-name="Cacute" unicode="&#x106;" horiz-adv-x="827" 
d="M218 30.5q-77 42.5 -119.5 120.5t-42.5 182q0 119 56 219.5t154.5 160t219.5 59.5q93 0 165 -35t115.5 -98t55.5 -145l-139 -12q-15 81 -67.5 125.5t-133.5 44.5q-80 0 -146 -43t-104 -116t-38 -157q0 -104 56.5 -165t150.5 -61q82 0 150 46.5t104 123.5l135 -13
q-50 -127 -154.5 -203t-240.5 -76q-100 0 -177 42.5zM549 833h-88l94 171h143z" />
    <glyph glyph-name="cacute" unicode="&#x107;" horiz-adv-x="607" 
d="M152 18q-54 30 -83.5 82.5t-29.5 117.5q0 93 40 163.5t110 108.5t158 38q98 0 160 -50.5t74 -136.5l-129 -10q-8 44 -38 67t-73 23q-51 0 -90.5 -25t-60.5 -68t-21 -97q0 -63 32.5 -99.5t89.5 -36.5q46 0 85.5 25.5t59.5 71.5l123 -11q-29 -89 -102 -141t-180 -52
q-71 0 -125 30zM397 590h-88l94 171h143z" />
    <glyph glyph-name="Ccircumflex" unicode="&#x108;" horiz-adv-x="827" 
d="M218 30.5q-77 42.5 -119.5 120.5t-42.5 182q0 119 56 219.5t154.5 160t219.5 59.5q93 0 165 -35t115.5 -98t55.5 -145l-139 -12q-15 81 -67.5 125.5t-133.5 44.5q-80 0 -146 -43t-104 -116t-38 -157q0 -104 56.5 -165t150.5 -61q82 0 150 46.5t104 123.5l135 -13
q-50 -127 -154.5 -203t-240.5 -76q-100 0 -177 42.5zM576 836l-60 98l-89 -98h-121l171 168h91l123 -168h-115z" />
    <glyph glyph-name="ccircumflex" unicode="&#x109;" horiz-adv-x="607" 
d="M152 18q-54 30 -83.5 82.5t-29.5 117.5q0 93 40 163.5t110 108.5t158 38q98 0 160 -50.5t74 -136.5l-129 -10q-8 44 -38 67t-73 23q-51 0 -90.5 -25t-60.5 -68t-21 -97q0 -63 32.5 -99.5t89.5 -36.5q46 0 85.5 25.5t59.5 71.5l123 -11q-29 -89 -102 -141t-180 -52
q-71 0 -125 30zM424 593l-60 98l-89 -98h-121l171 168h91l123 -168h-115z" />
    <glyph glyph-name="Cdotaccent" unicode="&#x10a;" horiz-adv-x="827" 
d="M218 30.5q-77 42.5 -119.5 120.5t-42.5 182q0 119 56 219.5t154.5 160t219.5 59.5q93 0 165 -35t115.5 -98t55.5 -145l-139 -12q-15 81 -67.5 125.5t-133.5 44.5q-80 0 -146 -43t-104 -116t-38 -157q0 -104 56.5 -165t150.5 -61q82 0 150 46.5t104 123.5l135 -13
q-50 -127 -154.5 -203t-240.5 -76q-100 0 -177 42.5zM460 874q-23 23 -23 56t23 56t56 23q32 0 55 -23t23 -56t-23 -56t-55 -23q-33 0 -56 23z" />
    <glyph glyph-name="cdotaccent" unicode="&#x10b;" horiz-adv-x="607" 
d="M152 18q-54 30 -83.5 82.5t-29.5 117.5q0 93 40 163.5t110 108.5t158 38q98 0 160 -50.5t74 -136.5l-129 -10q-8 44 -38 67t-73 23q-51 0 -90.5 -25t-60.5 -68t-21 -97q0 -63 32.5 -99.5t89.5 -36.5q46 0 85.5 25.5t59.5 71.5l123 -11q-29 -89 -102 -141t-180 -52
q-71 0 -125 30zM308 631q-23 23 -23 56t23 56t56 23q32 0 55 -23t23 -56t-23 -56t-55 -23q-33 0 -56 23z" />
    <glyph glyph-name="Ccaron" unicode="&#x10c;" horiz-adv-x="827" 
d="M218 30.5q-77 42.5 -119.5 120.5t-42.5 182q0 119 56 219.5t154.5 160t219.5 59.5q93 0 165 -35t115.5 -98t55.5 -145l-139 -12q-15 81 -67.5 125.5t-133.5 44.5q-80 0 -146 -43t-104 -116t-38 -157q0 -104 56.5 -165t150.5 -61q82 0 150 46.5t104 123.5l135 -13
q-50 -127 -154.5 -203t-240.5 -76q-100 0 -177 42.5zM724 1004l-171 -168h-91l-123 168h115l60 -98l89 98h121z" />
    <glyph glyph-name="ccaron" unicode="&#x10d;" horiz-adv-x="607" 
d="M152 18q-54 30 -83.5 82.5t-29.5 117.5q0 93 40 163.5t110 108.5t158 38q98 0 160 -50.5t74 -136.5l-129 -10q-8 44 -38 67t-73 23q-51 0 -90.5 -25t-60.5 -68t-21 -97q0 -63 32.5 -99.5t89.5 -36.5q46 0 85.5 25.5t59.5 71.5l123 -11q-29 -89 -102 -141t-180 -52
q-71 0 -125 30zM572 761l-171 -168h-91l-123 168h115l60 -98l89 98h121z" />
    <glyph glyph-name="Dcaron" unicode="&#x10e;" horiz-adv-x="768" 
d="M584 718q78 -42 121 -115.5t43 -164.5q0 -127 -57.5 -226.5t-159 -155.5t-227.5 -56h-276l107 760h270q101 0 179 -42zM463.5 153q69.5 41 108 112.5t38.5 159.5q0 105 -62.5 164t-168.5 59h-126l-75 -536h126q90 0 159.5 41zM626 1004l-171 -168h-91l-123 168h115
l60 -98l89 98h121z" />
    <glyph glyph-name="dcaron" unicode="&#x10f;" horiz-adv-x="843" 
d="M529 760h130l-106 -760h-120l4 87q-33 -44 -81.5 -71.5t-106.5 -27.5q-59 0 -106.5 28t-75.5 81t-28 125q0 88 37 158t100 109t138 39q61 0 104.5 -26.5t64.5 -71.5zM897 760l-89 -171h-82l34 171h137zM379.5 120.5q39.5 25.5 62.5 69.5t23 96q0 62 -32.5 98.5
t-90.5 36.5q-45 0 -84 -23.5t-62.5 -66.5t-23.5 -99q0 -64 32.5 -100.5t87.5 -36.5q48 0 87.5 25.5z" />
    <glyph glyph-name="Dcroat" unicode="&#x110;" horiz-adv-x="804" 
d="M620 718q78 -42 121 -115.5t43 -164.5q0 -127 -57.5 -226.5t-159 -155.5t-227.5 -56h-276l49 347h-89l13 99h90l44 314h270q101 0 179 -42zM499.5 153q69.5 41 108 112.5t38.5 159.5q0 105 -62.5 164t-168.5 59h-126l-28 -202h202l-13 -99h-203l-33 -235h126
q90 0 159.5 41z" />
    <glyph glyph-name="dcroat" unicode="&#x111;" horiz-adv-x="686" 
d="M732 603h-95l-84 -603h-120l4 87q-33 -44 -81.5 -71.5t-106.5 -27.5q-59 0 -106.5 28t-75.5 81t-28 125q0 88 37 158t100 109t138 39q61 0 104.5 -26.5t64.5 -71.5l24 173h-221l12 83h221l10 74h130l-10 -74h96zM379.5 120.5q39.5 25.5 62.5 69.5t23 96q0 62 -32.5 98.5
t-90.5 36.5q-45 0 -84 -23.5t-62.5 -66.5t-23.5 -99q0 -64 32.5 -100.5t87.5 -36.5q48 0 87.5 25.5z" />
    <glyph glyph-name="Emacron" unicode="&#x112;" horiz-adv-x="556" 
d="M253 648l-28 -198h296l-15 -110h-296l-32 -228h306l-15 -112h-441l107 760h437l-16 -112h-303zM241 977h285l-11 -82h-286z" />
    <glyph glyph-name="emacron" unicode="&#x113;" horiz-adv-x="617" 
d="M168 220v-4q0 -61 33.5 -96t84.5 -35q49 0 85 21t58 57l128 -12q-42 -80 -113.5 -121.5t-166.5 -41.5q-72 0 -126 31t-83 84t-29 116q0 90 39 160.5t108.5 109.5t158.5 39q75 0 128 -29.5t80 -79.5t27 -113q0 -36 -9 -86h-403zM240 396.5q-43 -34.5 -61 -96.5h273v1
q0 63 -29 96.5t-82 33.5q-58 0 -101 -34.5zM232 734h285l-11 -82h-286z" />
    <glyph glyph-name="Ebreve" unicode="&#x114;" horiz-adv-x="556" 
d="M253 648l-28 -198h296l-15 -110h-296l-32 -228h306l-15 -112h-441l107 760h437l-16 -112h-303zM249.5 875q-39.5 45 -39.5 129h81q0 -46 22 -70.5t60 -24.5q73 0 102 95h81q-18 -85 -68.5 -129.5t-124.5 -44.5t-113.5 45z" />
    <glyph glyph-name="ebreve" unicode="&#x115;" horiz-adv-x="617" 
d="M168 220v-4q0 -61 33.5 -96t84.5 -35q49 0 85 21t58 57l128 -12q-42 -80 -113.5 -121.5t-166.5 -41.5q-72 0 -126 31t-83 84t-29 116q0 90 39 160.5t108.5 109.5t158.5 39q75 0 128 -29.5t80 -79.5t27 -113q0 -36 -9 -86h-403zM240 396.5q-43 -34.5 -61 -96.5h273v1
q0 63 -29 96.5t-82 33.5q-58 0 -101 -34.5zM240.5 632q-39.5 45 -39.5 129h81q0 -46 22 -70.5t60 -24.5q73 0 102 95h81q-18 -85 -68.5 -129.5t-124.5 -44.5t-113.5 45z" />
    <glyph glyph-name="Edotaccent" unicode="&#x116;" horiz-adv-x="556" 
d="M253 648l-28 -198h296l-15 -110h-296l-32 -228h306l-15 -112h-441l107 760h437l-16 -112h-303zM319 874q-23 23 -23 56t23 56t56 23q32 0 55 -23t23 -56t-23 -56t-55 -23q-33 0 -56 23z" />
    <glyph glyph-name="edotaccent" unicode="&#x117;" horiz-adv-x="617" 
d="M168 220v-4q0 -61 33.5 -96t84.5 -35q49 0 85 21t58 57l128 -12q-42 -80 -113.5 -121.5t-166.5 -41.5q-72 0 -126 31t-83 84t-29 116q0 90 39 160.5t108.5 109.5t158.5 39q75 0 128 -29.5t80 -79.5t27 -113q0 -36 -9 -86h-403zM240 396.5q-43 -34.5 -61 -96.5h273v1
q0 63 -29 96.5t-82 33.5q-58 0 -101 -34.5zM310 631q-23 23 -23 56t23 56t56 23q32 0 55 -23t23 -56t-23 -56t-55 -23q-33 0 -56 23z" />
    <glyph glyph-name="Eogonek" unicode="&#x118;" horiz-adv-x="556" 
d="M253 648l-28 -198h296l-15 -110h-296l-32 -228h306l-15 -112h-441l107 760h437l-16 -112h-303zM354 -25q-24 -22 -24 -57q0 -27 17 -40.5t49 -13.5q16 0 44 6l-5 -63q-34 -17 -80 -17q-51 0 -83 26t-32 74q0 60 48 99.5t119 49.5l4 -33q-33 -9 -57 -31z" />
    <glyph glyph-name="eogonek" unicode="&#x119;" horiz-adv-x="617" 
d="M168 220v-4q0 -61 33.5 -96t84.5 -35q49 0 85 21t58 57l128 -12q-42 -80 -113.5 -121.5t-166.5 -41.5q-72 0 -126 31t-83 84t-29 116q0 90 39 160.5t108.5 109.5t158.5 39q75 0 128 -29.5t80 -79.5t27 -113q0 -36 -9 -86h-403zM240 396.5q-43 -34.5 -61 -96.5h273v1
q0 63 -29 96.5t-82 33.5q-58 0 -101 -34.5zM327 -25q-24 -22 -24 -57q0 -27 17 -40.5t49 -13.5q16 0 44 6l-5 -63q-34 -17 -80 -17q-51 0 -83 26t-32 74q0 60 48 99.5t119 49.5l4 -33q-33 -9 -57 -31z" />
    <glyph glyph-name="Ecaron" unicode="&#x11a;" horiz-adv-x="556" 
d="M253 648l-28 -198h296l-15 -110h-296l-32 -228h306l-15 -112h-441l107 760h437l-16 -112h-303zM583 1004l-171 -168h-91l-123 168h115l60 -98l89 98h121z" />
    <glyph glyph-name="ecaron" unicode="&#x11b;" horiz-adv-x="617" 
d="M168 220v-4q0 -61 33.5 -96t84.5 -35q49 0 85 21t58 57l128 -12q-42 -80 -113.5 -121.5t-166.5 -41.5q-72 0 -126 31t-83 84t-29 116q0 90 39 160.5t108.5 109.5t158.5 39q75 0 128 -29.5t80 -79.5t27 -113q0 -36 -9 -86h-403zM240 396.5q-43 -34.5 -61 -96.5h273v1
q0 63 -29 96.5t-82 33.5q-58 0 -101 -34.5zM574 761l-171 -168h-91l-123 168h115l60 -98l89 98h121z" />
    <glyph glyph-name="Gcircumflex" unicode="&#x11c;" horiz-adv-x="815" 
d="M411 414h364l-44 -318q-65 -48 -147.5 -78t-179.5 -30q-109 0 -187.5 42t-120 119t-41.5 179q0 122 55 223.5t153 161t222 59.5q87 0 153 -31.5t107 -83.5t57 -114l-142 -13q-16 50 -63.5 86.5t-123.5 36.5q-83 0 -147.5 -44.5t-99.5 -118.5t-35 -158q0 -109 59.5 -168.5
t171.5 -59.5q106 0 191 51l21 157h-237zM565 836l-60 98l-89 -98h-121l171 168h91l123 -168h-115z" />
    <glyph glyph-name="gcircumflex" unicode="&#x11d;" horiz-adv-x="648" 
d="M624 517l-64 -460q-19 -133 -92 -200t-203 -67q-93 0 -153.5 36.5t-77.5 97.5l132 17q24 -59 103 -59q136 0 159 161l6 43q-32 -41 -80 -66.5t-106 -25.5q-59 0 -106.5 27.5t-75 79.5t-27.5 122q0 88 37 157.5t100.5 108.5t140.5 39q60 0 103 -27.5t63 -73.5l22 90h119z
M379.5 122.5q39.5 25.5 62.5 69t23 95.5q0 59 -33.5 96.5t-89.5 37.5q-46 0 -85.5 -23t-62.5 -65.5t-23 -97.5q0 -65 32 -101.5t91 -36.5q46 0 85.5 25.5zM430 593l-60 98l-89 -98h-121l171 168h91l123 -168h-115z" />
    <glyph glyph-name="Gbreve" unicode="&#x11e;" horiz-adv-x="815" 
d="M411 414h364l-44 -318q-65 -48 -147.5 -78t-179.5 -30q-109 0 -187.5 42t-120 119t-41.5 179q0 122 55 223.5t153 161t222 59.5q87 0 153 -31.5t107 -83.5t57 -114l-142 -13q-16 50 -63.5 86.5t-123.5 36.5q-83 0 -147.5 -44.5t-99.5 -118.5t-35 -158q0 -109 59.5 -168.5
t171.5 -59.5q106 0 191 51l21 157h-237zM379.5 875q-39.5 45 -39.5 129h81q0 -46 22 -70.5t60 -24.5q73 0 102 95h81q-18 -85 -68.5 -129.5t-124.5 -44.5t-113.5 45z" />
    <glyph glyph-name="gbreve" unicode="&#x11f;" horiz-adv-x="648" 
d="M624 517l-64 -460q-19 -133 -92 -200t-203 -67q-93 0 -153.5 36.5t-77.5 97.5l132 17q24 -59 103 -59q136 0 159 161l6 43q-32 -41 -80 -66.5t-106 -25.5q-59 0 -106.5 27.5t-75 79.5t-27.5 122q0 88 37 157.5t100.5 108.5t140.5 39q60 0 103 -27.5t63 -73.5l22 90h119z
M379.5 122.5q39.5 25.5 62.5 69t23 95.5q0 59 -33.5 96.5t-89.5 37.5q-46 0 -85.5 -23t-62.5 -65.5t-23 -97.5q0 -65 32 -101.5t91 -36.5q46 0 85.5 25.5zM244.5 632q-39.5 45 -39.5 129h81q0 -46 22 -70.5t60 -24.5q73 0 102 95h81q-18 -85 -68.5 -129.5t-124.5 -44.5
t-113.5 45z" />
    <glyph glyph-name="Gdotaccent" unicode="&#x120;" horiz-adv-x="815" 
d="M411 414h364l-44 -318q-65 -48 -147.5 -78t-179.5 -30q-109 0 -187.5 42t-120 119t-41.5 179q0 122 55 223.5t153 161t222 59.5q87 0 153 -31.5t107 -83.5t57 -114l-142 -13q-16 50 -63.5 86.5t-123.5 36.5q-83 0 -147.5 -44.5t-99.5 -118.5t-35 -158q0 -109 59.5 -168.5
t171.5 -59.5q106 0 191 51l21 157h-237zM449 874q-23 23 -23 56t23 56t56 23q32 0 55 -23t23 -56t-23 -56t-55 -23q-33 0 -56 23z" />
    <glyph glyph-name="gdotaccent" unicode="&#x121;" horiz-adv-x="648" 
d="M624 517l-64 -460q-19 -133 -92 -200t-203 -67q-93 0 -153.5 36.5t-77.5 97.5l132 17q24 -59 103 -59q136 0 159 161l6 43q-32 -41 -80 -66.5t-106 -25.5q-59 0 -106.5 27.5t-75 79.5t-27.5 122q0 88 37 157.5t100.5 108.5t140.5 39q60 0 103 -27.5t63 -73.5l22 90h119z
M379.5 122.5q39.5 25.5 62.5 69t23 95.5q0 59 -33.5 96.5t-89.5 37.5q-46 0 -85.5 -23t-62.5 -65.5t-23 -97.5q0 -65 32 -101.5t91 -36.5q46 0 85.5 25.5zM314 631q-23 23 -23 56t23 56t56 23q32 0 55 -23t23 -56t-23 -56t-55 -23q-33 0 -56 23z" />
    <glyph glyph-name="Gcommaaccent" unicode="&#x122;" horiz-adv-x="815" 
d="M411 414h364l-44 -318q-65 -48 -147.5 -78t-179.5 -30q-109 0 -187.5 42t-120 119t-41.5 179q0 122 55 223.5t153 161t222 59.5q87 0 153 -31.5t107 -83.5t57 -114l-142 -13q-16 50 -63.5 86.5t-123.5 36.5q-83 0 -147.5 -44.5t-99.5 -118.5t-35 -158q0 -109 59.5 -168.5
t171.5 -59.5q106 0 191 51l21 157h-237zM355 -206h-88l75 139h143z" />
    <glyph glyph-name="gcommaaccent" unicode="&#x123;" horiz-adv-x="647" 
d="M624 517l-64 -460q-19 -133 -92 -200t-203 -67q-93 0 -153.5 36.5t-77.5 97.5l132 17q24 -59 103 -59q136 0 159 161l6 43q-32 -41 -80 -66.5t-106 -25.5q-59 0 -106.5 27.5t-75 79.5t-27.5 122q0 88 37 157.5t100.5 108.5t140.5 39q60 0 103 -27.5t63 -73.5l22 90h119z
M379.5 122.5q39.5 25.5 62.5 69t23 95.5q0 59 -33.5 96.5t-89.5 37.5q-46 0 -85.5 -23t-62.5 -65.5t-23 -97.5q0 -65 32 -101.5t91 -36.5q46 0 85.5 25.5zM410 742h88l-75 -139h-143z" />
    <glyph glyph-name="Hcircumflex" unicode="&#x124;" horiz-adv-x="692" 
d="M698 760l-106 -760h-134l48 338h-296l-48 -338h-134l107 760h134l-44 -310h296l44 310h133zM497 836l-60 98l-89 -98h-121l171 168h91l123 -168h-115z" />
    <glyph glyph-name="hcircumflex" unicode="&#x125;" horiz-adv-x="602" 
d="M518.5 482q40.5 -46 40.5 -118q0 -23 -5 -55l-43 -309h-130l41 295q5 35 5 45q0 44 -21 65.5t-66 21.5q-60 0 -97 -41.5t-49 -100.5l-40 -285h-130l107 760h130l-46 -325q34 46 81 69.5t102 23.5q80 0 120.5 -46zM470 836l-60 98l-89 -98h-121l171 168h91l123 -168h-115z
" />
    <glyph glyph-name="Hbar" unicode="&#x126;" horiz-adv-x="724" 
d="M755 548h-71l-76 -548h-134l48 338h-296l-48 -338h-134l77 548h-70l14 99h70l16 113h134l-16 -113h296l16 113h133l-16 -113h71zM551 548h-296l-14 -98h296z" />
    <glyph glyph-name="hbar" unicode="&#x127;" horiz-adv-x="641" 
d="M558.5 482q40.5 -46 40.5 -118q0 -23 -5 -55l-43 -309h-130l41 295q5 35 5 45q0 44 -21 65.5t-66 21.5q-60 0 -97 -41.5t-49 -100.5l-40 -285h-130l85 603h-99l13 83h98l10 74h130l-10 -74h219l-13 -83h-218l-24 -168q34 46 81 69.5t102 23.5q80 0 120.5 -46z" />
    <glyph glyph-name="Itilde" unicode="&#x128;" horiz-adv-x="262" 
d="M135 760h134l-107 -760h-134zM238.5 876.5q-18.5 8.5 -42.5 23.5q-17 12 -28.5 17.5t-21.5 5.5q-32 0 -62 -39l-58 39q54 88 139 88q26 0 46.5 -8.5t42.5 -23.5q17 -11 28.5 -17t22.5 -6q31 0 61 39l60 -35q-27 -43 -64 -67.5t-80 -24.5q-25 0 -43.5 8.5z" />
    <glyph glyph-name="itilde" unicode="&#x129;" horiz-adv-x="252" 
d="M97 517h130l-72 -517h-130zM201.5 633.5q-18.5 8.5 -42.5 23.5q-17 12 -28.5 17.5t-21.5 5.5q-32 0 -62 -39l-58 39q54 88 139 88q26 0 46.5 -8.5t42.5 -23.5q17 -11 28.5 -17t22.5 -6q31 0 61 39l60 -35q-27 -43 -64 -67.5t-80 -24.5q-25 0 -43.5 8.5z" />
    <glyph glyph-name="Imacron" unicode="&#x12a;" horiz-adv-x="262" 
d="M135 760h134l-107 -760h-134zM88 977h285l-11 -82h-286z" />
    <glyph glyph-name="imacron" unicode="&#x12b;" horiz-adv-x="252" 
d="M97 517h130l-72 -517h-130zM51 734h285l-11 -82h-286z" />
    <glyph glyph-name="Ibreve" unicode="&#x12c;" horiz-adv-x="262" 
d="M135 760h134l-107 -760h-134zM96.5 875q-39.5 45 -39.5 129h81q0 -46 22 -70.5t60 -24.5q73 0 102 95h81q-18 -85 -68.5 -129.5t-124.5 -44.5t-113.5 45z" />
    <glyph glyph-name="ibreve" unicode="&#x12d;" horiz-adv-x="252" 
d="M97 517h130l-72 -517h-130zM59.5 632q-39.5 45 -39.5 129h81q0 -46 22 -70.5t60 -24.5q73 0 102 95h81q-18 -85 -68.5 -129.5t-124.5 -44.5t-113.5 45z" />
    <glyph glyph-name="Iogonek" unicode="&#x12e;" horiz-adv-x="262" 
d="M135 760h134l-107 -760h-134zM54 -25q-24 -22 -24 -57q0 -27 17 -40.5t49 -13.5q16 0 44 6l-5 -63q-34 -17 -80 -17q-51 0 -83 26t-32 74q0 60 48 99.5t119 49.5l4 -33q-33 -9 -57 -31z" />
    <glyph glyph-name="iogonek" unicode="&#x12f;" horiz-adv-x="252" 
d="M97 517h130l-72 -517h-130zM129 631q-23 23 -23 56t23 56t56 23q32 0 55 -23t23 -56t-23 -56t-55 -23q-33 0 -56 23zM52 -25q-24 -22 -24 -57q0 -27 17 -40.5t49 -13.5q16 0 44 6l-5 -63q-34 -17 -80 -17q-51 0 -83 26t-32 74q0 60 48 99.5t119 49.5l4 -33
q-33 -9 -57 -31z" />
    <glyph glyph-name="Idotaccent" unicode="&#x130;" horiz-adv-x="262" 
d="M135 760h134l-107 -760h-134zM166 874q-23 23 -23 56t23 56t56 23q32 0 55 -23t23 -56t-23 -56t-55 -23q-33 0 -56 23z" />
    <glyph glyph-name="dotlessi" unicode="&#x131;" horiz-adv-x="252" 
d="M97 517h130l-72 -517h-130z" />
    <glyph glyph-name="IJ" unicode="&#x132;" horiz-adv-x="643" 
d="M219.5 1.5q-46.5 13.5 -74.5 33.5l61 101q22 -13 50.5 -21.5t56.5 -8.5q56 0 91 36.5t47 120.5l69 498h134l-73 -514q-17 -128 -87 -193.5t-176 -65.5q-52 0 -98.5 13.5zM135 760h134l-71 -501h-134z" />
    <glyph glyph-name="ij" unicode="&#x133;" horiz-adv-x="522" 
d="M128 627q-24 24 -24 58t24 58.5t58 24.5t58 -24.5t24 -58.5t-24 -58t-58 -24t-58 24zM97 517h130l-72 -517h-130zM397 627q-24 24 -24 58t24 58.5t58 24.5t58 -24t24 -59q0 -34 -24 -58t-58 -24t-58 24zM119 -194l23 100q37 -10 71 -10q39 0 55.5 20.5t24.5 74.5l74 526
h129l-77 -548q-14 -96 -61.5 -137.5t-128.5 -41.5q-64 0 -110 16z" />
    <glyph glyph-name="Jcircumflex" unicode="&#x134;" horiz-adv-x="609" 
d="M93.5 51q-64.5 63 -64.5 177l133 9q0 -64 27.5 -95.5t79.5 -31.5q124 0 147 156l70 494h133l-69 -493q-20 -145 -92.5 -212t-193.5 -67q-106 0 -170.5 63zM635 836l-60 98l-89 -98h-121l171 168h91l123 -168h-115z" />
    <glyph glyph-name="jcircumflex" unicode="&#x135;" horiz-adv-x="268" 
d="M-134 -194l23 100q37 -10 71 -10q39 0 55.5 20.5t24.5 74.5l74 526h129l-77 -548q-14 -96 -61.5 -137.5t-128.5 -41.5q-64 0 -110 16zM238 593l-32 101l-60 -101h-118l141 168h91l93 -168h-115z" />
    <glyph glyph-name="Kcommaaccent" unicode="&#x136;" horiz-adv-x="638" 
d="M403 440l194 -440h-142l-143 338l-122 -136l-28 -202h-134l107 760h134l-52 -369l319 369h153zM241 -206h-88l75 139h143z" />
    <glyph glyph-name="kcommaaccent" unicode="&#x137;" horiz-adv-x="534" 
d="M338 320l165 -320h-131l-122 238l-73 -67l-24 -171h-129l107 760h128l-60 -433l196 190h156zM206 -206h-88l75 139h143z" />
    <glyph glyph-name="kgreenlandic" unicode="&#x138;" horiz-adv-x="536" 
d="M434.5 402.5q-19.5 -10.5 -45.5 -33.5l-46 -43l162 -326h-130l-120 246l-79 -73l-24 -173h-128l72 517h128l-26 -188l127 119q39 36 77.5 52.5t84.5 16.5h34l-15 -104h-26q-26 0 -45.5 -10.5z" />
    <glyph glyph-name="Lacute" unicode="&#x139;" horiz-adv-x="502" 
d="M461 112l-16 -112h-417l107 760h134l-91 -648h283zM261 833h-88l94 171h143z" />
    <glyph glyph-name="lacute" unicode="&#x13a;" horiz-adv-x="304" 
d="M85 18.5q-41 30.5 -41 101.5q0 21 6 65l81 575h129l-80 -570q-4 -21 -4 -40q0 -32 16 -44t55 -12h10l-7 -103q-18 -3 -41 -3q-83 0 -124 30.5zM251 833h-88l94 171h143z" />
    <glyph glyph-name="Lcommaaccent" unicode="&#x13b;" horiz-adv-x="502" 
d="M461 112l-16 -112h-417l107 760h134l-91 -648h283zM192 -206h-88l75 139h143z" />
    <glyph glyph-name="lcommaaccent" unicode="&#x13c;" horiz-adv-x="304" 
d="M85 18.5q-41 30.5 -41 101.5q0 21 6 65l81 575h129l-80 -570q-4 -21 -4 -40q0 -32 16 -44t55 -12h10l-7 -103q-18 -3 -41 -3q-83 0 -124 30.5zM76 -206h-88l75 139h143z" />
    <glyph glyph-name="Lcaron" unicode="&#x13d;" horiz-adv-x="525" 
d="M178 112h283l-16 -112h-417l107 760h134zM453 570h-75l36 190h130z" />
    <glyph glyph-name="lcaron" unicode="&#x13e;" horiz-adv-x="440" 
d="M85 18.5q-41 30.5 -41 101.5q0 21 6 65l81 575h129l-80 -570q-4 -21 -4 -40q0 -32 16 -44t55 -12h10l-7 -103q-18 -3 -41 -3q-83 0 -124 30.5zM405 589h-75l33 171h131z" />
    <glyph glyph-name="Ldot" unicode="&#x13f;" horiz-adv-x="519" 
d="M461 112l-16 -112h-417l107 760h134l-91 -648h283zM352.835 339q-22.1963 23 -21.0791 55t24.9023 54.5t54.7852 22.5q32 0 54.2148 -22.5t21.0977 -54.5t-24.9209 -55q-23.8027 -23 -55.8027 -23q-31 0 -53.1973 23z" />
    <glyph glyph-name="ldot" unicode="&#x140;" horiz-adv-x="435" 
d="M303.835 339q-22.1963 23 -21.0791 55t24.9023 54.5t54.7852 22.5q32 0 54.2148 -22.5t21.0977 -54.5t-24.9209 -55q-23.8027 -23 -55.8027 -23q-31 0 -53.1973 23zM85 18.5q-41 30.5 -41 101.5q0 21 6 65l81 575h129l-80 -570q-4 -21 -4 -40q0 -32 16 -44t55 -12h10
l-7 -103q-18 -3 -41 -3q-83 0 -124 30.5z" />
    <glyph glyph-name="Lslash" unicode="&#x141;" horiz-adv-x="552" 
d="M511 112l-16 -112h-417l41 290l-69 -31l-30 84l114 52l51 365h134l-42 -300l170 78l30 -84l-215 -98l-34 -244h283z" />
    <glyph glyph-name="lslash" unicode="&#x142;" horiz-adv-x="417" 
d="M247 106q16 -12 55 -12h10l-7 -103q-18 -3 -41 -3q-83 0 -124 30.5t-41 101.5q0 21 6 65l15 110l-69 -32l-29 80l112 51l52 366h129l-43 -303l132 60l29 -80l-174 -79l-24 -168q-4 -21 -4 -40q0 -32 16 -44z" />
    <glyph glyph-name="Nacute" unicode="&#x143;" horiz-adv-x="695" 
d="M701 760l-106 -760h-132l-223 568l-80 -568h-132l107 760h132l223 -566l79 566h132zM473 833h-88l94 171h143z" />
    <glyph glyph-name="nacute" unicode="&#x144;" horiz-adv-x="602" 
d="M518 482q41 -46 41 -118q0 -23 -5 -55l-43 -309h-130l41 295q4 28 4 45q0 45 -20.5 66t-65.5 21q-62 0 -99.5 -44t-47.5 -106l-39 -277h-130l72 517h117v-85q33 47 81 71.5t104 24.5q79 0 120 -46zM398 590h-88l94 171h143z" />
    <glyph glyph-name="Ncommaaccent" unicode="&#x145;" horiz-adv-x="695" 
d="M701 760l-106 -760h-132l-223 568l-80 -568h-132l107 760h132l223 -566l79 566h132zM271 -206h-88l75 139h143z" />
    <glyph glyph-name="ncommaaccent" unicode="&#x146;" horiz-adv-x="602" 
d="M518 482q41 -46 41 -118q0 -23 -5 -55l-43 -309h-130l41 295q4 28 4 45q0 45 -20.5 66t-65.5 21q-62 0 -99.5 -44t-47.5 -106l-39 -277h-130l72 517h117v-85q33 47 81 71.5t104 24.5q79 0 120 -46zM219 -206h-88l75 139h143z" />
    <glyph glyph-name="Ncaron" unicode="&#x147;" horiz-adv-x="695" 
d="M701 760l-106 -760h-132l-223 568l-80 -568h-132l107 760h132l223 -566l79 566h132zM648 1004l-171 -168h-91l-123 168h115l60 -98l89 98h121z" />
    <glyph glyph-name="ncaron" unicode="&#x148;" horiz-adv-x="602" 
d="M518 482q41 -46 41 -118q0 -23 -5 -55l-43 -309h-130l41 295q4 28 4 45q0 45 -20.5 66t-65.5 21q-62 0 -99.5 -44t-47.5 -106l-39 -277h-130l72 517h117v-85q33 47 81 71.5t104 24.5q79 0 120 -46zM573 761l-171 -168h-91l-123 168h115l60 -98l89 98h121z" />
    <glyph glyph-name="napostrophe" unicode="&#x149;" horiz-adv-x="665" 
d="M129 589h-82l94 171h138zM582 482q41 -46 41 -118q0 -23 -5 -55l-43 -309h-130l41 295q4 28 4 45q0 45 -20.5 66t-65.5 21q-62 0 -99.5 -44t-47.5 -106l-39 -277h-130l72 517h117v-85q33 47 81 71.5t104 24.5q79 0 120 -46z" />
    <glyph glyph-name="Eng" unicode="&#x14a;" horiz-adv-x="695" 
d="M702 760l-99 -696q-19 -136 -96 -205t-199 -69q-32 0 -52 4l24 108q17 -3 39 -3q55 0 95.5 33.5t53.5 101.5l-226 540l-81 -574h-133l107 760h133l227 -537l74 537h133z" />
    <glyph glyph-name="eng" unicode="&#x14b;" horiz-adv-x="602" 
d="M554 309l-36 -262l-11 -78q-13 -94 -62 -136.5t-131 -42.5q-61 0 -107 16l22 100q37 -10 71 -10q38 0 54.5 19.5t24.5 69.5l2 15l2 13l24 178h1l14 104q4 28 4 45q0 45 -20.5 66t-65.5 21q-64 0 -101.5 -45.5t-46.5 -108.5h-1l-37 -273h-130l72 517h117l-1 -86
q34 47 82 72t104 25q79 0 120 -46t41 -118q0 -23 -5 -55z" />
    <glyph glyph-name="Omacron" unicode="&#x14c;" horiz-adv-x="848" 
d="M216.5 31q-76.5 43 -118.5 121.5t-42 181.5q0 123 58 223t157.5 157.5t217.5 57.5q101 0 177.5 -43t118.5 -121.5t42 -181.5q0 -123 -58 -223t-157.5 -157.5t-217.5 -57.5q-101 0 -177.5 43zM544.5 151.5q66.5 42.5 105.5 115t39 158.5q0 104 -56 165t-150 61
q-78 0 -144.5 -42.5t-105.5 -115t-39 -158.5q0 -104 56 -165t150 -61q78 0 144.5 42.5zM383 977h285l-11 -82h-286z" />
    <glyph glyph-name="omacron" unicode="&#x14d;" horiz-adv-x="630" 
d="M155 17.5q-55 29.5 -85.5 82t-30.5 120.5q0 92 39.5 162t110 108t161.5 38q71 0 125.5 -29t85 -82t30.5 -121q0 -92 -39.5 -162t-110 -108t-161.5 -38q-70 0 -125 29.5zM375.5 119q39.5 24 62.5 68t23 100q0 64 -32.5 99t-86.5 35q-47 0 -86.5 -24t-63 -67.5t-23.5 -99.5
q0 -65 32.5 -100t87.5 -35q47 0 86.5 24zM239 734h285l-11 -82h-286z" />
    <glyph glyph-name="Obreve" unicode="&#x14e;" horiz-adv-x="848" 
d="M216.5 31q-76.5 43 -118.5 121.5t-42 181.5q0 123 58 223t157.5 157.5t217.5 57.5q101 0 177.5 -43t118.5 -121.5t42 -181.5q0 -123 -58 -223t-157.5 -157.5t-217.5 -57.5q-101 0 -177.5 43zM544.5 151.5q66.5 42.5 105.5 115t39 158.5q0 104 -56 165t-150 61
q-78 0 -144.5 -42.5t-105.5 -115t-39 -158.5q0 -104 56 -165t150 -61q78 0 144.5 42.5zM391.5 875q-39.5 45 -39.5 129h81q0 -46 22 -70.5t60 -24.5q73 0 102 95h81q-18 -85 -68.5 -129.5t-124.5 -44.5t-113.5 45z" />
    <glyph glyph-name="obreve" unicode="&#x14f;" horiz-adv-x="630" 
d="M155 17.5q-55 29.5 -85.5 82t-30.5 120.5q0 92 39.5 162t110 108t161.5 38q71 0 125.5 -29t85 -82t30.5 -121q0 -92 -39.5 -162t-110 -108t-161.5 -38q-70 0 -125 29.5zM375.5 119q39.5 24 62.5 68t23 100q0 64 -32.5 99t-86.5 35q-47 0 -86.5 -24t-63 -67.5t-23.5 -99.5
q0 -65 32.5 -100t87.5 -35q47 0 86.5 24zM247.5 632q-39.5 45 -39.5 129h81q0 -46 22 -70.5t60 -24.5q73 0 102 95h81q-18 -85 -68.5 -129.5t-124.5 -44.5t-113.5 45z" />
    <glyph glyph-name="Ohungarumlaut" unicode="&#x150;" horiz-adv-x="848" 
d="M216.5 31q-76.5 43 -118.5 121.5t-42 181.5q0 123 58 223t157.5 157.5t217.5 57.5q101 0 177.5 -43t118.5 -121.5t42 -181.5q0 -123 -58 -223t-157.5 -157.5t-217.5 -57.5q-101 0 -177.5 43zM544.5 151.5q66.5 42.5 105.5 115t39 158.5q0 104 -56 165t-150 61
q-78 0 -144.5 -42.5t-105.5 -115t-39 -158.5q0 -104 56 -165t150 -61q78 0 144.5 42.5zM425 833h-88l94 171h143zM638 833h-88l94 171h143z" />
    <glyph glyph-name="ohungarumlaut" unicode="&#x151;" horiz-adv-x="630" 
d="M155 17.5q-55 29.5 -85.5 82t-30.5 120.5q0 92 39.5 162t110 108t161.5 38q71 0 125.5 -29t85 -82t30.5 -121q0 -92 -39.5 -162t-110 -108t-161.5 -38q-70 0 -125 29.5zM375.5 119q39.5 24 62.5 68t23 100q0 64 -32.5 99t-86.5 35q-47 0 -86.5 -24t-63 -67.5t-23.5 -99.5
q0 -65 32.5 -100t87.5 -35q47 0 86.5 24zM281 590h-88l94 171h143zM494 590h-88l94 171h143z" />
    <glyph glyph-name="OE" unicode="&#x152;" horiz-adv-x="1164" 
d="M216.5 31q-76.5 43 -118.5 121.5t-42 181.5q0 123 58 223t157.5 157.5t217.5 57.5q101 0 177.5 -43t118.5 -121.5t42 -181.5q0 -123 -58 -223t-157.5 -157.5t-217.5 -57.5q-101 0 -177.5 43zM544.5 151.5q66.5 42.5 105.5 115t39 158.5q0 104 -56 165t-150 61
q-78 0 -144.5 -42.5t-105.5 -115t-39 -158.5q0 -104 56 -165t150 -61q78 0 144.5 42.5zM861 648l-28 -198h296l-15 -110h-296l-32 -228h306l-15 -112h-441l107 760h437l-16 -112h-303z" />
    <glyph glyph-name="oe" unicode="&#x153;" horiz-adv-x="1036" 
d="M155 17.5q-55 29.5 -85.5 82t-30.5 120.5q0 92 39.5 162t110 108t161.5 38q71 0 125.5 -29t85 -82t30.5 -121q0 -92 -39.5 -162t-110 -108t-161.5 -38q-70 0 -125 29.5zM375.5 119q39.5 24 62.5 68t23 100q0 64 -32.5 99t-86.5 35q-47 0 -86.5 -24t-63 -67.5t-23.5 -99.5
q0 -65 32.5 -100t87.5 -35q47 0 86.5 24zM587 220v-4q0 -61 33.5 -96t84.5 -35q49 0 85 21t58 57l128 -12q-42 -80 -113.5 -121.5t-166.5 -41.5q-72 0 -126 31t-83 84t-29 116q0 90 39 160.5t108.5 109.5t158.5 39q75 0 128 -29.5t80 -79.5t27 -113q0 -36 -9 -86h-403z
M659 396.5q-43 -34.5 -61 -96.5h273v1q0 63 -29 96.5t-82 33.5q-58 0 -101 -34.5z" />
    <glyph glyph-name="Racute" unicode="&#x154;" horiz-adv-x="652" 
d="M604 366.5q-44 -72.5 -122 -107.5l99 -259h-141l-84 229q-8 -1 -24 -1h-138l-32 -228h-134l107 760h261q122 0 187 -59t65 -168q0 -94 -44 -166.5zM209 337h122q87 0 134.5 53t47.5 133q0 63 -34.5 95.5t-111.5 32.5h-113zM420 833h-88l94 171h143z" />
    <glyph glyph-name="racute" unicode="&#x155;" horiz-adv-x="395" 
d="M416 525l-26 -124q-26 6 -55 6q-59 0 -95.5 -41t-50.5 -109l-36 -257h-130l73 517h115l1 -93q33 51 76 77.5t90 26.5q26 0 38 -3zM293 590h-88l94 171h143z" />
    <glyph glyph-name="Rcommaaccent" unicode="&#x156;" horiz-adv-x="652" 
d="M604 366.5q-44 -72.5 -122 -107.5l99 -259h-141l-84 229q-8 -1 -24 -1h-138l-32 -228h-134l107 760h261q122 0 187 -59t65 -168q0 -94 -44 -166.5zM209 337h122q87 0 134.5 53t47.5 133q0 63 -34.5 95.5t-111.5 32.5h-113zM239 -206h-88l75 139h143z" />
    <glyph glyph-name="rcommaaccent" unicode="&#x157;" horiz-adv-x="395" 
d="M416 525l-26 -124q-26 6 -55 6q-59 0 -95.5 -41t-50.5 -109l-36 -257h-130l73 517h115l1 -93q33 51 76 77.5t90 26.5q26 0 38 -3zM83 -206h-88l75 139h143z" />
    <glyph glyph-name="Rcaron" unicode="&#x158;" horiz-adv-x="652" 
d="M604 366.5q-44 -72.5 -122 -107.5l99 -259h-141l-84 229q-8 -1 -24 -1h-138l-32 -228h-134l107 760h261q122 0 187 -59t65 -168q0 -94 -44 -166.5zM209 337h122q87 0 134.5 53t47.5 133q0 63 -34.5 95.5t-111.5 32.5h-113zM595 1004l-171 -168h-91l-123 168h115l60 -98
l89 98h121z" />
    <glyph glyph-name="rcaron" unicode="&#x159;" horiz-adv-x="395" 
d="M416 525l-26 -124q-26 6 -55 6q-59 0 -95.5 -41t-50.5 -109l-36 -257h-130l73 517h115l1 -93q33 51 76 77.5t90 26.5q26 0 38 -3zM468 761l-171 -168h-91l-123 168h115l60 -98l89 98h121z" />
    <glyph glyph-name="Sacute" unicode="&#x15a;" horiz-adv-x="666" 
d="M102.5 49.5q-67.5 61.5 -67.5 163.5l134 10q0 -72 41.5 -100t102.5 -28q73 0 118.5 34t45.5 92q0 30 -13 48t-34 28.5t-60 22.5l-86 27q-99 30 -145.5 78.5t-46.5 124.5q0 104 78 163t210 59q136 0 202 -61t66 -157l-137 -13q0 62 -32.5 93t-101.5 31q-64 0 -105 -26
t-41 -76q0 -37 26 -59.5t87 -41.5l81 -25q64 -19 104.5 -41.5t64 -60t23.5 -96.5q0 -79 -41 -135.5t-112.5 -86t-161.5 -29.5q-132 0 -199.5 61.5zM438 833h-88l94 171h143z" />
    <glyph glyph-name="sacute" unicode="&#x15b;" horiz-adv-x="523" 
d="M69 30.5q-55 42.5 -57 115.5l139 12q0 -39 19.5 -58.5t63.5 -19.5q48 0 76.5 17t28.5 55q0 25 -21.5 37.5t-78.5 31.5l-36 12q-75 24 -113 54t-38 84q0 78 64.5 117.5t171.5 39.5q93 0 148 -39t58 -105l-135 -11q-1 28 -20 46.5t-61 18.5q-41 0 -64.5 -14.5t-23.5 -40.5
q0 -16 17.5 -27t59.5 -25l46 -13q56 -17 90 -34t54.5 -44.5t20.5 -70.5q0 -90 -66.5 -135.5t-183.5 -45.5q-104 0 -159 42.5zM336 590h-88l94 171h143z" />
    <glyph glyph-name="Scircumflex" unicode="&#x15c;" horiz-adv-x="666" 
d="M102.5 49.5q-67.5 61.5 -67.5 163.5l134 10q0 -72 41.5 -100t102.5 -28q73 0 118.5 34t45.5 92q0 30 -13 48t-34 28.5t-60 22.5l-86 27q-99 30 -145.5 78.5t-46.5 124.5q0 104 78 163t210 59q136 0 202 -61t66 -157l-137 -13q0 62 -32.5 93t-101.5 31q-64 0 -105 -26
t-41 -76q0 -37 26 -59.5t87 -41.5l81 -25q64 -19 104.5 -41.5t64 -60t23.5 -96.5q0 -79 -41 -135.5t-112.5 -86t-161.5 -29.5q-132 0 -199.5 61.5zM465 836l-60 98l-89 -98h-121l171 168h91l123 -168h-115z" />
    <glyph glyph-name="scircumflex" unicode="&#x15d;" horiz-adv-x="523" 
d="M69 30.5q-55 42.5 -57 115.5l139 12q0 -39 19.5 -58.5t63.5 -19.5q48 0 76.5 17t28.5 55q0 25 -21.5 37.5t-78.5 31.5l-36 12q-75 24 -113 54t-38 84q0 78 64.5 117.5t171.5 39.5q93 0 148 -39t58 -105l-135 -11q-1 28 -20 46.5t-61 18.5q-41 0 -64.5 -14.5t-23.5 -40.5
q0 -16 17.5 -27t59.5 -25l46 -13q56 -17 90 -34t54.5 -44.5t20.5 -70.5q0 -90 -66.5 -135.5t-183.5 -45.5q-104 0 -159 42.5zM363 593l-60 98l-89 -98h-121l171 168h91l123 -168h-115z" />
    <glyph glyph-name="Scedilla" unicode="&#x15e;" horiz-adv-x="666" 
d="M102.5 49.5q-67.5 61.5 -67.5 163.5l134 10q0 -72 41.5 -100t102.5 -28q73 0 118.5 34t45.5 92q0 30 -13 48t-34 28.5t-60 22.5l-86 27q-99 30 -145.5 78.5t-46.5 124.5q0 104 78 163t210 59q136 0 202 -61t66 -157l-137 -13q0 62 -32.5 93t-101.5 31q-64 0 -105 -26
t-41 -76q0 -37 26 -59.5t87 -41.5l81 -25q64 -19 104.5 -41.5t64 -60t23.5 -96.5q0 -79 -41 -135.5t-112.5 -86t-161.5 -29.5q-132 0 -199.5 61.5zM377.5 -56q22.5 -19 22.5 -52q0 -49 -34 -75.5t-88 -26.5q-25 0 -48 5.5t-38 15.5l27 51q22 -13 46 -13q20 0 32 10.5
t12 28.5q0 13 -7.5 19.5t-21.5 6.5q-19 0 -38 -13l-25 16l45 106h65l-21 -60h11q38 0 60.5 -19z" />
    <glyph glyph-name="scedilla" unicode="&#x15f;" horiz-adv-x="523" 
d="M69 30.5q-55 42.5 -57 115.5l139 12q0 -39 19.5 -58.5t63.5 -19.5q48 0 76.5 17t28.5 55q0 25 -21.5 37.5t-78.5 31.5l-36 12q-75 24 -113 54t-38 84q0 78 64.5 117.5t171.5 39.5q93 0 148 -39t58 -105l-135 -11q-1 28 -20 46.5t-61 18.5q-41 0 -64.5 -14.5t-23.5 -40.5
q0 -16 17.5 -27t59.5 -25l46 -13q56 -17 90 -34t54.5 -44.5t20.5 -70.5q0 -90 -66.5 -135.5t-183.5 -45.5q-104 0 -159 42.5zM304.5 -56q22.5 -19 22.5 -52q0 -49 -34 -75.5t-88 -26.5q-25 0 -48 5.5t-38 15.5l27 51q22 -13 46 -13q20 0 32 10.5t12 28.5q0 13 -7.5 19.5
t-21.5 6.5q-19 0 -38 -13l-25 16l45 106h65l-21 -60h11q38 0 60.5 -19z" />
    <glyph glyph-name="Scaron" unicode="&#x160;" horiz-adv-x="666" 
d="M102.5 49.5q-67.5 61.5 -67.5 163.5l134 10q0 -72 41.5 -100t102.5 -28q73 0 118.5 34t45.5 92q0 30 -13 48t-34 28.5t-60 22.5l-86 27q-99 30 -145.5 78.5t-46.5 124.5q0 104 78 163t210 59q136 0 202 -61t66 -157l-137 -13q0 62 -32.5 93t-101.5 31q-64 0 -105 -26
t-41 -76q0 -37 26 -59.5t87 -41.5l81 -25q64 -19 104.5 -41.5t64 -60t23.5 -96.5q0 -79 -41 -135.5t-112.5 -86t-161.5 -29.5q-132 0 -199.5 61.5zM613 1004l-171 -168h-91l-123 168h115l60 -98l89 98h121z" />
    <glyph glyph-name="scaron" unicode="&#x161;" horiz-adv-x="523" 
d="M69 30.5q-55 42.5 -57 115.5l139 12q0 -39 19.5 -58.5t63.5 -19.5q48 0 76.5 17t28.5 55q0 25 -21.5 37.5t-78.5 31.5l-36 12q-75 24 -113 54t-38 84q0 78 64.5 117.5t171.5 39.5q93 0 148 -39t58 -105l-135 -11q-1 28 -20 46.5t-61 18.5q-41 0 -64.5 -14.5t-23.5 -40.5
q0 -16 17.5 -27t59.5 -25l46 -13q56 -17 90 -34t54.5 -44.5t20.5 -70.5q0 -90 -66.5 -135.5t-183.5 -45.5q-104 0 -159 42.5zM511 761l-171 -168h-91l-123 168h115l60 -98l89 98h121z" />
    <glyph glyph-name="uni0162" unicode="&#x162;" horiz-adv-x="608" 
d="M639 648h-214l-90 -648h-135l91 648h-213l16 112h561zM341.5 -56q22.5 -19 22.5 -52q0 -49 -34 -75.5t-88 -26.5q-25 0 -48 5.5t-38 15.5l27 51q22 -13 46 -13q20 0 32 10.5t12 28.5q0 13 -7.5 19.5t-21.5 6.5q-19 0 -38 -13l-25 16l45 106h65l-21 -60h11q38 0 60.5 -19z
" />
    <glyph glyph-name="uni0163" unicode="&#x163;" horiz-adv-x="386" 
d="M206 181q-3 -22 -3 -36q0 -29 13 -40.5t43 -11.5t67 7l-6 -100q-57 -12 -106 -12q-66 0 -104.5 31t-38.5 101q0 16 4 50l34 243h-79l21 104h73l18 126h129l-18 -126h123l-15 -104h-122zM252.5 -56q22.5 -19 22.5 -52q0 -49 -34 -75.5t-88 -26.5q-25 0 -48 5.5t-38 15.5
l27 51q22 -13 46 -13q20 0 32 10.5t12 28.5q0 13 -7.5 19.5t-21.5 6.5q-19 0 -38 -13l-25 16l45 106h65l-21 -60h11q38 0 60.5 -19z" />
    <glyph glyph-name="Tcaron" unicode="&#x164;" horiz-adv-x="608" 
d="M639 648h-214l-90 -648h-135l91 648h-213l16 112h561zM605 1004l-171 -168h-91l-123 168h115l60 -98l89 98h121z" />
    <glyph glyph-name="tcaron" unicode="&#x165;" horiz-adv-x="477" 
d="M547 760l-149 -171h-82l94 171h137zM253 517h123l-15 -104h-122l-33 -232q-3 -22 -3 -36q0 -29 13 -40.5t43 -11.5t67 7l-6 -100q-57 -12 -106 -12q-66 0 -104.5 31t-38.5 101q0 16 4 50l34 243h-79l21 104h73l18 126h129z" />
    <glyph glyph-name="Tbar" unicode="&#x166;" horiz-adv-x="608" 
d="M425 648l-29 -208h157l-14 -99h-156l-48 -341h-135l48 341h-150l14 99h150l29 208h-213l16 112h561l-16 -112h-214z" />
    <glyph glyph-name="tbar" unicode="&#x167;" horiz-adv-x="386" 
d="M239 413l-13 -93h122l-11 -79h-123l-8 -60q-3 -22 -3 -36q0 -29 13 -40.5t43 -11.5t67 7l-6 -100q-57 -12 -106 -12q-66 0 -104.5 31t-38.5 101q0 16 4 50l10 71h-67l11 79h67l13 93h-79l21 104h73l18 126h129l-18 -126h123l-15 -104h-122z" />
    <glyph glyph-name="Utilde" unicode="&#x168;" horiz-adv-x="704" 
d="M131 53q-70 65 -70 181q0 28 5 70l65 456h134l-66 -462q-4 -28 -4 -52q0 -66 35.5 -101t101.5 -35q76 0 123 47t60 139l66 464h134l-65 -458q-23 -164 -101.5 -239t-228.5 -75q-119 0 -189 65zM460.5 876.5q-18.5 8.5 -42.5 23.5q-17 12 -28.5 17.5t-21.5 5.5
q-32 0 -62 -39l-58 39q54 88 139 88q26 0 46.5 -8.5t42.5 -23.5q17 -11 28.5 -17t22.5 -6q31 0 61 39l60 -35q-27 -43 -64 -67.5t-80 -24.5q-25 0 -43.5 8.5z" />
    <glyph glyph-name="utilde" unicode="&#x169;" horiz-adv-x="593" 
d="M570 517l-72 -517h-117l2 86q-34 -47 -81 -72.5t-102 -25.5q-75 0 -116 44.5t-41 111.5q0 24 3 48l45 325h130l-42 -304q-3 -22 -3 -42q0 -43 22.5 -62t65.5 -19q59 0 93 44.5t44 103.5l39 279h130zM369.5 633.5q-18.5 8.5 -42.5 23.5q-17 12 -28.5 17.5t-21.5 5.5
q-32 0 -62 -39l-58 39q54 88 139 88q26 0 46.5 -8.5t42.5 -23.5q17 -11 28.5 -17t22.5 -6q31 0 61 39l60 -35q-27 -43 -64 -67.5t-80 -24.5q-25 0 -43.5 8.5z" />
    <glyph glyph-name="Umacron" unicode="&#x16a;" horiz-adv-x="704" 
d="M131 53q-70 65 -70 181q0 28 5 70l65 456h134l-66 -462q-4 -28 -4 -52q0 -66 35.5 -101t101.5 -35q76 0 123 47t60 139l66 464h134l-65 -458q-23 -164 -101.5 -239t-228.5 -75q-119 0 -189 65zM310 977h285l-11 -82h-286z" />
    <glyph glyph-name="umacron" unicode="&#x16b;" horiz-adv-x="593" 
d="M570 517l-72 -517h-117l2 86q-34 -47 -81 -72.5t-102 -25.5q-75 0 -116 44.5t-41 111.5q0 24 3 48l45 325h130l-42 -304q-3 -22 -3 -42q0 -43 22.5 -62t65.5 -19q59 0 93 44.5t44 103.5l39 279h130zM219 734h285l-11 -82h-286z" />
    <glyph glyph-name="Ubreve" unicode="&#x16c;" horiz-adv-x="704" 
d="M131 53q-70 65 -70 181q0 28 5 70l65 456h134l-66 -462q-4 -28 -4 -52q0 -66 35.5 -101t101.5 -35q76 0 123 47t60 139l66 464h134l-65 -458q-23 -164 -101.5 -239t-228.5 -75q-119 0 -189 65zM318.5 875q-39.5 45 -39.5 129h81q0 -46 22 -70.5t60 -24.5q73 0 102 95h81
q-18 -85 -68.5 -129.5t-124.5 -44.5t-113.5 45z" />
    <glyph glyph-name="ubreve" unicode="&#x16d;" horiz-adv-x="593" 
d="M570 517l-72 -517h-117l2 86q-34 -47 -81 -72.5t-102 -25.5q-75 0 -116 44.5t-41 111.5q0 24 3 48l45 325h130l-42 -304q-3 -22 -3 -42q0 -43 22.5 -62t65.5 -19q59 0 93 44.5t44 103.5l39 279h130zM227.5 632q-39.5 45 -39.5 129h81q0 -46 22 -70.5t60 -24.5
q73 0 102 95h81q-18 -85 -68.5 -129.5t-124.5 -44.5t-113.5 45z" />
    <glyph glyph-name="Uring" unicode="&#x16e;" horiz-adv-x="704" 
d="M131 53q-70 65 -70 181q0 28 5 70l65 456h134l-66 -462q-4 -28 -4 -52q0 -66 35.5 -101t101.5 -35q76 0 123 47t60 139l66 464h134l-65 -458q-23 -164 -101.5 -239t-228.5 -75q-119 0 -189 65zM356.5 862q-33.5 34 -33.5 81q0 48 33.5 81.5t82.5 33.5q48 0 81.5 -34
t33.5 -81t-33.5 -81t-81.5 -34q-49 0 -82.5 34zM479 900.5q17 17.5 17 42.5t-17 42.5t-40 17.5q-24 0 -41 -17.5t-17 -42.5t17 -42.5t41 -17.5q23 0 40 17.5z" />
    <glyph glyph-name="uring" unicode="&#x16f;" horiz-adv-x="593" 
d="M570 517l-72 -517h-117l2 86q-34 -47 -81 -72.5t-102 -25.5q-75 0 -116 44.5t-41 111.5q0 24 3 48l45 325h130l-42 -304q-3 -22 -3 -42q0 -43 22.5 -62t65.5 -19q59 0 93 44.5t44 103.5l39 279h130zM265.5 619q-33.5 34 -33.5 81q0 48 33.5 81.5t82.5 33.5q48 0 81.5 -34
t33.5 -81t-33.5 -81t-81.5 -34q-49 0 -82.5 34zM388 657.5q17 17.5 17 42.5t-17 42.5t-40 17.5q-24 0 -41 -17.5t-17 -42.5t17 -42.5t41 -17.5q23 0 40 17.5z" />
    <glyph glyph-name="Uhungarumlaut" unicode="&#x170;" horiz-adv-x="704" 
d="M131 53q-70 65 -70 181q0 28 5 70l65 456h134l-66 -462q-4 -28 -4 -52q0 -66 35.5 -101t101.5 -35q76 0 123 47t60 139l66 464h134l-65 -458q-23 -164 -101.5 -239t-228.5 -75q-119 0 -189 65zM352 833h-88l94 171h143zM565 833h-88l94 171h143z" />
    <glyph glyph-name="uhungarumlaut" unicode="&#x171;" horiz-adv-x="593" 
d="M570 517l-72 -517h-117l2 86q-34 -47 -81 -72.5t-102 -25.5q-75 0 -116 44.5t-41 111.5q0 24 3 48l45 325h130l-42 -304q-3 -22 -3 -42q0 -43 22.5 -62t65.5 -19q59 0 93 44.5t44 103.5l39 279h130zM261 590h-88l94 171h143zM474 590h-88l94 171h143z" />
    <glyph glyph-name="Uogonek" unicode="&#x172;" horiz-adv-x="704" 
d="M131 53q-70 65 -70 181q0 28 5 70l65 456h134l-66 -462q-4 -28 -4 -52q0 -66 35.5 -101t101.5 -35q76 0 123 47t60 139l66 464h134l-65 -458q-23 -164 -101.5 -239t-228.5 -75q-119 0 -189 65zM384 -25q-24 -22 -24 -57q0 -27 17 -40.5t49 -13.5q16 0 44 6l-5 -63
q-34 -17 -80 -17q-51 0 -83 26t-32 74q0 60 48 99.5t119 49.5l4 -33q-33 -9 -57 -31z" />
    <glyph glyph-name="uogonek" unicode="&#x173;" horiz-adv-x="593" 
d="M570 517l-72 -517h-117l2 86q-34 -47 -81 -72.5t-102 -25.5q-75 0 -116 44.5t-41 111.5q0 24 3 48l45 325h130l-42 -304q-3 -22 -3 -42q0 -43 22.5 -62t65.5 -19q59 0 93 44.5t44 103.5l39 279h130zM412 -25q-24 -22 -24 -57q0 -27 17 -40.5t49 -13.5q16 0 44 6l-5 -63
q-34 -17 -80 -17q-51 0 -83 26t-32 74q0 60 48 99.5t119 49.5l4 -33q-33 -9 -57 -31z" />
    <glyph glyph-name="Wcircumflex" unicode="&#x174;" horiz-adv-x="997" 
d="M1054 760l-305 -760h-140l-68 563l-224 -563h-140l-93 760h137l49 -616l241 616h117l64 -619l221 619h141zM652 836l-60 98l-89 -98h-121l171 168h91l123 -168h-115z" />
    <glyph glyph-name="wcircumflex" unicode="&#x175;" horiz-adv-x="812" 
d="M842 517l-235 -517h-132l-56 361l-153 -361h-132l-91 517h133l46 -389l163 389h111l55 -389l153 389h138zM522 593l-60 98l-89 -98h-121l171 168h91l123 -168h-115z" />
    <glyph glyph-name="Ycircumflex" unicode="&#x176;" horiz-adv-x="606" 
d="M682 760l-490 -760h-141l205 317l-182 443h140l119 -322l208 322h141zM449 836l-60 98l-89 -98h-121l171 168h91l123 -168h-115z" />
    <glyph glyph-name="ycircumflex" unicode="&#x177;" horiz-adv-x="594" 
d="M570 517l-66 -475q-17 -124 -88.5 -188t-188.5 -64q-90 0 -145 36.5t-67 98.5l130 16q5 -29 27.5 -44t61.5 -15q61 0 94.5 39t44.5 117l7 50q-33 -45 -79 -69t-100 -24q-75 0 -116 44.5t-41 111.5q0 27 4 48l43 318h130l-41 -297q-3 -22 -3 -42q0 -44 22 -62.5t66 -18.5
q57 0 91 42.5t45 100.5l39 277h130zM417 593l-60 98l-89 -98h-121l171 168h91l123 -168h-115z" />
    <glyph glyph-name="Ydieresis" unicode="&#x178;" horiz-adv-x="606" 
d="M682 760l-490 -760h-141l205 317l-182 443h140l119 -322l208 322h141zM237 878.5q-20 20.5 -20 49.5t20 49.5t49 20.5t49.5 -20.5t20.5 -49.5t-20.5 -49.5t-49.5 -20.5t-49 20.5zM443.5 878.5q-20.5 20.5 -20.5 49.5t20.5 49.5t49.5 20.5q28 0 48 -20.5t20 -49.5
t-20 -49.5t-48 -20.5q-29 0 -49.5 20.5z" />
    <glyph glyph-name="Zacute" unicode="&#x179;" horiz-adv-x="621" 
d="M210 111h354l-16 -111h-559l457 649h-331l16 111h535zM445 833h-88l94 171h143z" />
    <glyph glyph-name="zacute" unicode="&#x17a;" horiz-adv-x="509" 
d="M200 103h255l-15 -103h-456l320 414h-235l21 103h432zM356 590h-88l94 171h143z" />
    <glyph glyph-name="Zdotaccent" unicode="&#x17b;" horiz-adv-x="621" 
d="M210 111h354l-16 -111h-559l457 649h-331l16 111h535zM356 874q-23 23 -23 56t23 56t56 23q32 0 55 -23t23 -56t-23 -56t-55 -23q-33 0 -56 23z" />
    <glyph glyph-name="zdotaccent" unicode="&#x17c;" horiz-adv-x="509" 
d="M200 103h255l-15 -103h-456l320 414h-235l21 103h432zM267 631q-23 23 -23 56t23 56t56 23q32 0 55 -23t23 -56t-23 -56t-55 -23q-33 0 -56 23z" />
    <glyph glyph-name="Zcaron" unicode="&#x17d;" horiz-adv-x="621" 
d="M210 111h354l-16 -111h-559l457 649h-331l16 111h535zM620 1004l-171 -168h-91l-123 168h115l60 -98l89 98h121z" />
    <glyph glyph-name="zcaron" unicode="&#x17e;" horiz-adv-x="509" 
d="M200 103h255l-15 -103h-456l320 414h-235l21 103h432zM531 761l-171 -168h-91l-123 168h115l60 -98l89 98h121z" />
    <glyph glyph-name="longs" unicode="&#x17f;" horiz-adv-x="315" 
d="M394.5 765.5q31.5 -6.5 49.5 -15.5l-21 -93q-31 13 -74 13q-39 0 -59.5 -20t-28.5 -75l-80 -575h-130l57 413h-78l24 104h68l10 69q14 100 65 143t135 43q31 0 62.5 -6.5z" />
    <glyph glyph-name="uni018F" unicode="&#x18f;" horiz-adv-x="847" 
d="M668 727.5q76 -44.5 117 -122t41 -173.5q0 -124 -58.5 -226t-158 -160t-217.5 -58q-102 0 -178 43.5t-117 120.5t-41 173q0 51 9 100h623q0 68 -26 119t-72 78.5t-107 27.5q-73 0 -134.5 -35.5t-101.5 -97.5l-141 17q58 109 158.5 173.5t225.5 64.5q102 0 178 -44.5z
M571 170q75 60 103 156h-482q3 -99 58.5 -157.5t148.5 -58.5q97 0 172 60z" />
    <glyph glyph-name="florin" unicode="&#x192;" horiz-adv-x="580" 
d="M468 625.5q-26 -27.5 -40 -84.5l-22 -88h85l-12 -84h-94l-87 -352q-27 -112 -88.5 -163.5t-160.5 -51.5h-33l25 107q54 0 82 27.5t42 83.5l87 349h-71l12 84h80l23 94q27 112 86 162.5t155 50.5h34l-27 -107q-50 0 -76 -27.5z" />
    <glyph glyph-name="uni019D" unicode="&#x19d;" horiz-adv-x="696" 
d="M702 760l-107 -760h-132l-222 567l-71 -503q-19 -135 -96 -204.5t-199 -69.5q-32 0 -52 4l24 108q17 -3 39 -3q57 0 98.5 37t51.5 111l101 713h131l222 -564l79 564h133z" />
    <glyph glyph-name="uni01CD" unicode="&#x1cd;" 
d="M457 123h-297l-53 -123h-140l354 760h152l141 -760h-138zM441 226l-62 404l-174 -404h236zM627 1004l-171 -168h-91l-123 168h115l60 -98l89 98h121z" />
    <glyph glyph-name="uni01CE" unicode="&#x1ce;" horiz-adv-x="647" 
d="M624 517l-72 -517h-119l3 85q-33 -43 -81.5 -70t-107.5 -27q-58 0 -105.5 28.5t-75 81.5t-27.5 124q0 88 37 158t100 109t138 39q61 0 104.5 -27t64.5 -72l12 88h129zM379 121q40 26 63 69.5t23 95.5q0 62 -32.5 98.5t-90.5 36.5q-45 0 -84.5 -23.5t-63 -66.5t-23.5 -99
q0 -64 33 -100.5t88 -36.5q47 0 87 26zM569 761l-171 -168h-91l-123 168h115l60 -98l89 98h121z" />
    <glyph glyph-name="Gcaron" unicode="&#x1e6;" horiz-adv-x="815" 
d="M411 414h364l-44 -318q-65 -48 -147.5 -78t-179.5 -30q-109 0 -187.5 42t-120 119t-41.5 179q0 122 55 223.5t153 161t222 59.5q87 0 153 -31.5t107 -83.5t57 -114l-142 -13q-16 50 -63.5 86.5t-123.5 36.5q-83 0 -147.5 -44.5t-99.5 -118.5t-35 -158q0 -109 59.5 -168.5
t171.5 -59.5q106 0 191 51l21 157h-237zM713 1004l-171 -168h-91l-123 168h115l60 -98l89 98h121z" />
    <glyph glyph-name="gcaron" unicode="&#x1e7;" horiz-adv-x="648" 
d="M624 517l-64 -460q-19 -133 -92 -200t-203 -67q-93 0 -153.5 36.5t-77.5 97.5l132 17q24 -59 103 -59q136 0 159 161l6 43q-32 -41 -80 -66.5t-106 -25.5q-59 0 -106.5 27.5t-75 79.5t-27.5 122q0 88 37 157.5t100.5 108.5t140.5 39q60 0 103 -27.5t63 -73.5l22 90h119z
M379.5 122.5q39.5 25.5 62.5 69t23 95.5q0 59 -33.5 96.5t-89.5 37.5q-46 0 -85.5 -23t-62.5 -65.5t-23 -97.5q0 -65 32 -101.5t91 -36.5q46 0 85.5 25.5zM578 761l-171 -168h-91l-123 168h115l60 -98l89 98h121z" />
    <glyph glyph-name="Aringacute" unicode="&#x1fa;" 
d="M457 123h-297l-53 -123h-140l354 760h152l141 -760h-138zM441 226l-62 404l-174 -404h236zM331.5 862q-33.5 34 -33.5 81q0 48 33.5 81.5t82.5 33.5q48 0 81.5 -34t33.5 -81t-33.5 -81t-81.5 -34q-49 0 -82.5 34zM454 900.5q17 17.5 17 42.5t-17 42.5t-40 17.5
q-24 0 -41 -17.5t-17 -42.5t17 -42.5t41 -17.5q23 0 40 17.5zM477 1109h-88l94 171h143z" />
    <glyph glyph-name="aringacute" unicode="&#x1fb;" horiz-adv-x="647" 
d="M624 517l-72 -517h-119l3 85q-33 -43 -81.5 -70t-107.5 -27q-58 0 -105.5 28.5t-75 81.5t-27.5 124q0 88 37 158t100 109t138 39q61 0 104.5 -27t64.5 -72l12 88h129zM379 121q40 26 63 69.5t23 95.5q0 62 -32.5 98.5t-90.5 36.5q-45 0 -84.5 -23.5t-63 -66.5t-23.5 -99
q0 -64 33 -100.5t88 -36.5q47 0 87 26zM273.5 619q-33.5 34 -33.5 81q0 48 33.5 81.5t82.5 33.5q48 0 81.5 -34t33.5 -81t-33.5 -81t-81.5 -34q-49 0 -82.5 34zM396 657.5q17 17.5 17 42.5t-17 42.5t-40 17.5q-24 0 -41 -17.5t-17 -42.5t17 -42.5t41 -17.5q23 0 40 17.5z
M419 866h-88l94 171h143z" />
    <glyph glyph-name="AEacute" unicode="&#x1fc;" horiz-adv-x="957" 
d="M664 649l-28 -200h286l-15 -108h-286l-32 -230h297l-16 -111h-431l23 161h-258l-107 -161h-138l523 760h491l-16 -111h-293zM530 650l-258 -387h204zM780 833h-88l94 171h143z" />
    <glyph glyph-name="aeacute" unicode="&#x1fd;" horiz-adv-x="951" 
d="M519 226v-12q0 -61 32.5 -95t87.5 -34q42 0 75.5 20t56.5 54l120 -12q-44 -77 -112 -118t-154 -41q-68 0 -118 27.5t-77 77.5q-73 -105 -226 -105q-84 0 -132 36.5t-48 105.5q0 93 68.5 133.5t184.5 40.5h133l3 36q0 49 -28 70t-71 21q-81 0 -125 -68l-118 12
q79 153 261 153q55 0 101 -18t72 -56q38 35 85.5 54.5t102.5 19.5q104 0 161 -60t57 -158q0 -22 -2.5 -46t-6.5 -38h-383zM587.5 395.5q-37.5 -34.5 -55.5 -91.5h258v6q0 57 -29 88.5t-80 31.5q-56 0 -93.5 -34.5zM341.5 107q44.5 34 53.5 95l4 24h-121q-76 0 -105.5 -21
t-29.5 -62q0 -35 24.5 -52.5t69.5 -17.5q60 0 104.5 34zM574 590h-88l94 171h143z" />
    <glyph glyph-name="Oslashacute" unicode="&#x1fe;" horiz-adv-x="848" 
d="M740 671q42 -45 64.5 -107.5t22.5 -137.5q0 -123 -58 -223t-157.5 -157.5t-217.5 -57.5q-102 0 -181 45l-46 -56h-117l93 112q-42 45 -64.5 107.5t-22.5 137.5q0 123 58 223t157.5 157.5t217.5 57.5q102 0 181 -45l46 56h117zM226 190l365 441q-46 26 -107 26
q-80 0 -148 -43t-108 -117t-40 -163q0 -86 38 -144zM656 569l-364 -440q46 -26 107 -26q80 0 147.5 43t107.5 117t40 163q0 87 -38 143zM545 833h-88l94 171h143z" />
    <glyph glyph-name="oslashacute" unicode="&#x1ff;" horiz-adv-x="630" 
d="M574.5 388q16.5 -42 16.5 -92q0 -92 -39.5 -162t-110 -108t-161.5 -38q-68 0 -122 28l-29 -36h-88l62 75q-31 31 -47.5 73.5t-16.5 91.5q0 92 39.5 162t110 108t161.5 38q66 0 122 -27l29 35h88l-62 -75q31 -31 47.5 -73zM181 150l220 265q-25 12 -58 12q-49 0 -90 -25
t-65 -70t-24 -103q0 -47 17 -79zM377.5 114.5q40.5 24.5 64.5 70t24 103.5q0 47 -17 79l-219 -265q26 -12 58 -12q49 0 89.5 24.5zM407 590h-88l94 171h143z" />
    <glyph glyph-name="Scommaaccent" unicode="&#x218;" horiz-adv-x="666" 
d="M102.5 49.5q-67.5 61.5 -67.5 163.5l134 10q0 -72 41.5 -100t102.5 -28q73 0 118.5 34t45.5 92q0 30 -13 48t-34 28.5t-60 22.5l-86 27q-99 30 -145.5 78.5t-46.5 124.5q0 104 78 163t210 59q136 0 202 -61t66 -157l-137 -13q0 62 -32.5 93t-101.5 31q-64 0 -105 -26
t-41 -76q0 -37 26 -59.5t87 -41.5l81 -25q64 -19 104.5 -41.5t64 -60t23.5 -96.5q0 -79 -41 -135.5t-112.5 -86t-161.5 -29.5q-132 0 -199.5 61.5zM264 -206h-88l75 139h143z" />
    <glyph glyph-name="scommaaccent" unicode="&#x219;" horiz-adv-x="523" 
d="M69 30.5q-55 42.5 -57 115.5l139 12q0 -39 19.5 -58.5t63.5 -19.5q48 0 76.5 17t28.5 55q0 25 -21.5 37.5t-78.5 31.5l-36 12q-75 24 -113 54t-38 84q0 78 64.5 117.5t171.5 39.5q93 0 148 -39t58 -105l-135 -11q-1 28 -20 46.5t-61 18.5q-41 0 -64.5 -14.5t-23.5 -40.5
q0 -16 17.5 -27t59.5 -25l46 -13q56 -17 90 -34t54.5 -44.5t20.5 -70.5q0 -90 -66.5 -135.5t-183.5 -45.5q-104 0 -159 42.5zM191 -206h-88l75 139h143z" />
    <glyph glyph-name="uni021A" unicode="&#x21a;" horiz-adv-x="608" 
d="M639 648h-214l-90 -648h-135l91 648h-213l16 112h561zM228 -206h-88l75 139h143z" />
    <glyph glyph-name="uni021B" unicode="&#x21b;" horiz-adv-x="386" 
d="M206 181q-3 -22 -3 -36q0 -29 13 -40.5t43 -11.5t67 7l-6 -100q-57 -12 -106 -12q-66 0 -104.5 31t-38.5 101q0 16 4 50l34 243h-79l21 104h73l18 126h129l-18 -126h123l-15 -104h-122zM139 -206h-88l75 139h143z" />
    <glyph glyph-name="uni0232" unicode="&#x232;" horiz-adv-x="606" 
d="M682 760l-490 -760h-141l205 317l-182 443h140l119 -322l208 322h141zM255 977h285l-11 -82h-286z" />
    <glyph glyph-name="uni0233" unicode="&#x233;" horiz-adv-x="594" 
d="M570 517l-66 -475q-17 -124 -88.5 -188t-188.5 -64q-90 0 -145 36.5t-67 98.5l130 16q5 -29 27.5 -44t61.5 -15q61 0 94.5 39t44.5 117l7 50q-33 -45 -79 -69t-100 -24q-75 0 -116 44.5t-41 111.5q0 27 4 48l43 318h130l-41 -297q-3 -22 -3 -42q0 -44 22 -62.5t66 -18.5
q57 0 91 42.5t45 100.5l39 277h130zM223 734h285l-11 -82h-286z" />
    <glyph glyph-name="uni0237" unicode="&#x237;" horiz-adv-x="268" 
d="M-134 -194l23 100q37 -10 71 -10q39 0 55.5 20.5t24.5 74.5l74 526h129l-77 -548q-14 -96 -61.5 -137.5t-128.5 -41.5q-64 0 -110 16z" />
    <glyph glyph-name="uni0259" unicode="&#x259;" horiz-adv-x="617" 
d="M449 297v4q0 61 -33.5 96t-84.5 35q-49 0 -85 -21t-58 -57l-128 12q42 80 113.5 121.5t166.5 41.5q72 0 126 -31t83 -84t29 -116q0 -90 -39 -160.5t-108.5 -109.5t-158.5 -39q-75 0 -128 29.5t-80 79.5t-27 113q0 36 9 86h403zM377 120.5q43 34.5 61 96.5h-273v-1
q0 -63 29 -96.5t82 -33.5q58 0 101 34.5z" />
    <glyph glyph-name="uni0272" unicode="&#x272;" horiz-adv-x="618" 
d="M534.5 482q40.5 -46 40.5 -118q0 -23 -5 -55l-43 -309h-130l41 295q5 35 5 45q0 44 -21 65.5t-66 21.5q-64 0 -101.5 -45.5t-46.5 -108.5h-1l-24 -177l-17 -127q-13 -94 -62 -136.5t-131 -42.5q-61 0 -107 16l23 100q37 -10 70 -10q39 0 55.5 19.5t23.5 69.5l2 15l72 517
h117l-1 -86q34 47 82 72t104 25q80 0 120.5 -46z" />
    <glyph glyph-name="circumflex" unicode="&#x2c6;" horiz-adv-x="485" 
d="M367 592l-60 98l-89 -98h-121l171 168h91l123 -168h-115z" />
    <glyph glyph-name="caron" unicode="&#x2c7;" horiz-adv-x="485" 
d="M506 760l-171 -168h-91l-123 168h115l60 -98l89 98h121z" />
    <glyph glyph-name="breve" unicode="&#x2d8;" horiz-adv-x="447" 
d="M160.5 631q-39.5 45 -39.5 129h81q0 -46 22 -70.5t60 -24.5q73 0 102 95h81q-18 -85 -68.5 -129.5t-124.5 -44.5t-113.5 45z" />
    <glyph glyph-name="dotaccent" unicode="&#x2d9;" horiz-adv-x="259" 
d="M134 630q-23 23 -23 56t23 56t56 23q32 0 55 -23t23 -56t-23 -56t-55 -23q-33 0 -56 23z" />
    <glyph glyph-name="ring" unicode="&#x2da;" horiz-adv-x="333" 
d="M146.5 618q-33.5 34 -33.5 81q0 48 33.5 81.5t82.5 33.5q48 0 81.5 -34t33.5 -81t-33.5 -81t-81.5 -34q-49 0 -82.5 34zM269 656.5q17 17.5 17 42.5t-17 42.5t-40 17.5q-24 0 -41 -17.5t-17 -42.5t17 -42.5t41 -17.5q23 0 40 17.5z" />
    <glyph glyph-name="ogonek" unicode="&#x2db;" horiz-adv-x="308" 
d="M114 -25q-24 -22 -24 -57q0 -27 17 -40.5t49 -13.5q16 0 44 6l-5 -63q-34 -17 -80 -17q-51 0 -83 26t-32 74q0 60 48 99.5t119 49.5l4 -33q-33 -9 -57 -31z" />
    <glyph glyph-name="tilde" unicode="&#x2dc;" horiz-adv-x="494" 
d="M321.5 632.5q-18.5 8.5 -42.5 23.5q-17 12 -28.5 17.5t-21.5 5.5q-32 0 -62 -39l-58 39q54 88 139 88q26 0 46.5 -8.5t42.5 -23.5q17 -11 28.5 -17t22.5 -6q31 0 61 39l60 -35q-27 -43 -64 -67.5t-80 -24.5q-25 0 -43.5 8.5z" />
    <glyph glyph-name="hungarumlaut" unicode="&#x2dd;" horiz-adv-x="527" 
d="M185 589h-88l94 171h143zM398 589h-88l94 171h143z" />
    <glyph glyph-name="gravecomb" unicode="&#x300;" horiz-adv-x="0" 
d="M-98 760l94 -171h-88l-149 171h143z" />
    <glyph glyph-name="acutecomb" unicode="&#x301;" horiz-adv-x="0" 
d="M-129 589h-88l94 171h143z" />
    <glyph glyph-name="uni0302" unicode="&#x302;" horiz-adv-x="0" 
d="M-118 592l-60 98l-89 -98h-121l171 168h91l123 -168h-115z" />
    <glyph glyph-name="tildecomb" unicode="&#x303;" horiz-adv-x="0" 
d="M-172.5 632.5q-18.5 8.5 -42.5 23.5q-17 12 -28.5 17.5t-21.5 5.5q-32 0 -62 -39l-58 39q54 88 139 88q26 0 46.5 -8.5t42.5 -23.5q17 -11 28.5 -17t22.5 -6q31 0 61 39l60 -35q-27 -43 -64 -67.5t-80 -24.5q-25 0 -43.5 8.5z" />
    <glyph glyph-name="uni0304" unicode="&#x304;" horiz-adv-x="0" 
d="M-268 733h285l-11 -82h-286z" />
    <glyph glyph-name="uni0306" unicode="&#x306;" horiz-adv-x="0" 
d="M-286.5 631q-39.5 45 -39.5 129h81q0 -46 22 -70.5t60 -24.5q73 0 102 95h81q-18 -85 -68.5 -129.5t-124.5 -44.5t-113.5 45z" />
    <glyph glyph-name="uni0307" unicode="&#x307;" horiz-adv-x="0" 
d="M-125 630q-23 23 -23 56t23 56t56 23q32 0 55 -23t23 -56t-23 -56t-55 -23q-33 0 -56 23z" />
    <glyph glyph-name="uni0308" unicode="&#x308;" horiz-adv-x="0" 
d="M-315 634.5q-20 20.5 -20 49.5t20 49.5t49 20.5t49.5 -20.5t20.5 -49.5t-20.5 -49.5t-49.5 -20.5t-49 20.5zM-108.5 634.5q-20.5 20.5 -20.5 49.5t20.5 49.5t49.5 20.5q28 0 48 -20.5t20 -49.5t-20 -49.5t-48 -20.5q-29 0 -49.5 20.5z" />
    <glyph glyph-name="uni030A" unicode="&#x30a;" horiz-adv-x="0" 
d="M-186.5 618q-33.5 34 -33.5 81q0 48 33.5 81.5t82.5 33.5q48 0 81.5 -34t33.5 -81t-33.5 -81t-81.5 -34q-49 0 -82.5 34zM-64 656.5q17 17.5 17 42.5t-17 42.5t-40 17.5q-24 0 -41 -17.5t-17 -42.5t17 -42.5t41 -17.5q23 0 40 17.5z" />
    <glyph glyph-name="uni030B" unicode="&#x30b;" horiz-adv-x="0" 
d="M-342 589h-88l94 171h143zM-129 589h-88l94 171h143z" />
    <glyph glyph-name="uni030C" unicode="&#x30c;" horiz-adv-x="0" 
d="M21 760l-171 -168h-91l-123 168h115l60 -98l89 98h121z" />
    <glyph glyph-name="uni0326" unicode="&#x326;" horiz-adv-x="0" 
d="M-225 -206h-88l75 139h143z" />
    <glyph glyph-name="uni0327" unicode="&#x327;" horiz-adv-x="0" 
d="M-125.5 -56q22.5 -19 22.5 -52q0 -49 -34 -75.5t-88 -26.5q-25 0 -48 5.5t-38 15.5l27 51q22 -13 46 -13q20 0 32 10.5t12 28.5q0 13 -7.5 19.5t-21.5 6.5q-19 0 -38 -13l-25 16l45 106h65l-21 -60h11q38 0 60.5 -19z" />
    <glyph glyph-name="uni0328" unicode="&#x328;" horiz-adv-x="0" 
d="M-194 -25q-24 -22 -24 -57q0 -27 17 -40.5t49 -13.5q16 0 44 6l-5 -63q-34 -17 -80 -17q-51 0 -83 26t-32 74q0 60 48 99.5t119 49.5l4 -33q-33 -9 -57 -31z" />
    <glyph glyph-name="tonos" unicode="&#x384;" horiz-adv-x="314" 
d="M97 589l94 171h143l-149 -171h-88z" />
    <glyph glyph-name="dieresistonos" unicode="&#x385;" horiz-adv-x="533" 
d="M310 779h134l-138 -190h-80zM129.5 638q-18.5 19 -18.5 46q0 28 18.5 47t46.5 19q27 0 46 -19t19 -47q0 -27 -19 -46t-46 -19q-28 0 -46.5 19zM431 637.5q-19 19.5 -19 46.5q0 28 19 47t47 19q26 0 45 -19t19 -47q0 -27 -19 -46.5t-45 -19.5q-28 0 -47 19.5z" />
    <glyph glyph-name="Alphatonos" unicode="&#x386;" 
d="M457 123h-297l-53 -123h-140l354 760h152l141 -760h-138zM441 226l-62 404l-174 -404h236zM-50 589l94 171h143l-149 -171h-88z" />
    <glyph glyph-name="anoteleia" unicode="&#x387;" horiz-adv-x="264" 
d="M96.5 354.5q-23.5 23.5 -23.5 56.5q0 34 23.5 57.5t56.5 23.5q34 0 57.5 -23.5t23.5 -57.5q0 -33 -23.5 -56.5t-57.5 -23.5q-33 0 -56.5 23.5z" />
    <glyph glyph-name="Epsilontonos" unicode="&#x388;" horiz-adv-x="556" 
d="M253 648l-28 -198h296l-15 -110h-296l-32 -228h306l-15 -112h-441l107 760h437l-16 -112h-303zM-166 589l94 171h143l-149 -171h-88z" />
    <glyph glyph-name="Etatonos" unicode="&#x389;" horiz-adv-x="692" 
d="M698 760l-106 -760h-134l48 338h-296l-48 -338h-134l107 760h134l-44 -310h296l44 310h133zM-166 589l94 171h143l-149 -171h-88z" />
    <glyph glyph-name="Iotatonos" unicode="&#x38a;" horiz-adv-x="262" 
d="M135 760h134l-107 -760h-134zM-164 589l94 171h143l-149 -171h-88z" />
    <glyph glyph-name="Omicrontonos" unicode="&#x38c;" horiz-adv-x="848" 
d="M216.5 31q-76.5 43 -118.5 121.5t-42 181.5q0 123 58 223t157.5 157.5t217.5 57.5q101 0 177.5 -43t118.5 -121.5t42 -181.5q0 -123 -58 -223t-157.5 -157.5t-217.5 -57.5q-101 0 -177.5 43zM544.5 151.5q66.5 42.5 105.5 115t39 158.5q0 104 -56 165t-150 61
q-78 0 -144.5 -42.5t-105.5 -115t-39 -158.5q0 -104 56 -165t150 -61q78 0 144.5 42.5zM-94 589l94 171h143l-149 -171h-88z" />
    <glyph glyph-name="Upsilontonos" unicode="&#x38e;" horiz-adv-x="606" 
d="M682 760l-490 -760h-141l205 317l-182 443h140l119 -322l208 322h141zM-203 589l94 171h143l-149 -171h-88z" />
    <glyph glyph-name="Omegatonos" unicode="&#x38f;" horiz-adv-x="865" 
d="M791.5 254.5q-48.5 -88.5 -133.5 -142.5h142l-15 -112h-315l16 116q106 39 161.5 125t55.5 186q0 99 -55.5 161.5t-161.5 62.5q-82 0 -148 -39t-103.5 -108t-37.5 -155q0 -77 36 -139.5t107 -93.5l-16 -116h-311l15 112h148q-55 38 -85 101t-30 142q0 117 58.5 212.5
t159 150t221.5 54.5q105 0 182 -43t117.5 -117.5t40.5 -166.5q0 -102 -48.5 -190.5zM-93 589l94 171h143l-149 -171h-88z" />
    <glyph glyph-name="iotadieresistonos" unicode="&#x390;" horiz-adv-x="283" 
d="M73.5 17q-31.5 29 -31.5 91q0 25 4 53l49 356h130l-49 -346q-3 -19 -3 -28q0 -28 11.5 -37.5t44.5 -9.5h10l-7 -104q-32 -4 -52 -4q-75 0 -106.5 29zM166 779h134l-138 -190h-80zM-14.5 638q-18.5 19 -18.5 46q0 28 18.5 47t46.5 19q27 0 46 -19t19 -47q0 -27 -19 -46
t-46 -19q-28 0 -46.5 19zM287 637.5q-19 19.5 -19 46.5q0 28 19 47t47 19q26 0 45 -19t19 -47q0 -27 -19 -46.5t-45 -19.5q-28 0 -47 19.5z" />
    <glyph glyph-name="Alpha" unicode="&#x391;" 
d="M457 123h-297l-53 -123h-140l354 760h152l141 -760h-138zM441 226l-62 404l-174 -404h236z" />
    <glyph glyph-name="Beta" unicode="&#x392;" horiz-adv-x="619" 
d="M561.5 339.5q25.5 -40.5 25.5 -94.5q0 -72 -33.5 -127.5t-97.5 -86.5t-152 -31h-276l107 760h258q104 0 160 -47t56 -121q0 -62 -30.5 -110.5t-89.5 -78.5q47 -23 72.5 -63.5zM251 654l-29 -210h108q69 0 107 36.5t38 91.5q0 38 -26 60t-80 22h-118zM420.5 145.5
q36.5 38.5 36.5 102.5q0 44 -30 72t-86 28h-133l-34 -241h134q76 0 112.5 38.5z" />
    <glyph glyph-name="Gamma" unicode="&#x393;" horiz-adv-x="513" 
d="M164 0h-135l106 760h418l-15 -112h-284z" />
    <glyph glyph-name="uni0394" unicode="&#x394;" horiz-adv-x="689" 
d="M649 0h-682l372 760h152zM492 103l-93 541l-247 -541h340z" />
    <glyph glyph-name="Epsilon" unicode="&#x395;" horiz-adv-x="556" 
d="M253 648l-28 -198h296l-15 -110h-296l-32 -228h306l-15 -112h-441l107 760h437l-16 -112h-303z" />
    <glyph glyph-name="Zeta" unicode="&#x396;" horiz-adv-x="621" 
d="M210 111h354l-16 -111h-559l457 649h-331l16 111h535z" />
    <glyph glyph-name="Eta" unicode="&#x397;" horiz-adv-x="692" 
d="M698 760l-106 -760h-134l48 338h-296l-48 -338h-134l107 760h134l-44 -310h296l44 310h133z" />
    <glyph glyph-name="Theta" unicode="&#x398;" horiz-adv-x="848" 
d="M216.5 31q-76.5 43 -118.5 121.5t-42 181.5q0 123 58 223t157.5 157.5t217.5 57.5q101 0 177.5 -43t118.5 -121.5t42 -181.5q0 -123 -58 -223t-157.5 -157.5t-217.5 -57.5q-101 0 -177.5 43zM546 150.5q67 42.5 106 115.5t39 160q0 68 -26 119t-73.5 79t-108.5 28
q-80 0 -147 -42.5t-105.5 -115t-38.5 -160.5q0 -68 26 -119.5t73 -79t110 -27.5q78 0 145 42.5zM309 447h288l-15 -109h-289z" />
    <glyph glyph-name="Iota" unicode="&#x399;" horiz-adv-x="262" 
d="M135 760h134l-107 -760h-134z" />
    <glyph glyph-name="Kappa" unicode="&#x39a;" horiz-adv-x="638" 
d="M403 440l194 -440h-142l-143 338l-122 -136l-28 -202h-134l107 760h134l-52 -369l319 369h153z" />
    <glyph glyph-name="Lambda" unicode="&#x39b;" horiz-adv-x="679" 
d="M501 0l-107 643l-289 -643h-138l367 760h152l154 -760h-139z" />
    <glyph glyph-name="Mu" unicode="&#x39c;" horiz-adv-x="882" 
d="M840 760l-34 -760h-129l30 568l-262 -568h-78l-105 571l-129 -571h-129l179 760h145l103 -574l261 574h148z" />
    <glyph glyph-name="Nu" unicode="&#x39d;" horiz-adv-x="695" 
d="M701 760l-106 -760h-132l-223 568l-80 -568h-132l107 760h132l223 -566l79 566h132z" />
    <glyph glyph-name="Xi" unicode="&#x39e;" horiz-adv-x="659" 
d="M125 760h549l-16 -112h-549zM116 450h481l-15 -109h-481zM20 112h578l-15 -112h-579z" />
    <glyph glyph-name="Omicron" unicode="&#x39f;" horiz-adv-x="848" 
d="M216.5 31q-76.5 43 -118.5 121.5t-42 181.5q0 123 58 223t157.5 157.5t217.5 57.5q101 0 177.5 -43t118.5 -121.5t42 -181.5q0 -123 -58 -223t-157.5 -157.5t-217.5 -57.5q-101 0 -177.5 43zM544.5 151.5q66.5 42.5 105.5 115t39 158.5q0 104 -56 165t-150 61
q-78 0 -144.5 -42.5t-105.5 -115t-39 -158.5q0 -104 56 -165t150 -61q78 0 144.5 42.5z" />
    <glyph glyph-name="Pi" unicode="&#x3a0;" horiz-adv-x="710" 
d="M609 0h-134l91 648h-313l-91 -648h-133l106 760h580z" />
    <glyph glyph-name="Rho" unicode="&#x3a1;" horiz-adv-x="649" 
d="M583 701q65 -59 65 -168q0 -89 -38 -158t-108.5 -108t-165.5 -39h-142l-32 -228h-134l107 760h261q122 0 187 -59zM465 390q47 53 47 133q0 64 -34 96t-111 32h-113l-45 -314h122q87 0 134 53z" />
    <glyph glyph-name="Sigma" unicode="&#x3a3;" horiz-adv-x="598" 
d="M260 406l-180 354h558l-15 -112h-351l130 -244l-207 -292h373l-15 -112h-580z" />
    <glyph glyph-name="Tau" unicode="&#x3a4;" horiz-adv-x="608" 
d="M639 648h-214l-90 -648h-135l91 648h-213l16 112h561z" />
    <glyph glyph-name="Upsilon" unicode="&#x3a5;" horiz-adv-x="606" 
d="M682 760l-490 -760h-141l205 317l-182 443h140l119 -322l208 322h141z" />
    <glyph glyph-name="Phi" unicode="&#x3a6;" horiz-adv-x="923" 
d="M857.5 261q-50.5 -75 -140.5 -118t-209 -53l-13 -90h-134l12 88q-96 7 -168 43t-111.5 94.5t-39.5 134.5q0 99 52 175.5t144.5 121.5t209.5 54l7 49h134l-7 -49q93 -9 164 -45.5t110.5 -95t39.5 -132.5q0 -102 -50.5 -177zM236 249q53 -45 152 -55l57 408
q-79 -5 -138.5 -36t-91.5 -82.5t-32 -114.5q0 -75 53 -120zM709 269.5q69 62.5 69 157.5q0 73 -53.5 119t-145.5 56l-57 -406q118 11 187 73.5z" />
    <glyph glyph-name="Chi" unicode="&#x3a7;" horiz-adv-x="637" 
d="M407 389l190 -389h-139l-131 281l-211 -281h-149l303 392l-179 368h139l120 -265l195 265h148z" />
    <glyph glyph-name="Psi" unicode="&#x3a8;" horiz-adv-x="845" 
d="M861 760l-30 -221q-19 -144 -107 -228.5t-239 -88.5l-31 -222h-134l31 224q-123 5 -192 75t-69 186q0 26 5 59l29 216h134l-31 -222q-3 -24 -3 -51q0 -67 34 -105t109 -42l59 420h134l-59 -421q88 4 135 54.5t59 139.5l32 227h134z" />
    <glyph glyph-name="uni03A9" unicode="&#x3a9;" horiz-adv-x="865" 
d="M791.5 254.5q-48.5 -88.5 -133.5 -142.5h142l-15 -112h-315l16 116q106 39 161.5 125t55.5 186q0 99 -55.5 161.5t-161.5 62.5q-82 0 -148 -39t-103.5 -108t-37.5 -155q0 -77 36 -139.5t107 -93.5l-16 -116h-311l15 112h148q-55 38 -85 101t-30 142q0 117 58.5 212.5
t159 150t221.5 54.5q105 0 182 -43t117.5 -117.5t40.5 -166.5q0 -102 -48.5 -190.5z" />
    <glyph glyph-name="Iotadieresis" unicode="&#x3aa;" horiz-adv-x="262" 
d="M135 760h134l-107 -760h-134zM70 878.5q-20 20.5 -20 49.5t20 49.5t49 20.5t49.5 -20.5t20.5 -49.5t-20.5 -49.5t-49.5 -20.5t-49 20.5zM276.5 878.5q-20.5 20.5 -20.5 49.5t20.5 49.5t49.5 20.5q28 0 48 -20.5t20 -49.5t-20 -49.5t-48 -20.5q-29 0 -49.5 20.5z" />
    <glyph glyph-name="Upsilondieresis" unicode="&#x3ab;" horiz-adv-x="606" 
d="M682 760l-490 -760h-141l205 317l-182 443h140l119 -322l208 322h141zM244 878.5q-20 20.5 -20 49.5t20 49.5t49 20.5t49.5 -20.5t20.5 -49.5t-20.5 -49.5t-49.5 -20.5t-49 20.5zM450.5 878.5q-20.5 20.5 -20.5 49.5t20.5 49.5t49.5 20.5q28 0 48 -20.5t20 -49.5
t-20 -49.5t-48 -20.5q-29 0 -49.5 20.5z" />
    <glyph glyph-name="alphatonos" unicode="&#x3ac;" horiz-adv-x="672" 
d="M138 16.5q-47 28.5 -73 80.5t-26 122q0 91 38.5 161.5t100.5 109t131 38.5q64 0 108 -26.5t66 -71.5l12 87h127l-51 -362q-1 -9 -1 -22q0 -21 10.5 -29t33.5 -8h11l-7 -104q-28 -4 -48 -4q-61 0 -90.5 21t-36.5 65l-2 18q-37 -52 -88 -78t-109 -26q-59 0 -106 28.5z
M379.5 121q39.5 26 62.5 70t23 96q0 59 -33.5 96.5t-90.5 37.5q-48 0 -87 -26t-61.5 -70.5t-22.5 -97.5q0 -59 33.5 -95.5t91.5 -36.5q45 0 84.5 26zM303 589l94 171h143l-149 -171h-88z" />
    <glyph glyph-name="epsilontonos" unicode="&#x3ad;" horiz-adv-x="526" 
d="M73 27.5q-52 39.5 -52 99.5q0 47 31.5 87.5t89.5 55.5v3q-80 20 -80 91q0 44 29.5 81.5t84 60t125.5 22.5q87 0 140.5 -35t62.5 -102l-125 -27q-3 26 -25 42t-64 16q-48 0 -74 -19.5t-26 -45.5q0 -23 19 -34.5t46 -11.5h66l-11 -79h-58q-49 0 -74 -20.5t-25 -51.5
q0 -29 24 -47.5t71 -18.5q52 0 83 20.5t40 50.5l124 -11q-20 -78 -91 -122t-177 -44q-102 0 -154 39.5zM249 589l94 171h143l-149 -171h-88z" />
    <glyph glyph-name="etatonos" unicode="&#x3ae;" horiz-adv-x="603" 
d="M518.5 482q40.5 -46 40.5 -118q0 -17 -4 -55l-72 -507h-131l70 493q4 28 4 45q0 45 -20.5 66t-65.5 21q-64 0 -101 -45.5t-46 -108.5h-1l-37 -273h-131l72 517h117v-86q35 47 82.5 72t103.5 25q79 0 119.5 -46zM301 589l94 171h143l-149 -171h-88z" />
    <glyph glyph-name="iotatonos" unicode="&#x3af;" horiz-adv-x="283" 
d="M73.5 17q-31.5 29 -31.5 91q0 25 4 53l49 356h130l-49 -346q-3 -19 -3 -28q0 -28 11.5 -37.5t44.5 -9.5h10l-7 -104q-32 -4 -52 -4q-75 0 -106.5 29zM114 589l94 171h143l-149 -171h-88z" />
    <glyph glyph-name="upsilondieresistonos" unicode="&#x3b0;" horiz-adv-x="591" 
d="M105 35q-57 47 -57 144q0 27 4 54l40 284h130l-41 -294q-3 -18 -3 -35q0 -47 23 -70t73 -23q108 0 126 126l41 296h131l-42 -298q-16 -112 -84.5 -171.5t-179.5 -59.5q-104 0 -161 47zM336 779h134l-138 -190h-80zM155.5 638q-18.5 19 -18.5 46q0 28 18.5 47t46.5 19
q27 0 46 -19t19 -47q0 -27 -19 -46t-46 -19q-28 0 -46.5 19zM457 637.5q-19 19.5 -19 46.5q0 28 19 47t47 19q26 0 45 -19t19 -47q0 -27 -19 -46.5t-45 -19.5q-28 0 -47 19.5z" />
    <glyph glyph-name="alpha" unicode="&#x3b1;" horiz-adv-x="672" 
d="M138 16.5q-47 28.5 -73 80.5t-26 122q0 91 38.5 161.5t100.5 109t131 38.5q64 0 108 -26.5t66 -71.5l12 87h127l-51 -362q-1 -9 -1 -22q0 -21 10.5 -29t33.5 -8h11l-7 -104q-28 -4 -48 -4q-61 0 -90.5 21t-36.5 65l-2 18q-37 -52 -88 -78t-109 -26q-59 0 -106 28.5z
M379.5 121q39.5 26 62.5 70t23 96q0 59 -33.5 96.5t-90.5 37.5q-48 0 -87 -26t-61.5 -70.5t-22.5 -97.5q0 -59 33.5 -95.5t91.5 -36.5q45 0 84.5 26z" />
    <glyph glyph-name="beta" unicode="&#x3b2;" horiz-adv-x="628" 
d="M549.5 382q38.5 -51 38.5 -123q0 -69 -33.5 -131.5t-95.5 -101t-142 -38.5q-110 0 -151 89l-38 -275h-132l101 718q18 123 92.5 187.5t189.5 64.5q93 0 146 -44t53 -116q0 -58 -36 -104t-95 -61q64 -14 102.5 -65zM382 119q36 23 56.5 62.5t20.5 87.5q0 63 -39 92.5
t-101 29.5h-20l13 91h21q44 0 70 19.5t36 44t10 44.5q0 34 -25 55t-63 21q-65 0 -96.5 -39t-39.5 -93l-40 -282q-1 -14 -1 -30q0 -55 29.5 -90.5t87.5 -35.5q45 0 81 23z" />
    <glyph glyph-name="gamma" unicode="&#x3b3;" horiz-adv-x="552" 
d="M581 517l-270 -478l-34 -237h-131l33 234l-136 481h135l81 -365l185 365h137z" />
    <glyph glyph-name="delta" unicode="&#x3b4;" horiz-adv-x="613" 
d="M142.5 17q-52.5 29 -79.5 78t-27 109q0 66 27 123.5t80 95.5t127 46q30 7 56 7l-179 207l10 77h442l-14 -103h-257l154 -175q46 -52 68 -100t22 -105q0 -88 -38.5 -153.5t-107 -100.5t-157.5 -35q-74 0 -126.5 29zM366.5 118.5q36.5 23.5 56.5 63.5t20 86q0 53 -28 89
t-86 36q-50 0 -87.5 -26t-57 -67.5t-19.5 -86.5q0 -52 31.5 -85t86.5 -33q47 0 83.5 23.5z" />
    <glyph glyph-name="epsilon" unicode="&#x3b5;" horiz-adv-x="526" 
d="M73 27.5q-52 39.5 -52 99.5q0 47 31.5 87.5t89.5 55.5v3q-80 20 -80 91q0 44 29.5 81.5t84 60t125.5 22.5q87 0 140.5 -35t62.5 -102l-125 -27q-3 26 -25 42t-64 16q-48 0 -74 -19.5t-26 -45.5q0 -23 19 -34.5t46 -11.5h66l-11 -79h-58q-49 0 -74 -20.5t-25 -51.5
q0 -29 24 -47.5t71 -18.5q52 0 83 20.5t40 50.5l124 -11q-20 -78 -91 -122t-177 -44q-102 0 -154 39.5z" />
    <glyph glyph-name="zeta" unicode="&#x3b6;" horiz-adv-x="472" 
d="M202 -125q72 84 72 105q0 8 -7 15.5t-26 15.5l-47 24q-61 30 -93.5 52t-49.5 49.5t-17 67.5q0 173 358 454h-271l21 102h427l-10 -72q-169 -139 -280.5 -261t-111.5 -193q0 -31 22.5 -52t79.5 -50l57 -28q47 -24 67 -43.5t20 -43.5q0 -38 -43 -94t-87 -95z" />
    <glyph glyph-name="eta" unicode="&#x3b7;" horiz-adv-x="603" 
d="M518.5 482q40.5 -46 40.5 -118q0 -17 -4 -55l-72 -507h-131l70 493q4 28 4 45q0 45 -20.5 66t-65.5 21q-64 0 -101 -45.5t-46 -108.5h-1l-37 -273h-131l72 517h117v-86q35 47 82.5 72t103.5 25q79 0 119.5 -46z" />
    <glyph glyph-name="theta" unicode="&#x3b8;" horiz-adv-x="628" 
d="M554.5 695.5q54.5 -76.5 54.5 -213.5q0 -138 -38 -250t-113 -177.5t-182 -65.5q-115 0 -168.5 77.5t-53.5 211.5q0 132 36.5 244.5t111 181t183.5 68.5q115 0 169.5 -76.5zM264 604q-45 -62 -66 -160h282q1 12 1 36q0 88 -26 137t-81 49q-65 0 -110 -62zM404 163.5
q46 68.5 65 177.5h-285q-2 -36 -2 -55q0 -90 25.5 -140.5t79.5 -50.5q71 0 117 68.5z" />
    <glyph glyph-name="iota" unicode="&#x3b9;" horiz-adv-x="283" 
d="M73.5 17q-31.5 29 -31.5 91q0 25 4 53l49 356h130l-49 -346q-3 -19 -3 -28q0 -28 11.5 -37.5t44.5 -9.5h10l-7 -104q-32 -4 -52 -4q-75 0 -106.5 29z" />
    <glyph glyph-name="kappa" unicode="&#x3ba;" horiz-adv-x="531" 
d="M337 319l163 -319h-135l-115 238l-73 -67l-24 -171h-129l72 517h129l-27 -193l201 193h152z" />
    <glyph glyph-name="lambda" unicode="&#x3bb;" horiz-adv-x="567" 
d="M539 90l-5 -91q-38 -11 -67 -11q-48 0 -70.5 19t-32.5 69l-70 288l-186 -364h-141l288 495l-31 122q-7 28 -17.5 37t-39.5 9h-16l5 104q40 5 68 5q54 0 80.5 -25t40.5 -88l136 -531q6 -24 15.5 -31t33.5 -7h9z" />
    <glyph glyph-name="uni03BC" unicode="&#x3bc;" horiz-adv-x="611" 
d="M587 517l-72 -517h-118l1 81q-36 -45 -85 -69t-105 -24q-33 0 -55 7l-27 -193h-130l85 601l16 114h130l-41 -296q-4 -26 -4 -40q0 -91 88 -91q60 0 97 40.5t49 96.5l41 290h130z" />
    <glyph glyph-name="nu" unicode="&#x3bd;" horiz-adv-x="546" 
d="M586 517l-279 -517h-139l-135 517h135l84 -406l193 406h141z" />
    <glyph glyph-name="xi" unicode="&#x3be;" horiz-adv-x="512" 
d="M265 -132q60 84 60 110q0 19 -36 32l-66 25q-95 35 -142.5 77t-47.5 107q0 72 52 130t131 79q-60 13 -91.5 48t-31.5 85q0 63 37.5 111t96.5 74t122 26q96 0 149 -43t53 -121l-124 -14q0 32 -21 51.5t-65 19.5q-51 0 -84.5 -29.5t-33.5 -77.5q0 -43 33 -65t86 -22h95
l-13 -97h-110q-48 0 -82 -19t-51 -49.5t-17 -64.5q0 -35 29.5 -57.5t95.5 -46.5l84 -35q51 -19 70.5 -37.5t19.5 -44.5q0 -39 -39 -98t-75 -96z" />
    <glyph glyph-name="omicron" unicode="&#x3bf;" horiz-adv-x="630" 
d="M155 17.5q-55 29.5 -85.5 82t-30.5 120.5q0 92 39.5 162t110 108t161.5 38q71 0 125.5 -29t85 -82t30.5 -121q0 -92 -39.5 -162t-110 -108t-161.5 -38q-70 0 -125 29.5zM375.5 119q39.5 24 62.5 68t23 100q0 64 -32.5 99t-86.5 35q-47 0 -86.5 -24t-63 -67.5t-23.5 -99.5
q0 -65 32.5 -100t87.5 -35q47 0 86.5 24z" />
    <glyph glyph-name="pi" unicode="&#x3c0;" horiz-adv-x="616" 
d="M447 412h-234l-58 -412h-131l72 517h496l-72 -517h-131z" />
    <glyph glyph-name="rho" unicode="&#x3c1;" horiz-adv-x="646" 
d="M469.5 29.5q64.5 41.5 101 112.5t36.5 156q0 65 -27.5 117t-81.5 82.5t-130 30.5q-130 0 -213 -77.5t-101 -212.5l-62 -436h131l38 281q22 -49 67 -72t97 -23q80 0 144.5 41.5zM444.5 384q31.5 -37 31.5 -96q0 -55 -23 -99.5t-61.5 -69t-83.5 -24.5q-60 0 -92.5 36.5
t-32.5 94.5q0 55 22.5 99.5t61.5 70t86 25.5q60 0 91.5 -37z" />
    <glyph glyph-name="uni03C2" unicode="&#x3c2;" horiz-adv-x="550" 
d="M219 -125q73 82 73 104q0 9 -7 17t-27 17l-56 26q-60 28 -93 52.5t-50 59.5t-17 89q0 83 37.5 148.5t104 102.5t148.5 37q98 0 153.5 -44.5t55.5 -124.5l-126 -12q-4 74 -95 74q-39 0 -73 -20.5t-54.5 -59.5t-20.5 -92q0 -36 23 -59.5t75 -48.5l80 -39q46 -22 63 -41
t17 -43q0 -40 -44.5 -97t-85.5 -93z" />
    <glyph glyph-name="sigma" unicode="&#x3c3;" horiz-adv-x="622" 
d="M149 17.5q-53 29.5 -82 81t-29 115.5q0 86 39 155t109.5 108.5t161.5 39.5h297l-14 -104h-120q32 -24 47.5 -61t15.5 -80q0 -80 -38 -145t-106.5 -102t-157.5 -37q-70 0 -123 29.5zM368.5 118q38.5 23 61 65.5t22.5 98.5q0 62 -32 96t-86 34q-45 0 -84 -23.5t-62 -66
t-23 -97.5q0 -61 32.5 -95.5t85.5 -34.5q47 0 85.5 23z" />
    <glyph glyph-name="tau" unicode="&#x3c4;" horiz-adv-x="458" 
d="M163.5 20q-36.5 32 -36.5 101q0 16 4 50l35 242h-136l21 104h416l-14 -104h-159l-34 -237q-2 -13 -2 -28q0 -31 13 -43t44 -12q28 0 74 12l-6 -100q-58 -17 -112 -17q-71 0 -107.5 32z" />
    <glyph glyph-name="upsilon" unicode="&#x3c5;" horiz-adv-x="591" 
d="M105 35q-57 47 -57 144q0 27 4 54l40 284h130l-41 -294q-3 -18 -3 -35q0 -47 23 -70t73 -23q108 0 126 126l41 296h131l-42 -298q-16 -112 -84.5 -171.5t-179.5 -59.5q-104 0 -161 47z" />
    <glyph glyph-name="phi" unicode="&#x3c6;" horiz-adv-x="784" 
d="M288 -11q-82 4 -138.5 37t-84 84.5t-27.5 111.5q0 68 30.5 126t86 99t130.5 58l25 -87q-69 -22 -107 -72.5t-38 -113.5q0 -61 35 -100t102 -45l61 430h97q141 0 213 -63t72 -168q0 -84 -43.5 -149t-117.5 -103t-165 -45l-26 -187h-131zM567 151q52 53 52 129
q0 58 -34.5 97t-104.5 43l-47 -330q82 8 134 61z" />
    <glyph glyph-name="chi" unicode="&#x3c7;" horiz-adv-x="524" 
d="M309 -126l-67 216l-169 -288h-143l263 389l-69 182q-10 27 -22 38t-40 11h-12l10 98q38 5 72 5q44 0 67.5 -18.5t34.5 -59.5l48 -155l133 225h142l-225 -332l91 -249q8 -22 19 -28.5t31 -6.5h10l-5 -97q-16 -4 -38 -6.5t-35 -2.5q-73 0 -96 79z" />
    <glyph glyph-name="psi" unicode="&#x3c8;" horiz-adv-x="755" 
d="M275 -10q-103 7 -163 63t-60 154q0 27 3 44l36 266h129l-41 -293q-2 -14 -2 -27q0 -45 29 -71.5t84 -31.5l59 423h130l-59 -423q65 7 102.5 43t44.5 89l41 291h128l-39 -281q-15 -110 -91 -175t-201 -71l-26 -188h-130z" />
    <glyph glyph-name="omega" unicode="&#x3c9;" horiz-adv-x="842" 
d="M83 43.5q-43 54.5 -43 146.5q0 88 30.5 161.5t94.5 121t162 55.5l5 -102q-77 -9 -119 -72.5t-42 -150.5q0 -51 19 -80.5t59 -29.5q41 0 70 32.5t35 79.5l18 133h118l-18 -134q-2 -14 -2 -22q0 -38 18.5 -63t54.5 -25q37 0 65 26.5t43.5 71.5t15.5 97q0 58 -27.5 95.5
t-83.5 44.5l32 99q209 -18 209 -237q0 -78 -29 -147.5t-86 -112t-136 -42.5q-61 0 -101.5 33t-47.5 89q-26 -56 -72.5 -89t-110.5 -33q-88 0 -131 54.5z" />
    <glyph glyph-name="iotadieresis" unicode="&#x3ca;" horiz-adv-x="283" 
d="M73.5 17q-31.5 29 -31.5 91q0 25 4 53l49 356h130l-49 -346q-3 -19 -3 -28q0 -28 11.5 -37.5t44.5 -9.5h10l-7 -104q-32 -4 -52 -4q-75 0 -106.5 29zM31 635.5q-20 20.5 -20 49.5t20 49.5t49 20.5t49.5 -20.5t20.5 -49.5t-20.5 -49.5t-49.5 -20.5t-49 20.5zM237.5 635.5
q-20.5 20.5 -20.5 49.5t20.5 49.5t49.5 20.5q28 0 48 -20.5t20 -49.5t-20 -49.5t-48 -20.5q-29 0 -49.5 20.5z" />
    <glyph glyph-name="upsilondieresis" unicode="&#x3cb;" horiz-adv-x="591" 
d="M105 35q-57 47 -57 144q0 27 4 54l40 284h130l-41 -294q-3 -18 -3 -35q0 -47 23 -70t73 -23q108 0 126 126l41 296h131l-42 -298q-16 -112 -84.5 -171.5t-179.5 -59.5q-104 0 -161 47zM201 635.5q-20 20.5 -20 49.5t20 49.5t49 20.5t49.5 -20.5t20.5 -49.5t-20.5 -49.5
t-49.5 -20.5t-49 20.5zM407.5 635.5q-20.5 20.5 -20.5 49.5t20.5 49.5t49.5 20.5q28 0 48 -20.5t20 -49.5t-20 -49.5t-48 -20.5q-29 0 -49.5 20.5z" />
    <glyph glyph-name="omicrontonos" unicode="&#x3cc;" horiz-adv-x="630" 
d="M155 17.5q-55 29.5 -85.5 82t-30.5 120.5q0 92 39.5 162t110 108t161.5 38q71 0 125.5 -29t85 -82t30.5 -121q0 -92 -39.5 -162t-110 -108t-161.5 -38q-70 0 -125 29.5zM375.5 119q39.5 24 62.5 68t23 100q0 64 -32.5 99t-86.5 35q-47 0 -86.5 -24t-63 -67.5t-23.5 -99.5
q0 -65 32.5 -100t87.5 -35q47 0 86.5 24zM301 589l94 171h143l-149 -171h-88z" />
    <glyph glyph-name="upsilontonos" unicode="&#x3cd;" horiz-adv-x="591" 
d="M105 35q-57 47 -57 144q0 27 4 54l40 284h130l-41 -294q-3 -18 -3 -35q0 -47 23 -70t73 -23q108 0 126 126l41 296h131l-42 -298q-16 -112 -84.5 -171.5t-179.5 -59.5q-104 0 -161 47zM284 589l94 171h143l-149 -171h-88z" />
    <glyph glyph-name="omegatonos" unicode="&#x3ce;" horiz-adv-x="842" 
d="M83 43.5q-43 54.5 -43 146.5q0 88 30.5 161.5t94.5 121t162 55.5l5 -102q-77 -9 -119 -72.5t-42 -150.5q0 -51 19 -80.5t59 -29.5q41 0 70 32.5t35 79.5l18 133h118l-18 -134q-2 -14 -2 -22q0 -38 18.5 -63t54.5 -25q37 0 65 26.5t43.5 71.5t15.5 97q0 58 -27.5 95.5
t-83.5 44.5l32 99q209 -18 209 -237q0 -78 -29 -147.5t-86 -112t-136 -42.5q-61 0 -101.5 33t-47.5 89q-26 -56 -72.5 -89t-110.5 -33q-88 0 -131 54.5zM410 589l94 171h143l-149 -171h-88z" />
    <glyph glyph-name="uni0400" unicode="&#x400;" horiz-adv-x="556" 
d="M253 648l-28 -198h296l-15 -110h-296l-32 -228h306l-15 -112h-441l107 760h437l-16 -112h-303zM313 1004l94 -171h-88l-149 171h143z" />
    <glyph glyph-name="uni0401" unicode="&#x401;" horiz-adv-x="556" 
d="M253 648l-28 -198h296l-15 -110h-296l-32 -228h306l-15 -112h-441l107 760h437l-16 -112h-303zM221 878.5q-20 20.5 -20 49.5t20 49.5t49 20.5t49.5 -20.5t20.5 -49.5t-20.5 -49.5t-49.5 -20.5t-49 20.5zM427.5 878.5q-20.5 20.5 -20.5 49.5t20.5 49.5t49.5 20.5
q28 0 48 -20.5t20 -49.5t-20 -49.5t-48 -20.5q-29 0 -49.5 20.5z" />
    <glyph glyph-name="uni0402" unicode="&#x402;" horiz-adv-x="819" 
d="M664.5 451.5q56.5 -25.5 87 -71t30.5 -103.5q0 -78 -36.5 -141t-101.5 -102t-150 -46l-3 105q73 10 114.5 58.5t41.5 112.5q0 51 -37.5 76t-105.5 25h-147l-51 -365h-133l90 648h-184l15 112h569l-15 -112h-252l-23 -171h158q77 0 133.5 -25.5z" />
    <glyph glyph-name="uni0403" unicode="&#x403;" horiz-adv-x="503" 
d="M538 648h-286l-90 -648h-133l106 760h418zM408 833h-88l94 171h143z" />
    <glyph glyph-name="uni0404" unicode="&#x404;" horiz-adv-x="828" 
d="M217 33q-77 45 -119.5 122t-42.5 170q0 122 58.5 224.5t158.5 162.5t220 60q87 0 157.5 -37t114.5 -101t55 -143l-130 -6q-15 79 -69.5 123.5t-136.5 44.5q-67 0 -124 -30t-98 -82t-60 -116h354l-14 -94h-354v-5q0 -65 25.5 -115t73 -77t109.5 -27q85 0 154.5 46.5
t108.5 126.5l129 -19q-52 -126 -157 -199.5t-236 -73.5q-100 0 -177 45z" />
    <glyph glyph-name="uni0405" unicode="&#x405;" horiz-adv-x="666" 
d="M102.5 49.5q-67.5 61.5 -67.5 163.5l134 10q0 -72 41.5 -100t102.5 -28q73 0 118.5 34t45.5 92q0 30 -13 48t-34 28.5t-60 22.5l-86 27q-99 30 -145.5 78.5t-46.5 124.5q0 104 78 163t210 59q136 0 202 -61t66 -157l-137 -13q0 62 -32.5 93t-101.5 31q-64 0 -105 -26
t-41 -76q0 -37 26 -59.5t87 -41.5l81 -25q64 -19 104.5 -41.5t64 -60t23.5 -96.5q0 -79 -41 -135.5t-112.5 -86t-161.5 -29.5q-132 0 -199.5 61.5z" />
    <glyph glyph-name="uni0406" unicode="&#x406;" horiz-adv-x="262" 
d="M135 760h134l-107 -760h-134z" />
    <glyph glyph-name="uni0407" unicode="&#x407;" horiz-adv-x="262" 
d="M135 760h134l-107 -760h-134zM70 878.5q-20 20.5 -20 49.5t20 49.5t49 20.5t49.5 -20.5t20.5 -49.5t-20.5 -49.5t-49.5 -20.5t-49 20.5zM276.5 878.5q-20.5 20.5 -20.5 49.5t20.5 49.5t49.5 20.5q28 0 48 -20.5t20 -49.5t-20 -49.5t-48 -20.5q-29 0 -49.5 20.5z" />
    <glyph glyph-name="uni0408" unicode="&#x408;" horiz-adv-x="609" 
d="M93.5 51q-64.5 63 -64.5 177l133 9q0 -64 27.5 -95.5t79.5 -31.5q124 0 147 156l70 494h133l-69 -493q-20 -145 -92.5 -212t-193.5 -67q-106 0 -170.5 63z" />
    <glyph glyph-name="uni0409" unicode="&#x409;" horiz-adv-x="1083" 
d="M935.5 491q55.5 -28 84 -78.5t28.5 -115.5q0 -92 -38.5 -159t-109.5 -102.5t-167 -35.5h-271l91 651h-8l-430 -651h-146l516 760h216l-34 -241h134q79 0 134.5 -28zM862 160q51 51 51 133q0 54 -34.5 85.5t-107.5 31.5h-119l-42 -301h113q88 0 139 51z" />
    <glyph glyph-name="uni040A" unicode="&#x40a;" horiz-adv-x="1064" 
d="M916.5 491q55.5 -28 84 -78.5t28.5 -115.5q0 -92 -38.5 -159t-109.5 -102.5t-167 -35.5h-271l48 342h-281l-48 -342h-133l106 760h133l-43 -306h281l43 306h133l-34 -241h134q79 0 134.5 -28zM843 160q51 51 51 133q0 54 -34.5 85.5t-107.5 31.5h-119l-42 -301h113
q88 0 139 51z" />
    <glyph glyph-name="uni040B" unicode="&#x40b;" horiz-adv-x="813" 
d="M705 424q62 -53 62 -149q0 -23 -3 -47l-32 -228h-134l30 215q4 23 4 47q0 57 -31 80t-104 23h-140l-51 -365h-133l90 648h-184l15 112h569l-15 -112h-252l-23 -171h159q111 0 173 -53z" />
    <glyph glyph-name="uni040C" unicode="&#x40c;" horiz-adv-x="638" 
d="M403 440l194 -440h-142l-143 338l-122 -136l-28 -202h-134l107 760h134l-52 -369l319 369h153zM441 833h-88l94 171h143z" />
    <glyph glyph-name="uni040D" unicode="&#x40d;" horiz-adv-x="703" 
d="M708 760l-106 -760h-133l77 553l-383 -553h-134l106 760h133l-77 -554l383 554l1 -1v1h133zM387 1004l94 -171h-88l-149 171h143z" />
    <glyph glyph-name="uni040E" unicode="&#x40e;" horiz-adv-x="611" 
d="M687 760l-463 -760h-146l173 284l-174 476h137l113 -350l214 350h146zM281 879q-40 45 -40 129h82q0 -46 22 -70.5t59 -24.5q74 0 103 95h81q-18 -85 -68.5 -129.5t-124.5 -44.5t-114 45z" />
    <glyph glyph-name="uni040F" unicode="&#x40f;" horiz-adv-x="685" 
d="M690 760l-106 -760h-216l-28 -153h-111l14 153h-214l106 760h133l-90 -648h289l90 648h133z" />
    <glyph glyph-name="uni0410" unicode="&#x410;" 
d="M457 123h-297l-53 -123h-140l354 760h152l141 -760h-138zM441 226l-62 404l-174 -404h236z" />
    <glyph glyph-name="uni0411" unicode="&#x411;" horiz-adv-x="648" 
d="M496 476q56 -27 86 -75.5t30 -111.5q0 -89 -39.5 -154.5t-111 -100t-164.5 -34.5h-268l106 760h484l-15 -111h-350l-21 -146h130q77 0 133 -27zM428 160q50 48 50 128q0 51 -34.5 80.5t-107.5 29.5h-117l-40 -286h111q88 0 138 48z" />
    <glyph glyph-name="uni0412" unicode="&#x412;" horiz-adv-x="619" 
d="M561.5 339.5q25.5 -40.5 25.5 -94.5q0 -72 -33.5 -127.5t-97.5 -86.5t-152 -31h-276l107 760h258q104 0 160 -47t56 -121q0 -62 -30.5 -110.5t-89.5 -78.5q47 -23 72.5 -63.5zM251 654l-29 -210h108q69 0 107 36.5t38 91.5q0 38 -26 60t-80 22h-118zM420.5 145.5
q36.5 38.5 36.5 102.5q0 44 -30 72t-86 28h-133l-34 -241h134q76 0 112.5 38.5z" />
    <glyph glyph-name="uni0413" unicode="&#x413;" horiz-adv-x="503" 
d="M538 648h-286l-90 -648h-133l106 760h418z" />
    <glyph glyph-name="uni0414" unicode="&#x414;" horiz-adv-x="724" 
d="M695 112l-35 -252h-112l12 140h-469l-27 -140h-112l35 252h66l303 648h152l119 -648h68zM497 112l-78 515l-223 -515h301z" />
    <glyph glyph-name="uni0415" unicode="&#x415;" horiz-adv-x="556" 
d="M253 648l-28 -198h296l-15 -110h-296l-32 -228h306l-15 -112h-441l107 760h437l-16 -112h-303z" />
    <glyph glyph-name="uni0416" unicode="&#x416;" horiz-adv-x="991" 
d="M752 446l194 -446h-135l-142 356l-111 -119l-33 -237h-130l36 256l-74 113l-237 -369h-148l317 474l-185 286h143l205 -352l49 352h130l-50 -358l301 358h162z" />
    <glyph glyph-name="uni0417" unicode="&#x417;" horiz-adv-x="602" 
d="M545.5 341q24.5 -41 24.5 -97q0 -78 -37 -136t-104.5 -89t-157.5 -31q-82 0 -139 25t-85.5 68.5t-28.5 97.5q0 22 2 34l130 3q-2 -14 -2 -23q0 -46 31 -71.5t93 -25.5q74 0 119.5 42.5t45.5 110.5q0 46 -30.5 72.5t-94.5 26.5h-120l14 103h96q68 0 113 37t45 95
q0 38 -27 59.5t-82 21.5q-66 0 -102 -31t-45 -81l-127 11q15 95 90.5 152t198.5 57q112 0 170 -49t58 -126q0 -64 -31.5 -114.5t-87.5 -78.5q46 -22 70.5 -63z" />
    <glyph glyph-name="uni0418" unicode="&#x418;" horiz-adv-x="703" 
d="M708 760l-106 -760h-133l77 553l-383 -553h-134l106 760h133l-77 -554l383 554l1 -1v1h133z" />
    <glyph glyph-name="uni0419" unicode="&#x419;" horiz-adv-x="703" 
d="M708 760l-106 -760h-133l77 553l-383 -553h-134l106 760h133l-77 -554l383 554l1 -1v1h133zM326 879q-40 45 -40 129h82q0 -46 22 -70.5t59 -24.5q74 0 103 95h81q-18 -85 -68.5 -129.5t-124.5 -44.5t-114 45z" />
    <glyph glyph-name="uni041A" unicode="&#x41a;" horiz-adv-x="638" 
d="M403 440l194 -440h-142l-143 338l-122 -136l-28 -202h-134l107 760h134l-52 -369l319 369h153z" />
    <glyph glyph-name="uni041B" unicode="&#x41b;" 
d="M479 0l-96 627l-271 -627h-145l354 760h151l142 -760h-135z" />
    <glyph glyph-name="uni041C" unicode="&#x41c;" horiz-adv-x="882" 
d="M840 760l-34 -760h-127l31 575l-265 -575h-78l-106 578l-130 -578h-127l179 760h144l104 -574l263 574h146z" />
    <glyph glyph-name="uni041D" unicode="&#x41d;" horiz-adv-x="692" 
d="M698 760l-106 -760h-134l48 338h-296l-48 -338h-134l107 760h134l-44 -310h296l44 310h133z" />
    <glyph glyph-name="uni041E" unicode="&#x41e;" horiz-adv-x="848" 
d="M216.5 31q-76.5 43 -118.5 121.5t-42 181.5q0 123 58 223t157.5 157.5t217.5 57.5q101 0 177.5 -43t118.5 -121.5t42 -181.5q0 -123 -58 -223t-157.5 -157.5t-217.5 -57.5q-101 0 -177.5 43zM544.5 151.5q66.5 42.5 105.5 115t39 158.5q0 104 -56 165t-150 61
q-78 0 -144.5 -42.5t-105.5 -115t-39 -158.5q0 -104 56 -165t150 -61q78 0 144.5 42.5z" />
    <glyph glyph-name="uni041F" unicode="&#x41f;" horiz-adv-x="685" 
d="M584 0h-133l90 648h-289l-90 -648h-133l106 760h555z" />
    <glyph glyph-name="uni0420" unicode="&#x420;" horiz-adv-x="649" 
d="M583 701q65 -59 65 -168q0 -89 -38 -158t-108.5 -108t-165.5 -39h-142l-32 -228h-134l107 760h261q122 0 187 -59zM465 390q47 53 47 133q0 64 -34 96t-111 32h-113l-45 -314h122q87 0 134 53z" />
    <glyph glyph-name="uni0421" unicode="&#x421;" horiz-adv-x="827" 
d="M218 30.5q-77 42.5 -119.5 120.5t-42.5 182q0 119 56 219.5t154.5 160t219.5 59.5q93 0 165 -35t115.5 -98t55.5 -145l-139 -12q-15 81 -67.5 125.5t-133.5 44.5q-80 0 -146 -43t-104 -116t-38 -157q0 -104 56.5 -165t150.5 -61q82 0 150 46.5t104 123.5l135 -13
q-50 -127 -154.5 -203t-240.5 -76q-100 0 -177 42.5z" />
    <glyph glyph-name="uni0422" unicode="&#x422;" horiz-adv-x="608" 
d="M639 648h-214l-90 -648h-135l91 648h-213l16 112h561z" />
    <glyph glyph-name="uni0423" unicode="&#x423;" horiz-adv-x="611" 
d="M687 760l-463 -760h-146l173 284l-174 476h137l113 -350l214 350h146z" />
    <glyph glyph-name="uni0424" unicode="&#x424;" horiz-adv-x="891" 
d="M820 242.5q-48 -76.5 -134.5 -118t-200.5 -43.5l-13 -93h-129l13 93q-91 3 -158.5 34.5t-104 88t-36.5 132.5q0 105 48 181.5t135 118t201 43.5l13 93h129l-13 -93q138 -5 218 -72.5t80 -182.5q0 -105 -48 -181.5zM673.5 258q62.5 60 62.5 164q0 140 -182 145l-53 -374
q110 5 172.5 65zM372 193l53 374q-111 -5 -173.5 -65t-62.5 -164q0 -140 183 -145z" />
    <glyph glyph-name="uni0425" unicode="&#x425;" horiz-adv-x="637" 
d="M407 385l190 -385h-138l-132 279l-209 -279h-151l303 392l-180 368h138l122 -267l194 267h150z" />
    <glyph glyph-name="uni0426" unicode="&#x426;" horiz-adv-x="705" 
d="M680 112l-35 -252h-112l11 140h-516l107 760h133l-90 -648h282l91 648h133l-91 -648h87z" />
    <glyph glyph-name="uni0427" unicode="&#x427;" horiz-adv-x="646" 
d="M652 760l-106 -760h-134l39 278h-119q-71 0 -127.5 26.5t-88.5 76.5t-32 118q0 22 3 44l30 217h134l-30 -215q-3 -21 -3 -38q0 -60 35.5 -88.5t109.5 -28.5h103l52 370h134z" />
    <glyph glyph-name="uni0428" unicode="&#x428;" horiz-adv-x="1000" 
d="M1006 760l-106 -760h-871l106 760h133l-90 -648h237l90 648h130l-90 -648h237l90 648h134z" />
    <glyph glyph-name="uni0429" unicode="&#x429;" horiz-adv-x="1026" 
d="M1002 112l-35 -252h-112l11 140h-837l106 760h133l-90 -648h237l90 648h130l-90 -648h237l90 648h134l-90 -648h86z" />
    <glyph glyph-name="uni042A" unicode="&#x42a;" horiz-adv-x="766" 
d="M618.5 491q55.5 -28 84 -78.5t28.5 -115.5q0 -92 -38.5 -159t-109.5 -102.5t-167 -35.5h-271l90 648h-157l16 112h290l-34 -241h134q79 0 134.5 -28zM545 160q51 51 51 133q0 54 -34.5 85.5t-107.5 31.5h-119l-42 -301h113q88 0 139 51z" />
    <glyph glyph-name="uni042B" unicode="&#x42b;" horiz-adv-x="903" 
d="M502.5 491q55.5 -28 84 -78.5t28.5 -115.5q0 -92 -38.5 -159t-109.5 -102.5t-167 -35.5h-271l106 760h133l-34 -241h134q79 0 134.5 -28zM909 760l-106 -760h-134l106 760h134zM429 160q51 51 51 133q0 54 -34.5 85.5t-107.5 31.5h-119l-42 -301h113q88 0 139 51z" />
    <glyph glyph-name="uni042C" unicode="&#x42c;" horiz-adv-x="650" 
d="M502.5 491q55.5 -28 84 -78.5t28.5 -115.5q0 -92 -38.5 -159t-109.5 -102.5t-167 -35.5h-271l106 760h133l-34 -241h134q79 0 134.5 -28zM429 160q51 51 51 133q0 54 -34.5 85.5t-107.5 31.5h-119l-42 -301h113q88 0 139 51z" />
    <glyph glyph-name="uni042D" unicode="&#x42d;" horiz-adv-x="828" 
d="M645 727q77 -45 119.5 -122t42.5 -170q0 -122 -58.5 -224.5t-158.5 -162.5t-220 -60q-87 0 -157.5 37t-114.5 101t-55 143l130 6q15 -79 69.5 -123.5t136.5 -44.5q67 0 124 30t98 82t60 116h-354l14 94h354v5q0 65 -25.5 115t-73 77t-109.5 27q-85 0 -154.5 -46.5
t-108.5 -126.5l-129 19q52 126 157 199.5t236 73.5q100 0 177 -45z" />
    <glyph glyph-name="uni042E" unicode="&#x42e;" horiz-adv-x="1089" 
d="M912 729q74 -43 115.5 -119t41.5 -170q0 -123 -55.5 -227t-152.5 -164.5t-216 -60.5q-94 0 -167.5 43t-115 118.5t-41.5 170.5v18h-112l-47 -338h-133l106 760h133l-43 -310h113q26 93 84 166t141.5 114.5t180.5 41.5q94 0 168 -43zM794.5 156q64.5 46 101 121.5
t36.5 160.5q0 65 -25 113t-68.5 73.5t-99.5 25.5q-80 0 -144.5 -45.5t-101 -121.5t-36.5 -161q0 -65 25 -113t69 -73.5t100 -25.5q79 0 143.5 46z" />
    <glyph glyph-name="uni042F" unicode="&#x42f;" horiz-adv-x="652" 
d="M551 0h-133l32 228h-134l-147 -228h-150l167 254q-56 27 -86.5 78t-30.5 118q0 95 38.5 165t111.5 107.5t173 37.5h265zM465 337l44 314h-112q-89 0 -140.5 -53.5t-51.5 -139.5q0 -57 34.5 -89t107.5 -32h118z" />
    <glyph glyph-name="uni0430" unicode="&#x430;" horiz-adv-x="647" 
d="M624 517l-72 -517h-119l3 85q-33 -43 -81.5 -70t-107.5 -27q-58 0 -105.5 28.5t-75 81.5t-27.5 124q0 88 37 158t100 109t138 39q61 0 104.5 -27t64.5 -72l12 88h129zM379 121q40 26 63 69.5t23 95.5q0 62 -32.5 98.5t-90.5 36.5q-45 0 -84.5 -23.5t-63 -66.5t-23.5 -99
q0 -64 33 -100.5t88 -36.5q47 0 87 26z" />
    <glyph glyph-name="uni0431" unicode="&#x431;" horiz-adv-x="634" 
d="M491 489.5q50 -28.5 77 -78.5t27 -114q0 -89 -40 -159.5t-111 -110t-160 -39.5q-107 0 -170 66.5t-63 194.5q0 41 8 99q20 143 65.5 229.5t121.5 128.5t192 47l173 7l-25 -110l-143 -4q-81 -2 -132 -25.5t-81.5 -70t-51.5 -124.5q69 92 196 92q67 0 117 -28.5zM381 123.5
q40 28.5 62.5 74.5t22.5 98q0 58 -32.5 91.5t-84.5 33.5q-49 0 -89.5 -27t-63.5 -72.5t-23 -99.5q0 -60 32 -93.5t86 -33.5q50 0 90 28.5z" />
    <glyph glyph-name="uni0432" unicode="&#x432;" horiz-adv-x="514" 
d="M453.5 230.5q18.5 -27.5 18.5 -63.5q0 -76 -55.5 -121.5t-158.5 -45.5h-235l73 517h229q80 0 120 -32t40 -85q0 -41 -21 -75.5t-63 -51.5q34 -15 52.5 -42.5zM208 425l-16 -119h79q42 0 67.5 20.5t25.5 54.5q0 44 -63 44h-93zM324.5 117q26.5 23 26.5 62q0 54 -74 54h-96
l-19 -139h90q46 0 72.5 23z" />
    <glyph glyph-name="uni0433" unicode="&#x433;" horiz-adv-x="404" 
d="M407 413h-196l-58 -413h-130l73 517h326z" />
    <glyph glyph-name="uni0434" unicode="&#x434;" horiz-adv-x="592" 
d="M562 104l-33 -234h-106l11 130h-347l-26 -130h-107l33 234h60l212 413h144l97 -413h62zM382 104l-60 319l-148 -319h208z" />
    <glyph glyph-name="uni0435" unicode="&#x435;" horiz-adv-x="617" 
d="M168 220v-4q0 -61 33.5 -96t84.5 -35q49 0 85 21t58 57l128 -12q-42 -80 -113.5 -121.5t-166.5 -41.5q-72 0 -126 31t-83 84t-29 116q0 90 39 160.5t108.5 109.5t158.5 39q75 0 128 -29.5t80 -79.5t27 -113q0 -36 -9 -86h-403zM240 396.5q-43 -34.5 -61 -96.5h273v1
q0 63 -29 96.5t-82 33.5q-58 0 -101 -34.5z" />
    <glyph glyph-name="uni0436" unicode="&#x436;" horiz-adv-x="773" 
d="M582 310l152 -310h-128l-102 235l-69 -65l-24 -170h-122l26 186l-43 56l-164 -242h-141l239 329l-144 188h134l137 -202l29 202h121l-29 -205l192 205h153z" />
    <glyph glyph-name="uni0437" unicode="&#x437;" horiz-adv-x="478" 
d="M414 231q20 -30 20 -69q0 -78 -58 -126t-172 -48q-68 0 -113.5 19.5t-67.5 52t-22 71.5q0 5 2 15l124 2q-1 -4 -1 -12q0 -26 20 -40.5t58 -14.5q48 0 76 24.5t28 62.5q0 27 -21 42.5t-62 15.5h-74l11 82h55q48 0 77 23t29 60q0 46 -67 46q-41 0 -65.5 -19.5t-30.5 -49.5
l-118 12q12 65 66.5 106.5t155.5 41.5q94 0 139.5 -33t45.5 -89q0 -42 -24 -78t-65 -52q34 -15 54 -45z" />
    <glyph glyph-name="uni0438" unicode="&#x438;" horiz-adv-x="571" 
d="M547 517l-72 -517h-127l49 346l-246 -346l-1 1v-1h-127l73 517h126l-48 -346l246 346l1 -1v1h126z" />
    <glyph glyph-name="uni0439" unicode="&#x439;" horiz-adv-x="571" 
d="M547 517l-72 -517h-127l49 346l-246 -346l-1 1v-1h-127l73 517h126l-48 -346l246 346l1 -1v1h126zM221 636q-40 45 -40 129h82q0 -46 22 -70.5t59 -24.5q74 0 103 95h81q-18 -85 -68.5 -129.5t-124.5 -44.5t-114 45z" />
    <glyph glyph-name="uni043A" unicode="&#x43a;" horiz-adv-x="521" 
d="M315 294l166 -294h-130l-117 218l-61 -57l-22 -161h-128l73 517h127l-28 -203l200 203h156z" />
    <glyph glyph-name="uni043B" unicode="&#x43b;" horiz-adv-x="541" 
d="M371 0l-76 410l-190 -410h-136l264 517h144l122 -517h-128z" />
    <glyph glyph-name="uni043C" unicode="&#x43c;" horiz-adv-x="675" 
d="M629 517l-22 -517h-117l19 347l-171 -347h-72l-70 353l-80 -353h-121l124 517h132l74 -353l171 353h133z" />
    <glyph glyph-name="uni043D" unicode="&#x43d;" horiz-adv-x="569" 
d="M546 517l-73 -517h-130l30 216h-190l-30 -216h-130l73 517h130l-28 -197h190l28 197h130z" />
    <glyph glyph-name="uni043E" unicode="&#x43e;" horiz-adv-x="630" 
d="M155 17.5q-55 29.5 -85.5 82t-30.5 120.5q0 92 39.5 162t110 108t161.5 38q71 0 125.5 -29t85 -82t30.5 -121q0 -92 -39.5 -162t-110 -108t-161.5 -38q-70 0 -125 29.5zM375.5 119q39.5 24 62.5 68t23 100q0 64 -32.5 99t-86.5 35q-47 0 -86.5 -24t-63 -67.5t-23.5 -99.5
q0 -65 32.5 -100t87.5 -35q47 0 86.5 24z" />
    <glyph glyph-name="uni043F" unicode="&#x43f;" horiz-adv-x="565" 
d="M469 0h-130l58 413h-186l-58 -413h-130l73 517h445z" />
    <glyph glyph-name="uni0440" unicode="&#x440;" horiz-adv-x="648" 
d="M510.5 499.5q46.5 -28.5 72.5 -79.5t26 -117q0 -91 -38 -163t-102.5 -112t-141.5 -40q-57 0 -98.5 24.5t-64.5 67.5l-39 -278h-130l100 715h120l-4 -91q33 49 83 75.5t111 26.5q59 0 105.5 -28.5zM391.5 119q38.5 24 61.5 67.5t23 100.5q0 63 -33 98.5t-89 35.5
q-49 0 -88 -25.5t-61.5 -69t-22.5 -95.5q0 -62 34 -99t93 -37q44 0 82.5 24z" />
    <glyph glyph-name="uni0441" unicode="&#x441;" horiz-adv-x="607" 
d="M152 18q-54 30 -83.5 82.5t-29.5 117.5q0 93 40 163.5t110 108.5t158 38q98 0 160 -50.5t74 -136.5l-129 -10q-8 44 -38 67t-73 23q-51 0 -90.5 -25t-60.5 -68t-21 -97q0 -63 32.5 -99.5t89.5 -36.5q46 0 85.5 25.5t59.5 71.5l123 -11q-29 -89 -102 -141t-180 -52
q-71 0 -125 30z" />
    <glyph glyph-name="uni0442" unicode="&#x442;" horiz-adv-x="467" 
d="M471 413h-150l-58 -413h-130l58 413h-151l15 104h430z" />
    <glyph glyph-name="uni0443" unicode="&#x443;" horiz-adv-x="594" 
d="M570 517l-66 -475q-17 -124 -88.5 -188t-188.5 -64q-90 0 -145 36.5t-67 98.5l130 16q5 -29 27.5 -44t61.5 -15q61 0 94.5 39t44.5 117l7 50q-33 -45 -79 -69t-100 -24q-75 0 -116 44.5t-41 111.5q0 27 4 48l43 318h130l-41 -297q-3 -22 -3 -42q0 -44 22 -62.5t66 -18.5
q57 0 91 42.5t45 100.5l39 277h130z" />
    <glyph glyph-name="uni0444" unicode="&#x444;" horiz-adv-x="749" 
d="M669.5 136q-40.5 -70 -111.5 -109t-160 -39l-26 -186h-123l26 186q-71 2 -124.5 32t-82.5 82.5t-29 118.5q0 89 40.5 159t111.5 109t160 39l33 232h122l-32 -232q71 -2 124.5 -32t82.5 -82.5t29 -118.5q0 -89 -40.5 -159zM503.5 123.5q39.5 29.5 61 75.5t21.5 97
q0 59 -34.5 93t-92.5 35l-46 -332q51 2 90.5 31.5zM197.5 127q34.5 -34 92.5 -35l47 332q-51 -2 -91 -31.5t-61.5 -75.5t-21.5 -97q0 -59 34.5 -93z" />
    <glyph glyph-name="uni0445" unicode="&#x445;" horiz-adv-x="519" 
d="M331 263l151 -263h-135l-94 181l-148 -181h-141l230 268l-144 249h136l86 -166l135 166h141z" />
    <glyph glyph-name="uni0446" unicode="&#x446;" horiz-adv-x="586" 
d="M523 -130h-106l11 130h-405l73 517h130l-58 -413h182l58 413h130l-58 -413h76z" />
    <glyph glyph-name="uni0447" unicode="&#x447;" horiz-adv-x="530" 
d="M507 517l-72 -517h-130l24 175h-76q-87 0 -140 43.5t-53 115.5q0 21 2 32l21 151h127l-21 -146q-1 -8 -1 -23q0 -34 21 -52t68 -18h67l33 239h130z" />
    <glyph glyph-name="uni0448" unicode="&#x448;" horiz-adv-x="815" 
d="M792 517l-72 -517h-697l73 517h128l-58 -413h156l58 413h127l-58 -413h156l58 413h129z" />
    <glyph glyph-name="uni0449" unicode="&#x449;" horiz-adv-x="841" 
d="M777 -130h-106l11 130h-659l73 517h128l-58 -413h156l58 413h127l-58 -413h156l58 413h129l-58 -413h77z" />
    <glyph glyph-name="uni044A" unicode="&#x44a;" horiz-adv-x="601" 
d="M513 328q50 -44 50 -114q0 -103 -66.5 -158.5t-180.5 -55.5h-219l59 415h-116l15 102h244l-20 -145h93q91 0 141 -44zM403.5 125.5q33.5 30.5 33.5 80.5q0 34 -24 52t-71 18h-77l-26 -181h72q59 0 92.5 30.5z" />
    <glyph glyph-name="uni044B" unicode="&#x44b;" horiz-adv-x="757" 
d="M439 328q50 -44 50 -114q0 -103 -66.5 -158.5t-180.5 -55.5h-219l73 517h129l-20 -145h93q91 0 141 -44zM733 517l-72 -517h-130l72 517h130zM329.5 125.5q33.5 30.5 33.5 80.5q0 34 -24 52t-71 18h-77l-26 -181h72q59 0 92.5 30.5z" />
    <glyph glyph-name="uni044C" unicode="&#x44c;" horiz-adv-x="527" 
d="M439 328q50 -44 50 -114q0 -103 -66.5 -158.5t-180.5 -55.5h-219l73 517h129l-20 -145h93q91 0 141 -44zM329.5 125.5q33.5 30.5 33.5 80.5q0 34 -24 52t-71 18h-77l-26 -181h72q59 0 92.5 30.5z" />
    <glyph glyph-name="uni044D" unicode="&#x44d;" horiz-adv-x="620" 
d="M466 498.5q55 -29.5 85 -82t30 -119.5q0 -89 -39.5 -159.5t-109.5 -110t-159 -39.5q-102 0 -166 56.5t-75 146.5l116 5q8 -52 41 -80.5t86 -28.5q62 0 107.5 36.5t65.5 95.5h-218l11 83h220q-1 60 -35 94t-91 34q-55 0 -98.5 -30t-67.5 -82l-117 18q35 91 108.5 141.5
t177.5 50.5q73 0 128 -29.5z" />
    <glyph glyph-name="uni044E" unicode="&#x44e;" horiz-adv-x="828" 
d="M679 497.5q53 -30.5 81.5 -83t28.5 -117.5q0 -87 -38.5 -157.5t-107 -111t-154.5 -40.5q-70 0 -122.5 29.5t-80.5 81t-30 115.5h-73l-30 -214h-130l73 517h130l-28 -197h73q28 94 104 151t179 57q72 0 125 -30.5zM581.5 123q39.5 28 62 74.5t22.5 98.5q0 58 -32 92
t-84 34q-49 0 -88.5 -28t-62 -74.5t-22.5 -99.5q0 -58 32 -91.5t84 -33.5q49 0 88.5 28z" />
    <glyph glyph-name="uni044F" unicode="&#x44f;" horiz-adv-x="530" 
d="M434 0h-125l19 134h-92h-11l-80 -134h-134l104 165q-34 21 -52 54.5t-18 74.5q0 107 65 165t184 58h213zM341 233l26 184h-69q-62 0 -94.5 -30.5t-32.5 -81.5q0 -35 23 -53.5t69 -18.5h78z" />
    <glyph glyph-name="uni0450" unicode="&#x450;" horiz-adv-x="617" 
d="M168 220v-4q0 -61 33.5 -96t84.5 -35q49 0 85 21t58 57l128 -12q-42 -80 -113.5 -121.5t-166.5 -41.5q-72 0 -126 31t-83 84t-29 116q0 90 39 160.5t108.5 109.5t158.5 39q75 0 128 -29.5t80 -79.5t27 -113q0 -36 -9 -86h-403zM240 396.5q-43 -34.5 -61 -96.5h273v1
q0 63 -29 96.5t-82 33.5q-58 0 -101 -34.5zM306 761l94 -171h-88l-149 171h143z" />
    <glyph glyph-name="uni0451" unicode="&#x451;" horiz-adv-x="617" 
d="M168 220v-4q0 -61 33.5 -96t84.5 -35q49 0 85 21t58 57l128 -12q-42 -80 -113.5 -121.5t-166.5 -41.5q-72 0 -126 31t-83 84t-29 116q0 90 39 160.5t108.5 109.5t158.5 39q75 0 128 -29.5t80 -79.5t27 -113q0 -36 -9 -86h-403zM240 396.5q-43 -34.5 -61 -96.5h273v1
q0 63 -29 96.5t-82 33.5q-58 0 -101 -34.5zM214 635.5q-20 20.5 -20 49.5t20 49.5t49 20.5t49.5 -20.5t20.5 -49.5t-20.5 -49.5t-49.5 -20.5t-49 20.5zM420.5 635.5q-20.5 20.5 -20.5 49.5t20.5 49.5t49.5 20.5q28 0 48 -20.5t20 -49.5t-20 -49.5t-48 -20.5
q-29 0 -49.5 20.5z" />
    <glyph glyph-name="uni0452" unicode="&#x452;" horiz-adv-x="660" 
d="M576.5 482q40.5 -46 40.5 -118q0 -30 -4 -55l-49 -342q-14 -95 -60.5 -136t-126.5 -41q-52 0 -97 13l19 101q27 -8 56 -8q39 0 58 21.5t26 74.5l42 303q4 28 4 45q0 45 -20.5 66t-65.5 21q-58 0 -94.5 -38.5t-50.5 -95.5l-41 -293h-130l85 609h-99l12 83h99l9 68h130
l-9 -68h184l-12 -83h-184l-24 -175q33 46 80.5 70t102.5 24q79 0 119.5 -46z" />
    <glyph glyph-name="uni0453" unicode="&#x453;" horiz-adv-x="404" 
d="M407 413h-196l-58 -413h-130l73 517h326zM303 590h-88l94 171h143z" />
    <glyph glyph-name="uni0454" unicode="&#x454;" horiz-adv-x="620" 
d="M154 18.5q-55 29.5 -85 82t-30 119.5q0 89 39.5 159.5t109.5 110t159 39.5q102 0 166 -56.5t75 -146.5l-116 -5q-8 52 -41 80.5t-86 28.5q-62 0 -107.5 -36.5t-65.5 -95.5h218l-11 -83h-220q1 -60 35 -94t91 -34q55 0 98.5 30t67.5 82l117 -18q-35 -91 -108.5 -141.5
t-177.5 -50.5q-73 0 -128 29.5z" />
    <glyph glyph-name="uni0455" unicode="&#x455;" horiz-adv-x="523" 
d="M69 30.5q-55 42.5 -57 115.5l139 12q0 -39 19.5 -58.5t63.5 -19.5q48 0 76.5 17t28.5 55q0 25 -21.5 37.5t-78.5 31.5l-36 12q-75 24 -113 54t-38 84q0 78 64.5 117.5t171.5 39.5q93 0 148 -39t58 -105l-135 -11q-1 28 -20 46.5t-61 18.5q-41 0 -64.5 -14.5t-23.5 -40.5
q0 -16 17.5 -27t59.5 -25l46 -13q56 -17 90 -34t54.5 -44.5t20.5 -70.5q0 -90 -66.5 -135.5t-183.5 -45.5q-104 0 -159 42.5z" />
    <glyph glyph-name="uni0456" unicode="&#x456;" horiz-adv-x="253" 
d="M128 627q-24 24 -24 58t24 58.5t58 24.5t58 -24.5t24 -58.5t-24 -58t-58 -24t-58 24zM97 517h130l-72 -517h-130z" />
    <glyph glyph-name="uni0457" unicode="&#x457;" horiz-adv-x="252" 
d="M97 517h130l-72 -517h-130zM33 635.5q-20 20.5 -20 49.5t20 49.5t49 20.5t49.5 -20.5t20.5 -49.5t-20.5 -49.5t-49.5 -20.5t-49 20.5zM239.5 635.5q-20.5 20.5 -20.5 49.5t20.5 49.5t49.5 20.5q28 0 48 -20.5t20 -49.5t-20 -49.5t-48 -20.5q-29 0 -49.5 20.5z" />
    <glyph glyph-name="uni0458" unicode="&#x458;" horiz-adv-x="269" 
d="M144 627q-24 24 -24 58t24 58.5t58 24.5t58 -24t24 -59q0 -34 -24 -58t-58 -24t-58 24zM-134 -194l23 100q37 -10 71 -10q39 0 55.5 20.5t24.5 74.5l74 526h129l-77 -548q-14 -96 -61.5 -137.5t-128.5 -41.5q-64 0 -110 16z" />
    <glyph glyph-name="uni0459" unicode="&#x459;" horiz-adv-x="831" 
d="M743 328q50 -44 50 -114q0 -103 -66.5 -158.5t-180.5 -55.5h-219l59 420h-8l-269 -420h-140l344 517h216l-20 -145h93q91 0 141 -44zM633.5 125.5q33.5 30.5 33.5 80.5q0 34 -24 52t-71 18h-77l-26 -181h72q59 0 92.5 30.5z" />
    <glyph glyph-name="uni045A" unicode="&#x45a;" horiz-adv-x="847" 
d="M760 328q50 -44 50 -114q0 -103 -66.5 -158.5t-180.5 -55.5h-219l31 221h-191l-31 -221h-130l73 517h130l-27 -192h191l27 192h129l-20 -145h93q91 0 141 -44zM650.5 125.5q33.5 30.5 33.5 80.5q0 34 -24 52t-71 18h-77l-26 -181h72q59 0 92.5 30.5z" />
    <glyph glyph-name="uni045B" unicode="&#x45b;" horiz-adv-x="660" 
d="M577.5 482q40.5 -46 40.5 -118q0 -23 -5 -55l-43 -309h-130l41 295q5 35 5 45q0 44 -21 65.5t-66 21.5q-60 0 -97 -41.5t-49 -100.5l-40 -285h-130l86 609h-100l12 83h99l10 68h130l-10 -68h184l-12 -83h-183l-25 -174q34 46 81 69.5t102 23.5q80 0 120.5 -46z" />
    <glyph glyph-name="uni045C" unicode="&#x45c;" horiz-adv-x="521" 
d="M315 294l166 -294h-130l-117 218l-61 -57l-22 -161h-128l73 517h127l-28 -203l200 203h156zM356 590h-88l94 171h143z" />
    <glyph glyph-name="uni045D" unicode="&#x45d;" horiz-adv-x="571" 
d="M547 517l-72 -517h-127l49 346l-246 -346l-1 1v-1h-127l73 517h126l-48 -346l246 346l1 -1v1h126zM282 761l94 -171h-88l-149 171h143z" />
    <glyph glyph-name="uni045E" unicode="&#x45e;" horiz-adv-x="594" 
d="M570 517l-66 -475q-17 -124 -88.5 -188t-188.5 -64q-90 0 -145 36.5t-67 98.5l130 16q5 -29 27.5 -44t61.5 -15q61 0 94.5 39t44.5 117l7 50q-33 -45 -79 -69t-100 -24q-75 0 -116 44.5t-41 111.5q0 27 4 48l43 318h130l-41 -297q-3 -22 -3 -42q0 -44 22 -62.5t66 -18.5
q57 0 91 42.5t45 100.5l39 277h130zM234 636q-40 45 -40 129h82q0 -46 22 -70.5t59 -24.5q74 0 103 95h81q-18 -85 -68.5 -129.5t-124.5 -44.5t-114 45z" />
    <glyph glyph-name="uni045F" unicode="&#x45f;" horiz-adv-x="565" 
d="M542 517l-73 -517h-161l-27 -143h-109l13 143h-161l72 517h130l-58 -413h186l58 413h130z" />
    <glyph glyph-name="uni0462" unicode="&#x462;" horiz-adv-x="752" 
d="M600.5 463.5q56.5 -27.5 85.5 -75.5t29 -110q0 -88 -39.5 -150.5t-110 -95t-163.5 -32.5h-271l82 587h-147l14 97h146l11 76h133l-11 -76h216l-14 -97h-215l-14 -96h134q78 0 134.5 -27.5zM530.5 151.5q50.5 45.5 50.5 124.5q0 110 -144 110h-119l-39 -280h113
q88 0 138.5 45.5z" />
    <glyph glyph-name="uni0463" unicode="&#x463;" horiz-adv-x="580" 
d="M493 328.5q50 -43.5 50 -113.5q0 -104 -66.5 -159.5t-181.5 -55.5h-215l64 457h-98l12 83h97l31 220h129l-31 -220h187l-12 -83h-186l-12 -85h90q92 0 142 -43.5zM382 125q34 30 34 81q0 34 -24 52.5t-72 18.5h-72l-26 -182h67q59 0 93 30z" />
    <glyph glyph-name="uni0472" unicode="&#x472;" horiz-adv-x="847" 
d="M667 728q76 -44 117.5 -121t41.5 -174q0 -122 -57.5 -224t-157.5 -161.5t-221 -59.5q-100 0 -176 44t-117.5 121t-41.5 174q0 122 57.5 224t157.5 161.5t221 59.5q100 0 176 -44zM360 624q-58 -29 -99 -80t-60 -115h493v3q0 101 -56.5 161t-152.5 60q-67 0 -125 -29z
M521 136.5q58 29.5 99 81.5t60 117h-494v-7q0 -101 56.5 -161t153.5 -60q67 0 125 29.5z" />
    <glyph glyph-name="uni0473" unicode="&#x473;" horiz-adv-x="629" 
d="M477 498q55 -30 84 -82.5t29 -118.5q0 -90 -38.5 -160t-109 -109.5t-162.5 -39.5q-73 0 -127.5 30.5t-84 83t-29.5 118.5q0 90 39 160t109.5 109t161.5 39q73 0 128 -30zM237.5 394.5q-46.5 -35.5 -66.5 -95.5h300q-1 64 -34.5 97.5t-91.5 33.5q-61 0 -107.5 -35.5z
M393 122q47 36 67 97h-301q1 -64 34.5 -98.5t90.5 -34.5q62 0 109 36z" />
    <glyph glyph-name="uni0474" unicode="&#x474;" horiz-adv-x="687" 
d="M757 760l-23 -104h-14q-24 0 -41 -13t-34 -50l-280 -593h-147l-142 760h134l96 -624l225 500q24 54 50 80.5t60.5 35t92.5 8.5h23z" />
    <glyph glyph-name="uni0475" unicode="&#x475;" horiz-adv-x="551" 
d="M587 517l-22 -101h-10q-38 0 -62 -46l-192 -370h-139l-124 517h132l73 -407l135 292q22 51 45.5 75t57 32t93.5 8h13z" />
    <glyph glyph-name="uni048A" unicode="&#x48a;" horiz-adv-x="738" 
d="M311 880q-40 45 -40 129h82q0 -46 22 -70.5t59 -24.5q74 0 103 95h81q-18 -85 -68.5 -129.5t-124.5 -44.5t-114 45zM587 -140h-111l55 140h-62l77 553l-383 -553h-134l106 760h133l-77 -554l383 554l1 -1v1h133l-90 -648h96z" />
    <glyph glyph-name="uni048B" unicode="&#x48b;" horiz-adv-x="604" 
d="M219 636q-40 45 -40 129h82q0 -46 22 -70.5t59 -24.5q74 0 103 95h81q-18 -85 -68.5 -129.5t-124.5 -44.5t-114 45zM457 -130h-107l53 130h-55l49 346l-246 -346l-1 1v-1h-127l73 517h126l-48 -346l246 346l1 -1v1h126l-58 -413h85z" />
    <glyph glyph-name="uni048C" unicode="&#x48c;" horiz-adv-x="752" 
d="M600.5 463.5q56.5 -27.5 85.5 -75.5t29 -110q0 -88 -39.5 -150.5t-110 -95t-163.5 -32.5h-271l82 587h-147l14 97h146l11 76h133l-11 -76h216l-14 -97h-215l-14 -96h134q78 0 134.5 -27.5zM530.5 151.5q50.5 45.5 50.5 124.5q0 110 -144 110h-119l-39 -280h113
q88 0 138.5 45.5z" />
    <glyph glyph-name="uni048D" unicode="&#x48d;" horiz-adv-x="580" 
d="M493 328.5q50 -43.5 50 -113.5q0 -104 -66.5 -159.5t-181.5 -55.5h-215l64 457h-98l12 83h97l31 220h129l-31 -220h187l-12 -83h-186l-12 -85h90q92 0 142 -43.5zM382 125q34 30 34 81q0 34 -24 52.5t-72 18.5h-72l-26 -182h67q59 0 93 30z" />
    <glyph glyph-name="uni048E" unicode="&#x48e;" horiz-adv-x="667" 
d="M621 361.5q-44 -72.5 -125 -106.5l41 -96l-81 -44l-50 116q-26 -3 -53 -3h-159l-32 -228h-134l107 760h280q118 0 184 -60t66 -167q0 -99 -44 -171.5zM510.5 430.5q21.5 43.5 21.5 96.5q0 62 -33.5 93t-109.5 31h-136l-44 -314h139h12l-47 108l81 44l55 -126
q40 24 61.5 67.5z" />
    <glyph glyph-name="uni048F" unicode="&#x48f;" horiz-adv-x="651" 
d="M571.5 132q-40.5 -73 -109.5 -111l40 -91l-72 -39l-45 102q-30 -5 -55 -5q-59 0 -100.5 25t-64.5 69l-40 -280h-130l101 715h119l-4 -90q31 48 80.5 74.5t109.5 26.5q61 0 109 -29.5t75 -81.5t27 -116q0 -96 -40.5 -169zM466 199.5q19 41.5 19 92.5q0 64 -33.5 99.5
t-89.5 35.5q-51 0 -93 -28t-65.5 -74t-23.5 -98q0 -62 34 -99.5t94 -37.5q17 0 33 3l-49 111l72 40l50 -114q33 28 52 69.5z" />
    <glyph glyph-name="uni0490" unicode="&#x490;" horiz-adv-x="503" 
d="M572 893l-19 -133l-15 -112h-286l-90 -648h-133l106 760h299l26 133h112z" />
    <glyph glyph-name="uni0491" unicode="&#x491;" horiz-adv-x="410" 
d="M441 612l-28 -199h-202l-58 -413h-130l73 517h224l18 95h103z" />
    <glyph glyph-name="uni0492" unicode="&#x492;" horiz-adv-x="596" 
d="M345 648l-33 -241h194l-14 -98h-194l-43 -309h-133l43 309h-135l14 98h135l49 353h418l-15 -112h-286z" />
    <glyph glyph-name="uni0493" unicode="&#x493;" horiz-adv-x="447" 
d="M255 413l-17 -125h125l-11 -83h-126l-29 -205h-130l29 205h-83l11 83h84l32 229h326l-15 -104h-196z" />
    <glyph glyph-name="uni0494" unicode="&#x494;" horiz-adv-x="665" 
d="M542.5 412q75.5 -65 75.5 -189q0 -107 -38 -202t-112 -157t-177 -74l-2 117q61 10 104.5 56t65.5 113.5t22 140.5t-41.5 110.5t-135.5 37.5h-91l-51 -365h-133l106 760h435l-15 -112h-303l-23 -171h104q134 0 209.5 -65z" />
    <glyph glyph-name="uni0495" unicode="&#x495;" horiz-adv-x="546" 
d="M433 262q60 -48 60 -146q0 -136 -69.5 -223.5t-203.5 -102.5v106q72 12 109 69t37 138q0 54 -27.5 77.5t-89.5 23.5h-67l-29 -204h-130l73 517h336l-14 -98h-206l-15 -109h73q103 0 163 -48z" />
    <glyph glyph-name="uni0496" unicode="&#x496;" horiz-adv-x="1018" 
d="M752 446l194 -446h-135l-142 356l-111 -119l-33 -237h-130l36 256l-74 113l-237 -369h-148l317 474l-185 286h143l205 -352l49 352h130l-50 -358l301 358h162zM959 -140h-113l12 140h-36l15 112h157z" />
    <glyph glyph-name="uni0497" unicode="&#x497;" horiz-adv-x="797" 
d="M582 310l152 -310h-128l-102 235l-69 -65l-24 -170h-122l26 186l-43 56l-164 -242h-141l239 329l-144 188h134l137 -202l29 202h121l-29 -205l192 205h153zM738 -130h-106l11 130h-34l14 104h149z" />
    <glyph glyph-name="uni0498" unicode="&#x498;" horiz-adv-x="602" 
d="M545.5 341q24.5 -41 24.5 -97q0 -104 -64.5 -171t-175.5 -81l-27 -145h-111l12 146q-90 14 -138 64.5t-48 121.5q0 22 2 34l130 3q-2 -14 -2 -23q0 -46 31 -71.5t93 -25.5q74 0 119.5 42.5t45.5 110.5q0 46 -30.5 72.5t-94.5 26.5h-120l14 103h96q68 0 113 37t45 95
q0 38 -27 59.5t-82 21.5q-66 0 -102 -31t-45 -81l-127 11q15 95 90.5 152t198.5 57q112 0 170 -49t58 -126q0 -64 -31.5 -114.5t-87.5 -78.5q46 -22 70.5 -63z" />
    <glyph glyph-name="uni0499" unicode="&#x499;" horiz-adv-x="478" 
d="M414 231q20 -30 20 -69q0 -67 -43 -112.5t-128 -57.5l-27 -135h-104l12 136q-71 11 -107 49.5t-36 88.5q0 5 2 15l124 2q-1 -4 -1 -12q0 -26 20 -40.5t58 -14.5q48 0 76 24.5t28 62.5q0 27 -21 42.5t-62 15.5h-74l11 82h55q48 0 77 23t29 60q0 46 -67 46
q-41 0 -65.5 -19.5t-30.5 -49.5l-118 12q12 65 66.5 106.5t155.5 41.5q94 0 139.5 -33t45.5 -89q0 -42 -24 -78t-65 -52q34 -15 54 -45z" />
    <glyph glyph-name="uni049A" unicode="&#x49a;" horiz-adv-x="658" 
d="M403 440l194 -440h-142l-143 338l-122 -136l-28 -202h-134l107 760h134l-52 -369l319 369h153zM599 -140h-113l12 140h-36l15 112h157z" />
    <glyph glyph-name="uni049B" unicode="&#x49b;" horiz-adv-x="539" 
d="M315 294l166 -294h-130l-117 218l-61 -57l-22 -161h-128l73 517h127l-28 -203l200 203h156zM480 -130h-106l11 130h-34l14 104h149z" />
    <glyph glyph-name="uni049C" unicode="&#x49c;" horiz-adv-x="726" 
d="M476 482l206 -482h-134l-157 405l-28 -26l-27 -189h-93l16 116l-65 -61l-34 -245h-131l106 760h131l-49 -353l65 63l26 183h93l-15 -105l221 212h175z" />
    <glyph glyph-name="uni049D" unicode="&#x49d;" horiz-adv-x="606" 
d="M382 323l184 -323h-130l-135 251l-20 -141h-77l14 97l-45 -37l-24 -170h-126l73 517h125l-30 -212l46 38l18 127h76l-10 -71l139 118h162z" />
    <glyph glyph-name="uni049E" unicode="&#x49e;" horiz-adv-x="764" 
d="M520 437l199 -437h-135l-151 344l-162 -176l-24 -168h-133l83 593h-130l13 89h129l11 78h134l-11 -78h123l-12 -89h-124l-32 -229l357 396h163z" />
    <glyph glyph-name="uni049F" unicode="&#x49f;" horiz-adv-x="579" 
d="M374 294l165 -294h-129l-117 218l-59 -56l-23 -162h-129l85 609h-98l12 83h98l9 68h129l-9 -68h186l-12 -83h-186l-41 -293l198 201h157z" />
    <glyph glyph-name="uni04A0" unicode="&#x4a0;" horiz-adv-x="787" 
d="M548 440l194 -440h-142l-143 338l-122 -136l-28 -202h-134l91 648h-185l15 112h320l-52 -369l319 369h153z" />
    <glyph glyph-name="uni04A1" unicode="&#x4a1;" horiz-adv-x="652" 
d="M446 294l166 -294h-130l-117 218l-61 -57l-22 -161h-128l58 413h-172l15 104h299l-28 -203l200 203h156z" />
    <glyph glyph-name="uni04A2" unicode="&#x4a2;" horiz-adv-x="718" 
d="M698 760l-106 -760h-134l48 338h-296l-48 -338h-134l107 760h134l-44 -310h296l44 310h133zM659 -140h-113l12 140h-36l15 112h157z" />
    <glyph glyph-name="uni04A3" unicode="&#x4a3;" horiz-adv-x="594" 
d="M546 517l-73 -517h-130l30 216h-190l-30 -216h-130l73 517h130l-28 -197h190l28 197h130zM530 -130h-106l11 130h-34l14 104h149z" />
    <glyph glyph-name="uni04A4" unicode="&#x4a4;" horiz-adv-x="933" 
d="M698 760l-106 -760h-134l48 338h-296l-48 -338h-134l107 760h134l-44 -310h296l44 310h133zM968 648h-286l-90 -648h-133l106 760h418z" />
    <glyph glyph-name="uni04A5" unicode="&#x4a5;" horiz-adv-x="725" 
d="M546 517l-73 -517h-130l30 216h-190l-30 -216h-130l73 517h130l-28 -197h190l28 197h130zM728 413h-196l-58 -413h-130l73 517h326z" />
    <glyph glyph-name="uni04A6" unicode="&#x4a6;" horiz-adv-x="1086" 
d="M964 412q75 -65 75 -189q0 -107 -38 -202t-111.5 -157t-176.5 -74l-2 117q61 10 104.5 56t65 113.5t21.5 140.5t-41.5 110.5t-135.5 37.5h-90l-51 -365h-133l90 648h-289l-90 -648h-133l106 760h555l-39 -283h104q134 0 209 -65z" />
    <glyph glyph-name="uni04A7" unicode="&#x4a7;" horiz-adv-x="862" 
d="M749 262q60 -48 60 -146q0 -137 -69.5 -224t-204.5 -102l1 106q72 12 109 69t37 138q0 54 -27.5 77.5t-89.5 23.5h-68l-28 -204h-130l58 413h-186l-58 -413h-130l73 517h445l-29 -207h73q104 0 164 -48z" />
    <glyph glyph-name="uni04A8" unicode="&#x4a8;" horiz-adv-x="960" 
d="M745 87q71 0 155 34l-5 -111q-69 -22 -148 -22q-86 0 -158 26q-81 -26 -167 -26q-116 0 -200.5 45.5t-129 126.5t-44.5 185t43.5 192.5t117.5 148t162 83.5l-5 -123q-47 -21 -88.5 -63t-67.5 -103t-26 -134q0 -75 29 -133.5t85.5 -92t137.5 -33.5q18 0 26 1
q-56 50 -86.5 123.5t-30.5 169.5q0 108 39.5 197t116.5 141.5t185 52.5q123 0 189 -71.5t66 -204.5q0 -125 -55.5 -232t-152.5 -177h12zM509.5 216q31.5 -59 85.5 -91q97 49 154 148.5t57 218.5q0 163 -124 163q-67 0 -113 -42t-68.5 -109t-22.5 -140q0 -89 31.5 -148z" />
    <glyph glyph-name="uni04A9" unicode="&#x4a9;" horiz-adv-x="731" 
d="M669.5 189q-36.5 -68 -100.5 -116q23 0 51.5 3.5t45.5 8.5v-87q-40 -10 -93 -10q-65 0 -125 23q-69 -23 -143 -23q-80 0 -142 31t-96 86.5t-34 127.5q0 108 65 188t174 107l-2 -110q-55 -22 -87 -71t-32 -110q0 -76 48.5 -116.5t128.5 -40.5h10q-78 76 -78 190
q0 73 30 131.5t86.5 92.5t133.5 34q94 0 145 -52.5t51 -141.5q0 -77 -36.5 -145zM446 106q65 31 102 92t37 138q0 51 -19.5 73.5t-57.5 22.5q-62 0 -95 -53t-33 -127q0 -100 66 -146z" />
    <glyph glyph-name="uni04AA" unicode="&#x4aa;" horiz-adv-x="827" 
d="M551 156.5q68 46.5 104 123.5l135 -13q-45 -116 -136.5 -189.5t-211.5 -86.5l-27 -144h-110l13 148q-121 24 -191.5 113.5t-70.5 224.5q0 119 56 219.5t154.5 160t219.5 59.5q93 0 165 -35t115.5 -98t55.5 -145l-139 -12q-15 81 -67.5 125.5t-133.5 44.5q-80 0 -146 -43
t-104 -116t-38 -157q0 -104 56.5 -165t150.5 -61q82 0 150 46.5z" />
    <glyph glyph-name="uni04AB" unicode="&#x4ab;" horiz-adv-x="607" 
d="M376.5 120.5q39.5 25.5 59.5 71.5l123 -11q-25 -76 -82.5 -126t-141.5 -63l-26 -135h-104l12 137q-82 18 -130 79t-48 145q0 93 40 163.5t110 108.5t158 38q98 0 160 -50.5t74 -136.5l-129 -10q-8 44 -38 67t-73 23q-51 0 -90.5 -25t-60.5 -68t-21 -97q0 -63 32.5 -99.5
t89.5 -36.5q46 0 85.5 25.5z" />
    <glyph glyph-name="uni04AC" unicode="&#x4ac;" horiz-adv-x="608" 
d="M639 648h-214l-90 -648h-135l91 648h-213l16 112h561zM401 -140h-113l12 140h-36l15 112h157z" />
    <glyph glyph-name="uni04AD" unicode="&#x4ad;" horiz-adv-x="467" 
d="M471 413h-150l-58 -413h-130l58 413h-151l15 104h430zM320 -130h-106l11 130h-34l14 104h149z" />
    <glyph glyph-name="uni04AE" unicode="&#x4ae;" horiz-adv-x="625" 
d="M389 320l-45 -320h-135l45 320l-183 440h131l128 -333l218 333h148z" />
    <glyph glyph-name="uni04AF" unicode="&#x4af;" horiz-adv-x="567" 
d="M314 9l-29 -207h-133l30 210l-146 505h126l95 -409l208 409h138z" />
    <glyph glyph-name="uni04B0" unicode="&#x4b0;" horiz-adv-x="625" 
d="M447 403h133l-14 -97h-179l-43 -306h-135l43 306h-181l14 97h135l-149 357h131l128 -333l218 333h148z" />
    <glyph glyph-name="uni04B1" unicode="&#x4b1;" horiz-adv-x="567" 
d="M359 87h110l-12 -87h-144l-28 -198h-133l28 198h-144l12 87h112l-124 430h126l95 -409l208 409h138z" />
    <glyph glyph-name="uni04B2" unicode="&#x4b2;" horiz-adv-x="659" 
d="M407 385l190 -385h-138l-132 279l-209 -279h-151l303 392l-180 368h138l122 -267l194 267h150zM600 -140h-113l12 140h-36l15 112h157z" />
    <glyph glyph-name="uni04B3" unicode="&#x4b3;" horiz-adv-x="538" 
d="M331 263l151 -263h-135l-94 181l-148 -181h-141l230 268l-144 249h136l86 -166l135 166h141zM479 -130h-106l11 130h-34l14 104h149z" />
    <glyph glyph-name="uni04B4" unicode="&#x4b4;" horiz-adv-x="885" 
d="M861 112l-35 -252h-112l12 140h-539l90 648h-198l15 112h532l-15 -112h-200l-74 -536h308l90 648h130l-90 -648h86z" />
    <glyph glyph-name="uni04B5" unicode="&#x4b5;" horiz-adv-x="708" 
d="M645 -130h-106l11 130h-430l58 413h-138l15 104h404l-14 -104h-140l-44 -309h212l58 413h127l-58 -413h78z" />
    <glyph glyph-name="uni04B6" unicode="&#x4b6;" horiz-adv-x="671" 
d="M652 760l-106 -760h-134l39 278h-119q-71 0 -127.5 26.5t-88.5 76.5t-32 118q0 22 3 44l30 217h134l-30 -215q-3 -21 -3 -38q0 -60 35.5 -88.5t109.5 -28.5h103l52 370h134zM612 -140h-113l12 140h-36l15 112h157z" />
    <glyph glyph-name="uni04B7" unicode="&#x4b7;" horiz-adv-x="556" 
d="M507 517l-72 -517h-130l24 175h-76q-87 0 -140 43.5t-53 115.5q0 21 2 32l21 151h127l-21 -146q-1 -8 -1 -23q0 -34 21 -52t68 -18h67l33 239h130zM492 -130h-106l11 130h-34l14 104h149z" />
    <glyph glyph-name="uni04B8" unicode="&#x4b8;" horiz-adv-x="681" 
d="M686 760l-106 -760h-130l39 278h-101l-21 -146h-93l21 148q-95 9 -153 67t-58 152q0 22 3 44l30 217h131l-30 -215q-3 -21 -3 -38q0 -97 96 -113l22 158h93l-23 -162h101l52 370h130z" />
    <glyph glyph-name="uni04B9" unicode="&#x4b9;" horiz-adv-x="554" 
d="M530 517l-72 -517h-130l24 175h-52l-12 -87h-76l12 88q-75 8 -119.5 50t-44.5 108q0 21 2 32l21 151h127l-21 -146q-2 -16 -2 -23q0 -55 52 -66l15 108h76l-16 -112h53l33 239h130z" />
    <glyph glyph-name="uni04BA" unicode="&#x4ba;" horiz-adv-x="658" 
d="M490 448q56 -26 88 -76t32 -119q0 -21 -3 -44l-29 -209h-134l28 205q3 21 3 38q0 60 -35 88.5t-109 28.5h-118l-50 -360h-134l106 760h134l-40 -286h133q72 0 128 -26z" />
    <glyph glyph-name="uni04BB" unicode="&#x4bb;" horiz-adv-x="602" 
d="M518.5 482q40.5 -46 40.5 -118q0 -23 -5 -55l-43 -309h-130l41 295q5 35 5 45q0 44 -21 65.5t-66 21.5q-60 0 -97 -41.5t-49 -100.5l-40 -285h-130l107 760h130l-46 -325q34 46 81 69.5t102 23.5q80 0 120.5 -46z" />
    <glyph glyph-name="uni04BC" unicode="&#x4bc;" horiz-adv-x="986" 
d="M328 335v-10q0 -66 26.5 -115.5t74 -76t110.5 -26.5q72 0 136 37.5t103 101.5l133 -23q-59 -111 -159 -173t-220 -62q-99 0 -175 44.5t-117.5 121t-41.5 170.5v11q-74 3 -111.5 33t-37.5 84q0 28 9.5 65.5t23.5 64.5l107 -14q-24 -56 -24 -94q0 -21 10.5 -31t34.5 -13
q23 97 84 175t148.5 122.5t187.5 44.5q99 0 175 -45t118 -122t42 -170q0 -58 -13 -100h-624zM503 623.5q-57 -29.5 -98 -80.5t-61 -114h490v3q0 102 -56 161.5t-152 59.5q-66 0 -123 -29.5z" />
    <glyph glyph-name="uni04BD" unicode="&#x4bd;" horiz-adv-x="745" 
d="M295 220v-4q0 -61 33.5 -96t84.5 -35q49 0 85 21t58 57l128 -12q-42 -80 -113.5 -121.5t-166.5 -41.5q-72 0 -126 31t-83 84t-29 116v3q-64 4 -99 31.5t-35 79.5q0 28 9 63t21 59l97 -14q-23 -59 -23 -96q0 -21 9 -30.5t30 -12.5q25 103 105 164.5t192 61.5
q75 0 128 -29.5t80 -79.5t27 -113q0 -36 -9 -86h-403zM367 396.5q-43 -34.5 -61 -96.5h273v1q0 63 -29 96.5t-82 33.5q-58 0 -101 -34.5z" />
    <glyph glyph-name="uni04BE" unicode="&#x4be;" horiz-adv-x="986" 
d="M328 335v-10q0 -66 26.5 -115.5t74 -76t110.5 -26.5q72 0 136 37.5t103 101.5l133 -23q-51 -97 -134.5 -157t-185.5 -74l-27 -145h-111l13 147q-81 14 -142 60.5t-93.5 116.5t-32.5 153v11q-74 3 -111.5 33t-37.5 84q0 28 9.5 65.5t23.5 64.5l107 -14q-24 -56 -24 -94
q0 -21 10.5 -31t34.5 -13q23 97 84 175t148.5 122.5t187.5 44.5q99 0 175 -45t118 -122t42 -170q0 -58 -13 -100h-624zM503 623.5q-57 -29.5 -98 -80.5t-61 -114h490v3q0 102 -56 161.5t-152 59.5q-66 0 -123 -29.5z" />
    <glyph glyph-name="uni04BF" unicode="&#x4bf;" horiz-adv-x="745" 
d="M295 220v-4q0 -61 33.5 -96t84.5 -35q49 0 85 21t58 57l128 -12q-34 -66 -89 -106t-127 -52l-26 -136h-104l11 136q-85 17 -134 79.5t-49 146.5v3q-64 4 -99 31.5t-35 79.5q0 28 9 63t21 59l97 -14q-23 -59 -23 -96q0 -21 9 -30.5t30 -12.5q25 103 105 164.5t192 61.5
q75 0 128 -29.5t80 -79.5t27 -113q0 -36 -9 -86h-403zM367 396.5q-43 -34.5 -61 -96.5h273v1q0 63 -29 96.5t-82 33.5q-58 0 -101 -34.5z" />
    <glyph glyph-name="uni04C0" unicode="&#x4c0;" horiz-adv-x="262" 
d="M135 760h134l-107 -760h-134z" />
    <glyph glyph-name="uni04C1" unicode="&#x4c1;" horiz-adv-x="991" 
d="M752 446l194 -446h-135l-142 356l-111 -119l-33 -237h-130l36 256l-74 113l-237 -369h-148l317 474l-185 286h143l205 -352l49 352h130l-50 -358l301 358h162zM467 879q-40 45 -40 129h82q0 -46 22 -70.5t59 -24.5q74 0 103 95h81q-18 -85 -68.5 -129.5t-124.5 -44.5
t-114 45z" />
    <glyph glyph-name="uni04C2" unicode="&#x4c2;" horiz-adv-x="773" 
d="M582 310l152 -310h-128l-102 235l-69 -65l-24 -170h-122l26 186l-43 56l-164 -242h-141l239 329l-144 188h134l137 -202l29 202h121l-29 -205l192 205h153zM325 636q-40 45 -40 129h82q0 -46 22 -70.5t59 -24.5q74 0 103 95h81q-18 -85 -68.5 -129.5t-124.5 -44.5
t-114 45z" />
    <glyph glyph-name="uni04C3" unicode="&#x4c3;" horiz-adv-x="641" 
d="M567.5 314q46.5 -67 46.5 -158q0 -93 -39 -171.5t-110 -129.5t-165 -65l-1 116q86 22 132 87.5t46 156.5q0 61 -30 109t-95 107l-165 -185l-25 -181h-133l106 760h133l-53 -379l326 379h162l-272 -306q90 -73 136.5 -140z" />
    <glyph glyph-name="uni04C4" unicode="&#x4c4;" horiz-adv-x="538" 
d="M446 187q41 -60 41 -132q0 -75 -35 -132.5t-97 -91.5t-140 -41l1 106q67 12 105.5 55t38.5 110q0 48 -26 87t-82 87l-79 -74l-22 -161h-128l73 517h127l-28 -204l199 204h157l-224 -211q78 -59 119 -119z" />
    <glyph glyph-name="uni04C5" unicode="&#x4c5;" horiz-adv-x="727" 
d="M576 -140h-112l57 140h-42l-96 627l-271 -627h-145l354 760h151l121 -648h109z" />
    <glyph glyph-name="uni04C6" unicode="&#x4c6;" horiz-adv-x="618" 
d="M475 -130h-107l53 130h-50l-76 410l-190 -410h-136l264 517h144l97 -413h119z" />
    <glyph glyph-name="uni04C7" unicode="&#x4c7;" horiz-adv-x="693" 
d="M698 760l-98 -700q-19 -135 -96.5 -202.5t-195.5 -67.5q-15 0 -21 1l-1 115q8 -1 23 -1q59 0 103 38.5t54 113.5l40 282h-297l-47 -339h-133l106 760h133l-43 -309h296l44 309h133z" />
    <glyph glyph-name="uni04C8" unicode="&#x4c8;" horiz-adv-x="569" 
d="M487 96l-19 -131q-14 -99 -60.5 -137t-129.5 -38q-50 0 -91 15l15 95q29 -8 55 -8q40 0 58.5 19.5t24.5 64.5l3 24l30 216h-190l-30 -216h-130l73 517h130l-28 -197h190l28 197h130z" />
    <glyph glyph-name="uni04C9" unicode="&#x4c9;" horiz-adv-x="718" 
d="M577 -140h-111l56 140h-64l48 338h-296l-48 -338h-134l107 760h134l-44 -310h296l44 310h133l-90 -648h96z" />
    <glyph glyph-name="uni04CA" unicode="&#x4ca;" horiz-adv-x="599" 
d="M452 -130h-107l53 130h-55l30 216h-190l-30 -216h-130l73 517h130l-28 -197h190l28 197h130l-58 -413h81z" />
    <glyph glyph-name="uni04CB" unicode="&#x4cb;" horiz-adv-x="646" 
d="M652 760l-106 -760h-102l-27 -140h-113l32 235h89l26 183h-119q-71 0 -127.5 26.5t-88.5 76.5t-32 118q0 22 3 44l30 217h134l-30 -215q-3 -21 -3 -38q0 -60 35.5 -88.5t109.5 -28.5h103l52 370h134z" />
    <glyph glyph-name="uni04CC" unicode="&#x4cc;" horiz-adv-x="530" 
d="M507 517l-72 -517h-94l-26 -130h-107l30 209h78l14 101h-76q-87 0 -140 43.5t-53 115.5q0 10 2 32l20 146h127l-20 -141q-1 -8 -1 -23q0 -34 21 -52t68 -18h66l33 234h130z" />
    <glyph glyph-name="uni04CD" unicode="&#x4cd;" horiz-adv-x="933" 
d="M782 -140h-111l56 140h-48l31 575l-265 -575h-78l-106 578l-130 -578h-127l179 760h144l104 -574l263 574h146l-29 -648h97z" />
    <glyph glyph-name="uni04CE" unicode="&#x4ce;" horiz-adv-x="722" 
d="M582 -130h-106l53 130h-39l19 347l-171 -347h-72l-70 353l-80 -353h-121l124 517h132l74 -353l171 353h133l-18 -413h89z" />
    <glyph glyph-name="uni04CF" unicode="&#x4cf;" horiz-adv-x="250" 
d="M130 760h130l-106 -760h-130z" />
    <glyph glyph-name="uni04D0" unicode="&#x4d0;" 
d="M457 123h-297l-53 -123h-140l354 760h152l141 -760h-138zM441 226l-62 404l-174 -404h236zM298 879q-40 45 -40 129h82q0 -46 22 -70.5t59 -24.5q74 0 103 95h81q-18 -85 -68.5 -129.5t-124.5 -44.5t-114 45z" />
    <glyph glyph-name="uni04D1" unicode="&#x4d1;" horiz-adv-x="647" 
d="M624 517l-72 -517h-119l3 85q-33 -43 -81.5 -70t-107.5 -27q-58 0 -105.5 28.5t-75 81.5t-27.5 124q0 88 37 158t100 109t138 39q61 0 104.5 -27t64.5 -72l12 88h129zM379 121q40 26 63 69.5t23 95.5q0 62 -32.5 98.5t-90.5 36.5q-45 0 -84.5 -23.5t-63 -66.5t-23.5 -99
q0 -64 33 -100.5t88 -36.5q47 0 87 26zM240 636q-40 45 -40 129h82q0 -46 22 -70.5t59 -24.5q74 0 103 95h81q-18 -85 -68.5 -129.5t-124.5 -44.5t-114 45z" />
    <glyph glyph-name="uni04D2" unicode="&#x4d2;" 
d="M457 123h-297l-53 -123h-140l354 760h152l141 -760h-138zM441 226l-62 404l-174 -404h236zM267 878.5q-20 20.5 -20 49.5t20 49.5t49 20.5t49.5 -20.5t20.5 -49.5t-20.5 -49.5t-49.5 -20.5t-49 20.5zM473.5 878.5q-20.5 20.5 -20.5 49.5t20.5 49.5t49.5 20.5
q28 0 48 -20.5t20 -49.5t-20 -49.5t-48 -20.5q-29 0 -49.5 20.5z" />
    <glyph glyph-name="uni04D3" unicode="&#x4d3;" horiz-adv-x="647" 
d="M624 517l-72 -517h-119l3 85q-33 -43 -81.5 -70t-107.5 -27q-58 0 -105.5 28.5t-75 81.5t-27.5 124q0 88 37 158t100 109t138 39q61 0 104.5 -27t64.5 -72l12 88h129zM379 121q40 26 63 69.5t23 95.5q0 62 -32.5 98.5t-90.5 36.5q-45 0 -84.5 -23.5t-63 -66.5t-23.5 -99
q0 -64 33 -100.5t88 -36.5q47 0 87 26zM209 635.5q-20 20.5 -20 49.5t20 49.5t49 20.5t49.5 -20.5t20.5 -49.5t-20.5 -49.5t-49.5 -20.5t-49 20.5zM415.5 635.5q-20.5 20.5 -20.5 49.5t20.5 49.5t49.5 20.5q28 0 48 -20.5t20 -49.5t-20 -49.5t-48 -20.5q-29 0 -49.5 20.5z
" />
    <glyph glyph-name="uni04D4" unicode="&#x4d4;" horiz-adv-x="957" 
d="M664 649l-28 -200h286l-15 -108h-286l-32 -230h297l-16 -111h-431l23 161h-258l-107 -161h-138l523 760h491l-16 -111h-293zM530 650l-258 -387h204z" />
    <glyph glyph-name="uni04D5" unicode="&#x4d5;" horiz-adv-x="950" 
d="M517 226v-12q0 -61 32.5 -95t87.5 -34q42 0 75.5 20t56.5 54l120 -12q-44 -77 -112 -118t-154 -41q-68 0 -118 27.5t-77 77.5q-73 -105 -226 -105q-84 0 -132 36.5t-48 105.5q0 93 68.5 133.5t184.5 40.5h133l3 36q0 49 -28 70t-71 21q-81 0 -125 -68l-118 12
q79 153 261 153q55 0 101 -18t72 -56q38 35 85.5 54.5t102.5 19.5q104 0 161 -60t57 -158q0 -22 -2.5 -46t-6.5 -38h-383zM585.5 395.5q-37.5 -34.5 -55.5 -91.5h258v6q0 57 -29 88.5t-80 31.5q-56 0 -93.5 -34.5zM339.5 107q44.5 34 53.5 95l4 24h-121q-76 0 -105.5 -21
t-29.5 -62q0 -35 24.5 -52.5t69.5 -17.5q60 0 104.5 34z" />
    <glyph glyph-name="uni04D6" unicode="&#x4d6;" horiz-adv-x="556" 
d="M253 648l-28 -198h296l-15 -110h-296l-32 -228h306l-15 -112h-441l107 760h437l-16 -112h-303zM252 879q-40 45 -40 129h82q0 -46 22 -70.5t59 -24.5q74 0 103 95h81q-18 -85 -68.5 -129.5t-124.5 -44.5t-114 45z" />
    <glyph glyph-name="uni04D7" unicode="&#x4d7;" horiz-adv-x="617" 
d="M168 220v-4q0 -61 33.5 -96t84.5 -35q49 0 85 21t58 57l128 -12q-42 -80 -113.5 -121.5t-166.5 -41.5q-72 0 -126 31t-83 84t-29 116q0 90 39 160.5t108.5 109.5t158.5 39q75 0 128 -29.5t80 -79.5t27 -113q0 -36 -9 -86h-403zM240 396.5q-43 -34.5 -61 -96.5h273v1
q0 63 -29 96.5t-82 33.5q-58 0 -101 -34.5zM245 636q-40 45 -40 129h82q0 -46 22 -70.5t59 -24.5q74 0 103 95h81q-18 -85 -68.5 -129.5t-124.5 -44.5t-114 45z" />
    <glyph glyph-name="uni04D8" unicode="&#x4d8;" horiz-adv-x="841" 
d="M662 727.5q76 -44.5 117.5 -121.5t41.5 -170q0 -121 -58.5 -224t-157.5 -163.5t-216 -60.5q-99 0 -175 45t-118 122t-42 170q0 52 14 106l623 -2v6q0 65 -26 115t-74 77t-110 27q-74 0 -137.5 -38t-102.5 -102l-132 23q55 109 156 172t222 63q99 0 175 -44.5z
M516.5 136.5q57.5 30.5 99 82.5t60.5 117h-490v-5q0 -66 25.5 -117.5t72.5 -79.5t109 -28q66 0 123.5 30.5z" />
    <glyph glyph-name="uni04D9" unicode="&#x4d9;" horiz-adv-x="617" 
d="M466 497.5q54 -30.5 83 -83t29 -116.5q0 -90 -38.5 -160.5t-108.5 -110t-159 -39.5q-75 0 -127.5 29.5t-79.5 80t-27 112.5q0 46 9 86h403v4q0 61 -33.5 96.5t-85.5 35.5q-48 0 -84 -21t-58 -57l-128 11q41 80 112.5 121.5t166.5 41.5q72 0 126 -30.5zM378 120
q43 35 61 96h-274q0 -63 29 -97t82 -34q59 0 102 35z" />
    <glyph glyph-name="uni04DA" unicode="&#x4da;" horiz-adv-x="841" 
d="M662 727.5q76 -44.5 117.5 -121.5t41.5 -170q0 -121 -58.5 -224t-157.5 -163.5t-216 -60.5q-99 0 -175 45t-118 122t-42 170q0 52 14 106l623 -2v6q0 65 -26 115t-74 77t-110 27q-74 0 -137.5 -38t-102.5 -102l-132 23q55 109 156 172t222 63q99 0 175 -44.5z
M516.5 136.5q57.5 30.5 99 82.5t60.5 117h-490v-5q0 -66 25.5 -117.5t72.5 -79.5t109 -28q66 0 123.5 30.5zM359 878.5q-20 20.5 -20 49.5t20 49.5t49 20.5t49.5 -20.5t20.5 -49.5t-20.5 -49.5t-49.5 -20.5t-49 20.5zM565.5 878.5q-20.5 20.5 -20.5 49.5t20.5 49.5
t49.5 20.5q28 0 48 -20.5t20 -49.5t-20 -49.5t-48 -20.5q-29 0 -49.5 20.5z" />
    <glyph glyph-name="uni04DB" unicode="&#x4db;" horiz-adv-x="617" 
d="M466 497.5q54 -30.5 83 -83t29 -116.5q0 -90 -38.5 -160.5t-108.5 -110t-159 -39.5q-75 0 -127.5 29.5t-79.5 80t-27 112.5q0 46 9 86h403v4q0 61 -33.5 96.5t-85.5 35.5q-48 0 -84 -21t-58 -57l-128 11q41 80 112.5 121.5t166.5 41.5q72 0 126 -30.5zM378 120
q43 35 61 96h-274q0 -63 29 -97t82 -34q59 0 102 35zM209 635.5q-20 20.5 -20 49.5t20 49.5t49 20.5t49.5 -20.5t20.5 -49.5t-20.5 -49.5t-49.5 -20.5t-49 20.5zM415.5 635.5q-20.5 20.5 -20.5 49.5t20.5 49.5t49.5 20.5q28 0 48 -20.5t20 -49.5t-20 -49.5t-48 -20.5
q-29 0 -49.5 20.5z" />
    <glyph glyph-name="uni04DC" unicode="&#x4dc;" horiz-adv-x="991" 
d="M752 446l194 -446h-135l-142 356l-111 -119l-33 -237h-130l36 256l-74 113l-237 -369h-148l317 474l-185 286h143l205 -352l49 352h130l-50 -358l301 358h162zM436 878.5q-20 20.5 -20 49.5t20 49.5t49 20.5t49.5 -20.5t20.5 -49.5t-20.5 -49.5t-49.5 -20.5t-49 20.5z
M642.5 878.5q-20.5 20.5 -20.5 49.5t20.5 49.5t49.5 20.5q28 0 48 -20.5t20 -49.5t-20 -49.5t-48 -20.5q-29 0 -49.5 20.5z" />
    <glyph glyph-name="uni04DD" unicode="&#x4dd;" horiz-adv-x="773" 
d="M582 310l152 -310h-128l-102 235l-69 -65l-24 -170h-122l26 186l-43 56l-164 -242h-141l239 329l-144 188h134l137 -202l29 202h121l-29 -205l192 205h153zM294 635.5q-20 20.5 -20 49.5t20 49.5t49 20.5t49.5 -20.5t20.5 -49.5t-20.5 -49.5t-49.5 -20.5t-49 20.5z
M500.5 635.5q-20.5 20.5 -20.5 49.5t20.5 49.5t49.5 20.5q28 0 48 -20.5t20 -49.5t-20 -49.5t-48 -20.5q-29 0 -49.5 20.5z" />
    <glyph glyph-name="uni04DE" unicode="&#x4de;" horiz-adv-x="602" 
d="M545.5 341q24.5 -41 24.5 -97q0 -78 -37 -136t-104.5 -89t-157.5 -31q-82 0 -139 25t-85.5 68.5t-28.5 97.5q0 22 2 34l130 3q-2 -14 -2 -23q0 -46 31 -71.5t93 -25.5q74 0 119.5 42.5t45.5 110.5q0 46 -30.5 72.5t-94.5 26.5h-120l14 103h96q68 0 113 37t45 95
q0 38 -27 59.5t-82 21.5q-66 0 -102 -31t-45 -81l-127 11q15 95 90.5 152t198.5 57q112 0 170 -49t58 -126q0 -64 -31.5 -114.5t-87.5 -78.5q46 -22 70.5 -63zM239 878.5q-20 20.5 -20 49.5t20 49.5t49 20.5t49.5 -20.5t20.5 -49.5t-20.5 -49.5t-49.5 -20.5t-49 20.5z
M445.5 878.5q-20.5 20.5 -20.5 49.5t20.5 49.5t49.5 20.5q28 0 48 -20.5t20 -49.5t-20 -49.5t-48 -20.5q-29 0 -49.5 20.5z" />
    <glyph glyph-name="uni04DF" unicode="&#x4df;" horiz-adv-x="478" 
d="M414 231q20 -30 20 -69q0 -78 -58 -126t-172 -48q-68 0 -113.5 19.5t-67.5 52t-22 71.5q0 5 2 15l124 2q-1 -4 -1 -12q0 -26 20 -40.5t58 -14.5q48 0 76 24.5t28 62.5q0 27 -21 42.5t-62 15.5h-74l11 82h55q48 0 77 23t29 60q0 46 -67 46q-41 0 -65.5 -19.5t-30.5 -49.5
l-118 12q12 65 66.5 106.5t155.5 41.5q94 0 139.5 -33t45.5 -89q0 -42 -24 -78t-65 -52q34 -15 54 -45zM139 635.5q-20 20.5 -20 49.5t20 49.5t49 20.5t49.5 -20.5t20.5 -49.5t-20.5 -49.5t-49.5 -20.5t-49 20.5zM345.5 635.5q-20.5 20.5 -20.5 49.5t20.5 49.5t49.5 20.5
q28 0 48 -20.5t20 -49.5t-20 -49.5t-48 -20.5q-29 0 -49.5 20.5z" />
    <glyph glyph-name="uni04E0" unicode="&#x4e0;" horiz-adv-x="600" 
d="M515.5 407.5q56.5 -51.5 56.5 -138.5q0 -86 -37.5 -149.5t-106 -97.5t-159.5 -34q-76 0 -132.5 24.5t-86.5 67.5t-30 99q0 22 2 34l130 3q-2 -14 -2 -22q0 -46 30.5 -72t90.5 -26q76 0 122 47t46 121q0 104 -133 104h-98l9 88h1l181 195h-281l15 109h505l-275 -295
q96 -6 152.5 -57.5z" />
    <glyph glyph-name="uni04E1" unicode="&#x4e1;" horiz-adv-x="540" 
d="M430 176q54 -48 54 -128t-34.5 -138t-98 -89t-148.5 -31q-69 0 -119.5 22t-77.5 61t-28 89q0 13 1 19h115q-1 -4 -1 -12q0 -38 28.5 -59t81.5 -21q73 0 116.5 43.5t43.5 112.5q0 97 -138 97q-39 0 -90 -4l6 88h2l180 192h-243l14 99h461l-268 -284q89 -9 143 -57z" />
    <glyph glyph-name="uni04E2" unicode="&#x4e2;" horiz-adv-x="703" 
d="M708 760l-106 -760h-133l77 553l-383 -553h-134l106 760h133l-77 -554l383 554l1 -1v1h133zM313 977h285l-11 -82h-286z" />
    <glyph glyph-name="uni04E3" unicode="&#x4e3;" horiz-adv-x="571" 
d="M547 517l-72 -517h-127l49 346l-246 -346l-1 1v-1h-127l73 517h126l-48 -346l246 346l1 -1v1h126zM208 734h285l-11 -82h-286z" />
    <glyph glyph-name="uni04E4" unicode="&#x4e4;" horiz-adv-x="703" 
d="M708 760l-106 -760h-133l77 553l-383 -553h-134l106 760h133l-77 -554l383 554l1 -1v1h133zM295 878.5q-20 20.5 -20 49.5t20 49.5t49 20.5t49.5 -20.5t20.5 -49.5t-20.5 -49.5t-49.5 -20.5t-49 20.5zM501.5 878.5q-20.5 20.5 -20.5 49.5t20.5 49.5t49.5 20.5
q28 0 48 -20.5t20 -49.5t-20 -49.5t-48 -20.5q-29 0 -49.5 20.5z" />
    <glyph glyph-name="uni04E5" unicode="&#x4e5;" horiz-adv-x="571" 
d="M547 517l-72 -517h-127l49 346l-246 -346l-1 1v-1h-127l73 517h126l-48 -346l246 346l1 -1v1h126zM190 635.5q-20 20.5 -20 49.5t20 49.5t49 20.5t49.5 -20.5t20.5 -49.5t-20.5 -49.5t-49.5 -20.5t-49 20.5zM396.5 635.5q-20.5 20.5 -20.5 49.5t20.5 49.5t49.5 20.5
q28 0 48 -20.5t20 -49.5t-20 -49.5t-48 -20.5q-29 0 -49.5 20.5z" />
    <glyph glyph-name="uni04E6" unicode="&#x4e6;" horiz-adv-x="848" 
d="M216.5 31q-76.5 43 -118.5 121.5t-42 181.5q0 123 58 223t157.5 157.5t217.5 57.5q101 0 177.5 -43t118.5 -121.5t42 -181.5q0 -123 -58 -223t-157.5 -157.5t-217.5 -57.5q-101 0 -177.5 43zM544.5 151.5q66.5 42.5 105.5 115t39 158.5q0 104 -56 165t-150 61
q-78 0 -144.5 -42.5t-105.5 -115t-39 -158.5q0 -104 56 -165t150 -61q78 0 144.5 42.5zM348 878.5q-20 20.5 -20 49.5t20 49.5t49 20.5t49.5 -20.5t20.5 -49.5t-20.5 -49.5t-49.5 -20.5t-49 20.5zM554.5 878.5q-20.5 20.5 -20.5 49.5t20.5 49.5t49.5 20.5q28 0 48 -20.5
t20 -49.5t-20 -49.5t-48 -20.5q-29 0 -49.5 20.5z" />
    <glyph glyph-name="uni04E7" unicode="&#x4e7;" horiz-adv-x="630" 
d="M155 17.5q-55 29.5 -85.5 82t-30.5 120.5q0 92 39.5 162t110 108t161.5 38q71 0 125.5 -29t85 -82t30.5 -121q0 -92 -39.5 -162t-110 -108t-161.5 -38q-70 0 -125 29.5zM375.5 119q39.5 24 62.5 68t23 100q0 64 -32.5 99t-86.5 35q-47 0 -86.5 -24t-63 -67.5t-23.5 -99.5
q0 -65 32.5 -100t87.5 -35q47 0 86.5 24zM221 635.5q-20 20.5 -20 49.5t20 49.5t49 20.5t49.5 -20.5t20.5 -49.5t-20.5 -49.5t-49.5 -20.5t-49 20.5zM427.5 635.5q-20.5 20.5 -20.5 49.5t20.5 49.5t49.5 20.5q28 0 48 -20.5t20 -49.5t-20 -49.5t-48 -20.5q-29 0 -49.5 20.5z
" />
    <glyph glyph-name="uni04E8" unicode="&#x4e8;" horiz-adv-x="847" 
d="M667 728q76 -44 117.5 -121t41.5 -174q0 -122 -57.5 -224t-157.5 -161.5t-221 -59.5q-100 0 -176 44t-117.5 121t-41.5 174q0 122 57.5 224t157.5 161.5t221 59.5q100 0 176 -44zM360 624q-58 -29 -99 -80t-60 -115h493v3q0 101 -56.5 161t-152.5 60q-67 0 -125 -29z
M521 136.5q58 29.5 99 81.5t60 117h-494v-7q0 -101 56.5 -161t153.5 -60q67 0 125 29.5z" />
    <glyph glyph-name="uni04E9" unicode="&#x4e9;" horiz-adv-x="629" 
d="M477 498q55 -30 84 -82.5t29 -118.5q0 -90 -38.5 -160t-109 -109.5t-162.5 -39.5q-73 0 -127.5 30.5t-84 83t-29.5 118.5q0 90 39 160t109.5 109t161.5 39q73 0 128 -30zM237.5 394.5q-46.5 -35.5 -66.5 -95.5h300q-1 64 -34.5 97.5t-91.5 33.5q-61 0 -107.5 -35.5z
M393 122q47 36 67 97h-301q1 -64 34.5 -98.5t90.5 -34.5q62 0 109 36z" />
    <glyph glyph-name="uni04EA" unicode="&#x4ea;" horiz-adv-x="847" 
d="M667 728q76 -44 117.5 -121t41.5 -174q0 -122 -57.5 -224t-157.5 -161.5t-221 -59.5q-100 0 -176 44t-117.5 121t-41.5 174q0 122 57.5 224t157.5 161.5t221 59.5q100 0 176 -44zM360 624q-58 -29 -99 -80t-60 -115h493v3q0 101 -56.5 161t-152.5 60q-67 0 -125 -29z
M521 136.5q58 29.5 99 81.5t60 117h-494v-7q0 -101 56.5 -161t153.5 -60q67 0 125 29.5zM364 878.5q-20 20.5 -20 49.5t20 49.5t49 20.5t49.5 -20.5t20.5 -49.5t-20.5 -49.5t-49.5 -20.5t-49 20.5zM570.5 878.5q-20.5 20.5 -20.5 49.5t20.5 49.5t49.5 20.5q28 0 48 -20.5
t20 -49.5t-20 -49.5t-48 -20.5q-29 0 -49.5 20.5z" />
    <glyph glyph-name="uni04EB" unicode="&#x4eb;" horiz-adv-x="629" 
d="M477 498q55 -30 84 -82.5t29 -118.5q0 -90 -38.5 -160t-109 -109.5t-162.5 -39.5q-73 0 -127.5 30.5t-84 83t-29.5 118.5q0 90 39 160t109.5 109t161.5 39q73 0 128 -30zM237.5 394.5q-46.5 -35.5 -66.5 -95.5h300q-1 64 -34.5 97.5t-91.5 33.5q-61 0 -107.5 -35.5z
M393 122q47 36 67 97h-301q1 -64 34.5 -98.5t90.5 -34.5q62 0 109 36zM220 635.5q-20 20.5 -20 49.5t20 49.5t49 20.5t49.5 -20.5t20.5 -49.5t-20.5 -49.5t-49.5 -20.5t-49 20.5zM426.5 635.5q-20.5 20.5 -20.5 49.5t20.5 49.5t49.5 20.5q28 0 48 -20.5t20 -49.5t-20 -49.5
t-48 -20.5q-29 0 -49.5 20.5z" />
    <glyph glyph-name="uni04EC" unicode="&#x4ec;" horiz-adv-x="828" 
d="M645 727q77 -45 119.5 -122t42.5 -170q0 -122 -58.5 -224.5t-158.5 -162.5t-220 -60q-87 0 -157.5 37t-114.5 101t-55 143l130 6q15 -79 69.5 -123.5t136.5 -44.5q67 0 124 30t98 82t60 116h-354l14 94h354v5q0 65 -25.5 115t-73 77t-109.5 27q-85 0 -154.5 -46.5
t-108.5 -126.5l-129 19q52 126 157 199.5t236 73.5q100 0 177 -45zM342 878.5q-20 20.5 -20 49.5t20 49.5t49 20.5t49.5 -20.5t20.5 -49.5t-20.5 -49.5t-49.5 -20.5t-49 20.5zM548.5 878.5q-20.5 20.5 -20.5 49.5t20.5 49.5t49.5 20.5q28 0 48 -20.5t20 -49.5t-20 -49.5
t-48 -20.5q-29 0 -49.5 20.5z" />
    <glyph glyph-name="uni04ED" unicode="&#x4ed;" horiz-adv-x="620" 
d="M466 498.5q55 -29.5 85 -82t30 -119.5q0 -89 -39.5 -159.5t-109.5 -110t-159 -39.5q-102 0 -166 56.5t-75 146.5l116 5q8 -52 41 -80.5t86 -28.5q62 0 107.5 36.5t65.5 95.5h-218l11 83h220q-1 60 -35 94t-91 34q-55 0 -98.5 -30t-67.5 -82l-117 18q35 91 108.5 141.5
t177.5 50.5q73 0 128 -29.5zM211 635.5q-20 20.5 -20 49.5t20 49.5t49 20.5t49.5 -20.5t20.5 -49.5t-20.5 -49.5t-49.5 -20.5t-49 20.5zM417.5 635.5q-20.5 20.5 -20.5 49.5t20.5 49.5t49.5 20.5q28 0 48 -20.5t20 -49.5t-20 -49.5t-48 -20.5q-29 0 -49.5 20.5z" />
    <glyph glyph-name="uni04EE" unicode="&#x4ee;" horiz-adv-x="611" 
d="M687 760l-463 -760h-146l173 284l-174 476h137l113 -350l214 350h146zM268 977h285l-11 -82h-286z" />
    <glyph glyph-name="uni04EF" unicode="&#x4ef;" horiz-adv-x="594" 
d="M570 517l-66 -475q-17 -124 -88.5 -188t-188.5 -64q-90 0 -145 36.5t-67 98.5l130 16q5 -29 27.5 -44t61.5 -15q61 0 94.5 39t44.5 117l7 50q-33 -45 -79 -69t-100 -24q-75 0 -116 44.5t-41 111.5q0 27 4 48l43 318h130l-41 -297q-3 -22 -3 -42q0 -44 22 -62.5t66 -18.5
q57 0 91 42.5t45 100.5l39 277h130zM221 734h285l-11 -82h-286z" />
    <glyph glyph-name="uni04F0" unicode="&#x4f0;" horiz-adv-x="611" 
d="M687 760l-463 -760h-146l173 284l-174 476h137l113 -350l214 350h146zM250 878.5q-20 20.5 -20 49.5t20 49.5t49 20.5t49.5 -20.5t20.5 -49.5t-20.5 -49.5t-49.5 -20.5t-49 20.5zM456.5 878.5q-20.5 20.5 -20.5 49.5t20.5 49.5t49.5 20.5q28 0 48 -20.5t20 -49.5
t-20 -49.5t-48 -20.5q-29 0 -49.5 20.5z" />
    <glyph glyph-name="uni04F1" unicode="&#x4f1;" horiz-adv-x="594" 
d="M570 517l-66 -475q-17 -124 -88.5 -188t-188.5 -64q-90 0 -145 36.5t-67 98.5l130 16q5 -29 27.5 -44t61.5 -15q61 0 94.5 39t44.5 117l7 50q-33 -45 -79 -69t-100 -24q-75 0 -116 44.5t-41 111.5q0 27 4 48l43 318h130l-41 -297q-3 -22 -3 -42q0 -44 22 -62.5t66 -18.5
q57 0 91 42.5t45 100.5l39 277h130zM203 635.5q-20 20.5 -20 49.5t20 49.5t49 20.5t49.5 -20.5t20.5 -49.5t-20.5 -49.5t-49.5 -20.5t-49 20.5zM409.5 635.5q-20.5 20.5 -20.5 49.5t20.5 49.5t49.5 20.5q28 0 48 -20.5t20 -49.5t-20 -49.5t-48 -20.5q-29 0 -49.5 20.5z" />
    <glyph glyph-name="uni04F2" unicode="&#x4f2;" horiz-adv-x="611" 
d="M687 760l-463 -760h-146l173 284l-174 476h137l113 -350l214 350h146zM310 833h-88l94 171h143zM523 833h-88l94 171h143z" />
    <glyph glyph-name="uni04F3" unicode="&#x4f3;" horiz-adv-x="594" 
d="M570 517l-66 -475q-17 -124 -88.5 -188t-188.5 -64q-90 0 -145 36.5t-67 98.5l130 16q5 -29 27.5 -44t61.5 -15q61 0 94.5 39t44.5 117l7 50q-33 -45 -79 -69t-100 -24q-75 0 -116 44.5t-41 111.5q0 27 4 48l43 318h130l-41 -297q-3 -22 -3 -42q0 -44 22 -62.5t66 -18.5
q57 0 91 42.5t45 100.5l39 277h130zM263 590h-88l94 171h143zM476 590h-88l94 171h143z" />
    <glyph glyph-name="uni04F4" unicode="&#x4f4;" horiz-adv-x="646" 
d="M652 760l-106 -760h-134l39 278h-119q-71 0 -127.5 26.5t-88.5 76.5t-32 118q0 22 3 44l30 217h134l-30 -215q-3 -21 -3 -38q0 -60 35.5 -88.5t109.5 -28.5h103l52 370h134zM253 878.5q-20 20.5 -20 49.5t20 49.5t49 20.5t49.5 -20.5t20.5 -49.5t-20.5 -49.5t-49.5 -20.5
t-49 20.5zM459.5 878.5q-20.5 20.5 -20.5 49.5t20.5 49.5t49.5 20.5q28 0 48 -20.5t20 -49.5t-20 -49.5t-48 -20.5q-29 0 -49.5 20.5z" />
    <glyph glyph-name="uni04F5" unicode="&#x4f5;" horiz-adv-x="530" 
d="M507 517l-72 -517h-130l24 175h-76q-87 0 -140 43.5t-53 115.5q0 21 2 32l21 151h127l-21 -146q-1 -8 -1 -23q0 -34 21 -52t68 -18h67l33 239h130zM166 635.5q-20 20.5 -20 49.5t20 49.5t49 20.5t49.5 -20.5t20.5 -49.5t-20.5 -49.5t-49.5 -20.5t-49 20.5zM372.5 635.5
q-20.5 20.5 -20.5 49.5t20.5 49.5t49.5 20.5q28 0 48 -20.5t20 -49.5t-20 -49.5t-48 -20.5q-29 0 -49.5 20.5z" />
    <glyph glyph-name="uni04F6" unicode="&#x4f6;" horiz-adv-x="503" 
d="M538 648h-286l-90 -648h-133l106 760h418zM230 -140h-113l12 140h-36l15 112h157z" />
    <glyph glyph-name="uni04F7" unicode="&#x4f7;" horiz-adv-x="404" 
d="M407 413h-196l-58 -413h-130l73 517h326zM211 -130h-106l11 130h-34l14 104h149z" />
    <glyph glyph-name="uni04F8" unicode="&#x4f8;" horiz-adv-x="903" 
d="M502.5 491q55.5 -28 84 -78.5t28.5 -115.5q0 -92 -38.5 -159t-109.5 -102.5t-167 -35.5h-271l106 760h133l-34 -241h134q79 0 134.5 -28zM909 760l-106 -760h-134l106 760h134zM429 160q51 51 51 133q0 54 -34.5 85.5t-107.5 31.5h-119l-42 -301h113q88 0 139 51z
M371 878.5q-20 20.5 -20 49.5t20 49.5t49 20.5t49.5 -20.5t20.5 -49.5t-20.5 -49.5t-49.5 -20.5t-49 20.5zM577.5 878.5q-20.5 20.5 -20.5 49.5t20.5 49.5t49.5 20.5q28 0 48 -20.5t20 -49.5t-20 -49.5t-48 -20.5q-29 0 -49.5 20.5z" />
    <glyph glyph-name="uni04F9" unicode="&#x4f9;" horiz-adv-x="757" 
d="M439 328q50 -44 50 -114q0 -103 -66.5 -158.5t-180.5 -55.5h-219l73 517h129l-20 -145h93q91 0 141 -44zM733 517l-72 -517h-130l72 517h130zM329.5 125.5q33.5 30.5 33.5 80.5q0 34 -24 52t-71 18h-77l-26 -181h72q59 0 92.5 30.5zM278 635.5q-20 20.5 -20 49.5t20 49.5
t49 20.5t49.5 -20.5t20.5 -49.5t-20.5 -49.5t-49.5 -20.5t-49 20.5zM484.5 635.5q-20.5 20.5 -20.5 49.5t20.5 49.5t49.5 20.5q28 0 48 -20.5t20 -49.5t-20 -49.5t-48 -20.5q-29 0 -49.5 20.5z" />
    <glyph glyph-name="uni04FC" unicode="&#x4fc;" horiz-adv-x="627" 
d="M507 181q24 -51 35 -88.5t11 -72.5q0 -69 -34.5 -121t-95 -80t-136.5 -29l-2 112q60 2 101.5 34t41.5 90q0 47 -23 93l-75 157l-207 -276h-156l302 390l-181 370h137l120 -261l194 261h155l-285 -370z" />
    </font>
</defs>
</svg>
