<?xml version="1.0" standalone="no"?>
<!DOCTYPE svg PUBLIC "-//W3C//DTD SVG 1.1//EN" "http://www.w3.org/Graphics/SVG/1.1/DTD/svg11.dtd" >
<svg xmlns="http://www.w3.org/2000/svg" xmlns:xlink="http://www.w3.org/1999/xlink" version="1.1">
<metadata>
Created by FontForge 20170731 at Wed Nov 22 21:10:27 2017
 By Aleksey,,,
Copyright (c) 2017 by Andreu Balius. All rights reserved.
</metadata>
<defs>
<font id="SeatBcn-Web-BlackCondensedItalic" horiz-adv-x="598" >
  <font-face 
    font-family="Seat Bcn - Web Black Condensed"
    font-weight="750"
    font-style="italic"
    font-stretch="condensed"
    units-per-em="1000"
    panose-1="0 0 8 6 0 0 0 0 0 0"
    ascent="760"
    descent="-240"
    x-height="520"
    cap-height="760"
    bbox="-491 -220 1450 1312"
    underline-thickness="50"
    underline-position="-150"
    slope="-8"
    unicode-range="U+000D-FB02"
  />
<missing-glyph horiz-adv-x="700" 
d="M163 705h400v-705h-400v705zM501 62v581h-276v-581h276z" />
    <glyph glyph-name="fi" unicode="fi" horiz-adv-x="638" 
d="M547 0h-218l50 353h-89l-49 -353h-218l49 353h-59l34 167h49l4 32q16 118 73.5 170.5t163.5 52.5q109 0 207 -48l-59 -128q-15 8 -41 14.5t-51 6.5q-32 0 -51.5 -19.5t-25.5 -64.5l-2 -16h307z" />
    <glyph glyph-name="fl" unicode="fl" horiz-adv-x="682" 
d="M592.5 166.5q13.5 -13.5 42.5 -13.5h15l-11 -161q-29 -7 -78 -7q-103 0 -152.5 43.5t-49.5 134.5q0 32 6 72l53 383q-16 2 -24 2q-32 0 -51.5 -19.5t-25.5 -64.5l-2 -16h52l-24 -166h-51l-50 -354h-218l49 354h-60l34 166h50l4 32q16 118 73.5 170.5t163.5 52.5
q77 0 175 -16.5t137 -32.5l-70 -495q-1 -8 -1 -23q0 -28 13.5 -41.5z" />
    <glyph glyph-name="f_f" unicode="ff" horiz-adv-x="685" 
d="M646 601q-18 -18 -24 -60l-3 -21h101l-24 -167h-100l-50 -353h-218l50 353h-88l-49 -353h-218l49 353h-59l34 167h49l5 39q16 113 71 164t159 51q40 0 85 -9.5t81 -26.5q53 36 140 36q37 0 83 -7.5t64 -14.5l-29 -141q-26 8 -62 8q-29 0 -47 -18zM407 559q4 36 15 68
q-22 2 -33 2q-32 0 -48.5 -18t-22.5 -61l-4 -30h87z" />
    <glyph glyph-name="f_f_i" unicode="ffi" horiz-adv-x="938" 
d="M847 0h-218l50 353h-83l-50 -353h-218l50 353h-88l-49 -353h-218l49 353h-59l34 167h49l5 39q16 113 71 164t159 51q41 0 86.5 -9.5t81.5 -27.5q55 37 144 37q108 0 206 -48l-59 -128q-15 8 -41 14.5t-51 6.5q-31 0 -50.5 -19.5t-25.5 -63.5l-2 -16h301zM406 552
q7 47 17 75q-22 2 -34 2q-30 0 -47.5 -18.5t-23.5 -60.5l-4 -30h87z" />
    <glyph glyph-name="f_f_l" unicode="ffl" horiz-adv-x="981" 
d="M950 154l-12 -161q-28 -7 -78 -7q-103 0 -152.5 43.5t-49.5 134.5q0 31 6 71l54 383q-7 1 -20 1q-65 0 -76 -83l-2 -16h47l-24 -167h-47l-50 -353h-218l50 353h-88l-49 -353h-218l49 353h-59l34 167h49l5 39q16 112 71 163.5t159 51.5q41 0 86.5 -9.5t81.5 -27.5
q55 37 144 37q77 0 172 -16.5t134 -32.5l-70 -493q-1 -9 -1 -23q0 -28 13.5 -41.5t43.5 -13.5h15zM406 552q7 47 17 75q-22 2 -34 2q-30 0 -47.5 -18.5t-23.5 -60.5l-4 -30h87z" />
    <glyph glyph-name="uni04570457.liga" unicode="&#x457;&#x457;" horiz-adv-x="691" 
d="M35.5 631.5q-24.5 24.5 -24.5 59.5t24 59.5t59 24.5q34 0 59 -24.5t25 -59.5q0 -34 -25 -59t-59 -25t-58.5 24.5zM240 632q-25 25 -25 59q0 35 24.5 59.5t59.5 24.5q34 0 58 -24.5t24 -59.5t-24 -59.5t-58 -24.5t-59 25zM442.5 631.5q-24.5 24.5 -24.5 59.5t24 59.5
t59 24.5q34 0 59 -24.5t25 -59.5q0 -34 -25 -59t-59 -25t-58.5 24.5zM647 632q-25 25 -25 59q0 35 24.5 59.5t59.5 24.5q34 0 58 -24.5t24 -59.5t-24 -59.5t-58 -24.5t-59 25zM68 520h220l-74 -520h-220zM475 520h220l-74 -520h-220z" />
    <glyph glyph-name=".notdef" horiz-adv-x="700" 
d="M163 705h400v-705h-400v705zM501 62v581h-276v-581h276z" />
    <glyph glyph-name=".null" horiz-adv-x="510" 
 />
    <glyph glyph-name="nonmarkingreturn" unicode="&#xd;" horiz-adv-x="510" 
 />
    <glyph glyph-name="space" unicode=" " horiz-adv-x="175" 
 />
    <glyph glyph-name="exclam" unicode="!" horiz-adv-x="338" 
d="M139 760h200l-88 -498h-165zM69.5 16.5q-31.5 31.5 -31.5 76.5q0 44 31.5 76t76.5 32t76.5 -32t31.5 -76q0 -45 -31.5 -76.5t-76.5 -31.5t-76.5 31.5z" />
    <glyph glyph-name="quotedbl" unicode="&#x22;" horiz-adv-x="512" 
d="M113 640l17 120h157l-17 -120l-42 -156h-116zM348 640l17 120h157l-17 -120l-42 -156h-116z" />
    <glyph glyph-name="numbersign" unicode="#" horiz-adv-x="844" 
d="M702 453l-50 -140h54l-20 -149h-87l-58 -164h-204l58 164h-67l-58 -164h-204l58 164h-57l20 149h91l50 140h-56l21 148h87l57 159h203l-56 -159h67l57 159h203l-56 -159h57l-21 -148h-89zM499 453h-68l-50 -140h68z" />
    <glyph glyph-name="dollar" unicode="$" horiz-adv-x="746" 
d="M618 382q45 -49 45 -119q0 -108 -64 -179t-172 -91l-17 -120h-187l18 126q-72 21 -112.5 74t-50.5 131q-2 16 -2 24l240 16v-18q0 -35 12 -55t37 -20q27 0 42 21t15 51q0 31 -36 46l-68 28q-79 32 -134 87t-55 136q0 95 59.5 160.5t160.5 86.5l16 114h187l-17 -119
q80 -22 117 -79.5t39 -136.5l-240 -16q3 18 3 29q0 52 -37 52q-22 0 -35 -16.5t-13 -42.5q0 -37 48 -57l73 -30q83 -34 128 -83z" />
    <glyph glyph-name="percent" unicode="%" horiz-adv-x="1134" 
d="M196.5 357.5q-36.5 22.5 -57 63.5t-20.5 93q0 69 28.5 127.5t79 93t113.5 34.5q71 0 115.5 -49.5t44.5 -128.5q0 -69 -28.5 -128t-79 -93.5t-113.5 -34.5q-46 0 -82.5 22.5zM768 760h220l-578 -760h-219zM334.5 506.5q12.5 43.5 12.5 89.5q0 24 -6 34.5t-20 10.5
q-25 0 -37.5 -44t-12.5 -91q0 -43 25 -43q26 0 38.5 43.5zM712.5 40.5q-44.5 49.5 -44.5 128.5q0 69 28.5 128t79 93.5t112.5 34.5q47 0 83.5 -22.5t57 -63t20.5 -92.5q0 -69 -28.5 -128t-79.5 -93.5t-114 -34.5q-70 0 -114.5 49.5zM882.5 162q12.5 43 12.5 90q0 24 -6 34.5
t-19 10.5q-26 0 -38.5 -44t-12.5 -91q0 -43 26 -43q25 0 37.5 43z" />
    <glyph glyph-name="ampersand" unicode="&#x26;" horiz-adv-x="766" 
d="M609 139l90 -139h-193l-22 33q-88 -48 -196 -48q-102 0 -164.5 53t-62.5 145q0 74 45 132t126 93q-29 46 -44.5 84t-15.5 75q0 63 34 110t93.5 72.5t134.5 25.5q66 0 115 -24.5t75 -67.5t26 -95q0 -64 -51 -120.5t-144 -90.5l62 -96q15 32 27 74h160q-23 -125 -95 -216z
M380 601.5q-14 -19.5 -14 -45.5q0 -41 25 -81q31 20 48.5 46.5t17.5 58.5q0 19 -10 30t-30 11q-23 0 -37 -19.5zM403 153l-94 140q-16 -20 -26 -42.5t-10 -43.5q0 -33 18.5 -51.5t51.5 -18.5q29 0 60 16z" />
    <glyph glyph-name="quotesingle" unicode="'" horiz-adv-x="277" 
d="M113 640l17 120h157l-17 -120l-42 -156h-116z" />
    <glyph glyph-name="parenleft" unicode="(" horiz-adv-x="437" 
d="M134 -68q-59 50 -59 130q0 18 4 50l78 553q13 90 41.5 139t86 70t161.5 21l-20 -141q-42 0 -62 -25t-26 -74l-75 -534q-3 -18 -3 -35q0 -31 14.5 -47t48.5 -16l-20 -141q-110 0 -169 50z" />
    <glyph glyph-name="parenright" unicode=")" horiz-adv-x="437" 
d="M339 845q59 -50 59 -130q0 -18 -4 -50l-78 -553q-13 -90 -41.5 -139t-86 -70t-161.5 -21l20 141q42 0 62 25t26 74l75 534q3 18 3 35q0 31 -14.5 47t-48.5 16l20 141q110 0 169 -50z" />
    <glyph glyph-name="asterisk" unicode="*" horiz-adv-x="627" 
d="M449 481l72 -109l-147 -85l-44 105l-73 -105l-124 85l103 109l-121 31l76 155l103 -52l5 145h167l-31 -142l113 49l34 -155z" />
    <glyph glyph-name="plus" unicode="+" horiz-adv-x="563" 
d="M474 199h-127l-21 -150h-148l21 150h-127l19 140h128l21 149h148l-21 -149h127z" />
    <glyph glyph-name="comma" unicode="," horiz-adv-x="322" 
d="M214 174q32 -30 32 -88q0 -41 -19 -87.5t-59.5 -90t-101.5 -72.5l-38 54q31 22 53 45.5t35 55.5q-37 6 -62.5 36t-25.5 69q0 44 31.5 76t77.5 32q45 0 77 -30z" />
    <glyph glyph-name="hyphen" unicode="-" horiz-adv-x="432" 
d="M73 351h311l-23 -166h-311z" />
    <glyph glyph-name="period" unicode="." horiz-adv-x="318" 
d="M59.5 16.5q-31.5 31.5 -31.5 76.5q0 44 31.5 76t76.5 32t76.5 -32t31.5 -76q0 -45 -31.5 -76.5t-76.5 -31.5t-76.5 31.5z" />
    <glyph glyph-name="slash" unicode="/" horiz-adv-x="553" 
d="M332 760h241l-320 -760h-240z" />
    <glyph glyph-name="zero" unicode="0" horiz-adv-x="737" 
d="M185.5 24q-60.5 39 -92 108t-31.5 158q0 136 45.5 246.5t131 174.5t202.5 64q84 0 144.5 -39.5t92 -108.5t31.5 -158q0 -135 -45.5 -245t-131.5 -174.5t-202 -64.5q-84 0 -144.5 39zM423.5 235q25.5 44 37.5 107t12 119q0 108 -61 108q-38 0 -63.5 -44.5t-38 -108
t-12.5 -118.5q0 -56 16.5 -81.5t44.5 -25.5q39 0 64.5 44z" />
    <glyph glyph-name="one" unicode="1" horiz-adv-x="490" 
d="M450 760l-107 -760h-228l69 492q-45 -10 -112 -10l25 181q71 0 120.5 23t78.5 74h154z" />
    <glyph glyph-name="two" unicode="2" horiz-adv-x="642" 
d="M299 231q-21 -19 -30 -47h298l-26 -184h-548l11 77q12 86 35.5 146t69.5 108.5t124 89.5l73 38q47 25 70.5 50.5t23.5 54.5q0 18 -8 28t-24 10q-37 0 -51 -59l-224 15q29 102 111 159.5t206 57.5q67 0 118 -25.5t78.5 -69.5t27.5 -99q0 -68 -26.5 -117t-74 -86.5
t-124.5 -79.5l-46 -25q-43 -23 -64 -42z" />
    <glyph glyph-name="three" unicode="3" horiz-adv-x="624" 
d="M550 339q25 -38 25 -88q0 -80 -38.5 -140.5t-105.5 -93t-149 -32.5q-68 0 -122 27.5t-87 79.5t-37 122l222 16q0 -29 8.5 -42t25.5 -13q26 0 40.5 27t14.5 58q0 28 -17 43t-55 15h-70l21 149h55q47 0 72.5 25t25.5 66q0 21 -8 32.5t-24 11.5q-18 0 -31.5 -15.5
t-19.5 -43.5l-214 15q31 103 105 160t191 57q101 0 162 -51.5t61 -139.5q0 -57 -30.5 -105t-86.5 -80q41 -22 66 -60z" />
    <glyph glyph-name="four" unicode="4" horiz-adv-x="659" 
d="M632 140h-82l-20 -140h-211l20 140h-316l24 167l165 453h221l-170 -453h100l30 213h211l-30 -213h81z" />
    <glyph glyph-name="five" unicode="5" horiz-adv-x="634" 
d="M508 492q43 -26 66.5 -71t23.5 -102q0 -100 -39.5 -175.5t-112 -117t-167.5 -41.5q-101 0 -167.5 58.5t-77.5 170.5l223 16q4 -70 46 -70q34 0 51.5 45.5t17.5 94.5q0 59 -40 59q-20 0 -37.5 -14t-28.5 -40l-193 38l58 417h470l-24 -171h-254l-13 -90q44 19 100 19
q55 0 98 -26z" />
    <glyph glyph-name="six" unicode="6" horiz-adv-x="674" 
d="M551 489.5q41 -28.5 61.5 -74t20.5 -94.5q0 -101 -39 -177t-110 -117.5t-166 -41.5q-81 0 -139.5 37t-89 102.5t-30.5 148.5q0 135 43.5 249.5t127 183.5t197.5 69q105 0 160.5 -54.5t69.5 -141.5l-224 -14q-2 22 -10.5 33t-26.5 11q-31 0 -48 -35t-30 -104q57 48 135 48
q57 0 98 -28.5zM389.5 204.5q18.5 44.5 18.5 97.5q0 57 -41 57q-33 0 -51 -43.5t-18 -95.5q0 -60 40 -60q33 0 51.5 44.5z" />
    <glyph glyph-name="seven" unicode="7" horiz-adv-x="539" 
d="M619 760l-395 -760h-245l300 585h-223l24 175h539z" />
    <glyph glyph-name="eight" unicode="8" horiz-adv-x="656" 
d="M582.5 335.5q27.5 -41.5 27.5 -103.5q0 -75 -41 -131t-113.5 -86t-165.5 -30q-77 0 -135.5 24t-91 68t-32.5 104q0 71 43.5 127t120.5 87q-38 30 -63.5 70.5t-25.5 90.5q0 67 39 117t107.5 76t154.5 26q124 0 183.5 -49t59.5 -123q0 -60 -37 -110t-107 -84
q49 -32 76.5 -73.5zM346.5 600.5q-14.5 -17.5 -14.5 -43.5t14.5 -46t37.5 -33l3 -1q21 21 32 45.5t11 49.5q0 22 -11.5 34t-32.5 12q-25 0 -39.5 -17.5zM364 173q20 22 20 53q0 26 -19.5 50.5t-53.5 44.5l-6 3q-52 -59 -52 -112q0 -26 15.5 -43.5t42.5 -17.5q33 0 53 22z
" />
    <glyph glyph-name="nine" unicode="9" horiz-adv-x="676" 
d="M530.5 738q58.5 -37 89 -102.5t30.5 -148.5q0 -134 -44 -249t-127.5 -184t-196.5 -69q-102 0 -156.5 54.5t-68.5 141.5l221 14q2 -22 10 -33t24 -11q31 0 50 36t30 104q-58 -49 -136 -49q-58 0 -99 28.5t-61.5 74t-20.5 94.5q0 101 39 177t110.5 117.5t166.5 41.5
q81 0 139.5 -37zM393 444.5q18 43.5 18 95.5q0 60 -41 60q-33 0 -51 -44.5t-18 -97.5q0 -57 41 -57q33 0 51 43.5z" />
    <glyph glyph-name="colon" unicode=":" horiz-adv-x="319" 
d="M59.5 16.5q-31.5 31.5 -31.5 76.5q0 44 31.5 76t76.5 32t76.5 -32t31.5 -76q0 -45 -31.5 -76.5t-76.5 -31.5t-76.5 31.5zM105.5 342.5q-31.5 31.5 -31.5 76.5q0 44 31.5 76t76.5 32t76.5 -32t31.5 -76q0 -45 -31.5 -76.5t-76.5 -31.5t-76.5 31.5z" />
    <glyph glyph-name="semicolon" unicode=";" horiz-adv-x="322" 
d="M108.5 366.5q-31.5 31.5 -31.5 76.5q0 44 31.5 76t76.5 32t76.5 -32t31.5 -76q0 -45 -31.5 -76.5t-76.5 -31.5t-76.5 31.5zM214 174q32 -30 32 -88q0 -41 -19 -87.5t-59.5 -90t-101.5 -72.5l-38 54q31 22 53 45.5t35 55.5q-37 6 -62.5 36t-25.5 69q0 44 31.5 76t77.5 32
q45 0 77 -30z" />
    <glyph glyph-name="less" unicode="&#x3c;" horiz-adv-x="539" 
d="M474 377l-237 -110l205 -118l-24 -172l-347 216l21 153l408 207z" />
    <glyph glyph-name="equal" unicode="=" horiz-adv-x="563" 
d="M110 464h402l-20 -140h-402zM74 212h402l-19 -140h-403z" />
    <glyph glyph-name="greater" unicode="&#x3e;" horiz-adv-x="539" 
d="M66 153l237 110l-205 118l24 172l347 -216l-21 -153l-408 -207z" />
    <glyph glyph-name="question" unicode="?" horiz-adv-x="606" 
d="M188 282q10 67 33.5 108t82.5 82l19 13q47 33 47 73q0 34 -30 34q-18 0 -33 -13.5t-29 -48.5l-171 65q76 180 273 180q96 0 153 -49.5t57 -137.5q0 -67 -34.5 -122.5t-98.5 -94.5l-25 -15q-26 -16 -36.5 -35.5t-14.5 -44.5l-3 -23h-194zM202 16.5q-32 31.5 -32 76.5
q0 44 32 76t76 32q45 0 76.5 -32t31.5 -76q0 -45 -31.5 -76.5t-76.5 -31.5q-44 0 -76 31.5z" />
    <glyph glyph-name="at" unicode="@" horiz-adv-x="1103" 
d="M853 726q87 -49 135.5 -133t48.5 -186q0 -107 -31.5 -187.5t-92 -124.5t-145.5 -44q-66 0 -107.5 30.5t-56.5 85.5q-29 -52 -71.5 -84t-101.5 -32q-52 0 -87.5 40t-35.5 115q0 71 28.5 142t78 116.5t108.5 45.5q36 0 61.5 -18t36.5 -49l13 55h176l-44 -189q-8 -32 -8 -60
q0 -21 8 -31t27 -10q39 0 58 58t19 128q0 112 -65.5 172.5t-178.5 60.5q-103 0 -191.5 -60t-140 -158.5t-51.5 -208.5q0 -117 67 -185t184 -68q44 0 77.5 6.5t70.5 19.5l15 -146q-58 -17 -103 -24.5t-104 -7.5q-109 0 -194.5 49.5t-133 136.5t-47.5 196q0 161 74.5 298.5
t207.5 218.5t298 81q111 0 198 -49zM562 219q14 22 22 52.5t8 54.5q0 40 -24 40q-26 0 -43 -41.5t-17 -83.5q0 -44 23 -44q17 0 31 22z" />
    <glyph glyph-name="A" unicode="A" horiz-adv-x="666" 
d="M401 96h-166l-31 -96h-246l315 760h261l100 -760h-229zM394 254l-13 300l-96 -300h109z" />
    <glyph glyph-name="B" unicode="B" horiz-adv-x="607" 
d="M565.5 348.5q23.5 -36.5 23.5 -85.5q0 -78 -35 -137.5t-98 -92.5t-144 -33h-299l107 760h295q63 0 108 -23t68 -61.5t23 -84.5q0 -61 -30 -111t-84 -76q42 -19 65.5 -55.5zM382.5 489.5q16.5 24.5 16.5 63.5q0 24 -12.5 36.5t-41.5 12.5h-27l-20 -137h33q35 0 51.5 24.5z
M354 196q19 30 19 70q0 27 -12.5 43t-36.5 16h-45l-23 -159h47q32 0 51 30z" />
    <glyph glyph-name="C" unicode="C" horiz-adv-x="731" 
d="M653 692.5q76 -82.5 82 -227.5l-241 -17q0 57 -17.5 87t-58.5 30q-47 0 -79 -37t-47 -93.5t-15 -112.5q0 -127 84 -127q42 0 71 31.5t47 86.5l231 -18q-41 -144 -137.5 -227t-235.5 -83q-92 0 -159 40t-102 114t-35 173q0 124 49.5 230t141.5 169.5t212 63.5
q133 0 209 -82.5z" />
    <glyph glyph-name="D" unicode="D" horiz-adv-x="699" 
d="M537.5 721q72.5 -39 113.5 -110t41 -165q0 -119 -52 -221t-149 -163.5t-224 -61.5h-254l107 760h254q91 0 163.5 -39zM379 223q38 39 56.5 97.5t18.5 116.5q0 74 -24 106.5t-76 32.5h-31l-55 -392h19q54 0 92 39z" />
    <glyph glyph-name="E" unicode="E" horiz-adv-x="510" 
d="M323 576l-13 -95h183l-25 -175h-183l-17 -122h196l-27 -184h-424l107 760h425l-26 -184h-196z" />
    <glyph glyph-name="F" unicode="F" horiz-adv-x="492" 
d="M323 576l-13 -95h170l-25 -175h-170l-43 -306h-229l107 760h412l-26 -184h-183z" />
    <glyph glyph-name="G" unicode="G" horiz-adv-x="726" 
d="M398 433h313l-45 -332q-61 -50 -146.5 -83t-175.5 -33q-96 0 -164 40t-103.5 114t-35.5 173q0 123 49.5 229.5t140 170t208.5 63.5q96 0 158.5 -38.5t92.5 -97t37 -124.5l-246 -17q-4 27 -21 47t-51 20q-43 0 -73 -37.5t-44.5 -94t-14.5 -111.5q0 -75 24.5 -108.5
t73.5 -33.5q53 0 99 32l9 66h-107z" />
    <glyph glyph-name="H" unicode="H" horiz-adv-x="685" 
d="M705 760l-107 -760h-229l42 299h-127l-42 -299h-229l107 760h229l-39 -277h127l39 277h229z" />
    <glyph glyph-name="I" unicode="I" horiz-adv-x="329" 
d="M120 760h229l-107 -760h-229z" />
    <glyph glyph-name="J" unicode="J" horiz-adv-x="645" 
d="M147.5 19.5q-55.5 34.5 -88 99t-32.5 151.5l230 15v-15q0 -38 13.5 -56.5t34.5 -18.5q29 0 46 24.5t25 77.5l65 463h229l-64 -454q-24 -171 -109 -246t-224 -75q-70 0 -125.5 34.5z" />
    <glyph glyph-name="K" unicode="K" horiz-adv-x="644" 
d="M461 450l166 -450h-221l-83 285l-52 -63l-31 -222h-227l107 760h227l-31 -219l154 219h248z" />
    <glyph glyph-name="L" unicode="L" horiz-adv-x="473" 
d="M447 184l-26 -184h-408l107 760h229l-81 -576h179z" />
    <glyph glyph-name="M" unicode="M" horiz-adv-x="816" 
d="M807 760l-56 -760h-209l41 420l-168 -420h-89l-51 418l-76 -418h-208l155 760h226l46 -394l155 394h234z" />
    <glyph glyph-name="N" unicode="N" horiz-adv-x="696" 
d="M715 760l-106 -760h-220l-96 424l-59 -424h-220l106 760h220l98 -412l57 412h220z" />
    <glyph glyph-name="O" unicode="O" horiz-adv-x="744" 
d="M177 26.5q-66 41.5 -101 116t-35 169.5q0 124 49.5 230t141.5 169.5t212 63.5q90 0 156.5 -42t101.5 -116.5t35 -170.5q0 -122 -50 -228t-142 -169.5t-212 -63.5q-90 0 -156 41.5zM438.5 232q31.5 37 46.5 93t15 112q0 128 -82 128q-46 0 -78 -37.5t-47 -93.5t-15 -112
q0 -127 83 -127q46 0 77.5 37z" />
    <glyph glyph-name="P" unicode="P" horiz-adv-x="624" 
d="M522.5 729.5q53.5 -30.5 82 -82t28.5 -112.5q0 -102 -36.5 -176.5t-104.5 -114t-161 -39.5h-64l-29 -205h-225l107 760h277q72 0 125.5 -30.5zM378.5 419q27.5 39 27.5 91q0 75 -63 75h-23l-28 -205h16q43 0 70.5 39z" />
    <glyph glyph-name="Q" unicode="Q" horiz-adv-x="761" 
d="M704.5 258.5q-32.5 -88.5 -93.5 -152.5l80 -148l-185 -128l-89 164q-40 -9 -84 -9q-90 0 -156 41.5t-101 116t-35 169.5q0 124 49.5 230t141.5 169.5t212 63.5q90 0 156.5 -42t101.5 -116.5t35 -170.5q0 -99 -32.5 -187.5zM361 195q46 0 77.5 37t46.5 93t15 112
q0 128 -82 128q-46 0 -78 -37.5t-47 -93.5t-15 -112q0 -127 83 -127z" />
    <glyph glyph-name="R" unicode="R" horiz-adv-x="637" 
d="M600 365q-33 -72 -95 -113l85 -252h-214l-55 205h-54l-29 -205h-225l107 760h277q72 0 125.5 -30.5t82 -82t28.5 -112.5q0 -98 -33 -170zM292 380h16q44 0 71.5 39t27.5 91q0 75 -64 75h-23z" />
    <glyph glyph-name="S" unicode="S" horiz-adv-x="642" 
d="M105.5 42.5q-66.5 57.5 -79.5 161.5q-2 16 -2 24l240 16v-18q0 -35 12 -55t37 -20q27 0 42 21t15 51q0 31 -36 46l-68 28q-79 32 -134 87t-55 136q0 76 39 134t108.5 89.5t157.5 31.5q133 0 193.5 -63.5t63.5 -165.5l-240 -16q3 18 3 29q0 52 -37 52q-22 0 -35 -16.5
t-13 -42.5q0 -37 48 -57l73 -30q83 -34 128 -83t45 -119q0 -85 -41 -148t-113 -96.5t-165 -33.5q-120 0 -186.5 57.5z" />
    <glyph glyph-name="T" unicode="T" horiz-adv-x="558" 
d="M587 576h-149l-81 -576h-229l81 576h-149l25 184h528z" />
    <glyph glyph-name="U" unicode="U" horiz-adv-x="692" 
d="M115 51q-68 66 -68 191q0 36 6 78l62 440h229l-63 -448q-4 -25 -4 -50q0 -33 13 -50t45 -17q74 0 90 117l63 448h228l-61 -440q-24 -176 -109 -255.5t-239 -79.5q-124 0 -192 66z" />
    <glyph glyph-name="V" unicode="V" horiz-adv-x="643" 
d="M718 760l-313 -760h-242l-98 760h230l22 -481l153 481h248z" />
    <glyph glyph-name="W" unicode="W" horiz-adv-x="953" 
d="M1018 760l-278 -760h-233l-9 428l-134 -428h-233l-56 760h235l-11 -502l141 502h204l-2 -511l128 511h248z" />
    <glyph glyph-name="X" unicode="X" horiz-adv-x="662" 
d="M467 384l158 -384h-237l-59 194l-111 -194h-260l282 401l-151 359h239l46 -186l101 186h262z" />
    <glyph glyph-name="Y" unicode="Y" horiz-adv-x="628" 
d="M713 760l-417 -760h-239l173 316l-170 444h235l54 -226l124 226h240z" />
    <glyph glyph-name="Z" unicode="Z" horiz-adv-x="599" 
d="M322 184h249l-26 -184h-577l342 576h-218l26 184h546z" />
    <glyph glyph-name="bracketleft" unicode="[" horiz-adv-x="503" 
d="M351 746l-101 -715h140l-20 -149h-323l142 1013h319l-21 -149h-136z" />
    <glyph glyph-name="backslash" unicode="\" horiz-adv-x="767" 
d="M361 760h-241l320 -760h240z" />
    <glyph glyph-name="bracketright" unicode="]" horiz-adv-x="503" 
d="M188 31l101 715h-140l20 149h323l-142 -1013h-319l21 149h136z" />
    <glyph glyph-name="asciicircum" unicode="^" horiz-adv-x="570" 
d="M341 391l-10 148l-58 -148h-175l155 263h184l71 -263h-167z" />
    <glyph glyph-name="underscore" unicode="_" horiz-adv-x="528" 
d="M-13 -46h468l-21 -148h-468z" />
    <glyph glyph-name="grave" unicode="`" horiz-adv-x="397" 
d="M309 760l84 -174h-127l-146 174h189z" />
    <glyph glyph-name="a" unicode="a" horiz-adv-x="625" 
d="M616 520l-73 -520h-206l-2 78q-53 -93 -149 -93q-45 0 -81 24t-57 71t-21 114q0 82 27.5 161t79.5 129.5t120 50.5q53 0 85 -28t45 -71l12 84h220zM348 201q19 46 19 96q0 33 -11.5 50t-30.5 17q-34 0 -53 -46t-19 -95q0 -33 11 -50.5t31 -17.5q34 0 53 46z" />
    <glyph glyph-name="b" unicode="b" horiz-adv-x="624" 
d="M555 480.5q42 -54.5 42 -151.5q0 -86 -28.5 -165t-81.5 -129t-123 -50q-48 0 -78.5 25t-45.5 69l-26 -79h-206l107 760h220l-46 -329q27 49 67.5 76.5t89.5 27.5q67 0 109 -54.5zM351.5 201q18.5 46 18.5 96q0 33 -11 50t-31 17q-34 0 -52.5 -45.5t-18.5 -96.5
q0 -32 11.5 -49.5t30.5 -17.5q34 0 52.5 46z" />
    <glyph glyph-name="c" unicode="c" horiz-adv-x="590" 
d="M87.5 49q-57.5 64 -57.5 165q0 94 36.5 166.5t107.5 113.5t169 41q102 0 162 -59.5t61 -158.5l-208 -16q-1 33 -10 48.5t-30 15.5q-36 0 -54.5 -45.5t-18.5 -98.5q0 -66 46 -66q20 0 34 16.5t21 48.5l206 -15q-20 -102 -94 -161t-192 -59q-121 0 -178.5 64z" />
    <glyph glyph-name="d" unicode="d" horiz-adv-x="625" 
d="M650 760l-107 -760h-206l-2 78q-55 -93 -150 -93q-44 0 -80 24t-57 71t-21 114q0 82 27.5 161t79 129.5t119.5 50.5q54 0 86 -28t45 -72l46 325h220zM348 202q19 46 19 95q0 33 -11.5 50t-30.5 17q-34 0 -53 -46t-19 -96q0 -32 11 -49t31 -17q34 0 53 46z" />
    <glyph glyph-name="e" unicode="e" horiz-adv-x="609" 
d="M242 207q-1 -8 -1 -22q0 -60 44 -60q15 0 28.5 12t18.5 29l218 -15q-80 -166 -291 -166q-71 0 -123 29t-79.5 78.5t-27.5 110.5q0 102 37 176.5t106.5 115t165.5 40.5q116 0 179 -63t63 -177q0 -18 -4 -45t-10 -43h-324zM256 303h112q1 8 1 23q0 64 -43 64q-52 0 -70 -87
z" />
    <glyph glyph-name="f" unicode="f" horiz-adv-x="380" 
d="M340.5 602q-17.5 -18 -23.5 -61l-3 -21h102l-24 -166h-101l-50 -354h-219l50 354h-59l35 166h47l6 39q16 113 71 164.5t159 51.5q37 0 83.5 -7.5t64.5 -14.5l-30 -141q-9 3 -27 5.5t-34 2.5q-30 0 -47.5 -18z" />
    <glyph glyph-name="g" unicode="g" horiz-adv-x="625" 
d="M616 520l-68 -488q-18 -131 -92.5 -191.5t-205.5 -60.5q-107 0 -165 44.5t-72 122.5l222 16q2 -21 9.5 -33.5t24.5 -12.5q24 0 35.5 19t17.5 59l14 97q-54 -89 -149 -89q-45 0 -81 23.5t-57 68.5t-21 108q0 79 28 156t79.5 126.5t117.5 49.5q53 0 85.5 -27.5t45.5 -70.5
l26 83h206zM348.5 205q18.5 46 18.5 94q0 32 -11 48.5t-31 16.5q-34 0 -52.5 -42.5t-18.5 -94.5q0 -68 43 -68q33 0 51.5 46z" />
    <glyph glyph-name="h" unicode="h" horiz-adv-x="601" 
d="M542 492q32 -43 32 -115q0 -31 -4 -55l-46 -322h-220l41 290q4 32 4 45q0 19 -6.5 29t-22.5 10q-21 0 -33 -22.5t-19 -69.5l-40 -282h-220l107 760h220l-42 -300q61 75 152 75q65 0 97 -43z" />
    <glyph glyph-name="i" unicode="i" horiz-adv-x="327" 
d="M144 618q-34 34 -34 82t34 81.5t81 33.5q48 0 82 -33.5t34 -81.5t-34 -82t-82 -34q-47 0 -81 34zM90 520h220l-74 -520h-220z" />
    <glyph glyph-name="j" unicode="j" horiz-adv-x="326" 
d="M143 618q-34 34 -34 82t34 81.5t82 33.5q47 0 81 -33.5t34 -81.5t-34 -82t-81 -34q-48 0 -82 34zM-56 -215q-33 5 -59 13l34 156q23 -7 42 -7q30 0 43 18t19 62l69 493h218l-74 -524q-16 -118 -70 -167t-160 -49q-29 0 -62 5z" />
    <glyph glyph-name="k" unicode="k" horiz-adv-x="575" 
d="M400 294l145 -294h-212l-62 166l-29 -29l-19 -137h-215l107 760h215l-52 -368l111 128h238z" />
    <glyph glyph-name="l" unicode="l" horiz-adv-x="360" 
d="M85.5 28.5q-49.5 43.5 -49.5 134.5q0 32 6 72l74 525h216l-74 -529q-2 -16 -2 -23q0 -55 57 -55h15l-11 -161q-29 -7 -79 -7q-103 0 -152.5 43.5z" />
    <glyph glyph-name="m" unicode="m" horiz-adv-x="876" 
d="M819 493q30 -42 30 -112q0 -32 -4 -59l-46 -322h-220l41 294q4 30 4 44q0 36 -22 36q-17 0 -27.5 -19t-17.5 -57l-43 -298h-220l41 294q4 32 4 43q0 37 -22 37q-17 0 -28 -19.5t-19 -57.5l-42 -297h-220l74 520h196l10 -61q60 76 149 76q51 0 80.5 -26.5t40.5 -72.5
q29 48 70 73.5t93 25.5q68 0 98 -42z" />
    <glyph glyph-name="n" unicode="n" horiz-adv-x="602" 
d="M543 492q32 -43 32 -115q0 -31 -4 -55l-46 -322h-220l41 290q4 32 4 45q0 19 -6.5 29t-22.5 10q-21 0 -32.5 -19.5t-18.5 -61.5l-42 -293h-220l74 520h196l11 -65q30 39 70 59.5t87 20.5q65 0 97 -43z" />
    <glyph glyph-name="o" unicode="o" horiz-adv-x="611" 
d="M87.5 49q-57.5 64 -57.5 165q0 94 37 166.5t108 113.5t169 41q121 0 179 -64.5t58 -165.5q0 -94 -37 -166.5t-108 -113t-170 -40.5q-121 0 -178.5 64zM343.5 201q18.5 46 18.5 98q0 66 -42 66q-35 0 -53 -46t-18 -98q0 -66 42 -66q34 0 52.5 46z" />
    <glyph glyph-name="p" unicode="p" horiz-adv-x="624" 
d="M555 481q42 -54 42 -151q0 -86 -28.5 -165.5t-81.5 -129.5t-123 -50q-92 0 -124 94l-40 -284h-220l101 725h206l3 -88q26 48 66.5 75.5t89.5 27.5q67 0 109 -54zM351.5 201q18.5 46 18.5 96q0 33 -11 50t-31 17q-34 0 -52.5 -45.5t-18.5 -96.5q0 -32 11.5 -49.5
t30.5 -17.5q34 0 52.5 46z" />
    <glyph glyph-name="q" unicode="q" horiz-adv-x="625" 
d="M616 520l-101 -725h-220l39 282q-55 -92 -148 -92q-45 0 -81 24t-57 71t-21 114q0 82 27.5 161t79.5 129.5t120 50.5q52 0 84.5 -27.5t45.5 -70.5l26 83h206zM348 201q19 46 19 96q0 33 -11.5 50t-30.5 17q-34 0 -53 -46t-19 -96q0 -33 11 -50t31 -17q34 0 53 46z" />
    <glyph glyph-name="r" unicode="r" horiz-adv-x="441" 
d="M474 528l-41 -195q-31 11 -67 11q-41 0 -69.5 -31t-36.5 -90h-1l-31 -223h-220l74 520h191l12 -89q31 52 68.5 78t77.5 26q23 0 43 -7z" />
    <glyph glyph-name="s" unicode="s" horiz-adv-x="539" 
d="M71.5 24.5q-61.5 39.5 -72.5 119.5l211 14q0 -47 36 -47q20 0 31 10t11 28q0 17 -16 27t-53 22l-38 12q-68 22 -105.5 58.5t-37.5 86.5q0 89 69.5 134.5t183.5 45.5q106 0 165.5 -36t71.5 -106l-209 -16q0 19 -5 30t-20 11q-12 0 -20 -9t-8 -24q0 -22 36 -33l40 -13
q53 -17 87.5 -35t55.5 -46.5t21 -72.5q0 -101 -72.5 -150.5t-193.5 -49.5q-107 0 -168.5 39.5z" />
    <glyph glyph-name="t" unicode="t" horiz-adv-x="428" 
d="M277 230q-2 -12 -2 -29q0 -25 11.5 -36.5t39.5 -11.5q21 0 51 6l-11 -162q-62 -12 -124 -12q-89 0 -139 44t-50 131q0 23 3 48l20 146h-63l34 166h53l18 130h219l-19 -130h112l-24 -166h-111z" />
    <glyph glyph-name="u" unicode="u" 
d="M589 520l-73 -520h-197l-9 65q-30 -39 -69 -59.5t-85 -20.5q-65 0 -97 43t-32 114q0 29 4 55l46 323h220l-41 -290q-4 -32 -4 -46q0 -39 29 -39q20 0 31 25t19 80l38 270h220z" />
    <glyph glyph-name="v" unicode="v" horiz-adv-x="551" 
d="M602 520l-254 -520h-221l-106 520h226l10 -342l106 342h239z" />
    <glyph glyph-name="w" unicode="w" horiz-adv-x="775" 
d="M816 520l-220 -520h-203l-3 282l-83 -282h-203l-73 520h223l-12 -353l99 353h160v-353l86 353h229z" />
    <glyph glyph-name="x" unicode="x" horiz-adv-x="543" 
d="M386 254l127 -254h-220l-34 132l-67 -132h-241l210 266l-128 254h222l32 -124l63 124h241z" />
    <glyph glyph-name="y" unicode="y" 
d="M589 520l-68 -488q-19 -135 -95.5 -193.5t-200.5 -58.5q-104 0 -160.5 43t-73.5 122l221 18q2 -25 8.5 -35.5t24.5 -10.5q23 0 34.5 24t19.5 80l8 55q-61 -72 -148 -72q-66 0 -97.5 43t-31.5 114q0 30 4 55l43 304h220l-39 -272q-4 -24 -4 -45q0 -19 6.5 -28.5t23.5 -9.5
q18 0 29 21t18 64l38 270h220z" />
    <glyph glyph-name="z" unicode="z" horiz-adv-x="510" 
d="M302 162h177l-23 -162h-483l229 359h-155l34 161h450z" />
    <glyph glyph-name="braceleft" unicode="{" horiz-adv-x="490" 
d="M499 895l-20 -141q-35 0 -52.5 -22.5t-23.5 -63.5l-17 -118q-17 -120 -95 -168q26 -19 40 -48t14 -65q0 -19 -3 -40l-17 -120q-2 -18 -2 -28q0 -28 12 -43t41 -15l-19 -141h-43q-79 0 -128 46.5t-49 120.5q0 23 3 45l20 144q2 11 2 28q0 28 -12 42.5t-41 14.5l4 28
l14 104q36 0 53 22.5t23 62.5l20 142q16 116 70 164.5t156 48.5h50z" />
    <glyph glyph-name="bar" unicode="|" horiz-adv-x="470" 
d="M190 760h230l-135 -965h-230z" />
    <glyph glyph-name="braceright" unicode="}" horiz-adv-x="490" 
d="M27 -118l20 141q35 0 52.5 22.5t23.5 63.5l17 118q17 120 95 168q-26 19 -40 48t-14 65q0 19 3 40l17 120q2 18 2 28q0 28 -12 43t-41 15l19 141h43q79 0 128 -46.5t49 -120.5q0 -23 -3 -45l-20 -144q-2 -11 -2 -28q0 -28 12 -42.5t41 -14.5l-4 -28l-14 -104
q-36 0 -53 -22.5t-23 -62.5l-20 -142q-16 -116 -70 -164.5t-156 -48.5h-50z" />
    <glyph glyph-name="asciitilde" unicode="~" horiz-adv-x="558" 
d="M337 334.5q-18 6.5 -43 20.5q-22 13 -42.5 20t-45.5 7q-62 0 -115 -44l21 153q46 43 112 43q24 0 42 -6.5t43 -20.5q25 -13 45 -20t45 -7q32 0 62 11t54 33l-21 -153q-21 -21 -51.5 -32t-62.5 -11q-25 0 -43 6.5z" />
    <glyph glyph-name="uni00A0" unicode="&#xa0;" horiz-adv-x="175" 
 />
    <glyph glyph-name="exclamdown" unicode="&#xa1;" horiz-adv-x="338" 
d="M273.5 538.5q31.5 -31.5 31.5 -76.5q0 -44 -31.5 -76t-76.5 -32t-76.5 32t-31.5 76q0 45 31.5 76.5t76.5 31.5t76.5 -31.5zM204 -205h-200l88 498h165z" />
    <glyph glyph-name="cent" unicode="&#xa2;" horiz-adv-x="688" 
d="M373 171.5q14 16.5 21 48.5l206 -15q-16 -80 -65.5 -134.5t-129.5 -74.5l-17 -123h-192l18 127q-69 24 -102.5 81t-33.5 133q0 116 54.5 197.5t154.5 109.5l17 117h192l-17 -117q63 -23 98.5 -76t36.5 -128l-208 -16q-1 33 -10 48.5t-30 15.5q-36 0 -54.5 -45.5
t-18.5 -98.5q0 -66 46 -66q20 0 34 16.5z" />
    <glyph glyph-name="sterling" unicode="&#xa3;" horiz-adv-x="666" 
d="M404 167h168l-23 -167h-505l23 167h101q35 49 35 102v7h-106l15 105h63l-2 3q-48 81 -48 153q0 63 32.5 117.5t94 87.5t144.5 33q115 0 170 -58.5t61 -161.5l-205 -14q3 23 -5 38.5t-27 15.5q-18 0 -29 -14.5t-11 -34.5q0 -22 13 -54t31 -59q18 -28 26 -52h129l-15 -105
h-99q-5 -56 -31 -109z" />
    <glyph glyph-name="currency" unicode="&#xa4;" horiz-adv-x="842" 
d="M678 226l59 -67l-148 -131l-73 87q-55 -18 -119 -18q-52 0 -96 15l-105 -95l-129 150l85 73q-18 41 -18 85q0 95 56 169l-59 66l149 130l73 -86q56 18 118 18q51 0 99 -16l102 92l130 -149l-85 -73q17 -39 17 -82q0 -94 -56 -168zM486.5 299.5q26.5 31.5 26.5 78.5
q0 34 -18 54t-48 20q-39 0 -65.5 -31.5t-26.5 -79.5q0 -34 18 -53.5t48 -19.5q39 0 65.5 31.5z" />
    <glyph glyph-name="yen" unicode="&#xa5;" horiz-adv-x="768" 
d="M572 431h91l-16 -106h-135l-5 -10l-8 -54h139l-14 -105h-140l-22 -156h-229l22 156h-140l15 105h139l8 54l-3 10h-135l15 106h90l-94 329h230l34 -262l107 262h237z" />
    <glyph glyph-name="brokenbar" unicode="&#xa6;" horiz-adv-x="470" 
d="M190 760h230l-54 -386h-230zM109 182h230l-54 -387h-230z" />
    <glyph glyph-name="section" unicode="&#xa7;" horiz-adv-x="682" 
d="M564.5 220.5q-23.5 -46.5 -66.5 -81.5q62 -57 62 -130q0 -67 -36.5 -119t-99.5 -81t-139 -29q-79 0 -133.5 35t-80.5 86.5t-27 101.5l227 16l-1 -17q0 -57 37 -57q19 0 31 13.5t12 36.5q0 34 -38 50l-61 21q-72 26 -112 70.5t-40 100.5q0 54 23.5 100.5t66.5 81.5
q-30 26 -46.5 60t-16.5 70q0 65 37 116.5t100 80.5t139 29q79 0 133.5 -35t80.5 -86.5t27 -100.5l-227 -17q2 34 -5 54t-31 20q-19 0 -31 -13.5t-12 -34.5q0 -17 8.5 -28.5t29.5 -20.5l61 -21q71 -25 111.5 -70.5t40.5 -101.5q0 -53 -23.5 -99.5zM314.5 246.5
q13.5 -16.5 47.5 -33.5q24 30 24 63q0 18 -13.5 34.5t-47.5 33.5q-24 -28 -24 -63q0 -18 13.5 -34.5z" />
    <glyph glyph-name="dieresis" unicode="&#xa8;" horiz-adv-x="514" 
d="M139 625.5q-27 27.5 -27 65.5q0 39 27 66t65 27t65.5 -27t27.5 -66q0 -38 -27.5 -65.5t-65.5 -27.5t-65 27.5zM367.5 625.5q-27.5 27.5 -27.5 65.5q0 39 27.5 66t65.5 27t64.5 -27t26.5 -66q0 -38 -27 -65.5t-64 -27.5q-38 0 -65.5 27.5z" />
    <glyph glyph-name="copyright" unicode="&#xa9;" horiz-adv-x="995" 
d="M300 37.5q-94 52.5 -146.5 143t-52.5 199.5t52.5 199.5t146.5 143t214 52.5q121 0 215 -52.5t146.5 -143t52.5 -199.5t-52.5 -199.5t-146.5 -143t-215 -52.5q-120 0 -214 52.5zM683.5 107q74.5 42 115.5 114t41 159t-41 159t-115.5 114t-169.5 42t-169 -42t-115.5 -114
t-41.5 -159t41.5 -159t115.5 -114t169 -42t169.5 42zM358.5 226q-52.5 61 -52.5 157q0 97 52.5 157.5t161.5 60.5q93 0 145 -46.5t57 -125.5l-162 -12q-6 49 -39 49q-21 0 -32 -19t-11 -64q0 -83 43 -83q33 0 39 52l163 -12q-6 -77 -58.5 -126t-144.5 -49q-109 0 -161.5 61z
" />
    <glyph glyph-name="ordfeminine" unicode="&#xaa;" horiz-adv-x="579" 
d="M589 760l-61 -435h-149l-4 62q-52 -77 -130 -77q-41 0 -74.5 21t-54 62t-20.5 99q0 73 27 138t76 105t111 40q79 0 109 -75l8 60h162zM373.5 484.5q21.5 37.5 21.5 82.5q0 34 -14 52.5t-37 18.5q-31 0 -54 -32.5t-23 -87.5q0 -34 14 -52.5t36 -18.5q35 0 56.5 37.5z" />
    <glyph glyph-name="guillemotleft" unicode="&#xab;" horiz-adv-x="597" 
d="M174 480h164l-117 -208l58 -208h-151l-66 208zM404 480h164l-117 -208l58 -208h-151l-66 208z" />
    <glyph glyph-name="logicalnot" unicode="&#xac;" horiz-adv-x="633" 
d="M580 453l-41 -287h-173l19 138h-299l21 149h473z" />
    <glyph glyph-name="uni00AD" unicode="&#xad;" horiz-adv-x="432" 
d="M73 351h311l-23 -166h-311z" />
    <glyph glyph-name="registered" unicode="&#xae;" horiz-adv-x="743" 
d="M555.5 738.5q65.5 -36.5 102 -99t36.5 -138.5q0 -75 -36.5 -138t-102.5 -100t-149 -37q-84 0 -150 37t-102.5 100t-36.5 138q0 76 36.5 138.5t102.5 99t150 36.5t149.5 -36.5zM511 332q46 26 71.5 70.5t25.5 98.5q0 53 -25.5 98t-71.5 71t-105 26t-105.5 -26t-72 -71
t-25.5 -98q0 -54 25.5 -98.5t71.5 -70.5t106 -26q59 0 105 26zM482 469l40 -91h-84l-27 71h-8v-71h-87v260h96q50 0 77 -25.5t27 -68.5q0 -49 -34 -75zM403 577v-67h5q22 0 22 34q0 33 -22 33h-5z" />
    <glyph glyph-name="macron" unicode="&#xaf;" horiz-adv-x="369" 
d="M120 755h268l-14 -104h-268z" />
    <glyph glyph-name="degree" unicode="&#xb0;" horiz-adv-x="484" 
d="M212 486.5q-37 20.5 -58.5 56t-21.5 78.5q0 42 21.5 77.5t58.5 56t81 20.5q43 0 80 -20.5t58.5 -56t21.5 -77.5q0 -43 -21.5 -78.5t-58.5 -56t-80 -20.5q-44 0 -81 20.5zM331 583q16 16 16 38t-16 38t-38 16t-38.5 -16t-16.5 -38t16.5 -38t38.5 -16t38 16z" />
    <glyph glyph-name="plusminus" unicode="&#xb1;" horiz-adv-x="577" 
d="M517 402h-127l-21 -150h-148l21 150h-127l19 140h128l21 149h148l-21 -149h127zM64 147h403l-20 -140h-402z" />
    <glyph glyph-name="uni00B2" unicode="&#xb2;" horiz-adv-x="485" 
d="M278.5 481q-10.5 -10 -16.5 -26h164l-16 -110h-317l8 61q8 62 41 108t100 74l42 18q36 15 36 38q0 9 -4.5 15t-13.5 6q-22 0 -34 -32l-134 9q18 64 67 95.5t124 31.5q60 0 97 -31t37 -80q0 -50 -29 -81.5t-87 -59.5l-35 -17q-19 -9 -29.5 -19z" />
    <glyph glyph-name="uni00B3" unicode="&#xb3;" horiz-adv-x="494" 
d="M443 478q0 -66 -51.5 -104t-133.5 -38q-68 0 -104.5 34t-40.5 97l137 10q0 -35 24 -35q12 0 21 10t9 28q0 17 -10 24t-32 7h-40l12 91h39q22 0 35 10.5t13 30.5q0 10 -5.5 16t-14.5 6q-25 0 -32 -33l-135 11q21 62 73.5 94t116.5 32q67 0 102.5 -29.5t35.5 -81.5
q0 -32 -16.5 -59t-44.5 -45q42 -27 42 -76z" />
    <glyph glyph-name="acute" unicode="&#xb4;" horiz-adv-x="349" 
d="M223 586h-127l84 174h189z" />
    <glyph glyph-name="uni00B5" unicode="&#xb5;" horiz-adv-x="676" 
d="M632 520l-73 -520h-197l-9 65q-36 -48 -87 -68l-29 -202h-222l87 598l18 127h220l-13 -92l-1 -9l-27 -189q-4 -32 -4 -46q0 -39 29 -39q20 0 31 25t19 80l38 270h220z" />
    <glyph glyph-name="paragraph" unicode="&#xb6;" horiz-adv-x="994" 
d="M148 590.5q41 76.5 109 123t146 46.5l-80 -571q-62 0 -111 32t-77 87t-28 123q0 83 41 159.5zM961 594h-77l-112 -799h-203l112 799h-99l-112 -799h-202l135 965h581z" />
    <glyph glyph-name="periodcentered" unicode="&#xb7;" horiz-adv-x="298" 
d="M101 338q-29 29 -29 69q0 41 29 69.5t69 28.5q41 0 69.5 -28.5t28.5 -69.5q0 -40 -28.5 -69t-69.5 -29q-40 0 -69 29z" />
    <glyph glyph-name="cedilla" unicode="&#xb8;" horiz-adv-x="305" 
d="M178 -58q23 -21 23 -58q0 -45 -33 -74.5t-92 -29.5q-53 0 -90 23l31 61q20 -11 44 -11q17 0 27 10t10 25q0 11 -6.5 17t-16.5 6q-15 0 -28 -13l-26 21l45 110h72l-21 -66h4q34 0 57 -21z" />
    <glyph glyph-name="uni00B9" unicode="&#xb9;" horiz-adv-x="374" 
d="M364 760l-58 -415h-141l32 227q-27 -8 -73 -8l19 141q46 0 83 13t51 42h87z" />
    <glyph glyph-name="ordmasculine" unicode="&#xba;" horiz-adv-x="557" 
d="M146 364.5q-48 54.5 -48 139.5q0 79 32 140.5t89.5 96t131.5 34.5q91 0 139.5 -55t48.5 -140q0 -78 -32 -139.5t-89.5 -96t-131.5 -34.5q-92 0 -140 54.5zM358 486.5q18 40.5 18 90.5q0 62 -45 62q-35 0 -52.5 -41.5t-17.5 -89.5q0 -62 43 -62q36 0 54 40.5z" />
    <glyph glyph-name="guillemotright" unicode="&#xbb;" horiz-adv-x="596" 
d="M426 64h-164l117 208l-58 208h151l66 -208zM196 64h-164l117 208l-58 208h151l66 -208z" />
    <glyph glyph-name="onequarter" unicode="&#xbc;" horiz-adv-x="1116" 
d="M364 760l-58 -415h-141l32 227q-27 -8 -73 -8l19 141q46 0 83 13t51 42h87zM683 760h220l-578 -760h-219zM1012 88h-44l-13 -88h-116l13 88h-188l15 111l95 215h120l-92 -215h65l17 116h116l-17 -116h44z" />
    <glyph glyph-name="onehalf" unicode="&#xbd;" horiz-adv-x="1120" 
d="M364 760l-58 -415h-141l32 227q-27 -8 -73 -8l19 141q46 0 83 13t51 42h87zM865.5 136q-10.5 -10 -16.5 -26h164l-16 -110h-317l8 61q8 62 41 108t100 74l42 18q36 15 36 38q0 9 -4.5 15t-13.5 6q-22 0 -34 -32l-134 9q18 64 67 95.5t124 31.5q60 0 97 -31t37 -80
q0 -50 -29 -81.5t-87 -59.5l-35 -17q-19 -9 -29.5 -19zM683 760h220l-578 -760h-219z" />
    <glyph glyph-name="threequarters" unicode="&#xbe;" horiz-adv-x="1214" 
d="M443 478q0 -66 -51.5 -104t-133.5 -38q-68 0 -104.5 34t-40.5 97l137 10q0 -35 24 -35q12 0 21 10t9 28q0 17 -10 24t-32 7h-40l12 91h39q22 0 35 10.5t13 30.5q0 10 -5.5 16t-14.5 6q-25 0 -32 -33l-135 11q21 62 73.5 94t116.5 32q67 0 102.5 -29.5t35.5 -81.5
q0 -32 -16.5 -59t-44.5 -45q42 -27 42 -76zM781 760h220l-578 -760h-219zM1110 88h-44l-13 -88h-116l13 88h-188l15 111l95 215h120l-92 -215h65l17 116h116l-17 -116h44z" />
    <glyph glyph-name="questiondown" unicode="&#xbf;" horiz-adv-x="606" 
d="M409 538.5q32 -31.5 32 -76.5q0 -44 -32 -76t-76 -32q-45 0 -76.5 32t-31.5 76q0 45 31.5 76.5t76.5 31.5q44 0 76 -31.5zM423 273q-10 -67 -33.5 -108t-82.5 -82l-19 -13q-47 -33 -47 -73q0 -34 30 -34q18 0 33 13.5t29 48.5l171 -65q-76 -180 -273 -180
q-96 0 -153 49.5t-57 137.5q0 67 34.5 122.5t98.5 94.5l25 15q26 16 36.5 35.5t14.5 44.5l3 23h194z" />
    <glyph glyph-name="Agrave" unicode="&#xc0;" horiz-adv-x="666" 
d="M401 96h-166l-31 -96h-246l315 760h261l100 -760h-229zM394 254l-13 300l-96 -300h109zM387 1001l84 -174h-127l-146 174h189z" />
    <glyph glyph-name="Aacute" unicode="&#xc1;" horiz-adv-x="666" 
d="M401 96h-166l-31 -96h-246l315 760h261l100 -760h-229zM394 254l-13 300l-96 -300h109zM464 827h-127l84 174h189z" />
    <glyph glyph-name="Acircumflex" unicode="&#xc2;" horiz-adv-x="666" 
d="M401 96h-166l-31 -96h-246l315 760h261l100 -760h-229zM394 254l-13 300l-96 -300h109zM468 832l-39 87l-55 -87h-152l155 169h119l109 -169h-137z" />
    <glyph glyph-name="Atilde" unicode="&#xc3;" horiz-adv-x="666" 
d="M401 96h-166l-31 -96h-246l315 760h261l100 -760h-229zM394 254l-13 300l-96 -300h109zM437.5 846.5q-19.5 8.5 -42.5 23.5q-35 23 -57 23q-35 0 -68 -39l-55 64q29 52 69 82.5t90 30.5q25 0 45 -8.5t43 -23.5q17 -11 30 -17t27 -6q31 0 67 39l55 -63q-27 -51 -67 -82.5
t-92 -31.5q-25 0 -44.5 8.5z" />
    <glyph glyph-name="Adieresis" unicode="&#xc4;" horiz-adv-x="666" 
d="M401 96h-166l-31 -96h-246l315 760h261l100 -760h-229zM394 254l-13 300l-96 -300h109zM248 866.5q-27 27.5 -27 65.5q0 39 27 66t65 27t65.5 -27t27.5 -66q0 -38 -27.5 -65.5t-65.5 -27.5t-65 27.5zM476.5 866.5q-27.5 27.5 -27.5 65.5q0 39 27.5 66t65.5 27t64.5 -27
t26.5 -66q0 -38 -27 -65.5t-64 -27.5q-38 0 -65.5 27.5z" />
    <glyph glyph-name="Aring" unicode="&#xc5;" horiz-adv-x="666" 
d="M401 96h-166l-31 -96h-246l315 760h261l100 -760h-229zM394 254l-13 300l-96 -300h109zM359 835.5q-29 17.5 -46 46.5t-17 63t17 63t46 46t63 17q35 0 64 -17t46 -46t17 -63t-17 -63t-46 -46.5t-64 -17.5q-34 0 -63 17.5zM460.5 905q15.5 16 15.5 40t-15.5 40t-38.5 16
t-38 -16t-15 -40t15 -40t38 -16t38.5 16z" />
    <glyph glyph-name="AE" unicode="&#xc6;" horiz-adv-x="898" 
d="M726 576l-13 -95h168l-25 -175h-168l-17 -122h181l-26 -184h-410l18 127h-163l-66 -127h-252l469 760h511l-26 -184h-181zM456 285l39 276l-143 -276h104z" />
    <glyph glyph-name="Ccedilla" unicode="&#xc7;" horiz-adv-x="731" 
d="M653 692.5q76 -82.5 82 -227.5l-241 -17q0 57 -17.5 87t-58.5 30q-47 0 -79 -37t-47 -93.5t-15 -112.5q0 -127 84 -127q42 0 71 31.5t47 86.5l231 -18q-41 -144 -137.5 -227t-235.5 -83q-92 0 -159 40t-102 114t-35 173q0 124 49.5 230t141.5 169.5t212 63.5
q133 0 209 -82.5zM420 -58q23 -21 23 -58q0 -45 -33 -74.5t-92 -29.5q-53 0 -90 23l31 61q20 -11 44 -11q17 0 27 10t10 25q0 11 -6.5 17t-16.5 6q-15 0 -28 -13l-26 21l45 110h72l-21 -66h4q34 0 57 -21z" />
    <glyph glyph-name="Egrave" unicode="&#xc8;" horiz-adv-x="510" 
d="M323 576l-13 -95h183l-25 -175h-183l-17 -122h196l-27 -184h-424l107 760h425l-26 -184h-196zM319 1001l84 -174h-127l-146 174h189z" />
    <glyph glyph-name="Eacute" unicode="&#xc9;" horiz-adv-x="510" 
d="M323 576l-13 -95h183l-25 -175h-183l-17 -122h196l-27 -184h-424l107 760h425l-26 -184h-196zM396 827h-127l84 174h189z" />
    <glyph glyph-name="Ecircumflex" unicode="&#xca;" horiz-adv-x="510" 
d="M323 576l-13 -95h183l-25 -175h-183l-17 -122h196l-27 -184h-424l107 760h425l-26 -184h-196zM400 832l-39 87l-55 -87h-152l155 169h119l109 -169h-137z" />
    <glyph glyph-name="Edieresis" unicode="&#xcb;" horiz-adv-x="510" 
d="M323 576l-13 -95h183l-25 -175h-183l-17 -122h196l-27 -184h-424l107 760h425l-26 -184h-196zM180 866.5q-27 27.5 -27 65.5q0 39 27 66t65 27t65.5 -27t27.5 -66q0 -38 -27.5 -65.5t-65.5 -27.5t-65 27.5zM408.5 866.5q-27.5 27.5 -27.5 65.5q0 39 27.5 66t65.5 27
t64.5 -27t26.5 -66q0 -38 -27 -65.5t-64 -27.5q-38 0 -65.5 27.5z" />
    <glyph glyph-name="Igrave" unicode="&#xcc;" horiz-adv-x="329" 
d="M120 760h229l-107 -760h-229zM220 1001l84 -174h-127l-146 174h189z" />
    <glyph glyph-name="Iacute" unicode="&#xcd;" horiz-adv-x="329" 
d="M120 760h229l-107 -760h-229zM297 827h-127l84 174h189z" />
    <glyph glyph-name="Icircumflex" unicode="&#xce;" horiz-adv-x="329" 
d="M120 760h229l-107 -760h-229zM287 832l-22 113l-47 -113h-142l134 169h119l88 -169h-130z" />
    <glyph glyph-name="Idieresis" unicode="&#xcf;" horiz-adv-x="329" 
d="M120 760h229l-107 -760h-229zM81 866.5q-27 27.5 -27 65.5q0 39 27 66t65 27t65.5 -27t27.5 -66q0 -38 -27.5 -65.5t-65.5 -27.5t-65 27.5zM309.5 866.5q-27.5 27.5 -27.5 65.5q0 39 27.5 66t65.5 27t64.5 -27t26.5 -66q0 -38 -27 -65.5t-64 -27.5q-38 0 -65.5 27.5z" />
    <glyph glyph-name="Eth" unicode="&#xd0;" horiz-adv-x="730" 
d="M568.5 721q72.5 -39 113.5 -110t41 -165q0 -119 -52 -221t-149 -163.5t-224 -61.5h-254l45 323h-75l22 149h74l41 288h254q91 0 163.5 -39zM410 223q38 39 56.5 97.5t18.5 116.5q0 74 -24 106.5t-76 32.5h-31l-15 -104h83l-22 -149h-82l-19 -139h19q54 0 92 39z" />
    <glyph glyph-name="Ntilde" unicode="&#xd1;" horiz-adv-x="696" 
d="M715 760l-106 -760h-220l-96 424l-59 -424h-220l106 760h220l98 -412l57 412h220zM451.5 846.5q-19.5 8.5 -42.5 23.5q-35 23 -57 23q-35 0 -68 -39l-55 64q29 52 69 82.5t90 30.5q25 0 45 -8.5t43 -23.5q17 -11 30 -17t27 -6q31 0 67 39l55 -63q-27 -51 -67 -82.5
t-92 -31.5q-25 0 -44.5 8.5z" />
    <glyph glyph-name="Ograve" unicode="&#xd2;" horiz-adv-x="744" 
d="M177 26.5q-66 41.5 -101 116t-35 169.5q0 124 49.5 230t141.5 169.5t212 63.5q90 0 156.5 -42t101.5 -116.5t35 -170.5q0 -122 -50 -228t-142 -169.5t-212 -63.5q-90 0 -156 41.5zM438.5 232q31.5 37 46.5 93t15 112q0 128 -82 128q-46 0 -78 -37.5t-47 -93.5t-15 -112
q0 -127 83 -127q46 0 77.5 37zM425 1001l84 -174h-127l-146 174h189z" />
    <glyph glyph-name="Oacute" unicode="&#xd3;" horiz-adv-x="744" 
d="M177 26.5q-66 41.5 -101 116t-35 169.5q0 124 49.5 230t141.5 169.5t212 63.5q90 0 156.5 -42t101.5 -116.5t35 -170.5q0 -122 -50 -228t-142 -169.5t-212 -63.5q-90 0 -156 41.5zM438.5 232q31.5 37 46.5 93t15 112q0 128 -82 128q-46 0 -78 -37.5t-47 -93.5t-15 -112
q0 -127 83 -127q46 0 77.5 37zM502 827h-127l84 174h189z" />
    <glyph glyph-name="Ocircumflex" unicode="&#xd4;" horiz-adv-x="744" 
d="M177 26.5q-66 41.5 -101 116t-35 169.5q0 124 49.5 230t141.5 169.5t212 63.5q90 0 156.5 -42t101.5 -116.5t35 -170.5q0 -122 -50 -228t-142 -169.5t-212 -63.5q-90 0 -156 41.5zM438.5 232q31.5 37 46.5 93t15 112q0 128 -82 128q-46 0 -78 -37.5t-47 -93.5t-15 -112
q0 -127 83 -127q46 0 77.5 37zM506 832l-39 87l-55 -87h-152l155 169h119l109 -169h-137z" />
    <glyph glyph-name="Otilde" unicode="&#xd5;" horiz-adv-x="744" 
d="M177 26.5q-66 41.5 -101 116t-35 169.5q0 124 49.5 230t141.5 169.5t212 63.5q90 0 156.5 -42t101.5 -116.5t35 -170.5q0 -122 -50 -228t-142 -169.5t-212 -63.5q-90 0 -156 41.5zM438.5 232q31.5 37 46.5 93t15 112q0 128 -82 128q-46 0 -78 -37.5t-47 -93.5t-15 -112
q0 -127 83 -127q46 0 77.5 37zM475.5 846.5q-19.5 8.5 -42.5 23.5q-35 23 -57 23q-35 0 -68 -39l-55 64q29 52 69 82.5t90 30.5q25 0 45 -8.5t43 -23.5q17 -11 30 -17t27 -6q31 0 67 39l55 -63q-27 -51 -67 -82.5t-92 -31.5q-25 0 -44.5 8.5z" />
    <glyph glyph-name="Odieresis" unicode="&#xd6;" horiz-adv-x="744" 
d="M177 26.5q-66 41.5 -101 116t-35 169.5q0 124 49.5 230t141.5 169.5t212 63.5q90 0 156.5 -42t101.5 -116.5t35 -170.5q0 -122 -50 -228t-142 -169.5t-212 -63.5q-90 0 -156 41.5zM438.5 232q31.5 37 46.5 93t15 112q0 128 -82 128q-46 0 -78 -37.5t-47 -93.5t-15 -112
q0 -127 83 -127q46 0 77.5 37zM286 866.5q-27 27.5 -27 65.5q0 39 27 66t65 27t65.5 -27t27.5 -66q0 -38 -27.5 -65.5t-65.5 -27.5t-65 27.5zM514.5 866.5q-27.5 27.5 -27.5 65.5q0 39 27.5 66t65.5 27t64.5 -27t26.5 -66q0 -38 -27 -65.5t-64 -27.5q-38 0 -65.5 27.5z" />
    <glyph glyph-name="multiply" unicode="&#xd7;" horiz-adv-x="576" 
d="M382 261l92 -121l-108 -90l-86 113l-121 -117l-94 105l129 125l-88 116l108 91l83 -109l123 119l94 -105z" />
    <glyph glyph-name="Oslash" unicode="&#xd8;" horiz-adv-x="745" 
d="M682 657q56 -83 56 -211q0 -122 -50.5 -228t-142.5 -169.5t-212 -63.5q-70 0 -128 25l-29 -39h-179l98 133q-54 83 -54 208q0 124 49.5 230t141.5 169.5t212 63.5q70 0 128 -25l29 39h179zM333 549q-37 -40 -55.5 -101t-20.5 -125l194 263q-12 3 -27 3q-54 0 -91 -40z
M447 212.5q37 40.5 55 101.5t20 125l-195 -264q14 -3 28 -3q55 0 92 40.5z" />
    <glyph glyph-name="Ugrave" unicode="&#xd9;" horiz-adv-x="692" 
d="M115 51q-68 66 -68 191q0 36 6 78l62 440h229l-63 -448q-4 -25 -4 -50q0 -33 13 -50t45 -17q74 0 90 117l63 448h228l-61 -440q-24 -176 -109 -255.5t-239 -79.5q-124 0 -192 66zM398 1001l84 -174h-127l-146 174h189z" />
    <glyph glyph-name="Uacute" unicode="&#xda;" horiz-adv-x="692" 
d="M115 51q-68 66 -68 191q0 36 6 78l62 440h229l-63 -448q-4 -25 -4 -50q0 -33 13 -50t45 -17q74 0 90 117l63 448h228l-61 -440q-24 -176 -109 -255.5t-239 -79.5q-124 0 -192 66zM475 827h-127l84 174h189z" />
    <glyph glyph-name="Ucircumflex" unicode="&#xdb;" horiz-adv-x="692" 
d="M115 51q-68 66 -68 191q0 36 6 78l62 440h229l-63 -448q-4 -25 -4 -50q0 -33 13 -50t45 -17q74 0 90 117l63 448h228l-61 -440q-24 -176 -109 -255.5t-239 -79.5q-124 0 -192 66zM479 832l-39 87l-55 -87h-152l155 169h119l109 -169h-137z" />
    <glyph glyph-name="Udieresis" unicode="&#xdc;" horiz-adv-x="692" 
d="M115 51q-68 66 -68 191q0 36 6 78l62 440h229l-63 -448q-4 -25 -4 -50q0 -33 13 -50t45 -17q74 0 90 117l63 448h228l-61 -440q-24 -176 -109 -255.5t-239 -79.5q-124 0 -192 66zM259 866.5q-27 27.5 -27 65.5q0 39 27 66t65 27t65.5 -27t27.5 -66q0 -38 -27.5 -65.5
t-65.5 -27.5t-65 27.5zM487.5 866.5q-27.5 27.5 -27.5 65.5q0 39 27.5 66t65.5 27t64.5 -27t26.5 -66q0 -38 -27 -65.5t-64 -27.5q-38 0 -65.5 27.5z" />
    <glyph glyph-name="Yacute" unicode="&#xdd;" horiz-adv-x="628" 
d="M713 760l-417 -760h-239l173 316l-170 444h235l54 -226l124 226h240zM444 827h-127l84 174h189z" />
    <glyph glyph-name="Thorn" unicode="&#xde;" horiz-adv-x="623" 
d="M508.5 636.5q53.5 -30.5 82 -81.5t28.5 -113q0 -102 -36.5 -176t-104.5 -113.5t-161 -39.5h-63l-16 -113h-225l107 760h225l-13 -93h51q72 0 125.5 -30.5zM366.5 327q27.5 39 27.5 90q0 36 -16 55.5t-48 19.5h-23l-28 -204h15q45 0 72.5 39z" />
    <glyph glyph-name="germandbls" unicode="&#xdf;" horiz-adv-x="562" 
d="M497.5 354q30.5 -43 30.5 -98q0 -79 -33 -140.5t-88.5 -96t-121.5 -34.5q-41 0 -70 11l28 137q6 -3 19 -3q21 0 40 15t31 41.5t12 59.5t-15.5 53t-40.5 20h-12l15 104l3 24q22 24 40.5 64.5t18.5 69.5q0 21 -9 32.5t-26 11.5q-18 0 -31.5 -16t-18.5 -49l-79 -560h-182
l73 519q13 96 43 151.5t80 80t127 24.5q79 0 126.5 -44t47.5 -116q0 -55 -23.5 -105.5t-65.5 -89.5q51 -23 81.5 -66z" />
    <glyph glyph-name="agrave" unicode="&#xe0;" horiz-adv-x="625" 
d="M616 520l-73 -520h-206l-2 78q-53 -93 -149 -93q-45 0 -81 24t-57 71t-21 114q0 82 27.5 161t79.5 129.5t120 50.5q53 0 85 -28t45 -71l12 84h220zM348 201q19 46 19 96q0 33 -11.5 50t-30.5 17q-34 0 -53 -46t-19 -95q0 -33 11 -50.5t31 -17.5q34 0 53 46zM322 761
l84 -174h-127l-146 174h189z" />
    <glyph glyph-name="aacute" unicode="&#xe1;" horiz-adv-x="625" 
d="M616 520l-73 -520h-206l-2 78q-53 -93 -149 -93q-45 0 -81 24t-57 71t-21 114q0 82 27.5 161t79.5 129.5t120 50.5q53 0 85 -28t45 -71l12 84h220zM348 201q19 46 19 96q0 33 -11.5 50t-30.5 17q-34 0 -53 -46t-19 -95q0 -33 11 -50.5t31 -17.5q34 0 53 46zM399 587h-127
l84 174h189z" />
    <glyph glyph-name="acircumflex" unicode="&#xe2;" horiz-adv-x="625" 
d="M616 520l-73 -520h-206l-2 78q-53 -93 -149 -93q-45 0 -81 24t-57 71t-21 114q0 82 27.5 161t79.5 129.5t120 50.5q53 0 85 -28t45 -71l12 84h220zM348 201q19 46 19 96q0 33 -11.5 50t-30.5 17q-34 0 -53 -46t-19 -95q0 -33 11 -50.5t31 -17.5q34 0 53 46zM403 592
l-39 87l-55 -87h-152l155 169h119l109 -169h-137z" />
    <glyph glyph-name="atilde" unicode="&#xe3;" horiz-adv-x="625" 
d="M616 520l-73 -520h-206l-2 78q-53 -93 -149 -93q-45 0 -81 24t-57 71t-21 114q0 82 27.5 161t79.5 129.5t120 50.5q53 0 85 -28t45 -71l12 84h220zM348 201q19 46 19 96q0 33 -11.5 50t-30.5 17q-34 0 -53 -46t-19 -95q0 -33 11 -50.5t31 -17.5q34 0 53 46zM372.5 606.5
q-19.5 8.5 -42.5 23.5q-35 23 -57 23q-35 0 -68 -39l-55 64q29 52 69 82.5t90 30.5q25 0 45 -8.5t43 -23.5q17 -11 30 -17t27 -6q31 0 67 39l55 -63q-27 -51 -67 -82.5t-92 -31.5q-25 0 -44.5 8.5z" />
    <glyph glyph-name="adieresis" unicode="&#xe4;" horiz-adv-x="625" 
d="M616 520l-73 -520h-206l-2 78q-53 -93 -149 -93q-45 0 -81 24t-57 71t-21 114q0 82 27.5 161t79.5 129.5t120 50.5q53 0 85 -28t45 -71l12 84h220zM348 201q19 46 19 96q0 33 -11.5 50t-30.5 17q-34 0 -53 -46t-19 -95q0 -33 11 -50.5t31 -17.5q34 0 53 46zM183 626.5
q-27 27.5 -27 65.5q0 39 27 66t65 27t65.5 -27t27.5 -66q0 -38 -27.5 -65.5t-65.5 -27.5t-65 27.5zM411.5 626.5q-27.5 27.5 -27.5 65.5q0 39 27.5 66t65.5 27t64.5 -27t26.5 -66q0 -38 -27 -65.5t-64 -27.5q-38 0 -65.5 27.5z" />
    <glyph glyph-name="aring" unicode="&#xe5;" horiz-adv-x="625" 
d="M616 520l-73 -520h-206l-2 78q-53 -93 -149 -93q-45 0 -81 24t-57 71t-21 114q0 82 27.5 161t79.5 129.5t120 50.5q53 0 85 -28t45 -71l12 84h220zM348 201q19 46 19 96q0 33 -11.5 50t-30.5 17q-34 0 -53 -46t-19 -95q0 -33 11 -50.5t31 -17.5q34 0 53 46zM294 595.5
q-29 17.5 -46 46.5t-17 63t17 63t46 46t63 17q35 0 64 -17t46 -46t17 -63t-17 -63t-46 -46.5t-64 -17.5q-34 0 -63 17.5zM395.5 665q15.5 16 15.5 40t-15.5 40t-38.5 16t-38 -16t-15 -40t15 -40t38 -16t38.5 16z" />
    <glyph glyph-name="ae" unicode="&#xe6;" horiz-adv-x="855" 
d="M508 211q-1 -8 -1 -23q0 -63 45 -63q16 0 29 12t19 29l193 -12q-74 -169 -266 -169q-51 0 -91 20.5t-65 57.5q-63 -78 -189 -78q-73 0 -118.5 38.5t-45.5 103.5q0 85 61.5 130.5t166.5 45.5h91l3 18q2 16 2 28q0 23 -9 34t-29 11q-17 0 -32 -11.5t-20 -31.5l-183 14
q27 69 91.5 119.5t163.5 50.5q80 0 134 -43q65 43 147 43q105 0 162.5 -66t57.5 -180q0 -15 -3.5 -38t-8.5 -40h-305zM548.5 368q-18.5 -22 -27.5 -65h115q1 8 1 23q0 64 -44 64q-26 0 -44.5 -22zM294.5 126q17.5 22 26.5 66l2 8l1 11h-48q-35 0 -52.5 -18t-17.5 -49
q0 -21 12 -30.5t29 -9.5q30 0 47.5 22z" />
    <glyph glyph-name="ccedilla" unicode="&#xe7;" horiz-adv-x="590" 
d="M87.5 49q-57.5 64 -57.5 165q0 94 36.5 166.5t107.5 113.5t169 41q102 0 162 -59.5t61 -158.5l-208 -16q-1 33 -10 48.5t-30 15.5q-36 0 -54.5 -45.5t-18.5 -98.5q0 -66 46 -66q20 0 34 16.5t21 48.5l206 -15q-20 -102 -94 -161t-192 -59q-121 0 -178.5 64zM336 -58
q23 -21 23 -58q0 -45 -33 -74.5t-92 -29.5q-53 0 -90 23l31 61q20 -11 44 -11q17 0 27 10t10 25q0 11 -6.5 17t-16.5 6q-15 0 -28 -13l-26 21l45 110h72l-21 -66h4q34 0 57 -21z" />
    <glyph glyph-name="egrave" unicode="&#xe8;" horiz-adv-x="609" 
d="M242 207q-1 -8 -1 -22q0 -60 44 -60q15 0 28.5 12t18.5 29l218 -15q-80 -166 -291 -166q-71 0 -123 29t-79.5 78.5t-27.5 110.5q0 102 37 176.5t106.5 115t165.5 40.5q116 0 179 -63t63 -177q0 -18 -4 -45t-10 -43h-324zM256 303h112q1 8 1 23q0 64 -43 64q-52 0 -70 -87
zM321 761l84 -174h-127l-146 174h189z" />
    <glyph glyph-name="eacute" unicode="&#xe9;" horiz-adv-x="609" 
d="M242 207q-1 -8 -1 -22q0 -60 44 -60q15 0 28.5 12t18.5 29l218 -15q-80 -166 -291 -166q-71 0 -123 29t-79.5 78.5t-27.5 110.5q0 102 37 176.5t106.5 115t165.5 40.5q116 0 179 -63t63 -177q0 -18 -4 -45t-10 -43h-324zM256 303h112q1 8 1 23q0 64 -43 64q-52 0 -70 -87
zM398 587h-127l84 174h189z" />
    <glyph glyph-name="ecircumflex" unicode="&#xea;" horiz-adv-x="609" 
d="M242 207q-1 -8 -1 -22q0 -60 44 -60q15 0 28.5 12t18.5 29l218 -15q-80 -166 -291 -166q-71 0 -123 29t-79.5 78.5t-27.5 110.5q0 102 37 176.5t106.5 115t165.5 40.5q116 0 179 -63t63 -177q0 -18 -4 -45t-10 -43h-324zM256 303h112q1 8 1 23q0 64 -43 64q-52 0 -70 -87
zM402 592l-39 87l-55 -87h-152l155 169h119l109 -169h-137z" />
    <glyph glyph-name="edieresis" unicode="&#xeb;" horiz-adv-x="609" 
d="M242 207q-1 -8 -1 -22q0 -60 44 -60q15 0 28.5 12t18.5 29l218 -15q-80 -166 -291 -166q-71 0 -123 29t-79.5 78.5t-27.5 110.5q0 102 37 176.5t106.5 115t165.5 40.5q116 0 179 -63t63 -177q0 -18 -4 -45t-10 -43h-324zM256 303h112q1 8 1 23q0 64 -43 64q-52 0 -70 -87
zM182 626.5q-27 27.5 -27 65.5q0 39 27 66t65 27t65.5 -27t27.5 -66q0 -38 -27.5 -65.5t-65.5 -27.5t-65 27.5zM410.5 626.5q-27.5 27.5 -27.5 65.5q0 39 27.5 66t65.5 27t64.5 -27t26.5 -66q0 -38 -27 -65.5t-64 -27.5q-38 0 -65.5 27.5z" />
    <glyph glyph-name="igrave" unicode="&#xec;" horiz-adv-x="327" 
d="M90 520h220l-74 -520h-220zM178 761l84 -174h-127l-146 174h189z" />
    <glyph glyph-name="iacute" unicode="&#xed;" horiz-adv-x="327" 
d="M90 520h220l-74 -520h-220zM255 587h-127l84 174h189z" />
    <glyph glyph-name="icircumflex" unicode="&#xee;" horiz-adv-x="327" 
d="M90 520h220l-74 -520h-220zM245 592l-22 113l-47 -113h-142l134 169h119l88 -169h-130z" />
    <glyph glyph-name="idieresis" unicode="&#xef;" horiz-adv-x="327" 
d="M90 520h220l-74 -520h-220zM39 626.5q-27 27.5 -27 65.5q0 39 27 66t65 27t65.5 -27t27.5 -66q0 -38 -27.5 -65.5t-65.5 -27.5t-65 27.5zM267.5 626.5q-27.5 27.5 -27.5 65.5q0 39 27.5 66t65.5 27t64.5 -27t26.5 -66q0 -38 -27 -65.5t-64 -27.5q-38 0 -65.5 27.5z" />
    <glyph glyph-name="eth" unicode="&#xf0;" horiz-adv-x="631" 
d="M606.5 540.5q14.5 -52.5 14.5 -106.5q0 -124 -43 -226.5t-124 -162.5t-190 -60q-69 0 -123.5 26.5t-84.5 74t-30 108.5q0 86 37 151.5t104 101t155 35.5q55 0 94 -12v6q0 42 -14 79l-96 -49l-30 83l73 37q-36 27 -87 37l44 112q115 -7 195 -71l82 42l31 -82l-52 -27
q30 -44 44.5 -96.5zM343.5 200.5q18.5 45.5 18.5 96.5q0 62 -43 62q-32 0 -51.5 -46t-19.5 -95q0 -63 43 -63q34 0 52.5 45.5z" />
    <glyph glyph-name="ntilde" unicode="&#xf1;" horiz-adv-x="602" 
d="M543 492q32 -43 32 -115q0 -31 -4 -55l-46 -322h-220l41 290q4 32 4 45q0 19 -6.5 29t-22.5 10q-21 0 -32.5 -19.5t-18.5 -61.5l-42 -293h-220l74 520h196l11 -65q30 39 70 59.5t87 20.5q65 0 97 -43zM373.5 606.5q-19.5 8.5 -42.5 23.5q-35 23 -57 23q-35 0 -68 -39
l-55 64q29 52 69 82.5t90 30.5q25 0 45 -8.5t43 -23.5q17 -11 30 -17t27 -6q31 0 67 39l55 -63q-27 -51 -67 -82.5t-92 -31.5q-25 0 -44.5 8.5z" />
    <glyph glyph-name="ograve" unicode="&#xf2;" horiz-adv-x="611" 
d="M87.5 49q-57.5 64 -57.5 165q0 94 37 166.5t108 113.5t169 41q121 0 179 -64.5t58 -165.5q0 -94 -37 -166.5t-108 -113t-170 -40.5q-121 0 -178.5 64zM343.5 201q18.5 46 18.5 98q0 66 -42 66q-35 0 -53 -46t-18 -98q0 -66 42 -66q34 0 52.5 46zM327 761l84 -174h-127
l-146 174h189z" />
    <glyph glyph-name="oacute" unicode="&#xf3;" horiz-adv-x="611" 
d="M87.5 49q-57.5 64 -57.5 165q0 94 37 166.5t108 113.5t169 41q121 0 179 -64.5t58 -165.5q0 -94 -37 -166.5t-108 -113t-170 -40.5q-121 0 -178.5 64zM343.5 201q18.5 46 18.5 98q0 66 -42 66q-35 0 -53 -46t-18 -98q0 -66 42 -66q34 0 52.5 46zM404 587h-127l84 174h189
z" />
    <glyph glyph-name="ocircumflex" unicode="&#xf4;" horiz-adv-x="611" 
d="M87.5 49q-57.5 64 -57.5 165q0 94 37 166.5t108 113.5t169 41q121 0 179 -64.5t58 -165.5q0 -94 -37 -166.5t-108 -113t-170 -40.5q-121 0 -178.5 64zM343.5 201q18.5 46 18.5 98q0 66 -42 66q-35 0 -53 -46t-18 -98q0 -66 42 -66q34 0 52.5 46zM408 592l-39 87l-55 -87
h-152l155 169h119l109 -169h-137z" />
    <glyph glyph-name="otilde" unicode="&#xf5;" horiz-adv-x="611" 
d="M87.5 49q-57.5 64 -57.5 165q0 94 37 166.5t108 113.5t169 41q121 0 179 -64.5t58 -165.5q0 -94 -37 -166.5t-108 -113t-170 -40.5q-121 0 -178.5 64zM343.5 201q18.5 46 18.5 98q0 66 -42 66q-35 0 -53 -46t-18 -98q0 -66 42 -66q34 0 52.5 46zM377.5 606.5
q-19.5 8.5 -42.5 23.5q-35 23 -57 23q-35 0 -68 -39l-55 64q29 52 69 82.5t90 30.5q25 0 45 -8.5t43 -23.5q17 -11 30 -17t27 -6q31 0 67 39l55 -63q-27 -51 -67 -82.5t-92 -31.5q-25 0 -44.5 8.5z" />
    <glyph glyph-name="odieresis" unicode="&#xf6;" horiz-adv-x="611" 
d="M87.5 49q-57.5 64 -57.5 165q0 94 37 166.5t108 113.5t169 41q121 0 179 -64.5t58 -165.5q0 -94 -37 -166.5t-108 -113t-170 -40.5q-121 0 -178.5 64zM343.5 201q18.5 46 18.5 98q0 66 -42 66q-35 0 -53 -46t-18 -98q0 -66 42 -66q34 0 52.5 46zM188 626.5
q-27 27.5 -27 65.5q0 39 27 66t65 27t65.5 -27t27.5 -66q0 -38 -27.5 -65.5t-65.5 -27.5t-65 27.5zM416.5 626.5q-27.5 27.5 -27.5 65.5q0 39 27.5 66t65.5 27t64.5 -27t26.5 -66q0 -38 -27 -65.5t-64 -27.5q-38 0 -65.5 27.5z" />
    <glyph glyph-name="divide" unicode="&#xf7;" horiz-adv-x="563" 
d="M240.5 396q-25.5 26 -25.5 62t25.5 61.5t61.5 25.5t61.5 -25.5t25.5 -61.5t-25.5 -62t-61.5 -26t-61.5 26zM91 338h403l-21 -140h-402zM203 16.5q-26 25.5 -26 61.5t26 61.5t62 25.5t61.5 -25.5t25.5 -61.5t-25.5 -61.5t-61.5 -25.5t-62 25.5z" />
    <glyph glyph-name="oslash" unicode="&#xf8;" horiz-adv-x="611" 
d="M564 405.5q17 -45.5 17 -100.5q0 -94 -37 -166.5t-108 -113t-170 -40.5q-62 0 -106 18l-17 -23h-87l43 58q-35 31 -52 76.5t-17 99.5q0 94 37 166.5t108 113.5t169 41q61 0 106 -17l16 21h87l-42 -57q36 -31 53 -76.5zM257 332q-22 -49 -23 -109l112 152q-11 6 -23 6
q-44 0 -66 -49zM354 189q22 50 23 110l-113 -154q11 -6 24 -6q44 0 66 50z" />
    <glyph glyph-name="ugrave" unicode="&#xf9;" 
d="M589 520l-73 -520h-197l-9 65q-30 -39 -69 -59.5t-85 -20.5q-65 0 -97 43t-32 114q0 29 4 55l46 323h220l-41 -290q-4 -32 -4 -46q0 -39 29 -39q20 0 31 25t19 80l38 270h220zM317 761l84 -174h-127l-146 174h189z" />
    <glyph glyph-name="uacute" unicode="&#xfa;" 
d="M589 520l-73 -520h-197l-9 65q-30 -39 -69 -59.5t-85 -20.5q-65 0 -97 43t-32 114q0 29 4 55l46 323h220l-41 -290q-4 -32 -4 -46q0 -39 29 -39q20 0 31 25t19 80l38 270h220zM394 587h-127l84 174h189z" />
    <glyph glyph-name="ucircumflex" unicode="&#xfb;" 
d="M589 520l-73 -520h-197l-9 65q-30 -39 -69 -59.5t-85 -20.5q-65 0 -97 43t-32 114q0 29 4 55l46 323h220l-41 -290q-4 -32 -4 -46q0 -39 29 -39q20 0 31 25t19 80l38 270h220zM398 592l-39 87l-55 -87h-152l155 169h119l109 -169h-137z" />
    <glyph glyph-name="udieresis" unicode="&#xfc;" 
d="M589 520l-73 -520h-197l-9 65q-30 -39 -69 -59.5t-85 -20.5q-65 0 -97 43t-32 114q0 29 4 55l46 323h220l-41 -290q-4 -32 -4 -46q0 -39 29 -39q20 0 31 25t19 80l38 270h220zM178 626.5q-27 27.5 -27 65.5q0 39 27 66t65 27t65.5 -27t27.5 -66q0 -38 -27.5 -65.5
t-65.5 -27.5t-65 27.5zM406.5 626.5q-27.5 27.5 -27.5 65.5q0 39 27.5 66t65.5 27t64.5 -27t26.5 -66q0 -38 -27 -65.5t-64 -27.5q-38 0 -65.5 27.5z" />
    <glyph glyph-name="yacute" unicode="&#xfd;" 
d="M589 520l-68 -488q-19 -135 -95.5 -193.5t-200.5 -58.5q-104 0 -160.5 43t-73.5 122l221 18q2 -25 8.5 -35.5t24.5 -10.5q23 0 34.5 24t19.5 80l8 55q-61 -72 -148 -72q-66 0 -97.5 43t-31.5 114q0 30 4 55l43 304h220l-39 -272q-4 -24 -4 -45q0 -19 6.5 -28.5t23.5 -9.5
q18 0 29 21t18 64l38 270h220zM395 587h-127l84 174h189z" />
    <glyph glyph-name="thorn" unicode="&#xfe;" horiz-adv-x="624" 
d="M555 481q42 -54 42 -151q0 -86 -28.5 -165.5t-81.5 -129.5t-123 -50q-92 0 -124 94l-40 -284h-220l135 965h220l-46 -329q27 49 67.5 76.5t89.5 27.5q67 0 109 -54zM351.5 201.5q18.5 46.5 18.5 95.5q0 33 -11 50t-31 17q-34 0 -52.5 -45.5t-18.5 -96.5q0 -32 11.5 -49.5
t30.5 -17.5q34 0 52.5 46.5z" />
    <glyph glyph-name="ydieresis" unicode="&#xff;" 
d="M589 520l-68 -488q-19 -135 -95.5 -193.5t-200.5 -58.5q-104 0 -160.5 43t-73.5 122l221 18q2 -25 8.5 -35.5t24.5 -10.5q23 0 34.5 24t19.5 80l8 55q-61 -72 -148 -72q-66 0 -97.5 43t-31.5 114q0 30 4 55l43 304h220l-39 -272q-4 -24 -4 -45q0 -19 6.5 -28.5t23.5 -9.5
q18 0 29 21t18 64l38 270h220zM179 626.5q-27 27.5 -27 65.5q0 39 27 66t65 27t65.5 -27t27.5 -66q0 -38 -27.5 -65.5t-65.5 -27.5t-65 27.5zM407.5 626.5q-27.5 27.5 -27.5 65.5q0 39 27.5 66t65.5 27t64.5 -27t26.5 -66q0 -38 -27 -65.5t-64 -27.5q-38 0 -65.5 27.5z" />
    <glyph glyph-name="Amacron" unicode="&#x100;" horiz-adv-x="666" 
d="M401 96h-166l-31 -96h-246l315 760h261l100 -760h-229zM394 254l-13 300l-96 -300h109zM302 996h268l-14 -104h-268z" />
    <glyph glyph-name="amacron" unicode="&#x101;" horiz-adv-x="625" 
d="M616 520l-73 -520h-206l-2 78q-53 -93 -149 -93q-45 0 -81 24t-57 71t-21 114q0 82 27.5 161t79.5 129.5t120 50.5q53 0 85 -28t45 -71l12 84h220zM348 201q19 46 19 96q0 33 -11.5 50t-30.5 17q-34 0 -53 -46t-19 -95q0 -33 11 -50.5t31 -17.5q34 0 53 46zM237 756h268
l-14 -104h-268z" />
    <glyph glyph-name="Abreve" unicode="&#x102;" horiz-adv-x="666" 
d="M401 96h-166l-31 -96h-246l315 760h261l100 -760h-229zM394 254l-13 300l-96 -300h109zM319.5 875q-37.5 44 -37.5 126h109q0 -34 9 -49.5t30 -15.5q23 0 35 15.5t17 49.5h109q-11 -89 -56 -129.5t-114 -40.5q-64 0 -101.5 44z" />
    <glyph glyph-name="abreve" unicode="&#x103;" horiz-adv-x="625" 
d="M616 520l-73 -520h-206l-2 78q-53 -93 -149 -93q-45 0 -81 24t-57 71t-21 114q0 82 27.5 161t79.5 129.5t120 50.5q53 0 85 -28t45 -71l12 84h220zM348 201q19 46 19 96q0 33 -11.5 50t-30.5 17q-34 0 -53 -46t-19 -95q0 -33 11 -50.5t31 -17.5q34 0 53 46zM254.5 635
q-37.5 44 -37.5 126h109q0 -34 9 -49.5t30 -15.5q23 0 35 15.5t17 49.5h109q-11 -89 -56 -129.5t-114 -40.5q-64 0 -101.5 44z" />
    <glyph glyph-name="Aogonek" unicode="&#x104;" horiz-adv-x="666" 
d="M401 96h-166l-31 -96h-246l315 760h261l100 -760h-229zM394 254l-13 300l-96 -300h109zM451 -19q-20 -20 -20 -54q0 -23 15.5 -36t41.5 -13q14 0 39 6l-8 -90q-38 -14 -83 -14q-48 0 -80 30.5t-32 75.5q0 65 46 111t124 54l4 -43q-27 -7 -47 -27z" />
    <glyph glyph-name="aogonek" unicode="&#x105;" horiz-adv-x="625" 
d="M616 520l-73 -520h-206l-2 78q-53 -93 -149 -93q-45 0 -81 24t-57 71t-21 114q0 82 27.5 161t79.5 129.5t120 50.5q53 0 85 -28t45 -71l12 84h220zM348 201q19 46 19 96q0 33 -11.5 50t-30.5 17q-34 0 -53 -46t-19 -95q0 -33 11 -50.5t31 -17.5q34 0 53 46zM405 -19
q-20 -20 -20 -54q0 -23 15.5 -36t41.5 -13q14 0 39 6l-8 -90q-38 -14 -83 -14q-48 0 -80 30.5t-32 75.5q0 65 46 111t124 54l4 -43q-27 -7 -47 -27z" />
    <glyph glyph-name="Cacute" unicode="&#x106;" horiz-adv-x="731" 
d="M653 692.5q76 -82.5 82 -227.5l-241 -17q0 57 -17.5 87t-58.5 30q-47 0 -79 -37t-47 -93.5t-15 -112.5q0 -127 84 -127q42 0 71 31.5t47 86.5l231 -18q-41 -144 -137.5 -227t-235.5 -83q-92 0 -159 40t-102 114t-35 173q0 124 49.5 230t141.5 169.5t212 63.5
q133 0 209 -82.5zM511 827h-127l84 174h189z" />
    <glyph glyph-name="cacute" unicode="&#x107;" horiz-adv-x="590" 
d="M87.5 49q-57.5 64 -57.5 165q0 94 36.5 166.5t107.5 113.5t169 41q102 0 162 -59.5t61 -158.5l-208 -16q-1 33 -10 48.5t-30 15.5q-36 0 -54.5 -45.5t-18.5 -98.5q0 -66 46 -66q20 0 34 16.5t21 48.5l206 -15q-20 -102 -94 -161t-192 -59q-121 0 -178.5 64zM399 587h-127
l84 174h189z" />
    <glyph glyph-name="Ccircumflex" unicode="&#x108;" horiz-adv-x="731" 
d="M653 692.5q76 -82.5 82 -227.5l-241 -17q0 57 -17.5 87t-58.5 30q-47 0 -79 -37t-47 -93.5t-15 -112.5q0 -127 84 -127q42 0 71 31.5t47 86.5l231 -18q-41 -144 -137.5 -227t-235.5 -83q-92 0 -159 40t-102 114t-35 173q0 124 49.5 230t141.5 169.5t212 63.5
q133 0 209 -82.5zM515 832l-39 87l-55 -87h-152l155 169h119l109 -169h-137z" />
    <glyph glyph-name="ccircumflex" unicode="&#x109;" horiz-adv-x="590" 
d="M87.5 49q-57.5 64 -57.5 165q0 94 36.5 166.5t107.5 113.5t169 41q102 0 162 -59.5t61 -158.5l-208 -16q-1 33 -10 48.5t-30 15.5q-36 0 -54.5 -45.5t-18.5 -98.5q0 -66 46 -66q20 0 34 16.5t21 48.5l206 -15q-20 -102 -94 -161t-192 -59q-121 0 -178.5 64zM403 592
l-39 87l-55 -87h-152l155 169h119l109 -169h-137z" />
    <glyph glyph-name="Cdotaccent" unicode="&#x10a;" horiz-adv-x="731" 
d="M653 692.5q76 -82.5 82 -227.5l-241 -17q0 57 -17.5 87t-58.5 30q-47 0 -79 -37t-47 -93.5t-15 -112.5q0 -127 84 -127q42 0 71 31.5t47 86.5l231 -18q-41 -144 -137.5 -227t-235.5 -83q-92 0 -159 40t-102 114t-35 173q0 124 49.5 230t141.5 169.5t212 63.5
q133 0 209 -82.5zM389 863q-31 31 -31 75t31 75t75 31t74.5 -31t30.5 -75t-31 -75t-74 -31q-44 0 -75 31z" />
    <glyph glyph-name="cdotaccent" unicode="&#x10b;" horiz-adv-x="590" 
d="M87.5 49q-57.5 64 -57.5 165q0 94 36.5 166.5t107.5 113.5t169 41q102 0 162 -59.5t61 -158.5l-208 -16q-1 33 -10 48.5t-30 15.5q-36 0 -54.5 -45.5t-18.5 -98.5q0 -66 46 -66q20 0 34 16.5t21 48.5l206 -15q-20 -102 -94 -161t-192 -59q-121 0 -178.5 64zM277 623
q-31 31 -31 75t31 75t75 31t74.5 -31t30.5 -75t-31 -75t-74 -31q-44 0 -75 31z" />
    <glyph glyph-name="Ccaron" unicode="&#x10c;" horiz-adv-x="731" 
d="M653 692.5q76 -82.5 82 -227.5l-241 -17q0 57 -17.5 87t-58.5 30q-47 0 -79 -37t-47 -93.5t-15 -112.5q0 -127 84 -127q42 0 71 31.5t47 86.5l231 -18q-41 -144 -137.5 -227t-235.5 -83q-92 0 -159 40t-102 114t-35 173q0 124 49.5 230t141.5 169.5t212 63.5
q133 0 209 -82.5zM664 1001l-155 -169h-119l-109 169h137l39 -87l55 87h152z" />
    <glyph glyph-name="ccaron" unicode="&#x10d;" horiz-adv-x="590" 
d="M87.5 49q-57.5 64 -57.5 165q0 94 36.5 166.5t107.5 113.5t169 41q102 0 162 -59.5t61 -158.5l-208 -16q-1 33 -10 48.5t-30 15.5q-36 0 -54.5 -45.5t-18.5 -98.5q0 -66 46 -66q20 0 34 16.5t21 48.5l206 -15q-20 -102 -94 -161t-192 -59q-121 0 -178.5 64zM552 761
l-155 -169h-119l-109 169h137l39 -87l55 87h152z" />
    <glyph glyph-name="Dcaron" unicode="&#x10e;" horiz-adv-x="699" 
d="M537.5 721q72.5 -39 113.5 -110t41 -165q0 -119 -52 -221t-149 -163.5t-224 -61.5h-254l107 760h254q91 0 163.5 -39zM379 223q38 39 56.5 97.5t18.5 116.5q0 74 -24 106.5t-76 32.5h-31l-55 -392h19q54 0 92 39zM573 1001l-155 -169h-119l-109 169h137l39 -87l55 87h152
z" />
    <glyph glyph-name="dcaron" unicode="&#x10f;" horiz-adv-x="842" 
d="M430 760h220l-107 -760h-206l-2 78q-55 -93 -150 -93q-44 0 -80 24t-57 71t-21 114q0 82 27.5 161t79 129.5t119.5 50.5q54 0 86 -28t45 -72zM907 760l-103 -174h-107l30 174h180zM348 202q19 46 19 95q0 33 -11.5 50t-30.5 17q-34 0 -53 -46t-19 -96q0 -32 11 -49
t31 -17q34 0 53 46z" />
    <glyph glyph-name="Dcroat" unicode="&#x110;" horiz-adv-x="730" 
d="M568.5 721q72.5 -39 113.5 -110t41 -165q0 -119 -52 -221t-149 -163.5t-224 -61.5h-254l45 323h-75l22 149h74l41 288h254q91 0 163.5 -39zM410 223q38 39 56.5 97.5t18.5 116.5q0 74 -24 106.5t-76 32.5h-31l-15 -104h83l-22 -149h-82l-19 -139h19q54 0 92 39z" />
    <glyph glyph-name="dcroat" unicode="&#x111;" horiz-adv-x="638" 
d="M683 584h-58l-82 -584h-206l-2 78q-55 -93 -150 -93q-44 0 -80 24t-57 71t-21 114q0 82 27.5 161t79 129.5t119.5 50.5q54 0 86 -28t45 -72l21 149h-140l16 109h140l9 67h220l-9 -67h58zM348 202q19 46 19 95q0 33 -11.5 50t-30.5 17q-34 0 -53 -46t-19 -96q0 -32 11 -49
t31 -17q34 0 53 46z" />
    <glyph glyph-name="Emacron" unicode="&#x112;" horiz-adv-x="510" 
d="M323 576l-13 -95h183l-25 -175h-183l-17 -122h196l-27 -184h-424l107 760h425l-26 -184h-196zM234 996h268l-14 -104h-268z" />
    <glyph glyph-name="emacron" unicode="&#x113;" horiz-adv-x="609" 
d="M242 207q-1 -8 -1 -22q0 -60 44 -60q15 0 28.5 12t18.5 29l218 -15q-80 -166 -291 -166q-71 0 -123 29t-79.5 78.5t-27.5 110.5q0 102 37 176.5t106.5 115t165.5 40.5q116 0 179 -63t63 -177q0 -18 -4 -45t-10 -43h-324zM256 303h112q1 8 1 23q0 64 -43 64q-52 0 -70 -87
zM236 756h268l-14 -104h-268z" />
    <glyph glyph-name="Ebreve" unicode="&#x114;" horiz-adv-x="510" 
d="M323 576l-13 -95h183l-25 -175h-183l-17 -122h196l-27 -184h-424l107 760h425l-26 -184h-196zM251.5 875q-37.5 44 -37.5 126h109q0 -34 9 -49.5t30 -15.5q23 0 35 15.5t17 49.5h109q-11 -89 -56 -129.5t-114 -40.5q-64 0 -101.5 44z" />
    <glyph glyph-name="ebreve" unicode="&#x115;" horiz-adv-x="609" 
d="M242 207q-1 -8 -1 -22q0 -60 44 -60q15 0 28.5 12t18.5 29l218 -15q-80 -166 -291 -166q-71 0 -123 29t-79.5 78.5t-27.5 110.5q0 102 37 176.5t106.5 115t165.5 40.5q116 0 179 -63t63 -177q0 -18 -4 -45t-10 -43h-324zM256 303h112q1 8 1 23q0 64 -43 64q-52 0 -70 -87
zM253.5 635q-37.5 44 -37.5 126h109q0 -34 9 -49.5t30 -15.5q23 0 35 15.5t17 49.5h109q-11 -89 -56 -129.5t-114 -40.5q-64 0 -101.5 44z" />
    <glyph glyph-name="Edotaccent" unicode="&#x116;" horiz-adv-x="510" 
d="M323 576l-13 -95h183l-25 -175h-183l-17 -122h196l-27 -184h-424l107 760h425l-26 -184h-196zM274 863q-31 31 -31 75t31 75t75 31t74.5 -31t30.5 -75t-31 -75t-74 -31q-44 0 -75 31z" />
    <glyph glyph-name="edotaccent" unicode="&#x117;" horiz-adv-x="609" 
d="M242 207q-1 -8 -1 -22q0 -60 44 -60q15 0 28.5 12t18.5 29l218 -15q-80 -166 -291 -166q-71 0 -123 29t-79.5 78.5t-27.5 110.5q0 102 37 176.5t106.5 115t165.5 40.5q116 0 179 -63t63 -177q0 -18 -4 -45t-10 -43h-324zM256 303h112q1 8 1 23q0 64 -43 64q-52 0 -70 -87
zM276 623q-31 31 -31 75t31 75t75 31t74.5 -31t30.5 -75t-31 -75t-74 -31q-44 0 -75 31z" />
    <glyph glyph-name="Eogonek" unicode="&#x118;" horiz-adv-x="510" 
d="M323 576l-13 -95h183l-25 -175h-183l-17 -122h196l-27 -184h-424l107 760h425l-26 -184h-196zM353 -19q-20 -20 -20 -54q0 -23 15.5 -36t41.5 -13q14 0 39 6l-8 -90q-38 -14 -83 -14q-48 0 -80 30.5t-32 75.5q0 65 46 111t124 54l4 -43q-27 -7 -47 -27z" />
    <glyph glyph-name="eogonek" unicode="&#x119;" horiz-adv-x="609" 
d="M242 207q-1 -8 -1 -22q0 -60 44 -60q15 0 28.5 12t18.5 29l218 -15q-80 -166 -291 -166q-71 0 -123 29t-79.5 78.5t-27.5 110.5q0 102 37 176.5t106.5 115t165.5 40.5q116 0 179 -63t63 -177q0 -18 -4 -45t-10 -43h-324zM256 303h112q1 8 1 23q0 64 -43 64q-52 0 -70 -87
zM346 -19q-20 -20 -20 -54q0 -23 15.5 -36t41.5 -13q14 0 39 6l-8 -90q-38 -14 -83 -14q-48 0 -80 30.5t-32 75.5q0 65 46 111t124 54l4 -43q-27 -7 -47 -27z" />
    <glyph glyph-name="Ecaron" unicode="&#x11a;" horiz-adv-x="510" 
d="M323 576l-13 -95h183l-25 -175h-183l-17 -122h196l-27 -184h-424l107 760h425l-26 -184h-196zM549 1001l-155 -169h-119l-109 169h137l39 -87l55 87h152z" />
    <glyph glyph-name="ecaron" unicode="&#x11b;" horiz-adv-x="609" 
d="M242 207q-1 -8 -1 -22q0 -60 44 -60q15 0 28.5 12t18.5 29l218 -15q-80 -166 -291 -166q-71 0 -123 29t-79.5 78.5t-27.5 110.5q0 102 37 176.5t106.5 115t165.5 40.5q116 0 179 -63t63 -177q0 -18 -4 -45t-10 -43h-324zM256 303h112q1 8 1 23q0 64 -43 64q-52 0 -70 -87
zM551 761l-155 -169h-119l-109 169h137l39 -87l55 87h152z" />
    <glyph glyph-name="Gcircumflex" unicode="&#x11c;" horiz-adv-x="726" 
d="M398 433h313l-45 -332q-61 -50 -146.5 -83t-175.5 -33q-96 0 -164 40t-103.5 114t-35.5 173q0 123 49.5 229.5t140 170t208.5 63.5q96 0 158.5 -38.5t92.5 -97t37 -124.5l-246 -17q-4 27 -21 47t-51 20q-43 0 -73 -37.5t-44.5 -94t-14.5 -111.5q0 -75 24.5 -108.5
t73.5 -33.5q53 0 99 32l9 66h-107zM503 832l-39 87l-55 -87h-152l155 169h119l109 -169h-137z" />
    <glyph glyph-name="gcircumflex" unicode="&#x11d;" horiz-adv-x="625" 
d="M616 520l-68 -488q-18 -131 -92.5 -191.5t-205.5 -60.5q-107 0 -165 44.5t-72 122.5l222 16q2 -21 9.5 -33.5t24.5 -12.5q24 0 35.5 19t17.5 59l14 97q-54 -89 -149 -89q-45 0 -81 23.5t-57 68.5t-21 108q0 79 28 156t79.5 126.5t117.5 49.5q53 0 85.5 -27.5t45.5 -70.5
l26 83h206zM348.5 205q18.5 46 18.5 94q0 32 -11 48.5t-31 16.5q-34 0 -52.5 -42.5t-18.5 -94.5q0 -68 43 -68q33 0 51.5 46zM415 592l-39 87l-55 -87h-152l155 169h119l109 -169h-137z" />
    <glyph glyph-name="Gbreve" unicode="&#x11e;" horiz-adv-x="726" 
d="M398 433h313l-45 -332q-61 -50 -146.5 -83t-175.5 -33q-96 0 -164 40t-103.5 114t-35.5 173q0 123 49.5 229.5t140 170t208.5 63.5q96 0 158.5 -38.5t92.5 -97t37 -124.5l-246 -17q-4 27 -21 47t-51 20q-43 0 -73 -37.5t-44.5 -94t-14.5 -111.5q0 -75 24.5 -108.5
t73.5 -33.5q53 0 99 32l9 66h-107zM354.5 875q-37.5 44 -37.5 126h109q0 -34 9 -49.5t30 -15.5q23 0 35 15.5t17 49.5h109q-11 -89 -56 -129.5t-114 -40.5q-64 0 -101.5 44z" />
    <glyph glyph-name="gbreve" unicode="&#x11f;" horiz-adv-x="625" 
d="M616 520l-68 -488q-18 -131 -92.5 -191.5t-205.5 -60.5q-107 0 -165 44.5t-72 122.5l222 16q2 -21 9.5 -33.5t24.5 -12.5q24 0 35.5 19t17.5 59l14 97q-54 -89 -149 -89q-45 0 -81 23.5t-57 68.5t-21 108q0 79 28 156t79.5 126.5t117.5 49.5q53 0 85.5 -27.5t45.5 -70.5
l26 83h206zM348.5 205q18.5 46 18.5 94q0 32 -11 48.5t-31 16.5q-34 0 -52.5 -42.5t-18.5 -94.5q0 -68 43 -68q33 0 51.5 46zM266.5 635q-37.5 44 -37.5 126h109q0 -34 9 -49.5t30 -15.5q23 0 35 15.5t17 49.5h109q-11 -89 -56 -129.5t-114 -40.5q-64 0 -101.5 44z" />
    <glyph glyph-name="Gdotaccent" unicode="&#x120;" horiz-adv-x="726" 
d="M398 433h313l-45 -332q-61 -50 -146.5 -83t-175.5 -33q-96 0 -164 40t-103.5 114t-35.5 173q0 123 49.5 229.5t140 170t208.5 63.5q96 0 158.5 -38.5t92.5 -97t37 -124.5l-246 -17q-4 27 -21 47t-51 20q-43 0 -73 -37.5t-44.5 -94t-14.5 -111.5q0 -75 24.5 -108.5
t73.5 -33.5q53 0 99 32l9 66h-107zM377 863q-31 31 -31 75t31 75t75 31t74.5 -31t30.5 -75t-31 -75t-74 -31q-44 0 -75 31z" />
    <glyph glyph-name="gdotaccent" unicode="&#x121;" horiz-adv-x="625" 
d="M616 520l-68 -488q-18 -131 -92.5 -191.5t-205.5 -60.5q-107 0 -165 44.5t-72 122.5l222 16q2 -21 9.5 -33.5t24.5 -12.5q24 0 35.5 19t17.5 59l14 97q-54 -89 -149 -89q-45 0 -81 23.5t-57 68.5t-21 108q0 79 28 156t79.5 126.5t117.5 49.5q53 0 85.5 -27.5t45.5 -70.5
l26 83h206zM348.5 205q18.5 46 18.5 94q0 32 -11 48.5t-31 16.5q-34 0 -52.5 -42.5t-18.5 -94.5q0 -68 43 -68q33 0 51.5 46zM289 623q-31 31 -31 75t31 75t75 31t74.5 -31t30.5 -75t-31 -75t-74 -31q-44 0 -75 31z" />
    <glyph glyph-name="Gcommaaccent" unicode="&#x122;" horiz-adv-x="726" 
d="M398 433h313l-45 -332q-61 -50 -146.5 -83t-175.5 -33q-96 0 -164 40t-103.5 114t-35.5 173q0 123 49.5 229.5t140 170t208.5 63.5q96 0 158.5 -38.5t92.5 -97t37 -124.5l-246 -17q-4 27 -21 47t-51 20q-43 0 -73 -37.5t-44.5 -94t-14.5 -111.5q0 -75 24.5 -108.5
t73.5 -33.5q53 0 99 32l9 66h-107zM319 -220h-127l74 159h189z" />
    <glyph glyph-name="gcommaaccent" unicode="&#x123;" horiz-adv-x="625" 
d="M616 520l-68 -488q-18 -131 -92.5 -191.5t-205.5 -60.5q-107 0 -165 44.5t-72 122.5l222 16q2 -21 9.5 -33.5t24.5 -12.5q24 0 35.5 19t17.5 59l14 97q-54 -89 -149 -89q-45 0 -81 23.5t-57 68.5t-21 108q0 79 28 156t79.5 126.5t117.5 49.5q53 0 85.5 -27.5t45.5 -70.5
l26 83h206zM348.5 205q18.5 46 18.5 94q0 32 -11 48.5t-31 16.5q-34 0 -52.5 -42.5t-18.5 -94.5q0 -68 43 -68q33 0 51.5 46zM408 759h127l-74 -159h-189z" />
    <glyph glyph-name="Hcircumflex" unicode="&#x124;" horiz-adv-x="685" 
d="M705 760l-107 -760h-229l42 299h-127l-42 -299h-229l107 760h229l-39 -277h127l39 277h229zM477 832l-39 87l-55 -87h-152l155 169h119l109 -169h-137z" />
    <glyph glyph-name="hcircumflex" unicode="&#x125;" horiz-adv-x="601" 
d="M542 492q32 -43 32 -115q0 -31 -4 -55l-46 -322h-220l41 290q4 32 4 45q0 19 -6.5 29t-22.5 10q-21 0 -33 -22.5t-19 -69.5l-40 -282h-220l107 760h220l-42 -300q61 75 152 75q65 0 97 -43zM457 832l-39 87l-55 -87h-152l155 169h119l109 -169h-137z" />
    <glyph glyph-name="Hbar" unicode="&#x126;" horiz-adv-x="764" 
d="M797 541h-82l-76 -541h-229l42 299h-127l-42 -299h-229l76 541h-86l21 149h86l10 70h229l-10 -70h127l10 70h229l-10 -70h83zM486 541h-127l-8 -58h127z" />
    <glyph glyph-name="hbar" unicode="&#x127;" horiz-adv-x="630" 
d="M571 492q32 -43 32 -115q0 -31 -4 -55l-46 -322h-220l41 290q4 32 4 45q0 19 -6.5 29t-22.5 10q-21 0 -33 -22.5t-19 -69.5l-40 -282h-220l82 584h-73l16 109h73l9 67h220l-9 -67h125l-16 -109h-125l-17 -124q61 75 152 75q65 0 97 -43z" />
    <glyph glyph-name="Itilde" unicode="&#x128;" horiz-adv-x="329" 
d="M120 760h229l-107 -760h-229zM270.5 846.5q-19.5 8.5 -42.5 23.5q-35 23 -57 23q-35 0 -68 -39l-55 64q29 52 69 82.5t90 30.5q25 0 45 -8.5t43 -23.5q17 -11 30 -17t27 -6q31 0 67 39l55 -63q-27 -51 -67 -82.5t-92 -31.5q-25 0 -44.5 8.5z" />
    <glyph glyph-name="itilde" unicode="&#x129;" horiz-adv-x="327" 
d="M90 520h220l-74 -520h-220zM228.5 606.5q-19.5 8.5 -42.5 23.5q-35 23 -57 23q-35 0 -68 -39l-55 64q29 52 69 82.5t90 30.5q25 0 45 -8.5t43 -23.5q17 -11 30 -17t27 -6q31 0 67 39l55 -63q-27 -51 -67 -82.5t-92 -31.5q-25 0 -44.5 8.5z" />
    <glyph glyph-name="Imacron" unicode="&#x12a;" horiz-adv-x="329" 
d="M120 760h229l-107 -760h-229zM135 996h268l-14 -104h-268z" />
    <glyph glyph-name="imacron" unicode="&#x12b;" horiz-adv-x="327" 
d="M90 520h220l-74 -520h-220zM93 756h268l-14 -104h-268z" />
    <glyph glyph-name="Ibreve" unicode="&#x12c;" horiz-adv-x="329" 
d="M120 760h229l-107 -760h-229zM152.5 875q-37.5 44 -37.5 126h109q0 -34 9 -49.5t30 -15.5q23 0 35 15.5t17 49.5h109q-11 -89 -56 -129.5t-114 -40.5q-64 0 -101.5 44z" />
    <glyph glyph-name="ibreve" unicode="&#x12d;" horiz-adv-x="327" 
d="M90 520h220l-74 -520h-220zM110.5 635q-37.5 44 -37.5 126h109q0 -34 9 -49.5t30 -15.5q23 0 35 15.5t17 49.5h109q-11 -89 -56 -129.5t-114 -40.5q-64 0 -101.5 44z" />
    <glyph glyph-name="Iogonek" unicode="&#x12e;" horiz-adv-x="329" 
d="M120 760h229l-107 -760h-229zM60 -19q-20 -20 -20 -54q0 -23 15.5 -36t41.5 -13q14 0 39 6l-8 -90q-38 -14 -83 -14q-48 0 -80 30.5t-32 75.5q0 65 46 111t124 54l4 -43q-27 -7 -47 -27z" />
    <glyph glyph-name="iogonek" unicode="&#x12f;" horiz-adv-x="327" 
d="M90 520h220l-74 -520h-220zM133 623q-31 31 -31 75t31 75t75 31t74.5 -31t30.5 -75t-31 -75t-74 -31q-44 0 -75 31zM67 -19q-20 -20 -20 -54q0 -23 15.5 -36t41.5 -13q14 0 39 6l-8 -90q-38 -14 -83 -14q-48 0 -80 30.5t-32 75.5q0 65 46 111t124 54l4 -43
q-27 -7 -47 -27z" />
    <glyph glyph-name="Idotaccent" unicode="&#x130;" horiz-adv-x="329" 
d="M120 760h229l-107 -760h-229zM175 863q-31 31 -31 75t31 75t75 31t74.5 -31t30.5 -75t-31 -75t-74 -31q-44 0 -75 31z" />
    <glyph glyph-name="dotlessi" unicode="&#x131;" horiz-adv-x="327" 
d="M90 520h220l-74 -520h-220z" />
    <glyph glyph-name="IJ" unicode="&#x132;" horiz-adv-x="742" 
d="M120 760h229l-67 -485h-229zM286 1q-49 16 -79 36l90 171q35 -23 80 -23q34 0 61.5 31.5t35.5 89.5l64 454h229l-64 -455q-23 -159 -106.5 -239.5t-209.5 -80.5q-52 0 -101 16z" />
    <glyph glyph-name="ij" unicode="&#x133;" horiz-adv-x="653" 
d="M144 618q-34 34 -34 82t34 81.5t81 33.5q48 0 82 -33.5t34 -81.5t-34 -82t-82 -34q-47 0 -81 34zM90 520h220l-74 -520h-220zM470 618q-34 34 -34 82t34 81.5t82 33.5q47 0 81 -33.5t34 -81.5t-34 -82t-81 -34q-48 0 -82 34zM271 -215q-33 5 -59 13l34 156q23 -7 42 -7
q30 0 43 18t19 62l69 493h218l-74 -524q-16 -118 -70 -167t-160 -49q-29 0 -62 5z" />
    <glyph glyph-name="Jcircumflex" unicode="&#x134;" horiz-adv-x="645" 
d="M147.5 19.5q-55.5 34.5 -88 99t-32.5 151.5l230 15v-15q0 -38 13.5 -56.5t34.5 -18.5q29 0 46 24.5t25 77.5l65 463h229l-64 -454q-24 -171 -109 -246t-224 -75q-70 0 -125.5 34.5zM607 832l-22 113l-47 -113h-142l134 169h119l88 -169h-130z" />
    <glyph glyph-name="jcircumflex" unicode="&#x135;" horiz-adv-x="327" 
d="M-56 -215q-33 5 -59 13l34 156q23 -7 42 -7q30 0 43 18t19 62l69 493h218l-74 -524q-16 -118 -70 -167t-160 -49q-29 0 -62 5zM249 592l-22 113l-47 -113h-142l134 169h119l88 -169h-130z" />
    <glyph glyph-name="Kcommaaccent" unicode="&#x136;" horiz-adv-x="644" 
d="M461 450l166 -450h-221l-83 285l-52 -63l-31 -222h-227l107 760h227l-31 -219l154 219h248zM259 -220h-127l74 159h189z" />
    <glyph glyph-name="kcommaaccent" unicode="&#x137;" horiz-adv-x="575" 
d="M400 294l145 -294h-212l-62 166l-29 -29l-19 -137h-215l107 760h215l-52 -368l111 128h238zM210 -220h-127l74 159h189z" />
    <glyph glyph-name="kgreenlandic" unicode="&#x138;" horiz-adv-x="555" 
d="M454.5 345.5q-18.5 -8.5 -41.5 -31.5l-12 -12l132 -302h-212l-50 173l-26 -26l-21 -147h-216l74 520h216l-16 -112l14 16q49 56 93.5 76t120.5 20h52l-24 -166h-37q-28 0 -46.5 -8.5z" />
    <glyph glyph-name="Lacute" unicode="&#x139;" horiz-adv-x="473" 
d="M447 184l-26 -184h-408l107 760h229l-81 -576h179zM300 827h-127l84 174h189z" />
    <glyph glyph-name="lacute" unicode="&#x13a;" horiz-adv-x="360" 
d="M85.5 28.5q-49.5 43.5 -49.5 134.5q0 32 6 72l74 525h216l-74 -529q-2 -16 -2 -23q0 -55 57 -55h15l-11 -161q-29 -7 -79 -7q-103 0 -152.5 43.5zM289 827h-127l84 174h189z" />
    <glyph glyph-name="Lcommaaccent" unicode="&#x13b;" horiz-adv-x="473" 
d="M447 184l-26 -184h-408l107 760h229l-81 -576h179zM177 -220h-127l74 159h189z" />
    <glyph glyph-name="lcommaaccent" unicode="&#x13c;" horiz-adv-x="360" 
d="M85.5 28.5q-49.5 43.5 -49.5 134.5q0 32 6 72l74 525h216l-74 -529q-2 -16 -2 -23q0 -55 57 -55h15l-11 -161q-29 -7 -79 -7q-103 0 -152.5 43.5zM131 -220h-127l74 159h189z" />
    <glyph glyph-name="Lcaron" unicode="&#x13d;" horiz-adv-x="547" 
d="M268 184h179l-26 -184h-408l107 760h229zM612 760l-104 -190h-108l32 190h180z" />
    <glyph glyph-name="lcaron" unicode="&#x13e;" horiz-adv-x="526" 
d="M85.5 28.5q-49.5 43.5 -49.5 134.5q0 32 6 72l74 525h216l-74 -529q-2 -16 -2 -23q0 -55 57 -55h15l-11 -161q-29 -7 -79 -7q-103 0 -152.5 43.5zM490 586h-109l30 174h180z" />
    <glyph glyph-name="Ldot" unicode="&#x13f;" horiz-adv-x="574" 
d="M447 184l-26 -184h-408l107 760h229l-81 -576h179zM422 338q-29 29 -29 69q0 41 29 69.5t69 28.5q41 0 69.5 -28.5t28.5 -69.5q0 -40 -28.5 -69t-69.5 -29q-40 0 -69 29z" />
    <glyph glyph-name="ldot" unicode="&#x140;" horiz-adv-x="524" 
d="M85.5 28.5q-49.5 43.5 -49.5 134.5q0 32 6 72l74 525h216l-74 -529q-2 -16 -2 -23q0 -55 57 -55h15l-11 -161q-29 -7 -79 -7q-103 0 -152.5 43.5zM377 338q-29 29 -29 69q0 41 29 69.5t69 28.5q41 0 69.5 -28.5t28.5 -69.5q0 -40 -28.5 -69t-69.5 -29q-40 0 -69 29z" />
    <glyph glyph-name="Lslash" unicode="&#x141;" horiz-adv-x="547" 
d="M342 184h179l-26 -184h-408l36 257l-66 -33l-44 125l132 66l49 345h229l-31 -222l85 42l44 -125l-152 -75z" />
    <glyph glyph-name="lslash" unicode="&#x142;" horiz-adv-x="495" 
d="M392 153h15l-11 -161q-29 -7 -79 -7q-103 0 -152.5 43.5t-49.5 134.5q0 32 6 72l4 29l-71 -35l-38 110l128 63l51 358h216l-34 -245l101 49l39 -110l-160 -78l-20 -145q-2 -16 -2 -23q0 -55 57 -55z" />
    <glyph glyph-name="Nacute" unicode="&#x143;" horiz-adv-x="696" 
d="M715 760l-106 -760h-220l-96 424l-59 -424h-220l106 760h220l98 -412l57 412h220zM478 827h-127l84 174h189z" />
    <glyph glyph-name="nacute" unicode="&#x144;" horiz-adv-x="602" 
d="M543 492q32 -43 32 -115q0 -31 -4 -55l-46 -322h-220l41 290q4 32 4 45q0 19 -6.5 29t-22.5 10q-21 0 -32.5 -19.5t-18.5 -61.5l-42 -293h-220l74 520h196l11 -65q30 39 70 59.5t87 20.5q65 0 97 -43zM400 587h-127l84 174h189z" />
    <glyph glyph-name="Ncommaaccent" unicode="&#x145;" horiz-adv-x="696" 
d="M715 760l-106 -760h-220l-96 424l-59 -424h-220l106 760h220l98 -412l57 412h220zM286 -220h-127l74 159h189z" />
    <glyph glyph-name="ncommaaccent" unicode="&#x146;" horiz-adv-x="602" 
d="M543 492q32 -43 32 -115q0 -31 -4 -55l-46 -322h-220l41 290q4 32 4 45q0 19 -6.5 29t-22.5 10q-21 0 -32.5 -19.5t-18.5 -61.5l-42 -293h-220l74 520h196l11 -65q30 39 70 59.5t87 20.5q65 0 97 -43zM239 -220h-127l74 159h189z" />
    <glyph glyph-name="Ncaron" unicode="&#x147;" horiz-adv-x="696" 
d="M715 760l-106 -760h-220l-96 424l-59 -424h-220l106 760h220l98 -412l57 412h220zM631 1001l-155 -169h-119l-109 169h137l39 -87l55 87h152z" />
    <glyph glyph-name="ncaron" unicode="&#x148;" horiz-adv-x="602" 
d="M543 492q32 -43 32 -115q0 -31 -4 -55l-46 -322h-220l41 290q4 32 4 45q0 19 -6.5 29t-22.5 10q-21 0 -32.5 -19.5t-18.5 -61.5l-42 -293h-220l74 520h196l11 -65q30 39 70 59.5t87 20.5q65 0 97 -43zM553 761l-155 -169h-119l-109 169h137l39 -87l55 87h152z" />
    <glyph glyph-name="napostrophe" unicode="&#x149;" horiz-adv-x="701" 
d="M153 586h-107l84 174h179zM642 492q32 -43 32 -115q0 -31 -4 -55l-46 -322h-220l41 290q4 32 4 45q0 19 -6.5 29t-22.5 10q-21 0 -32.5 -19.5t-18.5 -61.5l-42 -293h-220l74 520h196l11 -65q30 39 70 59.5t87 20.5q65 0 97 -43z" />
    <glyph glyph-name="Eng" unicode="&#x14a;" horiz-adv-x="695" 
d="M715 760l-91 -650q-24 -171 -104.5 -250.5t-226.5 -79.5q-42 0 -75 6l37 171q18 -4 49 -4q34 0 60 28t34 87l6 40l-107 350l-64 -458h-220l107 760h220l107 -339l48 339h220z" />
    <glyph glyph-name="eng" unicode="&#x14b;" horiz-adv-x="602" 
d="M571 322l-32 -227l-14 -99q-15 -112 -70.5 -164t-160.5 -52q-28 0 -60.5 5t-59.5 13l34 156q23 -7 40 -7q28 0 40.5 15.5t18.5 52.5l11 77l14 101l14 97q4 32 4 45q0 19 -6.5 29t-22.5 10q-21 0 -32.5 -19.5t-18.5 -61.5l-42 -293h-220l74 520h196l11 -65q30 39 70 59.5
t87 20.5q65 0 97 -43t32 -115q0 -31 -4 -55z" />
    <glyph glyph-name="Omacron" unicode="&#x14c;" horiz-adv-x="744" 
d="M177 26.5q-66 41.5 -101 116t-35 169.5q0 124 49.5 230t141.5 169.5t212 63.5q90 0 156.5 -42t101.5 -116.5t35 -170.5q0 -122 -50 -228t-142 -169.5t-212 -63.5q-90 0 -156 41.5zM438.5 232q31.5 37 46.5 93t15 112q0 128 -82 128q-46 0 -78 -37.5t-47 -93.5t-15 -112
q0 -127 83 -127q46 0 77.5 37zM340 996h268l-14 -104h-268z" />
    <glyph glyph-name="omacron" unicode="&#x14d;" horiz-adv-x="611" 
d="M87.5 49q-57.5 64 -57.5 165q0 94 37 166.5t108 113.5t169 41q121 0 179 -64.5t58 -165.5q0 -94 -37 -166.5t-108 -113t-170 -40.5q-121 0 -178.5 64zM343.5 201q18.5 46 18.5 98q0 66 -42 66q-35 0 -53 -46t-18 -98q0 -66 42 -66q34 0 52.5 46zM242 756h268l-14 -104
h-268z" />
    <glyph glyph-name="Obreve" unicode="&#x14e;" horiz-adv-x="744" 
d="M177 26.5q-66 41.5 -101 116t-35 169.5q0 124 49.5 230t141.5 169.5t212 63.5q90 0 156.5 -42t101.5 -116.5t35 -170.5q0 -122 -50 -228t-142 -169.5t-212 -63.5q-90 0 -156 41.5zM438.5 232q31.5 37 46.5 93t15 112q0 128 -82 128q-46 0 -78 -37.5t-47 -93.5t-15 -112
q0 -127 83 -127q46 0 77.5 37zM357.5 875q-37.5 44 -37.5 126h109q0 -34 9 -49.5t30 -15.5q23 0 35 15.5t17 49.5h109q-11 -89 -56 -129.5t-114 -40.5q-64 0 -101.5 44z" />
    <glyph glyph-name="obreve" unicode="&#x14f;" horiz-adv-x="611" 
d="M87.5 49q-57.5 64 -57.5 165q0 94 37 166.5t108 113.5t169 41q121 0 179 -64.5t58 -165.5q0 -94 -37 -166.5t-108 -113t-170 -40.5q-121 0 -178.5 64zM343.5 201q18.5 46 18.5 98q0 66 -42 66q-35 0 -53 -46t-18 -98q0 -66 42 -66q34 0 52.5 46zM259.5 635
q-37.5 44 -37.5 126h109q0 -34 9 -49.5t30 -15.5q23 0 35 15.5t17 49.5h109q-11 -89 -56 -129.5t-114 -40.5q-64 0 -101.5 44z" />
    <glyph glyph-name="Ohungarumlaut" unicode="&#x150;" horiz-adv-x="744" 
d="M177 26.5q-66 41.5 -101 116t-35 169.5q0 124 49.5 230t141.5 169.5t212 63.5q90 0 156.5 -42t101.5 -116.5t35 -170.5q0 -122 -50 -228t-142 -169.5t-212 -63.5q-90 0 -156 41.5zM438.5 232q31.5 37 46.5 93t15 112q0 128 -82 128q-46 0 -78 -37.5t-47 -93.5t-15 -112
q0 -127 83 -127q46 0 77.5 37zM390 827h-127l84 174h189zM628 827h-127l84 174h189z" />
    <glyph glyph-name="ohungarumlaut" unicode="&#x151;" horiz-adv-x="611" 
d="M87.5 49q-57.5 64 -57.5 165q0 94 37 166.5t108 113.5t169 41q121 0 179 -64.5t58 -165.5q0 -94 -37 -166.5t-108 -113t-170 -40.5q-121 0 -178.5 64zM343.5 201q18.5 46 18.5 98q0 66 -42 66q-35 0 -53 -46t-18 -98q0 -66 42 -66q34 0 52.5 46zM292 587h-127l84 174h189
zM530 587h-127l84 174h189z" />
    <glyph glyph-name="OE" unicode="&#x152;" horiz-adv-x="941" 
d="M177 26.5q-66 41.5 -101 116t-35 169.5q0 124 49.5 230t141.5 169.5t212 63.5q90 0 156.5 -42t101.5 -116.5t35 -170.5q0 -122 -50 -228t-142 -169.5t-212 -63.5q-90 0 -156 41.5zM438.5 232q31.5 37 46.5 93t15 112q0 128 -82 128q-46 0 -78 -37.5t-47 -93.5t-15 -112
q0 -127 83 -127q46 0 77.5 37zM754 576l-13 -95h183l-25 -175h-183l-17 -122h196l-27 -184h-424l107 760h425l-26 -184h-196z" />
    <glyph glyph-name="oe" unicode="&#x153;" horiz-adv-x="934" 
d="M87.5 49q-57.5 64 -57.5 165q0 94 37 166.5t108 113.5t169 41q121 0 179 -64.5t58 -165.5q0 -94 -37 -166.5t-108 -113t-170 -40.5q-121 0 -178.5 64zM343.5 201q18.5 46 18.5 98q0 66 -42 66q-35 0 -53 -46t-18 -98q0 -66 42 -66q34 0 52.5 46zM567 207q-1 -8 -1 -22
q0 -60 44 -60q15 0 28.5 12t18.5 29l218 -15q-80 -166 -291 -166q-71 0 -123 29t-79.5 78.5t-27.5 110.5q0 102 37 176.5t106.5 115t165.5 40.5q116 0 179 -63t63 -177q0 -18 -4 -45t-10 -43h-324zM581 303h112q1 8 1 23q0 64 -43 64q-52 0 -70 -87z" />
    <glyph glyph-name="Racute" unicode="&#x154;" horiz-adv-x="637" 
d="M600 365q-33 -72 -95 -113l85 -252h-214l-55 205h-54l-29 -205h-225l107 760h277q72 0 125.5 -30.5t82 -82t28.5 -112.5q0 -98 -33 -170zM292 380h16q44 0 71.5 39t27.5 91q0 75 -64 75h-23zM425 827h-127l84 174h189z" />
    <glyph glyph-name="racute" unicode="&#x155;" horiz-adv-x="441" 
d="M474 528l-41 -195q-31 11 -67 11q-41 0 -69.5 -31t-36.5 -90h-1l-31 -223h-220l74 520h191l12 -89q31 52 68.5 78t77.5 26q23 0 43 -7zM316 587h-127l84 174h189z" />
    <glyph glyph-name="Rcommaaccent" unicode="&#x156;" horiz-adv-x="637" 
d="M600 365q-33 -72 -95 -113l85 -252h-214l-55 205h-54l-29 -205h-225l107 760h277q72 0 125.5 -30.5t82 -82t28.5 -112.5q0 -98 -33 -170zM292 380h16q44 0 71.5 39t27.5 91q0 75 -64 75h-23zM249 -220h-127l74 159h189z" />
    <glyph glyph-name="rcommaaccent" unicode="&#x157;" horiz-adv-x="441" 
d="M474 528l-41 -195q-31 11 -67 11q-41 0 -69.5 -31t-36.5 -90h-1l-31 -223h-220l74 520h191l12 -89q31 52 68.5 78t77.5 26q23 0 43 -7zM112 -220h-127l74 159h189z" />
    <glyph glyph-name="Rcaron" unicode="&#x158;" horiz-adv-x="637" 
d="M600 365q-33 -72 -95 -113l85 -252h-214l-55 205h-54l-29 -205h-225l107 760h277q72 0 125.5 -30.5t82 -82t28.5 -112.5q0 -98 -33 -170zM292 380h16q44 0 71.5 39t27.5 91q0 75 -64 75h-23zM578 1001l-155 -169h-119l-109 169h137l39 -87l55 87h152z" />
    <glyph glyph-name="rcaron" unicode="&#x159;" horiz-adv-x="441" 
d="M474 528l-41 -195q-31 11 -67 11q-41 0 -69.5 -31t-36.5 -90h-1l-31 -223h-220l74 520h191l12 -89q31 52 68.5 78t77.5 26q23 0 43 -7zM469 761l-155 -169h-119l-109 169h137l39 -87l55 87h152z" />
    <glyph glyph-name="Sacute" unicode="&#x15a;" horiz-adv-x="642" 
d="M105.5 42.5q-66.5 57.5 -79.5 161.5q-2 16 -2 24l240 16v-18q0 -35 12 -55t37 -20q27 0 42 21t15 51q0 31 -36 46l-68 28q-79 32 -134 87t-55 136q0 76 39 134t108.5 89.5t157.5 31.5q133 0 193.5 -63.5t63.5 -165.5l-240 -16q3 18 3 29q0 52 -37 52q-22 0 -35 -16.5
t-13 -42.5q0 -37 48 -57l73 -30q83 -34 128 -83t45 -119q0 -85 -41 -148t-113 -96.5t-165 -33.5q-120 0 -186.5 57.5zM455 827h-127l84 174h189z" />
    <glyph glyph-name="sacute" unicode="&#x15b;" horiz-adv-x="539" 
d="M71.5 24.5q-61.5 39.5 -72.5 119.5l211 14q0 -47 36 -47q20 0 31 10t11 28q0 17 -16 27t-53 22l-38 12q-68 22 -105.5 58.5t-37.5 86.5q0 89 69.5 134.5t183.5 45.5q106 0 165.5 -36t71.5 -106l-209 -16q0 19 -5 30t-20 11q-12 0 -20 -9t-8 -24q0 -22 36 -33l40 -13
q53 -17 87.5 -35t55.5 -46.5t21 -72.5q0 -101 -72.5 -150.5t-193.5 -49.5q-107 0 -168.5 39.5zM349 587h-127l84 174h189z" />
    <glyph glyph-name="Scircumflex" unicode="&#x15c;" horiz-adv-x="642" 
d="M105.5 42.5q-66.5 57.5 -79.5 161.5q-2 16 -2 24l240 16v-18q0 -35 12 -55t37 -20q27 0 42 21t15 51q0 31 -36 46l-68 28q-79 32 -134 87t-55 136q0 76 39 134t108.5 89.5t157.5 31.5q133 0 193.5 -63.5t63.5 -165.5l-240 -16q3 18 3 29q0 52 -37 52q-22 0 -35 -16.5
t-13 -42.5q0 -37 48 -57l73 -30q83 -34 128 -83t45 -119q0 -85 -41 -148t-113 -96.5t-165 -33.5q-120 0 -186.5 57.5zM459 832l-39 87l-55 -87h-152l155 169h119l109 -169h-137z" />
    <glyph glyph-name="scircumflex" unicode="&#x15d;" horiz-adv-x="539" 
d="M71.5 24.5q-61.5 39.5 -72.5 119.5l211 14q0 -47 36 -47q20 0 31 10t11 28q0 17 -16 27t-53 22l-38 12q-68 22 -105.5 58.5t-37.5 86.5q0 89 69.5 134.5t183.5 45.5q106 0 165.5 -36t71.5 -106l-209 -16q0 19 -5 30t-20 11q-12 0 -20 -9t-8 -24q0 -22 36 -33l40 -13
q53 -17 87.5 -35t55.5 -46.5t21 -72.5q0 -101 -72.5 -150.5t-193.5 -49.5q-107 0 -168.5 39.5zM353 592l-39 87l-55 -87h-152l155 169h119l109 -169h-137z" />
    <glyph glyph-name="Scedilla" unicode="&#x15e;" horiz-adv-x="642" 
d="M105.5 42.5q-66.5 57.5 -79.5 161.5q-2 16 -2 24l240 16v-18q0 -35 12 -55t37 -20q27 0 42 21t15 51q0 31 -36 46l-68 28q-79 32 -134 87t-55 136q0 76 39 134t108.5 89.5t157.5 31.5q133 0 193.5 -63.5t63.5 -165.5l-240 -16q3 18 3 29q0 52 -37 52q-22 0 -35 -16.5
t-13 -42.5q0 -37 48 -57l73 -30q83 -34 128 -83t45 -119q0 -85 -41 -148t-113 -96.5t-165 -33.5q-120 0 -186.5 57.5zM380 -58q23 -21 23 -58q0 -45 -33 -74.5t-92 -29.5q-53 0 -90 23l31 61q20 -11 44 -11q17 0 27 10t10 25q0 11 -6.5 17t-16.5 6q-15 0 -28 -13l-26 21
l45 110h72l-21 -66h4q34 0 57 -21z" />
    <glyph glyph-name="scedilla" unicode="&#x15f;" horiz-adv-x="539" 
d="M71.5 24.5q-61.5 39.5 -72.5 119.5l211 14q0 -47 36 -47q20 0 31 10t11 28q0 17 -16 27t-53 22l-38 12q-68 22 -105.5 58.5t-37.5 86.5q0 89 69.5 134.5t183.5 45.5q106 0 165.5 -36t71.5 -106l-209 -16q0 19 -5 30t-20 11q-12 0 -20 -9t-8 -24q0 -22 36 -33l40 -13
q53 -17 87.5 -35t55.5 -46.5t21 -72.5q0 -101 -72.5 -150.5t-193.5 -49.5q-107 0 -168.5 39.5zM297 -58q23 -21 23 -58q0 -45 -33 -74.5t-92 -29.5q-53 0 -90 23l31 61q20 -11 44 -11q17 0 27 10t10 25q0 11 -6.5 17t-16.5 6q-15 0 -28 -13l-26 21l45 110h72l-21 -66h4
q34 0 57 -21z" />
    <glyph glyph-name="Scaron" unicode="&#x160;" horiz-adv-x="642" 
d="M105.5 42.5q-66.5 57.5 -79.5 161.5q-2 16 -2 24l240 16v-18q0 -35 12 -55t37 -20q27 0 42 21t15 51q0 31 -36 46l-68 28q-79 32 -134 87t-55 136q0 76 39 134t108.5 89.5t157.5 31.5q133 0 193.5 -63.5t63.5 -165.5l-240 -16q3 18 3 29q0 52 -37 52q-22 0 -35 -16.5
t-13 -42.5q0 -37 48 -57l73 -30q83 -34 128 -83t45 -119q0 -85 -41 -148t-113 -96.5t-165 -33.5q-120 0 -186.5 57.5zM608 1001l-155 -169h-119l-109 169h137l39 -87l55 87h152z" />
    <glyph glyph-name="scaron" unicode="&#x161;" horiz-adv-x="539" 
d="M71.5 24.5q-61.5 39.5 -72.5 119.5l211 14q0 -47 36 -47q20 0 31 10t11 28q0 17 -16 27t-53 22l-38 12q-68 22 -105.5 58.5t-37.5 86.5q0 89 69.5 134.5t183.5 45.5q106 0 165.5 -36t71.5 -106l-209 -16q0 19 -5 30t-20 11q-12 0 -20 -9t-8 -24q0 -22 36 -33l40 -13
q53 -17 87.5 -35t55.5 -46.5t21 -72.5q0 -101 -72.5 -150.5t-193.5 -49.5q-107 0 -168.5 39.5zM502 761l-155 -169h-119l-109 169h137l39 -87l55 87h152z" />
    <glyph glyph-name="uni0162" unicode="&#x162;" horiz-adv-x="558" 
d="M587 576h-149l-81 -576h-229l81 576h-149l25 184h528zM305 -58q23 -21 23 -58q0 -45 -33 -74.5t-92 -29.5q-53 0 -90 23l31 61q20 -11 44 -11q17 0 27 10t10 25q0 11 -6.5 17t-16.5 6q-15 0 -28 -13l-26 21l45 110h72l-21 -66h4q34 0 57 -21z" />
    <glyph glyph-name="uni0163" unicode="&#x163;" horiz-adv-x="428" 
d="M277 230q-2 -12 -2 -29q0 -25 11.5 -36.5t39.5 -11.5q21 0 51 6l-11 -162q-62 -12 -124 -12q-89 0 -139 44t-50 131q0 23 3 48l20 146h-63l34 166h53l18 130h219l-19 -130h112l-24 -166h-111zM244 -58q23 -21 23 -58q0 -45 -33 -74.5t-92 -29.5q-53 0 -90 23l31 61
q20 -11 44 -11q17 0 27 10t10 25q0 11 -6.5 17t-16.5 6q-15 0 -28 -13l-26 21l45 110h72l-21 -66h4q34 0 57 -21z" />
    <glyph glyph-name="Tcaron" unicode="&#x164;" horiz-adv-x="558" 
d="M587 576h-149l-81 -576h-229l81 576h-149l25 184h528zM563 1001l-155 -169h-119l-109 169h137l39 -87l55 87h152z" />
    <glyph glyph-name="tcaron" unicode="&#x165;" horiz-adv-x="564" 
d="M639 760l-156 -174h-107l83 174h180zM318 520h112l-24 -166h-111l-18 -124q-2 -12 -2 -29q0 -25 11.5 -36.5t39.5 -11.5q21 0 51 6l-11 -162q-62 -12 -124 -12q-89 0 -139 44t-50 131q0 23 3 48l20 146h-63l34 166h53l18 130h219z" />
    <glyph glyph-name="Tbar" unicode="&#x166;" horiz-adv-x="558" 
d="M438 576l-18 -127h89l-22 -149h-88l-42 -300h-229l42 300h-86l21 149h86l18 127h-149l25 184h528l-26 -184h-149z" />
    <glyph glyph-name="tbar" unicode="&#x167;" horiz-adv-x="428" 
d="M297 373l-6 -47h108l-14 -96h-108q-2 -12 -2 -28q0 -25 11.5 -36.5t39.5 -11.5q21 0 51 6l-11 -162q-62 -12 -124 -12q-89 0 -139 44t-50 131q0 22 3 47l3 22h-63l13 96h64l6 47h-63l31 146h53l18 130h219l-19 -130h112l-21 -146h-112z" />
    <glyph glyph-name="Utilde" unicode="&#x168;" horiz-adv-x="692" 
d="M115 51q-68 66 -68 191q0 36 6 78l62 440h229l-63 -448q-4 -25 -4 -50q0 -33 13 -50t45 -17q74 0 90 117l63 448h228l-61 -440q-24 -176 -109 -255.5t-239 -79.5q-124 0 -192 66zM448.5 846.5q-19.5 8.5 -42.5 23.5q-35 23 -57 23q-35 0 -68 -39l-55 64q29 52 69 82.5
t90 30.5q25 0 45 -8.5t43 -23.5q17 -11 30 -17t27 -6q31 0 67 39l55 -63q-27 -51 -67 -82.5t-92 -31.5q-25 0 -44.5 8.5z" />
    <glyph glyph-name="utilde" unicode="&#x169;" 
d="M589 520l-73 -520h-197l-9 65q-30 -39 -69 -59.5t-85 -20.5q-65 0 -97 43t-32 114q0 29 4 55l46 323h220l-41 -290q-4 -32 -4 -46q0 -39 29 -39q20 0 31 25t19 80l38 270h220zM367.5 606.5q-19.5 8.5 -42.5 23.5q-35 23 -57 23q-35 0 -68 -39l-55 64q29 52 69 82.5
t90 30.5q25 0 45 -8.5t43 -23.5q17 -11 30 -17t27 -6q31 0 67 39l55 -63q-27 -51 -67 -82.5t-92 -31.5q-25 0 -44.5 8.5z" />
    <glyph glyph-name="Umacron" unicode="&#x16a;" horiz-adv-x="692" 
d="M115 51q-68 66 -68 191q0 36 6 78l62 440h229l-63 -448q-4 -25 -4 -50q0 -33 13 -50t45 -17q74 0 90 117l63 448h228l-61 -440q-24 -176 -109 -255.5t-239 -79.5q-124 0 -192 66zM313 996h268l-14 -104h-268z" />
    <glyph glyph-name="umacron" unicode="&#x16b;" 
d="M589 520l-73 -520h-197l-9 65q-30 -39 -69 -59.5t-85 -20.5q-65 0 -97 43t-32 114q0 29 4 55l46 323h220l-41 -290q-4 -32 -4 -46q0 -39 29 -39q20 0 31 25t19 80l38 270h220zM232 756h268l-14 -104h-268z" />
    <glyph glyph-name="Ubreve" unicode="&#x16c;" horiz-adv-x="692" 
d="M115 51q-68 66 -68 191q0 36 6 78l62 440h229l-63 -448q-4 -25 -4 -50q0 -33 13 -50t45 -17q74 0 90 117l63 448h228l-61 -440q-24 -176 -109 -255.5t-239 -79.5q-124 0 -192 66zM330.5 875q-37.5 44 -37.5 126h109q0 -34 9 -49.5t30 -15.5q23 0 35 15.5t17 49.5h109
q-11 -89 -56 -129.5t-114 -40.5q-64 0 -101.5 44z" />
    <glyph glyph-name="ubreve" unicode="&#x16d;" 
d="M589 520l-73 -520h-197l-9 65q-30 -39 -69 -59.5t-85 -20.5q-65 0 -97 43t-32 114q0 29 4 55l46 323h220l-41 -290q-4 -32 -4 -46q0 -39 29 -39q20 0 31 25t19 80l38 270h220zM249.5 635q-37.5 44 -37.5 126h109q0 -34 9 -49.5t30 -15.5q23 0 35 15.5t17 49.5h109
q-11 -89 -56 -129.5t-114 -40.5q-64 0 -101.5 44z" />
    <glyph glyph-name="Uring" unicode="&#x16e;" horiz-adv-x="692" 
d="M115 51q-68 66 -68 191q0 36 6 78l62 440h229l-63 -448q-4 -25 -4 -50q0 -33 13 -50t45 -17q74 0 90 117l63 448h228l-61 -440q-24 -176 -109 -255.5t-239 -79.5q-124 0 -192 66zM370 835.5q-29 17.5 -46 46.5t-17 63t17 63t46 46t63 17q35 0 64 -17t46 -46t17 -63
t-17 -63t-46 -46.5t-64 -17.5q-34 0 -63 17.5zM471.5 905q15.5 16 15.5 40t-15.5 40t-38.5 16t-38 -16t-15 -40t15 -40t38 -16t38.5 16z" />
    <glyph glyph-name="uring" unicode="&#x16f;" 
d="M589 520l-73 -520h-197l-9 65q-30 -39 -69 -59.5t-85 -20.5q-65 0 -97 43t-32 114q0 29 4 55l46 323h220l-41 -290q-4 -32 -4 -46q0 -39 29 -39q20 0 31 25t19 80l38 270h220zM289 595.5q-29 17.5 -46 46.5t-17 63t17 63t46 46t63 17q35 0 64 -17t46 -46t17 -63t-17 -63
t-46 -46.5t-64 -17.5q-34 0 -63 17.5zM390.5 665q15.5 16 15.5 40t-15.5 40t-38.5 16t-38 -16t-15 -40t15 -40t38 -16t38.5 16z" />
    <glyph glyph-name="Uhungarumlaut" unicode="&#x170;" horiz-adv-x="692" 
d="M115 51q-68 66 -68 191q0 36 6 78l62 440h229l-63 -448q-4 -25 -4 -50q0 -33 13 -50t45 -17q74 0 90 117l63 448h228l-61 -440q-24 -176 -109 -255.5t-239 -79.5q-124 0 -192 66zM363 827h-127l84 174h189zM601 827h-127l84 174h189z" />
    <glyph glyph-name="uhungarumlaut" unicode="&#x171;" 
d="M589 520l-73 -520h-197l-9 65q-30 -39 -69 -59.5t-85 -20.5q-65 0 -97 43t-32 114q0 29 4 55l46 323h220l-41 -290q-4 -32 -4 -46q0 -39 29 -39q20 0 31 25t19 80l38 270h220zM282 587h-127l84 174h189zM520 587h-127l84 174h189z" />
    <glyph glyph-name="Uogonek" unicode="&#x172;" horiz-adv-x="692" 
d="M115 51q-68 66 -68 191q0 36 6 78l62 440h229l-63 -448q-4 -25 -4 -50q0 -33 13 -50t45 -17q74 0 90 117l63 448h228l-61 -440q-24 -176 -109 -255.5t-239 -79.5q-124 0 -192 66zM401 -19q-20 -20 -20 -54q0 -23 15.5 -36t41.5 -13q14 0 39 6l-8 -90q-38 -14 -83 -14
q-48 0 -80 30.5t-32 75.5q0 65 46 111t124 54l4 -43q-27 -7 -47 -27z" />
    <glyph glyph-name="uogonek" unicode="&#x173;" 
d="M589 520l-73 -520h-197l-9 65q-30 -39 -69 -59.5t-85 -20.5q-65 0 -97 43t-32 114q0 29 4 55l46 323h220l-41 -290q-4 -32 -4 -46q0 -39 29 -39q20 0 31 25t19 80l38 270h220zM388 -19q-20 -20 -20 -54q0 -23 15.5 -36t41.5 -13q14 0 39 6l-8 -90q-38 -14 -83 -14
q-48 0 -80 30.5t-32 75.5q0 65 46 111t124 54l4 -43q-27 -7 -47 -27z" />
    <glyph glyph-name="Wcircumflex" unicode="&#x174;" horiz-adv-x="953" 
d="M1018 760l-278 -760h-233l-9 428l-134 -428h-233l-56 760h235l-11 -502l141 502h204l-2 -511l128 511h248zM606 832l-39 87l-55 -87h-152l155 169h119l109 -169h-137z" />
    <glyph glyph-name="wcircumflex" unicode="&#x175;" horiz-adv-x="775" 
d="M816 520l-220 -520h-203l-3 282l-83 -282h-203l-73 520h223l-12 -353l99 353h160v-353l86 353h229zM487 592l-39 87l-55 -87h-152l155 169h119l109 -169h-137z" />
    <glyph glyph-name="Ycircumflex" unicode="&#x176;" horiz-adv-x="628" 
d="M713 760l-417 -760h-239l173 316l-170 444h235l54 -226l124 226h240zM448 832l-39 87l-55 -87h-152l155 169h119l109 -169h-137z" />
    <glyph glyph-name="ycircumflex" unicode="&#x177;" 
d="M589 520l-68 -488q-19 -135 -95.5 -193.5t-200.5 -58.5q-104 0 -160.5 43t-73.5 122l221 18q2 -25 8.5 -35.5t24.5 -10.5q23 0 34.5 24t19.5 80l8 55q-61 -72 -148 -72q-66 0 -97.5 43t-31.5 114q0 30 4 55l43 304h220l-39 -272q-4 -24 -4 -45q0 -19 6.5 -28.5t23.5 -9.5
q18 0 29 21t18 64l38 270h220zM399 592l-39 87l-55 -87h-152l155 169h119l109 -169h-137z" />
    <glyph glyph-name="Ydieresis" unicode="&#x178;" horiz-adv-x="628" 
d="M713 760l-417 -760h-239l173 316l-170 444h235l54 -226l124 226h240zM228 866.5q-27 27.5 -27 65.5q0 39 27 66t65 27t65.5 -27t27.5 -66q0 -38 -27.5 -65.5t-65.5 -27.5t-65 27.5zM456.5 866.5q-27.5 27.5 -27.5 65.5q0 39 27.5 66t65.5 27t64.5 -27t26.5 -66
q0 -38 -27 -65.5t-64 -27.5q-38 0 -65.5 27.5z" />
    <glyph glyph-name="Zacute" unicode="&#x179;" horiz-adv-x="599" 
d="M322 184h249l-26 -184h-577l342 576h-218l26 184h546zM461 827h-127l84 174h189z" />
    <glyph glyph-name="zacute" unicode="&#x17a;" horiz-adv-x="510" 
d="M302 162h177l-23 -162h-483l229 359h-155l34 161h450zM360 587h-127l84 174h189z" />
    <glyph glyph-name="Zdotaccent" unicode="&#x17b;" horiz-adv-x="599" 
d="M322 184h249l-26 -184h-577l342 576h-218l26 184h546zM339 863q-31 31 -31 75t31 75t75 31t74.5 -31t30.5 -75t-31 -75t-74 -31q-44 0 -75 31z" />
    <glyph glyph-name="zdotaccent" unicode="&#x17c;" horiz-adv-x="510" 
d="M302 162h177l-23 -162h-483l229 359h-155l34 161h450zM238 623q-31 31 -31 75t31 75t75 31t74.5 -31t30.5 -75t-31 -75t-74 -31q-44 0 -75 31z" />
    <glyph glyph-name="Zcaron" unicode="&#x17d;" horiz-adv-x="599" 
d="M322 184h249l-26 -184h-577l342 576h-218l26 184h546zM614 1001l-155 -169h-119l-109 169h137l39 -87l55 87h152z" />
    <glyph glyph-name="zcaron" unicode="&#x17e;" horiz-adv-x="510" 
d="M302 162h177l-23 -162h-483l229 359h-155l34 161h450zM513 761l-155 -169h-119l-109 169h137l39 -87l55 87h152z" />
    <glyph glyph-name="longs" unicode="&#x17f;" horiz-adv-x="345" 
d="M414.5 767.5q46.5 -7.5 64.5 -14.5l-30 -141q-9 3 -27 5.5t-34 2.5q-30 0 -47.5 -18t-23.5 -61l-76 -541h-219l50 354h-59l35 166h47l6 39q16 113 71 164.5t159 51.5q37 0 83.5 -7.5z" />
    <glyph glyph-name="uni018F" unicode="&#x18f;" horiz-adv-x="744" 
d="M598.5 734.5q67.5 -40.5 103 -114.5t35.5 -174q0 -122 -50.5 -228t-142.5 -169.5t-211 -63.5q-91 0 -157 40t-101 114t-35 173q0 31 5 70t13 65h441q-3 118 -82 118q-50 0 -88 -59l-236 27q105 242 345 242q93 0 160.5 -40.5zM430 224.5q29 29.5 47 78.5h-199
q7 -108 82 -108q41 0 70 29.5z" />
    <glyph glyph-name="florin" unicode="&#x192;" horiz-adv-x="602" 
d="M498.5 570.5q-18.5 -23.5 -28.5 -66.5l-10 -42h65l-15 -105h-73l-71 -312q-31 -136 -95.5 -193t-175.5 -57h-80l40 166q34 0 52 23.5t28 66.5l69 306h-39l15 105h48l11 50q31 135 96 191.5t177 56.5h80l-41 -166q-34 0 -52.5 -23.5z" />
    <glyph glyph-name="uni019D" unicode="&#x19d;" horiz-adv-x="697" 
d="M716 760l-106 -760h-221l-95 422l-43 -312q-24 -170 -105.5 -250t-227.5 -80q-43 0 -74 6l37 171q18 -4 49 -4q34 0 60 28t34 87l97 692h220l97 -411l58 411h220z" />
    <glyph glyph-name="uni01CD" unicode="&#x1cd;" horiz-adv-x="666" 
d="M401 96h-166l-31 -96h-246l315 760h261l100 -760h-229zM394 254l-13 300l-96 -300h109zM617 1001l-155 -169h-119l-109 169h137l39 -87l55 87h152z" />
    <glyph glyph-name="uni01CE" unicode="&#x1ce;" horiz-adv-x="625" 
d="M616 520l-73 -520h-206l-2 78q-53 -93 -149 -93q-45 0 -81 24t-57 71t-21 114q0 82 27.5 161t79.5 129.5t120 50.5q53 0 85 -28t45 -71l12 84h220zM348 201q19 46 19 96q0 33 -11.5 50t-30.5 17q-34 0 -53 -46t-19 -95q0 -33 11 -50.5t31 -17.5q34 0 53 46zM552 761
l-155 -169h-119l-109 169h137l39 -87l55 87h152z" />
    <glyph glyph-name="Gcaron" unicode="&#x1e6;" horiz-adv-x="726" 
d="M398 433h313l-45 -332q-61 -50 -146.5 -83t-175.5 -33q-96 0 -164 40t-103.5 114t-35.5 173q0 123 49.5 229.5t140 170t208.5 63.5q96 0 158.5 -38.5t92.5 -97t37 -124.5l-246 -17q-4 27 -21 47t-51 20q-43 0 -73 -37.5t-44.5 -94t-14.5 -111.5q0 -75 24.5 -108.5
t73.5 -33.5q53 0 99 32l9 66h-107zM652 1001l-155 -169h-119l-109 169h137l39 -87l55 87h152z" />
    <glyph glyph-name="gcaron" unicode="&#x1e7;" horiz-adv-x="625" 
d="M616 520l-68 -488q-18 -131 -92.5 -191.5t-205.5 -60.5q-107 0 -165 44.5t-72 122.5l222 16q2 -21 9.5 -33.5t24.5 -12.5q24 0 35.5 19t17.5 59l14 97q-54 -89 -149 -89q-45 0 -81 23.5t-57 68.5t-21 108q0 79 28 156t79.5 126.5t117.5 49.5q53 0 85.5 -27.5t45.5 -70.5
l26 83h206zM348.5 205q18.5 46 18.5 94q0 32 -11 48.5t-31 16.5q-34 0 -52.5 -42.5t-18.5 -94.5q0 -68 43 -68q33 0 51.5 46zM564 761l-155 -169h-119l-109 169h137l39 -87l55 87h152z" />
    <glyph glyph-name="Aringacute" unicode="&#x1fa;" horiz-adv-x="666" 
d="M401 96h-166l-31 -96h-246l315 760h261l100 -760h-229zM394 254l-13 300l-96 -300h109zM359 835.5q-29 17.5 -46 46.5t-17 63t17 63t46 46t63 17q35 0 64 -17t46 -46t17 -63t-17 -63t-46 -46.5t-64 -17.5q-34 0 -63 17.5zM460.5 905q15.5 16 15.5 40t-15.5 40t-38.5 16
t-38 -16t-15 -40t15 -40t38 -16t38.5 16zM500 1138h-127l84 174h189z" />
    <glyph glyph-name="aringacute" unicode="&#x1fb;" horiz-adv-x="625" 
d="M616 520l-73 -520h-206l-2 78q-53 -93 -149 -93q-45 0 -81 24t-57 71t-21 114q0 82 27.5 161t79.5 129.5t120 50.5q53 0 85 -28t45 -71l12 84h220zM348 201q19 46 19 96q0 33 -11.5 50t-30.5 17q-34 0 -53 -46t-19 -95q0 -33 11 -50.5t31 -17.5q34 0 53 46zM294 595.5
q-29 17.5 -46 46.5t-17 63t17 63t46 46t63 17q35 0 64 -17t46 -46t17 -63t-17 -63t-46 -46.5t-64 -17.5q-34 0 -63 17.5zM395.5 665q15.5 16 15.5 40t-15.5 40t-38.5 16t-38 -16t-15 -40t15 -40t38 -16t38.5 16zM435 898h-127l84 174h189z" />
    <glyph glyph-name="AEacute" unicode="&#x1fc;" horiz-adv-x="898" 
d="M726 576l-13 -95h168l-25 -175h-168l-17 -122h181l-26 -184h-410l18 127h-163l-66 -127h-252l469 760h511l-26 -184h-181zM456 285l39 276l-143 -276h104zM755 827h-127l84 174h189z" />
    <glyph glyph-name="aeacute" unicode="&#x1fd;" horiz-adv-x="855" 
d="M508 211q-1 -8 -1 -23q0 -63 45 -63q16 0 29 12t19 29l193 -12q-74 -169 -266 -169q-51 0 -91 20.5t-65 57.5q-63 -78 -189 -78q-73 0 -118.5 38.5t-45.5 103.5q0 85 61.5 130.5t166.5 45.5h91l3 18q2 16 2 28q0 23 -9 34t-29 11q-17 0 -32 -11.5t-20 -31.5l-183 14
q27 69 91.5 119.5t163.5 50.5q80 0 134 -43q65 43 147 43q105 0 162.5 -66t57.5 -180q0 -15 -3.5 -38t-8.5 -40h-305zM548.5 368q-18.5 -22 -27.5 -65h115q1 8 1 23q0 64 -44 64q-26 0 -44.5 -22zM294.5 126q17.5 22 26.5 66l2 8l1 11h-48q-35 0 -52.5 -18t-17.5 -49
q0 -21 12 -30.5t29 -9.5q30 0 47.5 22zM525 587h-127l84 174h189z" />
    <glyph glyph-name="Oslashacute" unicode="&#x1fe;" horiz-adv-x="745" 
d="M682 657q56 -83 56 -211q0 -122 -50.5 -228t-142.5 -169.5t-212 -63.5q-70 0 -128 25l-29 -39h-179l98 133q-54 83 -54 208q0 124 49.5 230t141.5 169.5t212 63.5q70 0 128 -25l29 39h179zM333 549q-37 -40 -55.5 -101t-20.5 -125l194 263q-12 3 -27 3q-54 0 -91 -40z
M447 212.5q37 40.5 55 101.5t20 125l-195 -264q14 -3 28 -3q55 0 92 40.5zM501 827h-127l84 174h189z" />
    <glyph glyph-name="oslashacute" unicode="&#x1ff;" horiz-adv-x="611" 
d="M564 405.5q17 -45.5 17 -100.5q0 -94 -37 -166.5t-108 -113t-170 -40.5q-62 0 -106 18l-17 -23h-87l43 58q-35 31 -52 76.5t-17 99.5q0 94 37 166.5t108 113.5t169 41q61 0 106 -17l16 21h87l-42 -57q36 -31 53 -76.5zM257 332q-22 -49 -23 -109l112 152q-11 6 -23 6
q-44 0 -66 -49zM354 189q22 50 23 110l-113 -154q11 -6 24 -6q44 0 66 50zM402 587h-127l84 174h189z" />
    <glyph glyph-name="Scommaaccent" unicode="&#x218;" horiz-adv-x="642" 
d="M105.5 42.5q-66.5 57.5 -79.5 161.5q-2 16 -2 24l240 16v-18q0 -35 12 -55t37 -20q27 0 42 21t15 51q0 31 -36 46l-68 28q-79 32 -134 87t-55 136q0 76 39 134t108.5 89.5t157.5 31.5q133 0 193.5 -63.5t63.5 -165.5l-240 -16q3 18 3 29q0 52 -37 52q-22 0 -35 -16.5
t-13 -42.5q0 -37 48 -57l73 -30q83 -34 128 -83t45 -119q0 -85 -41 -148t-113 -96.5t-165 -33.5q-120 0 -186.5 57.5zM292 -220h-127l74 159h189z" />
    <glyph glyph-name="scommaaccent" unicode="&#x219;" horiz-adv-x="539" 
d="M71.5 24.5q-61.5 39.5 -72.5 119.5l211 14q0 -47 36 -47q20 0 31 10t11 28q0 17 -16 27t-53 22l-38 12q-68 22 -105.5 58.5t-37.5 86.5q0 89 69.5 134.5t183.5 45.5q106 0 165.5 -36t71.5 -106l-209 -16q0 19 -5 30t-20 11q-12 0 -20 -9t-8 -24q0 -22 36 -33l40 -13
q53 -17 87.5 -35t55.5 -46.5t21 -72.5q0 -101 -72.5 -150.5t-193.5 -49.5q-107 0 -168.5 39.5zM209 -220h-127l74 159h189z" />
    <glyph glyph-name="uni021A" unicode="&#x21a;" horiz-adv-x="558" 
d="M587 576h-149l-81 -576h-229l81 576h-149l25 184h528zM217 -220h-127l74 159h189z" />
    <glyph glyph-name="uni021B" unicode="&#x21b;" horiz-adv-x="428" 
d="M277 230q-2 -12 -2 -29q0 -25 11.5 -36.5t39.5 -11.5q21 0 51 6l-11 -162q-62 -12 -124 -12q-89 0 -139 44t-50 131q0 23 3 48l20 146h-63l34 166h53l18 130h219l-19 -130h112l-24 -166h-111zM156 -220h-127l74 159h189z" />
    <glyph glyph-name="uni0232" unicode="&#x232;" horiz-adv-x="628" 
d="M713 760l-417 -760h-239l173 316l-170 444h235l54 -226l124 226h240zM282 996h268l-14 -104h-268z" />
    <glyph glyph-name="uni0233" unicode="&#x233;" 
d="M589 520l-68 -488q-19 -135 -95.5 -193.5t-200.5 -58.5q-104 0 -160.5 43t-73.5 122l221 18q2 -25 8.5 -35.5t24.5 -10.5q23 0 34.5 24t19.5 80l8 55q-61 -72 -148 -72q-66 0 -97.5 43t-31.5 114q0 30 4 55l43 304h220l-39 -272q-4 -24 -4 -45q0 -19 6.5 -28.5t23.5 -9.5
q18 0 29 21t18 64l38 270h220zM233 756h268l-14 -104h-268z" />
    <glyph glyph-name="uni0237" unicode="&#x237;" horiz-adv-x="327" 
d="M-56 -215q-33 5 -59 13l34 156q23 -7 42 -7q30 0 43 18t19 62l69 493h218l-74 -524q-16 -118 -70 -167t-160 -49q-29 0 -62 5z" />
    <glyph glyph-name="uni0259" unicode="&#x259;" horiz-adv-x="609" 
d="M367 313q1 8 1 22q0 60 -44 60q-15 0 -28.5 -12t-18.5 -29l-218 15q80 166 291 166q71 0 123 -29t79.5 -78.5t27.5 -110.5q0 -102 -37 -176.5t-106.5 -115t-165.5 -40.5q-116 0 -179 63t-63 177q0 18 4 45t10 43h324zM353 217h-112q-1 -8 -1 -23q0 -64 43 -64q52 0 70 87
z" />
    <glyph glyph-name="uni0272" unicode="&#x272;" horiz-adv-x="609" 
d="M550.5 492q31.5 -43 31.5 -115q0 -31 -4 -55l-46 -322h-220l42 290q4 32 4 45q0 19 -7 29t-23 10q-19 0 -30.5 -18t-18.5 -55l-15 -108l-28 -197q-16 -112 -71 -164t-159 -52q-28 0 -61.5 5t-59.5 13l34 156q26 -7 41 -7q24 0 36.5 12.5t19.5 40.5l74 520h196l11 -65
q63 80 156 80q66 0 97.5 -43z" />
    <glyph glyph-name="circumflex" unicode="&#x2c6;" horiz-adv-x="483" 
d="M343 591l-39 87l-55 -87h-152l155 169h119l109 -169h-137z" />
    <glyph glyph-name="caron" unicode="&#x2c7;" horiz-adv-x="483" 
d="M503 760l-155 -169h-119l-109 169h137l39 -87l55 87h152z" />
    <glyph glyph-name="breve" unicode="&#x2d8;" horiz-adv-x="409" 
d="M157.5 634q-37.5 44 -37.5 126h109q0 -34 9 -49.5t30 -15.5q23 0 35 15.5t17 49.5h109q-11 -89 -56 -129.5t-114 -40.5q-64 0 -101.5 44z" />
    <glyph glyph-name="dotaccent" unicode="&#x2d9;" horiz-adv-x="313" 
d="M143 622q-31 31 -31 75t31 75t75 31t74.5 -31t30.5 -75t-31 -75t-74 -31q-44 0 -75 31z" />
    <glyph glyph-name="ring" unicode="&#x2da;" horiz-adv-x="356" 
d="M177 594.5q-29 17.5 -46 46.5t-17 63t17 63t46 46t63 17q35 0 64 -17t46 -46t17 -63t-17 -63t-46 -46.5t-64 -17.5q-34 0 -63 17.5zM278.5 664q15.5 16 15.5 40t-15.5 40t-38.5 16t-38 -16t-15 -40t15 -40t38 -16t38.5 16z" />
    <glyph glyph-name="ogonek" unicode="&#x2db;" horiz-adv-x="309" 
d="M126 -19q-20 -20 -20 -54q0 -23 15.5 -36t41.5 -13q14 0 39 6l-8 -90q-38 -14 -83 -14q-48 0 -80 30.5t-32 75.5q0 65 46 111t124 54l4 -43q-27 -7 -47 -27z" />
    <glyph glyph-name="tilde" unicode="&#x2dc;" horiz-adv-x="522" 
d="M331.5 605.5q-19.5 8.5 -42.5 23.5q-35 23 -57 23q-35 0 -68 -39l-55 64q29 52 69 82.5t90 30.5q25 0 45 -8.5t43 -23.5q17 -11 30 -17t27 -6q31 0 67 39l55 -63q-27 -51 -67 -82.5t-92 -31.5q-25 0 -44.5 8.5z" />
    <glyph glyph-name="hungarumlaut" unicode="&#x2dd;" horiz-adv-x="587" 
d="M223 586h-127l84 174h189zM461 586h-127l84 174h189z" />
    <glyph glyph-name="gravecomb" unicode="&#x300;" horiz-adv-x="0" 
d="M-88 760l84 -174h-127l-146 174h189z" />
    <glyph glyph-name="acutecomb" unicode="&#x301;" horiz-adv-x="0" 
d="M-126 586h-127l84 174h189z" />
    <glyph glyph-name="uni0302" unicode="&#x302;" horiz-adv-x="0" 
d="M-140 591l-39 87l-55 -87h-152l155 169h119l109 -169h-137z" />
    <glyph glyph-name="tildecomb" unicode="&#x303;" horiz-adv-x="0" 
d="M-190.5 605.5q-19.5 8.5 -42.5 23.5q-35 23 -57 23q-35 0 -68 -39l-55 64q29 52 69 82.5t90 30.5q25 0 45 -8.5t43 -23.5q17 -11 30 -17t27 -6q31 0 67 39l55 -63q-27 -51 -67 -82.5t-92 -31.5q-25 0 -44.5 8.5z" />
    <glyph glyph-name="uni0304" unicode="&#x304;" horiz-adv-x="0" 
d="M-249 755h268l-14 -104h-268z" />
    <glyph glyph-name="uni0306" unicode="&#x306;" horiz-adv-x="0" 
d="M-251.5 634q-37.5 44 -37.5 126h109q0 -34 9 -49.5t30 -15.5q23 0 35 15.5t17 49.5h109q-11 -89 -56 -129.5t-114 -40.5q-64 0 -101.5 44z" />
    <glyph glyph-name="uni0307" unicode="&#x307;" horiz-adv-x="0" 
d="M-170 622q-31 31 -31 75t31 75t75 31t74.5 -31t30.5 -75t-31 -75t-74 -31q-44 0 -75 31z" />
    <glyph glyph-name="uni0308" unicode="&#x308;" horiz-adv-x="0" 
d="M-375 625.5q-27 27.5 -27 65.5q0 39 27 66t65 27t65.5 -27t27.5 -66q0 -38 -27.5 -65.5t-65.5 -27.5t-65 27.5zM-146.5 625.5q-27.5 27.5 -27.5 65.5q0 39 27.5 66t65.5 27t64.5 -27t26.5 -66q0 -38 -27 -65.5t-64 -27.5q-38 0 -65.5 27.5z" />
    <glyph glyph-name="uni030A" unicode="&#x30a;" horiz-adv-x="0" 
d="M-179 594.5q-29 17.5 -46 46.5t-17 63t17 63t46 46t63 17q35 0 64 -17t46 -46t17 -63t-17 -63t-46 -46.5t-64 -17.5q-34 0 -63 17.5zM-77.5 664q15.5 16 15.5 40t-15.5 40t-38.5 16t-38 -16t-15 -40t15 -40t38 -16t38.5 16z" />
    <glyph glyph-name="uni030B" unicode="&#x30b;" horiz-adv-x="0" 
d="M-364 586h-127l84 174h189zM-126 586h-127l84 174h189z" />
    <glyph glyph-name="uni030C" unicode="&#x30c;" horiz-adv-x="0" 
d="M20 760l-155 -169h-119l-109 169h137l39 -87l55 87h152z" />
    <glyph glyph-name="uni0326" unicode="&#x326;" horiz-adv-x="0" 
d="M-231 -220h-127l74 159h189z" />
    <glyph glyph-name="uni0327" unicode="&#x327;" horiz-adv-x="0" 
d="M-127 -58q23 -21 23 -58q0 -45 -33 -74.5t-92 -29.5q-53 0 -90 23l31 61q20 -11 44 -11q17 0 27 10t10 25q0 11 -6.5 17t-16.5 6q-15 0 -28 -13l-26 21l45 110h72l-21 -66h4q34 0 57 -21z" />
    <glyph glyph-name="uni0328" unicode="&#x328;" horiz-adv-x="0" 
d="M-183 -19q-20 -20 -20 -54q0 -23 15.5 -36t41.5 -13q14 0 39 6l-8 -90q-38 -14 -83 -14q-48 0 -80 30.5t-32 75.5q0 65 46 111t124 54l4 -43q-27 -7 -47 -27z" />
    <glyph glyph-name="tonos" unicode="&#x384;" horiz-adv-x="358" 
d="M218 585h-122l84 175h198z" />
    <glyph glyph-name="dieresistonos" unicode="&#x385;" horiz-adv-x="620" 
d="M334 817h169l-135 -231h-98zM134.5 634.5q-23.5 23.5 -23.5 56.5q0 34 23.5 57t56.5 23t56 -23t23 -57q0 -33 -23.5 -56.5t-55.5 -23.5q-33 0 -56.5 23.5zM494.5 634.5q-23.5 23.5 -23.5 56.5q0 34 23.5 57t56.5 23t56 -23t23 -57q0 -33 -23.5 -56.5t-55.5 -23.5
q-33 0 -56.5 23.5z" />
    <glyph glyph-name="Alphatonos" unicode="&#x386;" horiz-adv-x="666" 
d="M401 96h-166l-31 -96h-246l315 760h261l100 -760h-229zM394 254l-13 300l-96 -300h109zM-18 760h198l-160 -175h-122z" />
    <glyph glyph-name="anoteleia" unicode="&#x387;" horiz-adv-x="319" 
d="M105.5 343.5q-31.5 31.5 -31.5 76.5q0 44 31.5 76t76.5 32t76.5 -32t31.5 -76q0 -45 -31.5 -76.5t-76.5 -31.5t-76.5 31.5z" />
    <glyph glyph-name="Epsilontonos" unicode="&#x388;" horiz-adv-x="510" 
d="M323 576l-13 -95h183l-25 -175h-183l-17 -122h196l-27 -184h-424l107 760h425l-26 -184h-196zM-128 760h198l-160 -175h-122z" />
    <glyph glyph-name="Etatonos" unicode="&#x389;" horiz-adv-x="685" 
d="M705 760l-107 -760h-229l42 299h-127l-42 -299h-229l107 760h229l-39 -277h127l39 277h229zM-128 760h198l-160 -175h-122z" />
    <glyph glyph-name="Iotatonos" unicode="&#x38a;" horiz-adv-x="329" 
d="M120 760h229l-107 -760h-229zM-128 760h198l-160 -175h-122z" />
    <glyph glyph-name="Omicrontonos" unicode="&#x38c;" horiz-adv-x="744" 
d="M177 26.5q-66 41.5 -101 116t-35 169.5q0 124 49.5 230t141.5 169.5t212 63.5q90 0 156.5 -42t101.5 -116.5t35 -170.5q0 -122 -50 -228t-142 -169.5t-212 -63.5q-90 0 -156 41.5zM438.5 232q31.5 37 46.5 93t15 112q0 128 -82 128q-46 0 -78 -37.5t-47 -93.5t-15 -112
q0 -127 83 -127q46 0 77.5 37zM-78 760h198l-160 -175h-122z" />
    <glyph glyph-name="Upsilontonos" unicode="&#x38e;" horiz-adv-x="628" 
d="M713 760l-417 -760h-239l173 316l-170 444h235l54 -226l124 226h240zM-188 760h198l-160 -175h-122z" />
    <glyph glyph-name="Omegatonos" unicode="&#x38f;" horiz-adv-x="748" 
d="M705 319q-43 -81 -124 -135h122l-27 -184h-311l36 237q50 27 76.5 87t26.5 127q0 56 -24 85t-64 29q-42 0 -71 -29t-43 -75t-14 -96q0 -42 15.5 -76t42.5 -52l-36 -237h-311l27 184h120q-45 41 -68.5 97t-23.5 115q0 114 51.5 200t140.5 132.5t199 46.5q92 0 160.5 -35.5
t105.5 -97.5t37 -139q0 -103 -43 -184zM-88 760h198l-160 -175h-122z" />
    <glyph glyph-name="iotadieresistonos" unicode="&#x390;" horiz-adv-x="365" 
d="M85.5 23.5q-46.5 38.5 -46.5 129.5q0 29 8 89l35 278h220l-37 -289q-3 -21 -3 -28q0 -27 12 -38t52 -11h14l-13 -161q-42 -8 -92 -8q-103 0 -149.5 38.5zM177 817h169l-135 -231h-98zM-22.5 634.5q-23.5 23.5 -23.5 56.5q0 34 23.5 57t56.5 23t56 -23t23 -57
q0 -33 -23.5 -56.5t-55.5 -23.5q-33 0 -56.5 23.5zM337.5 634.5q-23.5 23.5 -23.5 56.5q0 34 23.5 57t56.5 23t56 -23t23 -57q0 -33 -23.5 -56.5t-55.5 -23.5q-33 0 -56.5 23.5z" />
    <glyph glyph-name="Alpha" unicode="&#x391;" horiz-adv-x="666" 
d="M401 96h-166l-31 -96h-246l315 760h261l100 -760h-229zM394 254l-13 300l-96 -300h109z" />
    <glyph glyph-name="Beta" unicode="&#x392;" horiz-adv-x="607" 
d="M565.5 348.5q23.5 -36.5 23.5 -85.5q0 -78 -35 -137.5t-98 -92.5t-144 -33h-299l107 760h295q63 0 108 -23t68 -61.5t23 -84.5q0 -61 -30 -111t-84 -76q42 -19 65.5 -55.5zM382.5 489.5q16.5 24.5 16.5 63.5q0 24 -12.5 36.5t-41.5 12.5h-27l-20 -137h33q35 0 51.5 24.5z
M354 196q19 30 19 70q0 27 -12.5 43t-36.5 16h-45l-23 -159h47q32 0 51 30z" />
    <glyph glyph-name="Gamma" unicode="&#x393;" horiz-adv-x="481" 
d="M244 0h-230l106 760h411l-30 -184h-177z" />
    <glyph glyph-name="uni0394" unicode="&#x394;" horiz-adv-x="711" 
d="M679 0h-721l336 760h261zM429 158l-34 393l-145 -393h179z" />
    <glyph glyph-name="Epsilon" unicode="&#x395;" horiz-adv-x="510" 
d="M323 576l-13 -95h183l-25 -175h-183l-17 -122h196l-27 -184h-424l107 760h425l-26 -184h-196z" />
    <glyph glyph-name="Zeta" unicode="&#x396;" horiz-adv-x="599" 
d="M322 184h249l-26 -184h-577l342 576h-218l26 184h546z" />
    <glyph glyph-name="Eta" unicode="&#x397;" horiz-adv-x="685" 
d="M705 760l-107 -760h-229l42 299h-127l-42 -299h-229l107 760h229l-39 -277h127l39 277h229z" />
    <glyph glyph-name="Theta" unicode="&#x398;" horiz-adv-x="744" 
d="M177 26.5q-66 41.5 -101 116t-35 169.5q0 124 49.5 230t141.5 169.5t212 63.5q90 0 156.5 -42t101.5 -116.5t35 -170.5q0 -122 -50 -228t-142 -169.5t-212 -63.5q-90 0 -156 41.5zM441 225q33 39 49 97.5t16 117.5q0 134 -87 134q-48 0 -81.5 -39t-49.5 -98t-16 -118
q0 -133 88 -133q48 0 81 39zM344 472h122l-30 -177h-122z" />
    <glyph glyph-name="Iota" unicode="&#x399;" horiz-adv-x="329" 
d="M120 760h229l-107 -760h-229z" />
    <glyph glyph-name="Kappa" unicode="&#x39a;" horiz-adv-x="644" 
d="M461 450l166 -450h-221l-83 285l-52 -63l-31 -222h-227l107 760h227l-31 -219l154 219h248z" />
    <glyph glyph-name="Lambda" unicode="&#x39b;" horiz-adv-x="680" 
d="M409 0l-33 544l-180 -544h-238l319 760h261l110 -760h-239z" />
    <glyph glyph-name="Mu" unicode="&#x39c;" horiz-adv-x="816" 
d="M807 760l-56 -760h-209l41 420l-168 -420h-89l-51 418l-76 -418h-208l155 760h226l46 -394l155 394h234z" />
    <glyph glyph-name="Nu" unicode="&#x39d;" horiz-adv-x="696" 
d="M715 760l-106 -760h-220l-96 424l-59 -424h-220l106 760h220l98 -412l57 412h220z" />
    <glyph glyph-name="Xi" unicode="&#x39e;" horiz-adv-x="613" 
d="M122 760h519l-30 -184h-519zM130 482h430l-28 -175h-429zM32 184h544l-28 -184h-545z" />
    <glyph glyph-name="Omicron" unicode="&#x39f;" horiz-adv-x="744" 
d="M177 26.5q-66 41.5 -101 116t-35 169.5q0 124 49.5 230t141.5 169.5t212 63.5q90 0 156.5 -42t101.5 -116.5t35 -170.5q0 -122 -50 -228t-142 -169.5t-212 -63.5q-90 0 -156 41.5zM438.5 232q31.5 37 46.5 93t15 112q0 128 -82 128q-46 0 -78 -37.5t-47 -93.5t-15 -112
q0 -127 83 -127q46 0 77.5 37z" />
    <glyph glyph-name="Pi" unicode="&#x3a0;" horiz-adv-x="691" 
d="M120 760h590l-106 -760h-230l80 576h-129l-81 -576h-230z" />
    <glyph glyph-name="Rho" unicode="&#x3a1;" horiz-adv-x="624" 
d="M522.5 729.5q53.5 -30.5 82 -82t28.5 -112.5q0 -102 -36.5 -176.5t-104.5 -114t-161 -39.5h-64l-29 -205h-225l107 760h277q72 0 125.5 -30.5zM378.5 419q27.5 39 27.5 91q0 75 -63 75h-23l-28 -205h16q43 0 70.5 39z" />
    <glyph glyph-name="Sigma" unicode="&#x3a3;" horiz-adv-x="583" 
d="M215 404l-140 356h555l-24 -184h-228l73 -170l-126 -222h237l-27 -184h-565z" />
    <glyph glyph-name="Tau" unicode="&#x3a4;" horiz-adv-x="558" 
d="M587 576h-149l-81 -576h-229l81 576h-149l25 184h528z" />
    <glyph glyph-name="Upsilon" unicode="&#x3a5;" horiz-adv-x="628" 
d="M713 760l-417 -760h-239l173 316l-170 444h235l54 -226l124 226h240z" />
    <glyph glyph-name="Phi" unicode="&#x3a6;" horiz-adv-x="854" 
d="M759.5 187q-89.5 -92 -243.5 -110l-11 -77h-228l10 74q-123 16 -184.5 87.5t-61.5 184.5q0 102 44.5 180t120.5 125.5t170 60.5l7 48h228l-6 -46q120 -16 182 -89.5t62 -188.5q0 -157 -89.5 -249zM266 282q15 -28 45 -41l41 300q-48 -7 -74.5 -60.5t-26.5 -121.5
q0 -49 15 -77zM610.5 298.5q28.5 48.5 28.5 116.5q0 47 -16.5 79t-42.5 45l-42 -300q44 11 72.5 59.5z" />
    <glyph glyph-name="Chi" unicode="&#x3a7;" horiz-adv-x="662" 
d="M467 384l158 -384h-237l-59 194l-111 -194h-260l282 401l-151 359h239l46 -186l101 186h262z" />
    <glyph glyph-name="Psi" unicode="&#x3a8;" horiz-adv-x="868" 
d="M903 760l-24 -176q-23 -171 -110.5 -269t-225.5 -104l-29 -211h-229l29 211q-70 4 -123 43t-82 106t-29 155q0 28 6 78l19 167h221l-28 -207q-3 -25 -3 -45q0 -43 13 -68.5t34 -33.5l49 354h228l-49 -355q37 4 56 39t28 102l29 214h220z" />
    <glyph glyph-name="uni03A9" unicode="&#x3a9;" horiz-adv-x="748" 
d="M705 319q-43 -81 -124 -135h122l-27 -184h-311l36 237q50 27 76.5 87t26.5 127q0 56 -24 85t-64 29q-42 0 -71 -29t-43 -75t-14 -96q0 -42 15.5 -76t42.5 -52l-36 -237h-311l27 184h120q-45 41 -68.5 97t-23.5 115q0 114 51.5 200t140.5 132.5t199 46.5q92 0 160.5 -35.5
t105.5 -97.5t37 -139q0 -103 -43 -184z" />
    <glyph glyph-name="Iotadieresis" unicode="&#x3aa;" horiz-adv-x="329" 
d="M120 760h229l-107 -760h-229zM81 866.5q-27 27.5 -27 65.5q0 39 27 66t65 27t65.5 -27t27.5 -66q0 -38 -27.5 -65.5t-65.5 -27.5t-65 27.5zM309.5 866.5q-27.5 27.5 -27.5 65.5q0 39 27.5 66t65.5 27t64.5 -27t26.5 -66q0 -38 -27 -65.5t-64 -27.5q-38 0 -65.5 27.5z" />
    <glyph glyph-name="Upsilondieresis" unicode="&#x3ab;" horiz-adv-x="628" 
d="M713 760l-417 -760h-239l173 316l-170 444h235l54 -226l124 226h240zM264 866.5q-27 27.5 -27 65.5q0 39 27 66t65 27t65.5 -27t27.5 -66q0 -38 -27.5 -65.5t-65.5 -27.5t-65 27.5zM492.5 866.5q-27.5 27.5 -27.5 65.5q0 39 27.5 66t65.5 27t64.5 -27t26.5 -66
q0 -38 -27 -65.5t-64 -27.5q-38 0 -65.5 27.5z" />
    <glyph glyph-name="alphatonos" unicode="&#x3ac;" horiz-adv-x="642" 
d="M612 154l-13 -162q-38 -7 -82 -7q-69 0 -101.5 22t-48.5 74q-4 15 -5 25q-65 -121 -176 -121q-43 0 -78.5 26.5t-56 76.5t-20.5 118q0 108 31.5 182.5t83 110.5t110.5 36q54 0 85 -30t43 -76l12 91h215l-43 -321q-1 -10 -1 -22q0 -13 8 -18t23 -5h14zM347.5 192.5
q19.5 36.5 19.5 88.5q0 38 -11 60t-32 22q-28 0 -48.5 -36.5t-20.5 -87.5q0 -38 12 -60.5t33 -22.5q28 0 47.5 36.5zM401 585h-122l84 175h198z" />
    <glyph glyph-name="epsilontonos" unicode="&#x3ad;" horiz-adv-x="561" 
d="M68.5 22.5q-51.5 37.5 -51.5 98.5q0 48 29.5 87t92.5 57v3q-43 9 -65.5 34t-22.5 58q0 42 29 82.5t87.5 66.5t142.5 26q88 0 149.5 -42t75.5 -114l-213 -45q-3 15 -16.5 24t-32.5 9q-16 0 -27 -8t-11 -22q0 -27 46 -27h35l-14 -95h-32q-28 0 -40 -11t-12 -26
q0 -13 11 -20.5t28 -7.5q29 0 52 16.5t28 37.5l204 -13q-27 -103 -114 -154.5t-206 -51.5q-101 0 -152.5 37.5zM360 585h-122l84 175h198z" />
    <glyph glyph-name="etatonos" unicode="&#x3ae;" horiz-adv-x="607" 
d="M544.5 490q32.5 -45 32.5 -118q0 -35 -5 -74l-71 -503h-222l67 473q5 38 5 55q0 51 -28 51q-16 0 -30.5 -26.5t-22.5 -77.5l-38 -270h-222l72 520h199l10 -63q57 78 158 78q63 0 95.5 -45zM397 585h-122l84 175h198z" />
    <glyph glyph-name="iotatonos" unicode="&#x3af;" horiz-adv-x="365" 
d="M85.5 23.5q-46.5 38.5 -46.5 129.5q0 29 8 89l35 278h220l-37 -289q-3 -21 -3 -28q0 -27 12 -38t52 -11h14l-13 -161q-42 -8 -92 -8q-103 0 -149.5 38.5zM238 585h-122l84 175h198z" />
    <glyph glyph-name="upsilondieresistonos" unicode="&#x3b0;" 
d="M100.5 32.5q-64.5 47.5 -64.5 156.5q0 19 5 61l36 270h222l-38 -284q-3 -19 -3 -39q0 -21 8.5 -31.5t21.5 -10.5q21 0 30.5 23t14.5 60l39 282h222l-40 -286q-17 -122 -95.5 -185.5t-187.5 -63.5q-106 0 -170.5 47.5zM322 817h169l-135 -231h-98zM122.5 634.5
q-23.5 23.5 -23.5 56.5q0 34 23.5 57t56.5 23t56 -23t23 -57q0 -33 -23.5 -56.5t-55.5 -23.5q-33 0 -56.5 23.5zM482.5 634.5q-23.5 23.5 -23.5 56.5q0 34 23.5 57t56.5 23t56 -23t23 -57q0 -33 -23.5 -56.5t-55.5 -23.5q-33 0 -56.5 23.5z" />
    <glyph glyph-name="alpha" unicode="&#x3b1;" horiz-adv-x="642" 
d="M612 154l-13 -162q-38 -7 -82 -7q-69 0 -101.5 22t-48.5 74q-4 15 -5 25q-65 -121 -176 -121q-43 0 -78.5 26.5t-56 76.5t-20.5 118q0 108 31.5 182.5t83 110.5t110.5 36q54 0 85 -30t43 -76l12 91h215l-43 -321q-1 -10 -1 -22q0 -13 8 -18t23 -5h14zM347.5 192.5
q19.5 36.5 19.5 88.5q0 38 -11 60t-32 22q-28 0 -48.5 -36.5t-20.5 -87.5q0 -38 12 -60.5t33 -22.5q28 0 47.5 36.5z" />
    <glyph glyph-name="beta" unicode="&#x3b2;" horiz-adv-x="633" 
d="M82 487q19 137 95 212.5t203 75.5q101 0 156 -45t55 -116q0 -55 -26 -103t-99 -63q74 -23 103 -74t29 -119q0 -73 -28.5 -134.5t-79 -98.5t-115.5 -37q-47 0 -81.5 24t-48.5 68l-40 -282h-220zM365.5 192.5q15.5 35.5 15.5 86.5q0 43 -15 63.5t-52 20.5h-5l18 136h3
q18 0 27.5 23t9.5 43q0 16 -6 27t-20 11q-28 0 -36 -57l-38 -293q-1 -7 -1 -18q0 -37 13 -57.5t35 -20.5q36 0 51.5 35.5z" />
    <glyph glyph-name="gamma" unicode="&#x3b3;" horiz-adv-x="575" 
d="M612 520l-247 -494l-34 -231h-219l34 229l-109 496h230l16 -314l103 314h226z" />
    <glyph glyph-name="delta" unicode="&#x3b4;" horiz-adv-x="614" 
d="M139 14.5q-53 29.5 -80.5 81.5t-27.5 118q0 80 24.5 147.5t90.5 99.5q40 20 101 28l-119 150l20 121h466l-25 -160h-160l92 -119q34 -44 48.5 -87t14.5 -92q0 -100 -40.5 -171.5t-112 -108.5t-165.5 -37q-74 0 -127 29.5zM328 173q16 16 26.5 45.5t10.5 67.5q0 78 -46 78
q-15 0 -31.5 -17.5t-27.5 -48t-11 -67.5q0 -35 14 -54.5t32 -19.5q17 0 33 16z" />
    <glyph glyph-name="epsilon" unicode="&#x3b5;" horiz-adv-x="561" 
d="M68.5 22.5q-51.5 37.5 -51.5 98.5q0 48 29.5 87t92.5 57v3q-43 9 -65.5 34t-22.5 58q0 42 29 82.5t87.5 66.5t142.5 26q88 0 149.5 -42t75.5 -114l-213 -45q-3 15 -16.5 24t-32.5 9q-16 0 -27 -8t-11 -22q0 -27 46 -27h35l-14 -95h-32q-28 0 -40 -11t-12 -26
q0 -13 11 -20.5t28 -7.5q29 0 52 16.5t28 37.5l204 -13q-27 -103 -114 -154.5t-206 -51.5q-101 0 -152.5 37.5z" />
    <glyph glyph-name="zeta" unicode="&#x3b6;" horiz-adv-x="472" 
d="M151 -128q20 29 33.5 56.5t13.5 38.5q0 7 -7 14t-24 19l-24 17q-68 49 -95 84t-27 82q0 99 82 211t201 206h-199l36 160h421l-20 -123q-293 -311 -293 -400q0 -25 10 -42.5t34 -33.5l42 -28q40 -27 61 -49.5t21 -49.5q0 -35 -42.5 -105.5t-92.5 -118.5z" />
    <glyph glyph-name="eta" unicode="&#x3b7;" horiz-adv-x="607" 
d="M544.5 490q32.5 -45 32.5 -118q0 -35 -5 -74l-71 -503h-222l67 473q5 38 5 55q0 51 -28 51q-16 0 -30.5 -26.5t-22.5 -77.5l-38 -270h-222l72 520h199l10 -63q57 78 158 78q63 0 95.5 -45z" />
    <glyph glyph-name="theta" unicode="&#x3b8;" horiz-adv-x="625" 
d="M617 478q0 -139 -40 -251t-117 -177t-183 -65q-126 0 -180.5 78t-54.5 218q0 138 39.5 250.5t116 178t181.5 65.5q238 0 238 -297zM311 566.5q-21 -38.5 -35 -102.5h127q1 12 1 34q0 56 -11 81.5t-33 25.5q-28 0 -49 -38.5zM346 196q22 41 37 108h-127q-1 -13 -1 -39
q0 -57 10 -83.5t31 -26.5q28 0 50 41z" />
    <glyph glyph-name="iota" unicode="&#x3b9;" horiz-adv-x="365" 
d="M85.5 23.5q-46.5 38.5 -46.5 129.5q0 29 8 89l35 278h220l-37 -289q-3 -21 -3 -28q0 -27 12 -38t52 -11h14l-13 -161q-42 -8 -92 -8q-103 0 -149.5 38.5z" />
    <glyph glyph-name="kappa" unicode="&#x3ba;" horiz-adv-x="581" 
d="M405 322l144 -322h-210l-73 183l-17 -17l-23 -166h-216l72 520h216l-17 -123l80 123h241z" />
    <glyph glyph-name="lambda" unicode="&#x3bb;" horiz-adv-x="559" 
d="M543 145l-9 -135q-60 -25 -113 -25q-47 0 -74.5 11t-42 39t-18.5 82l-12 173l-103 -290h-223l272 522l-2 34q-2 31 -16 40.5t-48 9.5h-16l12 160q68 9 112 9q79 0 123 -44.5t58 -150.5l52 -397q3 -23 11 -30.5t25 -7.5h12z" />
    <glyph glyph-name="uni03BC" unicode="&#x3bc;" horiz-adv-x="605" 
d="M596 520l-73 -520h-197l-9 65q-36 -48 -87 -68l-29 -202h-222l87 598l18 127h220l-13 -92l-1 -9l-27 -189q-4 -32 -4 -46q0 -39 29 -39q20 0 31 25t19 80l38 270h220z" />
    <glyph glyph-name="nu" unicode="&#x3bd;" horiz-adv-x="551" 
d="M602 520l-254 -520h-221l-106 520h226l10 -342l106 342h239z" />
    <glyph glyph-name="xi" unicode="&#x3be;" horiz-adv-x="509" 
d="M201 -127q50 62 50 98q0 10 -8 20t-20 16l-77 40q-60 31 -92.5 71.5t-32.5 97.5q0 76 51 129t139 71q-63 8 -99.5 50t-36.5 98q0 61 35.5 109t95 75t128.5 27q63 0 112 -24.5t76 -69.5t26 -106l-195 -22q-3 51 -29 51q-14 0 -21 -14.5t-7 -39.5q0 -36 20 -54.5t69 -18.5
h41l-23 -147h-87q-34 0 -52 -17t-18 -44q0 -25 10.5 -43t35.5 -32l116 -64q57 -31 57 -83q0 -46 -43.5 -119.5t-85.5 -117.5z" />
    <glyph glyph-name="omicron" unicode="&#x3bf;" horiz-adv-x="611" 
d="M87.5 49q-57.5 64 -57.5 165q0 94 37 166.5t108 113.5t169 41q121 0 179 -64.5t58 -165.5q0 -94 -37 -166.5t-108 -113t-170 -40.5q-121 0 -178.5 64zM343.5 201q18.5 46 18.5 98q0 66 -42 66q-35 0 -53 -46t-18 -98q0 -66 42 -66q34 0 52.5 46z" />
    <glyph glyph-name="pi" unicode="&#x3c0;" horiz-adv-x="602" 
d="M82 520h508l-70 -520h-222l48 354h-65l-51 -354h-222z" />
    <glyph glyph-name="rho" unicode="&#x3c1;" horiz-adv-x="616" 
d="M474 28.5q53 43.5 82.5 117t29.5 161.5q0 65 -26.5 117t-79 81.5t-129.5 29.5q-74 0 -140.5 -33.5t-114 -103.5t-61.5 -174l-60 -429h220l38 283q15 -49 51.5 -71t69.5 -22q67 0 120 43.5zM349 342.5q13 -22.5 13 -58.5q0 -55 -20 -92t-48 -37q-19 0 -31.5 22t-12.5 59
q0 65 20.5 97t44.5 32q21 0 34 -22.5z" />
    <glyph glyph-name="uni03C2" unicode="&#x3c2;" horiz-adv-x="566" 
d="M187 -127q23 31 36 57.5t13 38.5q0 11 -6.5 19t-21.5 16l-53 28q-64 34 -93.5 83.5t-29.5 118.5q0 85 37.5 154t106 108t155.5 39q107 0 170 -55.5t63 -160.5l-209 -19q-2 34 -15 49.5t-29 15.5q-29 0 -44 -28t-15 -67q0 -32 10 -51t39 -36l93 -55q32 -19 44 -36.5
t12 -42.5q0 -48 -42.5 -121.5t-85.5 -117.5z" />
    <glyph glyph-name="sigma" unicode="&#x3c3;" horiz-adv-x="596" 
d="M132.5 15q-51.5 30 -77.5 81t-26 114q0 84 36 154.5t107 113t171 42.5h280l-26 -166h-110q28 -13 42.5 -47t14.5 -71q0 -66 -34 -123.5t-99 -92.5t-154 -35q-73 0 -124.5 30zM330.5 189.5q16.5 34.5 16.5 89.5q0 34 -11.5 55t-31.5 21q-26 0 -44.5 -35t-18.5 -88
q0 -35 11.5 -56t31.5 -21q30 0 46.5 34.5z" />
    <glyph glyph-name="tau" unicode="&#x3c4;" horiz-adv-x="481" 
d="M141.5 22q-41.5 37 -41.5 119q0 32 6 77l19 136h-112l37 166h453l-26 -166h-130l-17 -124l-2 -26q0 -29 10 -39.5t38 -10.5q25 0 50 6l-14 -162q-24 -5 -62.5 -9t-70.5 -4q-96 0 -137.5 37z" />
    <glyph glyph-name="upsilon" unicode="&#x3c5;" 
d="M100.5 32.5q-64.5 47.5 -64.5 156.5q0 19 5 61l36 270h222l-38 -284q-3 -19 -3 -39q0 -21 8.5 -31.5t21.5 -10.5q21 0 30.5 23t14.5 60l39 282h222l-40 -286q-17 -122 -95.5 -185.5t-187.5 -63.5q-106 0 -170.5 47.5z" />
    <glyph glyph-name="phi" unicode="&#x3c6;" horiz-adv-x="805" 
d="M254 -12q-78 8 -128.5 43.5t-73 86.5t-22.5 106q0 95 50.5 173.5t156.5 104.5l41 -127q-48 -51 -48 -136q0 -39 11.5 -66.5t32.5 -37.5l53 385h136q159 0 235.5 -62t76.5 -163q0 -87 -42 -154.5t-110.5 -106.5t-147.5 -46l-26 -193h-222zM524.5 164q18.5 17 33.5 46
t15 67t-12.5 65t-32.5 33l-32 -232q10 4 28.5 21z" />
    <glyph glyph-name="chi" unicode="&#x3c7;" horiz-adv-x="527" 
d="M276 -187q-35 33 -40 93l-12 149l-88 -260h-221l223 385l-32 135q-8 33 -21.5 45.5t-45.5 12.5h-6l11 152q23 4 54.5 7t52.5 3q64 0 102 -31t39 -103l1 -109l79 228h222l-207 -346l35 -183q4 -23 15 -30t41 -7h6l-7 -151q-55 -23 -118 -23q-48 0 -83 33z" />
    <glyph glyph-name="psi" unicode="&#x3c8;" horiz-adv-x="817" 
d="M261 -13q-58 3 -108 35.5t-80 90.5t-30 133q0 27 7 78l27 196h209l-36 -262q-3 -24 -3 -60q0 -24 12 -36.5t26 -12.5l50 371h219l-51 -371q52 6 63 97l36 274h209l-31 -236q-11 -84 -51 -151.5t-104.5 -106.5t-145.5 -40l-28 -191h-218z" />
    <glyph glyph-name="omega" unicode="&#x3c9;" horiz-adv-x="790" 
d="M67 38q-37 53 -37 147q0 84 26.5 161.5t96.5 132t191 56.5l1 -155q-47 -7 -71 -59t-24 -116q0 -53 23 -53q10 0 18 9t11 32l16 132h166l-11 -92q-4 -28 -4 -44q0 -18 5.5 -27.5t14.5 -9.5q20 0 33 34t13 92q0 41 -14.5 69.5t-45.5 32.5l48 155q123 -2 177.5 -71
t54.5 -173q0 -81 -28.5 -150.5t-85.5 -112.5t-140 -43q-27 0 -56.5 14.5t-51 47t-21.5 82.5q-24 -69 -75.5 -106.5t-106.5 -37.5q-86 0 -123 53z" />
    <glyph glyph-name="iotadieresis" unicode="&#x3ca;" horiz-adv-x="365" 
d="M85.5 23.5q-46.5 38.5 -46.5 129.5q0 29 8 89l35 278h220l-37 -289q-3 -21 -3 -28q0 -27 12 -38t52 -11h14l-13 -161q-42 -8 -92 -8q-103 0 -149.5 38.5zM35 626.5q-27 27.5 -27 65.5q0 39 27 66t65 27t65.5 -27t27.5 -66q0 -38 -27.5 -65.5t-65.5 -27.5t-65 27.5z
M263.5 626.5q-27.5 27.5 -27.5 65.5q0 39 27.5 66t65.5 27t64.5 -27t26.5 -66q0 -38 -27 -65.5t-64 -27.5q-38 0 -65.5 27.5z" />
    <glyph glyph-name="upsilondieresis" unicode="&#x3cb;" 
d="M100.5 32.5q-64.5 47.5 -64.5 156.5q0 19 5 61l36 270h222l-38 -284q-3 -19 -3 -39q0 -21 8.5 -31.5t21.5 -10.5q21 0 30.5 23t14.5 60l39 282h222l-40 -286q-17 -122 -95.5 -185.5t-187.5 -63.5q-106 0 -170.5 47.5zM180 626.5q-27 27.5 -27 65.5q0 39 27 66t65 27
t65.5 -27t27.5 -66q0 -38 -27.5 -65.5t-65.5 -27.5t-65 27.5zM408.5 626.5q-27.5 27.5 -27.5 65.5q0 39 27.5 66t65.5 27t64.5 -27t26.5 -66q0 -38 -27 -65.5t-64 -27.5q-38 0 -65.5 27.5z" />
    <glyph glyph-name="omicrontonos" unicode="&#x3cc;" horiz-adv-x="611" 
d="M87.5 49q-57.5 64 -57.5 165q0 94 37 166.5t108 113.5t169 41q121 0 179 -64.5t58 -165.5q0 -94 -37 -166.5t-108 -113t-170 -40.5q-121 0 -178.5 64zM343.5 201q18.5 46 18.5 98q0 66 -42 66q-35 0 -53 -46t-18 -98q0 -66 42 -66q34 0 52.5 46zM418 585h-122l84 175h198
z" />
    <glyph glyph-name="upsilontonos" unicode="&#x3cd;" 
d="M100.5 32.5q-64.5 47.5 -64.5 156.5q0 19 5 61l36 270h222l-38 -284q-3 -19 -3 -39q0 -21 8.5 -31.5t21.5 -10.5q21 0 30.5 23t14.5 60l39 282h222l-40 -286q-17 -122 -95.5 -185.5t-187.5 -63.5q-106 0 -170.5 47.5zM383 585h-122l84 175h198z" />
    <glyph glyph-name="omegatonos" unicode="&#x3ce;" horiz-adv-x="790" 
d="M67 38q-37 53 -37 147q0 84 26.5 161.5t96.5 132t191 56.5l1 -155q-47 -7 -71 -59t-24 -116q0 -53 23 -53q10 0 18 9t11 32l16 132h166l-11 -92q-4 -28 -4 -44q0 -18 5.5 -27.5t14.5 -9.5q20 0 33 34t13 92q0 41 -14.5 69.5t-45.5 32.5l48 155q123 -2 177.5 -71
t54.5 -173q0 -81 -28.5 -150.5t-85.5 -112.5t-140 -43q-27 0 -56.5 14.5t-51 47t-21.5 82.5q-24 -69 -75.5 -106.5t-106.5 -37.5q-86 0 -123 53zM482 585h-122l84 175h198z" />
    <glyph glyph-name="uni0400" unicode="&#x400;" horiz-adv-x="510" 
d="M323 576l-13 -95h183l-25 -175h-183l-17 -122h196l-27 -184h-424l107 760h425l-26 -184h-196zM319 1001l84 -174h-127l-146 174h189z" />
    <glyph glyph-name="uni0401" unicode="&#x401;" horiz-adv-x="510" 
d="M323 576l-13 -95h183l-25 -175h-183l-17 -122h196l-27 -184h-424l107 760h425l-26 -184h-196zM180 866.5q-27 27.5 -27 65.5q0 39 27 66t65 27t65.5 -27t27.5 -66q0 -38 -27.5 -65.5t-65.5 -27.5t-65 27.5zM408.5 866.5q-27.5 27.5 -27.5 65.5q0 39 27.5 66t65.5 27
t64.5 -27t26.5 -66q0 -38 -27 -65.5t-64 -27.5q-38 0 -65.5 27.5z" />
    <glyph glyph-name="uni0402" unicode="&#x402;" horiz-adv-x="743" 
d="M615 432q51 -28 75.5 -73t24.5 -97q0 -81 -36 -144t-101 -98t-148 -35l4 158q29 9 40.5 34t11.5 53q0 22 -12.5 34t-31.5 12h-62l-39 -276h-228l81 576h-135l29 184h559l-29 -184h-196l-16 -116h81q77 0 128 -28z" />
    <glyph glyph-name="uni0403" unicode="&#x403;" horiz-adv-x="476" 
d="M503 576h-180l-80 -576h-229l106 760h411zM396 827h-127l84 174h189z" />
    <glyph glyph-name="uni0404" unicode="&#x404;" horiz-adv-x="734" 
d="M189 28.5q-71 43.5 -109 120t-38 171.5q0 129 52.5 233t142.5 163t198 59q88 0 155 -44.5t103 -116.5t37 -152l-216 -5q-9 117 -93 117q-48 0 -84 -35t-56 -94h199l-20 -130h-198q2 -63 25.5 -96t69.5 -33q47 0 82 33.5t55 93.5l216 -29q-44 -141 -138 -220t-219 -79
q-93 0 -164 43.5z" />
    <glyph glyph-name="uni0405" unicode="&#x405;" horiz-adv-x="642" 
d="M105.5 42.5q-66.5 57.5 -79.5 161.5q-2 16 -2 24l240 16v-18q0 -35 12 -55t37 -20q27 0 42 21t15 51q0 31 -36 46l-68 28q-79 32 -134 87t-55 136q0 76 39 134t108.5 89.5t157.5 31.5q133 0 193.5 -63.5t63.5 -165.5l-240 -16q3 18 3 29q0 52 -37 52q-22 0 -35 -16.5
t-13 -42.5q0 -37 48 -57l73 -30q83 -34 128 -83t45 -119q0 -85 -41 -148t-113 -96.5t-165 -33.5q-120 0 -186.5 57.5z" />
    <glyph glyph-name="uni0406" unicode="&#x406;" horiz-adv-x="329" 
d="M120 760h229l-107 -760h-229z" />
    <glyph glyph-name="uni0407" unicode="&#x407;" horiz-adv-x="329" 
d="M120 760h229l-107 -760h-229zM81 866.5q-27 27.5 -27 65.5q0 39 27 66t65 27t65.5 -27t27.5 -66q0 -38 -27.5 -65.5t-65.5 -27.5t-65 27.5zM309.5 866.5q-27.5 27.5 -27.5 65.5q0 39 27.5 66t65.5 27t64.5 -27t26.5 -66q0 -38 -27 -65.5t-64 -27.5q-38 0 -65.5 27.5z" />
    <glyph glyph-name="uni0408" unicode="&#x408;" horiz-adv-x="645" 
d="M147.5 19.5q-55.5 34.5 -88 99t-32.5 151.5l230 15v-15q0 -38 13.5 -56.5t34.5 -18.5q29 0 46 24.5t25 77.5l65 463h229l-64 -454q-24 -171 -109 -246t-224 -75q-70 0 -125.5 34.5z" />
    <glyph glyph-name="uni0409" unicode="&#x409;" horiz-adv-x="1020" 
d="M890 514.5q53 -31.5 80.5 -84t27.5 -115.5q0 -100 -37 -171t-103.5 -107.5t-154.5 -36.5h-292l75 538l-277 -538h-241l444 760h333l-30 -214h49q73 0 126 -31.5zM744.5 213.5q24.5 38.5 24.5 87.5q0 70 -58 70h-20l-28 -196h14q43 0 67.5 38.5z" />
    <glyph glyph-name="uni040A" unicode="&#x40a;" horiz-adv-x="955" 
d="M825 514.5q53 -31.5 80.5 -84t27.5 -115.5q0 -100 -37 -171t-103.5 -107.5t-154.5 -36.5h-292l42 299h-103l-42 -299h-229l106 760h229l-39 -277h103l39 277h228l-30 -214h49q73 0 126 -31.5zM679.5 213.5q24.5 38.5 24.5 87.5q0 70 -58 70h-20l-28 -196h14
q43 0 67.5 38.5z" />
    <glyph glyph-name="uni040B" unicode="&#x40b;" horiz-adv-x="764" 
d="M605 432.5q55 -27.5 86.5 -78t31.5 -117.5q0 -33 -3 -54l-23 -183h-229l22 174q5 35 5 53q0 25 -13.5 37t-43.5 12h-57l-38 -276h-230l81 576h-135l29 184h559l-29 -184h-195l-16 -116h75q68 0 123 -27.5z" />
    <glyph glyph-name="uni040C" unicode="&#x40c;" horiz-adv-x="644" 
d="M461 450l166 -450h-221l-83 285l-52 -63l-31 -222h-227l107 760h227l-31 -219l154 219h248zM457 827h-127l84 174h189z" />
    <glyph glyph-name="uni040D" unicode="&#x40d;" horiz-adv-x="696" 
d="M715 760l-106 -760h-220l58 418l-213 -418h-220l106 760h220l-57 -410l212 410h220zM401 1001l84 -174h-127l-146 174h189z" />
    <glyph glyph-name="uni040E" unicode="&#x40e;" horiz-adv-x="639" 
d="M719 760l-401 -760h-242l127 241l-143 519h230l48 -264l139 264h242zM296 882q-40 45 -36 133h109q-1 -6 -1 -17q0 -30 11.5 -43.5t28.5 -13.5q23 0 35 18t17 56h109q-11 -94 -56 -136t-114 -42q-63 0 -103 45z" />
    <glyph glyph-name="uni040F" unicode="&#x40f;" horiz-adv-x="682" 
d="M595 0h-190l-32 -160h-180l13 160h-192l106 760h228l-80 -576h125l80 576h228z" />
    <glyph glyph-name="uni0410" unicode="&#x410;" horiz-adv-x="666" 
d="M401 96h-166l-31 -96h-246l315 760h261l100 -760h-229zM394 254l-13 300l-96 -300h109z" />
    <glyph glyph-name="uni0411" unicode="&#x411;" horiz-adv-x="614" 
d="M480.5 470q52.5 -28 80.5 -76t28 -107q0 -88 -39 -153t-106 -99.5t-148 -34.5h-282l106 760h482l-29 -180h-250l-12 -82h47q70 0 122.5 -28zM338 212.5q22 28.5 22 73.5q0 24 -10.5 37t-42.5 13h-18l-21 -152h14q34 0 56 28.5z" />
    <glyph glyph-name="uni0412" unicode="&#x412;" horiz-adv-x="607" 
d="M565.5 348.5q23.5 -36.5 23.5 -85.5q0 -78 -35 -137.5t-98 -92.5t-144 -33h-299l107 760h295q63 0 108 -23t68 -61.5t23 -84.5q0 -61 -30 -111t-84 -76q42 -19 65.5 -55.5zM382.5 489.5q16.5 24.5 16.5 63.5q0 24 -12.5 36.5t-41.5 12.5h-27l-20 -137h33q35 0 51.5 24.5z
M354 196q19 30 19 70q0 27 -12.5 43t-36.5 16h-45l-23 -159h47q32 0 51 30z" />
    <glyph glyph-name="uni0413" unicode="&#x413;" horiz-adv-x="476" 
d="M503 576h-180l-80 -576h-229l106 760h411z" />
    <glyph glyph-name="uni0414" unicode="&#x414;" horiz-adv-x="696" 
d="M680 184l-45 -324h-182l11 140h-303l-30 -140h-182l45 324h53l239 576h260l77 -576h57zM405 184l-18 316l-107 -316h125z" />
    <glyph glyph-name="uni0415" unicode="&#x415;" horiz-adv-x="510" 
d="M323 576l-13 -95h183l-25 -175h-183l-17 -122h196l-27 -184h-424l107 760h425l-26 -184h-196z" />
    <glyph glyph-name="uni0416" unicode="&#x416;" horiz-adv-x="995" 
d="M778 442l175 -442h-227l-85 287l-33 -38l-35 -249h-220l37 267l-23 39l-154 -306h-245l291 489l-159 271h231l94 -244l34 244h220l-34 -246l147 246h266z" />
    <glyph glyph-name="uni0417" unicode="&#x417;" horiz-adv-x="587" 
d="M568 256q0 -132 -79 -201.5t-228 -69.5q-116 0 -185 54t-69 147q0 18 3 36l218 3q-2 -14 -2 -21q0 -24 12 -35.5t31 -11.5q30 0 49.5 32t19.5 72q0 30 -20 45t-70 15h-81l21 154h76q49 0 75 23.5t26 58.5q0 48 -45 48q-51 0 -66 -68l-208 17q18 102 93 161.5t211 59.5
q129 0 187.5 -52t58.5 -130q0 -63 -27.5 -111.5t-79.5 -78.5q79 -46 79 -147z" />
    <glyph glyph-name="uni0418" unicode="&#x418;" horiz-adv-x="696" 
d="M715 760l-106 -760h-220l58 418l-213 -418h-220l106 760h220l-57 -410l212 410h220z" />
    <glyph glyph-name="uni0419" unicode="&#x419;" horiz-adv-x="696" 
d="M715 760l-106 -760h-220l58 418l-213 -418h-220l106 760h220l-57 -410l212 410h220zM333 882q-40 45 -36 133h109q-1 -6 -1 -17q0 -30 11.5 -43.5t28.5 -13.5q23 0 35 18t17 56h109q-11 -94 -56 -136t-114 -42q-63 0 -103 45z" />
    <glyph glyph-name="uni041A" unicode="&#x41a;" horiz-adv-x="644" 
d="M461 450l166 -450h-221l-83 285l-52 -63l-31 -222h-227l107 760h227l-31 -219l154 219h248z" />
    <glyph glyph-name="uni041B" unicode="&#x41b;" horiz-adv-x="666" 
d="M406 0l-33 502l-171 -502h-244l314 760h261l101 -760h-228z" />
    <glyph glyph-name="uni041C" unicode="&#x41c;" horiz-adv-x="816" 
d="M807 760l-56 -760h-209l41 420l-168 -420h-89l-51 418l-76 -418h-208l155 760h226l46 -394l155 394h234z" />
    <glyph glyph-name="uni041D" unicode="&#x41d;" horiz-adv-x="685" 
d="M705 760l-107 -760h-229l42 299h-127l-42 -299h-229l107 760h229l-39 -277h127l39 277h229z" />
    <glyph glyph-name="uni041E" unicode="&#x41e;" horiz-adv-x="744" 
d="M177 26.5q-66 41.5 -101 116t-35 169.5q0 124 49.5 230t141.5 169.5t212 63.5q90 0 156.5 -42t101.5 -116.5t35 -170.5q0 -122 -50 -228t-142 -169.5t-212 -63.5q-90 0 -156 41.5zM438.5 232q31.5 37 46.5 93t15 112q0 128 -82 128q-46 0 -78 -37.5t-47 -93.5t-15 -112
q0 -127 83 -127q46 0 77.5 37z" />
    <glyph glyph-name="uni041F" unicode="&#x41f;" horiz-adv-x="682" 
d="M595 0h-228l80 576h-125l-80 -576h-228l106 760h581z" />
    <glyph glyph-name="uni0420" unicode="&#x420;" horiz-adv-x="624" 
d="M522.5 729.5q53.5 -30.5 82 -82t28.5 -112.5q0 -102 -36.5 -176.5t-104.5 -114t-161 -39.5h-64l-29 -205h-225l107 760h277q72 0 125.5 -30.5zM378.5 419q27.5 39 27.5 91q0 75 -63 75h-23l-28 -205h16q43 0 70.5 39z" />
    <glyph glyph-name="uni0421" unicode="&#x421;" horiz-adv-x="731" 
d="M653 692.5q76 -82.5 82 -227.5l-241 -17q0 57 -17.5 87t-58.5 30q-47 0 -79 -37t-47 -93.5t-15 -112.5q0 -127 84 -127q42 0 71 31.5t47 86.5l231 -18q-41 -144 -137.5 -227t-235.5 -83q-92 0 -159 40t-102 114t-35 173q0 124 49.5 230t141.5 169.5t212 63.5
q133 0 209 -82.5z" />
    <glyph glyph-name="uni0422" unicode="&#x422;" horiz-adv-x="558" 
d="M587 576h-149l-81 -576h-229l81 576h-149l25 184h528z" />
    <glyph glyph-name="uni0423" unicode="&#x423;" horiz-adv-x="639" 
d="M719 760l-401 -760h-242l127 241l-143 519h230l48 -264l139 264h242z" />
    <glyph glyph-name="uni0424" unicode="&#x424;" horiz-adv-x="860" 
d="M809.5 244.5q-44.5 -74.5 -121.5 -115t-173 -44.5l-14 -100h-220l14 100q-74 6 -131.5 38t-90.5 87.5t-33 128.5q0 102 44.5 176.5t121.5 115t173 44.5l14 100h220l-14 -100q74 -6 131.5 -38t90.5 -87.5t33 -128.5q0 -102 -44.5 -176.5zM609.5 316q24.5 39 24.5 100
q0 34 -14.5 53.5t-46.5 24.5l-32 -227q44 10 68.5 49zM274.5 290.5q14.5 -19.5 46.5 -24.5l32 227q-44 -10 -68.5 -49t-24.5 -100q0 -34 14.5 -53.5z" />
    <glyph glyph-name="uni0425" unicode="&#x425;" horiz-adv-x="672" 
d="M472 384l158 -384h-237l-59 194l-111 -194h-260l282 401l-151 359h239l46 -186l101 186h262z" />
    <glyph glyph-name="uni0426" unicode="&#x426;" horiz-adv-x="728" 
d="M717 184l-49 -324h-181l11 140h-484l106 760h228l-80 -576h120l80 576h228l-80 -576h101z" />
    <glyph glyph-name="uni0427" unicode="&#x427;" horiz-adv-x="637" 
d="M656 760l-106 -760h-229l34 246h-53q-60 0 -113.5 25t-87 75t-33.5 121q0 21 4 55l34 238h229l-33 -228q-4 -30 -4 -48q0 -54 52 -54h31l46 330h229z" />
    <glyph glyph-name="uni0428" unicode="&#x428;" horiz-adv-x="970" 
d="M989 760l-106 -760h-869l106 760h228l-80 -576h97l80 576h219l-80 -576h97l80 576h228z" />
    <glyph glyph-name="uni0429" unicode="&#x429;" horiz-adv-x="1022" 
d="M1011 184l-49 -324h-181l11 140h-778l106 760h228l-80 -576h97l80 576h219l-80 -576h97l80 576h228l-80 -576h102z" />
    <glyph glyph-name="uni042A" unicode="&#x42a;" horiz-adv-x="720" 
d="M590 514.5q53 -31.5 80.5 -84t27.5 -115.5q0 -100 -37 -171t-103.5 -107.5t-154.5 -36.5h-292l80 576h-132l29 184h357l-30 -214h49q73 0 126 -31.5zM444.5 213.5q24.5 38.5 24.5 87.5q0 70 -58 70h-20l-28 -196h14q43 0 67.5 38.5z" />
    <glyph glyph-name="uni042B" unicode="&#x42b;" horiz-adv-x="945" 
d="M493 514.5q53 -31.5 80.5 -84t27.5 -115.5q0 -100 -37 -171t-103.5 -107.5t-154.5 -36.5h-292l106 760h228l-30 -214h49q73 0 126 -31.5zM965 760l-107 -760h-228l106 760h229zM347.5 213.5q24.5 38.5 24.5 87.5q0 70 -58 70h-20l-28 -196h14q43 0 67.5 38.5z" />
    <glyph glyph-name="uni042C" unicode="&#x42c;" horiz-adv-x="623" 
d="M493 514.5q53 -31.5 80.5 -84t27.5 -115.5q0 -100 -37 -171t-103.5 -107.5t-154.5 -36.5h-292l106 760h228l-30 -214h49q73 0 126 -31.5zM347.5 213.5q24.5 38.5 24.5 87.5q0 70 -58 70h-20l-28 -196h14q43 0 67.5 38.5z" />
    <glyph glyph-name="uni042D" unicode="&#x42d;" horiz-adv-x="734" 
d="M579 731.5q71 -43.5 109 -120t38 -171.5q0 -129 -52.5 -233t-142.5 -163t-198 -59q-88 0 -155 44.5t-103 116.5t-37 152l216 5q9 -117 93 -117q48 0 84 35t56 94h-199l20 130h198q-2 63 -25.5 96t-69.5 33q-47 0 -82 -33.5t-55 -93.5l-216 29q44 141 138 220t219 79
q93 0 164 -43.5z" />
    <glyph glyph-name="uni042E" unicode="&#x42e;" horiz-adv-x="1016" 
d="M872 731q66 -44 101 -119.5t35 -167.5q0 -127 -47 -232t-133.5 -166t-200.5 -61q-86 0 -150.5 41.5t-100 113t-39.5 159.5h-52l-42 -299h-229l106 760h229l-39 -277h50q39 132 133 212t225 80q88 0 154 -44zM706.5 230q30.5 35 49 92t18.5 119q0 60 -19 92t-51 32
q-35 0 -65.5 -35t-49 -92t-18.5 -119q0 -60 19 -92t51 -32q35 0 65.5 35z" />
    <glyph glyph-name="uni042F" unicode="&#x42f;" horiz-adv-x="632" 
d="M545 0h-228l29 205h-2l-111 -205h-240l148 254q-38 30 -58.5 75.5t-20.5 102.5q0 102 38 175.5t109 113t168 39.5h274zM319 545.5q-27 -39.5 -27 -94.5q0 -71 58 -71h20l29 205h-14q-39 0 -66 -39.5z" />
    <glyph glyph-name="uni0430" unicode="&#x430;" horiz-adv-x="625" 
d="M616 520l-73 -520h-206l-2 78q-53 -93 -149 -93q-45 0 -81 24t-57 71t-21 114q0 82 27.5 161t79.5 129.5t120 50.5q53 0 85 -28t45 -71l12 84h220zM348 201q19 46 19 96q0 33 -11.5 50t-30.5 17q-34 0 -53 -46t-19 -95q0 -33 11 -50.5t31 -17.5q34 0 53 46z" />
    <glyph glyph-name="uni0431" unicode="&#x431;" horiz-adv-x="611" 
d="M528.5 447q51.5 -56 51.5 -147q0 -95 -37.5 -166.5t-106 -110t-158.5 -38.5q-113 0 -175 70t-62 200q0 52 8 102q26 163 82.5 249t125 114.5t159.5 32.5l177 8l-43 -172l-129 -3q-76 -2 -115.5 -29t-64.5 -100q64 46 142 46q94 0 145.5 -56zM324 176q18 21 28.5 54
t10.5 68q0 30 -9 47.5t-27 17.5q-20 0 -38.5 -19t-29.5 -51.5t-11 -70.5q0 -67 37 -67q21 0 39 21z" />
    <glyph glyph-name="uni0432" unicode="&#x432;" horiz-adv-x="550" 
d="M498.5 228q16.5 -26 16.5 -58q0 -82 -51 -126t-169 -44h-286l73 520h295q76 0 115 -33t39 -86q0 -39 -18.5 -76t-58.5 -55q28 -16 44.5 -42zM332 318q13 12 13 35q0 32 -29 32h-46l-11 -79h40q20 0 33 12zM320 195q0 17 -10 24.5t-32 7.5h-30l-12 -84h32q52 0 52 52z" />
    <glyph glyph-name="uni0433" unicode="&#x433;" horiz-adv-x="410" 
d="M405 354h-126l-50 -354h-220l73 520h350z" />
    <glyph glyph-name="uni0434" unicode="&#x434;" horiz-adv-x="605" 
d="M542 -130h-165l11 130h-243l-28 -130h-167l42 296h66l163 354h238l65 -354h63zM342 166l-16 203l-69 -203h85z" />
    <glyph glyph-name="uni0435" unicode="&#x435;" horiz-adv-x="609" 
d="M242 207q-1 -8 -1 -22q0 -60 44 -60q15 0 28.5 12t18.5 29l218 -15q-80 -166 -291 -166q-71 0 -123 29t-79.5 78.5t-27.5 110.5q0 102 37 176.5t106.5 115t165.5 40.5q116 0 179 -63t63 -177q0 -18 -4 -45t-10 -43h-324zM256 303h112q1 8 1 23q0 64 -43 64q-52 0 -70 -87
z" />
    <glyph glyph-name="uni0436" unicode="&#x436;" horiz-adv-x="823" 
d="M641 308l145 -308h-199l-59 196l-39 -37l-22 -159h-192l24 171l-23 32l-98 -203h-215l219 339l-127 181h201l71 -146l21 146h192l-21 -151l104 151h234z" />
    <glyph glyph-name="uni0437" unicode="&#x437;" horiz-adv-x="524" 
d="M488 163q0 -89 -67 -133.5t-190 -44.5q-81 0 -132.5 24t-75 62.5t-23.5 81.5v3l195 2v-5q1 -16 8.5 -23t24.5 -7q24 0 38 17.5t14 40.5q0 20 -11 27.5t-36 7.5h-82l14 100h64q32 0 48.5 17.5t16.5 36.5q0 31 -31 31q-22 0 -35 -14.5t-17 -34.5l-185 21q17 70 79.5 116
t175.5 46q223 0 223 -136q0 -46 -23.5 -77.5t-60.5 -43.5q68 -39 68 -115z" />
    <glyph glyph-name="uni0438" unicode="&#x438;" horiz-adv-x="606" 
d="M597 520l-73 -520h-210l33 230l-128 -230h-210l73 520h210l-32 -231l128 231h209z" />
    <glyph glyph-name="uni0439" unicode="&#x439;" horiz-adv-x="606" 
d="M597 520l-73 -520h-210l33 230l-128 -230h-210l73 520h210l-32 -231l128 231h209zM255 642q-40 45 -36 133h109q-1 -6 -1 -17q0 -30 11.5 -43.5t28.5 -13.5q23 0 35 18t17 56h109q-11 -94 -56 -136t-114 -42q-63 0 -103 45z" />
    <glyph glyph-name="uni043A" unicode="&#x43a;" horiz-adv-x="588" 
d="M396 300l155 -300h-214l-68 173l-28 -28l-21 -145h-211l73 520h212l-18 -127l105 127h237z" />
    <glyph glyph-name="uni043B" unicode="&#x43b;" horiz-adv-x="583" 
d="M343 0l-35 340l-125 -340h-220l245 520h239l99 -520h-203z" />
    <glyph glyph-name="uni043C" unicode="&#x43c;" horiz-adv-x="688" 
d="M663 520l-37 -520h-193l28 262l-105 -262h-93l-33 261l-46 -261h-196l109 520h211l39 -268l104 268h212z" />
    <glyph glyph-name="uni043D" unicode="&#x43d;" horiz-adv-x="595" 
d="M586 520l-73 -520h-220l25 181h-64l-25 -181h-220l73 520h220l-24 -173h64l24 173h220z" />
    <glyph glyph-name="uni043E" unicode="&#x43e;" horiz-adv-x="611" 
d="M87.5 49q-57.5 64 -57.5 165q0 94 37 166.5t108 113.5t169 41q121 0 179 -64.5t58 -165.5q0 -94 -37 -166.5t-108 -113t-170 -40.5q-121 0 -178.5 64zM343.5 201q18.5 46 18.5 98q0 66 -42 66q-35 0 -53 -46t-18 -98q0 -66 42 -66q34 0 52.5 46z" />
    <glyph glyph-name="uni043F" unicode="&#x43f;" horiz-adv-x="591" 
d="M509 0h-220l50 354h-60l-50 -354h-220l73 520h500z" />
    <glyph glyph-name="uni0440" unicode="&#x440;" horiz-adv-x="625" 
d="M556 481q42 -54 42 -151q0 -86 -28.5 -165.5t-81.5 -129.5t-123 -50q-92 0 -124 94l-40 -284h-220l101 725h206l3 -88q26 48 66.5 75.5t89.5 27.5q67 0 109 -54zM352.5 201q18.5 46 18.5 96q0 33 -11 50t-31 17q-34 0 -52.5 -45.5t-18.5 -96.5q0 -32 11.5 -49.5
t30.5 -17.5q34 0 52.5 46z" />
    <glyph glyph-name="uni0441" unicode="&#x441;" horiz-adv-x="590" 
d="M87.5 49q-57.5 64 -57.5 165q0 94 36.5 166.5t107.5 113.5t169 41q102 0 162 -59.5t61 -158.5l-208 -16q-1 33 -10 48.5t-30 15.5q-36 0 -54.5 -45.5t-18.5 -98.5q0 -66 46 -66q20 0 34 16.5t21 48.5l206 -15q-20 -102 -94 -161t-192 -59q-121 0 -178.5 64z" />
    <glyph glyph-name="uni0442" unicode="&#x442;" horiz-adv-x="476" 
d="M471 354h-109l-50 -354h-220l50 354h-114l27 166h443z" />
    <glyph glyph-name="uni0443" unicode="&#x443;" 
d="M589 520l-68 -488q-19 -135 -95.5 -193.5t-200.5 -58.5q-104 0 -160.5 43t-73.5 122l221 18q2 -25 8.5 -35.5t24.5 -10.5q23 0 34.5 24t19.5 80l8 55q-61 -72 -148 -72q-66 0 -97.5 43t-31.5 114q0 30 4 55l43 304h220l-39 -272q-4 -24 -4 -45q0 -19 6.5 -28.5t23.5 -9.5
q18 0 29 21t18 64l38 270h220z" />
    <glyph glyph-name="uni0444" unicode="&#x444;" horiz-adv-x="800" 
d="M730.5 130q-38.5 -69 -108.5 -106t-164 -39l-27 -190h-192l27 190q-71 3 -124.5 36.5t-82 86.5t-28.5 114q0 96 38.5 165.5t108.5 106.5t164 39l32 227h193l-32 -227q71 -2 124.5 -35.5t81.5 -87t28 -114.5q0 -97 -38.5 -166zM543 197.5q24 43.5 24 97.5q0 69 -55 75
l-31 -222q38 6 62 49.5zM288 148l31 222q-38 -6 -62 -50t-24 -97q0 -69 55 -75z" />
    <glyph glyph-name="uni0445" unicode="&#x445;" horiz-adv-x="543" 
d="M386 254l127 -254h-220l-34 132l-67 -132h-241l210 266l-128 254h222l32 -124l63 124h241z" />
    <glyph glyph-name="uni0446" unicode="&#x446;" horiz-adv-x="630" 
d="M612 166l-45 -296h-165l9 130h-402l73 520h220l-50 -354h62l50 354h220l-50 -354h78z" />
    <glyph glyph-name="uni0447" unicode="&#x447;" horiz-adv-x="574" 
d="M565 520l-73 -520h-220l20 145h-54q-50 0 -94 20.5t-71 59t-27 89.5q0 17 2 35l26 171h212l-24 -156q-2 -16 -2 -29q0 -15 7 -21.5t28 -6.5h20l30 213h220z" />
    <glyph glyph-name="uni0448" unicode="&#x448;" horiz-adv-x="856" 
d="M848 520l-74 -520h-765l73 520h216l-50 -354h62l50 354h210l-50 -354h62l50 354h216z" />
    <glyph glyph-name="uni0449" unicode="&#x449;" horiz-adv-x="893" 
d="M875 166l-45 -296h-164l9 130h-666l73 520h216l-50 -354h62l50 354h210l-50 -354h62l50 354h216l-50 -354h77z" />
    <glyph glyph-name="uni044A" unicode="&#x44a;" horiz-adv-x="635" 
d="M511.5 375.5q44.5 -21.5 68 -59t23.5 -83.5q0 -112 -70.5 -172.5t-192.5 -60.5h-256l51 360h-106l23 160h323l-18 -123h52q58 0 102.5 -21.5zM375 161.5q18 21.5 18 56.5q0 39 -36 39h-19l-17 -117h4q32 0 50 21.5z" />
    <glyph glyph-name="uni044B" unicode="&#x44b;" horiz-adv-x="845" 
d="M436.5 375.5q44.5 -21.5 68 -59t23.5 -83.5q0 -112 -70.5 -172.5t-192.5 -60.5h-256l73 520h218l-18 -123h52q58 0 102.5 -21.5zM837 520l-74 -520h-220l74 520h220zM300 161.5q18 21.5 18 56.5q0 39 -36 39h-19l-17 -117h4q32 0 50 21.5z" />
    <glyph glyph-name="uni044C" unicode="&#x44c;" horiz-adv-x="560" 
d="M436.5 375.5q44.5 -21.5 68 -59t23.5 -83.5q0 -112 -70.5 -172.5t-192.5 -60.5h-256l73 520h218l-18 -123h52q58 0 102.5 -21.5zM300 161.5q18 21.5 18 56.5q0 39 -36 39h-19l-17 -117h4q32 0 50 21.5z" />
    <glyph glyph-name="uni044D" unicode="&#x44d;" horiz-adv-x="610" 
d="M466 504.5q56 -30.5 84.5 -83.5t28.5 -121q0 -146 -80 -230.5t-227 -84.5q-116 0 -176.5 62t-66.5 161l176 3q1 -36 19.5 -58.5t54.5 -22.5q35 0 59.5 21t37.5 58h-125l15 104h124q-2 40 -18 58.5t-49 18.5q-74 0 -105 -91l-176 29q30 100 99 153.5t191 53.5
q78 0 134 -30.5z" />
    <glyph glyph-name="uni044E" unicode="&#x44e;" horiz-adv-x="814" 
d="M681.5 502q50.5 -33 76.5 -86t26 -113q0 -91 -36 -163.5t-101.5 -113.5t-150.5 -41q-94 0 -148 54t-65 136h-29l-25 -175h-220l73 520h220l-24 -168h23q30 86 97 134.5t164 48.5q69 0 119.5 -33zM550 173q16 18 26 50t10 72q0 70 -43 70q-19 0 -35 -18t-26 -50t-10 -72
q0 -70 43 -70q19 0 35 18z" />
    <glyph glyph-name="uni044F" unicode="&#x44f;" horiz-adv-x="555" 
d="M473 0h-208l16 109h-32l-55 -109h-206l91 163q-47 47 -47 117q0 116 70.5 178t194.5 62h249zM242 300q0 -18 10.5 -28t25.5 -10h24l15 105h-10q-65 0 -65 -67z" />
    <glyph glyph-name="uni0450" unicode="&#x450;" horiz-adv-x="609" 
d="M242 207q-1 -8 -1 -22q0 -60 44 -60q15 0 28.5 12t18.5 29l218 -15q-80 -166 -291 -166q-71 0 -123 29t-79.5 78.5t-27.5 110.5q0 102 37 176.5t106.5 115t165.5 40.5q116 0 179 -63t63 -177q0 -18 -4 -45t-10 -43h-324zM256 303h112q1 8 1 23q0 64 -43 64q-52 0 -70 -87
zM321 761l84 -174h-127l-146 174h189z" />
    <glyph glyph-name="uni0451" unicode="&#x451;" horiz-adv-x="609" 
d="M242 207q-1 -8 -1 -22q0 -60 44 -60q15 0 28.5 12t18.5 29l218 -15q-80 -166 -291 -166q-71 0 -123 29t-79.5 78.5t-27.5 110.5q0 102 37 176.5t106.5 115t165.5 40.5q116 0 179 -63t63 -177q0 -18 -4 -45t-10 -43h-324zM256 303h112q1 8 1 23q0 64 -43 64q-52 0 -70 -87
zM182 626.5q-27 27.5 -27 65.5q0 39 27 66t65 27t65.5 -27t27.5 -66q0 -38 -27.5 -65.5t-65.5 -27.5t-65 27.5zM410.5 626.5q-27.5 27.5 -27.5 65.5q0 39 27.5 66t65.5 27t64.5 -27t26.5 -66q0 -38 -27 -65.5t-64 -27.5q-38 0 -65.5 27.5z" />
    <glyph glyph-name="uni0452" unicode="&#x452;" horiz-adv-x="640" 
d="M581 492q32 -43 32 -115q0 -31 -4 -55l-47 -331q-16 -110 -68 -160.5t-153 -50.5q-32 0 -81 9l26 158h7q23 0 36 20.5t19 63.5l36 259q4 32 4 45q0 19 -6.5 29t-22.5 10q-21 0 -33 -22.5t-19 -69.5l-40 -282h-220l84 600h-68l16 110h68l7 50h220l-7 -50h115l-16 -110
h-115l-19 -140q61 75 152 75q65 0 97 -43z" />
    <glyph glyph-name="uni0453" unicode="&#x453;" horiz-adv-x="410" 
d="M405 354h-126l-50 -354h-220l73 520h350zM309 587h-127l84 174h189z" />
    <glyph glyph-name="uni0454" unicode="&#x454;" horiz-adv-x="610" 
d="M144 15.5q-56 30.5 -84.5 83.5t-28.5 121q0 146 80 230.5t227 84.5q116 0 176.5 -62t66.5 -161l-176 -3q-1 36 -19.5 58.5t-54.5 22.5q-35 0 -59.5 -21t-37.5 -58h125l-15 -104h-124q2 -40 18 -58.5t49 -18.5q74 0 105 91l176 -29q-30 -100 -99 -153.5t-191 -53.5
q-78 0 -134 30.5z" />
    <glyph glyph-name="uni0455" unicode="&#x455;" horiz-adv-x="539" 
d="M71.5 24.5q-61.5 39.5 -72.5 119.5l211 14q0 -47 36 -47q20 0 31 10t11 28q0 17 -16 27t-53 22l-38 12q-68 22 -105.5 58.5t-37.5 86.5q0 89 69.5 134.5t183.5 45.5q106 0 165.5 -36t71.5 -106l-209 -16q0 19 -5 30t-20 11q-12 0 -20 -9t-8 -24q0 -22 36 -33l40 -13
q53 -17 87.5 -35t55.5 -46.5t21 -72.5q0 -101 -72.5 -150.5t-193.5 -49.5q-107 0 -168.5 39.5z" />
    <glyph glyph-name="uni0456" unicode="&#x456;" horiz-adv-x="327" 
d="M144 618q-34 34 -34 82t34 81.5t81 33.5q48 0 82 -33.5t34 -81.5t-34 -82t-82 -34q-47 0 -81 34zM90 520h220l-74 -520h-220z" />
    <glyph glyph-name="uni0457" unicode="&#x457;" horiz-adv-x="327" 
d="M90 520h220l-74 -520h-220zM39 626.5q-27 27.5 -27 65.5q0 39 27 66t65 27t65.5 -27t27.5 -66q0 -38 -27.5 -65.5t-65.5 -27.5t-65 27.5zM267.5 626.5q-27.5 27.5 -27.5 65.5q0 39 27.5 66t65.5 27t64.5 -27t26.5 -66q0 -38 -27 -65.5t-64 -27.5q-38 0 -65.5 27.5z" />
    <glyph glyph-name="uni0458" unicode="&#x458;" horiz-adv-x="326" 
d="M143 618q-34 34 -34 82t34 81.5t82 33.5q47 0 81 -33.5t34 -81.5t-34 -82t-81 -34q-48 0 -82 34zM-56 -215q-33 5 -59 13l34 156q23 -7 42 -7q30 0 43 18t19 62l69 493h218l-74 -524q-16 -118 -70 -167t-160 -49q-29 0 -62 5z" />
    <glyph glyph-name="uni0459" unicode="&#x459;" horiz-adv-x="883" 
d="M759.5 375.5q44.5 -21.5 68 -59t23.5 -83.5q0 -112 -70.5 -172.5t-192.5 -60.5h-256l55 391h-1l-193 -391h-225l304 520h351l-18 -123h52q58 0 102.5 -21.5zM623 161.5q18 21.5 18 56.5q0 39 -36 39h-19l-17 -117h4q32 0 50 21.5z" />
    <glyph glyph-name="uni045A" unicode="&#x45a;" horiz-adv-x="850" 
d="M726.5 375.5q44.5 -21.5 68 -59t23.5 -83.5q0 -112 -70.5 -172.5t-192.5 -60.5h-256l25 181h-70l-25 -181h-220l73 520h220l-24 -173h70l24 173h218l-18 -123h52q58 0 102.5 -21.5zM590 161.5q18 21.5 18 56.5q0 39 -36 39h-19l-17 -117h4q32 0 50 21.5z" />
    <glyph glyph-name="uni045B" unicode="&#x45b;" horiz-adv-x="639" 
d="M580 492q32 -43 32 -115q0 -31 -4 -55l-46 -322h-220l41 290q4 32 4 45q0 19 -6.5 29t-22.5 10q-21 0 -33 -22.5t-19 -69.5l-40 -282h-220l83 590h-68l17 120h68l7 50h220l-7 -50h115l-17 -120h-115l-18 -130q61 75 152 75q65 0 97 -43z" />
    <glyph glyph-name="uni045C" unicode="&#x45c;" horiz-adv-x="588" 
d="M396 300l155 -300h-214l-68 173l-28 -28l-21 -145h-211l73 520h212l-18 -127l105 127h237zM395 587h-127l84 174h189z" />
    <glyph glyph-name="uni045D" unicode="&#x45d;" horiz-adv-x="606" 
d="M597 520l-73 -520h-210l33 230l-128 -230h-210l73 520h210l-32 -231l128 231h209zM323 761l84 -174h-127l-146 174h189z" />
    <glyph glyph-name="uni045E" unicode="&#x45e;" 
d="M589 520l-68 -488q-19 -135 -95.5 -193.5t-200.5 -58.5q-104 0 -160.5 43t-73.5 122l221 18q2 -25 8.5 -35.5t24.5 -10.5q23 0 34.5 24t19.5 80l8 55q-61 -72 -148 -72q-66 0 -97.5 43t-31.5 114q0 30 4 55l43 304h220l-39 -272q-4 -24 -4 -45q0 -19 6.5 -28.5t23.5 -9.5
q18 0 29 21t18 64l38 270h220zM250 642q-40 45 -36 133h109q-1 -6 -1 -17q0 -30 11.5 -43.5t28.5 -13.5q23 0 35 18t17 56h109q-11 -94 -56 -136t-114 -42q-63 0 -103 45z" />
    <glyph glyph-name="uni045F" unicode="&#x45f;" horiz-adv-x="591" 
d="M509 0h-153l-30 -149h-167l12 149h-162l73 520h220l-50 -354h60l50 354h220z" />
    <glyph glyph-name="uni0462" unicode="&#x462;" horiz-adv-x="688" 
d="M602 425.5q59 -58.5 59 -154.5q0 -81 -37 -142.5t-104 -95t-154 -33.5h-292l78 560h-95l22 140h93l8 60h228l-8 -60h146l-22 -140h-144l-10 -76h57q116 0 175 -58.5zM407 196.5q24 31.5 24 72.5q0 26 -12.5 38t-44.5 12h-28l-21 -154h15q43 0 67 31.5z" />
    <glyph glyph-name="uni0463" unicode="&#x463;" horiz-adv-x="600" 
d="M476.5 375.5q44.5 -21.5 68 -59t23.5 -83.5q0 -112 -70.5 -172.5t-192.5 -60.5h-258l67 480h-68l15 110h68l24 170h220l-24 -170h116l-15 -110h-116l-12 -83h52q58 0 102.5 -21.5zM340 161.5q18 21.5 18 56.5q0 39 -36 39h-19l-16 -117h3q32 0 50 21.5z" />
    <glyph glyph-name="uni0472" unicode="&#x472;" horiz-adv-x="744" 
d="M600.5 733q66.5 -42 101.5 -116.5t35 -170.5q0 -122 -50 -228t-142 -169.5t-212 -63.5q-90 0 -156 41.5t-101 116t-35 169.5q0 124 49.5 230t141.5 169.5t212 63.5q90 0 156.5 -42zM334.5 539q-36.5 -35 -56.5 -94h238q-2 61 -27 95t-69 34q-49 0 -85.5 -35zM440.5 221
q36.5 35 56.5 94h-238q2 -61 27 -95t69 -34q49 0 85.5 35z" />
    <glyph glyph-name="uni0473" unicode="&#x473;" horiz-adv-x="611" 
d="M523 470.5q58 -64.5 58 -165.5q0 -94 -37 -166.5t-108 -113t-170 -40.5q-121 0 -178.5 64t-57.5 165q0 94 37 166.5t108 113.5t169 41q121 0 179 -64.5zM271.5 369.5q-24.5 -21.5 -37.5 -59.5h160q-1 41 -15.5 61t-46.5 20q-36 0 -60.5 -21.5zM342 151q25 22 38 61h-161
q0 -42 15 -62.5t47 -20.5q36 0 61 22z" />
    <glyph glyph-name="uni0474" unicode="&#x474;" horiz-adv-x="686" 
d="M756 760l-38 -161h-11q-29 0 -49 -15t-34 -50l-209 -534h-243l-97 760h227l23 -483l97 296q28 86 63 125t89 50.5t160 11.5h22z" />
    <glyph glyph-name="uni0475" unicode="&#x475;" horiz-adv-x="572" 
d="M609 520l-34 -149h-14q-28 0 -43 -14.5t-28 -43.5l-139 -313h-221l-98 520h221l12 -295l29 97q28 93 64 134.5t87 52.5t151 11h13z" />
    <glyph glyph-name="uni048A" unicode="&#x48a;" horiz-adv-x="773" 
d="M333 882q-40 45 -36 133h109q-1 -6 -1 -17q0 -30 11.5 -43.5t28.5 -13.5q23 0 35 18t17 56h109q-11 -94 -56 -136t-114 -42q-63 0 -103 45zM602 -140h-172l44 140h-85l58 418l-213 -418h-220l106 760h220l-57 -410l212 410h220l-80 -576h127z" />
    <glyph glyph-name="uni048B" unicode="&#x48b;" horiz-adv-x="652" 
d="M258 642q-40 45 -36 133h109q-1 -6 -1 -17q0 -30 11.5 -43.5t28.5 -13.5q23 0 35 18t17 56h109q-11 -94 -56 -136t-114 -42q-63 0 -103 45zM490 -130h-159l45 130h-62l33 230l-128 -230h-210l73 520h210l-32 -231l128 231h209l-50 -354h87z" />
    <glyph glyph-name="uni048C" unicode="&#x48c;" horiz-adv-x="688" 
d="M602 425.5q59 -58.5 59 -154.5q0 -81 -37 -142.5t-104 -95t-154 -33.5h-292l78 560h-95l22 140h93l8 60h228l-8 -60h146l-22 -140h-144l-10 -76h57q116 0 175 -58.5zM407 196.5q24 31.5 24 72.5q0 26 -12.5 38t-44.5 12h-28l-21 -154h15q43 0 67 31.5z" />
    <glyph glyph-name="uni048D" unicode="&#x48d;" horiz-adv-x="600" 
d="M476.5 375.5q44.5 -21.5 68 -59t23.5 -83.5q0 -112 -70.5 -172.5t-192.5 -60.5h-258l67 480h-68l15 110h68l24 170h220l-24 -170h116l-15 -110h-116l-12 -83h52q58 0 102.5 -21.5zM340 161.5q18 21.5 18 56.5q0 39 -36 39h-19l-16 -117h3q32 0 50 21.5z" />
    <glyph glyph-name="uni048E" unicode="&#x48e;" horiz-adv-x="677" 
d="M641 342q-45 -79 -128 -113l22 -61l-76 -38l-28 78q-22 -3 -47 -3h-117l-29 -205h-225l107 760h330q72 0 125.5 -30.5t82 -82t28.5 -112.5q0 -114 -45 -193zM442 425q23 37 23 85q0 75 -63 75h-82l-28 -205h75h2l-35 96l76 38z" />
    <glyph glyph-name="uni048F" unicode="&#x48f;" horiz-adv-x="638" 
d="M566.5 120q-41.5 -87 -115.5 -119l25 -69l-77 -40l-34 93q-89 4 -125 94l-40 -284h-220l102 725h205l3 -75q24 40 65 65t90 25q75 0 119 -60t44 -166q0 -102 -41.5 -189zM378 200q20 45 20 99q0 38 -13 59.5t-39 21.5q-27 0 -48.5 -23t-33.5 -59.5t-12 -75.5
q0 -38 13.5 -60.5t37.5 -22.5h5l-31 86l77 40z" />
    <glyph glyph-name="uni0490" unicode="&#x490;" horiz-adv-x="477" 
d="M531 760l-28 -184h-180l-80 -576h-229l106 760h219l28 139h185z" />
    <glyph glyph-name="uni0491" unicode="&#x491;" horiz-adv-x="427" 
d="M462 615l-40 -261h-143l-50 -354h-220l73 520h209l20 95h151z" />
    <glyph glyph-name="uni0492" unicode="&#x492;" horiz-adv-x="542" 
d="M389 576l-21 -156h153l-22 -140h-151l-39 -280h-229l39 280h-99l22 140h97l47 340h411l-28 -184h-180z" />
    <glyph glyph-name="uni0493" unicode="&#x493;" horiz-adv-x="445" 
d="M314 354l-12 -86h89l-17 -110h-88l-22 -158h-220l22 158h-70l17 110h69l35 252h350l-27 -166h-126z" />
    <glyph glyph-name="uni0494" unicode="&#x494;" horiz-adv-x="668" 
d="M508.5 426.5q57.5 -33.5 88.5 -92.5t31 -135q0 -121 -42.5 -212t-123 -144.5t-192.5 -62.5l4 194q54 14 86 72.5t32 132.5q0 48 -23.5 72.5t-66.5 24.5h-21l-38 -276h-229l106 760h411l-28 -184h-180l-16 -116h66q78 0 135.5 -33.5z" />
    <glyph glyph-name="uni0495" unicode="&#x495;" horiz-adv-x="571" 
d="M418.5 265q49.5 -25 77 -69.5t27.5 -101.5q0 -148 -81.5 -229.5t-225.5 -84.5l4 165q21 2 42 20t35 45t14 54q0 26 -12.5 39.5t-40.5 13.5h-13l-16 -117h-220l73 520h383l-23 -148h-161l-11 -82h35q64 0 113.5 -25z" />
    <glyph glyph-name="uni0496" unicode="&#x496;" horiz-adv-x="1032" 
d="M778 442l175 -442h-227l-85 287l-33 -38l-35 -249h-220l37 267l-23 39l-154 -306h-245l291 489l-159 271h231l94 -244l34 244h220l-34 -246l147 246h266zM972 -140h-181l11 140h-52l29 184h242z" />
    <glyph glyph-name="uni0497" unicode="&#x497;" horiz-adv-x="844" 
d="M641 308l145 -308h-199l-59 196l-39 -37l-22 -159h-192l24 171l-23 32l-98 -203h-215l219 339l-127 181h201l71 -146l21 146h192l-21 -151l104 151h234zM786 -130h-165l9 130h-43l26 166h218z" />
    <glyph glyph-name="uni0498" unicode="&#x498;" horiz-adv-x="587" 
d="M568 256q0 -109 -53.5 -175.5t-156.5 -86.5l-31 -154h-179l12 158q-72 20 -112.5 69t-40.5 119q0 18 3 36l218 3q-2 -14 -2 -21q0 -24 12 -35.5t31 -11.5q30 0 49.5 32t19.5 72q0 30 -20 45t-70 15h-81l21 154h76q49 0 75 23.5t26 58.5q0 48 -45 48q-51 0 -66 -68
l-208 17q18 102 93 161.5t211 59.5q129 0 187.5 -52t58.5 -130q0 -63 -27.5 -111.5t-79.5 -78.5q79 -46 79 -147z" />
    <glyph glyph-name="uni0499" unicode="&#x499;" horiz-adv-x="524" 
d="M488 163q0 -74 -47 -117.5t-133 -55.5l-28 -140h-164l12 148q-65 20 -96.5 62.5t-31.5 92.5v3l195 2v-5q1 -16 8.5 -23t24.5 -7q24 0 38 17.5t14 40.5q0 20 -11 27.5t-36 7.5h-82l14 100h64q32 0 48.5 17.5t16.5 36.5q0 31 -31 31q-22 0 -35 -14.5t-17 -34.5l-185 21
q17 70 79.5 116t175.5 46q223 0 223 -136q0 -46 -23.5 -77.5t-60.5 -43.5q68 -39 68 -115z" />
    <glyph glyph-name="uni049A" unicode="&#x49a;" horiz-adv-x="712" 
d="M461 450l166 -450h-221l-83 285l-52 -63l-31 -222h-227l107 760h227l-31 -219l154 219h248zM652 -140h-181l11 140h-52l29 184h242z" />
    <glyph glyph-name="uni049B" unicode="&#x49b;" horiz-adv-x="607" 
d="M396 300l155 -300h-214l-68 173l-28 -28l-21 -145h-211l73 520h212l-18 -127l105 127h237zM549 -130h-165l9 130h-43l26 166h218z" />
    <glyph glyph-name="uni049C" unicode="&#x49c;" horiz-adv-x="778" 
d="M536 471l200 -471h-226l-106 346l-25 -176h-96l13 94l-29 -30l-33 -234h-220l106 760h220l-39 -280l31 34l26 186h96l-12 -83l127 143h273z" />
    <glyph glyph-name="uni049D" unicode="&#x49d;" horiz-adv-x="687" 
d="M490 326l160 -326h-208l-84 215l-5 -5l-17 -120h-81l10 72l-30 -28l-19 -134h-207l73 520h207l-27 -193l31 27l20 136h81l-10 -69l105 99h229z" />
    <glyph glyph-name="uni049E" unicode="&#x49e;" horiz-adv-x="857" 
d="M630 451l185 -451h-227l-105 292l-159 -170l-17 -122h-228l81 580h-100l17 115h99l9 65h228l-9 -65h77l-18 -115h-75l-19 -136l279 316h271z" />
    <glyph glyph-name="uni049F" unicode="&#x49f;" horiz-adv-x="635" 
d="M443 300l155 -300h-214l-68 173l-29 -28l-20 -145h-220l84 600h-68l15 110h68l7 50h221l-7 -50h114l-15 -110h-115l-29 -208l106 128h237z" />
    <glyph glyph-name="uni04A0" unicode="&#x4a0;" horiz-adv-x="768" 
d="M560 450l166 -450h-221l-83 285l-52 -63l-31 -222h-227l81 576h-134l29 184h358l-31 -219l154 219h248z" />
    <glyph glyph-name="uni04A1" unicode="&#x4a1;" horiz-adv-x="703" 
d="M511 300l155 -300h-214l-68 173l-28 -28l-21 -145h-211l50 354h-146l27 166h354l-18 -127l105 127h237z" />
    <glyph glyph-name="uni04A2" unicode="&#x4a2;" horiz-adv-x="734" 
d="M705 760l-107 -760h-229l42 299h-127l-42 -299h-229l107 760h229l-39 -277h127l39 277h229zM674 -140h-181l11 140h-52l29 184h242z" />
    <glyph glyph-name="uni04A3" unicode="&#x4a3;" horiz-adv-x="632" 
d="M586 520l-73 -520h-220l25 181h-64l-25 -181h-220l73 520h220l-24 -173h64l24 173h220zM569 -130h-165l9 130h-43l26 166h218z" />
    <glyph glyph-name="uni04A4" unicode="&#x4a4;" horiz-adv-x="832" 
d="M859 576h-180l-80 -576h-229l106 760h411zM705 760l-107 -760h-229l42 299h-127l-42 -299h-229l107 760h229l-39 -277h127l39 277h229z" />
    <glyph glyph-name="uni04A5" unicode="&#x4a5;" horiz-adv-x="694" 
d="M586 520l-73 -520h-220l25 181h-64l-25 -181h-220l73 520h220l-24 -173h64l24 173h220zM689 354h-126l-50 -354h-220l73 520h350z" />
    <glyph glyph-name="uni04A6" unicode="&#x4a6;" horiz-adv-x="1020" 
d="M860.5 426.5q57.5 -33.5 88.5 -92.5t31 -135q0 -121 -42.5 -212t-123 -144.5t-192.5 -62.5l4 194q54 14 86 72.5t32 132.5q0 48 -23.5 72.5t-66.5 24.5h-21l-38 -276h-228l80 576h-125l-80 -576h-228l106 760h581l-42 -300h66q78 0 135.5 -33.5z" />
    <glyph glyph-name="uni04A7" unicode="&#x4a7;" horiz-adv-x="848" 
d="M695.5 265q49.5 -25 77 -69.5t27.5 -101.5q0 -148 -81.5 -229.5t-225.5 -84.5l4 165q21 2 42 20t35 45t14 54q0 26 -12.5 39.5t-40.5 13.5h-10l-16 -117h-220l50 354h-60l-50 -354h-220l73 520h500l-32 -230h32q64 0 113.5 -25z" />
    <glyph glyph-name="uni04A8" unicode="&#x4a8;" horiz-adv-x="985" 
d="M927 298q-40 -90 -112 -158q38 8 74.5 24t46.5 26l-11 -179q-67 -26 -159 -26q-88 0 -164 29q-89 -29 -184 -29q-122 0 -206 48t-126.5 131t-42.5 188q0 160 91.5 267t233.5 156l-9 -208q-35 -33 -60 -88.5t-25 -128.5q0 -92 43.5 -150t126.5 -65q-74 103 -74 254
q0 110 39 197.5t114.5 138t180.5 50.5q126 0 194.5 -73.5t68.5 -209.5q0 -104 -40 -194zM616.5 513.5q-23.5 -66.5 -23.5 -148.5q0 -103 43 -165q48 47 74 118t26 156q0 57 -12 81.5t-37 24.5q-47 0 -70.5 -66.5z" />
    <glyph glyph-name="uni04A9" unicode="&#x4a9;" horiz-adv-x="775" 
d="M734.5 212q-27.5 -56 -76.5 -101q38 3 58 9v-127q-33 -8 -87 -8q-78 0 -148 26q-81 -26 -167 -26q-94 0 -159 32t-97 89t-32 131q0 126 67.5 196.5t170.5 101.5l-9 -178q-42 -38 -42 -104q0 -54 29.5 -85t81.5 -40q-48 67 -48 150q0 69 32.5 128t94 94t142.5 35
q103 0 160 -56t57 -148q0 -63 -27.5 -119zM488.5 354.5q-17.5 -37.5 -17.5 -101.5q0 -58 17 -92q38 26 58.5 69t20.5 100q0 32 -7.5 47t-24.5 15q-29 0 -46.5 -37.5z" />
    <glyph glyph-name="uni04AA" unicode="&#x4aa;" horiz-adv-x="731" 
d="M432 226.5q29 31.5 47 86.5l231 -18q-33 -119 -106.5 -198t-178.5 -103l-31 -154h-179l13 162q-90 31 -138.5 112t-48.5 198q0 124 49.5 230t141.5 169.5t212 63.5q133 0 209 -82.5t82 -227.5l-241 -17q0 57 -17.5 87t-58.5 30q-47 0 -79 -37t-47 -93.5t-15 -112.5
q0 -127 84 -127q42 0 71 31.5z" />
    <glyph glyph-name="uni04AB" unicode="&#x4ab;" horiz-adv-x="590" 
d="M325 171.5q14 16.5 21 48.5l206 -15q-16 -80 -66 -135t-130 -75l-29 -145h-164l12 147q-74 22 -109.5 80t-35.5 137q0 94 36.5 166.5t107.5 113.5t169 41q102 0 162 -59.5t61 -158.5l-208 -16q-1 33 -10 48.5t-30 15.5q-36 0 -54.5 -45.5t-18.5 -98.5q0 -66 46 -66
q20 0 34 16.5z" />
    <glyph glyph-name="uni04AC" unicode="&#x4ac;" horiz-adv-x="558" 
d="M587 576h-149l-81 -576h-229l81 576h-149l25 184h528zM433 -140h-181l11 140h-52l29 184h242z" />
    <glyph glyph-name="uni04AD" unicode="&#x4ad;" horiz-adv-x="476" 
d="M471 354h-109l-50 -354h-220l50 354h-114l27 166h443zM369 -130h-165l9 130h-43l26 166h218z" />
    <glyph glyph-name="uni04AE" unicode="&#x4ae;" horiz-adv-x="642" 
d="M432 302h-1l-43 -302h-229l42 302l-131 458h218l49 -257l132 257h243z" />
    <glyph glyph-name="uni04AF" unicode="&#x4af;" horiz-adv-x="645" 
d="M397 -12l-27 -193h-229l27 193l-131 532h205l55 -374l159 374h226z" />
    <glyph glyph-name="uni04B0" unicode="&#x4b0;" horiz-adv-x="642" 
d="M498 410h65l-21 -140h-115l-39 -270h-229l38 270h-122l21 140h74l-100 350h218l49 -257l132 257h243z" />
    <glyph glyph-name="uni04B1" unicode="&#x4b1;" horiz-adv-x="645" 
d="M467 120h52l-18 -120h-98l-6 -12l-27 -193h-229l27 193l-3 12h-95l18 120h47l-98 400h205l55 -374l159 374h226z" />
    <glyph glyph-name="uni04B2" unicode="&#x4b2;" horiz-adv-x="699" 
d="M472 384l158 -384h-237l-59 194l-111 -194h-260l282 401l-151 359h239l46 -186l101 186h262zM639 -140h-181l11 140h-52l29 184h242z" />
    <glyph glyph-name="uni04B3" unicode="&#x4b3;" horiz-adv-x="554" 
d="M386 254l127 -254h-220l-34 132l-67 -132h-241l210 266l-128 254h222l32 -124l63 124h241zM497 -130h-165l9 130h-43l26 166h218z" />
    <glyph glyph-name="uni04B4" unicode="&#x4b4;" horiz-adv-x="902" 
d="M891 184l-49 -324h-181l11 140h-559l80 576h-134l29 184h492l-29 -184h-129l-54 -392h203l80 576h220l-80 -576h100z" />
    <glyph glyph-name="uni04B5" unicode="&#x4b5;" horiz-adv-x="772" 
d="M754 166l-45 -296h-165l9 130h-480l50 354h-94l23 166h407l-24 -166h-102l-26 -188h158l50 354h210l-50 -354h79z" />
    <glyph glyph-name="uni04B6" unicode="&#x4b6;" horiz-adv-x="687" 
d="M656 760l-106 -760h-229l34 246h-53q-60 0 -113.5 25t-87 75t-33.5 121q0 21 4 55l34 238h229l-33 -228q-4 -30 -4 -48q0 -54 52 -54h31l46 330h229zM627 -140h-181l11 140h-52l29 184h242z" />
    <glyph glyph-name="uni04B7" unicode="&#x4b7;" horiz-adv-x="611" 
d="M565 520l-73 -520h-220l20 145h-54q-50 0 -94 20.5t-71 59t-27 89.5q0 17 2 35l26 171h212l-24 -156q-2 -16 -2 -29q0 -15 7 -21.5t28 -6.5h20l30 213h220zM548 -130h-165l9 130h-43l26 166h218z" />
    <glyph glyph-name="uni04B8" unicode="&#x4b8;" horiz-adv-x="750" 
d="M770 760l-107 -760h-219l34 246h-55l-19 -131h-111l19 131h-30q-56 0 -105 25t-79.5 75t-30.5 121q0 25 5 55l34 238h220l-33 -228q-4 -32 -4 -42q0 -34 11 -47t39 -13l24 165h111l-24 -165h54l46 330h220z" />
    <glyph glyph-name="uni04B9" unicode="&#x4b9;" horiz-adv-x="651" 
d="M642 520l-73 -520h-220l20 145h-29l-12 -80h-81l12 80h-21q-50 0 -94 20.5t-71 59t-27 89.5q0 17 2 35l26 171h209l-24 -156q-2 -16 -2 -29t5.5 -19.5t19.5 -7.5l15 102h81l-15 -103h29l30 213h220z" />
    <glyph glyph-name="uni04BA" unicode="&#x4ba;" horiz-adv-x="668" 
d="M522 466q51 -24 82.5 -74t31.5 -123q0 -26 -5 -56l-30 -213h-230l27 198q4 30 4 45q0 33 -10.5 45t-39.5 12h-66l-42 -300h-230l106 760h230l-38 -270h99q60 0 111 -24z" />
    <glyph glyph-name="uni04BB" unicode="&#x4bb;" horiz-adv-x="601" 
d="M542 492q32 -43 32 -115q0 -31 -4 -55l-46 -322h-220l41 290q4 32 4 45q0 19 -6.5 29t-22.5 10q-21 0 -33 -22.5t-19 -69.5l-40 -282h-220l107 760h220l-42 -300q61 75 152 75q65 0 97 -43z" />
    <glyph glyph-name="uni04BC" unicode="&#x4bc;" horiz-adv-x="926" 
d="M913.5 373q-6.5 -34 -16.5 -59h-440q2 -62 27.5 -95t66.5 -33q27 0 52 19.5t45 54.5l220 -38q-50 -112 -138.5 -174.5t-196.5 -62.5q-90 0 -156.5 44.5t-102 119.5t-36.5 165h-18q-80 0 -128 36t-48 101q0 58 32 137l172 -24q-6 -19 -10.5 -42t-4.5 -39q0 -31 20 -38
q23 94 77 169.5t130.5 118t164.5 42.5t155 -45.5t103.5 -123t36.5 -171.5q0 -28 -6.5 -62zM531 538.5q-36 -35.5 -56 -94.5h227q-1 64 -24 97t-63 33q-48 0 -84 -35.5z" />
    <glyph glyph-name="uni04BD" unicode="&#x4bd;" horiz-adv-x="756" 
d="M389 207q-1 -8 -1 -22q0 -60 44 -60q15 0 28.5 12t18.5 29l218 -15q-80 -166 -291 -166q-71 0 -123 29t-79.5 78.5t-27.5 110.5v4h-3q-63 0 -104.5 29.5t-41.5 87.5q0 28 6.5 62.5t16.5 61.5l141 -24q-17 -58 -17 -87q0 -23 13 -30q26 108 103 168t195 60q116 0 179 -63
t63 -177q0 -18 -4 -45t-10 -43h-324zM403 303h112q1 8 1 23q0 64 -43 64q-52 0 -70 -87z" />
    <glyph glyph-name="uni04BE" unicode="&#x4be;" horiz-adv-x="926" 
d="M913.5 373q-6.5 -34 -16.5 -59h-440q2 -62 27.5 -95t66.5 -33q27 0 52 19.5t45 54.5l220 -38q-38 -85 -99 -142t-136 -80l-32 -160h-179l12 161q-91 32 -143 117.5t-53 195.5h-18q-80 0 -128 36t-48 101q0 58 32 137l172 -24q-6 -19 -10.5 -42t-4.5 -39q0 -31 20 -38
q23 94 77 169.5t130.5 118t164.5 42.5t155 -45.5t103.5 -123t36.5 -171.5q0 -28 -6.5 -62zM531 538.5q-36 -35.5 -56 -94.5h227q-1 64 -24 97t-63 33q-48 0 -84 -35.5z" />
    <glyph glyph-name="uni04BF" unicode="&#x4bf;" horiz-adv-x="756" 
d="M389 207q-1 -8 -1 -22q0 -60 44 -60q15 0 28.5 12t18.5 29l218 -15q-56 -118 -181 -152l-30 -149h-162l11 144q-75 19 -117 76t-42 133v4h-3q-63 0 -104.5 29.5t-41.5 87.5q0 28 6.5 62.5t16.5 61.5l141 -24q-17 -58 -17 -87q0 -23 13 -30q26 108 103 168t195 60
q116 0 179 -63t63 -177q0 -18 -4 -45t-10 -43h-324zM403 303h112q1 8 1 23q0 64 -43 64q-52 0 -70 -87z" />
    <glyph glyph-name="uni04C0" unicode="&#x4c0;" horiz-adv-x="329" 
d="M120 760h229l-107 -760h-229z" />
    <glyph glyph-name="uni04C1" unicode="&#x4c1;" horiz-adv-x="995" 
d="M778 442l175 -442h-227l-85 287l-33 -38l-35 -249h-220l37 267l-23 39l-154 -306h-245l291 489l-159 271h231l94 -244l34 244h220l-34 -246l147 246h266zM484 882q-40 45 -36 133h109q-1 -6 -1 -17q0 -30 11.5 -43.5t28.5 -13.5q23 0 35 18t17 56h109q-11 -94 -56 -136
t-114 -42q-63 0 -103 45z" />
    <glyph glyph-name="uni04C2" unicode="&#x4c2;" horiz-adv-x="823" 
d="M641 308l145 -308h-199l-59 196l-39 -37l-22 -159h-192l24 171l-23 32l-98 -203h-215l219 339l-127 181h201l71 -146l21 146h192l-21 -151l104 151h234zM359 642q-40 45 -36 133h109q-1 -6 -1 -17q0 -30 11.5 -43.5t28.5 -13.5q23 0 35 18t17 56h109q-11 -94 -56 -136
t-114 -42q-63 0 -103 45z" />
    <glyph glyph-name="uni04C3" unicode="&#x4c3;" horiz-adv-x="643" 
d="M474 471q71 -72 109 -140t38 -152q0 -172 -89.5 -278.5t-272.5 -120.5l8 192q55 11 86.5 63.5t31.5 123.5q0 36 -11.5 70t-34.5 75l-66 -83l-31 -221h-228l106 760h228l-26 -187l120 187h264z" />
    <glyph glyph-name="uni04C4" unicode="&#x4c4;" horiz-adv-x="596" 
d="M509 196.5q33 -56.5 33 -125.5q0 -86 -37.5 -152t-106.5 -102.5t-160 -36.5l4 165q20 2 41 18.5t34.5 45.5t13.5 66q0 31 -8.5 60.5t-28.5 63.5l-53 -54l-21 -145h-211l73 520h212l-18 -127l105 127h237l-209 -208q67 -59 100 -115.5z" />
    <glyph glyph-name="uni04C5" unicode="&#x4c5;" horiz-adv-x="755" 
d="M580 -140h-176l51 140h-49l-33 502l-171 -502h-244l314 760h261l77 -576h134z" />
    <glyph glyph-name="uni04C6" unicode="&#x4c6;" horiz-adv-x="660" 
d="M502 -130h-157l44 130h-46l-35 340l-125 -340h-220l245 520h239l67 -354h133z" />
    <glyph glyph-name="uni04C7" unicode="&#x4c7;" horiz-adv-x="686" 
d="M705 760l-91 -655q-46 -325 -332 -325h-11l9 190h5q33 0 62.5 32t37.5 90l29 207h-130l-42 -299h-228l106 760h228l-39 -277h130l38 277h228z" />
    <glyph glyph-name="uni04C8" unicode="&#x4c8;" horiz-adv-x="595" 
d="M515 16l-4 -31q-11 -78 -39.5 -122.5t-75 -63.5t-116.5 -19q-30 0 -65 8l25 149h3q23 0 34 16t15 42l3 16l23 170h-64l-25 -181h-220l73 520h220l-24 -173h64l24 173h220z" />
    <glyph glyph-name="uni04C9" unicode="&#x4c9;" horiz-adv-x="764" 
d="M593 -140h-172l44 140h-96l42 299h-127l-42 -299h-229l107 760h229l-39 -277h127l39 277h229l-81 -576h129z" />
    <glyph glyph-name="uni04CA" unicode="&#x4ca;" horiz-adv-x="631" 
d="M469 -130h-159l45 130h-62l25 181h-64l-25 -181h-220l73 520h220l-24 -173h64l24 173h220l-50 -354h77z" />
    <glyph glyph-name="uni04CB" unicode="&#x4cb;" horiz-adv-x="638" 
d="M569 134l-18 -134h-137l-30 -140h-184l37 274h103l15 112h-53q-60 0 -113.5 25t-87 75t-33.5 121q0 21 4 55l34 238h229l-33 -228q-4 -30 -4 -48q0 -54 52 -54h31l46 330h229z" />
    <glyph glyph-name="uni04CC" unicode="&#x4cc;" horiz-adv-x="574" 
d="M565 520l-73 -520h-125l-27 -130h-164l32 220h77l9 70h-54q-50 0 -94 20.5t-71 59t-27 89.5q0 17 2 35l22 156h211l-20 -141q-2 -16 -2 -29q0 -15 7 -21.5t28 -6.5h21l28 198h220z" />
    <glyph glyph-name="uni04CD" unicode="&#x4cd;" horiz-adv-x="910" 
d="M735 -140h-175l50 140h-68l41 420l-168 -420h-89l-51 418l-76 -418h-208l155 760h226l46 -394l155 394h234l-42 -576h134z" />
    <glyph glyph-name="uni04CE" unicode="&#x4ce;" horiz-adv-x="750" 
d="M592 -130h-157l44 130h-46l28 262l-105 -262h-93l-33 261l-46 -261h-196l109 520h211l39 -268l104 268h212l-25 -354h99z" />
    <glyph glyph-name="uni04CF" unicode="&#x4cf;" horiz-adv-x="311" 
d="M115 760h220l-106 -760h-220z" />
    <glyph glyph-name="uni04D0" unicode="&#x4d0;" horiz-adv-x="666" 
d="M401 96h-166l-31 -96h-246l315 760h261l100 -760h-229zM394 254l-13 300l-96 -300h109zM319 882q-40 45 -36 133h109q-1 -6 -1 -17q0 -30 11.5 -43.5t28.5 -13.5q23 0 35 18t17 56h109q-11 -94 -56 -136t-114 -42q-63 0 -103 45z" />
    <glyph glyph-name="uni04D1" unicode="&#x4d1;" horiz-adv-x="625" 
d="M616 520l-73 -520h-206l-2 78q-53 -93 -149 -93q-45 0 -81 24t-57 71t-21 114q0 82 27.5 161t79.5 129.5t120 50.5q53 0 85 -28t45 -71l12 84h220zM348 201q19 46 19 96q0 33 -11.5 50t-30.5 17q-34 0 -53 -46t-19 -95q0 -33 11 -50.5t31 -17.5q34 0 53 46zM254 642
q-40 45 -36 133h109q-1 -6 -1 -17q0 -30 11.5 -43.5t28.5 -13.5q23 0 35 18t17 56h109q-11 -94 -56 -136t-114 -42q-63 0 -103 45z" />
    <glyph glyph-name="uni04D2" unicode="&#x4d2;" horiz-adv-x="666" 
d="M401 96h-166l-31 -96h-246l315 760h261l100 -760h-229zM394 254l-13 300l-96 -300h109zM248 866.5q-27 27.5 -27 65.5q0 39 27 66t65 27t65.5 -27t27.5 -66q0 -38 -27.5 -65.5t-65.5 -27.5t-65 27.5zM476.5 866.5q-27.5 27.5 -27.5 65.5q0 39 27.5 66t65.5 27t64.5 -27
t26.5 -66q0 -38 -27 -65.5t-64 -27.5q-38 0 -65.5 27.5z" />
    <glyph glyph-name="uni04D3" unicode="&#x4d3;" horiz-adv-x="625" 
d="M616 520l-73 -520h-206l-2 78q-53 -93 -149 -93q-45 0 -81 24t-57 71t-21 114q0 82 27.5 161t79.5 129.5t120 50.5q53 0 85 -28t45 -71l12 84h220zM348 201q19 46 19 96q0 33 -11.5 50t-30.5 17q-34 0 -53 -46t-19 -95q0 -33 11 -50.5t31 -17.5q34 0 53 46zM183 626.5
q-27 27.5 -27 65.5q0 39 27 66t65 27t65.5 -27t27.5 -66q0 -38 -27.5 -65.5t-65.5 -27.5t-65 27.5zM411.5 626.5q-27.5 27.5 -27.5 65.5q0 39 27.5 66t65.5 27t64.5 -27t26.5 -66q0 -38 -27 -65.5t-64 -27.5q-38 0 -65.5 27.5z" />
    <glyph glyph-name="uni04D4" unicode="&#x4d4;" horiz-adv-x="898" 
d="M726 576l-13 -95h168l-25 -175h-168l-17 -122h181l-26 -184h-410l18 127h-163l-66 -127h-252l469 760h511l-26 -184h-181zM456 285l39 276l-143 -276h104z" />
    <glyph glyph-name="uni04D5" unicode="&#x4d5;" horiz-adv-x="855" 
d="M508 211q-1 -8 -1 -23q0 -63 45 -63q16 0 29 12t19 29l193 -12q-74 -169 -266 -169q-51 0 -91 20.5t-65 57.5q-63 -78 -189 -78q-73 0 -118.5 38.5t-45.5 103.5q0 85 61.5 130.5t166.5 45.5h91l3 18q2 16 2 28q0 23 -9 34t-29 11q-17 0 -32 -11.5t-20 -31.5l-183 14
q27 69 91.5 119.5t163.5 50.5q80 0 134 -43q65 43 147 43q105 0 162.5 -66t57.5 -180q0 -15 -3.5 -38t-8.5 -40h-305zM548.5 368q-18.5 -22 -27.5 -65h115q1 8 1 23q0 64 -44 64q-26 0 -44.5 -22zM294.5 126q17.5 22 26.5 66l2 8l1 11h-48q-35 0 -52.5 -18t-17.5 -49
q0 -21 12 -30.5t29 -9.5q30 0 47.5 22z" />
    <glyph glyph-name="uni04D6" unicode="&#x4d6;" horiz-adv-x="510" 
d="M323 576l-13 -95h183l-25 -175h-183l-17 -122h196l-27 -184h-424l107 760h425l-26 -184h-196zM251 882q-40 45 -36 133h109q-1 -6 -1 -17q0 -30 11.5 -43.5t28.5 -13.5q23 0 35 18t17 56h109q-11 -94 -56 -136t-114 -42q-63 0 -103 45z" />
    <glyph glyph-name="uni04D7" unicode="&#x4d7;" horiz-adv-x="609" 
d="M242 207q-1 -8 -1 -22q0 -60 44 -60q15 0 28.5 12t18.5 29l218 -15q-80 -166 -291 -166q-71 0 -123 29t-79.5 78.5t-27.5 110.5q0 102 37 176.5t106.5 115t165.5 40.5q116 0 179 -63t63 -177q0 -18 -4 -45t-10 -43h-324zM256 303h112q1 8 1 23q0 64 -43 64q-52 0 -70 -87
zM253 642q-40 45 -36 133h109q-1 -6 -1 -17q0 -30 11.5 -43.5t28.5 -13.5q23 0 35 18t17 56h109q-11 -94 -56 -136t-114 -42q-63 0 -103 45z" />
    <glyph glyph-name="uni04D8" unicode="&#x4d8;" horiz-adv-x="730" 
d="M584 730q67 -45 102.5 -121t35.5 -167q0 -123 -51.5 -228t-140 -167t-195.5 -62q-88 0 -155 45.5t-103.5 123t-36.5 171.5q0 28 6.5 62t16.5 59h440q-2 62 -27.5 95t-66.5 33q-27 0 -52 -19.5t-45 -54.5l-220 38q50 112 138.5 174.5t196.5 62.5q90 0 157 -45zM429 221.5
q36 35.5 56 94.5h-227q1 -64 24 -97t63 -33q48 0 84 35.5z" />
    <glyph glyph-name="uni04D9" unicode="&#x4d9;" horiz-adv-x="605" 
d="M470.5 505q52.5 -30 80 -80t27.5 -108q0 -102 -37 -176.5t-106.5 -115t-165.5 -40.5q-116 0 -179 63t-63 177q0 18 4 44.5t10 41.5h323q0 40 -8 62t-34 22q-15 0 -28.5 -12t-18.5 -29l-218 15q80 166 291 166q70 0 122.5 -30zM327 150.5q21 20.5 31 62.5h-119
q-1 -7 -1 -19q0 -64 43 -64q25 0 46 20.5z" />
    <glyph glyph-name="uni04DA" unicode="&#x4da;" horiz-adv-x="730" 
d="M584 730q67 -45 102.5 -121t35.5 -167q0 -123 -51.5 -228t-140 -167t-195.5 -62q-88 0 -155 45.5t-103.5 123t-36.5 171.5q0 28 6.5 62t16.5 59h440q-2 62 -27.5 95t-66.5 33q-27 0 -52 -19.5t-45 -54.5l-220 38q50 112 138.5 174.5t196.5 62.5q90 0 157 -45zM429 221.5
q36 35.5 56 94.5h-227q1 -64 24 -97t63 -33q48 0 84 35.5zM271 866.5q-27 27.5 -27 65.5q0 39 27 66t65 27t65.5 -27t27.5 -66q0 -38 -27.5 -65.5t-65.5 -27.5t-65 27.5zM499.5 866.5q-27.5 27.5 -27.5 65.5q0 39 27.5 66t65.5 27t64.5 -27t26.5 -66q0 -38 -27 -65.5
t-64 -27.5q-38 0 -65.5 27.5z" />
    <glyph glyph-name="uni04DB" unicode="&#x4db;" horiz-adv-x="605" 
d="M470.5 505q52.5 -30 80 -80t27.5 -108q0 -102 -37 -176.5t-106.5 -115t-165.5 -40.5q-116 0 -179 63t-63 177q0 18 4 44.5t10 41.5h323q0 40 -8 62t-34 22q-15 0 -28.5 -12t-18.5 -29l-218 15q80 166 291 166q70 0 122.5 -30zM327 150.5q21 20.5 31 62.5h-119
q-1 -7 -1 -19q0 -64 43 -64q25 0 46 20.5zM185 626.5q-27 27.5 -27 65.5q0 39 27 66t65 27t65.5 -27t27.5 -66q0 -38 -27.5 -65.5t-65.5 -27.5t-65 27.5zM413.5 626.5q-27.5 27.5 -27.5 65.5q0 39 27.5 66t65.5 27t64.5 -27t26.5 -66q0 -38 -27 -65.5t-64 -27.5
q-38 0 -65.5 27.5z" />
    <glyph glyph-name="uni04DC" unicode="&#x4dc;" horiz-adv-x="995" 
d="M778 442l175 -442h-227l-85 287l-33 -38l-35 -249h-220l37 267l-23 39l-154 -306h-245l291 489l-159 271h231l94 -244l34 244h220l-34 -246l147 246h266zM413 866.5q-27 27.5 -27 65.5q0 39 27 66t65 27t65.5 -27t27.5 -66q0 -38 -27.5 -65.5t-65.5 -27.5t-65 27.5z
M641.5 866.5q-27.5 27.5 -27.5 65.5q0 39 27.5 66t65.5 27t64.5 -27t26.5 -66q0 -38 -27 -65.5t-64 -27.5q-38 0 -65.5 27.5z" />
    <glyph glyph-name="uni04DD" unicode="&#x4dd;" horiz-adv-x="823" 
d="M641 308l145 -308h-199l-59 196l-39 -37l-22 -159h-192l24 171l-23 32l-98 -203h-215l219 339l-127 181h201l71 -146l21 146h192l-21 -151l104 151h234zM288 626.5q-27 27.5 -27 65.5q0 39 27 66t65 27t65.5 -27t27.5 -66q0 -38 -27.5 -65.5t-65.5 -27.5t-65 27.5z
M516.5 626.5q-27.5 27.5 -27.5 65.5q0 39 27.5 66t65.5 27t64.5 -27t26.5 -66q0 -38 -27 -65.5t-64 -27.5q-38 0 -65.5 27.5z" />
    <glyph glyph-name="uni04DE" unicode="&#x4de;" horiz-adv-x="587" 
d="M568 256q0 -132 -79 -201.5t-228 -69.5q-116 0 -185 54t-69 147q0 18 3 36l218 3q-2 -14 -2 -21q0 -24 12 -35.5t31 -11.5q30 0 49.5 32t19.5 72q0 30 -20 45t-70 15h-81l21 154h76q49 0 75 23.5t26 58.5q0 48 -45 48q-51 0 -66 -68l-208 17q18 102 93 161.5t211 59.5
q129 0 187.5 -52t58.5 -130q0 -63 -27.5 -111.5t-79.5 -78.5q79 -46 79 -147zM204 866.5q-27 27.5 -27 65.5q0 39 27 66t65 27t65.5 -27t27.5 -66q0 -38 -27.5 -65.5t-65.5 -27.5t-65 27.5zM432.5 866.5q-27.5 27.5 -27.5 65.5q0 39 27.5 66t65.5 27t64.5 -27t26.5 -66
q0 -38 -27 -65.5t-64 -27.5q-38 0 -65.5 27.5z" />
    <glyph glyph-name="uni04DF" unicode="&#x4df;" horiz-adv-x="524" 
d="M488 163q0 -89 -67 -133.5t-190 -44.5q-81 0 -132.5 24t-75 62.5t-23.5 81.5v3l195 2v-5q1 -16 8.5 -23t24.5 -7q24 0 38 17.5t14 40.5q0 20 -11 27.5t-36 7.5h-82l14 100h64q32 0 48.5 17.5t16.5 36.5q0 31 -31 31q-22 0 -35 -14.5t-17 -34.5l-185 21q17 70 79.5 116
t175.5 46q223 0 223 -136q0 -46 -23.5 -77.5t-60.5 -43.5q68 -39 68 -115zM133 626.5q-27 27.5 -27 65.5q0 39 27 66t65 27t65.5 -27t27.5 -66q0 -38 -27.5 -65.5t-65.5 -27.5t-65 27.5zM361.5 626.5q-27.5 27.5 -27.5 65.5q0 39 27.5 66t65.5 27t64.5 -27t26.5 -66
q0 -38 -27 -65.5t-64 -27.5q-38 0 -65.5 27.5z" />
    <glyph glyph-name="uni04E0" unicode="&#x4e0;" horiz-adv-x="571" 
d="M508.5 412.5q46.5 -54.5 46.5 -132.5q0 -140 -79.5 -217.5t-217.5 -77.5q-72 0 -128 24t-87.5 68.5t-31.5 104.5q0 23 4 40l220 3q-2 -12 -2 -22q0 -24 9 -35t31 -11q28 0 45 34t17 85q0 31 -15.5 46t-53.5 15h-109l12 113l100 135h-166l27 175h484l-235 -282
q83 -11 129.5 -65.5z" />
    <glyph glyph-name="uni04E1" unicode="&#x4e1;" horiz-adv-x="515" 
d="M422.5 174q37.5 -47 37.5 -117q0 -133 -72 -205t-195 -72q-101 0 -158 55.5t-58 148.5v6l185 2v-4q0 -25 11 -38t30 -13q30 0 49 33t19 75q0 39 -18.5 55.5t-67.5 16.5q-37 0 -70 -4l11 127h-1l74 127h-139l25 153h457l-219 -278q62 -21 99.5 -68z" />
    <glyph glyph-name="uni04E2" unicode="&#x4e2;" horiz-adv-x="696" 
d="M715 760l-106 -760h-220l58 418l-213 -418h-220l106 760h220l-57 -410l212 410h220zM316 996h268l-14 -104h-268z" />
    <glyph glyph-name="uni04E3" unicode="&#x4e3;" horiz-adv-x="606" 
d="M597 520l-73 -520h-210l33 230l-128 -230h-210l73 520h210l-32 -231l128 231h209zM238 756h268l-14 -104h-268z" />
    <glyph glyph-name="uni04E4" unicode="&#x4e4;" horiz-adv-x="696" 
d="M715 760l-106 -760h-220l58 418l-213 -418h-220l106 760h220l-57 -410l212 410h220zM262 866.5q-27 27.5 -27 65.5q0 39 27 66t65 27t65.5 -27t27.5 -66q0 -38 -27.5 -65.5t-65.5 -27.5t-65 27.5zM490.5 866.5q-27.5 27.5 -27.5 65.5q0 39 27.5 66t65.5 27t64.5 -27
t26.5 -66q0 -38 -27 -65.5t-64 -27.5q-38 0 -65.5 27.5z" />
    <glyph glyph-name="uni04E5" unicode="&#x4e5;" horiz-adv-x="606" 
d="M597 520l-73 -520h-210l33 230l-128 -230h-210l73 520h210l-32 -231l128 231h209zM184 626.5q-27 27.5 -27 65.5q0 39 27 66t65 27t65.5 -27t27.5 -66q0 -38 -27.5 -65.5t-65.5 -27.5t-65 27.5zM412.5 626.5q-27.5 27.5 -27.5 65.5q0 39 27.5 66t65.5 27t64.5 -27
t26.5 -66q0 -38 -27 -65.5t-64 -27.5q-38 0 -65.5 27.5z" />
    <glyph glyph-name="uni04E6" unicode="&#x4e6;" horiz-adv-x="744" 
d="M177 26.5q-66 41.5 -101 116t-35 169.5q0 124 49.5 230t141.5 169.5t212 63.5q90 0 156.5 -42t101.5 -116.5t35 -170.5q0 -122 -50 -228t-142 -169.5t-212 -63.5q-90 0 -156 41.5zM438.5 232q31.5 37 46.5 93t15 112q0 128 -82 128q-46 0 -78 -37.5t-47 -93.5t-15 -112
q0 -127 83 -127q46 0 77.5 37zM286 866.5q-27 27.5 -27 65.5q0 39 27 66t65 27t65.5 -27t27.5 -66q0 -38 -27.5 -65.5t-65.5 -27.5t-65 27.5zM514.5 866.5q-27.5 27.5 -27.5 65.5q0 39 27.5 66t65.5 27t64.5 -27t26.5 -66q0 -38 -27 -65.5t-64 -27.5q-38 0 -65.5 27.5z" />
    <glyph glyph-name="uni04E7" unicode="&#x4e7;" horiz-adv-x="611" 
d="M87.5 49q-57.5 64 -57.5 165q0 94 37 166.5t108 113.5t169 41q121 0 179 -64.5t58 -165.5q0 -94 -37 -166.5t-108 -113t-170 -40.5q-121 0 -178.5 64zM343.5 201q18.5 46 18.5 98q0 66 -42 66q-35 0 -53 -46t-18 -98q0 -66 42 -66q34 0 52.5 46zM188 626.5
q-27 27.5 -27 65.5q0 39 27 66t65 27t65.5 -27t27.5 -66q0 -38 -27.5 -65.5t-65.5 -27.5t-65 27.5zM416.5 626.5q-27.5 27.5 -27.5 65.5q0 39 27.5 66t65.5 27t64.5 -27t26.5 -66q0 -38 -27 -65.5t-64 -27.5q-38 0 -65.5 27.5z" />
    <glyph glyph-name="uni04E8" unicode="&#x4e8;" horiz-adv-x="744" 
d="M600.5 733q66.5 -42 101.5 -116.5t35 -170.5q0 -122 -50 -228t-142 -169.5t-212 -63.5q-90 0 -156 41.5t-101 116t-35 169.5q0 124 49.5 230t141.5 169.5t212 63.5q90 0 156.5 -42zM334.5 539q-36.5 -35 -56.5 -94h238q-2 61 -27 95t-69 34q-49 0 -85.5 -35zM440.5 221
q36.5 35 56.5 94h-238q2 -61 27 -95t69 -34q49 0 85.5 35z" />
    <glyph glyph-name="uni04E9" unicode="&#x4e9;" horiz-adv-x="611" 
d="M523 470.5q58 -64.5 58 -165.5q0 -94 -37 -166.5t-108 -113t-170 -40.5q-121 0 -178.5 64t-57.5 165q0 94 37 166.5t108 113.5t169 41q121 0 179 -64.5zM271.5 369.5q-24.5 -21.5 -37.5 -59.5h160q-1 41 -15.5 61t-46.5 20q-36 0 -60.5 -21.5zM342 151q25 22 38 61h-161
q0 -42 15 -62.5t47 -20.5q36 0 61 22z" />
    <glyph glyph-name="uni04EA" unicode="&#x4ea;" horiz-adv-x="744" 
d="M600.5 733q66.5 -42 101.5 -116.5t35 -170.5q0 -122 -50 -228t-142 -169.5t-212 -63.5q-90 0 -156 41.5t-101 116t-35 169.5q0 124 49.5 230t141.5 169.5t212 63.5q90 0 156.5 -42zM334.5 539q-36.5 -35 -56.5 -94h238q-2 61 -27 95t-69 34q-49 0 -85.5 -35zM440.5 221
q36.5 35 56.5 94h-238q2 -61 27 -95t69 -34q49 0 85.5 35zM286 866.5q-27 27.5 -27 65.5q0 39 27 66t65 27t65.5 -27t27.5 -66q0 -38 -27.5 -65.5t-65.5 -27.5t-65 27.5zM514.5 866.5q-27.5 27.5 -27.5 65.5q0 39 27.5 66t65.5 27t64.5 -27t26.5 -66q0 -38 -27 -65.5
t-64 -27.5q-38 0 -65.5 27.5z" />
    <glyph glyph-name="uni04EB" unicode="&#x4eb;" horiz-adv-x="611" 
d="M523 470.5q58 -64.5 58 -165.5q0 -94 -37 -166.5t-108 -113t-170 -40.5q-121 0 -178.5 64t-57.5 165q0 94 37 166.5t108 113.5t169 41q121 0 179 -64.5zM271.5 369.5q-24.5 -21.5 -37.5 -59.5h160q-1 41 -15.5 61t-46.5 20q-36 0 -60.5 -21.5zM342 151q25 22 38 61h-161
q0 -42 15 -62.5t47 -20.5q36 0 61 22zM186 626.5q-27 27.5 -27 65.5q0 39 27 66t65 27t65.5 -27t27.5 -66q0 -38 -27.5 -65.5t-65.5 -27.5t-65 27.5zM414.5 626.5q-27.5 27.5 -27.5 65.5q0 39 27.5 66t65.5 27t64.5 -27t26.5 -66q0 -38 -27 -65.5t-64 -27.5
q-38 0 -65.5 27.5z" />
    <glyph glyph-name="uni04EC" unicode="&#x4ec;" horiz-adv-x="734" 
d="M579 731.5q71 -43.5 109 -120t38 -171.5q0 -129 -52.5 -233t-142.5 -163t-198 -59q-88 0 -155 44.5t-103 116.5t-37 152l216 5q9 -117 93 -117q48 0 84 35t56 94h-199l20 130h198q-2 63 -25.5 96t-69.5 33q-47 0 -82 -33.5t-55 -93.5l-216 29q44 141 138 220t219 79
q93 0 164 -43.5zM264 866.5q-27 27.5 -27 65.5q0 39 27 66t65 27t65.5 -27t27.5 -66q0 -38 -27.5 -65.5t-65.5 -27.5t-65 27.5zM492.5 866.5q-27.5 27.5 -27.5 65.5q0 39 27.5 66t65.5 27t64.5 -27t26.5 -66q0 -38 -27 -65.5t-64 -27.5q-38 0 -65.5 27.5z" />
    <glyph glyph-name="uni04ED" unicode="&#x4ed;" horiz-adv-x="610" 
d="M466 504.5q56 -30.5 84.5 -83.5t28.5 -121q0 -146 -80 -230.5t-227 -84.5q-116 0 -176.5 62t-66.5 161l176 3q1 -36 19.5 -58.5t54.5 -22.5q35 0 59.5 21t37.5 58h-125l15 104h124q-2 40 -18 58.5t-49 18.5q-74 0 -105 -91l-176 29q30 100 99 153.5t191 53.5
q78 0 134 -30.5zM185 626.5q-27 27.5 -27 65.5q0 39 27 66t65 27t65.5 -27t27.5 -66q0 -38 -27.5 -65.5t-65.5 -27.5t-65 27.5zM413.5 626.5q-27.5 27.5 -27.5 65.5q0 39 27.5 66t65.5 27t64.5 -27t26.5 -66q0 -38 -27 -65.5t-64 -27.5q-38 0 -65.5 27.5z" />
    <glyph glyph-name="uni04EE" unicode="&#x4ee;" horiz-adv-x="639" 
d="M719 760l-401 -760h-242l127 241l-143 519h230l48 -264l139 264h242zM279 996h268l-14 -104h-268z" />
    <glyph glyph-name="uni04EF" unicode="&#x4ef;" 
d="M589 520l-68 -488q-19 -135 -95.5 -193.5t-200.5 -58.5q-104 0 -160.5 43t-73.5 122l221 18q2 -25 8.5 -35.5t24.5 -10.5q23 0 34.5 24t19.5 80l8 55q-61 -72 -148 -72q-66 0 -97.5 43t-31.5 114q0 30 4 55l43 304h220l-39 -272q-4 -24 -4 -45q0 -19 6.5 -28.5t23.5 -9.5
q18 0 29 21t18 64l38 270h220zM233 756h268l-14 -104h-268z" />
    <glyph glyph-name="uni04F0" unicode="&#x4f0;" horiz-adv-x="639" 
d="M719 760l-401 -760h-242l127 241l-143 519h230l48 -264l139 264h242zM225 866.5q-27 27.5 -27 65.5q0 39 27 66t65 27t65.5 -27t27.5 -66q0 -38 -27.5 -65.5t-65.5 -27.5t-65 27.5zM453.5 866.5q-27.5 27.5 -27.5 65.5q0 39 27.5 66t65.5 27t64.5 -27t26.5 -66
q0 -38 -27 -65.5t-64 -27.5q-38 0 -65.5 27.5z" />
    <glyph glyph-name="uni04F1" unicode="&#x4f1;" 
d="M589 520l-68 -488q-19 -135 -95.5 -193.5t-200.5 -58.5q-104 0 -160.5 43t-73.5 122l221 18q2 -25 8.5 -35.5t24.5 -10.5q23 0 34.5 24t19.5 80l8 55q-61 -72 -148 -72q-66 0 -97.5 43t-31.5 114q0 30 4 55l43 304h220l-39 -272q-4 -24 -4 -45q0 -19 6.5 -28.5t23.5 -9.5
q18 0 29 21t18 64l38 270h220zM179 626.5q-27 27.5 -27 65.5q0 39 27 66t65 27t65.5 -27t27.5 -66q0 -38 -27.5 -65.5t-65.5 -27.5t-65 27.5zM407.5 626.5q-27.5 27.5 -27.5 65.5q0 39 27.5 66t65.5 27t64.5 -27t26.5 -66q0 -38 -27 -65.5t-64 -27.5q-38 0 -65.5 27.5z" />
    <glyph glyph-name="uni04F2" unicode="&#x4f2;" horiz-adv-x="639" 
d="M719 760l-401 -760h-242l127 241l-143 519h230l48 -264l139 264h242zM329 827h-127l84 174h189zM567 827h-127l84 174h189z" />
    <glyph glyph-name="uni04F3" unicode="&#x4f3;" 
d="M589 520l-68 -488q-19 -135 -95.5 -193.5t-200.5 -58.5q-104 0 -160.5 43t-73.5 122l221 18q2 -25 8.5 -35.5t24.5 -10.5q23 0 34.5 24t19.5 80l8 55q-61 -72 -148 -72q-66 0 -97.5 43t-31.5 114q0 30 4 55l43 304h220l-39 -272q-4 -24 -4 -45q0 -19 6.5 -28.5t23.5 -9.5
q18 0 29 21t18 64l38 270h220zM283 587h-127l84 174h189zM521 587h-127l84 174h189z" />
    <glyph glyph-name="uni04F4" unicode="&#x4f4;" horiz-adv-x="637" 
d="M656 760l-106 -760h-229l34 246h-53q-60 0 -113.5 25t-87 75t-33.5 121q0 21 4 55l34 238h229l-33 -228q-4 -30 -4 -48q0 -54 52 -54h31l46 330h229zM227 866.5q-27 27.5 -27 65.5q0 39 27 66t65 27t65.5 -27t27.5 -66q0 -38 -27.5 -65.5t-65.5 -27.5t-65 27.5z
M455.5 866.5q-27.5 27.5 -27.5 65.5q0 39 27.5 66t65.5 27t64.5 -27t26.5 -66q0 -38 -27 -65.5t-64 -27.5q-38 0 -65.5 27.5z" />
    <glyph glyph-name="uni04F5" unicode="&#x4f5;" horiz-adv-x="574" 
d="M565 520l-73 -520h-220l20 145h-54q-50 0 -94 20.5t-71 59t-27 89.5q0 17 2 35l26 171h212l-24 -156q-2 -16 -2 -29q0 -15 7 -21.5t28 -6.5h20l30 213h220zM164 626.5q-27 27.5 -27 65.5q0 39 27 66t65 27t65.5 -27t27.5 -66q0 -38 -27.5 -65.5t-65.5 -27.5t-65 27.5z
M392.5 626.5q-27.5 27.5 -27.5 65.5q0 39 27.5 66t65.5 27t64.5 -27t26.5 -66q0 -38 -27 -65.5t-64 -27.5q-38 0 -65.5 27.5z" />
    <glyph glyph-name="uni04F6" unicode="&#x4f6;" horiz-adv-x="476" 
d="M503 576h-180l-80 -576h-229l106 760h411zM319 -140h-181l11 140h-52l29 184h242z" />
    <glyph glyph-name="uni04F7" unicode="&#x4f7;" horiz-adv-x="410" 
d="M405 354h-126l-50 -354h-220l73 520h350zM286 -130h-165l9 130h-43l26 166h218z" />
    <glyph glyph-name="uni04F8" unicode="&#x4f8;" horiz-adv-x="945" 
d="M493 514.5q53 -31.5 80.5 -84t27.5 -115.5q0 -100 -37 -171t-103.5 -107.5t-154.5 -36.5h-292l106 760h228l-30 -214h49q73 0 126 -31.5zM965 760l-107 -760h-228l106 760h229zM347.5 213.5q24.5 38.5 24.5 87.5q0 70 -58 70h-20l-28 -196h14q43 0 67.5 38.5zM383 866.5
q-27 27.5 -27 65.5q0 39 27 66t65 27t65.5 -27t27.5 -66q0 -38 -27.5 -65.5t-65.5 -27.5t-65 27.5zM611.5 866.5q-27.5 27.5 -27.5 65.5q0 39 27.5 66t65.5 27t64.5 -27t26.5 -66q0 -38 -27 -65.5t-64 -27.5q-38 0 -65.5 27.5z" />
    <glyph glyph-name="uni04F9" unicode="&#x4f9;" horiz-adv-x="845" 
d="M436.5 375.5q44.5 -21.5 68 -59t23.5 -83.5q0 -112 -70.5 -172.5t-192.5 -60.5h-256l73 520h218l-18 -123h52q58 0 102.5 -21.5zM837 520l-74 -520h-220l74 520h220zM300 161.5q18 21.5 18 56.5q0 39 -36 39h-19l-17 -117h4q32 0 50 21.5zM272 626.5q-27 27.5 -27 65.5
q0 39 27 66t65 27t65.5 -27t27.5 -66q0 -38 -27.5 -65.5t-65.5 -27.5t-65 27.5zM500.5 626.5q-27.5 27.5 -27.5 65.5q0 39 27.5 66t65.5 27t64.5 -27t26.5 -66q0 -38 -27 -65.5t-64 -27.5q-38 0 -65.5 27.5z" />
    <glyph glyph-name="uni04FC" unicode="&#x4fc;" horiz-adv-x="659" 
d="M524 258q27 -69 39 -116t12 -89q0 -81 -38.5 -142t-108.5 -95t-161 -36l6 183q43 7 65 39.5t22 86.5q0 35 -8 66l-11 42l-119 -197h-259l283 401l-157 359h228l56 -174l101 174h255l-257 -369z" />
    <glyph glyph-name="uni04FD" unicode="&#x4fd;" horiz-adv-x="547" 
d="M422 187q53 -97 53 -182q0 -112 -75.5 -168.5t-224.5 -56.5l7 165q40 0 69 25.5t29 70.5q0 32 -22 78l-67 -119h-240l206 261l-125 259h213l36 -125l75 125h239l-209 -267z" />
    <glyph glyph-name="uni0510" unicode="&#x510;" horiz-adv-x="575" 
d="M402 537q1 6 1 17q0 51 -44 51q-27 0 -40 -20t-13 -46q0 -28 19.5 -46t57.5 -18h76l-23 -154h-81q-57 0 -84.5 -22.5t-27.5 -75.5q0 -29 12.5 -47.5t34.5 -18.5q52 0 58 68l207 -3q-42 -237 -287 -237q-119 0 -187 55t-68 151q0 77 39 137.5t112 83.5q-78 49 -78 141
q0 104 69.5 163t195.5 59q78 0 134.5 -26t86 -70.5t29.5 -100.5q0 -16 -2 -24z" />
    <glyph glyph-name="uni0511" unicode="&#x511;" horiz-adv-x="515" 
d="M276.5 131.5q8.5 8.5 12.5 26.5l201 -2q-18 -89 -83 -130t-186 -41q-109 0 -163 39t-54 106q0 56 25 96.5t77 59.5q-52 29 -52 94q0 70 62.5 112.5t168.5 42.5q108 0 164 -46t64 -116l-186 -21q-4 23 -13.5 36t-27.5 13q-16 0 -25.5 -10t-9.5 -29q0 -21 16.5 -33.5
t42.5 -12.5h56l-15 -100h-89q-25 0 -37.5 -15t-12.5 -40q0 -17 9 -27.5t27 -10.5q20 0 28.5 8.5z" />
    <glyph glyph-name="uni0512" unicode="&#x512;" horiz-adv-x="652" 
d="M624 55q0 -265 -307 -275l8 183q41 11 58 37t17 75q0 16 -2 42l-24 387l-172 -504h-244l314 760h261l88 -659q3 -21 3 -46z" />
    <glyph glyph-name="uni0513" unicode="&#x513;" horiz-adv-x="575" 
d="M537 16q0 -120 -76 -178t-228 -58l6 165q38 0 66.5 24.5t28.5 68.5q0 52 -3 79l-24 222l-124 -339h-220l245 520h239l75 -393q15 -73 15 -111z" />
    <glyph glyph-name="uni051C" unicode="&#x51c;" horiz-adv-x="953" 
d="M1018 760l-278 -760h-233l-9 428l-134 -428h-233l-56 760h235l-11 -502l141 502h204l-2 -511l128 511h248z" />
    <glyph glyph-name="uni051D" unicode="&#x51d;" horiz-adv-x="775" 
d="M816 520l-220 -520h-203l-3 282l-83 -282h-203l-73 520h223l-12 -353l99 353h160v-353l86 353h229z" />
    <glyph glyph-name="uni0524" unicode="&#x524;" horiz-adv-x="732" 
d="M595 0h-228l80 576h-125l-80 -576h-228l106 760h581zM672 -140h-181l11 140h-52l29 184h242z" />
    <glyph glyph-name="uni0525" unicode="&#x525;" horiz-adv-x="629" 
d="M509 0h-220l50 354h-60l-50 -354h-220l73 520h500zM566 -130h-165l9 130h-43l26 166h218z" />
    <glyph glyph-name="uni0526" unicode="&#x526;" horiz-adv-x="737" 
d="M522 466q51 -24 82.5 -74t31.5 -123q0 -26 -5 -56l-30 -213h-230l27 198q4 30 4 45q0 33 -10.5 45t-39.5 12h-66l-42 -300h-230l106 760h230l-38 -270h99q60 0 111 -24zM677 -140h-181l11 140h-52l29 184h242z" />
    <glyph glyph-name="uni0527" unicode="&#x527;" horiz-adv-x="643" 
d="M542 492q32 -43 32 -115q0 -31 -4 -55l-46 -322h-220l41 290q4 32 4 45q0 19 -6.5 29t-22.5 10q-21 0 -33 -22.5t-19 -69.5l-40 -282h-220l107 760h220l-42 -300q61 75 152 75q65 0 97 -43zM580 -130h-165l9 130h-43l26 166h218z" />
    <glyph glyph-name="Wgrave" unicode="&#x1e80;" horiz-adv-x="953" 
d="M1018 760l-278 -760h-233l-9 428l-134 -428h-233l-56 760h235l-11 -502l141 502h204l-2 -511l128 511h248zM525 1001l84 -174h-127l-146 174h189z" />
    <glyph glyph-name="wgrave" unicode="&#x1e81;" horiz-adv-x="775" 
d="M816 520l-220 -520h-203l-3 282l-83 -282h-203l-73 520h223l-12 -353l99 353h160v-353l86 353h229zM406 761l84 -174h-127l-146 174h189z" />
    <glyph glyph-name="Wacute" unicode="&#x1e82;" horiz-adv-x="953" 
d="M1018 760l-278 -760h-233l-9 428l-134 -428h-233l-56 760h235l-11 -502l141 502h204l-2 -511l128 511h248zM602 827h-127l84 174h189z" />
    <glyph glyph-name="wacute" unicode="&#x1e83;" horiz-adv-x="775" 
d="M816 520l-220 -520h-203l-3 282l-83 -282h-203l-73 520h223l-12 -353l99 353h160v-353l86 353h229zM483 587h-127l84 174h189z" />
    <glyph glyph-name="Wdieresis" unicode="&#x1e84;" horiz-adv-x="953" 
d="M1018 760l-278 -760h-233l-9 428l-134 -428h-233l-56 760h235l-11 -502l141 502h204l-2 -511l128 511h248zM386 866.5q-27 27.5 -27 65.5q0 39 27 66t65 27t65.5 -27t27.5 -66q0 -38 -27.5 -65.5t-65.5 -27.5t-65 27.5zM614.5 866.5q-27.5 27.5 -27.5 65.5q0 39 27.5 66
t65.5 27t64.5 -27t26.5 -66q0 -38 -27 -65.5t-64 -27.5q-38 0 -65.5 27.5z" />
    <glyph glyph-name="wdieresis" unicode="&#x1e85;" horiz-adv-x="775" 
d="M816 520l-220 -520h-203l-3 282l-83 -282h-203l-73 520h223l-12 -353l99 353h160v-353l86 353h229zM267 626.5q-27 27.5 -27 65.5q0 39 27 66t65 27t65.5 -27t27.5 -66q0 -38 -27.5 -65.5t-65.5 -27.5t-65 27.5zM495.5 626.5q-27.5 27.5 -27.5 65.5q0 39 27.5 66t65.5 27
t64.5 -27t26.5 -66q0 -38 -27 -65.5t-64 -27.5q-38 0 -65.5 27.5z" />
    <glyph glyph-name="uni1E9E" unicode="&#x1e9e;" horiz-adv-x="802" 
d="M737 370q40 -46 40 -120q0 -81 -33.5 -141t-94 -92t-137.5 -32q-110 0 -166.5 56t-56.5 150v15l199 18q-1 -7 -1 -19q0 -29 9.5 -41.5t24.5 -12.5q22 0 34.5 22.5t12.5 51.5q0 32 -36 50l-205 105l140 213q-24 7 -55 7q-54 0 -81.5 -31.5t-37.5 -101.5l-66 -467h-216
l66 467q21 148 103.5 228t221.5 80q88 0 161.5 -28.5t148.5 -82.5l-131 -201l47 -19q69 -28 109 -74z" />
    <glyph glyph-name="uni1EBC" unicode="&#x1ebc;" horiz-adv-x="510" 
d="M323 576l-13 -95h183l-25 -175h-183l-17 -122h196l-27 -184h-424l107 760h425l-26 -184h-196zM369.5 846.5q-19.5 8.5 -42.5 23.5q-35 23 -57 23q-35 0 -68 -39l-55 64q29 52 69 82.5t90 30.5q25 0 45 -8.5t43 -23.5q17 -11 30 -17t27 -6q31 0 67 39l55 -63
q-27 -51 -67 -82.5t-92 -31.5q-25 0 -44.5 8.5z" />
    <glyph glyph-name="uni1EBD" unicode="&#x1ebd;" horiz-adv-x="609" 
d="M242 207q-1 -8 -1 -22q0 -60 44 -60q15 0 28.5 12t18.5 29l218 -15q-80 -166 -291 -166q-71 0 -123 29t-79.5 78.5t-27.5 110.5q0 102 37 176.5t106.5 115t165.5 40.5q116 0 179 -63t63 -177q0 -18 -4 -45t-10 -43h-324zM256 303h112q1 8 1 23q0 64 -43 64q-52 0 -70 -87
zM371.5 606.5q-19.5 8.5 -42.5 23.5q-35 23 -57 23q-35 0 -68 -39l-55 64q29 52 69 82.5t90 30.5q25 0 45 -8.5t43 -23.5q17 -11 30 -17t27 -6q31 0 67 39l55 -63q-27 -51 -67 -82.5t-92 -31.5q-25 0 -44.5 8.5z" />
    <glyph glyph-name="Ygrave" unicode="&#x1ef2;" horiz-adv-x="628" 
d="M713 760l-417 -760h-239l173 316l-170 444h235l54 -226l124 226h240zM367 1001l84 -174h-127l-146 174h189z" />
    <glyph glyph-name="ygrave" unicode="&#x1ef3;" 
d="M589 520l-68 -488q-19 -135 -95.5 -193.5t-200.5 -58.5q-104 0 -160.5 43t-73.5 122l221 18q2 -25 8.5 -35.5t24.5 -10.5q23 0 34.5 24t19.5 80l8 55q-61 -72 -148 -72q-66 0 -97.5 43t-31.5 114q0 30 4 55l43 304h220l-39 -272q-4 -24 -4 -45q0 -19 6.5 -28.5t23.5 -9.5
q18 0 29 21t18 64l38 270h220zM318 761l84 -174h-127l-146 174h189z" />
    <glyph glyph-name="uni1EF8" unicode="&#x1ef8;" horiz-adv-x="628" 
d="M713 760l-417 -760h-239l173 316l-170 444h235l54 -226l124 226h240zM417.5 846.5q-19.5 8.5 -42.5 23.5q-35 23 -57 23q-35 0 -68 -39l-55 64q29 52 69 82.5t90 30.5q25 0 45 -8.5t43 -23.5q17 -11 30 -17t27 -6q31 0 67 39l55 -63q-27 -51 -67 -82.5t-92 -31.5
q-25 0 -44.5 8.5z" />
    <glyph glyph-name="uni1EF9" unicode="&#x1ef9;" 
d="M589 520l-68 -488q-19 -135 -95.5 -193.5t-200.5 -58.5q-104 0 -160.5 43t-73.5 122l221 18q2 -25 8.5 -35.5t24.5 -10.5q23 0 34.5 24t19.5 80l8 55q-61 -72 -148 -72q-66 0 -97.5 43t-31.5 114q0 30 4 55l43 304h220l-39 -272q-4 -24 -4 -45q0 -19 6.5 -28.5t23.5 -9.5
q18 0 29 21t18 64l38 270h220zM368.5 606.5q-19.5 8.5 -42.5 23.5q-35 23 -57 23q-35 0 -68 -39l-55 64q29 52 69 82.5t90 30.5q25 0 45 -8.5t43 -23.5q17 -11 30 -17t27 -6q31 0 67 39l55 -63q-27 -51 -67 -82.5t-92 -31.5q-25 0 -44.5 8.5z" />
    <glyph glyph-name="endash" unicode="&#x2013;" horiz-adv-x="594" 
d="M73 351h473l-23 -166h-473z" />
    <glyph glyph-name="emdash" unicode="&#x2014;" horiz-adv-x="853" 
d="M73 351h732l-23 -166h-732z" />
    </font>
</defs>
</svg>
