<?xml version="1.0" standalone="no"?>
<!DOCTYPE svg PUBLIC "-//W3C//DTD SVG 1.1//EN" "http://www.w3.org/Graphics/SVG/1.1/DTD/svg11.dtd" >
<svg xmlns="http://www.w3.org/2000/svg" xmlns:xlink="http://www.w3.org/1999/xlink" version="1.1">
<metadata>
Created by FontForge 20170731 at Wed Nov 22 21:06:53 2017
 By Aleksey,,,
Copyright (c) 2017 by Andreu Balius. All rights reserved.
</metadata>
<defs>
<font id="SeatBcn-Web-BlackItalic" horiz-adv-x="701" >
  <font-face 
    font-family="Seat Bcn - Web Black"
    font-weight="750"
    font-style="italic"
    font-stretch="normal"
    units-per-em="1000"
    panose-1="0 0 8 0 0 0 0 0 0 0"
    ascent="760"
    descent="-240"
    x-height="520"
    cap-height="760"
    bbox="-524 -220 1577 1288"
    underline-thickness="50"
    underline-position="-150"
    slope="-8"
    unicode-range="U+000D-FB02"
  />
<missing-glyph horiz-adv-x="700" 
d="M163 705h400v-705h-400v705zM501 62v581h-276v-581h276z" />
    <glyph glyph-name="fi" unicode="fi" horiz-adv-x="698" 
d="M609 0h-218l49 354h-131l-49 -354h-218l49 354h-73l36 166h60l4 28q16 119 81 173t189 54q72 0 132 -15t91 -32l-64 -129q-17 8 -48.5 14.5t-61.5 6.5q-50 0 -73 -21t-31 -73l-1 -6h349z" />
    <glyph glyph-name="fl" unicode="fl" horiz-adv-x="760" 
d="M725 153l-12 -161q-34 -7 -89 -7q-108 0 -157.5 38t-49.5 127q0 23 10 100l50 367q-20 3 -40 3q-50 0 -73 -21t-31 -73l-1 -6h75l-23 -166h-75l-49 -354h-218l49 354h-73l36 166h60l4 28q16 119 81 173t189 54q91 0 184.5 -17t137.5 -32l-65 -467q-5 -35 -5 -50
q0 -28 16.5 -42t53.5 -14h15z" />
    <glyph glyph-name="f_f" unicode="ff" horiz-adv-x="777" 
d="M709.5 602q-18.5 -17 -25.5 -62l-3 -21h121l-23 -166h-121l-49 -353h-218l49 353h-131l-49 -353h-218l49 353h-73l36 166h59l6 40q16 111 76 163t167 52q97 0 195 -42q56 42 153 42q44 0 91.5 -7.5t69.5 -14.5l-32 -142q-43 9 -73 9q-38 0 -56.5 -17zM469 559q5 36 13 60
q-41 9 -68 9q-33 0 -52 -16t-25 -61l-4 -32h130z" />
    <glyph glyph-name="f_f_i" unicode="ffi" horiz-adv-x="1047" 
d="M958 0h-218l49 354h-131l-49 -354h-218l49 354h-131l-49 -354h-218l49 354h-73l36 166h60l5 40q15 110 75.5 162.5t167.5 52.5q97 0 200 -44q63 44 174 44q73 0 133 -15t92 -32l-65 -129q-17 8 -49 14.5t-62 6.5q-49 0 -72.5 -21t-30.5 -73l-1 -6h349zM467 548
q6 42 16 72q-41 9 -69 9q-33 0 -52 -16t-25 -61l-4 -32h130z" />
    <glyph glyph-name="f_f_l" unicode="ffl" horiz-adv-x="1110" 
d="M1074 153l-11 -161q-35 -7 -90 -7q-108 0 -157.5 38t-49.5 127q0 23 10 100l50 367q-19 3 -40 3q-50 0 -73.5 -21t-30.5 -73l-1 -6h74l-23 -166h-74l-49 -354h-218l49 354h-131l-49 -354h-218l49 354h-73l36 166h60l5 40q15 110 75.5 162.5t167.5 52.5q97 0 200 -44
q63 44 175 44q91 0 184.5 -17t137.5 -32l-65 -467q-5 -35 -5 -50q0 -28 16.5 -42t53.5 -14h15zM467 548q6 42 16 72q-41 9 -69 9q-33 0 -52 -16t-25 -61l-4 -32h130z" />
    <glyph glyph-name="uni04570457.liga" unicode="&#x457;&#x457;" horiz-adv-x="686" 
d="M29.5 632.5q-24.5 24.5 -24.5 59.5t24 59.5t59 24.5q34 0 59 -24.5t25 -59.5q0 -34 -25 -59t-59 -25t-58.5 24.5zM237 633q-25 25 -25 59q0 35 24.5 59.5t59.5 24.5q34 0 58 -24.5t24 -59.5t-24 -59.5t-58 -24.5t-59 25zM446.5 632.5q-24.5 24.5 -24.5 59.5t24 59.5
t59 24.5q34 0 59 -24.5t25 -59.5q0 -34 -25 -59t-59 -25t-58.5 24.5zM654 633q-25 25 -25 59q0 35 24.5 59.5t59.5 24.5q34 0 58 -24.5t24 -59.5t-24 -59.5t-58 -24.5t-59 25zM61 520h220l-72 -520h-220zM478 520h220l-72 -520h-220z" />
    <glyph glyph-name=".notdef" horiz-adv-x="700" 
d="M163 705h400v-705h-400v705zM501 62v581h-276v-581h276z" />
    <glyph glyph-name=".null" horiz-adv-x="600" 
 />
    <glyph glyph-name="nonmarkingreturn" unicode="&#xd;" horiz-adv-x="600" 
 />
    <glyph glyph-name="space" unicode=" " horiz-adv-x="210" 
 />
    <glyph glyph-name="exclam" unicode="!" horiz-adv-x="339" 
d="M135 760h203l-89 -497h-165zM69.5 16.5q-31.5 31.5 -31.5 76.5q0 44 31.5 76t76.5 32t76.5 -32t31.5 -76q0 -45 -31.5 -76.5t-76.5 -31.5t-76.5 31.5z" />
    <glyph glyph-name="quotedbl" unicode="&#x22;" horiz-adv-x="549" 
d="M113 640l17 120h178l-17 -120l-43 -156h-133zM364 640l17 120h178l-17 -120l-43 -156h-133z" />
    <glyph glyph-name="numbersign" unicode="#" horiz-adv-x="928" 
d="M767 453l-55 -140h67l-21 -149h-105l-65 -164h-205l65 164h-104l-65 -164h-205l65 164h-72l21 149h109l55 140h-68l20 148h106l63 159h206l-63 -159h103l63 159h206l-63 -159h69l-19 -148h-108zM561 453h-103l-55 -140h103z" />
    <glyph glyph-name="dollar" unicode="$" horiz-adv-x="819" 
d="M646.5 418.5q43.5 -25.5 66.5 -64t23 -96.5q0 -109 -74.5 -178.5t-196.5 -88.5l-17 -118h-189l17 123q-99 21 -149.5 83t-50.5 149l234 16q0 -52 28 -72.5t67 -20.5t64 17.5t25 46.5q0 22 -14.5 33t-47.5 22l-83 27q-112 36 -164 86t-52 139q0 107 69 169.5t183 78.5
l16 111h189l-17 -119q68 -16 111 -51.5t62 -78.5t19 -85l-239 -17q-1 41 -21.5 60.5t-55.5 19.5q-33 0 -53 -15.5t-20 -42.5q0 -18 14.5 -32t56.5 -27l86 -27q70 -22 113.5 -47.5z" />
    <glyph glyph-name="percent" unicode="%" horiz-adv-x="1207" 
d="M173 388q-52 53 -52 144q0 68 28 122t79 84.5t119 30.5q85 0 135.5 -52.5t50.5 -145.5q0 -70 -28.5 -123.5t-79.5 -83t-116 -29.5q-84 0 -136 53zM839 760h218l-660 -760h-218zM361.5 490.5q15.5 27.5 15.5 77.5q0 37 -9.5 55t-31.5 18q-29 0 -43.5 -30.5t-14.5 -77.5
q0 -35 9.5 -52.5t31.5 -17.5q27 0 42.5 27.5zM758.5 43.5q-51.5 52.5 -51.5 144.5q0 68 28 122t79 84.5t118 30.5q85 0 136 -53t51 -145q0 -70 -28.5 -123.5t-79.5 -83t-116 -29.5q-85 0 -136.5 52.5zM947.5 146q15.5 27 15.5 77q0 38 -9.5 56t-31.5 18q-30 0 -44 -30.5
t-14 -77.5q0 -35 9.5 -52.5t31.5 -17.5q27 0 42.5 27z" />
    <glyph glyph-name="ampersand" unicode="&#x26;" horiz-adv-x="856" 
d="M575 0l-34 41q-104 -56 -228 -56q-119 0 -185.5 49.5t-66.5 139.5q0 154 178 230q-32 42 -48.5 79t-16.5 77q0 61 34.5 110t97.5 77t146 28q79 0 133 -22.5t80.5 -60.5t26.5 -84q0 -75 -54 -132t-156 -90l88 -110q17 35 27 76h168q-22 -113 -94 -202l119 -150h-215z
M388 602.5q-18 -18.5 -18 -45.5q0 -18 9.5 -35.5t28.5 -42.5l5 -6q38 19 58.5 45.5t20.5 53.5q0 22 -13 35.5t-40 13.5q-33 0 -51 -18.5zM448 153l-123 148q-21 -17 -34 -41t-13 -47q0 -36 25.5 -56t70.5 -20q38 0 74 16z" />
    <glyph glyph-name="quotesingle" unicode="'" horiz-adv-x="298" 
d="M113 640l17 120h178l-17 -120l-43 -156h-133z" />
    <glyph glyph-name="parenleft" unicode="(" horiz-adv-x="454" 
d="M135 -70q-57 48 -57 139q0 30 5 60l75 545q11 81 42 128.5t93.5 70t168.5 22.5l-20 -141q-51 0 -72.5 -24t-28.5 -75l-75 -534l-2 -28q0 -37 15.5 -53.5t60.5 -16.5l-19 -141q-129 0 -186 48z" />
    <glyph glyph-name="parenright" unicode=")" horiz-adv-x="454" 
d="M355 847q57 -48 57 -139q0 -30 -5 -60l-75 -545q-11 -81 -42 -128.5t-93.5 -70t-168.5 -22.5l20 141q51 0 72.5 24t28.5 75l75 534l2 28q0 37 -15.5 53.5t-60.5 16.5l19 141q129 0 186 -48z" />
    <glyph glyph-name="asterisk" unicode="*" horiz-adv-x="675" 
d="M480 481l83 -109l-154 -102l-54 124l-90 -124l-125 102l114 108l-139 32l80 164l121 -61l4 145h173l-33 -142l136 58l34 -164z" />
    <glyph glyph-name="plus" unicode="+" horiz-adv-x="618" 
d="M529 194h-155l-21 -154h-148l21 154h-153l19 149h155l21 154h148l-21 -154h154z" />
    <glyph glyph-name="comma" unicode="," horiz-adv-x="319" 
d="M212.5 169q31.5 -32 31.5 -77q0 -37 -22.5 -84.5t-68.5 -94t-114 -77.5l-33 54q34 23 58 46t40 55q-34 7 -55 36t-21 66q0 47 33 77.5t76 30.5q44 0 75.5 -32z" />
    <glyph glyph-name="hyphen" unicode="-" horiz-adv-x="473" 
d="M72 348h353l-23 -166h-353z" />
    <glyph glyph-name="period" unicode="." horiz-adv-x="319" 
d="M59.5 16.5q-31.5 31.5 -31.5 76.5q0 44 31.5 76t76.5 32t76.5 -32t31.5 -76q0 -45 -31.5 -76.5t-76.5 -31.5t-76.5 31.5z" />
    <glyph glyph-name="slash" unicode="/" horiz-adv-x="589" 
d="M373 760h236l-360 -760h-235z" />
    <glyph glyph-name="zero" unicode="0" horiz-adv-x="811" 
d="M204 26.5q-69 41.5 -105 113t-36 159.5q0 146 51 253.5t144.5 165t219.5 57.5q94 0 163 -41.5t105 -113t36 -160.5q0 -146 -51 -253t-145 -164.5t-219 -57.5q-94 0 -163 41.5zM477.5 224.5q33.5 34.5 50 90.5t16.5 120q0 66 -25.5 100.5t-70.5 34.5q-71 0 -109 -71
t-38 -174q0 -66 25.5 -100.5t69.5 -34.5q48 0 81.5 34.5z" />
    <glyph glyph-name="one" unicode="1" horiz-adv-x="511" 
d="M471 760l-107 -760h-228l68 494q-52 -12 -131 -12l24 181q87 0 140 22.5t76 74.5h158z" />
    <glyph glyph-name="two" unicode="2" horiz-adv-x="697" 
d="M300.5 225q-22.5 -19 -26.5 -41h350l-26 -184h-604l11 83q11 85 32 140.5t69 101.5t137 86l107 48q56 25 78 44.5t22 48.5q0 20 -14.5 32t-42.5 12q-31 0 -51 -14.5t-28 -39.5l-227 15q29 98 113 158t226 60q83 0 142 -26t89.5 -72t30.5 -105q0 -68 -29 -116.5
t-80.5 -83.5t-132.5 -72l-64 -29q-59 -27 -81.5 -46z" />
    <glyph glyph-name="three" unicode="3" horiz-adv-x="697" 
d="M620.5 344.5q26.5 -40.5 26.5 -98.5q0 -84 -41 -142.5t-114 -88.5t-167 -30q-118 0 -196 61.5t-91 168.5l229 16q4 -30 22.5 -43t46.5 -13q38 0 59.5 21.5t21.5 59.5q0 62 -89 62h-82l20 149h53q60 0 89.5 22.5t29.5 59.5q0 22 -13.5 34.5t-40.5 12.5q-29 0 -47.5 -14.5
t-27.5 -39.5l-227 15q36 95 116.5 156.5t219.5 61.5q82 0 138 -24.5t84 -66.5t28 -95q0 -60 -32 -106t-88 -76q46 -22 72.5 -62.5z" />
    <glyph glyph-name="four" unicode="4" horiz-adv-x="734" 
d="M707 140h-102l-19 -140h-220l19 140h-361l23 167l184 453h229l-192 -453h141l29 213h220l-29 -213h102z" />
    <glyph glyph-name="five" unicode="5" horiz-adv-x="703" 
d="M570.5 488q48.5 -30 71.5 -79.5t23 -107.5q0 -98 -42.5 -169.5t-120 -109t-179.5 -37.5q-74 0 -137 24.5t-104.5 74.5t-49.5 122l225 17q3 -33 25 -48t51 -15q49 0 77 31.5t28 86.5q0 41 -21 61t-57 20q-29 0 -54.5 -14.5t-41.5 -39.5l-187 38l58 417h527l-24 -171h-312
l-14 -102q62 31 137 31q73 0 121.5 -30z" />
    <glyph glyph-name="six" unicode="6" horiz-adv-x="746" 
d="M648.5 462q55.5 -56 55.5 -153q0 -103 -46.5 -176t-126 -110.5t-179.5 -37.5q-91 0 -156.5 36t-100.5 102.5t-35 157.5q0 28 3 65q11 130 62.5 226.5t137.5 149.5t199 53t181.5 -55t81.5 -142l-224 -15q-12 46 -65 46q-94 0 -124 -154q74 63 180 63q101 0 156.5 -56z
M450.5 196q27.5 36 27.5 82q0 37 -18.5 59t-57.5 22q-49 0 -76.5 -35.5t-27.5 -82.5q0 -37 19 -59t57 -22q49 0 76.5 36z" />
    <glyph glyph-name="seven" unicode="7" horiz-adv-x="606" 
d="M686 760l-472 -760h-237l368 585h-289l24 175h606z" />
    <glyph glyph-name="eight" unicode="8" horiz-adv-x="725" 
d="M649.5 342q30.5 -43 30.5 -104q0 -73 -40 -130t-119.5 -90t-193.5 -33q-96 0 -162.5 25t-100 69t-33.5 101q0 70 44 122.5t125 84.5q-87 62 -87 154q0 111 86 172.5t235 61.5q143 0 212 -46.5t69 -124.5q0 -126 -155 -186q59 -33 89.5 -76zM363.5 599.5
q-22.5 -18.5 -22.5 -50.5q0 -44 74 -72l14 -5q58 41 58 86q0 29 -19 44.5t-49 15.5q-33 0 -55.5 -18.5zM423 175q28 24 28 60q0 24 -22.5 41t-74.5 37l-28 11q-30 -24 -46.5 -49t-16.5 -56t21 -49.5t64 -18.5q47 0 75 24z" />
    <glyph glyph-name="nine" unicode="9" horiz-adv-x="747" 
d="M641.5 694q78.5 -81 78.5 -224q0 -38 -2 -54q-19 -207 -115.5 -319t-267.5 -112q-104 0 -181.5 49t-98.5 148l225 15q14 -46 67 -46q46 0 75 36t46 118q-36 -31 -80 -47t-91 -16q-105 0 -162.5 59.5t-57.5 155.5q0 98 43 169.5t121.5 110t183.5 38.5q138 0 216.5 -81z
M453 436.5q28 35.5 28 81.5q0 38 -18.5 60t-57.5 22q-50 0 -76.5 -35t-26.5 -85q0 -36 18.5 -57.5t55.5 -21.5q49 0 77 35.5z" />
    <glyph glyph-name="colon" unicode=":" horiz-adv-x="319" 
d="M59.5 16.5q-31.5 31.5 -31.5 76.5q0 44 31.5 76t76.5 32t76.5 -32t31.5 -76q0 -45 -31.5 -76.5t-76.5 -31.5t-76.5 31.5zM105.5 342.5q-31.5 31.5 -31.5 76.5q0 44 31.5 76t76.5 32t76.5 -32t31.5 -76q0 -45 -31.5 -76.5t-76.5 -31.5t-76.5 31.5z" />
    <glyph glyph-name="semicolon" unicode=";" horiz-adv-x="319" 
d="M212.5 169q31.5 -32 31.5 -77q0 -37 -22.5 -84.5t-68.5 -94t-114 -77.5l-33 54q34 23 58 46t40 55q-34 7 -55 36t-21 66q0 47 33 77.5t76 30.5q44 0 75.5 -32zM105.5 342.5q-31.5 31.5 -31.5 76.5q0 44 31.5 76t76.5 32t76.5 -32t31.5 -76q0 -45 -31.5 -76.5t-76.5 -31.5
t-76.5 31.5z" />
    <glyph glyph-name="less" unicode="&#x3c;" horiz-adv-x="596" 
d="M535 396l-293 -131l256 -132l-25 -174l-402 234l22 153l465 225z" />
    <glyph glyph-name="equal" unicode="=" horiz-adv-x="617" 
d="M109 464h456l-20 -149h-456zM76 221h456l-21 -149h-457z" />
    <glyph glyph-name="greater" unicode="&#x3e;" horiz-adv-x="596" 
d="M62 134l293 131l-256 132l25 174l402 -234l-22 -153l-465 -225z" />
    <glyph glyph-name="question" unicode="?" horiz-adv-x="661" 
d="M213 283q6 46 18 78t39.5 60.5t78.5 51.5l33 15q49 23 49 60q0 21 -14 32.5t-40 11.5q-60 0 -97 -60l-181 73q42 77 119 123.5t189 46.5q121 0 183.5 -54.5t62.5 -144.5q0 -69 -36 -117t-100 -81l-53 -27q-31 -16 -42.5 -32.5t-14.5 -40.5l-3 -24h-195zM224.5 16.5
q-31.5 31.5 -31.5 76.5q0 44 31.5 76t76.5 32q44 0 76 -32t32 -76q0 -45 -32 -76.5t-76 -31.5q-45 0 -76.5 31.5z" />
    <glyph glyph-name="at" unicode="@" horiz-adv-x="1204" 
d="M926 726q101 -49 156.5 -136t55.5 -195q0 -96 -35.5 -174.5t-101 -124t-152.5 -45.5q-69 0 -115.5 31.5t-62.5 85.5q-34 -52 -83 -84.5t-114 -32.5t-108.5 40.5t-43.5 118.5q0 74 34.5 143t92.5 112.5t126 43.5q45 0 74 -19.5t43 -50.5l15 59h186l-51 -201q-7 -24 -7 -40
q0 -46 44 -46t67 53t23 121q0 77 -37 131.5t-103 82.5t-151 28q-121 0 -219.5 -57t-154.5 -153t-56 -209q0 -80 36 -138.5t102 -90t155 -31.5q55 0 97.5 8t86.5 25l18 -142q-66 -25 -120 -34.5t-125 -9.5q-123 0 -219 49t-150 137.5t-54 203.5q0 163 80.5 298t222 213.5
t316.5 78.5q131 0 232 -49zM634 232.5q27 35.5 27 77.5q0 26 -12 41t-34 15q-23 0 -44 -15t-34 -41t-13 -56q0 -26 13 -41.5t35 -15.5q35 0 62 35.5z" />
    <glyph glyph-name="A" unicode="A" horiz-adv-x="751" 
d="M464 96h-226l-38 -96h-237l351 760h260l140 -760h-239zM446 254l-33 283l-112 -283h145z" />
    <glyph glyph-name="B" unicode="B" horiz-adv-x="676" 
d="M652 248q0 -70 -34.5 -126t-105.5 -89t-177 -33h-318l106 760h311q116 0 177 -47t61 -125q0 -58 -29.5 -104t-87.5 -76q97 -48 97 -160zM427 488q23 23 23 54q0 24 -16 37.5t-49 13.5h-65l-18 -128h59q43 0 66 23zM409.5 195q26.5 25 26.5 69q0 30 -20 47.5t-58 17.5h-75
l-22 -159h67q55 0 81.5 25z" />
    <glyph glyph-name="C" unicode="C" horiz-adv-x="842" 
d="M221.5 30q-82.5 45 -127.5 127t-45 191q0 118 53 215.5t151.5 154.5t227.5 57q109 0 188.5 -40.5t124 -110.5t51.5 -159l-239 -17q-6 58 -39.5 89.5t-91.5 31.5q-55 0 -98 -29t-66.5 -78t-23.5 -108q0 -75 37 -117t99 -42q55 0 100.5 33t65.5 86l233 -18
q-25 -90 -81.5 -160.5t-140.5 -110.5t-187 -40q-109 0 -191.5 45z" />
    <glyph glyph-name="D" unicode="D" horiz-adv-x="795" 
d="M610.5 716q83.5 -44 127.5 -119t44 -167q0 -126 -59 -224t-163.5 -152t-236.5 -54h-306l106 760h289q115 0 198.5 -44zM487.5 245.5q56.5 61.5 56.5 170.5q0 160 -179 160h-39l-55 -392h48q112 0 168.5 61.5z" />
    <glyph glyph-name="E" unicode="E" horiz-adv-x="575" 
d="M326 576l-13 -95h238l-25 -176h-238l-17 -121h252l-25 -184h-481l106 760h480l-26 -184h-251z" />
    <glyph glyph-name="F" unicode="F" horiz-adv-x="553" 
d="M326 576l-13 -95h223l-25 -175h-223l-43 -306h-228l106 760h464l-25 -184h-236z" />
    <glyph glyph-name="G" unicode="G" horiz-adv-x="836" 
d="M444 433h368l-44 -323q-69 -56 -163.5 -90.5t-202.5 -34.5q-109 0 -189 44.5t-123 123.5t-43 180q0 123 52.5 223.5t152 159.5t234.5 59q102 0 177 -40t117 -99.5t52 -119.5l-251 -18q-10 28 -40 51.5t-79 23.5q-60 0 -101.5 -31.5t-62 -83t-20.5 -111.5q0 -170 157 -170
q81 0 139 33l9 69h-159z" />
    <glyph glyph-name="H" unicode="H" horiz-adv-x="757" 
d="M773 760l-106 -760h-229l42 299h-193l-42 -299h-228l106 760h229l-39 -277h193l39 277h228z" />
    <glyph glyph-name="I" unicode="I" horiz-adv-x="335" 
d="M123 760h229l-107 -760h-228z" />
    <glyph glyph-name="J" unicode="J" horiz-adv-x="706" 
d="M170.5 18.5q-65.5 33.5 -102 98t-36.5 154.5l229 15q0 -91 71 -91q43 0 68 27t33 83l64 455h229l-63 -453q-23 -169 -109.5 -245.5t-232.5 -76.5q-85 0 -150.5 33.5z" />
    <glyph glyph-name="K" unicode="K" horiz-adv-x="714" 
d="M492 452l201 -452h-245l-112 282l-61 -66l-30 -216h-228l106 760h229l-33 -231l194 231h261z" />
    <glyph glyph-name="L" unicode="L" horiz-adv-x="534" 
d="M503 184l-26 -184h-460l106 760h229l-81 -576h232z" />
    <glyph glyph-name="M" unicode="M" horiz-adv-x="940" 
d="M919 760l-46 -760h-239l30 391l-184 -391h-97l-74 391l-79 -391h-237l166 760h248l76 -394l184 394h252z" />
    <glyph glyph-name="N" unicode="N" horiz-adv-x="766" 
d="M782 760l-106 -760h-226l-145 444l-62 -444h-226l106 760h226l146 -439l61 439h226z" />
    <glyph glyph-name="O" unicode="O" horiz-adv-x="863" 
d="M220.5 30q-82.5 45 -127 127t-44.5 191q0 125 58 222.5t158 151t221 53.5q109 0 191 -45t126.5 -127t44.5 -191q0 -125 -58 -222.5t-158 -151t-220 -53.5q-109 0 -191.5 45zM514.5 220q43.5 26 69.5 74.5t26 113.5q0 75 -35.5 116.5t-98.5 41.5q-49 0 -92.5 -26
t-70 -74.5t-26.5 -112.5q0 -75 36 -117t99 -42q49 0 92.5 26z" />
    <glyph glyph-name="P" unicode="P" horiz-adv-x="698" 
d="M631.5 696q69.5 -64 69.5 -172q0 -98 -41 -170t-116 -110.5t-175 -38.5h-95l-29 -205h-228l106 760h307q132 0 201.5 -64zM440 416q29 36 29 84q0 38 -23 61.5t-73 23.5h-46l-28 -205h52q60 0 89 36z" />
    <glyph glyph-name="Q" unicode="Q" horiz-adv-x="863" 
d="M812 233.5q-36 -81.5 -101 -139.5l69 -136l-204 -128l-82 162q-38 -7 -82 -7q-109 0 -191.5 45t-127 127t-44.5 191q0 125 58 222.5t158 151t221 53.5q109 0 191 -45t126.5 -127t44.5 -191q0 -97 -36 -178.5zM323 236q36 -42 99 -42q49 0 92.5 26t69.5 74.5t26 113.5
q0 75 -35.5 116.5t-98.5 41.5q-49 0 -92.5 -26t-70 -74.5t-26.5 -112.5q0 -75 36 -117z" />
    <glyph glyph-name="R" unicode="R" horiz-adv-x="707" 
d="M665 362q-37 -70 -105 -110l96 -252h-232l-68 205h-82l-29 -205h-228l106 760h308q132 0 201.5 -64t69.5 -172q0 -92 -37 -162zM299 380h52q61 0 90 36t29 84q0 38 -23 61.5t-73 23.5h-47z" />
    <glyph glyph-name="S" unicode="S" horiz-adv-x="723" 
d="M163.5 16.5q-68.5 31.5 -102 86t-33.5 125.5l234 16q0 -52 28 -72.5t67 -20.5t64 17.5t25 46.5q0 22 -14.5 33t-47.5 22l-83 27q-112 36 -164 86t-52 139q0 84 43 141t117 84.5t167 27.5q108 0 176.5 -35t98.5 -87.5t30 -105.5l-239 -17q-1 41 -21.5 60.5t-55.5 19.5
q-33 0 -53 -15.5t-20 -42.5q0 -18 14.5 -32t56.5 -27l86 -27q70 -22 113.5 -47.5t66.5 -64t23 -96.5q0 -86 -46.5 -147.5t-127 -93.5t-181.5 -32t-169.5 31.5z" />
    <glyph glyph-name="T" unicode="T" horiz-adv-x="644" 
d="M668 576h-188l-80 -576h-229l80 576h-187l26 184h603z" />
    <glyph glyph-name="U" unicode="U" horiz-adv-x="773" 
d="M136.5 54q-82.5 69 -82.5 198q0 38 7 83l59 425h231l-61 -429q-3 -22 -3 -46q0 -90 94 -90q49 0 80 29.5t40 97.5l62 438h230l-60 -430q-18 -127 -61.5 -202t-119.5 -109t-194 -34q-139 0 -221.5 69z" />
    <glyph glyph-name="V" unicode="V" horiz-adv-x="731" 
d="M801 760l-350 -760h-244l-137 760h232l58 -523l198 523h243z" />
    <glyph glyph-name="W" unicode="W" horiz-adv-x="1080" 
d="M1140 760l-300 -760h-234l-41 442l-161 -442h-234l-90 760h237l13 -531l176 531h201l32 -533l162 533h239z" />
    <glyph glyph-name="X" unicode="X" horiz-adv-x="740" 
d="M506 394l197 -394h-238l-94 218l-154 -218h-254l316 401l-182 359h238l77 -198l131 198h255z" />
    <glyph glyph-name="Y" unicode="Y" horiz-adv-x="699" 
d="M784 760l-485 -760h-241l195 306l-193 454h241l83 -249l159 249h241z" />
    <glyph glyph-name="Z" unicode="Z" horiz-adv-x="686" 
d="M347 184h300l-26 -184h-642l394 576h-268l26 184h610z" />
    <glyph glyph-name="bracketleft" unicode="[" horiz-adv-x="522" 
d="M354 746l-99 -715h153l-19 -149h-340l140 1013h335l-20 -149h-150z" />
    <glyph glyph-name="backslash" unicode="\" horiz-adv-x="801" 
d="M355 760h-236l360 -760h235z" />
    <glyph glyph-name="bracketright" unicode="]" horiz-adv-x="522" 
d="M204 31l99 715h-153l19 149h340l-140 -1013h-335l20 149h150z" />
    <glyph glyph-name="asciicircum" unicode="^" horiz-adv-x="611" 
d="M367 391l-23 123l-63 -123h-183l172 263h189l90 -263h-182z" />
    <glyph glyph-name="underscore" unicode="_" horiz-adv-x="611" 
d="M-13 -46h550l-20 -148h-550z" />
    <glyph glyph-name="grave" unicode="`" horiz-adv-x="425" 
d="M326 760l95 -174h-131l-170 174h206z" />
    <glyph glyph-name="a" unicode="a" 
d="M689 520l-72 -520h-204l-4 82q-70 -97 -178 -97q-55 0 -99.5 27t-70.5 80.5t-26 131.5q0 85 31.5 156t89 113t132.5 42q64 0 107.5 -30.5t61.5 -76.5l13 92h219zM410 191q30 36 30 87q0 40 -19.5 63t-54.5 23q-44 0 -74 -35t-30 -87q0 -41 19.5 -64t53.5 -23q45 0 75 36z
" />
    <glyph glyph-name="b" unicode="b" horiz-adv-x="702" 
d="M616.5 477.5q52.5 -57.5 52.5 -163.5q0 -92 -34 -167t-96 -118.5t-141 -43.5q-58 0 -96 25.5t-57 71.5l-26 -82h-205l106 760h220l-47 -331q32 49 80 77.5t107 28.5q84 0 136.5 -57.5zM412.5 190.5q29.5 35.5 29.5 88.5q0 40 -20 62.5t-54 22.5q-45 0 -74.5 -35.5
t-29.5 -87.5q0 -40 20 -63t55 -23q44 0 73.5 35.5z" />
    <glyph glyph-name="c" unicode="c" horiz-adv-x="660" 
d="M163.5 16.5q-61.5 31.5 -95 86t-33.5 120.5q0 99 43 169.5t118.5 106.5t173.5 36q121 0 189.5 -58t74.5 -157l-212 -14q-4 29 -22 43.5t-45 14.5q-43 0 -71.5 -33t-28.5 -88q0 -41 19 -64.5t55 -23.5q26 0 48 15.5t34 46.5l207 -16q-25 -98 -103.5 -157t-207.5 -59
q-82 0 -143.5 31.5z" />
    <glyph glyph-name="d" unicode="d" horiz-adv-x="704" 
d="M724 760l-106 -760h-205l-3 82q-31 -42 -75 -69.5t-101 -27.5q-54 0 -99.5 26t-72.5 80t-27 134q0 86 31.5 157t89 112t133.5 41q65 0 108 -31t61 -77l46 333h220zM410.5 190.5q29.5 35.5 29.5 87.5q0 41 -19.5 63.5t-54.5 22.5q-44 0 -73.5 -35t-29.5 -87
q0 -41 19.5 -64t53.5 -23q45 0 74.5 35.5z" />
    <glyph glyph-name="e" unicode="e" horiz-adv-x="682" 
d="M636 209h-385q1 -37 21.5 -60.5t52.5 -23.5q53 0 79 42l216 -15q-44 -85 -122.5 -126t-192.5 -41q-84 0 -145.5 33t-93 87.5t-31.5 118.5q0 97 42.5 167t118.5 107t175 37q86 0 149 -30t96 -82t33 -118q0 -50 -13 -96zM262 305h175q-2 42 -20.5 65.5t-53.5 23.5
q-77 0 -101 -89z" />
    <glyph glyph-name="f" unicode="f" horiz-adv-x="427" 
d="M360.5 603.5q-17.5 -16.5 -24.5 -61.5l-3 -22h122l-24 -166h-121l-50 -354h-218l49 354h-73l36 166h60l5 40q15 111 75.5 163t171.5 52q39 0 87 -7.5t68 -14.5l-30 -141q-36 8 -75 8q-38 0 -55.5 -16.5z" />
    <glyph glyph-name="g" unicode="g" 
d="M689 520l-68 -486q-18 -129 -97 -191.5t-219 -62.5q-120 0 -194 44t-88 123l225 17q5 -25 19.5 -36t42.5 -11q39 0 59.5 23t28.5 78l11 74q-27 -39 -72 -64.5t-105 -25.5q-86 0 -141.5 56.5t-55.5 168.5q0 84 32 154.5t90 112t134 41.5q64 0 105 -30t59 -74l29 89h205z
M409.5 194.5q30.5 34.5 30.5 83.5q0 39 -20.5 62.5t-56.5 23.5q-44 0 -72.5 -34.5t-28.5 -83.5q0 -41 19.5 -63.5t54.5 -22.5q43 0 73.5 34.5z" />
    <glyph glyph-name="h" unicode="h" horiz-adv-x="665" 
d="M593 488.5q39 -46.5 39 -122.5q0 -34 -5 -68l-42 -298h-220l38 268q5 35 5 52q0 29 -13 41.5t-37 12.5q-65 0 -84 -89l-40 -285h-220l106 760h220l-43 -310q33 41 79 63t100 22q78 0 117 -46.5z" />
    <glyph glyph-name="i" unicode="i" horiz-adv-x="326" 
d="M143 618q-34 34 -34 82t34 81.5t81 33.5q48 0 82 -33.5t34 -81.5t-34 -82t-82 -34q-47 0 -81 34zM89 520h220l-72 -520h-220z" />
    <glyph glyph-name="j" unicode="j" horiz-adv-x="342" 
d="M159 618q-34 34 -34 82t34 81.5t82 33.5t81.5 -33.5t33.5 -81.5t-33.5 -82t-81.5 -34t-82 34zM-62 -215q-36 5 -63 13l35 156q31 -7 56 -7q37 0 52 18t21 63l69 492h217l-73 -524q-16 -114 -75 -165t-170 -51q-33 0 -69 5z" />
    <glyph glyph-name="k" unicode="k" horiz-adv-x="621" 
d="M428 321l172 -321h-217l-95 194l-35 -32l-23 -162h-216l106 760h216l-50 -358l114 118h250z" />
    <glyph glyph-name="l" unicode="l" horiz-adv-x="383" 
d="M88.5 23q-49.5 38 -49.5 127q0 20 10 100l71 510h218l-71 -501q-4 -28 -4 -50q0 -28 16.5 -42t52.5 -14h15l-11 -161q-35 -7 -90 -7q-108 0 -157.5 38z" />
    <glyph glyph-name="m" unicode="m" horiz-adv-x="972" 
d="M901.5 491q37.5 -44 37.5 -122q0 -26 -4 -56l-43 -313h-220l38 273q5 35 5 53q0 48 -39 48q-33 0 -51 -28.5t-25 -76.5l-37 -269h-220l38 273q4 36 4 53q0 48 -39 48q-32 0 -50 -28.5t-25 -75.5h-1l-37 -270h-220l72 520h197l11 -70q31 41 73.5 63t94.5 22q60 0 95.5 -29
t47.5 -81q33 53 80 81.5t106 28.5q74 0 111.5 -44z" />
    <glyph glyph-name="n" unicode="n" horiz-adv-x="665" 
d="M592.5 488.5q39.5 -46.5 39.5 -122.5q0 -26 -6 -68l-41 -298h-220l38 268q4 28 4 52q0 29 -12.5 41.5t-37.5 12.5q-34 0 -56 -26t-30 -78h-1l-37 -270h-220l72 520h197l11 -75q34 43 81 66.5t102 23.5q77 0 116.5 -46.5z" />
    <glyph glyph-name="o" unicode="o" horiz-adv-x="687" 
d="M168.5 15q-63.5 30 -98.5 84t-35 125q0 98 42 168t119 106.5t179 36.5q81 0 144 -30t98 -84.5t35 -125.5q0 -98 -42 -168t-118.5 -106t-178.5 -36q-81 0 -144.5 30zM402.5 190q29.5 35 29.5 88q0 41 -19.5 63.5t-53.5 22.5q-44 0 -74 -35.5t-30 -87.5q0 -41 19.5 -63.5
t53.5 -22.5q45 0 74.5 35z" />
    <glyph glyph-name="p" unicode="p" horiz-adv-x="703" 
d="M617.5 477q52.5 -58 52.5 -163q0 -91 -34.5 -166t-96.5 -119t-141 -44q-57 0 -95 25t-57 70l-40 -285h-220l101 725h205l3 -90q32 49 79.5 77t106.5 28q84 0 136.5 -58zM412.5 190.5q29.5 35.5 29.5 89.5q0 39 -20 61.5t-54 22.5q-44 0 -74 -35.5t-30 -89.5
q0 -38 20.5 -61t55.5 -23q43 0 72.5 35.5z" />
    <glyph glyph-name="q" unicode="q" horiz-adv-x="703" 
d="M690 520l-102 -725h-220l40 287q-29 -41 -73.5 -69t-102.5 -28q-55 0 -100 27t-71 80.5t-26 129.5q0 83 30.5 154.5t87.5 115t135 43.5q63 0 106 -29.5t62 -74.5l28 89h206zM410 191q30 36 30 87q0 40 -19.5 63t-54.5 23q-44 0 -74 -35t-30 -87q0 -41 19.5 -64t53.5 -23
q45 0 75 36z" />
    <glyph glyph-name="r" unicode="r" horiz-adv-x="476" 
d="M504 528l-42 -193q-45 9 -75 9q-47 0 -78.5 -25.5t-42.5 -75.5l-34 -243h-220l73 520h191l14 -98q33 56 76.5 84.5t90.5 28.5q29 0 47 -7z" />
    <glyph glyph-name="s" unicode="s" horiz-adv-x="592" 
d="M73 26.5q-68 41.5 -74 118.5l228 15q0 -29 14 -42.5t37 -13.5q24 0 39.5 10t15.5 32q0 18 -17.5 27.5t-69.5 24.5l-43 13q-81 24 -121.5 55.5t-40.5 90.5q0 178 283 178q112 0 177.5 -36t73.5 -107l-215 -14q0 19 -13 30t-35 11t-35.5 -9t-13.5 -25q0 -11 14.5 -18
t51.5 -17l52 -14q62 -17 98 -32.5t58 -44t22 -75.5q0 -97 -75 -148t-222 -51q-121 0 -189 41.5z" />
    <glyph glyph-name="t" unicode="t" horiz-adv-x="480" 
d="M296 245q-4 -28 -4 -41q0 -26 13.5 -38.5t44.5 -12.5q38 0 73 7l-10 -161q-70 -14 -160 -14q-88 0 -136.5 36.5t-48.5 127.5q0 24 6 66l20 139h-76l33 166h66l19 130h217l-18 -130h130l-23 -166h-131z" />
    <glyph glyph-name="u" unicode="u" horiz-adv-x="659" 
d="M647 520l-72 -520h-196l-11 75q-33 -43 -79 -66.5t-102 -23.5q-75 0 -115 41.5t-40 112.5q0 25 5 60l44 321h220l-38 -277q-4 -28 -4 -43q0 -55 48 -55q37 0 56 28.5t27 77.5l37 269h220z" />
    <glyph glyph-name="v" unicode="v" horiz-adv-x="625" 
d="M672 520l-282 -520h-225l-138 520h228l48 -337l133 337h236z" />
    <glyph glyph-name="w" unicode="w" horiz-adv-x="886" 
d="M923 520l-241 -520h-210l-31 266l-96 -266h-210l-98 520h229l14 -324l112 324h171l23 -322l101 322h236z" />
    <glyph glyph-name="x" unicode="x" horiz-adv-x="606" 
d="M419 266l160 -266h-227l-63 140l-108 -140h-228l239 267l-151 253h227l54 -125l95 125h228z" />
    <glyph glyph-name="y" unicode="y" horiz-adv-x="660" 
d="M648 520l-68 -488q-36 -252 -317 -252q-120 0 -188 44t-79 124l224 17q2 -24 15.5 -36t40.5 -12q38 0 56 24.5t26 79.5l10 71q-33 -41 -78 -63.5t-100 -22.5q-75 0 -114.5 41.5t-39.5 112.5q0 26 5 59l41 301h220l-35 -256q-4 -28 -4 -43q0 -29 11.5 -41.5t36.5 -12.5
q68 0 82 104l35 249h220z" />
    <glyph glyph-name="z" unicode="z" horiz-adv-x="568" 
d="M313 162h218l-22 -162h-535l269 359h-191l33 161h500z" />
    <glyph glyph-name="braceleft" unicode="{" horiz-adv-x="524" 
d="M531 895l-19 -141q-45 0 -65.5 -22t-26.5 -64l-16 -118q-7 -53 -32 -94t-65 -66q56 -44 56 -124q0 -12 -5 -45l-15 -112q-2 -16 -2 -23q0 -30 15.5 -46.5t52.5 -16.5l-18 -141h-30q-87 0 -146.5 46t-59.5 139q0 32 4 57l16 113q2 18 2 24q0 30 -15.5 46t-52.5 16l4 28
l14 104q45 0 65 22.5t26 62.5l20 142q16 117 74 165t168 48h51z" />
    <glyph glyph-name="bar" unicode="|" horiz-adv-x="469" 
d="M190 760h229l-135 -965h-229z" />
    <glyph glyph-name="braceright" unicode="}" horiz-adv-x="524" 
d="M29 -118l19 141q45 0 65.5 22t26.5 64l16 118q7 53 32 94t65 66q-56 44 -56 124q0 12 5 45l15 112q2 16 2 23q0 30 -15.5 46.5t-52.5 16.5l18 141h30q87 0 146.5 -46t59.5 -139q0 -32 -4 -57l-16 -113q-2 -18 -2 -24q0 -30 15.5 -46t52.5 -16l-4 -28l-14 -104
q-45 0 -65 -22.5t-26 -62.5l-20 -142q-16 -117 -74 -165t-168 -48h-51z" />
    <glyph glyph-name="asciitilde" unicode="~" horiz-adv-x="620" 
d="M374.5 334.5q-21.5 6.5 -51.5 20.5q-29 14 -52 20.5t-52 6.5q-72 0 -128 -44l21 153q24 21 56.5 32t68.5 11q29 0 51.5 -6.5t52.5 -20.5q30 -13 53 -20t53 -7q74 0 130 44l-21 -153q-24 -21 -58.5 -32t-71.5 -11q-30 0 -51.5 6.5z" />
    <glyph glyph-name="uni00A0" unicode="&#xa0;" horiz-adv-x="210" 
 />
    <glyph glyph-name="exclamdown" unicode="&#xa1;" horiz-adv-x="339" 
d="M274.5 538.5q31.5 -31.5 31.5 -76.5q0 -44 -31.5 -76t-76.5 -32t-76.5 32t-31.5 76q0 45 31.5 76.5t76.5 31.5t76.5 -31.5zM209 -205h-203l89 497h165z" />
    <glyph glyph-name="cent" unicode="&#xa2;" horiz-adv-x="750" 
d="M421 170.5q22 15.5 34 46.5l207 -16q-21 -82 -78.5 -137t-150.5 -72l-17 -119h-193l18 130q-76 26 -119 85.5t-43 134.5q0 122 63.5 199.5t171.5 101.5l17 114h193l-16 -114q78 -20 121.5 -73t48.5 -131l-212 -14q-4 29 -22 43.5t-45 14.5q-43 0 -71.5 -33t-28.5 -88
q0 -41 19 -64.5t55 -23.5q26 0 48 15.5z" />
    <glyph glyph-name="sterling" unicode="&#xa3;" horiz-adv-x="726" 
d="M417 166h216l-23 -166h-564l23 166h109q45 52 45 107v2h-135l15 106h80q0 1 -2 3q-60 78 -60 151q0 64 34 119t100.5 88t157.5 33q134 0 203 -59.5t71 -161.5l-212 -14q-7 53 -57 53q-28 0 -44.5 -15.5t-16.5 -39.5q0 -14 10 -32t35 -55q30 -45 42 -70h146l-15 -106h-113
q-6 -56 -45 -109z" />
    <glyph glyph-name="currency" unicode="&#xa4;" horiz-adv-x="832" 
d="M675 235l63 -72l-159 -140l-77 91q-53 -17 -109 -17t-105 17l-102 -91l-119 140l83 72q-19 43 -19 90q0 86 53 158l-62 72l159 139l75 -89q54 17 110 17q57 0 106 -17l100 89l121 -139l-83 -72q19 -43 19 -90q0 -85 -54 -158zM481.5 298.5q26.5 30.5 26.5 77.5
q0 34 -18 55t-48 21q-38 0 -64.5 -31.5t-26.5 -78.5q0 -34 18 -54t48 -20q38 0 64.5 30.5z" />
    <glyph glyph-name="yen" unicode="&#xa5;" horiz-adv-x="836" 
d="M615 430h110l-14 -105h-163l-7 -12l-8 -52h169l-15 -105h-168l-22 -156h-229l21 156h-162l14 105h163l7 53l-4 11h-157l15 105h104l-119 330h237l62 -255l139 255h238z" />
    <glyph glyph-name="brokenbar" unicode="&#xa6;" horiz-adv-x="470" 
d="M191 760h229l-54 -386h-229zM109 181h229l-53 -386h-229z" />
    <glyph glyph-name="section" unicode="&#xa7;" horiz-adv-x="744" 
d="M553 142q65 -48 65 -124q0 -70 -33 -123.5t-99 -84t-160 -30.5q-93 0 -156.5 35t-94.5 87t-31 103l227 16q1 -40 17.5 -58t48.5 -18q31 0 49.5 14.5t18.5 35.5q0 31 -50 45l-75 22q-93 27 -137 70.5t-44 110.5q0 57 25.5 99t71.5 75q-64 48 -64 123q0 107 75.5 171
t217.5 64q92 0 155.5 -35t94 -87t30.5 -102l-226 -17q-1 77 -67 77q-31 0 -48.5 -14t-17.5 -37q0 -29 50 -44l73 -22q93 -28 137.5 -70t44.5 -104q0 -102 -98 -178zM330 242.5q21 -20.5 77 -38.5q14 13 24 31t10 37q0 22 -21.5 42t-76.5 38q-34 -32 -34 -66q0 -23 21 -43.5z
" />
    <glyph glyph-name="dieresis" unicode="&#xa8;" horiz-adv-x="533" 
d="M139 625.5q-27 27.5 -27 65.5q0 39 27 66t65 27t65.5 -27t27.5 -66q0 -38 -27.5 -65.5t-65.5 -27.5t-65 27.5zM386.5 625.5q-27.5 27.5 -27.5 65.5q0 39 27.5 66t65.5 27t64.5 -27t26.5 -66q0 -38 -27 -65.5t-64 -27.5q-38 0 -65.5 27.5z" />
    <glyph glyph-name="copyright" unicode="&#xa9;" horiz-adv-x="995" 
d="M300 37.5q-94 52.5 -146.5 143t-52.5 199.5t52.5 199.5t146.5 143t214 52.5q121 0 215 -52.5t146.5 -143t52.5 -199.5t-52.5 -199.5t-146.5 -143t-215 -52.5q-120 0 -214 52.5zM683.5 107q74.5 42 115.5 114t41 159t-41 159t-115.5 114t-169.5 42t-169 -42t-115.5 -114
t-41.5 -159t41.5 -159t115.5 -114t169 -42t169.5 42zM338.5 226q-60.5 61 -60.5 157t60.5 157t179.5 61q100 0 161.5 -45.5t70.5 -118.5l-175 -20q-6 24 -20 37t-35 13q-27 0 -44 -23.5t-17 -60.5t17 -60.5t44 -23.5q21 0 35.5 14t20.5 39l174 -19q-9 -74 -70 -121t-162 -47
q-119 0 -179.5 61z" />
    <glyph glyph-name="ordfeminine" unicode="&#xaa;" horiz-adv-x="624" 
d="M633 761l-60 -435h-155l-4 56q-55 -70 -143 -70q-49 0 -88 23t-62 67t-23 106q0 75 28 136t80.5 96t122.5 35q93 0 130 -71l8 57h166zM388 464q22 15 35.5 40.5t13.5 54.5q0 35 -20 57t-52 22q-43 0 -70 -28.5t-27 -77.5q0 -35 21 -59t52 -24q25 0 47 15z" />
    <glyph glyph-name="guillemotleft" unicode="&#xab;" horiz-adv-x="619" 
d="M200 480h160l-140 -205l81 -211h-159l-80 209zM430 480h160l-140 -205l81 -211h-159l-80 209z" />
    <glyph glyph-name="logicalnot" unicode="&#xac;" horiz-adv-x="695" 
d="M641 453l-40 -287h-175l18 138h-358l21 149h534z" />
    <glyph glyph-name="uni00AD" unicode="&#xad;" horiz-adv-x="473" 
d="M72 348h353l-23 -166h-353z" />
    <glyph glyph-name="registered" unicode="&#xae;" horiz-adv-x="743" 
d="M555.5 738.5q65.5 -36.5 102 -99t36.5 -138.5q0 -75 -36.5 -138t-102.5 -100t-149 -37q-84 0 -150 37t-102.5 100t-36.5 138q0 76 36.5 138.5t102.5 99t150 36.5t149.5 -36.5zM511 332q46 26 71.5 70.5t25.5 98.5q0 53 -25.5 98t-71.5 71t-105 26t-105.5 -26t-72 -71
t-25.5 -98q0 -54 25.5 -98.5t71.5 -70.5t106 -26q59 0 105 26zM511 506.5q-11 -19.5 -32 -31.5l50 -97h-94l-41 81h-2v-81h-87v260h111q51 0 78.5 -24t27.5 -64q0 -24 -11 -43.5zM392 577v-57h12q17 0 26 8t9 22q0 12 -9 19.5t-26 7.5h-12z" />
    <glyph glyph-name="macron" unicode="&#xaf;" horiz-adv-x="406" 
d="M120 755h306l-16 -113h-306z" />
    <glyph glyph-name="degree" unicode="&#xb0;" horiz-adv-x="444" 
d="M192 486.5q-37 20.5 -58.5 56t-21.5 78.5q0 42 21.5 77.5t58.5 56t80 20.5q44 0 81 -20.5t58.5 -56t21.5 -77.5q0 -43 -21.5 -78.5t-58.5 -56t-81 -20.5q-43 0 -80 20.5zM310.5 583q16.5 16 16.5 38t-16.5 38t-38.5 16t-38 -16t-16 -38t16 -38t38 -16t38.5 16z" />
    <glyph glyph-name="plusminus" unicode="&#xb1;" horiz-adv-x="632" 
d="M557 397h-155l-21 -154h-148l21 154h-153l19 149h155l21 154h148l-21 -154h154zM79 153h457l-20 -149h-456z" />
    <glyph glyph-name="uni00B2" unicode="&#xb2;" horiz-adv-x="518" 
d="M279.5 478.5q-12.5 -8.5 -17.5 -23.5h199l-16 -110h-353l1 2l8 52q10 67 39 109.5t100 70.5l70 27q20 8 28 16t8 20q0 10 -7.5 15.5t-19.5 5.5q-32 0 -44 -30l-140 9q24 60 75 93.5t126 33.5q72 0 114 -31t42 -82q0 -54 -32 -86.5t-93 -54.5l-49 -18q-26 -10 -38.5 -18.5
z" />
    <glyph glyph-name="uni00B3" unicode="&#xb3;" horiz-adv-x="526" 
d="M475 477q0 -67 -53 -104t-131 -37t-127.5 37t-54.5 94l147 10q1 -16 10 -25.5t24 -9.5q18 0 29 10t11 28q0 17 -11.5 24t-41.5 7h-46l12 91h40q27 0 44 11t17 28q0 22 -27 22q-32 0 -43 -30l-139 10q20 56 73.5 91t135.5 35q69 0 107.5 -30t38.5 -79q0 -31 -15.5 -58
t-43.5 -45q44 -27 44 -80z" />
    <glyph glyph-name="acute" unicode="&#xb4;" horiz-adv-x="377" 
d="M227 586h-131l95 174h206z" />
    <glyph glyph-name="uni00B5" unicode="&#xb5;" horiz-adv-x="728" 
d="M683 520l-72 -520h-196l-11 74q-54 -71 -141 -86l-27 -193h-220l61 433l40 292h220l-38 -277q-4 -28 -4 -43q0 -55 48 -55q62 0 81 88l39 287h220z" />
    <glyph glyph-name="paragraph" unicode="&#xb6;" horiz-adv-x="1057" 
d="M154 595q46 75 121.5 120t160.5 45l-81 -571q-70 0 -126.5 32.5t-88.5 89t-32 124.5q0 85 46 160zM1024 594h-87l-112 -799h-201l112 799h-123l-112 -799h-200l135 965h611z" />
    <glyph glyph-name="periodcentered" unicode="&#xb7;" horiz-adv-x="298" 
d="M101 338q-29 29 -29 69q0 41 29 69.5t69 28.5q41 0 69.5 -28.5t28.5 -69.5q0 -40 -28.5 -69t-69.5 -29q-40 0 -69 29z" />
    <glyph glyph-name="cedilla" unicode="&#xb8;" horiz-adv-x="323" 
d="M198 -57q22 -20 22 -55q0 -49 -37 -78.5t-101 -29.5q-57 0 -96 24l35 63q23 -14 47 -14q18 0 29.5 9t11.5 25q0 12 -7 18.5t-20 6.5q-19 0 -36 -14l-29 21l47 110h78l-23 -67q6 1 18 1q39 0 61 -20z" />
    <glyph glyph-name="uni00B9" unicode="&#xb9;" horiz-adv-x="390" 
d="M380 760l-58 -415h-155l32 227q-30 -8 -75 -8l19 141q47 0 84.5 13t51.5 42h101z" />
    <glyph glyph-name="ordmasculine" unicode="&#xba;" horiz-adv-x="604" 
d="M196.5 337.5q-48.5 25.5 -73.5 70.5t-25 102q0 74 33 134.5t94.5 95.5t143.5 35q68 0 117 -26t74 -71t25 -102q0 -76 -34.5 -136t-96.5 -94t-141 -34q-68 0 -116.5 25.5zM392.5 476.5q25.5 28.5 25.5 89.5q0 35 -17.5 54t-46.5 19q-42 0 -65.5 -31t-23.5 -84
q0 -37 17 -56.5t46 -19.5q39 0 64.5 28.5z" />
    <glyph glyph-name="guillemotright" unicode="&#xbb;" horiz-adv-x="619" 
d="M423 64h-160l140 205l-81 211h159l80 -209zM193 64h-160l140 205l-81 211h159l80 -209z" />
    <glyph glyph-name="onequarter" unicode="&#xbc;" horiz-adv-x="1186" 
d="M380 760l-58 -415h-155l32 227q-30 -8 -75 -8l19 141q47 0 84.5 13t51.5 42h101zM773 760h218l-660 -760h-218zM1082 91h-62l-13 -91h-126l13 91h-203l15 108l97 215h129l-101 -215h78l16 118h126l-16 -118h62z" />
    <glyph glyph-name="onehalf" unicode="&#xbd;" horiz-adv-x="1155" 
d="M380 760l-58 -415h-155l32 227q-30 -8 -75 -8l19 141q47 0 84.5 13t51.5 42h101zM868.5 133.5q-12.5 -8.5 -17.5 -23.5h199l-16 -110h-353l1 2l8 52q10 67 39 109.5t100 70.5l70 27q20 8 28 16t8 20q0 10 -7.5 15.5t-19.5 5.5q-32 0 -44 -30l-140 9q24 60 75 93.5
t126 33.5q72 0 114 -31t42 -82q0 -54 -32 -86.5t-93 -54.5l-49 -18q-26 -10 -38.5 -18.5zM773 760h218l-660 -760h-218z" />
    <glyph glyph-name="threequarters" unicode="&#xbe;" horiz-adv-x="1278" 
d="M475 477q0 -67 -53 -104t-131 -37t-127.5 37t-54.5 94l147 10q1 -16 10 -25.5t24 -9.5q18 0 29 10t11 28q0 17 -11.5 24t-41.5 7h-46l12 91h40q27 0 44 11t17 28q0 22 -27 22q-32 0 -43 -30l-139 10q20 56 73.5 91t135.5 35q69 0 107.5 -30t38.5 -79q0 -31 -15.5 -58
t-43.5 -45q44 -27 44 -80zM865 760h218l-660 -760h-218zM1174 91h-62l-13 -91h-126l13 91h-203l15 108l97 215h129l-101 -215h78l16 118h126l-16 -118h62z" />
    <glyph glyph-name="questiondown" unicode="&#xbf;" horiz-adv-x="661" 
d="M453 272q-6 -46 -18 -78t-39.5 -60.5t-78.5 -51.5l-33 -15q-49 -23 -49 -60q0 -21 14 -32.5t40 -11.5q60 0 97 60l181 -73q-42 -77 -119 -123.5t-189 -46.5q-121 0 -183.5 54.5t-62.5 144.5q0 69 36 117t100 81l53 27q31 16 42.5 32.5t14.5 40.5l3 24h195zM441.5 538.5
q31.5 -31.5 31.5 -76.5q0 -44 -31.5 -76t-76.5 -32q-44 0 -76 32t-32 76q0 45 32 76.5t76 31.5q45 0 76.5 -31.5z" />
    <glyph glyph-name="Agrave" unicode="&#xc0;" horiz-adv-x="751" 
d="M464 96h-226l-38 -96h-237l351 760h260l140 -760h-239zM446 254l-33 283l-112 -283h145zM425 1001l95 -174h-131l-170 174h206z" />
    <glyph glyph-name="Aacute" unicode="&#xc1;" horiz-adv-x="751" 
d="M464 96h-226l-38 -96h-237l351 760h260l140 -760h-239zM446 254l-33 283l-112 -283h145zM515 827h-131l95 174h206z" />
    <glyph glyph-name="Acircumflex" unicode="&#xc2;" horiz-adv-x="751" 
d="M464 96h-226l-38 -96h-237l351 760h260l140 -760h-239zM446 254l-33 283l-112 -283h145zM513 832l-48 83l-73 -83h-156l176 169h125l130 -169h-154z" />
    <glyph glyph-name="Atilde" unicode="&#xc3;" horiz-adv-x="751" 
d="M464 96h-226l-38 -96h-237l351 760h260l140 -760h-239zM446 254l-33 283l-112 -283h145zM481 846q-22 8 -47 23q-22 12 -36 18t-27 6q-36 0 -75 -39l-62 63q32 52 75 83t96 31q29 0 51.5 -8.5t48.5 -23.5q19 -11 33 -17t30 -6q35 0 73 39l63 -62q-30 -52 -74 -83.5
t-98 -31.5q-29 0 -51 8z" />
    <glyph glyph-name="Adieresis" unicode="&#xc4;" horiz-adv-x="751" 
d="M464 96h-226l-38 -96h-237l351 760h260l140 -760h-239zM446 254l-33 283l-112 -283h145zM275 866.5q-27 27.5 -27 65.5q0 39 27 66t65 27t65.5 -27t27.5 -66q0 -38 -27.5 -65.5t-65.5 -27.5t-65 27.5zM522.5 866.5q-27.5 27.5 -27.5 65.5q0 39 27.5 66t65.5 27t64.5 -27
t26.5 -66q0 -38 -27 -65.5t-64 -27.5q-38 0 -65.5 27.5z" />
    <glyph glyph-name="Aring" unicode="&#xc5;" horiz-adv-x="751" 
d="M464 96h-226l-38 -96h-237l351 760h260l140 -760h-239zM446 254l-33 283l-112 -283h145zM398 835.5q-29 17.5 -46 46.5t-17 63t17 63t46 46t63 17q35 0 64 -17t46 -46t17 -63t-17 -63t-46 -46.5t-64 -17.5q-34 0 -63 17.5zM499.5 905q15.5 16 15.5 40t-15.5 40t-38.5 16
t-38 -16t-15 -40t15 -40t38 -16t38.5 16z" />
    <glyph glyph-name="AE" unicode="&#xc6;" horiz-adv-x="1028" 
d="M793 576l-13 -95h225l-25 -175h-224l-17 -122h238l-26 -184h-467l18 127h-226l-80 -127h-237l530 760h568l-26 -184h-238zM524 285l41 299l-189 -299h148z" />
    <glyph glyph-name="Ccedilla" unicode="&#xc7;" horiz-adv-x="842" 
d="M221.5 30q-82.5 45 -127.5 127t-45 191q0 118 53 215.5t151.5 154.5t227.5 57q109 0 188.5 -40.5t124 -110.5t51.5 -159l-239 -17q-6 58 -39.5 89.5t-91.5 31.5q-55 0 -98 -29t-66.5 -78t-23.5 -108q0 -75 37 -117t99 -42q55 0 100.5 33t65.5 86l233 -18
q-25 -90 -81.5 -160.5t-140.5 -110.5t-187 -40q-109 0 -191.5 45zM469 -57q22 -20 22 -55q0 -49 -37 -78.5t-101 -29.5q-57 0 -96 24l35 63q23 -14 47 -14q18 0 29.5 9t11.5 25q0 12 -7 18.5t-20 6.5q-19 0 -36 -14l-29 21l47 110h78l-23 -67q6 1 18 1q39 0 61 -20z" />
    <glyph glyph-name="Egrave" unicode="&#xc8;" horiz-adv-x="575" 
d="M326 576l-13 -95h238l-25 -176h-238l-17 -121h252l-25 -184h-481l106 760h480l-26 -184h-251zM346 1001l95 -174h-131l-170 174h206z" />
    <glyph glyph-name="Eacute" unicode="&#xc9;" horiz-adv-x="575" 
d="M326 576l-13 -95h238l-25 -176h-238l-17 -121h252l-25 -184h-481l106 760h480l-26 -184h-251zM436 827h-131l95 174h206z" />
    <glyph glyph-name="Ecircumflex" unicode="&#xca;" horiz-adv-x="575" 
d="M326 576l-13 -95h238l-25 -176h-238l-17 -121h252l-25 -184h-481l106 760h480l-26 -184h-251zM434 832l-48 83l-73 -83h-156l176 169h125l130 -169h-154z" />
    <glyph glyph-name="Edieresis" unicode="&#xcb;" horiz-adv-x="575" 
d="M326 576l-13 -95h238l-25 -176h-238l-17 -121h252l-25 -184h-481l106 760h480l-26 -184h-251zM196 866.5q-27 27.5 -27 65.5q0 39 27 66t65 27t65.5 -27t27.5 -66q0 -38 -27.5 -65.5t-65.5 -27.5t-65 27.5zM443.5 866.5q-27.5 27.5 -27.5 65.5q0 39 27.5 66t65.5 27
t64.5 -27t26.5 -66q0 -38 -27 -65.5t-64 -27.5q-38 0 -65.5 27.5z" />
    <glyph glyph-name="Igrave" unicode="&#xcc;" horiz-adv-x="335" 
d="M123 760h229l-107 -760h-228zM213 1001l95 -174h-131l-170 174h206z" />
    <glyph glyph-name="Iacute" unicode="&#xcd;" horiz-adv-x="335" 
d="M123 760h229l-107 -760h-228zM303 827h-131l95 174h206z" />
    <glyph glyph-name="Icircumflex" unicode="&#xce;" horiz-adv-x="335" 
d="M123 760h229l-107 -760h-228zM301 832l-48 83l-73 -83h-156l176 169h125l130 -169h-154z" />
    <glyph glyph-name="Idieresis" unicode="&#xcf;" horiz-adv-x="335" 
d="M123 760h229l-107 -760h-228zM63 866.5q-27 27.5 -27 65.5q0 39 27 66t65 27t65.5 -27t27.5 -66q0 -38 -27.5 -65.5t-65.5 -27.5t-65 27.5zM310.5 866.5q-27.5 27.5 -27.5 65.5q0 39 27.5 66t65.5 27t64.5 -27t26.5 -66q0 -38 -27 -65.5t-64 -27.5q-38 0 -65.5 27.5z" />
    <glyph glyph-name="Eth" unicode="&#xd0;" horiz-adv-x="830" 
d="M645.5 716q83.5 -44 127.5 -119t44 -167q0 -126 -59 -224t-163.5 -152t-236.5 -54h-306l45 323h-78l21 149h78l40 288h289q115 0 198.5 -44zM522.5 245.5q56.5 61.5 56.5 170.5q0 160 -179 160h-39l-15 -104h111l-21 -149h-111l-19 -139h48q112 0 168.5 61.5z" />
    <glyph glyph-name="Ntilde" unicode="&#xd1;" horiz-adv-x="766" 
d="M782 760l-106 -760h-226l-145 444l-62 -444h-226l106 760h226l146 -439l61 439h226zM489 846q-22 8 -47 23q-22 12 -36 18t-27 6q-36 0 -75 -39l-62 63q32 52 75 83t96 31q29 0 51.5 -8.5t48.5 -23.5q19 -11 33 -17t30 -6q35 0 73 39l63 -62q-30 -52 -74 -83.5t-98 -31.5
q-29 0 -51 8z" />
    <glyph glyph-name="Ograve" unicode="&#xd2;" horiz-adv-x="863" 
d="M220.5 30q-82.5 45 -127 127t-44.5 191q0 125 58 222.5t158 151t221 53.5q109 0 191 -45t126.5 -127t44.5 -191q0 -125 -58 -222.5t-158 -151t-220 -53.5q-109 0 -191.5 45zM514.5 220q43.5 26 69.5 74.5t26 113.5q0 75 -35.5 116.5t-98.5 41.5q-49 0 -92.5 -26
t-70 -74.5t-26.5 -112.5q0 -75 36 -117t99 -42q49 0 92.5 26zM483 1001l95 -174h-131l-170 174h206z" />
    <glyph glyph-name="Oacute" unicode="&#xd3;" horiz-adv-x="863" 
d="M220.5 30q-82.5 45 -127 127t-44.5 191q0 125 58 222.5t158 151t221 53.5q109 0 191 -45t126.5 -127t44.5 -191q0 -125 -58 -222.5t-158 -151t-220 -53.5q-109 0 -191.5 45zM514.5 220q43.5 26 69.5 74.5t26 113.5q0 75 -35.5 116.5t-98.5 41.5q-49 0 -92.5 -26
t-70 -74.5t-26.5 -112.5q0 -75 36 -117t99 -42q49 0 92.5 26zM573 827h-131l95 174h206z" />
    <glyph glyph-name="Ocircumflex" unicode="&#xd4;" horiz-adv-x="863" 
d="M220.5 30q-82.5 45 -127 127t-44.5 191q0 125 58 222.5t158 151t221 53.5q109 0 191 -45t126.5 -127t44.5 -191q0 -125 -58 -222.5t-158 -151t-220 -53.5q-109 0 -191.5 45zM514.5 220q43.5 26 69.5 74.5t26 113.5q0 75 -35.5 116.5t-98.5 41.5q-49 0 -92.5 -26
t-70 -74.5t-26.5 -112.5q0 -75 36 -117t99 -42q49 0 92.5 26zM571 832l-48 83l-73 -83h-156l176 169h125l130 -169h-154z" />
    <glyph glyph-name="Otilde" unicode="&#xd5;" horiz-adv-x="863" 
d="M220.5 30q-82.5 45 -127 127t-44.5 191q0 125 58 222.5t158 151t221 53.5q109 0 191 -45t126.5 -127t44.5 -191q0 -125 -58 -222.5t-158 -151t-220 -53.5q-109 0 -191.5 45zM514.5 220q43.5 26 69.5 74.5t26 113.5q0 75 -35.5 116.5t-98.5 41.5q-49 0 -92.5 -26
t-70 -74.5t-26.5 -112.5q0 -75 36 -117t99 -42q49 0 92.5 26zM539 846q-22 8 -47 23q-22 12 -36 18t-27 6q-36 0 -75 -39l-62 63q32 52 75 83t96 31q29 0 51.5 -8.5t48.5 -23.5q19 -11 33 -17t30 -6q35 0 73 39l63 -62q-30 -52 -74 -83.5t-98 -31.5q-29 0 -51 8z" />
    <glyph glyph-name="Odieresis" unicode="&#xd6;" horiz-adv-x="863" 
d="M220.5 30q-82.5 45 -127 127t-44.5 191q0 125 58 222.5t158 151t221 53.5q109 0 191 -45t126.5 -127t44.5 -191q0 -125 -58 -222.5t-158 -151t-220 -53.5q-109 0 -191.5 45zM514.5 220q43.5 26 69.5 74.5t26 113.5q0 75 -35.5 116.5t-98.5 41.5q-49 0 -92.5 -26
t-70 -74.5t-26.5 -112.5q0 -75 36 -117t99 -42q49 0 92.5 26zM333 866.5q-27 27.5 -27 65.5q0 39 27 66t65 27t65.5 -27t27.5 -66q0 -38 -27.5 -65.5t-65.5 -27.5t-65 27.5zM580.5 866.5q-27.5 27.5 -27.5 65.5q0 39 27.5 66t65.5 27t64.5 -27t26.5 -66q0 -38 -27 -65.5
t-64 -27.5q-38 0 -65.5 27.5z" />
    <glyph glyph-name="multiply" unicode="&#xd7;" horiz-adv-x="617" 
d="M415 268l105 -122l-120 -105l-105 122l-141 -123l-90 105l141 123l-106 124l120 105l106 -124l140 123l90 -105z" />
    <glyph glyph-name="Oslash" unicode="&#xd8;" horiz-adv-x="863" 
d="M765 659q40 -47 61.5 -110t21.5 -137q0 -125 -58 -222.5t-158 -151t-220 -53.5q-98 0 -173 36l-41 -50h-173l107 130q-40 47 -61.5 110t-21.5 137q0 125 58 222.5t158 151t221 53.5q97 0 172 -35l41 49h173zM279 280l247 299q-23 6 -47 6q-54 0 -102 -28.5t-77.5 -82
t-29.5 -124.5q0 -40 9 -70zM618 481l-246 -299q20 -7 47 -7q54 0 102 28.5t77 82t29 125.5q0 39 -9 70z" />
    <glyph glyph-name="Ugrave" unicode="&#xd9;" horiz-adv-x="773" 
d="M136.5 54q-82.5 69 -82.5 198q0 38 7 83l59 425h231l-61 -429q-3 -22 -3 -46q0 -90 94 -90q49 0 80 29.5t40 97.5l62 438h230l-60 -430q-18 -127 -61.5 -202t-119.5 -109t-194 -34q-139 0 -221.5 69zM436 1001l95 -174h-131l-170 174h206z" />
    <glyph glyph-name="Uacute" unicode="&#xda;" horiz-adv-x="773" 
d="M136.5 54q-82.5 69 -82.5 198q0 38 7 83l59 425h231l-61 -429q-3 -22 -3 -46q0 -90 94 -90q49 0 80 29.5t40 97.5l62 438h230l-60 -430q-18 -127 -61.5 -202t-119.5 -109t-194 -34q-139 0 -221.5 69zM526 827h-131l95 174h206z" />
    <glyph glyph-name="Ucircumflex" unicode="&#xdb;" horiz-adv-x="773" 
d="M136.5 54q-82.5 69 -82.5 198q0 38 7 83l59 425h231l-61 -429q-3 -22 -3 -46q0 -90 94 -90q49 0 80 29.5t40 97.5l62 438h230l-60 -430q-18 -127 -61.5 -202t-119.5 -109t-194 -34q-139 0 -221.5 69zM524 832l-48 83l-73 -83h-156l176 169h125l130 -169h-154z" />
    <glyph glyph-name="Udieresis" unicode="&#xdc;" horiz-adv-x="773" 
d="M136.5 54q-82.5 69 -82.5 198q0 38 7 83l59 425h231l-61 -429q-3 -22 -3 -46q0 -90 94 -90q49 0 80 29.5t40 97.5l62 438h230l-60 -430q-18 -127 -61.5 -202t-119.5 -109t-194 -34q-139 0 -221.5 69zM286 866.5q-27 27.5 -27 65.5q0 39 27 66t65 27t65.5 -27t27.5 -66
q0 -38 -27.5 -65.5t-65.5 -27.5t-65 27.5zM533.5 866.5q-27.5 27.5 -27.5 65.5q0 39 27.5 66t65.5 27t64.5 -27t26.5 -66q0 -38 -27 -65.5t-64 -27.5q-38 0 -65.5 27.5z" />
    <glyph glyph-name="Yacute" unicode="&#xdd;" horiz-adv-x="699" 
d="M784 760l-485 -760h-241l195 306l-193 454h241l83 -249l159 249h241zM491 827h-131l95 174h206z" />
    <glyph glyph-name="Thorn" unicode="&#xde;" horiz-adv-x="698" 
d="M618.5 603q69.5 -64 69.5 -172q0 -97 -41 -169t-116.5 -110.5t-175.5 -38.5h-94l-16 -113h-228l106 760h229l-13 -93h78q132 0 201.5 -64zM426.5 324q28.5 36 28.5 84q0 38 -22.5 61t-73.5 23h-45l-28 -204h51q61 0 89.5 36z" />
    <glyph glyph-name="germandbls" unicode="&#xdf;" horiz-adv-x="638" 
d="M559 356q33 -50 33 -116q0 -75 -31.5 -133t-89 -90t-133.5 -32q-59 0 -107 15l30 134q14 -4 42 -4q43 0 73.5 28t30.5 81q0 39 -25.5 64t-65.5 25h-15l19 136q73 43 73 107q0 24 -13 39t-38 15q-28 0 -44 -18.5t-21 -57.5l-79 -549h-185l73 515q15 105 53 162.5t91 77.5
t124 20q56 0 103.5 -20t76 -59t28.5 -94q0 -44 -24 -87t-69 -81q57 -28 90 -78z" />
    <glyph glyph-name="agrave" unicode="&#xe0;" 
d="M689 520l-72 -520h-204l-4 82q-70 -97 -178 -97q-55 0 -99.5 27t-70.5 80.5t-26 131.5q0 85 31.5 156t89 113t132.5 42q64 0 107.5 -30.5t61.5 -76.5l13 92h219zM410 191q30 36 30 87q0 40 -19.5 63t-54.5 23q-44 0 -74 -35t-30 -87q0 -41 19.5 -64t53.5 -23q45 0 75 36z
M341 761l95 -174h-131l-170 174h206z" />
    <glyph glyph-name="aacute" unicode="&#xe1;" 
d="M689 520l-72 -520h-204l-4 82q-70 -97 -178 -97q-55 0 -99.5 27t-70.5 80.5t-26 131.5q0 85 31.5 156t89 113t132.5 42q64 0 107.5 -30.5t61.5 -76.5l13 92h219zM410 191q30 36 30 87q0 40 -19.5 63t-54.5 23q-44 0 -74 -35t-30 -87q0 -41 19.5 -64t53.5 -23q45 0 75 36z
M431 587h-131l95 174h206z" />
    <glyph glyph-name="acircumflex" unicode="&#xe2;" 
d="M689 520l-72 -520h-204l-4 82q-70 -97 -178 -97q-55 0 -99.5 27t-70.5 80.5t-26 131.5q0 85 31.5 156t89 113t132.5 42q64 0 107.5 -30.5t61.5 -76.5l13 92h219zM410 191q30 36 30 87q0 40 -19.5 63t-54.5 23q-44 0 -74 -35t-30 -87q0 -41 19.5 -64t53.5 -23q45 0 75 36z
M429 592l-48 83l-73 -83h-156l176 169h125l130 -169h-154z" />
    <glyph glyph-name="atilde" unicode="&#xe3;" 
d="M689 520l-72 -520h-204l-4 82q-70 -97 -178 -97q-55 0 -99.5 27t-70.5 80.5t-26 131.5q0 85 31.5 156t89 113t132.5 42q64 0 107.5 -30.5t61.5 -76.5l13 92h219zM410 191q30 36 30 87q0 40 -19.5 63t-54.5 23q-44 0 -74 -35t-30 -87q0 -41 19.5 -64t53.5 -23q45 0 75 36z
M397 606q-22 8 -47 23q-22 12 -36 18t-27 6q-36 0 -75 -39l-62 63q32 52 75 83t96 31q29 0 51.5 -8.5t48.5 -23.5q19 -11 33 -17t30 -6q35 0 73 39l63 -62q-30 -52 -74 -83.5t-98 -31.5q-29 0 -51 8z" />
    <glyph glyph-name="adieresis" unicode="&#xe4;" 
d="M689 520l-72 -520h-204l-4 82q-70 -97 -178 -97q-55 0 -99.5 27t-70.5 80.5t-26 131.5q0 85 31.5 156t89 113t132.5 42q64 0 107.5 -30.5t61.5 -76.5l13 92h219zM410 191q30 36 30 87q0 40 -19.5 63t-54.5 23q-44 0 -74 -35t-30 -87q0 -41 19.5 -64t53.5 -23q45 0 75 36z
M191 626.5q-27 27.5 -27 65.5q0 39 27 66t65 27t65.5 -27t27.5 -66q0 -38 -27.5 -65.5t-65.5 -27.5t-65 27.5zM438.5 626.5q-27.5 27.5 -27.5 65.5q0 39 27.5 66t65.5 27t64.5 -27t26.5 -66q0 -38 -27 -65.5t-64 -27.5q-38 0 -65.5 27.5z" />
    <glyph glyph-name="aring" unicode="&#xe5;" 
d="M689 520l-72 -520h-204l-4 82q-70 -97 -178 -97q-55 0 -99.5 27t-70.5 80.5t-26 131.5q0 85 31.5 156t89 113t132.5 42q64 0 107.5 -30.5t61.5 -76.5l13 92h219zM410 191q30 36 30 87q0 40 -19.5 63t-54.5 23q-44 0 -74 -35t-30 -87q0 -41 19.5 -64t53.5 -23q45 0 75 36z
M314 595.5q-29 17.5 -46 46.5t-17 63t17 63t46 46t63 17q35 0 64 -17t46 -46t17 -63t-17 -63t-46 -46.5t-64 -17.5q-34 0 -63 17.5zM415.5 665q15.5 16 15.5 40t-15.5 40t-38.5 16t-38 -16t-15 -40t15 -40t38 -16t38.5 16z" />
    <glyph glyph-name="ae" unicode="&#xe6;" horiz-adv-x="982" 
d="M572 211v-6q0 -36 20.5 -58t53.5 -22q52 0 80 43l194 -14q-97 -169 -297 -169q-66 0 -114.5 24t-77.5 67q-74 -91 -222 -91q-91 0 -138.5 38t-47.5 103q0 177 259 177h117l3 33q0 58 -66 58q-26 0 -46.5 -12t-30.5 -32l-185 14q31 69 103.5 120t181.5 51q53 0 99 -13.5
t77 -39.5q74 53 164 53q118 0 184 -60.5t66 -171.5q0 -22 -3.5 -47.5t-8.5 -44.5h-365zM623.5 366.5q-24.5 -23.5 -37.5 -63.5h170v6q0 36 -18.5 58.5t-53.5 22.5q-36 0 -60.5 -23.5zM347.5 126q27.5 22 34.5 66l3 19h-83q-46 0 -68 -14.5t-22 -45.5q0 -47 64 -47
q44 0 71.5 22z" />
    <glyph glyph-name="ccedilla" unicode="&#xe7;" horiz-adv-x="660" 
d="M163.5 16.5q-61.5 31.5 -95 86t-33.5 120.5q0 99 43 169.5t118.5 106.5t173.5 36q121 0 189.5 -58t74.5 -157l-212 -14q-4 29 -22 43.5t-45 14.5q-43 0 -71.5 -33t-28.5 -88q0 -41 19 -64.5t55 -23.5q26 0 48 15.5t34 46.5l207 -16q-25 -98 -103.5 -157t-207.5 -59
q-82 0 -143.5 31.5zM379 -57q22 -20 22 -55q0 -49 -37 -78.5t-101 -29.5q-57 0 -96 24l35 63q23 -14 47 -14q18 0 29.5 9t11.5 25q0 12 -7 18.5t-20 6.5q-19 0 -36 -14l-29 21l47 110h78l-23 -67q6 1 18 1q39 0 61 -20z" />
    <glyph glyph-name="egrave" unicode="&#xe8;" horiz-adv-x="682" 
d="M636 209h-385q1 -37 21.5 -60.5t52.5 -23.5q53 0 79 42l216 -15q-44 -85 -122.5 -126t-192.5 -41q-84 0 -145.5 33t-93 87.5t-31.5 118.5q0 97 42.5 167t118.5 107t175 37q86 0 149 -30t96 -82t33 -118q0 -50 -13 -96zM262 305h175q-2 42 -20.5 65.5t-53.5 23.5
q-77 0 -101 -89zM360 761l95 -174h-131l-170 174h206z" />
    <glyph glyph-name="eacute" unicode="&#xe9;" horiz-adv-x="682" 
d="M636 209h-385q1 -37 21.5 -60.5t52.5 -23.5q53 0 79 42l216 -15q-44 -85 -122.5 -126t-192.5 -41q-84 0 -145.5 33t-93 87.5t-31.5 118.5q0 97 42.5 167t118.5 107t175 37q86 0 149 -30t96 -82t33 -118q0 -50 -13 -96zM262 305h175q-2 42 -20.5 65.5t-53.5 23.5
q-77 0 -101 -89zM450 587h-131l95 174h206z" />
    <glyph glyph-name="ecircumflex" unicode="&#xea;" horiz-adv-x="682" 
d="M636 209h-385q1 -37 21.5 -60.5t52.5 -23.5q53 0 79 42l216 -15q-44 -85 -122.5 -126t-192.5 -41q-84 0 -145.5 33t-93 87.5t-31.5 118.5q0 97 42.5 167t118.5 107t175 37q86 0 149 -30t96 -82t33 -118q0 -50 -13 -96zM262 305h175q-2 42 -20.5 65.5t-53.5 23.5
q-77 0 -101 -89zM448 592l-48 83l-73 -83h-156l176 169h125l130 -169h-154z" />
    <glyph glyph-name="edieresis" unicode="&#xeb;" horiz-adv-x="682" 
d="M636 209h-385q1 -37 21.5 -60.5t52.5 -23.5q53 0 79 42l216 -15q-44 -85 -122.5 -126t-192.5 -41q-84 0 -145.5 33t-93 87.5t-31.5 118.5q0 97 42.5 167t118.5 107t175 37q86 0 149 -30t96 -82t33 -118q0 -50 -13 -96zM262 305h175q-2 42 -20.5 65.5t-53.5 23.5
q-77 0 -101 -89zM210 626.5q-27 27.5 -27 65.5q0 39 27 66t65 27t65.5 -27t27.5 -66q0 -38 -27.5 -65.5t-65.5 -27.5t-65 27.5zM457.5 626.5q-27.5 27.5 -27.5 65.5q0 39 27.5 66t65.5 27t64.5 -27t26.5 -66q0 -38 -27 -65.5t-64 -27.5q-38 0 -65.5 27.5z" />
    <glyph glyph-name="igrave" unicode="&#xec;" horiz-adv-x="327" 
d="M90 520h220l-72 -520h-220zM182 761l95 -174h-131l-170 174h206z" />
    <glyph glyph-name="iacute" unicode="&#xed;" horiz-adv-x="327" 
d="M90 520h220l-72 -520h-220zM272 587h-131l95 174h206z" />
    <glyph glyph-name="icircumflex" unicode="&#xee;" horiz-adv-x="327" 
d="M90 520h220l-72 -520h-220zM253 592l-24 101l-46 -101h-151l146 169h125l100 -169h-150z" />
    <glyph glyph-name="idieresis" unicode="&#xef;" horiz-adv-x="327" 
d="M90 520h220l-72 -520h-220zM32 626.5q-27 27.5 -27 65.5q0 39 27 66t65 27t65.5 -27t27.5 -66q0 -38 -27.5 -65.5t-65.5 -27.5t-65 27.5zM279.5 626.5q-27.5 27.5 -27.5 65.5q0 39 27.5 66t65.5 27t64.5 -27t26.5 -66q0 -38 -27 -65.5t-64 -27.5q-38 0 -65.5 27.5z" />
    <glyph glyph-name="eth" unicode="&#xf0;" horiz-adv-x="712" 
d="M693 426q0 -134 -44.5 -233.5t-130 -153.5t-207.5 -54q-82 0 -145 27.5t-98.5 78.5t-35.5 119q0 82 42.5 144t117 95t168.5 33q68 0 113 -14q0 51 -22 87l-104 -48l-28 80l64 30q-39 19 -92 28l50 130q141 -9 226 -73l91 42l29 -79l-57 -26q63 -87 63 -213zM403 190.5
q30 35.5 30 87.5q0 37 -20.5 59t-54.5 22q-45 0 -73.5 -32.5t-28.5 -88.5q0 -38 20.5 -60.5t53.5 -22.5q43 0 73 35.5z" />
    <glyph glyph-name="ntilde" unicode="&#xf1;" horiz-adv-x="665" 
d="M592.5 488.5q39.5 -46.5 39.5 -122.5q0 -26 -6 -68l-41 -298h-220l38 268q4 28 4 52q0 29 -12.5 41.5t-37.5 12.5q-34 0 -56 -26t-30 -78h-1l-37 -270h-220l72 520h197l11 -75q34 43 81 66.5t102 23.5q77 0 116.5 -46.5zM397 606q-22 8 -47 23q-22 12 -36 18t-27 6
q-36 0 -75 -39l-62 63q32 52 75 83t96 31q29 0 51.5 -8.5t48.5 -23.5q19 -11 33 -17t30 -6q35 0 73 39l63 -62q-30 -52 -74 -83.5t-98 -31.5q-29 0 -51 8z" />
    <glyph glyph-name="ograve" unicode="&#xf2;" horiz-adv-x="687" 
d="M168.5 15q-63.5 30 -98.5 84t-35 125q0 98 42 168t119 106.5t179 36.5q81 0 144 -30t98 -84.5t35 -125.5q0 -98 -42 -168t-118.5 -106t-178.5 -36q-81 0 -144.5 30zM402.5 190q29.5 35 29.5 88q0 41 -19.5 63.5t-53.5 22.5q-44 0 -74 -35.5t-30 -87.5q0 -41 19.5 -63.5
t53.5 -22.5q45 0 74.5 35zM361 761l95 -174h-131l-170 174h206z" />
    <glyph glyph-name="oacute" unicode="&#xf3;" horiz-adv-x="687" 
d="M168.5 15q-63.5 30 -98.5 84t-35 125q0 98 42 168t119 106.5t179 36.5q81 0 144 -30t98 -84.5t35 -125.5q0 -98 -42 -168t-118.5 -106t-178.5 -36q-81 0 -144.5 30zM402.5 190q29.5 35 29.5 88q0 41 -19.5 63.5t-53.5 22.5q-44 0 -74 -35.5t-30 -87.5q0 -41 19.5 -63.5
t53.5 -22.5q45 0 74.5 35zM451 587h-131l95 174h206z" />
    <glyph glyph-name="ocircumflex" unicode="&#xf4;" horiz-adv-x="687" 
d="M168.5 15q-63.5 30 -98.5 84t-35 125q0 98 42 168t119 106.5t179 36.5q81 0 144 -30t98 -84.5t35 -125.5q0 -98 -42 -168t-118.5 -106t-178.5 -36q-81 0 -144.5 30zM402.5 190q29.5 35 29.5 88q0 41 -19.5 63.5t-53.5 22.5q-44 0 -74 -35.5t-30 -87.5q0 -41 19.5 -63.5
t53.5 -22.5q45 0 74.5 35zM449 592l-48 83l-73 -83h-156l176 169h125l130 -169h-154z" />
    <glyph glyph-name="otilde" unicode="&#xf5;" horiz-adv-x="687" 
d="M168.5 15q-63.5 30 -98.5 84t-35 125q0 98 42 168t119 106.5t179 36.5q81 0 144 -30t98 -84.5t35 -125.5q0 -98 -42 -168t-118.5 -106t-178.5 -36q-81 0 -144.5 30zM402.5 190q29.5 35 29.5 88q0 41 -19.5 63.5t-53.5 22.5q-44 0 -74 -35.5t-30 -87.5q0 -41 19.5 -63.5
t53.5 -22.5q45 0 74.5 35zM417 606q-22 8 -47 23q-22 12 -36 18t-27 6q-36 0 -75 -39l-62 63q32 52 75 83t96 31q29 0 51.5 -8.5t48.5 -23.5q19 -11 33 -17t30 -6q35 0 73 39l63 -62q-30 -52 -74 -83.5t-98 -31.5q-29 0 -51 8z" />
    <glyph glyph-name="odieresis" unicode="&#xf6;" horiz-adv-x="687" 
d="M168.5 15q-63.5 30 -98.5 84t-35 125q0 98 42 168t119 106.5t179 36.5q81 0 144 -30t98 -84.5t35 -125.5q0 -98 -42 -168t-118.5 -106t-178.5 -36q-81 0 -144.5 30zM402.5 190q29.5 35 29.5 88q0 41 -19.5 63.5t-53.5 22.5q-44 0 -74 -35.5t-30 -87.5q0 -41 19.5 -63.5
t53.5 -22.5q45 0 74.5 35zM211 626.5q-27 27.5 -27 65.5q0 39 27 66t65 27t65.5 -27t27.5 -66q0 -38 -27.5 -65.5t-65.5 -27.5t-65 27.5zM458.5 626.5q-27.5 27.5 -27.5 65.5q0 39 27.5 66t65.5 27t64.5 -27t26.5 -66q0 -38 -27 -65.5t-64 -27.5q-38 0 -65.5 27.5z" />
    <glyph glyph-name="divide" unicode="&#xf7;" horiz-adv-x="623" 
d="M260.5 396q-25.5 26 -25.5 62t25.5 61.5t61.5 25.5t62 -25.5t26 -61.5t-26 -62t-62 -26t-61.5 26zM92 343h457l-15 -149h-457zM240.5 16.5q-25.5 25.5 -25.5 61.5t25.5 61.5t61.5 25.5t62 -25.5t26 -61.5t-26 -61.5t-62 -25.5t-61.5 25.5z" />
    <glyph glyph-name="oslash" unicode="&#xf8;" horiz-adv-x="687" 
d="M630.5 396q21.5 -46 21.5 -101q0 -98 -42 -168t-118.5 -106t-178.5 -36q-71 0 -129 23l-23 -28h-97l54 66q-40 32 -61.5 77.5t-21.5 100.5q0 98 42 168t119 106.5t179 36.5q71 0 129 -23l22 27h97l-54 -65q40 -32 61.5 -78zM246 200l145 176q-12 4 -29 4
q-52 0 -86.5 -40.5t-34.5 -100.5q0 -21 5 -39zM412 180q34 41 34 101q0 20 -5 38l-145 -175q15 -5 30 -5q52 0 86 41z" />
    <glyph glyph-name="ugrave" unicode="&#xf9;" horiz-adv-x="659" 
d="M647 520l-72 -520h-196l-11 75q-33 -43 -79 -66.5t-102 -23.5q-75 0 -115 41.5t-40 112.5q0 25 5 60l44 321h220l-38 -277q-4 -28 -4 -43q0 -55 48 -55q37 0 56 28.5t27 77.5l37 269h220zM342 761l95 -174h-131l-170 174h206z" />
    <glyph glyph-name="uacute" unicode="&#xfa;" horiz-adv-x="659" 
d="M647 520l-72 -520h-196l-11 75q-33 -43 -79 -66.5t-102 -23.5q-75 0 -115 41.5t-40 112.5q0 25 5 60l44 321h220l-38 -277q-4 -28 -4 -43q0 -55 48 -55q37 0 56 28.5t27 77.5l37 269h220zM432 587h-131l95 174h206z" />
    <glyph glyph-name="ucircumflex" unicode="&#xfb;" horiz-adv-x="659" 
d="M647 520l-72 -520h-196l-11 75q-33 -43 -79 -66.5t-102 -23.5q-75 0 -115 41.5t-40 112.5q0 25 5 60l44 321h220l-38 -277q-4 -28 -4 -43q0 -55 48 -55q37 0 56 28.5t27 77.5l37 269h220zM430 592l-48 83l-73 -83h-156l176 169h125l130 -169h-154z" />
    <glyph glyph-name="udieresis" unicode="&#xfc;" horiz-adv-x="659" 
d="M647 520l-72 -520h-196l-11 75q-33 -43 -79 -66.5t-102 -23.5q-75 0 -115 41.5t-40 112.5q0 25 5 60l44 321h220l-38 -277q-4 -28 -4 -43q0 -55 48 -55q37 0 56 28.5t27 77.5l37 269h220zM192 626.5q-27 27.5 -27 65.5q0 39 27 66t65 27t65.5 -27t27.5 -66
q0 -38 -27.5 -65.5t-65.5 -27.5t-65 27.5zM439.5 626.5q-27.5 27.5 -27.5 65.5q0 39 27.5 66t65.5 27t64.5 -27t26.5 -66q0 -38 -27 -65.5t-64 -27.5q-38 0 -65.5 27.5z" />
    <glyph glyph-name="yacute" unicode="&#xfd;" horiz-adv-x="660" 
d="M648 520l-68 -488q-36 -252 -317 -252q-120 0 -188 44t-79 124l224 17q2 -24 15.5 -36t40.5 -12q38 0 56 24.5t26 79.5l10 71q-33 -41 -78 -63.5t-100 -22.5q-75 0 -114.5 41.5t-39.5 112.5q0 26 5 59l41 301h220l-35 -256q-4 -28 -4 -43q0 -29 11.5 -41.5t36.5 -12.5
q68 0 82 104l35 249h220zM439 587h-131l95 174h206z" />
    <glyph glyph-name="thorn" unicode="&#xfe;" horiz-adv-x="702" 
d="M616.5 477q52.5 -58 52.5 -163q0 -91 -34.5 -166t-96.5 -119t-141 -44q-57 0 -95 25.5t-57 70.5l-40 -286h-220l135 965h220l-47 -332q31 50 79.5 78.5t107.5 28.5q84 0 136.5 -58zM411.5 190.5q29.5 35.5 29.5 89.5q0 39 -20 61.5t-54 22.5q-44 0 -74 -35.5t-30 -89.5
q0 -38 20.5 -61t55.5 -23q43 0 72.5 35.5z" />
    <glyph glyph-name="ydieresis" unicode="&#xff;" horiz-adv-x="660" 
d="M648 520l-68 -488q-36 -252 -317 -252q-120 0 -188 44t-79 124l224 17q2 -24 15.5 -36t40.5 -12q38 0 56 24.5t26 79.5l10 71q-33 -41 -78 -63.5t-100 -22.5q-75 0 -114.5 41.5t-39.5 112.5q0 26 5 59l41 301h220l-35 -256q-4 -28 -4 -43q0 -29 11.5 -41.5t36.5 -12.5
q68 0 82 104l35 249h220zM199 626.5q-27 27.5 -27 65.5q0 39 27 66t65 27t65.5 -27t27.5 -66q0 -38 -27.5 -65.5t-65.5 -27.5t-65 27.5zM446.5 626.5q-27.5 27.5 -27.5 65.5q0 39 27.5 66t65.5 27t64.5 -27t26.5 -66q0 -38 -27 -65.5t-64 -27.5q-38 0 -65.5 27.5z" />
    <glyph glyph-name="Amacron" unicode="&#x100;" horiz-adv-x="751" 
d="M464 96h-226l-38 -96h-237l351 760h260l140 -760h-239zM446 254l-33 283l-112 -283h145zM324 996h306l-16 -113h-306z" />
    <glyph glyph-name="amacron" unicode="&#x101;" 
d="M689 520l-72 -520h-204l-4 82q-70 -97 -178 -97q-55 0 -99.5 27t-70.5 80.5t-26 131.5q0 85 31.5 156t89 113t132.5 42q64 0 107.5 -30.5t61.5 -76.5l13 92h219zM410 191q30 36 30 87q0 40 -19.5 63t-54.5 23q-44 0 -74 -35t-30 -87q0 -41 19.5 -64t53.5 -23q45 0 75 36z
M240 756h306l-16 -113h-306z" />
    <glyph glyph-name="Abreve" unicode="&#x102;" horiz-adv-x="751" 
d="M464 96h-226l-38 -96h-237l351 760h260l140 -760h-239zM446 254l-33 283l-112 -283h145zM339.5 870.5q-40.5 47.5 -40.5 130.5h114q0 -74 55 -74q30 0 48.5 20t24.5 54h114q-14 -82 -67 -130t-132 -48q-76 0 -116.5 47.5z" />
    <glyph glyph-name="abreve" unicode="&#x103;" 
d="M689 520l-72 -520h-204l-4 82q-70 -97 -178 -97q-55 0 -99.5 27t-70.5 80.5t-26 131.5q0 85 31.5 156t89 113t132.5 42q64 0 107.5 -30.5t61.5 -76.5l13 92h219zM410 191q30 36 30 87q0 40 -19.5 63t-54.5 23q-44 0 -74 -35t-30 -87q0 -41 19.5 -64t53.5 -23q45 0 75 36z
M255.5 630.5q-40.5 47.5 -40.5 130.5h114q0 -74 55 -74q30 0 48.5 20t24.5 54h114q-14 -82 -67 -130t-132 -48q-76 0 -116.5 47.5z" />
    <glyph glyph-name="Aogonek" unicode="&#x104;" horiz-adv-x="751" 
d="M464 96h-226l-38 -96h-237l351 760h260l140 -760h-239zM446 254l-33 283l-112 -283h145zM523 -18.5q-22 -19.5 -22 -55.5q0 -25 17 -39t46 -14q20 0 44 6l-5 -75q-20 -11 -46.5 -17.5t-53.5 -6.5q-53 0 -87 28.5t-34 79.5q0 64 49 108.5t139 52.5l5 -41q-30 -7 -52 -26.5
z" />
    <glyph glyph-name="aogonek" unicode="&#x105;" 
d="M689 520l-72 -520h-204l-4 82q-70 -97 -178 -97q-55 0 -99.5 27t-70.5 80.5t-26 131.5q0 85 31.5 156t89 113t132.5 42q64 0 107.5 -30.5t61.5 -76.5l13 92h219zM410 191q30 36 30 87q0 40 -19.5 63t-54.5 23q-44 0 -74 -35t-30 -87q0 -41 19.5 -64t53.5 -23q45 0 75 36z
M482 -18.5q-22 -19.5 -22 -55.5q0 -25 17 -39t46 -14q20 0 44 6l-5 -75q-20 -11 -46.5 -17.5t-53.5 -6.5q-53 0 -87 28.5t-34 79.5q0 64 49 108.5t139 52.5l5 -41q-30 -7 -52 -26.5z" />
    <glyph glyph-name="Cacute" unicode="&#x106;" horiz-adv-x="842" 
d="M221.5 30q-82.5 45 -127.5 127t-45 191q0 118 53 215.5t151.5 154.5t227.5 57q109 0 188.5 -40.5t124 -110.5t51.5 -159l-239 -17q-6 58 -39.5 89.5t-91.5 31.5q-55 0 -98 -29t-66.5 -78t-23.5 -108q0 -75 37 -117t99 -42q55 0 100.5 33t65.5 86l233 -18
q-25 -90 -81.5 -160.5t-140.5 -110.5t-187 -40q-109 0 -191.5 45zM574 827h-131l95 174h206z" />
    <glyph glyph-name="cacute" unicode="&#x107;" horiz-adv-x="660" 
d="M163.5 16.5q-61.5 31.5 -95 86t-33.5 120.5q0 99 43 169.5t118.5 106.5t173.5 36q121 0 189.5 -58t74.5 -157l-212 -14q-4 29 -22 43.5t-45 14.5q-43 0 -71.5 -33t-28.5 -88q0 -41 19 -64.5t55 -23.5q26 0 48 15.5t34 46.5l207 -16q-25 -98 -103.5 -157t-207.5 -59
q-82 0 -143.5 31.5zM442 587h-131l95 174h206z" />
    <glyph glyph-name="Ccircumflex" unicode="&#x108;" horiz-adv-x="842" 
d="M221.5 30q-82.5 45 -127.5 127t-45 191q0 118 53 215.5t151.5 154.5t227.5 57q109 0 188.5 -40.5t124 -110.5t51.5 -159l-239 -17q-6 58 -39.5 89.5t-91.5 31.5q-55 0 -98 -29t-66.5 -78t-23.5 -108q0 -75 37 -117t99 -42q55 0 100.5 33t65.5 86l233 -18
q-25 -90 -81.5 -160.5t-140.5 -110.5t-187 -40q-109 0 -191.5 45zM572 832l-48 83l-73 -83h-156l176 169h125l130 -169h-154z" />
    <glyph glyph-name="ccircumflex" unicode="&#x109;" horiz-adv-x="660" 
d="M163.5 16.5q-61.5 31.5 -95 86t-33.5 120.5q0 99 43 169.5t118.5 106.5t173.5 36q121 0 189.5 -58t74.5 -157l-212 -14q-4 29 -22 43.5t-45 14.5q-43 0 -71.5 -33t-28.5 -88q0 -41 19 -64.5t55 -23.5q26 0 48 15.5t34 46.5l207 -16q-25 -98 -103.5 -157t-207.5 -59
q-82 0 -143.5 31.5zM440 592l-48 83l-73 -83h-156l176 169h125l130 -169h-154z" />
    <glyph glyph-name="Cdotaccent" unicode="&#x10a;" horiz-adv-x="842" 
d="M221.5 30q-82.5 45 -127.5 127t-45 191q0 118 53 215.5t151.5 154.5t227.5 57q109 0 188.5 -40.5t124 -110.5t51.5 -159l-239 -17q-6 58 -39.5 89.5t-91.5 31.5q-55 0 -98 -29t-66.5 -78t-23.5 -108q0 -75 37 -117t99 -42q55 0 100.5 33t65.5 86l233 -18
q-25 -90 -81.5 -160.5t-140.5 -110.5t-187 -40q-109 0 -191.5 45zM447 868q-31 31 -31 75t31 75t75 31t75 -31t31 -75t-31 -75t-75 -31t-75 31z" />
    <glyph glyph-name="cdotaccent" unicode="&#x10b;" horiz-adv-x="660" 
d="M163.5 16.5q-61.5 31.5 -95 86t-33.5 120.5q0 99 43 169.5t118.5 106.5t173.5 36q121 0 189.5 -58t74.5 -157l-212 -14q-4 29 -22 43.5t-45 14.5q-43 0 -71.5 -33t-28.5 -88q0 -41 19 -64.5t55 -23.5q26 0 48 15.5t34 46.5l207 -16q-25 -98 -103.5 -157t-207.5 -59
q-82 0 -143.5 31.5zM315 628q-31 31 -31 75t31 75t75 31t75 -31t31 -75t-31 -75t-75 -31t-75 31z" />
    <glyph glyph-name="Ccaron" unicode="&#x10c;" horiz-adv-x="842" 
d="M221.5 30q-82.5 45 -127.5 127t-45 191q0 118 53 215.5t151.5 154.5t227.5 57q109 0 188.5 -40.5t124 -110.5t51.5 -159l-239 -17q-6 58 -39.5 89.5t-91.5 31.5q-55 0 -98 -29t-66.5 -78t-23.5 -108q0 -75 37 -117t99 -42q55 0 100.5 33t65.5 86l233 -18
q-25 -90 -81.5 -160.5t-140.5 -110.5t-187 -40q-109 0 -191.5 45zM754 1001l-176 -169h-125l-130 169h154l48 -83l73 83h156z" />
    <glyph glyph-name="ccaron" unicode="&#x10d;" horiz-adv-x="660" 
d="M163.5 16.5q-61.5 31.5 -95 86t-33.5 120.5q0 99 43 169.5t118.5 106.5t173.5 36q121 0 189.5 -58t74.5 -157l-212 -14q-4 29 -22 43.5t-45 14.5q-43 0 -71.5 -33t-28.5 -88q0 -41 19 -64.5t55 -23.5q26 0 48 15.5t34 46.5l207 -16q-25 -98 -103.5 -157t-207.5 -59
q-82 0 -143.5 31.5zM622 761l-176 -169h-125l-130 169h154l48 -83l73 83h156z" />
    <glyph glyph-name="Dcaron" unicode="&#x10e;" horiz-adv-x="795" 
d="M610.5 716q83.5 -44 127.5 -119t44 -167q0 -126 -59 -224t-163.5 -152t-236.5 -54h-306l106 760h289q115 0 198.5 -44zM487.5 245.5q56.5 61.5 56.5 170.5q0 160 -179 160h-39l-55 -392h48q112 0 168.5 61.5zM652 1001l-176 -169h-125l-130 169h154l48 -83l73 83h156z
" />
    <glyph glyph-name="dcaron" unicode="&#x10f;" horiz-adv-x="950" 
d="M504 760h220l-106 -760h-205l-3 82q-31 -42 -75 -69.5t-101 -27.5q-54 0 -99.5 26t-72.5 80t-27 134q0 86 31.5 157t89 112t133.5 41q65 0 108 -31t61 -77zM1010 760l-109 -174h-113l33 174h189zM410.5 190.5q29.5 35.5 29.5 87.5q0 41 -19.5 63.5t-54.5 22.5
q-44 0 -73.5 -35t-29.5 -87q0 -41 19.5 -64t53.5 -23q45 0 74.5 35.5z" />
    <glyph glyph-name="Dcroat" unicode="&#x110;" horiz-adv-x="830" 
d="M645.5 716q83.5 -44 127.5 -119t44 -167q0 -126 -59 -224t-163.5 -152t-236.5 -54h-306l45 323h-78l21 149h78l40 288h289q115 0 198.5 -44zM522.5 245.5q56.5 61.5 56.5 170.5q0 160 -179 160h-39l-15 -104h111l-21 -149h-111l-19 -139h48q112 0 168.5 61.5z" />
    <glyph glyph-name="dcroat" unicode="&#x111;" horiz-adv-x="739" 
d="M779 584h-80l-81 -584h-205l-3 82q-31 -42 -75 -69.5t-101 -27.5q-54 0 -99.5 26t-72.5 80t-27 134q0 86 31.5 157t89 112t133.5 41q65 0 108 -31t61 -77l22 157h-179l16 109h178l9 67h220l-9 -67h80zM410.5 190.5q29.5 35.5 29.5 87.5q0 41 -19.5 63.5t-54.5 22.5
q-44 0 -73.5 -35t-29.5 -87q0 -41 19.5 -64t53.5 -23q45 0 74.5 35.5z" />
    <glyph glyph-name="Emacron" unicode="&#x112;" horiz-adv-x="575" 
d="M326 576l-13 -95h238l-25 -176h-238l-17 -121h252l-25 -184h-481l106 760h480l-26 -184h-251zM245 996h306l-16 -113h-306z" />
    <glyph glyph-name="emacron" unicode="&#x113;" horiz-adv-x="682" 
d="M636 209h-385q1 -37 21.5 -60.5t52.5 -23.5q53 0 79 42l216 -15q-44 -85 -122.5 -126t-192.5 -41q-84 0 -145.5 33t-93 87.5t-31.5 118.5q0 97 42.5 167t118.5 107t175 37q86 0 149 -30t96 -82t33 -118q0 -50 -13 -96zM262 305h175q-2 42 -20.5 65.5t-53.5 23.5
q-77 0 -101 -89zM259 756h306l-16 -113h-306z" />
    <glyph glyph-name="Ebreve" unicode="&#x114;" horiz-adv-x="575" 
d="M326 576l-13 -95h238l-25 -176h-238l-17 -121h252l-25 -184h-481l106 760h480l-26 -184h-251zM260.5 870.5q-40.5 47.5 -40.5 130.5h114q0 -74 55 -74q30 0 48.5 20t24.5 54h114q-14 -82 -67 -130t-132 -48q-76 0 -116.5 47.5z" />
    <glyph glyph-name="ebreve" unicode="&#x115;" horiz-adv-x="682" 
d="M636 209h-385q1 -37 21.5 -60.5t52.5 -23.5q53 0 79 42l216 -15q-44 -85 -122.5 -126t-192.5 -41q-84 0 -145.5 33t-93 87.5t-31.5 118.5q0 97 42.5 167t118.5 107t175 37q86 0 149 -30t96 -82t33 -118q0 -50 -13 -96zM262 305h175q-2 42 -20.5 65.5t-53.5 23.5
q-77 0 -101 -89zM274.5 630.5q-40.5 47.5 -40.5 130.5h114q0 -74 55 -74q30 0 48.5 20t24.5 54h114q-14 -82 -67 -130t-132 -48q-76 0 -116.5 47.5z" />
    <glyph glyph-name="Edotaccent" unicode="&#x116;" horiz-adv-x="575" 
d="M326 576l-13 -95h238l-25 -176h-238l-17 -121h252l-25 -184h-481l106 760h480l-26 -184h-251zM309 868q-31 31 -31 75t31 75t75 31t75 -31t31 -75t-31 -75t-75 -31t-75 31z" />
    <glyph glyph-name="edotaccent" unicode="&#x117;" horiz-adv-x="682" 
d="M636 209h-385q1 -37 21.5 -60.5t52.5 -23.5q53 0 79 42l216 -15q-44 -85 -122.5 -126t-192.5 -41q-84 0 -145.5 33t-93 87.5t-31.5 118.5q0 97 42.5 167t118.5 107t175 37q86 0 149 -30t96 -82t33 -118q0 -50 -13 -96zM262 305h175q-2 42 -20.5 65.5t-53.5 23.5
q-77 0 -101 -89zM323 628q-31 31 -31 75t31 75t75 31t75 -31t31 -75t-31 -75t-75 -31t-75 31z" />
    <glyph glyph-name="Eogonek" unicode="&#x118;" horiz-adv-x="575" 
d="M326 576l-13 -95h238l-25 -176h-238l-17 -121h252l-25 -184h-481l106 760h480l-26 -184h-251zM379 -18.5q-22 -19.5 -22 -55.5q0 -25 17 -39t46 -14q20 0 44 6l-5 -75q-20 -11 -46.5 -17.5t-53.5 -6.5q-53 0 -87 28.5t-34 79.5q0 64 49 108.5t139 52.5l5 -41
q-30 -7 -52 -26.5z" />
    <glyph glyph-name="eogonek" unicode="&#x119;" horiz-adv-x="682" 
d="M636 209h-385q1 -37 21.5 -60.5t52.5 -23.5q53 0 79 42l216 -15q-44 -85 -122.5 -126t-192.5 -41q-84 0 -145.5 33t-93 87.5t-31.5 118.5q0 97 42.5 167t118.5 107t175 37q86 0 149 -30t96 -82t33 -118q0 -50 -13 -96zM262 305h175q-2 42 -20.5 65.5t-53.5 23.5
q-77 0 -101 -89zM395 -18.5q-22 -19.5 -22 -55.5q0 -25 17 -39t46 -14q20 0 44 6l-5 -75q-20 -11 -46.5 -17.5t-53.5 -6.5q-53 0 -87 28.5t-34 79.5q0 64 49 108.5t139 52.5l5 -41q-30 -7 -52 -26.5z" />
    <glyph glyph-name="Ecaron" unicode="&#x11a;" horiz-adv-x="575" 
d="M326 576l-13 -95h238l-25 -176h-238l-17 -121h252l-25 -184h-481l106 760h480l-26 -184h-251zM616 1001l-176 -169h-125l-130 169h154l48 -83l73 83h156z" />
    <glyph glyph-name="ecaron" unicode="&#x11b;" horiz-adv-x="682" 
d="M636 209h-385q1 -37 21.5 -60.5t52.5 -23.5q53 0 79 42l216 -15q-44 -85 -122.5 -126t-192.5 -41q-84 0 -145.5 33t-93 87.5t-31.5 118.5q0 97 42.5 167t118.5 107t175 37q86 0 149 -30t96 -82t33 -118q0 -50 -13 -96zM262 305h175q-2 42 -20.5 65.5t-53.5 23.5
q-77 0 -101 -89zM630 761l-176 -169h-125l-130 169h154l48 -83l73 83h156z" />
    <glyph glyph-name="Gcircumflex" unicode="&#x11c;" horiz-adv-x="836" 
d="M444 433h368l-44 -323q-69 -56 -163.5 -90.5t-202.5 -34.5q-109 0 -189 44.5t-123 123.5t-43 180q0 123 52.5 223.5t152 159.5t234.5 59q102 0 177 -40t117 -99.5t52 -119.5l-251 -18q-10 28 -40 51.5t-79 23.5q-60 0 -101.5 -31.5t-62 -83t-20.5 -111.5q0 -170 157 -170
q81 0 139 33l9 69h-159zM553 832l-48 83l-73 -83h-156l176 169h125l130 -169h-154z" />
    <glyph glyph-name="gcircumflex" unicode="&#x11d;" 
d="M689 520l-68 -486q-18 -129 -97 -191.5t-219 -62.5q-120 0 -194 44t-88 123l225 17q5 -25 19.5 -36t42.5 -11q39 0 59.5 23t28.5 78l11 74q-27 -39 -72 -64.5t-105 -25.5q-86 0 -141.5 56.5t-55.5 168.5q0 84 32 154.5t90 112t134 41.5q64 0 105 -30t59 -74l29 89h205z
M409.5 194.5q30.5 34.5 30.5 83.5q0 39 -20.5 62.5t-56.5 23.5q-44 0 -72.5 -34.5t-28.5 -83.5q0 -41 19.5 -63.5t54.5 -22.5q43 0 73.5 34.5zM454 592l-48 83l-73 -83h-156l176 169h125l130 -169h-154z" />
    <glyph glyph-name="Gbreve" unicode="&#x11e;" horiz-adv-x="836" 
d="M444 433h368l-44 -323q-69 -56 -163.5 -90.5t-202.5 -34.5q-109 0 -189 44.5t-123 123.5t-43 180q0 123 52.5 223.5t152 159.5t234.5 59q102 0 177 -40t117 -99.5t52 -119.5l-251 -18q-10 28 -40 51.5t-79 23.5q-60 0 -101.5 -31.5t-62 -83t-20.5 -111.5q0 -170 157 -170
q81 0 139 33l9 69h-159zM379.5 870.5q-40.5 47.5 -40.5 130.5h114q0 -74 55 -74q30 0 48.5 20t24.5 54h114q-14 -82 -67 -130t-132 -48q-76 0 -116.5 47.5z" />
    <glyph glyph-name="gbreve" unicode="&#x11f;" 
d="M689 520l-68 -486q-18 -129 -97 -191.5t-219 -62.5q-120 0 -194 44t-88 123l225 17q5 -25 19.5 -36t42.5 -11q39 0 59.5 23t28.5 78l11 74q-27 -39 -72 -64.5t-105 -25.5q-86 0 -141.5 56.5t-55.5 168.5q0 84 32 154.5t90 112t134 41.5q64 0 105 -30t59 -74l29 89h205z
M409.5 194.5q30.5 34.5 30.5 83.5q0 39 -20.5 62.5t-56.5 23.5q-44 0 -72.5 -34.5t-28.5 -83.5q0 -41 19.5 -63.5t54.5 -22.5q43 0 73.5 34.5zM280.5 630.5q-40.5 47.5 -40.5 130.5h114q0 -74 55 -74q30 0 48.5 20t24.5 54h114q-14 -82 -67 -130t-132 -48q-76 0 -116.5 47.5
z" />
    <glyph glyph-name="Gdotaccent" unicode="&#x120;" horiz-adv-x="836" 
d="M444 433h368l-44 -323q-69 -56 -163.5 -90.5t-202.5 -34.5q-109 0 -189 44.5t-123 123.5t-43 180q0 123 52.5 223.5t152 159.5t234.5 59q102 0 177 -40t117 -99.5t52 -119.5l-251 -18q-10 28 -40 51.5t-79 23.5q-60 0 -101.5 -31.5t-62 -83t-20.5 -111.5q0 -170 157 -170
q81 0 139 33l9 69h-159zM428 868q-31 31 -31 75t31 75t75 31t75 -31t31 -75t-31 -75t-75 -31t-75 31z" />
    <glyph glyph-name="gdotaccent" unicode="&#x121;" 
d="M689 520l-68 -486q-18 -129 -97 -191.5t-219 -62.5q-120 0 -194 44t-88 123l225 17q5 -25 19.5 -36t42.5 -11q39 0 59.5 23t28.5 78l11 74q-27 -39 -72 -64.5t-105 -25.5q-86 0 -141.5 56.5t-55.5 168.5q0 84 32 154.5t90 112t134 41.5q64 0 105 -30t59 -74l29 89h205z
M409.5 194.5q30.5 34.5 30.5 83.5q0 39 -20.5 62.5t-56.5 23.5q-44 0 -72.5 -34.5t-28.5 -83.5q0 -41 19.5 -63.5t54.5 -22.5q43 0 73.5 34.5zM329 628q-31 31 -31 75t31 75t75 31t75 -31t31 -75t-31 -75t-75 -31t-75 31z" />
    <glyph glyph-name="Gcommaaccent" unicode="&#x122;" horiz-adv-x="836" 
d="M444 433h368l-44 -323q-69 -56 -163.5 -90.5t-202.5 -34.5q-109 0 -189 44.5t-123 123.5t-43 180q0 123 52.5 223.5t152 159.5t234.5 59q102 0 177 -40t117 -99.5t52 -119.5l-251 -18q-10 28 -40 51.5t-79 23.5q-60 0 -101.5 -31.5t-62 -83t-20.5 -111.5q0 -170 157 -170
q81 0 139 33l9 69h-159zM354 -217h-131l81 156h206z" />
    <glyph glyph-name="gcommaaccent" unicode="&#x123;" horiz-adv-x="699" 
d="M689 520l-68 -486q-18 -129 -97 -191.5t-219 -62.5q-120 0 -194 44t-88 123l225 17q5 -25 19.5 -36t42.5 -11q39 0 59.5 23t28.5 78l11 74q-27 -39 -72 -64.5t-105 -25.5q-86 0 -141.5 56.5t-55.5 168.5q0 84 32 154.5t90 112t134 41.5q64 0 105 -30t59 -74l29 89h205z
M409.5 194.5q30.5 34.5 30.5 83.5q0 39 -20.5 62.5t-56.5 23.5q-44 0 -72.5 -34.5t-28.5 -83.5q0 -41 19.5 -63.5t54.5 -22.5q43 0 73.5 34.5zM442 756h131l-81 -156h-206z" />
    <glyph glyph-name="Hcircumflex" unicode="&#x124;" horiz-adv-x="757" 
d="M773 760l-106 -760h-229l42 299h-193l-42 -299h-228l106 760h229l-39 -277h193l39 277h228zM511 832l-48 83l-73 -83h-156l176 169h125l130 -169h-154z" />
    <glyph glyph-name="hcircumflex" unicode="&#x125;" horiz-adv-x="665" 
d="M593 488.5q39 -46.5 39 -122.5q0 -34 -5 -68l-42 -298h-220l38 268q5 35 5 52q0 29 -13 41.5t-37 12.5q-65 0 -84 -89l-40 -285h-220l106 760h220l-43 -310q33 41 79 63t100 22q78 0 117 -46.5zM495 832l-48 83l-73 -83h-156l176 169h125l130 -169h-154z" />
    <glyph glyph-name="Hbar" unicode="&#x126;" horiz-adv-x="852" 
d="M882 541h-91l-75 -541h-229l42 299h-193l-42 -299h-228l75 541h-90l20 149h91l10 70h229l-10 -70h193l10 70h228l-10 -70h91zM563 541h-193l-8 -58h193z" />
    <glyph glyph-name="hbar" unicode="&#x127;" horiz-adv-x="702" 
d="M630 488.5q39 -46.5 39 -122.5q0 -34 -5 -68l-42 -298h-220l38 268q5 35 5 52q0 29 -13 41.5t-37 12.5q-65 0 -84 -89l-40 -285h-220l81 584h-81l16 109h81l9 67h220l-9 -67h177l-16 -109h-177l-18 -134q33 41 79 63t100 22q78 0 117 -46.5z" />
    <glyph glyph-name="Itilde" unicode="&#x128;" horiz-adv-x="335" 
d="M123 760h229l-107 -760h-228zM269 846q-22 8 -47 23q-22 12 -36 18t-27 6q-36 0 -75 -39l-62 63q32 52 75 83t96 31q29 0 51.5 -8.5t48.5 -23.5q19 -11 33 -17t30 -6q35 0 73 39l63 -62q-30 -52 -74 -83.5t-98 -31.5q-29 0 -51 8z" />
    <glyph glyph-name="itilde" unicode="&#x129;" horiz-adv-x="327" 
d="M90 520h220l-72 -520h-220zM238 606q-22 8 -47 23q-22 12 -36 18t-27 6q-36 0 -75 -39l-62 63q32 52 75 83t96 31q29 0 51.5 -8.5t48.5 -23.5q19 -11 33 -17t30 -6q35 0 73 39l63 -62q-30 -52 -74 -83.5t-98 -31.5q-29 0 -51 8z" />
    <glyph glyph-name="Imacron" unicode="&#x12a;" horiz-adv-x="335" 
d="M123 760h229l-107 -760h-228zM112 996h306l-16 -113h-306z" />
    <glyph glyph-name="imacron" unicode="&#x12b;" horiz-adv-x="327" 
d="M90 520h220l-72 -520h-220zM81 756h306l-16 -113h-306z" />
    <glyph glyph-name="Ibreve" unicode="&#x12c;" horiz-adv-x="335" 
d="M123 760h229l-107 -760h-228zM127.5 870.5q-40.5 47.5 -40.5 130.5h114q0 -74 55 -74q30 0 48.5 20t24.5 54h114q-14 -82 -67 -130t-132 -48q-76 0 -116.5 47.5z" />
    <glyph glyph-name="ibreve" unicode="&#x12d;" horiz-adv-x="327" 
d="M90 520h220l-72 -520h-220zM96.5 630.5q-40.5 47.5 -40.5 130.5h114q0 -74 55 -74q30 0 48.5 20t24.5 54h114q-14 -82 -67 -130t-132 -48q-76 0 -116.5 47.5z" />
    <glyph glyph-name="Iogonek" unicode="&#x12e;" horiz-adv-x="335" 
d="M123 760h229l-107 -760h-228zM66 -18.5q-22 -19.5 -22 -55.5q0 -25 17 -39t46 -14q20 0 44 6l-5 -75q-20 -11 -46.5 -17.5t-53.5 -6.5q-53 0 -87 28.5t-34 79.5q0 64 49 108.5t139 52.5l5 -41q-30 -7 -52 -26.5z" />
    <glyph glyph-name="iogonek" unicode="&#x12f;" horiz-adv-x="327" 
d="M90 520h220l-72 -520h-220zM145 628q-31 31 -31 75t31 75t75 31t75 -31t31 -75t-31 -75t-75 -31t-75 31zM72 -18.5q-22 -19.5 -22 -55.5q0 -25 17 -39t46 -14q20 0 44 6l-5 -75q-20 -11 -46.5 -17.5t-53.5 -6.5q-53 0 -87 28.5t-34 79.5q0 64 49 108.5t139 52.5l5 -41
q-30 -7 -52 -26.5z" />
    <glyph glyph-name="Idotaccent" unicode="&#x130;" horiz-adv-x="335" 
d="M123 760h229l-107 -760h-228zM176 868q-31 31 -31 75t31 75t75 31t75 -31t31 -75t-31 -75t-75 -31t-75 31z" />
    <glyph glyph-name="dotlessi" unicode="&#x131;" horiz-adv-x="327" 
d="M90 520h220l-72 -520h-220z" />
    <glyph glyph-name="IJ" unicode="&#x132;" horiz-adv-x="790" 
d="M123 760h229l-68 -484h-229zM294 1q-55 16 -84 37l93 174q21 -11 47 -19t51 -8q100 0 118 131l62 444h229l-64 -457q-22 -158 -109.5 -238t-219.5 -80q-68 0 -123 16z" />
    <glyph glyph-name="ij" unicode="&#x133;" horiz-adv-x="668" 
d="M143 618q-34 34 -34 82t34 81.5t81 33.5q48 0 82 -33.5t34 -81.5t-34 -82t-82 -34q-47 0 -81 34zM89 520h220l-72 -520h-220zM485 618q-34 34 -34 82t34 81.5t82 33.5t81.5 -33.5t33.5 -81.5t-33.5 -82t-81.5 -34t-82 34zM264 -215q-36 5 -63 13l35 156q31 -7 56 -7
q37 0 52 18t21 63l69 492h217l-73 -524q-16 -114 -75 -165t-170 -51q-33 0 -69 5z" />
    <glyph glyph-name="Jcircumflex" unicode="&#x134;" horiz-adv-x="706" 
d="M170.5 18.5q-65.5 33.5 -102 98t-36.5 154.5l229 15q0 -91 71 -91q43 0 68 27t33 83l64 455h229l-63 -453q-23 -169 -109.5 -245.5t-232.5 -76.5q-85 0 -150.5 33.5zM684 832l-48 83l-73 -83h-156l176 169h125l130 -169h-154z" />
    <glyph glyph-name="jcircumflex" unicode="&#x135;" horiz-adv-x="341" 
d="M-62 -215q-36 5 -63 13l35 156q31 -7 56 -7q37 0 52 18t21 63l69 492h217l-73 -524q-16 -114 -75 -165t-170 -51q-33 0 -69 5zM266 592l-24 101l-46 -101h-151l146 169h125l100 -169h-150z" />
    <glyph glyph-name="Kcommaaccent" unicode="&#x136;" horiz-adv-x="714" 
d="M492 452l201 -452h-245l-112 282l-61 -66l-30 -216h-228l106 760h229l-33 -231l194 231h261zM283 -217h-131l81 156h206z" />
    <glyph glyph-name="kcommaaccent" unicode="&#x137;" horiz-adv-x="621" 
d="M428 321l172 -321h-217l-95 194l-35 -32l-23 -162h-216l106 760h216l-50 -358l114 118h250zM250 -217h-131l81 156h206z" />
    <glyph glyph-name="kgreenlandic" unicode="&#x138;" horiz-adv-x="609" 
d="M290 201l-38 -32l-23 -169h-216l72 520h216l-15 -112l21 20q57 53 102 72.5t117 19.5h61l-24 -166h-38q-28 0 -49 -7.5t-44 -25.5l156 -321h-214z" />
    <glyph glyph-name="Lacute" unicode="&#x139;" horiz-adv-x="534" 
d="M503 184l-26 -184h-460l106 760h229l-81 -576h232zM314 827h-131l95 174h206z" />
    <glyph glyph-name="lacute" unicode="&#x13a;" horiz-adv-x="383" 
d="M88.5 23q-49.5 38 -49.5 127q0 20 10 100l71 510h218l-71 -501q-4 -28 -4 -50q0 -28 16.5 -42t52.5 -14h15l-11 -161q-35 -7 -90 -7q-108 0 -157.5 38zM301 827h-131l95 174h206z" />
    <glyph glyph-name="Lcommaaccent" unicode="&#x13b;" horiz-adv-x="534" 
d="M503 184l-26 -184h-460l106 760h229l-81 -576h232zM208 -217h-131l81 156h206z" />
    <glyph glyph-name="lcommaaccent" unicode="&#x13c;" horiz-adv-x="383" 
d="M88.5 23q-49.5 38 -49.5 127q0 20 10 100l71 510h218l-71 -501q-4 -28 -4 -50q0 -28 16.5 -42t52.5 -14h15l-11 -161q-35 -7 -90 -7q-108 0 -157.5 38zM130 -217h-131l81 156h206z" />
    <glyph glyph-name="Lcaron" unicode="&#x13d;" horiz-adv-x="602" 
d="M271 184h232l-26 -184h-460l106 760h229zM647 760l-110 -190h-112l35 190h187z" />
    <glyph glyph-name="lcaron" unicode="&#x13e;" horiz-adv-x="570" 
d="M88.5 23q-49.5 38 -49.5 127q0 20 10 100l71 510h218l-71 -501q-4 -28 -4 -50q0 -28 16.5 -42t52.5 -14h15l-11 -161q-35 -7 -90 -7q-108 0 -157.5 38zM521 586h-112l33 174h188z" />
    <glyph glyph-name="Ldot" unicode="&#x13f;" horiz-adv-x="585" 
d="M503 184l-26 -184h-460l106 760h229l-81 -576h232zM405.801 338q-27.9883 29 -26.5918 69q1.43164 41 31.4268 69.5t69.9951 28.5q41 0 68.5049 -28.5t26.0732 -69.5q-1.39648 -40 -30.9082 -69q-29.5127 -29 -70.5127 -29q-40 0 -67.9873 29z" />
    <glyph glyph-name="ldot" unicode="&#x140;" horiz-adv-x="536" 
d="M376.801 338q-27.9883 29 -26.5918 69q1.43164 41 31.4268 69.5t69.9951 28.5q41 0 68.5049 -28.5t26.0732 -69.5q-1.39648 -40 -30.9082 -69q-29.5127 -29 -70.5127 -29q-40 0 -67.9873 29zM88.5 23q-49.5 38 -49.5 127q0 20 10 100l71 510h218l-71 -501q-4 -28 -4 -50
q0 -28 16.5 -42t52.5 -14h15l-11 -161q-35 -7 -90 -7q-108 0 -157.5 38z" />
    <glyph glyph-name="Lslash" unicode="&#x141;" horiz-adv-x="604" 
d="M573 184l-26 -184h-460l36 257l-64 -29l-42 119l126 58l50 355h229l-34 -244l136 62l42 -119l-199 -91l-26 -184h232z" />
    <glyph glyph-name="lslash" unicode="&#x142;" horiz-adv-x="534" 
d="M363.5 167q16.5 -14 52.5 -14h15l-11 -161q-35 -7 -90 -7q-108 0 -157.5 38t-49.5 127q0 20 10 100l3 22l-76 -35l-38 110l133 61l49 352h218l-35 -246l127 58l38 -110l-184 -84l-17 -119q-4 -28 -4 -50q0 -28 16.5 -42z" />
    <glyph glyph-name="Nacute" unicode="&#x143;" horiz-adv-x="766" 
d="M782 760l-106 -760h-226l-145 444l-62 -444h-226l106 760h226l146 -439l61 439h226zM523 827h-131l95 174h206z" />
    <glyph glyph-name="nacute" unicode="&#x144;" horiz-adv-x="665" 
d="M592.5 488.5q39.5 -46.5 39.5 -122.5q0 -26 -6 -68l-41 -298h-220l38 268q4 28 4 52q0 29 -12.5 41.5t-37.5 12.5q-34 0 -56 -26t-30 -78h-1l-37 -270h-220l72 520h197l11 -75q34 43 81 66.5t102 23.5q77 0 116.5 -46.5zM431 587h-131l95 174h206z" />
    <glyph glyph-name="Ncommaaccent" unicode="&#x145;" horiz-adv-x="766" 
d="M782 760l-106 -760h-226l-145 444l-62 -444h-226l106 760h226l146 -439l61 439h226zM313 -217h-131l81 156h206z" />
    <glyph glyph-name="ncommaaccent" unicode="&#x146;" horiz-adv-x="665" 
d="M592.5 488.5q39.5 -46.5 39.5 -122.5q0 -26 -6 -68l-41 -298h-220l38 268q4 28 4 52q0 29 -12.5 41.5t-37.5 12.5q-34 0 -56 -26t-30 -78h-1l-37 -270h-220l72 520h197l11 -75q34 43 81 66.5t102 23.5q77 0 116.5 -46.5zM269 -217h-131l81 156h206z" />
    <glyph glyph-name="Ncaron" unicode="&#x147;" horiz-adv-x="766" 
d="M782 760l-106 -760h-226l-145 444l-62 -444h-226l106 760h226l146 -439l61 439h226zM703 1001l-176 -169h-125l-130 169h154l48 -83l73 83h156z" />
    <glyph glyph-name="ncaron" unicode="&#x148;" horiz-adv-x="665" 
d="M592.5 488.5q39.5 -46.5 39.5 -122.5q0 -26 -6 -68l-41 -298h-220l38 268q4 28 4 52q0 29 -12.5 41.5t-37.5 12.5q-34 0 -56 -26t-30 -78h-1l-37 -270h-220l72 520h197l11 -75q34 43 81 66.5t102 23.5q77 0 116.5 -46.5zM611 761l-176 -169h-125l-130 169h154l48 -83
l73 83h156z" />
    <glyph glyph-name="napostrophe" unicode="&#x149;" horiz-adv-x="776" 
d="M159 586h-113l95 174h189zM703.5 488.5q39.5 -46.5 39.5 -122.5q0 -26 -6 -68l-41 -298h-220l38 268q4 28 4 52q0 29 -12.5 41.5t-37.5 12.5q-34 0 -56 -26t-30 -78h-1l-37 -270h-220l72 520h197l11 -75q34 43 81 66.5t102 23.5q77 0 116.5 -46.5z" />
    <glyph glyph-name="Eng" unicode="&#x14a;" horiz-adv-x="766" 
d="M783 760l-92 -649q-23 -166 -111 -248.5t-248 -82.5q-45 0 -78 6l37 171q22 -4 52 -4q44 0 76.5 28t40.5 87l6 41l-155 378l-68 -487h-226l106 760h226l156 -373l52 373h226z" />
    <glyph glyph-name="eng" unicode="&#x14b;" horiz-adv-x="665" 
d="M626 298l-16 -118l-25 -184q-15 -110 -75.5 -163t-170.5 -53q-32 0 -68 5t-63 13l34 156q32 -7 57 -7q34 0 48.5 18t20.5 62l22 153h1l12 88q4 28 4 52q0 29 -12.5 41.5t-37.5 12.5q-34 0 -56 -26t-30 -78h-1l-37 -270h-220l72 520h197l11 -75q34 43 81 66.5t102 23.5
q77 0 116.5 -46.5t39.5 -122.5q0 -26 -6 -68z" />
    <glyph glyph-name="Omacron" unicode="&#x14c;" horiz-adv-x="863" 
d="M220.5 30q-82.5 45 -127 127t-44.5 191q0 125 58 222.5t158 151t221 53.5q109 0 191 -45t126.5 -127t44.5 -191q0 -125 -58 -222.5t-158 -151t-220 -53.5q-109 0 -191.5 45zM514.5 220q43.5 26 69.5 74.5t26 113.5q0 75 -35.5 116.5t-98.5 41.5q-49 0 -92.5 -26
t-70 -74.5t-26.5 -112.5q0 -75 36 -117t99 -42q49 0 92.5 26zM382 996h306l-16 -113h-306z" />
    <glyph glyph-name="omacron" unicode="&#x14d;" horiz-adv-x="687" 
d="M168.5 15q-63.5 30 -98.5 84t-35 125q0 98 42 168t119 106.5t179 36.5q81 0 144 -30t98 -84.5t35 -125.5q0 -98 -42 -168t-118.5 -106t-178.5 -36q-81 0 -144.5 30zM402.5 190q29.5 35 29.5 88q0 41 -19.5 63.5t-53.5 22.5q-44 0 -74 -35.5t-30 -87.5q0 -41 19.5 -63.5
t53.5 -22.5q45 0 74.5 35zM260 756h306l-16 -113h-306z" />
    <glyph glyph-name="Obreve" unicode="&#x14e;" horiz-adv-x="863" 
d="M220.5 30q-82.5 45 -127 127t-44.5 191q0 125 58 222.5t158 151t221 53.5q109 0 191 -45t126.5 -127t44.5 -191q0 -125 -58 -222.5t-158 -151t-220 -53.5q-109 0 -191.5 45zM514.5 220q43.5 26 69.5 74.5t26 113.5q0 75 -35.5 116.5t-98.5 41.5q-49 0 -92.5 -26
t-70 -74.5t-26.5 -112.5q0 -75 36 -117t99 -42q49 0 92.5 26zM397.5 870.5q-40.5 47.5 -40.5 130.5h114q0 -74 55 -74q30 0 48.5 20t24.5 54h114q-14 -82 -67 -130t-132 -48q-76 0 -116.5 47.5z" />
    <glyph glyph-name="obreve" unicode="&#x14f;" horiz-adv-x="687" 
d="M168.5 15q-63.5 30 -98.5 84t-35 125q0 98 42 168t119 106.5t179 36.5q81 0 144 -30t98 -84.5t35 -125.5q0 -98 -42 -168t-118.5 -106t-178.5 -36q-81 0 -144.5 30zM402.5 190q29.5 35 29.5 88q0 41 -19.5 63.5t-53.5 22.5q-44 0 -74 -35.5t-30 -87.5q0 -41 19.5 -63.5
t53.5 -22.5q45 0 74.5 35zM275.5 630.5q-40.5 47.5 -40.5 130.5h114q0 -74 55 -74q30 0 48.5 20t24.5 54h114q-14 -82 -67 -130t-132 -48q-76 0 -116.5 47.5z" />
    <glyph glyph-name="Ohungarumlaut" unicode="&#x150;" horiz-adv-x="863" 
d="M220.5 30q-82.5 45 -127 127t-44.5 191q0 125 58 222.5t158 151t221 53.5q109 0 191 -45t126.5 -127t44.5 -191q0 -125 -58 -222.5t-158 -151t-220 -53.5q-109 0 -191.5 45zM514.5 220q43.5 26 69.5 74.5t26 113.5q0 75 -35.5 116.5t-98.5 41.5q-49 0 -92.5 -26
t-70 -74.5t-26.5 -112.5q0 -75 36 -117t99 -42q49 0 92.5 26zM438 827h-131l95 174h206zM681 827h-131l95 174h206z" />
    <glyph glyph-name="ohungarumlaut" unicode="&#x151;" horiz-adv-x="687" 
d="M168.5 15q-63.5 30 -98.5 84t-35 125q0 98 42 168t119 106.5t179 36.5q81 0 144 -30t98 -84.5t35 -125.5q0 -98 -42 -168t-118.5 -106t-178.5 -36q-81 0 -144.5 30zM402.5 190q29.5 35 29.5 88q0 41 -19.5 63.5t-53.5 22.5q-44 0 -74 -35.5t-30 -87.5q0 -41 19.5 -63.5
t53.5 -22.5q45 0 74.5 35zM316 587h-131l95 174h206zM559 587h-131l95 174h206z" />
    <glyph glyph-name="OE" unicode="&#x152;" horiz-adv-x="1122" 
d="M220.5 30q-82.5 45 -127 127t-44.5 191q0 125 58 222.5t158 151t221 53.5q109 0 191 -45t126.5 -127t44.5 -191q0 -125 -58 -222.5t-158 -151t-220 -53.5q-109 0 -191.5 45zM514.5 220q43.5 26 69.5 74.5t26 113.5q0 75 -35.5 116.5t-98.5 41.5q-49 0 -92.5 -26
t-70 -74.5t-26.5 -112.5q0 -75 36 -117t99 -42q49 0 92.5 26zM873 576l-13 -95h238l-25 -176h-238l-17 -121h252l-25 -184h-481l106 760h480l-26 -184h-251z" />
    <glyph glyph-name="oe" unicode="&#x153;" horiz-adv-x="1077" 
d="M168.5 15q-63.5 30 -98.5 84t-35 125q0 98 42 168t119 106.5t179 36.5q81 0 144 -30t98 -84.5t35 -125.5q0 -98 -42 -168t-118.5 -106t-178.5 -36q-81 0 -144.5 30zM402.5 190q29.5 35 29.5 88q0 41 -19.5 63.5t-53.5 22.5q-44 0 -74 -35.5t-30 -87.5q0 -41 19.5 -63.5
t53.5 -22.5q45 0 74.5 35zM1031 209h-385q1 -37 21.5 -60.5t52.5 -23.5q53 0 79 42l216 -15q-44 -85 -122.5 -126t-192.5 -41q-84 0 -145.5 33t-93 87.5t-31.5 118.5q0 97 42.5 167t118.5 107t175 37q86 0 149 -30t96 -82t33 -118q0 -50 -13 -96zM657 305h175
q-2 42 -20.5 65.5t-53.5 23.5q-77 0 -101 -89z" />
    <glyph glyph-name="Racute" unicode="&#x154;" horiz-adv-x="707" 
d="M665 362q-37 -70 -105 -110l96 -252h-232l-68 205h-82l-29 -205h-228l106 760h308q132 0 201.5 -64t69.5 -172q0 -92 -37 -162zM299 380h52q61 0 90 36t29 84q0 38 -23 61.5t-73 23.5h-47zM465 827h-131l95 174h206z" />
    <glyph glyph-name="racute" unicode="&#x155;" horiz-adv-x="476" 
d="M504 528l-42 -193q-45 9 -75 9q-47 0 -78.5 -25.5t-42.5 -75.5l-34 -243h-220l73 520h191l14 -98q33 56 76.5 84.5t90.5 28.5q29 0 47 -7zM341 587h-131l95 174h206z" />
    <glyph glyph-name="Rcommaaccent" unicode="&#x156;" horiz-adv-x="707" 
d="M665 362q-37 -70 -105 -110l96 -252h-232l-68 205h-82l-29 -205h-228l106 760h308q132 0 201.5 -64t69.5 -172q0 -92 -37 -162zM299 380h52q61 0 90 36t29 84q0 38 -23 61.5t-73 23.5h-47zM275 -217h-131l81 156h206z" />
    <glyph glyph-name="rcommaaccent" unicode="&#x157;" horiz-adv-x="476" 
d="M504 528l-42 -193q-45 9 -75 9q-47 0 -78.5 -25.5t-42.5 -75.5l-34 -243h-220l73 520h191l14 -98q33 56 76.5 84.5t90.5 28.5q29 0 47 -7zM116 -217h-131l81 156h206z" />
    <glyph glyph-name="Rcaron" unicode="&#x158;" horiz-adv-x="707" 
d="M665 362q-37 -70 -105 -110l96 -252h-232l-68 205h-82l-29 -205h-228l106 760h308q132 0 201.5 -64t69.5 -172q0 -92 -37 -162zM299 380h52q61 0 90 36t29 84q0 38 -23 61.5t-73 23.5h-47zM645 1001l-176 -169h-125l-130 169h154l48 -83l73 83h156z" />
    <glyph glyph-name="rcaron" unicode="&#x159;" horiz-adv-x="476" 
d="M504 528l-42 -193q-45 9 -75 9q-47 0 -78.5 -25.5t-42.5 -75.5l-34 -243h-220l73 520h191l14 -98q33 56 76.5 84.5t90.5 28.5q29 0 47 -7zM521 761l-176 -169h-125l-130 169h154l48 -83l73 83h156z" />
    <glyph glyph-name="Sacute" unicode="&#x15a;" horiz-adv-x="723" 
d="M163.5 16.5q-68.5 31.5 -102 86t-33.5 125.5l234 16q0 -52 28 -72.5t67 -20.5t64 17.5t25 46.5q0 22 -14.5 33t-47.5 22l-83 27q-112 36 -164 86t-52 139q0 84 43 141t117 84.5t167 27.5q108 0 176.5 -35t98.5 -87.5t30 -105.5l-239 -17q-1 41 -21.5 60.5t-55.5 19.5
q-33 0 -53 -15.5t-20 -42.5q0 -18 14.5 -32t56.5 -27l86 -27q70 -22 113.5 -47.5t66.5 -64t23 -96.5q0 -86 -46.5 -147.5t-127 -93.5t-181.5 -32t-169.5 31.5zM483 827h-131l95 174h206z" />
    <glyph glyph-name="sacute" unicode="&#x15b;" horiz-adv-x="592" 
d="M73 26.5q-68 41.5 -74 118.5l228 15q0 -29 14 -42.5t37 -13.5q24 0 39.5 10t15.5 32q0 18 -17.5 27.5t-69.5 24.5l-43 13q-81 24 -121.5 55.5t-40.5 90.5q0 178 283 178q112 0 177.5 -36t73.5 -107l-215 -14q0 19 -13 30t-35 11t-35.5 -9t-13.5 -25q0 -11 14.5 -18
t51.5 -17l52 -14q62 -17 98 -32.5t58 -44t22 -75.5q0 -97 -75 -148t-222 -51q-121 0 -189 41.5zM386 587h-131l95 174h206z" />
    <glyph glyph-name="Scircumflex" unicode="&#x15c;" horiz-adv-x="723" 
d="M163.5 16.5q-68.5 31.5 -102 86t-33.5 125.5l234 16q0 -52 28 -72.5t67 -20.5t64 17.5t25 46.5q0 22 -14.5 33t-47.5 22l-83 27q-112 36 -164 86t-52 139q0 84 43 141t117 84.5t167 27.5q108 0 176.5 -35t98.5 -87.5t30 -105.5l-239 -17q-1 41 -21.5 60.5t-55.5 19.5
q-33 0 -53 -15.5t-20 -42.5q0 -18 14.5 -32t56.5 -27l86 -27q70 -22 113.5 -47.5t66.5 -64t23 -96.5q0 -86 -46.5 -147.5t-127 -93.5t-181.5 -32t-169.5 31.5zM481 832l-48 83l-73 -83h-156l176 169h125l130 -169h-154z" />
    <glyph glyph-name="scircumflex" unicode="&#x15d;" horiz-adv-x="592" 
d="M73 26.5q-68 41.5 -74 118.5l228 15q0 -29 14 -42.5t37 -13.5q24 0 39.5 10t15.5 32q0 18 -17.5 27.5t-69.5 24.5l-43 13q-81 24 -121.5 55.5t-40.5 90.5q0 178 283 178q112 0 177.5 -36t73.5 -107l-215 -14q0 19 -13 30t-35 11t-35.5 -9t-13.5 -25q0 -11 14.5 -18
t51.5 -17l52 -14q62 -17 98 -32.5t58 -44t22 -75.5q0 -97 -75 -148t-222 -51q-121 0 -189 41.5zM384 592l-48 83l-73 -83h-156l176 169h125l130 -169h-154z" />
    <glyph glyph-name="Scedilla" unicode="&#x15e;" horiz-adv-x="723" 
d="M163.5 16.5q-68.5 31.5 -102 86t-33.5 125.5l234 16q0 -52 28 -72.5t67 -20.5t64 17.5t25 46.5q0 22 -14.5 33t-47.5 22l-83 27q-112 36 -164 86t-52 139q0 84 43 141t117 84.5t167 27.5q108 0 176.5 -35t98.5 -87.5t30 -105.5l-239 -17q-1 41 -21.5 60.5t-55.5 19.5
q-33 0 -53 -15.5t-20 -42.5q0 -18 14.5 -32t56.5 -27l86 -27q70 -22 113.5 -47.5t66.5 -64t23 -96.5q0 -86 -46.5 -147.5t-127 -93.5t-181.5 -32t-169.5 31.5zM416 -57q22 -20 22 -55q0 -49 -37 -78.5t-101 -29.5q-57 0 -96 24l35 63q23 -14 47 -14q18 0 29.5 9t11.5 25
q0 12 -7 18.5t-20 6.5q-19 0 -36 -14l-29 21l47 110h78l-23 -67q6 1 18 1q39 0 61 -20z" />
    <glyph glyph-name="scedilla" unicode="&#x15f;" horiz-adv-x="592" 
d="M73 26.5q-68 41.5 -74 118.5l228 15q0 -29 14 -42.5t37 -13.5q24 0 39.5 10t15.5 32q0 18 -17.5 27.5t-69.5 24.5l-43 13q-81 24 -121.5 55.5t-40.5 90.5q0 178 283 178q112 0 177.5 -36t73.5 -107l-215 -14q0 19 -13 30t-35 11t-35.5 -9t-13.5 -25q0 -11 14.5 -18
t51.5 -17l52 -14q62 -17 98 -32.5t58 -44t22 -75.5q0 -97 -75 -148t-222 -51q-121 0 -189 41.5zM355 -57q22 -20 22 -55q0 -49 -37 -78.5t-101 -29.5q-57 0 -96 24l35 63q23 -14 47 -14q18 0 29.5 9t11.5 25q0 12 -7 18.5t-20 6.5q-19 0 -36 -14l-29 21l47 110h78l-23 -67
q6 1 18 1q39 0 61 -20z" />
    <glyph glyph-name="Scaron" unicode="&#x160;" horiz-adv-x="723" 
d="M163.5 16.5q-68.5 31.5 -102 86t-33.5 125.5l234 16q0 -52 28 -72.5t67 -20.5t64 17.5t25 46.5q0 22 -14.5 33t-47.5 22l-83 27q-112 36 -164 86t-52 139q0 84 43 141t117 84.5t167 27.5q108 0 176.5 -35t98.5 -87.5t30 -105.5l-239 -17q-1 41 -21.5 60.5t-55.5 19.5
q-33 0 -53 -15.5t-20 -42.5q0 -18 14.5 -32t56.5 -27l86 -27q70 -22 113.5 -47.5t66.5 -64t23 -96.5q0 -86 -46.5 -147.5t-127 -93.5t-181.5 -32t-169.5 31.5zM663 1001l-176 -169h-125l-130 169h154l48 -83l73 83h156z" />
    <glyph glyph-name="scaron" unicode="&#x161;" horiz-adv-x="592" 
d="M73 26.5q-68 41.5 -74 118.5l228 15q0 -29 14 -42.5t37 -13.5q24 0 39.5 10t15.5 32q0 18 -17.5 27.5t-69.5 24.5l-43 13q-81 24 -121.5 55.5t-40.5 90.5q0 178 283 178q112 0 177.5 -36t73.5 -107l-215 -14q0 19 -13 30t-35 11t-35.5 -9t-13.5 -25q0 -11 14.5 -18
t51.5 -17l52 -14q62 -17 98 -32.5t58 -44t22 -75.5q0 -97 -75 -148t-222 -51q-121 0 -189 41.5zM566 761l-176 -169h-125l-130 169h154l48 -83l73 83h156z" />
    <glyph glyph-name="uni0162" unicode="&#x162;" horiz-adv-x="644" 
d="M668 576h-188l-80 -576h-229l80 576h-187l26 184h603zM366 -57q22 -20 22 -55q0 -49 -37 -78.5t-101 -29.5q-57 0 -96 24l35 63q23 -14 47 -14q18 0 29.5 9t11.5 25q0 12 -7 18.5t-20 6.5q-19 0 -36 -14l-29 21l47 110h78l-23 -67q6 1 18 1q39 0 61 -20z" />
    <glyph glyph-name="uni0163" unicode="&#x163;" horiz-adv-x="480" 
d="M296 245q-4 -28 -4 -41q0 -26 13.5 -38.5t44.5 -12.5q38 0 73 7l-10 -161q-70 -14 -160 -14q-88 0 -136.5 36.5t-48.5 127.5q0 24 6 66l20 139h-76l33 166h66l19 130h217l-18 -130h130l-23 -166h-131zM320 -57q22 -20 22 -55q0 -49 -37 -78.5t-101 -29.5q-57 0 -96 24
l35 63q23 -14 47 -14q18 0 29.5 9t11.5 25q0 12 -7 18.5t-20 6.5q-19 0 -36 -14l-29 21l47 110h78l-23 -67q6 1 18 1q39 0 61 -20z" />
    <glyph glyph-name="Tcaron" unicode="&#x164;" horiz-adv-x="644" 
d="M668 576h-188l-80 -576h-229l80 576h-187l26 184h603zM643 1001l-176 -169h-125l-130 169h154l48 -83l73 83h156z" />
    <glyph glyph-name="tcaron" unicode="&#x165;" horiz-adv-x="610" 
d="M680 760l-170 -174h-113l95 174h188zM335 520h130l-23 -166h-131l-15 -109q-4 -28 -4 -41q0 -26 13.5 -38.5t44.5 -12.5q38 0 73 7l-10 -161q-70 -14 -160 -14q-88 0 -136.5 36.5t-48.5 127.5q0 24 6 66l20 139h-76l33 166h66l19 130h217z" />
    <glyph glyph-name="Tbar" unicode="&#x166;" horiz-adv-x="644" 
d="M480 576l-17 -127h123l-22 -149h-122l-42 -300h-229l42 300h-113l21 149h113l17 127h-187l26 184h603l-25 -184h-188z" />
    <glyph glyph-name="tbar" unicode="&#x167;" horiz-adv-x="480" 
d="M311 354l-4 -28h132l-13 -96h-132q-2 -24 -2 -26q0 -26 13.5 -38.5t44.5 -12.5q38 0 73 7l-10 -161q-70 -14 -160 -14q-88 0 -136.5 36.5t-48.5 127.5q0 24 6 66l2 15h-67l13 96h68l4 28h-76l33 166h66l19 130h217l-18 -130h130l-23 -166h-131z" />
    <glyph glyph-name="Utilde" unicode="&#x168;" horiz-adv-x="773" 
d="M136.5 54q-82.5 69 -82.5 198q0 38 7 83l59 425h231l-61 -429q-3 -22 -3 -46q0 -90 94 -90q49 0 80 29.5t40 97.5l62 438h230l-60 -430q-18 -127 -61.5 -202t-119.5 -109t-194 -34q-139 0 -221.5 69zM492 846q-22 8 -47 23q-22 12 -36 18t-27 6q-36 0 -75 -39l-62 63
q32 52 75 83t96 31q29 0 51.5 -8.5t48.5 -23.5q19 -11 33 -17t30 -6q35 0 73 39l63 -62q-30 -52 -74 -83.5t-98 -31.5q-29 0 -51 8z" />
    <glyph glyph-name="utilde" unicode="&#x169;" horiz-adv-x="659" 
d="M647 520l-72 -520h-196l-11 75q-33 -43 -79 -66.5t-102 -23.5q-75 0 -115 41.5t-40 112.5q0 25 5 60l44 321h220l-38 -277q-4 -28 -4 -43q0 -55 48 -55q37 0 56 28.5t27 77.5l37 269h220zM398 606q-22 8 -47 23q-22 12 -36 18t-27 6q-36 0 -75 -39l-62 63q32 52 75 83
t96 31q29 0 51.5 -8.5t48.5 -23.5q19 -11 33 -17t30 -6q35 0 73 39l63 -62q-30 -52 -74 -83.5t-98 -31.5q-29 0 -51 8z" />
    <glyph glyph-name="Umacron" unicode="&#x16a;" horiz-adv-x="773" 
d="M136.5 54q-82.5 69 -82.5 198q0 38 7 83l59 425h231l-61 -429q-3 -22 -3 -46q0 -90 94 -90q49 0 80 29.5t40 97.5l62 438h230l-60 -430q-18 -127 -61.5 -202t-119.5 -109t-194 -34q-139 0 -221.5 69zM335 996h306l-16 -113h-306z" />
    <glyph glyph-name="umacron" unicode="&#x16b;" horiz-adv-x="659" 
d="M647 520l-72 -520h-196l-11 75q-33 -43 -79 -66.5t-102 -23.5q-75 0 -115 41.5t-40 112.5q0 25 5 60l44 321h220l-38 -277q-4 -28 -4 -43q0 -55 48 -55q37 0 56 28.5t27 77.5l37 269h220zM241 756h306l-16 -113h-306z" />
    <glyph glyph-name="Ubreve" unicode="&#x16c;" horiz-adv-x="773" 
d="M136.5 54q-82.5 69 -82.5 198q0 38 7 83l59 425h231l-61 -429q-3 -22 -3 -46q0 -90 94 -90q49 0 80 29.5t40 97.5l62 438h230l-60 -430q-18 -127 -61.5 -202t-119.5 -109t-194 -34q-139 0 -221.5 69zM350.5 870.5q-40.5 47.5 -40.5 130.5h114q0 -74 55 -74q30 0 48.5 20
t24.5 54h114q-14 -82 -67 -130t-132 -48q-76 0 -116.5 47.5z" />
    <glyph glyph-name="ubreve" unicode="&#x16d;" horiz-adv-x="659" 
d="M647 520l-72 -520h-196l-11 75q-33 -43 -79 -66.5t-102 -23.5q-75 0 -115 41.5t-40 112.5q0 25 5 60l44 321h220l-38 -277q-4 -28 -4 -43q0 -55 48 -55q37 0 56 28.5t27 77.5l37 269h220zM256.5 630.5q-40.5 47.5 -40.5 130.5h114q0 -74 55 -74q30 0 48.5 20t24.5 54h114
q-14 -82 -67 -130t-132 -48q-76 0 -116.5 47.5z" />
    <glyph glyph-name="Uring" unicode="&#x16e;" horiz-adv-x="773" 
d="M136.5 54q-82.5 69 -82.5 198q0 38 7 83l59 425h231l-61 -429q-3 -22 -3 -46q0 -90 94 -90q49 0 80 29.5t40 97.5l62 438h230l-60 -430q-18 -127 -61.5 -202t-119.5 -109t-194 -34q-139 0 -221.5 69zM409 835.5q-29 17.5 -46 46.5t-17 63t17 63t46 46t63 17q35 0 64 -17
t46 -46t17 -63t-17 -63t-46 -46.5t-64 -17.5q-34 0 -63 17.5zM510.5 905q15.5 16 15.5 40t-15.5 40t-38.5 16t-38 -16t-15 -40t15 -40t38 -16t38.5 16z" />
    <glyph glyph-name="uring" unicode="&#x16f;" horiz-adv-x="659" 
d="M647 520l-72 -520h-196l-11 75q-33 -43 -79 -66.5t-102 -23.5q-75 0 -115 41.5t-40 112.5q0 25 5 60l44 321h220l-38 -277q-4 -28 -4 -43q0 -55 48 -55q37 0 56 28.5t27 77.5l37 269h220zM315 595.5q-29 17.5 -46 46.5t-17 63t17 63t46 46t63 17q35 0 64 -17t46 -46
t17 -63t-17 -63t-46 -46.5t-64 -17.5q-34 0 -63 17.5zM416.5 665q15.5 16 15.5 40t-15.5 40t-38.5 16t-38 -16t-15 -40t15 -40t38 -16t38.5 16z" />
    <glyph glyph-name="Uhungarumlaut" unicode="&#x170;" horiz-adv-x="773" 
d="M136.5 54q-82.5 69 -82.5 198q0 38 7 83l59 425h231l-61 -429q-3 -22 -3 -46q0 -90 94 -90q49 0 80 29.5t40 97.5l62 438h230l-60 -430q-18 -127 -61.5 -202t-119.5 -109t-194 -34q-139 0 -221.5 69zM391 827h-131l95 174h206zM634 827h-131l95 174h206z" />
    <glyph glyph-name="uhungarumlaut" unicode="&#x171;" horiz-adv-x="659" 
d="M647 520l-72 -520h-196l-11 75q-33 -43 -79 -66.5t-102 -23.5q-75 0 -115 41.5t-40 112.5q0 25 5 60l44 321h220l-38 -277q-4 -28 -4 -43q0 -55 48 -55q37 0 56 28.5t27 77.5l37 269h220zM297 587h-131l95 174h206zM540 587h-131l95 174h206z" />
    <glyph glyph-name="Uogonek" unicode="&#x172;" horiz-adv-x="773" 
d="M136.5 54q-82.5 69 -82.5 198q0 38 7 83l59 425h231l-61 -429q-3 -22 -3 -46q0 -90 94 -90q49 0 80 29.5t40 97.5l62 438h230l-60 -430q-18 -127 -61.5 -202t-119.5 -109t-194 -34q-139 0 -221.5 69zM461 -18.5q-22 -19.5 -22 -55.5q0 -25 17 -39t46 -14q20 0 44 6
l-5 -75q-20 -11 -46.5 -17.5t-53.5 -6.5q-53 0 -87 28.5t-34 79.5q0 64 49 108.5t139 52.5l5 -41q-30 -7 -52 -26.5z" />
    <glyph glyph-name="uogonek" unicode="&#x173;" horiz-adv-x="659" 
d="M647 520l-72 -520h-196l-11 75q-33 -43 -79 -66.5t-102 -23.5q-75 0 -115 41.5t-40 112.5q0 25 5 60l44 321h220l-38 -277q-4 -28 -4 -43q0 -55 48 -55q37 0 56 28.5t27 77.5l37 269h220zM451 -18.5q-22 -19.5 -22 -55.5q0 -25 17 -39t46 -14q20 0 44 6l-5 -75
q-20 -11 -46.5 -17.5t-53.5 -6.5q-53 0 -87 28.5t-34 79.5q0 64 49 108.5t139 52.5l5 -41q-30 -7 -52 -26.5z" />
    <glyph glyph-name="Wcircumflex" unicode="&#x174;" horiz-adv-x="1080" 
d="M1140 760l-300 -760h-234l-41 442l-161 -442h-234l-90 760h237l13 -531l176 531h201l32 -533l162 533h239zM681 832l-48 83l-73 -83h-156l176 169h125l130 -169h-154z" />
    <glyph glyph-name="wcircumflex" unicode="&#x175;" horiz-adv-x="886" 
d="M923 520l-241 -520h-210l-31 266l-96 -266h-210l-98 520h229l14 -324l112 324h171l23 -322l101 322h236zM541 592l-48 83l-73 -83h-156l176 169h125l130 -169h-154z" />
    <glyph glyph-name="Ycircumflex" unicode="&#x176;" horiz-adv-x="699" 
d="M784 760l-485 -760h-241l195 306l-193 454h241l83 -249l159 249h241zM489 832l-48 83l-73 -83h-156l176 169h125l130 -169h-154z" />
    <glyph glyph-name="ycircumflex" unicode="&#x177;" horiz-adv-x="660" 
d="M648 520l-68 -488q-36 -252 -317 -252q-120 0 -188 44t-79 124l224 17q2 -24 15.5 -36t40.5 -12q38 0 56 24.5t26 79.5l10 71q-33 -41 -78 -63.5t-100 -22.5q-75 0 -114.5 41.5t-39.5 112.5q0 26 5 59l41 301h220l-35 -256q-4 -28 -4 -43q0 -29 11.5 -41.5t36.5 -12.5
q68 0 82 104l35 249h220zM437 592l-48 83l-73 -83h-156l176 169h125l130 -169h-154z" />
    <glyph glyph-name="Ydieresis" unicode="&#x178;" horiz-adv-x="699" 
d="M784 760l-485 -760h-241l195 306l-193 454h241l83 -249l159 249h241zM251 866.5q-27 27.5 -27 65.5q0 39 27 66t65 27t65.5 -27t27.5 -66q0 -38 -27.5 -65.5t-65.5 -27.5t-65 27.5zM498.5 866.5q-27.5 27.5 -27.5 65.5q0 39 27.5 66t65.5 27t64.5 -27t26.5 -66
q0 -38 -27 -65.5t-64 -27.5q-38 0 -65.5 27.5z" />
    <glyph glyph-name="Zacute" unicode="&#x179;" horiz-adv-x="686" 
d="M347 184h300l-26 -184h-642l394 576h-268l26 184h610zM510 827h-131l95 174h206z" />
    <glyph glyph-name="zacute" unicode="&#x17a;" horiz-adv-x="568" 
d="M313 162h218l-22 -162h-535l269 359h-191l33 161h500zM401 587h-131l95 174h206z" />
    <glyph glyph-name="Zdotaccent" unicode="&#x17b;" horiz-adv-x="686" 
d="M347 184h300l-26 -184h-642l394 576h-268l26 184h610zM383 868q-31 31 -31 75t31 75t75 31t75 -31t31 -75t-31 -75t-75 -31t-75 31z" />
    <glyph glyph-name="zdotaccent" unicode="&#x17c;" horiz-adv-x="568" 
d="M313 162h218l-22 -162h-535l269 359h-191l33 161h500zM274 628q-31 31 -31 75t31 75t75 31t75 -31t31 -75t-31 -75t-75 -31t-75 31z" />
    <glyph glyph-name="Zcaron" unicode="&#x17d;" horiz-adv-x="686" 
d="M347 184h300l-26 -184h-642l394 576h-268l26 184h610zM690 1001l-176 -169h-125l-130 169h154l48 -83l73 83h156z" />
    <glyph glyph-name="zcaron" unicode="&#x17e;" horiz-adv-x="568" 
d="M313 162h218l-22 -162h-535l269 359h-191l33 161h500zM581 761l-176 -169h-125l-130 169h154l48 -83l73 83h156z" />
    <glyph glyph-name="longs" unicode="&#x17f;" horiz-adv-x="392" 
d="M453 767.5q48 -7.5 68 -14.5l-30 -141q-36 8 -75 8q-38 0 -55.5 -16.5t-24.5 -61.5l-76 -542h-218l49 354h-73l36 166h60l5 40q15 111 75.5 163t171.5 52q39 0 87 -7.5z" />
    <glyph glyph-name="uni018F" unicode="&#x18f;" horiz-adv-x="861" 
d="M681.5 727q81.5 -48 123 -130t41.5 -184q0 -123 -58.5 -221t-158.5 -152.5t-221 -54.5q-110 0 -191.5 45.5t-125 124.5t-43.5 177q0 28 3.5 61t8.5 54h546q-9 57 -43.5 87.5t-90.5 30.5q-77 0 -130 -60l-251 27q56 112 159 177.5t236 65.5q114 0 195.5 -48zM518 223.5
q45 28.5 69 79.5h-302q10 -53 45 -80.5t89 -27.5t99 28.5z" />
    <glyph glyph-name="florin" unicode="&#x192;" horiz-adv-x="650" 
d="M531.5 570q-22.5 -23 -33.5 -67l-10 -41h70l-14 -105h-82l-77 -312q-32 -132 -103.5 -191t-190.5 -59h-76l40 167q45 0 68.5 23.5t34.5 66.5l75 305h-63l15 105h74l12 50q32 132 103.5 190t189.5 58h76l-41 -167q-45 0 -67.5 -23z" />
    <glyph glyph-name="uni019D" unicode="&#x19d;" horiz-adv-x="764" 
d="M780 760l-106 -760h-226l-145 446l-47 -335q-24 -166 -112 -248.5t-248 -82.5q-45 0 -78 6l38 171q22 -4 51 -4q45 0 77.5 28t40.5 87l97 692h225l146 -437l61 437h226z" />
    <glyph glyph-name="uni01CD" unicode="&#x1cd;" horiz-adv-x="751" 
d="M464 96h-226l-38 -96h-237l351 760h260l140 -760h-239zM446 254l-33 283l-112 -283h145zM695 1001l-176 -169h-125l-130 169h154l48 -83l73 83h156z" />
    <glyph glyph-name="uni01CE" unicode="&#x1ce;" 
d="M689 520l-72 -520h-204l-4 82q-70 -97 -178 -97q-55 0 -99.5 27t-70.5 80.5t-26 131.5q0 85 31.5 156t89 113t132.5 42q64 0 107.5 -30.5t61.5 -76.5l13 92h219zM410 191q30 36 30 87q0 40 -19.5 63t-54.5 23q-44 0 -74 -35t-30 -87q0 -41 19.5 -64t53.5 -23q45 0 75 36z
M611 761l-176 -169h-125l-130 169h154l48 -83l73 83h156z" />
    <glyph glyph-name="Gcaron" unicode="&#x1e6;" horiz-adv-x="836" 
d="M444 433h368l-44 -323q-69 -56 -163.5 -90.5t-202.5 -34.5q-109 0 -189 44.5t-123 123.5t-43 180q0 123 52.5 223.5t152 159.5t234.5 59q102 0 177 -40t117 -99.5t52 -119.5l-251 -18q-10 28 -40 51.5t-79 23.5q-60 0 -101.5 -31.5t-62 -83t-20.5 -111.5q0 -170 157 -170
q81 0 139 33l9 69h-159zM735 1001l-176 -169h-125l-130 169h154l48 -83l73 83h156z" />
    <glyph glyph-name="gcaron" unicode="&#x1e7;" 
d="M689 520l-68 -486q-18 -129 -97 -191.5t-219 -62.5q-120 0 -194 44t-88 123l225 17q5 -25 19.5 -36t42.5 -11q39 0 59.5 23t28.5 78l11 74q-27 -39 -72 -64.5t-105 -25.5q-86 0 -141.5 56.5t-55.5 168.5q0 84 32 154.5t90 112t134 41.5q64 0 105 -30t59 -74l29 89h205z
M409.5 194.5q30.5 34.5 30.5 83.5q0 39 -20.5 62.5t-56.5 23.5q-44 0 -72.5 -34.5t-28.5 -83.5q0 -41 19.5 -63.5t54.5 -22.5q43 0 73.5 34.5zM636 761l-176 -169h-125l-130 169h154l48 -83l73 83h156z" />
    <glyph glyph-name="Aringacute" unicode="&#x1fa;" horiz-adv-x="751" 
d="M464 96h-226l-38 -96h-237l351 760h260l140 -760h-239zM446 254l-33 283l-112 -283h145zM398 835.5q-29 17.5 -46 46.5t-17 63t17 63t46 46t63 17q35 0 64 -17t46 -46t17 -63t-17 -63t-46 -46.5t-64 -17.5q-34 0 -63 17.5zM499.5 905q15.5 16 15.5 40t-15.5 40t-38.5 16
t-38 -16t-15 -40t15 -40t38 -16t38.5 16zM534 1114h-131l95 174h206z" />
    <glyph glyph-name="aringacute" unicode="&#x1fb;" 
d="M689 520l-72 -520h-204l-4 82q-70 -97 -178 -97q-55 0 -99.5 27t-70.5 80.5t-26 131.5q0 85 31.5 156t89 113t132.5 42q64 0 107.5 -30.5t61.5 -76.5l13 92h219zM410 191q30 36 30 87q0 40 -19.5 63t-54.5 23q-44 0 -74 -35t-30 -87q0 -41 19.5 -64t53.5 -23q45 0 75 36z
M314 595.5q-29 17.5 -46 46.5t-17 63t17 63t46 46t63 17q35 0 64 -17t46 -46t17 -63t-17 -63t-46 -46.5t-64 -17.5q-34 0 -63 17.5zM415.5 665q15.5 16 15.5 40t-15.5 40t-38.5 16t-38 -16t-15 -40t15 -40t38 -16t38.5 16zM450 874h-131l95 174h206z" />
    <glyph glyph-name="AEacute" unicode="&#x1fc;" horiz-adv-x="1028" 
d="M793 576l-13 -95h225l-25 -175h-224l-17 -122h238l-26 -184h-467l18 127h-226l-80 -127h-237l530 760h568l-26 -184h-238zM524 285l41 299l-189 -299h148zM857 827h-131l95 174h206z" />
    <glyph glyph-name="aeacute" unicode="&#x1fd;" horiz-adv-x="982" 
d="M572 211v-6q0 -36 20.5 -58t53.5 -22q52 0 80 43l194 -14q-97 -169 -297 -169q-66 0 -114.5 24t-77.5 67q-74 -91 -222 -91q-91 0 -138.5 38t-47.5 103q0 177 259 177h117l3 33q0 58 -66 58q-26 0 -46.5 -12t-30.5 -32l-185 14q31 69 103.5 120t181.5 51q53 0 99 -13.5
t77 -39.5q74 53 164 53q118 0 184 -60.5t66 -171.5q0 -22 -3.5 -47.5t-8.5 -44.5h-365zM623.5 366.5q-24.5 -23.5 -37.5 -63.5h170v6q0 36 -18.5 58.5t-53.5 22.5q-36 0 -60.5 -23.5zM347.5 126q27.5 22 34.5 66l3 19h-83q-46 0 -68 -14.5t-22 -45.5q0 -47 64 -47
q44 0 71.5 22zM616 587h-131l95 174h206z" />
    <glyph glyph-name="Oslashacute" unicode="&#x1fe;" horiz-adv-x="863" 
d="M765 659q40 -47 61.5 -110t21.5 -137q0 -125 -58 -222.5t-158 -151t-220 -53.5q-98 0 -173 36l-41 -50h-173l107 130q-40 47 -61.5 110t-21.5 137q0 125 58 222.5t158 151t221 53.5q97 0 172 -35l41 49h173zM279 280l247 299q-23 6 -47 6q-54 0 -102 -28.5t-77.5 -82
t-29.5 -124.5q0 -40 9 -70zM618 481l-246 -299q20 -7 47 -7q54 0 102 28.5t77 82t29 125.5q0 39 -9 70zM562 827h-131l95 174h206z" />
    <glyph glyph-name="oslashacute" unicode="&#x1ff;" horiz-adv-x="687" 
d="M630.5 396q21.5 -46 21.5 -101q0 -98 -42 -168t-118.5 -106t-178.5 -36q-71 0 -129 23l-23 -28h-97l54 66q-40 32 -61.5 77.5t-21.5 100.5q0 98 42 168t119 106.5t179 36.5q71 0 129 -23l22 27h97l-54 -65q40 -32 61.5 -78zM246 200l145 176q-12 4 -29 4
q-52 0 -86.5 -40.5t-34.5 -100.5q0 -21 5 -39zM412 180q34 41 34 101q0 20 -5 38l-145 -175q15 -5 30 -5q52 0 86 41zM452 587h-131l95 174h206z" />
    <glyph glyph-name="Scommaaccent" unicode="&#x218;" horiz-adv-x="723" 
d="M163.5 16.5q-68.5 31.5 -102 86t-33.5 125.5l234 16q0 -52 28 -72.5t67 -20.5t64 17.5t25 46.5q0 22 -14.5 33t-47.5 22l-83 27q-112 36 -164 86t-52 139q0 84 43 141t117 84.5t167 27.5q108 0 176.5 -35t98.5 -87.5t30 -105.5l-239 -17q-1 41 -21.5 60.5t-55.5 19.5
q-33 0 -53 -15.5t-20 -42.5q0 -18 14.5 -32t56.5 -27l86 -27q70 -22 113.5 -47.5t66.5 -64t23 -96.5q0 -86 -46.5 -147.5t-127 -93.5t-181.5 -32t-169.5 31.5zM303 -217h-131l81 156h206z" />
    <glyph glyph-name="scommaaccent" unicode="&#x219;" horiz-adv-x="592" 
d="M73 26.5q-68 41.5 -74 118.5l228 15q0 -29 14 -42.5t37 -13.5q24 0 39.5 10t15.5 32q0 18 -17.5 27.5t-69.5 24.5l-43 13q-81 24 -121.5 55.5t-40.5 90.5q0 178 283 178q112 0 177.5 -36t73.5 -107l-215 -14q0 19 -13 30t-35 11t-35.5 -9t-13.5 -25q0 -11 14.5 -18
t51.5 -17l52 -14q62 -17 98 -32.5t58 -44t22 -75.5q0 -97 -75 -148t-222 -51q-121 0 -189 41.5zM242 -217h-131l81 156h206z" />
    <glyph glyph-name="uni021A" unicode="&#x21a;" horiz-adv-x="644" 
d="M668 576h-188l-80 -576h-229l80 576h-187l26 184h603zM253 -217h-131l81 156h206z" />
    <glyph glyph-name="uni021B" unicode="&#x21b;" horiz-adv-x="480" 
d="M296 245q-4 -28 -4 -41q0 -26 13.5 -38.5t44.5 -12.5q38 0 73 7l-10 -161q-70 -14 -160 -14q-88 0 -136.5 36.5t-48.5 127.5q0 24 6 66l20 139h-76l33 166h66l19 130h217l-18 -130h130l-23 -166h-131zM207 -217h-131l81 156h206z" />
    <glyph glyph-name="uni0232" unicode="&#x232;" horiz-adv-x="699" 
d="M784 760l-485 -760h-241l195 306l-193 454h241l83 -249l159 249h241zM300 996h306l-16 -113h-306z" />
    <glyph glyph-name="uni0233" unicode="&#x233;" horiz-adv-x="660" 
d="M648 520l-68 -488q-36 -252 -317 -252q-120 0 -188 44t-79 124l224 17q2 -24 15.5 -36t40.5 -12q38 0 56 24.5t26 79.5l10 71q-33 -41 -78 -63.5t-100 -22.5q-75 0 -114.5 41.5t-39.5 112.5q0 26 5 59l41 301h220l-35 -256q-4 -28 -4 -43q0 -29 11.5 -41.5t36.5 -12.5
q68 0 82 104l35 249h220zM248 756h306l-16 -113h-306z" />
    <glyph glyph-name="uni0237" unicode="&#x237;" horiz-adv-x="341" 
d="M-62 -215q-36 5 -63 13l35 156q31 -7 56 -7q37 0 52 18t21 63l69 492h217l-73 -524q-16 -114 -75 -165t-170 -51q-33 0 -69 5z" />
    <glyph glyph-name="uni0259" unicode="&#x259;" horiz-adv-x="682" 
d="M46 311h385q-1 37 -21.5 60.5t-52.5 23.5q-53 0 -79 -42l-216 15q44 85 122.5 126t192.5 41q84 0 145.5 -33t93 -87.5t31.5 -118.5q0 -97 -42.5 -167t-118.5 -107t-175 -37q-86 0 -149 30t-96 82t-33 118q0 50 13 96zM420 215h-175q2 -42 20.5 -65.5t53.5 -23.5
q77 0 101 89z" />
    <glyph glyph-name="uni0272" unicode="&#x272;" horiz-adv-x="683" 
d="M611 488.5q39 -46.5 39 -122.5q0 -34 -5 -68l-42 -298h-220l38 268q5 35 5 52q0 29 -13 41.5t-37 12.5q-67 0 -85 -94l-30 -214l-9 -70q-14 -110 -74.5 -163t-170.5 -53q-33 0 -69 5t-63 13l35 156q31 -7 56 -7q33 0 47.5 15t20.5 52l70 506h196l12 -74q34 43 80 66
t102 23q78 0 117 -46.5z" />
    <glyph glyph-name="circumflex" unicode="&#x2c6;" horiz-adv-x="531" 
d="M374 591l-48 83l-73 -83h-156l176 169h125l130 -169h-154z" />
    <glyph glyph-name="caron" unicode="&#x2c7;" horiz-adv-x="531" 
d="M551 760l-176 -169h-125l-130 169h154l48 -83l73 83h156z" />
    <glyph glyph-name="breve" unicode="&#x2d8;" horiz-adv-x="456" 
d="M160.5 629.5q-40.5 47.5 -40.5 130.5h114q0 -74 55 -74q30 0 48.5 20t24.5 54h114q-14 -82 -67 -130t-132 -48q-76 0 -116.5 47.5z" />
    <glyph glyph-name="dotaccent" unicode="&#x2d9;" horiz-adv-x="314" 
d="M144 627q-31 31 -31 75t31 75t75 31t75 -31t31 -75t-31 -75t-75 -31t-75 31z" />
    <glyph glyph-name="ring" unicode="&#x2da;" horiz-adv-x="356" 
d="M177 594.5q-29 17.5 -46 46.5t-17 63t17 63t46 46t63 17q35 0 64 -17t46 -46t17 -63t-17 -63t-46 -46.5t-64 -17.5q-34 0 -63 17.5zM278.5 664q15.5 16 15.5 40t-15.5 40t-38.5 16t-38 -16t-15 -40t15 -40t38 -16t38.5 16z" />
    <glyph glyph-name="ogonek" unicode="&#x2db;" horiz-adv-x="334" 
d="M140 -18.5q-22 -19.5 -22 -55.5q0 -25 17 -39t46 -14q20 0 44 6l-5 -75q-20 -11 -46.5 -17.5t-53.5 -6.5q-53 0 -87 28.5t-34 79.5q0 64 49 108.5t139 52.5l5 -41q-30 -7 -52 -26.5z" />
    <glyph glyph-name="tilde" unicode="&#x2dc;" horiz-adv-x="564" 
d="M355 605q-22 8 -47 23q-22 12 -36 18t-27 6q-36 0 -75 -39l-62 63q32 52 75 83t96 31q29 0 51.5 -8.5t48.5 -23.5q19 -11 33 -17t30 -6q35 0 73 39l63 -62q-30 -52 -74 -83.5t-98 -31.5q-29 0 -51 8z" />
    <glyph glyph-name="hungarumlaut" unicode="&#x2dd;" horiz-adv-x="620" 
d="M227 586h-131l95 174h206zM470 586h-131l95 174h206z" />
    <glyph glyph-name="gravecomb" unicode="&#x300;" horiz-adv-x="0" 
d="M-99 760l95 -174h-131l-170 174h206z" />
    <glyph glyph-name="acutecomb" unicode="&#x301;" horiz-adv-x="0" 
d="M-150 586h-131l95 174h206z" />
    <glyph glyph-name="uni0302" unicode="&#x302;" horiz-adv-x="0" 
d="M-157 591l-48 83l-73 -83h-156l176 169h125l130 -169h-154z" />
    <glyph glyph-name="tildecomb" unicode="&#x303;" horiz-adv-x="0" 
d="M-209 605q-22 8 -47 23q-22 12 -36 18t-27 6q-36 0 -75 -39l-62 63q32 52 75 83t96 31q29 0 51.5 -8.5t48.5 -23.5q19 -11 33 -17t30 -6q35 0 73 39l63 -62q-30 -52 -74 -83.5t-98 -31.5q-29 0 -51 8z" />
    <glyph glyph-name="uni0304" unicode="&#x304;" horiz-adv-x="0" 
d="M-286 755h306l-16 -113h-306z" />
    <glyph glyph-name="uni0306" unicode="&#x306;" horiz-adv-x="0" 
d="M-295.5 629.5q-40.5 47.5 -40.5 130.5h114q0 -74 55 -74q30 0 48.5 20t24.5 54h114q-14 -82 -67 -130t-132 -48q-76 0 -116.5 47.5z" />
    <glyph glyph-name="uni0307" unicode="&#x307;" horiz-adv-x="0" 
d="M-170 627q-31 31 -31 75t31 75t75 31t75 -31t31 -75t-31 -75t-75 -31t-75 31z" />
    <glyph glyph-name="uni0308" unicode="&#x308;" horiz-adv-x="0" 
d="M-394 625.5q-27 27.5 -27 65.5q0 39 27 66t65 27t65.5 -27t27.5 -66q0 -38 -27.5 -65.5t-65.5 -27.5t-65 27.5zM-146.5 625.5q-27.5 27.5 -27.5 65.5q0 39 27.5 66t65.5 27t64.5 -27t26.5 -66q0 -38 -27 -65.5t-64 -27.5q-38 0 -65.5 27.5z" />
    <glyph glyph-name="uni030A" unicode="&#x30a;" horiz-adv-x="0" 
d="M-179 594.5q-29 17.5 -46 46.5t-17 63t17 63t46 46t63 17q35 0 64 -17t46 -46t17 -63t-17 -63t-46 -46.5t-64 -17.5q-34 0 -63 17.5zM-77.5 664q15.5 16 15.5 40t-15.5 40t-38.5 16t-38 -16t-15 -40t15 -40t38 -16t38.5 16z" />
    <glyph glyph-name="uni030B" unicode="&#x30b;" horiz-adv-x="0" 
d="M-393 586h-131l95 174h206zM-150 586h-131l95 174h206z" />
    <glyph glyph-name="uni030C" unicode="&#x30c;" horiz-adv-x="0" 
d="M20 760l-176 -169h-125l-130 169h154l48 -83l73 83h156z" />
    <glyph glyph-name="uni0326" unicode="&#x326;" horiz-adv-x="0" 
d="M-251 -217h-131l81 156h206z" />
    <glyph glyph-name="uni0327" unicode="&#x327;" horiz-adv-x="0" 
d="M-125 -57q22 -20 22 -55q0 -49 -37 -78.5t-101 -29.5q-57 0 -96 24l35 63q23 -14 47 -14q18 0 29.5 9t11.5 25q0 12 -7 18.5t-20 6.5q-19 0 -36 -14l-29 21l47 110h78l-23 -67q6 1 18 1q39 0 61 -20z" />
    <glyph glyph-name="uni0328" unicode="&#x328;" horiz-adv-x="0" 
d="M-194 -18.5q-22 -19.5 -22 -55.5q0 -25 17 -39t46 -14q20 0 44 6l-5 -75q-20 -11 -46.5 -17.5t-53.5 -6.5q-53 0 -87 28.5t-34 79.5q0 64 49 108.5t139 52.5l5 -41q-30 -7 -52 -26.5z" />
    <glyph glyph-name="tonos" unicode="&#x384;" horiz-adv-x="377" 
d="M96 586l95 174h206l-170 -174h-131z" />
    <glyph glyph-name="dieresistonos" unicode="&#x385;" horiz-adv-x="618" 
d="M329 817h180l-138 -231h-105zM135.5 635.5q-23.5 23.5 -23.5 56.5q0 34 23.5 57t55.5 23q33 0 56.5 -23t23.5 -57q0 -33 -23.5 -56.5t-56.5 -23.5q-32 0 -55.5 23.5zM492.5 634.5q-23.5 23.5 -23.5 56.5q0 34 23.5 57t56.5 23t56 -23t23 -57q0 -33 -23.5 -56.5
t-55.5 -23.5q-33 0 -56.5 23.5z" />
    <glyph glyph-name="Alphatonos" unicode="&#x386;" horiz-adv-x="751" 
d="M464 96h-226l-38 -96h-237l351 760h260l140 -760h-239zM446 254l-33 283l-112 -283h145zM-121 586l95 174h206l-170 -174h-131z" />
    <glyph glyph-name="anoteleia" unicode="&#x387;" horiz-adv-x="319" 
d="M105.5 343.5q-31.5 31.5 -31.5 76.5q0 44 31.5 76t76.5 32t76.5 -32t31.5 -76q0 -45 -31.5 -76.5t-76.5 -31.5t-76.5 31.5z" />
    <glyph glyph-name="Epsilontonos" unicode="&#x388;" horiz-adv-x="575" 
d="M326 576l-13 -95h238l-25 -176h-238l-17 -121h252l-25 -184h-481l106 760h480l-26 -184h-251zM-231 586l95 174h206l-170 -174h-131z" />
    <glyph glyph-name="Etatonos" unicode="&#x389;" horiz-adv-x="757" 
d="M773 760l-106 -760h-229l42 299h-193l-42 -299h-228l106 760h229l-39 -277h193l39 277h228zM-231 586l95 174h206l-170 -174h-131z" />
    <glyph glyph-name="Iotatonos" unicode="&#x38a;" horiz-adv-x="335" 
d="M123 760h229l-107 -760h-228zM-231 586l95 174h206l-170 -174h-131z" />
    <glyph glyph-name="Omicrontonos" unicode="&#x38c;" horiz-adv-x="863" 
d="M220.5 30q-82.5 45 -127 127t-44.5 191q0 125 58 222.5t158 151t221 53.5q109 0 191 -45t126.5 -127t44.5 -191q0 -125 -58 -222.5t-158 -151t-220 -53.5q-109 0 -191.5 45zM514.5 220q43.5 26 69.5 74.5t26 113.5q0 75 -35.5 116.5t-98.5 41.5q-49 0 -92.5 -26
t-70 -74.5t-26.5 -112.5q0 -75 36 -117t99 -42q49 0 92.5 26zM-171 586l95 174h206l-170 -174h-131z" />
    <glyph glyph-name="Upsilontonos" unicode="&#x38e;" horiz-adv-x="699" 
d="M784 760l-485 -760h-241l195 306l-193 454h241l83 -249l159 249h241zM-281 586l95 174h206l-170 -174h-131z" />
    <glyph glyph-name="Omegatonos" unicode="&#x38f;" horiz-adv-x="855" 
d="M805.5 298.5q-39.5 -69.5 -108.5 -114.5h116l-25 -184h-333l31 223q55 27 88.5 74t33.5 117q0 74 -38.5 113.5t-104.5 39.5q-53 0 -94 -25t-64 -69t-23 -99q0 -101 77 -151l-31 -223h-334l25 184h131q-44 29 -72 85.5t-28 124.5q0 103 59 190.5t160 139t222 51.5
q108 0 188 -43t122 -116.5t42 -161.5q0 -86 -39.5 -155.5zM-170 586l95 174h206l-170 -174h-131z" />
    <glyph glyph-name="iotadieresistonos" unicode="&#x390;" horiz-adv-x="371" 
d="M85.5 24.5q-46.5 39.5 -46.5 135.5q0 36 6 82l37 278h218l-40 -289q-2 -14 -2 -20q0 -22 4.5 -33.5t19.5 -17.5t46 -6h15l-10 -161q-42 -8 -92 -8q-109 0 -155.5 39.5zM167 817h180l-138 -231h-105zM-26.5 635.5q-23.5 23.5 -23.5 56.5q0 34 23.5 57t55.5 23
q33 0 56.5 -23t23.5 -57q0 -33 -23.5 -56.5t-56.5 -23.5q-32 0 -55.5 23.5zM330.5 634.5q-23.5 23.5 -23.5 56.5q0 34 23.5 57t56.5 23t56 -23t23 -57q0 -33 -23.5 -56.5t-55.5 -23.5q-33 0 -56.5 23.5z" />
    <glyph glyph-name="Alpha" unicode="&#x391;" horiz-adv-x="751" 
d="M464 96h-226l-38 -96h-237l351 760h260l140 -760h-239zM446 254l-33 283l-112 -283h145z" />
    <glyph glyph-name="Beta" unicode="&#x392;" horiz-adv-x="676" 
d="M652 248q0 -70 -34.5 -126t-105.5 -89t-177 -33h-318l106 760h311q116 0 177 -47t61 -125q0 -58 -29.5 -104t-87.5 -76q97 -48 97 -160zM427 488q23 23 23 54q0 24 -16 37.5t-49 13.5h-65l-18 -128h59q43 0 66 23zM409.5 195q26.5 25 26.5 69q0 30 -20 47.5t-58 17.5h-75
l-22 -159h67q55 0 81.5 25z" />
    <glyph glyph-name="Gamma" unicode="&#x393;" horiz-adv-x="547" 
d="M247 0h-230l106 760h464l-26 -184h-234z" />
    <glyph glyph-name="uni0394" unicode="&#x394;" horiz-adv-x="798" 
d="M761 0h-798l375 760h260zM501 158l-59 412l-175 -412h234z" />
    <glyph glyph-name="Epsilon" unicode="&#x395;" horiz-adv-x="575" 
d="M326 576l-13 -95h238l-25 -176h-238l-17 -121h252l-25 -184h-481l106 760h480l-26 -184h-251z" />
    <glyph glyph-name="Zeta" unicode="&#x396;" horiz-adv-x="686" 
d="M347 184h300l-26 -184h-642l394 576h-268l26 184h610z" />
    <glyph glyph-name="Eta" unicode="&#x397;" horiz-adv-x="757" 
d="M773 760l-106 -760h-229l42 299h-193l-42 -299h-228l106 760h229l-39 -277h193l39 277h228z" />
    <glyph glyph-name="Theta" unicode="&#x398;" horiz-adv-x="863" 
d="M220.5 30q-82.5 45 -127 127t-44.5 191q0 125 58 222.5t158 151t221 53.5q109 0 191 -45t126.5 -127t44.5 -191q0 -125 -58 -222.5t-158 -151t-220 -53.5q-109 0 -191.5 45zM518.5 216q44.5 27 72 77t27.5 117q0 48 -20 84.5t-52 56.5t-69 20q-55 0 -99.5 -26.5t-70 -77
t-25.5 -118.5q0 -74 39.5 -117t102.5 -43q50 0 94.5 27zM376 472h171l-26 -175h-171z" />
    <glyph glyph-name="Iota" unicode="&#x399;" horiz-adv-x="335" 
d="M123 760h229l-107 -760h-228z" />
    <glyph glyph-name="Kappa" unicode="&#x39a;" horiz-adv-x="714" 
d="M492 452l201 -452h-245l-112 282l-61 -66l-30 -216h-228l106 760h229l-33 -231l194 231h261z" />
    <glyph glyph-name="Lambda" unicode="&#x39b;" horiz-adv-x="770" 
d="M495 0l-69 564l-226 -564h-237l360 760h260l150 -760h-238z" />
    <glyph glyph-name="Mu" unicode="&#x39c;" horiz-adv-x="940" 
d="M919 760l-46 -760h-239l30 391l-184 -391h-97l-74 391l-79 -391h-237l166 760h248l76 -394l184 394h252z" />
    <glyph glyph-name="Nu" unicode="&#x39d;" horiz-adv-x="766" 
d="M782 760l-106 -760h-226l-145 444l-62 -444h-226l106 760h226l146 -439l61 439h226z" />
    <glyph glyph-name="Xi" unicode="&#x39e;" horiz-adv-x="703" 
d="M125 760h592l-26 -184h-592zM134 482h498l-24 -176h-498zM29 184h622l-25 -184h-622z" />
    <glyph glyph-name="Omicron" unicode="&#x39f;" horiz-adv-x="863" 
d="M220.5 30q-82.5 45 -127 127t-44.5 191q0 125 58 222.5t158 151t221 53.5q109 0 191 -45t126.5 -127t44.5 -191q0 -125 -58 -222.5t-158 -151t-220 -53.5q-109 0 -191.5 45zM514.5 220q43.5 26 69.5 74.5t26 113.5q0 75 -35.5 116.5t-98.5 41.5q-49 0 -92.5 -26
t-70 -74.5t-26.5 -112.5q0 -75 36 -117t99 -42q49 0 92.5 26z" />
    <glyph glyph-name="Pi" unicode="&#x3a0;" horiz-adv-x="767" 
d="M677 0h-229l81 576h-203l-81 -576h-228l106 760h660z" />
    <glyph glyph-name="Rho" unicode="&#x3a1;" horiz-adv-x="698" 
d="M631.5 696q69.5 -64 69.5 -172q0 -98 -41 -170t-116 -110.5t-175 -38.5h-95l-29 -205h-228l106 760h307q132 0 201.5 -64zM440 416q29 36 29 84q0 38 -23 61.5t-73 23.5h-46l-28 -205h52q60 0 89 36z" />
    <glyph glyph-name="Sigma" unicode="&#x3a3;" horiz-adv-x="660" 
d="M251 404l-176 356h624l-26 -184h-281l96 -170l-155 -222h310l-25 -184h-648z" />
    <glyph glyph-name="Tau" unicode="&#x3a4;" horiz-adv-x="644" 
d="M668 576h-188l-80 -576h-229l80 576h-187l26 184h603z" />
    <glyph glyph-name="Upsilon" unicode="&#x3a5;" horiz-adv-x="699" 
d="M784 760l-485 -760h-241l195 306l-193 454h241l83 -249l159 249h241z" />
    <glyph glyph-name="Phi" unicode="&#x3a6;" horiz-adv-x="977" 
d="M862 185q-105 -90 -284 -108l-11 -77h-228l10 74q-147 16 -224.5 90t-77.5 189q0 100 51 176.5t139.5 123t200.5 59.5l7 48h228l-6 -46q143 -18 221.5 -94t78.5 -191q0 -154 -105 -244zM710 295.5q41 46.5 41 114.5q0 53 -29.5 87t-78.5 45l-43 -303q69 10 110 56.5z
M288.5 280.5q26.5 -29.5 83.5 -42.5l42 303q-48 -5 -82.5 -31t-52 -64.5t-17.5 -79.5q0 -56 26.5 -85.5z" />
    <glyph glyph-name="Chi" unicode="&#x3a7;" horiz-adv-x="740" 
d="M506 394l197 -394h-238l-94 218l-154 -218h-254l316 401l-182 359h238l77 -198l131 198h255z" />
    <glyph glyph-name="Psi" unicode="&#x3a8;" horiz-adv-x="959" 
d="M988 760l-23 -176q-23 -172 -120 -269.5t-258 -103.5l-29 -211h-228l29 211q-84 4 -146.5 43.5t-96 109t-33.5 160.5q0 29 5 69l22 167h229l-29 -207q-3 -21 -3 -39q0 -102 79 -110l50 356h228l-50 -355q53 4 79 39t36 102l30 214h229z" />
    <glyph glyph-name="uni03A9" unicode="&#x3a9;" horiz-adv-x="855" 
d="M805.5 298.5q-39.5 -69.5 -108.5 -114.5h116l-25 -184h-333l31 223q55 27 88.5 74t33.5 117q0 74 -38.5 113.5t-104.5 39.5q-53 0 -94 -25t-64 -69t-23 -99q0 -101 77 -151l-31 -223h-334l25 184h131q-44 29 -72 85.5t-28 124.5q0 103 59 190.5t160 139t222 51.5
q108 0 188 -43t122 -116.5t42 -161.5q0 -86 -39.5 -155.5z" />
    <glyph glyph-name="Iotadieresis" unicode="&#x3aa;" horiz-adv-x="335" 
d="M123 760h229l-107 -760h-228zM63 866.5q-27 27.5 -27 65.5q0 39 27 66t65 27t65.5 -27t27.5 -66q0 -38 -27.5 -65.5t-65.5 -27.5t-65 27.5zM310.5 866.5q-27.5 27.5 -27.5 65.5q0 39 27.5 66t65.5 27t64.5 -27t26.5 -66q0 -38 -27 -65.5t-64 -27.5q-38 0 -65.5 27.5z" />
    <glyph glyph-name="Upsilondieresis" unicode="&#x3ab;" horiz-adv-x="699" 
d="M784 760l-485 -760h-241l195 306l-193 454h241l83 -249l159 249h241zM251 866.5q-27 27.5 -27 65.5q0 39 27 66t65 27t65.5 -27t27.5 -66q0 -38 -27.5 -65.5t-65.5 -27.5t-65 27.5zM498.5 866.5q-27.5 27.5 -27.5 65.5q0 39 27.5 66t65.5 27t64.5 -27t26.5 -66
q0 -38 -27 -65.5t-64 -27.5q-38 0 -65.5 27.5z" />
    <glyph glyph-name="alphatonos" unicode="&#x3ac;" horiz-adv-x="728" 
d="M130 12q-44 27 -69.5 79t-25.5 122q0 106 36.5 179t96.5 108t130 35q61 0 100 -30t57 -76l12 91h216l-45 -326q-1 -3 -1 -8q0 -32 38 -32h15l-10 -162q-36 -7 -77 -7q-79 0 -116.5 22.5t-51.5 73.5q-4 15 -5 26q-71 -122 -202 -122q-54 0 -98 27zM408 192q30 36 30 88
q0 37 -19.5 60t-54.5 23q-44 0 -74.5 -36t-30.5 -88q0 -38 20 -60.5t55 -22.5q44 0 74 36zM312 586l95 174h206l-170 -174h-131z" />
    <glyph glyph-name="epsilontonos" unicode="&#x3ad;" horiz-adv-x="619" 
d="M75 23q-58 38 -58 101q0 47 33.5 84.5t100.5 56.5v3q-98 22 -98 94q0 42 32.5 82t96.5 65.5t154 25.5q104 0 170 -37.5t78 -118.5l-212 -45q-2 15 -17.5 23.5t-35.5 8.5t-36 -8.5t-16 -22.5q0 -25 49 -25h34l-13 -95h-44q-28 0 -40.5 -10t-12.5 -22q0 -14 15 -21t38 -7
q35 0 60 14.5t31 34.5l205 -13q-26 -103 -118 -154.5t-222 -51.5q-116 0 -174 38zM257 586l95 174h206l-170 -174h-131z" />
    <glyph glyph-name="etatonos" unicode="&#x3ae;" horiz-adv-x="668" 
d="M594.5 488.5q39.5 -46.5 39.5 -122.5q0 -26 -6 -68l-71 -503h-220l68 473q4 28 4 52q0 29 -12.5 41.5t-37.5 12.5q-34 0 -56 -26t-30 -78h-1l-37 -270h-220l72 520h197l11 -75q34 43 81 66.5t102 23.5q77 0 116.5 -46.5zM302 586l95 174h206l-170 -174h-131z" />
    <glyph glyph-name="iotatonos" unicode="&#x3af;" horiz-adv-x="371" 
d="M85.5 24.5q-46.5 39.5 -46.5 135.5q0 36 6 82l37 278h218l-40 -289q-2 -14 -2 -20q0 -22 4.5 -33.5t19.5 -17.5t46 -6h15l-10 -161q-42 -8 -92 -8q-109 0 -155.5 39.5zM111 586l95 174h206l-170 -174h-131z" />
    <glyph glyph-name="upsilondieresistonos" unicode="&#x3b0;" horiz-adv-x="657" 
d="M41 195q0 28 4 55l37 270h220l-39 -284q-2 -16 -2 -24q0 -58 54 -58q35 0 52 25t22 59l39 282h220l-40 -286q-17 -123 -100 -186t-206 -63q-261 0 -261 210zM343 817h180l-138 -231h-105zM149.5 635.5q-23.5 23.5 -23.5 56.5q0 34 23.5 57t55.5 23q33 0 56.5 -23
t23.5 -57q0 -33 -23.5 -56.5t-56.5 -23.5q-32 0 -55.5 23.5zM506.5 634.5q-23.5 23.5 -23.5 56.5q0 34 23.5 57t56.5 23t56 -23t23 -57q0 -33 -23.5 -56.5t-55.5 -23.5q-33 0 -56.5 23.5z" />
    <glyph glyph-name="alpha" unicode="&#x3b1;" horiz-adv-x="728" 
d="M130 12q-44 27 -69.5 79t-25.5 122q0 106 36.5 179t96.5 108t130 35q61 0 100 -30t57 -76l12 91h216l-45 -326q-1 -3 -1 -8q0 -32 38 -32h15l-10 -162q-36 -7 -77 -7q-79 0 -116.5 22.5t-51.5 73.5q-4 15 -5 26q-71 -122 -202 -122q-54 0 -98 27zM408 192q30 36 30 88
q0 37 -19.5 60t-54.5 23q-44 0 -74.5 -36t-30.5 -88q0 -38 20 -60.5t55 -22.5q44 0 74 36z" />
    <glyph glyph-name="beta" unicode="&#x3b2;" horiz-adv-x="693" 
d="M622.5 370.5q36.5 -56.5 36.5 -124.5q0 -71 -36.5 -131t-97 -95t-127.5 -35q-109 0 -151 92l-40 -282h-222l97 692q19 140 104.5 214t223.5 74q75 0 127.5 -21.5t79 -58.5t26.5 -84q0 -51 -31.5 -97.5t-107.5 -65.5q82 -21 118.5 -77.5zM415.5 192q26.5 35 26.5 82
q0 43 -25 66t-75 23h-13l19 136h9q34 0 49.5 22t15.5 42q0 17 -12.5 30t-35.5 13q-58 0 -69 -73l-39 -280q-1 -7 -1 -15q0 -39 19.5 -60t55.5 -21q49 0 75.5 35z" />
    <glyph glyph-name="gamma" unicode="&#x3b3;" horiz-adv-x="635" 
d="M672 520l-276 -494l-34 -231h-220l34 229l-139 496h233l41 -316l128 316h233z" />
    <glyph glyph-name="delta" unicode="&#x3b4;" horiz-adv-x="680" 
d="M154.5 15q-59.5 30 -90.5 83t-31 120q0 74 37.5 142t120.5 103q46 19 100 26l-154 150l17 121h516l-22 -160h-205l119 -120q44 -44 63.5 -88.5t19.5 -95.5q0 -98 -43.5 -168.5t-122 -106.5t-181.5 -36q-84 0 -143.5 30zM397.5 190.5q30.5 34.5 30.5 90.5q0 35 -17 59
t-57 24q-43 0 -73.5 -37t-30.5 -93q0 -38 21 -58t53 -20q43 0 73.5 34.5z" />
    <glyph glyph-name="epsilon" unicode="&#x3b5;" horiz-adv-x="619" 
d="M75 23q-58 38 -58 101q0 47 33.5 84.5t100.5 56.5v3q-98 22 -98 94q0 42 32.5 82t96.5 65.5t154 25.5q104 0 170 -37.5t78 -118.5l-212 -45q-2 15 -17.5 23.5t-35.5 8.5t-36 -8.5t-16 -22.5q0 -25 49 -25h34l-13 -95h-44q-28 0 -40.5 -10t-12.5 -22q0 -14 15 -21t38 -7
q35 0 60 14.5t31 34.5l205 -13q-26 -103 -118 -154.5t-222 -51.5q-116 0 -174 38z" />
    <glyph glyph-name="zeta" unicode="&#x3b6;" horiz-adv-x="528" 
d="M181 -127q25 33 41.5 60t16.5 38q0 7 -7 13.5t-24 15.5l-34 18q-83 43 -117.5 81t-34.5 88q0 96 91.5 203.5t224.5 209.5h-228l33 160h475l-17 -123q-73 -56 -155.5 -135t-139 -152t-56.5 -112q0 -21 16 -34.5t58 -36.5l51 -27q48 -25 69.5 -44t21.5 -48
q0 -40 -47 -112.5t-101 -125.5z" />
    <glyph glyph-name="eta" unicode="&#x3b7;" horiz-adv-x="668" 
d="M594.5 488.5q39.5 -46.5 39.5 -122.5q0 -26 -6 -68l-71 -503h-220l68 473q4 28 4 52q0 29 -12.5 41.5t-37.5 12.5q-34 0 -56 -26t-30 -78h-1l-37 -270h-220l72 520h197l11 -75q34 43 81 66.5t102 23.5q77 0 116.5 -46.5z" />
    <glyph glyph-name="theta" unicode="&#x3b8;" horiz-adv-x="693" 
d="M678 455q0 -129 -40.5 -235.5t-123.5 -170.5t-205 -64q-137 0 -198.5 82.5t-61.5 235.5q0 129 40.5 236t124 171.5t204.5 64.5q260 0 260 -320zM325 568.5q-29 -38.5 -44 -104.5h182v1q0 76 -14.5 109t-50.5 33q-44 0 -73 -38.5zM403.5 194q29.5 41 43.5 110h-183v-5
q0 -79 15 -112.5t51 -33.5q44 0 73.5 41z" />
    <glyph glyph-name="iota" unicode="&#x3b9;" horiz-adv-x="371" 
d="M85.5 24.5q-46.5 39.5 -46.5 135.5q0 36 6 82l37 278h218l-40 -289q-2 -14 -2 -20q0 -22 4.5 -33.5t19.5 -17.5t46 -6h15l-10 -161q-42 -8 -92 -8q-109 0 -155.5 39.5z" />
    <glyph glyph-name="kappa" unicode="&#x3ba;" horiz-adv-x="623" 
d="M428 321l173 -321h-217l-97 195l-33 -29l-23 -166h-216l72 520h216l-17 -120l115 120h250z" />
    <glyph glyph-name="lambda" unicode="&#x3bb;" horiz-adv-x="630" 
d="M612 145l-7 -135q-59 -25 -112 -25q-46 0 -73.5 10t-43 36t-24.5 76l-35 204l-135 -311h-229l298 509l-10 47q-7 32 -20 41t-49 9h-18l9 160q68 9 112 9q59 0 95 -18t59 -59.5t39 -117.5l86 -397q5 -24 14.5 -31t30.5 -7h13z" />
    <glyph glyph-name="uni03BC" unicode="&#x3bc;" horiz-adv-x="668" 
d="M653 520l-72 -520h-196l-11 74q-54 -71 -141 -86l-27 -193h-220l61 433l40 292h220l-38 -277q-4 -28 -4 -43q0 -55 48 -55q62 0 81 88l39 287h220z" />
    <glyph glyph-name="nu" unicode="&#x3bd;" horiz-adv-x="625" 
d="M672 520l-282 -520h-225l-138 520h228l48 -337l133 337h236z" />
    <glyph glyph-name="xi" unicode="&#x3be;" horiz-adv-x="575" 
d="M250 -127q57 69 57 98q0 20 -35 36l-84 38q-79 36 -120.5 76t-41.5 98q0 75 54.5 127.5t147.5 70.5q-76 10 -110.5 48t-34.5 89q0 65 41 115.5t105.5 78t133.5 27.5q246 0 246 -200l-201 -22q-1 27 -14 39t-32 12q-27 0 -42.5 -17.5t-15.5 -50.5q0 -59 77 -59h95
l-20 -147h-125q-38 0 -59 -16.5t-21 -43.5q0 -22 19.5 -37t65.5 -37l124 -59q40 -20 57 -40.5t17 -46.5q0 -45 -49.5 -119t-97.5 -121z" />
    <glyph glyph-name="omicron" unicode="&#x3bf;" horiz-adv-x="687" 
d="M168.5 15q-63.5 30 -98.5 84t-35 125q0 98 42 168t119 106.5t179 36.5q81 0 144 -30t98 -84.5t35 -125.5q0 -98 -42 -168t-118.5 -106t-178.5 -36q-81 0 -144.5 30zM402.5 190q29.5 35 29.5 88q0 41 -19.5 63.5t-53.5 22.5q-44 0 -74 -35.5t-30 -87.5q0 -41 19.5 -63.5
t53.5 -22.5q45 0 74.5 35z" />
    <glyph glyph-name="pi" unicode="&#x3c0;" horiz-adv-x="669" 
d="M411 353h-127l-49 -353h-220l72 520h567l-72 -520h-220z" />
    <glyph glyph-name="rho" unicode="&#x3c1;" horiz-adv-x="697" 
d="M532.5 27.5q61.5 42.5 96 114.5t34.5 159q0 67 -30.5 120t-91 83.5t-147.5 30.5t-160.5 -33.5t-124 -103t-64.5 -174.5l-60 -429h220l38 282q20 -49 63.5 -70.5t86.5 -21.5q78 0 139.5 42.5zM419.5 340.5q19.5 -22.5 19.5 -59.5q0 -54 -30.5 -90t-72.5 -36
q-35 0 -55 22.5t-20 61.5q0 40 15.5 68t40 42t49.5 14q34 0 53.5 -22.5z" />
    <glyph glyph-name="uni03C2" unicode="&#x3c2;" horiz-adv-x="625" 
d="M224 -127q61 75 61 95q0 12 -7.5 20t-26.5 16l-61 28q-57 26 -89 51.5t-48 63t-16 96.5q0 82 41.5 149t116.5 105t170 38q120 0 189 -54t69 -162l-209 -19q-5 63 -69 63q-38 0 -63 -27t-25 -64q0 -48 62 -78l120 -60q41 -20 56 -39t15 -44q0 -47 -49.5 -120.5
t-99.5 -120.5z" />
    <glyph glyph-name="sigma" unicode="&#x3c3;" horiz-adv-x="673" 
d="M153.5 16q-59.5 31 -90 83t-30.5 116q0 83 40.5 152.5t119 111t186.5 41.5h320l-23 -166h-126q32 -14 48.5 -49t16.5 -72q0 -66 -38.5 -122.5t-111 -91t-170.5 -34.5q-82 0 -141.5 31zM390.5 188.5q27.5 33.5 27.5 86.5q0 36 -19.5 58t-52.5 22q-42 0 -71.5 -34
t-29.5 -86q0 -36 20 -58t53 -22q45 0 72.5 33.5z" />
    <glyph glyph-name="tau" unicode="&#x3c4;" horiz-adv-x="534" 
d="M173.5 26.5q-44.5 41.5 -44.5 131.5q0 31 4 60l17 136h-132l34 166h498l-23 -166h-159l-17 -124q-2 -12 -2 -20q0 -32 12.5 -44t49.5 -12q27 0 58 6l-11 -162q-73 -13 -139 -13q-101 0 -145.5 41.5z" />
    <glyph glyph-name="upsilon" unicode="&#x3c5;" horiz-adv-x="657" 
d="M41 195q0 28 4 55l37 270h220l-39 -284q-2 -16 -2 -24q0 -58 54 -58q35 0 52 25t22 59l39 282h220l-40 -286q-17 -123 -100 -186t-206 -63q-261 0 -261 210z" />
    <glyph glyph-name="phi" unicode="&#x3c6;" horiz-adv-x="893" 
d="M297 -12q-94 8 -152.5 44.5t-84.5 88.5t-26 109t26 113t80 99t134 60l46 -126q-73 -49 -73 -134q0 -39 18 -67.5t52 -39.5l55 385h140q185 0 265.5 -62.5t80.5 -168.5q0 -86 -46 -152t-123.5 -104t-169.5 -45l-27 -193h-222zM588.5 162q25.5 16 43.5 44.5t18 66.5
q0 41 -20.5 68.5t-56.5 33.5l-33 -232q23 3 48.5 19z" />
    <glyph glyph-name="chi" unicode="&#x3c7;" horiz-adv-x="593" 
d="M335 -194q-33 26 -43 73l-36 165l-109 -249h-232l252 377l-53 143q-9 24 -15.5 35.5t-18 17t-33.5 5.5h-9l10 152q80 10 127 10q56 0 87.5 -21t42.5 -70l25 -117l91 193h229l-229 -341l64 -188q8 -23 19 -30t35 -7h8l-5 -151q-25 -9 -65 -16t-65 -7q-44 0 -77 26z" />
    <glyph glyph-name="psi" unicode="&#x3c8;" horiz-adv-x="886" 
d="M296 -13q-109 4 -177 70.5t-68 196.5q0 28 5 70l26 196h215l-39 -279q-1 -7 -1 -20q0 -34 16.5 -53t44.5 -19l52 371h220l-52 -371q42 3 61.5 31.5t24.5 65.5l38 274h215l-33 -236q-12 -85 -55 -152t-112.5 -106t-160.5 -40l-27 -191h-220z" />
    <glyph glyph-name="omega" unicode="&#x3c9;" horiz-adv-x="885" 
d="M30 195q0 81 30.5 157t105.5 128.5t200 54.5l5 -155q-58 -6 -88.5 -55.5t-30.5 -108.5q0 -64 39 -64q15 0 31 16t21 56l14 101h186l-14 -102q-2 -16 -2 -22q0 -24 8.5 -35.5t22.5 -11.5q27 0 48.5 31.5t21.5 88.5q0 42 -20.5 72t-62.5 34l47 155q139 -2 198.5 -69
t59.5 -185q0 -74 -31.5 -142t-94.5 -111t-153 -43q-35 0 -69.5 15t-58.5 49t-26 89q-33 -77 -85.5 -115t-116.5 -38q-185 0 -185 210z" />
    <glyph glyph-name="iotadieresis" unicode="&#x3ca;" horiz-adv-x="371" 
d="M85.5 24.5q-46.5 39.5 -46.5 135.5q0 36 6 82l37 278h218l-40 -289q-2 -14 -2 -20q0 -22 4.5 -33.5t19.5 -17.5t46 -6h15l-10 -161q-42 -8 -92 -8q-109 0 -155.5 39.5zM21 626.5q-27 27.5 -27 65.5q0 39 27 66t65 27t65.5 -27t27.5 -66q0 -38 -27.5 -65.5t-65.5 -27.5
t-65 27.5zM268.5 626.5q-27.5 27.5 -27.5 65.5q0 39 27.5 66t65.5 27t64.5 -27t26.5 -66q0 -38 -27 -65.5t-64 -27.5q-38 0 -65.5 27.5z" />
    <glyph glyph-name="upsilondieresis" unicode="&#x3cb;" horiz-adv-x="657" 
d="M41 195q0 28 4 55l37 270h220l-39 -284q-2 -16 -2 -24q0 -58 54 -58q35 0 52 25t22 59l39 282h220l-40 -286q-17 -123 -100 -186t-206 -63q-261 0 -261 210zM197 626.5q-27 27.5 -27 65.5q0 39 27 66t65 27t65.5 -27t27.5 -66q0 -38 -27.5 -65.5t-65.5 -27.5t-65 27.5z
M444.5 626.5q-27.5 27.5 -27.5 65.5q0 39 27.5 66t65.5 27t64.5 -27t26.5 -66q0 -38 -27 -65.5t-64 -27.5q-38 0 -65.5 27.5z" />
    <glyph glyph-name="omicrontonos" unicode="&#x3cc;" horiz-adv-x="687" 
d="M168.5 15q-63.5 30 -98.5 84t-35 125q0 98 42 168t119 106.5t179 36.5q81 0 144 -30t98 -84.5t35 -125.5q0 -98 -42 -168t-118.5 -106t-178.5 -36q-81 0 -144.5 30zM402.5 190q29.5 35 29.5 88q0 41 -19.5 63.5t-53.5 22.5q-44 0 -74 -35.5t-30 -87.5q0 -41 19.5 -63.5
t53.5 -22.5q45 0 74.5 35zM292 586l95 174h206l-170 -174h-131z" />
    <glyph glyph-name="upsilontonos" unicode="&#x3cd;" horiz-adv-x="657" 
d="M41 195q0 28 4 55l37 270h220l-39 -284q-2 -16 -2 -24q0 -58 54 -58q35 0 52 25t22 59l39 282h220l-40 -286q-17 -123 -100 -186t-206 -63q-261 0 -261 210zM287 586l95 174h206l-170 -174h-131z" />
    <glyph glyph-name="omegatonos" unicode="&#x3ce;" horiz-adv-x="885" 
d="M30 195q0 81 30.5 157t105.5 128.5t200 54.5l5 -155q-58 -6 -88.5 -55.5t-30.5 -108.5q0 -64 39 -64q15 0 31 16t21 56l14 101h186l-14 -102q-2 -16 -2 -22q0 -24 8.5 -35.5t22.5 -11.5q27 0 48.5 31.5t21.5 88.5q0 42 -20.5 72t-62.5 34l47 155q139 -2 198.5 -69
t59.5 -185q0 -74 -31.5 -142t-94.5 -111t-153 -43q-35 0 -69.5 15t-58.5 49t-26 89q-33 -77 -85.5 -115t-116.5 -38q-185 0 -185 210zM401 586l95 174h206l-170 -174h-131z" />
    <glyph glyph-name="uni0400" unicode="&#x400;" horiz-adv-x="575" 
d="M326 576l-13 -95h238l-25 -176h-238l-17 -121h252l-25 -184h-481l106 760h480l-26 -184h-251zM346 1001l95 -174h-131l-170 174h206z" />
    <glyph glyph-name="uni0401" unicode="&#x401;" horiz-adv-x="575" 
d="M326 576l-13 -95h238l-25 -176h-238l-17 -121h252l-25 -184h-481l106 760h480l-26 -184h-251zM196 866.5q-27 27.5 -27 65.5q0 39 27 66t65 27t65.5 -27t27.5 -66q0 -38 -27.5 -65.5t-65.5 -27.5t-65 27.5zM443.5 866.5q-27.5 27.5 -27.5 65.5q0 39 27.5 66t65.5 27
t64.5 -27t26.5 -66q0 -38 -27 -65.5t-64 -27.5q-38 0 -65.5 27.5z" />
    <glyph glyph-name="uni0402" unicode="&#x402;" horiz-adv-x="855" 
d="M706.5 431.5q57.5 -28.5 86.5 -74.5t29 -99q0 -81 -39.5 -143t-111.5 -96t-165 -34v158q30 2 49.5 17t28.5 34t9 35q0 23 -20.5 35t-52.5 12h-106l-38 -276h-228l80 576h-163l25 184h631l-25 -184h-240l-16 -116h126q83 0 140.5 -28.5z" />
    <glyph glyph-name="uni0403" unicode="&#x403;" horiz-adv-x="538" 
d="M562 576h-237l-80 -576h-228l106 760h464zM421 827h-131l95 174h206z" />
    <glyph glyph-name="uni0404" unicode="&#x404;" horiz-adv-x="845" 
d="M219.5 29.5q-82.5 44.5 -127.5 123t-45 175.5q0 128 60 230t164 159.5t231 57.5q95 0 170 -43t118.5 -115t49.5 -155l-217 -5q-18 117 -142 117q-64 0 -113.5 -35.5t-76.5 -93.5h264l-18 -130h-269q4 -63 40 -96t99 -33q67 0 116.5 33.5t76.5 93.5l217 -29
q-50 -141 -157.5 -220t-249.5 -79q-108 0 -190.5 44.5z" />
    <glyph glyph-name="uni0405" unicode="&#x405;" horiz-adv-x="723" 
d="M163.5 16.5q-68.5 31.5 -102 86t-33.5 125.5l234 16q0 -52 28 -72.5t67 -20.5t64 17.5t25 46.5q0 22 -14.5 33t-47.5 22l-83 27q-112 36 -164 86t-52 139q0 84 43 141t117 84.5t167 27.5q108 0 176.5 -35t98.5 -87.5t30 -105.5l-239 -17q-1 41 -21.5 60.5t-55.5 19.5
q-33 0 -53 -15.5t-20 -42.5q0 -18 14.5 -32t56.5 -27l86 -27q70 -22 113.5 -47.5t66.5 -64t23 -96.5q0 -86 -46.5 -147.5t-127 -93.5t-181.5 -32t-169.5 31.5z" />
    <glyph glyph-name="uni0406" unicode="&#x406;" horiz-adv-x="335" 
d="M123 760h229l-107 -760h-228z" />
    <glyph glyph-name="uni0407" unicode="&#x407;" horiz-adv-x="335" 
d="M123 760h229l-107 -760h-228zM63 866.5q-27 27.5 -27 65.5q0 39 27 66t65 27t65.5 -27t27.5 -66q0 -38 -27.5 -65.5t-65.5 -27.5t-65 27.5zM310.5 866.5q-27.5 27.5 -27.5 65.5q0 39 27.5 66t65.5 27t64.5 -27t26.5 -66q0 -38 -27 -65.5t-64 -27.5q-38 0 -65.5 27.5z" />
    <glyph glyph-name="uni0408" unicode="&#x408;" horiz-adv-x="706" 
d="M170.5 18.5q-65.5 33.5 -102 98t-36.5 154.5l229 15q0 -91 71 -91q43 0 68 27t33 83l64 455h229l-63 -453q-23 -169 -109.5 -245.5t-232.5 -76.5q-85 0 -150.5 33.5z" />
    <glyph glyph-name="uni0409" unicode="&#x409;" horiz-adv-x="1160" 
d="M1011 515.5q59 -30.5 90.5 -84t31.5 -121.5q0 -99 -41 -168.5t-116 -105.5t-175 -36h-322l76 548l-335 -548h-252l520 760h325l-30 -214h87q82 0 141 -30.5zM843.5 193q29.5 18 45 46.5t15.5 58.5q0 32 -21.5 52.5t-70.5 20.5h-53l-28 -196h42q41 0 70.5 18z" />
    <glyph glyph-name="uni040A" unicode="&#x40a;" horiz-adv-x="1092" 
d="M943 515.5q59 -30.5 90.5 -84t31.5 -121.5q0 -99 -41 -168.5t-116 -105.5t-175 -36h-322l43 308h-166l-43 -308h-228l106 760h228l-37 -268h166l37 268h228l-30 -214h87q82 0 141 -30.5zM775.5 193q29.5 18 45 46.5t15.5 58.5q0 32 -21.5 52.5t-70.5 20.5h-53l-28 -196
h42q41 0 70.5 18z" />
    <glyph glyph-name="uni040B" unicode="&#x40b;" horiz-adv-x="866" 
d="M695.5 434q59.5 -26 94 -77.5t34.5 -124.5q0 -23 -3 -49l-25 -183h-229l24 174q3 21 3 37q0 36 -19 50.5t-67 14.5h-93l-38 -276h-229l80 576h-163l25 184h631l-25 -184h-239l-16 -116h120q75 0 134.5 -26z" />
    <glyph glyph-name="uni040C" unicode="&#x40c;" horiz-adv-x="714" 
d="M492 452l201 -452h-245l-112 282l-61 -66l-30 -216h-228l106 760h229l-33 -231l194 231h261zM497 827h-131l95 174h206z" />
    <glyph glyph-name="uni040D" unicode="&#x40d;" horiz-adv-x="767" 
d="M783 760l-106 -760h-228l58 418l-260 -418l-2 1v-1h-228l106 760h228l-58 -417l259 417l2 -1v1h229zM435 1001l95 -174h-131l-170 174h206z" />
    <glyph glyph-name="uni040E" unicode="&#x40e;" horiz-adv-x="700" 
d="M785 760l-456 -760h-249l154 257l-174 503h235l71 -283l170 283h249zM326.5 884.5q-40.5 47.5 -40.5 130.5h114q0 -74 55 -74q30 0 48.5 20t24.5 54h114q-14 -82 -67 -130t-132 -48q-76 0 -116.5 47.5z" />
    <glyph glyph-name="uni040F" unicode="&#x40f;" horiz-adv-x="752" 
d="M768 760l-106 -760h-224l-32 -160h-180l13 160h-222l106 760h228l-80 -576h189l80 576h228z" />
    <glyph glyph-name="uni0410" unicode="&#x410;" horiz-adv-x="751" 
d="M464 96h-226l-38 -96h-237l351 760h260l140 -760h-239zM446 254l-33 283l-112 -283h145z" />
    <glyph glyph-name="uni0411" unicode="&#x411;" horiz-adv-x="690" 
d="M534 469.5q61 -28.5 93.5 -77.5t32.5 -109q0 -87 -43 -151t-118 -98t-169 -34h-313l106 760h542l-25 -180h-314l-12 -82h78q81 0 142 -28.5zM398.5 211.5q32.5 27.5 32.5 71.5q0 53 -86 53h-53l-21 -152h42q53 0 85.5 27.5z" />
    <glyph glyph-name="uni0412" unicode="&#x412;" horiz-adv-x="676" 
d="M652 248q0 -70 -34.5 -126t-105.5 -89t-177 -33h-318l106 760h311q116 0 177 -47t61 -125q0 -58 -29.5 -104t-87.5 -76q97 -48 97 -160zM427 488q23 23 23 54q0 24 -16 37.5t-49 13.5h-65l-18 -128h59q43 0 66 23zM409.5 195q26.5 25 26.5 69q0 30 -20 47.5t-58 17.5h-75
l-22 -159h67q55 0 81.5 25z" />
    <glyph glyph-name="uni0413" unicode="&#x413;" horiz-adv-x="538" 
d="M562 576h-237l-80 -576h-228l106 760h464z" />
    <glyph glyph-name="uni0414" unicode="&#x414;" horiz-adv-x="784" 
d="M768 184l-45 -324h-182l11 140h-391l-30 -140h-182l45 324h69l268 576h260l105 -576h72zM478 184l-40 346l-138 -346h178z" />
    <glyph glyph-name="uni0415" unicode="&#x415;" horiz-adv-x="575" 
d="M326 576l-13 -95h238l-25 -176h-238l-17 -121h252l-25 -184h-481l106 760h480l-26 -184h-251z" />
    <glyph glyph-name="uni0416" unicode="&#x416;" horiz-adv-x="1113" 
d="M862 442l209 -442h-233l-114 300l-59 -61l-33 -239h-220l36 257l-42 61l-185 -318h-253l325 483l-190 277h243l136 -257l36 257h220l-36 -256l191 256h278z" />
    <glyph glyph-name="uni0417" unicode="&#x417;" horiz-adv-x="655" 
d="M629 237q0 -120 -85.5 -186t-237.5 -66q-91 0 -157.5 27.5t-101 74t-34.5 101.5q0 22 2 34l218 3q-1 -5 -1 -15q0 -27 19 -40t53 -13q46 0 73.5 27.5t27.5 67.5q0 33 -25.5 49t-84.5 16h-105l21 159h94q54 0 87 22t33 56q0 26 -16.5 38.5t-44.5 12.5q-36 0 -59 -18
t-31 -50l-212 17q21 108 108.5 164.5t224.5 56.5q89 0 147 -26t84.5 -68t26.5 -92q0 -126 -124 -186q100 -48 100 -166z" />
    <glyph glyph-name="uni0418" unicode="&#x418;" horiz-adv-x="767" 
d="M783 760l-106 -760h-228l58 418l-260 -418l-2 1v-1h-228l106 760h228l-58 -417l259 417l2 -1v1h229z" />
    <glyph glyph-name="uni0419" unicode="&#x419;" horiz-adv-x="767" 
d="M783 760l-106 -760h-228l58 418l-260 -418l-2 1v-1h-228l106 760h228l-58 -417l259 417l2 -1v1h229zM351.5 884.5q-40.5 47.5 -40.5 130.5h114q0 -74 55 -74q30 0 48.5 20t24.5 54h114q-14 -82 -67 -130t-132 -48q-76 0 -116.5 47.5z" />
    <glyph glyph-name="uni041A" unicode="&#x41a;" horiz-adv-x="714" 
d="M492 452l201 -452h-245l-112 282l-61 -66l-30 -216h-228l106 760h229l-33 -231l194 231h261z" />
    <glyph glyph-name="uni041B" unicode="&#x41b;" horiz-adv-x="751" 
d="M484 0l-62 530l-211 -530h-248l352 760h260l139 -760h-230z" />
    <glyph glyph-name="uni041C" unicode="&#x41c;" horiz-adv-x="926" 
d="M903 760l-44 -760h-214l35 443l-208 -443h-94l-84 446l-89 -446h-212l169 760h224l85 -428l204 428h228z" />
    <glyph glyph-name="uni041D" unicode="&#x41d;" horiz-adv-x="757" 
d="M773 760l-106 -760h-229l42 299h-193l-42 -299h-228l106 760h229l-39 -277h193l39 277h228z" />
    <glyph glyph-name="uni041E" unicode="&#x41e;" horiz-adv-x="863" 
d="M220.5 30q-82.5 45 -127 127t-44.5 191q0 125 58 222.5t158 151t221 53.5q109 0 191 -45t126.5 -127t44.5 -191q0 -125 -58 -222.5t-158 -151t-220 -53.5q-109 0 -191.5 45zM514.5 220q43.5 26 69.5 74.5t26 113.5q0 75 -35.5 116.5t-98.5 41.5q-49 0 -92.5 -26
t-70 -74.5t-26.5 -112.5q0 -75 36 -117t99 -42q49 0 92.5 26z" />
    <glyph glyph-name="uni041F" unicode="&#x41f;" horiz-adv-x="752" 
d="M662 0h-228l80 576h-189l-80 -576h-228l106 760h645z" />
    <glyph glyph-name="uni0420" unicode="&#x420;" horiz-adv-x="698" 
d="M631.5 696q69.5 -64 69.5 -172q0 -98 -41 -170t-116 -110.5t-175 -38.5h-95l-29 -205h-228l106 760h307q132 0 201.5 -64zM440 416q29 36 29 84q0 38 -23 61.5t-73 23.5h-46l-28 -205h52q60 0 89 36z" />
    <glyph glyph-name="uni0421" unicode="&#x421;" horiz-adv-x="842" 
d="M221.5 30q-82.5 45 -127.5 127t-45 191q0 118 53 215.5t151.5 154.5t227.5 57q109 0 188.5 -40.5t124 -110.5t51.5 -159l-239 -17q-6 58 -39.5 89.5t-91.5 31.5q-55 0 -98 -29t-66.5 -78t-23.5 -108q0 -75 37 -117t99 -42q55 0 100.5 33t65.5 86l233 -18
q-25 -90 -81.5 -160.5t-140.5 -110.5t-187 -40q-109 0 -191.5 45z" />
    <glyph glyph-name="uni0422" unicode="&#x422;" horiz-adv-x="644" 
d="M668 576h-188l-80 -576h-229l80 576h-187l26 184h603z" />
    <glyph glyph-name="uni0423" unicode="&#x423;" horiz-adv-x="700" 
d="M785 760l-456 -760h-249l154 257l-174 503h235l71 -283l170 283h249z" />
    <glyph glyph-name="uni0424" unicode="&#x424;" horiz-adv-x="980" 
d="M912.5 239.5q-50.5 -73.5 -139 -112.5t-201.5 -43l-14 -99h-215l14 100q-90 5 -159.5 37t-108.5 89t-39 133q0 103 50.5 176.5t139 112.5t201.5 43l14 99h215l-14 -100q90 -5 159.5 -37t108.5 -89t39 -133q0 -103 -50.5 -176.5zM703 311.5q38 38.5 38 101.5
q0 39 -27 59.5t-84 23.5l-32 -230q67 7 105 45.5zM299 287.5q27 -20.5 84 -23.5l32 230q-67 -7 -105 -45.5t-38 -101.5q0 -39 27 -59.5z" />
    <glyph glyph-name="uni0425" unicode="&#x425;" horiz-adv-x="740" 
d="M506 394l197 -394h-238l-94 218l-154 -218h-254l316 401l-182 359h238l77 -198l131 198h255z" />
    <glyph glyph-name="uni0426" unicode="&#x426;" horiz-adv-x="802" 
d="M791 184l-45 -324h-185l9 140h-553l106 760h228l-80 -576h183l80 576h228l-80 -576h109z" />
    <glyph glyph-name="uni0427" unicode="&#x427;" horiz-adv-x="707" 
d="M723 760l-106 -760h-229l34 246h-85q-71 0 -131.5 25.5t-96.5 76.5t-36 124q0 16 4 50l33 238h229l-32 -228q-3 -21 -3 -37q0 -36 19 -50.5t67 -14.5h58l46 330h229z" />
    <glyph glyph-name="uni0428" unicode="&#x428;" horiz-adv-x="1083" 
d="M1099 760l-106 -760h-976l106 760h228l-80 -576h150l80 576h219l-80 -576h150l80 576h229z" />
    <glyph glyph-name="uni0429" unicode="&#x429;" horiz-adv-x="1139" 
d="M1128 184l-45 -324h-185l9 140h-890l106 760h228l-80 -576h150l80 576h219l-80 -576h151l80 576h228l-80 -576h109z" />
    <glyph glyph-name="uni042A" unicode="&#x42a;" horiz-adv-x="815" 
d="M666 515.5q59 -30.5 90.5 -84t31.5 -121.5q0 -99 -41 -168.5t-116 -105.5t-175 -36h-322l80 576h-149l25 184h378l-30 -214h87q82 0 141 -30.5zM498.5 193q29.5 18 45 46.5t15.5 58.5q0 32 -21.5 52.5t-70.5 20.5h-53l-28 -196h42q41 0 70.5 18z" />
    <glyph glyph-name="uni042B" unicode="&#x42b;" horiz-adv-x="1030" 
d="M549 515.5q59 -30.5 90.5 -84t31.5 -121.5q0 -99 -41 -168.5t-116 -105.5t-175 -36h-322l106 760h228l-30 -214h87q82 0 141 -30.5zM1046 760l-106 -760h-228l106 760h228zM381.5 193q29.5 18 45 46.5t15.5 58.5q0 32 -21.5 52.5t-70.5 20.5h-53l-28 -196h42
q41 0 70.5 18z" />
    <glyph glyph-name="uni042C" unicode="&#x42c;" horiz-adv-x="698" 
d="M549 515.5q59 -30.5 90.5 -84t31.5 -121.5q0 -99 -41 -168.5t-116 -105.5t-175 -36h-322l106 760h228l-30 -214h87q82 0 141 -30.5zM381.5 193q29.5 18 45 46.5t15.5 58.5q0 32 -21.5 52.5t-70.5 20.5h-53l-28 -196h42q41 0 70.5 18z" />
    <glyph glyph-name="uni042D" unicode="&#x42d;" horiz-adv-x="845" 
d="M659.5 730.5q82.5 -44.5 127.5 -123t45 -175.5q0 -128 -60 -230t-164 -159.5t-231 -57.5q-95 0 -170 43t-118.5 115t-49.5 155l217 5q18 -117 142 -117q64 0 113.5 35.5t76.5 93.5h-264l18 130h269q-4 63 -40 96t-99 33q-67 0 -116.5 -33.5t-76.5 -93.5l-217 29
q50 141 157.5 220t249.5 79q108 0 190.5 -44.5z" />
    <glyph glyph-name="uni042E" unicode="&#x42e;" horiz-adv-x="1153" 
d="M977.5 730q77.5 -45 120 -122.5t42.5 -171.5q0 -125 -54 -228t-153 -163t-227 -60q-97 0 -172.5 41.5t-119 113t-49.5 159.5h-78l-42 -299h-228l106 760h228l-39 -277h77q28 86 86 152t141 103t182 37q102 0 179.5 -45zM813.5 228q43.5 33 68 87t24.5 114
q0 65 -33.5 100.5t-84.5 35.5q-54 0 -97.5 -33t-68 -87t-24.5 -114q0 -65 33.5 -100.5t84.5 -35.5q54 0 97.5 33z" />
    <glyph glyph-name="uni042F" unicode="&#x42f;" horiz-adv-x="704" 
d="M614 0h-228l29 205h-49l-122 -205h-244l158 251q-45 31 -69.5 79t-24.5 108q0 100 42 172.5t121 111t188 38.5h305zM439 380l29 205h-42q-58 0 -95 -38t-37 -93q0 -33 22 -53.5t70 -20.5h53z" />
    <glyph glyph-name="uni0430" unicode="&#x430;" 
d="M689 520l-72 -520h-204l-4 82q-70 -97 -178 -97q-55 0 -99.5 27t-70.5 80.5t-26 131.5q0 85 31.5 156t89 113t132.5 42q64 0 107.5 -30.5t61.5 -76.5l13 92h219zM410 191q30 36 30 87q0 40 -19.5 63t-54.5 23q-44 0 -74 -35t-30 -87q0 -41 19.5 -64t53.5 -23q45 0 75 36z
" />
    <glyph glyph-name="uni0431" unicode="&#x431;" horiz-adv-x="688" 
d="M549 476.5q51 -26.5 77.5 -74t26.5 -107.5q0 -94 -42 -164t-118.5 -108t-175.5 -38q-127 0 -198.5 72.5t-71.5 206.5q0 45 7 93q23 164 82.5 249.5t136.5 114t184 32.5l204 8l-40 -179l-149 -3q-71 -2 -115 -14.5t-73 -43t-48 -87.5q40 36 90 52.5t101 16.5
q71 0 122 -26.5zM380 174q26 19 41 50.5t15 66.5q0 33 -17.5 52.5t-48.5 19.5q-48 0 -81.5 -38t-33.5 -96q0 -35 17.5 -54.5t49.5 -19.5t58 19z" />
    <glyph glyph-name="uni0432" unicode="&#x432;" horiz-adv-x="593" 
d="M534.5 229q18.5 -27 18.5 -61q0 -168 -234 -168h-307l73 520h306q87 0 131 -33.5t44 -87.5q0 -37 -20 -72.5t-62 -52.5q32 -18 50.5 -45zM355 316.5q17 10.5 17 33.5q0 35 -32 35h-67l-11 -79h48q28 0 45 10.5zM345.5 156q15.5 13 15.5 36q0 18 -9.5 26.5t-29.5 8.5h-71
l-12 -84h59q32 0 47.5 13z" />
    <glyph glyph-name="uni0433" unicode="&#x433;" horiz-adv-x="449" 
d="M447 354h-165l-50 -354h-220l73 520h386z" />
    <glyph glyph-name="uni0434" unicode="&#x434;" horiz-adv-x="645" 
d="M627 166l-42 -296h-165l9 130h-284l-28 -130h-167l42 296h66l178 354h239l81 -354h71zM371 166l-28 221l-89 -221h117z" />
    <glyph glyph-name="uni0435" unicode="&#x435;" horiz-adv-x="682" 
d="M636 209h-385q1 -37 21.5 -60.5t52.5 -23.5q53 0 79 42l216 -15q-44 -85 -122.5 -126t-192.5 -41q-84 0 -145.5 33t-93 87.5t-31.5 118.5q0 97 42.5 167t118.5 107t175 37q86 0 149 -30t96 -82t33 -118q0 -50 -13 -96zM262 305h175q-2 42 -20.5 65.5t-53.5 23.5
q-77 0 -101 -89z" />
    <glyph glyph-name="uni0436" unicode="&#x436;" horiz-adv-x="890" 
d="M690 309l163 -309h-207l-76 200l-45 -42l-22 -158h-195l24 171l-33 42l-114 -213h-222l237 339l-142 181h209l92 -156l22 156h195l-22 -156l131 156h236z" />
    <glyph glyph-name="uni0437" unicode="&#x437;" horiz-adv-x="570" 
d="M529 155q0 -74 -66 -122t-206 -48q-95 0 -152.5 26t-81 64t-23.5 78v3l211 2v-8q0 -14 12 -20.5t31 -6.5q34 0 49.5 15.5t15.5 38.5q0 39 -59 39h-91l14 100h59q43 0 66.5 15t23.5 38q0 32 -41 32q-24 0 -38.5 -14.5t-19.5 -34.5l-198 21q14 68 79 115t191 47
q237 0 237 -132q0 -44 -23.5 -77.5t-61.5 -46.5q72 -40 72 -124z" />
    <glyph glyph-name="uni0438" unicode="&#x438;" horiz-adv-x="656" 
d="M644 520l-73 -520h-210l37 264l-176 -264h-210l73 520h210l-37 -261l176 261h210z" />
    <glyph glyph-name="uni0439" unicode="&#x439;" horiz-adv-x="656" 
d="M644 520l-73 -520h-210l37 264l-176 -264h-210l73 520h210l-37 -261l176 261h210zM261.5 644.5q-40.5 47.5 -40.5 130.5h114q0 -74 55 -74q30 0 48.5 20t24.5 54h114q-14 -82 -67 -130t-132 -48q-76 0 -116.5 47.5z" />
    <glyph glyph-name="uni043A" unicode="&#x43a;" horiz-adv-x="624" 
d="M415 299l172 -299h-215l-87 180l-41 -39l-20 -141h-212l73 520h212l-20 -145l131 145h246z" />
    <glyph glyph-name="uni043B" unicode="&#x43b;" horiz-adv-x="622" 
d="M366 0l-39 349l-137 -349h-222l254 520h240l118 -520h-214z" />
    <glyph glyph-name="uni043C" unicode="&#x43c;" horiz-adv-x="750" 
d="M716 520l-28 -520h-188l22 261l-129 -261h-106l-53 267l-53 -267h-193l118 520h210l60 -276l130 276h210z" />
    <glyph glyph-name="uni043D" unicode="&#x43d;" horiz-adv-x="647" 
d="M635 520l-73 -520h-220l25 181h-110l-25 -181h-220l73 520h220l-24 -173h110l24 173h220z" />
    <glyph glyph-name="uni043E" unicode="&#x43e;" horiz-adv-x="687" 
d="M168.5 15q-63.5 30 -98.5 84t-35 125q0 98 42 168t119 106.5t179 36.5q81 0 144 -30t98 -84.5t35 -125.5q0 -98 -42 -168t-118.5 -106t-178.5 -36q-81 0 -144.5 30zM402.5 190q29.5 35 29.5 88q0 41 -19.5 63.5t-53.5 22.5q-44 0 -74 -35.5t-30 -87.5q0 -41 19.5 -63.5
t53.5 -22.5q45 0 74.5 35z" />
    <glyph glyph-name="uni043F" unicode="&#x43f;" horiz-adv-x="642" 
d="M557 0h-220l50 354h-105l-50 -354h-220l73 520h545z" />
    <glyph glyph-name="uni0440" unicode="&#x440;" 
d="M615.5 477q52.5 -58 52.5 -163q0 -91 -34.5 -166t-96.5 -119t-141 -44q-57 0 -95 25t-57 70l-40 -285h-220l101 725h205l3 -90q32 49 79.5 77t106.5 28q84 0 136.5 -58zM410.5 190.5q29.5 35.5 29.5 89.5q0 39 -20 61.5t-54 22.5q-44 0 -74 -35.5t-30 -89.5
q0 -38 20.5 -61t55.5 -23q43 0 72.5 35.5z" />
    <glyph glyph-name="uni0441" unicode="&#x441;" horiz-adv-x="660" 
d="M163.5 16.5q-61.5 31.5 -95 86t-33.5 120.5q0 99 43 169.5t118.5 106.5t173.5 36q121 0 189.5 -58t74.5 -157l-212 -14q-4 29 -22 43.5t-45 14.5q-43 0 -71.5 -33t-28.5 -88q0 -41 19 -64.5t55 -23.5q26 0 48 15.5t34 46.5l207 -16q-25 -98 -103.5 -157t-207.5 -59
q-82 0 -143.5 31.5z" />
    <glyph glyph-name="uni0442" unicode="&#x442;" horiz-adv-x="524" 
d="M522 354h-136l-50 -354h-220l50 354h-138l24 166h494z" />
    <glyph glyph-name="uni0443" unicode="&#x443;" horiz-adv-x="660" 
d="M648 520l-68 -488q-36 -252 -317 -252q-120 0 -188 44t-79 124l224 17q2 -24 15.5 -36t40.5 -12q38 0 56 24.5t26 79.5l10 71q-33 -41 -78 -63.5t-100 -22.5q-75 0 -114.5 41.5t-39.5 112.5q0 26 5 59l41 301h220l-35 -256q-4 -28 -4 -43q0 -29 11.5 -41.5t36.5 -12.5
q68 0 82 104l35 249h220z" />
    <glyph glyph-name="uni0444" unicode="&#x444;" horiz-adv-x="872" 
d="M793 125.5q-43 -68.5 -120 -104t-177 -36.5l-27 -190h-197l27 190q-85 2 -144.5 34.5t-89.5 86.5t-30 122q0 95 43 163.5t120 104.5t177 37l32 227h197l-32 -227q85 -2 144.5 -34.5t89.5 -86.5t30 -122q0 -96 -43 -164.5zM602 196.5q32 42.5 32 95.5q0 37 -21.5 57.5
t-62.5 21.5l-32 -223q52 6 84 48.5zM258.5 168.5q21.5 -20.5 62.5 -21.5l31 223q-51 -6 -83 -48.5t-32 -95.5q0 -37 21.5 -57.5z" />
    <glyph glyph-name="uni0445" unicode="&#x445;" horiz-adv-x="606" 
d="M419 266l160 -266h-227l-63 140l-108 -140h-228l239 267l-151 253h227l54 -125l95 125h228z" />
    <glyph glyph-name="uni0446" unicode="&#x446;" horiz-adv-x="685" 
d="M667 166l-42 -296h-166l8 130h-455l73 520h220l-50 -354h106l50 354h220l-50 -354h86z" />
    <glyph glyph-name="uni0447" unicode="&#x447;" horiz-adv-x="621" 
d="M609 520l-73 -520h-220l20 145h-66q-59 0 -109 20.5t-80 59.5t-30 92q0 21 2 32l24 171h212l-23 -158q-1 -7 -1 -18q0 -20 11.5 -28.5t43.5 -8.5h39l30 213h220z" />
    <glyph glyph-name="uni0448" unicode="&#x448;" horiz-adv-x="936" 
d="M924 520l-73 -520h-839l73 520h216l-50 -354h98l50 354h211l-50 -354h98l50 354h216z" />
    <glyph glyph-name="uni0449" unicode="&#x449;" horiz-adv-x="978" 
d="M960 166l-42 -296h-166l8 130h-748l73 520h216l-50 -354h98l50 354h211l-50 -354h98l50 354h216l-50 -354h86z" />
    <glyph glyph-name="uni044A" unicode="&#x44a;" horiz-adv-x="692" 
d="M558.5 374.5q49.5 -22.5 75.5 -61t26 -86.5q0 -109 -77 -168t-210 -59h-279l51 360h-116l23 160h332l-17 -123h73q69 0 118.5 -22.5zM428 160.5q23 20.5 23 52.5q0 25 -16.5 34.5t-46.5 9.5h-41l-16 -117h31q43 0 66 20.5z" />
    <glyph glyph-name="uni044B" unicode="&#x44b;" horiz-adv-x="900" 
d="M476.5 374.5q49.5 -22.5 75.5 -61t26 -86.5q0 -109 -77 -168t-210 -59h-279l73 520h217l-17 -123h73q69 0 118.5 -22.5zM888 520l-73 -520h-220l73 520h220zM346 160.5q23 20.5 23 52.5q0 25 -16.5 34.5t-46.5 9.5h-41l-16 -117h31q43 0 66 20.5z" />
    <glyph glyph-name="uni044C" unicode="&#x44c;" horiz-adv-x="610" 
d="M476.5 374.5q49.5 -22.5 75.5 -61t26 -86.5q0 -109 -77 -168t-210 -59h-279l73 520h217l-17 -123h73q69 0 118.5 -22.5zM346 160.5q23 20.5 23 52.5q0 25 -16.5 34.5t-46.5 9.5h-41l-16 -117h31q43 0 66 20.5z" />
    <glyph glyph-name="uni044D" unicode="&#x44d;" horiz-adv-x="680" 
d="M516.5 504q62.5 -31 95.5 -86t33 -124q0 -94 -40 -164t-116 -107.5t-181 -37.5q-128 0 -198 62t-80 161l181 3q6 -40 29 -60.5t67 -20.5q45 0 77.5 21t51.5 58h-162l14 104h168q-6 77 -92 77q-50 0 -84.5 -25t-52.5 -66l-181 29q71 207 321 207q87 0 149.5 -31z" />
    <glyph glyph-name="uni044E" unicode="&#x44e;" horiz-adv-x="908" 
d="M757.5 502q57.5 -33 86.5 -87.5t29 -117.5q0 -91 -38.5 -162t-110.5 -110.5t-171 -39.5q-105 0 -168.5 53.5t-78.5 136.5h-49l-25 -175h-220l73 520h220l-24 -168h44q33 85 108.5 134t183.5 49q83 0 140.5 -33zM619 174q26 19 41 50.5t15 66.5q0 34 -17.5 54t-48.5 20
q-32 0 -58 -19t-41 -50.5t-15 -66.5q0 -34 17.5 -54t48.5 -20q32 0 58 19z" />
    <glyph glyph-name="uni044F" unicode="&#x44f;" horiz-adv-x="600" 
d="M515 0h-207l15 109h-54l-63 -109h-213l102 160q-28 24 -42.5 56t-14.5 67q0 116 75.5 176.5t211.5 60.5h263zM345 262l15 105h-29q-85 0 -85 -63q0 -23 13.5 -32.5t40.5 -9.5h45z" />
    <glyph glyph-name="uni0450" unicode="&#x450;" horiz-adv-x="682" 
d="M636 209h-385q1 -37 21.5 -60.5t52.5 -23.5q53 0 79 42l216 -15q-44 -85 -122.5 -126t-192.5 -41q-84 0 -145.5 33t-93 87.5t-31.5 118.5q0 97 42.5 167t118.5 107t175 37q86 0 149 -30t96 -82t33 -118q0 -50 -13 -96zM262 305h175q-2 42 -20.5 65.5t-53.5 23.5
q-77 0 -101 -89zM360 761l95 -174h-131l-170 174h206z" />
    <glyph glyph-name="uni0451" unicode="&#x451;" horiz-adv-x="682" 
d="M636 209h-385q1 -37 21.5 -60.5t52.5 -23.5q53 0 79 42l216 -15q-44 -85 -122.5 -126t-192.5 -41q-84 0 -145.5 33t-93 87.5t-31.5 118.5q0 97 42.5 167t118.5 107t175 37q86 0 149 -30t96 -82t33 -118q0 -50 -13 -96zM262 305h175q-2 42 -20.5 65.5t-53.5 23.5
q-77 0 -101 -89zM210 626.5q-27 27.5 -27 65.5q0 39 27 66t65 27t65.5 -27t27.5 -66q0 -38 -27.5 -65.5t-65.5 -27.5t-65 27.5zM457.5 626.5q-27.5 27.5 -27.5 65.5q0 39 27.5 66t65.5 27t64.5 -27t26.5 -66q0 -38 -27 -65.5t-64 -27.5q-38 0 -65.5 27.5z" />
    <glyph glyph-name="uni0452" unicode="&#x452;" horiz-adv-x="721" 
d="M649 488.5q39 -46.5 39 -122.5q0 -34 -5 -68l-44 -310q-16 -109 -72.5 -158.5t-163.5 -49.5q-42 0 -96 9l25 158h10q72 0 84 84l33 237q5 35 5 52q0 29 -13 41.5t-37 12.5q-65 0 -84 -89l-40 -285h-220l84 600h-86l15 110h86l7 50h220l-7 -50h150l-15 -110h-150l-21 -150
q33 41 79 63t100 22q78 0 117 -46.5z" />
    <glyph glyph-name="uni0453" unicode="&#x453;" horiz-adv-x="449" 
d="M447 354h-165l-50 -354h-220l73 520h386zM337 587h-131l95 174h206z" />
    <glyph glyph-name="uni0454" unicode="&#x454;" horiz-adv-x="680" 
d="M163.5 16q-62.5 31 -95.5 86t-33 124q0 94 40 164t116 107.5t181 37.5q128 0 198 -62t80 -161l-181 -3q-6 40 -29 60.5t-67 20.5q-45 0 -77.5 -21t-51.5 -58h162l-14 -104h-168q6 -77 92 -77q50 0 84.5 25t52.5 66l181 -29q-71 -207 -321 -207q-87 0 -149.5 31z" />
    <glyph glyph-name="uni0455" unicode="&#x455;" horiz-adv-x="592" 
d="M73 26.5q-68 41.5 -74 118.5l228 15q0 -29 14 -42.5t37 -13.5q24 0 39.5 10t15.5 32q0 18 -17.5 27.5t-69.5 24.5l-43 13q-81 24 -121.5 55.5t-40.5 90.5q0 178 283 178q112 0 177.5 -36t73.5 -107l-215 -14q0 19 -13 30t-35 11t-35.5 -9t-13.5 -25q0 -11 14.5 -18
t51.5 -17l52 -14q62 -17 98 -32.5t58 -44t22 -75.5q0 -97 -75 -148t-222 -51q-121 0 -189 41.5z" />
    <glyph glyph-name="uni0456" unicode="&#x456;" horiz-adv-x="326" 
d="M143 618q-34 34 -34 82t34 81.5t81 33.5q48 0 82 -33.5t34 -81.5t-34 -82t-82 -34q-47 0 -81 34zM89 520h220l-72 -520h-220z" />
    <glyph glyph-name="uni0457" unicode="&#x457;" horiz-adv-x="327" 
d="M90 520h220l-72 -520h-220zM32 626.5q-27 27.5 -27 65.5q0 39 27 66t65 27t65.5 -27t27.5 -66q0 -38 -27.5 -65.5t-65.5 -27.5t-65 27.5zM279.5 626.5q-27.5 27.5 -27.5 65.5q0 39 27.5 66t65.5 27t64.5 -27t26.5 -66q0 -38 -27 -65.5t-64 -27.5q-38 0 -65.5 27.5z" />
    <glyph glyph-name="uni0458" unicode="&#x458;" horiz-adv-x="342" 
d="M159 618q-34 34 -34 82t34 81.5t82 33.5t81.5 -33.5t33.5 -81.5t-33.5 -82t-81.5 -34t-82 34zM-62 -215q-36 5 -63 13l35 156q31 -7 56 -7q37 0 52 18t21 63l69 492h217l-73 -524q-16 -114 -75 -165t-170 -51q-33 0 -69 5z" />
    <glyph glyph-name="uni0459" unicode="&#x459;" horiz-adv-x="970" 
d="M836.5 374.5q49.5 -22.5 75.5 -61t26 -86.5q0 -109 -77 -168t-210 -59h-279l55 391h-3l-223 -391h-233l345 520h349l-17 -123h73q69 0 118.5 -22.5zM706 160.5q23 20.5 23 52.5q0 25 -16.5 34.5t-46.5 9.5h-41l-16 -117h31q43 0 66 20.5z" />
    <glyph glyph-name="uni045A" unicode="&#x45a;" horiz-adv-x="942" 
d="M808.5 374.5q49.5 -22.5 75.5 -61t26 -86.5q0 -109 -77 -168t-210 -59h-279l27 190h-112l-27 -190h-220l73 520h220l-23 -165h112l23 165h217l-17 -123h73q69 0 118.5 -22.5zM678 160.5q23 20.5 23 52.5q0 25 -16.5 34.5t-46.5 9.5h-41l-16 -117h31q43 0 66 20.5z" />
    <glyph glyph-name="uni045B" unicode="&#x45b;" horiz-adv-x="721" 
d="M649 488.5q39 -46.5 39 -122.5q0 -34 -5 -68l-42 -298h-220l38 268q5 35 5 52q0 29 -13 41.5t-37 12.5q-65 0 -84 -89l-40 -285h-220l84 600h-86l15 110h86l7 50h220l-7 -50h150l-15 -110h-150l-21 -150q33 41 79 63t100 22q78 0 117 -46.5z" />
    <glyph glyph-name="uni045C" unicode="&#x45c;" horiz-adv-x="624" 
d="M415 299l172 -299h-215l-87 180l-41 -39l-20 -141h-212l73 520h212l-20 -145l131 145h246zM418 587h-131l95 174h206z" />
    <glyph glyph-name="uni045D" unicode="&#x45d;" horiz-adv-x="656" 
d="M644 520l-73 -520h-210l37 264l-176 -264h-210l73 520h210l-37 -261l176 261h210zM345 761l95 -174h-131l-170 174h206z" />
    <glyph glyph-name="uni045E" unicode="&#x45e;" horiz-adv-x="660" 
d="M648 520l-68 -488q-36 -252 -317 -252q-120 0 -188 44t-79 124l224 17q2 -24 15.5 -36t40.5 -12q38 0 56 24.5t26 79.5l10 71q-33 -41 -78 -63.5t-100 -22.5q-75 0 -114.5 41.5t-39.5 112.5q0 26 5 59l41 301h220l-35 -256q-4 -28 -4 -43q0 -29 11.5 -41.5t36.5 -12.5
q68 0 82 104l35 249h220zM262.5 644.5q-40.5 47.5 -40.5 130.5h114q0 -74 55 -74q30 0 48.5 20t24.5 54h114q-14 -82 -67 -130t-132 -48q-76 0 -116.5 47.5z" />
    <glyph glyph-name="uni045F" unicode="&#x45f;" horiz-adv-x="642" 
d="M557 0h-180l-30 -149h-167l12 149h-180l73 520h220l-50 -354h105l50 354h220z" />
    <glyph glyph-name="uni0462" unicode="&#x462;" horiz-adv-x="787" 
d="M628 455.5q61 -28.5 94 -78t33 -110.5q0 -83 -43 -143.5t-117.5 -92t-167.5 -31.5h-322l78 560h-121l20 140h121l8 60h228l-8 -60h184l-20 -140h-184l-10 -76h86q80 0 141 -28.5zM492 191.5q33 26.5 33 75.5q0 25 -21.5 38.5t-71.5 13.5h-55l-21 -154h44q59 0 92 26.5z
" />
    <glyph glyph-name="uni0463" unicode="&#x463;" horiz-adv-x="650" 
d="M560.5 351.5q57.5 -45.5 57.5 -121.5q0 -111 -76.5 -170.5t-210.5 -59.5h-268l67 480h-84l16 110h83l24 170h217l-24 -170h156l-16 -110h-155l-12 -83h63q105 0 162.5 -45.5zM385.5 160q23.5 20 23.5 54q0 23 -17 33t-51 10h-25l-16 -117h18q44 0 67.5 20z" />
    <glyph glyph-name="uni0472" unicode="&#x472;" horiz-adv-x="858" 
d="M678.5 728q80.5 -47 123.5 -125.5t43 -170.5q0 -123 -56 -225.5t-157 -162t-232 -59.5q-106 0 -186.5 47t-123.5 125.5t-43 170.5q0 123 56 225.5t157 162t232 59.5q106 0 186.5 -47zM366.5 539q-50.5 -35 -77.5 -94h337q-5 61 -42 95t-101 34q-66 0 -116.5 -35z
M525.5 221q50.5 35 77.5 94h-337q5 -61 42 -95t101 -34q66 0 116.5 35z" />
    <glyph glyph-name="uni0473" unicode="&#x473;" horiz-adv-x="684" 
d="M523 502q63 -33 94.5 -87.5t31.5 -118.5q0 -91 -40 -161.5t-116 -110t-180 -39.5q-89 0 -152 33t-94.5 87.5t-31.5 118.5q0 91 40 161.5t116 110t180 39.5q89 0 152 -33zM293.5 369.5q-32.5 -21.5 -50.5 -59.5h217q-4 81 -90 81q-44 0 -76.5 -21.5zM391.5 151.5
q32.5 22.5 50.5 60.5h-218q3 -83 90 -83q45 0 77.5 22.5z" />
    <glyph glyph-name="uni0474" unicode="&#x474;" horiz-adv-x="770" 
d="M840 760l-35 -161h-14q-31 0 -52 -15t-37 -50l-247 -534h-244l-136 760h229l56 -524l140 342q34 84 70 121.5t88.5 49t156.5 11.5h25z" />
    <glyph glyph-name="uni0475" unicode="&#x475;" horiz-adv-x="635" 
d="M672 520l-32 -149h-15q-28 0 -45.5 -15t-32.5 -43l-164 -313h-224l-127 520h223l34 -341l57 146q36 91 73 132t88 52t150 11h15z" />
    <glyph glyph-name="uni048A" unicode="&#x48a;" horiz-adv-x="846" 
d="M304.5 885.5q-40.5 47.5 -40.5 130.5h114q0 -74 55 -74q30 0 48.5 20t24.5 54h114q-14 -82 -67 -130t-132 -48q-76 0 -116.5 47.5zM671 -140h-175l47 140h-95l11 71l48 347l-260 -418l-2 1v-1h-228l106 760h228l-58 -417l259 417l2 -1v1h229l-80 -576h132z" />
    <glyph glyph-name="uni048B" unicode="&#x48b;" horiz-adv-x="707" 
d="M255.5 644.5q-40.5 47.5 -40.5 130.5h114q0 -74 55 -74q30 0 48.5 20t24.5 54h114q-14 -82 -67 -130t-132 -48q-76 0 -116.5 47.5zM540 -130h-163l48 130h-64l37 264l-176 -264h-210l73 520h210l-37 -261l176 261h210l-50 -354h95z" />
    <glyph glyph-name="uni048C" unicode="&#x48c;" horiz-adv-x="787" 
d="M628 455.5q61 -28.5 94 -78t33 -110.5q0 -83 -43 -143.5t-117.5 -92t-167.5 -31.5h-322l78 560h-121l20 140h121l8 60h228l-8 -60h184l-20 -140h-184l-10 -76h86q80 0 141 -28.5zM492 191.5q33 26.5 33 75.5q0 25 -21.5 38.5t-71.5 13.5h-55l-21 -154h44q59 0 92 26.5z
" />
    <glyph glyph-name="uni048D" unicode="&#x48d;" horiz-adv-x="650" 
d="M560.5 351.5q57.5 -45.5 57.5 -121.5q0 -111 -76.5 -170.5t-210.5 -59.5h-268l67 480h-84l16 110h83l24 170h217l-24 -170h156l-16 -110h-155l-12 -83h63q105 0 162.5 -45.5zM385.5 160q23.5 20 23.5 54q0 23 -17 33t-51 10h-25l-16 -117h18q44 0 67.5 20z" />
    <glyph glyph-name="uni048E" unicode="&#x48e;" horiz-adv-x="750" 
d="M704 334q-48 -74 -136 -105l28 -63l-105 -59l-44 99q-9 -1 -28 -1h-145l-29 -205h-228l106 760h364q81 0 141 -31t92 -85t32 -121q0 -115 -48 -189zM488 412q21 19 32 45.5t11 54.5q0 73 -92 73h-112l-29 -205h73l-33 74l106 58z" />
    <glyph glyph-name="uni048F" unicode="&#x48f;" horiz-adv-x="710" 
d="M632 120.5q-44 -81.5 -123 -114.5l30 -68l-82 -46l-41 93h-11q-114 0 -161 102l-41 -292h-220l102 725h204l3 -86q27 45 74.5 73t101.5 28q59 0 106.5 -30t74.5 -82t27 -115q0 -106 -44 -187.5zM429 187q18 22 27.5 50.5t9.5 57.5q0 39 -20.5 62t-57.5 23
q-38 0 -68.5 -22.5t-47.5 -58t-17 -73.5q0 -39 21.5 -63t58.5 -24q8 0 12 1l-38 85l82 48z" />
    <glyph glyph-name="uni0490" unicode="&#x490;" horiz-adv-x="538" 
d="M607 899l-45 -323h-237l-80 -576h-228l106 760h272l28 139h184z" />
    <glyph glyph-name="uni0491" unicode="&#x491;" horiz-adv-x="467" 
d="M502 615l-37 -261h-183l-50 -354h-220l73 520h247l19 95h151z" />
    <glyph glyph-name="uni0492" unicode="&#x492;" horiz-adv-x="626" 
d="M413 576l-21 -156h184l-20 -140h-184l-39 -280h-228l39 280h-121l20 140h121l47 340h464l-25 -184h-237z" />
    <glyph glyph-name="uni0493" unicode="&#x493;" horiz-adv-x="498" 
d="M331 354l-12 -86h115l-15 -110h-116l-22 -158h-220l22 158h-77l15 110h78l35 252h386l-24 -166h-165z" />
    <glyph glyph-name="uni0494" unicode="&#x494;" horiz-adv-x="741" 
d="M558 426q68 -34 103 -94.5t35 -139.5q0 -114 -45 -201.5t-132 -142t-209 -68.5v194q71 14 111 71t40 131q0 100 -129 100h-49l-38 -276h-228l106 760h514l-25 -184h-287l-16 -116h87q94 0 162 -34z" />
    <glyph glyph-name="uni0495" unicode="&#x495;" horiz-adv-x="627" 
d="M506 237q68 -53 68 -148q0 -94 -39 -162.5t-113 -106.5t-177 -40l1 165q31 2 58 19t42.5 43.5t15.5 54.5q0 55 -75 55h-39l-16 -117h-220l73 520h416l-21 -148h-196l-11 -82h56q109 0 177 -53z" />
    <glyph glyph-name="uni0496" unicode="&#x496;" horiz-adv-x="1143" 
d="M862 442l209 -442h-233l-114 300l-59 -61l-33 -239h-220l36 257l-42 61l-185 -318h-253l325 483l-190 277h243l136 -257l36 257h220l-36 -256l191 256h278zM1087 -140h-185l11 140h-56l25 184h250z" />
    <glyph glyph-name="uni0497" unicode="&#x497;" horiz-adv-x="916" 
d="M690 309l163 -309h-207l-76 200l-45 -42l-22 -158h-195l24 171l-33 42l-114 -213h-222l237 339l-142 181h209l92 -156l22 156h195l-22 -156l131 156h236zM861 -130h-167l10 130h-49l23 166h225z" />
    <glyph glyph-name="uni0498" unicode="&#x498;" horiz-adv-x="655" 
d="M629 237q0 -101 -61 -164t-173 -81l-30 -152h-179l12 157q-88 20 -136.5 72.5t-48.5 118.5q0 22 2 34l218 3q-1 -5 -1 -15q0 -27 19 -40t53 -13q46 0 73.5 27.5t27.5 67.5q0 33 -25.5 49t-84.5 16h-105l21 159h94q54 0 87 22t33 56q0 26 -16.5 38.5t-44.5 12.5
q-36 0 -59 -18t-31 -50l-212 17q21 108 108.5 164.5t224.5 56.5q89 0 147 -26t84.5 -68t26.5 -92q0 -126 -124 -186q100 -48 100 -166z" />
    <glyph glyph-name="uni0499" unicode="&#x499;" horiz-adv-x="570" 
d="M529 155q0 -63 -46.5 -107.5t-145.5 -57.5l-28 -140h-164l12 145q-83 18 -120 62.5t-37 95.5v3l211 2v-8q0 -14 12 -20.5t31 -6.5q34 0 49.5 15.5t15.5 38.5q0 39 -59 39h-91l14 100h59q43 0 66.5 15t23.5 38q0 32 -41 32q-24 0 -38.5 -14.5t-19.5 -34.5l-198 21
q14 68 79 115t191 47q237 0 237 -132q0 -44 -23.5 -77.5t-61.5 -46.5q72 -40 72 -124z" />
    <glyph glyph-name="uni049A" unicode="&#x49a;" horiz-adv-x="735" 
d="M492 452l201 -452h-245l-112 282l-61 -66l-30 -216h-228l106 760h229l-33 -231l194 231h261zM679 -140h-185l11 140h-56l25 184h250z" />
    <glyph glyph-name="uni049B" unicode="&#x49b;" horiz-adv-x="643" 
d="M415 299l172 -299h-215l-87 180l-41 -39l-20 -141h-212l73 520h212l-20 -145l131 145h246zM588 -130h-167l10 130h-49l23 166h225z" />
    <glyph glyph-name="uni049C" unicode="&#x49c;" horiz-adv-x="849" 
d="M581 476l226 -476h-231l-127 363l-5 -5l-27 -188h-120l13 91l-42 -36l-31 -225h-220l106 760h220l-41 -295l43 41l27 194h120l-11 -78l134 138h296z" />
    <glyph glyph-name="uni049D" unicode="&#x49d;" horiz-adv-x="729" 
d="M508 327l184 -327h-215l-100 222l-3 -2l-18 -130h-89l11 81l-40 -32l-19 -139h-207l73 520h207l-26 -184l40 34l17 120h89l-8 -59l103 89h242z" />
    <glyph glyph-name="uni049E" unicode="&#x49e;" horiz-adv-x="934" 
d="M681 446l211 -446h-232l-127 299l-184 -185l-16 -114h-228l81 580h-121l16 115h121l9 65h228l-9 -65h99l-16 -115h-99l-22 -160l321 340h281z" />
    <glyph glyph-name="uni049F" unicode="&#x49f;" horiz-adv-x="681" 
d="M473 299l171 -299h-215l-86 180l-37 -34l-20 -146h-217l84 600h-85l15 110h85l7 50h217l-7 -50h154l-15 -110h-154l-31 -223l126 143h249z" />
    <glyph glyph-name="uni04A0" unicode="&#x4a0;" horiz-adv-x="869" 
d="M626 452l201 -452h-245l-112 282l-61 -66l-30 -216h-228l80 576h-166l25 184h396l-33 -231l194 231h261z" />
    <glyph glyph-name="uni04A1" unicode="&#x4a1;" horiz-adv-x="757" 
d="M548 299l172 -299h-215l-87 180l-41 -39l-20 -141h-212l50 354h-167l24 166h378l-20 -145l131 145h246z" />
    <glyph glyph-name="uni04A2" unicode="&#x4a2;" horiz-adv-x="813" 
d="M773 760l-106 -760h-229l42 299h-193l-42 -299h-228l106 760h229l-39 -277h193l39 277h228zM757 -140h-185l11 140h-56l25 184h250z" />
    <glyph glyph-name="uni04A3" unicode="&#x4a3;" horiz-adv-x="688" 
d="M635 520l-73 -520h-220l25 181h-110l-25 -181h-220l73 520h220l-24 -173h110l24 173h220zM628 -130h-167l10 130h-49l23 166h225z" />
    <glyph glyph-name="uni04A4" unicode="&#x4a4;" horiz-adv-x="960" 
d="M773 760l-106 -760h-229l42 299h-193l-42 -299h-228l106 760h229l-39 -277h193l39 277h228zM984 576h-237l-80 -576h-228l106 760h464z" />
    <glyph glyph-name="uni04A5" unicode="&#x4a5;" horiz-adv-x="780" 
d="M635 520l-73 -520h-220l25 181h-110l-25 -181h-220l73 520h220l-24 -173h110l24 173h220zM778 354h-165l-50 -354h-220l73 520h386z" />
    <glyph glyph-name="uni04A6" unicode="&#x4a6;" horiz-adv-x="1157" 
d="M974 426q68 -34 103 -94.5t35 -139.5q0 -114 -45 -201.5t-132 -142t-209 -68.5v194q71 14 111 71t40 131q0 100 -129 100h-48l-38 -276h-228l80 576h-189l-80 -576h-228l106 760h645l-42 -300h86q94 0 162 -34z" />
    <glyph glyph-name="uni04A7" unicode="&#x4a7;" horiz-adv-x="952" 
d="M831 237q68 -53 68 -148q0 -94 -39 -162.5t-113 -106.5t-177 -40l1 165q31 2 58 19t42.5 43.5t15.5 54.5q0 55 -75 55h-39l-16 -117h-220l50 354h-105l-50 -354h-220l73 520h545l-32 -230h56q109 0 177 -53z" />
    <glyph glyph-name="uni04A8" unicode="&#x4a8;" horiz-adv-x="1090" 
d="M1027 298.5q-41 -88.5 -115 -156.5q65 14 121 48l-8 -179q-74 -26 -173 -26q-96 0 -179 28q-98 -28 -200 -28q-135 0 -232 46t-147.5 130t-50.5 196q0 109 47 193.5t127 141t183 83.5l-7 -208q-118 -73 -118 -213q0 -97 54 -155.5t159 -64.5q-88 106 -88 262
q0 109 43 195t127 135t203 49q142 0 218.5 -73t76.5 -213q0 -102 -41 -190.5zM683.5 545.5q-31.5 -34.5 -46 -86.5t-14.5 -106q0 -112 66 -169q70 44 109 119.5t39 165.5q0 61 -18.5 86t-55.5 25q-48 0 -79.5 -34.5z" />
    <glyph glyph-name="uni04A9" unicode="&#x4a9;" horiz-adv-x="853" 
d="M807 207.5q-26 -53.5 -74 -95.5q40 3 57 8v-127q-39 -8 -100 -8q-78 0 -155 25q-95 -25 -197 -25q-93 0 -163 32t-107.5 88.5t-37.5 127.5q0 231 261 302l-5 -178q-33 -17 -50 -50.5t-17 -70.5q0 -53 37.5 -79.5t101.5 -30.5q-55 68 -55 148q0 74 35 133.5t101 93.5
t155 34q77 0 131 -29.5t81 -77.5t27 -105q0 -62 -26 -115.5zM523.5 346.5q-24.5 -45.5 -24.5 -103.5q0 -54 31 -88q51 26 78 72t27 110q0 26 -11.5 40.5t-32.5 14.5q-43 0 -67.5 -45.5z" />
    <glyph glyph-name="uni04AA" unicode="&#x4aa;" horiz-adv-x="842" 
d="M523.5 228q45.5 33 65.5 86l233 -18q-34 -121 -122.5 -204t-215.5 -102l-30 -150h-179l13 163q-112 33 -175.5 124t-63.5 221q0 118 53 215.5t151.5 154.5t227.5 57q109 0 188.5 -40.5t124 -110.5t51.5 -159l-239 -17q-6 58 -39.5 89.5t-91.5 31.5q-55 0 -98 -29
t-66.5 -78t-23.5 -108q0 -75 37 -117t99 -42q55 0 100.5 33z" />
    <glyph glyph-name="uni04AB" unicode="&#x4ab;" horiz-adv-x="660" 
d="M377 170.5q22 15.5 34 46.5l207 -16q-21 -81 -78 -136t-149 -72l-28 -143h-164l12 148q-82 24 -129 85t-47 140q0 99 43 169.5t118.5 106.5t173.5 36q121 0 189.5 -58t74.5 -157l-212 -14q-4 29 -22 43.5t-45 14.5q-43 0 -71.5 -33t-28.5 -88q0 -41 19 -64.5t55 -23.5
q26 0 48 15.5z" />
    <glyph glyph-name="uni04AC" unicode="&#x4ac;" horiz-adv-x="644" 
d="M668 576h-188l-80 -576h-229l80 576h-187l26 184h603zM490 -140h-185l11 140h-56l25 184h250z" />
    <glyph glyph-name="uni04AD" unicode="&#x4ad;" horiz-adv-x="524" 
d="M522 354h-136l-50 -354h-220l50 354h-138l24 166h494zM402 -130h-167l10 130h-49l23 166h225z" />
    <glyph glyph-name="uni04AE" unicode="&#x4ae;" horiz-adv-x="716" 
d="M478 302h-1l-42 -302h-229l43 305l-179 455h224l84 -275l157 275h251z" />
    <glyph glyph-name="uni04AF" unicode="&#x4af;" 
d="M426 -13l-27 -192h-229l27 198l-160 527h209l77 -392l183 392h232z" />
    <glyph glyph-name="uni04B0" unicode="&#x4b0;" horiz-adv-x="716" 
d="M551 410h92l-19 -140h-151l-38 -270h-229l38 270h-153l19 140h98l-138 350h224l84 -275l157 275h251z" />
    <glyph glyph-name="uni04B1" unicode="&#x4b1;" 
d="M504 120h66l-16 -120h-120l-8 -13l-27 -192h-229l27 198l-2 7h-122l16 120h70l-122 400h209l77 -392l183 392h232z" />
    <glyph glyph-name="uni04B2" unicode="&#x4b2;" horiz-adv-x="748" 
d="M506 394l197 -394h-238l-94 218l-154 -218h-254l316 401l-182 359h238l77 -198l131 198h255zM692 -140h-185l11 140h-56l25 184h250z" />
    <glyph glyph-name="uni04B3" unicode="&#x4b3;" horiz-adv-x="624" 
d="M419 266l160 -266h-227l-63 140l-108 -140h-228l239 267l-151 253h227l54 -125l95 125h228zM569 -130h-167l10 130h-49l23 166h225z" />
    <glyph glyph-name="uni04B4" unicode="&#x4b4;" horiz-adv-x="1003" 
d="M992 184l-45 -324h-182l9 140h-622l80 576h-167l25 184h565l-25 -184h-169l-54 -392h259l80 576h220l-80 -576h106z" />
    <glyph glyph-name="uni04B5" unicode="&#x4b5;" horiz-adv-x="845" 
d="M827 166l-42 -296h-166l8 130h-529l50 354h-120l24 166h456l-24 -166h-126l-27 -188h195l50 354h211l-50 -354h90z" />
    <glyph glyph-name="uni04B6" unicode="&#x4b6;" horiz-adv-x="761" 
d="M723 760l-106 -760h-229l34 246h-85q-71 0 -131.5 25.5t-96.5 76.5t-36 124q0 16 4 50l33 238h229l-32 -228q-3 -21 -3 -37q0 -36 19 -50.5t67 -14.5h58l46 330h229zM705 -140h-185l11 140h-56l25 184h250z" />
    <glyph glyph-name="uni04B7" unicode="&#x4b7;" horiz-adv-x="663" 
d="M609 520l-73 -520h-220l20 145h-66q-59 0 -109 20.5t-80 59.5t-30 92q0 21 2 32l24 171h212l-23 -158q-1 -7 -1 -18q0 -20 11.5 -28.5t43.5 -8.5h39l30 213h220zM603 -130h-167l10 130h-49l23 166h225z" />
    <glyph glyph-name="uni04B8" unicode="&#x4b8;" horiz-adv-x="811" 
d="M827 760l-106 -760h-220l34 246h-75l-18 -131h-120l18 131h-12q-69 0 -127 25.5t-93 76.5t-35 124q0 16 4 50l33 238h220l-32 -228q-3 -21 -3 -37q0 -34 16 -48.5t55 -16.5l23 165h120l-23 -165h75l46 330h220z" />
    <glyph glyph-name="uni04B9" unicode="&#x4b9;" horiz-adv-x="691" 
d="M679 520l-73 -520h-220l20 145h-39l-11 -80h-89l11 80h-8q-59 0 -109 20.5t-80 59.5t-30 92q0 21 2 32l24 171h210l-23 -158q-1 -7 -1 -18q0 -17 8 -25.5t30 -10.5l14 102h89l-14 -103h39l30 213h220z" />
    <glyph glyph-name="uni04BA" unicode="&#x4ba;" horiz-adv-x="735" 
d="M567 465.5q60 -24.5 96 -75.5t36 -127q0 -18 -4 -50l-30 -213h-229l27 198q3 21 3 38q0 36 -19 50t-66 14h-93l-42 -300h-229l106 760h229l-38 -270h121q72 0 132 -24.5z" />
    <glyph glyph-name="uni04BB" unicode="&#x4bb;" horiz-adv-x="665" 
d="M593 488.5q39 -46.5 39 -122.5q0 -34 -5 -68l-42 -298h-220l38 268q5 35 5 52q0 29 -13 41.5t-37 12.5q-65 0 -84 -89l-40 -285h-220l106 760h220l-43 -310q33 41 79 63t100 22q78 0 117 -46.5z" />
    <glyph glyph-name="uni04BC" unicode="&#x4bc;" horiz-adv-x="1055" 
d="M1038 371q-6 -36 -15 -57h-549q4 -62 42.5 -95t99.5 -33q44 0 84 20t67 54l221 -38q-57 -112 -158.5 -174.5t-226.5 -62.5q-103 0 -181.5 44.5t-121.5 119.5t-46 165h-10q-90 0 -142.5 35.5t-52.5 100.5q0 60 34 138l172 -24q-7 -19 -12.5 -41t-5.5 -38q0 -19 8 -28.5
t24 -11.5q26 95 87 170t149 117.5t189 42.5q103 0 183 -45.5t123.5 -123t43.5 -170.5q0 -29 -6 -65zM573.5 538.5q-49.5 -35.5 -76.5 -94.5h329q-4 64 -40 97t-98 33q-65 0 -114.5 -35.5z" />
    <glyph glyph-name="uni04BD" unicode="&#x4bd;" horiz-adv-x="850" 
d="M804 209h-385q1 -37 21.5 -60.5t52.5 -23.5q53 0 79 42l216 -15q-44 -85 -122.5 -126t-192.5 -41q-81 0 -141 30.5t-92.5 82.5t-36.5 113q-76 0 -123 30.5t-47 91.5q0 28 7 61t19 60l145 -24q-7 -20 -13 -45.5t-6 -39.5q0 -19 6.5 -28t20.5 -12q24 110 111.5 170
t215.5 60q86 0 149 -30t96 -82t33 -118q0 -50 -13 -96zM430 305h175q-2 42 -20.5 65.5t-53.5 23.5q-77 0 -101 -89z" />
    <glyph glyph-name="uni04BE" unicode="&#x4be;" horiz-adv-x="1055" 
d="M1038 371q-6 -36 -15 -57h-549q4 -62 42.5 -95t99.5 -33q44 0 84 20t67 54l221 -38q-45 -90 -121 -149t-171 -79l-31 -154h-179l12 158q-110 30 -175 116.5t-69 199.5h-10q-90 0 -142.5 35.5t-52.5 100.5q0 60 34 138l172 -24q-7 -19 -12.5 -41t-5.5 -38q0 -19 8 -28.5
t24 -11.5q26 95 87 170t149 117.5t189 42.5q103 0 183 -45.5t123.5 -123t43.5 -170.5q0 -29 -6 -65zM573.5 538.5q-49.5 -35.5 -76.5 -94.5h329q-4 64 -40 97t-98 33q-65 0 -114.5 -35.5z" />
    <glyph glyph-name="uni04BF" unicode="&#x4bf;" horiz-adv-x="850" 
d="M804 209h-385q1 -37 21.5 -60.5t52.5 -23.5q53 0 79 42l216 -15q-66 -129 -216 -158l-29 -144h-162l11 144q-86 20 -135 80t-54 137q-76 0 -123 30.5t-47 91.5q0 28 7 61t19 60l145 -24q-7 -20 -13 -45.5t-6 -39.5q0 -19 6.5 -28t20.5 -12q24 110 111.5 170t215.5 60
q86 0 149 -30t96 -82t33 -118q0 -50 -13 -96zM430 305h175q-2 42 -20.5 65.5t-53.5 23.5q-77 0 -101 -89z" />
    <glyph glyph-name="uni04C0" unicode="&#x4c0;" horiz-adv-x="335" 
d="M123 760h229l-107 -760h-228z" />
    <glyph glyph-name="uni04C1" unicode="&#x4c1;" horiz-adv-x="1113" 
d="M862 442l209 -442h-233l-114 300l-59 -61l-33 -239h-220l36 257l-42 61l-185 -318h-253l325 483l-190 277h243l136 -257l36 257h220l-36 -256l191 256h278zM527.5 884.5q-40.5 47.5 -40.5 130.5h114q0 -74 55 -74q30 0 48.5 20t24.5 54h114q-14 -82 -67 -130t-132 -48
q-76 0 -116.5 47.5z" />
    <glyph glyph-name="uni04C2" unicode="&#x4c2;" horiz-adv-x="890" 
d="M690 309l163 -309h-207l-76 200l-45 -42l-22 -158h-195l24 171l-33 42l-114 -213h-222l237 339l-142 181h209l92 -156l22 156h195l-22 -156l131 156h236zM378.5 644.5q-40.5 47.5 -40.5 130.5h114q0 -74 55 -74q30 0 48.5 20t24.5 54h114q-14 -82 -67 -130t-132 -48
q-76 0 -116.5 47.5z" />
    <glyph glyph-name="uni04C3" unicode="&#x4c3;" horiz-adv-x="711" 
d="M643 328.5q46 -69.5 46 -155.5q0 -108 -45 -191.5t-131.5 -135.5t-208.5 -66l3 192q69 11 108 62t39 121q0 40 -20 79t-61 85l-99 -108l-29 -211h-228l106 760h228l-30 -214l177 214h278l-265 -290q86 -72 132 -141.5z" />
    <glyph glyph-name="uni04C4" unicode="&#x4c4;" horiz-adv-x="640" 
d="M550.5 195q39.5 -58 39.5 -129q0 -85 -41 -149.5t-115 -100.5t-170 -36l1 165q46 3 80 37.5t34 88.5q0 33 -15 65t-49 70l-71 -65l-20 -141h-212l73 520h212l-21 -146l133 146h246l-223 -205q79 -62 118.5 -120z" />
    <glyph glyph-name="uni04C5" unicode="&#x4c5;" horiz-adv-x="834" 
d="M659 -140h-176l51 140h-50l-62 530l-211 -530h-248l352 760h260l105 -576h143z" />
    <glyph glyph-name="uni04C6" unicode="&#x4c6;" horiz-adv-x="715" 
d="M553 -130h-162l47 130h-72l-39 349l-137 -349h-222l254 520h240l80 -354h160z" />
    <glyph glyph-name="uni04C7" unicode="&#x4c7;" horiz-adv-x="756" 
d="M773 760l-92 -655q-22 -160 -112.5 -242.5t-243.5 -82.5h-15l4 190h11q44 0 81 31.5t45 90.5l29 206h-193l-42 -298h-228l106 760h228l-39 -278h194l39 278h228z" />
    <glyph glyph-name="uni04C8" unicode="&#x4c8;" horiz-adv-x="647" 
d="M562 0l-2 -12q-17 -115 -75.5 -161.5t-169.5 -46.5q-31 0 -81 8l23 149h15q32 0 49 16.5t20 41.5l9 63l17 123h-110l-25 -181h-220l73 520h220l-24 -173h110l24 173h220z" />
    <glyph glyph-name="uni04C9" unicode="&#x4c9;" horiz-adv-x="827" 
d="M662 -140h-175l47 140h-96l42 299h-193l-42 -299h-228l106 760h229l-39 -277h193l39 277h228l-80 -576h133z" />
    <glyph glyph-name="uni04CA" unicode="&#x4ca;" horiz-adv-x="688" 
d="M521 -130h-163l48 130h-64l25 181h-110l-25 -181h-220l73 520h220l-24 -173h110l24 173h220l-50 -354h85z" />
    <glyph glyph-name="uni04CB" unicode="&#x4cb;" horiz-adv-x="707" 
d="M723 760l-106 -760h-145l-30 -140h-184l37 274h112l15 112h-85q-71 0 -131.5 25.5t-96.5 76.5t-36 124q0 16 4 50l33 238h229l-32 -228q-3 -21 -3 -37q0 -36 19 -50.5t67 -14.5h58l46 330h229z" />
    <glyph glyph-name="uni04CC" unicode="&#x4cc;" horiz-adv-x="621" 
d="M609 520l-73 -520h-131l-27 -130h-167l31 220h87l9 70h-65q-59 0 -109 20.5t-80 59.5t-30 92q0 10 2 32l21 156h212l-20 -143q-1 -7 -1 -18q0 -20 11.5 -28.5t43.5 -8.5h38l28 198h220z" />
    <glyph glyph-name="uni04CD" unicode="&#x4cd;" horiz-adv-x="1016" 
d="M841 -140h-175l50 140h-71l35 443l-208 -443h-94l-84 446l-89 -446h-212l169 760h224l85 -428l204 428h228l-33 -576h135z" />
    <glyph glyph-name="uni04CE" unicode="&#x4ce;" horiz-adv-x="817" 
d="M655 -130h-162l49 130h-42l22 261l-129 -261h-106l-53 267l-53 -267h-193l118 520h210l60 -276l130 276h210l-19 -354h107z" />
    <glyph glyph-name="uni04CF" unicode="&#x4cf;" horiz-adv-x="317" 
d="M118 760h220l-106 -760h-220z" />
    <glyph glyph-name="uni04D0" unicode="&#x4d0;" horiz-adv-x="751" 
d="M464 96h-226l-38 -96h-237l351 760h260l140 -760h-239zM446 254l-33 283l-112 -283h145zM341.5 884.5q-40.5 47.5 -40.5 130.5h114q0 -74 55 -74q30 0 48.5 20t24.5 54h114q-14 -82 -67 -130t-132 -48q-76 0 -116.5 47.5z" />
    <glyph glyph-name="uni04D1" unicode="&#x4d1;" 
d="M689 520l-72 -520h-204l-4 82q-70 -97 -178 -97q-55 0 -99.5 27t-70.5 80.5t-26 131.5q0 85 31.5 156t89 113t132.5 42q64 0 107.5 -30.5t61.5 -76.5l13 92h219zM410 191q30 36 30 87q0 40 -19.5 63t-54.5 23q-44 0 -74 -35t-30 -87q0 -41 19.5 -64t53.5 -23q45 0 75 36z
M257.5 644.5q-40.5 47.5 -40.5 130.5h114q0 -74 55 -74q30 0 48.5 20t24.5 54h114q-14 -82 -67 -130t-132 -48q-76 0 -116.5 47.5z" />
    <glyph glyph-name="uni04D2" unicode="&#x4d2;" horiz-adv-x="751" 
d="M464 96h-226l-38 -96h-237l351 760h260l140 -760h-239zM446 254l-33 283l-112 -283h145zM275 866.5q-27 27.5 -27 65.5q0 39 27 66t65 27t65.5 -27t27.5 -66q0 -38 -27.5 -65.5t-65.5 -27.5t-65 27.5zM522.5 866.5q-27.5 27.5 -27.5 65.5q0 39 27.5 66t65.5 27t64.5 -27
t26.5 -66q0 -38 -27 -65.5t-64 -27.5q-38 0 -65.5 27.5z" />
    <glyph glyph-name="uni04D3" unicode="&#x4d3;" 
d="M689 520l-72 -520h-204l-4 82q-70 -97 -178 -97q-55 0 -99.5 27t-70.5 80.5t-26 131.5q0 85 31.5 156t89 113t132.5 42q64 0 107.5 -30.5t61.5 -76.5l13 92h219zM410 191q30 36 30 87q0 40 -19.5 63t-54.5 23q-44 0 -74 -35t-30 -87q0 -41 19.5 -64t53.5 -23q45 0 75 36z
M191 626.5q-27 27.5 -27 65.5q0 39 27 66t65 27t65.5 -27t27.5 -66q0 -38 -27.5 -65.5t-65.5 -27.5t-65 27.5zM438.5 626.5q-27.5 27.5 -27.5 65.5q0 39 27.5 66t65.5 27t64.5 -27t26.5 -66q0 -38 -27 -65.5t-64 -27.5q-38 0 -65.5 27.5z" />
    <glyph glyph-name="uni04D4" unicode="&#x4d4;" horiz-adv-x="1028" 
d="M793 576l-13 -95h225l-25 -175h-224l-17 -122h238l-26 -184h-467l18 127h-226l-80 -127h-237l530 760h568l-26 -184h-238zM524 285l41 299l-189 -299h148z" />
    <glyph glyph-name="uni04D5" unicode="&#x4d5;" horiz-adv-x="977" 
d="M567 211v-6q0 -36 20.5 -58t53.5 -22q52 0 80 43l194 -14q-97 -169 -297 -169q-66 0 -114.5 24t-77.5 67q-74 -91 -222 -91q-91 0 -138.5 38t-47.5 103q0 177 259 177h117l3 33q0 58 -66 58q-26 0 -46.5 -12t-30.5 -32l-185 14q31 69 103.5 120t181.5 51q53 0 99 -13.5
t77 -39.5q74 53 164 53q118 0 184 -60.5t66 -171.5q0 -22 -3.5 -47.5t-8.5 -44.5h-365zM618.5 366.5q-24.5 -23.5 -37.5 -63.5h170v6q0 36 -18.5 58.5t-53.5 22.5q-36 0 -60.5 -23.5zM342.5 126q27.5 22 34.5 66l3 19h-83q-46 0 -68 -14.5t-22 -45.5q0 -47 64 -47
q44 0 71.5 22z" />
    <glyph glyph-name="uni04D6" unicode="&#x4d6;" horiz-adv-x="575" 
d="M326 576l-13 -95h238l-25 -176h-238l-17 -121h252l-25 -184h-481l106 760h480l-26 -184h-251zM262.5 884.5q-40.5 47.5 -40.5 130.5h114q0 -74 55 -74q30 0 48.5 20t24.5 54h114q-14 -82 -67 -130t-132 -48q-76 0 -116.5 47.5z" />
    <glyph glyph-name="uni04D7" unicode="&#x4d7;" horiz-adv-x="682" 
d="M636 209h-385q1 -37 21.5 -60.5t52.5 -23.5q53 0 79 42l216 -15q-44 -85 -122.5 -126t-192.5 -41q-84 0 -145.5 33t-93 87.5t-31.5 118.5q0 97 42.5 167t118.5 107t175 37q86 0 149 -30t96 -82t33 -118q0 -50 -13 -96zM262 305h175q-2 42 -20.5 65.5t-53.5 23.5
q-77 0 -101 -89zM276.5 644.5q-40.5 47.5 -40.5 130.5h114q0 -74 55 -74q30 0 48.5 20t24.5 54h114q-14 -82 -67 -130t-132 -48q-76 0 -116.5 47.5z" />
    <glyph glyph-name="uni04D8" unicode="&#x4d8;" horiz-adv-x="846" 
d="M670 728.5q79 -46.5 121.5 -124.5t42.5 -170q0 -122 -58.5 -225t-159 -163.5t-222.5 -60.5q-103 0 -183 45.5t-123.5 123t-43.5 170.5q0 29 6 65t15 57h549q-4 62 -42.5 95.5t-99.5 33.5q-44 0 -83.5 -20t-67.5 -55l-221 38q57 112 158.5 174.5t226.5 62.5
q106 0 185 -46.5zM514.5 221q49.5 36 76.5 95h-328q4 -63 40.5 -97t96.5 -34q65 0 114.5 36z" />
    <glyph glyph-name="uni04D9" unicode="&#x4d9;" horiz-adv-x="682" 
d="M522.5 502q61.5 -33 93 -87.5t31.5 -118.5q0 -97 -42.5 -167t-118.5 -107t-175 -37q-86 0 -149 30t-96 82t-33 118q0 51 13 96h385q-1 37 -21.5 60.5t-52.5 23.5q-53 0 -79 -42l-216 15q44 85 122.5 126t192.5 41q84 0 145.5 -33zM420 213h-175q2 -41 20.5 -64t53.5 -23
q77 0 101 87z" />
    <glyph glyph-name="uni04DA" unicode="&#x4da;" horiz-adv-x="846" 
d="M670 728.5q79 -46.5 121.5 -124.5t42.5 -170q0 -122 -58.5 -225t-159 -163.5t-222.5 -60.5q-103 0 -183 45.5t-123.5 123t-43.5 170.5q0 29 6 65t15 57h549q-4 62 -42.5 95.5t-99.5 33.5q-44 0 -83.5 -20t-67.5 -55l-221 38q57 112 158.5 174.5t226.5 62.5
q106 0 185 -46.5zM514.5 221q49.5 36 76.5 95h-328q4 -63 40.5 -97t96.5 -34q65 0 114.5 36zM324 866.5q-27 27.5 -27 65.5q0 39 27 66t65 27t65.5 -27t27.5 -66q0 -38 -27.5 -65.5t-65.5 -27.5t-65 27.5zM571.5 866.5q-27.5 27.5 -27.5 65.5q0 39 27.5 66t65.5 27t64.5 -27
t26.5 -66q0 -38 -27 -65.5t-64 -27.5q-38 0 -65.5 27.5z" />
    <glyph glyph-name="uni04DB" unicode="&#x4db;" horiz-adv-x="682" 
d="M522.5 502q61.5 -33 93 -87.5t31.5 -118.5q0 -97 -42.5 -167t-118.5 -107t-175 -37q-86 0 -149 30t-96 82t-33 118q0 51 13 96h385q-1 37 -21.5 60.5t-52.5 23.5q-53 0 -79 -42l-216 15q44 85 122.5 126t192.5 41q84 0 145.5 -33zM420 213h-175q2 -41 20.5 -64t53.5 -23
q77 0 101 87zM206 627.5q-27 27.5 -27 65.5q0 39 27 66t65 27t65.5 -27t27.5 -66q0 -38 -27.5 -65.5t-65.5 -27.5t-65 27.5zM453.5 627.5q-27.5 27.5 -27.5 65.5q0 39 27.5 66t65.5 27t64.5 -27t26.5 -66q0 -38 -27 -65.5t-64 -27.5q-38 0 -65.5 27.5z" />
    <glyph glyph-name="uni04DC" unicode="&#x4dc;" horiz-adv-x="1113" 
d="M862 442l209 -442h-233l-114 300l-59 -61l-33 -239h-220l36 257l-42 61l-185 -318h-253l325 483l-190 277h243l136 -257l36 257h220l-36 -256l191 256h278zM461 866.5q-27 27.5 -27 65.5q0 39 27 66t65 27t65.5 -27t27.5 -66q0 -38 -27.5 -65.5t-65.5 -27.5t-65 27.5z
M708.5 866.5q-27.5 27.5 -27.5 65.5q0 39 27.5 66t65.5 27t64.5 -27t26.5 -66q0 -38 -27 -65.5t-64 -27.5q-38 0 -65.5 27.5z" />
    <glyph glyph-name="uni04DD" unicode="&#x4dd;" horiz-adv-x="890" 
d="M690 309l163 -309h-207l-76 200l-45 -42l-22 -158h-195l24 171l-33 42l-114 -213h-222l237 339l-142 181h209l92 -156l22 156h195l-22 -156l131 156h236zM312 626.5q-27 27.5 -27 65.5q0 39 27 66t65 27t65.5 -27t27.5 -66q0 -38 -27.5 -65.5t-65.5 -27.5t-65 27.5z
M559.5 626.5q-27.5 27.5 -27.5 65.5q0 39 27.5 66t65.5 27t64.5 -27t26.5 -66q0 -38 -27 -65.5t-64 -27.5q-38 0 -65.5 27.5z" />
    <glyph glyph-name="uni04DE" unicode="&#x4de;" horiz-adv-x="655" 
d="M629 237q0 -120 -85.5 -186t-237.5 -66q-91 0 -157.5 27.5t-101 74t-34.5 101.5q0 22 2 34l218 3q-1 -5 -1 -15q0 -27 19 -40t53 -13q46 0 73.5 27.5t27.5 67.5q0 33 -25.5 49t-84.5 16h-105l21 159h94q54 0 87 22t33 56q0 26 -16.5 38.5t-44.5 12.5q-36 0 -59 -18
t-31 -50l-212 17q21 108 108.5 164.5t224.5 56.5q89 0 147 -26t84.5 -68t26.5 -92q0 -126 -124 -186q100 -48 100 -166zM238 866.5q-27 27.5 -27 65.5q0 39 27 66t65 27t65.5 -27t27.5 -66q0 -38 -27.5 -65.5t-65.5 -27.5t-65 27.5zM485.5 866.5q-27.5 27.5 -27.5 65.5
q0 39 27.5 66t65.5 27t64.5 -27t26.5 -66q0 -38 -27 -65.5t-64 -27.5q-38 0 -65.5 27.5z" />
    <glyph glyph-name="uni04DF" unicode="&#x4df;" horiz-adv-x="570" 
d="M529 155q0 -74 -66 -122t-206 -48q-95 0 -152.5 26t-81 64t-23.5 78v3l211 2v-8q0 -14 12 -20.5t31 -6.5q34 0 49.5 15.5t15.5 38.5q0 39 -59 39h-91l14 100h59q43 0 66.5 15t23.5 38q0 32 -41 32q-24 0 -38.5 -14.5t-19.5 -34.5l-198 21q14 68 79 115t191 47
q237 0 237 -132q0 -44 -23.5 -77.5t-61.5 -46.5q72 -40 72 -124zM149 626.5q-27 27.5 -27 65.5q0 39 27 66t65 27t65.5 -27t27.5 -66q0 -38 -27.5 -65.5t-65.5 -27.5t-65 27.5zM396.5 626.5q-27.5 27.5 -27.5 65.5q0 39 27.5 66t65.5 27t64.5 -27t26.5 -66q0 -38 -27 -65.5
t-64 -27.5q-38 0 -65.5 27.5z" />
    <glyph glyph-name="uni04E0" unicode="&#x4e0;" horiz-adv-x="651" 
d="M578.5 410q50.5 -55 50.5 -135q0 -139 -88.5 -214.5t-241.5 -75.5q-83 0 -147 24.5t-99.5 69.5t-35.5 107q0 18 3 36l219 3q-1 -6 -1 -16q0 -52 63 -52q50 0 78.5 32.5t28.5 83.5q0 33 -22.5 48.5t-75.5 15.5h-119l11 113l122 135h-209l24 175h550l-258 -283
q97 -12 147.5 -67z" />
    <glyph glyph-name="uni04E1" unicode="&#x4e1;" horiz-adv-x="579" 
d="M479.5 177.5q45.5 -49.5 45.5 -124.5q0 -132 -80.5 -202.5t-218.5 -70.5q-114 0 -180 55.5t-69 148.5v6l187 1v-3q0 -25 16 -38t44 -13q49 0 79 33.5t30 81.5q0 33 -23.5 49t-79.5 16q-38 0 -95 -4l9 127l111 127h-186l22 153h515l-250 -274q78 -19 123.5 -68.5z" />
    <glyph glyph-name="uni04E2" unicode="&#x4e2;" horiz-adv-x="767" 
d="M783 760l-106 -760h-228l58 418l-260 -418l-2 1v-1h-228l106 760h228l-58 -417l259 417l2 -1v1h229zM334 996h306l-16 -113h-306z" />
    <glyph glyph-name="uni04E3" unicode="&#x4e3;" horiz-adv-x="656" 
d="M644 520l-73 -520h-210l37 264l-176 -264h-210l73 520h210l-37 -261l176 261h210zM244 756h306l-16 -113h-306z" />
    <glyph glyph-name="uni04E4" unicode="&#x4e4;" horiz-adv-x="767" 
d="M783 760l-106 -760h-228l58 418l-260 -418l-2 1v-1h-228l106 760h228l-58 -417l259 417l2 -1v1h229zM285 866.5q-27 27.5 -27 65.5q0 39 27 66t65 27t65.5 -27t27.5 -66q0 -38 -27.5 -65.5t-65.5 -27.5t-65 27.5zM532.5 866.5q-27.5 27.5 -27.5 65.5q0 39 27.5 66
t65.5 27t64.5 -27t26.5 -66q0 -38 -27 -65.5t-64 -27.5q-38 0 -65.5 27.5z" />
    <glyph glyph-name="uni04E5" unicode="&#x4e5;" horiz-adv-x="656" 
d="M644 520l-73 -520h-210l37 264l-176 -264h-210l73 520h210l-37 -261l176 261h210zM195 626.5q-27 27.5 -27 65.5q0 39 27 66t65 27t65.5 -27t27.5 -66q0 -38 -27.5 -65.5t-65.5 -27.5t-65 27.5zM442.5 626.5q-27.5 27.5 -27.5 65.5q0 39 27.5 66t65.5 27t64.5 -27
t26.5 -66q0 -38 -27 -65.5t-64 -27.5q-38 0 -65.5 27.5z" />
    <glyph glyph-name="uni04E6" unicode="&#x4e6;" horiz-adv-x="863" 
d="M220.5 30q-82.5 45 -127 127t-44.5 191q0 125 58 222.5t158 151t221 53.5q109 0 191 -45t126.5 -127t44.5 -191q0 -125 -58 -222.5t-158 -151t-220 -53.5q-109 0 -191.5 45zM514.5 220q43.5 26 69.5 74.5t26 113.5q0 75 -35.5 116.5t-98.5 41.5q-49 0 -92.5 -26
t-70 -74.5t-26.5 -112.5q0 -75 36 -117t99 -42q49 0 92.5 26zM312 866.5q-27 27.5 -27 65.5q0 39 27 66t65 27t65.5 -27t27.5 -66q0 -38 -27.5 -65.5t-65.5 -27.5t-65 27.5zM559.5 866.5q-27.5 27.5 -27.5 65.5q0 39 27.5 66t65.5 27t64.5 -27t26.5 -66q0 -38 -27 -65.5
t-64 -27.5q-38 0 -65.5 27.5z" />
    <glyph glyph-name="uni04E7" unicode="&#x4e7;" horiz-adv-x="687" 
d="M168.5 15q-63.5 30 -98.5 84t-35 125q0 98 42 168t119 106.5t179 36.5q81 0 144 -30t98 -84.5t35 -125.5q0 -98 -42 -168t-118.5 -106t-178.5 -36q-81 0 -144.5 30zM402.5 190q29.5 35 29.5 88q0 41 -19.5 63.5t-53.5 22.5q-44 0 -74 -35.5t-30 -87.5q0 -41 19.5 -63.5
t53.5 -22.5q45 0 74.5 35zM211 626.5q-27 27.5 -27 65.5q0 39 27 66t65 27t65.5 -27t27.5 -66q0 -38 -27.5 -65.5t-65.5 -27.5t-65 27.5zM458.5 626.5q-27.5 27.5 -27.5 65.5q0 39 27.5 66t65.5 27t64.5 -27t26.5 -66q0 -38 -27 -65.5t-64 -27.5q-38 0 -65.5 27.5z" />
    <glyph glyph-name="uni04E8" unicode="&#x4e8;" horiz-adv-x="858" 
d="M678.5 728q80.5 -47 123.5 -125.5t43 -170.5q0 -123 -56 -225.5t-157 -162t-232 -59.5q-106 0 -186.5 47t-123.5 125.5t-43 170.5q0 123 56 225.5t157 162t232 59.5q106 0 186.5 -47zM366.5 539q-50.5 -35 -77.5 -94h337q-5 61 -42 95t-101 34q-66 0 -116.5 -35z
M525.5 221q50.5 35 77.5 94h-337q5 -61 42 -95t101 -34q66 0 116.5 35z" />
    <glyph glyph-name="uni04E9" unicode="&#x4e9;" horiz-adv-x="684" 
d="M523 502q63 -33 94.5 -87.5t31.5 -118.5q0 -91 -40 -161.5t-116 -110t-180 -39.5q-89 0 -152 33t-94.5 87.5t-31.5 118.5q0 91 40 161.5t116 110t180 39.5q89 0 152 -33zM293.5 369.5q-32.5 -21.5 -50.5 -59.5h217q-4 81 -90 81q-44 0 -76.5 -21.5zM391.5 151.5
q32.5 22.5 50.5 60.5h-218q3 -83 90 -83q45 0 77.5 22.5z" />
    <glyph glyph-name="uni04EA" unicode="&#x4ea;" horiz-adv-x="858" 
d="M678.5 728q80.5 -47 123.5 -125.5t43 -170.5q0 -123 -56 -225.5t-157 -162t-232 -59.5q-106 0 -186.5 47t-123.5 125.5t-43 170.5q0 123 56 225.5t157 162t232 59.5q106 0 186.5 -47zM366.5 539q-50.5 -35 -77.5 -94h337q-5 61 -42 95t-101 34q-66 0 -116.5 -35z
M525.5 221q50.5 35 77.5 94h-337q5 -61 42 -95t101 -34q66 0 116.5 35zM330 866.5q-27 27.5 -27 65.5q0 39 27 66t65 27t65.5 -27t27.5 -66q0 -38 -27.5 -65.5t-65.5 -27.5t-65 27.5zM577.5 866.5q-27.5 27.5 -27.5 65.5q0 39 27.5 66t65.5 27t64.5 -27t26.5 -66
q0 -38 -27 -65.5t-64 -27.5q-38 0 -65.5 27.5z" />
    <glyph glyph-name="uni04EB" unicode="&#x4eb;" horiz-adv-x="684" 
d="M523 502q63 -33 94.5 -87.5t31.5 -118.5q0 -91 -40 -161.5t-116 -110t-180 -39.5q-89 0 -152 33t-94.5 87.5t-31.5 118.5q0 91 40 161.5t116 110t180 39.5q89 0 152 -33zM293.5 369.5q-32.5 -21.5 -50.5 -59.5h217q-4 81 -90 81q-44 0 -76.5 -21.5zM391.5 151.5
q32.5 22.5 50.5 60.5h-218q3 -83 90 -83q45 0 77.5 22.5zM210 626.5q-27 27.5 -27 65.5q0 39 27 66t65 27t65.5 -27t27.5 -66q0 -38 -27.5 -65.5t-65.5 -27.5t-65 27.5zM457.5 626.5q-27.5 27.5 -27.5 65.5q0 39 27.5 66t65.5 27t64.5 -27t26.5 -66q0 -38 -27 -65.5
t-64 -27.5q-38 0 -65.5 27.5z" />
    <glyph glyph-name="uni04EC" unicode="&#x4ec;" horiz-adv-x="845" 
d="M659.5 730.5q82.5 -44.5 127.5 -123t45 -175.5q0 -128 -60 -230t-164 -159.5t-231 -57.5q-95 0 -170 43t-118.5 115t-49.5 155l217 5q18 -117 142 -117q64 0 113.5 35.5t76.5 93.5h-264l18 130h269q-4 63 -40 96t-99 33q-67 0 -116.5 -33.5t-76.5 -93.5l-217 29
q50 141 157.5 220t249.5 79q108 0 190.5 -44.5zM314 866.5q-27 27.5 -27 65.5q0 39 27 66t65 27t65.5 -27t27.5 -66q0 -38 -27.5 -65.5t-65.5 -27.5t-65 27.5zM561.5 866.5q-27.5 27.5 -27.5 65.5q0 39 27.5 66t65.5 27t64.5 -27t26.5 -66q0 -38 -27 -65.5t-64 -27.5
q-38 0 -65.5 27.5z" />
    <glyph glyph-name="uni04ED" unicode="&#x4ed;" horiz-adv-x="680" 
d="M516.5 504q62.5 -31 95.5 -86t33 -124q0 -94 -40 -164t-116 -107.5t-181 -37.5q-128 0 -198 62t-80 161l181 3q6 -40 29 -60.5t67 -20.5q45 0 77.5 21t51.5 58h-162l14 104h168q-6 77 -92 77q-50 0 -84.5 -25t-52.5 -66l-181 29q71 207 321 207q87 0 149.5 -31z
M207 626.5q-27 27.5 -27 65.5q0 39 27 66t65 27t65.5 -27t27.5 -66q0 -38 -27.5 -65.5t-65.5 -27.5t-65 27.5zM454.5 626.5q-27.5 27.5 -27.5 65.5q0 39 27.5 66t65.5 27t64.5 -27t26.5 -66q0 -38 -27 -65.5t-64 -27.5q-38 0 -65.5 27.5z" />
    <glyph glyph-name="uni04EE" unicode="&#x4ee;" horiz-adv-x="700" 
d="M785 760l-456 -760h-249l154 257l-174 503h235l71 -283l170 283h249zM309 996h306l-16 -113h-306z" />
    <glyph glyph-name="uni04EF" unicode="&#x4ef;" horiz-adv-x="660" 
d="M648 520l-68 -488q-36 -252 -317 -252q-120 0 -188 44t-79 124l224 17q2 -24 15.5 -36t40.5 -12q38 0 56 24.5t26 79.5l10 71q-33 -41 -78 -63.5t-100 -22.5q-75 0 -114.5 41.5t-39.5 112.5q0 26 5 59l41 301h220l-35 -256q-4 -28 -4 -43q0 -29 11.5 -41.5t36.5 -12.5
q68 0 82 104l35 249h220zM245 756h306l-16 -113h-306z" />
    <glyph glyph-name="uni04F0" unicode="&#x4f0;" horiz-adv-x="700" 
d="M785 760l-456 -760h-249l154 257l-174 503h235l71 -283l170 283h249zM260 866.5q-27 27.5 -27 65.5q0 39 27 66t65 27t65.5 -27t27.5 -66q0 -38 -27.5 -65.5t-65.5 -27.5t-65 27.5zM507.5 866.5q-27.5 27.5 -27.5 65.5q0 39 27.5 66t65.5 27t64.5 -27t26.5 -66
q0 -38 -27 -65.5t-64 -27.5q-38 0 -65.5 27.5z" />
    <glyph glyph-name="uni04F1" unicode="&#x4f1;" horiz-adv-x="660" 
d="M648 520l-68 -488q-36 -252 -317 -252q-120 0 -188 44t-79 124l224 17q2 -24 15.5 -36t40.5 -12q38 0 56 24.5t26 79.5l10 71q-33 -41 -78 -63.5t-100 -22.5q-75 0 -114.5 41.5t-39.5 112.5q0 26 5 59l41 301h220l-35 -256q-4 -28 -4 -43q0 -29 11.5 -41.5t36.5 -12.5
q68 0 82 104l35 249h220zM196 626.5q-27 27.5 -27 65.5q0 39 27 66t65 27t65.5 -27t27.5 -66q0 -38 -27.5 -65.5t-65.5 -27.5t-65 27.5zM443.5 626.5q-27.5 27.5 -27.5 65.5q0 39 27.5 66t65.5 27t64.5 -27t26.5 -66q0 -38 -27 -65.5t-64 -27.5q-38 0 -65.5 27.5z" />
    <glyph glyph-name="uni04F2" unicode="&#x4f2;" horiz-adv-x="700" 
d="M785 760l-456 -760h-249l154 257l-174 503h235l71 -283l170 283h249zM365 827h-131l95 174h206zM608 827h-131l95 174h206z" />
    <glyph glyph-name="uni04F3" unicode="&#x4f3;" horiz-adv-x="660" 
d="M648 520l-68 -488q-36 -252 -317 -252q-120 0 -188 44t-79 124l224 17q2 -24 15.5 -36t40.5 -12q38 0 56 24.5t26 79.5l10 71q-33 -41 -78 -63.5t-100 -22.5q-75 0 -114.5 41.5t-39.5 112.5q0 26 5 59l41 301h220l-35 -256q-4 -28 -4 -43q0 -29 11.5 -41.5t36.5 -12.5
q68 0 82 104l35 249h220zM301 587h-131l95 174h206zM544 587h-131l95 174h206z" />
    <glyph glyph-name="uni04F4" unicode="&#x4f4;" horiz-adv-x="707" 
d="M723 760l-106 -760h-229l34 246h-85q-71 0 -131.5 25.5t-96.5 76.5t-36 124q0 16 4 50l33 238h229l-32 -228q-3 -21 -3 -37q0 -36 19 -50.5t67 -14.5h58l46 330h229zM257 866.5q-27 27.5 -27 65.5q0 39 27 66t65 27t65.5 -27t27.5 -66q0 -38 -27.5 -65.5t-65.5 -27.5
t-65 27.5zM504.5 866.5q-27.5 27.5 -27.5 65.5q0 39 27.5 66t65.5 27t64.5 -27t26.5 -66q0 -38 -27 -65.5t-64 -27.5q-38 0 -65.5 27.5z" />
    <glyph glyph-name="uni04F5" unicode="&#x4f5;" horiz-adv-x="621" 
d="M609 520l-73 -520h-220l20 145h-66q-59 0 -109 20.5t-80 59.5t-30 92q0 21 2 32l24 171h212l-23 -158q-1 -7 -1 -18q0 -20 11.5 -28.5t43.5 -8.5h39l30 213h220zM174 626.5q-27 27.5 -27 65.5q0 39 27 66t65 27t65.5 -27t27.5 -66q0 -38 -27.5 -65.5t-65.5 -27.5
t-65 27.5zM421.5 626.5q-27.5 27.5 -27.5 65.5q0 39 27.5 66t65.5 27t64.5 -27t26.5 -66q0 -38 -27 -65.5t-64 -27.5q-38 0 -65.5 27.5z" />
    <glyph glyph-name="uni04F6" unicode="&#x4f6;" horiz-adv-x="538" 
d="M562 576h-237l-80 -576h-228l106 760h464zM336 -140h-185l11 140h-56l25 184h250z" />
    <glyph glyph-name="uni04F7" unicode="&#x4f7;" horiz-adv-x="449" 
d="M447 354h-165l-50 -354h-220l73 520h386zM298 -130h-167l10 130h-49l23 166h225z" />
    <glyph glyph-name="uni04F8" unicode="&#x4f8;" horiz-adv-x="1030" 
d="M549 515.5q59 -30.5 90.5 -84t31.5 -121.5q0 -99 -41 -168.5t-116 -105.5t-175 -36h-322l106 760h228l-30 -214h87q82 0 141 -30.5zM1046 760l-106 -760h-228l106 760h228zM381.5 193q29.5 18 45 46.5t15.5 58.5q0 32 -21.5 52.5t-70.5 20.5h-53l-28 -196h42
q41 0 70.5 18zM407 866.5q-27 27.5 -27 65.5q0 39 27 66t65 27t65.5 -27t27.5 -66q0 -38 -27.5 -65.5t-65.5 -27.5t-65 27.5zM654.5 866.5q-27.5 27.5 -27.5 65.5q0 39 27.5 66t65.5 27t64.5 -27t26.5 -66q0 -38 -27 -65.5t-64 -27.5q-38 0 -65.5 27.5z" />
    <glyph glyph-name="uni04F9" unicode="&#x4f9;" horiz-adv-x="900" 
d="M476.5 374.5q49.5 -22.5 75.5 -61t26 -86.5q0 -109 -77 -168t-210 -59h-279l73 520h217l-17 -123h73q69 0 118.5 -22.5zM888 520l-73 -520h-220l73 520h220zM346 160.5q23 20.5 23 52.5q0 25 -16.5 34.5t-46.5 9.5h-41l-16 -117h31q43 0 66 20.5zM297 626.5
q-27 27.5 -27 65.5q0 39 27 66t65 27t65.5 -27t27.5 -66q0 -38 -27.5 -65.5t-65.5 -27.5t-65 27.5zM544.5 626.5q-27.5 27.5 -27.5 65.5q0 39 27.5 66t65.5 27t64.5 -27t26.5 -66q0 -38 -27 -65.5t-64 -27.5q-38 0 -65.5 27.5z" />
    <glyph glyph-name="uni04FC" unicode="&#x4fc;" horiz-adv-x="729" 
d="M573 258q38 -83 53.5 -125.5t15.5 -83.5q0 -80 -41.5 -140t-116 -93.5t-171.5 -35.5l1 183q52 7 82.5 35t30.5 72q0 35 -11 58l-38 80l-146 -208h-269l313 396l-186 364h238l74 -191l128 191h269l-289 -364z" />
    <glyph glyph-name="uni04FD" unicode="&#x4fd;" horiz-adv-x="603" 
d="M459 190q34 -67 50 -110t16 -78q0 -110 -81.5 -166t-235.5 -56l3 165q50 0 85.5 24.5t35.5 69.5q0 21 -9.5 45.5t-23.5 43.5l-4 5l-89 -133h-253l233 261l-150 259h222l51 -130l89 130h252l-227 -259z" />
    <glyph glyph-name="uni0510" unicode="&#x510;" horiz-adv-x="653" 
d="M462 537v9q-1 27 -19.5 43t-53.5 16q-71 0 -71 -63q0 -31 27 -49t74 -18h91l-23 -154h-102q-67 0 -101 -20t-34 -72q0 -33 22.5 -52.5t62.5 -19.5q38 0 61.5 19t23.5 49l208 -3q-22 -131 -111.5 -184t-226.5 -53q-81 0 -143 28.5t-95.5 75.5t-33.5 99q0 82 41.5 139
t127.5 81q-91 50 -91 143q0 75 40 125.5t107.5 74.5t151.5 24q120 0 193.5 -53t80.5 -155v-13z" />
    <glyph glyph-name="uni0511" unicode="&#x511;" horiz-adv-x="560" 
d="M300.5 132q11.5 9 18.5 26l211 -2q-27 -86 -95 -128.5t-189 -42.5q-120 0 -178.5 39.5t-58.5 112.5q0 52 29.5 92t86.5 58q-28 13 -43.5 37t-15.5 58q0 70 65 111.5t182 41.5q216 0 243 -162l-203 -21q-4 49 -48 49q-20 0 -32 -9.5t-12 -27.5q0 -22 18 -35t44 -13h71
l-14 -100h-103q-27 0 -42.5 -14.5t-15.5 -38.5q0 -40 47 -40q23 0 34.5 9z" />
    <glyph glyph-name="uni0512" unicode="&#x512;" horiz-adv-x="731" 
d="M698 50q0 -126 -83.5 -195.5t-246.5 -74.5l3 183q52 11 76.5 35.5t24.5 69.5q0 25 -3 49l-48 416l-211 -533h-247l352 760h260l118 -659q5 -27 5 -51z" />
    <glyph glyph-name="uni0513" unicode="&#x513;" horiz-adv-x="612" 
d="M569 12q0 -232 -320 -232l3 165q46 0 77.5 23t31.5 65q0 24 -6 84l-28 232l-137 -349h-222l254 520h240l89 -393q18 -79 18 -115z" />
    <glyph glyph-name="uni051C" unicode="&#x51c;" horiz-adv-x="1080" 
d="M1140 760l-300 -760h-234l-41 442l-161 -442h-234l-90 760h237l13 -531l176 531h201l32 -533l162 533h239z" />
    <glyph glyph-name="uni051D" unicode="&#x51d;" horiz-adv-x="886" 
d="M923 520l-241 -520h-210l-31 266l-96 -266h-210l-98 520h229l14 -324l112 324h171l23 -322l101 322h236z" />
    <glyph glyph-name="uni0524" unicode="&#x524;" horiz-adv-x="807" 
d="M662 0h-228l80 576h-189l-80 -576h-228l106 760h645zM751 -140h-185l11 140h-56l25 184h250z" />
    <glyph glyph-name="uni0525" unicode="&#x525;" horiz-adv-x="684" 
d="M557 0h-220l50 354h-105l-50 -354h-220l73 520h545zM624 -130h-167l10 130h-49l23 166h225z" />
    <glyph glyph-name="uni0526" unicode="&#x526;" horiz-adv-x="808" 
d="M567 465.5q60 -24.5 96 -75.5t36 -127q0 -18 -4 -50l-30 -213h-229l27 198q3 21 3 38q0 36 -19 50t-66 14h-93l-42 -300h-229l106 760h229l-38 -270h121q72 0 132 -24.5zM752 -140h-185l11 140h-56l25 184h250z" />
    <glyph glyph-name="uni0527" unicode="&#x527;" horiz-adv-x="711" 
d="M591 488.5q39 -46.5 39 -122.5q0 -34 -5 -68l-42 -298h-220l38 268q5 35 5 52q0 29 -13 41.5t-37 12.5q-65 0 -84 -89l-40 -285h-220l106 760h220l-43 -310q33 41 79 63t100 22q78 0 117 -46.5zM651 -130h-167l10 130h-49l23 166h225z" />
    <glyph glyph-name="Wgrave" unicode="&#x1e80;" horiz-adv-x="1080" 
d="M1140 760l-300 -760h-234l-41 442l-161 -442h-234l-90 760h237l13 -531l176 531h201l32 -533l162 533h239zM593 1001l95 -174h-131l-170 174h206z" />
    <glyph glyph-name="wgrave" unicode="&#x1e81;" horiz-adv-x="886" 
d="M923 520l-241 -520h-210l-31 266l-96 -266h-210l-98 520h229l14 -324l112 324h171l23 -322l101 322h236zM453 761l95 -174h-131l-170 174h206z" />
    <glyph glyph-name="Wacute" unicode="&#x1e82;" horiz-adv-x="1080" 
d="M1140 760l-300 -760h-234l-41 442l-161 -442h-234l-90 760h237l13 -531l176 531h201l32 -533l162 533h239zM683 827h-131l95 174h206z" />
    <glyph glyph-name="wacute" unicode="&#x1e83;" horiz-adv-x="886" 
d="M923 520l-241 -520h-210l-31 266l-96 -266h-210l-98 520h229l14 -324l112 324h171l23 -322l101 322h236zM543 587h-131l95 174h206z" />
    </font>
</defs>
</svg>
