<?xml version="1.0" standalone="no"?>
<!DOCTYPE svg PUBLIC "-//W3C//DTD SVG 1.1//EN" "http://www.w3.org/Graphics/SVG/1.1/DTD/svg11.dtd" >
<svg xmlns="http://www.w3.org/2000/svg" xmlns:xlink="http://www.w3.org/1999/xlink" version="1.1">
<metadata>
Created by FontForge 20170731 at Wed Nov 22 21:08:59 2017
 By Aleksey,,,
Copyright (c) 2017 by Andreu Balius. All rights reserved.
</metadata>
<defs>
<font id="SeatBcn-Web-MediumCondensed" horiz-adv-x="0" >
  <font-face 
    font-family="Seat Bcn - Web Medium Condensed"
    font-weight="500"
    font-stretch="condensed"
    units-per-em="1000"
    panose-1="0 0 6 6 0 0 0 0 0 0"
    ascent="760"
    descent="-240"
    x-height="517"
    cap-height="760"
    bbox="-427 -559 4193 1271"
    underline-thickness="50"
    underline-position="-150"
    unicode-range="U+000D-FEFC"
  />
<missing-glyph horiz-adv-x="600" 
d="M100 705h400v-705h-400v705zM438 62v581h-276v-581h276z" />
    <glyph glyph-name="fi" unicode="fi" horiz-adv-x="550" 
d="M491 0h-129v413h-161v-413h-129v413h-65l7 104h58v26q0 126 47.5 177.5t141.5 51.5q50 0 94 -13t74 -32l-30 -86q-22 13 -50 21.5t-56 8.5q-46 0 -69 -27.5t-23 -98.5v-28h290v-517z" />
    <glyph glyph-name="fl" unicode="fl" horiz-adv-x="591" 
d="M576 -9q-19 -3 -46 -3q-63 0 -99 17.5t-52.5 59t-16.5 115.5v479q-38 12 -68 12q-47 0 -70 -27.5t-23 -98.5v-28h92v-104h-92v-413h-129v413h-65l7 104h58v26q0 126 47.5 177.5t142.5 51.5q64 0 129.5 -16t99.5 -36v-539q0 -49 14.5 -67t52.5 -18h10z" />
    <glyph glyph-name="uniFB2A" unicode="&#x5e9;&#x5c1;" horiz-adv-x="713" 
d="M666 588v-242q0 -190 -81.5 -274t-228.5 -84t-228 84t-81 274v242h130v-229q0 -50 4 -82q59 10 85.5 51.5t26.5 130.5v129h127v-108q0 -131 -55.5 -192.5t-173.5 -73.5q17 -68 57 -94.5t108 -26.5q63 0 101.5 22.5t58 80.5t19.5 163v229h131zM574 674q-10 10 -10 23
q0 14 10 23.5t23 9.5q14 0 23.5 -9.5t9.5 -23.5q0 -13 -9.5 -23t-23.5 -10q-13 0 -23 10z" />
    <glyph glyph-name="uniFB2B" unicode="&#x5e9;&#x5c2;" horiz-adv-x="713" 
d="M666 588v-242q0 -190 -81.5 -274t-228.5 -84t-228 84t-81 274v242h130v-229q0 -50 4 -82q59 10 85.5 51.5t26.5 130.5v129h127v-108q0 -131 -55.5 -192.5t-173.5 -73.5q17 -68 57 -94.5t108 -26.5q63 0 101.5 22.5t58 80.5t19.5 163v229h131zM90 675q-10 10 -10 23
q0 14 10 23.5t23 9.5q14 0 23.5 -9.5t9.5 -23.5q0 -13 -9.5 -23t-23.5 -10q-13 0 -23 10z" />
    <glyph glyph-name="uniFB2C" unicode="&#x5e9;&#x5bc;&#x5c1;" horiz-adv-x="713" 
d="M666 588v-242q0 -190 -81.5 -274t-228.5 -84t-228 84t-81 274v242h130v-229q0 -50 4 -82q59 10 85.5 51.5t26.5 130.5v129h127v-108q0 -131 -55.5 -192.5t-173.5 -73.5q17 -68 57 -94.5t108 -26.5q63 0 101.5 22.5t58 80.5t19.5 163v229h131zM405 207q-10 10 -10 23
q0 14 10 23.5t23 9.5q14 0 23.5 -9.5t9.5 -23.5q0 -13 -9.5 -23t-23.5 -10q-13 0 -23 10zM574 674q-10 10 -10 23q0 14 10 23.5t23 9.5q14 0 23.5 -9.5t9.5 -23.5q0 -13 -9.5 -23t-23.5 -10q-13 0 -23 10z" />
    <glyph glyph-name="uniFB2D" unicode="&#x5e9;&#x5bc;&#x5c2;" horiz-adv-x="713" 
d="M666 588v-242q0 -190 -81.5 -274t-228.5 -84t-228 84t-81 274v242h130v-229q0 -50 4 -82q59 10 85.5 51.5t26.5 130.5v129h127v-108q0 -131 -55.5 -192.5t-173.5 -73.5q17 -68 57 -94.5t108 -26.5q63 0 101.5 22.5t58 80.5t19.5 163v229h131zM405 207q-10 10 -10 23
q0 14 10 23.5t23 9.5q14 0 23.5 -9.5t9.5 -23.5q0 -13 -9.5 -23t-23.5 -10q-13 0 -23 10zM90 675q-10 10 -10 23q0 14 10 23.5t23 9.5q14 0 23.5 -9.5t9.5 -23.5q0 -13 -9.5 -23t-23.5 -10q-13 0 -23 10z" />
    <glyph glyph-name="uniFB30" unicode="&#x5d0;&#x5bc;" horiz-adv-x="566" 
d="M403 0l-196 326q-12 -20 -19 -52.5t-13 -85.5l-19 -188h-132l21 183q17 147 112 196l-139 209h153l166 -283q26 18 39 55.5t21 104.5l14 123h134l-17 -124q-12 -83 -46.5 -135.5t-96.5 -73.5l169 -255h-151zM294 482q-10 10 -10 23q0 14 10 23.5t23 9.5q14 0 23.5 -9.5
t9.5 -23.5q0 -13 -9.5 -23t-23.5 -10q-13 0 -23 10z" />
    <glyph glyph-name="uniFB31" unicode="&#x5d1;&#x5bc;" horiz-adv-x="513" 
d="M501 107v-107h-473v107h273v222q0 85 -35.5 120.5t-114.5 35.5q-48 0 -107 -8l7 104q63 12 118 12q126 0 195.5 -66.5t69.5 -199.5v-220h67zM141 264q-10 10 -10 23q0 14 10 23.5t23 9.5q14 0 23.5 -9.5t9.5 -23.5q0 -13 -9.5 -23t-23.5 -10q-13 0 -23 10z" />
    <glyph glyph-name="uniFB32" unicode="&#x5d2;&#x5bc;" horiz-adv-x="387" 
d="M240 0l-41 176q-66 -131 -174 -188v142q86 49 158 141v208h-137l8 109h261v-333l41 -255h-116zM59 322q-10 10 -10 23q0 14 10 23.5t23 9.5q14 0 23.5 -9.5t9.5 -23.5q0 -13 -9.5 -23t-23.5 -10q-13 0 -23 10z" />
    <glyph glyph-name="uniFB33" unicode="&#x5d3;&#x5bc;" horiz-adv-x="485" 
d="M454 481h-59v-481h-133v481h-252l7 107h444zM108 252q-10 10 -10 23q0 14 10 23.5t23 9.5q14 0 23.5 -9.5t9.5 -23.5q0 -13 -9.5 -23t-23.5 -10q-13 0 -23 10z" />
    <glyph glyph-name="uniFB34" unicode="&#x5d4;&#x5bc;" horiz-adv-x="583" 
d="M399 0v328q0 84 -36.5 120.5t-120.5 36.5q-83 0 -180 -16l7 105q86 19 181 19q281 0 281 -266v-327h-132zM64 330h128v-330h-128v330zM267 256q-10 10 -10 23q0 14 10 23.5t23 9.5q14 0 23.5 -9.5t9.5 -23.5q0 -13 -9.5 -23t-23.5 -10q-13 0 -23 10z" />
    <glyph glyph-name="uniFB35" unicode="&#x5d5;&#x5bc;" horiz-adv-x="293" 
d="M109 481h-75l8 107h200v-588h-133v481zM10 252q-10 10 -10 23q0 14 10 23.5t23 9.5q14 0 23.5 -9.5t9.5 -23.5q0 -13 -9.5 -23t-23.5 -10q-13 0 -23 10z" />
    <glyph glyph-name="uniFB36" unicode="&#x5d6;&#x5bc;" horiz-adv-x="360" 
d="M347 588l-7 -107h-3q-51 0 -73.5 -37t-22.5 -118q0 -55 17 -145.5t40 -180.5h-132q-22 83 -39 171t-17 145q0 115 70 165h-123l8 107h282zM27 252q-10 10 -10 23q0 14 10 23.5t23 9.5q14 0 23.5 -9.5t9.5 -23.5q0 -13 -9.5 -23t-23.5 -10q-13 0 -23 10z" />
    <glyph glyph-name="uniFB38" unicode="&#x5d8;&#x5bc;" horiz-adv-x="601" 
d="M486.5 65.5q-72.5 -77.5 -193.5 -77.5q-117 0 -179 70.5t-62 190.5v339h132v-330q0 -162 111 -162q55 0 93 46t38 151q0 91 -31.5 141.5t-86.5 50.5q-23 0 -41 -8l-8 105q40 11 80 11q66 0 115.5 -35.5t77 -102t27.5 -157.5q0 -155 -72.5 -232.5zM276 259q-10 10 -10 23
q0 14 10 23.5t23 9.5q14 0 23.5 -9.5t9.5 -23.5q0 -13 -9.5 -23t-23.5 -10q-13 0 -23 10z" />
    <glyph glyph-name="uniFB39" unicode="&#x5d9;&#x5bc;" horiz-adv-x="301" 
d="M102 481h-75l9 107h199v-404h-133v297zM8 320q-10 10 -10 23q0 14 10 23.5t23 9.5q14 0 23.5 -9.5t9.5 -23.5q0 -13 -9.5 -23t-23.5 -10q-13 0 -23 10z" />
    <glyph glyph-name="uniFB3A" unicode="&#x5da;&#x5bc;" horiz-adv-x="457" 
d="M273 327q0 86 -36.5 122t-113.5 36q-58 0 -111 -7l7 103q56 12 119 12q129 0 198 -66.5t69 -200.5v-524h-132v525zM106 275q-10 10 -10 23q0 14 10 23.5t23 9.5q14 0 23.5 -9.5t9.5 -23.5q0 -13 -9.5 -23t-23.5 -10q-13 0 -23 10z" />
    <glyph glyph-name="uniFB3B" unicode="&#x5db;&#x5bc;" horiz-adv-x="480" 
d="M286.5 405.5q-17.5 42.5 -53 61t-94.5 18.5q-41 0 -92 -7l6 105q52 10 104 10q142 0 211.5 -73.5t69.5 -229.5q0 -155 -69.5 -228.5t-214.5 -73.5q-56 0 -124 14l10 103q50 -8 86 -8q64 0 102.5 17t57 59t18.5 116t-17.5 116.5zM132 265q-10 10 -10 23q0 14 10 23.5
t23 9.5q14 0 23.5 -9.5t9.5 -23.5q0 -13 -9.5 -23t-23.5 -10q-13 0 -23 10z" />
    <glyph glyph-name="uniFB3C" unicode="&#x5dc;&#x5bc;" horiz-adv-x="443" 
d="M230 0h-137l193 481h-278v232h128v-125h296l-8 -106zM81 312q-10 10 -10 23q0 14 10 23.5t23 9.5q14 0 23.5 -9.5t9.5 -23.5q0 -13 -9.5 -23t-23.5 -10q-13 0 -23 10z" />
    <glyph glyph-name="uniFB3E" unicode="&#x5de;&#x5bc;" horiz-adv-x="613" 
d="M515.5 520.5q55.5 -74.5 55.5 -241.5q0 -147 -56.5 -213t-176.5 -66q-57 0 -67 1v106h44q44 0 70.5 16t40 55t13.5 108q0 110 -25.5 153.5t-78.5 43.5q-50 0 -79 -33.5t-41 -116.5l-50 -333h-129l59 338l-83 250h139l16 -162q21 85 73.5 127t123.5 42q96 0 151.5 -74.5z
M299 266q-10 10 -10 23q0 14 10 23.5t23 9.5q14 0 23.5 -9.5t9.5 -23.5q0 -13 -9.5 -23t-23.5 -10q-13 0 -23 10z" />
    <glyph glyph-name="uniFB40" unicode="&#x5e0;&#x5bc;" horiz-adv-x="332" 
d="M22 108h46q28 0 45 7.5t26 29.5t9 64v272h-114l8 107h238v-381q0 -111 -51 -159t-144 -48h-63v108zM42 275q-10 10 -10 23q0 14 10 23.5t23 9.5q14 0 23.5 -9.5t9.5 -23.5q0 -13 -9.5 -23t-23.5 -10q-13 0 -23 10z" />
    <glyph glyph-name="uniFB41" unicode="&#x5e1;&#x5bc;" horiz-adv-x="593" 
d="M114 60q-62 72 -62 211v301q94 21 208 21q147 0 219 -73.5t72 -228.5q0 -151 -65 -227t-188 -76q-122 0 -184 72zM387.5 141q31.5 45 31.5 148q0 106 -37 151t-121 45q-35 0 -82 -7v-207q0 -93 29 -134t89 -41q59 0 90.5 45zM272 276q-10 10 -10 23q0 14 10 23.5t23 9.5
q14 0 23.5 -9.5t9.5 -23.5q0 -13 -9.5 -23t-23.5 -10q-13 0 -23 10z" />
    <glyph glyph-name="uniFB43" unicode="&#x5e3;&#x5bc;" horiz-adv-x="565" 
d="M381 307q0 98 -29 139.5t-89 41.5q-52 0 -80.5 -31t-28.5 -92q0 -51 19.5 -79t51.5 -28h10v-99h-22q-83 0 -136.5 52t-53.5 155q0 114 66.5 172t174.5 58q121 0 185 -71t64 -209v-514h-132v505zM242 347q-10 10 -10 23q0 14 10 23.5t23 9.5q14 0 23.5 -9.5t9.5 -23.5
q0 -13 -9.5 -23t-23.5 -10q-13 0 -23 10z" />
    <glyph glyph-name="uniFB44" unicode="&#x5e4;&#x5bc;" horiz-adv-x="565" 
d="M52 2l11 100q54 -9 133 -9q71 0 113.5 18t63 60.5t20.5 116.5q0 105 -36.5 152.5t-96.5 47.5q-50 0 -74.5 -25.5t-24.5 -70.5q0 -36 16 -58t43 -22h7v-93h-16q-84 0 -132.5 45.5t-48.5 130.5q0 95 63 148t168 53q126 0 194.5 -78.5t68.5 -230.5q0 -155 -78 -227t-235 -72
q-82 0 -159 14zM250 354q-10 10 -10 23q0 14 10 23.5t23 9.5q14 0 23.5 -9.5t9.5 -23.5q0 -13 -9.5 -23t-23.5 -10q-13 0 -23 10z" />
    <glyph glyph-name="uniFB46" unicode="&#x5e6;&#x5bc;" horiz-adv-x="534" 
d="M455 324.5q-35 -51.5 -101 -70.5l163 -254h-490v107h274l-298 481h144l168 -283q27 19 40.5 56.5t21.5 101.5l14 125h126l-16 -126q-11 -86 -46 -137.5zM86 202q-10 10 -10 23q0 14 10 23.5t23 9.5q14 0 23.5 -9.5t9.5 -23.5q0 -13 -9.5 -23t-23.5 -10q-13 0 -23 10z" />
    <glyph glyph-name="uniFB47" unicode="&#x5e7;&#x5bc;" horiz-adv-x="553" 
d="M385 0h-126l148 481h-352l8 107h477l-7 -104zM58 340h126v-538h-126v538zM247 335q-10 10 -10 23q0 14 10 23.5t23 9.5q14 0 23.5 -9.5t9.5 -23.5q0 -13 -9.5 -23t-23.5 -10q-13 0 -23 10z" />
    <glyph glyph-name="uniFB48" unicode="&#x5e8;&#x5bc;" horiz-adv-x="457" 
d="M273 327q0 86 -36.5 122t-113.5 36q-45 0 -111 -7l7 105q60 10 119 10q129 0 198 -66.5t69 -200.5v-326h-132v327zM108 242q-10 10 -10 23q0 14 10 23.5t23 9.5q14 0 23.5 -9.5t9.5 -23.5q0 -13 -9.5 -23t-23.5 -10q-13 0 -23 10z" />
    <glyph glyph-name="uniFB49" unicode="&#x5e9;&#x5bc;" horiz-adv-x="713" 
d="M666 588v-242q0 -190 -81.5 -274t-228.5 -84t-228 84t-81 274v242h130v-229q0 -50 4 -82q59 10 85.5 51.5t26.5 130.5v129h127v-108q0 -131 -55.5 -192.5t-173.5 -73.5q17 -68 57 -94.5t108 -26.5q63 0 101.5 22.5t58 80.5t19.5 163v229h131zM405 207q-10 10 -10 23
q0 14 10 23.5t23 9.5q14 0 23.5 -9.5t9.5 -23.5q0 -13 -9.5 -23t-23.5 -10q-13 0 -23 10z" />
    <glyph glyph-name="uniFB4A" unicode="&#x5ea;&#x5bc;" horiz-adv-x="627" 
d="M576 326v-326h-133v327q0 60 -14.5 94t-49.5 50t-97 16q-24 0 -38 -1v-279q0 -112 -47.5 -159.5t-140.5 -47.5h-36v109h18q41 0 60 19.5t19 80.5v269q-43 -4 -91 -11l7 103q57 11 125 18t127 7q291 0 291 -269zM318 250q-10 10 -10 23q0 14 10 23.5t23 9.5
q14 0 23.5 -9.5t9.5 -23.5q0 -13 -9.5 -23t-23.5 -10q-13 0 -23 10z" />
    <glyph glyph-name="uniFB4B" unicode="&#x5d5;&#x5b9;" horiz-adv-x="263" 
d="M85 481h-75l8 107h200v-588h-133v481zM95 675q-10 10 -10 23q0 14 10 23.5t23 9.5q14 0 23.5 -9.5t9.5 -23.5q0 -13 -9.5 -23t-23.5 -10q-13 0 -23 10z" />
    <glyph glyph-name="uniFEF5" unicode="&#xfedf;&#xfe82;" horiz-adv-x="568" arabic-form="isolated" 
d="M510 760v-577q0 -71 -19 -111t-56 -56t-95 -16h-305v134h153l-103 516h115l103 -516h27q25 0 39 6.5t20 24.5t6 52v543h115zM298 780v65q-25 -16 -44 -23t-43 -7t-42.5 7t-43.5 23l-88 -43l21 -56l67 34q38 -30 86 -30q49 0 87 30z" />
    <glyph glyph-name="uniFEF6" unicode="&#xfee0;&#xfe82;" horiz-adv-x="598" arabic-form="final" 
d="M598 134v-134h-10q-39 0 -65.5 12t-39.5 45q-20 -31 -55 -44t-88 -13h-305v134h153l-103 516h115l103 -516h27q25 0 39 6.5t20 24.5t6 52v543h115v-543q0 -34 6 -52t20 -24.5t39 -6.5h23zM298 780v65q-25 -16 -44 -23t-43 -7t-42.5 7t-43.5 23l-88 -43l21 -56l67 34
q38 -30 86 -30q49 0 87 30z" />
    <glyph glyph-name="uniFEF7" unicode="&#xfedf;&#xfe84;" horiz-adv-x="568" arabic-form="isolated" 
d="M510 760v-577q0 -71 -19 -111t-56 -56t-95 -16h-305v134h153l-103 516h115l103 -516h27q25 0 39 6.5t20 24.5t6 52v543h115zM250 747h-200v65h41q-10 22 -10 45q0 48 27.5 75.5t71.5 27.5q27 0 49 -11l-2 -65q-22 11 -44 11q-20 0 -32.5 -11t-12.5 -30q0 -17 11 -29.5
t32 -12.5h69v-65z" />
    <glyph glyph-name="uniFEF8" unicode="&#xfee0;&#xfe84;" horiz-adv-x="588" arabic-form="final" 
d="M598 134v-134h-10q-39 0 -65.5 12t-39.5 45q-20 -31 -55 -44t-88 -13h-305v134h153l-103 516h115l103 -516h27q25 0 39 6.5t20 24.5t6 52v543h115v-543q0 -34 6 -52t20 -24.5t39 -6.5h23zM250 747h-200v65h41q-10 22 -10 45q0 48 27.5 75.5t71.5 27.5q27 0 49 -11l-2 -65
q-22 11 -44 11q-20 0 -32.5 -11t-12.5 -30q0 -17 11 -29.5t32 -12.5h69v-65z" />
    <glyph glyph-name="uniFEF9" unicode="&#xfedf;&#xfe88;" horiz-adv-x="568" arabic-form="isolated" 
d="M510 760v-577q0 -71 -19 -111t-56 -56t-95 -16h-305v134h153l-103 516h115l103 -516h27q25 0 39 6.5t20 24.5t6 52v543h115zM340 -269h-200v65h41q-10 22 -10 45q0 48 27.5 75.5t71.5 27.5q27 0 49 -11l-2 -65q-22 11 -44 11q-20 0 -32.5 -11t-12.5 -30q0 -17 11 -29.5
t32 -12.5h69v-65z" />
    <glyph glyph-name="uniFEFA" unicode="&#xfee0;&#xfe88;" horiz-adv-x="588" arabic-form="final" 
d="M598 134v-134h-10q-39 0 -65.5 12t-39.5 45q-20 -31 -55 -44t-88 -13h-305v134h153l-103 516h115l103 -516h27q25 0 39 6.5t20 24.5t6 52v543h115v-543q0 -34 6 -52t20 -24.5t39 -6.5h23zM340 -269h-200v65h41q-10 22 -10 45q0 48 27.5 75.5t71.5 27.5q27 0 49 -11
l-2 -65q-22 11 -44 11q-20 0 -32.5 -11t-12.5 -30q0 -17 11 -29.5t32 -12.5h69v-65z" />
    <glyph glyph-name="uniFEFB" unicode="&#xfedf;&#xfe8e;" horiz-adv-x="568" arabic-form="isolated" 
d="M510 760v-577q0 -71 -19 -111t-56 -56t-95 -16h-305v134h153l-103 516h115l103 -516h27q25 0 39 6.5t20 24.5t6 52v543h115z" />
    <glyph glyph-name="uniFEFC" unicode="&#xfee0;&#xfe8e;" horiz-adv-x="588" arabic-form="final" 
d="M598 134v-134h-10q-39 0 -65.5 12t-39.5 45q-20 -31 -55 -44t-88 -13h-305v134h153l-103 516h115l103 -516h27q25 0 39 6.5t20 24.5t6 52v543h115v-543q0 -34 6 -52t20 -24.5t39 -6.5h23z" />
    <glyph glyph-name="f_f" unicode="ff" horiz-adv-x="608" 
d="M506 650q-15 -21 -15 -75v-58h108v-104h-108v-413h-129v413h-161v-413h-129v413h-65l7 104h58v67q0 102 39 145t116 43q53 0 92 -18l-11 -92q-24 12 -46 12q-31 0 -46 -20.5t-15 -75.5v-61h161v67q0 102 39 145t117 43q29 0 60 -6.5t47 -15.5l-9 -94q-28 15 -63 15
q-32 0 -47 -21z" />
    <glyph glyph-name="f_f_i" unicode="ffi" horiz-adv-x="838" 
d="M779 0h-129v413h-159v-413h-129v413h-161v-413h-129v413h-65l7 104h58v67q0 102 39 145t116 43q53 0 92 -18l-11 -92q-24 12 -46 12q-31 0 -46 -20.5t-15 -75.5v-61h161v26q0 125 47.5 177t141.5 52q50 0 94.5 -13t73.5 -32l-29 -86q-54 30 -107 30q-46 0 -69 -27.5
t-23 -98.5v-28h288v-517z" />
    <glyph glyph-name="f_f_l" unicode="ffl" horiz-adv-x="880" 
d="M865 -9q-19 -3 -47 -3q-62 0 -98.5 17.5t-53 59t-16.5 115.5v480q-33 11 -66 11q-47 0 -70 -27.5t-23 -98.5v-28h90v-104h-90v-413h-129v413h-161v-413h-129v413h-65l7 104h58v67q0 102 39 145t116 43q53 0 92 -18l-11 -92q-24 12 -46 12q-31 0 -46 -20.5t-15 -75.5v-61
h161v26q0 126 47.5 177.5t142.5 51.5q65 0 129.5 -16t97.5 -36v-539q0 -49 15 -67t53 -18h10z" />
    <glyph glyph-name="uni04570457.liga" unicode="&#x457;&#x457;" horiz-adv-x="534" 
d="M-19 638.5q-19 19.5 -19 45.5q0 27 19 46t45 19t45.5 -19t19.5 -46q0 -26 -19.5 -45.5t-45.5 -19.5t-45 19.5zM141 638.5q-19 19.5 -19 45.5q0 27 19 46t46 19q26 0 44.5 -19t18.5 -46q0 -26 -18.5 -45.5t-44.5 -19.5q-27 0 -46 19.5zM304 638.5q-19 19.5 -19 45.5
q0 27 19 46t45 19t45.5 -19t19.5 -46q0 -26 -19.5 -45.5t-45.5 -19.5t-45 19.5zM464 638.5q-19 19.5 -19 45.5q0 27 19 46t46 19q26 0 44.5 -19t18.5 -46q0 -26 -18.5 -45.5t-44.5 -19.5q-27 0 -46 19.5zM41 517h130v-517h-130v517zM364 517h130v-517h-130v517z" />
    <glyph glyph-name="uni06440671" unicode="&#xfedf;&#xfb51;" horiz-adv-x="568" 
d="M510 760v-577q0 -71 -19 -111t-56 -56t-95 -16h-305v134h153l-103 516h115l103 -516h27q25 0 39 6.5t20 24.5t6 52v543h115zM264.5 936.5q24.5 -26.5 24.5 -88.5v-98h-254v65h39q36 148 128 148q38 0 62.5 -26.5zM237 815v35q0 25 -11.5 38t-31.5 13q-24 0 -43 -21
t-30 -65h116z" />
    <glyph glyph-name="uni06440671.fina" unicode="&#xfee0;&#xfb51;" horiz-adv-x="588" 
d="M598 134v-134h-10q-39 0 -65.5 12t-39.5 45q-20 -31 -55 -44t-88 -13h-305v134h153l-103 516h115l103 -516h27q25 0 39 6.5t20 24.5t6 52v543h115v-543q0 -34 6 -52t20 -24.5t39 -6.5h23zM264.5 936.5q24.5 -26.5 24.5 -88.5v-98h-254v65h39q36 148 128 148
q38 0 62.5 -26.5zM237 815v35q0 25 -11.5 38t-31.5 13q-24 0 -43 -21t-30 -65h116z" />
    <glyph glyph-name="uni05DC05B9" unicode="&#x5dc;&#x5b9;" horiz-adv-x="443" 
d="M230 0h-137l193 481h-278v232h128v-125h296l-8 -106zM-74 675q-10 10 -10 23q0 14 10 23.5t23 9.5q14 0 23.5 -9.5t9.5 -23.5q0 -13 -9.5 -23t-23.5 -10q-13 0 -23 10z" />
    <glyph glyph-name="uni05DC05BC05B9" unicode="&#x5dc;&#x5b9;&#x5bc;" horiz-adv-x="443" 
d="M230 0h-137l193 481h-278v232h128v-125h296l-8 -106zM81 312q-10 10 -10 23q0 14 10 23.5t23 9.5q14 0 23.5 -9.5t9.5 -23.5q0 -13 -9.5 -23t-23.5 -10q-13 0 -23 10zM-74 675q-10 10 -10 23q0 14 10 23.5t23 9.5q14 0 23.5 -9.5t9.5 -23.5q0 -13 -9.5 -23t-23.5 -10
q-13 0 -23 10z" />
    <glyph glyph-name="uni066E.init" unicode="&#x66e;" horiz-adv-x="260" 
d="M-10 134h28q25 0 39 6.5t20 24.5t6 52v256h117v-292q0 -96 -41.5 -138.5t-129.5 -42.5h-39v134z" />
    <glyph glyph-name="uni066E.medi" unicode="&#x66e;" horiz-adv-x="281" 
d="M291 134v-134h-14q-38 0 -66 10.5t-44 40.5q-21 -27 -55 -39t-83 -12h-39v134h28q25 0 39 6.5t20 24.5t6 52v256h117v-256q0 -50 13.5 -66.5t50.5 -16.5h27z" />
    <glyph glyph-name="uni066E.fina" unicode="&#x66e;" horiz-adv-x="832" 
d="M842 134v-134h-15q-76 0 -105 48q-20 -26 -53.5 -37t-83.5 -11h-366q-59 0 -95.5 16t-55 56t-18.5 111v154h117v-120q0 -34 6 -52t20 -24.5t39 -6.5h341q25 0 39 6.5t20 24.5t6 52v256h117v-282q3 -34 16.5 -45.5t42.5 -11.5h28z" />
    <glyph glyph-name="uni066F.fina" unicode="&#x66f;" horiz-adv-x="800" 
d="M810 134v-134h-87v-17q0 -77 -22 -121.5t-65 -63t-112 -18.5h-176q-102 0 -168.5 40t-98 108t-31.5 153q0 43 10 91t26 85h116q-16 -36 -25 -77t-9 -77q0 -78 37.5 -133.5t138.5 -55.5h195q26 0 40 6.5t20.5 25t6.5 54.5h-49q-113 0 -176 67.5t-63 182.5q0 117 61 182
t177 65h167v-363h87zM606 134v237h-62q-54 0 -81.5 -30t-27.5 -89t28 -88.5t80 -29.5h63z" />
    <glyph glyph-name="uni06A1.init" unicode="&#x6a1;" horiz-adv-x="535" 
d="M475 30h-2v-30h-483v134h117q-37 58 -37 132q0 106 61.5 168.5t176.5 62.5h167v-467zM215 163.5q28 -29.5 80 -29.5h63v237h-62q-54 0 -81.5 -30t-27.5 -89t28 -88.5z" />
    <glyph glyph-name="uni06A1.medi" unicode="&#x6a1;" horiz-adv-x="555" 
d="M565 134v-134h-264v30q-3 1 -8 1l3 -31h-306v134h117q-37 58 -37 132q0 106 61.5 168.5t176.5 62.5h167v-363h90zM358 134v237h-62q-54 0 -81.5 -30t-27.5 -89t28 -88.5t80 -29.5h63z" />
    <glyph glyph-name="uni06A1.fina" unicode="&#x6a1;" horiz-adv-x="932" 
d="M942 134v-134h-119v30h-19l2 -30h-587q-60 0 -96.5 16.5t-54.5 56.5t-18 110v150h117v-116q0 -34 6 -52t20 -24.5t39 -6.5h255q-37 58 -37 132q0 106 61 168.5t176 62.5h168v-363h87zM594.5 163.5q27.5 -29.5 78.5 -29.5h65v237h-62q-54 0 -81.5 -30t-27.5 -89
t27.5 -88.5z" />
    <glyph glyph-name="uni06C2.fina" unicode="&#x6c2;" horiz-adv-x="600" 
d="M610 134v-134h-41q-87 0 -128 43t-41 138v165q-42 -2 -72.5 -31.5t-63 -99.5t-86.5 -215h-133q70 191 123.5 291t109 141t133.5 41h106v-256q0 -34 6 -52t20 -24.5t39 -6.5h28zM538 567h-200v65h41q-10 22 -10 45q0 48 27.5 75.5t71.5 27.5q27 0 49 -11l-2 -65
q-22 11 -44 11q-20 0 -32.5 -11t-12.5 -30q0 -17 11 -29.5t32 -12.5h69v-65z" />
    <glyph glyph-name="uni06C3.fina" unicode="&#x6c3;" horiz-adv-x="600" 
d="M610 134v-134h-41q-87 0 -128 43t-41 138v165q-42 -2 -72.5 -31.5t-63 -99.5t-86.5 -215h-133q70 191 123.5 291t109 141t133.5 41h106v-256q0 -34 6 -52t20 -24.5t39 -6.5h28zM316 621q-19 19 -19 46q0 28 19 47.5t47 19.5q27 0 46.5 -19.5t19.5 -47.5q0 -27 -19.5 -46
t-46.5 -19q-28 0 -47 19zM466 621q-19 19 -19 46q0 28 19 47.5t47 19.5t47 -19.5t19 -47.5q0 -27 -19 -46t-47 -19t-47 19z" />
    <glyph glyph-name="uniFB51" unicode="&#x671;" horiz-adv-x="259" arabic-form="final" 
d="M99.5 39.5q-41.5 39.5 -41.5 140.5v580h117v-543q0 -34 6 -52t20 -24.5t39 -6.5h29v-134h-45q-83 0 -124.5 39.5zM209.5 1040.5q24.5 -26.5 24.5 -88.5v-98h-254v65h39q36 148 128 148q38 0 62.5 -26.5zM182 919v35q0 25 -11.5 38t-31.5 13q-24 0 -43 -21t-30 -65h116z
" />
    <glyph glyph-name="uniFB57" unicode="&#x67e;" horiz-adv-x="832" arabic-form="final" 
d="M842 134v-134h-15q-76 0 -105 48q-20 -26 -53.5 -37t-83.5 -11h-366q-59 0 -95.5 16t-55 56t-18.5 111v154h117v-120q0 -34 6 -52t20 -24.5t39 -6.5h341q25 0 39 6.5t20 24.5t6 52v256h117v-282q3 -34 16.5 -45.5t42.5 -11.5h28zM272 -197q-18 18 -18 44q0 27 18 45
t44 18t44 -18t18 -45q0 -26 -18 -44t-44 -18t-44 18zM420 -197q-18 18 -18 44q0 27 18 45t44 18t44 -18t18 -45q0 -26 -18 -44t-44 -18t-44 18zM345.5 -320q-17.5 18 -17.5 44t17.5 44t43.5 18t44 -18t18 -44t-18 -44t-44 -18t-43.5 18z" />
    <glyph glyph-name="uniFB58" unicode="&#x67e;" horiz-adv-x="260" arabic-form="initial" 
d="M-10 134h28q25 0 39 6.5t20 24.5t6 52v256h117v-292q0 -96 -41.5 -138.5t-129.5 -42.5h-39v134zM18 -197q-18 18 -18 44q0 27 18 45t44 18t44 -18t18 -45q0 -26 -18 -44t-44 -18t-44 18zM166 -197q-18 18 -18 44q0 27 18 45t44 18t44 -18t18 -45q0 -26 -18 -44t-44 -18
t-44 18zM91.5 -320q-17.5 18 -17.5 44t17.5 44t43.5 18t44 -18t18 -44t-18 -44t-44 -18t-43.5 18z" />
    <glyph glyph-name="uniFB59" unicode="&#x67e;" horiz-adv-x="281" arabic-form="medial" 
d="M291 134v-134h-14q-38 0 -66 10.5t-44 40.5q-21 -27 -55 -39t-83 -12h-39v134h28q25 0 39 6.5t20 24.5t6 52v256h117v-256q0 -50 13.5 -66.5t50.5 -16.5h27zM23 -197q-18 18 -18 44q0 27 18 45t44 18t44 -18t18 -45q0 -26 -18 -44t-44 -18t-44 18zM171 -197
q-18 18 -18 44q0 27 18 45t44 18t44 -18t18 -45q0 -26 -18 -44t-44 -18t-44 18zM96.5 -320q-17.5 18 -17.5 44t17.5 44t43.5 18t44 -18t18 -44t-18 -44t-44 -18t-43.5 18z" />
    <glyph glyph-name="uniFB67" unicode="&#x679;" horiz-adv-x="832" arabic-form="final" 
d="M842 134v-134h-15q-76 0 -105 48q-20 -26 -53.5 -37t-83.5 -11h-366q-59 0 -95.5 16t-55 56t-18.5 111v154h117v-120q0 -34 6 -52t20 -24.5t39 -6.5h341q25 0 39 6.5t20 24.5t6 52v256h117v-282q3 -34 16.5 -45.5t42.5 -11.5h28zM496.5 624.5q24.5 -26.5 24.5 -88.5v-98
h-260v65h27v154h47v-69q36 63 99 63q38 0 62.5 -26.5zM467 503v36q0 25 -11 38t-29 13q-60 0 -84 -87h124z" />
    <glyph glyph-name="uniFB68" unicode="&#x679;" horiz-adv-x="260" arabic-form="initial" 
d="M-10 134h28q25 0 39 6.5t20 24.5t6 52v256h117v-292q0 -96 -41.5 -138.5t-129.5 -42.5h-39v134zM246.5 751.5q24.5 -26.5 24.5 -88.5v-98h-260v65h27v154h47v-69q36 63 99 63q38 0 62.5 -26.5zM217 630v36q0 25 -11 38t-29 13q-60 0 -84 -87h124z" />
    <glyph glyph-name="uniFB69" unicode="&#x679;" horiz-adv-x="281" arabic-form="medial" 
d="M291 134v-134h-14q-38 0 -66 10.5t-44 40.5q-21 -27 -55 -39t-83 -12h-39v134h28q25 0 39 6.5t20 24.5t6 52v256h117v-256q0 -50 13.5 -66.5t50.5 -16.5h27zM247.5 751.5q24.5 -26.5 24.5 -88.5v-98h-260v65h27v154h47v-69q36 63 99 63q38 0 62.5 -26.5zM218 630v36
q0 25 -11 38t-29 13q-60 0 -84 -87h124z" />
    <glyph glyph-name="uniFB6B" unicode="&#x6a4;" horiz-adv-x="932" arabic-form="final" 
d="M942 134v-134h-119v30h-19l2 -30h-587q-60 0 -96.5 16.5t-54.5 56.5t-18 110v150h117v-116q0 -34 6 -52t20 -24.5t39 -6.5h255q-37 58 -37 132q0 106 61 168.5t176 62.5h168v-363h87zM594.5 163.5q27.5 -29.5 78.5 -29.5h65v237h-62q-54 0 -81.5 -30t-27.5 -89
t27.5 -88.5zM643.5 720q-17.5 18 -17.5 45q0 26 17.5 44t43.5 18t44 -18t18 -44q0 -27 -18 -45t-44 -18t-43.5 18zM570 597q-18 18 -18 45q0 26 18 43.5t44 17.5t44 -17.5t18 -43.5q0 -27 -18 -45t-44 -18t-44 18zM718 597q-18 18 -18 45q0 26 18 43.5t44 17.5t44 -17.5
t18 -43.5q0 -27 -18 -45t-44 -18t-44 18z" />
    <glyph glyph-name="uniFB6C" unicode="&#x6a4;" horiz-adv-x="535" arabic-form="initial" 
d="M475 30h-2v-30h-483v134h117q-37 58 -37 132q0 106 61.5 168.5t176.5 62.5h167v-467zM215 163.5q28 -29.5 80 -29.5h63v237h-62q-54 0 -81.5 -30t-27.5 -89t28 -88.5zM259.5 720q-17.5 18 -17.5 45q0 26 17.5 44t43.5 18t44 -18t18 -44q0 -27 -18 -45t-44 -18t-43.5 18z
M186 597q-18 18 -18 45q0 26 18 43.5t44 17.5t44 -17.5t18 -43.5q0 -27 -18 -45t-44 -18t-44 18zM334 597q-18 18 -18 45q0 26 18 43.5t44 17.5t44 -17.5t18 -43.5q0 -27 -18 -45t-44 -18t-44 18z" />
    <glyph glyph-name="uniFB6D" unicode="&#x6a4;" horiz-adv-x="555" arabic-form="medial" 
d="M565 134v-134h-264v30q-3 1 -8 1l3 -31h-306v134h117q-37 58 -37 132q0 106 61.5 168.5t176.5 62.5h167v-363h90zM358 134v237h-62q-54 0 -81.5 -30t-27.5 -89t28 -88.5t80 -29.5h63zM259.5 720q-17.5 18 -17.5 45q0 26 17.5 44t43.5 18t44 -18t18 -44q0 -27 -18 -45
t-44 -18t-43.5 18zM186 597q-18 18 -18 45q0 26 18 43.5t44 17.5t44 -17.5t18 -43.5q0 -27 -18 -45t-44 -18t-44 18zM334 597q-18 18 -18 45q0 26 18 43.5t44 17.5t44 -17.5t18 -43.5q0 -27 -18 -45t-44 -18t-44 18z" />
    <glyph glyph-name="uniFB7B" unicode="&#x686;" horiz-adv-x="568" arabic-form="final" 
d="M173 -15q-17 -15 -17 -49q0 -41 25 -56.5t81 -15.5q26 0 38 1l-9 -124q-10 -1 -30 -1q-106 0 -166 48t-60 154q0 100 52.5 146t144.5 46h60q42 0 59 10t17 38q0 17 -3 32l-19 91q-9 43 -25 61t-56 18q-64 0 -147 -30l-9 121q25 11 73 22t96 11q76 0 118.5 -33.5
t59.5 -111.5l27 -124l8 -40q8 -36 23.5 -50.5t40.5 -14.5h23v-134h-13q-72 0 -97 46q-41 -46 -140 -46h-98q-40 0 -57 -15zM437 -206q-18 -18 -44 -18t-44 18t-18 44q0 27 18 45t44 18t44 -18t18 -45q0 -26 -18 -44zM585 -117q18 -18 18 -45q0 -26 -18 -44t-44 -18t-44 18
t-18 44q0 27 18 45t44 18t44 -18zM510 -241q18 -18 18 -44t-18 -44t-44 -18t-43.5 18t-17.5 44t17.5 44t43.5 18t44 -18z" />
    <glyph glyph-name="uniFB7C" unicode="&#x686;" horiz-adv-x="468" arabic-form="initial" 
d="M-10 134h236q35 0 51.5 10t16.5 38q0 17 -3 32l-19 91q-8 43 -24.5 61t-56.5 18q-64 0 -147 -30l-9 121q23 10 73 21.5t96 11.5q76 0 118.5 -34t59.5 -112l27 -123q14 -65 14 -105q0 -63 -40.5 -98.5t-128.5 -35.5h-264v134zM90 -197q-18 18 -18 44q0 27 18 45t44 18
t44 -18t18 -45q0 -26 -18 -44t-44 -18t-44 18zM238 -197q-18 18 -18 44q0 27 18 45t44 18t44 -18t18 -45q0 -26 -18 -44t-44 -18t-44 18zM163.5 -320q-17.5 18 -17.5 44t17.5 44t43.5 18t44 -18t18 -44t-18 -44t-44 -18t-43.5 18z" />
    <glyph glyph-name="uniFB7D" unicode="&#x686;" horiz-adv-x="492" arabic-form="medial" 
d="M502 134v-134h-14q-71 0 -95 45q-42 -45 -139 -45h-264v134h236q35 0 51.5 10t16.5 38q0 17 -3 32l-19 91q-8 43 -24.5 61t-56.5 18q-64 0 -147 -30l-9 121q23 10 73 21.5t96 11.5q76 0 118.5 -34t59.5 -112l27 -123l9 -48q9 -31 23.5 -44t38.5 -13h22zM88 -197
q-18 18 -18 44q0 27 18 45t44 18t44 -18t18 -45q0 -26 -18 -44t-44 -18t-44 18zM236 -197q-18 18 -18 44q0 27 18 45t44 18t44 -18t18 -45q0 -26 -18 -44t-44 -18t-44 18zM161.5 -320q-17.5 18 -17.5 44t17.5 44t43.5 18t44 -18t18 -44t-18 -44t-44 -18t-43.5 18z" />
    <glyph glyph-name="uniFB89" unicode="&#x688;" horiz-adv-x="460" arabic-form="final" 
d="M470 134v-134h-17q-39 0 -64 13.5t-35 50.5q-45 -64 -152 -64h-167v134h162q37 0 51 12.5t14 38.5q0 48 -39 100t-88 82l-24 15l19 140l33 -19q85 -49 149 -133t70 -184q6 -31 19.5 -41.5t41.5 -10.5h27zM255.5 785.5q24.5 -26.5 24.5 -88.5v-98h-260v65h27v154h47v-69
q36 63 99 63q38 0 62.5 -26.5zM226 664v36q0 25 -11 38t-29 13q-60 0 -84 -87h124z" />
    <glyph glyph-name="uniFB8B" unicode="&#x698;" horiz-adv-x="388" arabic-form="final" 
d="M398 134v-134h-17q-26 0 -44.5 5.5t-31.5 18.5v-63q0 -98 -42 -143t-126 -45q-26 0 -55 5t-49 13l8 128q33 -11 78 -11q27 0 41.5 6.5t21 25t6.5 53.5v480h117v-256q0 -50 13.5 -66.5t49.5 -16.5h30zM200.5 697q-17.5 18 -17.5 45q0 26 17.5 44t43.5 18t44 -18t18 -44
q0 -27 -18 -45t-44 -18t-43.5 18zM127 574q-18 18 -18 45q0 26 18 43.5t44 17.5t44 -17.5t18 -43.5q0 -27 -18 -45t-44 -18t-44 18zM275 574q-18 18 -18 45q0 26 18 43.5t44 17.5t44 -17.5t18 -43.5q0 -27 -18 -45t-44 -18t-44 18z" />
    <glyph glyph-name="uniFB8D" unicode="&#x691;" horiz-adv-x="388" arabic-form="final" 
d="M398 134v-134h-17q-26 0 -44.5 5.5t-31.5 18.5v-63q0 -98 -42 -143t-126 -45q-26 0 -55 5t-49 13l8 128q33 -11 78 -11q27 0 41.5 6.5t21 25t6.5 53.5v480h117v-256q0 -50 13.5 -66.5t49.5 -16.5h30zM351.5 751.5q24.5 -26.5 24.5 -88.5v-98h-260v65h27v154h47v-69
q36 63 99 63q38 0 62.5 -26.5zM322 630v36q0 25 -11 38t-29 13q-60 0 -84 -87h124z" />
    <glyph glyph-name="uniFB8F" unicode="&#x6a9;" horiz-adv-x="735" arabic-form="final" 
d="M745 134v-134h-11q-39 0 -65 11.5t-38 43.5q-19 -29 -54 -42t-90 -13h-268q-57 0 -93.5 15.5t-56 55.5t-19.5 112v150h117v-116q0 -34 6 -52t20 -24.5t39 -6.5h254q30 0 42 14.5t12 55.5v47q0 50 -20 73.5t-74 23.5h-165v121q46 99 129.5 179.5t193.5 126.5l10 -129
q-63 -28 -126 -75.5t-107 -101.5h67q113 0 161 -47.5t48 -157.5v-49q0 -49 13.5 -65t50.5 -16h24z" />
    <glyph glyph-name="uniFB90" unicode="&#x6a9;" horiz-adv-x="465" arabic-form="initial" 
d="M367 421.5q48 -47.5 48 -157.5v-87q0 -67 -17.5 -105.5t-55 -55t-100.5 -16.5h-252v134h253q31 0 43 14t12 56v47q0 50 -20 73.5t-74 23.5h-174v121q46 97 133.5 178t199.5 128l9 -129q-61 -27 -130 -76.5t-115 -100.5h79q113 0 161 -47.5z" />
    <glyph glyph-name="uniFB91" unicode="&#x6a9;" horiz-adv-x="507" arabic-form="medial" 
d="M517 134v-134h-12q-38 0 -64.5 11.5t-39.5 43.5q-19 -29 -54.5 -42t-91.5 -13h-252v134h253q31 0 43 14t12 56v47q0 50 -20 73.5t-74 23.5h-174v121q46 97 133.5 178t199.5 128l9 -129q-61 -27 -130 -76.5t-115 -100.5h79q113 0 161 -47.5t48 -157.5v-74q3 -33 17 -44.5
t46 -11.5h26z" />
    <glyph glyph-name="uniFB93" unicode="&#x6af;" horiz-adv-x="735" arabic-form="final" 
d="M432 716q-81 -68 -127 -145l-6 92q50 72 129.5 136t169.5 103l6 -77q-91 -41 -172 -109zM745 134v-134h-11q-39 0 -65 11.5t-38 43.5q-19 -29 -54 -42t-90 -13h-268q-57 0 -93.5 15.5t-56 55.5t-19.5 112v150h117v-116q0 -34 6 -52t20 -24.5t39 -6.5h254q30 0 42 14.5
t12 55.5v47q0 50 -20 73.5t-74 23.5h-165v121q46 99 129.5 179.5t193.5 126.5l10 -129q-63 -28 -126 -75.5t-107 -101.5h67q113 0 161 -47.5t48 -157.5v-49q0 -49 13.5 -65t50.5 -16h24z" />
    <glyph glyph-name="uniFB94" unicode="&#x6af;" horiz-adv-x="465" arabic-form="initial" 
d="M182 716q-81 -68 -128 -145l-6 92q52 72 131 136t169 103l6 -77q-91 -41 -172 -109zM367 421.5q48 -47.5 48 -157.5v-87q0 -67 -17.5 -105.5t-55 -55t-100.5 -16.5h-252v134h253q31 0 43 14t12 56v47q0 50 -20 73.5t-74 23.5h-174v121q46 97 133.5 178t199.5 128l9 -129
q-61 -27 -130 -76.5t-115 -100.5h79q113 0 161 -47.5z" />
    <glyph glyph-name="uniFB95" unicode="&#x6af;" horiz-adv-x="494" arabic-form="medial" 
d="M169 716q-81 -68 -127 -145l-6 92q50 72 129.5 136t169.5 103l6 -77q-91 -41 -172 -109zM504 134v-134h-12q-38 0 -64.5 11.5t-39.5 43.5q-19 -29 -54.5 -42t-91.5 -13h-252v134h253q31 0 43 14t12 56v47q0 50 -20 73.5t-74 23.5h-174v121q46 97 133.5 178t199.5 128
l9 -129q-61 -27 -130 -76.5t-115 -100.5h79q113 0 161 -47.5t48 -157.5v-74q3 -33 17 -44.5t46 -11.5h26z" />
    <glyph glyph-name="uniFB9F" unicode="&#x6ba;" horiz-adv-x="618" arabic-form="final" 
d="M628 134v-134h-13q-27 0 -46 6t-32 21q-9 -115 -71.5 -184.5t-168.5 -69.5q-77 0 -133 36.5t-85 100.5t-29 144q0 54 12.5 105.5t28.5 80.5h114q-17 -36 -27.5 -79t-10.5 -86q0 -73 31 -120.5t98 -47.5q70 0 97.5 49t27.5 135v302h117v-176q0 -50 13.5 -66.5t50.5 -16.5
h26z" />
    <glyph glyph-name="uniFBA7" unicode="&#x6c1;" horiz-adv-x="600" arabic-form="final" 
d="M610 134v-134h-41q-87 0 -128 43t-41 138v165q-42 -2 -72.5 -31.5t-63 -99.5t-86.5 -215h-133q70 191 123.5 291t109 141t133.5 41h106v-256q0 -34 6 -52t20 -24.5t39 -6.5h28z" />
    <glyph glyph-name="uniFBA8" unicode="&#x6c1;" horiz-adv-x="263" arabic-form="initial" 
d="M203 473v-292q0 -64 -18 -103.5t-55 -58.5h1q-22 -16 -34.5 -38.5t-12.5 -45.5q0 -19 12 -28.5t45 -9.5h14v-84h-27q-58 0 -89 26t-31 71q0 52 40 90h-14h-44v134h31q25 0 39 6.5t20 24.5t6 52v256h117z" />
    <glyph glyph-name="uniFBA9" unicode="&#x6c1;" horiz-adv-x="487" arabic-form="medial" 
d="M497 134v-134h-18q-40 0 -54 -16t-14 -61v-196h-96q-104 0 -177.5 73t-98.5 200h-49v134h144q15 -126 51 -196.5t108 -81.5v94q0 98 40 141t129 43h35z" />
    <glyph glyph-name="uniFBAB" unicode="&#x6be;" horiz-adv-x="678" arabic-form="final" 
d="M688 134v-134h-643v134h109q-24 38 -24 89q0 66 37.5 107.5t104.5 41.5q70 0 107 -46t37 -136v-56h69v34q0 162 -56.5 224.5t-154.5 62.5q-64 0 -125 -21l-8 118q60 18 134 18q143 0 233 -91.5t90 -313.5v-31h90zM231 153.5q17 -19.5 51 -19.5h46v54q0 88 -60 88
q-27 0 -40.5 -17t-13.5 -50q0 -36 17 -55.5z" />
    <glyph glyph-name="uniFBAC" unicode="&#x6be;" horiz-adv-x="597" arabic-form="initial" 
d="M456.5 478.5q90.5 -91.5 90.5 -313.5v-165h-557v134h112q-24 38 -24 89q0 66 37.5 107.5t105.5 41.5q70 0 107 -46t37 -136v-56h68v34q0 162 -56.5 224.5t-154.5 62.5q-64 0 -125 -21l-8 118q60 18 134 18q143 0 233.5 -91.5zM179 154q17 -20 51 -20h47v54q0 88 -61 88
q-27 0 -40.5 -17t-13.5 -50q0 -35 17 -55z" />
    <glyph glyph-name="uniFBAD" unicode="&#x6be;" horiz-adv-x="629" arabic-form="medial" 
d="M639 134v-134h-649v134h112q-24 38 -24 89q0 66 37.5 107.5t105.5 41.5q70 0 107 -46t37 -136v-56h68v34q0 162 -56.5 224.5t-154.5 62.5q-64 0 -125 -21l-8 118q60 18 134 18q143 0 233.5 -91.5t90.5 -313.5v-31h92zM179 154q17 -20 51 -20h47v54q0 88 -61 88
q-27 0 -40.5 -17t-13.5 -50q0 -35 17 -55z" />
    <glyph glyph-name="uniFBAF" unicode="&#x6d2;" horiz-adv-x="368" arabic-form="final" 
d="M105.5 -184q-50.5 43 -50.5 136t50.5 137.5t148.5 44.5h124v-134h-145q-61 0 -61 -47q0 -46 61 -46h415v-134h-394q-98 0 -148.5 43z" />
    <glyph glyph-name="uniFBB1" unicode="&#x6d3;" horiz-adv-x="368" arabic-form="final" 
d="M105.5 -184q-50.5 43 -50.5 136t50.5 137.5t148.5 44.5h124v-134h-145q-61 0 -61 -47q0 -46 61 -46h415v-134h-394q-98 0 -148.5 43zM284 228h-200v65h41q-10 22 -10 45q0 48 27.5 75.5t71.5 27.5q27 0 49 -11l-2 -65q-22 11 -44 11q-20 0 -32.5 -11t-12.5 -30
q0 -17 11 -29.5t32 -12.5h69v-65z" />
    <glyph glyph-name="uniFBE8" unicode="&#x649;" horiz-adv-x="260" arabic-form="initial" 
d="M-10 134h28q25 0 39 6.5t20 24.5t6 52v256h117v-292q0 -96 -41.5 -138.5t-129.5 -42.5h-39v134z" />
    <glyph glyph-name="uniFBE9" unicode="&#x649;" horiz-adv-x="281" arabic-form="medial" 
d="M291 134v-134h-14q-38 0 -66 10.5t-44 40.5q-21 -27 -55 -39t-83 -12h-39v134h28q25 0 39 6.5t20 24.5t6 52v256h117v-256q0 -50 13.5 -66.5t50.5 -16.5h27z" />
    <glyph glyph-name="uniFBFD" unicode="&#x6cc;" horiz-adv-x="828" arabic-form="final" 
d="M192.5 -191.5q-67.5 35.5 -105 102.5t-37.5 158q0 54 11.5 104t27.5 77h116q-18 -37 -27.5 -81t-9.5 -85q0 -83 46.5 -130t136.5 -47q52 0 84 16.5t44.5 38.5t12.5 39q0 13 -8 25t-27 32l-37 36q-28 28 -44.5 57.5t-16.5 72.5q0 77 51 120t127 43q46 0 79 -16t58.5 -47
t54.5 -85q23 -44 37 -65t28 -30.5t33 -9.5h11v-134h-25q-36 0 -61.5 13.5t-48 43.5t-55.5 89q-28 51 -46.5 77t-34.5 36.5t-36 10.5q-28 0 -41.5 -14.5t-13.5 -32.5q0 -16 10 -29.5t32 -34.5l27 -28q35 -34 50.5 -62.5t15.5 -73.5q0 -62 -32 -112.5t-91.5 -80t-137.5 -29.5
q-90 0 -157.5 35.5z" />
    <glyph glyph-name="uniFBFE" unicode="&#x6cc;" horiz-adv-x="260" arabic-form="initial" 
d="M-10 134h28q25 0 39 6.5t20 24.5t6 52v256h117v-292q0 -96 -41.5 -138.5t-129.5 -42.5h-39v134zM14 -204q-19 19 -19 46q0 28 19 47.5t47 19.5q27 0 46.5 -19.5t19.5 -47.5q0 -27 -19.5 -46t-46.5 -19q-28 0 -47 19zM164 -204q-19 19 -19 46q0 28 19 47.5t47 19.5
t47 -19.5t19 -47.5q0 -27 -19 -46t-47 -19t-47 19z" />
    <glyph glyph-name="uniFBFF" unicode="&#x6cc;" horiz-adv-x="281" arabic-form="medial" 
d="M291 134v-134h-14q-38 0 -66 10.5t-44 40.5q-21 -27 -55 -39t-83 -12h-39v134h28q25 0 39 6.5t20 24.5t6 52v256h117v-256q0 -50 13.5 -66.5t50.5 -16.5h27zM19 -204q-19 19 -19 46q0 28 19 47.5t47 19.5q27 0 46.5 -19.5t19.5 -47.5q0 -27 -19.5 -46t-46.5 -19
q-28 0 -47 19zM169 -204q-19 19 -19 46q0 28 19 47.5t47 19.5t47 -19.5t19 -47.5q0 -27 -19 -46t-47 -19t-47 19z" />
    <glyph glyph-name="uniFE82" unicode="&#x622;" horiz-adv-x="259" arabic-form="final" 
d="M99.5 39.5q-41.5 39.5 -41.5 140.5v580h117v-543q0 -34 6 -52t20 -24.5t39 -6.5h29v-134h-45q-83 0 -124.5 39.5zM249 924v65q-25 -16 -44 -23t-43 -7t-42.5 7t-43.5 23l-88 -43l21 -56l67 34q38 -30 86 -30q49 0 87 30z" />
    <glyph glyph-name="uniFE84" unicode="&#x623;" horiz-adv-x="259" arabic-form="final" 
d="M99.5 39.5q-41.5 39.5 -41.5 140.5v580h117v-543q0 -34 6 -52t20 -24.5t39 -6.5h29v-134h-45q-83 0 -124.5 39.5zM218 854h-200v65h41q-10 22 -10 45q0 48 27.5 75.5t71.5 27.5q27 0 49 -11l-2 -65q-22 11 -44 11q-20 0 -32.5 -11t-12.5 -30q0 -17 11 -29.5t32 -12.5h69
v-65z" />
    <glyph glyph-name="uniFE86" unicode="&#x624;" horiz-adv-x="537" arabic-form="final" 
d="M547 134v-134h-92q-1 -260 -230 -260q-47 0 -90 9.5t-73 27.5l9 125q24 -13 64.5 -22.5t82.5 -9.5q58 0 88.5 28.5t30.5 101.5h-48q-113 0 -176 67.5t-63 182.5q0 117 61 182t177 65h167v-363h92zM337 134v237h-61q-54 0 -81.5 -30t-27.5 -89t28 -88.5t80 -29.5h62z
M384 591h-200v65h41q-10 22 -10 45q0 48 27.5 75.5t71.5 27.5q27 0 49 -11l-2 -65q-22 11 -44 11q-20 0 -32.5 -11t-12.5 -30q0 -17 11 -29.5t32 -12.5h69v-65z" />
    <glyph glyph-name="uniFE88" unicode="&#x625;" horiz-adv-x="259" arabic-form="final" 
d="M99.5 39.5q-41.5 39.5 -41.5 140.5v580h117v-543q0 -34 6 -52t20 -24.5t39 -6.5h29v-134h-45q-83 0 -124.5 39.5zM227 -269h-200v65h41q-10 22 -10 45q0 48 27.5 75.5t71.5 27.5q27 0 49 -11l-2 -65q-22 11 -44 11q-20 0 -32.5 -11t-12.5 -30q0 -17 11 -29.5t32 -12.5h69
v-65z" />
    <glyph glyph-name="uniFE8A" unicode="&#x626;" horiz-adv-x="828" arabic-form="final" 
d="M192.5 -191.5q-67.5 35.5 -105 102.5t-37.5 158q0 54 11.5 104t27.5 77h116q-18 -37 -27.5 -81t-9.5 -85q0 -83 46.5 -130t136.5 -47q52 0 84 16.5t44.5 38.5t12.5 39q0 13 -8 25t-27 32l-37 36q-28 28 -44.5 57.5t-16.5 72.5q0 77 51 120t127 43q46 0 79 -16t58.5 -47
t54.5 -85q23 -44 37 -65t28 -30.5t33 -9.5h11v-134h-25q-36 0 -61.5 13.5t-48 43.5t-55.5 89q-28 51 -46.5 77t-34.5 36.5t-36 10.5q-28 0 -41.5 -14.5t-13.5 -32.5q0 -16 10 -29.5t32 -34.5l27 -28q35 -34 50.5 -62.5t15.5 -73.5q0 -62 -32 -112.5t-91.5 -80t-137.5 -29.5
q-90 0 -157.5 35.5zM240 343h-200v65h41q-10 22 -10 45q0 48 27.5 75.5t71.5 27.5q27 0 49 -11l-2 -65q-22 11 -44 11q-20 0 -32.5 -11t-12.5 -30q0 -17 11 -29.5t32 -12.5h69v-65z" />
    <glyph glyph-name="uniFE8B" unicode="&#x626;" horiz-adv-x="260" arabic-form="initial" 
d="M-10 134h28q25 0 39 6.5t20 24.5t6 52v256h117v-292q0 -96 -41.5 -138.5t-129.5 -42.5h-39v134zM240 567h-200v65h41q-10 22 -10 45q0 48 27.5 75.5t71.5 27.5q27 0 49 -11l-2 -65q-22 11 -44 11q-20 0 -32.5 -11t-12.5 -30q0 -17 11 -29.5t32 -12.5h69v-65z" />
    <glyph glyph-name="uniFE8C" unicode="&#x626;" horiz-adv-x="281" arabic-form="medial" 
d="M291 134v-134h-14q-38 0 -66 10.5t-44 40.5q-21 -27 -55 -39t-83 -12h-39v134h28q25 0 39 6.5t20 24.5t6 52v256h117v-256q0 -50 13.5 -66.5t50.5 -16.5h27zM241 567h-200v65h41q-10 22 -10 45q0 48 27.5 75.5t71.5 27.5q27 0 49 -11l-2 -65q-22 11 -44 11
q-20 0 -32.5 -11t-12.5 -30q0 -17 11 -29.5t32 -12.5h69v-65z" />
    <glyph glyph-name="uniFE8E" unicode="&#x627;" horiz-adv-x="259" arabic-form="final" 
d="M99.5 39.5q-41.5 39.5 -41.5 140.5v580h117v-543q0 -34 6 -52t20 -24.5t39 -6.5h29v-134h-45q-83 0 -124.5 39.5z" />
    <glyph glyph-name="uniFE90" unicode="&#x628;" horiz-adv-x="832" arabic-form="final" 
d="M842 134v-134h-15q-76 0 -105 48q-20 -26 -53.5 -37t-83.5 -11h-366q-59 0 -95.5 16t-55 56t-18.5 111v154h117v-120q0 -34 6 -52t20 -24.5t39 -6.5h341q25 0 39 6.5t20 24.5t6 52v256h117v-282q3 -34 16.5 -45.5t42.5 -11.5h28zM339 -207.5q-21 21.5 -21 51.5
q0 31 21 52.5t52 21.5q30 0 51 -21.5t21 -52.5q0 -30 -21 -51.5t-51 -21.5q-31 0 -52 21.5z" />
    <glyph glyph-name="uniFE91" unicode="&#x628;" horiz-adv-x="260" arabic-form="initial" 
d="M-10 134h28q25 0 39 6.5t20 24.5t6 52v256h117v-292q0 -96 -41.5 -138.5t-129.5 -42.5h-39v134zM85 -207.5q-21 21.5 -21 51.5q0 31 21 52.5t52 21.5q30 0 51 -21.5t21 -52.5q0 -30 -21 -51.5t-51 -21.5q-31 0 -52 21.5z" />
    <glyph glyph-name="uniFE92" unicode="&#x628;" horiz-adv-x="281" arabic-form="medial" 
d="M291 134v-134h-14q-38 0 -66 10.5t-44 40.5q-21 -27 -55 -39t-83 -12h-39v134h28q25 0 39 6.5t20 24.5t6 52v256h117v-256q0 -50 13.5 -66.5t50.5 -16.5h27zM90 -207.5q-21 21.5 -21 51.5q0 31 21 52.5t52 21.5q30 0 51 -21.5t21 -52.5q0 -30 -21 -51.5t-51 -21.5
q-31 0 -52 21.5z" />
    <glyph glyph-name="uniFE94" unicode="&#x629;" horiz-adv-x="532" arabic-form="final" 
d="M542 134v-134h-265q-71 0 -122.5 30t-79 84.5t-27.5 125.5q0 107 59 170t168 63h58v72h117v-411h92zM333 351h-67q-50 0 -75.5 -28t-25.5 -82q0 -53 25.5 -81t75.5 -28h67v219zM167 626q-19 19 -19 46q0 28 19 47.5t47 19.5q27 0 46.5 -19.5t19.5 -47.5q0 -27 -19.5 -46
t-46.5 -19q-28 0 -47 19zM317 626q-19 19 -19 46q0 28 19 47.5t47 19.5t47 -19.5t19 -47.5q0 -27 -19 -46t-47 -19t-47 19z" />
    <glyph glyph-name="uniFE96" unicode="&#x62a;" horiz-adv-x="832" arabic-form="final" 
d="M842 134v-134h-15q-76 0 -105 48q-20 -26 -53.5 -37t-83.5 -11h-366q-59 0 -95.5 16t-55 56t-18.5 111v154h117v-120q0 -34 6 -52t20 -24.5t39 -6.5h341q25 0 39 6.5t20 24.5t6 52v256h117v-282q3 -34 16.5 -45.5t42.5 -11.5h28zM268 494q-19 19 -19 46q0 28 19 47.5
t47 19.5q27 0 46.5 -19.5t19.5 -47.5q0 -27 -19.5 -46t-46.5 -19q-28 0 -47 19zM418 494q-19 19 -19 46q0 28 19 47.5t47 19.5t47 -19.5t19 -47.5q0 -27 -19 -46t-47 -19t-47 19z" />
    <glyph glyph-name="uniFE97" unicode="&#x62a;" horiz-adv-x="260" arabic-form="initial" 
d="M-10 134h28q25 0 39 6.5t20 24.5t6 52v256h117v-292q0 -96 -41.5 -138.5t-129.5 -42.5h-39v134zM18 621q-19 19 -19 46q0 28 19 47.5t47 19.5q27 0 46.5 -19.5t19.5 -47.5q0 -27 -19.5 -46t-46.5 -19q-28 0 -47 19zM168 621q-19 19 -19 46q0 28 19 47.5t47 19.5t47 -19.5
t19 -47.5q0 -27 -19 -46t-47 -19t-47 19z" />
    <glyph glyph-name="uniFE98" unicode="&#x62a;" horiz-adv-x="281" arabic-form="medial" 
d="M291 134v-134h-14q-38 0 -66 10.5t-44 40.5q-21 -27 -55 -39t-83 -12h-39v134h28q25 0 39 6.5t20 24.5t6 52v256h117v-256q0 -50 13.5 -66.5t50.5 -16.5h27zM19 621q-19 19 -19 46q0 28 19 47.5t47 19.5q27 0 46.5 -19.5t19.5 -47.5q0 -27 -19.5 -46t-46.5 -19
q-28 0 -47 19zM169 621q-19 19 -19 46q0 28 19 47.5t47 19.5t47 -19.5t19 -47.5q0 -27 -19 -46t-47 -19t-47 19z" />
    <glyph glyph-name="uniFE9A" unicode="&#x62b;" horiz-adv-x="832" arabic-form="final" 
d="M842 134v-134h-15q-76 0 -105 48q-20 -26 -53.5 -37t-83.5 -11h-366q-59 0 -95.5 16t-55 56t-18.5 111v154h117v-120q0 -34 6 -52t20 -24.5t39 -6.5h341q25 0 39 6.5t20 24.5t6 52v256h117v-282q3 -34 16.5 -45.5t42.5 -11.5h28zM345.5 570q-17.5 18 -17.5 45
q0 26 17.5 44t43.5 18t44 -18t18 -44q0 -27 -18 -45t-44 -18t-43.5 18zM272 447q-18 18 -18 45q0 26 18 43.5t44 17.5t44 -17.5t18 -43.5q0 -27 -18 -45t-44 -18t-44 18zM420 447q-18 18 -18 45q0 26 18 43.5t44 17.5t44 -17.5t18 -43.5q0 -27 -18 -45t-44 -18t-44 18z" />
    <glyph glyph-name="uniFE9B" unicode="&#x62b;" horiz-adv-x="260" arabic-form="initial" 
d="M-10 134h28q25 0 39 6.5t20 24.5t6 52v256h117v-292q0 -96 -41.5 -138.5t-129.5 -42.5h-39v134zM95.5 697q-17.5 18 -17.5 45q0 26 17.5 44t43.5 18t44 -18t18 -44q0 -27 -18 -45t-44 -18t-43.5 18zM22 574q-18 18 -18 45q0 26 18 43.5t44 17.5t44 -17.5t18 -43.5
q0 -27 -18 -45t-44 -18t-44 18zM170 574q-18 18 -18 45q0 26 18 43.5t44 17.5t44 -17.5t18 -43.5q0 -27 -18 -45t-44 -18t-44 18z" />
    <glyph glyph-name="uniFE9C" unicode="&#x62b;" horiz-adv-x="281" arabic-form="medial" 
d="M291 134v-134h-14q-38 0 -66 10.5t-44 40.5q-21 -27 -55 -39t-83 -12h-39v134h28q25 0 39 6.5t20 24.5t6 52v256h117v-256q0 -50 13.5 -66.5t50.5 -16.5h27zM96.5 697q-17.5 18 -17.5 45q0 26 17.5 44t43.5 18t44 -18t18 -44q0 -27 -18 -45t-44 -18t-43.5 18zM23 574
q-18 18 -18 45q0 26 18 43.5t44 17.5t44 -17.5t18 -43.5q0 -27 -18 -45t-44 -18t-44 18zM171 574q-18 18 -18 45q0 26 18 43.5t44 17.5t44 -17.5t18 -43.5q0 -27 -18 -45t-44 -18t-44 18z" />
    <glyph glyph-name="uniFE9E" unicode="&#x62c;" horiz-adv-x="566" arabic-form="final" 
d="M577 134v-134h-15q-69 0 -94 46q-41 -46 -140 -46h-98q-40 0 -57 -15t-17 -49q0 -41 25 -56.5t81 -15.5q26 0 38 1l-9 -124q-10 -1 -30 -1q-106 0 -166 48t-60 154q0 100 52.5 146t144.5 46h60q42 0 59 10t17 38q0 14 -3 32l-19 91q-9 43 -25 61t-56 18q-64 0 -147 -30
l-9 121q25 11 73 22t96 11q76 0 118.5 -33.5t59.5 -111.5l27 -124q3 -12 7 -38q9 -37 24.5 -52t41.5 -15h21zM484 -140.5q21 -21.5 21 -52.5q0 -30 -21 -51.5t-51 -21.5q-31 0 -52 21.5t-21 51.5q0 31 21 52.5t52 21.5q30 0 51 -21.5z" />
    <glyph glyph-name="uniFE9F" unicode="&#x62c;" horiz-adv-x="468" arabic-form="initial" 
d="M-10 134h236q35 0 51.5 10t16.5 38q0 17 -3 32l-19 91q-8 43 -24.5 61t-56.5 18q-64 0 -147 -30l-9 121q23 10 73 21.5t96 11.5q76 0 118.5 -34t59.5 -112l27 -123q14 -65 14 -105q0 -63 -40.5 -98.5t-128.5 -35.5h-264v134zM156 -207.5q-21 21.5 -21 51.5q0 31 21 52.5
t52 21.5q30 0 51 -21.5t21 -52.5q0 -30 -21 -51.5t-51 -21.5q-31 0 -52 21.5z" />
    <glyph glyph-name="uniFEA0" unicode="&#x62c;" horiz-adv-x="492" arabic-form="medial" 
d="M502 134v-134h-14q-71 0 -95 45q-42 -45 -139 -45h-264v134h236q35 0 51.5 10t16.5 38q0 17 -3 32l-19 91q-8 43 -24.5 61t-56.5 18q-64 0 -147 -30l-9 121q23 10 73 21.5t96 11.5q76 0 118.5 -34t59.5 -112l27 -123l9 -48q9 -31 23.5 -44t38.5 -13h22zM155 -207.5
q-21 21.5 -21 51.5q0 31 21 52.5t52 21.5q30 0 51 -21.5t21 -52.5q0 -30 -21 -51.5t-51 -21.5q-31 0 -52 21.5z" />
    <glyph glyph-name="uniFEA2" unicode="&#x62d;" horiz-adv-x="568" arabic-form="final" 
d="M578 134v-134h-15q-69 0 -94 46q-43 -46 -141 -46h-98q-40 0 -57 -15t-17 -49q0 -41 25 -56.5t83 -15.5q39 0 84 6t61 10l-7 -125q-17 -5 -61 -10t-80 -5q-106 0 -166 48t-60 154q0 100 51.5 146t136.5 46h70q42 0 59 10t17 38q0 12 -4 32l-19 91q-8 43 -24 61t-56 18
q-39 0 -78.5 -9.5t-68.5 -20.5l-10 121q26 11 74 22t96 11q76 0 118.5 -33.5t59.5 -111.5l27 -124l8 -40q8 -36 23.5 -50.5t40.5 -14.5h22z" />
    <glyph glyph-name="uniFEA3" unicode="&#x62d;" horiz-adv-x="468" arabic-form="initial" 
d="M-10 134h236q35 0 51.5 10t16.5 38q0 17 -3 32l-19 91q-8 43 -24.5 61t-56.5 18q-64 0 -147 -30l-9 121q23 10 73 21.5t96 11.5q76 0 118.5 -34t59.5 -112l27 -123q14 -65 14 -105q0 -63 -40.5 -98.5t-128.5 -35.5h-264v134z" />
    <glyph glyph-name="uniFEA4" unicode="&#x62d;" horiz-adv-x="492" arabic-form="medial" 
d="M502 134v-134h-14q-71 0 -95 45q-42 -45 -139 -45h-264v134h236q35 0 51.5 10t16.5 38q0 17 -3 32l-19 91q-8 43 -24.5 61t-56.5 18q-64 0 -147 -30l-9 121q23 10 73 21.5t96 11.5q76 0 118.5 -34t59.5 -112l27 -123l9 -48q9 -31 23.5 -44t38.5 -13h22z" />
    <glyph glyph-name="uniFEA6" unicode="&#x62e;" horiz-adv-x="568" arabic-form="final" 
d="M578 134v-134h-15q-69 0 -94 46q-43 -46 -141 -46h-98q-40 0 -57 -15t-17 -49q0 -41 25 -56.5t83 -15.5q39 0 84 6t61 10l-7 -125q-17 -5 -61 -10t-80 -5q-106 0 -166 48t-60 154q0 100 51.5 146t136.5 46h70q42 0 59 10t17 38q0 12 -4 32l-19 91q-8 43 -24 61t-56 18
q-39 0 -78.5 -9.5t-68.5 -20.5l-10 121q26 11 74 22t96 11q76 0 118.5 -33.5t59.5 -111.5l27 -124l8 -40q8 -36 23.5 -50.5t40.5 -14.5h22zM207 651.5q-21 21.5 -21 51.5q0 31 21 52.5t52 21.5q30 0 51 -21.5t21 -52.5q0 -30 -21 -51.5t-51 -21.5q-31 0 -52 21.5z" />
    <glyph glyph-name="uniFEA7" unicode="&#x62e;" horiz-adv-x="468" arabic-form="initial" 
d="M-10 134h236q35 0 51.5 10t16.5 38q0 17 -3 32l-19 91q-8 43 -24.5 61t-56.5 18q-64 0 -147 -30l-9 121q23 10 73 21.5t96 11.5q76 0 118.5 -34t59.5 -112l27 -123q14 -65 14 -105q0 -63 -40.5 -98.5t-128.5 -35.5h-264v134zM139 650.5q-21 21.5 -21 51.5q0 31 21 52.5
t52 21.5q30 0 51 -21.5t21 -52.5q0 -30 -21 -51.5t-51 -21.5q-31 0 -52 21.5z" />
    <glyph glyph-name="uniFEA8" unicode="&#x62e;" horiz-adv-x="492" arabic-form="medial" 
d="M502 134v-134h-14q-71 0 -95 45q-42 -45 -139 -45h-264v134h236q35 0 51.5 10t16.5 38q0 17 -3 32l-19 91q-8 43 -24.5 61t-56.5 18q-64 0 -147 -30l-9 121q23 10 73 21.5t96 11.5q76 0 118.5 -34t59.5 -112l27 -123l9 -48q9 -31 23.5 -44t38.5 -13h22zM139 650.5
q-21 21.5 -21 51.5q0 31 21 52.5t52 21.5q30 0 51 -21.5t21 -52.5q0 -30 -21 -51.5t-51 -21.5q-31 0 -52 21.5z" />
    <glyph glyph-name="uniFEAA" unicode="&#x62f;" horiz-adv-x="460" arabic-form="final" 
d="M470 134v-134h-17q-39 0 -64 13.5t-35 50.5q-45 -64 -152 -64h-167v134h162q37 0 51 12.5t14 38.5q0 48 -39 100t-88 82l-24 15l19 140l33 -19q85 -49 149 -133t70 -184q6 -31 19.5 -41.5t41.5 -10.5h27z" />
    <glyph glyph-name="uniFEAC" unicode="&#x630;" horiz-adv-x="460" arabic-form="final" 
d="M470 134v-134h-17q-39 0 -64 13.5t-35 50.5q-45 -64 -152 -64h-167v134h162q37 0 51 12.5t14 38.5q0 48 -39 100t-88 82l-24 15l19 140l33 -19q85 -49 149 -133t70 -184q6 -31 19.5 -41.5t41.5 -10.5h27zM97 649.5q-21 21.5 -21 51.5q0 31 21 52.5t52 21.5q30 0 51 -21.5
t21 -52.5q0 -30 -21 -51.5t-51 -21.5q-31 0 -52 21.5z" />
    <glyph glyph-name="uniFEAE" unicode="&#x631;" horiz-adv-x="388" arabic-form="final" 
d="M398 134v-134h-17q-26 0 -44.5 5.5t-31.5 18.5v-63q0 -98 -42 -143t-126 -45q-26 0 -55 5t-49 13l8 128q33 -11 78 -11q27 0 41.5 6.5t21 25t6.5 53.5v480h117v-256q0 -50 13.5 -66.5t49.5 -16.5h30z" />
    <glyph glyph-name="uniFEB0" unicode="&#x632;" horiz-adv-x="388" arabic-form="final" 
d="M398 134v-134h-17q-26 0 -44.5 5.5t-31.5 18.5v-63q0 -98 -42 -143t-126 -45q-26 0 -55 5t-49 13l8 128q33 -11 78 -11q27 0 41.5 6.5t21 25t6.5 53.5v480h117v-256q0 -50 13.5 -66.5t49.5 -16.5h30zM193 615.5q-21 21.5 -21 51.5q0 31 21 52.5t52 21.5q30 0 51 -21.5
t21 -52.5q0 -30 -21 -51.5t-51 -21.5q-31 0 -52 21.5z" />
    <glyph glyph-name="uniFEB2" unicode="&#x633;" horiz-adv-x="1045" arabic-form="final" 
d="M1055 134v-134h-11q-38 0 -63 11.5t-37 43.5q-32 -57 -110 -57q-39 0 -66.5 16t-41.5 52q-27 -68 -106 -68q-57 0 -82 40q-6 -119 -68.5 -192t-171.5 -73q-77 0 -133 36.5t-85.5 100.5t-29.5 143q0 54 12.5 106t28.5 81h114q-38 -81 -38 -165q0 -73 31.5 -120.5
t99.5 -47.5q69 0 96.5 49.5t27.5 134.5v302h117v-167q0 -57 13 -75.5t41 -18.5q30 0 41.5 17t11.5 66v178h97v-167q0 -56 13.5 -75t42.5 -19t40 17t11 65v259h117v-256q0 -50 13.5 -66.5t50.5 -16.5h24z" />
    <glyph glyph-name="uniFEB3" unicode="&#x633;" horiz-adv-x="681" arabic-form="initial" 
d="M621 473v-298q0 -92 -32 -134.5t-102 -42.5q-77 0 -106 68q-27 -68 -105 -68q-36 0 -60.5 16.5t-36.5 54.5q-15 -36 -43 -52.5t-72 -16.5h-74v134h25q37 0 50 17.5t13 65.5v176h117v-167q0 -40 6 -60t17 -27t30 -7q30 0 41 17t11 66v178h98v-167q0 -55 13.5 -74.5
t40.5 -19.5q30 0 41 17t11 65v259h117z" />
    <glyph glyph-name="uniFEB4" unicode="&#x633;" horiz-adv-x="699" arabic-form="medial" 
d="M709 134v-134h-11q-38 0 -63 11.5t-37 43.5q-31 -57 -110 -57t-107 68q-27 -68 -105 -68q-36 0 -60.5 16.5t-36.5 54.5q-15 -36 -43 -52.5t-72 -16.5h-74v134h25q37 0 50 17.5t13 65.5v176h117v-167q0 -40 6 -60t17 -27t30 -7q30 0 41 17t11 66v178h98v-167
q0 -55 13.5 -74.5t40.5 -19.5q30 0 41 17t11 65v259h117v-256q0 -50 13.5 -66.5t50.5 -16.5h24z" />
    <glyph glyph-name="uniFEB6" unicode="&#x634;" horiz-adv-x="1045" arabic-form="final" 
d="M1055 134v-134h-11q-38 0 -63 11.5t-37 43.5q-32 -57 -110 -57q-39 0 -66.5 16t-41.5 52q-27 -68 -106 -68q-57 0 -82 40q-6 -119 -68.5 -192t-171.5 -73q-77 0 -133 36.5t-85.5 100.5t-29.5 143q0 54 12.5 106t28.5 81h114q-38 -81 -38 -165q0 -73 31.5 -120.5
t99.5 -47.5q69 0 96.5 49.5t27.5 134.5v302h117v-167q0 -57 13 -75.5t41 -18.5q30 0 41.5 17t11.5 66v178h97v-167q0 -56 13.5 -75t42.5 -19t40 17t11 65v259h117v-256q0 -50 13.5 -66.5t50.5 -16.5h24zM632.5 641q-17.5 18 -17.5 45q0 26 17.5 44t43.5 18t44 -18t18 -44
q0 -27 -18 -45t-44 -18t-43.5 18zM559 518q-18 18 -18 45q0 26 18 43.5t44 17.5t44 -17.5t18 -43.5q0 -27 -18 -45t-44 -18t-44 18zM707 518q-18 18 -18 45q0 26 18 43.5t44 17.5t44 -17.5t18 -43.5q0 -27 -18 -45t-44 -18t-44 18z" />
    <glyph glyph-name="uniFEB7" unicode="&#x634;" horiz-adv-x="681" arabic-form="initial" 
d="M621 473v-298q0 -92 -32 -134.5t-102 -42.5q-77 0 -106 68q-27 -68 -105 -68q-36 0 -60.5 16.5t-36.5 54.5q-15 -36 -43 -52.5t-72 -16.5h-74v134h25q37 0 50 17.5t13 65.5v176h117v-167q0 -40 6 -60t17 -27t30 -7q30 0 41 17t11 66v178h98v-167q0 -55 13.5 -74.5
t40.5 -19.5q30 0 41 17t11 65v259h117zM282.5 641q-17.5 18 -17.5 45q0 26 17.5 44t43.5 18t44 -18t18 -44q0 -27 -18 -45t-44 -18t-43.5 18zM209 518q-18 18 -18 45q0 26 18 43.5t44 17.5t44 -17.5t18 -43.5q0 -27 -18 -45t-44 -18t-44 18zM357 518q-18 18 -18 45
q0 26 18 43.5t44 17.5t44 -17.5t18 -43.5q0 -27 -18 -45t-44 -18t-44 18z" />
    <glyph glyph-name="uniFEB8" unicode="&#x634;" horiz-adv-x="699" arabic-form="medial" 
d="M709 134v-134h-11q-38 0 -63 11.5t-37 43.5q-31 -57 -110 -57t-107 68q-27 -68 -105 -68q-36 0 -60.5 16.5t-36.5 54.5q-15 -36 -43 -52.5t-72 -16.5h-74v134h25q37 0 50 17.5t13 65.5v176h117v-167q0 -40 6 -60t17 -27t30 -7q30 0 41 17t11 66v178h98v-167
q0 -55 13.5 -74.5t40.5 -19.5q30 0 41 17t11 65v259h117v-256q0 -50 13.5 -66.5t50.5 -16.5h24zM282.5 641q-17.5 18 -17.5 45q0 26 17.5 44t43.5 18t44 -18t18 -44q0 -27 -18 -45t-44 -18t-43.5 18zM209 518q-18 18 -18 45q0 26 18 43.5t44 17.5t44 -17.5t18 -43.5
q0 -27 -18 -45t-44 -18t-44 18zM357 518q-18 18 -18 45q0 26 18 43.5t44 17.5t44 -17.5t18 -43.5q0 -27 -18 -45t-44 -18t-44 18z" />
    <glyph glyph-name="uniFEBA" unicode="&#x635;" horiz-adv-x="1060" arabic-form="final" 
d="M1070 134v-134h-536q-13 -102 -75 -164.5t-162 -62.5q-77 0 -133 37t-85 100.5t-29 142.5q0 54 12.5 106t28.5 81h114q-38 -81 -38 -165q0 -73 31 -120.5t99 -47.5q69 0 96.5 49.5t27.5 134.5v382h117v-206q49 105 109.5 161.5t146.5 56.5q193 0 193 -286v-65h83z
M870 131v73q0 84 -25.5 123.5t-79.5 39.5q-66 0 -116.5 -58.5t-103.5 -177.5h325z" />
    <glyph glyph-name="uniFEBB" unicode="&#x635;" horiz-adv-x="689" arabic-form="initial" 
d="M639 199v-199h-649v134h83v339h117v-206q49 105 110 161.5t147 56.5q192 0 192 -286zM522 131v73q0 84 -25.5 123.5t-78.5 39.5q-66 0 -116.5 -58.5t-103.5 -177.5h324z" />
    <glyph glyph-name="uniFEBC" unicode="&#x635;" horiz-adv-x="711" arabic-form="medial" 
d="M721 134v-134h-731v134h83v339h117v-206q49 105 110 161.5t147 56.5q192 0 192 -286v-65h82zM522 131v73q0 84 -25.5 123.5t-78.5 39.5q-66 0 -116.5 -58.5t-103.5 -177.5h324z" />
    <glyph glyph-name="uniFEBE" unicode="&#x636;" horiz-adv-x="1060" arabic-form="final" 
d="M1070 134v-134h-536q-13 -102 -75 -164.5t-162 -62.5q-77 0 -133 37t-85 100.5t-29 142.5q0 54 12.5 106t28.5 81h114q-38 -81 -38 -165q0 -73 31 -120.5t99 -47.5q69 0 96.5 49.5t27.5 134.5v382h117v-206q49 105 109.5 161.5t146.5 56.5q193 0 193 -286v-65h83z
M870 131v73q0 84 -25.5 123.5t-79.5 39.5q-66 0 -116.5 -58.5t-103.5 -177.5h325zM723 622.5q-21 21.5 -21 51.5q0 31 21 52.5t52 21.5q30 0 51 -21.5t21 -52.5q0 -30 -21 -51.5t-51 -21.5q-31 0 -52 21.5z" />
    <glyph glyph-name="uniFEBF" unicode="&#x636;" horiz-adv-x="689" arabic-form="initial" 
d="M639 199v-199h-649v134h83v339h117v-206q49 105 110 161.5t147 56.5q192 0 192 -286zM522 131v73q0 84 -25.5 123.5t-78.5 39.5q-66 0 -116.5 -58.5t-103.5 -177.5h324zM368 622.5q-21 21.5 -21 51.5q0 31 21 52.5t52 21.5q30 0 51 -21.5t21 -52.5q0 -30 -21 -51.5
t-51 -21.5q-31 0 -52 21.5z" />
    <glyph glyph-name="uniFEC0" unicode="&#x636;" horiz-adv-x="711" arabic-form="medial" 
d="M721 134v-134h-731v134h83v339h117v-206q49 105 110 161.5t147 56.5q192 0 192 -286v-65h82zM522 131v73q0 84 -25.5 123.5t-78.5 39.5q-66 0 -116.5 -58.5t-103.5 -177.5h324zM368 622.5q-21 21.5 -21 51.5q0 31 21 52.5t52 21.5q30 0 51 -21.5t21 -52.5
q0 -30 -21 -51.5t-51 -21.5q-31 0 -52 21.5z" />
    <glyph glyph-name="uniFEC2" unicode="&#x637;" horiz-adv-x="762" arabic-form="final" 
d="M772 134v-134h-737v134h89v626h117v-493q49 105 110 161.5t147 56.5q192 0 192 -286v-65h82zM573 131v73q0 84 -25.5 123.5t-78.5 39.5q-66 0 -116.5 -58.5t-103.5 -177.5h324z" />
    <glyph glyph-name="uniFEC3" unicode="&#x637;" horiz-adv-x="689" arabic-form="initial" 
d="M639 199v-199h-649v134h82v626h118v-493q49 105 109.5 161.5t146.5 56.5q193 0 193 -286zM522 131v73q0 84 -25.5 123.5t-79.5 39.5q-66 0 -116.5 -58.5t-103.5 -177.5h325z" />
    <glyph glyph-name="uniFEC4" unicode="&#x637;" horiz-adv-x="714" arabic-form="medial" 
d="M724 134v-134h-734v134h83v626h118v-491q49 104 109.5 160t146.5 56q192 0 192 -286v-65h85zM522 131v73q0 84 -25.5 123.5t-78.5 39.5q-66 0 -116.5 -58.5t-103.5 -177.5h324z" />
    <glyph glyph-name="uniFEC6" unicode="&#x638;" horiz-adv-x="762" arabic-form="final" 
d="M772 134v-134h-737v134h89v626h117v-493q49 105 110 161.5t147 56.5q192 0 192 -286v-65h82zM573 131v73q0 84 -25.5 123.5t-78.5 39.5q-66 0 -116.5 -58.5t-103.5 -177.5h324zM431 622.5q-21 21.5 -21 51.5q0 31 21 52.5t52 21.5q30 0 51 -21.5t21 -52.5
q0 -30 -21 -51.5t-51 -21.5q-31 0 -52 21.5z" />
    <glyph glyph-name="uniFEC7" unicode="&#x638;" horiz-adv-x="689" arabic-form="initial" 
d="M639 199v-199h-649v134h82v626h118v-493q49 105 109.5 161.5t146.5 56.5q193 0 193 -286zM522 131v73q0 84 -25.5 123.5t-79.5 39.5q-66 0 -116.5 -58.5t-103.5 -177.5h325zM380 622.5q-21 21.5 -21 51.5q0 31 21 52.5t52 21.5q30 0 51 -21.5t21 -52.5q0 -30 -21 -51.5
t-51 -21.5q-31 0 -52 21.5z" />
    <glyph glyph-name="uniFEC8" unicode="&#x638;" horiz-adv-x="714" arabic-form="medial" 
d="M724 134v-134h-734v134h83v626h118v-491q49 104 109.5 160t146.5 56q192 0 192 -286v-65h85zM522 131v73q0 84 -25.5 123.5t-78.5 39.5q-66 0 -116.5 -58.5t-103.5 -177.5h324zM381 622.5q-21 21.5 -21 51.5q0 31 21 52.5t52 21.5q30 0 51 -21.5t21 -52.5
q0 -30 -21 -51.5t-51 -21.5q-31 0 -52 21.5z" />
    <glyph glyph-name="uniFECA" unicode="&#x639;" horiz-adv-x="602" arabic-form="final" 
d="M173 -15.5q-17 -15.5 -17 -48.5q0 -40 25 -56t81 -16q58 0 122 14l-9 -125q-21 -5 -54.5 -9t-62.5 -4q-103 0 -163 48.5t-60 154.5q0 93 49 139.5t128 50.5q-53 107 -134 180l5 4l-5 -4l-8 116q36 27 96.5 53t142.5 26q102 0 158.5 -50.5t56.5 -138.5q0 -53 -18.5 -100
t-53.5 -85h160v-134h-383q-39 0 -56 -15.5zM189 361q84 -85 135 -212q39 19 59 57t20 84q0 45 -23.5 67t-80.5 22q-53 0 -110 -18z" />
    <glyph glyph-name="uniFECB" unicode="&#x639;" horiz-adv-x="477" arabic-form="initial" 
d="M442 134v-134h-452v134h151q-68 58 -68 160q0 67 27.5 115t76 73.5t110.5 25.5q31 0 62 -5.5t46 -11.5l-9 -122q-15 5 -37 8.5t-40 3.5q-53 0 -80 -32.5t-27 -87.5q0 -62 33.5 -94.5t97.5 -32.5h109z" />
    <glyph glyph-name="uniFECC" unicode="&#x639;" horiz-adv-x="587" arabic-form="medial" 
d="M597 134v-134h-75q-123 0 -233 34q-94 -34 -203 -34h-96v134h206q-51 105 -132 179l5 4l-5 -4l-8 116q33 26 95.5 52.5t145.5 26.5q101 0 157 -50.5t56 -139.5q0 -50 -18.5 -97t-53.5 -87h159zM175 361q82 -83 134 -212q41 19 60.5 57t19.5 84q0 45 -23.5 67t-79.5 22
q-52 0 -111 -18z" />
    <glyph glyph-name="uniFECE" unicode="&#x63a;" horiz-adv-x="602" arabic-form="final" 
d="M173 -15.5q-17 -15.5 -17 -48.5q0 -40 25 -56t81 -16q58 0 122 14l-9 -125q-21 -5 -54.5 -9t-62.5 -4q-103 0 -163 48.5t-60 154.5q0 93 49 139.5t128 50.5q-53 107 -134 180l5 4l-5 -4l-8 116q36 27 96.5 53t142.5 26q102 0 158.5 -50.5t56.5 -138.5q0 -53 -18.5 -100
t-53.5 -85h160v-134h-383q-39 0 -56 -15.5zM189 361q84 -85 135 -212q39 19 59 57t20 84q0 45 -23.5 67t-80.5 22q-53 0 -110 -18zM246 649.5q-21 21.5 -21 51.5q0 31 21 52.5t52 21.5q30 0 51 -21.5t21 -52.5q0 -30 -21 -51.5t-51 -21.5q-31 0 -52 21.5z" />
    <glyph glyph-name="uniFECF" unicode="&#x63a;" horiz-adv-x="477" arabic-form="initial" 
d="M442 134v-134h-452v134h151q-68 58 -68 160q0 67 27.5 115t76 73.5t110.5 25.5q31 0 62 -5.5t46 -11.5l-9 -122q-15 5 -37 8.5t-40 3.5q-53 0 -80 -32.5t-27 -87.5q0 -62 33.5 -94.5t97.5 -32.5h109zM212 650.5q-21 21.5 -21 51.5q0 31 21 52.5t52 21.5q30 0 51 -21.5
t21 -52.5q0 -30 -21 -51.5t-51 -21.5q-31 0 -52 21.5z" />
    <glyph glyph-name="uniFED0" unicode="&#x63a;" horiz-adv-x="587" arabic-form="medial" 
d="M597 134v-134h-75q-123 0 -233 34q-94 -34 -203 -34h-96v134h206q-51 105 -132 179l5 4l-5 -4l-8 116q33 26 95.5 52.5t145.5 26.5q101 0 157 -50.5t56 -139.5q0 -50 -18.5 -97t-53.5 -87h159zM175 361q82 -83 134 -212q41 19 60.5 57t19.5 84q0 45 -23.5 67t-79.5 22
q-52 0 -111 -18zM241 649.5q-21 21.5 -21 51.5q0 31 21 52.5t52 21.5q30 0 51 -21.5t21 -52.5q0 -30 -21 -51.5t-51 -21.5q-31 0 -52 21.5z" />
    <glyph glyph-name="uniFED2" unicode="&#x641;" horiz-adv-x="932" arabic-form="final" 
d="M942 134v-134h-119v30h-19l2 -30h-587q-60 0 -96.5 16.5t-54.5 56.5t-18 110v150h117v-116q0 -34 6 -52t20 -24.5t39 -6.5h255q-37 58 -37 132q0 106 61 168.5t176 62.5h168v-363h87zM594.5 163.5q27.5 -29.5 78.5 -29.5h65v237h-62q-54 0 -81.5 -30t-27.5 -89
t27.5 -88.5zM636 638.5q-21 21.5 -21 51.5q0 31 21 52.5t52 21.5q30 0 51 -21.5t21 -52.5q0 -30 -21 -51.5t-51 -21.5q-31 0 -52 21.5z" />
    <glyph glyph-name="uniFED3" unicode="&#x641;" horiz-adv-x="535" arabic-form="initial" 
d="M475 30h-2v-30h-483v134h117q-37 58 -37 132q0 106 61.5 168.5t176.5 62.5h167v-467zM215 163.5q28 -29.5 80 -29.5h63v237h-62q-54 0 -81.5 -30t-27.5 -89t28 -88.5zM252 638.5q-21 21.5 -21 51.5q0 31 21 52.5t52 21.5q30 0 51 -21.5t21 -52.5q0 -30 -21 -51.5
t-51 -21.5q-31 0 -52 21.5z" />
    <glyph glyph-name="uniFED4" unicode="&#x641;" horiz-adv-x="555" arabic-form="medial" 
d="M565 134v-134h-264v30q-3 1 -8 1l3 -31h-306v134h117q-37 58 -37 132q0 106 61.5 168.5t176.5 62.5h167v-363h90zM358 134v237h-62q-54 0 -81.5 -30t-27.5 -89t28 -88.5t80 -29.5h63zM252 638.5q-21 21.5 -21 51.5q0 31 21 52.5t52 21.5q30 0 51 -21.5t21 -52.5
q0 -30 -21 -51.5t-51 -21.5q-31 0 -52 21.5z" />
    <glyph glyph-name="uniFED6" unicode="&#x642;" horiz-adv-x="800" arabic-form="final" 
d="M810 134v-134h-87v-17q0 -77 -22 -121.5t-65 -63t-112 -18.5h-176q-102 0 -168.5 40t-98 108t-31.5 153q0 43 10 91t26 85h116q-16 -36 -25 -77t-9 -77q0 -78 37.5 -133.5t138.5 -55.5h195q26 0 40 6.5t20.5 25t6.5 54.5h-49q-113 0 -176 67.5t-63 182.5q0 117 61 182
t177 65h167v-363h87zM606 134v237h-62q-54 0 -81.5 -30t-27.5 -89t28 -88.5t80 -29.5h63zM455 644q-19 19 -19 46q0 28 19 47.5t47 19.5q27 0 46.5 -19.5t19.5 -47.5q0 -27 -19.5 -46t-46.5 -19q-28 0 -47 19zM605 644q-19 19 -19 46q0 28 19 47.5t47 19.5t47 -19.5
t19 -47.5q0 -27 -19 -46t-47 -19t-47 19z" />
    <glyph glyph-name="uniFED7" unicode="&#x642;" horiz-adv-x="535" arabic-form="initial" 
d="M475 30h-2v-30h-483v134h117q-37 58 -37 132q0 106 61.5 168.5t176.5 62.5h167v-467zM215 163.5q28 -29.5 80 -29.5h63v237h-62q-54 0 -81.5 -30t-27.5 -89t28 -88.5zM182 645q-19 19 -19 46q0 28 19 47.5t47 19.5q27 0 46.5 -19.5t19.5 -47.5q0 -27 -19.5 -46t-46.5 -19
q-28 0 -47 19zM332 645q-19 19 -19 46q0 28 19 47.5t47 19.5t47 -19.5t19 -47.5q0 -27 -19 -46t-47 -19t-47 19z" />
    <glyph glyph-name="uniFED8" unicode="&#x642;" horiz-adv-x="555" arabic-form="medial" 
d="M565 134v-134h-264v30q-3 1 -8 1l3 -31h-306v134h117q-37 58 -37 132q0 106 61.5 168.5t176.5 62.5h167v-363h90zM358 134v237h-62q-54 0 -81.5 -30t-27.5 -89t28 -88.5t80 -29.5h63zM182 645q-19 19 -19 46q0 28 19 47.5t47 19.5q27 0 46.5 -19.5t19.5 -47.5
q0 -27 -19.5 -46t-46.5 -19q-28 0 -47 19zM332 645q-19 19 -19 46q0 28 19 47.5t47 19.5t47 -19.5t19 -47.5q0 -27 -19 -46t-47 -19t-47 19z" />
    <glyph glyph-name="uniFEDA" unicode="&#x643;" horiz-adv-x="713" arabic-form="final" 
d="M723 134v-134h-10q-39 0 -65.5 12t-39.5 45q-19 -31 -53.5 -44t-87.5 -13h-249q-58 0 -94.5 16t-55 56t-18.5 111v150h117v-116q0 -34 6 -52t20 -24.5t39 -6.5h221q25 0 39 6.5t20 24.5t6 52v543h117v-543q0 -34 6 -52t20 -24.5t39 -6.5h23zM396 353.5
q-16 -13.5 -51 -13.5h-83v54h82q11 0 16 3.5t5 13.5v8q0 20 -21 20h-76v53q13 34 45.5 70.5t61.5 53.5l23 -52q-29 -17 -49 -33t-35 -39h32q36 0 51 -16.5t15 -49.5v-26q0 -33 -16 -46.5z" />
    <glyph glyph-name="uniFEDB" unicode="&#x643;" horiz-adv-x="465" arabic-form="initial" 
d="M367 421.5q48 -47.5 48 -157.5v-87q0 -67 -17.5 -105.5t-55 -55t-100.5 -16.5h-252v134h253q31 0 43 14t12 56v47q0 50 -20 73.5t-74 23.5h-174v121q46 97 133.5 178t199.5 128l9 -129q-61 -27 -130 -76.5t-115 -100.5h79q113 0 161 -47.5z" />
    <glyph glyph-name="uniFEDC" unicode="&#x643;" horiz-adv-x="507" arabic-form="medial" 
d="M517 134v-134h-12q-38 0 -64.5 11.5t-39.5 43.5q-19 -29 -54.5 -42t-91.5 -13h-252v134h253q31 0 43 14t12 56v47q0 50 -20 73.5t-74 23.5h-174v121q46 97 133.5 178t199.5 128l9 -129q-61 -27 -130 -76.5t-115 -100.5h79q113 0 161 -47.5t48 -157.5v-74q3 -33 17 -44.5
t46 -11.5h26z" />
    <glyph glyph-name="uniFEDE" unicode="&#x644;" horiz-adv-x="618" arabic-form="final" 
d="M628 134v-134h-10q-28 0 -47 6t-32 21q-9 -113 -69.5 -183.5t-171.5 -70.5q-78 0 -134 36.5t-85 101t-29 146.5q0 66 17 122.5t40 85.5h115q-25 -38 -40 -85.5t-15 -101.5q0 -75 30.5 -123t98.5 -48q71 0 99 49.5t28 133.5v670h117v-543q0 -50 13.5 -66.5t50.5 -16.5h24z
" />
    <glyph glyph-name="uniFEDF" unicode="&#x644;" horiz-adv-x="260" arabic-form="initial" 
d="M-10 134h30q25 0 39 6.5t20 24.5t6 52v543h117v-577q0 -72 -19.5 -112t-56.5 -55.5t-95 -15.5h-41v134z" />
    <glyph glyph-name="uniFEE0" unicode="&#x644;" horiz-adv-x="278" arabic-form="medial" 
d="M288 134v-134h-20q-34 0 -60 11t-41 40q-21 -28 -55 -39.5t-84 -11.5h-38v134h27q25 0 39 6.5t20 24.5t6 52v543h117v-543q0 -50 13.5 -66.5t50.5 -16.5h25z" />
    <glyph glyph-name="uniFEE2" unicode="&#x645;" horiz-adv-x="575" arabic-form="final" 
d="M585 134v-134h-16q-37 0 -61 8t-39 30q-26 -53 -72.5 -80t-105.5 -27q-51 0 -90 19v-22q0 -103 -36.5 -145.5t-119.5 -42.5h-35l9 123q36 0 50.5 20.5t14.5 73.5v233q2 72 29.5 124.5t74 80t103.5 27.5t103 -27t74 -79t30 -124v-1q1 -34 15.5 -45.5t48.5 -11.5h23z
M356.5 93q24.5 31 24.5 87q0 52 -25 84t-64 32q-40 0 -65 -32t-25 -84q0 -55 24.5 -86.5t65.5 -31.5q40 0 64.5 31z" />
    <glyph glyph-name="uniFEE3" unicode="&#x645;" horiz-adv-x="546" arabic-form="initial" 
d="M390 393q47 -29 74 -83.5t27 -129.5q0 -81 -27 -137t-73.5 -84t-106.5 -28q-59 0 -105.5 27t-72.5 80q-15 -22 -39 -30t-61 -8h-16v134h23q34 0 48.5 11.5t15.5 45.5v1q2 72 30 124t74 79t103 27q59 0 106 -29zM349.5 93q24.5 31 24.5 87q0 52 -25 84t-64 32
q-40 0 -65 -32t-25 -84q0 -56 24.5 -87t65.5 -31q40 0 64.5 31z" />
    <glyph glyph-name="uniFEE4" unicode="&#x645;" horiz-adv-x="568" arabic-form="medial" 
d="M578 134v-134h-16q-37 0 -61 8t-39 30q-26 -53 -72.5 -80t-105.5 -27t-105.5 27t-72.5 80q-15 -22 -39 -30t-61 -8h-16v134h23q34 0 48.5 11.5t15.5 45.5v1q2 72 30 124t74 79t103 27t103 -27t74 -79t30 -124v-1q1 -34 15.5 -45.5t48.5 -11.5h23zM349.5 93
q24.5 31 24.5 87q0 52 -25 84t-64 32q-40 0 -65 -32t-25 -84q0 -56 24.5 -87t65.5 -31q40 0 64.5 31z" />
    <glyph glyph-name="uniFEE6" unicode="&#x646;" horiz-adv-x="618" arabic-form="final" 
d="M628 134v-134h-13q-27 0 -46 6t-32 21q-9 -115 -71.5 -184.5t-168.5 -69.5q-77 0 -133 36.5t-85 100.5t-29 144q0 54 12.5 105.5t28.5 80.5h114q-17 -36 -27.5 -79t-10.5 -86q0 -73 31 -120.5t98 -47.5q70 0 97.5 49t27.5 135v302h117v-176q0 -50 13.5 -66.5t50.5 -16.5
h26zM182 341.5q-21 21.5 -21 51.5q0 31 21 52.5t52 21.5q30 0 51 -21.5t21 -52.5q0 -30 -21 -51.5t-51 -21.5q-31 0 -52 21.5z" />
    <glyph glyph-name="uniFEE7" unicode="&#x646;" horiz-adv-x="260" arabic-form="initial" 
d="M-10 134h28q25 0 39 6.5t20 24.5t6 52v256h117v-292q0 -96 -41.5 -138.5t-129.5 -42.5h-39v134zM88 615.5q-21 21.5 -21 51.5q0 31 21 52.5t52 21.5q30 0 51 -21.5t21 -52.5q0 -30 -21 -51.5t-51 -21.5q-31 0 -52 21.5z" />
    <glyph glyph-name="uniFEE8" unicode="&#x646;" horiz-adv-x="281" arabic-form="medial" 
d="M291 134v-134h-14q-38 0 -66 10.5t-44 40.5q-21 -27 -55 -39t-83 -12h-39v134h28q25 0 39 6.5t20 24.5t6 52v256h117v-256q0 -50 13.5 -66.5t50.5 -16.5h27zM89 615.5q-21 21.5 -21 51.5q0 31 21 52.5t52 21.5q30 0 51 -21.5t21 -52.5q0 -30 -21 -51.5t-51 -21.5
q-31 0 -52 21.5z" />
    <glyph glyph-name="uniFEEA" unicode="&#x647;" horiz-adv-x="532" arabic-form="final" 
d="M542 134v-134h-265q-71 0 -122.5 30t-79 84.5t-27.5 125.5q0 107 59 170t168 63h58v72h117v-411h92zM333 351h-67q-50 0 -75.5 -28t-25.5 -82q0 -53 25.5 -81t75.5 -28h67v219z" />
    <glyph glyph-name="uniFEEB" unicode="&#x647;" horiz-adv-x="597" arabic-form="initial" 
d="M456.5 478.5q90.5 -91.5 90.5 -313.5v-165h-557v134h112q-24 38 -24 89q0 66 37.5 107.5t105.5 41.5q70 0 107 -46t37 -136v-56h68v34q0 162 -56.5 224.5t-154.5 62.5q-64 0 -125 -21l-8 118q60 18 134 18q143 0 233.5 -91.5zM179 154q17 -20 51 -20h47v54q0 88 -61 88
q-27 0 -40.5 -17t-13.5 -50q0 -35 17 -55z" />
    <glyph glyph-name="uniFEEC" unicode="&#x647;" horiz-adv-x="629" arabic-form="medial" 
d="M639 134v-134h-649v134h112q-24 38 -24 89q0 66 37.5 107.5t105.5 41.5q70 0 107 -46t37 -136v-56h68v34q0 162 -56.5 224.5t-154.5 62.5q-64 0 -125 -21l-8 118q60 18 134 18q143 0 233.5 -91.5t90.5 -313.5v-31h92zM179 154q17 -20 51 -20h47v54q0 88 -61 88
q-27 0 -40.5 -17t-13.5 -50q0 -35 17 -55z" />
    <glyph glyph-name="uniFEEE" unicode="&#x648;" horiz-adv-x="537" arabic-form="final" 
d="M547 134v-134h-92q-1 -260 -230 -260q-47 0 -90 9.5t-73 27.5l9 125q24 -13 64.5 -22.5t82.5 -9.5q58 0 88.5 28.5t30.5 101.5h-48q-113 0 -176 67.5t-63 182.5q0 117 61 182t177 65h167v-363h92zM337 134v237h-61q-54 0 -81.5 -30t-27.5 -89t28 -88.5t80 -29.5h62z" />
    <glyph glyph-name="uniFEF0" unicode="&#x649;" horiz-adv-x="828" arabic-form="final" 
d="M192.5 -191.5q-67.5 35.5 -105 102.5t-37.5 158q0 54 11.5 104t27.5 77h116q-18 -37 -27.5 -81t-9.5 -85q0 -83 46.5 -130t136.5 -47q52 0 84 16.5t44.5 38.5t12.5 39q0 13 -8 25t-27 32l-37 36q-28 28 -44.5 57.5t-16.5 72.5q0 77 51 120t127 43q46 0 79 -16t58.5 -47
t54.5 -85q23 -44 37 -65t28 -30.5t33 -9.5h11v-134h-25q-36 0 -61.5 13.5t-48 43.5t-55.5 89q-28 51 -46.5 77t-34.5 36.5t-36 10.5q-28 0 -41.5 -14.5t-13.5 -32.5q0 -16 10 -29.5t32 -34.5l27 -28q35 -34 50.5 -62.5t15.5 -73.5q0 -62 -32 -112.5t-91.5 -80t-137.5 -29.5
q-90 0 -157.5 35.5z" />
    <glyph glyph-name="uniFEF2" unicode="&#x64a;" horiz-adv-x="828" arabic-form="final" 
d="M192.5 -191.5q-67.5 35.5 -105 102.5t-37.5 158q0 54 11.5 104t27.5 77h116q-18 -37 -27.5 -81t-9.5 -85q0 -83 46.5 -130t136.5 -47q52 0 84 16.5t44.5 38.5t12.5 39q0 13 -8 25t-27 32l-37 36q-28 28 -44.5 57.5t-16.5 72.5q0 77 51 120t127 43q46 0 79 -16t58.5 -47
t54.5 -85q23 -44 37 -65t28 -30.5t33 -9.5h11v-134h-25q-36 0 -61.5 13.5t-48 43.5t-55.5 89q-28 51 -46.5 77t-34.5 36.5t-36 10.5q-28 0 -41.5 -14.5t-13.5 -32.5q0 -16 10 -29.5t32 -34.5l27 -28q35 -34 50.5 -62.5t15.5 -73.5q0 -62 -32 -112.5t-91.5 -80t-137.5 -29.5
q-90 0 -157.5 35.5zM224 -430q-19 19 -19 46q0 28 19 47.5t47 19.5q27 0 46.5 -19.5t19.5 -47.5q0 -27 -19.5 -46t-46.5 -19q-28 0 -47 19zM374 -430q-19 19 -19 46q0 28 19 47.5t47 19.5t47 -19.5t19 -47.5q0 -27 -19 -46t-47 -19t-47 19z" />
    <glyph glyph-name="uniFEF3" unicode="&#x64a;" horiz-adv-x="260" arabic-form="initial" 
d="M-10 134h28q25 0 39 6.5t20 24.5t6 52v256h117v-292q0 -96 -41.5 -138.5t-129.5 -42.5h-39v134zM14 -204q-19 19 -19 46q0 28 19 47.5t47 19.5q27 0 46.5 -19.5t19.5 -47.5q0 -27 -19.5 -46t-46.5 -19q-28 0 -47 19zM164 -204q-19 19 -19 46q0 28 19 47.5t47 19.5
t47 -19.5t19 -47.5q0 -27 -19 -46t-47 -19t-47 19z" />
    <glyph glyph-name="uniFEF4" unicode="&#x64a;" horiz-adv-x="281" arabic-form="medial" 
d="M291 134v-134h-14q-38 0 -66 10.5t-44 40.5q-21 -27 -55 -39t-83 -12h-39v134h28q25 0 39 6.5t20 24.5t6 52v256h117v-256q0 -50 13.5 -66.5t50.5 -16.5h27zM19 -204q-19 19 -19 46q0 28 19 47.5t47 19.5q27 0 46.5 -19.5t19.5 -47.5q0 -27 -19.5 -46t-46.5 -19
q-28 0 -47 19zM169 -204q-19 19 -19 46q0 28 19 47.5t47 19.5t47 -19.5t19 -47.5q0 -27 -19 -46t-47 -19t-47 19z" />
    <glyph glyph-name=".notdef" horiz-adv-x="600" 
d="M100 705h400v-705h-400v705zM438 62v581h-276v-581h276z" />
    <glyph glyph-name=".null" horiz-adv-x="510" 
 />
    <glyph glyph-name="nonmarkingreturn" unicode="&#xd;" horiz-adv-x="510" 
 />
    <glyph glyph-name="space" unicode=" " horiz-adv-x="178" 
 />
    <glyph glyph-name="exclam" unicode="!" horiz-adv-x="281" 
d="M79 760h123l-12 -533h-99zM83.5 12q-23.5 24 -23.5 57t23.5 57t57.5 24q33 0 56.5 -24t23.5 -57t-23.5 -57t-56.5 -24q-34 0 -57.5 24z" />
    <glyph glyph-name="quotedbl" unicode="&#x22;" horiz-adv-x="405" 
d="M60 640v120h106v-120l-16 -156h-74zM239 640v120h106v-120l-16 -156h-74z" />
    <glyph glyph-name="numbersign" unicode="#" horiz-adv-x="755" 
d="M585 479l-41 -189h68v-98h-89l-42 -192h-126l42 192h-123l-41 -192h-126l42 192h-69v98h90l42 189h-69v97h90l40 184h124l-40 -184h124l40 184h125l-40 -184h69v-97h-90zM460 479h-124l-40 -189h122z" />
    <glyph glyph-name="dollar" unicode="$" horiz-adv-x="668" 
d="M534.5 61q-53.5 -59 -149.5 -70v-118h-116v121q-85 17 -132 74t-57 145l136 10q7 -79 53 -110v240q-95 36 -137.5 85t-42.5 130q0 87 49 137.5t131 62.5v113h116v-114q85 -16 131 -71.5t56 -141.5l-137 -13q-6 79 -50 108v-208l12 -4q60 -21 100.5 -45.5t65.5 -67.5
t25 -110q0 -94 -53.5 -153zM237 525.5q10 -20.5 32 -35.5v165q-42 -21 -42 -81q0 -28 10 -48.5zM433.5 139.5q17.5 26.5 17.5 67.5t-17 64.5t-49 38.5v-208q31 11 48.5 37.5z" />
    <glyph glyph-name="percent" unicode="%" horiz-adv-x="907" 
d="M121.5 416q-41.5 54 -41.5 148t41.5 148t107.5 54q67 0 108.5 -54t41.5 -148t-41.5 -148t-108.5 -54q-66 0 -107.5 54zM627 760h134l-471 -760h-134zM267 474q12 27 12 90t-12 90t-38 27q-25 0 -37.5 -27t-12.5 -90t12.5 -90t37.5 -27q26 0 38 27zM570 48q-41 54 -41 148
t41 148t108 54t108 -54t41 -148t-41 -148t-108 -54t-108 54zM716 106q12 27 12 90t-12 90t-38 27q-25 0 -37.5 -27t-12.5 -90t12.5 -90t37.5 -27q26 0 38 27z" />
    <glyph glyph-name="ampersand" unicode="&#x26;" horiz-adv-x="689" 
d="M516 0l-35 46q-74 -58 -176 -58q-70 0 -121.5 28.5t-79 77.5t-27.5 109q0 61 29.5 116t92.5 92q-37 50 -57.5 94.5t-20.5 91.5q0 77 50 126t138 49q89 0 134.5 -48t45.5 -122q0 -61 -36.5 -113.5t-106.5 -92.5l131 -170q19 57 23 134h109q-3 -136 -58 -230l101 -130h-136
zM259 649q-16 -20 -16 -59q0 -59 50 -125l2 -2q35 27 54 60.5t19 68.5q0 37 -16 57t-46 20q-31 0 -47 -20zM417 128l-161 209q-24 -25 -37.5 -58.5t-13.5 -67.5q0 -55 31.5 -88t83.5 -33q56 0 97 38z" />
    <glyph glyph-name="quotesingle" unicode="'" horiz-adv-x="226" 
d="M60 640v120h106v-120l-16 -156h-74z" />
    <glyph glyph-name="parenleft" unicode="(" horiz-adv-x="369" 
d="M143 -38q-43 48 -43 150v562q0 102 43 150t146 48v-98q-45 0 -59.5 -28.5t-14.5 -79.5v-547q0 -50 14.5 -78.5t59.5 -28.5v-98q-103 0 -146 48z" />
    <glyph glyph-name="parenright" unicode=")" horiz-adv-x="369" 
d="M80 12q45 0 59.5 28.5t14.5 78.5v547q0 51 -14.5 79.5t-59.5 28.5v98q103 0 146 -48t43 -150v-562q0 -102 -43 -150t-146 -48v98z" />
    <glyph glyph-name="asterisk" unicode="*" horiz-adv-x="548" 
d="M343 510l86 -111l-91 -64l-64 123l-65 -123l-91 64l86 110l-124 32l37 111l113 -56l-13 146h113l-11 -145l112 55l37 -111z" />
    <glyph glyph-name="plus" unicode="+" horiz-adv-x="524" 
d="M444 218h-134v-159h-95v159h-135v95h135v159h95v-159h134v-95z" />
    <glyph glyph-name="comma" unicode="," horiz-adv-x="263" 
d="M189.5 126.5q23.5 -23.5 23.5 -68.5q0 -54 -36.5 -109t-101.5 -87l-25 35q54 43 70 95q-29 4 -49.5 26.5t-20.5 51.5q0 33 23.5 56.5t58.5 23.5q34 0 57.5 -23.5z" />
    <glyph glyph-name="hyphen" unicode="-" horiz-adv-x="400" 
d="M60 317h280v-103h-280v103z" />
    <glyph glyph-name="period" unicode="." horiz-adv-x="261" 
d="M73.5 12q-23.5 24 -23.5 57t23.5 57t57.5 24q33 0 56.5 -24t23.5 -57t-23.5 -57t-56.5 -24q-34 0 -57.5 24z" />
    <glyph glyph-name="slash" unicode="/" horiz-adv-x="454" 
d="M265 760h139l-216 -760h-138z" />
    <glyph glyph-name="zero" unicode="0" horiz-adv-x="651" 
d="M181.5 34.5q-61.5 46.5 -95 134.5t-33.5 211t33.5 211t95 134.5t144.5 46.5t144.5 -46.5t94.5 -135t33 -210.5t-33 -210.5t-94.5 -135t-144.5 -46.5t-144.5 46.5zM424.5 177.5q36.5 69.5 36.5 202.5t-36.5 202.5t-98.5 69.5q-63 0 -99 -69.5t-36 -202.5t36 -202.5
t99 -69.5q62 0 98.5 69.5z" />
    <glyph glyph-name="one" unicode="1" horiz-adv-x="403" 
d="M286 760v-760h-133v571q-46 -10 -113 -10v105q68 0 102.5 20.5t45.5 73.5h98z" />
    <glyph glyph-name="two" unicode="2" horiz-adv-x="549" 
d="M201 210q-22 -43 -22 -98h314v-112h-456v58q0 114 32 190t120 133l95 63q78 50 78 126q0 42 -23 67.5t-63 25.5q-41 0 -66.5 -25.5t-32.5 -64.5l-133 9q19 89 82 139.5t157 50.5q68 0 116.5 -26.5t74 -73t25.5 -105.5q0 -68 -36 -121t-116 -107l-72 -51q-52 -35 -74 -78z
" />
    <glyph glyph-name="three" unicode="3" horiz-adv-x="560" 
d="M480 333.5q32 -49.5 32 -114.5t-27.5 -117.5t-80 -83t-125.5 -30.5q-100 0 -159 51.5t-76 151.5l128 10q12 -52 37 -75t65 -23q49 0 76 33t27 88q0 58 -34 91.5t-102 33.5h-52v101h46q58 0 89.5 32.5t31.5 82.5q0 43 -21 70.5t-63 27.5q-74 0 -94 -90l-129 9
q19 90 77.5 140t154.5 50q68 0 115 -27t69.5 -71.5t22.5 -95.5q0 -53 -25 -97t-70 -73q55 -25 87 -74.5z" />
    <glyph glyph-name="four" unicode="4" horiz-adv-x="590" 
d="M580 169h-87v-169h-128v169h-318v106l103 485h132l-107 -485h190v242h128v-242h87v-106z" />
    <glyph glyph-name="five" unicode="5" horiz-adv-x="573" 
d="M432 475.5q49 -33.5 73.5 -91.5t24.5 -129q0 -76 -29 -136.5t-85 -95.5t-135 -35q-98 0 -159.5 54.5t-78.5 149.5l131 9q11 -53 39.5 -78t69.5 -25q55 0 84 41t29 113q0 73 -29.5 113.5t-83.5 40.5q-32 0 -61.5 -16t-50.5 -38l-105 24v384h409v-108h-280v-173
q52 30 117 30q71 0 120 -33.5z" />
    <glyph glyph-name="six" unicode="6" horiz-adv-x="609" 
d="M462 476.5q49 -32.5 75.5 -89.5t26.5 -129q0 -79 -31.5 -140.5t-87.5 -95.5t-126 -34q-125 0 -195.5 93t-70.5 262q0 195 65 312t204 117q84 0 141.5 -45.5t80.5 -133.5l-130 -9q-12 42 -37.5 61.5t-58.5 19.5q-119 0 -129 -237q29 40 70 60.5t89 20.5q65 0 114 -32.5z
M397.5 140q32.5 43 32.5 113q0 69 -31.5 111t-82.5 42t-83.5 -42t-32.5 -111q0 -68 33.5 -112t83.5 -44q48 0 80.5 43z" />
    <glyph glyph-name="seven" unicode="7" horiz-adv-x="484" 
d="M490 760l-328 -760h-139l279 650h-289v110h477z" />
    <glyph glyph-name="eight" unicode="8" horiz-adv-x="590" 
d="M513.5 322.5q33.5 -46.5 33.5 -116.5q0 -98 -65 -158t-187 -60q-82 0 -139 29t-85 78t-28 110q0 67 33 118t92 82q-44 35 -71 82t-27 98q0 49 24 91.5t75.5 69t129.5 26.5t130.5 -25.5t77.5 -68t25 -95.5q0 -55 -30.5 -101.5t-83.5 -78.5q62 -34 95.5 -80.5zM230 646.5
q-26 -22.5 -26 -65.5q0 -36 23.5 -68.5t73.5 -55.5l30 -13q69 56 69 129q0 46 -26 71t-74 25q-44 0 -70 -22.5zM380 125.5q33 31.5 33 82.5q0 74 -103 122l-58 27q-37 -27 -56 -64.5t-19 -78.5q0 -56 33 -88t84 -32q53 0 86 31.5z" />
    <glyph glyph-name="nine" unicode="9" horiz-adv-x="609" 
d="M485 679q70 -93 70 -265q0 -132 -31.5 -227.5t-91.5 -147t-143 -51.5q-86 0 -145.5 46t-84.5 133l129 9q14 -43 40.5 -62t60.5 -19q62 0 94 62.5t37 176.5q-29 -41 -70 -62t-90 -21q-65 0 -114 32.5t-75 89.5t-26 129q0 79 31.5 140.5t87.5 95.5t126 34q125 0 195 -93z
M376 396q33 42 33 108q0 70 -33.5 114.5t-83.5 44.5q-48 0 -80.5 -43.5t-32.5 -115.5q0 -66 31.5 -108t82.5 -42q50 0 83 42z" />
    <glyph glyph-name="colon" unicode=":" horiz-adv-x="261" 
d="M73.5 12q-23.5 24 -23.5 57t23.5 57t57.5 24q33 0 56.5 -24t23.5 -57t-23.5 -57t-56.5 -24q-34 0 -57.5 24zM73.5 354q-23.5 24 -23.5 57t23.5 57t57.5 24q33 0 56.5 -24t23.5 -57t-23.5 -57t-56.5 -24q-34 0 -57.5 24z" />
    <glyph glyph-name="semicolon" unicode=";" horiz-adv-x="263" 
d="M74.5 354q-23.5 24 -23.5 57t23.5 57t57.5 24q33 0 56.5 -24t23.5 -57t-23.5 -57t-56.5 -24q-34 0 -57.5 24zM189.5 126.5q23.5 -23.5 23.5 -68.5q0 -54 -36.5 -109t-101.5 -87l-25 35q54 43 70 95q-29 4 -49.5 26.5t-20.5 51.5q0 33 23.5 56.5t58.5 23.5
q34 0 57.5 -23.5z" />
    <glyph glyph-name="less" unicode="&#x3c;" horiz-adv-x="512" 
d="M432 417l-257 -147l257 -151v-116l-352 211v112l352 207v-116z" />
    <glyph glyph-name="equal" unicode="=" horiz-adv-x="524" 
d="M80 417h364v-94h-364v94zM80 208h364v-95h-364v95z" />
    <glyph glyph-name="greater" unicode="&#x3e;" horiz-adv-x="512" 
d="M80 417l257 -147l-257 -151v-116l352 211v112l-352 207v-116z" />
    <glyph glyph-name="question" unicode="?" horiz-adv-x="542" 
d="M178 253q0 55 8.5 90.5t30.5 64t65 55.5l22 14q47 31 47 95q0 43 -20 65.5t-58 22.5q-40 0 -65.5 -22.5t-42.5 -65.5l-105 44q26 69 79.5 112.5t139.5 43.5q95 0 149 -54t54 -140q0 -114 -103 -181l-25 -16q-31 -21 -42.5 -48.5t-11.5 -70.5v-38h-122v29zM181.5 12
q-23.5 24 -23.5 57t23.5 57t57.5 24q33 0 56.5 -24t23.5 -57t-23.5 -57t-56.5 -24q-34 0 -57.5 24z" />
    <glyph glyph-name="at" unicode="@" horiz-adv-x="976" 
d="M711 718.5q88 -53.5 136.5 -147.5t48.5 -211q0 -90 -26 -151t-68.5 -91t-91.5 -30q-51 0 -86.5 24.5t-49.5 67.5q-23 -42 -60 -67t-88 -25q-43 0 -78.5 25.5t-57 72t-21.5 105.5q0 69 25.5 127.5t69.5 93.5t97 35q71 0 112 -62l5 52h115l-25 -251q-3 -21 -3 -30
q0 -30 14.5 -48t37.5 -18q32 0 52 44.5t20 121.5q0 96 -36 168.5t-100 111.5t-148 39q-97 0 -169 -52.5t-110.5 -140t-38.5 -190.5q0 -102 36 -177.5t101.5 -116.5t152.5 -41q53 0 91.5 8.5t76.5 28.5l30 -88q-51 -27 -98.5 -37.5t-111.5 -10.5q-112 0 -199.5 55.5
t-136.5 153.5t-49 222q0 132 53.5 242.5t151 175.5t224.5 65q114 0 202 -53.5zM513.5 207.5q22.5 20.5 35.5 55t13 74.5q0 51 -20 82t-54 31q-27 0 -50 -19.5t-37 -53t-14 -74.5q0 -51 21.5 -83.5t55.5 -32.5q27 0 49.5 20.5z" />
    <glyph glyph-name="A" unicode="A" horiz-adv-x="575" 
d="M407 123h-238l-28 -123h-139l210 760h152l210 -760h-139zM383 226l-95 411l-95 -411h190z" />
    <glyph glyph-name="B" unicode="B" horiz-adv-x="553" 
d="M500.5 332q27.5 -47 27.5 -111t-26 -114t-76 -78.5t-118 -28.5h-245v760h237q102 0 154 -54t52 -139q0 -114 -89 -163q56 -25 83.5 -72zM194 657v-213h83q51 0 76.5 30t25.5 80q0 47 -24 75t-74 28h-87zM371 140q27 34 27 88q0 52 -27 85.5t-75 33.5h-102v-241h100
q50 0 77 34z" />
    <glyph glyph-name="C" unicode="C" horiz-adv-x="720" 
d="M195.5 38.5q-74.5 50.5 -115.5 139.5t-41 201q0 113 40.5 202.5t115 140t173.5 50.5q123 0 204 -75t109 -203l-137 -12q-19 79 -63.5 123.5t-113.5 44.5q-89 0 -139.5 -74.5t-50.5 -194.5q0 -81 23 -142t66 -95t101 -34q68 0 113.5 45.5t64.5 124.5l136 -13
q-28 -128 -109 -203.5t-203 -75.5q-99 0 -173.5 50.5z" />
    <glyph glyph-name="D" unicode="D" horiz-adv-x="676" 
d="M480.5 710.5q76.5 -49.5 116.5 -135.5t40 -195q0 -108 -39.5 -194.5t-116 -136t-183.5 -49.5h-235v760h235q106 0 182.5 -49.5zM445 184.5q54 72.5 54 195.5t-54 195.5t-156 72.5h-92v-536h92q102 0 156 72.5z" />
    <glyph glyph-name="E" unicode="E" horiz-adv-x="495" 
d="M447 112v-112h-384v760h381v-112h-247v-198h240v-109h-240v-229h250z" />
    <glyph glyph-name="F" unicode="F" horiz-adv-x="465" 
d="M197 648v-198h225v-109h-225v-341h-134v760h366v-112h-232z" />
    <glyph glyph-name="G" unicode="G" horiz-adv-x="712" 
d="M341 414h313v-318q-50 -48 -119.5 -77.5t-153.5 -29.5q-107 0 -184.5 50t-117.5 138t-40 200q0 114 40.5 203.5t114 140.5t167.5 51q120 0 194 -64t106 -165l-141 -13q-17 51 -57 86t-102 35q-56 0 -97.5 -34.5t-64 -97t-22.5 -143.5q0 -124 52.5 -198.5t151.5 -74.5
q83 0 146 48v161h-186v102z" />
    <glyph glyph-name="H" unicode="H" horiz-adv-x="624" 
d="M561 760v-760h-134v338h-230v-338h-134v760h134v-310h230v310h134z" />
    <glyph glyph-name="I" unicode="I" horiz-adv-x="260" 
d="M63 760h134v-760h-134v760z" />
    <glyph glyph-name="J" unicode="J" horiz-adv-x="552" 
d="M101.5 50q-63.5 62 -69.5 177l133 9q3 -62 30 -94t68 -32q45 0 71 35.5t26 108.5v506h134v-501q0 -133 -63 -202t-168 -69q-98 0 -161.5 62z" />
    <glyph glyph-name="K" unicode="K" horiz-adv-x="573" 
d="M277 331l-81 -123v-208h-133v760h133v-366l218 366h144l-209 -319l221 -441h-137z" />
    <glyph glyph-name="L" unicode="L" horiz-adv-x="446" 
d="M427 112v-112h-364v760h134v-648h230z" />
    <glyph glyph-name="M" unicode="M" horiz-adv-x="774" 
d="M609 0l-35 570l-151 -570h-72l-151 570l-35 -570h-126l60 760h144l144 -553l144 553h144l60 -760h-126z" />
    <glyph glyph-name="N" unicode="N" horiz-adv-x="628" 
d="M565 760v-760h-130l-242 549v-549h-130v760h130l242 -547v547h130z" />
    <glyph glyph-name="O" unicode="O" horiz-adv-x="735" 
d="M194.5 39q-74.5 51 -115 140t-40.5 201t40.5 201.5t115 140t172.5 50.5q99 0 173.5 -50.5t115 -140t40.5 -201.5t-40.5 -201t-115.5 -140t-173 -51t-172.5 51zM468.5 143.5q43.5 33.5 66.5 94.5t23 142t-23 142t-66.5 94.5t-101.5 33.5t-101 -33.5t-66 -94.5t-23 -142
t23 -142t66 -94.5t101 -33.5t101.5 33.5z" />
    <glyph glyph-name="P" unicode="P" horiz-adv-x="579" 
d="M480 690q64 -70 64 -194t-64.5 -196t-184.5 -72h-99v-228h-133v760h231q122 0 186 -70zM377 379q33 42 33 117q0 155 -136 155h-78v-314h79q69 0 102 42z" />
    <glyph glyph-name="Q" unicode="Q" horiz-adv-x="735" 
d="M664.5 200.5q-31.5 -81.5 -89.5 -134.5l73 -133l-108 -76l-79 144q-47 -13 -94 -13q-98 0 -172.5 51t-115 140t-40.5 201t40.5 201.5t115 140t172.5 50.5q99 0 173.5 -50.5t115 -140t40.5 -201.5q0 -98 -31.5 -179.5zM400 113l-102 187l109 75l102 -187q49 70 49 192
q0 81 -23 142t-66.5 94.5t-101.5 33.5t-101 -33.5t-66 -94.5t-23 -142t23 -142t66 -94.5t101 -33.5q18 0 33 3z" />
    <glyph glyph-name="R" unicode="R" horiz-adv-x="582" 
d="M415 0l-99 229q-8 -1 -23 -1h-97v-228h-133v760h232q121 0 185 -70t64 -194q0 -81 -29 -141.5t-85 -93.5l123 -261h-138zM276 337q69 0 101.5 42t32.5 117q0 155 -135 155h-79v-314h80z" />
    <glyph glyph-name="S" unicode="S" horiz-adv-x="588" 
d="M114.5 48q-64.5 60 -76.5 165l136 10q6 -73 41 -100.5t81 -27.5q52 0 82.5 28.5t30.5 83.5q0 49 -24 73t-70 41l-72 26q-104 37 -150 87t-46 134q0 100 64.5 152t166.5 52q117 0 178.5 -58t73.5 -160l-137 -13q-10 125 -113 125q-45 0 -70 -22.5t-25 -69.5
q0 -41 22.5 -66.5t75.5 -44.5l72 -26q60 -21 100.5 -45.5t65.5 -67.5t25 -110q0 -106 -66.5 -166t-182.5 -60q-118 0 -182.5 60z" />
    <glyph glyph-name="T" unicode="T" horiz-adv-x="529" 
d="M508 648h-176v-648h-134v648h-176v112h486v-112z" />
    <glyph glyph-name="U" unicode="U" horiz-adv-x="630" 
d="M121 63.5q-63 75.5 -63 228.5v468h134v-477q0 -89 29.5 -131t93.5 -42t94 42t30 131v477h133v-468q0 -153 -63 -228.5t-194 -75.5t-194 75.5z" />
    <glyph glyph-name="V" unicode="V" horiz-adv-x="572" 
d="M570 760l-212 -760h-145l-211 760h139l145 -613l145 613h139z" />
    <glyph glyph-name="W" unicode="W" horiz-adv-x="867" 
d="M856 760l-168 -760h-139l-115 563l-116 -563h-138l-168 760h139l105 -617l120 617h117l119 -616l104 616h140z" />
    <glyph glyph-name="X" unicode="X" horiz-adv-x="565" 
d="M417 0l-134 277l-134 -277h-147l211 390l-200 370h148l122 -261l121 261h148l-199 -370l210 -390h-146z" />
    <glyph glyph-name="Y" unicode="Y" horiz-adv-x="539" 
d="M544 760l-324 -760h-135l132 309h-1l-213 451h139l133 -313l134 313h135z" />
    <glyph glyph-name="Z" unicode="Z" horiz-adv-x="547" 
d="M214 112h301v-112h-493l311 648h-279v112h471z" />
    <glyph glyph-name="bracketleft" unicode="[" horiz-adv-x="410" 
d="M330 12v-98h-230v958h226v-98h-111v-762h115z" />
    <glyph glyph-name="backslash" unicode="\" horiz-adv-x="454" 
d="M189 760h-139l216 -760h138z" />
    <glyph glyph-name="bracketright" unicode="]" horiz-adv-x="410" 
d="M80 12v-98h230v958h-226v-98h111v-762h-115z" />
    <glyph glyph-name="asciicircum" unicode="^" horiz-adv-x="498" 
d="M307 397l-56 159l-60 -159h-111l111 232h119l108 -232h-111z" />
    <glyph glyph-name="underscore" unicode="_" horiz-adv-x="528" 
d="M30 -71h468v-98h-468v98z" />
    <glyph glyph-name="grave" unicode="`" horiz-adv-x="292" 
d="M182 760l60 -171h-84l-108 171h132z" />
    <glyph glyph-name="a" unicode="a" horiz-adv-x="577" 
d="M518 517v-517h-119l-9 85q-22 -44 -60.5 -70.5t-88.5 -26.5q-55 0 -101 34t-73.5 96t-27.5 140t26.5 139.5t72 96t101.5 34.5q50 0 89 -26.5t61 -69.5v85h129zM362 141q31 46 31 118q0 71 -31 116.5t-79 45.5q-51 0 -81.5 -45t-30.5 -118t30.5 -118t81.5 -45q48 0 79 46z
" />
    <glyph glyph-name="b" unicode="b" horiz-adv-x="577" 
d="M438 494q46 -34 72.5 -95t26.5 -140q0 -80 -27 -141.5t-73.5 -95.5t-101.5 -34q-48 0 -86.5 25t-61.5 68l-8 -81h-121v760h130v-328q23 45 61.5 70.5t87.5 25.5q55 0 101 -34zM374.5 139.5q30.5 44.5 30.5 117.5t-29.5 118.5t-79.5 45.5t-81 -45.5t-31 -117.5t31 -117.5
t80 -45.5t79.5 44.5z" />
    <glyph glyph-name="c" unicode="c" horiz-adv-x="538" 
d="M146.5 23q-53.5 35 -80.5 96t-27 139q0 79 27.5 140t80.5 95.5t129 34.5q93 0 151.5 -50.5t73.5 -136.5l-124 -12q-11 45 -36.5 69t-64.5 24q-49 0 -78.5 -43.5t-29.5 -120.5q0 -76 30 -119.5t79 -43.5q39 0 65 25.5t37 72.5l123 -11q-16 -88 -74.5 -141t-151.5 -53
q-76 0 -129.5 35z" />
    <glyph glyph-name="d" unicode="d" horiz-adv-x="577" 
d="M518 760v-760h-119l-9 83q-22 -43 -59 -69t-89 -26q-55 0 -101.5 34t-74 95.5t-27.5 140.5q0 78 26.5 139.5t72 96t101.5 34.5q50 0 89 -25.5t60 -67.5v325h130zM361.5 140.5q30.5 45.5 30.5 118.5t-30 117.5t-81 44.5q-50 0 -80 -45t-30 -118q0 -74 30.5 -118.5
t79.5 -44.5q50 0 80.5 45.5z" />
    <glyph glyph-name="e" unicode="e" horiz-adv-x="549" 
d="M509 218h-340q5 -65 34.5 -99t75.5 -34q35 0 58.5 21t35.5 57l129 -12q-27 -78 -83.5 -120.5t-142.5 -42.5q-112 0 -174.5 74t-62.5 198q0 122 61.5 195t172.5 73q114 0 175.5 -75.5t61.5 -198.5q0 -25 -1 -36zM201 396q-28 -34 -32 -99h213q-5 64 -31.5 98.5t-74.5 34.5
q-47 0 -75 -34z" />
    <glyph glyph-name="f" unicode="f" horiz-adv-x="319" 
d="M215 649q-14 -21 -14 -74v-58h109v-104h-109v-413h-129v413h-65l7 104h58v67q0 98 38 143t116 45q30 0 62 -7t47 -15l-6 -93q-30 13 -66 13q-34 0 -48 -21z" />
    <glyph glyph-name="g" unicode="g" horiz-adv-x="577" 
d="M518 517v-469q0 -121 -60 -189.5t-171 -68.5q-86 0 -141 36.5t-75 97.5l130 16q22 -58 85 -58q102 0 102 154v48q-22 -42 -58.5 -66t-87.5 -24q-55 0 -101.5 33.5t-74 93.5t-27.5 137q0 79 26.5 140.5t72.5 95.5t102 34q51 0 89.5 -27t59.5 -72l9 88h120zM361.5 142
q30.5 46 30.5 117q0 72 -30.5 117t-79.5 45q-50 0 -80.5 -45t-30.5 -117q0 -73 30.5 -118t80.5 -45q49 0 79.5 46z" />
    <glyph glyph-name="h" unicode="h" horiz-adv-x="544" 
d="M451 474q39 -54 39 -148v-326h-130v302q0 66 -19 95.5t-61 29.5q-48 0 -70 -45.5t-22 -108.5v-273h-130v760h130v-321q24 43 61 66t84 23q79 0 118 -54z" />
    <glyph glyph-name="i" unicode="i" horiz-adv-x="248" 
d="M68 629q-23 23 -23 55q0 34 23 57t56 23q32 0 55 -23t23 -57q0 -32 -23 -55t-55 -23q-33 0 -56 23zM59 517h130v-517h-130v517z" />
    <glyph glyph-name="j" unicode="j" horiz-adv-x="249" 
d="M70 629q-23 23 -23 55q0 34 23 57t56 23q32 0 55 -23t23 -57q0 -32 -23 -55t-55 -23q-33 0 -56 23zM-13 -205q-27 5 -47 12l7 99q32 -10 58 -10q34 0 45.5 19t11.5 70v532h129v-548q0 -94 -38.5 -136.5t-114.5 -42.5q-24 0 -51 5z" />
    <glyph glyph-name="k" unicode="k" horiz-adv-x="483" 
d="M237 225l-50 -62v-163h-129v760h129v-440l143 197h141l-163 -203l180 -314h-131z" />
    <glyph glyph-name="l" unicode="l" horiz-adv-x="288" 
d="M128.5 5q-36.5 17 -53.5 58.5t-17 116.5v580h129v-579q0 -50 15 -68.5t52 -18.5h10l9 -103q-19 -3 -47 -3q-61 0 -97.5 17z" />
    <glyph glyph-name="m" unicode="m" horiz-adv-x="801" 
d="M707 476q40 -52 40 -152v-324h-130v302q0 63 -16.5 94t-50.5 31q-44 0 -63 -46t-19 -111v-270h-130v301q0 66 -17 96t-51 30q-44 0 -63 -46t-19 -108v-273h-130v517h117l11 -77q21 43 55.5 65.5t78.5 22.5q49 0 83.5 -28t51.5 -79q21 52 58 79.5t85 27.5q69 0 109 -52z
" />
    <glyph glyph-name="n" unicode="n" horiz-adv-x="544" 
d="M452.5 473q38.5 -55 38.5 -150v-323h-130v302q0 66 -19.5 95.5t-61.5 29.5q-48 0 -70 -45.5t-22 -108.5v-273h-130v517h117l11 -82q24 46 61.5 69.5t85.5 23.5q81 0 119.5 -55z" />
    <glyph glyph-name="o" unicode="o" horiz-adv-x="557" 
d="M148 23q-54 35 -81.5 96t-27.5 139t27.5 139.5t81.5 96t130 34.5t130.5 -34.5t82 -95.5t27.5 -140q0 -78 -27.5 -139t-82 -96t-130.5 -35t-130 35zM358 138.5q30 43.5 30 119.5q0 77 -30 120.5t-80 43.5t-79.5 -43.5t-29.5 -120.5q0 -76 30 -119.5t79 -43.5q50 0 80 43.5
z" />
    <glyph glyph-name="p" unicode="p" horiz-adv-x="577" 
d="M438 494.5q46 -33.5 72.5 -95t26.5 -141.5t-27 -141.5t-73.5 -95t-101.5 -33.5q-48 0 -86 25t-61 68v-279h-130v715h121l9 -88q22 47 61 73t88 26q55 0 101 -33.5zM374.5 139.5q30.5 44.5 30.5 118.5q0 73 -30 118t-80 45q-49 0 -80 -45t-31 -117t31 -118t80 -46
t79.5 44.5z" />
    <glyph glyph-name="q" unicode="q" horiz-adv-x="573" 
d="M518 517v-715h-130v280q-23 -43 -59.5 -68.5t-86.5 -25.5q-55 0 -101.5 33.5t-74 95t-27.5 140.5q0 78 26.5 139.5t72 96.5t101.5 35q52 0 90.5 -27t59.5 -71l9 87h120zM361.5 140.5q30.5 45.5 30.5 118.5q0 72 -30.5 117t-80.5 45q-49 0 -79.5 -45.5t-30.5 -117.5
q0 -73 30.5 -118t79.5 -45q50 0 80.5 45.5z" />
    <glyph glyph-name="r" unicode="r" horiz-adv-x="366" 
d="M351 525l-8 -125q-26 7 -51 7q-52 0 -78 -47.5t-26 -123.5v-236h-130v517h115l14 -94q21 52 55 78.5t74 26.5q23 0 35 -3z" />
    <glyph glyph-name="s" unicode="s" horiz-adv-x="468" 
d="M89 29.5q-52 41.5 -61 116.5l127 11q5 -39 23 -58t56 -19q75 0 75 62q0 33 -20.5 49.5t-71.5 31.5l-31 9q-51 16 -82.5 33t-49.5 45.5t-18 72.5q0 72 48.5 108.5t141.5 36.5q84 0 136.5 -38.5t62.5 -106.5l-125 -10q-3 29 -19 47.5t-51 18.5q-31 0 -48 -13t-17 -36
q0 -21 17 -35t57 -27l28 -9q59 -19 94 -36.5t56 -49.5t21 -84q0 -80 -54.5 -120.5t-147.5 -40.5q-95 0 -147 41.5z" />
    <glyph glyph-name="t" unicode="t" horiz-adv-x="347" 
d="M319 -1q-49 -11 -95 -11q-79 0 -115 41.5t-36 138.5v245h-66l6 104h60v126h130v-126h105v-104h-105v-237q0 -47 12 -65t44 -18q27 0 53 7z" />
    <glyph glyph-name="u" unicode="u" horiz-adv-x="537" 
d="M479 517v-517h-117l-10 81q-23 -45 -59 -69t-82 -24q-158 0 -158 194v335h130v-315q0 -62 19 -86.5t59 -24.5q47 0 67.5 45.5t20.5 107.5v273h130z" />
    <glyph glyph-name="v" unicode="v" horiz-adv-x="480" 
d="M485 517l-177 -517h-136l-177 517h138l107 -408l107 408h138z" />
    <glyph glyph-name="w" unicode="w" horiz-adv-x="709" 
d="M704 517l-141 -517h-127l-82 374l-81 -374h-129l-139 517h134l78 -404l86 404h103l86 -404l77 404h135z" />
    <glyph glyph-name="x" unicode="x" horiz-adv-x="464" 
d="M324 0l-92 180l-92 -180h-140l161 264l-154 253h140l85 -165l84 165h141l-154 -253l161 -264h-140z" />
    <glyph glyph-name="y" unicode="y" horiz-adv-x="539" 
d="M481 517v-475q0 -120 -58.5 -186t-160.5 -66q-84 0 -135.5 36t-68.5 98l129 16q16 -58 74 -58q48 0 69 39t21 117v47q-23 -43 -58.5 -65t-79.5 -22q-158 0 -158 193v326h130v-305q0 -63 19.5 -87t58.5 -24q46 0 67 45t21 107v264h130z" />
    <glyph glyph-name="z" unicode="z" horiz-adv-x="454" 
d="M208 103h217v-103h-405l223 414h-200l7 103h382z" />
    <glyph glyph-name="braceleft" unicode="{" horiz-adv-x="439" 
d="M271 447q-16 -34 -45 -54q29 -20 45 -53.5t16 -79.5v-161q0 -45 15.5 -68t56.5 -23v-94h-31q-80 0 -118.5 47t-38.5 144v158q0 41 -15.5 63t-55.5 22v90q40 0 55.5 22.5t15.5 63.5v155q0 97 38.5 145t118.5 48h31v-94q-41 0 -56.5 -23t-15.5 -68v-160q0 -46 -16 -80z" />
    <glyph glyph-name="bar" unicode="|" horiz-adv-x="375" 
d="M120 760h135v-958h-135v958z" />
    <glyph glyph-name="braceright" unicode="}" horiz-adv-x="439" 
d="M168 447q16 -34 45 -54q-29 -20 -45 -53.5t-16 -79.5v-161q0 -45 -15.5 -68t-56.5 -23v-94h31q80 0 118.5 47t38.5 144v158q0 41 15.5 63t55.5 22v90q-40 0 -55.5 22.5t-15.5 63.5v155q0 97 -38.5 145t-118.5 48h-31v-94q41 0 56.5 -23t15.5 -68v-160q0 -46 16 -80z" />
    <glyph glyph-name="asciitilde" unicode="~" horiz-adv-x="538" 
d="M315 381q-21 7 -48 20q-26 13 -47.5 20t-44.5 7q-56 0 -95 -41v103q36 38 95 38q24 0 44.5 -7t48.5 -21q27 -13 48 -19.5t45 -6.5q60 0 97 41v-103q-16 -18 -42.5 -28t-55.5 -10q-24 0 -45 7z" />
    <glyph glyph-name="uni00A0" unicode="&#xa0;" horiz-adv-x="178" 
 />
    <glyph glyph-name="exclamdown" unicode="&#xa1;" horiz-adv-x="281" 
d="M197.5 550q23.5 -24 23.5 -57t-23.5 -57t-56.5 -24q-34 0 -57.5 24t-23.5 57t23.5 57t57.5 24q33 0 56.5 -24zM190 335l12 -533h-123l12 533h99z" />
    <glyph glyph-name="cent" unicode="&#xa2;" horiz-adv-x="622" 
d="M486 58q-44 -50 -115 -65v-120h-118v122q-84 21 -128.5 91.5t-44.5 171.5t45 171.5t128 91.5v117h118v-115q70 -13 114 -61t57 -121l-124 -12q-12 55 -47 78v-297q35 24 49 83l123 -11q-13 -74 -57 -124zM253 121v275q-44 -42 -44 -138q0 -95 44 -137z" />
    <glyph glyph-name="sterling" unicode="&#xa3;" horiz-adv-x="601" 
d="M520 106v-106h-432v106h85q42 61 42 128q0 24 -7 49h-109v84h71l-18 25q-71 94 -71 179q0 55 24.5 100.5t72 73t114.5 27.5q95 0 153 -52t74 -150l-123 -9q-9 47 -33 73t-63 26q-40 0 -62 -25t-22 -65q0 -27 16 -62.5t46 -73.5q24 -30 43 -67h150v-84h-124q3 -18 3 -35
q0 -73 -36 -142h206z" />
    <glyph glyph-name="currency" unicode="&#xa4;" horiz-adv-x="758" 
d="M601 222l77 -76l-87 -88l-80 81q-61 -33 -135 -33q-72 0 -131 31l-78 -79l-87 88l74 73q-41 62 -41 139q0 78 40 138l-73 72l87 88l76 -77q59 32 133 32q75 0 137 -34l77 79l88 -88l-76 -75q38 -60 38 -135q0 -77 -39 -136zM472 252.5q38 39.5 38 105.5t-38 106t-96 40
t-95.5 -40t-37.5 -106t37.5 -105.5t95.5 -39.5t96 39.5z" />
    <glyph glyph-name="yen" unicode="&#xa5;" horiz-adv-x="677" 
d="M443 411h106v-85h-143v-68h143v-84h-143v-174h-134v174h-144v84h144v68h-144v85h108l-156 349h138l121 -323l120 323h138z" />
    <glyph glyph-name="brokenbar" unicode="&#xa6;" horiz-adv-x="375" 
d="M120 760h135v-352h-135v352zM120 154h135v-352h-135v352z" />
    <glyph glyph-name="section" unicode="&#xa7;" horiz-adv-x="615" 
d="M503.5 66.5q16.5 -34.5 16.5 -79.5q0 -86 -53 -141.5t-158 -55.5q-107 0 -162.5 59t-66.5 157l131 12q12 -121 97 -121q46 0 66 21.5t20 63.5q0 34 -17 56.5t-51 36.5l-57 22q-85 34 -127 77.5t-42 118.5q0 86 63 144q-69 53 -69 141q0 54 23.5 98t70.5 70t115 26
q107 0 164.5 -60.5t67.5 -156.5l-131 -12q-5 58 -29.5 90t-69.5 32q-84 0 -84 -81q0 -64 68 -93l57 -23q85 -34 127 -77.5t42 -118.5q0 -85 -63 -143q35 -28 51.5 -62.5zM247.5 243.5q22.5 -24.5 81.5 -50.5l32 -14q13 16 21 37t8 44q0 36 -21.5 61t-82.5 52l-32 14
q-13 -16 -21 -37.5t-8 -44.5q0 -37 22.5 -61.5z" />
    <glyph glyph-name="dieresis" unicode="&#xa8;" horiz-adv-x="426" 
d="M70 634.5q-20 20.5 -20 49.5t20 49.5t49 20.5t49.5 -20.5t20.5 -49.5t-20.5 -49.5t-49.5 -20.5t-49 20.5zM257.5 634.5q-20.5 20.5 -20.5 49.5t20.5 49.5t49.5 20.5t49 -20.5t20 -49.5t-20 -49.5t-49 -20.5t-49.5 20.5z" />
    <glyph glyph-name="copyright" unicode="&#xa9;" horiz-adv-x="980" 
d="M277.5 40.5q-93.5 52.5 -145.5 142t-52 197.5t52 197.5t145.5 142t212.5 52.5q120 0 213.5 -52.5t145.5 -142t52 -197.5t-52 -197.5t-145.5 -142t-213.5 -52.5q-119 0 -212.5 52.5zM664.5 100.5q76.5 43.5 119 117.5t42.5 162t-42.5 162t-119 117.5t-174.5 43.5
t-174 -43.5t-118.5 -117.5t-42.5 -162t42.5 -162t118.5 -117.5t174 -43.5t174.5 43.5zM341.5 211.5q-53.5 65.5 -53.5 169.5t54 169.5t151 65.5q80 0 130.5 -43.5t64.5 -118.5l-105 -10q-10 39 -33 60t-57 21q-44 0 -70 -37.5t-26 -106.5q0 -68 26.5 -106t69.5 -38
q35 0 58.5 22.5t33.5 64.5l104 -9q-14 -77 -64.5 -123t-131.5 -46q-98 0 -151.5 65.5z" />
    <glyph glyph-name="ordfeminine" unicode="&#xaa;" horiz-adv-x="495" 
d="M435 760v-386h-92l-6 57q-20 -32 -48.5 -49t-64.5 -17q-43 0 -81 25.5t-60.5 71.5t-22.5 106t22.5 106.5t60.5 72t81 25.5q35 0 63.5 -17t48.5 -48v53h99zM308 484.5q24 31.5 24 83.5q0 53 -23.5 84t-59.5 31t-61 -32.5t-25 -82.5t25 -82.5t61 -32.5q35 0 59 31.5z" />
    <glyph glyph-name="guillemotleft" unicode="&#xab;" horiz-adv-x="504" 
d="M154 480h104l-90 -208l90 -208h-104l-94 208zM341 480h104l-90 -208l90 -208h-104l-94 208z" />
    <glyph glyph-name="logicalnot" unicode="&#xac;" horiz-adv-x="582" 
d="M502 424v-239h-109v141h-313v98h422z" />
    <glyph glyph-name="uni00AD" unicode="&#xad;" horiz-adv-x="400" 
d="M60 317h280v-103h-280v103z" />
    <glyph glyph-name="registered" unicode="&#xae;" horiz-adv-x="714" 
d="M500.5 737q63.5 -35 98.5 -95.5t35 -133.5q0 -72 -35.5 -132.5t-98.5 -96t-143 -35.5q-81 0 -144 35.5t-98 96t-35 132.5q0 73 35 133.5t98 95.5t144 35q80 0 143.5 -35zM464.5 335.5q46.5 26.5 72.5 72t26 100.5t-26 100.5t-72.5 72t-107.5 26.5t-108 -26.5t-73 -72
t-26 -100.5t26 -100.5t73 -72t108 -26.5t107.5 26.5zM419 479l41 -91h-70l-32 77h-11v-77h-69v255h84q46 0 70.5 -23.5t24.5 -64.5q0 -52 -38 -76zM347 521h11q30 0 30 34q0 33 -30 33h-11v-67z" />
    <glyph glyph-name="macron" unicode="&#xaf;" horiz-adv-x="347" 
d="M50 733h247v-79h-247v79z" />
    <glyph glyph-name="degree" unicode="&#xb0;" horiz-adv-x="438" 
d="M149 515.5q-32 18.5 -50.5 50t-18.5 68.5t18.5 69t50.5 50.5t70 18.5t70 -18.5t50.5 -50.5t18.5 -69t-18.5 -68.5t-50.5 -50t-70 -18.5t-70 18.5zM265 588.5q19 19.5 19 45.5q0 27 -19 46t-46 19q-26 0 -45.5 -19t-19.5 -46q0 -26 19.5 -45.5t45.5 -19.5q27 0 46 19.5z
" />
    <glyph glyph-name="plusminus" unicode="&#xb1;" horiz-adv-x="524" 
d="M444 385h-134v-159h-95v159h-135v95h135v159h95v-159h134v-95zM80 115h364v-95h-364v95z" />
    <glyph glyph-name="uni00B2" unicode="&#xb2;" horiz-adv-x="430" 
d="M348 448v-79h-268v40q0 59 19.5 98.5t72.5 69.5l44 25q19 11 27.5 22.5t8.5 27.5q0 17 -9.5 27.5t-26.5 10.5q-18 0 -29.5 -9.5t-14.5 -24.5l-91 6q10 49 47 76.5t92 27.5q60 0 93 -30.5t33 -78.5q0 -39 -18 -64t-58 -51l-42 -29q-25 -18 -35.5 -31.5t-11.5 -33.5h167z
" />
    <glyph glyph-name="uni00B3" unicode="&#xb3;" horiz-adv-x="432" 
d="M337.5 535.5q14.5 -23.5 14.5 -54.5q0 -54 -36.5 -86t-97.5 -32q-57 0 -93.5 27.5t-44.5 77.5l93 7q3 -16 13.5 -25.5t27.5 -9.5q21 0 32.5 12t11.5 36q0 49 -60 49h-37v67h30q56 0 56 46q0 19 -9 29.5t-26 10.5q-16 0 -27 -9t-14 -25l-91 7q11 49 46.5 76t92.5 27
t89 -29t32 -77q0 -56 -45 -87q28 -14 42.5 -37.5z" />
    <glyph glyph-name="acute" unicode="&#xb4;" horiz-adv-x="292" 
d="M134 589h-84l60 171h132z" />
    <glyph glyph-name="uni00B5" unicode="&#xb5;" horiz-adv-x="586" 
d="M507 517v-517h-116l-11 83q-23 -46 -60 -70t-83 -24q-9 0 -27 2v-189h-130v715h130v-302q0 -67 18.5 -95.5t57.5 -28.5q48 0 69.5 46.5t21.5 108.5v271h130z" />
    <glyph glyph-name="paragraph" unicode="&#xb6;" horiz-adv-x="797" 
d="M717 658h-70v-856h-116v856h-112v-856h-115v446q-61 0 -112.5 34.5t-81.5 93.5t-30 128q0 70 30 128.5t81.5 93t112.5 34.5h413v-102z" />
    <glyph glyph-name="periodcentered" unicode="&#xb7;" horiz-adv-x="255" 
d="M73 339q-23 23 -23 55t23 54.5t54 22.5q32 0 55 -22.5t23 -54.5t-23 -55t-55 -23q-31 0 -54 23z" />
    <glyph glyph-name="cedilla" unicode="&#xb8;" horiz-adv-x="279" 
d="M206.5 -59q22.5 -22 22.5 -60q0 -42 -26.5 -66.5t-71.5 -24.5q-50 0 -81 18l18 51q22 -10 44 -10q16 0 25.5 9t9.5 26q0 14 -7.5 21.5t-19.5 7.5q-17 0 -31 -12l-24 16l26 106h58l-11 -60h10q36 0 58.5 -22z" />
    <glyph glyph-name="uni00B9" unicode="&#xb9;" horiz-adv-x="322" 
d="M242 760v-392h-95v263q-23 -7 -67 -7v88q43 0 68 11t31 37h63z" />
    <glyph glyph-name="ordmasculine" unicode="&#xba;" horiz-adv-x="484" 
d="M145 392q-41 27 -63 73t-22 103q0 56 22 102.5t63 74t97 27.5q55 0 96.5 -27.5t63.5 -74t22 -102.5t-22 -102.5t-63.5 -73.5t-96.5 -27q-56 0 -97 27zM300.5 484q22.5 31 22.5 84t-22.5 84.5t-58.5 31.5q-37 0 -59.5 -31t-22.5 -85q0 -53 22.5 -84t59.5 -31q36 0 58.5 31
z" />
    <glyph glyph-name="guillemotright" unicode="&#xbb;" horiz-adv-x="504" 
d="M350 480h-104l90 -208l-90 -208h104l94 208zM163 480h-104l90 -208l-90 -208h104l94 208z" />
    <glyph glyph-name="onequarter" unicode="&#xbc;" horiz-adv-x="918" 
d="M242 760v-392h-95v263q-23 -7 -67 -7v88q43 0 68 11t31 37h63zM581 760h134l-471 -760h-134zM838 94h-49v-94h-84v94h-173v80l62 217h85l-61 -217h87v106h84v-106h49v-80z" />
    <glyph glyph-name="onehalf" unicode="&#xbd;" horiz-adv-x="907" 
d="M242 760v-392h-95v263q-23 -7 -67 -7v88q43 0 68 11t31 37h63zM825 80v-79h-268v40q0 59 19.5 98.5t72.5 69.5l44 25q19 11 27.5 22.5t8.5 27.5q0 17 -9.5 27.5t-26.5 10.5q-18 0 -29.5 -9.5t-14.5 -24.5l-91 6q10 49 47 76.5t92 27.5q60 0 93 -30.5t33 -78.5
q0 -39 -18 -64t-58 -51l-42 -29q-25 -18 -35.5 -31.5t-11.5 -33.5h167zM581 760h134l-471 -760h-134z" />
    <glyph glyph-name="threequarters" unicode="&#xbe;" horiz-adv-x="985" 
d="M337.5 535.5q14.5 -23.5 14.5 -54.5q0 -54 -36.5 -86t-97.5 -32q-57 0 -93.5 27.5t-44.5 77.5l93 7q3 -16 13.5 -25.5t27.5 -9.5q21 0 32.5 12t11.5 36q0 49 -60 49h-37v67h30q56 0 56 46q0 19 -9 29.5t-26 10.5q-16 0 -27 -9t-14 -25l-91 7q11 49 46.5 76t92.5 27
t89 -29t32 -77q0 -56 -45 -87q28 -14 42.5 -37.5zM648 760h134l-471 -760h-134zM905 94h-49v-94h-84v94h-173v80l62 217h85l-61 -217h87v106h84v-106h49v-80z" />
    <glyph glyph-name="questiondown" unicode="&#xbf;" horiz-adv-x="542" 
d="M360.5 550q23.5 -24 23.5 -57t-23.5 -57t-57.5 -24q-33 0 -56.5 24t-23.5 57t23.5 57t56.5 24q34 0 57.5 -24zM364 309q0 -55 -8.5 -90.5t-30.5 -64t-65 -55.5l-22 -14q-47 -31 -47 -95q0 -43 20 -65.5t58 -22.5q40 0 65.5 22.5t42.5 65.5l105 -44q-26 -69 -79.5 -112.5
t-139.5 -43.5q-95 0 -149 54t-54 140q0 114 103 181l25 16q31 21 42.5 48.5t11.5 70.5v38h122v-29z" />
    <glyph glyph-name="Agrave" unicode="&#xc0;" horiz-adv-x="575" 
d="M407 123h-238l-28 -123h-139l210 760h152l210 -760h-139zM383 226l-95 411l-95 -411h190zM274 1004l60 -171h-84l-108 171h132z" />
    <glyph glyph-name="Aacute" unicode="&#xc1;" horiz-adv-x="575" 
d="M407 123h-238l-28 -123h-139l210 760h152l210 -760h-139zM383 226l-95 411l-95 -411h190zM326 833h-84l60 171h132z" />
    <glyph glyph-name="Acircumflex" unicode="&#xc2;" horiz-adv-x="575" 
d="M407 123h-238l-28 -123h-139l210 760h152l210 -760h-139zM383 226l-95 411l-95 -411h190zM348 836l-60 100l-61 -100h-108l126 168h85l126 -168h-108z" />
    <glyph glyph-name="Atilde" unicode="&#xc3;" horiz-adv-x="575" 
d="M407 123h-238l-28 -123h-139l210 760h152l210 -760h-139zM383 226l-95 411l-95 -411h190zM308 876q-17 8 -41 24q-32 23 -48 23q-14 0 -27 -10t-23 -29l-56 39q36 88 114 88q21 0 41 -9t42 -24q16 -11 26.5 -16.5t21.5 -5.5q12 0 25 10t24 29l56 -35q-18 -43 -47.5 -67.5
t-69.5 -24.5q-21 0 -38 8z" />
    <glyph glyph-name="Adieresis" unicode="&#xc4;" horiz-adv-x="575" 
d="M407 123h-238l-28 -123h-139l210 760h152l210 -760h-139zM383 226l-95 411l-95 -411h190zM145 878.5q-20 20.5 -20 49.5t20 49.5t49 20.5t49.5 -20.5t20.5 -49.5t-20.5 -49.5t-49.5 -20.5t-49 20.5zM332.5 878.5q-20.5 20.5 -20.5 49.5t20.5 49.5t49.5 20.5t49 -20.5
t20 -49.5t-20 -49.5t-49 -20.5t-49.5 20.5z" />
    <glyph glyph-name="Aring" unicode="&#xc5;" horiz-adv-x="575" 
d="M407 123h-238l-28 -123h-139l210 760h152l210 -760h-139zM383 226l-95 411l-95 -411h190zM205.5 862q-33.5 34 -33.5 81q0 48 33.5 81.5t82.5 33.5q48 0 81 -33.5t33 -81.5t-33 -81.5t-81 -33.5q-49 0 -82.5 34zM328 900.5q17 17.5 17 42.5t-17 42.5t-40 17.5
q-25 0 -41.5 -17t-16.5 -43t16.5 -43t41.5 -17q23 0 40 17.5z" />
    <glyph glyph-name="AE" unicode="&#xc6;" horiz-adv-x="833" 
d="M784 111v-111h-373v161h-211l-69 -161h-138l354 760h435v-111h-238v-200h231v-108h-231v-230h240zM411 263v386l-166 -386h166z" />
    <glyph glyph-name="Ccedilla" unicode="&#xc7;" horiz-adv-x="720" 
d="M195.5 38.5q-74.5 50.5 -115.5 139.5t-41 201q0 113 40.5 202.5t115 140t173.5 50.5q123 0 204 -75t109 -203l-137 -12q-19 79 -63.5 123.5t-113.5 44.5q-89 0 -139.5 -74.5t-50.5 -194.5q0 -81 23 -142t66 -95t101 -34q68 0 113.5 45.5t64.5 124.5l136 -13
q-28 -128 -109 -203.5t-203 -75.5q-99 0 -173.5 50.5zM440.5 -59q22.5 -22 22.5 -60q0 -42 -26.5 -66.5t-71.5 -24.5q-50 0 -81 18l18 51q22 -10 44 -10q16 0 25.5 9t9.5 26q0 14 -7.5 21.5t-19.5 7.5q-17 0 -31 -12l-24 16l26 106h58l-11 -60h10q36 0 58.5 -22z" />
    <glyph glyph-name="Egrave" unicode="&#xc8;" horiz-adv-x="495" 
d="M447 112v-112h-384v760h381v-112h-247v-198h240v-109h-240v-229h250zM241 1004l60 -171h-84l-108 171h132z" />
    <glyph glyph-name="Eacute" unicode="&#xc9;" horiz-adv-x="495" 
d="M447 112v-112h-384v760h381v-112h-247v-198h240v-109h-240v-229h250zM293 833h-84l60 171h132z" />
    <glyph glyph-name="Ecircumflex" unicode="&#xca;" horiz-adv-x="495" 
d="M447 112v-112h-384v760h381v-112h-247v-198h240v-109h-240v-229h250zM315 836l-60 100l-61 -100h-108l126 168h85l126 -168h-108z" />
    <glyph glyph-name="Edieresis" unicode="&#xcb;" horiz-adv-x="495" 
d="M447 112v-112h-384v760h381v-112h-247v-198h240v-109h-240v-229h250zM112 878.5q-20 20.5 -20 49.5t20 49.5t49 20.5t49.5 -20.5t20.5 -49.5t-20.5 -49.5t-49.5 -20.5t-49 20.5zM299.5 878.5q-20.5 20.5 -20.5 49.5t20.5 49.5t49.5 20.5t49 -20.5t20 -49.5t-20 -49.5
t-49 -20.5t-49.5 20.5z" />
    <glyph glyph-name="Igrave" unicode="&#xcc;" horiz-adv-x="260" 
d="M63 760h134v-760h-134v760zM116 1004l60 -171h-84l-108 171h132z" />
    <glyph glyph-name="Iacute" unicode="&#xcd;" horiz-adv-x="260" 
d="M63 760h134v-760h-134v760zM168 833h-84l60 171h132z" />
    <glyph glyph-name="Icircumflex" unicode="&#xce;" horiz-adv-x="260" 
d="M63 760h134v-760h-134v760zM190 836l-60 100l-61 -100h-108l126 168h85l126 -168h-108z" />
    <glyph glyph-name="Idieresis" unicode="&#xcf;" horiz-adv-x="260" 
d="M63 760h134v-760h-134v760zM-13 878.5q-20 20.5 -20 49.5t20 49.5t49 20.5t49.5 -20.5t20.5 -49.5t-20.5 -49.5t-49.5 -20.5t-49 20.5zM174.5 878.5q-20.5 20.5 -20.5 49.5t20.5 49.5t49.5 20.5t49 -20.5t20 -49.5t-20 -49.5t-49 -20.5t-49.5 20.5z" />
    <glyph glyph-name="Eth" unicode="&#xd0;" horiz-adv-x="707" 
d="M511.5 710.5q76.5 -49.5 116.5 -135.5t40 -195q0 -108 -39.5 -194.5t-116 -136t-183.5 -49.5h-235v347h-86v99h86v314h235q106 0 182.5 -49.5zM476 184.5q54 72.5 54 195.5t-54 195.5t-156 72.5h-92v-202h152v-99h-152v-235h92q102 0 156 72.5z" />
    <glyph glyph-name="Ntilde" unicode="&#xd1;" horiz-adv-x="628" 
d="M565 760v-760h-130l-242 549v-549h-130v760h130l242 -547v547h130zM334 876q-17 8 -41 24q-32 23 -48 23q-14 0 -27 -10t-23 -29l-56 39q36 88 114 88q21 0 41 -9t42 -24q16 -11 26.5 -16.5t21.5 -5.5q12 0 25 10t24 29l56 -35q-18 -43 -47.5 -67.5t-69.5 -24.5
q-21 0 -38 8z" />
    <glyph glyph-name="Ograve" unicode="&#xd2;" horiz-adv-x="735" 
d="M194.5 39q-74.5 51 -115 140t-40.5 201t40.5 201.5t115 140t172.5 50.5q99 0 173.5 -50.5t115 -140t40.5 -201.5t-40.5 -201t-115.5 -140t-173 -51t-172.5 51zM468.5 143.5q43.5 33.5 66.5 94.5t23 142t-23 142t-66.5 94.5t-101.5 33.5t-101 -33.5t-66 -94.5t-23 -142
t23 -142t66 -94.5t101 -33.5t101.5 33.5zM353 1004l60 -171h-84l-108 171h132z" />
    <glyph glyph-name="Oacute" unicode="&#xd3;" horiz-adv-x="735" 
d="M194.5 39q-74.5 51 -115 140t-40.5 201t40.5 201.5t115 140t172.5 50.5q99 0 173.5 -50.5t115 -140t40.5 -201.5t-40.5 -201t-115.5 -140t-173 -51t-172.5 51zM468.5 143.5q43.5 33.5 66.5 94.5t23 142t-23 142t-66.5 94.5t-101.5 33.5t-101 -33.5t-66 -94.5t-23 -142
t23 -142t66 -94.5t101 -33.5t101.5 33.5zM405 833h-84l60 171h132z" />
    <glyph glyph-name="Ocircumflex" unicode="&#xd4;" horiz-adv-x="735" 
d="M194.5 39q-74.5 51 -115 140t-40.5 201t40.5 201.5t115 140t172.5 50.5q99 0 173.5 -50.5t115 -140t40.5 -201.5t-40.5 -201t-115.5 -140t-173 -51t-172.5 51zM468.5 143.5q43.5 33.5 66.5 94.5t23 142t-23 142t-66.5 94.5t-101.5 33.5t-101 -33.5t-66 -94.5t-23 -142
t23 -142t66 -94.5t101 -33.5t101.5 33.5zM427 836l-60 100l-61 -100h-108l126 168h85l126 -168h-108z" />
    <glyph glyph-name="Otilde" unicode="&#xd5;" horiz-adv-x="735" 
d="M194.5 39q-74.5 51 -115 140t-40.5 201t40.5 201.5t115 140t172.5 50.5q99 0 173.5 -50.5t115 -140t40.5 -201.5t-40.5 -201t-115.5 -140t-173 -51t-172.5 51zM468.5 143.5q43.5 33.5 66.5 94.5t23 142t-23 142t-66.5 94.5t-101.5 33.5t-101 -33.5t-66 -94.5t-23 -142
t23 -142t66 -94.5t101 -33.5t101.5 33.5zM387 876q-17 8 -41 24q-32 23 -48 23q-14 0 -27 -10t-23 -29l-56 39q36 88 114 88q21 0 41 -9t42 -24q16 -11 26.5 -16.5t21.5 -5.5q12 0 25 10t24 29l56 -35q-18 -43 -47.5 -67.5t-69.5 -24.5q-21 0 -38 8z" />
    <glyph glyph-name="Odieresis" unicode="&#xd6;" horiz-adv-x="735" 
d="M194.5 39q-74.5 51 -115 140t-40.5 201t40.5 201.5t115 140t172.5 50.5q99 0 173.5 -50.5t115 -140t40.5 -201.5t-40.5 -201t-115.5 -140t-173 -51t-172.5 51zM468.5 143.5q43.5 33.5 66.5 94.5t23 142t-23 142t-66.5 94.5t-101.5 33.5t-101 -33.5t-66 -94.5t-23 -142
t23 -142t66 -94.5t101 -33.5t101.5 33.5zM224 878.5q-20 20.5 -20 49.5t20 49.5t49 20.5t49.5 -20.5t20.5 -49.5t-20.5 -49.5t-49.5 -20.5t-49 20.5zM411.5 878.5q-20.5 20.5 -20.5 49.5t20.5 49.5t49.5 20.5t49 -20.5t20 -49.5t-20 -49.5t-49 -20.5t-49.5 20.5z" />
    <glyph glyph-name="multiply" unicode="&#xd7;" horiz-adv-x="507" 
d="M315 266l112 -128l-66 -65l-107 122l-108 -123l-66 66l112 128l-112 127l66 66l108 -123l107 123l66 -66z" />
    <glyph glyph-name="Oslash" unicode="&#xd8;" horiz-adv-x="735" 
d="M670.5 543q25.5 -75 25.5 -163q0 -112 -40.5 -201t-115.5 -140t-173 -51q-81 0 -148 36l-28 -47h-111l62 106q-50 53 -76.5 130t-26.5 167q0 112 40.5 201.5t115 140t172.5 50.5q85 0 155 -39l29 50h111l-65 -111q48 -54 73.5 -129zM210 199l252 432q-43 27 -95 27
q-59 0 -104 -34t-69 -97t-24 -147q0 -109 40 -181zM471.5 136q44.5 34 69 97t24.5 147q0 105 -37 174l-250 -428q39 -24 89 -24q60 0 104.5 34z" />
    <glyph glyph-name="Ugrave" unicode="&#xd9;" horiz-adv-x="630" 
d="M121 63.5q-63 75.5 -63 228.5v468h134v-477q0 -89 29.5 -131t93.5 -42t94 42t30 131v477h133v-468q0 -153 -63 -228.5t-194 -75.5t-194 75.5zM301 1004l60 -171h-84l-108 171h132z" />
    <glyph glyph-name="Uacute" unicode="&#xda;" horiz-adv-x="630" 
d="M121 63.5q-63 75.5 -63 228.5v468h134v-477q0 -89 29.5 -131t93.5 -42t94 42t30 131v477h133v-468q0 -153 -63 -228.5t-194 -75.5t-194 75.5zM353 833h-84l60 171h132z" />
    <glyph glyph-name="Ucircumflex" unicode="&#xdb;" horiz-adv-x="630" 
d="M121 63.5q-63 75.5 -63 228.5v468h134v-477q0 -89 29.5 -131t93.5 -42t94 42t30 131v477h133v-468q0 -153 -63 -228.5t-194 -75.5t-194 75.5zM375 836l-60 100l-61 -100h-108l126 168h85l126 -168h-108z" />
    <glyph glyph-name="Udieresis" unicode="&#xdc;" horiz-adv-x="630" 
d="M121 63.5q-63 75.5 -63 228.5v468h134v-477q0 -89 29.5 -131t93.5 -42t94 42t30 131v477h133v-468q0 -153 -63 -228.5t-194 -75.5t-194 75.5zM172 878.5q-20 20.5 -20 49.5t20 49.5t49 20.5t49.5 -20.5t20.5 -49.5t-20.5 -49.5t-49.5 -20.5t-49 20.5zM359.5 878.5
q-20.5 20.5 -20.5 49.5t20.5 49.5t49.5 20.5t49 -20.5t20 -49.5t-20 -49.5t-49 -20.5t-49.5 20.5z" />
    <glyph glyph-name="Yacute" unicode="&#xdd;" horiz-adv-x="539" 
d="M544 760l-324 -760h-135l132 309h-1l-213 451h139l133 -313l134 313h135zM313 833h-84l60 171h132z" />
    <glyph glyph-name="Thorn" unicode="&#xde;" horiz-adv-x="579" 
d="M480 585.5q64 -70.5 64 -194.5q0 -123 -64.5 -195t-184.5 -72h-99v-124h-133v760h133v-104h98q122 0 186 -70.5zM377 275q33 42 33 116q0 156 -136 156h-78v-314h79q69 0 102 42z" />
    <glyph glyph-name="germandbls" unicode="&#xdf;" horiz-adv-x="530" 
d="M449.5 348q40.5 -56 40.5 -134q0 -65 -26.5 -116.5t-71.5 -80.5t-97 -29q-46 0 -86 14l11 90q21 -7 48 -7q45 0 76 35t31 97q0 61 -34.5 99.5t-86.5 38.5h-21v90q42 18 65 53.5t23 81.5q0 42 -18 67t-55 25q-72 0 -72 -120v-552h-118v538q0 125 48 179.5t139 54.5
q83 0 130.5 -49t47.5 -131q0 -49 -20.5 -90.5t-59.5 -73.5q66 -24 106.5 -80z" />
    <glyph glyph-name="agrave" unicode="&#xe0;" horiz-adv-x="577" 
d="M518 517v-517h-119l-9 85q-22 -44 -60.5 -70.5t-88.5 -26.5q-55 0 -101 34t-73.5 96t-27.5 140t26.5 139.5t72 96t101.5 34.5q50 0 89 -26.5t61 -69.5v85h129zM362 141q31 46 31 118q0 71 -31 116.5t-79 45.5q-51 0 -81.5 -45t-30.5 -118t30.5 -118t81.5 -45q48 0 79 46z
M262 761l60 -171h-84l-108 171h132z" />
    <glyph glyph-name="aacute" unicode="&#xe1;" horiz-adv-x="577" 
d="M518 517v-517h-119l-9 85q-22 -44 -60.5 -70.5t-88.5 -26.5q-55 0 -101 34t-73.5 96t-27.5 140t26.5 139.5t72 96t101.5 34.5q50 0 89 -26.5t61 -69.5v85h129zM362 141q31 46 31 118q0 71 -31 116.5t-79 45.5q-51 0 -81.5 -45t-30.5 -118t30.5 -118t81.5 -45q48 0 79 46z
M314 590h-84l60 171h132z" />
    <glyph glyph-name="acircumflex" unicode="&#xe2;" horiz-adv-x="577" 
d="M518 517v-517h-119l-9 85q-22 -44 -60.5 -70.5t-88.5 -26.5q-55 0 -101 34t-73.5 96t-27.5 140t26.5 139.5t72 96t101.5 34.5q50 0 89 -26.5t61 -69.5v85h129zM362 141q31 46 31 118q0 71 -31 116.5t-79 45.5q-51 0 -81.5 -45t-30.5 -118t30.5 -118t81.5 -45q48 0 79 46z
M336 593l-60 100l-61 -100h-108l126 168h85l126 -168h-108z" />
    <glyph glyph-name="atilde" unicode="&#xe3;" horiz-adv-x="577" 
d="M518 517v-517h-119l-9 85q-22 -44 -60.5 -70.5t-88.5 -26.5q-55 0 -101 34t-73.5 96t-27.5 140t26.5 139.5t72 96t101.5 34.5q50 0 89 -26.5t61 -69.5v85h129zM362 141q31 46 31 118q0 71 -31 116.5t-79 45.5q-51 0 -81.5 -45t-30.5 -118t30.5 -118t81.5 -45q48 0 79 46z
M296 633q-17 8 -41 24q-32 23 -48 23q-14 0 -27 -10t-23 -29l-56 39q36 88 114 88q21 0 41 -9t42 -24q16 -11 26.5 -16.5t21.5 -5.5q12 0 25 10t24 29l56 -35q-18 -43 -47.5 -67.5t-69.5 -24.5q-21 0 -38 8z" />
    <glyph glyph-name="adieresis" unicode="&#xe4;" horiz-adv-x="577" 
d="M518 517v-517h-119l-9 85q-22 -44 -60.5 -70.5t-88.5 -26.5q-55 0 -101 34t-73.5 96t-27.5 140t26.5 139.5t72 96t101.5 34.5q50 0 89 -26.5t61 -69.5v85h129zM362 141q31 46 31 118q0 71 -31 116.5t-79 45.5q-51 0 -81.5 -45t-30.5 -118t30.5 -118t81.5 -45q48 0 79 46z
M133 635.5q-20 20.5 -20 49.5t20 49.5t49 20.5t49.5 -20.5t20.5 -49.5t-20.5 -49.5t-49.5 -20.5t-49 20.5zM320.5 635.5q-20.5 20.5 -20.5 49.5t20.5 49.5t49.5 20.5t49 -20.5t20 -49.5t-20 -49.5t-49 -20.5t-49.5 20.5z" />
    <glyph glyph-name="aring" unicode="&#xe5;" horiz-adv-x="577" 
d="M518 517v-517h-119l-9 85q-22 -44 -60.5 -70.5t-88.5 -26.5q-55 0 -101 34t-73.5 96t-27.5 140t26.5 139.5t72 96t101.5 34.5q50 0 89 -26.5t61 -69.5v85h129zM362 141q31 46 31 118q0 71 -31 116.5t-79 45.5q-51 0 -81.5 -45t-30.5 -118t30.5 -118t81.5 -45q48 0 79 46z
M193.5 619q-33.5 34 -33.5 81q0 48 33.5 81.5t82.5 33.5q48 0 81 -33.5t33 -81.5t-33 -81.5t-81 -33.5q-49 0 -82.5 34zM316 657.5q17 17.5 17 42.5t-17 42.5t-40 17.5q-25 0 -41.5 -17t-16.5 -43t16.5 -43t41.5 -17q23 0 40 17.5z" />
    <glyph glyph-name="ae" unicode="&#xe6;" horiz-adv-x="825" 
d="M781 226h-320q4 -68 33 -104.5t74 -36.5q32 0 56 19.5t37 53.5l119 -11q-29 -77 -83 -118t-132 -41q-58 0 -103 25t-73 70q-51 -95 -180 -95q-76 0 -123.5 40.5t-47.5 118.5q0 85 53 121t141 36h113v12q0 62 -24.5 88.5t-61.5 26.5q-33 0 -56 -18.5t-34 -49.5l-115 12
q19 65 72 109t133 44q102 0 155 -62q57 62 147 62q70 0 120 -34.5t76 -95t26 -137.5q0 -15 -2 -35zM494 397q-27 -33 -32 -93h201q-5 61 -30.5 93.5t-69.5 32.5q-42 0 -69 -33zM314 107q31 34 31 95v24h-93q-54 0 -76 -19t-22 -56q0 -36 22.5 -57t58.5 -21q48 0 79 34z" />
    <glyph glyph-name="ccedilla" unicode="&#xe7;" horiz-adv-x="538" 
d="M146.5 23q-53.5 35 -80.5 96t-27 139q0 79 27.5 140t80.5 95.5t129 34.5q93 0 151.5 -50.5t73.5 -136.5l-124 -12q-11 45 -36.5 69t-64.5 24q-49 0 -78.5 -43.5t-29.5 -120.5q0 -76 30 -119.5t79 -43.5q39 0 65 25.5t37 72.5l123 -11q-16 -88 -74.5 -141t-151.5 -53
q-76 0 -129.5 35zM352.5 -59q22.5 -22 22.5 -60q0 -42 -26.5 -66.5t-71.5 -24.5q-50 0 -81 18l18 51q22 -10 44 -10q16 0 25.5 9t9.5 26q0 14 -7.5 21.5t-19.5 7.5q-17 0 -31 -12l-24 16l26 106h58l-11 -60h10q36 0 58.5 -22z" />
    <glyph glyph-name="egrave" unicode="&#xe8;" horiz-adv-x="549" 
d="M509 218h-340q5 -65 34.5 -99t75.5 -34q35 0 58.5 21t35.5 57l129 -12q-27 -78 -83.5 -120.5t-142.5 -42.5q-112 0 -174.5 74t-62.5 198q0 122 61.5 195t172.5 73q114 0 175.5 -75.5t61.5 -198.5q0 -25 -1 -36zM201 396q-28 -34 -32 -99h213q-5 64 -31.5 98.5t-74.5 34.5
q-47 0 -75 -34zM258 761l60 -171h-84l-108 171h132z" />
    <glyph glyph-name="eacute" unicode="&#xe9;" horiz-adv-x="549" 
d="M509 218h-340q5 -65 34.5 -99t75.5 -34q35 0 58.5 21t35.5 57l129 -12q-27 -78 -83.5 -120.5t-142.5 -42.5q-112 0 -174.5 74t-62.5 198q0 122 61.5 195t172.5 73q114 0 175.5 -75.5t61.5 -198.5q0 -25 -1 -36zM201 396q-28 -34 -32 -99h213q-5 64 -31.5 98.5t-74.5 34.5
q-47 0 -75 -34zM310 590h-84l60 171h132z" />
    <glyph glyph-name="ecircumflex" unicode="&#xea;" horiz-adv-x="549" 
d="M509 218h-340q5 -65 34.5 -99t75.5 -34q35 0 58.5 21t35.5 57l129 -12q-27 -78 -83.5 -120.5t-142.5 -42.5q-112 0 -174.5 74t-62.5 198q0 122 61.5 195t172.5 73q114 0 175.5 -75.5t61.5 -198.5q0 -25 -1 -36zM201 396q-28 -34 -32 -99h213q-5 64 -31.5 98.5t-74.5 34.5
q-47 0 -75 -34zM332 593l-60 100l-61 -100h-108l126 168h85l126 -168h-108z" />
    <glyph glyph-name="edieresis" unicode="&#xeb;" horiz-adv-x="549" 
d="M509 218h-340q5 -65 34.5 -99t75.5 -34q35 0 58.5 21t35.5 57l129 -12q-27 -78 -83.5 -120.5t-142.5 -42.5q-112 0 -174.5 74t-62.5 198q0 122 61.5 195t172.5 73q114 0 175.5 -75.5t61.5 -198.5q0 -25 -1 -36zM201 396q-28 -34 -32 -99h213q-5 64 -31.5 98.5t-74.5 34.5
q-47 0 -75 -34zM129 635.5q-20 20.5 -20 49.5t20 49.5t49 20.5t49.5 -20.5t20.5 -49.5t-20.5 -49.5t-49.5 -20.5t-49 20.5zM316.5 635.5q-20.5 20.5 -20.5 49.5t20.5 49.5t49.5 20.5t49 -20.5t20 -49.5t-20 -49.5t-49 -20.5t-49.5 20.5z" />
    <glyph glyph-name="igrave" unicode="&#xec;" horiz-adv-x="248" 
d="M59 517h130v-517h-130v517zM111 761l60 -171h-84l-108 171h132z" />
    <glyph glyph-name="iacute" unicode="&#xed;" horiz-adv-x="248" 
d="M59 517h130v-517h-130v517zM163 590h-84l60 171h132z" />
    <glyph glyph-name="icircumflex" unicode="&#xee;" horiz-adv-x="248" 
d="M59 517h130v-517h-130v517zM168 593l-43 113l-43 -113h-102l102 168h84l103 -168h-101z" />
    <glyph glyph-name="idieresis" unicode="&#xef;" horiz-adv-x="248" 
d="M59 517h130v-517h-130v517zM-18 635.5q-20 20.5 -20 49.5t20 49.5t49 20.5t49.5 -20.5t20.5 -49.5t-20.5 -49.5t-49.5 -20.5t-49 20.5zM169.5 635.5q-20.5 20.5 -20.5 49.5t20.5 49.5t49.5 20.5t49 -20.5t20 -49.5t-20 -49.5t-49 -20.5t-49.5 20.5z" />
    <glyph glyph-name="eth" unicode="&#xf0;" horiz-adv-x="573" 
d="M512.5 504q20.5 -77 20.5 -163q0 -168 -67.5 -260.5t-188.5 -92.5q-70 0 -124 32t-84 90t-30 132q0 113 61.5 181t169.5 68q84 0 136 -47q-11 84 -49 144l-88 -48l-29 66l68 37q-42 35 -100 50l21 79q101 -14 173 -78l79 43l29 -65l-59 -32q41 -59 61.5 -136z
M359.5 138.5q31.5 43.5 31.5 110.5q0 70 -32 110.5t-81 40.5q-50 0 -79.5 -40t-29.5 -111q0 -72 30.5 -113t79.5 -41t80.5 43.5z" />
    <glyph glyph-name="ntilde" unicode="&#xf1;" horiz-adv-x="544" 
d="M452.5 473q38.5 -55 38.5 -150v-323h-130v302q0 66 -19.5 95.5t-61.5 29.5q-48 0 -70 -45.5t-22 -108.5v-273h-130v517h117l11 -82q24 46 61.5 69.5t85.5 23.5q81 0 119.5 -55zM300 633q-17 8 -41 24q-32 23 -48 23q-14 0 -27 -10t-23 -29l-56 39q36 88 114 88
q21 0 41 -9t42 -24q16 -11 26.5 -16.5t21.5 -5.5q12 0 25 10t24 29l56 -35q-18 -43 -47.5 -67.5t-69.5 -24.5q-21 0 -38 8z" />
    <glyph glyph-name="ograve" unicode="&#xf2;" horiz-adv-x="557" 
d="M148 23q-54 35 -81.5 96t-27.5 139t27.5 139.5t81.5 96t130 34.5t130.5 -34.5t82 -95.5t27.5 -140q0 -78 -27.5 -139t-82 -96t-130.5 -35t-130 35zM358 138.5q30 43.5 30 119.5q0 77 -30 120.5t-80 43.5t-79.5 -43.5t-29.5 -120.5q0 -76 30 -119.5t79 -43.5q50 0 80 43.5
zM264 761l60 -171h-84l-108 171h132z" />
    <glyph glyph-name="oacute" unicode="&#xf3;" horiz-adv-x="557" 
d="M148 23q-54 35 -81.5 96t-27.5 139t27.5 139.5t81.5 96t130 34.5t130.5 -34.5t82 -95.5t27.5 -140q0 -78 -27.5 -139t-82 -96t-130.5 -35t-130 35zM358 138.5q30 43.5 30 119.5q0 77 -30 120.5t-80 43.5t-79.5 -43.5t-29.5 -120.5q0 -76 30 -119.5t79 -43.5q50 0 80 43.5
zM316 590h-84l60 171h132z" />
    <glyph glyph-name="ocircumflex" unicode="&#xf4;" horiz-adv-x="557" 
d="M148 23q-54 35 -81.5 96t-27.5 139t27.5 139.5t81.5 96t130 34.5t130.5 -34.5t82 -95.5t27.5 -140q0 -78 -27.5 -139t-82 -96t-130.5 -35t-130 35zM358 138.5q30 43.5 30 119.5q0 77 -30 120.5t-80 43.5t-79.5 -43.5t-29.5 -120.5q0 -76 30 -119.5t79 -43.5q50 0 80 43.5
zM338 593l-60 100l-61 -100h-108l126 168h85l126 -168h-108z" />
    <glyph glyph-name="otilde" unicode="&#xf5;" horiz-adv-x="557" 
d="M148 23q-54 35 -81.5 96t-27.5 139t27.5 139.5t81.5 96t130 34.5t130.5 -34.5t82 -95.5t27.5 -140q0 -78 -27.5 -139t-82 -96t-130.5 -35t-130 35zM358 138.5q30 43.5 30 119.5q0 77 -30 120.5t-80 43.5t-79.5 -43.5t-29.5 -120.5q0 -76 30 -119.5t79 -43.5q50 0 80 43.5
zM298 633q-17 8 -41 24q-32 23 -48 23q-14 0 -27 -10t-23 -29l-56 39q36 88 114 88q21 0 41 -9t42 -24q16 -11 26.5 -16.5t21.5 -5.5q12 0 25 10t24 29l56 -35q-18 -43 -47.5 -67.5t-69.5 -24.5q-21 0 -38 8z" />
    <glyph glyph-name="odieresis" unicode="&#xf6;" horiz-adv-x="557" 
d="M148 23q-54 35 -81.5 96t-27.5 139t27.5 139.5t81.5 96t130 34.5t130.5 -34.5t82 -95.5t27.5 -140q0 -78 -27.5 -139t-82 -96t-130.5 -35t-130 35zM358 138.5q30 43.5 30 119.5q0 77 -30 120.5t-80 43.5t-79.5 -43.5t-29.5 -120.5q0 -76 30 -119.5t79 -43.5q50 0 80 43.5
zM135 635.5q-20 20.5 -20 49.5t20 49.5t49 20.5t49.5 -20.5t20.5 -49.5t-20.5 -49.5t-49.5 -20.5t-49 20.5zM322.5 635.5q-20.5 20.5 -20.5 49.5t20.5 49.5t49.5 20.5t49 -20.5t20 -49.5t-20 -49.5t-49 -20.5t-49.5 20.5z" />
    <glyph glyph-name="divide" unicode="&#xf7;" horiz-adv-x="524" 
d="M212 388q-21 21 -21 50t21 50t50 21t50 -21t21 -50t-21 -50t-50 -21t-50 21zM80 313h364v-95h-364v95zM212 38q-21 21 -21 50t21 49.5t50 20.5t50 -20.5t21 -49.5t-21 -50t-50 -21t-50 21z" />
    <glyph glyph-name="oslash" unicode="&#xf8;" horiz-adv-x="557" 
d="M498 379q20 -55 20 -121q0 -78 -27.5 -139t-82 -96t-130.5 -35q-60 0 -108 23l-18 -31h-72l38 66q-39 36 -59 90.5t-20 121.5q0 78 27.5 139.5t81.5 96t130 34.5q61 0 109 -23l18 31h73l-39 -66q39 -36 59 -91zM183 156l149 255q-23 16 -54 16q-51 0 -82.5 -45
t-31.5 -124q0 -59 19 -102zM361.5 134.5q31.5 44.5 31.5 123.5q0 60 -19 101l-149 -254q24 -15 53 -15q52 0 83.5 44.5z" />
    <glyph glyph-name="ugrave" unicode="&#xf9;" horiz-adv-x="537" 
d="M479 517v-517h-117l-10 81q-23 -45 -59 -69t-82 -24q-158 0 -158 194v335h130v-315q0 -62 19 -86.5t59 -24.5q47 0 67.5 45.5t20.5 107.5v273h130zM252 761l60 -171h-84l-108 171h132z" />
    <glyph glyph-name="uacute" unicode="&#xfa;" horiz-adv-x="537" 
d="M479 517v-517h-117l-10 81q-23 -45 -59 -69t-82 -24q-158 0 -158 194v335h130v-315q0 -62 19 -86.5t59 -24.5q47 0 67.5 45.5t20.5 107.5v273h130zM304 590h-84l60 171h132z" />
    <glyph glyph-name="ucircumflex" unicode="&#xfb;" horiz-adv-x="537" 
d="M479 517v-517h-117l-10 81q-23 -45 -59 -69t-82 -24q-158 0 -158 194v335h130v-315q0 -62 19 -86.5t59 -24.5q47 0 67.5 45.5t20.5 107.5v273h130zM326 593l-60 100l-61 -100h-108l126 168h85l126 -168h-108z" />
    <glyph glyph-name="udieresis" unicode="&#xfc;" horiz-adv-x="537" 
d="M479 517v-517h-117l-10 81q-23 -45 -59 -69t-82 -24q-158 0 -158 194v335h130v-315q0 -62 19 -86.5t59 -24.5q47 0 67.5 45.5t20.5 107.5v273h130zM123 635.5q-20 20.5 -20 49.5t20 49.5t49 20.5t49.5 -20.5t20.5 -49.5t-20.5 -49.5t-49.5 -20.5t-49 20.5zM310.5 635.5
q-20.5 20.5 -20.5 49.5t20.5 49.5t49.5 20.5t49 -20.5t20 -49.5t-20 -49.5t-49 -20.5t-49.5 20.5z" />
    <glyph glyph-name="yacute" unicode="&#xfd;" horiz-adv-x="539" 
d="M481 517v-475q0 -120 -58.5 -186t-160.5 -66q-84 0 -135.5 36t-68.5 98l129 16q16 -58 74 -58q48 0 69 39t21 117v47q-23 -43 -58.5 -65t-79.5 -22q-158 0 -158 193v326h130v-305q0 -63 19.5 -87t58.5 -24q46 0 67 45t21 107v264h130zM309 590h-84l60 171h132z" />
    <glyph glyph-name="thorn" unicode="&#xfe;" horiz-adv-x="577" 
d="M438 494.5q46 -33.5 72.5 -95t26.5 -141.5t-27 -141.5t-73.5 -95t-101.5 -33.5q-48 0 -86 25t-61 68v-279h-130v958h130v-331q22 46 61 72.5t88 26.5q55 0 101 -33.5zM374.5 139.5q30.5 44.5 30.5 118.5q0 73 -30 118t-80 45q-49 0 -80 -45t-31 -117t31 -118t80 -46
t79.5 44.5z" />
    <glyph glyph-name="ydieresis" unicode="&#xff;" horiz-adv-x="539" 
d="M481 517v-475q0 -120 -58.5 -186t-160.5 -66q-84 0 -135.5 36t-68.5 98l129 16q16 -58 74 -58q48 0 69 39t21 117v47q-23 -43 -58.5 -65t-79.5 -22q-158 0 -158 193v326h130v-305q0 -63 19.5 -87t58.5 -24q46 0 67 45t21 107v264h130zM128 635.5q-20 20.5 -20 49.5
t20 49.5t49 20.5t49.5 -20.5t20.5 -49.5t-20.5 -49.5t-49.5 -20.5t-49 20.5zM315.5 635.5q-20.5 20.5 -20.5 49.5t20.5 49.5t49.5 20.5t49 -20.5t20 -49.5t-20 -49.5t-49 -20.5t-49.5 20.5z" />
    <glyph glyph-name="Amacron" unicode="&#x100;" horiz-adv-x="575" 
d="M407 123h-238l-28 -123h-139l210 760h152l210 -760h-139zM383 226l-95 411l-95 -411h190zM165 977h247v-79h-247v79z" />
    <glyph glyph-name="amacron" unicode="&#x101;" horiz-adv-x="577" 
d="M518 517v-517h-119l-9 85q-22 -44 -60.5 -70.5t-88.5 -26.5q-55 0 -101 34t-73.5 96t-27.5 140t26.5 139.5t72 96t101.5 34.5q50 0 89 -26.5t61 -69.5v85h129zM362 141q31 46 31 118q0 71 -31 116.5t-79 45.5q-51 0 -81.5 -45t-30.5 -118t30.5 -118t81.5 -45q48 0 79 46z
M153 734h247v-79h-247v79z" />
    <glyph glyph-name="Abreve" unicode="&#x102;" horiz-adv-x="575" 
d="M407 123h-238l-28 -123h-139l210 760h152l210 -760h-139zM383 226l-95 411l-95 -411h190zM179.5 876q-39.5 43 -39.5 128h76q1 -48 19 -70.5t53 -22.5t53 22t19 71h77q-1 -85 -40.5 -128t-108.5 -43t-108.5 43z" />
    <glyph glyph-name="abreve" unicode="&#x103;" horiz-adv-x="577" 
d="M518 517v-517h-119l-9 85q-22 -44 -60.5 -70.5t-88.5 -26.5q-55 0 -101 34t-73.5 96t-27.5 140t26.5 139.5t72 96t101.5 34.5q50 0 89 -26.5t61 -69.5v85h129zM362 141q31 46 31 118q0 71 -31 116.5t-79 45.5q-51 0 -81.5 -45t-30.5 -118t30.5 -118t81.5 -45q48 0 79 46z
M167.5 633q-39.5 43 -39.5 128h76q1 -48 19 -70.5t53 -22.5t53 22t19 71h77q-1 -85 -40.5 -128t-108.5 -43t-108.5 43z" />
    <glyph glyph-name="Aogonek" unicode="&#x104;" horiz-adv-x="575" 
d="M407 123h-238l-28 -123h-139l210 760h152l210 -760h-139zM383 226l-95 411l-95 -411h190zM431 -70q0 -28 16.5 -43.5t46.5 -15.5q18 0 37 6l3 -72q-30 -15 -67 -15q-51 0 -83 29.5t-32 82.5q0 56 36.5 91.5t92.5 45.5l8 -33q-58 -22 -58 -76z" />
    <glyph glyph-name="aogonek" unicode="&#x105;" horiz-adv-x="577" 
d="M518 517v-517h-119l-9 85q-22 -44 -60.5 -70.5t-88.5 -26.5q-55 0 -101 34t-73.5 96t-27.5 140t26.5 139.5t72 96t101.5 34.5q50 0 89 -26.5t61 -69.5v85h129zM362 141q31 46 31 118q0 71 -31 116.5t-79 45.5q-51 0 -81.5 -45t-30.5 -118t30.5 -118t81.5 -45q48 0 79 46z
M421 -70q0 -28 16.5 -43.5t46.5 -15.5q18 0 37 6l3 -72q-30 -15 -67 -15q-51 0 -83 29.5t-32 82.5q0 56 36.5 91.5t92.5 45.5l8 -33q-58 -22 -58 -76z" />
    <glyph glyph-name="Cacute" unicode="&#x106;" horiz-adv-x="720" 
d="M195.5 38.5q-74.5 50.5 -115.5 139.5t-41 201q0 113 40.5 202.5t115 140t173.5 50.5q123 0 204 -75t109 -203l-137 -12q-19 79 -63.5 123.5t-113.5 44.5q-89 0 -139.5 -74.5t-50.5 -194.5q0 -81 23 -142t66 -95t101 -34q68 0 113.5 45.5t64.5 124.5l136 -13
q-28 -128 -109 -203.5t-203 -75.5q-99 0 -173.5 50.5zM408 833h-84l60 171h132z" />
    <glyph glyph-name="cacute" unicode="&#x107;" horiz-adv-x="538" 
d="M146.5 23q-53.5 35 -80.5 96t-27 139q0 79 27.5 140t80.5 95.5t129 34.5q93 0 151.5 -50.5t73.5 -136.5l-124 -12q-11 45 -36.5 69t-64.5 24q-49 0 -78.5 -43.5t-29.5 -120.5q0 -76 30 -119.5t79 -43.5q39 0 65 25.5t37 72.5l123 -11q-16 -88 -74.5 -141t-151.5 -53
q-76 0 -129.5 35zM311 590h-84l60 171h132z" />
    <glyph glyph-name="Ccircumflex" unicode="&#x108;" horiz-adv-x="720" 
d="M195.5 38.5q-74.5 50.5 -115.5 139.5t-41 201q0 113 40.5 202.5t115 140t173.5 50.5q123 0 204 -75t109 -203l-137 -12q-19 79 -63.5 123.5t-113.5 44.5q-89 0 -139.5 -74.5t-50.5 -194.5q0 -81 23 -142t66 -95t101 -34q68 0 113.5 45.5t64.5 124.5l136 -13
q-28 -128 -109 -203.5t-203 -75.5q-99 0 -173.5 50.5zM430 836l-60 100l-61 -100h-108l126 168h85l126 -168h-108z" />
    <glyph glyph-name="ccircumflex" unicode="&#x109;" horiz-adv-x="538" 
d="M146.5 23q-53.5 35 -80.5 96t-27 139q0 79 27.5 140t80.5 95.5t129 34.5q93 0 151.5 -50.5t73.5 -136.5l-124 -12q-11 45 -36.5 69t-64.5 24q-49 0 -78.5 -43.5t-29.5 -120.5q0 -76 30 -119.5t79 -43.5q39 0 65 25.5t37 72.5l123 -11q-16 -88 -74.5 -141t-151.5 -53
q-76 0 -129.5 35zM333 593l-60 100l-61 -100h-108l126 168h85l126 -168h-108z" />
    <glyph glyph-name="Cdotaccent" unicode="&#x10a;" horiz-adv-x="720" 
d="M195.5 38.5q-74.5 50.5 -115.5 139.5t-41 201q0 113 40.5 202.5t115 140t173.5 50.5q123 0 204 -75t109 -203l-137 -12q-19 79 -63.5 123.5t-113.5 44.5q-89 0 -139.5 -74.5t-50.5 -194.5q0 -81 23 -142t66 -95t101 -34q68 0 113.5 45.5t64.5 124.5l136 -13
q-28 -128 -109 -203.5t-203 -75.5q-99 0 -173.5 50.5zM314 873q-23 23 -23 55q0 34 23 57t56 23q32 0 55 -23t23 -57q0 -32 -23 -55t-55 -23q-33 0 -56 23z" />
    <glyph glyph-name="cdotaccent" unicode="&#x10b;" horiz-adv-x="538" 
d="M146.5 23q-53.5 35 -80.5 96t-27 139q0 79 27.5 140t80.5 95.5t129 34.5q93 0 151.5 -50.5t73.5 -136.5l-124 -12q-11 45 -36.5 69t-64.5 24q-49 0 -78.5 -43.5t-29.5 -120.5q0 -76 30 -119.5t79 -43.5q39 0 65 25.5t37 72.5l123 -11q-16 -88 -74.5 -141t-151.5 -53
q-76 0 -129.5 35zM217 630q-23 23 -23 55q0 34 23 57t56 23q32 0 55 -23t23 -57q0 -32 -23 -55t-55 -23q-33 0 -56 23z" />
    <glyph glyph-name="Ccaron" unicode="&#x10c;" horiz-adv-x="720" 
d="M195.5 38.5q-74.5 50.5 -115.5 139.5t-41 201q0 113 40.5 202.5t115 140t173.5 50.5q123 0 204 -75t109 -203l-137 -12q-19 79 -63.5 123.5t-113.5 44.5q-89 0 -139.5 -74.5t-50.5 -194.5q0 -81 23 -142t66 -95t101 -34q68 0 113.5 45.5t64.5 124.5l136 -13
q-28 -128 -109 -203.5t-203 -75.5q-99 0 -173.5 50.5zM538 1004l-126 -168h-85l-126 168h108l61 -100l60 100h108z" />
    <glyph glyph-name="ccaron" unicode="&#x10d;" horiz-adv-x="538" 
d="M146.5 23q-53.5 35 -80.5 96t-27 139q0 79 27.5 140t80.5 95.5t129 34.5q93 0 151.5 -50.5t73.5 -136.5l-124 -12q-11 45 -36.5 69t-64.5 24q-49 0 -78.5 -43.5t-29.5 -120.5q0 -76 30 -119.5t79 -43.5q39 0 65 25.5t37 72.5l123 -11q-16 -88 -74.5 -141t-151.5 -53
q-76 0 -129.5 35zM441 761l-126 -168h-85l-126 168h108l61 -100l60 100h108z" />
    <glyph glyph-name="Dcaron" unicode="&#x10e;" horiz-adv-x="676" 
d="M480.5 710.5q76.5 -49.5 116.5 -135.5t40 -195q0 -108 -39.5 -194.5t-116 -136t-183.5 -49.5h-235v760h235q106 0 182.5 -49.5zM445 184.5q54 72.5 54 195.5t-54 195.5t-156 72.5h-92v-536h92q102 0 156 72.5zM466 1004l-126 -168h-85l-126 168h108l61 -100l60 100h108z
" />
    <glyph glyph-name="dcaron" unicode="&#x10f;" horiz-adv-x="741" 
d="M388 760h130v-760h-119l-9 83q-22 -43 -59 -69t-89 -26q-55 0 -101.5 34t-74 95.5t-27.5 140.5q0 78 26.5 139.5t72 96t101.5 34.5q50 0 89 -25.5t60 -67.5v325zM726 760l-59 -171h-77l8 171h128zM361.5 140.5q30.5 45.5 30.5 118.5t-30 117.5t-81 44.5q-50 0 -80 -45
t-30 -118q0 -74 30.5 -118.5t79.5 -44.5q50 0 80.5 45.5z" />
    <glyph glyph-name="Dcroat" unicode="&#x110;" horiz-adv-x="707" 
d="M511.5 710.5q76.5 -49.5 116.5 -135.5t40 -195q0 -108 -39.5 -194.5t-116 -136t-183.5 -49.5h-235v347h-86v99h86v314h235q106 0 182.5 -49.5zM476 184.5q54 72.5 54 195.5t-54 195.5t-156 72.5h-92v-202h152v-99h-152v-235h92q102 0 156 72.5z" />
    <glyph glyph-name="dcroat" unicode="&#x111;" horiz-adv-x="591" 
d="M591 603h-73v-603h-119l-9 83q-22 -43 -59 -69t-89 -26q-55 0 -101.5 34t-74 95.5t-27.5 140.5q0 78 26.5 139.5t72 96t101.5 34.5q50 0 89 -25.5t60 -67.5v168h-183v83h183v74h130v-74h73v-83zM361.5 140.5q30.5 45.5 30.5 118.5t-30 117.5t-81 44.5q-50 0 -80 -45
t-30 -118q0 -74 30.5 -118.5t79.5 -44.5q50 0 80.5 45.5z" />
    <glyph glyph-name="Emacron" unicode="&#x112;" horiz-adv-x="495" 
d="M447 112v-112h-384v760h381v-112h-247v-198h240v-109h-240v-229h250zM132 977h247v-79h-247v79z" />
    <glyph glyph-name="emacron" unicode="&#x113;" horiz-adv-x="549" 
d="M509 218h-340q5 -65 34.5 -99t75.5 -34q35 0 58.5 21t35.5 57l129 -12q-27 -78 -83.5 -120.5t-142.5 -42.5q-112 0 -174.5 74t-62.5 198q0 122 61.5 195t172.5 73q114 0 175.5 -75.5t61.5 -198.5q0 -25 -1 -36zM201 396q-28 -34 -32 -99h213q-5 64 -31.5 98.5t-74.5 34.5
q-47 0 -75 -34zM149 734h247v-79h-247v79z" />
    <glyph glyph-name="Ebreve" unicode="&#x114;" horiz-adv-x="495" 
d="M447 112v-112h-384v760h381v-112h-247v-198h240v-109h-240v-229h250zM146.5 876q-39.5 43 -39.5 128h76q1 -48 19 -70.5t53 -22.5t53 22t19 71h77q-1 -85 -40.5 -128t-108.5 -43t-108.5 43z" />
    <glyph glyph-name="ebreve" unicode="&#x115;" horiz-adv-x="549" 
d="M509 218h-340q5 -65 34.5 -99t75.5 -34q35 0 58.5 21t35.5 57l129 -12q-27 -78 -83.5 -120.5t-142.5 -42.5q-112 0 -174.5 74t-62.5 198q0 122 61.5 195t172.5 73q114 0 175.5 -75.5t61.5 -198.5q0 -25 -1 -36zM201 396q-28 -34 -32 -99h213q-5 64 -31.5 98.5t-74.5 34.5
q-47 0 -75 -34zM163.5 633q-39.5 43 -39.5 128h76q1 -48 19 -70.5t53 -22.5t53 22t19 71h77q-1 -85 -40.5 -128t-108.5 -43t-108.5 43z" />
    <glyph glyph-name="Edotaccent" unicode="&#x116;" horiz-adv-x="495" 
d="M447 112v-112h-384v760h381v-112h-247v-198h240v-109h-240v-229h250zM199 873q-23 23 -23 55q0 34 23 57t56 23q32 0 55 -23t23 -57q0 -32 -23 -55t-55 -23q-33 0 -56 23z" />
    <glyph glyph-name="edotaccent" unicode="&#x117;" horiz-adv-x="549" 
d="M509 218h-340q5 -65 34.5 -99t75.5 -34q35 0 58.5 21t35.5 57l129 -12q-27 -78 -83.5 -120.5t-142.5 -42.5q-112 0 -174.5 74t-62.5 198q0 122 61.5 195t172.5 73q114 0 175.5 -75.5t61.5 -198.5q0 -25 -1 -36zM201 396q-28 -34 -32 -99h213q-5 64 -31.5 98.5t-74.5 34.5
q-47 0 -75 -34zM216 630q-23 23 -23 55q0 34 23 57t56 23q32 0 55 -23t23 -57q0 -32 -23 -55t-55 -23q-33 0 -56 23z" />
    <glyph glyph-name="Eogonek" unicode="&#x118;" horiz-adv-x="495" 
d="M447 112v-112h-384v760h381v-112h-247v-198h240v-109h-240v-229h250zM348 -70q0 -28 16.5 -43.5t46.5 -15.5q18 0 37 6l3 -72q-30 -15 -67 -15q-51 0 -83 29.5t-32 82.5q0 56 36.5 91.5t92.5 45.5l8 -33q-58 -22 -58 -76z" />
    <glyph glyph-name="eogonek" unicode="&#x119;" horiz-adv-x="549" 
d="M509 218h-340q5 -65 34.5 -99t75.5 -34q35 0 58.5 21t35.5 57l129 -12q-27 -78 -83.5 -120.5t-142.5 -42.5q-112 0 -174.5 74t-62.5 198q0 122 61.5 195t172.5 73q114 0 175.5 -75.5t61.5 -198.5q0 -25 -1 -36zM201 396q-28 -34 -32 -99h213q-5 64 -31.5 98.5t-74.5 34.5
q-47 0 -75 -34zM315 -70q0 -28 16.5 -43.5t46.5 -15.5q18 0 37 6l3 -72q-30 -15 -67 -15q-51 0 -83 29.5t-32 82.5q0 56 36.5 91.5t92.5 45.5l8 -33q-58 -22 -58 -76z" />
    <glyph glyph-name="Ecaron" unicode="&#x11a;" horiz-adv-x="495" 
d="M447 112v-112h-384v760h381v-112h-247v-198h240v-109h-240v-229h250zM423 1004l-126 -168h-85l-126 168h108l61 -100l60 100h108z" />
    <glyph glyph-name="ecaron" unicode="&#x11b;" horiz-adv-x="549" 
d="M509 218h-340q5 -65 34.5 -99t75.5 -34q35 0 58.5 21t35.5 57l129 -12q-27 -78 -83.5 -120.5t-142.5 -42.5q-112 0 -174.5 74t-62.5 198q0 122 61.5 195t172.5 73q114 0 175.5 -75.5t61.5 -198.5q0 -25 -1 -36zM201 396q-28 -34 -32 -99h213q-5 64 -31.5 98.5t-74.5 34.5
q-47 0 -75 -34zM440 761l-126 -168h-85l-126 168h108l61 -100l60 100h108z" />
    <glyph glyph-name="Gcircumflex" unicode="&#x11c;" horiz-adv-x="712" 
d="M341 414h313v-318q-50 -48 -119.5 -77.5t-153.5 -29.5q-107 0 -184.5 50t-117.5 138t-40 200q0 114 40.5 203.5t114 140.5t167.5 51q120 0 194 -64t106 -165l-141 -13q-17 51 -57 86t-102 35q-56 0 -97.5 -34.5t-64 -97t-22.5 -143.5q0 -124 52.5 -198.5t151.5 -74.5
q83 0 146 48v161h-186v102zM419 836l-60 100l-61 -100h-108l126 168h85l126 -168h-108z" />
    <glyph glyph-name="gcircumflex" unicode="&#x11d;" horiz-adv-x="577" 
d="M518 517v-469q0 -121 -60 -189.5t-171 -68.5q-86 0 -141 36.5t-75 97.5l130 16q22 -58 85 -58q102 0 102 154v48q-22 -42 -58.5 -66t-87.5 -24q-55 0 -101.5 33.5t-74 93.5t-27.5 137q0 79 26.5 140.5t72.5 95.5t102 34q51 0 89.5 -27t59.5 -72l9 88h120zM361.5 142
q30.5 46 30.5 117q0 72 -30.5 117t-79.5 45q-50 0 -80.5 -45t-30.5 -117q0 -73 30.5 -118t80.5 -45q49 0 79.5 46zM339 593l-60 100l-61 -100h-108l126 168h85l126 -168h-108z" />
    <glyph glyph-name="Gbreve" unicode="&#x11e;" horiz-adv-x="712" 
d="M341 414h313v-318q-50 -48 -119.5 -77.5t-153.5 -29.5q-107 0 -184.5 50t-117.5 138t-40 200q0 114 40.5 203.5t114 140.5t167.5 51q120 0 194 -64t106 -165l-141 -13q-17 51 -57 86t-102 35q-56 0 -97.5 -34.5t-64 -97t-22.5 -143.5q0 -124 52.5 -198.5t151.5 -74.5
q83 0 146 48v161h-186v102zM250.5 876q-39.5 43 -39.5 128h76q1 -48 19 -70.5t53 -22.5t53 22t19 71h77q-1 -85 -40.5 -128t-108.5 -43t-108.5 43z" />
    <glyph glyph-name="gbreve" unicode="&#x11f;" horiz-adv-x="577" 
d="M518 517v-469q0 -121 -60 -189.5t-171 -68.5q-86 0 -141 36.5t-75 97.5l130 16q22 -58 85 -58q102 0 102 154v48q-22 -42 -58.5 -66t-87.5 -24q-55 0 -101.5 33.5t-74 93.5t-27.5 137q0 79 26.5 140.5t72.5 95.5t102 34q51 0 89.5 -27t59.5 -72l9 88h120zM361.5 142
q30.5 46 30.5 117q0 72 -30.5 117t-79.5 45q-50 0 -80.5 -45t-30.5 -117q0 -73 30.5 -118t80.5 -45q49 0 79.5 46zM170.5 633q-39.5 43 -39.5 128h76q1 -48 19 -70.5t53 -22.5t53 22t19 71h77q-1 -85 -40.5 -128t-108.5 -43t-108.5 43z" />
    <glyph glyph-name="Gdotaccent" unicode="&#x120;" horiz-adv-x="712" 
d="M341 414h313v-318q-50 -48 -119.5 -77.5t-153.5 -29.5q-107 0 -184.5 50t-117.5 138t-40 200q0 114 40.5 203.5t114 140.5t167.5 51q120 0 194 -64t106 -165l-141 -13q-17 51 -57 86t-102 35q-56 0 -97.5 -34.5t-64 -97t-22.5 -143.5q0 -124 52.5 -198.5t151.5 -74.5
q83 0 146 48v161h-186v102zM303 873q-23 23 -23 55q0 34 23 57t56 23q32 0 55 -23t23 -57q0 -32 -23 -55t-55 -23q-33 0 -56 23z" />
    <glyph glyph-name="gdotaccent" unicode="&#x121;" horiz-adv-x="577" 
d="M518 517v-469q0 -121 -60 -189.5t-171 -68.5q-86 0 -141 36.5t-75 97.5l130 16q22 -58 85 -58q102 0 102 154v48q-22 -42 -58.5 -66t-87.5 -24q-55 0 -101.5 33.5t-74 93.5t-27.5 137q0 79 26.5 140.5t72.5 95.5t102 34q51 0 89.5 -27t59.5 -72l9 88h120zM361.5 142
q30.5 46 30.5 117q0 72 -30.5 117t-79.5 45q-50 0 -80.5 -45t-30.5 -117q0 -73 30.5 -118t80.5 -45q49 0 79.5 46zM223 630q-23 23 -23 55q0 34 23 57t56 23q32 0 55 -23t23 -57q0 -32 -23 -55t-55 -23q-33 0 -56 23z" />
    <glyph glyph-name="Gcommaaccent" unicode="&#x122;" horiz-adv-x="712" 
d="M341 414h313v-318q-50 -48 -119.5 -77.5t-153.5 -29.5q-107 0 -184.5 50t-117.5 138t-40 200q0 114 40.5 203.5t114 140.5t167.5 51q120 0 194 -64t106 -165l-141 -13q-17 51 -57 86t-102 35q-56 0 -97.5 -34.5t-64 -97t-22.5 -143.5q0 -124 52.5 -198.5t151.5 -74.5
q83 0 146 48v161h-186v102zM359 -220h-84l48 153h132z" />
    <glyph glyph-name="gcommaaccent" unicode="&#x123;" horiz-adv-x="577" 
d="M518 517v-469q0 -121 -60 -189.5t-171 -68.5q-86 0 -141 36.5t-75 97.5l130 16q22 -58 85 -58q102 0 102 154v48q-22 -42 -58.5 -66t-87.5 -24q-55 0 -101.5 33.5t-74 93.5t-27.5 137q0 79 26.5 140.5t72.5 95.5t102 34q51 0 89.5 -27t59.5 -72l9 88h120zM361.5 142
q30.5 46 30.5 117q0 72 -30.5 117t-79.5 45q-50 0 -80.5 -45t-30.5 -117q0 -73 30.5 -118t80.5 -45q49 0 79.5 46zM310 756h84l-48 -153h-132z" />
    <glyph glyph-name="Hcircumflex" unicode="&#x124;" horiz-adv-x="624" 
d="M561 760v-760h-134v338h-230v-338h-134v760h134v-310h230v310h134zM372 836l-60 100l-61 -100h-108l126 168h85l126 -168h-108z" />
    <glyph glyph-name="hcircumflex" unicode="&#x125;" horiz-adv-x="544" 
d="M451 474q39 -54 39 -148v-326h-130v302q0 66 -19 95.5t-61 29.5q-48 0 -70 -45.5t-22 -108.5v-273h-130v760h130v-321q24 43 61 66t84 23q79 0 118 -54zM348 836l-60 100l-61 -100h-108l126 168h85l126 -168h-108z" />
    <glyph glyph-name="Hbar" unicode="&#x126;" horiz-adv-x="643" 
d="M634 548h-63v-548h-134v338h-230v-338h-134v548h-65v99h65v113h134v-113h230v113h134v-113h63v-99zM437 548h-230v-98h230v98z" />
    <glyph glyph-name="hbar" unicode="&#x127;" horiz-adv-x="575" 
d="M482 474q39 -54 39 -148v-326h-130v302q0 66 -19 95.5t-61 29.5q-48 0 -70 -45.5t-22 -108.5v-273h-130v603h-89v83h89v74h130v-74h168v-83h-168v-164q24 43 61 66t84 23q79 0 118 -54z" />
    <glyph glyph-name="Itilde" unicode="&#x128;" horiz-adv-x="260" 
d="M63 760h134v-760h-134v760zM150 876q-17 8 -41 24q-32 23 -48 23q-14 0 -27 -10t-23 -29l-56 39q36 88 114 88q21 0 41 -9t42 -24q16 -11 26.5 -16.5t21.5 -5.5q12 0 25 10t24 29l56 -35q-18 -43 -47.5 -67.5t-69.5 -24.5q-21 0 -38 8z" />
    <glyph glyph-name="itilde" unicode="&#x129;" horiz-adv-x="248" 
d="M59 517h130v-517h-130v517zM145 633q-17 8 -41 24q-32 23 -48 23q-14 0 -27 -10t-23 -29l-56 39q36 88 114 88q21 0 41 -9t42 -24q16 -11 26.5 -16.5t21.5 -5.5q12 0 25 10t24 29l56 -35q-18 -43 -47.5 -67.5t-69.5 -24.5q-21 0 -38 8z" />
    <glyph glyph-name="Imacron" unicode="&#x12a;" horiz-adv-x="260" 
d="M63 760h134v-760h-134v760zM7 977h247v-79h-247v79z" />
    <glyph glyph-name="imacron" unicode="&#x12b;" horiz-adv-x="248" 
d="M59 517h130v-517h-130v517zM2 734h247v-79h-247v79z" />
    <glyph glyph-name="Ibreve" unicode="&#x12c;" horiz-adv-x="260" 
d="M63 760h134v-760h-134v760zM21.5 876q-39.5 43 -39.5 128h76q1 -48 19 -70.5t53 -22.5t53 22t19 71h77q-1 -85 -40.5 -128t-108.5 -43t-108.5 43z" />
    <glyph glyph-name="ibreve" unicode="&#x12d;" horiz-adv-x="248" 
d="M59 517h130v-517h-130v517zM16.5 633q-39.5 43 -39.5 128h76q1 -48 19 -70.5t53 -22.5t53 22t19 71h77q-1 -85 -40.5 -128t-108.5 -43t-108.5 43z" />
    <glyph glyph-name="Iogonek" unicode="&#x12e;" horiz-adv-x="260" 
d="M63 760h134v-760h-134v760zM72 -70q0 -28 16.5 -43.5t46.5 -15.5q18 0 37 6l3 -72q-30 -15 -67 -15q-51 0 -83 29.5t-32 82.5q0 56 36.5 91.5t92.5 45.5l8 -33q-58 -22 -58 -76z" />
    <glyph glyph-name="iogonek" unicode="&#x12f;" horiz-adv-x="248" 
d="M59 517h130v-517h-130v517zM69 630q-23 23 -23 55q0 34 23 57t56 23q32 0 55 -23t23 -57q0 -32 -23 -55t-55 -23q-33 0 -56 23zM66 -70q0 -28 16.5 -43.5t46.5 -15.5q18 0 37 6l3 -72q-30 -15 -67 -15q-51 0 -83 29.5t-32 82.5q0 56 36.5 91.5t92.5 45.5l8 -33
q-58 -22 -58 -76z" />
    <glyph glyph-name="Idotaccent" unicode="&#x130;" horiz-adv-x="260" 
d="M63 760h134v-760h-134v760zM74 873q-23 23 -23 55q0 34 23 57t56 23q32 0 55 -23t23 -57q0 -32 -23 -55t-55 -23q-33 0 -56 23z" />
    <glyph glyph-name="dotlessi" unicode="&#x131;" horiz-adv-x="248" 
d="M59 517h130v-517h-130v517z" />
    <glyph glyph-name="IJ" unicode="&#x132;" horiz-adv-x="600" 
d="M63 760h134v-502h-134v502zM242 1.5q-41 13.5 -67 33.5l44 100q43 -29 90 -29q43 0 70.5 37t27.5 110v507h135v-506q0 -86 -28 -146t-76.5 -90t-111.5 -30q-43 0 -84 13.5z" />
    <glyph glyph-name="ij" unicode="&#x133;" horiz-adv-x="497" 
d="M68 629q-23 23 -23 55q0 34 23 57t56 23q32 0 55 -23t23 -57q0 -32 -23 -55t-55 -23q-33 0 -56 23zM59 517h130v-517h-130v517zM318 629q-23 23 -23 55q0 34 23 57t56 23q32 0 55 -23t23 -57q0 -32 -23 -55t-55 -23q-33 0 -56 23zM235 -205q-27 5 -47 12l7 99
q32 -10 58 -10q34 0 45.5 19t11.5 70v532h129v-548q0 -94 -38.5 -136.5t-114.5 -42.5q-24 0 -51 5z" />
    <glyph glyph-name="Jcircumflex" unicode="&#x134;" horiz-adv-x="552" 
d="M101.5 50q-63.5 62 -69.5 177l133 9q3 -62 30 -94t68 -32q45 0 71 35.5t26 108.5v506h134v-501q0 -133 -63 -202t-168 -69q-98 0 -161.5 62zM488 836l-60 100l-61 -100h-108l126 168h85l126 -168h-108z" />
    <glyph glyph-name="jcircumflex" unicode="&#x135;" horiz-adv-x="250" 
d="M-13 -205q-27 5 -47 12l7 99q32 -10 58 -10q34 0 45.5 19t11.5 70v532h129v-548q0 -94 -38.5 -136.5t-114.5 -42.5q-24 0 -51 5zM168 593l-43 113l-43 -113h-102l102 168h84l103 -168h-101z" />
    <glyph glyph-name="Kcommaaccent" unicode="&#x136;" horiz-adv-x="573" 
d="M277 331l-81 -123v-208h-133v760h133v-366l218 366h144l-209 -319l221 -441h-137zM272 -220h-84l48 153h132z" />
    <glyph glyph-name="kcommaaccent" unicode="&#x137;" horiz-adv-x="483" 
d="M237 225l-50 -62v-163h-129v760h129v-440l143 197h141l-163 -203l180 -314h-131zM226 -220h-84l48 153h132z" />
    <glyph glyph-name="kgreenlandic" unicode="&#x138;" horiz-adv-x="483" 
d="M239 234l-52 -66v-168h-129v517h129v-191l89 120q29 39 60 55t77 16h32v-104h-25q-24 0 -40 -10t-34 -33l-36 -46l178 -324h-132z" />
    <glyph glyph-name="Lacute" unicode="&#x139;" horiz-adv-x="446" 
d="M427 112v-112h-364v760h134v-648h230zM175 833h-84l60 171h132z" />
    <glyph glyph-name="lacute" unicode="&#x13a;" horiz-adv-x="288" 
d="M128.5 5q-36.5 17 -53.5 58.5t-17 116.5v580h129v-579q0 -50 15 -68.5t52 -18.5h10l9 -103q-19 -3 -47 -3q-61 0 -97.5 17zM161 833h-84l60 171h132z" />
    <glyph glyph-name="Lcommaaccent" unicode="&#x13b;" horiz-adv-x="446" 
d="M427 112v-112h-364v760h134v-648h230zM221 -220h-84l48 153h132z" />
    <glyph glyph-name="lcommaaccent" unicode="&#x13c;" horiz-adv-x="288" 
d="M128.5 5q-36.5 17 -53.5 58.5t-17 116.5v580h129v-579q0 -50 15 -68.5t52 -18.5h10l9 -103q-19 -3 -47 -3q-61 0 -97.5 17zM135 -220h-84l48 153h132z" />
    <glyph glyph-name="Lcaron" unicode="&#x13d;" horiz-adv-x="470" 
d="M427 112v-112h-364v760h134v-648h230zM367 570h-72l8 190h123z" />
    <glyph glyph-name="lcaron" unicode="&#x13e;" horiz-adv-x="403" 
d="M128.5 5q-36.5 17 -53.5 58.5t-17 116.5v580h129v-579q0 -50 15 -68.5t52 -18.5h10l9 -103q-19 -3 -47 -3q-61 0 -97.5 17zM329 589h-72l7 171h124z" />
    <glyph glyph-name="Ldot" unicode="&#x13f;" horiz-adv-x="472" 
d="M427 112v-112h-364v760h134v-648h230zM318 339q-23 23 -23 55t23 54.5t54 22.5q32 0 55 -22.5t23 -54.5t-23 -55t-55 -23q-31 0 -54 23z" />
    <glyph glyph-name="ldot" unicode="&#x140;" horiz-adv-x="398" 
d="M266 339q-23 23 -23 55t23 54.5t54 22.5q32 0 55 -22.5t23 -54.5t-23 -55t-55 -23q-31 0 -54 23zM128.5 5q-36.5 17 -53.5 58.5t-17 116.5v580h129v-579q0 -50 15 -68.5t52 -18.5h10l9 -103q-19 -3 -47 -3q-61 0 -97.5 17z" />
    <glyph glyph-name="Lslash" unicode="&#x141;" horiz-adv-x="494" 
d="M476 112v-112h-364v296l-67 -37l-38 84l105 58v359h134v-286l117 64l39 -84l-156 -85v-257h230z" />
    <glyph glyph-name="lslash" unicode="&#x142;" horiz-adv-x="379" 
d="M315 94l9 -103q-19 -3 -47 -3q-61 0 -97.5 17t-53.5 58.5t-17 116.5v118l-66 -35l-35 77l101 54v366h129v-298l98 52l35 -77l-133 -71v-185q0 -50 15 -68.5t52 -18.5h10z" />
    <glyph glyph-name="Nacute" unicode="&#x143;" horiz-adv-x="628" 
d="M565 760v-760h-130l-242 549v-549h-130v760h130l242 -547v547h130zM352 833h-84l60 171h132z" />
    <glyph glyph-name="nacute" unicode="&#x144;" horiz-adv-x="544" 
d="M452.5 473q38.5 -55 38.5 -150v-323h-130v302q0 66 -19.5 95.5t-61.5 29.5q-48 0 -70 -45.5t-22 -108.5v-273h-130v517h117l11 -82q24 46 61.5 69.5t85.5 23.5q81 0 119.5 -55zM318 590h-84l60 171h132z" />
    <glyph glyph-name="Ncommaaccent" unicode="&#x145;" horiz-adv-x="628" 
d="M565 760v-760h-130l-242 549v-549h-130v760h130l242 -547v547h130zM297 -220h-84l48 153h132z" />
    <glyph glyph-name="ncommaaccent" unicode="&#x146;" horiz-adv-x="544" 
d="M452.5 473q38.5 -55 38.5 -150v-323h-130v302q0 66 -19.5 95.5t-61.5 29.5q-48 0 -70 -45.5t-22 -108.5v-273h-130v517h117l11 -82q24 46 61.5 69.5t85.5 23.5q81 0 119.5 -55zM253 -220h-84l48 153h132z" />
    <glyph glyph-name="Ncaron" unicode="&#x147;" horiz-adv-x="628" 
d="M565 760v-760h-130l-242 549v-549h-130v760h130l242 -547v547h130zM482 1004l-126 -168h-85l-126 168h108l61 -100l60 100h108z" />
    <glyph glyph-name="ncaron" unicode="&#x148;" horiz-adv-x="544" 
d="M452.5 473q38.5 -55 38.5 -150v-323h-130v302q0 66 -19.5 95.5t-61.5 29.5q-48 0 -70 -45.5t-22 -108.5v-273h-130v517h117l11 -82q24 46 61.5 69.5t85.5 23.5q81 0 119.5 -55zM448 761l-126 -168h-85l-126 168h108l61 -100l60 100h108z" />
    <glyph glyph-name="napostrophe" unicode="&#x149;" horiz-adv-x="602" 
d="M194 760l-111 -171h-76l60 171h127zM510.5 473q38.5 -55 38.5 -150v-323h-130v302q0 66 -19.5 95.5t-61.5 29.5q-48 0 -70 -45.5t-22 -108.5v-273h-130v517h117l11 -82q24 46 61.5 69.5t85.5 23.5q81 0 119.5 -55z" />
    <glyph glyph-name="Eng" unicode="&#x14a;" horiz-adv-x="628" 
d="M565 760v-697q0 -131 -62.5 -202t-172.5 -71q-29 0 -49 4l8 108q14 -3 36 -3q47 0 77 34.5t32 103.5l-240 523v-560h-131v760h131l240 -519v519h131z" />
    <glyph glyph-name="eng" unicode="&#x14b;" horiz-adv-x="544" 
d="M451.5 474q39.5 -54 39.5 -148v-357q0 -95 -38.5 -137t-114.5 -42q-52 0 -98 17l7 99q33 -10 58 -10q33 0 44.5 19t11.5 70v317q0 66 -19.5 95.5t-61.5 29.5q-48 0 -70 -45.5t-22 -108.5v-273h-130v517h117l11 -81q24 45 62 68.5t85 23.5q79 0 118.5 -54z" />
    <glyph glyph-name="Omacron" unicode="&#x14c;" horiz-adv-x="735" 
d="M194.5 39q-74.5 51 -115 140t-40.5 201t40.5 201.5t115 140t172.5 50.5q99 0 173.5 -50.5t115 -140t40.5 -201.5t-40.5 -201t-115.5 -140t-173 -51t-172.5 51zM468.5 143.5q43.5 33.5 66.5 94.5t23 142t-23 142t-66.5 94.5t-101.5 33.5t-101 -33.5t-66 -94.5t-23 -142
t23 -142t66 -94.5t101 -33.5t101.5 33.5zM244 977h247v-79h-247v79z" />
    <glyph glyph-name="omacron" unicode="&#x14d;" horiz-adv-x="557" 
d="M148 23q-54 35 -81.5 96t-27.5 139t27.5 139.5t81.5 96t130 34.5t130.5 -34.5t82 -95.5t27.5 -140q0 -78 -27.5 -139t-82 -96t-130.5 -35t-130 35zM358 138.5q30 43.5 30 119.5q0 77 -30 120.5t-80 43.5t-79.5 -43.5t-29.5 -120.5q0 -76 30 -119.5t79 -43.5q50 0 80 43.5
zM155 734h247v-79h-247v79z" />
    <glyph glyph-name="Obreve" unicode="&#x14e;" horiz-adv-x="735" 
d="M194.5 39q-74.5 51 -115 140t-40.5 201t40.5 201.5t115 140t172.5 50.5q99 0 173.5 -50.5t115 -140t40.5 -201.5t-40.5 -201t-115.5 -140t-173 -51t-172.5 51zM468.5 143.5q43.5 33.5 66.5 94.5t23 142t-23 142t-66.5 94.5t-101.5 33.5t-101 -33.5t-66 -94.5t-23 -142
t23 -142t66 -94.5t101 -33.5t101.5 33.5zM258.5 876q-39.5 43 -39.5 128h76q1 -48 19 -70.5t53 -22.5t53 22t19 71h77q-1 -85 -40.5 -128t-108.5 -43t-108.5 43z" />
    <glyph glyph-name="obreve" unicode="&#x14f;" horiz-adv-x="557" 
d="M148 23q-54 35 -81.5 96t-27.5 139t27.5 139.5t81.5 96t130 34.5t130.5 -34.5t82 -95.5t27.5 -140q0 -78 -27.5 -139t-82 -96t-130.5 -35t-130 35zM358 138.5q30 43.5 30 119.5q0 77 -30 120.5t-80 43.5t-79.5 -43.5t-29.5 -120.5q0 -76 30 -119.5t79 -43.5q50 0 80 43.5
zM169.5 633q-39.5 43 -39.5 128h76q1 -48 19 -70.5t53 -22.5t53 22t19 71h77q-1 -85 -40.5 -128t-108.5 -43t-108.5 43z" />
    <glyph glyph-name="Ohungarumlaut" unicode="&#x150;" horiz-adv-x="735" 
d="M194.5 39q-74.5 51 -115 140t-40.5 201t40.5 201.5t115 140t172.5 50.5q99 0 173.5 -50.5t115 -140t40.5 -201.5t-40.5 -201t-115.5 -140t-173 -51t-172.5 51zM468.5 143.5q43.5 33.5 66.5 94.5t23 142t-23 142t-66.5 94.5t-101.5 33.5t-101 -33.5t-66 -94.5t-23 -142
t23 -142t66 -94.5t101 -33.5t101.5 33.5zM311 833h-84l60 171h132zM496 833h-84l60 171h132z" />
    <glyph glyph-name="ohungarumlaut" unicode="&#x151;" horiz-adv-x="557" 
d="M148 23q-54 35 -81.5 96t-27.5 139t27.5 139.5t81.5 96t130 34.5t130.5 -34.5t82 -95.5t27.5 -140q0 -78 -27.5 -139t-82 -96t-130.5 -35t-130 35zM358 138.5q30 43.5 30 119.5q0 77 -30 120.5t-80 43.5t-79.5 -43.5t-29.5 -120.5q0 -76 30 -119.5t79 -43.5q50 0 80 43.5
zM222 590h-84l60 171h132zM407 590h-84l60 171h132z" />
    <glyph glyph-name="OE" unicode="&#x152;" horiz-adv-x="992" 
d="M194.5 39q-74.5 51 -115 140t-40.5 201t40.5 201.5t115 140t172.5 50.5q99 0 173.5 -50.5t115 -140t40.5 -201.5t-40.5 -201t-115.5 -140t-173 -51t-172.5 51zM468.5 143.5q43.5 33.5 66.5 94.5t23 142t-23 142t-66.5 94.5t-101.5 33.5t-101 -33.5t-66 -94.5t-23 -142
t23 -142t66 -94.5t101 -33.5t101.5 33.5zM943 112v-112h-384v760h381v-112h-247v-198h240v-109h-240v-229h250z" />
    <glyph glyph-name="oe" unicode="&#x153;" horiz-adv-x="898" 
d="M148 23q-54 35 -81.5 96t-27.5 139t27.5 139.5t81.5 96t130 34.5t130.5 -34.5t82 -95.5t27.5 -140q0 -78 -27.5 -139t-82 -96t-130.5 -35t-130 35zM358 138.5q30 43.5 30 119.5q0 77 -30 120.5t-80 43.5t-79.5 -43.5t-29.5 -120.5q0 -76 30 -119.5t79 -43.5q50 0 80 43.5
zM858 218h-340q5 -65 34.5 -99t75.5 -34q35 0 58.5 21t35.5 57l129 -12q-27 -78 -83.5 -120.5t-142.5 -42.5q-112 0 -174.5 74t-62.5 198q0 122 61.5 195t172.5 73q114 0 175.5 -75.5t61.5 -198.5q0 -25 -1 -36zM550 396q-28 -34 -32 -99h213q-5 64 -31.5 98.5t-74.5 34.5
q-47 0 -75 -34z" />
    <glyph glyph-name="Racute" unicode="&#x154;" horiz-adv-x="582" 
d="M415 0l-99 229q-8 -1 -23 -1h-97v-228h-133v760h232q121 0 185 -70t64 -194q0 -81 -29 -141.5t-85 -93.5l123 -261h-138zM276 337q69 0 101.5 42t32.5 117q0 155 -135 155h-79v-314h80zM306 833h-84l60 171h132z" />
    <glyph glyph-name="racute" unicode="&#x155;" horiz-adv-x="366" 
d="M351 525l-8 -125q-26 7 -51 7q-52 0 -78 -47.5t-26 -123.5v-236h-130v517h115l14 -94q21 52 55 78.5t74 26.5q23 0 35 -3zM227 590h-84l60 171h132z" />
    <glyph glyph-name="Rcommaaccent" unicode="&#x156;" horiz-adv-x="582" 
d="M415 0l-99 229q-8 -1 -23 -1h-97v-228h-133v760h232q121 0 185 -70t64 -194q0 -81 -29 -141.5t-85 -93.5l123 -261h-138zM276 337q69 0 101.5 42t32.5 117q0 155 -135 155h-79v-314h80zM268 -220h-84l48 153h132z" />
    <glyph glyph-name="rcommaaccent" unicode="&#x157;" horiz-adv-x="366" 
d="M351 525l-8 -125q-26 7 -51 7q-52 0 -78 -47.5t-26 -123.5v-236h-130v517h115l14 -94q21 52 55 78.5t74 26.5q23 0 35 -3zM134 -220h-84l48 153h132z" />
    <glyph glyph-name="Rcaron" unicode="&#x158;" horiz-adv-x="582" 
d="M415 0l-99 229q-8 -1 -23 -1h-97v-228h-133v760h232q121 0 185 -70t64 -194q0 -81 -29 -141.5t-85 -93.5l123 -261h-138zM276 337q69 0 101.5 42t32.5 117q0 155 -135 155h-79v-314h80zM436 1004l-126 -168h-85l-126 168h108l61 -100l60 100h108z" />
    <glyph glyph-name="rcaron" unicode="&#x159;" horiz-adv-x="366" 
d="M351 525l-8 -125q-26 7 -51 7q-52 0 -78 -47.5t-26 -123.5v-236h-130v517h115l14 -94q21 52 55 78.5t74 26.5q23 0 35 -3zM357 761l-126 -168h-85l-126 168h108l61 -100l60 100h108z" />
    <glyph glyph-name="Sacute" unicode="&#x15a;" horiz-adv-x="588" 
d="M114.5 48q-64.5 60 -76.5 165l136 10q6 -73 41 -100.5t81 -27.5q52 0 82.5 28.5t30.5 83.5q0 49 -24 73t-70 41l-72 26q-104 37 -150 87t-46 134q0 100 64.5 152t166.5 52q117 0 178.5 -58t73.5 -160l-137 -13q-10 125 -113 125q-45 0 -70 -22.5t-25 -69.5
q0 -41 22.5 -66.5t75.5 -44.5l72 -26q60 -21 100.5 -45.5t65.5 -67.5t25 -110q0 -106 -66.5 -166t-182.5 -60q-118 0 -182.5 60zM318 833h-84l60 171h132z" />
    <glyph glyph-name="sacute" unicode="&#x15b;" horiz-adv-x="468" 
d="M89 29.5q-52 41.5 -61 116.5l127 11q5 -39 23 -58t56 -19q75 0 75 62q0 33 -20.5 49.5t-71.5 31.5l-31 9q-51 16 -82.5 33t-49.5 45.5t-18 72.5q0 72 48.5 108.5t141.5 36.5q84 0 136.5 -38.5t62.5 -106.5l-125 -10q-3 29 -19 47.5t-51 18.5q-31 0 -48 -13t-17 -36
q0 -21 17 -35t57 -27l28 -9q59 -19 94 -36.5t56 -49.5t21 -84q0 -80 -54.5 -120.5t-147.5 -40.5q-95 0 -147 41.5zM262 590h-84l60 171h132z" />
    <glyph glyph-name="Scircumflex" unicode="&#x15c;" horiz-adv-x="588" 
d="M114.5 48q-64.5 60 -76.5 165l136 10q6 -73 41 -100.5t81 -27.5q52 0 82.5 28.5t30.5 83.5q0 49 -24 73t-70 41l-72 26q-104 37 -150 87t-46 134q0 100 64.5 152t166.5 52q117 0 178.5 -58t73.5 -160l-137 -13q-10 125 -113 125q-45 0 -70 -22.5t-25 -69.5
q0 -41 22.5 -66.5t75.5 -44.5l72 -26q60 -21 100.5 -45.5t65.5 -67.5t25 -110q0 -106 -66.5 -166t-182.5 -60q-118 0 -182.5 60zM340 836l-60 100l-61 -100h-108l126 168h85l126 -168h-108z" />
    <glyph glyph-name="scircumflex" unicode="&#x15d;" horiz-adv-x="468" 
d="M89 29.5q-52 41.5 -61 116.5l127 11q5 -39 23 -58t56 -19q75 0 75 62q0 33 -20.5 49.5t-71.5 31.5l-31 9q-51 16 -82.5 33t-49.5 45.5t-18 72.5q0 72 48.5 108.5t141.5 36.5q84 0 136.5 -38.5t62.5 -106.5l-125 -10q-3 29 -19 47.5t-51 18.5q-31 0 -48 -13t-17 -36
q0 -21 17 -35t57 -27l28 -9q59 -19 94 -36.5t56 -49.5t21 -84q0 -80 -54.5 -120.5t-147.5 -40.5q-95 0 -147 41.5zM284 593l-60 100l-61 -100h-108l126 168h85l126 -168h-108z" />
    <glyph glyph-name="Scedilla" unicode="&#x15e;" horiz-adv-x="588" 
d="M114.5 48q-64.5 60 -76.5 165l136 10q6 -73 41 -100.5t81 -27.5q52 0 82.5 28.5t30.5 83.5q0 49 -24 73t-70 41l-72 26q-104 37 -150 87t-46 134q0 100 64.5 152t166.5 52q117 0 178.5 -58t73.5 -160l-137 -13q-10 125 -113 125q-45 0 -70 -22.5t-25 -69.5
q0 -41 22.5 -66.5t75.5 -44.5l72 -26q60 -21 100.5 -45.5t65.5 -67.5t25 -110q0 -106 -66.5 -166t-182.5 -60q-118 0 -182.5 60zM375.5 -59q22.5 -22 22.5 -60q0 -42 -26.5 -66.5t-71.5 -24.5q-50 0 -81 18l18 51q22 -10 44 -10q16 0 25.5 9t9.5 26q0 14 -7.5 21.5
t-19.5 7.5q-17 0 -31 -12l-24 16l26 106h58l-11 -60h10q36 0 58.5 -22z" />
    <glyph glyph-name="scedilla" unicode="&#x15f;" horiz-adv-x="468" 
d="M89 29.5q-52 41.5 -61 116.5l127 11q5 -39 23 -58t56 -19q75 0 75 62q0 33 -20.5 49.5t-71.5 31.5l-31 9q-51 16 -82.5 33t-49.5 45.5t-18 72.5q0 72 48.5 108.5t141.5 36.5q84 0 136.5 -38.5t62.5 -106.5l-125 -10q-3 29 -19 47.5t-51 18.5q-31 0 -48 -13t-17 -36
q0 -21 17 -35t57 -27l28 -9q59 -19 94 -36.5t56 -49.5t21 -84q0 -80 -54.5 -120.5t-147.5 -40.5q-95 0 -147 41.5zM314.5 -59q22.5 -22 22.5 -60q0 -42 -26.5 -66.5t-71.5 -24.5q-50 0 -81 18l18 51q22 -10 44 -10q16 0 25.5 9t9.5 26q0 14 -7.5 21.5t-19.5 7.5
q-17 0 -31 -12l-24 16l26 106h58l-11 -60h10q36 0 58.5 -22z" />
    <glyph glyph-name="Scaron" unicode="&#x160;" horiz-adv-x="588" 
d="M114.5 48q-64.5 60 -76.5 165l136 10q6 -73 41 -100.5t81 -27.5q52 0 82.5 28.5t30.5 83.5q0 49 -24 73t-70 41l-72 26q-104 37 -150 87t-46 134q0 100 64.5 152t166.5 52q117 0 178.5 -58t73.5 -160l-137 -13q-10 125 -113 125q-45 0 -70 -22.5t-25 -69.5
q0 -41 22.5 -66.5t75.5 -44.5l72 -26q60 -21 100.5 -45.5t65.5 -67.5t25 -110q0 -106 -66.5 -166t-182.5 -60q-118 0 -182.5 60zM448 1004l-126 -168h-85l-126 168h108l61 -100l60 100h108z" />
    <glyph glyph-name="scaron" unicode="&#x161;" horiz-adv-x="468" 
d="M89 29.5q-52 41.5 -61 116.5l127 11q5 -39 23 -58t56 -19q75 0 75 62q0 33 -20.5 49.5t-71.5 31.5l-31 9q-51 16 -82.5 33t-49.5 45.5t-18 72.5q0 72 48.5 108.5t141.5 36.5q84 0 136.5 -38.5t62.5 -106.5l-125 -10q-3 29 -19 47.5t-51 18.5q-31 0 -48 -13t-17 -36
q0 -21 17 -35t57 -27l28 -9q59 -19 94 -36.5t56 -49.5t21 -84q0 -80 -54.5 -120.5t-147.5 -40.5q-95 0 -147 41.5zM392 761l-126 -168h-85l-126 168h108l61 -100l60 100h108z" />
    <glyph glyph-name="uni0162" unicode="&#x162;" horiz-adv-x="529" 
d="M508 648h-176v-648h-134v648h-176v112h486v-112zM336.5 -59q22.5 -22 22.5 -60q0 -42 -26.5 -66.5t-71.5 -24.5q-50 0 -81 18l18 51q22 -10 44 -10q16 0 25.5 9t9.5 26q0 14 -7.5 21.5t-19.5 7.5q-17 0 -31 -12l-24 16l26 106h58l-11 -60h10q36 0 58.5 -22z" />
    <glyph glyph-name="uni0163" unicode="&#x163;" horiz-adv-x="347" 
d="M319 -1q-49 -11 -95 -11q-79 0 -115 41.5t-36 138.5v245h-66l6 104h60v126h130v-126h105v-104h-105v-237q0 -47 12 -65t44 -18q27 0 53 7zM271.5 -59q22.5 -22 22.5 -60q0 -42 -26.5 -66.5t-71.5 -24.5q-50 0 -81 18l18 51q22 -10 44 -10q16 0 25.5 9t9.5 26
q0 14 -7.5 21.5t-19.5 7.5q-17 0 -31 -12l-24 16l26 106h58l-11 -60h10q36 0 58.5 -22z" />
    <glyph glyph-name="Tcaron" unicode="&#x164;" horiz-adv-x="529" 
d="M508 648h-176v-648h-134v648h-176v112h486v-112zM433 1004l-126 -168h-85l-126 168h108l61 -100l60 100h108z" />
    <glyph glyph-name="tcaron" unicode="&#x165;" horiz-adv-x="429" 
d="M432 760l-111 -171h-76l59 171h128zM312 100l7 -101q-49 -11 -95 -11q-79 0 -115 41.5t-36 138.5v245h-66l6 104h60v126h130v-126h105v-104h-105v-237q0 -47 12 -65t44 -18q27 0 53 7z" />
    <glyph glyph-name="Tbar" unicode="&#x166;" horiz-adv-x="529" 
d="M332 648v-208h123v-99h-123v-341h-134v341h-123v99h123v208h-176v112h486v-112h-176z" />
    <glyph glyph-name="tbar" unicode="&#x167;" horiz-adv-x="347" 
d="M319 -1q-49 -11 -95 -11q-79 0 -115 41.5t-36 138.5v73h-63v79h63v93h-66l6 104h60v126h130v-126h105v-104h-105v-93h105v-79h-105v-65q0 -47 12 -65t44 -18q27 0 53 7z" />
    <glyph glyph-name="Utilde" unicode="&#x168;" horiz-adv-x="630" 
d="M121 63.5q-63 75.5 -63 228.5v468h134v-477q0 -89 29.5 -131t93.5 -42t94 42t30 131v477h133v-468q0 -153 -63 -228.5t-194 -75.5t-194 75.5zM335 876q-17 8 -41 24q-32 23 -48 23q-14 0 -27 -10t-23 -29l-56 39q36 88 114 88q21 0 41 -9t42 -24q16 -11 26.5 -16.5
t21.5 -5.5q12 0 25 10t24 29l56 -35q-18 -43 -47.5 -67.5t-69.5 -24.5q-21 0 -38 8z" />
    <glyph glyph-name="utilde" unicode="&#x169;" horiz-adv-x="537" 
d="M479 517v-517h-117l-10 81q-23 -45 -59 -69t-82 -24q-158 0 -158 194v335h130v-315q0 -62 19 -86.5t59 -24.5q47 0 67.5 45.5t20.5 107.5v273h130zM286 633q-17 8 -41 24q-32 23 -48 23q-14 0 -27 -10t-23 -29l-56 39q36 88 114 88q21 0 41 -9t42 -24q16 -11 26.5 -16.5
t21.5 -5.5q12 0 25 10t24 29l56 -35q-18 -43 -47.5 -67.5t-69.5 -24.5q-21 0 -38 8z" />
    <glyph glyph-name="Umacron" unicode="&#x16a;" horiz-adv-x="630" 
d="M121 63.5q-63 75.5 -63 228.5v468h134v-477q0 -89 29.5 -131t93.5 -42t94 42t30 131v477h133v-468q0 -153 -63 -228.5t-194 -75.5t-194 75.5zM192 977h247v-79h-247v79z" />
    <glyph glyph-name="umacron" unicode="&#x16b;" horiz-adv-x="537" 
d="M479 517v-517h-117l-10 81q-23 -45 -59 -69t-82 -24q-158 0 -158 194v335h130v-315q0 -62 19 -86.5t59 -24.5q47 0 67.5 45.5t20.5 107.5v273h130zM143 734h247v-79h-247v79z" />
    <glyph glyph-name="Ubreve" unicode="&#x16c;" horiz-adv-x="630" 
d="M121 63.5q-63 75.5 -63 228.5v468h134v-477q0 -89 29.5 -131t93.5 -42t94 42t30 131v477h133v-468q0 -153 -63 -228.5t-194 -75.5t-194 75.5zM206.5 876q-39.5 43 -39.5 128h76q1 -48 19 -70.5t53 -22.5t53 22t19 71h77q-1 -85 -40.5 -128t-108.5 -43t-108.5 43z" />
    <glyph glyph-name="ubreve" unicode="&#x16d;" horiz-adv-x="537" 
d="M479 517v-517h-117l-10 81q-23 -45 -59 -69t-82 -24q-158 0 -158 194v335h130v-315q0 -62 19 -86.5t59 -24.5q47 0 67.5 45.5t20.5 107.5v273h130zM157.5 633q-39.5 43 -39.5 128h76q1 -48 19 -70.5t53 -22.5t53 22t19 71h77q-1 -85 -40.5 -128t-108.5 -43t-108.5 43z
" />
    <glyph glyph-name="Uring" unicode="&#x16e;" horiz-adv-x="630" 
d="M121 63.5q-63 75.5 -63 228.5v468h134v-477q0 -89 29.5 -131t93.5 -42t94 42t30 131v477h133v-468q0 -153 -63 -228.5t-194 -75.5t-194 75.5zM232.5 862q-33.5 34 -33.5 81q0 48 33.5 81.5t82.5 33.5q48 0 81 -33.5t33 -81.5t-33 -81.5t-81 -33.5q-49 0 -82.5 34z
M355 900.5q17 17.5 17 42.5t-17 42.5t-40 17.5q-25 0 -41.5 -17t-16.5 -43t16.5 -43t41.5 -17q23 0 40 17.5z" />
    <glyph glyph-name="uring" unicode="&#x16f;" horiz-adv-x="537" 
d="M479 517v-517h-117l-10 81q-23 -45 -59 -69t-82 -24q-158 0 -158 194v335h130v-315q0 -62 19 -86.5t59 -24.5q47 0 67.5 45.5t20.5 107.5v273h130zM183.5 619q-33.5 34 -33.5 81q0 48 33.5 81.5t82.5 33.5q48 0 81 -33.5t33 -81.5t-33 -81.5t-81 -33.5q-49 0 -82.5 34z
M306 657.5q17 17.5 17 42.5t-17 42.5t-40 17.5q-25 0 -41.5 -17t-16.5 -43t16.5 -43t41.5 -17q23 0 40 17.5z" />
    <glyph glyph-name="Uhungarumlaut" unicode="&#x170;" horiz-adv-x="630" 
d="M121 63.5q-63 75.5 -63 228.5v468h134v-477q0 -89 29.5 -131t93.5 -42t94 42t30 131v477h133v-468q0 -153 -63 -228.5t-194 -75.5t-194 75.5zM259 833h-84l60 171h132zM444 833h-84l60 171h132z" />
    <glyph glyph-name="uhungarumlaut" unicode="&#x171;" horiz-adv-x="537" 
d="M479 517v-517h-117l-10 81q-23 -45 -59 -69t-82 -24q-158 0 -158 194v335h130v-315q0 -62 19 -86.5t59 -24.5q47 0 67.5 45.5t20.5 107.5v273h130zM210 590h-84l60 171h132zM395 590h-84l60 171h132z" />
    <glyph glyph-name="Uogonek" unicode="&#x172;" horiz-adv-x="630" 
d="M121 63.5q-63 75.5 -63 228.5v468h134v-477q0 -89 29.5 -131t93.5 -42t94 42t30 131v477h133v-468q0 -153 -63 -228.5t-194 -75.5t-194 75.5zM362 -70q0 -28 16.5 -43.5t46.5 -15.5q18 0 37 6l3 -72q-30 -15 -67 -15q-51 0 -83 29.5t-32 82.5q0 56 36.5 91.5t92.5 45.5
l8 -33q-58 -22 -58 -76z" />
    <glyph glyph-name="uogonek" unicode="&#x173;" horiz-adv-x="537" 
d="M479 517v-517h-117l-10 81q-23 -45 -59 -69t-82 -24q-158 0 -158 194v335h130v-315q0 -62 19 -86.5t59 -24.5q47 0 67.5 45.5t20.5 107.5v273h130zM382 -70q0 -28 16.5 -43.5t46.5 -15.5q18 0 37 6l3 -72q-30 -15 -67 -15q-51 0 -83 29.5t-32 82.5q0 56 36.5 91.5
t92.5 45.5l8 -33q-58 -22 -58 -76z" />
    <glyph glyph-name="Wcircumflex" unicode="&#x174;" horiz-adv-x="867" 
d="M856 760l-168 -760h-139l-115 563l-116 -563h-138l-168 760h139l105 -617l120 617h117l119 -616l104 616h140zM494 836l-60 100l-61 -100h-108l126 168h85l126 -168h-108z" />
    <glyph glyph-name="wcircumflex" unicode="&#x175;" horiz-adv-x="709" 
d="M704 517l-141 -517h-127l-82 374l-81 -374h-129l-139 517h134l78 -404l86 404h103l86 -404l77 404h135zM414 593l-60 100l-61 -100h-108l126 168h85l126 -168h-108z" />
    <glyph glyph-name="Ycircumflex" unicode="&#x176;" horiz-adv-x="539" 
d="M544 760l-324 -760h-135l132 309h-1l-213 451h139l133 -313l134 313h135zM335 836l-60 100l-61 -100h-108l126 168h85l126 -168h-108z" />
    <glyph glyph-name="ycircumflex" unicode="&#x177;" horiz-adv-x="539" 
d="M481 517v-475q0 -120 -58.5 -186t-160.5 -66q-84 0 -135.5 36t-68.5 98l129 16q16 -58 74 -58q48 0 69 39t21 117v47q-23 -43 -58.5 -65t-79.5 -22q-158 0 -158 193v326h130v-305q0 -63 19.5 -87t58.5 -24q46 0 67 45t21 107v264h130zM331 593l-60 100l-61 -100h-108
l126 168h85l126 -168h-108z" />
    <glyph glyph-name="Ydieresis" unicode="&#x178;" horiz-adv-x="539" 
d="M544 760l-324 -760h-135l132 309h-1l-213 451h139l133 -313l134 313h135zM132 878.5q-20 20.5 -20 49.5t20 49.5t49 20.5t49.5 -20.5t20.5 -49.5t-20.5 -49.5t-49.5 -20.5t-49 20.5zM319.5 878.5q-20.5 20.5 -20.5 49.5t20.5 49.5t49.5 20.5t49 -20.5t20 -49.5t-20 -49.5
t-49 -20.5t-49.5 20.5z" />
    <glyph glyph-name="Zacute" unicode="&#x179;" horiz-adv-x="547" 
d="M214 112h301v-112h-493l311 648h-279v112h471zM334 833h-84l60 171h132z" />
    <glyph glyph-name="zacute" unicode="&#x17a;" horiz-adv-x="454" 
d="M208 103h217v-103h-405l223 414h-200l7 103h382zM274 590h-84l60 171h132z" />
    <glyph glyph-name="Zdotaccent" unicode="&#x17b;" horiz-adv-x="547" 
d="M214 112h301v-112h-493l311 648h-279v112h471zM240 873q-23 23 -23 55q0 34 23 57t56 23q32 0 55 -23t23 -57q0 -32 -23 -55t-55 -23q-33 0 -56 23z" />
    <glyph glyph-name="zdotaccent" unicode="&#x17c;" horiz-adv-x="454" 
d="M208 103h217v-103h-405l223 414h-200l7 103h382zM180 630q-23 23 -23 55q0 34 23 57t56 23q32 0 55 -23t23 -57q0 -32 -23 -55t-55 -23q-33 0 -56 23z" />
    <glyph glyph-name="Zcaron" unicode="&#x17d;" horiz-adv-x="547" 
d="M214 112h301v-112h-493l311 648h-279v112h471zM464 1004l-126 -168h-85l-126 168h108l61 -100l60 100h108z" />
    <glyph glyph-name="zcaron" unicode="&#x17e;" horiz-adv-x="454" 
d="M208 103h217v-103h-405l223 414h-200l7 103h382zM404 761l-126 -168h-85l-126 168h108l61 -100l60 100h108z" />
    <glyph glyph-name="longs" unicode="&#x17f;" horiz-adv-x="277" 
d="M289 765q32 -7 46 -15l-6 -93q-30 13 -65 13t-49 -21t-14 -74v-575h-129v413h-65l7 104h58v67q0 98 38 143t116 45q31 0 63 -7z" />
    <glyph glyph-name="uni018F" unicode="&#x18f;" horiz-adv-x="734" 
d="M541 720.5q75 -51.5 114.5 -141t39.5 -199.5t-39.5 -199t-114 -141t-174.5 -52q-101 0 -175 52t-113.5 142t-39.5 201q0 28 1 42h515q-9 103 -58.5 164t-128.5 61q-59 0 -100 -35t-64 -98l-139 17q35 111 111.5 174.5t188.5 63.5q101 0 176 -51.5zM494 168.5
q49 58.5 60 157.5h-373q11 -99 60 -157.5t126 -58.5q78 0 127 58.5z" />
    <glyph glyph-name="florin" unicode="&#x192;" horiz-adv-x="532" 
d="M382.5 630q-18.5 -28 -24.5 -84l-8 -93h80v-84h-88l-31 -352q-10 -111 -58 -163t-136 -52h-37l9 102q44 0 64 27.5t25 83.5l31 354h-49v84h57l8 94q10 111 56.5 162t132.5 51h38l-10 -102q-41 0 -59.5 -28z" />
    <glyph glyph-name="uni019D" unicode="&#x19d;" horiz-adv-x="627" 
d="M563 760v-760h-130l-240 549v-486q0 -131 -61 -202t-170 -71q-29 0 -49 4l7 108q14 -3 36 -3q47 0 76.5 37t29.5 111v713h131l240 -547v547h130z" />
    <glyph glyph-name="uni01CD" unicode="&#x1cd;" horiz-adv-x="575" 
d="M407 123h-238l-28 -123h-139l210 760h152l210 -760h-139zM383 226l-95 411l-95 -411h190zM456 1004l-126 -168h-85l-126 168h108l61 -100l60 100h108z" />
    <glyph glyph-name="uni01CE" unicode="&#x1ce;" horiz-adv-x="577" 
d="M518 517v-517h-119l-9 85q-22 -44 -60.5 -70.5t-88.5 -26.5q-55 0 -101 34t-73.5 96t-27.5 140t26.5 139.5t72 96t101.5 34.5q50 0 89 -26.5t61 -69.5v85h129zM362 141q31 46 31 118q0 71 -31 116.5t-79 45.5q-51 0 -81.5 -45t-30.5 -118t30.5 -118t81.5 -45q48 0 79 46z
M444 761l-126 -168h-85l-126 168h108l61 -100l60 100h108z" />
    <glyph glyph-name="Gcaron" unicode="&#x1e6;" horiz-adv-x="712" 
d="M341 414h313v-318q-50 -48 -119.5 -77.5t-153.5 -29.5q-107 0 -184.5 50t-117.5 138t-40 200q0 114 40.5 203.5t114 140.5t167.5 51q120 0 194 -64t106 -165l-141 -13q-17 51 -57 86t-102 35q-56 0 -97.5 -34.5t-64 -97t-22.5 -143.5q0 -124 52.5 -198.5t151.5 -74.5
q83 0 146 48v161h-186v102zM527 1004l-126 -168h-85l-126 168h108l61 -100l60 100h108z" />
    <glyph glyph-name="gcaron" unicode="&#x1e7;" horiz-adv-x="577" 
d="M518 517v-469q0 -121 -60 -189.5t-171 -68.5q-86 0 -141 36.5t-75 97.5l130 16q22 -58 85 -58q102 0 102 154v48q-22 -42 -58.5 -66t-87.5 -24q-55 0 -101.5 33.5t-74 93.5t-27.5 137q0 79 26.5 140.5t72.5 95.5t102 34q51 0 89.5 -27t59.5 -72l9 88h120zM361.5 142
q30.5 46 30.5 117q0 72 -30.5 117t-79.5 45q-50 0 -80.5 -45t-30.5 -117q0 -73 30.5 -118t80.5 -45q49 0 79.5 46zM447 761l-126 -168h-85l-126 168h108l61 -100l60 100h108z" />
    <glyph glyph-name="Aringacute" unicode="&#x1fa;" horiz-adv-x="575" 
d="M407 123h-238l-28 -123h-139l210 760h152l210 -760h-139zM383 226l-95 411l-95 -411h190zM205.5 862q-33.5 34 -33.5 81q0 48 33.5 81.5t82.5 33.5q48 0 81 -33.5t33 -81.5t-33 -81.5t-81 -33.5q-49 0 -82.5 34zM328 900.5q17 17.5 17 42.5t-17 42.5t-40 17.5
q-25 0 -41.5 -17t-16.5 -43t16.5 -43t41.5 -17q23 0 40 17.5zM326 1100h-84l60 171h132z" />
    <glyph glyph-name="aringacute" unicode="&#x1fb;" horiz-adv-x="577" 
d="M518 517v-517h-119l-9 85q-22 -44 -60.5 -70.5t-88.5 -26.5q-55 0 -101 34t-73.5 96t-27.5 140t26.5 139.5t72 96t101.5 34.5q50 0 89 -26.5t61 -69.5v85h129zM362 141q31 46 31 118q0 71 -31 116.5t-79 45.5q-51 0 -81.5 -45t-30.5 -118t30.5 -118t81.5 -45q48 0 79 46z
M193.5 619q-33.5 34 -33.5 81q0 48 33.5 81.5t82.5 33.5q48 0 81 -33.5t33 -81.5t-33 -81.5t-81 -33.5q-49 0 -82.5 34zM316 657.5q17 17.5 17 42.5t-17 42.5t-40 17.5q-25 0 -41.5 -17t-16.5 -43t16.5 -43t41.5 -17q23 0 40 17.5zM314 857h-84l60 171h132z" />
    <glyph glyph-name="AEacute" unicode="&#x1fc;" horiz-adv-x="833" 
d="M784 111v-111h-373v161h-211l-69 -161h-138l354 760h435v-111h-238v-200h231v-108h-231v-230h240zM411 263v386l-166 -386h166zM616 833h-84l60 171h132z" />
    <glyph glyph-name="aeacute" unicode="&#x1fd;" horiz-adv-x="825" 
d="M781 226h-320q4 -68 33 -104.5t74 -36.5q32 0 56 19.5t37 53.5l119 -11q-29 -77 -83 -118t-132 -41q-58 0 -103 25t-73 70q-51 -95 -180 -95q-76 0 -123.5 40.5t-47.5 118.5q0 85 53 121t141 36h113v12q0 62 -24.5 88.5t-61.5 26.5q-33 0 -56 -18.5t-34 -49.5l-115 12
q19 65 72 109t133 44q102 0 155 -62q57 62 147 62q70 0 120 -34.5t76 -95t26 -137.5q0 -15 -2 -35zM494 397q-27 -33 -32 -93h201q-5 61 -30.5 93.5t-69.5 32.5q-42 0 -69 -33zM314 107q31 34 31 95v24h-93q-54 0 -76 -19t-22 -56q0 -36 22.5 -57t58.5 -21q48 0 79 34z
M452 590h-84l60 171h132z" />
    <glyph glyph-name="Oslashacute" unicode="&#x1fe;" horiz-adv-x="735" 
d="M670.5 543q25.5 -75 25.5 -163q0 -112 -40.5 -201t-115.5 -140t-173 -51q-81 0 -148 36l-28 -47h-111l62 106q-50 53 -76.5 130t-26.5 167q0 112 40.5 201.5t115 140t172.5 50.5q85 0 155 -39l29 50h111l-65 -111q48 -54 73.5 -129zM210 199l252 432q-43 27 -95 27
q-59 0 -104 -34t-69 -97t-24 -147q0 -109 40 -181zM471.5 136q44.5 34 69 97t24.5 147q0 105 -37 174l-250 -428q39 -24 89 -24q60 0 104.5 34zM405 833h-84l60 171h132z" />
    <glyph glyph-name="oslashacute" unicode="&#x1ff;" horiz-adv-x="557" 
d="M498 379q20 -55 20 -121q0 -78 -27.5 -139t-82 -96t-130.5 -35q-60 0 -108 23l-18 -31h-72l38 66q-39 36 -59 90.5t-20 121.5q0 78 27.5 139.5t81.5 96t130 34.5q61 0 109 -23l18 31h73l-39 -66q39 -36 59 -91zM183 156l149 255q-23 16 -54 16q-51 0 -82.5 -45
t-31.5 -124q0 -59 19 -102zM361.5 134.5q31.5 44.5 31.5 123.5q0 60 -19 101l-149 -254q24 -15 53 -15q52 0 83.5 44.5zM316 589h-84l60 171h132z" />
    <glyph glyph-name="Scommaaccent" unicode="&#x218;" horiz-adv-x="588" 
d="M114.5 48q-64.5 60 -76.5 165l136 10q6 -73 41 -100.5t81 -27.5q52 0 82.5 28.5t30.5 83.5q0 49 -24 73t-70 41l-72 26q-104 37 -150 87t-46 134q0 100 64.5 152t166.5 52q117 0 178.5 -58t73.5 -160l-137 -13q-10 125 -113 125q-45 0 -70 -22.5t-25 -69.5
q0 -41 22.5 -66.5t75.5 -44.5l72 -26q60 -21 100.5 -45.5t65.5 -67.5t25 -110q0 -106 -66.5 -166t-182.5 -60q-118 0 -182.5 60zM287 -220h-84l48 153h132z" />
    <glyph glyph-name="scommaaccent" unicode="&#x219;" horiz-adv-x="468" 
d="M89 29.5q-52 41.5 -61 116.5l127 11q5 -39 23 -58t56 -19q75 0 75 62q0 33 -20.5 49.5t-71.5 31.5l-31 9q-51 16 -82.5 33t-49.5 45.5t-18 72.5q0 72 48.5 108.5t141.5 36.5q84 0 136.5 -38.5t62.5 -106.5l-125 -10q-3 29 -19 47.5t-51 18.5q-31 0 -48 -13t-17 -36
q0 -21 17 -35t57 -27l28 -9q59 -19 94 -36.5t56 -49.5t21 -84q0 -80 -54.5 -120.5t-147.5 -40.5q-95 0 -147 41.5zM226 -220h-84l48 153h132z" />
    <glyph glyph-name="uni021A" unicode="&#x21a;" horiz-adv-x="529" 
d="M508 648h-176v-648h-134v648h-176v112h486v-112zM248 -220h-84l48 153h132z" />
    <glyph glyph-name="uni021B" unicode="&#x21b;" horiz-adv-x="347" 
d="M319 -1q-49 -11 -95 -11q-79 0 -115 41.5t-36 138.5v245h-66l6 104h60v126h130v-126h105v-104h-105v-237q0 -47 12 -65t44 -18q27 0 53 7zM183 -220h-84l48 153h132z" />
    <glyph glyph-name="uni0232" unicode="&#x232;" horiz-adv-x="539" 
d="M544 760l-324 -760h-135l132 309h-1l-213 451h139l133 -313l134 313h135zM152 977h247v-79h-247v79z" />
    <glyph glyph-name="uni0233" unicode="&#x233;" horiz-adv-x="539" 
d="M481 517v-475q0 -120 -58.5 -186t-160.5 -66q-84 0 -135.5 36t-68.5 98l129 16q16 -58 74 -58q48 0 69 39t21 117v47q-23 -43 -58.5 -65t-79.5 -22q-158 0 -158 193v326h130v-305q0 -63 19.5 -87t58.5 -24q46 0 67 45t21 107v264h130zM148 734h247v-79h-247v79z" />
    <glyph glyph-name="uni0237" unicode="&#x237;" horiz-adv-x="250" 
d="M-13 -205q-27 5 -47 12l7 99q32 -10 58 -10q34 0 45.5 19t11.5 70v532h129v-548q0 -94 -38.5 -136.5t-114.5 -42.5q-24 0 -51 5z" />
    <glyph glyph-name="uni0259" unicode="&#x259;" horiz-adv-x="549" 
d="M40 299h340q-5 65 -34.5 99t-75.5 34q-35 0 -58.5 -21t-35.5 -57l-129 12q27 78 83.5 120.5t142.5 42.5q112 0 174.5 -74t62.5 -198q0 -122 -61.5 -195t-172.5 -73q-114 0 -175.5 75.5t-61.5 198.5q0 25 1 36zM348 121q28 34 32 99h-213q5 -64 31.5 -98.5t74.5 -34.5
q47 0 75 34z" />
    <glyph glyph-name="uni0272" unicode="&#x272;" horiz-adv-x="546" 
d="M454 474q39 -54 39 -148v-326h-130v302q0 66 -19 95.5t-61 29.5q-48 0 -70 -45.5t-22 -108.5v-304q0 -94 -38.5 -136.5t-114.5 -42.5q-52 0 -98 17l7 99q35 -10 59 -10q32 0 43.5 19t11.5 70v532h116l12 -81q24 45 62 68.5t85 23.5q79 0 118 -54z" />
    <glyph glyph-name="circumflex" unicode="&#x2c6;" horiz-adv-x="437" 
d="M279 592l-60 100l-61 -100h-108l126 168h85l126 -168h-108z" />
    <glyph glyph-name="caron" unicode="&#x2c7;" horiz-adv-x="437" 
d="M387 760l-126 -168h-85l-126 168h108l61 -100l60 100h108z" />
    <glyph glyph-name="breve" unicode="&#x2d8;" horiz-adv-x="397" 
d="M89.5 632q-39.5 43 -39.5 128h76q1 -48 19 -70.5t53 -22.5t53 22t19 71h77q-1 -85 -40.5 -128t-108.5 -43t-108.5 43z" />
    <glyph glyph-name="dotaccent" unicode="&#x2d9;" horiz-adv-x="257" 
d="M73 629q-23 23 -23 55q0 34 23 57t56 23q32 0 55 -23t23 -57q0 -32 -23 -55t-55 -23q-33 0 -56 23z" />
    <glyph glyph-name="ring" unicode="&#x2da;" horiz-adv-x="330" 
d="M83.5 618q-33.5 34 -33.5 81q0 48 33.5 81.5t82.5 33.5q48 0 81 -33.5t33 -81.5t-33 -81.5t-81 -33.5q-49 0 -82.5 34zM206 656.5q17 17.5 17 42.5t-17 42.5t-40 17.5q-25 0 -41.5 -17t-16.5 -43t16.5 -43t41.5 -17q23 0 40 17.5z" />
    <glyph glyph-name="ogonek" unicode="&#x2db;" horiz-adv-x="282" 
d="M129 -70q0 -28 16.5 -43.5t46.5 -15.5q18 0 37 6l3 -72q-30 -15 -67 -15q-51 0 -83 29.5t-32 82.5q0 56 36.5 91.5t92.5 45.5l8 -33q-58 -22 -58 -76z" />
    <glyph glyph-name="tilde" unicode="&#x2dc;" horiz-adv-x="450" 
d="M245 632q-17 8 -41 24q-32 23 -48 23q-14 0 -27 -10t-23 -29l-56 39q36 88 114 88q21 0 41 -9t42 -24q16 -11 26.5 -16.5t21.5 -5.5q12 0 25 10t24 29l56 -35q-18 -43 -47.5 -67.5t-69.5 -24.5q-21 0 -38 8z" />
    <glyph glyph-name="hungarumlaut" unicode="&#x2dd;" horiz-adv-x="477" 
d="M134 589h-84l60 171h132zM319 589h-84l60 171h132z" />
    <glyph glyph-name="gravecomb" unicode="&#x300;" 
d="M-110 760l60 -171h-84l-108 171h132z" />
    <glyph glyph-name="acutecomb" unicode="&#x301;" 
d="M-158 589h-84l60 171h132z" />
    <glyph glyph-name="uni0302" unicode="&#x302;" 
d="M-158 592l-60 100l-61 -100h-108l126 168h85l126 -168h-108z" />
    <glyph glyph-name="tildecomb" unicode="&#x303;" 
d="M-205 632q-17 8 -41 24q-32 23 -48 23q-14 0 -27 -10t-23 -29l-56 39q36 88 114 88q21 0 41 -9t42 -24q16 -11 26.5 -16.5t21.5 -5.5q12 0 25 10t24 29l56 -35q-18 -43 -47.5 -67.5t-69.5 -24.5q-21 0 -38 8z" />
    <glyph glyph-name="uni0304" unicode="&#x304;" 
d="M-297 733h247v-79h-247v79z" />
    <glyph glyph-name="uni0306" unicode="&#x306;" 
d="M-307.5 632q-39.5 43 -39.5 128h76q1 -48 19 -70.5t53 -22.5t53 22t19 71h77q-1 -85 -40.5 -128t-108.5 -43t-108.5 43z" />
    <glyph glyph-name="uni0307" unicode="&#x307;" 
d="M-184 629q-23 23 -23 55q0 34 23 57t56 23q32 0 55 -23t23 -57q0 -32 -23 -55t-55 -23q-33 0 -56 23z" />
    <glyph glyph-name="uni0308" unicode="&#x308;" 
d="M-356 634.5q-20 20.5 -20 49.5t20 49.5t49 20.5t49.5 -20.5t20.5 -49.5t-20.5 -49.5t-49.5 -20.5t-49 20.5zM-168.5 634.5q-20.5 20.5 -20.5 49.5t20.5 49.5t49.5 20.5t49 -20.5t20 -49.5t-20 -49.5t-49 -20.5t-49.5 20.5z" />
    <glyph glyph-name="uni030A" unicode="&#x30a;" 
d="M-246.5 618q-33.5 34 -33.5 81q0 48 33.5 81.5t82.5 33.5q48 0 81 -33.5t33 -81.5t-33 -81.5t-81 -33.5q-49 0 -82.5 34zM-124 656.5q17 17.5 17 42.5t-17 42.5t-40 17.5q-25 0 -41.5 -17t-16.5 -43t16.5 -43t41.5 -17q23 0 40 17.5z" />
    <glyph glyph-name="uni030B" unicode="&#x30b;" 
d="M-343 589h-84l60 171h132zM-158 589h-84l60 171h132z" />
    <glyph glyph-name="uni030C" unicode="&#x30c;" 
d="M-50 760l-126 -168h-85l-126 168h108l61 -100l60 100h108z" />
    <glyph glyph-name="uni0326" unicode="&#x326;" 
d="M-146 -220h-84l48 153h132z" />
    <glyph glyph-name="uni0327" unicode="&#x327;" 
d="M-72.5 -59q22.5 -22 22.5 -60q0 -42 -26.5 -66.5t-71.5 -24.5q-50 0 -81 18l18 51q22 -10 44 -10q16 0 25.5 9t9.5 26q0 14 -7.5 21.5t-19.5 7.5q-17 0 -31 -12l-24 16l26 106h58l-11 -60h10q36 0 58.5 -22z" />
    <glyph glyph-name="uni0328" unicode="&#x328;" 
d="M-153 -70q0 -28 16.5 -43.5t46.5 -15.5q18 0 37 6l3 -72q-30 -15 -67 -15q-51 0 -83 29.5t-32 82.5q0 56 36.5 91.5t92.5 45.5l8 -33q-58 -22 -58 -76z" />
    <glyph glyph-name="tonos" unicode="&#x384;" horiz-adv-x="301" 
d="M113 760h138l-115 -170h-86z" />
    <glyph glyph-name="dieresistonos" unicode="&#x385;" horiz-adv-x="512" 
d="M230 779h125l-108 -190h-75zM69 637.5q-19 19.5 -19 46.5q0 28 19 47t46 19t46 -19t19 -47q0 -27 -19 -46.5t-46 -19.5t-46 19.5zM352 637.5q-19 19.5 -19 46.5q0 28 18.5 47t46.5 19q27 0 45.5 -19t18.5 -47q0 -27 -18.5 -46.5t-45.5 -19.5t-46 19.5z" />
    <glyph glyph-name="Alphatonos" unicode="&#x386;" horiz-adv-x="575" 
d="M407 123h-238l-28 -123h-139l210 760h152l210 -760h-139zM383 226l-95 411l-95 -411h190zM-10 760h138l-115 -170h-86z" />
    <glyph glyph-name="anoteleia" unicode="&#x387;" horiz-adv-x="261" 
d="M73.5 354.5q-23.5 23.5 -23.5 56.5q0 34 23.5 57.5t57.5 23.5q33 0 56.5 -23.5t23.5 -57.5q0 -33 -23.5 -56.5t-56.5 -23.5q-34 0 -57.5 23.5z" />
    <glyph glyph-name="Epsilontonos" unicode="&#x388;" horiz-adv-x="495" 
d="M447 112v-112h-384v760h381v-112h-247v-198h240v-109h-240v-229h250zM-137 760h138l-115 -170h-86z" />
    <glyph glyph-name="Etatonos" unicode="&#x389;" horiz-adv-x="624" 
d="M561 760v-760h-134v338h-230v-338h-134v760h134v-310h230v310h134zM-137 760h138l-115 -170h-86z" />
    <glyph glyph-name="Iotatonos" unicode="&#x38a;" horiz-adv-x="260" 
d="M63 760h134v-760h-134v760zM-137 760h138l-115 -170h-86z" />
    <glyph glyph-name="Omicrontonos" unicode="&#x38c;" horiz-adv-x="735" 
d="M194.5 39q-74.5 51 -115 140t-40.5 201t40.5 201.5t115 140t172.5 50.5q99 0 173.5 -50.5t115 -140t40.5 -201.5t-40.5 -201t-115.5 -140t-173 -51t-172.5 51zM468.5 143.5q43.5 33.5 66.5 94.5t23 142t-23 142t-66.5 94.5t-101.5 33.5t-101 -33.5t-66 -94.5t-23 -142
t23 -142t66 -94.5t101 -33.5t101.5 33.5zM-50 760h138l-115 -170h-86z" />
    <glyph glyph-name="Upsilontonos" unicode="&#x38e;" horiz-adv-x="539" 
d="M544 760l-324 -760h-135l132 309h-1l-213 451h139l133 -313l134 313h135zM-180 760h138l-115 -170h-86z" />
    <glyph glyph-name="Omegatonos" unicode="&#x38f;" horiz-adv-x="743" 
d="M669.5 230q-32.5 -76 -97.5 -119h129v-111h-268v116q65 36 98.5 110t33.5 166q0 74 -23.5 133t-67.5 92t-103 33q-58 0 -102 -33t-68 -92t-24 -133q0 -91 34 -165.5t99 -110.5v-116h-268v111h129q-66 43 -98.5 119t-32.5 174q0 106 43.5 190t119 131t168.5 47t168.5 -47
t119 -131t43.5 -190q0 -98 -32.5 -174zM-64 760h138l-115 -170h-86z" />
    <glyph glyph-name="iotadieresistonos" unicode="&#x390;" horiz-adv-x="275" 
d="M91 27.5q-33 39.5 -33 130.5v359h130v-349q0 -42 12.5 -57t44.5 -15h9l8 -104q-28 -4 -53 -4q-85 0 -118 39.5zM102 779h125l-108 -190h-75zM-59 637.5q-19 19.5 -19 46.5q0 28 19 47t46 19t46 -19t19 -47q0 -27 -19 -46.5t-46 -19.5t-46 19.5zM224 637.5
q-19 19.5 -19 46.5q0 28 18.5 47t46.5 19q27 0 45.5 -19t18.5 -47q0 -27 -18.5 -46.5t-45.5 -19.5t-46 19.5z" />
    <glyph glyph-name="Alpha" unicode="&#x391;" horiz-adv-x="575" 
d="M407 123h-238l-28 -123h-139l210 760h152l210 -760h-139zM383 226l-95 411l-95 -411h190z" />
    <glyph glyph-name="Beta" unicode="&#x392;" horiz-adv-x="553" 
d="M500.5 332q27.5 -47 27.5 -111t-26 -114t-76 -78.5t-118 -28.5h-245v760h237q102 0 154 -54t52 -139q0 -114 -89 -163q56 -25 83.5 -72zM194 657v-213h83q51 0 76.5 30t25.5 80q0 47 -24 75t-74 28h-87zM371 140q27 34 27 88q0 52 -27 85.5t-75 33.5h-102v-241h100
q50 0 77 34z" />
    <glyph glyph-name="Gamma" unicode="&#x393;" horiz-adv-x="451" 
d="M197 0h-134v760h365v-112h-231v-648z" />
    <glyph glyph-name="uni0394" unicode="&#x394;" horiz-adv-x="608" 
d="M607 0h-605l226 760h153zM440 104l-136 531l-136 -531h272z" />
    <glyph glyph-name="Epsilon" unicode="&#x395;" horiz-adv-x="495" 
d="M447 112v-112h-384v760h381v-112h-247v-198h240v-109h-240v-229h250z" />
    <glyph glyph-name="Zeta" unicode="&#x396;" horiz-adv-x="547" 
d="M214 112h301v-112h-493l311 648h-279v112h471z" />
    <glyph glyph-name="Eta" unicode="&#x397;" horiz-adv-x="624" 
d="M561 760v-760h-134v338h-230v-338h-134v760h134v-310h230v310h134z" />
    <glyph glyph-name="Theta" unicode="&#x398;" horiz-adv-x="735" 
d="M194.5 39q-74.5 51 -115 140t-40.5 201t40.5 201.5t115 140t172.5 50.5q99 0 173.5 -50.5t115 -140t40.5 -201.5t-40.5 -201t-115.5 -140t-173 -51t-172.5 51zM469.5 140.5q43.5 33.5 67 95.5t23.5 144t-23.5 144t-67 95.5t-102.5 33.5q-58 0 -101.5 -33.5t-67 -95.5
t-23.5 -144t23.5 -144t67 -95.5t101.5 -33.5q59 0 102.5 33.5zM254 445h227v-109h-227v109z" />
    <glyph glyph-name="Iota" unicode="&#x399;" horiz-adv-x="260" 
d="M63 760h134v-760h-134v760z" />
    <glyph glyph-name="Kappa" unicode="&#x39a;" horiz-adv-x="573" 
d="M277 331l-81 -123v-208h-133v760h133v-366l218 366h144l-209 -319l221 -441h-137z" />
    <glyph glyph-name="Lambda" unicode="&#x39b;" horiz-adv-x="575" 
d="M434 0l-146 621l-146 -621h-140l209 760h153l210 -760h-140z" />
    <glyph glyph-name="Mu" unicode="&#x39c;" horiz-adv-x="774" 
d="M609 0l-35 570l-151 -570h-72l-151 570l-35 -570h-126l60 760h144l144 -553l144 553h144l60 -760h-126z" />
    <glyph glyph-name="Nu" unicode="&#x39d;" horiz-adv-x="628" 
d="M565 760v-760h-130l-242 549v-549h-130v760h130l242 -547v547h130z" />
    <glyph glyph-name="Xi" unicode="&#x39e;" horiz-adv-x="572" 
d="M48 760h476v-112h-476v112zM80 450h412v-109h-412v109zM35 112h502v-112h-502v112z" />
    <glyph glyph-name="Omicron" unicode="&#x39f;" horiz-adv-x="735" 
d="M194.5 39q-74.5 51 -115 140t-40.5 201t40.5 201.5t115 140t172.5 50.5q99 0 173.5 -50.5t115 -140t40.5 -201.5t-40.5 -201t-115.5 -140t-173 -51t-172.5 51zM468.5 143.5q43.5 33.5 66.5 94.5t23 142t-23 142t-66.5 94.5t-101.5 33.5t-101 -33.5t-66 -94.5t-23 -142
t23 -142t66 -94.5t101 -33.5t101.5 33.5z" />
    <glyph glyph-name="Pi" unicode="&#x3a0;" horiz-adv-x="637" 
d="M573 0h-133v648h-243v-648h-134v760h510v-760z" />
    <glyph glyph-name="Rho" unicode="&#x3a1;" horiz-adv-x="579" 
d="M480 690q64 -70 64 -194t-64.5 -196t-184.5 -72h-99v-228h-133v760h231q122 0 186 -70zM377 379q33 42 33 117q0 155 -136 155h-78v-314h79q69 0 102 42z" />
    <glyph glyph-name="Sigma" unicode="&#x3a3;" horiz-adv-x="526" 
d="M205 404l-196 356h492v-113h-291l134 -241l-141 -293h313v-113h-507z" />
    <glyph glyph-name="Tau" unicode="&#x3a4;" horiz-adv-x="529" 
d="M508 648h-176v-648h-134v648h-176v112h486v-112z" />
    <glyph glyph-name="Upsilon" unicode="&#x3a5;" horiz-adv-x="539" 
d="M544 760l-324 -760h-135l132 309h-1l-213 451h139l133 -313l134 313h135z" />
    <glyph glyph-name="Phi" unicode="&#x3a6;" horiz-adv-x="797" 
d="M728.5 243.5q-37.5 -67.5 -105.5 -107.5t-158 -47v-89h-133v89q-90 7 -158 47t-105 107.5t-37 154.5t38 154.5t106 108t156 49.5v50h133v-50q88 -8 156.5 -48.5t106.5 -108.5t38 -155t-37.5 -154.5zM590.5 259.5q46.5 52.5 46.5 138.5q0 84 -47.5 137.5t-124.5 65.5v-406
q79 12 125.5 64.5zM207 259.5q46 -52.5 125 -64.5v406q-76 -12 -123.5 -65.5t-47.5 -137.5q0 -86 46 -138.5z" />
    <glyph glyph-name="Chi" unicode="&#x3a7;" horiz-adv-x="565" 
d="M417 0l-134 277l-134 -277h-147l211 390l-200 370h148l122 -261l121 261h148l-199 -370l210 -390h-146z" />
    <glyph glyph-name="Psi" unicode="&#x3a8;" horiz-adv-x="745" 
d="M701 760v-222q0 -137 -65.5 -218.5t-196.5 -98.5v-221h-133v221q-131 16 -197 98t-66 219v222h131v-222q0 -82 29.5 -134t102.5 -68v424h133v-424q73 16 102.5 68t29.5 134v222h130z" />
    <glyph glyph-name="uni03A9" unicode="&#x3a9;" horiz-adv-x="743" 
d="M669.5 230q-32.5 -76 -97.5 -119h129v-111h-268v116q65 36 98.5 110t33.5 166q0 74 -23.5 133t-67.5 92t-103 33q-58 0 -102 -33t-68 -92t-24 -133q0 -91 34 -165.5t99 -110.5v-116h-268v111h129q-66 43 -98.5 119t-32.5 174q0 106 43.5 190t119 131t168.5 47t168.5 -47
t119 -131t43.5 -190q0 -98 -32.5 -174z" />
    <glyph glyph-name="Iotadieresis" unicode="&#x3aa;" horiz-adv-x="260" 
d="M63 760h134v-760h-134v760zM-13 878.5q-20 20.5 -20 49.5t20 49.5t49 20.5t49.5 -20.5t20.5 -49.5t-20.5 -49.5t-49.5 -20.5t-49 20.5zM174.5 878.5q-20.5 20.5 -20.5 49.5t20.5 49.5t49.5 20.5t49 -20.5t20 -49.5t-20 -49.5t-49 -20.5t-49.5 20.5z" />
    <glyph glyph-name="Upsilondieresis" unicode="&#x3ab;" horiz-adv-x="539" 
d="M544 760l-324 -760h-135l132 309h-1l-213 451h139l133 -313l134 313h135zM148 878.5q-20 20.5 -20 49.5t20 49.5t49 20.5t49.5 -20.5t20.5 -49.5t-20.5 -49.5t-49.5 -20.5t-49 20.5zM335.5 878.5q-20.5 20.5 -20.5 49.5t20.5 49.5t49.5 20.5t49 -20.5t20 -49.5t-20 -49.5
t-49 -20.5t-49.5 20.5z" />
    <glyph glyph-name="alphatonos" unicode="&#x3ac;" horiz-adv-x="588" 
d="M140 22q-46 34 -73.5 96t-27.5 140t26.5 139.5t72 96t101.5 34.5q50 0 89 -26.5t61 -71.5v87h128v-364q0 -34 10 -46t32 -12h9l8 -103q-30 -4 -45 -4q-64 0 -94 25t-39 80q-25 -53 -66.5 -79t-90.5 -26q-55 0 -101 34zM362 142q31 47 31 117t-31 116t-79 46
q-51 0 -81.5 -46t-30.5 -117t30.5 -117t81.5 -46q48 0 79 47zM305 760h138l-115 -170h-86z" />
    <glyph glyph-name="epsilontonos" unicode="&#x3ad;" horiz-adv-x="471" 
d="M123.5 9.5q-44.5 21.5 -66.5 57t-22 78.5q0 44 22.5 77.5t66.5 46.5v3q-44 12 -63 41t-19 64q0 39 22 73.5t66 56t105 21.5q78 0 130.5 -36t68.5 -102l-121 -27q-5 27 -25.5 43.5t-53.5 16.5q-35 0 -54 -17.5t-19 -42.5q0 -26 19 -39t43 -13h54v-80h-44q-39 0 -57.5 -17
t-18.5 -47q0 -32 21 -53t61 -21t64.5 20.5t28.5 50.5l124 -10q-11 -79 -73 -122.5t-152 -43.5q-63 0 -107.5 21.5zM245 760h138l-115 -170h-86z" />
    <glyph glyph-name="etatonos" unicode="&#x3ae;" horiz-adv-x="544" 
d="M452.5 473q38.5 -55 38.5 -150v-521h-130v500q0 66 -19.5 95.5t-61.5 29.5q-48 0 -70 -45.5t-22 -108.5v-273h-130v517h117l11 -82q24 46 61.5 69.5t85.5 23.5q81 0 119.5 -55zM298 760h138l-115 -170h-86z" />
    <glyph glyph-name="iotatonos" unicode="&#x3af;" horiz-adv-x="275" 
d="M91 27.5q-33 39.5 -33 130.5v359h130v-349q0 -42 12.5 -57t44.5 -15h9l8 -104q-28 -4 -53 -4q-85 0 -118 39.5zM138 760h138l-115 -170h-86z" />
    <glyph glyph-name="upsilondieresistonos" unicode="&#x3b0;" horiz-adv-x="533" 
d="M110 44q-57 56 -57 174v299h130v-301q0 -121 84 -121q83 0 83 121v301h130v-299q0 -118 -57 -174t-156 -56q-100 0 -157 56zM243 779h125l-108 -190h-75zM82 637.5q-19 19.5 -19 46.5q0 28 19 47t46 19t46 -19t19 -47q0 -27 -19 -46.5t-46 -19.5t-46 19.5zM365 637.5
q-19 19.5 -19 46.5q0 28 18.5 47t46.5 19q27 0 45.5 -19t18.5 -47q0 -27 -18.5 -46.5t-45.5 -19.5t-46 19.5z" />
    <glyph glyph-name="alpha" unicode="&#x3b1;" horiz-adv-x="588" 
d="M140 22q-46 34 -73.5 96t-27.5 140t26.5 139.5t72 96t101.5 34.5q50 0 89 -26.5t61 -71.5v87h128v-364q0 -34 10 -46t32 -12h9l8 -103q-30 -4 -45 -4q-64 0 -94 25t-39 80q-25 -53 -66.5 -79t-90.5 -26q-55 0 -101 34zM362 142q31 47 31 117t-31 116t-79 46
q-51 0 -81.5 -46t-30.5 -117t30.5 -117t81.5 -46q48 0 79 47z" />
    <glyph glyph-name="beta" unicode="&#x3b2;" horiz-adv-x="564" 
d="M60 520q0 113 56.5 182.5t164.5 69.5q61 0 106.5 -24.5t69.5 -66t24 -91.5q0 -55 -27.5 -93t-72.5 -50q68 -15 108.5 -73t40.5 -143q0 -64 -24.5 -119.5t-69.5 -89.5t-104 -34q-91 0 -142 85v-271h-130v718zM372 138.5q29 42.5 29 108.5q0 74 -36 109t-92 35h-16v91h16
q42 0 60 29.5t18 64.5q0 39 -21.5 64t-57.5 25q-46 0 -65 -37t-19 -84v-291q0 -67 27.5 -112t77.5 -45t79 42.5z" />
    <glyph glyph-name="gamma" unicode="&#x3b3;" horiz-adv-x="492" 
d="M485 517l-174 -478v-237h-130v234l-174 481h135l105 -357l106 357h132z" />
    <glyph glyph-name="delta" unicode="&#x3b4;" horiz-adv-x="549" 
d="M148 20.5q-53 32.5 -81 88t-28 124.5q0 63 21.5 115.5t62.5 86.5t99 39q24 2 36 2l-180 207v77h391v-101h-215l152 -177q54 -61 79 -118t25 -122q0 -74 -27.5 -131.5t-81 -90t-128.5 -32.5q-72 0 -125 32.5zM353 135.5q29 40.5 29 103.5t-28.5 108.5t-78.5 45.5
q-51 0 -79 -45.5t-28 -108.5t29 -103.5t78 -40.5t78 40.5z" />
    <glyph glyph-name="epsilon" unicode="&#x3b5;" horiz-adv-x="471" 
d="M123.5 9.5q-44.5 21.5 -66.5 57t-22 78.5q0 44 22.5 77.5t66.5 46.5v3q-44 12 -63 41t-19 64q0 39 22 73.5t66 56t105 21.5q78 0 130.5 -36t68.5 -102l-121 -27q-5 27 -25.5 43.5t-53.5 16.5q-35 0 -54 -17.5t-19 -42.5q0 -26 19 -39t43 -13h54v-80h-44q-39 0 -57.5 -17
t-18.5 -47q0 -32 21 -53t61 -21t64.5 20.5t28.5 50.5l124 -10q-11 -79 -73 -122.5t-152 -43.5q-63 0 -107.5 21.5z" />
    <glyph glyph-name="zeta" unicode="&#x3b6;" horiz-adv-x="413" 
d="M112.5 438q75.5 112 183.5 221h-236l6 101h374v-72q-128 -152 -200.5 -260.5t-72.5 -182.5q0 -31 16.5 -54.5t55.5 -46.5l69 -42q45 -29 65.5 -49.5t20.5 -46.5q0 -41 -28 -93.5t-61 -85.5l-87 48q17 23 32 53t15 44q0 17 -32 36l-63 38q-48 31 -75.5 55t-42.5 55t-15 73
q0 97 75.5 209z" />
    <glyph glyph-name="eta" unicode="&#x3b7;" horiz-adv-x="544" 
d="M452.5 473q38.5 -55 38.5 -150v-521h-130v500q0 66 -19.5 95.5t-61.5 29.5q-48 0 -70 -45.5t-22 -108.5v-273h-130v517h117l11 -82q24 46 61.5 69.5t85.5 23.5q81 0 119.5 -55z" />
    <glyph glyph-name="theta" unicode="&#x3b8;" horiz-adv-x="554" 
d="M457 663.5q57 -108.5 57 -283.5q0 -174 -57 -283t-180 -109t-180 109t-57 283q0 175 57 283.5t180 108.5t180 -108.5zM201.5 610q-26.5 -55 -32.5 -167h216q-12 222 -108 222q-49 0 -75.5 -55zM354 156.5q27 61.5 31 182.5h-216q4 -121 31 -182.5t77 -61.5t77 61.5z" />
    <glyph glyph-name="iota" unicode="&#x3b9;" horiz-adv-x="275" 
d="M91 27.5q-33 39.5 -33 130.5v359h130v-349q0 -42 12.5 -57t44.5 -15h9l8 -104q-28 -4 -53 -4q-85 0 -118 39.5z" />
    <glyph glyph-name="kappa" unicode="&#x3ba;" horiz-adv-x="485" 
d="M235 231l-48 -59v-172h-129v517h129v-191l136 191h145l-159 -195l178 -322h-133z" />
    <glyph glyph-name="lambda" unicode="&#x3bb;" horiz-adv-x="497" 
d="M501 -1q-12 -5 -33 -8t-33 -3q-45 0 -70.5 21t-38.5 72l-80 274l-114 -355h-134l191 498l-35 119q-7 27 -18.5 36.5t-38.5 9.5h-15l-8 104q40 5 67 5q54 0 83.5 -25.5t48.5 -88.5l170 -530q7 -23 15.5 -30t25.5 -7h9z" />
    <glyph glyph-name="uni03BC" unicode="&#x3bc;" horiz-adv-x="543" 
d="M485 517v-517h-116l-11 83q-23 -46 -60 -70t-83 -24q-9 0 -27 2v-189h-130v715h130v-302q0 -67 18.5 -95.5t57.5 -28.5q48 0 69.5 46.5t21.5 108.5v271h130z" />
    <glyph glyph-name="nu" unicode="&#x3bd;" horiz-adv-x="480" 
d="M485 517l-177 -517h-136l-177 517h138l107 -408l107 408h138z" />
    <glyph glyph-name="xi" unicode="&#x3be;" horiz-adv-x="447" 
d="M262 -125q19 26 34.5 54.5t15.5 42.5q0 11 -10.5 20t-33.5 19l-76 34q-79 35 -119.5 78t-40.5 115q0 65 36.5 116.5t100.5 71.5q-62 15 -94.5 56.5t-32.5 99.5t28 101t75 66t105 23q79 0 131.5 -43.5t60.5 -120.5l-120 -14q-8 71 -71 71q-35 0 -56.5 -24.5t-21.5 -67.5
q0 -50 31.5 -75.5t86.5 -25.5h67v-97h-89q-54 0 -80.5 -34.5t-26.5 -82.5q0 -42 21 -67t71 -47l98 -46q49 -23 67.5 -42.5t18.5 -51.5q0 -38 -29 -91.5t-60 -85.5z" />
    <glyph glyph-name="omicron" unicode="&#x3bf;" horiz-adv-x="557" 
d="M148 23q-54 35 -81.5 96t-27.5 139t27.5 139.5t81.5 96t130 34.5t130.5 -34.5t82 -95.5t27.5 -140q0 -78 -27.5 -139t-82 -96t-130.5 -35t-130 35zM358 138.5q30 43.5 30 119.5q0 77 -30 120.5t-80 43.5t-79.5 -43.5t-29.5 -120.5q0 -76 30 -119.5t79 -43.5q50 0 80 43.5
z" />
    <glyph glyph-name="pi" unicode="&#x3c0;" horiz-adv-x="553" 
d="M364 413h-176v-413h-130v517h436v-517h-130v413z" />
    <glyph glyph-name="rho" unicode="&#x3c1;" horiz-adv-x="571" 
d="M433 24.5q47 35.5 73 96t26 133.5q0 76 -27 138t-80.5 99t-127.5 37q-76 0 -131.5 -40t-84 -106.5t-28.5 -143.5v-436h129v264q25 -39 64 -58t80 -19q60 0 107 35.5zM371.5 140.5q-30.5 -44.5 -78.5 -44.5q-51 0 -81 45.5t-30 113.5q0 70 30 118.5t80 48.5t80 -48
t30 -117q0 -72 -30.5 -116.5z" />
    <glyph glyph-name="uni03C2" unicode="&#x3c2;" horiz-adv-x="489" 
d="M238 -125q19 27 33.5 54.5t14.5 41.5q0 22 -35 39l-63 29q-82 40 -115.5 93t-33.5 137q0 117 60.5 188t166.5 71q82 0 139 -45t64 -124l-124 -12q-12 75 -82 75q-43 0 -69 -37.5t-26 -106.5q0 -103 79 -138l90 -44q43 -21 61 -41t18 -50q0 -38 -30 -91t-62 -87z" />
    <glyph glyph-name="sigma" unicode="&#x3c3;" horiz-adv-x="551" 
d="M148 22q-53 34 -81 94t-28 135q0 74 29 135t83.5 96t127.5 35h262v-104h-107q36 -27 54 -75.5t18 -98.5q0 -71 -28 -128t-80.5 -90t-123.5 -33q-73 0 -126 34zM353.5 138q29.5 45 29.5 115q0 68 -29 112.5t-80 44.5q-46 0 -76.5 -45t-30.5 -112q0 -69 30.5 -114.5
t76.5 -45.5q50 0 79.5 45z" />
    <glyph glyph-name="tau" unicode="&#x3c4;" horiz-adv-x="403" 
d="M268 -12q-77 0 -114.5 42t-37.5 138v245h-113l7 104h371v-104h-135v-237q0 -47 12 -65t44 -18q28 0 59 12l8 -101q-48 -16 -101 -16z" />
    <glyph glyph-name="upsilon" unicode="&#x3c5;" horiz-adv-x="533" 
d="M110 44q-57 56 -57 174v299h130v-301q0 -121 84 -121q83 0 83 121v301h130v-299q0 -118 -57 -174t-156 -56q-100 0 -157 56z" />
    <glyph glyph-name="phi" unicode="&#x3c6;" horiz-adv-x="701" 
d="M286 -10q-82 5 -137.5 42.5t-82.5 95.5t-27 125q0 89 46.5 159.5t130.5 92.5l37 -87q-44 -19 -67 -64.5t-23 -100.5q0 -66 33.5 -112.5t89.5 -53.5v430h99q90 0 152 -33.5t93.5 -91.5t31.5 -132q0 -75 -32 -134t-87.5 -94t-126.5 -41v-189h-130v188zM504.5 142.5
q34.5 44.5 34.5 112.5q0 66 -32.5 113t-91.5 52v-330q55 8 89.5 52.5z" />
    <glyph glyph-name="chi" unicode="&#x3c7;" horiz-adv-x="460" 
d="M338.5 -189.5q-22.5 20.5 -34.5 59.5l-76 231l-103 -299h-137l172 381l-71 190q-10 27 -22.5 38t-36.5 11h-9l-4 101q38 5 70 5q41 0 66 -18t37 -59l53 -173l82 239h136l-149 -323l99 -258q8 -21 18.5 -29t26.5 -8h9l9 -99q-14 -4 -36.5 -7t-37.5 -3q-39 0 -61.5 20.5z
" />
    <glyph glyph-name="psi" unicode="&#x3c8;" horiz-adv-x="689" 
d="M636 517v-282q0 -107 -59.5 -170t-167.5 -77v-186h-129v186q-108 15 -167.5 77.5t-59.5 169.5v282h126v-293q0 -105 101 -129v422h129v-422q101 24 101 129v293h126z" />
    <glyph glyph-name="omega" unicode="&#x3c9;" horiz-adv-x="736" 
d="M86 60.5q-44 71.5 -44 184.5q0 118 52 195t169 88l17 -97q-54 -10 -81 -59.5t-27 -126.5q0 -68 18.5 -110t54.5 -42q31 0 48.5 30.5t17.5 71.5v143h114v-143q0 -41 17.5 -71.5t48.5 -30.5q36 0 54.5 42t18.5 110q0 77 -27 126.5t-81 59.5l17 97q117 -11 169 -88t52 -195
q0 -113 -44 -184.5t-134 -71.5q-58 0 -94.5 31t-53.5 81q-17 -50 -53.5 -81t-94.5 -31q-90 0 -134 71.5z" />
    <glyph glyph-name="iotadieresis" unicode="&#x3ca;" horiz-adv-x="275" 
d="M91 27.5q-33 39.5 -33 130.5v359h130v-349q0 -42 12.5 -57t44.5 -15h9l8 -104q-28 -4 -53 -4q-85 0 -118 39.5zM-17 635.5q-20 20.5 -20 49.5t20 49.5t49 20.5t49.5 -20.5t20.5 -49.5t-20.5 -49.5t-49.5 -20.5t-49 20.5zM170.5 635.5q-20.5 20.5 -20.5 49.5t20.5 49.5
t49.5 20.5t49 -20.5t20 -49.5t-20 -49.5t-49 -20.5t-49.5 20.5z" />
    <glyph glyph-name="upsilondieresis" unicode="&#x3cb;" horiz-adv-x="533" 
d="M110 44q-57 56 -57 174v299h130v-301q0 -121 84 -121q83 0 83 121v301h130v-299q0 -118 -57 -174t-156 -56q-100 0 -157 56zM124 635.5q-20 20.5 -20 49.5t20 49.5t49 20.5t49.5 -20.5t20.5 -49.5t-20.5 -49.5t-49.5 -20.5t-49 20.5zM311.5 635.5q-20.5 20.5 -20.5 49.5
t20.5 49.5t49.5 20.5t49 -20.5t20 -49.5t-20 -49.5t-49 -20.5t-49.5 20.5z" />
    <glyph glyph-name="omicrontonos" unicode="&#x3cc;" horiz-adv-x="557" 
d="M148 23q-54 35 -81.5 96t-27.5 139t27.5 139.5t81.5 96t130 34.5t130.5 -34.5t82 -95.5t27.5 -140q0 -78 -27.5 -139t-82 -96t-130.5 -35t-130 35zM358 138.5q30 43.5 30 119.5q0 77 -30 120.5t-80 43.5t-79.5 -43.5t-29.5 -120.5q0 -76 30 -119.5t79 -43.5q50 0 80 43.5
zM290 760h138l-115 -170h-86z" />
    <glyph glyph-name="upsilontonos" unicode="&#x3cd;" horiz-adv-x="533" 
d="M110 44q-57 56 -57 174v299h130v-301q0 -121 84 -121q83 0 83 121v301h130v-299q0 -118 -57 -174t-156 -56q-100 0 -157 56zM279 760h138l-115 -170h-86z" />
    <glyph glyph-name="omegatonos" unicode="&#x3ce;" horiz-adv-x="736" 
d="M86 60.5q-44 71.5 -44 184.5q0 118 52 195t169 88l17 -97q-54 -10 -81 -59.5t-27 -126.5q0 -68 18.5 -110t54.5 -42q31 0 48.5 30.5t17.5 71.5v143h114v-143q0 -41 17.5 -71.5t48.5 -30.5q36 0 54.5 42t18.5 110q0 77 -27 126.5t-81 59.5l17 97q117 -11 169 -88t52 -195
q0 -113 -44 -184.5t-134 -71.5q-58 0 -94.5 31t-53.5 81q-17 -50 -53.5 -81t-94.5 -31q-90 0 -134 71.5zM382 760h138l-115 -170h-86z" />
    <glyph glyph-name="uni0400" unicode="&#x400;" horiz-adv-x="495" 
d="M447 112v-112h-384v760h381v-112h-247v-198h240v-109h-240v-229h250zM241 1004l60 -171h-84l-108 171h132z" />
    <glyph glyph-name="uni0401" unicode="&#x401;" horiz-adv-x="495" 
d="M447 112v-112h-384v760h381v-112h-247v-198h240v-109h-240v-229h250zM112 878.5q-20 20.5 -20 49.5t20 49.5t49 20.5t49.5 -20.5t20.5 -49.5t-20.5 -49.5t-49.5 -20.5t-49 20.5zM299.5 878.5q-20.5 20.5 -20.5 49.5t20.5 49.5t49.5 20.5t49 -20.5t20 -49.5t-20 -49.5
t-49 -20.5t-49.5 20.5z" />
    <glyph glyph-name="uni0402" unicode="&#x402;" horiz-adv-x="708" 
d="M613 415q63 -62 63 -168q0 -67 -26 -123.5t-76 -92.5t-120 -43l-10 105q47 9 72 47.5t25 94.5q0 66 -34 98t-96 32h-103v-365h-134v648h-152v112h497v-112h-211v-171h132q110 0 173 -62z" />
    <glyph glyph-name="uni0403" unicode="&#x403;" horiz-adv-x="448" 
d="M428 648h-231v-648h-134v760h365v-112zM288 833h-84l60 171h132z" />
    <glyph glyph-name="uni0404" unicode="&#x404;" horiz-adv-x="721" 
d="M199.5 720q-75.5 -52 -117.5 -141.5t-42 -198.5t42 -198.5t117.5 -141.5t172.5 -52q77 0 141 35t107.5 97.5t61.5 144.5l-130 13q-21 -79 -70 -125t-114 -46q-51 0 -92.5 28.5t-68 80t-33.5 119.5h284v94h-283q11 101 64 162.5t129 61.5q65 0 113.5 -45t69.5 -124l130 12
q-18 81 -61.5 143.5t-107.5 97.5t-140 35q-97 0 -172.5 -52z" />
    <glyph glyph-name="uni0405" unicode="&#x405;" horiz-adv-x="588" 
d="M114.5 48q-64.5 60 -76.5 165l136 10q6 -73 41 -100.5t81 -27.5q52 0 82.5 28.5t30.5 83.5q0 49 -24 73t-70 41l-72 26q-104 37 -150 87t-46 134q0 100 64.5 152t166.5 52q117 0 178.5 -58t73.5 -160l-137 -13q-10 125 -113 125q-45 0 -70 -22.5t-25 -69.5
q0 -41 22.5 -66.5t75.5 -44.5l72 -26q60 -21 100.5 -45.5t65.5 -67.5t25 -110q0 -106 -66.5 -166t-182.5 -60q-118 0 -182.5 60z" />
    <glyph glyph-name="uni0406" unicode="&#x406;" horiz-adv-x="260" 
d="M63 760h134v-760h-134v760z" />
    <glyph glyph-name="uni0407" unicode="&#x407;" horiz-adv-x="260" 
d="M63 760h134v-760h-134v760zM-13 878.5q-20 20.5 -20 49.5t20 49.5t49 20.5t49.5 -20.5t20.5 -49.5t-20.5 -49.5t-49.5 -20.5t-49 20.5zM174.5 878.5q-20.5 20.5 -20.5 49.5t20.5 49.5t49.5 20.5t49 -20.5t20 -49.5t-20 -49.5t-49 -20.5t-49.5 20.5z" />
    <glyph glyph-name="uni0408" unicode="&#x408;" horiz-adv-x="552" 
d="M101.5 50q-63.5 62 -69.5 177l133 9q3 -62 30 -94t68 -32q45 0 71 35.5t26 108.5v506h134v-501q0 -133 -63 -202t-168 -69q-98 0 -161.5 62z" />
    <glyph glyph-name="uni0409" unicode="&#x409;" horiz-adv-x="952" 
d="M856.5 447.5q63.5 -71.5 63.5 -189.5q0 -119 -63 -188.5t-178 -69.5h-239v651h-10l-288 -651h-137l353 760h216v-241h105q114 0 177.5 -71.5zM753 149q31 40 31 109q0 68 -31 110t-95 42h-84v-301h83q65 0 96 40z" />
    <glyph glyph-name="uni040A" unicode="&#x40a;" horiz-adv-x="934" 
d="M838.5 447.5q63.5 -71.5 63.5 -189.5q0 -119 -63 -188.5t-178 -69.5h-239v338h-225v-338h-134v760h134v-310h225v310h134v-241h105q114 0 177.5 -71.5zM735 149q31 40 31 109q0 68 -31 110t-95 42h-84v-301h83q65 0 96 40z" />
    <glyph glyph-name="uni040B" unicode="&#x40b;" horiz-adv-x="704" 
d="M606.5 415.5q62.5 -61.5 62.5 -183.5v-232h-134v211q0 85 -27 119.5t-94 34.5h-106v-365h-134v648h-152v112h497v-112h-211v-171h130q106 0 168.5 -61.5z" />
    <glyph glyph-name="uni040C" unicode="&#x40c;" horiz-adv-x="573" 
d="M277 331l-81 -123v-208h-133v760h133v-366l218 366h144l-209 -319l221 -441h-137zM328 833h-84l60 171h132z" />
    <glyph glyph-name="uni040D" unicode="&#x40d;" horiz-adv-x="633" 
d="M570 760v-760h-130v548l-246 -548h-131v760h131v-546l246 546h130zM305 1004l60 -171h-84l-108 171h132z" />
    <glyph glyph-name="uni040E" unicode="&#x40e;" horiz-adv-x="544" 
d="M547 760l-304 -760h-134l108 269h-1l-213 491h140l134 -340l136 340h134zM173.5 875.5q-40.5 46.5 -48.5 132.5h84q12 -94 71 -94t71 94h84q-8 -86 -48.5 -132.5t-106.5 -46.5t-106.5 46.5z" />
    <glyph glyph-name="uni040F" unicode="&#x40f;" horiz-adv-x="618" 
d="M554 760v-760h-184l-6 -153h-110l-7 153h-184v760h134v-648h224v648h133z" />
    <glyph glyph-name="uni0410" unicode="&#x410;" horiz-adv-x="575" 
d="M407 123h-238l-28 -123h-139l210 760h152l210 -760h-139zM383 226l-95 411l-95 -411h190z" />
    <glyph glyph-name="uni0411" unicode="&#x411;" horiz-adv-x="571" 
d="M429.5 471q54.5 -32 82.5 -88.5t28 -130.5q0 -114 -63.5 -183t-177.5 -69h-236v760h424v-111h-290v-146h102q76 0 130.5 -32zM404 253q0 67 -30 106t-93 39h-84v-286h83q124 0 124 141z" />
    <glyph glyph-name="uni0412" unicode="&#x412;" horiz-adv-x="553" 
d="M500.5 332q27.5 -47 27.5 -111t-26 -114t-76 -78.5t-118 -28.5h-245v760h237q102 0 154 -54t52 -139q0 -114 -89 -163q56 -25 83.5 -72zM194 657v-213h83q51 0 76.5 30t25.5 80q0 47 -24 75t-74 28h-87zM371 140q27 34 27 88q0 52 -27 85.5t-75 33.5h-102v-241h100
q50 0 77 34z" />
    <glyph glyph-name="uni0413" unicode="&#x413;" horiz-adv-x="448" 
d="M428 648h-231v-648h-134v760h365v-112z" />
    <glyph glyph-name="uni0414" unicode="&#x414;" horiz-adv-x="628" 
d="M623 112v-252h-110l-7 140h-384l-7 -140h-110v252h52l180 648h154l180 -648h52zM436 112l-122 506l-122 -506h244z" />
    <glyph glyph-name="uni0415" unicode="&#x415;" horiz-adv-x="495" 
d="M447 112v-112h-384v760h381v-112h-247v-198h240v-109h-240v-229h250z" />
    <glyph glyph-name="uni0416" unicode="&#x416;" horiz-adv-x="873" 
d="M571 360l-69 -99v-261h-131v261l-69 99l-157 -360h-137l219 467l-204 293h146l202 -332v332h131v-332l202 332h146l-204 -293l219 -467h-137z" />
    <glyph glyph-name="uni0417" unicode="&#x417;" horiz-adv-x="530" 
d="M478.5 334q26.5 -48 26.5 -116q0 -104 -61.5 -167t-183.5 -63q-75 0 -128.5 28t-81.5 78t-28 115l128 11q0 -56 28 -89.5t81 -33.5q54 0 82 33.5t28 90.5q0 59 -30 93.5t-90 34.5h-96v102h83q55 0 82.5 31.5t27.5 82.5q0 46 -22.5 72.5t-70.5 26.5q-97 0 -99 -109l-125 5
q0 60 26 108t78.5 76t128.5 28q114 0 167.5 -55t53.5 -142q0 -53 -20.5 -97.5t-60.5 -70.5q50 -25 76.5 -73z" />
    <glyph glyph-name="uni0418" unicode="&#x418;" horiz-adv-x="634" 
d="M570 760v-760h-130v548l-246 -548h-131v760h131v-546l246 546h130z" />
    <glyph glyph-name="uni0419" unicode="&#x419;" horiz-adv-x="633" 
d="M570 760v-760h-130v548l-246 -548h-131v760h131v-546l246 546h130zM212.5 875.5q-40.5 46.5 -48.5 132.5h84q12 -94 71 -94t71 94h84q-8 -86 -48.5 -132.5t-106.5 -46.5t-106.5 46.5z" />
    <glyph glyph-name="uni041A" unicode="&#x41a;" horiz-adv-x="573" 
d="M277 331l-81 -123v-208h-133v760h133v-366l218 366h144l-209 -319l221 -441h-137z" />
    <glyph glyph-name="uni041B" unicode="&#x41b;" horiz-adv-x="575" 
d="M436 0l-148 613l-149 -613h-137l209 760h153l209 -760h-137z" />
    <glyph glyph-name="uni041C" unicode="&#x41c;" horiz-adv-x="774" 
d="M609 0l-35 570l-151 -570h-72l-151 570l-35 -570h-126l60 760h144l144 -553l144 553h144l60 -760h-126z" />
    <glyph glyph-name="uni041D" unicode="&#x41d;" horiz-adv-x="624" 
d="M561 760v-760h-134v338h-230v-338h-134v760h134v-310h230v310h134z" />
    <glyph glyph-name="uni041E" unicode="&#x41e;" horiz-adv-x="735" 
d="M194.5 39q-74.5 51 -115 140t-40.5 201t40.5 201.5t115 140t172.5 50.5q99 0 173.5 -50.5t115 -140t40.5 -201.5t-40.5 -201t-115.5 -140t-173 -51t-172.5 51zM468.5 143.5q43.5 33.5 66.5 94.5t23 142t-23 142t-66.5 94.5t-101.5 33.5t-101 -33.5t-66 -94.5t-23 -142
t23 -142t66 -94.5t101 -33.5t101.5 33.5z" />
    <glyph glyph-name="uni041F" unicode="&#x41f;" horiz-adv-x="618" 
d="M554 0h-133v648h-224v-648h-134v760h491v-760z" />
    </font>
</defs>
</svg>
