<?xml version="1.0" standalone="no"?>
<!DOCTYPE svg PUBLIC "-//W3C//DTD SVG 1.1//EN" "http://www.w3.org/Graphics/SVG/1.1/DTD/svg11.dtd" >
<svg xmlns="http://www.w3.org/2000/svg" xmlns:xlink="http://www.w3.org/1999/xlink" version="1.1">
<metadata>
Created by FontForge 20170731 at Wed Nov 22 21:06:53 2017
 By Aleksey,,,
Copyright (c) 2017 by Andreu Balius. All rights reserved.
</metadata>
<defs>
<font id="SeatBcn-Web-Italic" horiz-adv-x="560" >
  <font-face 
    font-family="Seat Bcn - Web"
    font-weight="400"
    font-style="italic"
    font-stretch="normal"
    units-per-em="1000"
    panose-1="0 0 5 0 0 0 0 0 0 0"
    ascent="760"
    descent="-240"
    x-height="515"
    cap-height="760"
    bbox="-383 -205 1195 1276"
    underline-thickness="50"
    underline-position="-150"
    slope="-8"
    unicode-range="U+000D-FB02"
  />
<missing-glyph horiz-adv-x="700" 
d="M163 705h401v-705h-401v705zM502 62v581h-277v-581h277z" />
    <glyph glyph-name="fi" unicode="fi" horiz-adv-x="572" 
d="M471 0h-85l62 442h-246l-61 -442h-85l61 442h-81l18 73h73l4 30q17 126 80 175.5t156 49.5q90 0 162 -44l-32 -64q-33 16 -64.5 25t-67.5 9q-59 0 -97.5 -31t-49.5 -110l-6 -40h331z" />
    <glyph glyph-name="fl" unicode="fl" horiz-adv-x="622" 
d="M505.5 76q15.5 -11 55.5 -11h8l-5 -75h-17q-69 0 -106.5 26t-37.5 85q0 21 4 51l73 524q-58 20 -113 20q-61 0 -99.5 -31t-49.5 -110l-6 -40h140l-11 -73h-139l-61 -442h-85l61 442h-81l18 73h73l4 30q17 126 81 175.5t160 49.5q108 0 199 -53l-78 -561q-3 -21 -3 -36
q0 -33 15.5 -44z" />
    <glyph glyph-name="f_f" unicode="ff" horiz-adv-x="656" 
d="M584.5 674q-21.5 -22 -30.5 -82l-11 -77h133l-11 -73h-132l-62 -442h-85l61 442h-244l-62 -442h-85l61 442h-81l18 73h73l12 84q13 95 58.5 133t114.5 38q57 0 93 -21l-16 -70q-33 16 -73 16q-39 0 -61.5 -21t-30.5 -82l-11 -77h244l12 85q13 94 58.5 132t114.5 38
q57 0 93 -21l-17 -70q-35 17 -73 17q-39 0 -60.5 -22z" />
    <glyph glyph-name="f_f_i" unicode="ffi" horiz-adv-x="902" 
d="M801 0h-85l62 442h-246l-61 -442h-85l61 442h-244l-62 -442h-85l61 442h-81l18 73h73l12 84q13 95 58.5 133t114.5 38q57 0 93 -21l-16 -70q-33 16 -73 16q-39 0 -61.5 -21t-30.5 -82l-11 -77h244l4 30q17 126 80 175.5t156 49.5q90 0 162 -44l-32 -64q-33 16 -64.5 25
t-67.5 9q-59 0 -97.5 -31t-49.5 -110l-6 -40h331z" />
    <glyph glyph-name="f_f_l" unicode="ffl" horiz-adv-x="952" 
d="M835.5 76q15.5 -11 55.5 -11h8l-5 -75h-17q-69 0 -106.5 26t-37.5 85q0 21 4 51l73 524q-58 20 -113 20q-61 0 -99.5 -31t-49.5 -110l-6 -40h140l-11 -73h-139l-61 -442h-85l61 442h-244l-62 -442h-85l61 442h-81l18 73h73l12 84q13 95 58.5 133t114.5 38q57 0 93 -21
l-16 -70q-33 16 -73 16q-39 0 -61.5 -21t-30.5 -82l-11 -77h244l4 30q17 126 81 175.5t160 49.5q108 0 199 -53l-78 -561q-3 -21 -3 -36q0 -33 15.5 -44z" />
    <glyph glyph-name="uni04570457.liga" unicode="&#x457;&#x457;" horiz-adv-x="464" 
d="M33 641q-16 16 -16 39t16 39.5t39 16.5t39 -16.5t16 -39.5q0 -22 -16 -38.5t-39 -16.5t-39 16zM179 641q-16 16 -16 39t16 39.5t39 16.5q22 0 38 -16.5t16 -39.5t-16 -39t-38 -16q-23 0 -39 16zM328 641q-16 16 -16 39t16 39.5t39 16.5t39 -16.5t16 -39.5
q0 -22 -16 -38.5t-39 -16.5t-39 16zM474 641q-16 16 -16 39t16 39.5t39 16.5q22 0 38 -16.5t16 -39.5t-16 -39t-38 -16q-23 0 -39 16zM78 515h85l-72 -515h-85zM373 515h85l-72 -515h-85z" />
    <glyph glyph-name=".notdef" horiz-adv-x="700" 
d="M163 705h401v-705h-401v705zM502 62v581h-277v-581h277z" />
    <glyph glyph-name=".null" horiz-adv-x="600" 
 />
    <glyph glyph-name="nonmarkingreturn" unicode="&#xd;" horiz-adv-x="600" 
 />
    <glyph glyph-name="space" unicode=" " horiz-adv-x="220" 
 />
    <glyph glyph-name="exclam" unicode="!" horiz-adv-x="255" 
d="M152 760h86l-90 -550h-66zM51.5 10q-19.5 20 -19.5 47q0 28 19.5 47.5t47.5 19.5t47.5 -19.5t19.5 -47.5q0 -27 -19.5 -47t-47.5 -20t-47.5 20z" />
    <glyph glyph-name="quotedbl" unicode="&#x22;" horiz-adv-x="356" 
d="M114 640l18 120h84l-18 -120l-37 -156h-52zM265 640l18 120h84l-18 -120l-37 -156h-52z" />
    <glyph glyph-name="numbersign" unicode="#" horiz-adv-x="793" 
d="M640 492l-86 -214h89l-10 -72h-108l-82 -206h-89l82 206h-186l-82 -206h-89l82 206h-88l10 72h107l86 214h-90l10 72h109l78 196h89l-78 -196h186l78 196h89l-78 -196h87l-10 -72h-106zM551 492h-186l-86 -214h186z" />
    <glyph glyph-name="dollar" unicode="$" horiz-adv-x="702" 
d="M529.5 383.5q38.5 -20.5 62.5 -57.5t24 -97q0 -106 -74 -168.5t-192 -69.5l-16 -118h-83l17 120q-97 12 -146 68t-49 144l85 8q0 -123 121 -142l41 298l-10 3q-93 28 -136.5 75.5t-43.5 116.5q0 90 65.5 145.5t180.5 60.5l16 111h83l-16 -115q95 -13 142 -67.5t47 -141.5
l-85 -10q0 61 -27.5 97t-87.5 45l-36 -260l18 -6q61 -19 99.5 -39.5zM245.5 499.5q27.5 -26.5 86.5 -46.5l33 238q-67 -6 -107 -36.5t-40 -85.5q0 -43 27.5 -69.5zM482.5 118q45.5 41 45.5 106q0 37 -16 59.5t-41.5 34.5t-70.5 26l-39 -275q76 8 121.5 49z" />
    <glyph glyph-name="percent" unicode="%" horiz-adv-x="871" 
d="M156.5 414.5q-34.5 39.5 -34.5 114.5q0 68 21.5 122t60.5 84t92 30q56 0 91 -39.5t35 -114.5q0 -68 -21.5 -121.5t-61 -84t-91.5 -30.5q-57 0 -91.5 39.5zM732 760h96l-661 -760h-96zM324 492.5q22 53.5 22 120.5q0 47 -14 67.5t-41 20.5q-49 0 -71 -53t-22 -122
q0 -46 14 -66.5t41 -20.5q49 0 71 53.5zM517.5 34.5q-34.5 39.5 -34.5 114.5q0 68 21 122t60.5 84t91.5 30q57 0 92 -39.5t35 -114.5q0 -68 -21.5 -121.5t-61 -84t-91.5 -30.5q-57 0 -91.5 39.5zM684.5 111.5q22.5 52.5 22.5 118.5q0 49 -14 70t-41 21q-49 0 -71 -53
t-22 -122q0 -46 14 -66.5t41 -20.5q48 0 70.5 52.5z" />
    <glyph glyph-name="ampersand" unicode="&#x26;" horiz-adv-x="720" 
d="M557 118l87 -118h-102l-42 58q-86 -68 -201 -68q-69 0 -120.5 25t-78.5 70t-27 103q0 78 44 135.5t119 95.5q-29 40 -46.5 80t-17.5 85q0 81 50.5 133.5t139.5 52.5q54 0 92 -20.5t56.5 -53t18.5 -69.5q0 -62 -45.5 -120t-132.5 -107l161 -219q40 63 57 156h80
q-25 -132 -92 -219zM287 663.5q-28 -30.5 -28 -80.5q0 -31 12.5 -61t36.5 -64l2 -3q63 35 97.5 78t34.5 85q0 33 -22 54.5t-62 21.5q-43 0 -71 -30.5zM456 117l-180 248q-58 -31 -87 -74t-29 -95q0 -61 40 -95t110 -34q84 0 146 50z" />
    <glyph glyph-name="quotesingle" unicode="'" horiz-adv-x="205" 
d="M114 640l18 120h84l-18 -120l-37 -156h-52z" />
    <glyph glyph-name="parenleft" unicode="(" horiz-adv-x="352" 
d="M116 -34q-39 36 -39 103q0 19 3 43l79 566q13 96 61 139t137 43l-11 -76q-55 0 -75 -29.5t-28 -82.5l-78 -554q-3 -19 -3 -41q0 -33 16 -52t59 -19l-11 -76q-71 0 -110 36z" />
    <glyph glyph-name="parenright" unicode=")" horiz-adv-x="352" 
d="M275 824q39 -36 39 -103q0 -19 -3 -43l-79 -566q-13 -96 -61 -139t-137 -43l11 76q55 0 75 29.5t28 82.5l78 554q3 19 3 41q0 33 -16 52t-59 19l11 76q71 0 110 -36z" />
    <glyph glyph-name="asterisk" unicode="*" horiz-adv-x="557" 
d="M374 524l80 -111l-79 -54l-61 135l-100 -135l-67 54l115 110l-140 33l44 89l128 -59l6 147h92l-34 -148l145 60l16 -89z" />
    <glyph glyph-name="plus" unicode="+" horiz-adv-x="559" 
d="M475 228h-163l-23 -164h-73l23 164h-163l10 72h163l23 164h73l-23 -164h163z" />
    <glyph glyph-name="comma" unicode="," horiz-adv-x="236" 
d="M136 105.5q20 -18.5 20 -49.5q0 -53 -39.5 -104t-94.5 -76l-15 25q29 24 45 44.5t26 46.5q-24 4 -40 22t-16 42q0 28 19 48t47 20t48 -18.5z" />
    <glyph glyph-name="hyphen" unicode="-" horiz-adv-x="428" 
d="M66 300h307l-9 -72h-307z" />
    <glyph glyph-name="period" unicode="." horiz-adv-x="235" 
d="M41.5 10q-19.5 20 -19.5 47q0 28 19.5 47.5t47.5 19.5t47.5 -19.5t19.5 -47.5q0 -27 -19.5 -47t-47.5 -20t-47.5 20z" />
    <glyph glyph-name="slash" unicode="/" horiz-adv-x="442" 
d="M374 760h89l-360 -760h-89z" />
    <glyph glyph-name="zero" unicode="0" horiz-adv-x="686" 
d="M178 25.5q-54 35.5 -83 100.5t-29 153q0 136 40.5 247.5t119 177.5t188.5 66q73 0 127.5 -35.5t83.5 -100.5t29 -153q0 -136 -40.5 -247.5t-119.5 -177.5t-189 -66q-73 0 -127 35.5zM452.5 125.5q56.5 58.5 85 151t28.5 195.5q0 107 -42 164t-120 57q-80 0 -136.5 -58.5
t-85 -151t-28.5 -195.5q0 -107 42 -164t119 -57q81 0 137.5 58.5z" />
    <glyph glyph-name="one" unicode="1" horiz-adv-x="381" 
d="M332 761l-107 -761h-87l86 610q-66 -10 -135 -10l9 67q71 0 107 20t54 74h73z" />
    <glyph glyph-name="two" unicode="2" horiz-adv-x="561" 
d="M109 76h376l-11 -76h-468l7 45q17 109 66 187.5t147 132.5l130 72q113 63 113 161q0 45 -32.5 70t-94.5 25q-63 0 -107.5 -30.5t-61.5 -74.5l-86 6q31 84 101.5 130t162.5 46q69 0 115 -23.5t68.5 -61t22.5 -80.5q0 -80 -48.5 -139.5t-135.5 -107.5l-117 -64
q-124 -68 -147 -216v-2z" />
    <glyph glyph-name="three" unicode="3" horiz-adv-x="595" 
d="M510.5 337.5q28.5 -45.5 28.5 -104.5q0 -74 -33 -128.5t-94 -84.5t-144 -30q-100 0 -162 50.5t-72 138.5l83 6q10 -64 54.5 -91t104.5 -27q81 0 128 42.5t47 116.5q0 67 -45.5 103t-136.5 36h-47l10 76h48q84 0 138.5 41t54.5 113q0 45 -30 71.5t-92 26.5
q-58 0 -102 -27.5t-66 -76.5l-86 5q33 86 102 131t160 45q62 0 108 -22t70.5 -60t24.5 -85q0 -64 -35.5 -113.5t-99.5 -81.5q55 -25 83.5 -70.5z" />
    <glyph glyph-name="four" unicode="4" horiz-adv-x="631" 
d="M610 183h-129l-26 -183h-87l26 183h-354l11 76l194 501h89l-194 -501h264l36 256h87l-36 -256h130z" />
    <glyph glyph-name="five" unicode="5" horiz-adv-x="601" 
d="M207 684l-30 -212q70 33 148 33q112 0 171.5 -61.5t59.5 -159.5q0 -86 -37.5 -152.5t-105 -104t-155.5 -37.5q-95 0 -156 52.5t-68 138.5l84 6q3 -63 46 -92t100 -29q60 0 106 27t72 75t26 108q0 76 -43 114.5t-117 38.5q-48 0 -92 -15.5t-86 -37.5l-50 17l52 367h435
l-11 -76h-349z" />
    <glyph glyph-name="six" unicode="6" horiz-adv-x="650" 
d="M500 477.5q52 -27.5 79.5 -76t27.5 -109.5q0 -89 -41 -158t-111 -106.5t-152 -37.5q-114 0 -178.5 67.5t-64.5 196.5q0 37 6 79q28 209 114.5 323t237.5 114q78 0 136 -41.5t73 -128.5l-84 -6q-25 99 -136 99q-96 0 -157 -79t-88 -202q41 44 97.5 68.5t118.5 24.5
q70 0 122 -27.5zM409 92.5q48 26.5 79 75t31 111.5q0 69 -42 109.5t-117 40.5q-55 0 -104 -26t-79 -72.5t-30 -105.5q0 -71 45 -115t118 -44q51 0 99 26.5z" />
    <glyph glyph-name="seven" unicode="7" horiz-adv-x="525" 
d="M601 760l-512 -760h-96l461 684h-379l11 76h515z" />
    <glyph glyph-name="eight" unicode="8" horiz-adv-x="630" 
d="M549 326q30 -40 30 -96q0 -66 -36 -121t-104.5 -87t-162.5 -32q-75 0 -129 26t-82 70.5t-28 97.5q0 77 47.5 136.5t122.5 92.5q-85 56 -85 156q0 46 27.5 92.5t87 77.5t151.5 31q71 0 121.5 -23t76 -61t25.5 -84q0 -62 -42 -115.5t-109 -90.5q59 -30 89 -70zM255.5 664
q-45.5 -31 -45.5 -91q0 -39 26 -69t97 -57l52 -20q71 37 104.5 77.5t33.5 90.5q0 48 -38.5 74t-105.5 26q-78 0 -123.5 -31zM388 86.5q47 21.5 75 57t28 77.5q0 35 -25.5 66.5t-86.5 54.5l-95 35q-75 -28 -117 -76.5t-42 -109.5q0 -60 45 -93t117 -33q54 0 101 21.5z" />
    <glyph glyph-name="nine" unicode="9" horiz-adv-x="650" 
d="M560 702q64 -68 64 -194q0 -19 -1.5 -41.5t-3.5 -39.5q-53 -437 -352 -437q-82 0 -142 40.5t-77 129.5l86 6q12 -54 50 -76.5t89 -22.5q101 0 161.5 77t87.5 203q-41 -45 -98 -68.5t-121 -23.5q-69 0 -120 29.5t-77.5 79t-26.5 109.5q0 90 41 157t111.5 103.5t156.5 36.5
q108 0 172 -68zM428.5 357q49.5 26 79 73t29.5 105q0 71 -45 115t-114 44q-54 0 -102.5 -24.5t-78.5 -72t-30 -114.5q0 -70 41 -111t113 -41q58 0 107.5 26z" />
    <glyph glyph-name="colon" unicode=":" horiz-adv-x="237" 
d="M43.5 10q-19.5 20 -19.5 47q0 28 19.5 47.5t47.5 19.5t47.5 -19.5t19.5 -47.5q0 -27 -19.5 -47t-47.5 -20t-47.5 20zM91.5 360q-19.5 20 -19.5 47q0 28 19.5 47.5t47.5 19.5t47.5 -19.5t19.5 -47.5q0 -27 -19.5 -47t-47.5 -20t-47.5 20z" />
    <glyph glyph-name="semicolon" unicode=";" horiz-adv-x="238" 
d="M138 105.5q20 -18.5 20 -49.5q0 -53 -39.5 -104t-94.5 -76l-15 25q29 24 45 44.5t26 46.5q-24 4 -40 22t-16 42q0 28 19 48t47 20t48 -18.5zM91.5 360q-19.5 20 -19.5 47q0 28 19.5 47.5t47.5 19.5t47.5 -19.5t19.5 -47.5q0 -27 -19.5 -47t-47.5 -20t-47.5 20z" />
    <glyph glyph-name="less" unicode="&#x3c;" horiz-adv-x="556" 
d="M500 431l-350 -161l304 -169l-12 -85l-367 208l13 92l424 207z" />
    <glyph glyph-name="equal" unicode="=" 
d="M100 394h399l-11 -72h-399zM73 206h399l-10 -72h-399z" />
    <glyph glyph-name="greater" unicode="&#x3e;" horiz-adv-x="556" 
d="M59 108l350 161l-304 169l12 85l367 -208l-13 -92l-424 -207z" />
    <glyph glyph-name="question" unicode="?" horiz-adv-x="580" 
d="M204 238q8 58 23.5 95.5t46 66t84.5 56.5l37 19q83 42 83 120q0 50 -33.5 74t-88.5 24q-103 0 -175 -82l-66 38q48 58 108.5 89.5t139.5 31.5q96 0 149.5 -46.5t53.5 -123.5q0 -62 -36.5 -109.5t-107.5 -84.5l-31 -16q-46 -24 -66.5 -54.5t-29.5 -81.5l-7 -44h-88z
M185.5 10q-19.5 20 -19.5 47q0 28 19.5 47.5t47.5 19.5t47.5 -19.5t19.5 -47.5q0 -27 -19.5 -47t-47.5 -20t-47.5 20z" />
    <glyph glyph-name="at" unicode="@" horiz-adv-x="1028" 
d="M789.5 726.5q83.5 -43.5 130.5 -120.5t47 -174q0 -86 -27.5 -160.5t-79 -119.5t-119.5 -45q-47 0 -79 21.5t-38 58.5q-68 -80 -181 -80q-48 0 -85.5 22t-58.5 61t-21 88q0 77 40 143t103.5 105.5t131.5 39.5q81 0 127 -59l12 50h88l-75 -286q-6 -26 -6 -34
q0 -26 18 -41.5t43 -15.5q38 0 66.5 38t43.5 94t15 106q0 83 -37 147t-104 99t-153 35q-116 0 -214 -63t-155.5 -167.5t-57.5 -221.5q0 -87 36.5 -151.5t104.5 -99.5t161 -35q109 0 221 56l20 -65q-66 -31 -128 -46.5t-129 -15.5q-111 0 -194 45t-128 125t-45 181
q0 142 69 263.5t188 193.5t260 72q106 0 189.5 -43.5zM555 210q42 28 67.5 74t25.5 98q0 49 -27.5 79.5t-76.5 30.5q-45 0 -88 -27t-70 -72.5t-27 -96.5q0 -50 29 -82t79 -32q46 0 88 28z" />
    <glyph glyph-name="A" unicode="A" horiz-adv-x="605" 
d="M453 136h-332l-61 -136h-91l356 760h97l142 -760h-88zM440 212l-78 463l-207 -463h285z" />
    <glyph glyph-name="B" unicode="B" horiz-adv-x="590" 
d="M530 336q25 -41 25 -92q0 -73 -33 -128.5t-93.5 -85.5t-140.5 -30h-254l107 760h231q99 0 152 -46.5t53 -119.5q0 -64 -31 -114t-89 -79q48 -24 73 -65zM216 684l-35 -250h134q82 0 127.5 43t45.5 110q0 44 -31 70.5t-96 26.5h-145zM425.5 121q41.5 45 41.5 119
q0 51 -34.5 84.5t-100.5 33.5h-162l-39 -282h167q86 0 127.5 45z" />
    <glyph glyph-name="C" unicode="C" horiz-adv-x="820" 
d="M216 31q-74 41 -115.5 117t-41.5 177q0 120 57.5 222t156 162.5t216.5 60.5q85 0 153 -32.5t111.5 -91.5t56.5 -137l-89 -10q-19 92 -80.5 143t-154.5 51t-171 -50.5t-123 -134.5t-45 -181q0 -78 30 -137t85 -91t128 -32q96 0 175.5 53t122.5 143l86 -11
q-55 -121 -158 -191.5t-230 -70.5q-96 0 -170 41z" />
    <glyph glyph-name="D" unicode="D" horiz-adv-x="755" 
d="M571 718.5q75 -41.5 117.5 -114t42.5 -162.5q0 -127 -57 -228t-156.5 -157.5t-222.5 -56.5h-261l107 760h261q94 0 169 -41.5zM473.5 123.5q79.5 47.5 124.5 128.5t45 178q0 76 -32 133.5t-90 89t-135 31.5h-170l-85 -608h165q98 0 177.5 47.5z" />
    <glyph glyph-name="E" unicode="E" horiz-adv-x="546" 
d="M216 684l-35 -250h325l-10 -76h-326l-39 -282h334l-11 -76h-420l107 760h415l-11 -76h-329z" />
    <glyph glyph-name="F" unicode="F" horiz-adv-x="505" 
d="M216 684l-35 -250h305l-10 -76h-306l-50 -358h-86l107 760h395l-11 -76h-309z" />
    <glyph glyph-name="G" unicode="G" horiz-adv-x="805" 
d="M394 405h363l-45 -316q-141 -99 -307 -99q-109 0 -186.5 41t-118.5 116.5t-41 177.5q0 122 56 224t153.5 161.5t216.5 59.5q118 0 195.5 -58.5t106.5 -155.5l-87 -10q-20 61 -76 104t-145 43q-95 0 -171 -51.5t-118.5 -136t-42.5 -181.5q0 -122 70 -189.5t198 -67.5
q66 0 118 16.5t99 42.5l28 203h-277z" />
    <glyph glyph-name="H" unicode="H" horiz-adv-x="660" 
d="M661 760l-107 -760h-86l50 358h-348l-50 -358h-86l107 760h86l-46 -326h348l46 326h86z" />
    <glyph glyph-name="I" unicode="I" horiz-adv-x="226" 
d="M141 760h86l-107 -760h-86z" />
    <glyph glyph-name="J" unicode="J" 
d="M85 46.5q-57 56.5 -57 159.5l84 6q0 -73 32.5 -109t92.5 -36q66 0 111.5 42.5t58.5 137.5l73 513h86l-73 -513q-19 -133 -83.5 -195t-173.5 -62q-94 0 -151 56.5z" />
    <glyph glyph-name="K" unicode="K" horiz-adv-x="600" 
d="M359 434l190 -434h-90l-160 366l-152 -172l-27 -194h-86l107 760h86l-61 -435l382 435h98z" />
    <glyph glyph-name="L" unicode="L" horiz-adv-x="486" 
d="M440 76l-11 -76h-395l107 760h86l-96 -684h309z" />
    <glyph glyph-name="M" unicode="M" horiz-adv-x="860" 
d="M808 760l-29 -760h-83l28 639l-293 -639h-70l-115 641l-152 -641h-85l185 760h103l113 -650l293 650h105z" />
    <glyph glyph-name="N" unicode="N" horiz-adv-x="660" 
d="M661 760l-107 -760h-85l-263 621l-87 -621h-85l107 760h85l263 -621l87 621h85z" />
    <glyph glyph-name="O" unicode="O" horiz-adv-x="841" 
d="M214 32q-74 42 -114.5 118.5t-40.5 176.5q0 122 58.5 223.5t157.5 160.5t215 59q97 0 171 -42t114.5 -118.5t40.5 -176.5q0 -122 -58.5 -223.5t-157.5 -160.5t-215 -59q-97 0 -171 42zM560 117.5q78 50.5 123 135t45 181.5q0 77 -29.5 136t-84.5 91t-128 32
q-93 0 -171 -50.5t-123 -135t-45 -181.5q0 -77 29.5 -136t84.5 -91t128 -32q93 0 171 50.5z" />
    <glyph glyph-name="P" unicode="P" horiz-adv-x="625" 
d="M558 703.5q63 -56.5 63 -165.5q0 -84 -36.5 -152t-104.5 -107t-160 -39h-166l-34 -240h-86l107 760h238q116 0 179 -56.5zM437 344.5q48 28.5 72.5 78t24.5 112.5q0 76 -40 112.5t-130 36.5h-148l-52 -368h157q68 0 116 28.5z" />
    <glyph glyph-name="Q" unicode="Q" horiz-adv-x="841" 
d="M766.5 227q-49.5 -95 -133.5 -156l97 -151l-70 -49l-101 157q-81 -38 -174 -38q-97 0 -171 42t-114.5 118.5t-40.5 176.5q0 122 58.5 223.5t157.5 160.5t215 59q97 0 171 -42t114.5 -118.5t40.5 -176.5q0 -111 -49.5 -206zM517 94l-139 216l71 47l140 -218q65 51 102 129
t37 166q0 77 -29.5 136t-84.5 91t-128 32q-93 0 -171 -50.5t-123 -135t-45 -181.5q0 -77 29.5 -136t84.5 -91t128 -32q64 0 128 27z" />
    <glyph glyph-name="R" unicode="R" horiz-adv-x="625" 
d="M573.5 370q-47.5 -73 -131.5 -107l102 -263h-96l-94 242q-26 -2 -40 -2h-160l-34 -240h-86l107 760h238q116 0 179 -56.5t63 -165.5q0 -95 -47.5 -168zM321 316q68 0 116 28.5t72.5 78.5t24.5 112q0 76 -40 112.5t-130 36.5h-148l-52 -368h157z" />
    <glyph glyph-name="S" unicode="S" horiz-adv-x="638" 
d="M101 48q-63 58 -63 157l85 8q0 -83 48.5 -114.5t119.5 -31.5q91 0 146.5 42t55.5 115q0 38 -16 60.5t-41.5 34t-72.5 26.5l-88 27q-93 28 -136.5 75.5t-43.5 116.5q0 95 71.5 150.5t197.5 55.5t187.5 -56.5t61.5 -156.5l-85 -10q0 72 -38.5 109t-124.5 37q-80 0 -131 -31
t-51 -93q0 -46 32 -73.5t102 -48.5l78 -24q61 -19 99.5 -39.5t62.5 -57.5t24 -97q0 -75 -38.5 -129t-105 -82t-150.5 -28q-123 0 -186 58z" />
    <glyph glyph-name="T" unicode="T" horiz-adv-x="590" 
d="M625 684h-227l-96 -684h-87l96 684h-226l11 76h540z" />
    <glyph glyph-name="U" unicode="U" horiz-adv-x="670" 
d="M127.5 52.5q-63.5 62.5 -63.5 172.5q0 23 5 63l67 472h86l-68 -478q-5 -35 -5 -56q0 -75 41 -117t117 -42q91 0 145.5 55.5t69.5 160.5l68 477h86l-67 -472q-21 -151 -95.5 -224.5t-212.5 -73.5q-110 0 -173.5 62.5z" />
    <glyph glyph-name="V" unicode="V" horiz-adv-x="615" 
d="M681 760l-361 -760h-98l-146 760h88l118 -670l306 670h93z" />
    <glyph glyph-name="W" unicode="W" horiz-adv-x="955" 
d="M1011 760l-308 -760h-93l-81 621l-256 -621h-92l-95 760h87l68 -654l272 654h76l81 -654l249 654h92z" />
    <glyph glyph-name="X" unicode="X" horiz-adv-x="585" 
d="M358 387l186 -387h-89l-150 313l-240 -313h-96l297 387l-178 373h89l143 -299l226 299h95z" />
    <glyph glyph-name="Y" unicode="Y" 
d="M631 760l-492 -760h-91l209 323l-176 437h89l139 -357l231 357h91z" />
    <glyph glyph-name="Z" unicode="Z" horiz-adv-x="588" 
d="M140 74h382l-11 -74h-517l489 686h-363l11 74h498z" />
    <glyph glyph-name="bracketleft" unicode="[" horiz-adv-x="383" 
d="M260 788l-109 -786h115l-9 -72h-201l129 930h196l-9 -72h-112z" />
    <glyph glyph-name="backslash" unicode="\" horiz-adv-x="656" 
d="M210 760h-89l360 -760h89z" />
    <glyph glyph-name="bracketright" unicode="]" horiz-adv-x="383" 
d="M162 2l109 786h-115l9 72h201l-129 -930h-196l9 72h112z" />
    <glyph glyph-name="asciicircum" unicode="^" horiz-adv-x="503" 
d="M361 400l-65 157l-110 -157h-86l157 217h92l94 -217h-82z" />
    <glyph glyph-name="underscore" unicode="_" horiz-adv-x="611" 
d="M-18 -84h550l-9 -72h-550z" />
    <glyph glyph-name="grave" unicode="`" horiz-adv-x="330" 
d="M233 760l94 -170h-67l-139 170h112z" />
    <glyph glyph-name="a" unicode="a" horiz-adv-x="620" 
d="M591 515l-72 -515h-76l7 87q-33 -44 -84 -70.5t-111 -26.5q-59 0 -108 29t-77.5 81.5t-28.5 120.5q0 89 39.5 158.5t105.5 107.5t141 38q58 0 101.5 -25t66.5 -69l12 84h84zM374 95.5q48 30.5 76 82t28 112.5q0 72 -39.5 116t-108.5 44q-54 0 -100.5 -27t-75 -78
t-28.5 -118q0 -76 39 -119t105 -43q56 0 104 30.5z" />
    <glyph glyph-name="b" unicode="b" horiz-adv-x="621" 
d="M477 495q49 -30 76 -82t27 -116q0 -91 -39.5 -160.5t-105 -108t-141.5 -38.5q-59 0 -103.5 25t-67.5 68l-17 -83h-77l107 760h85l-47 -326q36 43 85 67t107 24q62 0 111 -30zM392.5 93q46.5 28 74.5 79t28 118q0 76 -39.5 118t-106.5 42q-58 0 -105 -30.5t-74 -81.5
t-27 -111q0 -73 40 -117.5t109 -44.5q54 0 100.5 28z" />
    <glyph glyph-name="c" unicode="c" horiz-adv-x="581" 
d="M146.5 19q-50.5 29 -78 80.5t-27.5 116.5q0 90 38.5 160.5t105.5 109.5t150 39q87 0 146 -47t73 -126l-87 -9q-10 51 -45.5 79t-87.5 28q-63 0 -110 -30t-72.5 -81t-25.5 -114q0 -74 39 -117t107 -43q56 0 104.5 30.5t71.5 84.5l81 -9q-31 -84 -100.5 -132.5
t-166.5 -48.5q-65 0 -115.5 29z" />
    <glyph glyph-name="d" unicode="d" horiz-adv-x="621" 
d="M626 760l-106 -760h-77l7 88q-34 -46 -85 -72t-109 -26q-60 0 -109 29t-77.5 81.5t-28.5 120.5q0 89 39.5 158.5t105.5 107.5t141 38q58 0 101.5 -25t66.5 -69l46 329h85zM374 95.5q48 30.5 76 82t28 112.5q0 72 -39.5 116t-108.5 44q-54 0 -100.5 -27t-75 -78
t-28.5 -118q0 -76 39 -119t105 -43q56 0 104 30.5z" />
    <glyph glyph-name="e" unicode="e" horiz-adv-x="585" 
d="M126 226v-7q0 -72 40 -113t101 -41q58 0 102 26t72 70l84 -10q-41 -77 -109 -119t-153 -42q-66 0 -116.5 30t-78 81.5t-27.5 114.5q0 86 37 157t103.5 111.5t150.5 40.5q69 0 117 -29t72 -78.5t24 -110.5q0 -15 -2 -39t-5 -42h-412zM209.5 409.5
q-52.5 -40.5 -73.5 -111.5h324v4q0 72 -34.5 110t-95.5 38q-68 0 -120.5 -40.5z" />
    <glyph glyph-name="f" unicode="f" horiz-adv-x="326" 
d="M254.5 674q-22.5 -21 -30.5 -82l-11 -77h133l-11 -73h-132l-62 -442h-85l61 442h-81l18 73h73l12 84q13 95 58.5 133t114.5 38q57 0 93 -21l-16 -70q-33 16 -73 16q-39 0 -61.5 -21z" />
    <glyph glyph-name="g" unicode="g" horiz-adv-x="621" 
d="M592 515l-63 -447q-19 -135 -89 -204t-195 -69q-80 0 -133.5 33t-71.5 85l85 16q30 -64 124 -64q82 0 131.5 49.5t62.5 141.5l4 25q-35 -42 -85 -66.5t-106 -24.5q-61 0 -110 29.5t-77 82t-28 119.5q0 90 39.5 159t106 107t143.5 38q58 0 101.5 -25.5t65.5 -72.5l18 88
h77zM375 95.5q47 30.5 75 82.5t28 113q0 70 -39.5 114.5t-106.5 44.5q-55 0 -102 -27t-75.5 -77t-28.5 -116q0 -77 38 -121t109 -44q55 0 102 30.5z" />
    <glyph glyph-name="h" unicode="h" horiz-adv-x="570" 
d="M480.5 479.5q41.5 -45.5 41.5 -116.5q0 -20 -4 -48l-44 -315h-85l43 308q4 30 4 42q0 52 -25 77.5t-80 25.5q-74 0 -118 -48.5t-58 -113.5l-41 -291h-85l107 760h85l-47 -333q34 48 82 73t103 25q80 0 121.5 -45.5z" />
    <glyph glyph-name="i" unicode="i" horiz-adv-x="216" 
d="M121 632q-19 19 -19 46q0 28 19 47t46 19t46 -19t19 -47q0 -27 -19 -46t-46 -19t-46 19zM101 515h85l-72 -515h-85z" />
    <glyph glyph-name="j" unicode="j" horiz-adv-x="232" 
d="M137 632q-19 19 -19 46q0 28 19 47t46 19t46 -19t19 -47q0 -27 -19 -46t-46 -19t-46 19zM-138 -190l16 72q43 -12 79 -12q40 0 58 21.5t26 80.5l76 543h85l-79 -559q-13 -87 -55 -124t-108 -37q-59 0 -98 15z" />
    <glyph glyph-name="k" unicode="k" horiz-adv-x="490" 
d="M293 319l161 -319h-88l-135 261l-93 -87l-24 -174h-85l107 760h85l-66 -469l238 224h108z" />
    <glyph glyph-name="l" unicode="l" horiz-adv-x="265" 
d="M82.5 16.5q-36.5 26.5 -36.5 88.5q0 13 4 47l86 608h85l-85 -604q-3 -21 -3 -36q0 -33 15.5 -44t55.5 -11h8l-5 -75h-17q-71 0 -107.5 26.5z" />
    <glyph glyph-name="m" unicode="m" horiz-adv-x="860" 
d="M767.5 484.5q44.5 -40.5 44.5 -118.5q0 -18 -3 -41l-45 -325h-85l43 308q4 30 4 44q0 50 -22.5 75.5t-69.5 25.5q-71 0 -109.5 -55.5t-47.5 -127.5l-38 -270h-85l43 307q4 30 4 45q0 101 -93 101q-65 0 -102.5 -48.5t-50.5 -112.5l-41 -292h-85l72 515h77l-5 -84
q30 46 71.5 70t90.5 24q58 0 97 -31t51 -82q31 55 76.5 84t96.5 29q67 0 111.5 -40.5z" />
    <glyph glyph-name="n" unicode="n" horiz-adv-x="570" 
d="M480.5 479.5q41.5 -45.5 41.5 -116.5q0 -20 -4 -48l-44 -315h-85l43 308q4 30 4 42q0 52 -25 77.5t-80 25.5q-74 0 -118 -49.5t-59 -114.5l-40 -289h-85l72 515h77l-5 -90q33 49 81.5 74.5t104.5 25.5q80 0 121.5 -45.5z" />
    <glyph glyph-name="o" unicode="o" horiz-adv-x="602" 
d="M148.5 19q-50.5 29 -79 81t-28.5 118q0 89 38.5 159t106 109t152.5 39q65 0 116 -29t79 -81t28 -118q0 -89 -38 -159t-105.5 -109t-153.5 -39q-65 0 -115.5 29zM372.5 93q47.5 28 75.5 79.5t28 118.5q0 76 -39 117.5t-104 41.5q-56 0 -103.5 -28t-75.5 -79.5t-28 -118.5
q0 -76 39 -117.5t104 -41.5q56 0 103.5 28z" />
    <glyph glyph-name="p" unicode="p" horiz-adv-x="621" 
d="M478 495.5q48 -29.5 75 -81.5t27 -117q0 -91 -39.5 -161t-105.5 -108t-142 -38q-58 0 -101 24t-67 66l-39 -275h-85l100 710h77l-8 -89q35 48 85.5 73.5t112.5 25.5t110 -29.5zM393 93q46 28 74 79t28 118q0 76 -39.5 118t-106.5 42q-58 0 -105 -30.5t-74 -81.5t-27 -111
q0 -73 40 -117.5t112 -44.5q52 0 98 28z" />
    <glyph glyph-name="q" unicode="q" horiz-adv-x="616" 
d="M592 515l-100 -710h-85l40 278q-34 -43 -85 -68t-106 -25q-61 0 -110 29t-77 81.5t-28 120.5q0 89 39.5 158.5t105.5 107.5t141 38q59 0 103.5 -26t66.5 -72l18 88h77zM374 95.5q48 30.5 76 82t28 112.5q0 72 -39.5 116t-108.5 44q-54 0 -100.5 -27t-75 -78t-28.5 -118
q0 -76 39 -119t105 -43q56 0 104 30.5z" />
    <glyph glyph-name="r" unicode="r" horiz-adv-x="355" 
d="M372 523l-18 -89q-23 5 -45 5q-63 0 -101.5 -44.5t-54.5 -117.5l-39 -277h-85l72 515h77l-4 -89q32 48 74.5 73.5t89.5 25.5q24 0 34 -2z" />
    <glyph glyph-name="s" unicode="s" horiz-adv-x="477" 
d="M65.5 33q-46.5 43 -46.5 114l84 9q0 -45 23 -68t79 -23q136 0 136 90q0 29 -24 44.5t-83 35.5l-33 11q-72 23 -107.5 53t-35.5 81q0 69 56 107t150 38q82 0 130 -41t48 -105l-85 -9q-1 35 -23.5 57.5t-77.5 22.5q-54 0 -83.5 -18t-29.5 -50q0 -19 19 -32.5t65 -29.5
l42 -14q53 -18 85.5 -34.5t52 -43.5t19.5 -68q0 -86 -61.5 -128t-159.5 -42q-93 0 -139.5 43z" />
    <glyph glyph-name="t" unicode="t" horiz-adv-x="339" 
d="M161 149q-3 -18 -3 -34q0 -29 13 -40.5t42 -11.5q32 0 65 7l-5 -70q-43 -10 -78 -10q-55 0 -88.5 28t-33.5 88q0 20 3 42l41 294h-81l15 73h76l18 125h85l-18 -125h119l-10 -73h-119z" />
    <glyph glyph-name="u" unicode="u" 
d="M531 515l-72 -515h-77l7 90q-33 -49 -80.5 -74.5t-102.5 -25.5q-51 0 -86.5 21.5t-53.5 57.5t-18 78q0 21 3 42l45 326h85l-44 -317q-3 -22 -3 -41q0 -51 27.5 -73t80.5 -22q69 0 110 50.5t54 115.5l40 287h85z" />
    <glyph glyph-name="v" unicode="v" horiz-adv-x="507" 
d="M543 515l-277 -515h-97l-133 515h88l103 -434l223 434h93z" />
    <glyph glyph-name="w" unicode="w" horiz-adv-x="775" 
d="M801 515l-231 -515h-93l-69 406l-181 -406h-94l-87 515h85l61 -423l190 423h81l71 -421l178 421h89z" />
    <glyph glyph-name="x" unicode="x" horiz-adv-x="475" 
d="M287 261l147 -261h-90l-111 199l-166 -199h-98l226 269l-140 246h90l103 -184l154 184h98z" />
    <glyph glyph-name="y" unicode="y" horiz-adv-x="561" 
d="M531 515l-65 -468q-17 -121 -83 -186.5t-174 -65.5q-76 0 -124 32.5t-60 85.5l82 16q7 -31 34 -47.5t72 -16.5q143 0 168 181l6 41q-33 -48 -80 -72.5t-101 -24.5q-51 0 -86.5 21.5t-53.5 57.5t-18 78q0 21 3 42l45 326h85l-44 -317q-3 -22 -3 -41q0 -51 27.5 -73
t80.5 -22q50 0 85.5 28t55 69t25.5 82l38 274h85z" />
    <glyph glyph-name="z" unicode="z" horiz-adv-x="480" 
d="M143 73h274l-11 -73h-417l348 442h-260l16 73h398z" />
    <glyph glyph-name="braceleft" unicode="{" horiz-adv-x="447" 
d="M450 860l-9 -70q-52 0 -75 -24t-30 -70l-25 -180q-6 -42 -27.5 -73t-54.5 -48q50 -32 50 -96q0 -21 -2 -35l-25 -170q-1 -8 -1 -22q0 -37 17 -54.5t62 -17.5l-9 -70h-17q-66 0 -102 37.5t-36 96.5q0 26 4 51l21 146q3 23 3 37q0 29 -18 45.5t-61 16.5l2 13h-1l8 57
q51 0 73.5 22.5t28.5 63.5l23 162q14 96 55 139t124 43h22z" />
    <glyph glyph-name="bar" unicode="|" horiz-adv-x="326" 
d="M191 760h86l-135 -955h-86z" />
    <glyph glyph-name="braceright" unicode="}" horiz-adv-x="448" 
d="M36 -70l9 70q52 0 75 24t30 70l25 180q6 42 27.5 73t54.5 48q-50 32 -50 96q0 21 2 35l25 170q1 8 1 22q0 37 -17 54.5t-62 17.5l9 70h17q66 0 102 -37.5t36 -96.5q0 -26 -4 -51l-21 -146q-3 -23 -3 -37q0 -29 18 -45.5t61 -16.5l-2 -13h1l-8 -57q-51 0 -73.5 -22.5
t-28.5 -63.5l-23 -162q-14 -96 -55 -139t-124 -43h-22z" />
    <glyph glyph-name="asciitilde" unicode="~" horiz-adv-x="590" 
d="M366.5 403.5q-23.5 6.5 -53.5 20.5q-32 14 -53.5 20.5t-49.5 6.5q-61 0 -108 -39l11 78q45 35 109 35q29 0 52.5 -7t56.5 -21q30 -13 53.5 -19.5t50.5 -6.5q65 0 111 40l-11 -79q-22 -16 -52 -25.5t-64 -9.5q-29 0 -52.5 6.5z" />
    <glyph glyph-name="uni00A0" unicode="&#xa0;" horiz-adv-x="220" 
 />
    <glyph glyph-name="exclamdown" unicode="&#xa1;" horiz-adv-x="255" 
d="M210.5 555q19.5 -20 19.5 -47q0 -28 -19.5 -47.5t-47.5 -19.5t-47.5 19.5t-19.5 47.5q0 27 19.5 47t47.5 20t47.5 -20zM110 -195h-86l90 550h66z" />
    <glyph glyph-name="cent" unicode="&#xa2;" horiz-adv-x="658" 
d="M428.5 106q37.5 29 56.5 74l81 -9q-28 -76 -88.5 -123.5t-143.5 -55.5l-16 -119h-83l17 121q-79 15 -126.5 75.5t-47.5 146.5q0 81 31.5 146.5t87.5 107t128 52.5l16 116h83l-16 -115q73 -10 121.5 -55.5t61.5 -115.5l-87 -9q-8 44 -36 71t-70 34l-53 -380q46 9 83.5 38z
M189 125q26 -40 73 -54l52 372q-70 -18 -110.5 -78t-40.5 -140q0 -60 26 -100z" />
    <glyph glyph-name="sterling" unicode="&#xa3;" horiz-adv-x="631" 
d="M312.5 165.5q-19.5 -49.5 -53.5 -91.5h266l-11 -74h-454l11 74h87q41 41 65.5 85.5t24.5 87.5q0 14 -4 38h-149l11 74h106l-24 37q-30 44 -47 82.5t-17 80.5q0 59 30.5 107t86.5 76t129 28q92 0 150.5 -48.5t70.5 -144.5l-85 -6q-7 56 -42 89t-99 33q-66 0 -110.5 -34.5
t-44.5 -93.5q0 -32 14 -61t44 -76q27 -41 40 -69h198l-11 -74h-164q1 -7 1 -23q0 -47 -19.5 -96.5z" />
    <glyph glyph-name="currency" unicode="&#xa4;" horiz-adv-x="722" 
d="M604.5 297.5q-16.5 -45.5 -47.5 -82.5l68 -78l-69 -62l-67 79q-69 -44 -150 -44q-80 0 -136 42l-86 -77l-53 62l86 75q-28 50 -28 112q0 51 17.5 96.5t48.5 82.5l-63 72l70 62l63 -73q68 41 147 41q82 0 141 -46l88 78l52 -62l-89 -78q24 -48 24 -105q0 -49 -16.5 -94.5z
M247 223.5q39 -38.5 100 -38.5q50 0 93 25t69 71t26 105q0 68 -38 106t-100 38q-53 0 -96.5 -27.5t-68 -73.5t-24.5 -101q0 -66 39 -104.5z" />
    <glyph glyph-name="yen" unicode="&#xa5;" horiz-adv-x="700" 
d="M446 400h140l-11 -74h-171l-10 -70h172l-11 -74h-171l-26 -182h-87l26 182h-172l11 74h171l10 70h-172l11 74h138l-143 360h90l127 -344l228 344h95z" />
    <glyph glyph-name="brokenbar" unicode="&#xa6;" horiz-adv-x="327" 
d="M191 760h86l-47 -335h-86zM104 140h86l-48 -335h-86z" />
    <glyph glyph-name="section" unicode="&#xa7;" horiz-adv-x="644" 
d="M450 121q55 -46 55 -115q0 -94 -61 -152.5t-182 -58.5q-100 0 -158 56.5t-59 156.5l86 10q0 -72 32.5 -109t103.5 -37q67 0 108.5 31.5t41.5 86.5q0 37 -22 61t-63 42l-55 24q-57 25 -89 44t-53 48.5t-21 73.5q0 104 90 167q-56 48 -56 116q0 97 63 150.5t179 53.5
q100 0 158 -58t58 -155l-85 -10q0 67 -34.5 106.5t-104.5 39.5q-69 0 -107.5 -29.5t-38.5 -88.5q0 -34 21.5 -56.5t63.5 -40.5l55 -24q56 -25 88.5 -44.5t53.5 -49t21 -73.5q0 -103 -89 -166zM433 210.5q18 30.5 18 63.5q0 34 -25.5 58.5t-90.5 50.5l-52 21l-15 6
q-30 -19 -48 -50t-18 -64q0 -34 25.5 -58t90.5 -50l51 -21q5 -2 9 -4t7 -3q30 20 48 50.5z" />
    <glyph glyph-name="dieresis" unicode="&#xa8;" horiz-adv-x="402" 
d="M126.5 639q-16.5 17 -16.5 41q0 25 16.5 42t41.5 17q24 0 41 -17t17 -42q0 -24 -17 -41t-41 -17q-25 0 -41.5 17zM312.5 639q-16.5 17 -16.5 41q0 25 16.5 42t41.5 17q24 0 40.5 -17t16.5 -42q0 -24 -16.5 -41t-40.5 -17q-25 0 -41.5 17z" />
    <glyph glyph-name="copyright" unicode="&#xa9;" horiz-adv-x="985" 
d="M297.5 42q-93.5 52 -145 141.5t-51.5 196.5t51.5 196.5t145 141.5t212.5 52t212 -52t144.5 -141.5t51.5 -196.5t-51.5 -196.5t-144.5 -141.5t-212 -52t-212.5 52zM686.5 97q77.5 44 120.5 119t43 164t-43 164t-120.5 119t-176.5 44t-176.5 -44t-120.5 -119t-43 -164
t43 -164t120.5 -119t176.5 -44t176.5 44zM392.5 168q-52.5 31 -81.5 86t-29 126t29.5 126.5t82.5 86.5t119 31q78 0 137.5 -43t82.5 -115l-78 -8q-17 46 -55 72t-87 26q-44 0 -79 -21.5t-55 -61.5t-20 -93q0 -79 43.5 -126.5t110.5 -47.5q51 0 90 27.5t56 76.5l74 -8
q-21 -75 -80 -120t-140 -45q-68 0 -120.5 31z" />
    <glyph glyph-name="ordfeminine" unicode="&#xaa;" horiz-adv-x="498" 
d="M509 760l-51 -361h-65l3 48q-27 -26 -61.5 -40.5t-73.5 -14.5q-71 0 -114 47t-43 119q0 60 28.5 108.5t76.5 76t103 27.5q39 0 70 -15t51 -43l7 48h69zM344.5 474.5q30.5 18.5 49 51t18.5 73.5q0 51 -28.5 79t-72.5 28q-36 0 -67.5 -17.5t-50 -49t-18.5 -71.5
q0 -50 28.5 -81t74.5 -31q36 0 66.5 18.5z" />
    <glyph glyph-name="guillemotleft" unicode="&#xab;" horiz-adv-x="480" 
d="M196 480h90l-138 -208l80 -208h-85l-80 212zM361 480h90l-138 -208l80 -208h-85l-80 212z" />
    <glyph glyph-name="logicalnot" unicode="&#xac;" horiz-adv-x="617" 
d="M558 409l-30 -215h-78l20 143h-379l10 72h457z" />
    <glyph glyph-name="uni00AD" unicode="&#xad;" horiz-adv-x="428" 
d="M66 300h307l-9 -72h-307z" />
    <glyph glyph-name="registered" unicode="&#xae;" horiz-adv-x="707" 
d="M529.5 735.5q61.5 -34.5 96 -93.5t34.5 -130t-34.5 -130t-96 -94t-140.5 -35t-140.5 35t-96 94t-34.5 130t34.5 130t96 93.5t140.5 34.5t140.5 -34.5zM497.5 337.5q47.5 26.5 73.5 72.5t26 102q0 55 -26 101t-73.5 73t-108.5 27t-108.5 -27t-74 -73t-26.5 -101
q0 -56 26.5 -102t74 -72.5t108.5 -26.5t108.5 26.5zM474.5 520.5q-10.5 -18.5 -30.5 -29.5l45 -98h-66l-38 87h-18v-87h-61v253h92q39 0 63 -22.5t24 -59.5q0 -25 -10.5 -43.5zM367 533h19q19 0 29 8t10 23q0 13 -9.5 21t-25.5 8h-23v-60z" />
    <glyph glyph-name="macron" unicode="&#xaf;" horiz-adv-x="375" 
d="M115 722h275l-9 -67h-275z" />
    <glyph glyph-name="degree" unicode="&#xb0;" horiz-adv-x="419" 
d="M199 529.5q-30 17.5 -47 47t-17 64.5t17 64.5t47 47t65 17.5t64.5 -17.5t46.5 -47t17 -64.5t-17 -64.5t-46.5 -47t-64.5 -17.5t-65 17.5zM313.5 591q20.5 21 20.5 50t-20.5 49.5t-49.5 20.5t-50 -20.5t-21 -49.5t21 -50t50 -21t49.5 21z" />
    <glyph glyph-name="plusminus" unicode="&#xb1;" horiz-adv-x="571" 
d="M496 377h-163l-23 -164h-73l23 164h-163l10 72h163l23 164h73l-23 -164h163zM70 102h399l-10 -72h-399z" />
    <glyph glyph-name="uni00B2" unicode="&#xb2;" horiz-adv-x="440" 
d="M212 485.5q-17 -17.5 -24 -40.5h198l-10 -64h-278l4 30q8 55 35.5 93.5t87.5 71.5l49 27q30 17 42.5 30.5t12.5 33.5q0 17 -11.5 26.5t-35.5 9.5q-22 0 -39.5 -10t-23.5 -26l-79 5q41 93 152 93q59 0 87.5 -26.5t28.5 -65.5t-23.5 -65t-68.5 -53l-55 -33
q-32 -19 -49 -36.5z" />
    <glyph glyph-name="uni00B3" unicode="&#xb3;" horiz-adv-x="434" 
d="M387 500q0 -56 -42 -89.5t-105 -33.5q-54 0 -88 24t-42 68l77 5q2 -16 15.5 -25.5t37.5 -9.5q33 0 52.5 17.5t19.5 48.5q0 45 -72 45h-42l8 55h28q85 0 85 61q0 17 -11.5 27t-34.5 10q-20 0 -37 -10t-23 -25l-74 5q17 43 56 67.5t92 24.5q51 0 80 -25t29 -65
q0 -64 -62 -94q53 -24 53 -81z" />
    <glyph glyph-name="acute" unicode="&#xb4;" horiz-adv-x="282" 
d="M164 590h-67l94 170h112z" />
    <glyph glyph-name="uni00B5" unicode="&#xb5;" horiz-adv-x="613" 
d="M569 515l-72 -515h-79l7 85q-37 -47 -88 -71.5t-107 -24.5q-59 0 -100 27l-29 -211h-85l98 690l3 20h85l-43 -305q-3 -19 -3 -38q0 -54 27.5 -82t80.5 -28q54 0 93 28.5t61 70.5t28 83l38 271h85z" />
    <glyph glyph-name="paragraph" unicode="&#xb6;" horiz-adv-x="760" 
d="M740 690h-75l-125 -885h-70l125 885h-143l-125 -885h-70l67 473q-60 0 -108 27t-75 74.5t-27 105.5q0 73 39 136.5t103.5 101t135.5 37.5h359z" />
    <glyph glyph-name="periodcentered" unicode="&#xb7;" horiz-adv-x="235" 
d="M88.5 340q-19.5 20 -19.5 47q0 28 19.5 47.5t47.5 19.5t47.5 -19.5t19.5 -47.5q0 -27 -19.5 -47t-47.5 -20t-47.5 20z" />
    <glyph glyph-name="cedilla" unicode="&#xb8;" horiz-adv-x="285" 
d="M160 -55.5q23 -18.5 23 -50.5q0 -48 -32.5 -73.5t-82.5 -25.5q-23 0 -45 5.5t-35 14.5l23 44q20 -12 45 -12q21 0 33.5 11t12.5 30q0 13 -8 20t-23 7q-19 0 -39 -13l-23 14l44 104h59l-20 -57h8q37 0 60 -18.5z" />
    <glyph glyph-name="uni00B9" unicode="&#xb9;" horiz-adv-x="313" 
d="M304 760l-54 -380h-78l39 282q-24 -8 -75 -8l8 62q49 0 72.5 10t31.5 34h56z" />
    <glyph glyph-name="ordmasculine" unicode="&#xba;" horiz-adv-x="494" 
d="M183.5 413.5q-37.5 21.5 -58.5 58.5t-21 81q0 62 28.5 111.5t77 77.5t106.5 28q49 0 86.5 -21.5t58 -58.5t20.5 -83q0 -61 -29 -110t-77.5 -77t-105.5 -28q-48 0 -85.5 21.5zM342 473.5q30 17.5 49 50t19 76.5q0 46 -29 76t-74 30q-33 0 -63.5 -17.5t-49.5 -50.5t-19 -77
q0 -46 29 -75.5t74 -29.5q34 0 64 17.5z" />
    <glyph glyph-name="guillemotright" unicode="&#xbb;" horiz-adv-x="480" 
d="M288 64h-90l138 208l-80 208h85l80 -212zM123 64h-90l138 208l-80 208h85l80 -212z" />
    <glyph glyph-name="onequarter" unicode="&#xbc;" horiz-adv-x="955" 
d="M304 760l-54 -380h-78l39 282q-24 -8 -75 -8l8 62q49 0 72.5 10t31.5 34h56zM709 760h96l-661 -760h-96zM853 98h-62l-14 -97h-74l14 97h-192l9 64l100 218h75l-100 -218h118l16 111h74l-16 -111h61z" />
    <glyph glyph-name="onehalf" unicode="&#xbd;" horiz-adv-x="915" 
d="M304 760l-54 -380h-78l39 282q-24 -8 -75 -8l8 62q49 0 72.5 10t31.5 34h56zM634 105.5q-17 -17.5 -24 -40.5h198l-10 -64h-278l4 30q8 55 35.5 93.5t87.5 71.5l49 27q30 17 42.5 30.5t12.5 33.5q0 17 -11.5 26.5t-35.5 9.5q-22 0 -39.5 -10t-23.5 -26l-79 5
q41 93 152 93q59 0 87.5 -26.5t28.5 -65.5t-23.5 -65t-68.5 -53l-55 -33q-32 -19 -49 -36.5zM709 760h96l-661 -760h-96z" />
    <glyph glyph-name="threequarters" unicode="&#xbe;" horiz-adv-x="1025" 
d="M387 500q0 -56 -42 -89.5t-105 -33.5q-54 0 -88 24t-42 68l77 5q2 -16 15.5 -25.5t37.5 -9.5q33 0 52.5 17.5t19.5 48.5q0 45 -72 45h-42l8 55h28q85 0 85 61q0 17 -11.5 27t-34.5 10q-20 0 -37 -10t-23 -25l-74 5q17 43 56 67.5t92 24.5q51 0 80 -25t29 -65
q0 -64 -62 -94q53 -24 53 -81zM779 760h96l-661 -760h-96zM923 98h-62l-14 -97h-74l14 97h-192l9 64l100 218h75l-100 -218h118l16 111h74l-16 -111h61z" />
    <glyph glyph-name="questiondown" unicode="&#xbf;" horiz-adv-x="580" 
d="M383 327q-8 -58 -23.5 -95.5t-46 -66t-84.5 -56.5l-37 -19q-83 -42 -83 -120q0 -50 33.5 -74t88.5 -24q103 0 175 82l66 -38q-48 -58 -108.5 -89.5t-139.5 -31.5q-96 0 -149.5 46.5t-53.5 123.5q0 62 36.5 109.5t107.5 84.5l31 16q46 24 66.5 54.5t29.5 81.5l7 44h88z
M401.5 555q19.5 -20 19.5 -47q0 -28 -19.5 -47.5t-47.5 -19.5t-47.5 19.5t-19.5 47.5q0 27 19.5 47t47.5 20t47.5 -20z" />
    <glyph glyph-name="Agrave" unicode="&#xc0;" horiz-adv-x="605" 
d="M453 136h-332l-61 -136h-91l356 760h97l142 -760h-88zM440 212l-78 463l-207 -463h285zM325 1005l94 -170h-67l-139 170h112z" />
    <glyph glyph-name="Aacute" unicode="&#xc1;" horiz-adv-x="605" 
d="M453 136h-332l-61 -136h-91l356 760h97l142 -760h-88zM440 212l-78 463l-207 -463h285zM420 835h-67l94 170h112z" />
    <glyph glyph-name="Acircumflex" unicode="&#xc2;" horiz-adv-x="605" 
d="M453 136h-332l-61 -136h-91l356 760h97l142 -760h-88zM440 212l-78 463l-207 -463h285zM461 837l-65 107l-97 -107h-104l168 168h74l120 -168h-96z" />
    <glyph glyph-name="Atilde" unicode="&#xc3;" horiz-adv-x="605" 
d="M453 136h-332l-61 -136h-91l356 760h97l142 -760h-88zM440 212l-78 463l-207 -463h285zM408.5 892q-18.5 9 -36.5 23q-16 12 -25.5 17t-18.5 5q-13 0 -28 -9.5t-27 -28.5l-56 27q45 75 122 75q25 0 44.5 -9t39.5 -24q16 -11 26 -16.5t19 -5.5q13 0 28 9.5t27 28.5l58 -21
q-26 -39 -59 -59.5t-71 -20.5q-24 0 -42.5 9z" />
    <glyph glyph-name="Adieresis" unicode="&#xc4;" horiz-adv-x="605" 
d="M453 136h-332l-61 -136h-91l356 760h97l142 -760h-88zM440 212l-78 463l-207 -463h285zM262.5 884q-16.5 17 -16.5 41q0 25 16.5 42t41.5 17q24 0 41 -17t17 -42q0 -24 -17 -41t-41 -17q-25 0 -41.5 17zM448.5 884q-16.5 17 -16.5 41q0 25 16.5 42t41.5 17q24 0 40.5 -17
t16.5 -42q0 -24 -16.5 -41t-40.5 -17q-25 0 -41.5 17z" />
    <glyph glyph-name="Aring" unicode="&#xc5;" horiz-adv-x="605" 
d="M453 136h-332l-61 -136h-91l356 760h97l142 -760h-88zM440 212l-78 463l-207 -463h285zM312 864q-32 32 -32 78q0 45 32 77t78 32t77.5 -32t31.5 -77q0 -46 -31.5 -78t-77.5 -32t-78 32zM431.5 898q17.5 18 17.5 44q0 25 -17.5 43t-41.5 18q-25 0 -42.5 -18t-17.5 -43
q0 -26 17.5 -44t42.5 -18q24 0 41.5 18z" />
    <glyph glyph-name="AE" unicode="&#xc6;" horiz-adv-x="921" 
d="M600 686l-36 -253h316l-9 -74h-317l-41 -285h327l-11 -74h-412l25 178h-272l-122 -178h-89l519 760h453l-11 -74h-320zM452 252l61 429l-293 -429h232z" />
    <glyph glyph-name="Ccedilla" unicode="&#xc7;" horiz-adv-x="820" 
d="M216 31q-74 41 -115.5 117t-41.5 177q0 120 57.5 222t156 162.5t216.5 60.5q85 0 153 -32.5t111.5 -91.5t56.5 -137l-89 -10q-19 92 -80.5 143t-154.5 51t-171 -50.5t-123 -134.5t-45 -181q0 -78 30 -137t85 -91t128 -32q96 0 175.5 53t122.5 143l86 -11
q-55 -121 -158 -191.5t-230 -70.5q-96 0 -170 41zM441 -55.5q23 -18.5 23 -50.5q0 -48 -32.5 -73.5t-82.5 -25.5q-23 0 -45 5.5t-35 14.5l23 44q20 -12 45 -12q21 0 33.5 11t12.5 30q0 13 -8 20t-23 7q-19 0 -39 -13l-23 14l44 104h59l-20 -57h8q37 0 60 -18.5z" />
    <glyph glyph-name="Egrave" unicode="&#xc8;" horiz-adv-x="546" 
d="M216 684l-35 -250h325l-10 -76h-326l-39 -282h334l-11 -76h-420l107 760h415l-11 -76h-329zM299 1005l94 -170h-67l-139 170h112z" />
    <glyph glyph-name="Eacute" unicode="&#xc9;" horiz-adv-x="546" 
d="M216 684l-35 -250h325l-10 -76h-326l-39 -282h334l-11 -76h-420l107 760h415l-11 -76h-329zM394 835h-67l94 170h112z" />
    <glyph glyph-name="Ecircumflex" unicode="&#xca;" horiz-adv-x="546" 
d="M216 684l-35 -250h325l-10 -76h-326l-39 -282h334l-11 -76h-420l107 760h415l-11 -76h-329zM435 837l-65 107l-97 -107h-104l168 168h74l120 -168h-96z" />
    <glyph glyph-name="Edieresis" unicode="&#xcb;" horiz-adv-x="546" 
d="M216 684l-35 -250h325l-10 -76h-326l-39 -282h334l-11 -76h-420l107 760h415l-11 -76h-329zM236.5 884q-16.5 17 -16.5 41q0 25 16.5 42t41.5 17q24 0 41 -17t17 -42q0 -24 -17 -41t-41 -17q-25 0 -41.5 17zM422.5 884q-16.5 17 -16.5 41q0 25 16.5 42t41.5 17
q24 0 40.5 -17t16.5 -42q0 -24 -16.5 -41t-40.5 -17q-25 0 -41.5 17z" />
    <glyph glyph-name="Igrave" unicode="&#xcc;" horiz-adv-x="226" 
d="M141 760h86l-107 -760h-86zM136 1005l94 -170h-67l-139 170h112z" />
    <glyph glyph-name="Iacute" unicode="&#xcd;" horiz-adv-x="226" 
d="M141 760h86l-107 -760h-86zM231 835h-67l94 170h112z" />
    <glyph glyph-name="Icircumflex" unicode="&#xce;" horiz-adv-x="226" 
d="M141 760h86l-107 -760h-86zM272 837l-65 107l-97 -107h-104l168 168h74l120 -168h-96z" />
    <glyph glyph-name="Idieresis" unicode="&#xcf;" horiz-adv-x="226" 
d="M141 760h86l-107 -760h-86zM73.5 884q-16.5 17 -16.5 41q0 25 16.5 42t41.5 17q24 0 41 -17t17 -42q0 -24 -17 -41t-41 -17q-25 0 -41.5 17zM259.5 884q-16.5 17 -16.5 41q0 25 16.5 42t41.5 17q24 0 40.5 -17t16.5 -42q0 -24 -16.5 -41t-40.5 -17q-25 0 -41.5 17z" />
    <glyph glyph-name="Eth" unicode="&#xd0;" horiz-adv-x="791" 
d="M607 718.5q75 -41.5 117.5 -114t42.5 -162.5q0 -127 -57 -228t-156.5 -157.5t-222.5 -56.5h-261l51 359h-95l9 74h96l46 327h261q94 0 169 -41.5zM509.5 123.5q79.5 47.5 124.5 128.5t45 178q0 76 -32 133.5t-90 89t-135 31.5h-170l-35 -251h249l-9 -74h-250l-40 -283
h165q98 0 177.5 47.5z" />
    <glyph glyph-name="Ntilde" unicode="&#xd1;" horiz-adv-x="660" 
d="M661 760l-107 -760h-85l-263 621l-87 -621h-85l107 760h85l263 -621l87 621h85zM436.5 892q-18.5 9 -36.5 23q-16 12 -25.5 17t-18.5 5q-13 0 -28 -9.5t-27 -28.5l-56 27q45 75 122 75q25 0 44.5 -9t39.5 -24q16 -11 26 -16.5t19 -5.5q13 0 28 9.5t27 28.5l58 -21
q-26 -39 -59 -59.5t-71 -20.5q-24 0 -42.5 9z" />
    <glyph glyph-name="Ograve" unicode="&#xd2;" horiz-adv-x="841" 
d="M214 32q-74 42 -114.5 118.5t-40.5 176.5q0 122 58.5 223.5t157.5 160.5t215 59q97 0 171 -42t114.5 -118.5t40.5 -176.5q0 -122 -58.5 -223.5t-157.5 -160.5t-215 -59q-97 0 -171 42zM560 117.5q78 50.5 123 135t45 181.5q0 77 -29.5 136t-84.5 91t-128 32
q-93 0 -171 -50.5t-123 -135t-45 -181.5q0 -77 29.5 -136t84.5 -91t128 -32q93 0 171 50.5zM444 1005l94 -170h-67l-139 170h112z" />
    <glyph glyph-name="Oacute" unicode="&#xd3;" horiz-adv-x="841" 
d="M214 32q-74 42 -114.5 118.5t-40.5 176.5q0 122 58.5 223.5t157.5 160.5t215 59q97 0 171 -42t114.5 -118.5t40.5 -176.5q0 -122 -58.5 -223.5t-157.5 -160.5t-215 -59q-97 0 -171 42zM560 117.5q78 50.5 123 135t45 181.5q0 77 -29.5 136t-84.5 91t-128 32
q-93 0 -171 -50.5t-123 -135t-45 -181.5q0 -77 29.5 -136t84.5 -91t128 -32q93 0 171 50.5zM539 835h-67l94 170h112z" />
    <glyph glyph-name="Ocircumflex" unicode="&#xd4;" horiz-adv-x="841" 
d="M214 32q-74 42 -114.5 118.5t-40.5 176.5q0 122 58.5 223.5t157.5 160.5t215 59q97 0 171 -42t114.5 -118.5t40.5 -176.5q0 -122 -58.5 -223.5t-157.5 -160.5t-215 -59q-97 0 -171 42zM560 117.5q78 50.5 123 135t45 181.5q0 77 -29.5 136t-84.5 91t-128 32
q-93 0 -171 -50.5t-123 -135t-45 -181.5q0 -77 29.5 -136t84.5 -91t128 -32q93 0 171 50.5zM580 837l-65 107l-97 -107h-104l168 168h74l120 -168h-96z" />
    <glyph glyph-name="Otilde" unicode="&#xd5;" horiz-adv-x="841" 
d="M214 32q-74 42 -114.5 118.5t-40.5 176.5q0 122 58.5 223.5t157.5 160.5t215 59q97 0 171 -42t114.5 -118.5t40.5 -176.5q0 -122 -58.5 -223.5t-157.5 -160.5t-215 -59q-97 0 -171 42zM560 117.5q78 50.5 123 135t45 181.5q0 77 -29.5 136t-84.5 91t-128 32
q-93 0 -171 -50.5t-123 -135t-45 -181.5q0 -77 29.5 -136t84.5 -91t128 -32q93 0 171 50.5zM527.5 892q-18.5 9 -36.5 23q-16 12 -25.5 17t-18.5 5q-13 0 -28 -9.5t-27 -28.5l-56 27q45 75 122 75q25 0 44.5 -9t39.5 -24q16 -11 26 -16.5t19 -5.5q13 0 28 9.5t27 28.5
l58 -21q-26 -39 -59 -59.5t-71 -20.5q-24 0 -42.5 9z" />
    <glyph glyph-name="Odieresis" unicode="&#xd6;" horiz-adv-x="841" 
d="M214 32q-74 42 -114.5 118.5t-40.5 176.5q0 122 58.5 223.5t157.5 160.5t215 59q97 0 171 -42t114.5 -118.5t40.5 -176.5q0 -122 -58.5 -223.5t-157.5 -160.5t-215 -59q-97 0 -171 42zM560 117.5q78 50.5 123 135t45 181.5q0 77 -29.5 136t-84.5 91t-128 32
q-93 0 -171 -50.5t-123 -135t-45 -181.5q0 -77 29.5 -136t84.5 -91t128 -32q93 0 171 50.5zM381.5 884q-16.5 17 -16.5 41q0 25 16.5 42t41.5 17q24 0 41 -17t17 -42q0 -24 -17 -41t-41 -17q-25 0 -41.5 17zM567.5 884q-16.5 17 -16.5 41q0 25 16.5 42t41.5 17
q24 0 40.5 -17t16.5 -42q0 -24 -16.5 -41t-40.5 -17q-25 0 -41.5 17z" />
    <glyph glyph-name="multiply" unicode="&#xd7;" horiz-adv-x="521" 
d="M312 264l111 -130l-57 -50l-112 130l-148 -130l-43 50l149 130l-112 130l57 51l112 -131l148 130l43 -50z" />
    <glyph glyph-name="Oslash" unicode="&#xd8;" horiz-adv-x="841" 
d="M793.5 570q22.5 -62 22.5 -137q0 -122 -58.5 -223.5t-157.5 -160.5t-215 -59q-104 0 -184 50l-49 -60h-89l85 103q-43 45 -66 107t-23 137q0 122 58.5 223.5t157.5 160.5t215 59q106 0 184 -50l50 60h89l-85 -103q43 -45 65.5 -107zM203 149l419 507q-59 37 -136 37
q-93 0 -171 -50.5t-123 -135t-45 -181.5q0 -107 56 -177zM560 117.5q78 50.5 123 135t45 181.5q0 53 -14 98t-41 78l-419 -507q58 -36 135 -36q93 0 171 50.5z" />
    <glyph glyph-name="Ugrave" unicode="&#xd9;" horiz-adv-x="670" 
d="M127.5 52.5q-63.5 62.5 -63.5 172.5q0 23 5 63l67 472h86l-68 -478q-5 -35 -5 -56q0 -75 41 -117t117 -42q91 0 145.5 55.5t69.5 160.5l68 477h86l-67 -472q-21 -151 -95.5 -224.5t-212.5 -73.5q-110 0 -173.5 62.5zM358 1005l94 -170h-67l-139 170h112z" />
    <glyph glyph-name="Uacute" unicode="&#xda;" horiz-adv-x="670" 
d="M127.5 52.5q-63.5 62.5 -63.5 172.5q0 23 5 63l67 472h86l-68 -478q-5 -35 -5 -56q0 -75 41 -117t117 -42q91 0 145.5 55.5t69.5 160.5l68 477h86l-67 -472q-21 -151 -95.5 -224.5t-212.5 -73.5q-110 0 -173.5 62.5zM453 835h-67l94 170h112z" />
    <glyph glyph-name="Ucircumflex" unicode="&#xdb;" horiz-adv-x="670" 
d="M127.5 52.5q-63.5 62.5 -63.5 172.5q0 23 5 63l67 472h86l-68 -478q-5 -35 -5 -56q0 -75 41 -117t117 -42q91 0 145.5 55.5t69.5 160.5l68 477h86l-67 -472q-21 -151 -95.5 -224.5t-212.5 -73.5q-110 0 -173.5 62.5zM494 837l-65 107l-97 -107h-104l168 168h74l120 -168
h-96z" />
    <glyph glyph-name="Udieresis" unicode="&#xdc;" horiz-adv-x="670" 
d="M127.5 52.5q-63.5 62.5 -63.5 172.5q0 23 5 63l67 472h86l-68 -478q-5 -35 -5 -56q0 -75 41 -117t117 -42q91 0 145.5 55.5t69.5 160.5l68 477h86l-67 -472q-21 -151 -95.5 -224.5t-212.5 -73.5q-110 0 -173.5 62.5zM295.5 884q-16.5 17 -16.5 41q0 25 16.5 42t41.5 17
q24 0 41 -17t17 -42q0 -24 -17 -41t-41 -17q-25 0 -41.5 17zM481.5 884q-16.5 17 -16.5 41q0 25 16.5 42t41.5 17q24 0 40.5 -17t16.5 -42q0 -24 -16.5 -41t-40.5 -17q-25 0 -41.5 17z" />
    <glyph glyph-name="Yacute" unicode="&#xdd;" 
d="M631 760l-492 -760h-91l209 323l-176 437h89l139 -357l231 357h91zM387 835h-67l94 170h112z" />
    <glyph glyph-name="Thorn" unicode="&#xde;" horiz-adv-x="625" 
d="M542 593.5q63 -56.5 63 -165.5q0 -84 -36.5 -152t-104.5 -107t-160 -39h-166l-18 -130h-86l107 760h86l-15 -110h151q116 0 179 -56.5zM421 234.5q48 28.5 72.5 78t24.5 112.5q0 76 -40 112.5t-130 36.5h-147l-52 -368h156q68 0 116 28.5z" />
    <glyph glyph-name="germandbls" unicode="&#xdf;" horiz-adv-x="575" 
d="M485.5 359q38.5 -50 38.5 -123q0 -72 -34 -128t-93 -87t-131 -31q-62 0 -106 18l25 67q29 -11 78 -11q48 0 88 19t64 56t24 88q0 71 -44 108.5t-116 37.5h-31l9 68q74 18 118 62t44 101q0 41 -24 66t-70 25q-53 0 -86.5 -33t-42.5 -94l-82 -568h-85l82 577
q14 98 75 145.5t147 47.5q77 0 124 -41.5t47 -110.5q0 -58 -31 -106.5t-91 -82.5q65 -20 103.5 -70z" />
    <glyph glyph-name="agrave" unicode="&#xe0;" horiz-adv-x="620" 
d="M591 515l-72 -515h-76l7 87q-33 -44 -84 -70.5t-111 -26.5q-59 0 -108 29t-77.5 81.5t-28.5 120.5q0 89 39.5 158.5t105.5 107.5t141 38q58 0 101.5 -25t66.5 -69l12 84h84zM374 95.5q48 30.5 76 82t28 112.5q0 72 -39.5 116t-108.5 44q-54 0 -100.5 -27t-75 -78
t-28.5 -118q0 -76 39 -119t105 -43q56 0 104 30.5zM281 760l94 -170h-67l-139 170h112z" />
    <glyph glyph-name="aacute" unicode="&#xe1;" horiz-adv-x="620" 
d="M591 515l-72 -515h-76l7 87q-33 -44 -84 -70.5t-111 -26.5q-59 0 -108 29t-77.5 81.5t-28.5 120.5q0 89 39.5 158.5t105.5 107.5t141 38q58 0 101.5 -25t66.5 -69l12 84h84zM374 95.5q48 30.5 76 82t28 112.5q0 72 -39.5 116t-108.5 44q-54 0 -100.5 -27t-75 -78
t-28.5 -118q0 -76 39 -119t105 -43q56 0 104 30.5zM376 590h-67l94 170h112z" />
    <glyph glyph-name="acircumflex" unicode="&#xe2;" horiz-adv-x="620" 
d="M591 515l-72 -515h-76l7 87q-33 -44 -84 -70.5t-111 -26.5q-59 0 -108 29t-77.5 81.5t-28.5 120.5q0 89 39.5 158.5t105.5 107.5t141 38q58 0 101.5 -25t66.5 -69l12 84h84zM374 95.5q48 30.5 76 82t28 112.5q0 72 -39.5 116t-108.5 44q-54 0 -100.5 -27t-75 -78
t-28.5 -118q0 -76 39 -119t105 -43q56 0 104 30.5zM417 592l-65 107l-97 -107h-104l168 168h74l120 -168h-96z" />
    <glyph glyph-name="atilde" unicode="&#xe3;" horiz-adv-x="620" 
d="M591 515l-72 -515h-76l7 87q-33 -44 -84 -70.5t-111 -26.5q-59 0 -108 29t-77.5 81.5t-28.5 120.5q0 89 39.5 158.5t105.5 107.5t141 38q58 0 101.5 -25t66.5 -69l12 84h84zM374 95.5q48 30.5 76 82t28 112.5q0 72 -39.5 116t-108.5 44q-54 0 -100.5 -27t-75 -78
t-28.5 -118q0 -76 39 -119t105 -43q56 0 104 30.5zM364.5 647q-18.5 9 -36.5 23q-16 12 -25.5 17t-18.5 5q-13 0 -28 -9.5t-27 -28.5l-56 27q45 75 122 75q25 0 44.5 -9t39.5 -24q16 -11 26 -16.5t19 -5.5q13 0 28 9.5t27 28.5l58 -21q-26 -39 -59 -59.5t-71 -20.5
q-24 0 -42.5 9z" />
    <glyph glyph-name="adieresis" unicode="&#xe4;" horiz-adv-x="620" 
d="M591 515l-72 -515h-76l7 87q-33 -44 -84 -70.5t-111 -26.5q-59 0 -108 29t-77.5 81.5t-28.5 120.5q0 89 39.5 158.5t105.5 107.5t141 38q58 0 101.5 -25t66.5 -69l12 84h84zM374 95.5q48 30.5 76 82t28 112.5q0 72 -39.5 116t-108.5 44q-54 0 -100.5 -27t-75 -78
t-28.5 -118q0 -76 39 -119t105 -43q56 0 104 30.5zM218.5 639q-16.5 17 -16.5 41q0 25 16.5 42t41.5 17q24 0 41 -17t17 -42q0 -24 -17 -41t-41 -17q-25 0 -41.5 17zM404.5 639q-16.5 17 -16.5 41q0 25 16.5 42t41.5 17q24 0 40.5 -17t16.5 -42q0 -24 -16.5 -41t-40.5 -17
q-25 0 -41.5 17z" />
    <glyph glyph-name="aring" unicode="&#xe5;" horiz-adv-x="620" 
d="M591 515l-72 -515h-76l7 87q-33 -44 -84 -70.5t-111 -26.5q-59 0 -108 29t-77.5 81.5t-28.5 120.5q0 89 39.5 158.5t105.5 107.5t141 38q58 0 101.5 -25t66.5 -69l12 84h84zM374 95.5q48 30.5 76 82t28 112.5q0 72 -39.5 116t-108.5 44q-54 0 -100.5 -27t-75 -78
t-28.5 -118q0 -76 39 -119t105 -43q56 0 104 30.5zM268 619q-32 32 -32 78q0 45 32 77t78 32t77.5 -32t31.5 -77q0 -46 -31.5 -78t-77.5 -32t-78 32zM387.5 653q17.5 18 17.5 44q0 25 -17.5 43t-41.5 18q-25 0 -42.5 -18t-17.5 -43q0 -26 17.5 -44t42.5 -18q24 0 41.5 18z
" />
    <glyph glyph-name="ae" unicode="&#xe6;" horiz-adv-x="936" 
d="M492 234v-16q0 -73 39 -113t104 -40q50 0 91 24t68 65l83 -10q-42 -74 -106.5 -114t-144.5 -40q-68 0 -119 29.5t-78 82.5q-33 -54 -90.5 -83t-136.5 -29q-81 0 -129.5 35.5t-48.5 106.5q0 95 70.5 133.5t179.5 38.5h141q4 32 4 38q0 59 -33.5 83.5t-82.5 24.5
q-51 0 -87 -21t-62 -59l-85 11q39 69 98 106.5t152 37.5q57 0 102.5 -21.5t66.5 -69.5q38 43 90 67t112 24q98 0 150 -60t52 -152q0 -20 -2 -42.5t-5 -36.5h-393zM568 410q-45 -40 -64 -106h303v6q0 68 -34 104t-94 36q-66 0 -111 -40zM339 97.5q53 39.5 63 109.5l3 20l1 7
h-140q-91 0 -124.5 -24.5t-33.5 -70.5q0 -40 28 -60.5t81 -20.5q69 0 122 39.5z" />
    <glyph glyph-name="ccedilla" unicode="&#xe7;" horiz-adv-x="581" 
d="M146.5 19q-50.5 29 -78 80.5t-27.5 116.5q0 90 38.5 160.5t105.5 109.5t150 39q87 0 146 -47t73 -126l-87 -9q-10 51 -45.5 79t-87.5 28q-63 0 -110 -30t-72.5 -81t-25.5 -114q0 -74 39 -117t107 -43q56 0 104.5 30.5t71.5 84.5l81 -9q-31 -84 -100.5 -132.5
t-166.5 -48.5q-65 0 -115.5 29zM327 -55.5q23 -18.5 23 -50.5q0 -48 -32.5 -73.5t-82.5 -25.5q-23 0 -45 5.5t-35 14.5l23 44q20 -12 45 -12q21 0 33.5 11t12.5 30q0 13 -8 20t-23 7q-19 0 -39 -13l-23 14l44 104h59l-20 -57h8q37 0 60 -18.5z" />
    <glyph glyph-name="egrave" unicode="&#xe8;" horiz-adv-x="585" 
d="M126 226v-7q0 -72 40 -113t101 -41q58 0 102 26t72 70l84 -10q-41 -77 -109 -119t-153 -42q-66 0 -116.5 30t-78 81.5t-27.5 114.5q0 86 37 157t103.5 111.5t150.5 40.5q69 0 117 -29t72 -78.5t24 -110.5q0 -15 -2 -39t-5 -42h-412zM209.5 409.5
q-52.5 -40.5 -73.5 -111.5h324v4q0 72 -34.5 110t-95.5 38q-68 0 -120.5 -40.5zM279 760l94 -170h-67l-139 170h112z" />
    <glyph glyph-name="eacute" unicode="&#xe9;" horiz-adv-x="585" 
d="M126 226v-7q0 -72 40 -113t101 -41q58 0 102 26t72 70l84 -10q-41 -77 -109 -119t-153 -42q-66 0 -116.5 30t-78 81.5t-27.5 114.5q0 86 37 157t103.5 111.5t150.5 40.5q69 0 117 -29t72 -78.5t24 -110.5q0 -15 -2 -39t-5 -42h-412zM209.5 409.5
q-52.5 -40.5 -73.5 -111.5h324v4q0 72 -34.5 110t-95.5 38q-68 0 -120.5 -40.5zM374 590h-67l94 170h112z" />
    <glyph glyph-name="ecircumflex" unicode="&#xea;" horiz-adv-x="585" 
d="M126 226v-7q0 -72 40 -113t101 -41q58 0 102 26t72 70l84 -10q-41 -77 -109 -119t-153 -42q-66 0 -116.5 30t-78 81.5t-27.5 114.5q0 86 37 157t103.5 111.5t150.5 40.5q69 0 117 -29t72 -78.5t24 -110.5q0 -15 -2 -39t-5 -42h-412zM209.5 409.5
q-52.5 -40.5 -73.5 -111.5h324v4q0 72 -34.5 110t-95.5 38q-68 0 -120.5 -40.5zM415 592l-65 107l-97 -107h-104l168 168h74l120 -168h-96z" />
    <glyph glyph-name="edieresis" unicode="&#xeb;" horiz-adv-x="585" 
d="M126 226v-7q0 -72 40 -113t101 -41q58 0 102 26t72 70l84 -10q-41 -77 -109 -119t-153 -42q-66 0 -116.5 30t-78 81.5t-27.5 114.5q0 86 37 157t103.5 111.5t150.5 40.5q69 0 117 -29t72 -78.5t24 -110.5q0 -15 -2 -39t-5 -42h-412zM209.5 409.5
q-52.5 -40.5 -73.5 -111.5h324v4q0 72 -34.5 110t-95.5 38q-68 0 -120.5 -40.5zM216.5 639q-16.5 17 -16.5 41q0 25 16.5 42t41.5 17q24 0 41 -17t17 -42q0 -24 -17 -41t-41 -17q-25 0 -41.5 17zM402.5 639q-16.5 17 -16.5 41q0 25 16.5 42t41.5 17q24 0 40.5 -17t16.5 -42
q0 -24 -16.5 -41t-40.5 -17q-25 0 -41.5 17z" />
    <glyph glyph-name="igrave" unicode="&#xec;" horiz-adv-x="215" 
d="M101 515h85l-72 -515h-85zM96 760l94 -170h-67l-139 170h112z" />
    <glyph glyph-name="iacute" unicode="&#xed;" horiz-adv-x="215" 
d="M101 515h85l-72 -515h-85zM191 590h-67l94 170h112z" />
    <glyph glyph-name="icircumflex" unicode="&#xee;" horiz-adv-x="215" 
d="M101 515h85l-72 -515h-85zM209 592l-37 102l-67 -102h-101l138 168h74l90 -168h-97z" />
    <glyph glyph-name="idieresis" unicode="&#xef;" horiz-adv-x="215" 
d="M101 515h85l-72 -515h-85zM33.5 639q-16.5 17 -16.5 41q0 25 16.5 42t41.5 17q24 0 41 -17t17 -42q0 -24 -17 -41t-41 -17q-25 0 -41.5 17zM219.5 639q-16.5 17 -16.5 41q0 25 16.5 42t41.5 17q24 0 40.5 -17t16.5 -42q0 -24 -16.5 -41t-40.5 -17q-25 0 -41.5 17z" />
    <glyph glyph-name="eth" unicode="&#xf0;" horiz-adv-x="614" 
d="M533 639q51 -85 51 -221q0 -126 -37 -222.5t-111.5 -151t-181.5 -54.5q-56 0 -105.5 27t-79 78.5t-29.5 119.5q0 76 37 140.5t102 102t143 37.5q60 0 109 -23.5t76 -68.5q1 9 1 26q0 106 -49 177l-110 -49l-20 58l86 39q-46 38 -114 54l27 62q106 -21 166 -81l102 45
l21 -58zM369.5 93.5q47.5 28.5 76.5 77t29 103.5q0 67 -43 106.5t-109 39.5q-53 0 -98.5 -25.5t-72.5 -71t-27 -102.5q0 -72 42 -114t104 -42q51 0 98.5 28.5z" />
    <glyph glyph-name="ntilde" unicode="&#xf1;" horiz-adv-x="570" 
d="M480.5 479.5q41.5 -45.5 41.5 -116.5q0 -20 -4 -48l-44 -315h-85l43 308q4 30 4 42q0 52 -25 77.5t-80 25.5q-74 0 -118 -49.5t-59 -114.5l-40 -289h-85l72 515h77l-5 -90q33 49 81.5 74.5t104.5 25.5q80 0 121.5 -45.5zM370.5 647q-18.5 9 -36.5 23q-16 12 -25.5 17
t-18.5 5q-13 0 -28 -9.5t-27 -28.5l-56 27q45 75 122 75q25 0 44.5 -9t39.5 -24q16 -11 26 -16.5t19 -5.5q13 0 28 9.5t27 28.5l58 -21q-26 -39 -59 -59.5t-71 -20.5q-24 0 -42.5 9z" />
    <glyph glyph-name="ograve" unicode="&#xf2;" horiz-adv-x="602" 
d="M148.5 19q-50.5 29 -79 81t-28.5 118q0 89 38.5 159t106 109t152.5 39q65 0 116 -29t79 -81t28 -118q0 -89 -38 -159t-105.5 -109t-153.5 -39q-65 0 -115.5 29zM372.5 93q47.5 28 75.5 79.5t28 118.5q0 76 -39 117.5t-104 41.5q-56 0 -103.5 -28t-75.5 -79.5t-28 -118.5
q0 -76 39 -117.5t104 -41.5q56 0 103.5 28zM289 761l94 -170h-67l-139 170h112z" />
    <glyph glyph-name="oacute" unicode="&#xf3;" horiz-adv-x="602" 
d="M148.5 19q-50.5 29 -79 81t-28.5 118q0 89 38.5 159t106 109t152.5 39q65 0 116 -29t79 -81t28 -118q0 -89 -38 -159t-105.5 -109t-153.5 -39q-65 0 -115.5 29zM372.5 93q47.5 28 75.5 79.5t28 118.5q0 76 -39 117.5t-104 41.5q-56 0 -103.5 -28t-75.5 -79.5t-28 -118.5
q0 -76 39 -117.5t104 -41.5q56 0 103.5 28zM384 591h-67l94 170h112z" />
    <glyph glyph-name="ocircumflex" unicode="&#xf4;" horiz-adv-x="602" 
d="M148.5 19q-50.5 29 -79 81t-28.5 118q0 89 38.5 159t106 109t152.5 39q65 0 116 -29t79 -81t28 -118q0 -89 -38 -159t-105.5 -109t-153.5 -39q-65 0 -115.5 29zM372.5 93q47.5 28 75.5 79.5t28 118.5q0 76 -39 117.5t-104 41.5q-56 0 -103.5 -28t-75.5 -79.5t-28 -118.5
q0 -76 39 -117.5t104 -41.5q56 0 103.5 28zM425 593l-65 107l-97 -107h-104l168 168h74l120 -168h-96z" />
    <glyph glyph-name="otilde" unicode="&#xf5;" horiz-adv-x="602" 
d="M148.5 19q-50.5 29 -79 81t-28.5 118q0 89 38.5 159t106 109t152.5 39q65 0 116 -29t79 -81t28 -118q0 -89 -38 -159t-105.5 -109t-153.5 -39q-65 0 -115.5 29zM372.5 93q47.5 28 75.5 79.5t28 118.5q0 76 -39 117.5t-104 41.5q-56 0 -103.5 -28t-75.5 -79.5t-28 -118.5
q0 -76 39 -117.5t104 -41.5q56 0 103.5 28zM372.5 648q-18.5 9 -36.5 23q-16 12 -25.5 17t-18.5 5q-13 0 -28 -9.5t-27 -28.5l-56 27q45 75 122 75q25 0 44.5 -9t39.5 -24q16 -11 26 -16.5t19 -5.5q13 0 28 9.5t27 28.5l58 -21q-26 -39 -59 -59.5t-71 -20.5q-24 0 -42.5 9z
" />
    <glyph glyph-name="odieresis" unicode="&#xf6;" horiz-adv-x="602" 
d="M148.5 19q-50.5 29 -79 81t-28.5 118q0 89 38.5 159t106 109t152.5 39q65 0 116 -29t79 -81t28 -118q0 -89 -38 -159t-105.5 -109t-153.5 -39q-65 0 -115.5 29zM372.5 93q47.5 28 75.5 79.5t28 118.5q0 76 -39 117.5t-104 41.5q-56 0 -103.5 -28t-75.5 -79.5t-28 -118.5
q0 -76 39 -117.5t104 -41.5q56 0 103.5 28zM226.5 640q-16.5 17 -16.5 41q0 25 16.5 42t41.5 17q24 0 41 -17t17 -42q0 -24 -17 -41t-41 -17q-25 0 -41.5 17zM412.5 640q-16.5 17 -16.5 41q0 25 16.5 42t41.5 17q24 0 40.5 -17t16.5 -42q0 -24 -16.5 -41t-40.5 -17
q-25 0 -41.5 17z" />
    <glyph glyph-name="divide" unicode="&#xf7;" horiz-adv-x="561" 
d="M247 383.5q-18 18.5 -18 44.5t18 44.5t44 18.5t44.5 -18.5t18.5 -44.5t-18.5 -44.5t-44.5 -18.5t-44 18.5zM86 300h399l-8 -72h-399zM227 48.5q-18 18.5 -18 44.5t18 44t44 18t44.5 -18t18.5 -44t-18.5 -44.5t-44.5 -18.5t-44 18.5z" />
    <glyph glyph-name="oslash" unicode="&#xf8;" horiz-adv-x="602" 
d="M505 454q27 -29 41.5 -69.5t14.5 -87.5q0 -89 -38 -159t-105.5 -109t-153.5 -39q-64 0 -118 30l-33 -40h-84l67 81q-55 63 -55 157q0 89 38.5 159t106 109t152.5 39q65 0 117 -30l33 40h84zM150 126l254 308q-32 16 -71 16q-56 0 -103.5 -28t-75.5 -79.5t-28 -118.5
q0 -56 24 -98zM452 389l-255 -307q32 -17 72 -17q56 0 103.5 28t75.5 79.5t28 118.5q0 58 -24 98z" />
    <glyph glyph-name="ugrave" unicode="&#xf9;" 
d="M531 515l-72 -515h-77l7 90q-33 -49 -80.5 -74.5t-102.5 -25.5q-51 0 -86.5 21.5t-53.5 57.5t-18 78q0 21 3 42l45 326h85l-44 -317q-3 -22 -3 -41q0 -51 27.5 -73t80.5 -22q69 0 110 50.5t54 115.5l40 287h85zM268 760l94 -170h-67l-139 170h112z" />
    <glyph glyph-name="uacute" unicode="&#xfa;" 
d="M531 515l-72 -515h-77l7 90q-33 -49 -80.5 -74.5t-102.5 -25.5q-51 0 -86.5 21.5t-53.5 57.5t-18 78q0 21 3 42l45 326h85l-44 -317q-3 -22 -3 -41q0 -51 27.5 -73t80.5 -22q69 0 110 50.5t54 115.5l40 287h85zM363 590h-67l94 170h112z" />
    <glyph glyph-name="ucircumflex" unicode="&#xfb;" 
d="M531 515l-72 -515h-77l7 90q-33 -49 -80.5 -74.5t-102.5 -25.5q-51 0 -86.5 21.5t-53.5 57.5t-18 78q0 21 3 42l45 326h85l-44 -317q-3 -22 -3 -41q0 -51 27.5 -73t80.5 -22q69 0 110 50.5t54 115.5l40 287h85zM404 592l-65 107l-97 -107h-104l168 168h74l120 -168h-96z
" />
    <glyph glyph-name="udieresis" unicode="&#xfc;" 
d="M531 515l-72 -515h-77l7 90q-33 -49 -80.5 -74.5t-102.5 -25.5q-51 0 -86.5 21.5t-53.5 57.5t-18 78q0 21 3 42l45 326h85l-44 -317q-3 -22 -3 -41q0 -51 27.5 -73t80.5 -22q69 0 110 50.5t54 115.5l40 287h85zM205.5 639q-16.5 17 -16.5 41q0 25 16.5 42t41.5 17
q24 0 41 -17t17 -42q0 -24 -17 -41t-41 -17q-25 0 -41.5 17zM391.5 639q-16.5 17 -16.5 41q0 25 16.5 42t41.5 17q24 0 40.5 -17t16.5 -42q0 -24 -16.5 -41t-40.5 -17q-25 0 -41.5 17z" />
    <glyph glyph-name="yacute" unicode="&#xfd;" horiz-adv-x="561" 
d="M531 515l-65 -468q-17 -121 -83 -186.5t-174 -65.5q-76 0 -124 32.5t-60 85.5l82 16q7 -31 34 -47.5t72 -16.5q143 0 168 181l6 41q-33 -48 -80 -72.5t-101 -24.5q-51 0 -86.5 21.5t-53.5 57.5t-18 78q0 21 3 42l45 326h85l-44 -317q-3 -22 -3 -41q0 -51 27.5 -73
t80.5 -22q50 0 85.5 28t55 69t25.5 82l38 274h85zM366 590h-67l94 170h112z" />
    <glyph glyph-name="thorn" unicode="&#xfe;" horiz-adv-x="621" 
d="M478 495.5q48 -29.5 75 -81.5t27 -117q0 -90 -39.5 -160t-105 -108.5t-141.5 -38.5q-58 0 -101.5 23.5t-67.5 65.5l-39 -274h-85l135 955h85l-47 -327q35 43 85 67.5t109 24.5q62 0 110 -29.5zM392.5 93q46.5 28 74.5 79t28 118q0 76 -39.5 118t-106.5 42
q-58 0 -105 -30.5t-74 -81.5t-27 -111q0 -73 40 -117.5t109 -44.5q54 0 100.5 28z" />
    <glyph glyph-name="ydieresis" unicode="&#xff;" horiz-adv-x="561" 
d="M531 515l-65 -468q-17 -121 -83 -186.5t-174 -65.5q-76 0 -124 32.5t-60 85.5l82 16q7 -31 34 -47.5t72 -16.5q143 0 168 181l6 41q-33 -48 -80 -72.5t-101 -24.5q-51 0 -86.5 21.5t-53.5 57.5t-18 78q0 21 3 42l45 326h85l-44 -317q-3 -22 -3 -41q0 -51 27.5 -73
t80.5 -22q50 0 85.5 28t55 69t25.5 82l38 274h85zM208.5 639q-16.5 17 -16.5 41q0 25 16.5 42t41.5 17q24 0 41 -17t17 -42q0 -24 -17 -41t-41 -17q-25 0 -41.5 17zM394.5 639q-16.5 17 -16.5 41q0 25 16.5 42t41.5 17q24 0 40.5 -17t16.5 -42q0 -24 -16.5 -41t-40.5 -17
q-25 0 -41.5 17z" />
    <glyph glyph-name="Amacron" unicode="&#x100;" horiz-adv-x="605" 
d="M453 136h-332l-61 -136h-91l356 760h97l142 -760h-88zM440 212l-78 463l-207 -463h285zM265 967h275l-9 -67h-275z" />
    <glyph glyph-name="amacron" unicode="&#x101;" horiz-adv-x="620" 
d="M591 515l-72 -515h-76l7 87q-33 -44 -84 -70.5t-111 -26.5q-59 0 -108 29t-77.5 81.5t-28.5 120.5q0 89 39.5 158.5t105.5 107.5t141 38q58 0 101.5 -25t66.5 -69l12 84h84zM374 95.5q48 30.5 76 82t28 112.5q0 72 -39.5 116t-108.5 44q-54 0 -100.5 -27t-75 -78
t-28.5 -118q0 -76 39 -119t105 -43q56 0 104 30.5zM221 722h275l-9 -67h-275z" />
    <glyph glyph-name="Abreve" unicode="&#x102;" horiz-adv-x="605" 
d="M453 136h-332l-61 -136h-91l356 760h97l142 -760h-88zM440 212l-78 463l-207 -463h285zM270.5 876.5q-39.5 43.5 -39.5 128.5h65q0 -51 26.5 -78t68.5 -27q82 0 117 105h65q-20 -86 -69 -129t-121 -43q-73 0 -112.5 43.5z" />
    <glyph glyph-name="abreve" unicode="&#x103;" horiz-adv-x="620" 
d="M591 515l-72 -515h-76l7 87q-33 -44 -84 -70.5t-111 -26.5q-59 0 -108 29t-77.5 81.5t-28.5 120.5q0 89 39.5 158.5t105.5 107.5t141 38q58 0 101.5 -25t66.5 -69l12 84h84zM374 95.5q48 30.5 76 82t28 112.5q0 72 -39.5 116t-108.5 44q-54 0 -100.5 -27t-75 -78
t-28.5 -118q0 -76 39 -119t105 -43q56 0 104 30.5zM226.5 631.5q-39.5 43.5 -39.5 128.5h65q0 -51 26.5 -78t68.5 -27q82 0 117 105h65q-20 -86 -69 -129t-121 -43q-73 0 -112.5 43.5z" />
    <glyph glyph-name="Aogonek" unicode="&#x104;" horiz-adv-x="605" 
d="M453 136h-332l-61 -136h-91l356 760h97l142 -760h-88zM440 212l-78 463l-207 -463h285zM475 -28.5q-25 -22.5 -25 -57.5q0 -54 67 -54q18 0 44 6l-5 -57q-28 -14 -69 -14q-51 0 -82 24.5t-31 71.5q0 59 47 95t110 48l3 -29q-34 -11 -59 -33.5z" />
    <glyph glyph-name="aogonek" unicode="&#x105;" horiz-adv-x="620" 
d="M591 515l-72 -515h-76l7 87q-33 -44 -84 -70.5t-111 -26.5q-59 0 -108 29t-77.5 81.5t-28.5 120.5q0 89 39.5 158.5t105.5 107.5t141 38q58 0 101.5 -25t66.5 -69l12 84h84zM374 95.5q48 30.5 76 82t28 112.5q0 72 -39.5 116t-108.5 44q-54 0 -100.5 -27t-75 -78
t-28.5 -118q0 -76 39 -119t105 -43q56 0 104 30.5zM451 -28.5q-25 -22.5 -25 -57.5q0 -54 67 -54q18 0 44 6l-5 -57q-28 -14 -69 -14q-51 0 -82 24.5t-31 71.5q0 59 47 95t110 48l3 -29q-34 -11 -59 -33.5z" />
    <glyph glyph-name="Cacute" unicode="&#x106;" horiz-adv-x="820" 
d="M216 31q-74 41 -115.5 117t-41.5 177q0 120 57.5 222t156 162.5t216.5 60.5q85 0 153 -32.5t111.5 -91.5t56.5 -137l-89 -10q-19 92 -80.5 143t-154.5 51t-171 -50.5t-123 -134.5t-45 -181q0 -78 30 -137t85 -91t128 -32q96 0 175.5 53t122.5 143l86 -11
q-55 -121 -158 -191.5t-230 -70.5q-96 0 -170 41zM537 835h-67l94 170h112z" />
    <glyph glyph-name="cacute" unicode="&#x107;" horiz-adv-x="581" 
d="M146.5 19q-50.5 29 -78 80.5t-27.5 116.5q0 90 38.5 160.5t105.5 109.5t150 39q87 0 146 -47t73 -126l-87 -9q-10 51 -45.5 79t-87.5 28q-63 0 -110 -30t-72.5 -81t-25.5 -114q0 -74 39 -117t107 -43q56 0 104.5 30.5t71.5 84.5l81 -9q-31 -84 -100.5 -132.5
t-166.5 -48.5q-65 0 -115.5 29zM375 590h-67l94 170h112z" />
    <glyph glyph-name="Ccircumflex" unicode="&#x108;" horiz-adv-x="820" 
d="M216 31q-74 41 -115.5 117t-41.5 177q0 120 57.5 222t156 162.5t216.5 60.5q85 0 153 -32.5t111.5 -91.5t56.5 -137l-89 -10q-19 92 -80.5 143t-154.5 51t-171 -50.5t-123 -134.5t-45 -181q0 -78 30 -137t85 -91t128 -32q96 0 175.5 53t122.5 143l86 -11
q-55 -121 -158 -191.5t-230 -70.5q-96 0 -170 41zM578 837l-65 107l-97 -107h-104l168 168h74l120 -168h-96z" />
    <glyph glyph-name="ccircumflex" unicode="&#x109;" horiz-adv-x="581" 
d="M146.5 19q-50.5 29 -78 80.5t-27.5 116.5q0 90 38.5 160.5t105.5 109.5t150 39q87 0 146 -47t73 -126l-87 -9q-10 51 -45.5 79t-87.5 28q-63 0 -110 -30t-72.5 -81t-25.5 -114q0 -74 39 -117t107 -43q56 0 104.5 30.5t71.5 84.5l81 -9q-31 -84 -100.5 -132.5
t-166.5 -48.5q-65 0 -115.5 29zM416 592l-65 107l-97 -107h-104l168 168h74l120 -168h-96z" />
    <glyph glyph-name="Cdotaccent" unicode="&#x10a;" horiz-adv-x="820" 
d="M216 31q-74 41 -115.5 117t-41.5 177q0 120 57.5 222t156 162.5t216.5 60.5q85 0 153 -32.5t111.5 -91.5t56.5 -137l-89 -10q-19 92 -80.5 143t-154.5 51t-171 -50.5t-123 -134.5t-45 -181q0 -78 30 -137t85 -91t128 -32q96 0 175.5 53t122.5 143l86 -11
q-55 -121 -158 -191.5t-230 -70.5q-96 0 -170 41zM467 877q-19 19 -19 46q0 28 19 47t46 19t46 -19t19 -47q0 -27 -19 -46t-46 -19t-46 19z" />
    <glyph glyph-name="cdotaccent" unicode="&#x10b;" horiz-adv-x="581" 
d="M146.5 19q-50.5 29 -78 80.5t-27.5 116.5q0 90 38.5 160.5t105.5 109.5t150 39q87 0 146 -47t73 -126l-87 -9q-10 51 -45.5 79t-87.5 28q-63 0 -110 -30t-72.5 -81t-25.5 -114q0 -74 39 -117t107 -43q56 0 104.5 30.5t71.5 84.5l81 -9q-31 -84 -100.5 -132.5
t-166.5 -48.5q-65 0 -115.5 29zM305 632q-19 19 -19 46q0 28 19 47t46 19t46 -19t19 -47q0 -27 -19 -46t-46 -19t-46 19z" />
    <glyph glyph-name="Ccaron" unicode="&#x10c;" horiz-adv-x="820" 
d="M216 31q-74 41 -115.5 117t-41.5 177q0 120 57.5 222t156 162.5t216.5 60.5q85 0 153 -32.5t111.5 -91.5t56.5 -137l-89 -10q-19 92 -80.5 143t-154.5 51t-171 -50.5t-123 -134.5t-45 -181q0 -78 30 -137t85 -91t128 -32q96 0 175.5 53t122.5 143l86 -11
q-55 -121 -158 -191.5t-230 -70.5q-96 0 -170 41zM709 1005l-168 -168h-74l-120 168h96l65 -107l97 107h104z" />
    <glyph glyph-name="ccaron" unicode="&#x10d;" horiz-adv-x="581" 
d="M146.5 19q-50.5 29 -78 80.5t-27.5 116.5q0 90 38.5 160.5t105.5 109.5t150 39q87 0 146 -47t73 -126l-87 -9q-10 51 -45.5 79t-87.5 28q-63 0 -110 -30t-72.5 -81t-25.5 -114q0 -74 39 -117t107 -43q56 0 104.5 30.5t71.5 84.5l81 -9q-31 -84 -100.5 -132.5
t-166.5 -48.5q-65 0 -115.5 29zM547 760l-168 -168h-74l-120 168h96l65 -107l97 107h104z" />
    <glyph glyph-name="Dcaron" unicode="&#x10e;" horiz-adv-x="755" 
d="M571 718.5q75 -41.5 117.5 -114t42.5 -162.5q0 -127 -57 -228t-156.5 -157.5t-222.5 -56.5h-261l107 760h261q94 0 169 -41.5zM473.5 123.5q79.5 47.5 124.5 128.5t45 178q0 76 -32 133.5t-90 89t-135 31.5h-170l-85 -608h165q98 0 177.5 47.5zM612 1005l-168 -168h-74
l-120 168h96l65 -107l97 107h104z" />
    <glyph glyph-name="dcaron" unicode="&#x10f;" horiz-adv-x="790" 
d="M541 760h85l-106 -760h-77l7 88q-34 -46 -85 -72t-109 -26q-60 0 -109 29t-77.5 81.5t-28.5 120.5q0 89 39.5 158.5t105.5 107.5t141 38q58 0 101.5 -25t66.5 -69zM841 760l-79 -170h-67l34 170h112zM374 95.5q48 30.5 76 82t28 112.5q0 72 -39.5 116t-108.5 44
q-54 0 -100.5 -27t-75 -78t-28.5 -118q0 -76 39 -119t105 -43q56 0 104 30.5z" />
    <glyph glyph-name="Dcroat" unicode="&#x110;" horiz-adv-x="791" 
d="M607 718.5q75 -41.5 117.5 -114t42.5 -162.5q0 -127 -57 -228t-156.5 -157.5t-222.5 -56.5h-261l51 359h-95l9 74h96l46 327h261q94 0 169 -41.5zM509.5 123.5q79.5 47.5 124.5 128.5t45 178q0 76 -32 133.5t-90 89t-135 31.5h-170l-35 -251h249l-9 -74h-250l-40 -283
h165q98 0 177.5 47.5z" />
    <glyph glyph-name="dcroat" unicode="&#x111;" horiz-adv-x="660" 
d="M709 613h-104l-85 -613h-77l7 88q-34 -46 -85 -72t-109 -26q-60 0 -109 29t-77.5 81.5t-28.5 120.5q0 89 39.5 158.5t105.5 107.5t141 38q58 0 101.5 -25t66.5 -69l26 182h-243l11 70h241l11 77h85l-11 -77h105zM374 95.5q48 30.5 76 82t28 112.5q0 72 -39.5 116
t-108.5 44q-54 0 -100.5 -27t-75 -78t-28.5 -118q0 -76 39 -119t105 -43q56 0 104 30.5z" />
    <glyph glyph-name="Emacron" unicode="&#x112;" horiz-adv-x="546" 
d="M216 684l-35 -250h325l-10 -76h-326l-39 -282h334l-11 -76h-420l107 760h415l-11 -76h-329zM239 967h275l-9 -67h-275z" />
    <glyph glyph-name="emacron" unicode="&#x113;" horiz-adv-x="585" 
d="M126 226v-7q0 -72 40 -113t101 -41q58 0 102 26t72 70l84 -10q-41 -77 -109 -119t-153 -42q-66 0 -116.5 30t-78 81.5t-27.5 114.5q0 86 37 157t103.5 111.5t150.5 40.5q69 0 117 -29t72 -78.5t24 -110.5q0 -15 -2 -39t-5 -42h-412zM209.5 409.5
q-52.5 -40.5 -73.5 -111.5h324v4q0 72 -34.5 110t-95.5 38q-68 0 -120.5 -40.5zM219 722h275l-9 -67h-275z" />
    <glyph glyph-name="Ebreve" unicode="&#x114;" horiz-adv-x="546" 
d="M216 684l-35 -250h325l-10 -76h-326l-39 -282h334l-11 -76h-420l107 760h415l-11 -76h-329zM244.5 876.5q-39.5 43.5 -39.5 128.5h65q0 -51 26.5 -78t68.5 -27q82 0 117 105h65q-20 -86 -69 -129t-121 -43q-73 0 -112.5 43.5z" />
    <glyph glyph-name="ebreve" unicode="&#x115;" horiz-adv-x="585" 
d="M126 226v-7q0 -72 40 -113t101 -41q58 0 102 26t72 70l84 -10q-41 -77 -109 -119t-153 -42q-66 0 -116.5 30t-78 81.5t-27.5 114.5q0 86 37 157t103.5 111.5t150.5 40.5q69 0 117 -29t72 -78.5t24 -110.5q0 -15 -2 -39t-5 -42h-412zM209.5 409.5
q-52.5 -40.5 -73.5 -111.5h324v4q0 72 -34.5 110t-95.5 38q-68 0 -120.5 -40.5zM224.5 631.5q-39.5 43.5 -39.5 128.5h65q0 -51 26.5 -78t68.5 -27q82 0 117 105h65q-20 -86 -69 -129t-121 -43q-73 0 -112.5 43.5z" />
    <glyph glyph-name="Edotaccent" unicode="&#x116;" horiz-adv-x="546" 
d="M216 684l-35 -250h325l-10 -76h-326l-39 -282h334l-11 -76h-420l107 760h415l-11 -76h-329zM324 877q-19 19 -19 46q0 28 19 47t46 19t46 -19t19 -47q0 -27 -19 -46t-46 -19t-46 19z" />
    <glyph glyph-name="edotaccent" unicode="&#x117;" horiz-adv-x="585" 
d="M126 226v-7q0 -72 40 -113t101 -41q58 0 102 26t72 70l84 -10q-41 -77 -109 -119t-153 -42q-66 0 -116.5 30t-78 81.5t-27.5 114.5q0 86 37 157t103.5 111.5t150.5 40.5q69 0 117 -29t72 -78.5t24 -110.5q0 -15 -2 -39t-5 -42h-412zM209.5 409.5
q-52.5 -40.5 -73.5 -111.5h324v4q0 72 -34.5 110t-95.5 38q-68 0 -120.5 -40.5zM304 632q-19 19 -19 46q0 28 19 47t46 19t46 -19t19 -47q0 -27 -19 -46t-46 -19t-46 19z" />
    <glyph glyph-name="Eogonek" unicode="&#x118;" horiz-adv-x="546" 
d="M216 684l-35 -250h325l-10 -76h-326l-39 -282h334l-11 -76h-420l107 760h415l-11 -76h-329zM342 -28.5q-25 -22.5 -25 -57.5q0 -54 67 -54q18 0 44 6l-5 -57q-28 -14 -69 -14q-51 0 -82 24.5t-31 71.5q0 59 47 95t110 48l3 -29q-34 -11 -59 -33.5z" />
    <glyph glyph-name="eogonek" unicode="&#x119;" horiz-adv-x="585" 
d="M126 226v-7q0 -72 40 -113t101 -41q58 0 102 26t72 70l84 -10q-41 -77 -109 -119t-153 -42q-66 0 -116.5 30t-78 81.5t-27.5 114.5q0 86 37 157t103.5 111.5t150.5 40.5q69 0 117 -29t72 -78.5t24 -110.5q0 -15 -2 -39t-5 -42h-412zM209.5 409.5
q-52.5 -40.5 -73.5 -111.5h324v4q0 72 -34.5 110t-95.5 38q-68 0 -120.5 -40.5zM294 -28.5q-25 -22.5 -25 -57.5q0 -54 67 -54q18 0 44 6l-5 -57q-28 -14 -69 -14q-51 0 -82 24.5t-31 71.5q0 59 47 95t110 48l3 -29q-34 -11 -59 -33.5z" />
    <glyph glyph-name="Ecaron" unicode="&#x11a;" horiz-adv-x="546" 
d="M216 684l-35 -250h325l-10 -76h-326l-39 -282h334l-11 -76h-420l107 760h415l-11 -76h-329zM566 1005l-168 -168h-74l-120 168h96l65 -107l97 107h104z" />
    <glyph glyph-name="ecaron" unicode="&#x11b;" horiz-adv-x="585" 
d="M126 226v-7q0 -72 40 -113t101 -41q58 0 102 26t72 70l84 -10q-41 -77 -109 -119t-153 -42q-66 0 -116.5 30t-78 81.5t-27.5 114.5q0 86 37 157t103.5 111.5t150.5 40.5q69 0 117 -29t72 -78.5t24 -110.5q0 -15 -2 -39t-5 -42h-412zM209.5 409.5
q-52.5 -40.5 -73.5 -111.5h324v4q0 72 -34.5 110t-95.5 38q-68 0 -120.5 -40.5zM546 760l-168 -168h-74l-120 168h96l65 -107l97 107h104z" />
    <glyph glyph-name="Gcircumflex" unicode="&#x11c;" horiz-adv-x="805" 
d="M394 405h363l-45 -316q-141 -99 -307 -99q-109 0 -186.5 41t-118.5 116.5t-41 177.5q0 122 56 224t153.5 161.5t216.5 59.5q118 0 195.5 -58.5t106.5 -155.5l-87 -10q-20 61 -76 104t-145 43q-95 0 -171 -51.5t-118.5 -136t-42.5 -181.5q0 -122 70 -189.5t198 -67.5
q66 0 118 16.5t99 42.5l28 203h-277zM571 837l-65 107l-97 -107h-104l168 168h74l120 -168h-96z" />
    <glyph glyph-name="gcircumflex" unicode="&#x11d;" horiz-adv-x="621" 
d="M592 515l-63 -447q-19 -135 -89 -204t-195 -69q-80 0 -133.5 33t-71.5 85l85 16q30 -64 124 -64q82 0 131.5 49.5t62.5 141.5l4 25q-35 -42 -85 -66.5t-106 -24.5q-61 0 -110 29.5t-77 82t-28 119.5q0 90 39.5 159t106 107t143.5 38q58 0 101.5 -25.5t65.5 -72.5l18 88
h77zM375 95.5q47 30.5 75 82.5t28 113q0 70 -39.5 114.5t-106.5 44.5q-55 0 -102 -27t-75.5 -77t-28.5 -116q0 -77 38 -121t109 -44q55 0 102 30.5zM418 592l-65 107l-97 -107h-104l168 168h74l120 -168h-96z" />
    <glyph glyph-name="Gbreve" unicode="&#x11e;" horiz-adv-x="805" 
d="M394 405h363l-45 -316q-141 -99 -307 -99q-109 0 -186.5 41t-118.5 116.5t-41 177.5q0 122 56 224t153.5 161.5t216.5 59.5q118 0 195.5 -58.5t106.5 -155.5l-87 -10q-20 61 -76 104t-145 43q-95 0 -171 -51.5t-118.5 -136t-42.5 -181.5q0 -122 70 -189.5t198 -67.5
q66 0 118 16.5t99 42.5l28 203h-277zM380.5 876.5q-39.5 43.5 -39.5 128.5h65q0 -51 26.5 -78t68.5 -27q82 0 117 105h65q-20 -86 -69 -129t-121 -43q-73 0 -112.5 43.5z" />
    <glyph glyph-name="gbreve" unicode="&#x11f;" horiz-adv-x="621" 
d="M592 515l-63 -447q-19 -135 -89 -204t-195 -69q-80 0 -133.5 33t-71.5 85l85 16q30 -64 124 -64q82 0 131.5 49.5t62.5 141.5l4 25q-35 -42 -85 -66.5t-106 -24.5q-61 0 -110 29.5t-77 82t-28 119.5q0 90 39.5 159t106 107t143.5 38q58 0 101.5 -25.5t65.5 -72.5l18 88
h77zM375 95.5q47 30.5 75 82.5t28 113q0 70 -39.5 114.5t-106.5 44.5q-55 0 -102 -27t-75.5 -77t-28.5 -116q0 -77 38 -121t109 -44q55 0 102 30.5zM227.5 631.5q-39.5 43.5 -39.5 128.5h65q0 -51 26.5 -78t68.5 -27q82 0 117 105h65q-20 -86 -69 -129t-121 -43
q-73 0 -112.5 43.5z" />
    <glyph glyph-name="Gdotaccent" unicode="&#x120;" horiz-adv-x="805" 
d="M394 405h363l-45 -316q-141 -99 -307 -99q-109 0 -186.5 41t-118.5 116.5t-41 177.5q0 122 56 224t153.5 161.5t216.5 59.5q118 0 195.5 -58.5t106.5 -155.5l-87 -10q-20 61 -76 104t-145 43q-95 0 -171 -51.5t-118.5 -136t-42.5 -181.5q0 -122 70 -189.5t198 -67.5
q66 0 118 16.5t99 42.5l28 203h-277zM460 877q-19 19 -19 46q0 28 19 47t46 19t46 -19t19 -47q0 -27 -19 -46t-46 -19t-46 19z" />
    <glyph glyph-name="gdotaccent" unicode="&#x121;" horiz-adv-x="621" 
d="M592 515l-63 -447q-19 -135 -89 -204t-195 -69q-80 0 -133.5 33t-71.5 85l85 16q30 -64 124 -64q82 0 131.5 49.5t62.5 141.5l4 25q-35 -42 -85 -66.5t-106 -24.5q-61 0 -110 29.5t-77 82t-28 119.5q0 90 39.5 159t106 107t143.5 38q58 0 101.5 -25.5t65.5 -72.5l18 88
h77zM375 95.5q47 30.5 75 82.5t28 113q0 70 -39.5 114.5t-106.5 44.5q-55 0 -102 -27t-75.5 -77t-28.5 -116q0 -77 38 -121t109 -44q55 0 102 30.5zM307 632q-19 19 -19 46q0 28 19 47t46 19t46 -19t19 -47q0 -27 -19 -46t-46 -19t-46 19z" />
    <glyph glyph-name="Gcommaaccent" unicode="&#x122;" horiz-adv-x="805" 
d="M394 405h363l-45 -316q-141 -99 -307 -99q-109 0 -186.5 41t-118.5 116.5t-41 177.5q0 122 56 224t153.5 161.5t216.5 59.5q118 0 195.5 -58.5t106.5 -155.5l-87 -10q-20 61 -76 104t-145 43q-95 0 -171 -51.5t-118.5 -136t-42.5 -181.5q0 -122 70 -189.5t198 -67.5
q66 0 118 16.5t99 42.5l28 203h-277zM356 -200h-67l72 130h111z" />
    <glyph glyph-name="gcommaaccent" unicode="&#x123;" horiz-adv-x="621" 
d="M592 515l-63 -447q-19 -135 -89 -204t-195 -69q-80 0 -133.5 33t-71.5 85l85 16q30 -64 124 -64q82 0 131.5 49.5t62.5 141.5l4 25q-35 -42 -85 -66.5t-106 -24.5q-61 0 -110 29.5t-77 82t-28 119.5q0 90 39.5 159t106 107t143.5 38q58 0 101.5 -25.5t65.5 -72.5l18 88
h77zM375 95.5q47 30.5 75 82.5t28 113q0 70 -39.5 114.5t-106.5 44.5q-55 0 -102 -27t-75.5 -77t-28.5 -116q0 -77 38 -121t109 -44q55 0 102 30.5zM393 735h67l-72 -130h-111z" />
    <glyph glyph-name="Hcircumflex" unicode="&#x124;" horiz-adv-x="660" 
d="M661 760l-107 -760h-86l50 358h-348l-50 -358h-86l107 760h86l-46 -326h348l46 326h86zM489 837l-65 107l-97 -107h-104l168 168h74l120 -168h-96z" />
    <glyph glyph-name="hcircumflex" unicode="&#x125;" horiz-adv-x="570" 
d="M480.5 479.5q41.5 -45.5 41.5 -116.5q0 -20 -4 -48l-44 -315h-85l43 308q4 30 4 42q0 52 -25 77.5t-80 25.5q-74 0 -118 -48.5t-58 -113.5l-41 -291h-85l107 760h85l-47 -333q34 48 82 73t103 25q80 0 121.5 -45.5zM457 837l-65 107l-97 -107h-104l168 168h74l120 -168
h-96z" />
    <glyph glyph-name="Hbar" unicode="&#x126;" horiz-adv-x="660" 
d="M691 551h-59l-78 -551h-86l50 358h-348l-50 -358h-86l78 551h-61l11 74h60l19 135h86l-19 -135h348l19 135h86l-19 -135h60zM546 551h-348l-17 -117h348z" />
    <glyph glyph-name="hbar" unicode="&#x127;" horiz-adv-x="611" 
d="M521.5 479.5q41.5 -45.5 41.5 -116.5q0 -20 -4 -48l-44 -315h-85l43 308q4 30 4 42q0 52 -25 77.5t-80 25.5q-74 0 -118 -48.5t-58 -113.5l-41 -291h-85l86 613h-106l11 70h105l11 77h85l-11 -77h241l-11 -70h-240l-26 -186q34 48 82 73t103 25q80 0 121.5 -45.5z" />
    <glyph glyph-name="Itilde" unicode="&#x128;" horiz-adv-x="226" 
d="M141 760h86l-107 -760h-86zM219.5 892q-18.5 9 -36.5 23q-16 12 -25.5 17t-18.5 5q-13 0 -28 -9.5t-27 -28.5l-56 27q45 75 122 75q25 0 44.5 -9t39.5 -24q16 -11 26 -16.5t19 -5.5q13 0 28 9.5t27 28.5l58 -21q-26 -39 -59 -59.5t-71 -20.5q-24 0 -42.5 9z" />
    <glyph glyph-name="itilde" unicode="&#x129;" horiz-adv-x="215" 
d="M101 515h85l-72 -515h-85zM179.5 647q-18.5 9 -36.5 23q-16 12 -25.5 17t-18.5 5q-13 0 -28 -9.5t-27 -28.5l-56 27q45 75 122 75q25 0 44.5 -9t39.5 -24q16 -11 26 -16.5t19 -5.5q13 0 28 9.5t27 28.5l58 -21q-26 -39 -59 -59.5t-71 -20.5q-24 0 -42.5 9z" />
    <glyph glyph-name="Imacron" unicode="&#x12a;" horiz-adv-x="226" 
d="M141 760h86l-107 -760h-86zM76 967h275l-9 -67h-275z" />
    <glyph glyph-name="imacron" unicode="&#x12b;" horiz-adv-x="215" 
d="M101 515h85l-72 -515h-85zM36 722h275l-9 -67h-275z" />
    <glyph glyph-name="Ibreve" unicode="&#x12c;" horiz-adv-x="226" 
d="M141 760h86l-107 -760h-86zM81.5 876.5q-39.5 43.5 -39.5 128.5h65q0 -51 26.5 -78t68.5 -27q82 0 117 105h65q-20 -86 -69 -129t-121 -43q-73 0 -112.5 43.5z" />
    <glyph glyph-name="ibreve" unicode="&#x12d;" horiz-adv-x="215" 
d="M101 515h85l-72 -515h-85zM41.5 631.5q-39.5 43.5 -39.5 128.5h65q0 -51 26.5 -78t68.5 -27q82 0 117 105h65q-20 -86 -69 -129t-121 -43q-73 0 -112.5 43.5z" />
    <glyph glyph-name="Iogonek" unicode="&#x12e;" horiz-adv-x="226" 
d="M141 760h86l-107 -760h-86zM49 -28.5q-25 -22.5 -25 -57.5q0 -54 67 -54q18 0 44 6l-5 -57q-28 -14 -69 -14q-51 0 -82 24.5t-31 71.5q0 59 47 95t110 48l3 -29q-34 -11 -59 -33.5z" />
    <glyph glyph-name="iogonek" unicode="&#x12f;" horiz-adv-x="215" 
d="M101 515h85l-72 -515h-85zM121 632q-19 19 -19 46q0 28 19 47t46 19t46 -19t19 -47q0 -27 -19 -46t-46 -19t-46 19zM42 -28.5q-25 -22.5 -25 -57.5q0 -54 67 -54q18 0 44 6l-5 -57q-28 -14 -69 -14q-51 0 -82 24.5t-31 71.5q0 59 47 95t110 48l3 -29q-34 -11 -59 -33.5z
" />
    <glyph glyph-name="Idotaccent" unicode="&#x130;" horiz-adv-x="226" 
d="M141 760h86l-107 -760h-86zM161 877q-19 19 -19 46q0 28 19 47t46 19t46 -19t19 -47q0 -27 -19 -46t-46 -19t-46 19z" />
    <glyph glyph-name="dotlessi" unicode="&#x131;" horiz-adv-x="215" 
d="M101 515h85l-72 -515h-85z" />
    <glyph glyph-name="IJ" unicode="&#x132;" horiz-adv-x="570" 
d="M181.5 2.5q-42.5 12.5 -68.5 31.5l44 64q23 -15 52.5 -23t59.5 -8q61 0 98 39.5t50 130.5l73 524h86l-77 -542q-16 -114 -77 -171.5t-153 -57.5q-45 0 -87.5 12.5zM141 760h86l-72 -510h-86z" />
    <glyph glyph-name="ij" unicode="&#x133;" horiz-adv-x="448" 
d="M121 632q-19 19 -19 46q0 28 19 47t46 19t46 -19t19 -47q0 -27 -19 -46t-46 -19t-46 19zM101 515h85l-72 -515h-85zM353 632q-19 19 -19 46q0 28 19 47t46 19t46 -19t19 -47q0 -27 -19 -46t-46 -19t-46 19zM78 -190l16 72q43 -12 79 -12q40 0 58 21.5t26 80.5l76 543h85
l-79 -559q-13 -87 -55 -124t-108 -37q-59 0 -98 15z" />
    <glyph glyph-name="Jcircumflex" unicode="&#x134;" 
d="M85 46.5q-57 56.5 -57 159.5l84 6q0 -73 32.5 -109t92.5 -36q66 0 111.5 42.5t58.5 137.5l73 513h86l-73 -513q-19 -133 -83.5 -195t-173.5 -62q-94 0 -151 56.5zM610 837l-65 107l-97 -107h-104l168 168h74l120 -168h-96z" />
    <glyph glyph-name="jcircumflex" unicode="&#x135;" horiz-adv-x="231" 
d="M-138 -190l16 72q43 -12 79 -12q40 0 58 21.5t26 80.5l76 543h85l-79 -559q-13 -87 -55 -124t-108 -37q-59 0 -98 15zM225 592l-37 102l-67 -102h-101l138 168h74l90 -168h-97z" />
    <glyph glyph-name="Kcommaaccent" unicode="&#x136;" horiz-adv-x="600" 
d="M359 434l190 -434h-90l-160 366l-152 -172l-27 -194h-86l107 760h86l-61 -435l382 435h98zM221 -200h-67l72 130h111z" />
    <glyph glyph-name="kcommaaccent" unicode="&#x137;" horiz-adv-x="490" 
d="M293 319l161 -319h-88l-135 261l-93 -87l-24 -174h-85l107 760h85l-66 -469l238 224h108zM184 -200h-67l72 130h111z" />
    <glyph glyph-name="kgreenlandic" unicode="&#x138;" horiz-adv-x="500" 
d="M415.5 431q-18.5 -11 -44.5 -35l-72 -69l165 -327h-88l-139 268l-99 -94l-24 -174h-85l72 515h85l-32 -225l180 168q30 28 65.5 42.5t67.5 14.5h21l-11 -73h-20q-23 0 -41.5 -11z" />
    <glyph glyph-name="Lacute" unicode="&#x139;" horiz-adv-x="486" 
d="M440 76l-11 -76h-395l107 760h86l-96 -684h309zM235 835h-67l94 170h112z" />
    <glyph glyph-name="lacute" unicode="&#x13a;" horiz-adv-x="265" 
d="M82.5 16.5q-36.5 26.5 -36.5 88.5q0 13 4 47l86 608h85l-85 -604q-3 -21 -3 -36q0 -33 15.5 -44t55.5 -11h8l-5 -75h-17q-71 0 -107.5 26.5zM226 835h-67l94 170h112z" />
    <glyph glyph-name="Lcommaaccent" unicode="&#x13b;" horiz-adv-x="486" 
d="M440 76l-11 -76h-395l107 760h86l-96 -684h309zM184 -200h-67l72 130h111z" />
    <glyph glyph-name="lcommaaccent" unicode="&#x13c;" horiz-adv-x="265" 
d="M82.5 16.5q-36.5 26.5 -36.5 88.5q0 13 4 47l86 608h85l-85 -604q-3 -21 -3 -36q0 -33 15.5 -44t55.5 -11h8l-5 -75h-17q-71 0 -107.5 26.5zM50 -200h-67l72 130h111z" />
    <glyph glyph-name="Lcaron" unicode="&#x13d;" horiz-adv-x="486" 
d="M131 76h309l-11 -76h-395l107 760h86zM411 570h-57l37 190h102z" />
    <glyph glyph-name="lcaron" unicode="&#x13e;" horiz-adv-x="375" 
d="M82.5 16.5q-36.5 26.5 -36.5 88.5q0 13 4 47l86 608h85l-85 -604q-3 -21 -3 -36q0 -33 15.5 -44t55.5 -11h8l-5 -75h-17q-71 0 -107.5 26.5zM347 590h-57l34 170h102z" />
    <glyph glyph-name="Ldot" unicode="&#x13f;" horiz-adv-x="486" 
d="M440 76l-11 -76h-395l107 760h86l-96 -684h309zM325.37 340q-18.8018 20 -17.8594 47q0.977539 28 21.1582 47.5t48.1807 19.5t46.8193 -19.5t17.8418 -47.5q-0.942383 -27 -21.1406 -47t-48.1982 -20t-46.8018 20z" />
    <glyph glyph-name="ldot" unicode="&#x140;" horiz-adv-x="385" 
d="M266.37 340q-18.8018 20 -17.8594 47q0.977539 28 21.1582 47.5t48.1807 19.5t46.8193 -19.5t17.8418 -47.5q-0.942383 -27 -21.1406 -47t-48.1982 -20t-46.8018 20zM82.5 16.5q-36.5 26.5 -36.5 88.5q0 13 4 47l86 608h85l-85 -604q-3 -21 -3 -36q0 -33 15.5 -44
t55.5 -11h8l-5 -75h-17q-71 0 -107.5 26.5z" />
    <glyph glyph-name="Lslash" unicode="&#x141;" horiz-adv-x="526" 
d="M480 76l-11 -76h-395l43 307l-71 -33l-24 67l107 49l52 370h86l-46 -328l188 86l24 -67l-224 -102l-38 -273h309z" />
    <glyph glyph-name="lslash" unicode="&#x142;" horiz-adv-x="359" 
d="M188.5 76q15.5 -11 55.5 -11h8l-5 -75h-17q-71 0 -107.5 26.5t-36.5 88.5q0 13 4 47l22 154l-66 -30l-24 65l101 46l53 373h85l-47 -331l135 61l24 -65l-170 -77l-27 -192q-3 -21 -3 -36q0 -33 15.5 -44z" />
    <glyph glyph-name="Nacute" unicode="&#x143;" horiz-adv-x="660" 
d="M661 760l-107 -760h-85l-263 621l-87 -621h-85l107 760h85l263 -621l87 621h85zM448 835h-67l94 170h112z" />
    <glyph glyph-name="nacute" unicode="&#x144;" horiz-adv-x="570" 
d="M480.5 479.5q41.5 -45.5 41.5 -116.5q0 -20 -4 -48l-44 -315h-85l43 308q4 30 4 42q0 52 -25 77.5t-80 25.5q-74 0 -118 -49.5t-59 -114.5l-40 -289h-85l72 515h77l-5 -90q33 49 81.5 74.5t104.5 25.5q80 0 121.5 -45.5zM382 590h-67l94 170h112z" />
    <glyph glyph-name="Ncommaaccent" unicode="&#x145;" horiz-adv-x="660" 
d="M661 760l-107 -760h-85l-263 621l-87 -621h-85l107 760h85l263 -621l87 621h85zM251 -200h-67l72 130h111z" />
    <glyph glyph-name="ncommaaccent" unicode="&#x146;" horiz-adv-x="570" 
d="M480.5 479.5q41.5 -45.5 41.5 -116.5q0 -20 -4 -48l-44 -315h-85l43 308q4 30 4 42q0 52 -25 77.5t-80 25.5q-74 0 -118 -49.5t-59 -114.5l-40 -289h-85l72 515h77l-5 -90q33 49 81.5 74.5t104.5 25.5q80 0 121.5 -45.5zM195 -200h-67l72 130h111z" />
    <glyph glyph-name="Ncaron" unicode="&#x147;" horiz-adv-x="660" 
d="M661 760l-107 -760h-85l-263 621l-87 -621h-85l107 760h85l263 -621l87 621h85zM620 1005l-168 -168h-74l-120 168h96l65 -107l97 107h104z" />
    <glyph glyph-name="ncaron" unicode="&#x148;" horiz-adv-x="570" 
d="M480.5 479.5q41.5 -45.5 41.5 -116.5q0 -20 -4 -48l-44 -315h-85l43 308q4 30 4 42q0 52 -25 77.5t-80 25.5q-74 0 -118 -49.5t-59 -114.5l-40 -289h-85l72 515h77l-5 -90q33 49 81.5 74.5t104.5 25.5q80 0 121.5 -45.5zM554 760l-168 -168h-74l-120 168h96l65 -107
l97 107h104z" />
    <glyph glyph-name="napostrophe" unicode="&#x149;" horiz-adv-x="610" 
d="M114 590h-67l94 170h112zM520.5 479.5q41.5 -45.5 41.5 -116.5q0 -20 -4 -48l-44 -315h-85l43 308q4 30 4 42q0 52 -25 77.5t-80 25.5q-74 0 -118 -49.5t-59 -114.5l-40 -289h-85l72 515h77l-5 -90q33 49 81.5 74.5t104.5 25.5q80 0 121.5 -45.5z" />
    <glyph glyph-name="Eng" unicode="&#x14a;" horiz-adv-x="660" 
d="M661 760l-102 -720q-17 -120 -88 -182.5t-175 -62.5q-21 0 -39 3l17 77q16 -3 33 -3q56 0 99.5 32.5t61.5 96.5l-261 615l-87 -616h-86l107 760h86l263 -618l85 618h86z" />
    <glyph glyph-name="eng" unicode="&#x14b;" horiz-adv-x="570" 
d="M518 315l-41 -292l-9 -67q-22 -161 -167 -161q-56 0 -95 15l16 72q43 -12 79 -12q40 0 57.5 20.5t25.5 73.5l32 232l16 112q4 30 4 42q0 52 -25 77.5t-80 25.5q-54 0 -92.5 -27.5t-59.5 -68t-27 -82.5l-38 -275h-85l72 515h77l-6 -92q33 50 81.5 76t105.5 26
q80 0 121.5 -45.5t41.5 -116.5q0 -20 -4 -48z" />
    <glyph glyph-name="Omacron" unicode="&#x14c;" horiz-adv-x="841" 
d="M214 32q-74 42 -114.5 118.5t-40.5 176.5q0 122 58.5 223.5t157.5 160.5t215 59q97 0 171 -42t114.5 -118.5t40.5 -176.5q0 -122 -58.5 -223.5t-157.5 -160.5t-215 -59q-97 0 -171 42zM560 117.5q78 50.5 123 135t45 181.5q0 77 -29.5 136t-84.5 91t-128 32
q-93 0 -171 -50.5t-123 -135t-45 -181.5q0 -77 29.5 -136t84.5 -91t128 -32q93 0 171 50.5zM384 967h275l-9 -67h-275z" />
    <glyph glyph-name="omacron" unicode="&#x14d;" horiz-adv-x="602" 
d="M148.5 19q-50.5 29 -79 81t-28.5 118q0 89 38.5 159t106 109t152.5 39q65 0 116 -29t79 -81t28 -118q0 -89 -38 -159t-105.5 -109t-153.5 -39q-65 0 -115.5 29zM372.5 93q47.5 28 75.5 79.5t28 118.5q0 76 -39 117.5t-104 41.5q-56 0 -103.5 -28t-75.5 -79.5t-28 -118.5
q0 -76 39 -117.5t104 -41.5q56 0 103.5 28zM229 723h275l-9 -67h-275z" />
    <glyph glyph-name="Obreve" unicode="&#x14e;" horiz-adv-x="841" 
d="M214 32q-74 42 -114.5 118.5t-40.5 176.5q0 122 58.5 223.5t157.5 160.5t215 59q97 0 171 -42t114.5 -118.5t40.5 -176.5q0 -122 -58.5 -223.5t-157.5 -160.5t-215 -59q-97 0 -171 42zM560 117.5q78 50.5 123 135t45 181.5q0 77 -29.5 136t-84.5 91t-128 32
q-93 0 -171 -50.5t-123 -135t-45 -181.5q0 -77 29.5 -136t84.5 -91t128 -32q93 0 171 50.5zM389.5 876.5q-39.5 43.5 -39.5 128.5h65q0 -51 26.5 -78t68.5 -27q82 0 117 105h65q-20 -86 -69 -129t-121 -43q-73 0 -112.5 43.5z" />
    <glyph glyph-name="obreve" unicode="&#x14f;" horiz-adv-x="602" 
d="M148.5 19q-50.5 29 -79 81t-28.5 118q0 89 38.5 159t106 109t152.5 39q65 0 116 -29t79 -81t28 -118q0 -89 -38 -159t-105.5 -109t-153.5 -39q-65 0 -115.5 29zM372.5 93q47.5 28 75.5 79.5t28 118.5q0 76 -39 117.5t-104 41.5q-56 0 -103.5 -28t-75.5 -79.5t-28 -118.5
q0 -76 39 -117.5t104 -41.5q56 0 103.5 28zM234.5 632.5q-39.5 43.5 -39.5 128.5h65q0 -51 26.5 -78t68.5 -27q82 0 117 105h65q-20 -86 -69 -129t-121 -43q-73 0 -112.5 43.5z" />
    <glyph glyph-name="Ohungarumlaut" unicode="&#x150;" horiz-adv-x="841" 
d="M214 32q-74 42 -114.5 118.5t-40.5 176.5q0 122 58.5 223.5t157.5 160.5t215 59q97 0 171 -42t114.5 -118.5t40.5 -176.5q0 -122 -58.5 -223.5t-157.5 -160.5t-215 -59q-97 0 -171 42zM560 117.5q78 50.5 123 135t45 181.5q0 77 -29.5 136t-84.5 91t-128 32
q-93 0 -171 -50.5t-123 -135t-45 -181.5q0 -77 29.5 -136t84.5 -91t128 -32q93 0 171 50.5zM419 835h-67l94 170h112zM617 835h-67l94 170h112z" />
    <glyph glyph-name="ohungarumlaut" unicode="&#x151;" horiz-adv-x="602" 
d="M148.5 19q-50.5 29 -79 81t-28.5 118q0 89 38.5 159t106 109t152.5 39q65 0 116 -29t79 -81t28 -118q0 -89 -38 -159t-105.5 -109t-153.5 -39q-65 0 -115.5 29zM372.5 93q47.5 28 75.5 79.5t28 118.5q0 76 -39 117.5t-104 41.5q-56 0 -103.5 -28t-75.5 -79.5t-28 -118.5
q0 -76 39 -117.5t104 -41.5q56 0 103.5 28zM264 591h-67l94 170h112zM462 591h-67l94 170h112z" />
    <glyph glyph-name="OE" unicode="&#x152;" horiz-adv-x="1185" 
d="M214 32q-74 42 -114.5 118.5t-40.5 176.5q0 122 58.5 223.5t157.5 160.5t215 59q97 0 171 -42t114.5 -118.5t40.5 -176.5q0 -122 -58.5 -223.5t-157.5 -160.5t-215 -59q-97 0 -171 42zM560 117.5q78 50.5 123 135t45 181.5q0 77 -29.5 136t-84.5 91t-128 32
q-93 0 -171 -50.5t-123 -135t-45 -181.5q0 -77 29.5 -136t84.5 -91t128 -32q93 0 171 50.5zM855 684l-35 -250h325l-10 -76h-326l-39 -282h334l-11 -76h-420l107 760h415l-11 -76h-329z" />
    <glyph glyph-name="oe" unicode="&#x153;" horiz-adv-x="1016" 
d="M148.5 19q-50.5 29 -79 81t-28.5 118q0 89 38.5 159t106 109t152.5 39q65 0 116 -29t79 -81t28 -118q0 -89 -38 -159t-105.5 -109t-153.5 -39q-65 0 -115.5 29zM372.5 93q47.5 28 75.5 79.5t28 118.5q0 76 -39 117.5t-104 41.5q-56 0 -103.5 -28t-75.5 -79.5t-28 -118.5
q0 -76 39 -117.5t104 -41.5q56 0 103.5 28zM557 226v-7q0 -72 40 -113t101 -41q58 0 102 26t72 70l84 -10q-41 -77 -109 -119t-153 -42q-66 0 -116.5 30t-78 81.5t-27.5 114.5q0 86 37 157t103.5 111.5t150.5 40.5q69 0 117 -29t72 -78.5t24 -110.5q0 -15 -2 -39t-5 -42
h-412zM640.5 409.5q-52.5 -40.5 -73.5 -111.5h324v4q0 72 -34.5 110t-95.5 38q-68 0 -120.5 -40.5z" />
    <glyph glyph-name="Racute" unicode="&#x154;" horiz-adv-x="625" 
d="M573.5 370q-47.5 -73 -131.5 -107l102 -263h-96l-94 242q-26 -2 -40 -2h-160l-34 -240h-86l107 760h238q116 0 179 -56.5t63 -165.5q0 -95 -47.5 -168zM321 316q68 0 116 28.5t72.5 78.5t24.5 112q0 76 -40 112.5t-130 36.5h-148l-52 -368h157zM398 835h-67l94 170h112z
" />
    <glyph glyph-name="racute" unicode="&#x155;" horiz-adv-x="355" 
d="M372 523l-18 -89q-23 5 -45 5q-63 0 -101.5 -44.5t-54.5 -117.5l-39 -277h-85l72 515h77l-4 -89q32 48 74.5 73.5t89.5 25.5q24 0 34 -2zM269 590h-67l94 170h112z" />
    <glyph glyph-name="Rcommaaccent" unicode="&#x156;" horiz-adv-x="625" 
d="M573.5 370q-47.5 -73 -131.5 -107l102 -263h-96l-94 242q-26 -2 -40 -2h-160l-34 -240h-86l107 760h238q116 0 179 -56.5t63 -165.5q0 -95 -47.5 -168zM321 316q68 0 116 28.5t72.5 78.5t24.5 112q0 76 -40 112.5t-130 36.5h-148l-52 -368h157zM221 -200h-67l72 130h111z
" />
    <glyph glyph-name="rcommaaccent" unicode="&#x157;" horiz-adv-x="355" 
d="M372 523l-18 -89q-23 5 -45 5q-63 0 -101.5 -44.5t-54.5 -117.5l-39 -277h-85l72 515h77l-4 -89q32 48 74.5 73.5t89.5 25.5q24 0 34 -2zM67 -200h-67l72 130h111z" />
    <glyph glyph-name="Rcaron" unicode="&#x158;" horiz-adv-x="625" 
d="M573.5 370q-47.5 -73 -131.5 -107l102 -263h-96l-94 242q-26 -2 -40 -2h-160l-34 -240h-86l107 760h238q116 0 179 -56.5t63 -165.5q0 -95 -47.5 -168zM321 316q68 0 116 28.5t72.5 78.5t24.5 112q0 76 -40 112.5t-130 36.5h-148l-52 -368h157zM570 1005l-168 -168h-74
l-120 168h96l65 -107l97 107h104z" />
    <glyph glyph-name="rcaron" unicode="&#x159;" horiz-adv-x="355" 
d="M372 523l-18 -89q-23 5 -45 5q-63 0 -101.5 -44.5t-54.5 -117.5l-39 -277h-85l72 515h77l-4 -89q32 48 74.5 73.5t89.5 25.5q24 0 34 -2zM441 760l-168 -168h-74l-120 168h96l65 -107l97 107h104z" />
    <glyph glyph-name="Sacute" unicode="&#x15a;" horiz-adv-x="638" 
d="M101 48q-63 58 -63 157l85 8q0 -83 48.5 -114.5t119.5 -31.5q91 0 146.5 42t55.5 115q0 38 -16 60.5t-41.5 34t-72.5 26.5l-88 27q-93 28 -136.5 75.5t-43.5 116.5q0 95 71.5 150.5t197.5 55.5t187.5 -56.5t61.5 -156.5l-85 -10q0 72 -38.5 109t-124.5 37q-80 0 -131 -31
t-51 -93q0 -46 32 -73.5t102 -48.5l78 -24q61 -19 99.5 -39.5t62.5 -57.5t24 -97q0 -75 -38.5 -129t-105 -82t-150.5 -28q-123 0 -186 58zM415 835h-67l94 170h112z" />
    <glyph glyph-name="sacute" unicode="&#x15b;" horiz-adv-x="477" 
d="M65.5 33q-46.5 43 -46.5 114l84 9q0 -45 23 -68t79 -23q136 0 136 90q0 29 -24 44.5t-83 35.5l-33 11q-72 23 -107.5 53t-35.5 81q0 69 56 107t150 38q82 0 130 -41t48 -105l-85 -9q-1 35 -23.5 57.5t-77.5 22.5q-54 0 -83.5 -18t-29.5 -50q0 -19 19 -32.5t65 -29.5
l42 -14q53 -18 85.5 -34.5t52 -43.5t19.5 -68q0 -86 -61.5 -128t-159.5 -42q-93 0 -139.5 43zM309 590h-67l94 170h112z" />
    <glyph glyph-name="Scircumflex" unicode="&#x15c;" horiz-adv-x="638" 
d="M101 48q-63 58 -63 157l85 8q0 -83 48.5 -114.5t119.5 -31.5q91 0 146.5 42t55.5 115q0 38 -16 60.5t-41.5 34t-72.5 26.5l-88 27q-93 28 -136.5 75.5t-43.5 116.5q0 95 71.5 150.5t197.5 55.5t187.5 -56.5t61.5 -156.5l-85 -10q0 72 -38.5 109t-124.5 37q-80 0 -131 -31
t-51 -93q0 -46 32 -73.5t102 -48.5l78 -24q61 -19 99.5 -39.5t62.5 -57.5t24 -97q0 -75 -38.5 -129t-105 -82t-150.5 -28q-123 0 -186 58zM456 837l-65 107l-97 -107h-104l168 168h74l120 -168h-96z" />
    <glyph glyph-name="scircumflex" unicode="&#x15d;" horiz-adv-x="477" 
d="M65.5 33q-46.5 43 -46.5 114l84 9q0 -45 23 -68t79 -23q136 0 136 90q0 29 -24 44.5t-83 35.5l-33 11q-72 23 -107.5 53t-35.5 81q0 69 56 107t150 38q82 0 130 -41t48 -105l-85 -9q-1 35 -23.5 57.5t-77.5 22.5q-54 0 -83.5 -18t-29.5 -50q0 -19 19 -32.5t65 -29.5
l42 -14q53 -18 85.5 -34.5t52 -43.5t19.5 -68q0 -86 -61.5 -128t-159.5 -42q-93 0 -139.5 43zM350 592l-65 107l-97 -107h-104l168 168h74l120 -168h-96z" />
    <glyph glyph-name="Scedilla" unicode="&#x15e;" horiz-adv-x="638" 
d="M101 48q-63 58 -63 157l85 8q0 -83 48.5 -114.5t119.5 -31.5q91 0 146.5 42t55.5 115q0 38 -16 60.5t-41.5 34t-72.5 26.5l-88 27q-93 28 -136.5 75.5t-43.5 116.5q0 95 71.5 150.5t197.5 55.5t187.5 -56.5t61.5 -156.5l-85 -10q0 72 -38.5 109t-124.5 37q-80 0 -131 -31
t-51 -93q0 -46 32 -73.5t102 -48.5l78 -24q61 -19 99.5 -39.5t62.5 -57.5t24 -97q0 -75 -38.5 -129t-105 -82t-150.5 -28q-123 0 -186 58zM359 -55.5q23 -18.5 23 -50.5q0 -48 -32.5 -73.5t-82.5 -25.5q-23 0 -45 5.5t-35 14.5l23 44q20 -12 45 -12q21 0 33.5 11t12.5 30
q0 13 -8 20t-23 7q-19 0 -39 -13l-23 14l44 104h59l-20 -57h8q37 0 60 -18.5z" />
    <glyph glyph-name="scedilla" unicode="&#x15f;" horiz-adv-x="477" 
d="M65.5 33q-46.5 43 -46.5 114l84 9q0 -45 23 -68t79 -23q136 0 136 90q0 29 -24 44.5t-83 35.5l-33 11q-72 23 -107.5 53t-35.5 81q0 69 56 107t150 38q82 0 130 -41t48 -105l-85 -9q-1 35 -23.5 57.5t-77.5 22.5q-54 0 -83.5 -18t-29.5 -50q0 -19 19 -32.5t65 -29.5
l42 -14q53 -18 85.5 -34.5t52 -43.5t19.5 -68q0 -86 -61.5 -128t-159.5 -42q-93 0 -139.5 43zM277 -55.5q23 -18.5 23 -50.5q0 -48 -32.5 -73.5t-82.5 -25.5q-23 0 -45 5.5t-35 14.5l23 44q20 -12 45 -12q21 0 33.5 11t12.5 30q0 13 -8 20t-23 7q-19 0 -39 -13l-23 14
l44 104h59l-20 -57h8q37 0 60 -18.5z" />
    <glyph glyph-name="Scaron" unicode="&#x160;" horiz-adv-x="638" 
d="M101 48q-63 58 -63 157l85 8q0 -83 48.5 -114.5t119.5 -31.5q91 0 146.5 42t55.5 115q0 38 -16 60.5t-41.5 34t-72.5 26.5l-88 27q-93 28 -136.5 75.5t-43.5 116.5q0 95 71.5 150.5t197.5 55.5t187.5 -56.5t61.5 -156.5l-85 -10q0 72 -38.5 109t-124.5 37q-80 0 -131 -31
t-51 -93q0 -46 32 -73.5t102 -48.5l78 -24q61 -19 99.5 -39.5t62.5 -57.5t24 -97q0 -75 -38.5 -129t-105 -82t-150.5 -28q-123 0 -186 58zM587 1005l-168 -168h-74l-120 168h96l65 -107l97 107h104z" />
    <glyph glyph-name="scaron" unicode="&#x161;" horiz-adv-x="477" 
d="M65.5 33q-46.5 43 -46.5 114l84 9q0 -45 23 -68t79 -23q136 0 136 90q0 29 -24 44.5t-83 35.5l-33 11q-72 23 -107.5 53t-35.5 81q0 69 56 107t150 38q82 0 130 -41t48 -105l-85 -9q-1 35 -23.5 57.5t-77.5 22.5q-54 0 -83.5 -18t-29.5 -50q0 -19 19 -32.5t65 -29.5
l42 -14q53 -18 85.5 -34.5t52 -43.5t19.5 -68q0 -86 -61.5 -128t-159.5 -42q-93 0 -139.5 43zM481 760l-168 -168h-74l-120 168h96l65 -107l97 107h104z" />
    <glyph glyph-name="uni0162" unicode="&#x162;" horiz-adv-x="590" 
d="M625 684h-227l-96 -684h-87l96 684h-226l11 76h540zM330 -55.5q23 -18.5 23 -50.5q0 -48 -32.5 -73.5t-82.5 -25.5q-23 0 -45 5.5t-35 14.5l23 44q20 -12 45 -12q21 0 33.5 11t12.5 30q0 13 -8 20t-23 7q-19 0 -39 -13l-23 14l44 104h59l-20 -57h8q37 0 60 -18.5z" />
    <glyph glyph-name="uni0163" unicode="&#x163;" horiz-adv-x="339" 
d="M161 149q-3 -18 -3 -34q0 -29 13 -40.5t42 -11.5q32 0 65 7l-5 -70q-43 -10 -78 -10q-55 0 -88.5 28t-33.5 88q0 20 3 42l41 294h-81l15 73h76l18 125h85l-18 -125h119l-10 -73h-119zM219 -55.5q23 -18.5 23 -50.5q0 -48 -32.5 -73.5t-82.5 -25.5q-23 0 -45 5.5t-35 14.5
l23 44q20 -12 45 -12q21 0 33.5 11t12.5 30q0 13 -8 20t-23 7q-19 0 -39 -13l-23 14l44 104h59l-20 -57h8q37 0 60 -18.5z" />
    <glyph glyph-name="Tcaron" unicode="&#x164;" horiz-adv-x="590" 
d="M625 684h-227l-96 -684h-87l96 684h-226l11 76h540zM585 1005l-168 -168h-74l-120 168h96l65 -107l97 107h104z" />
    <glyph glyph-name="tcaron" unicode="&#x165;" horiz-adv-x="410" 
d="M481 760l-139 -170h-67l94 170h112zM212 515h119l-10 -73h-119l-41 -293q-3 -18 -3 -34q0 -29 13 -40.5t42 -11.5q32 0 65 7l-5 -70q-43 -10 -78 -10q-55 0 -88.5 28t-33.5 88q0 20 3 42l41 294h-81l15 73h76l18 125h85z" />
    <glyph glyph-name="Tbar" unicode="&#x166;" horiz-adv-x="590" 
d="M398 684l-35 -249h174l-10 -74h-174l-51 -361h-87l51 361h-169l10 74h169l35 249h-226l11 76h540l-11 -76h-227z" />
    <glyph glyph-name="tbar" unicode="&#x167;" horiz-adv-x="339" 
d="M202 442l-17 -125h118l-10 -70h-118l-14 -98q-3 -18 -3 -34q0 -29 13 -40.5t42 -11.5q32 0 65 7l-5 -70q-43 -10 -78 -10q-55 0 -88.5 28t-33.5 88q0 20 3 42l14 99h-67l10 70h67l17 125h-81l15 73h76l18 125h85l-18 -125h119l-10 -73h-119z" />
    <glyph glyph-name="Utilde" unicode="&#x168;" horiz-adv-x="670" 
d="M127.5 52.5q-63.5 62.5 -63.5 172.5q0 23 5 63l67 472h86l-68 -478q-5 -35 -5 -56q0 -75 41 -117t117 -42q91 0 145.5 55.5t69.5 160.5l68 477h86l-67 -472q-21 -151 -95.5 -224.5t-212.5 -73.5q-110 0 -173.5 62.5zM441.5 892q-18.5 9 -36.5 23q-16 12 -25.5 17t-18.5 5
q-13 0 -28 -9.5t-27 -28.5l-56 27q45 75 122 75q25 0 44.5 -9t39.5 -24q16 -11 26 -16.5t19 -5.5q13 0 28 9.5t27 28.5l58 -21q-26 -39 -59 -59.5t-71 -20.5q-24 0 -42.5 9z" />
    <glyph glyph-name="utilde" unicode="&#x169;" 
d="M531 515l-72 -515h-77l7 90q-33 -49 -80.5 -74.5t-102.5 -25.5q-51 0 -86.5 21.5t-53.5 57.5t-18 78q0 21 3 42l45 326h85l-44 -317q-3 -22 -3 -41q0 -51 27.5 -73t80.5 -22q69 0 110 50.5t54 115.5l40 287h85zM351.5 647q-18.5 9 -36.5 23q-16 12 -25.5 17t-18.5 5
q-13 0 -28 -9.5t-27 -28.5l-56 27q45 75 122 75q25 0 44.5 -9t39.5 -24q16 -11 26 -16.5t19 -5.5q13 0 28 9.5t27 28.5l58 -21q-26 -39 -59 -59.5t-71 -20.5q-24 0 -42.5 9z" />
    <glyph glyph-name="Umacron" unicode="&#x16a;" horiz-adv-x="670" 
d="M127.5 52.5q-63.5 62.5 -63.5 172.5q0 23 5 63l67 472h86l-68 -478q-5 -35 -5 -56q0 -75 41 -117t117 -42q91 0 145.5 55.5t69.5 160.5l68 477h86l-67 -472q-21 -151 -95.5 -224.5t-212.5 -73.5q-110 0 -173.5 62.5zM298 967h275l-9 -67h-275z" />
    <glyph glyph-name="umacron" unicode="&#x16b;" 
d="M531 515l-72 -515h-77l7 90q-33 -49 -80.5 -74.5t-102.5 -25.5q-51 0 -86.5 21.5t-53.5 57.5t-18 78q0 21 3 42l45 326h85l-44 -317q-3 -22 -3 -41q0 -51 27.5 -73t80.5 -22q69 0 110 50.5t54 115.5l40 287h85zM208 722h275l-9 -67h-275z" />
    <glyph glyph-name="Ubreve" unicode="&#x16c;" horiz-adv-x="670" 
d="M127.5 52.5q-63.5 62.5 -63.5 172.5q0 23 5 63l67 472h86l-68 -478q-5 -35 -5 -56q0 -75 41 -117t117 -42q91 0 145.5 55.5t69.5 160.5l68 477h86l-67 -472q-21 -151 -95.5 -224.5t-212.5 -73.5q-110 0 -173.5 62.5zM303.5 876.5q-39.5 43.5 -39.5 128.5h65
q0 -51 26.5 -78t68.5 -27q82 0 117 105h65q-20 -86 -69 -129t-121 -43q-73 0 -112.5 43.5z" />
    <glyph glyph-name="ubreve" unicode="&#x16d;" 
d="M531 515l-72 -515h-77l7 90q-33 -49 -80.5 -74.5t-102.5 -25.5q-51 0 -86.5 21.5t-53.5 57.5t-18 78q0 21 3 42l45 326h85l-44 -317q-3 -22 -3 -41q0 -51 27.5 -73t80.5 -22q69 0 110 50.5t54 115.5l40 287h85zM213.5 631.5q-39.5 43.5 -39.5 128.5h65q0 -51 26.5 -78
t68.5 -27q82 0 117 105h65q-20 -86 -69 -129t-121 -43q-73 0 -112.5 43.5z" />
    <glyph glyph-name="Uring" unicode="&#x16e;" horiz-adv-x="670" 
d="M127.5 52.5q-63.5 62.5 -63.5 172.5q0 23 5 63l67 472h86l-68 -478q-5 -35 -5 -56q0 -75 41 -117t117 -42q91 0 145.5 55.5t69.5 160.5l68 477h86l-67 -472q-21 -151 -95.5 -224.5t-212.5 -73.5q-110 0 -173.5 62.5zM345 864q-32 32 -32 78q0 45 32 77t78 32t77.5 -32
t31.5 -77q0 -46 -31.5 -78t-77.5 -32t-78 32zM464.5 898q17.5 18 17.5 44q0 25 -17.5 43t-41.5 18q-25 0 -42.5 -18t-17.5 -43q0 -26 17.5 -44t42.5 -18q24 0 41.5 18z" />
    <glyph glyph-name="uring" unicode="&#x16f;" 
d="M531 515l-72 -515h-77l7 90q-33 -49 -80.5 -74.5t-102.5 -25.5q-51 0 -86.5 21.5t-53.5 57.5t-18 78q0 21 3 42l45 326h85l-44 -317q-3 -22 -3 -41q0 -51 27.5 -73t80.5 -22q69 0 110 50.5t54 115.5l40 287h85zM255 619q-32 32 -32 78q0 45 32 77t78 32t77.5 -32
t31.5 -77q0 -46 -31.5 -78t-77.5 -32t-78 32zM374.5 653q17.5 18 17.5 44q0 25 -17.5 43t-41.5 18q-25 0 -42.5 -18t-17.5 -43q0 -26 17.5 -44t42.5 -18q24 0 41.5 18z" />
    <glyph glyph-name="Uhungarumlaut" unicode="&#x170;" horiz-adv-x="670" 
d="M127.5 52.5q-63.5 62.5 -63.5 172.5q0 23 5 63l67 472h86l-68 -478q-5 -35 -5 -56q0 -75 41 -117t117 -42q91 0 145.5 55.5t69.5 160.5l68 477h86l-67 -472q-21 -151 -95.5 -224.5t-212.5 -73.5q-110 0 -173.5 62.5zM333 835h-67l94 170h112zM531 835h-67l94 170h112z
" />
    <glyph glyph-name="uhungarumlaut" unicode="&#x171;" 
d="M531 515l-72 -515h-77l7 90q-33 -49 -80.5 -74.5t-102.5 -25.5q-51 0 -86.5 21.5t-53.5 57.5t-18 78q0 21 3 42l45 326h85l-44 -317q-3 -22 -3 -41q0 -51 27.5 -73t80.5 -22q69 0 110 50.5t54 115.5l40 287h85zM243 590h-67l94 170h112zM441 590h-67l94 170h112z" />
    <glyph glyph-name="Uogonek" unicode="&#x172;" horiz-adv-x="670" 
d="M127.5 52.5q-63.5 62.5 -63.5 172.5q0 23 5 63l67 472h86l-68 -478q-5 -35 -5 -56q0 -75 41 -117t117 -42q91 0 145.5 55.5t69.5 160.5l68 477h86l-67 -472q-21 -151 -95.5 -224.5t-212.5 -73.5q-110 0 -173.5 62.5zM346 -28.5q-25 -22.5 -25 -57.5q0 -54 67 -54
q18 0 44 6l-5 -57q-28 -14 -69 -14q-51 0 -82 24.5t-31 71.5q0 59 47 95t110 48l3 -29q-34 -11 -59 -33.5z" />
    <glyph glyph-name="uogonek" unicode="&#x173;" 
d="M531 515l-72 -515h-77l7 90q-33 -49 -80.5 -74.5t-102.5 -25.5q-51 0 -86.5 21.5t-53.5 57.5t-18 78q0 21 3 42l45 326h85l-44 -317q-3 -22 -3 -41q0 -51 27.5 -73t80.5 -22q69 0 110 50.5t54 115.5l40 287h85zM393 -28.5q-25 -22.5 -25 -57.5q0 -54 67 -54q18 0 44 6
l-5 -57q-28 -14 -69 -14q-51 0 -82 24.5t-31 71.5q0 59 47 95t110 48l3 -29q-34 -11 -59 -33.5z" />
    <glyph glyph-name="Wcircumflex" unicode="&#x174;" horiz-adv-x="955" 
d="M1011 760l-308 -760h-93l-81 621l-256 -621h-92l-95 760h87l68 -654l272 654h76l81 -654l249 654h92zM637 837l-65 107l-97 -107h-104l168 168h74l120 -168h-96z" />
    <glyph glyph-name="wcircumflex" unicode="&#x175;" horiz-adv-x="775" 
d="M801 515l-231 -515h-93l-69 406l-181 -406h-94l-87 515h85l61 -423l190 423h81l71 -421l178 421h89zM512 592l-65 107l-97 -107h-104l168 168h74l120 -168h-96z" />
    <glyph glyph-name="Ycircumflex" unicode="&#x176;" 
d="M631 760l-492 -760h-91l209 323l-176 437h89l139 -357l231 357h91zM428 837l-65 107l-97 -107h-104l168 168h74l120 -168h-96z" />
    <glyph glyph-name="ycircumflex" unicode="&#x177;" horiz-adv-x="561" 
d="M531 515l-65 -468q-17 -121 -83 -186.5t-174 -65.5q-76 0 -124 32.5t-60 85.5l82 16q7 -31 34 -47.5t72 -16.5q143 0 168 181l6 41q-33 -48 -80 -72.5t-101 -24.5q-51 0 -86.5 21.5t-53.5 57.5t-18 78q0 21 3 42l45 326h85l-44 -317q-3 -22 -3 -41q0 -51 27.5 -73
t80.5 -22q50 0 85.5 28t55 69t25.5 82l38 274h85zM407 592l-65 107l-97 -107h-104l168 168h74l120 -168h-96z" />
    <glyph glyph-name="Ydieresis" unicode="&#x178;" 
d="M631 760l-492 -760h-91l209 323l-176 437h89l139 -357l231 357h91zM229.5 884q-16.5 17 -16.5 41q0 25 16.5 42t41.5 17q24 0 41 -17t17 -42q0 -24 -17 -41t-41 -17q-25 0 -41.5 17zM415.5 884q-16.5 17 -16.5 41q0 25 16.5 42t41.5 17q24 0 40.5 -17t16.5 -42
q0 -24 -16.5 -41t-40.5 -17q-25 0 -41.5 17z" />
    <glyph glyph-name="Zacute" unicode="&#x179;" horiz-adv-x="588" 
d="M140 74h382l-11 -74h-517l489 686h-363l11 74h498zM412 835h-67l94 170h112z" />
    <glyph glyph-name="zacute" unicode="&#x17a;" horiz-adv-x="480" 
d="M143 73h274l-11 -73h-417l348 442h-260l16 73h398zM333 590h-67l94 170h112z" />
    <glyph glyph-name="Zdotaccent" unicode="&#x17b;" horiz-adv-x="588" 
d="M140 74h382l-11 -74h-517l489 686h-363l11 74h498zM342 877q-19 19 -19 46q0 28 19 47t46 19t46 -19t19 -47q0 -27 -19 -46t-46 -19t-46 19z" />
    <glyph glyph-name="zdotaccent" unicode="&#x17c;" horiz-adv-x="480" 
d="M143 73h274l-11 -73h-417l348 442h-260l16 73h398zM263 632q-19 19 -19 46q0 28 19 47t46 19t46 -19t19 -47q0 -27 -19 -46t-46 -19t-46 19z" />
    <glyph glyph-name="Zcaron" unicode="&#x17d;" horiz-adv-x="588" 
d="M140 74h382l-11 -74h-517l489 686h-363l11 74h498zM584 1005l-168 -168h-74l-120 168h96l65 -107l97 107h104z" />
    <glyph glyph-name="zcaron" unicode="&#x17e;" horiz-adv-x="480" 
d="M143 73h274l-11 -73h-417l348 442h-260l16 73h398zM505 760l-168 -168h-74l-120 168h96l65 -107l97 107h104z" />
    <glyph glyph-name="longs" unicode="&#x17f;" horiz-adv-x="276" 
d="M405 749l-16 -70q-33 16 -74 16q-39 0 -61 -21.5t-30 -81.5l-83 -592h-85l61 442h-81l18 73h73l12 84q13 95 59 133t117 38q54 0 90 -21z" />
    <glyph glyph-name="uni018F" unicode="&#x18f;" horiz-adv-x="840" 
d="M661.5 727.5q73.5 -42.5 114 -117.5t40.5 -169q0 -125 -58.5 -228.5t-158 -163t-215.5 -59.5q-98 0 -171.5 43t-113 118t-39.5 171q0 45 7 92h661v17q0 78 -30 137.5t-84.5 92t-124.5 32.5q-91 0 -167 -45.5t-122 -124.5l-86 12q58 107 157.5 171t220.5 64
q96 0 169.5 -42.5zM536 103q68 36 114.5 98t65.5 137h-569v-5q0 -79 29 -139.5t84 -93.5t129 -33q79 0 147 36z" />
    <glyph glyph-name="florin" unicode="&#x192;" horiz-adv-x="545" 
d="M436.5 653.5q-27.5 -29.5 -43.5 -93.5l-28 -111h92l-11 -74h-99l-92 -372q-25 -101 -81.5 -149.5t-145.5 -48.5h-12l18 77q58 0 88.5 29.5t46.5 92.5l92 371h-75l11 74h82l29 116q25 101 78 148t137 47h13l-19 -77q-53 0 -80.5 -29.5z" />
    <glyph glyph-name="uni019D" unicode="&#x19d;" horiz-adv-x="662" 
d="M663 760l-107 -760h-86l-261 620l-82 -580q-17 -120 -88 -182.5t-175 -62.5q-21 0 -39 3l17 77q17 -3 33 -3q63 0 109.5 41.5t57.5 123.5l102 723h85l261 -619l87 619h86z" />
    <glyph glyph-name="uni01CD" unicode="&#x1cd;" horiz-adv-x="605" 
d="M453 136h-332l-61 -136h-91l356 760h97l142 -760h-88zM440 212l-78 463l-207 -463h285zM592 1005l-168 -168h-74l-120 168h96l65 -107l97 107h104z" />
    <glyph glyph-name="uni01CE" unicode="&#x1ce;" horiz-adv-x="620" 
d="M591 515l-72 -515h-76l7 87q-33 -44 -84 -70.5t-111 -26.5q-59 0 -108 29t-77.5 81.5t-28.5 120.5q0 89 39.5 158.5t105.5 107.5t141 38q58 0 101.5 -25t66.5 -69l12 84h84zM374 95.5q48 30.5 76 82t28 112.5q0 72 -39.5 116t-108.5 44q-54 0 -100.5 -27t-75 -78
t-28.5 -118q0 -76 39 -119t105 -43q56 0 104 30.5zM548 760l-168 -168h-74l-120 168h96l65 -107l97 107h104z" />
    <glyph glyph-name="Gcaron" unicode="&#x1e6;" horiz-adv-x="805" 
d="M394 405h363l-45 -316q-141 -99 -307 -99q-109 0 -186.5 41t-118.5 116.5t-41 177.5q0 122 56 224t153.5 161.5t216.5 59.5q118 0 195.5 -58.5t106.5 -155.5l-87 -10q-20 61 -76 104t-145 43q-95 0 -171 -51.5t-118.5 -136t-42.5 -181.5q0 -122 70 -189.5t198 -67.5
q66 0 118 16.5t99 42.5l28 203h-277zM702 1005l-168 -168h-74l-120 168h96l65 -107l97 107h104z" />
    <glyph glyph-name="gcaron" unicode="&#x1e7;" horiz-adv-x="621" 
d="M592 515l-63 -447q-19 -135 -89 -204t-195 -69q-80 0 -133.5 33t-71.5 85l85 16q30 -64 124 -64q82 0 131.5 49.5t62.5 141.5l4 25q-35 -42 -85 -66.5t-106 -24.5q-61 0 -110 29.5t-77 82t-28 119.5q0 90 39.5 159t106 107t143.5 38q58 0 101.5 -25.5t65.5 -72.5l18 88
h77zM375 95.5q47 30.5 75 82.5t28 113q0 70 -39.5 114.5t-106.5 44.5q-55 0 -102 -27t-75.5 -77t-28.5 -116q0 -77 38 -121t109 -44q55 0 102 30.5zM549 760l-168 -168h-74l-120 168h96l65 -107l97 107h104z" />
    <glyph glyph-name="Aringacute" unicode="&#x1fa;" horiz-adv-x="605" 
d="M453 136h-332l-61 -136h-91l356 760h97l142 -760h-88zM440 212l-78 463l-207 -463h285zM312 864q-32 32 -32 78q0 45 32 77t78 32t77.5 -32t31.5 -77q0 -46 -31.5 -78t-77.5 -32t-78 32zM431.5 898q17.5 18 17.5 44q0 25 -17.5 43t-41.5 18q-25 0 -42.5 -18t-17.5 -43
q0 -26 17.5 -44t42.5 -18q24 0 41.5 18zM448 1106h-67l94 170h112z" />
    <glyph glyph-name="aringacute" unicode="&#x1fb;" horiz-adv-x="620" 
d="M591 515l-72 -515h-76l7 87q-33 -44 -84 -70.5t-111 -26.5q-59 0 -108 29t-77.5 81.5t-28.5 120.5q0 89 39.5 158.5t105.5 107.5t141 38q58 0 101.5 -25t66.5 -69l12 84h84zM374 95.5q48 30.5 76 82t28 112.5q0 72 -39.5 116t-108.5 44q-54 0 -100.5 -27t-75 -78
t-28.5 -118q0 -76 39 -119t105 -43q56 0 104 30.5zM268 619q-32 32 -32 78q0 45 32 77t78 32t77.5 -32t31.5 -77q0 -46 -31.5 -78t-77.5 -32t-78 32zM387.5 653q17.5 18 17.5 44q0 25 -17.5 43t-41.5 18q-25 0 -42.5 -18t-17.5 -43q0 -26 17.5 -44t42.5 -18q24 0 41.5 18z
M404 861h-67l94 170h112z" />
    <glyph glyph-name="AEacute" unicode="&#x1fc;" horiz-adv-x="921" 
d="M600 686l-36 -253h316l-9 -74h-317l-41 -285h327l-11 -74h-412l25 178h-272l-122 -178h-89l519 760h453l-11 -74h-320zM452 252l61 429l-293 -429h232zM741 835h-67l94 170h112z" />
    <glyph glyph-name="aeacute" unicode="&#x1fd;" horiz-adv-x="936" 
d="M492 234v-16q0 -73 39 -113t104 -40q50 0 91 24t68 65l83 -10q-42 -74 -106.5 -114t-144.5 -40q-68 0 -119 29.5t-78 82.5q-33 -54 -90.5 -83t-136.5 -29q-81 0 -129.5 35.5t-48.5 106.5q0 95 70.5 133.5t179.5 38.5h141q4 32 4 38q0 59 -33.5 83.5t-82.5 24.5
q-51 0 -87 -21t-62 -59l-85 11q39 69 98 106.5t152 37.5q57 0 102.5 -21.5t66.5 -69.5q38 43 90 67t112 24q98 0 150 -60t52 -152q0 -20 -2 -42.5t-5 -36.5h-393zM568 410q-45 -40 -64 -106h303v6q0 68 -34 104t-94 36q-66 0 -111 -40zM339 97.5q53 39.5 63 109.5l3 20l1 7
h-140q-91 0 -124.5 -24.5t-33.5 -70.5q0 -40 28 -60.5t81 -20.5q69 0 122 39.5zM553 590h-67l94 170h112z" />
    <glyph glyph-name="Oslashacute" unicode="&#x1fe;" horiz-adv-x="841" 
d="M793.5 570q22.5 -62 22.5 -137q0 -122 -58.5 -223.5t-157.5 -160.5t-215 -59q-104 0 -184 50l-49 -60h-89l85 103q-43 45 -66 107t-23 137q0 122 58.5 223.5t157.5 160.5t215 59q106 0 184 -50l50 60h89l-85 -103q43 -45 65.5 -107zM203 149l419 507q-59 37 -136 37
q-93 0 -171 -50.5t-123 -135t-45 -181.5q0 -107 56 -177zM560 117.5q78 50.5 123 135t45 181.5q0 53 -14 98t-41 78l-419 -507q58 -36 135 -36q93 0 171 50.5zM537 835h-67l94 170h112z" />
    <glyph glyph-name="oslashacute" unicode="&#x1ff;" horiz-adv-x="602" 
d="M505 454q27 -29 41.5 -69.5t14.5 -87.5q0 -89 -38 -159t-105.5 -109t-153.5 -39q-64 0 -118 30l-33 -40h-84l67 81q-55 63 -55 157q0 89 38.5 159t106 109t152.5 39q65 0 117 -30l33 40h84zM150 126l254 308q-32 16 -71 16q-56 0 -103.5 -28t-75.5 -79.5t-28 -118.5
q0 -56 24 -98zM452 389l-255 -307q32 -17 72 -17q56 0 103.5 28t75.5 79.5t28 118.5q0 58 -24 98zM384 590h-67l94 170h112z" />
    <glyph glyph-name="Scommaaccent" unicode="&#x218;" horiz-adv-x="638" 
d="M101 48q-63 58 -63 157l85 8q0 -83 48.5 -114.5t119.5 -31.5q91 0 146.5 42t55.5 115q0 38 -16 60.5t-41.5 34t-72.5 26.5l-88 27q-93 28 -136.5 75.5t-43.5 116.5q0 95 71.5 150.5t197.5 55.5t187.5 -56.5t61.5 -156.5l-85 -10q0 72 -38.5 109t-124.5 37q-80 0 -131 -31
t-51 -93q0 -46 32 -73.5t102 -48.5l78 -24q61 -19 99.5 -39.5t62.5 -57.5t24 -97q0 -75 -38.5 -129t-105 -82t-150.5 -28q-123 0 -186 58zM245 -200h-67l72 130h111z" />
    <glyph glyph-name="scommaaccent" unicode="&#x219;" horiz-adv-x="477" 
d="M65.5 33q-46.5 43 -46.5 114l84 9q0 -45 23 -68t79 -23q136 0 136 90q0 29 -24 44.5t-83 35.5l-33 11q-72 23 -107.5 53t-35.5 81q0 69 56 107t150 38q82 0 130 -41t48 -105l-85 -9q-1 35 -23.5 57.5t-77.5 22.5q-54 0 -83.5 -18t-29.5 -50q0 -19 19 -32.5t65 -29.5
l42 -14q53 -18 85.5 -34.5t52 -43.5t19.5 -68q0 -86 -61.5 -128t-159.5 -42q-93 0 -139.5 43zM163 -200h-67l72 130h111z" />
    <glyph glyph-name="uni021A" unicode="&#x21a;" horiz-adv-x="590" 
d="M625 684h-227l-96 -684h-87l96 684h-226l11 76h540zM216 -200h-67l72 130h111z" />
    <glyph glyph-name="uni021B" unicode="&#x21b;" horiz-adv-x="339" 
d="M161 149q-3 -18 -3 -34q0 -29 13 -40.5t42 -11.5q32 0 65 7l-5 -70q-43 -10 -78 -10q-55 0 -88.5 28t-33.5 88q0 20 3 42l41 294h-81l15 73h76l18 125h85l-18 -125h119l-10 -73h-119zM105 -200h-67l72 130h111z" />
    <glyph glyph-name="uni0232" unicode="&#x232;" 
d="M631 760l-492 -760h-91l209 323l-176 437h89l139 -357l231 357h91zM232 967h275l-9 -67h-275z" />
    <glyph glyph-name="uni0233" unicode="&#x233;" horiz-adv-x="561" 
d="M531 515l-65 -468q-17 -121 -83 -186.5t-174 -65.5q-76 0 -124 32.5t-60 85.5l82 16q7 -31 34 -47.5t72 -16.5q143 0 168 181l6 41q-33 -48 -80 -72.5t-101 -24.5q-51 0 -86.5 21.5t-53.5 57.5t-18 78q0 21 3 42l45 326h85l-44 -317q-3 -22 -3 -41q0 -51 27.5 -73
t80.5 -22q50 0 85.5 28t55 69t25.5 82l38 274h85zM211 722h275l-9 -67h-275z" />
    <glyph glyph-name="uni0237" unicode="&#x237;" horiz-adv-x="231" 
d="M-138 -190l16 72q43 -12 79 -12q40 0 58 21.5t26 80.5l76 543h85l-79 -559q-13 -87 -55 -124t-108 -37q-59 0 -98 15z" />
    <glyph glyph-name="uni0259" unicode="&#x259;" horiz-adv-x="585" 
d="M459 289v7q0 72 -40 113t-101 41q-58 0 -102 -26t-72 -70l-84 10q41 77 109 119t153 42q66 0 116.5 -30t78 -81.5t27.5 -114.5q0 -86 -37 -157t-103.5 -111.5t-150.5 -40.5q-69 0 -117 29t-72 78.5t-24 110.5q0 15 2 39t5 42h412zM375.5 105.5q52.5 40.5 73.5 111.5h-324
v-4q0 -72 34.5 -110t95.5 -38q68 0 120.5 40.5z" />
    <glyph glyph-name="uni0272" unicode="&#x272;" horiz-adv-x="585" 
d="M495.5 479.5q41.5 -45.5 41.5 -116.5q0 -20 -4 -48l-44 -315h-85l43 308q4 30 4 42q0 52 -25 77.5t-80 25.5q-54 0 -92.5 -27.5t-59.5 -68t-27 -82.5l-11 -79l-33 -240q-22 -161 -167 -161q-55 0 -94 15l16 72q43 -12 78 -12q40 0 57.5 20.5t25.5 73.5l5 36l72 515h77
l-6 -92q33 50 81.5 76t105.5 26q80 0 121.5 -45.5z" />
    <glyph glyph-name="circumflex" unicode="&#x2c6;" horiz-adv-x="462" 
d="M363 592l-65 107l-97 -107h-104l168 168h74l120 -168h-96z" />
    <glyph glyph-name="caron" unicode="&#x2c7;" horiz-adv-x="462" 
d="M483 760l-168 -168h-74l-120 168h96l65 -107l97 107h104z" />
    <glyph glyph-name="breve" unicode="&#x2d8;" horiz-adv-x="442" 
d="M160.5 631.5q-39.5 43.5 -39.5 128.5h65q0 -51 26.5 -78t68.5 -27q82 0 117 105h65q-20 -86 -69 -129t-121 -43q-73 0 -112.5 43.5z" />
    <glyph glyph-name="dotaccent" unicode="&#x2d9;" horiz-adv-x="232" 
d="M129 632q-19 19 -19 46q0 28 19 47t46 19t46 -19t19 -47q0 -27 -19 -46t-46 -19t-46 19z" />
    <glyph glyph-name="ring" unicode="&#x2da;" horiz-adv-x="321" 
d="M145 619q-32 32 -32 78q0 45 32 77t78 32t77.5 -32t31.5 -77q0 -46 -31.5 -78t-77.5 -32t-78 32zM264.5 653q17.5 18 17.5 44q0 25 -17.5 43t-41.5 18q-25 0 -42.5 -18t-17.5 -43q0 -26 17.5 -44t42.5 -18q24 0 41.5 18z" />
    <glyph glyph-name="ogonek" unicode="&#x2db;" horiz-adv-x="295" 
d="M101 -28.5q-25 -22.5 -25 -57.5q0 -54 67 -54q18 0 44 6l-5 -57q-28 -14 -69 -14q-51 0 -82 24.5t-31 71.5q0 59 47 95t110 48l3 -29q-34 -11 -59 -33.5z" />
    <glyph glyph-name="tilde" unicode="&#x2dc;" horiz-adv-x="459" 
d="M301.5 647q-18.5 9 -36.5 23q-16 12 -25.5 17t-18.5 5q-13 0 -28 -9.5t-27 -28.5l-56 27q45 75 122 75q25 0 44.5 -9t39.5 -24q16 -11 26 -16.5t19 -5.5q13 0 28 9.5t27 28.5l58 -21q-26 -39 -59 -59.5t-71 -20.5q-24 0 -42.5 9z" />
    <glyph glyph-name="hungarumlaut" unicode="&#x2dd;" horiz-adv-x="480" 
d="M164 590h-67l94 170h112zM362 590h-67l94 170h112z" />
    <glyph glyph-name="gravecomb" unicode="&#x300;" horiz-adv-x="0" 
d="M-97 760l94 -170h-67l-139 170h112z" />
    <glyph glyph-name="acutecomb" unicode="&#x301;" horiz-adv-x="0" 
d="M-118 590h-67l94 170h112z" />
    <glyph glyph-name="uni0302" unicode="&#x302;" horiz-adv-x="0" 
d="M-99 592l-65 107l-97 -107h-104l168 168h74l120 -168h-96z" />
    <glyph glyph-name="tildecomb" unicode="&#x303;" horiz-adv-x="0" 
d="M-157.5 647q-18.5 9 -36.5 23q-16 12 -25.5 17t-18.5 5q-13 0 -28 -9.5t-27 -28.5l-56 27q45 75 122 75q25 0 44.5 -9t39.5 -24q16 -11 26 -16.5t19 -5.5q13 0 28 9.5t27 28.5l58 -21q-26 -39 -59 -59.5t-71 -20.5q-24 0 -42.5 9z" />
    <glyph glyph-name="uni0304" unicode="&#x304;" horiz-adv-x="0" 
d="M-260 722h275l-9 -67h-275z" />
    <glyph glyph-name="uni0306" unicode="&#x306;" horiz-adv-x="0" 
d="M-281.5 631.5q-39.5 43.5 -39.5 128.5h65q0 -51 26.5 -78t68.5 -27q82 0 117 105h65q-20 -86 -69 -129t-121 -43q-73 0 -112.5 43.5z" />
    <glyph glyph-name="uni0307" unicode="&#x307;" horiz-adv-x="0" 
d="M-103 632q-19 19 -19 46q0 28 19 47t46 19t46 -19t19 -47q0 -27 -19 -46t-46 -19t-46 19z" />
    <glyph glyph-name="uni0308" unicode="&#x308;" horiz-adv-x="0" 
d="M-275.5 639q-16.5 17 -16.5 41q0 25 16.5 42t41.5 17q24 0 41 -17t17 -42q0 -24 -17 -41t-41 -17q-25 0 -41.5 17zM-89.5 639q-16.5 17 -16.5 41q0 25 16.5 42t41.5 17q24 0 40.5 -17t16.5 -42q0 -24 -16.5 -41t-40.5 -17q-25 0 -41.5 17z" />
    <glyph glyph-name="uni030A" unicode="&#x30a;" horiz-adv-x="0" 
d="M-176 619q-32 32 -32 78q0 45 32 77t78 32t77.5 -32t31.5 -77q0 -46 -31.5 -78t-77.5 -32t-78 32zM-56.5 653q17.5 18 17.5 44q0 25 -17.5 43t-41.5 18q-25 0 -42.5 -18t-17.5 -43q0 -26 17.5 -44t42.5 -18q24 0 41.5 18z" />
    <glyph glyph-name="uni030B" unicode="&#x30b;" horiz-adv-x="0" 
d="M-316 590h-67l94 170h112zM-118 590h-67l94 170h112z" />
    <glyph glyph-name="uni030C" unicode="&#x30c;" horiz-adv-x="0" 
d="M21 760l-168 -168h-74l-120 168h96l65 -107l97 107h104z" />
    <glyph glyph-name="uni0326" unicode="&#x326;" horiz-adv-x="0" 
d="M-212 -200h-67l72 130h111z" />
    <glyph glyph-name="uni0327" unicode="&#x327;" horiz-adv-x="0" 
d="M-125 -55.5q23 -18.5 23 -50.5q0 -48 -32.5 -73.5t-82.5 -25.5q-23 0 -45 5.5t-35 14.5l23 44q20 -12 45 -12q21 0 33.5 11t12.5 30q0 13 -8 20t-23 7q-19 0 -39 -13l-23 14l44 104h59l-20 -57h8q37 0 60 -18.5z" />
    <glyph glyph-name="uni0328" unicode="&#x328;" horiz-adv-x="0" 
d="M-194 -28.5q-25 -22.5 -25 -57.5q0 -54 67 -54q18 0 44 6l-5 -57q-28 -14 -69 -14q-51 0 -82 24.5t-31 71.5q0 59 47 95t110 48l3 -29q-34 -11 -59 -33.5z" />
    <glyph glyph-name="tonos" unicode="&#x384;" horiz-adv-x="282" 
d="M97 590l94 170h112l-139 -170h-67z" />
    <glyph glyph-name="dieresistonos" unicode="&#x385;" horiz-adv-x="490" 
d="M300 760h112l-139 -170h-67zM126.5 639q-16.5 17 -16.5 41q0 25 16.5 42t41.5 17q24 0 41 -17t17 -42q0 -24 -17 -41t-41 -17q-25 0 -41.5 17zM400.5 639q-16.5 17 -16.5 41q0 25 16.5 42t41.5 17q24 0 40.5 -17t16.5 -42q0 -24 -16.5 -41t-40.5 -17q-25 0 -41.5 17z" />
    <glyph glyph-name="Alphatonos" unicode="&#x386;" horiz-adv-x="605" 
d="M453 136h-332l-61 -136h-91l356 760h97l142 -760h-88zM440 212l-78 463l-207 -463h285zM-15 590l94 170h112l-139 -170h-67z" />
    <glyph glyph-name="anoteleia" unicode="&#x387;" horiz-adv-x="236" 
d="M91.5 360q-19.5 20 -19.5 47q0 28 19.5 47.5t47.5 19.5t47.5 -19.5t19.5 -47.5q0 -27 -19.5 -47t-47.5 -20t-47.5 20z" />
    <glyph glyph-name="Epsilontonos" unicode="&#x388;" horiz-adv-x="546" 
d="M216 684l-35 -250h325l-10 -76h-326l-39 -282h334l-11 -76h-420l107 760h415l-11 -76h-329zM-135 590l94 170h112l-139 -170h-67z" />
    <glyph glyph-name="Etatonos" unicode="&#x389;" horiz-adv-x="660" 
d="M661 760l-107 -760h-86l50 358h-348l-50 -358h-86l107 760h86l-46 -326h348l46 326h86zM-134 590l94 170h112l-139 -170h-67z" />
    <glyph glyph-name="Iotatonos" unicode="&#x38a;" horiz-adv-x="226" 
d="M141 760h86l-107 -760h-86zM-132 590l94 170h112l-139 -170h-67z" />
    <glyph glyph-name="Omicrontonos" unicode="&#x38c;" horiz-adv-x="841" 
d="M214 32q-74 42 -114.5 118.5t-40.5 176.5q0 122 58.5 223.5t157.5 160.5t215 59q97 0 171 -42t114.5 -118.5t40.5 -176.5q0 -122 -58.5 -223.5t-157.5 -160.5t-215 -59q-97 0 -171 42zM560 117.5q78 50.5 123 135t45 181.5q0 77 -29.5 136t-84.5 91t-128 32
q-93 0 -171 -50.5t-123 -135t-45 -181.5q0 -77 29.5 -136t84.5 -91t128 -32q93 0 171 50.5zM-56 590l94 170h112l-139 -170h-67z" />
    <glyph glyph-name="Upsilontonos" unicode="&#x38e;" 
d="M631 760l-492 -760h-91l209 323l-176 437h89l139 -357l231 357h91zM-165 590l94 170h112l-139 -170h-67z" />
    <glyph glyph-name="Omegatonos" unicode="&#x38f;" horiz-adv-x="870" 
d="M785.5 232.5q-52.5 -98.5 -144.5 -156.5h153l-10 -76h-306l8 62q89 31 148.5 91.5t87.5 133.5t28 146q0 72 -27 131t-84 94t-142 35q-97 0 -175.5 -46.5t-123 -128t-44.5 -182.5q0 -90 43 -164.5t132 -109.5l-8 -62h-299l10 76h153q-59 45 -89 111t-30 149q0 124 58 223
t158 155t221 56q103 0 179 -43t116 -117.5t40 -168.5q0 -110 -52.5 -208.5zM-56 590l94 170h112l-139 -170h-67z" />
    <glyph glyph-name="iotadieresistonos" unicode="&#x390;" horiz-adv-x="239" 
d="M67.5 13.5q-24.5 23.5 -24.5 68.5q0 16 3 38l56 395h85l-53 -374q-3 -24 -3 -32q0 -26 10.5 -34t37.5 -8h8l-5 -75q-22 -2 -33 -2q-57 0 -81.5 23.5zM164 760h112l-139 -170h-67zM-9.5 639q-16.5 17 -16.5 41q0 25 16.5 42t41.5 17q24 0 41 -17t17 -42q0 -24 -17 -41
t-41 -17q-25 0 -41.5 17zM264.5 639q-16.5 17 -16.5 41q0 25 16.5 42t41.5 17q24 0 40.5 -17t16.5 -42q0 -24 -16.5 -41t-40.5 -17q-25 0 -41.5 17z" />
    <glyph glyph-name="Alpha" unicode="&#x391;" horiz-adv-x="605" 
d="M453 136h-332l-61 -136h-91l356 760h97l142 -760h-88zM440 212l-78 463l-207 -463h285z" />
    <glyph glyph-name="Beta" unicode="&#x392;" horiz-adv-x="590" 
d="M530 336q25 -41 25 -92q0 -73 -33 -128.5t-93.5 -85.5t-140.5 -30h-254l107 760h231q99 0 152 -46.5t53 -119.5q0 -64 -31 -114t-89 -79q48 -24 73 -65zM216 684l-35 -250h134q82 0 127.5 43t45.5 110q0 44 -31 70.5t-96 26.5h-145zM425.5 121q41.5 45 41.5 119
q0 51 -34.5 84.5t-100.5 33.5h-162l-39 -282h167q86 0 127.5 45z" />
    <glyph glyph-name="Gamma" unicode="&#x393;" horiz-adv-x="496" 
d="M122 0h-87l106 760h395l-10 -76h-309z" />
    <glyph glyph-name="uni0394" unicode="&#x394;" horiz-adv-x="634" 
d="M593 0h-624l371 760h97zM490 76l-113 602l-283 -602h396z" />
    <glyph glyph-name="Epsilon" unicode="&#x395;" horiz-adv-x="546" 
d="M216 684l-35 -250h325l-10 -76h-326l-39 -282h334l-11 -76h-420l107 760h415l-11 -76h-329z" />
    <glyph glyph-name="Zeta" unicode="&#x396;" horiz-adv-x="588" 
d="M140 74h382l-11 -74h-517l489 686h-363l11 74h498z" />
    <glyph glyph-name="Eta" unicode="&#x397;" horiz-adv-x="660" 
d="M661 760l-107 -760h-86l50 358h-348l-50 -358h-86l107 760h86l-46 -326h348l46 326h86z" />
    <glyph glyph-name="Theta" unicode="&#x398;" horiz-adv-x="841" 
d="M214 32q-74 42 -114.5 118.5t-40.5 176.5q0 122 58.5 223.5t157.5 160.5t215 59q97 0 171 -42t114.5 -118.5t40.5 -176.5q0 -122 -58.5 -223.5t-157.5 -160.5t-215 -59q-97 0 -171 42zM560 117.5q78 50.5 123 135t45 181.5q0 77 -29.5 136t-84.5 91t-128 32
q-93 0 -171 -50.5t-123 -135t-45 -181.5q0 -77 29.5 -136t84.5 -91t128 -32q93 0 171 50.5zM275 435h347l-10 -76h-347z" />
    <glyph glyph-name="Iota" unicode="&#x399;" horiz-adv-x="226" 
d="M141 760h86l-107 -760h-86z" />
    <glyph glyph-name="Kappa" unicode="&#x39a;" horiz-adv-x="600" 
d="M359 434l190 -434h-90l-160 366l-152 -172l-27 -194h-86l107 760h86l-61 -435l382 435h98z" />
    <glyph glyph-name="Lambda" unicode="&#x39b;" horiz-adv-x="634" 
d="M504 0l-127 678l-319 -678h-89l371 760h97l156 -760h-89z" />
    <glyph glyph-name="Mu" unicode="&#x39c;" horiz-adv-x="860" 
d="M808 760l-29 -760h-83l28 639l-293 -639h-70l-115 641l-152 -641h-85l185 760h103l113 -650l293 650h105z" />
    <glyph glyph-name="Nu" unicode="&#x39d;" horiz-adv-x="660" 
d="M661 760l-107 -760h-85l-263 621l-87 -621h-85l107 760h85l263 -621l87 621h85z" />
    <glyph glyph-name="Xi" unicode="&#x39e;" horiz-adv-x="637" 
d="M125 760h527l-11 -76h-527zM107 434h473l-11 -76h-473zM15 76h557l-11 -76h-557z" />
    <glyph glyph-name="Omicron" unicode="&#x39f;" horiz-adv-x="841" 
d="M214 32q-74 42 -114.5 118.5t-40.5 176.5q0 122 58.5 223.5t157.5 160.5t215 59q97 0 171 -42t114.5 -118.5t40.5 -176.5q0 -122 -58.5 -223.5t-157.5 -160.5t-215 -59q-97 0 -171 42zM560 117.5q78 50.5 123 135t45 181.5q0 77 -29.5 136t-84.5 91t-128 32
q-93 0 -171 -50.5t-123 -135t-45 -181.5q0 -77 29.5 -136t84.5 -91t128 -32q93 0 171 50.5z" />
    <glyph glyph-name="Pi" unicode="&#x3a0;" horiz-adv-x="681" 
d="M575 0h-86l96 684h-369l-95 -684h-86l106 760h540z" />
    <glyph glyph-name="Rho" unicode="&#x3a1;" horiz-adv-x="625" 
d="M558 703.5q63 -56.5 63 -165.5q0 -84 -36.5 -152t-104.5 -107t-160 -39h-166l-34 -240h-86l107 760h238q116 0 179 -56.5zM437 344.5q48 28.5 72.5 78t24.5 112.5q0 76 -40 112.5t-130 36.5h-148l-52 -368h157q68 0 116 28.5z" />
    <glyph glyph-name="Sigma" unicode="&#x3a3;" horiz-adv-x="567" 
d="M265 407l-183 353h526l-10 -76h-386l147 -281l-233 -327h405l-10 -76h-547z" />
    <glyph glyph-name="Tau" unicode="&#x3a4;" horiz-adv-x="590" 
d="M625 684h-227l-96 -684h-87l96 684h-226l11 76h540z" />
    <glyph glyph-name="Upsilon" unicode="&#x3a5;" 
d="M631 760l-492 -760h-91l209 323l-176 437h89l139 -357l231 357h91z" />
    <glyph glyph-name="Phi" unicode="&#x3a6;" horiz-adv-x="896" 
d="M827 266q-51 -75 -142.5 -118t-211.5 -51l-14 -97h-87l13 96q-95 6 -169 40t-116 93t-42 134q0 99 52.5 175t146.5 121t214 51l7 50h87l-7 -51q92 -8 165 -43t114 -93t41 -131q0 -101 -51 -176zM210.5 233q66.5 -53 185.5 -60l64 460q-94 -6 -165.5 -40t-111 -91
t-39.5 -131q0 -85 66.5 -138zM647 216.5q70 34.5 107.5 90.5t37.5 128q0 83 -65.5 135.5t-179.5 61.5l-64 -458q94 8 164 42.5z" />
    <glyph glyph-name="Chi" unicode="&#x3a7;" horiz-adv-x="585" 
d="M358 387l186 -387h-89l-150 313l-240 -313h-96l297 387l-178 373h89l143 -299l226 299h95z" />
    <glyph glyph-name="Psi" unicode="&#x3a8;" horiz-adv-x="788" 
d="M798 760l-34 -243q-19 -130 -102 -207.5t-228 -81.5l-32 -228h-87l32 230q-122 6 -187.5 68t-65.5 167q0 30 4 55l33 240h87l-32 -230q-4 -34 -4 -56q0 -75 40.5 -118.5t135.5 -47.5l63 452h87l-63 -453q105 4 162 62t71 157l33 234h87z" />
    <glyph glyph-name="uni03A9" unicode="&#x3a9;" horiz-adv-x="870" 
d="M785.5 232.5q-52.5 -98.5 -144.5 -156.5h153l-10 -76h-306l8 62q89 31 148.5 91.5t87.5 133.5t28 146q0 72 -27 131t-84 94t-142 35q-97 0 -175.5 -46.5t-123 -128t-44.5 -182.5q0 -90 43 -164.5t132 -109.5l-8 -62h-299l10 76h153q-59 45 -89 111t-30 149q0 124 58 223
t158 155t221 56q103 0 179 -43t116 -117.5t40 -168.5q0 -110 -52.5 -208.5z" />
    <glyph glyph-name="Iotadieresis" unicode="&#x3aa;" horiz-adv-x="226" 
d="M141 760h86l-107 -760h-86zM73.5 884q-16.5 17 -16.5 41q0 25 16.5 42t41.5 17q24 0 41 -17t17 -42q0 -24 -17 -41t-41 -17q-25 0 -41.5 17zM259.5 884q-16.5 17 -16.5 41q0 25 16.5 42t41.5 17q24 0 40.5 -17t16.5 -42q0 -24 -16.5 -41t-40.5 -17q-25 0 -41.5 17z" />
    <glyph glyph-name="Upsilondieresis" unicode="&#x3ab;" 
d="M631 760l-492 -760h-91l209 323l-176 437h89l139 -357l231 357h91zM240.5 884q-16.5 17 -16.5 41q0 25 16.5 42t41.5 17q24 0 41 -17t17 -42q0 -24 -17 -41t-41 -17q-25 0 -41.5 17zM426.5 884q-16.5 17 -16.5 41q0 25 16.5 42t41.5 17q24 0 40.5 -17t16.5 -42
q0 -24 -16.5 -41t-40.5 -17q-25 0 -41.5 17z" />
    <glyph glyph-name="alphatonos" unicode="&#x3ac;" horiz-adv-x="644" 
d="M142 19q-48 29 -74.5 81.5t-26.5 121.5q0 84 39.5 153.5t102.5 109.5t131 40q66 0 112.5 -24.5t70.5 -69.5l12 84h83l-54 -380q-2 -11 -2 -28q0 -24 11 -32t37 -8h8l-5 -75q-16 -2 -33 -2q-53 0 -78.5 20t-28.5 61v14q-37 -46 -88 -70.5t-107 -24.5q-62 0 -110 29z
M376.5 95.5q46.5 30.5 74 82t27.5 112.5q0 70 -40.5 115t-107.5 45q-58 0 -105 -30.5t-73.5 -83t-26.5 -115.5q0 -70 40 -113t111 -43q54 0 100.5 30.5zM298 590l94 170h112l-139 -170h-67z" />
    <glyph glyph-name="epsilontonos" unicode="&#x3ad;" horiz-adv-x="480" 
d="M72 29q-49 40 -49 99q0 47 30 89.5t84 55.5v3q-71 19 -71 89q0 45 28.5 81.5t78 57.5t111.5 21q79 0 126 -34t54 -94l-81 -18q-9 71 -108 71q-61 0 -92.5 -25t-31.5 -57q0 -29 23 -43t50 -14h82l-10 -70h-65q-59 0 -90.5 -26t-31.5 -66q0 -38 28.5 -61.5t88.5 -23.5
t94 23t45 58l83 -9q-17 -66 -77 -106.5t-155 -40.5t-144 40zM245 590l94 170h112l-139 -170h-67z" />
    <glyph glyph-name="etatonos" unicode="&#x3ae;" horiz-adv-x="570" 
d="M480.5 479.5q41.5 -45.5 41.5 -116.5q0 -20 -4 -48l-72 -510h-86l71 503q4 30 4 42q0 52 -24.5 77.5t-79.5 25.5q-54 0 -92 -27.5t-59 -68t-27 -82.5l-38 -275h-86l72 515h77l-5 -90q33 49 81.5 74.5t104.5 25.5q80 0 121.5 -45.5zM300 590l94 170h112l-139 -170h-67z
" />
    <glyph glyph-name="iotatonos" unicode="&#x3af;" horiz-adv-x="239" 
d="M67.5 13.5q-24.5 23.5 -24.5 68.5q0 16 3 38l56 395h85l-53 -374q-3 -24 -3 -32q0 -26 10.5 -34t37.5 -8h8l-5 -75q-22 -2 -33 -2q-57 0 -81.5 23.5zM115 590l94 170h112l-139 -170h-67z" />
    <glyph glyph-name="upsilondieresistonos" unicode="&#x3b0;" horiz-adv-x="558" 
d="M101.5 36q-50.5 46 -50.5 135q0 28 4 53l42 291h85l-42 -299q-3 -21 -3 -40q0 -55 27.5 -83t88.5 -28q67 0 104 37t48 110l43 303h86l-43 -303q-15 -107 -76 -164.5t-167 -57.5q-96 0 -146.5 46zM332 760h112l-139 -170h-67zM158.5 639q-16.5 17 -16.5 41q0 25 16.5 42
t41.5 17q24 0 41 -17t17 -42q0 -24 -17 -41t-41 -17q-25 0 -41.5 17zM432.5 639q-16.5 17 -16.5 41q0 25 16.5 42t41.5 17q24 0 40.5 -17t16.5 -42q0 -24 -16.5 -41t-40.5 -17q-25 0 -41.5 17z" />
    <glyph glyph-name="alpha" unicode="&#x3b1;" horiz-adv-x="644" 
d="M142 19q-48 29 -74.5 81.5t-26.5 121.5q0 84 39.5 153.5t102.5 109.5t131 40q66 0 112.5 -24.5t70.5 -69.5l12 84h83l-54 -380q-2 -11 -2 -28q0 -24 11 -32t37 -8h8l-5 -75q-16 -2 -33 -2q-53 0 -78.5 20t-28.5 61v14q-37 -46 -88 -70.5t-107 -24.5q-62 0 -110 29z
M376.5 95.5q46.5 30.5 74 82t27.5 112.5q0 70 -40.5 115t-107.5 45q-58 0 -105 -30.5t-73.5 -83t-26.5 -115.5q0 -70 40 -113t111 -43q54 0 100.5 30.5z" />
    <glyph glyph-name="beta" unicode="&#x3b2;" horiz-adv-x="595" 
d="M513.5 387.5q39.5 -47.5 39.5 -121.5q0 -69 -32.5 -132.5t-95 -103.5t-149.5 -40q-109 0 -150 84l-38 -268h-86l103 731q16 115 85.5 174t172.5 59q84 0 133.5 -43t49.5 -114q0 -62 -38.5 -108t-89.5 -59q56 -11 95.5 -58.5zM375 91q43 26 68 72t25 104q0 72 -46 105
t-114 33h-24l10 69h27q54 0 85.5 23t43.5 53t12 54q0 42 -31.5 67t-75.5 25q-82 0 -121.5 -49t-48.5 -113l-40 -283q-2 -17 -2 -37q0 -63 35 -106t103 -43q51 0 94 26z" />
    <glyph glyph-name="gamma" unicode="&#x3b3;" horiz-adv-x="510" 
d="M536 515l-268 -469l-34 -241h-86l33 237l-135 473h86l102 -381l212 381h90z" />
    <glyph glyph-name="delta" unicode="&#x3b4;" horiz-adv-x="580" 
d="M137 18q-49 28 -74 75t-25 104q0 77 32.5 139.5t94 99t144.5 36.5q23 0 35 -2l-192 235l7 55h404l-10 -74h-282l171 -203q48 -57 70.5 -106.5t22.5 -108.5q0 -83 -35.5 -146t-99.5 -97.5t-146 -34.5q-68 0 -117 28zM362 92.5q43 27.5 65.5 72.5t22.5 96q0 62 -33.5 104.5
t-99.5 42.5q-61 0 -105 -30.5t-66.5 -78t-22.5 -96.5q0 -59 36.5 -98.5t102.5 -39.5q57 0 100 27.5z" />
    <glyph glyph-name="epsilon" unicode="&#x3b5;" horiz-adv-x="480" 
d="M72 29q-49 40 -49 99q0 47 30 89.5t84 55.5v3q-71 19 -71 89q0 45 28.5 81.5t78 57.5t111.5 21q79 0 126 -34t54 -94l-81 -18q-9 71 -108 71q-61 0 -92.5 -25t-31.5 -57q0 -29 23 -43t50 -14h82l-10 -70h-65q-59 0 -90.5 -26t-31.5 -66q0 -38 28.5 -61.5t88.5 -23.5
t94 23t45 58l83 -9q-17 -66 -77 -106.5t-155 -40.5t-144 40z" />
    <glyph glyph-name="zeta" unicode="&#x3b6;" horiz-adv-x="444" 
d="M213 -124q78 86 78 108q0 9 -6.5 16.5t-26.5 16.5l-54 26q-66 32 -97 51.5t-49 47.5t-18 71q0 108 112.5 229.5t266.5 244.5h-293l16 73h402l-6 -46q-195 -165 -304 -284t-109 -198q0 -36 26 -61t90 -56l60 -29q48 -23 66.5 -42.5t18.5 -42.5q0 -36 -41.5 -84.5
t-78.5 -79.5z" />
    <glyph glyph-name="eta" unicode="&#x3b7;" horiz-adv-x="570" 
d="M480.5 479.5q41.5 -45.5 41.5 -116.5q0 -20 -4 -48l-72 -510h-86l71 503q4 30 4 42q0 52 -24.5 77.5t-79.5 25.5q-54 0 -92 -27.5t-59 -68t-27 -82.5l-38 -275h-86l72 515h77l-5 -90q33 49 81.5 74.5t104.5 25.5q80 0 121.5 -45.5z" />
    <glyph glyph-name="theta" unicode="&#x3b8;" horiz-adv-x="596" 
d="M523.5 696.5q51.5 -73.5 51.5 -201.5q0 -142 -36.5 -256.5t-108 -181t-171.5 -66.5q-104 0 -153.5 75t-49.5 200q0 134 34.5 249t105 185t172.5 70q104 0 155.5 -73.5zM233 621.5q-53 -73.5 -77 -187.5h332q2 36 2 54q0 95 -32 151t-96 56q-76 0 -129 -73.5zM405.5 149.5
q54.5 83.5 74.5 210.5h-335q-4 -36 -4 -80q0 -96 30.5 -155t93.5 -59q86 0 140.5 83.5z" />
    <glyph glyph-name="iota" unicode="&#x3b9;" horiz-adv-x="239" 
d="M67.5 13.5q-24.5 23.5 -24.5 68.5q0 16 3 38l56 395h85l-53 -374q-3 -24 -3 -32q0 -26 10.5 -34t37.5 -8h8l-5 -75q-22 -2 -33 -2q-57 0 -81.5 23.5z" />
    <glyph glyph-name="kappa" unicode="&#x3ba;" horiz-adv-x="485" 
d="M292 319l157 -319h-93l-125 262l-93 -87l-24 -175h-85l72 515h85l-32 -230l244 230h103z" />
    <glyph glyph-name="lambda" unicode="&#x3bb;" horiz-adv-x="535" 
d="M503 63l-5 -70q-22 -3 -44 -3q-37 0 -55.5 16t-28.5 54l-87 330l-212 -390h-97l283 488l-42 159q-7 27 -15.5 36t-34.5 9h-16l4 75q24 3 46 3q38 0 56.5 -16t28.5 -55l161 -599q6 -23 15.5 -30t34.5 -7h8z" />
    <glyph glyph-name="uni03BC" unicode="&#x3bc;" horiz-adv-x="583" 
d="M554 515l-72 -515h-79l7 85q-37 -47 -88 -71.5t-107 -24.5q-59 0 -100 27l-29 -211h-85l98 690l3 20h85l-43 -305q-3 -19 -3 -38q0 -54 27.5 -82t80.5 -28q54 0 93 28.5t61 70.5t28 83l38 271h85z" />
    <glyph glyph-name="nu" unicode="&#x3bd;" horiz-adv-x="507" 
d="M543 515l-277 -515h-97l-133 515h88l103 -434l223 434h93z" />
    <glyph glyph-name="xi" unicode="&#x3be;" horiz-adv-x="480" 
d="M272 -135q62 93 62 116q0 9 -7.5 16t-29.5 14l-57 19q-103 35 -153.5 78t-50.5 111q0 47 23.5 91t63 76.5t87.5 47.5q-52 16 -82 48.5t-30 81.5q0 62 35.5 109t92 72t116.5 25q85 0 132.5 -40t47.5 -106l-85 -9q0 34 -25.5 57t-81.5 23q-62 0 -104.5 -35t-42.5 -91
q0 -51 40.5 -76t98.5 -25h96l-10 -72h-103q-59 0 -101 -25t-63 -64t-21 -80q0 -42 34.5 -68t111.5 -52l64 -22q56 -19 76.5 -36.5t20.5 -43.5q0 -37 -33 -87.5t-64 -83.5z" />
    <glyph glyph-name="omicron" unicode="&#x3bf;" horiz-adv-x="602" 
d="M148.5 19q-50.5 29 -79 81t-28.5 118q0 89 38.5 159t106 109t152.5 39q65 0 116 -29t79 -81t28 -118q0 -89 -38 -159t-105.5 -109t-153.5 -39q-65 0 -115.5 29zM372.5 93q47.5 28 75.5 79.5t28 118.5q0 76 -39 117.5t-104 41.5q-56 0 -103.5 -28t-75.5 -79.5t-28 -118.5
q0 -76 39 -117.5t104 -41.5q56 0 103.5 28z" />
    <glyph glyph-name="pi" unicode="&#x3c0;" horiz-adv-x="590" 
d="M465 442h-288l-62 -442h-86l72 515h460l-72 -515h-86z" />
    <glyph glyph-name="rho" unicode="&#x3c1;" horiz-adv-x="620" 
d="M438 31q66 41 103.5 111.5t37.5 154.5q0 63 -26 115t-76.5 82.5t-121.5 30.5q-127 0 -203.5 -77.5t-93.5 -202.5l-62 -440h86l38 281q24 -49 69 -72.5t102 -23.5q81 0 147 41zM457 405.5q38 -44.5 38 -114.5q0 -65 -27.5 -116.5t-73.5 -80.5t-100 -29q-72 0 -111 43.5
t-39 110.5q0 63 26 116t72 84t104 31q73 0 111 -44.5z" />
    <glyph glyph-name="uni03C2" unicode="&#x3c2;" horiz-adv-x="513" 
d="M217 -124q78 86 78 108q0 9 -6.5 16.5t-26.5 16.5l-54 26q-62 30 -95 53t-51 56.5t-18 86.5q0 83 36 148.5t97.5 101.5t137.5 36q88 0 136.5 -40t48.5 -106l-85 -9q-1 35 -25 57.5t-82 22.5q-46 0 -87 -24.5t-66.5 -72.5t-25.5 -115q0 -40 25.5 -65.5t90.5 -57.5l60 -29
q48 -23 66.5 -42.5t18.5 -42.5q0 -36 -41.5 -84.5t-78.5 -79.5z" />
    <glyph glyph-name="sigma" unicode="&#x3c3;" horiz-adv-x="597" 
d="M147 18.5q-50 28.5 -78.5 79.5t-28.5 116q0 87 38 155.5t105 107t150 38.5h285l-10 -73h-116q62 -56 62 -151q0 -87 -38 -155.5t-104.5 -107t-150.5 -38.5q-64 0 -114 28.5zM366.5 92q46.5 27 74.5 77.5t28 115.5q0 75 -38.5 115.5t-102.5 40.5q-54 0 -100.5 -27.5
t-74.5 -77.5t-28 -116q0 -74 38.5 -114.5t102.5 -40.5q54 0 100.5 27z" />
    <glyph glyph-name="tau" unicode="&#x3c4;" horiz-adv-x="420" 
d="M158.5 17q-32.5 27 -32.5 86q0 15 4 45l44 294h-138l15 73h375l-10 -73h-159l-42 -293q-3 -19 -3 -32q0 -31 13 -42.5t42 -11.5q37 0 82 15l-4 -70q-49 -18 -98 -18q-56 0 -88.5 27z" />
    <glyph glyph-name="upsilon" unicode="&#x3c5;" horiz-adv-x="558" 
d="M101.5 36q-50.5 46 -50.5 135q0 28 4 53l42 291h85l-42 -299q-3 -21 -3 -40q0 -55 27.5 -83t88.5 -28q67 0 104 37t48 110l43 303h86l-43 -303q-15 -107 -76 -164.5t-167 -57.5q-96 0 -146.5 46z" />
    <glyph glyph-name="phi" unicode="&#x3c6;" horiz-adv-x="730" 
d="M284 -11q-77 3 -132 34t-83.5 82.5t-28.5 112.5q0 73 32.5 132.5t89 99.5t128.5 56l15 -67q-85 -21 -133 -80t-48 -132q0 -71 43.5 -116t126.5 -48l64 452h76q79 0 136 -28.5t87.5 -81t30.5 -121.5q0 -84 -42 -148t-114.5 -101.5t-162.5 -44.5l-26 -185h-85zM500.5 101.5
q50.5 30.5 77 78t26.5 103.5q0 67 -41.5 111.5t-129.5 48.5l-54 -379q71 7 121.5 37.5z" />
    <glyph glyph-name="chi" unicode="&#x3c7;" horiz-adv-x="490" 
d="M350 -182q-19 16 -32 53l-83 242l-199 -307h-99l269 394l-77 202q-9 24 -21.5 34.5t-37.5 10.5h-14l10 70q23 3 44 3q38 0 57 -16.5t32 -54.5l59 -174l154 240h99l-224 -327l105 -280q8 -21 19.5 -27.5t28.5 -6.5h11l-5 -69q-22 -3 -45 -3q-32 0 -51 16z" />
    <glyph glyph-name="psi" unicode="&#x3c8;" horiz-adv-x="690" 
d="M265 -8q-101 8 -157 58.5t-56 132.5q0 19 2 32l42 300h85l-42 -299q-2 -16 -2 -31q0 -50 35 -80.5t104 -37.5l63 448h85l-63 -448q77 9 123 47.5t55 101.5l42 299h85l-42 -303q-13 -99 -83.5 -155.5t-190.5 -64.5l-26 -187h-85z" />
    <glyph glyph-name="omega" unicode="&#x3c9;" horiz-adv-x="820" 
d="M88 44.5q-43 53.5 -43 142.5q0 140 68 230.5t195 106.5l5 -75q-87 -11 -135 -81t-48 -172q0 -61 23.5 -96.5t74.5 -35.5q54 0 89 40.5t42 90.5l21 150h84l-21 -150q-2 -14 -2 -22q0 -45 23.5 -77t71.5 -32q47 0 81 33t51.5 86.5t17.5 112.5q0 66 -31 107.5t-94 49.5
l25 71q94 -12 139.5 -71.5t45.5 -156.5q0 -81 -28 -150.5t-81.5 -112t-127.5 -42.5q-64 0 -100.5 30.5t-46.5 75.5q-22 -46 -66 -76t-107 -30q-83 0 -126 53.5z" />
    <glyph glyph-name="iotadieresis" unicode="&#x3ca;" horiz-adv-x="239" 
d="M67.5 13.5q-24.5 23.5 -24.5 68.5q0 16 3 38l56 395h85l-53 -374q-3 -24 -3 -32q0 -26 10.5 -34t37.5 -8h8l-5 -75q-22 -2 -33 -2q-57 0 -81.5 23.5zM35.5 639q-16.5 17 -16.5 41q0 25 16.5 42t41.5 17q24 0 41 -17t17 -42q0 -24 -17 -41t-41 -17q-25 0 -41.5 17z
M221.5 639q-16.5 17 -16.5 41q0 25 16.5 42t41.5 17q24 0 40.5 -17t16.5 -42q0 -24 -16.5 -41t-40.5 -17q-25 0 -41.5 17z" />
    <glyph glyph-name="upsilondieresis" unicode="&#x3cb;" horiz-adv-x="558" 
d="M101.5 36q-50.5 46 -50.5 135q0 28 4 53l42 291h85l-42 -299q-3 -21 -3 -40q0 -55 27.5 -83t88.5 -28q67 0 104 37t48 110l43 303h86l-43 -303q-15 -107 -76 -164.5t-167 -57.5q-96 0 -146.5 46zM203.5 639q-16.5 17 -16.5 41q0 25 16.5 42t41.5 17q24 0 41 -17t17 -42
q0 -24 -17 -41t-41 -17q-25 0 -41.5 17zM389.5 639q-16.5 17 -16.5 41q0 25 16.5 42t41.5 17q24 0 40.5 -17t16.5 -42q0 -24 -16.5 -41t-40.5 -17q-25 0 -41.5 17z" />
    <glyph glyph-name="omicrontonos" unicode="&#x3cc;" horiz-adv-x="602" 
d="M148.5 19q-50.5 29 -79 81t-28.5 118q0 89 38.5 159t106 109t152.5 39q65 0 116 -29t79 -81t28 -118q0 -89 -38 -159t-105.5 -109t-153.5 -39q-65 0 -115.5 29zM372.5 93q47.5 28 75.5 79.5t28 118.5q0 76 -39 117.5t-104 41.5q-56 0 -103.5 -28t-75.5 -79.5t-28 -118.5
q0 -76 39 -117.5t104 -41.5q56 0 103.5 28zM306 590l94 170h112l-139 -170h-67z" />
    <glyph glyph-name="upsilontonos" unicode="&#x3cd;" horiz-adv-x="558" 
d="M101.5 36q-50.5 46 -50.5 135q0 28 4 53l42 291h85l-42 -299q-3 -21 -3 -40q0 -55 27.5 -83t88.5 -28q67 0 104 37t48 110l43 303h86l-43 -303q-15 -107 -76 -164.5t-167 -57.5q-96 0 -146.5 46zM283 590l94 170h112l-139 -170h-67z" />
    <glyph glyph-name="omegatonos" unicode="&#x3ce;" horiz-adv-x="820" 
d="M88 44.5q-43 53.5 -43 142.5q0 140 68 230.5t195 106.5l5 -75q-87 -11 -135 -81t-48 -172q0 -61 23.5 -96.5t74.5 -35.5q54 0 89 40.5t42 90.5l21 150h84l-21 -150q-2 -14 -2 -22q0 -45 23.5 -77t71.5 -32q47 0 81 33t51.5 86.5t17.5 112.5q0 66 -31 107.5t-94 49.5
l25 71q94 -12 139.5 -71.5t45.5 -156.5q0 -81 -28 -150.5t-81.5 -112t-127.5 -42.5q-64 0 -100.5 30.5t-46.5 75.5q-22 -46 -66 -76t-107 -30q-83 0 -126 53.5zM414 590l94 170h112l-139 -170h-67z" />
    <glyph glyph-name="uni0400" unicode="&#x400;" horiz-adv-x="546" 
d="M216 684l-35 -250h325l-10 -76h-326l-39 -282h334l-11 -76h-420l107 760h415l-11 -76h-329zM296 1005l94 -170h-67l-139 170h112z" />
    <glyph glyph-name="uni0401" unicode="&#x401;" horiz-adv-x="546" 
d="M216 684l-35 -250h325l-10 -76h-326l-39 -282h334l-11 -76h-420l107 760h415l-11 -76h-329zM233.5 884q-16.5 17 -16.5 41q0 25 16.5 42t41.5 17q24 0 41 -17t17 -42q0 -24 -17 -41t-41 -17q-25 0 -41.5 17zM419.5 884q-16.5 17 -16.5 41q0 25 16.5 42t41.5 17
q24 0 40.5 -17t16.5 -42q0 -24 -16.5 -41t-40.5 -17q-25 0 -41.5 17z" />
    <glyph glyph-name="uni0402" unicode="&#x402;" horiz-adv-x="801" 
d="M694 431.5q68 -53.5 68 -145.5q0 -76 -34.5 -139.5t-96.5 -104.5t-143 -52l-4 78q87 13 138.5 72t51.5 142q0 65 -46.5 96t-131.5 31h-168l-57 -409h-86l95 684h-194l10 76h538l-10 -76h-258l-27 -199h175q112 0 180 -53.5z" />
    <glyph glyph-name="uni0403" unicode="&#x403;" horiz-adv-x="486" 
d="M526 684h-310l-95 -684h-86l106 760h395zM401 835h-67l94 170h112z" />
    <glyph glyph-name="uni0404" unicode="&#x404;" horiz-adv-x="819" 
d="M214.5 34.5q-74.5 44.5 -115.5 121t-41 167.5q0 120 58 222.5t156.5 163.5t214.5 61q83 0 151 -33.5t112.5 -93.5t57.5 -137l-87 -7q-18 89 -81.5 141.5t-155.5 52.5q-78 0 -146 -37t-115 -100.5t-66 -140.5h397l-11 -76h-397v-16q0 -74 30.5 -132.5t85.5 -91t126 -32.5
q95 0 174.5 53.5t123.5 142.5l86 -14q-53 -119 -157.5 -189t-229.5 -70q-96 0 -170.5 44.5z" />
    <glyph glyph-name="uni0405" unicode="&#x405;" horiz-adv-x="638" 
d="M101 48q-63 58 -63 157l85 8q0 -83 48.5 -114.5t119.5 -31.5q91 0 146.5 42t55.5 115q0 38 -16 60.5t-41.5 34t-72.5 26.5l-88 27q-93 28 -136.5 75.5t-43.5 116.5q0 95 71.5 150.5t197.5 55.5t187.5 -56.5t61.5 -156.5l-85 -10q0 72 -38.5 109t-124.5 37q-80 0 -131 -31
t-51 -93q0 -46 32 -73.5t102 -48.5l78 -24q61 -19 99.5 -39.5t62.5 -57.5t24 -97q0 -75 -38.5 -129t-105 -82t-150.5 -28q-123 0 -186 58z" />
    <glyph glyph-name="uni0406" unicode="&#x406;" horiz-adv-x="226" 
d="M141 760h86l-107 -760h-86z" />
    <glyph glyph-name="uni0407" unicode="&#x407;" horiz-adv-x="226" 
d="M141 760h86l-107 -760h-86zM73.5 884q-16.5 17 -16.5 41q0 25 16.5 42t41.5 17q24 0 41 -17t17 -42q0 -24 -17 -41t-41 -17q-25 0 -41.5 17zM259.5 884q-16.5 17 -16.5 41q0 25 16.5 42t41.5 17q24 0 40.5 -17t16.5 -42q0 -24 -16.5 -41t-40.5 -17q-25 0 -41.5 17z" />
    <glyph glyph-name="uni0408" unicode="&#x408;" 
d="M85 46.5q-57 56.5 -57 159.5l84 6q0 -73 32.5 -109t92.5 -36q66 0 111.5 42.5t58.5 137.5l73 513h86l-73 -513q-19 -133 -83.5 -195t-173.5 -62q-94 0 -151 56.5z" />
    <glyph glyph-name="uni0409" unicode="&#x409;" horiz-adv-x="1045" 
d="M944 446.5q62 -58.5 62 -155.5q0 -89 -37 -154.5t-106 -101t-163 -35.5h-246l97 694h-17l-471 -694h-94l514 760h163l-36 -255h157q115 0 177 -58.5zM859 134q59 58 59 157q0 64 -41 101t-126 37h-151l-49 -353h147q102 0 161 58z" />
    <glyph glyph-name="uni040A" unicode="&#x40a;" horiz-adv-x="1050" 
d="M949 446.5q62 -58.5 62 -155.5q0 -89 -37 -154.5t-106 -101t-163 -35.5h-246l50 359h-338l-50 -359h-86l106 760h86l-45 -325h338l45 325h86l-36 -255h157q115 0 177 -58.5zM864 134q59 58 59 157q0 64 -41 101t-126 37h-151l-49 -353h147q102 0 161 58z" />
    <glyph glyph-name="uni040B" unicode="&#x40b;" horiz-adv-x="786" 
d="M681.5 435q56.5 -50 56.5 -139q0 -22 -3 -45l-35 -251h-86l33 235q4 25 4 52q0 67 -36.5 94.5t-122.5 27.5h-164l-57 -409h-86l95 684h-194l10 76h538l-10 -76h-258l-27 -199h178q108 0 164.5 -50z" />
    <glyph glyph-name="uni040C" unicode="&#x40c;" horiz-adv-x="600" 
d="M359 434l190 -434h-90l-160 366l-152 -172l-27 -194h-86l107 760h86l-61 -435l382 435h98zM413 835h-67l94 170h112z" />
    <glyph glyph-name="uni040D" unicode="&#x40d;" horiz-adv-x="671" 
d="M671 760l-106 -760h-86l85 612l-443 -612h-86l106 760h86l-85 -613l443 613h86zM363 1005l94 -170h-67l-139 170h112z" />
    <glyph glyph-name="uni040E" unicode="&#x40e;" horiz-adv-x="567" 
d="M638 760l-467 -760h-94l183 297l-174 463h88l137 -379l233 379h94zM259.5 876.5q-39.5 43.5 -39.5 128.5h65q0 -51 26.5 -78t68.5 -27q82 0 117 105h65q-20 -86 -69 -129t-121 -43q-73 0 -112.5 43.5z" />
    <glyph glyph-name="uni040F" unicode="&#x40f;" horiz-adv-x="651" 
d="M651 760l-106 -760h-212l-26 -150h-76l15 150h-211l106 760h86l-95 -684h338l95 684h86z" />
    <glyph glyph-name="uni0410" unicode="&#x410;" horiz-adv-x="605" 
d="M453 136h-332l-61 -136h-91l356 760h97l142 -760h-88zM440 212l-78 463l-207 -463h285z" />
    <glyph glyph-name="uni0411" unicode="&#x411;" horiz-adv-x="627" 
d="M524 447q64 -58 64 -155q0 -91 -38 -156.5t-107 -100.5t-162 -35h-246l106 760h455l-10 -76h-369l-25 -179h156q112 0 176 -58zM442.5 133.5q58.5 57.5 58.5 156.5q0 65 -42 102t-127 37h-150l-49 -353h146q105 0 163.5 57.5z" />
    <glyph glyph-name="uni0412" unicode="&#x412;" horiz-adv-x="590" 
d="M530 336q25 -41 25 -92q0 -73 -33 -128.5t-93.5 -85.5t-140.5 -30h-254l107 760h231q99 0 152 -46.5t53 -119.5q0 -64 -31 -114t-89 -79q48 -24 73 -65zM216 684l-35 -250h134q82 0 127.5 43t45.5 110q0 44 -31 70.5t-96 26.5h-145zM425.5 121q41.5 45 41.5 119
q0 51 -34.5 84.5t-100.5 33.5h-162l-39 -282h167q86 0 127.5 45z" />
    <glyph glyph-name="uni0413" unicode="&#x413;" horiz-adv-x="486" 
d="M526 684h-310l-95 -684h-86l106 760h395z" />
    <glyph glyph-name="uni0414" unicode="&#x414;" horiz-adv-x="694" 
d="M658 76l-30 -216h-76l13 140h-509l-26 -140h-76l30 216h65l320 684h97l127 -684h65zM508 76l-100 597l-267 -597h367z" />
    <glyph glyph-name="uni0415" unicode="&#x415;" horiz-adv-x="546" 
d="M216 684l-35 -250h325l-10 -76h-326l-39 -282h334l-11 -76h-420l107 760h415l-11 -76h-329z" />
    <glyph glyph-name="uni0416" unicode="&#x416;" horiz-adv-x="930" 
d="M698 448l186 -448h-87l-156 384l-136 -150l-33 -234h-86l35 253l-88 142l-263 -395h-96l313 468l-182 292h92l240 -394l55 394h86l-55 -397l353 397h105z" />
    <glyph glyph-name="uni0417" unicode="&#x417;" horiz-adv-x="575" 
d="M516.5 342.5q24.5 -40.5 24.5 -94.5q0 -78 -36.5 -136.5t-101.5 -90t-149 -31.5q-115 0 -174 51t-59 134q0 22 2 33l85 4q-2 -18 -2 -27q0 -56 36.5 -87.5t113.5 -31.5q87 0 142 49.5t55 131.5q0 53 -33 84.5t-99 31.5h-128l10 76h97q50 0 90.5 20t63.5 56.5t23 82.5
q0 44 -31.5 70t-100.5 26q-81 0 -124 -37.5t-52 -97.5l-85 9q13 88 81.5 145t185.5 57q103 0 158.5 -46.5t55.5 -122.5q0 -65 -31.5 -117t-86.5 -80q45 -21 69.5 -61.5z" />
    <glyph glyph-name="uni0418" unicode="&#x418;" horiz-adv-x="671" 
d="M671 760l-106 -760h-86l85 612l-443 -612h-86l106 760h86l-85 -613l443 613h86z" />
    <glyph glyph-name="uni0419" unicode="&#x419;" horiz-adv-x="671" 
d="M671 760l-106 -760h-86l85 612l-443 -612h-86l106 760h86l-85 -613l443 613h86zM314.5 876.5q-39.5 43.5 -39.5 128.5h65q0 -51 26.5 -78t68.5 -27q82 0 117 105h65q-20 -86 -69 -129t-121 -43q-73 0 -112.5 43.5z" />
    <glyph glyph-name="uni041A" unicode="&#x41a;" horiz-adv-x="600" 
d="M359 434l190 -434h-90l-160 366l-152 -172l-27 -194h-86l107 760h86l-61 -435l382 435h98z" />
    <glyph glyph-name="uni041B" unicode="&#x41b;" horiz-adv-x="605" 
d="M477 0l-114 672l-301 -672h-93l355 760h97l143 -760h-87z" />
    <glyph glyph-name="uni041C" unicode="&#x41c;" horiz-adv-x="860" 
d="M808 760l-29 -760h-83l28 639l-293 -639h-70l-115 641l-152 -641h-85l185 760h103l113 -650l293 650h105z" />
    <glyph glyph-name="uni041D" unicode="&#x41d;" horiz-adv-x="660" 
d="M661 760l-107 -760h-86l50 358h-348l-50 -358h-86l107 760h86l-46 -326h348l46 326h86z" />
    <glyph glyph-name="uni041E" unicode="&#x41e;" horiz-adv-x="841" 
d="M214 32q-74 42 -114.5 118.5t-40.5 176.5q0 122 58.5 223.5t157.5 160.5t215 59q97 0 171 -42t114.5 -118.5t40.5 -176.5q0 -122 -58.5 -223.5t-157.5 -160.5t-215 -59q-97 0 -171 42zM560 117.5q78 50.5 123 135t45 181.5q0 77 -29.5 136t-84.5 91t-128 32
q-93 0 -171 -50.5t-123 -135t-45 -181.5q0 -77 29.5 -136t84.5 -91t128 -32q93 0 171 50.5z" />
    <glyph glyph-name="uni041F" unicode="&#x41f;" horiz-adv-x="651" 
d="M545 0h-86l95 684h-338l-95 -684h-86l106 760h510z" />
    <glyph glyph-name="uni0420" unicode="&#x420;" horiz-adv-x="625" 
d="M558 703.5q63 -56.5 63 -165.5q0 -84 -36.5 -152t-104.5 -107t-160 -39h-166l-34 -240h-86l107 760h238q116 0 179 -56.5zM437 344.5q48 28.5 72.5 78t24.5 112.5q0 76 -40 112.5t-130 36.5h-148l-52 -368h157q68 0 116 28.5z" />
    <glyph glyph-name="uni0421" unicode="&#x421;" horiz-adv-x="820" 
d="M216 31q-74 41 -115.5 117t-41.5 177q0 120 57.5 222t156 162.5t216.5 60.5q85 0 153 -32.5t111.5 -91.5t56.5 -137l-89 -10q-19 92 -80.5 143t-154.5 51t-171 -50.5t-123 -134.5t-45 -181q0 -78 30 -137t85 -91t128 -32q96 0 175.5 53t122.5 143l86 -11
q-55 -121 -158 -191.5t-230 -70.5q-96 0 -170 41z" />
    <glyph glyph-name="uni0422" unicode="&#x422;" horiz-adv-x="590" 
d="M625 684h-227l-96 -684h-87l96 684h-226l11 76h540z" />
    <glyph glyph-name="uni0423" unicode="&#x423;" horiz-adv-x="567" 
d="M638 760l-467 -760h-94l183 297l-174 463h88l137 -379l233 379h94z" />
    <glyph glyph-name="uni0424" unicode="&#x424;" horiz-adv-x="846" 
d="M774 244q-47 -78 -132.5 -120.5t-199.5 -43.5l-13 -90h-86l13 90q-141 3 -218.5 69.5t-77.5 182.5q0 106 47 184t133 120.5t200 43.5l13 90h86l-13 -90q140 -3 217.5 -70t77.5 -182q0 -106 -47 -184zM658.5 232q74.5 71 74.5 195q0 86 -55.5 130t-162.5 46l-62 -446
q131 4 205.5 75zM429 603q-132 -3 -206.5 -74t-74.5 -196q0 -173 219 -176z" />
    <glyph glyph-name="uni0425" unicode="&#x425;" horiz-adv-x="585" 
d="M358 380l186 -380h-88l-151 309l-236 -309h-100l297 387l-179 373h88l144 -300l225 300h98z" />
    <glyph glyph-name="uni0426" unicode="&#x426;" horiz-adv-x="656" 
d="M625 76l-30 -216h-76l13 140h-498l107 760h86l-96 -684h332l96 684h86l-96 -684h76z" />
    <glyph glyph-name="uni0427" unicode="&#x427;" horiz-adv-x="616" 
d="M616 760l-106 -760h-86l41 294h-135q-72 0 -126.5 26.5t-84.5 76t-30 115.5q0 20 3 41l29 207h86l-29 -208q-3 -21 -3 -39q0 -143 174 -143h127l54 390h86z" />
    <glyph glyph-name="uni0428" unicode="&#x428;" horiz-adv-x="959" 
d="M959 760l-106 -760h-818l106 760h86l-95 -684h280l95 684h86l-95 -684h280l95 684h86z" />
    <glyph glyph-name="uni0429" unicode="&#x429;" horiz-adv-x="970" 
d="M939 76l-30 -216h-76l13 140h-811l106 760h86l-95 -684h280l95 684h86l-95 -684h280l95 684h86l-95 -684h75z" />
    <glyph glyph-name="uni042A" unicode="&#x42a;" horiz-adv-x="741" 
d="M640 446.5q62 -58.5 62 -155.5q0 -89 -37 -154.5t-106 -101t-163 -35.5h-246l95 684h-160l11 76h246l-36 -255h157q115 0 177 -58.5zM555 134q59 58 59 157q0 64 -41 101t-126 37h-151l-49 -353h147q102 0 161 58z" />
    <glyph glyph-name="uni042B" unicode="&#x42b;" horiz-adv-x="840" 
d="M525 446.5q62 -58.5 62 -155.5q0 -89 -37 -154.5t-106 -101t-163 -35.5h-246l106 760h86l-36 -255h157q115 0 177 -58.5zM840 760l-106 -760h-86l106 760h86zM440 134q59 58 59 157q0 64 -41 101t-126 37h-151l-49 -353h147q102 0 161 58z" />
    <glyph glyph-name="uni042C" unicode="&#x42c;" horiz-adv-x="626" 
d="M525 446.5q62 -58.5 62 -155.5q0 -89 -37 -154.5t-106 -101t-163 -35.5h-246l106 760h86l-36 -255h157q115 0 177 -58.5zM440 134q59 58 59 157q0 64 -41 101t-126 37h-151l-49 -353h147q102 0 161 58z" />
    <glyph glyph-name="uni042D" unicode="&#x42d;" horiz-adv-x="819" 
d="M638.5 725.5q74.5 -44.5 115.5 -121t41 -167.5q0 -120 -58 -222.5t-156.5 -163.5t-214.5 -61q-83 0 -151 33.5t-112.5 93.5t-57.5 137l87 7q18 -89 81.5 -141.5t155.5 -52.5q78 0 146 37t115 100.5t66 140.5h-397l11 76h397v16q0 74 -30.5 132.5t-85.5 91t-126 32.5
q-95 0 -174.5 -53.5t-123.5 -142.5l-86 14q53 119 157.5 189t229.5 70q96 0 170.5 -44.5z" />
    <glyph glyph-name="uni042E" unicode="&#x42e;" horiz-adv-x="1057" 
d="M879 728q72 -42 113 -116.5t41 -169.5q0 -122 -56 -226t-152 -165t-210 -61q-90 0 -162 42t-113 116.5t-41 169.5q0 14 2 40h-130l-50 -358h-86l106 760h86l-45 -326h131q23 96 82 172.5t142.5 120t179.5 43.5q90 0 162 -42zM785 119q75 52 117.5 138.5t42.5 184.5
q0 76 -29.5 132.5t-82 87.5t-119.5 31q-92 0 -167 -52t-117.5 -138.5t-42.5 -184.5q0 -76 29.5 -132.5t82 -87.5t119.5 -31q92 0 167 52z" />
    <glyph glyph-name="uni042F" unicode="&#x42f;" horiz-adv-x="626" 
d="M520 0h-86l33 240h-157h-18l-161 -240h-102l173 258q-63 23 -96.5 74.5t-33.5 123.5q0 93 37 161.5t106.5 105.5t164.5 37h246zM529 684h-146q-105 0 -164 -61t-59 -163q0 -68 41.5 -106t126.5 -38h150z" />
    <glyph glyph-name="uni0430" unicode="&#x430;" horiz-adv-x="620" 
d="M591 515l-72 -515h-76l7 87q-33 -44 -84 -70.5t-111 -26.5q-59 0 -108 29t-77.5 81.5t-28.5 120.5q0 89 39.5 158.5t105.5 107.5t141 38q58 0 101.5 -25t66.5 -69l12 84h84zM374 95.5q48 30.5 76 82t28 112.5q0 72 -39.5 116t-108.5 44q-54 0 -100.5 -27t-75 -78
t-28.5 -118q0 -76 39 -119t105 -43q56 0 104 30.5z" />
    <glyph glyph-name="uni0431" unicode="&#x431;" horiz-adv-x="607" 
d="M285.5 645.5q-54.5 -30.5 -85 -85t-52.5 -142.5q37 57 86.5 82t113.5 25q65 0 114.5 -29t76.5 -80.5t27 -117.5q0 -87 -39 -157.5t-107 -110.5t-152 -40q-98 0 -156.5 63.5t-58.5 188.5q0 36 9 101q19 135 57 222t112 135t198 53l157 7l-17 -76l-141 -5
q-88 -3 -142.5 -33.5zM232 418.5q-47 -31.5 -73.5 -85t-26.5 -115.5q0 -73 39.5 -113t104.5 -40q59 0 106 33t73 86.5t26 113.5q0 71 -39.5 111.5t-103.5 40.5q-59 0 -106 -31.5z" />
    <glyph glyph-name="uni0432" unicode="&#x432;" horiz-adv-x="475" 
d="M412.5 230.5q18.5 -27.5 18.5 -63.5q0 -48 -24.5 -86t-70 -59.5t-108.5 -21.5h-199l72 515h191q77 0 115 -31.5t38 -83.5q0 -43 -21.5 -76.5t-64.5 -50.5q35 -15 53.5 -42.5zM176 445l-19 -139h94q48 0 78.5 25.5t30.5 64.5q0 22 -18.5 35.5t-60.5 13.5h-105zM314 98
q32 28 32 74q0 30 -22.5 47t-68.5 17h-108l-23 -166h105q53 0 85 28z" />
    <glyph glyph-name="uni0433" unicode="&#x433;" horiz-adv-x="381" 
d="M387 442h-211l-62 -442h-85l72 515h296z" />
    <glyph glyph-name="uni0434" unicode="&#x434;" horiz-adv-x="566" 
d="M530 73l-29 -203h-77l13 130h-379l-25 -130h-77l29 203h55l231 442h96l106 -442h57zM391 73l-80 363l-181 -363h261z" />
    <glyph glyph-name="uni0435" unicode="&#x435;" horiz-adv-x="585" 
d="M126 226v-7q0 -72 40 -113t101 -41q58 0 102 26t72 70l84 -10q-41 -77 -109 -119t-153 -42q-66 0 -116.5 30t-78 81.5t-27.5 114.5q0 86 37 157t103.5 111.5t150.5 40.5q69 0 117 -29t72 -78.5t24 -110.5q0 -15 -2 -39t-5 -42h-412zM209.5 409.5
q-52.5 -40.5 -73.5 -111.5h324v4q0 72 -34.5 110t-95.5 38q-68 0 -120.5 -40.5z" />
    <glyph glyph-name="uni0436" unicode="&#x436;" horiz-adv-x="715" 
d="M529 311l145 -311h-88l-117 253l-80 -78l-24 -175h-85l27 193l-48 64l-190 -257h-100l240 323l-145 192h97l160 -221l31 221h85l-31 -224l221 224h111z" />
    <glyph glyph-name="uni0437" unicode="&#x437;" horiz-adv-x="432" 
d="M366.5 231q20.5 -28 20.5 -66q0 -79 -54 -127t-155 -48q-82 0 -129 36t-47 94q0 7 2 21l81 2q-1 -5 -1 -14q0 -32 24 -50.5t71 -18.5q55 0 89 28.5t34 74.5q0 30 -23.5 49t-70.5 19h-66l10 73h53q50 0 81.5 27.5t31.5 70.5q0 53 -79 53q-51 0 -80 -21.5t-35 -57.5l-78 7
q10 64 59.5 103t138.5 39q80 0 119.5 -32.5t39.5 -84.5q0 -41 -23.5 -78t-67.5 -56q34 -15 54.5 -43z" />
    <glyph glyph-name="uni0438" unicode="&#x438;" horiz-adv-x="528" 
d="M499 515l-72 -515h-85l54 386l-281 -386l-1 1v-1h-85l72 515h85l-54 -386l281 386l1 -1v1h85z" />
    <glyph glyph-name="uni0439" unicode="&#x439;" horiz-adv-x="528" 
d="M499 515l-72 -515h-85l54 386l-281 -386l-1 1v-1h-85l72 515h85l-54 -386l281 386l1 -1v1h85zM201.5 631.5q-39.5 43.5 -39.5 128.5h65q0 -51 26.5 -78t68.5 -27q82 0 117 105h65q-20 -86 -69 -129t-121 -43q-73 0 -112.5 43.5z" />
    <glyph glyph-name="uni043A" unicode="&#x43a;" horiz-adv-x="469" 
d="M265 291l163 -291h-87l-134 236l-69 -66l-24 -170h-85l72 515h85l-32 -227l234 227h111z" />
    <glyph glyph-name="uni043B" unicode="&#x43b;" horiz-adv-x="500" 
d="M374 0l-96 436l-216 -436h-93l269 515h96l125 -515h-85z" />
    <glyph glyph-name="uni043C" unicode="&#x43c;" horiz-adv-x="638" 
d="M585 515l-18 -515h-82l15 386l-189 -386h-56l-78 391l-94 -391h-84l126 515h93l80 -391l193 391h94z" />
    <glyph glyph-name="uni043D" unicode="&#x43d;" horiz-adv-x="530" 
d="M501 515l-72 -515h-85l33 233h-230l-33 -233h-85l72 515h85l-29 -209h230l29 209h85z" />
    <glyph glyph-name="uni043E" unicode="&#x43e;" horiz-adv-x="602" 
d="M148.5 19q-50.5 29 -79 81t-28.5 118q0 89 38.5 159t106 109t152.5 39q65 0 116 -29t79 -81t28 -118q0 -89 -38 -159t-105.5 -109t-153.5 -39q-65 0 -115.5 29zM372.5 93q47.5 28 75.5 79.5t28 118.5q0 76 -39 117.5t-104 41.5q-56 0 -103.5 -28t-75.5 -79.5t-28 -118.5
q0 -76 39 -117.5t104 -41.5q56 0 103.5 28z" />
    <glyph glyph-name="uni043F" unicode="&#x43f;" horiz-adv-x="526" 
d="M425 0h-85l62 442h-226l-62 -442h-85l72 515h396z" />
    <glyph glyph-name="uni0440" unicode="&#x440;" horiz-adv-x="621" 
d="M478 495.5q48 -29.5 75 -81.5t27 -117q0 -91 -39.5 -161t-105.5 -108t-142 -38q-58 0 -101 24t-67 66l-39 -275h-85l100 710h77l-8 -89q35 48 85.5 73.5t112.5 25.5t110 -29.5zM393 93q46 28 74 79t28 118q0 76 -39.5 118t-106.5 42q-58 0 -105 -30.5t-74 -81.5t-27 -111
q0 -73 40 -117.5t112 -44.5q52 0 98 28z" />
    <glyph glyph-name="uni0441" unicode="&#x441;" horiz-adv-x="581" 
d="M146.5 19q-50.5 29 -78 80.5t-27.5 116.5q0 90 38.5 160.5t105.5 109.5t150 39q87 0 146 -47t73 -126l-87 -9q-10 51 -45.5 79t-87.5 28q-63 0 -110 -30t-72.5 -81t-25.5 -114q0 -74 39 -117t107 -43q56 0 104.5 30.5t71.5 84.5l81 -9q-31 -84 -100.5 -132.5
t-166.5 -48.5q-65 0 -115.5 29z" />
    <glyph glyph-name="uni0442" unicode="&#x442;" horiz-adv-x="439" 
d="M445 442h-157l-62 -442h-85l62 442h-157l10 73h399z" />
    <glyph glyph-name="uni0443" unicode="&#x443;" horiz-adv-x="561" 
d="M531 515l-65 -468q-17 -121 -83 -186.5t-174 -65.5q-76 0 -124 32.5t-60 85.5l82 16q7 -31 34 -47.5t72 -16.5q143 0 168 181l6 41q-33 -48 -80 -72.5t-101 -24.5q-51 0 -86.5 21.5t-53.5 57.5t-18 78q0 21 3 42l45 326h85l-44 -317q-3 -22 -3 -41q0 -51 27.5 -73
t80.5 -22q50 0 85.5 28t55 69t25.5 82l38 274h85z" />
    <glyph glyph-name="uni0444" unicode="&#x444;" horiz-adv-x="688" 
d="M608 141.5q-39 -70.5 -107.5 -111t-151.5 -40.5l-26 -185h-85l26 185q-65 1 -115.5 30t-79 80t-28.5 117q0 86 39 156.5t107.5 111t151.5 40.5l33 235h85l-33 -235q65 -1 115.5 -30t79 -80t28.5 -117q0 -86 -39 -156.5zM464.5 99q46.5 33 72 86t25.5 113
q0 70 -40.5 110.5t-107.5 41.5l-55 -385q59 1 105.5 34zM328 450q-59 -1 -105 -34t-71.5 -86t-25.5 -113q0 -70 40.5 -110.5t107.5 -41.5z" />
    <glyph glyph-name="uni0445" unicode="&#x445;" horiz-adv-x="475" 
d="M287 261l147 -261h-90l-111 199l-166 -199h-98l226 269l-140 246h90l103 -184l154 184h98z" />
    <glyph glyph-name="uni0446" unicode="&#x446;" horiz-adv-x="537" 
d="M472 -130h-76l12 130h-379l72 515h85l-62 -442h220l62 442h85l-62 -442h72z" />
    <glyph glyph-name="uni0447" unicode="&#x447;" horiz-adv-x="485" 
d="M456 515l-72 -515h-85l27 190h-82q-85 0 -132.5 42t-47.5 111q0 11 2 31l20 141h85l-20 -140q-2 -16 -2 -25q0 -87 107 -87h80l35 252h85z" />
    <glyph glyph-name="uni0448" unicode="&#x448;" horiz-adv-x="755" 
d="M726 515l-72 -515h-625l72 515h85l-62 -442h185l62 442h85l-62 -442h185l62 442h85z" />
    <glyph glyph-name="uni0449" unicode="&#x449;" horiz-adv-x="772" 
d="M707 -130h-76l12 130h-614l72 515h85l-62 -442h185l62 442h85l-62 -442h185l62 442h85l-62 -442h72z" />
    <glyph glyph-name="uni044A" unicode="&#x44a;" horiz-adv-x="555" 
d="M469 316.5q46 -42.5 46 -109.5q0 -100 -61.5 -153.5t-166.5 -53.5h-188l62 443h-115l10 72h200l-10 -72l-12 -84h104q85 0 131 -42.5zM391 108q39 35 39 94q0 39 -27.5 61.5t-83.5 22.5h-95l-30 -213h91q67 0 106 35z" />
    <glyph glyph-name="uni044B" unicode="&#x44b;" horiz-adv-x="685" 
d="M399 316.5q46 -42.5 46 -109.5q0 -100 -61.5 -153.5t-166.5 -53.5h-188l72 515h85l-22 -156h104q85 0 131 -42.5zM656 515l-72 -515h-85l72 515h85zM321 108q39 35 39 94q0 39 -27.5 61.5t-83.5 22.5h-95l-30 -213h91q67 0 106 35z" />
    <glyph glyph-name="uni044C" unicode="&#x44c;" horiz-adv-x="485" 
d="M399 316.5q46 -42.5 46 -109.5q0 -100 -61.5 -153.5t-166.5 -53.5h-188l72 515h85l-22 -156h104q85 0 131 -42.5zM321 108q39 35 39 94q0 39 -27.5 61.5t-83.5 22.5h-95l-30 -213h91q67 0 106 35z" />
    <glyph glyph-name="uni044D" unicode="&#x44d;" horiz-adv-x="590" 
d="M441 496q51 -29 79.5 -80.5t28.5 -117.5q0 -86 -39 -156.5t-106 -111t-148 -40.5q-90 0 -151 53.5t-72 139.5l84 5q9 -58 47.5 -90.5t94.5 -32.5q70 0 122 45t72 114h-245l10 72h246v2q0 71 -39.5 111.5t-103.5 40.5q-58 0 -106.5 -32.5t-74.5 -89.5l-85 12
q36 88 107 136.5t161 48.5q67 0 118 -29z" />
    <glyph glyph-name="uni044E" unicode="&#x44e;" horiz-adv-x="788" 
d="M640 496q51 -29 79 -81t28 -118q0 -84 -38.5 -154.5t-105 -111.5t-146.5 -41q-66 0 -117 29t-79 81t-28 118v15h-86l-33 -233h-85l72 515h85l-29 -211h87q17 64 58 114t98 78.5t123 28.5t117 -29zM563.5 97.5q46.5 32.5 72.5 86.5t26 115q0 70 -39.5 110.5t-101.5 40.5
q-58 0 -104.5 -32.5t-72.5 -86.5t-26 -115q0 -70 39.5 -110.5t101.5 -40.5q58 0 104.5 32.5z" />
    <glyph glyph-name="uni044F" unicode="&#x44f;" horiz-adv-x="495" 
d="M394 0h-85l20 146h-103q-16 0 -23 1l-88 -147h-95l104 168q-36 20 -55.5 53.5t-19.5 78.5q0 101 59.5 158t170.5 57h187zM340 219l31 223h-90q-70 0 -108.5 -37.5t-38.5 -99.5q0 -40 27.5 -63t83.5 -23h95z" />
    <glyph glyph-name="uni0450" unicode="&#x450;" horiz-adv-x="585" 
d="M126 226v-7q0 -72 40 -113t101 -41q58 0 102 26t72 70l84 -10q-41 -77 -109 -119t-153 -42q-66 0 -116.5 30t-78 81.5t-27.5 114.5q0 86 37 157t103.5 111.5t150.5 40.5q69 0 117 -29t72 -78.5t24 -110.5q0 -15 -2 -39t-5 -42h-412zM209.5 409.5
q-52.5 -40.5 -73.5 -111.5h324v4q0 72 -34.5 110t-95.5 38q-68 0 -120.5 -40.5zM279 760l94 -170h-67l-139 170h112z" />
    <glyph glyph-name="uni0451" unicode="&#x451;" horiz-adv-x="585" 
d="M126 226v-7q0 -72 40 -113t101 -41q58 0 102 26t72 70l84 -10q-41 -77 -109 -119t-153 -42q-66 0 -116.5 30t-78 81.5t-27.5 114.5q0 86 37 157t103.5 111.5t150.5 40.5q69 0 117 -29t72 -78.5t24 -110.5q0 -15 -2 -39t-5 -42h-412zM209.5 409.5
q-52.5 -40.5 -73.5 -111.5h324v4q0 72 -34.5 110t-95.5 38q-68 0 -120.5 -40.5zM216.5 639q-16.5 17 -16.5 41q0 25 16.5 42t41.5 17q24 0 41 -17t17 -42q0 -24 -17 -41t-41 -17q-25 0 -41.5 17zM402.5 639q-16.5 17 -16.5 41q0 25 16.5 42t41.5 17q24 0 40.5 -17t16.5 -42
q0 -24 -16.5 -41t-40.5 -17q-25 0 -41.5 17z" />
    <glyph glyph-name="uni0452" unicode="&#x452;" horiz-adv-x="630" 
d="M540.5 479.5q41.5 -45.5 41.5 -116.5q0 -20 -4 -48l-51 -359q-13 -87 -55 -124t-108 -37q-59 0 -98 15l16 72q43 -12 79 -12q40 0 58 21.5t26 80.5l47 336q4 30 4 42q0 52 -25 77.5t-80 25.5q-74 0 -118 -48.5t-58 -113.5l-41 -291h-85l86 613h-105l10 70h105l11 77h85
l-11 -77h201l-10 -70h-201l-26 -186q34 48 82 73t103 25q80 0 121.5 -45.5z" />
    <glyph glyph-name="uni0453" unicode="&#x453;" horiz-adv-x="381" 
d="M387 442h-211l-62 -442h-85l72 515h296zM286 590h-67l94 170h112z" />
    <glyph glyph-name="uni0454" unicode="&#x454;" horiz-adv-x="590" 
d="M149 19q-51 29 -79.5 80.5t-28.5 117.5q0 86 39 156.5t106 111t148 40.5q90 0 151 -53.5t72 -139.5l-84 -5q-9 58 -47.5 90.5t-94.5 32.5q-70 0 -122 -45t-72 -114h245l-10 -72h-246v-2q0 -71 39.5 -111.5t103.5 -40.5q58 0 106.5 32.5t74.5 89.5l85 -12
q-36 -88 -107 -136.5t-161 -48.5q-67 0 -118 29z" />
    <glyph glyph-name="uni0455" unicode="&#x455;" horiz-adv-x="477" 
d="M65.5 33q-46.5 43 -46.5 114l84 9q0 -45 23 -68t79 -23q136 0 136 90q0 29 -24 44.5t-83 35.5l-33 11q-72 23 -107.5 53t-35.5 81q0 69 56 107t150 38q82 0 130 -41t48 -105l-85 -9q-1 35 -23.5 57.5t-77.5 22.5q-54 0 -83.5 -18t-29.5 -50q0 -19 19 -32.5t65 -29.5
l42 -14q53 -18 85.5 -34.5t52 -43.5t19.5 -68q0 -86 -61.5 -128t-159.5 -42q-93 0 -139.5 43z" />
    <glyph glyph-name="uni0456" unicode="&#x456;" horiz-adv-x="216" 
d="M121 632q-19 19 -19 46q0 28 19 47t46 19t46 -19t19 -47q0 -27 -19 -46t-46 -19t-46 19zM101 515h85l-72 -515h-85z" />
    <glyph glyph-name="uni0457" unicode="&#x457;" horiz-adv-x="215" 
d="M101 515h85l-72 -515h-85zM33.5 639q-16.5 17 -16.5 41q0 25 16.5 42t41.5 17q24 0 41 -17t17 -42q0 -24 -17 -41t-41 -17q-25 0 -41.5 17zM219.5 639q-16.5 17 -16.5 41q0 25 16.5 42t41.5 17q24 0 40.5 -17t16.5 -42q0 -24 -16.5 -41t-40.5 -17q-25 0 -41.5 17z" />
    <glyph glyph-name="uni0458" unicode="&#x458;" horiz-adv-x="232" 
d="M137 632q-19 19 -19 46q0 28 19 47t46 19t46 -19t19 -47q0 -27 -19 -46t-46 -19t-46 19zM-138 -190l16 72q43 -12 79 -12q40 0 58 21.5t26 80.5l76 543h85l-79 -559q-13 -87 -55 -124t-108 -37q-59 0 -98 15z" />
    <glyph glyph-name="uni0459" unicode="&#x459;" horiz-adv-x="761" 
d="M675 316.5q46 -42.5 46 -109.5q0 -100 -61.5 -153.5t-166.5 -53.5h-188l61 435h-11l-292 -435h-94l344 515h149l-22 -156h104q85 0 131 -42.5zM597 108q39 35 39 94q0 39 -27.5 61.5t-83.5 22.5h-95l-30 -213h91q67 0 106 35z" />
    <glyph glyph-name="uni045A" unicode="&#x45a;" horiz-adv-x="800" 
d="M714 316.5q46 -42.5 46 -109.5q0 -100 -61.5 -153.5t-166.5 -53.5h-188l33 237h-230l-33 -237h-85l72 515h85l-29 -205h230l29 205h85l-22 -156h104q85 0 131 -42.5zM636 108q39 35 39 94q0 39 -27.5 61.5t-83.5 22.5h-95l-30 -213h91q67 0 106 35z" />
    <glyph glyph-name="uni045B" unicode="&#x45b;" horiz-adv-x="630" 
d="M540.5 479.5q41.5 -45.5 41.5 -116.5q0 -20 -4 -48l-44 -315h-85l43 308q4 30 4 42q0 52 -25 77.5t-80 25.5q-74 0 -118 -48.5t-58 -113.5l-41 -291h-85l86 613h-105l10 70h105l11 77h85l-11 -77h201l-10 -70h-201l-26 -186q34 48 82 73t103 25q80 0 121.5 -45.5z" />
    <glyph glyph-name="uni045C" unicode="&#x45c;" horiz-adv-x="469" 
d="M265 291l163 -291h-87l-134 236l-69 -66l-24 -170h-85l72 515h85l-32 -227l234 227h111zM325 590h-67l94 170h112z" />
    <glyph glyph-name="uni045D" unicode="&#x45d;" horiz-adv-x="528" 
d="M499 515l-72 -515h-85l54 386l-281 -386l-1 1v-1h-85l72 515h85l-54 -386l281 386l1 -1v1h85zM250 760l94 -170h-67l-139 170h112z" />
    <glyph glyph-name="uni045E" unicode="&#x45e;" horiz-adv-x="561" 
d="M531 515l-65 -468q-17 -121 -83 -186.5t-174 -65.5q-76 0 -124 32.5t-60 85.5l82 16q7 -31 34 -47.5t72 -16.5q143 0 168 181l6 41q-33 -48 -80 -72.5t-101 -24.5q-51 0 -86.5 21.5t-53.5 57.5t-18 78q0 21 3 42l45 326h85l-44 -317q-3 -22 -3 -41q0 -51 27.5 -73
t80.5 -22q50 0 85.5 28t55 69t25.5 82l38 274h85zM220.5 631.5q-39.5 43.5 -39.5 128.5h65q0 -51 26.5 -78t68.5 -27q82 0 117 105h65q-20 -86 -69 -129t-121 -43q-73 0 -112.5 43.5z" />
    <glyph glyph-name="uni045F" unicode="&#x45f;" horiz-adv-x="526" 
d="M497 515l-72 -515h-152l-25 -140h-80l14 140h-153l72 515h85l-62 -442h226l62 442h85z" />
    <glyph glyph-name="uni0462" unicode="&#x462;" horiz-adv-x="735" 
d="M632.5 437q62.5 -58 62.5 -153q0 -135 -82.5 -209.5t-222.5 -74.5h-246l84 600h-160l11 76h159l12 84h86l-12 -84h231l-11 -76h-230l-15 -105h157q114 0 176.5 -58zM550 131q59 55 59 149q0 65 -40.5 102t-128.5 37h-152l-47 -343h147q103 0 162 55z" />
    <glyph glyph-name="uni0463" unicode="&#x463;" horiz-adv-x="545" 
d="M459 316.5q46 -42.5 46 -109.5q0 -100 -61.5 -153.5t-166.5 -53.5h-188l62 445h-105l10 70h105l34 245h85l-34 -245h201l-10 -70h-201l-12 -86h104q85 0 131 -42.5zM381 107.5q39 35.5 39 94.5q0 39 -27.5 62t-83.5 23h-95l-30 -215h91q67 0 106 35.5z" />
    <glyph glyph-name="uni0472" unicode="&#x472;" horiz-adv-x="841" 
d="M661 728q74 -42 114.5 -118.5t40.5 -176.5q0 -122 -58.5 -223.5t-157.5 -160.5t-215 -59q-97 0 -171 42t-114.5 118.5t-40.5 176.5q0 122 58.5 223.5t157.5 160.5t215 59q97 0 171 -42zM340.5 657.5q-67.5 -35.5 -115 -97.5t-66.5 -139h569v13q0 77 -29.5 136t-84.5 91
t-128 32q-78 0 -145.5 -35.5zM536.5 103.5q68.5 36.5 116 100t65.5 141.5h-571v-19q0 -77 29.5 -136t84.5 -91t128 -32q79 0 147.5 36.5z" />
    <glyph glyph-name="uni0473" unicode="&#x473;" horiz-adv-x="602" 
d="M454 496q51 -29 79 -81t28 -118q0 -89 -38 -159t-105.5 -109t-153.5 -39q-65 0 -115.5 29t-79 81t-28.5 118q0 89 38.5 159t106 109t152.5 39q65 0 116 -29zM208.5 408q-54.5 -42 -73.5 -114h341q-1 75 -40 115.5t-103 40.5q-70 0 -124.5 -42zM393 107.5
q55 42.5 74 114.5h-341q1 -75 40 -116t103 -41q69 0 124 42.5z" />
    <glyph glyph-name="uni0474" unicode="&#x474;" horiz-adv-x="645" 
d="M716 760l-17 -76h-15q-20 0 -35.5 -12t-32.5 -49l-296 -623h-98l-146 760h87l118 -669l265 574q27 57 60.5 76t86.5 19h23z" />
    <glyph glyph-name="uni0475" unicode="&#x475;" horiz-adv-x="509" 
d="M545 515l-17 -76h-8q-33 0 -54 -41l-206 -398h-97l-122 515h87l92 -431l174 356q22 46 50 60.5t89 14.5h12z" />
    <glyph glyph-name="uni048A" unicode="&#x48a;" horiz-adv-x="684" 
d="M314.5 876.5q-39.5 43.5 -39.5 128.5h65q0 -51 26.5 -78t68.5 -27q82 0 117 105h65q-20 -86 -69 -129t-121 -43q-73 0 -112.5 43.5zM653 76l-108 -216h-79l62 140h-49l85 612l-443 -612h-86l106 760h86l-85 -613l443 613h86l-95 -684h77z" />
    <glyph glyph-name="uni048B" unicode="&#x48b;" horiz-adv-x="553" 
d="M201.5 631.5q-39.5 43.5 -39.5 128.5h65q0 -51 26.5 -78t68.5 -27q82 0 117 105h65q-20 -86 -69 -129t-121 -43q-73 0 -112.5 43.5zM415 -130h-79l57 130h-51l54 386l-281 -386l-1 1v-1h-85l72 515h85l-54 -386l281 386l1 -1v1h85l-62 -442h80z" />
    <glyph glyph-name="uni048C" unicode="&#x48c;" horiz-adv-x="735" 
d="M632.5 437q62.5 -58 62.5 -153q0 -135 -82.5 -209.5t-222.5 -74.5h-246l84 600h-160l11 76h159l12 84h86l-12 -84h231l-11 -76h-230l-15 -105h157q114 0 176.5 -58zM550 131q59 55 59 149q0 65 -40.5 102t-128.5 37h-152l-47 -343h147q103 0 162 55z" />
    <glyph glyph-name="uni048D" unicode="&#x48d;" horiz-adv-x="545" 
d="M459 316.5q46 -42.5 46 -109.5q0 -100 -61.5 -153.5t-166.5 -53.5h-188l62 445h-105l10 70h105l34 245h85l-34 -245h201l-10 -70h-201l-12 -86h104q85 0 131 -42.5zM381 107.5q39 35.5 39 94.5q0 39 -27.5 62t-83.5 23h-95l-30 -215h91q67 0 106 35.5z" />
    <glyph glyph-name="uni048E" unicode="&#x48e;" horiz-adv-x="625" 
d="M578.5 375.5q-42.5 -71.5 -119.5 -107.5l49 -113l-69 -36l-55 126q-33 -5 -64 -5h-166l-34 -240h-86l107 760h238q116 0 179 -56.5t63 -165.5q0 -91 -42.5 -162.5zM506 418q27 51 27 117q0 76 -39.5 112.5t-129.5 36.5h-148l-52 -368h157q12 0 32 2l-53 123l69 36
l59 -137q51 27 78 78z" />
    <glyph glyph-name="uni048F" unicode="&#x48f;" horiz-adv-x="621" 
d="M541.5 137.5q-38.5 -69.5 -103.5 -107.5l46 -104l-67 -36l-48 110q-36 -10 -76 -10q-58 0 -101 24t-67 66l-39 -275h-85l100 710h77l-8 -89q35 48 85.5 73.5t112.5 25.5t110 -29.5t75 -81.5t27 -117q0 -90 -38.5 -159.5zM407 102q41 30 64.5 78t23.5 110q0 76 -39.5 118
t-106.5 42q-58 0 -105 -30.5t-74 -81.5t-27 -111q0 -73 40 -117.5t112 -44.5q20 0 43 5l-54 124l67 35z" />
    <glyph glyph-name="uni0490" unicode="&#x490;" horiz-adv-x="486" 
d="M536 760l-10 -76h-310l-95 -684h-86l106 760h312l25 130h76z" />
    <glyph glyph-name="uni0491" unicode="&#x491;" horiz-adv-x="381" 
d="M397 515l-10 -73h-211l-62 -442h-85l72 515h213l18 95h78z" />
    <glyph glyph-name="uni0492" unicode="&#x492;" horiz-adv-x="581" 
d="M311 684l-39 -284h199l-11 -76h-199l-45 -324h-86l45 324h-141l11 76h141l50 360h395l-10 -76h-310z" />
    <glyph glyph-name="uni0493" unicode="&#x493;" horiz-adv-x="422" 
d="M217 442l-20 -144h130l-9 -70h-131l-32 -228h-85l32 228h-85l9 70h86l30 217h296l-10 -73h-211z" />
    <glyph glyph-name="uni0494" unicode="&#x494;" horiz-adv-x="627" 
d="M506 425q73 -60 73 -186q0 -104 -34.5 -202.5t-101.5 -165t-161 -76.5l-3 78q68 10 116 64.5t72 134.5t24 165t-46 128.5t-155 43.5h-112l-57 -409h-86l106 760h395l-10 -76h-310l-27 -199h113q131 0 204 -60z" />
    <glyph glyph-name="uni0495" unicode="&#x495;" horiz-adv-x="506" 
d="M396.5 274.5q56.5 -45.5 56.5 -144.5q0 -135 -61 -225t-185 -110v76q85 17 123 84.5t38 168.5q0 67 -32 95t-106 28h-81l-35 -247h-85l72 515h296l-10 -73h-211l-17 -122h81q100 0 156.5 -45.5z" />
    <glyph glyph-name="uni0496" unicode="&#x496;" horiz-adv-x="955" 
d="M698 448l186 -448h-87l-156 384l-136 -150l-33 -234h-86l35 253l-88 142l-263 -395h-96l313 468l-182 292h92l240 -394l55 394h86l-55 -397l353 397h105zM894 -140h-76l12 140h-26l10 76h110z" />
    <glyph glyph-name="uni0497" unicode="&#x497;" horiz-adv-x="737" 
d="M529 311l145 -311h-88l-117 253l-80 -78l-24 -175h-85l27 193l-48 64l-190 -257h-100l240 323l-145 192h97l160 -221l31 221h85l-31 -224l221 224h111zM677 -130h-76l12 130h-27l10 73h110z" />
    <glyph glyph-name="uni0498" unicode="&#x498;" horiz-adv-x="575" 
d="M516.5 342.5q24.5 -40.5 24.5 -94.5q0 -107 -67 -175.5t-177 -80.5l-25 -142h-77l13 142q-92 11 -139.5 60.5t-47.5 122.5q0 22 2 33l85 4q-2 -18 -2 -27q0 -56 36.5 -87.5t113.5 -31.5q87 0 142 49.5t55 131.5q0 53 -33 84.5t-99 31.5h-128l10 76h97q50 0 90.5 20
t63.5 56.5t23 82.5q0 44 -31.5 70t-100.5 26q-81 0 -124 -37.5t-52 -97.5l-85 9q13 88 81.5 145t185.5 57q103 0 158.5 -46.5t55.5 -122.5q0 -65 -31.5 -117t-86.5 -80q45 -21 69.5 -61.5z" />
    <glyph glyph-name="uni0499" unicode="&#x499;" horiz-adv-x="432" 
d="M366.5 231q20.5 -28 20.5 -66q0 -69 -41.5 -115t-120.5 -57l-25 -133h-74l12 133q-64 8 -100 42.5t-36 84.5q0 7 2 21l81 2q-1 -5 -1 -14q0 -32 24 -50.5t71 -18.5q55 0 89 28.5t34 74.5q0 30 -23.5 49t-70.5 19h-66l10 73h53q50 0 81.5 27.5t31.5 70.5q0 53 -79 53
q-51 0 -80 -21.5t-35 -57.5l-78 7q10 64 59.5 103t138.5 39q80 0 119.5 -32.5t39.5 -84.5q0 -41 -23.5 -78t-67.5 -56q34 -15 54.5 -43z" />
    <glyph glyph-name="uni049A" unicode="&#x49a;" horiz-adv-x="620" 
d="M359 434l190 -434h-90l-160 366l-152 -172l-27 -194h-86l107 760h86l-61 -435l382 435h98zM559 -140h-76l12 140h-26l10 76h110z" />
    <glyph glyph-name="uni049B" unicode="&#x49b;" horiz-adv-x="487" 
d="M265 291l163 -291h-87l-134 236l-69 -66l-24 -170h-85l72 515h85l-32 -227l234 227h111zM427 -130h-76l12 130h-27l10 73h110z" />
    <glyph glyph-name="uni049C" unicode="&#x49c;" horiz-adv-x="665" 
d="M424 485l195 -485h-85l-172 427l-39 -37l-27 -190h-80l18 128l-78 -76l-35 -252h-86l106 760h86l-54 -384l78 76l25 178h80l-16 -117l263 247h114z" />
    <glyph glyph-name="uni049D" unicode="&#x49d;" horiz-adv-x="544" 
d="M319 320l184 -320h-88l-152 265l-20 -145h-70l15 105l-48 -39l-26 -186h-85l72 515h85l-32 -226l49 40l18 131h70l-11 -79l157 134h121z" />
    <glyph glyph-name="uni049E" unicode="&#x49e;" horiz-adv-x="679" 
d="M441 432l192 -432h-87l-163 366l-152 -172l-27 -194h-86l84 600h-134l11 76h134l12 84h86l-12 -84h136l-11 -76h-136l-37 -266l375 426h104z" />
    <glyph glyph-name="uni049F" unicode="&#x49f;" horiz-adv-x="528" 
d="M324 291l163 -291h-87l-134 236l-69 -66l-24 -170h-85l86 613h-104l10 70h104l11 77h85l-11 -77h202l-10 -70h-202l-45 -325l233 227h111z" />
    <glyph glyph-name="uni04A0" unicode="&#x4a0;" horiz-adv-x="746" 
d="M510 434l190 -434h-90l-160 366l-152 -172l-27 -194h-86l96 684h-195l10 76h282l-61 -435l382 435h98z" />
    <glyph glyph-name="uni04A1" unicode="&#x4a1;" horiz-adv-x="599" 
d="M395 291l163 -291h-87l-134 236l-69 -66l-24 -170h-85l62 443h-175l10 72h260l-32 -227l234 227h111z" />
    <glyph glyph-name="uni04A2" unicode="&#x4a2;" horiz-adv-x="671" 
d="M661 760l-107 -760h-86l50 358h-348l-50 -358h-86l107 760h86l-46 -326h348l46 326h86zM610 -140h-76l12 140h-26l10 76h110z" />
    <glyph glyph-name="uni04A3" unicode="&#x4a3;" horiz-adv-x="547" 
d="M501 515l-72 -515h-85l33 233h-230l-33 -233h-85l72 515h85l-29 -209h230l29 209h85zM482 -130h-76l12 130h-27l10 73h110z" />
    <glyph glyph-name="uni04A4" unicode="&#x4a4;" horiz-adv-x="920" 
d="M661 760l-107 -760h-86l50 358h-348l-50 -358h-86l107 760h86l-46 -326h348l46 326h86zM960 684h-310l-95 -684h-86l106 760h395z" />
    <glyph glyph-name="uni04A5" unicode="&#x4a5;" horiz-adv-x="697" 
d="M501 515l-72 -515h-85l33 233h-230l-33 -233h-85l72 515h85l-29 -209h230l29 209h85zM703 442h-211l-62 -442h-85l72 515h296z" />
    <glyph glyph-name="uni04A6" unicode="&#x4a6;" horiz-adv-x="1051" 
d="M930 425q73 -60 73 -186q0 -104 -34.5 -202.5t-101.5 -165t-161 -76.5l-3 78q68 10 116 64.5t72 134.5t24 165t-46 128.5t-155 43.5h-112l-57 -409h-86l95 684h-338l-95 -684h-86l106 760h510l-38 -275h113q131 0 204 -60z" />
    <glyph glyph-name="uni04A7" unicode="&#x4a7;" horiz-adv-x="817" 
d="M707.5 274.5q56.5 -45.5 56.5 -144.5q0 -135 -61 -225t-185 -110v76q85 17 123 84.5t38 168.5q0 67 -32 95t-106 28h-81l-35 -247h-85l62 442h-226l-62 -442h-85l72 515h396l-27 -195h81q100 0 156.5 -45.5z" />
    <glyph glyph-name="uni04A8" unicode="&#x4a8;" horiz-adv-x="895" 
d="M698 64q70 0 135 23l-3 -77q-61 -20 -136 -20q-78 0 -147 25q-73 -25 -150 -25q-106 0 -184.5 45t-120 124.5t-41.5 179.5q0 102 42 192t112 151.5t151 83.5l-3 -80q-56 -23 -105 -73t-79 -120.5t-30 -150.5q0 -79 30.5 -142t89 -99.5t141.5 -36.5q28 0 51 4
q-62 48 -97.5 124.5t-35.5 181.5q0 107 37.5 197t111 144.5t175.5 54.5q115 0 175.5 -70.5t60.5 -199.5q0 -133 -61 -248.5t-165 -184.5q23 -3 46 -3zM445 198q39 -67 105 -101q71 34 125.5 96t84.5 142.5t30 167.5q0 190 -149 190q-76 0 -129 -46t-79.5 -120t-26.5 -158
q0 -104 39 -171z" />
    <glyph glyph-name="uni04A9" unicode="&#x4a9;" horiz-adv-x="670" 
d="M516 55q40 0 88 12v-66q-37 -11 -90 -11q-56 0 -108 20q-57 -20 -117 -20q-74 0 -132 30t-90.5 85t-32.5 128q0 70 30 131.5t82.5 103.5t115.5 56v-76q-66 -23 -105.5 -79.5t-39.5 -130.5q0 -85 49.5 -132.5t132.5 -47.5q18 0 26 1q-41 37 -64 90t-23 119q0 73 27.5 131
t79.5 92t123 34q83 0 129 -48t46 -137q0 -84 -40.5 -159.5t-109.5 -124.5q8 -1 23 -1zM344 148.5q23 -43.5 63 -66.5q70 33 111.5 102t41.5 152q0 62 -24 89t-69 27q-73 0 -109.5 -57t-36.5 -139q0 -64 23 -107.5z" />
    <glyph glyph-name="uni04AA" unicode="&#x4aa;" horiz-adv-x="820" 
d="M565.5 120q79.5 53 122.5 143l86 -11q-51 -112 -144 -181t-208 -79l-26 -142h-76l13 143q-82 11 -143.5 54.5t-96 115t-34.5 162.5q0 120 57.5 222t156 162.5t216.5 60.5q85 0 153 -32.5t111.5 -91.5t56.5 -137l-89 -10q-19 92 -80.5 143t-154.5 51t-171 -50.5
t-123 -134.5t-45 -181q0 -78 30 -137t85 -91t128 -32q96 0 175.5 53z" />
    <glyph glyph-name="uni04AB" unicode="&#x4ab;" horiz-adv-x="581" 
d="M376.5 95.5q48.5 30.5 71.5 84.5l81 -9q-27 -74 -84.5 -121t-137.5 -57l-25 -133h-74l12 133q-81 13 -130 74.5t-49 148.5q0 90 38.5 160.5t105.5 109.5t150 39q87 0 146 -47t73 -126l-87 -9q-10 51 -45.5 79t-87.5 28q-63 0 -110 -30t-72.5 -81t-25.5 -114
q0 -74 39 -117t107 -43q56 0 104.5 30.5z" />
    <glyph glyph-name="uni04AC" unicode="&#x4ac;" horiz-adv-x="590" 
d="M625 684h-227l-96 -684h-87l96 684h-226l11 76h540zM357 -140h-76l12 140h-26l10 76h110z" />
    <glyph glyph-name="uni04AD" unicode="&#x4ad;" horiz-adv-x="439" 
d="M445 442h-157l-62 -442h-85l62 442h-157l10 73h399zM279 -130h-76l12 130h-27l10 73h110z" />
    <glyph glyph-name="uni04AE" unicode="&#x4ae;" horiz-adv-x="580" 
d="M345 329l-47 -329h-87l46 327l-186 433h85l150 -356l249 356h96z" />
    <glyph glyph-name="uni04AF" unicode="&#x4af;" horiz-adv-x="500" 
d="M258 20l-30 -215h-85l31 219l-138 491h84l105 -413l219 413h92z" />
    <glyph glyph-name="uni04B0" unicode="&#x4b0;" horiz-adv-x="580" 
d="M395 400h153l-11 -76h-193l-46 -324h-87l46 324h-196l11 76h154l-155 360h85l150 -356l249 356h96z" />
    <glyph glyph-name="uni04B1" unicode="&#x4b1;" horiz-adv-x="500" 
d="M287 70h131l-9 -70h-153l-28 -195h-85l28 195h-153l9 70h134l-125 445h84l105 -413l219 413h92z" />
    <glyph glyph-name="uni04B2" unicode="&#x4b2;" horiz-adv-x="615" 
d="M358 380l186 -380h-88l-151 309l-236 -309h-100l297 387l-179 373h88l144 -300l225 300h98zM554 -140h-76l12 140h-26l10 76h110z" />
    <glyph glyph-name="uni04B3" unicode="&#x4b3;" horiz-adv-x="495" 
d="M287 261l147 -261h-90l-111 199l-166 -199h-98l226 269l-140 246h90l103 -184l154 184h98zM435 -130h-76l12 130h-27l10 73h110z" />
    <glyph glyph-name="uni04B4" unicode="&#x4b4;" horiz-adv-x="826" 
d="M795 76l-30 -216h-76l13 140h-497l95 684h-214l10 76h516l-10 -76h-216l-84 -608h332l95 684h86l-95 -684h75z" />
    <glyph glyph-name="uni04B5" unicode="&#x4b5;" horiz-adv-x="640" 
d="M575 -130h-76l12 130h-380l62 443h-147l10 72h379l-10 -72h-147l-52 -370h221l62 442h85l-62 -442h72z" />
    <glyph glyph-name="uni04B6" unicode="&#x4b6;" horiz-adv-x="626" 
d="M616 760l-106 -760h-86l41 294h-135q-72 0 -126.5 26.5t-84.5 76t-30 115.5q0 20 3 41l29 207h86l-29 -208q-3 -21 -3 -39q0 -143 174 -143h127l54 390h86zM565 -140h-76l12 140h-26l10 76h110z" />
    <glyph glyph-name="uni04B7" unicode="&#x4b7;" horiz-adv-x="502" 
d="M456 515l-72 -515h-85l27 190h-82q-85 0 -132.5 42t-47.5 111q0 11 2 31l20 141h85l-20 -140q-2 -16 -2 -25q0 -87 107 -87h80l35 252h85zM437 -130h-76l12 130h-27l10 73h110z" />
    <glyph glyph-name="uni04B8" unicode="&#x4b8;" horiz-adv-x="616" 
d="M616 760l-106 -760h-86l41 294h-113l-22 -154h-80l22 159q-84 15 -133.5 71.5t-49.5 141.5q0 20 3 41l29 207h86l-29 -208q-3 -21 -3 -39q0 -111 108 -137l22 154h80l-23 -160h114l54 390h86z" />
    <glyph glyph-name="uni04B9" unicode="&#x4b9;" horiz-adv-x="485" 
d="M456 515l-72 -515h-85l27 190h-59l-13 -90h-70l13 94q-64 11 -98.5 50.5t-34.5 98.5q0 11 2 31l20 141h85l-20 -140q-2 -16 -2 -25q0 -64 59 -81l15 111h70l-16 -117h59l35 252h85z" />
    <glyph glyph-name="uni04BA" unicode="&#x4ba;" horiz-adv-x="620" 
d="M451.5 439.5q54.5 -26.5 84.5 -76t30 -115.5q0 -20 -3 -41l-29 -207h-86l29 208q3 21 3 39q0 143 -174 143h-131l-54 -390h-86l106 760h86l-41 -294h139q72 0 126.5 -26.5z" />
    <glyph glyph-name="uni04BB" unicode="&#x4bb;" horiz-adv-x="570" 
d="M480.5 479.5q41.5 -45.5 41.5 -116.5q0 -20 -4 -48l-44 -315h-85l43 308q4 30 4 42q0 52 -25 77.5t-80 25.5q-74 0 -118 -48.5t-58 -113.5l-41 -291h-85l107 760h85l-47 -333q34 48 82 73t103 25q80 0 121.5 -45.5z" />
    <glyph glyph-name="uni04BC" unicode="&#x4bc;" horiz-adv-x="951" 
d="M257 345q-1 -8 -1 -23q0 -76 30.5 -133.5t85.5 -89.5t128 -32q86 0 162.5 47t121.5 125l88 -16q-60 -109 -158.5 -171t-216.5 -62q-96 0 -170.5 43t-115.5 119t-41 171q0 15 1 23q-122 10 -122 107q0 25 10 64t22 62l75 -9q-13 -31 -20 -54t-7 -47q0 -23 12 -33.5
t40 -13.5q22 98 82.5 177.5t148 125t186.5 45.5q96 0 171 -44.5t116 -121.5t41 -170q0 -42 -9 -89h-660zM450.5 657q-67.5 -36 -114.5 -98t-67 -138h569v13q0 76 -29.5 135t-84.5 91.5t-129 32.5q-77 0 -144.5 -36z" />
    <glyph glyph-name="uni04BD" unicode="&#x4bd;" horiz-adv-x="692" 
d="M233 226v-7q0 -72 40 -113t101 -41q58 0 102 26t72 70l84 -10q-41 -77 -109 -119t-153 -42q-66 0 -116.5 30t-78 81.5t-27.5 114.5v12q-116 12 -116 105q0 28 10 64t22 59l72 -9q-12 -30 -18 -53t-6 -49q0 -22 10.5 -32t35.5 -13q24 101 99.5 163t181.5 62q69 0 117 -29
t72 -78.5t24 -110.5q0 -15 -2 -39t-5 -42h-412zM316.5 409.5q-52.5 -40.5 -73.5 -111.5h324v4q0 72 -34.5 110t-95.5 38q-68 0 -120.5 -40.5z" />
    <glyph glyph-name="uni04BE" unicode="&#x4be;" horiz-adv-x="951" 
d="M257 345q-1 -8 -1 -23q0 -76 30.5 -133.5t85.5 -89.5t128 -32q86 0 162.5 47t121.5 125l88 -16q-54 -99 -141 -160t-192 -71l-26 -142h-76l13 143q-84 10 -147.5 55t-98 116.5t-34.5 158.5q0 15 1 23q-122 10 -122 107q0 25 10 64t22 62l75 -9q-13 -31 -20 -54t-7 -47
q0 -23 12 -33.5t40 -13.5q22 98 82.5 177.5t148 125t186.5 45.5q96 0 171 -44.5t116 -121.5t41 -170q0 -42 -9 -89h-660zM450.5 657q-67.5 -36 -114.5 -98t-67 -138h569v13q0 76 -29.5 135t-84.5 91.5t-129 32.5q-77 0 -144.5 -36z" />
    <glyph glyph-name="uni04BF" unicode="&#x4bf;" horiz-adv-x="692" 
d="M233 226v-7q0 -72 40 -113t101 -41q58 0 102 26t72 70l84 -10q-34 -66 -90 -106.5t-126 -51.5l-25 -133h-74l11 133q-82 14 -131 75.5t-49 147.5v12q-116 12 -116 105q0 28 10 64t22 59l72 -9q-12 -30 -18 -53t-6 -49q0 -22 10.5 -32t35.5 -13q24 101 99.5 163t181.5 62
q69 0 117 -29t72 -78.5t24 -110.5q0 -15 -2 -39t-5 -42h-412zM316.5 409.5q-52.5 -40.5 -73.5 -111.5h324v4q0 72 -34.5 110t-95.5 38q-68 0 -120.5 -40.5z" />
    <glyph glyph-name="uni04C0" unicode="&#x4c0;" horiz-adv-x="226" 
d="M141 760h86l-107 -760h-86z" />
    <glyph glyph-name="uni04C1" unicode="&#x4c1;" horiz-adv-x="930" 
d="M698 448l186 -448h-87l-156 384l-136 -150l-33 -234h-86l35 253l-88 142l-263 -395h-96l313 468l-182 292h92l240 -394l55 394h86l-55 -397l353 397h105zM437.5 876.5q-39.5 43.5 -39.5 128.5h65q0 -51 26.5 -78t68.5 -27q82 0 117 105h65q-20 -86 -69 -129t-121 -43
q-73 0 -112.5 43.5z" />
    <glyph glyph-name="uni04C2" unicode="&#x4c2;" horiz-adv-x="715" 
d="M529 311l145 -311h-88l-117 253l-80 -78l-24 -175h-85l27 193l-48 64l-190 -257h-100l240 323l-145 192h97l160 -221l31 221h85l-31 -224l221 224h111zM298.5 631.5q-39.5 43.5 -39.5 128.5h65q0 -51 26.5 -78t68.5 -27q82 0 117 105h65q-20 -86 -69 -129t-121 -43
q-73 0 -112.5 43.5z" />
    <glyph glyph-name="uni04C3" unicode="&#x4c3;" horiz-adv-x="606" 
d="M530 307q47 -67 47 -159q0 -86 -36 -162t-99.5 -126.5t-143.5 -64.5l-3 78q94 27 144 100.5t50 173.5q0 50 -17.5 90t-49 74t-83.5 77l-195 -222l-23 -166h-86l106 760h86l-64 -457l400 457h104l-276 -314q92 -72 139 -139z" />
    <glyph glyph-name="uni04C4" unicode="&#x4c4;" horiz-adv-x="487" 
d="M393.5 183q41.5 -61 41.5 -134q0 -70 -32 -124t-87.5 -87t-124.5 -43l1 77q77 16 117.5 63t40.5 121q0 56 -31.5 97.5t-98.5 94.5l-82 -78l-24 -170h-85l72 515h85l-32 -232l232 232h113l-224 -214q77 -57 118.5 -118z" />
    <glyph glyph-name="uni04C5" unicode="&#x4c5;" horiz-adv-x="673" 
d="M534 -140h-79l62 140h-40l-114 672l-301 -672h-93l355 760h97l129 -684h92z" />
    <glyph glyph-name="uni04C6" unicode="&#x4c6;" horiz-adv-x="569" 
d="M436 -130h-80l58 130h-40l-96 436l-216 -436h-93l269 515h96l107 -442h97z" />
    <glyph glyph-name="uni04C7" unicode="&#x4c7;" horiz-adv-x="661" 
d="M661 760l-101 -722q-17 -123 -88 -183t-173 -60q-17 0 -24 1l-3 78q20 -2 29 -2q67 0 114.5 42t58.5 125l45 320h-348l-50 -359h-86l106 760h86l-45 -325h347l46 325h86z" />
    <glyph glyph-name="uni04C8" unicode="&#x4c8;" horiz-adv-x="530" 
d="M429 0l-7 -46q-13 -92 -53.5 -125.5t-108.5 -33.5q-27 0 -53.5 5.5t-43.5 12.5l11 68q39 -11 75 -11q44 0 63 21t27 75l21 149l17 118h-230l-33 -233h-85l72 515h85l-29 -209h230l29 209h85z" />
    <glyph glyph-name="uni04C9" unicode="&#x4c9;" horiz-adv-x="664" 
d="M643 76l-108 -216h-79l62 140h-50l50 358h-348l-50 -358h-86l107 760h86l-46 -326h348l46 326h86l-96 -684h78z" />
    <glyph glyph-name="uni04CA" unicode="&#x4ca;" horiz-adv-x="555" 
d="M417 -130h-79l57 130h-51l33 233h-230l-33 -233h-85l72 515h85l-29 -209h230l29 209h85l-62 -442h80z" />
    <glyph glyph-name="uni04CB" unicode="&#x4cb;" horiz-adv-x="616" 
d="M616 760l-106 -760h-80l-26 -140h-77l30 216h78l30 218h-135q-72 0 -126.5 26.5t-84.5 76t-30 115.5q0 20 3 41l29 207h86l-29 -208q-3 -21 -3 -39q0 -143 174 -143h127l54 390h86z" />
    <glyph glyph-name="uni04CC" unicode="&#x4cc;" horiz-adv-x="485" 
d="M456 515l-72 -515h-76l-25 -130h-76l29 203h73l17 117h-82q-85 0 -132.5 42t-47.5 111q0 11 2 31l20 141h85l-20 -140q-2 -16 -2 -25q0 -87 107 -87h80l35 252h85z" />
    <glyph glyph-name="uni04CD" unicode="&#x4cd;" horiz-adv-x="891" 
d="M752 -140h-79l62 140h-39l28 639l-293 -639h-70l-115 641l-152 -641h-85l185 760h103l113 -650l293 650h105l-26 -684h78z" />
    <glyph glyph-name="uni04CE" unicode="&#x4ce;" horiz-adv-x="674" 
d="M546 -130h-79l56 130h-38l15 386l-189 -386h-56l-78 391l-94 -391h-84l126 515h93l80 -391l193 391h94l-15 -442h78z" />
    <glyph glyph-name="uni04CF" unicode="&#x4cf;" horiz-adv-x="216" 
d="M136 760h85l-106 -760h-85z" />
    <glyph glyph-name="uni04D0" unicode="&#x4d0;" horiz-adv-x="605" 
d="M453 136h-332l-61 -136h-91l356 760h97l142 -760h-88zM440 212l-78 463l-207 -463h285zM276.5 876.5q-39.5 43.5 -39.5 128.5h65q0 -51 26.5 -78t68.5 -27q82 0 117 105h65q-20 -86 -69 -129t-121 -43q-73 0 -112.5 43.5z" />
    <glyph glyph-name="uni04D1" unicode="&#x4d1;" horiz-adv-x="620" 
d="M591 515l-72 -515h-76l7 87q-33 -44 -84 -70.5t-111 -26.5q-59 0 -108 29t-77.5 81.5t-28.5 120.5q0 89 39.5 158.5t105.5 107.5t141 38q58 0 101.5 -25t66.5 -69l12 84h84zM374 95.5q48 30.5 76 82t28 112.5q0 72 -39.5 116t-108.5 44q-54 0 -100.5 -27t-75 -78
t-28.5 -118q0 -76 39 -119t105 -43q56 0 104 30.5zM232.5 631.5q-39.5 43.5 -39.5 128.5h65q0 -51 26.5 -78t68.5 -27q82 0 117 105h65q-20 -86 -69 -129t-121 -43q-73 0 -112.5 43.5z" />
    <glyph glyph-name="uni04D2" unicode="&#x4d2;" horiz-adv-x="605" 
d="M453 136h-332l-61 -136h-91l356 760h97l142 -760h-88zM440 212l-78 463l-207 -463h285zM262.5 884q-16.5 17 -16.5 41q0 25 16.5 42t41.5 17q24 0 41 -17t17 -42q0 -24 -17 -41t-41 -17q-25 0 -41.5 17zM448.5 884q-16.5 17 -16.5 41q0 25 16.5 42t41.5 17q24 0 40.5 -17
t16.5 -42q0 -24 -16.5 -41t-40.5 -17q-25 0 -41.5 17z" />
    <glyph glyph-name="uni04D3" unicode="&#x4d3;" horiz-adv-x="620" 
d="M591 515l-72 -515h-76l7 87q-33 -44 -84 -70.5t-111 -26.5q-59 0 -108 29t-77.5 81.5t-28.5 120.5q0 89 39.5 158.5t105.5 107.5t141 38q58 0 101.5 -25t66.5 -69l12 84h84zM374 95.5q48 30.5 76 82t28 112.5q0 72 -39.5 116t-108.5 44q-54 0 -100.5 -27t-75 -78
t-28.5 -118q0 -76 39 -119t105 -43q56 0 104 30.5zM218.5 639q-16.5 17 -16.5 41q0 25 16.5 42t41.5 17q24 0 41 -17t17 -42q0 -24 -17 -41t-41 -17q-25 0 -41.5 17zM404.5 639q-16.5 17 -16.5 41q0 25 16.5 42t41.5 17q24 0 40.5 -17t16.5 -42q0 -24 -16.5 -41t-40.5 -17
q-25 0 -41.5 17z" />
    <glyph glyph-name="uni04D4" unicode="&#x4d4;" horiz-adv-x="921" 
d="M600 686l-36 -253h316l-9 -74h-317l-41 -285h327l-11 -74h-412l25 178h-272l-122 -178h-89l519 760h453l-11 -74h-320zM452 252l61 429l-293 -429h232z" />
    <glyph glyph-name="uni04D5" unicode="&#x4d5;" horiz-adv-x="936" 
d="M492 234v-16q0 -73 39 -113t104 -40q50 0 91 24t68 65l83 -10q-42 -74 -106.5 -114t-144.5 -40q-68 0 -119 29.5t-78 82.5q-33 -54 -90.5 -83t-136.5 -29q-81 0 -129.5 35.5t-48.5 106.5q0 95 70.5 133.5t179.5 38.5h141q4 32 4 38q0 59 -33.5 83.5t-82.5 24.5
q-51 0 -87 -21t-62 -59l-85 11q39 69 98 106.5t152 37.5q57 0 102.5 -21.5t66.5 -69.5q38 43 90 67t112 24q98 0 150 -60t52 -152q0 -20 -2 -42.5t-5 -36.5h-393zM568 410q-45 -40 -64 -106h303v6q0 68 -34 104t-94 36q-66 0 -111 -40zM339 97.5q53 39.5 63 109.5l3 20l1 7
h-140q-91 0 -124.5 -24.5t-33.5 -70.5q0 -40 28 -60.5t81 -20.5q69 0 122 39.5z" />
    <glyph glyph-name="uni04D6" unicode="&#x4d6;" horiz-adv-x="546" 
d="M216 684l-35 -250h325l-10 -76h-326l-39 -282h334l-11 -76h-420l107 760h415l-11 -76h-329zM247.5 876.5q-39.5 43.5 -39.5 128.5h65q0 -51 26.5 -78t68.5 -27q82 0 117 105h65q-20 -86 -69 -129t-121 -43q-73 0 -112.5 43.5z" />
    <glyph glyph-name="uni04D7" unicode="&#x4d7;" horiz-adv-x="585" 
d="M126 226v-7q0 -72 40 -113t101 -41q58 0 102 26t72 70l84 -10q-41 -77 -109 -119t-153 -42q-66 0 -116.5 30t-78 81.5t-27.5 114.5q0 86 37 157t103.5 111.5t150.5 40.5q69 0 117 -29t72 -78.5t24 -110.5q0 -15 -2 -39t-5 -42h-412zM209.5 409.5
q-52.5 -40.5 -73.5 -111.5h324v4q0 72 -34.5 110t-95.5 38q-68 0 -120.5 -40.5zM230.5 631.5q-39.5 43.5 -39.5 128.5h65q0 -51 26.5 -78t68.5 -27q82 0 117 105h65q-20 -86 -69 -129t-121 -43q-73 0 -112.5 43.5z" />
    <glyph glyph-name="uni04D8" unicode="&#x4d8;" horiz-adv-x="839" 
d="M658.5 726.5q74.5 -43.5 115.5 -119.5t41 -170q0 -120 -58 -223t-156.5 -163.5t-213.5 -60.5q-96 0 -171 44.5t-116 121t-41 169.5q0 45 10 98l660 -2v16q0 74 -30.5 132.5t-86 91t-127.5 32.5q-88 0 -163.5 -46.5t-120.5 -125.5l-88 16q54 107 155.5 170t219.5 63
q96 0 170.5 -43.5zM535 104q68 37 115.5 101t67.5 141h-570v-16q0 -76 30 -136t85 -93.5t127 -33.5q77 0 145 37z" />
    <glyph glyph-name="uni04D9" unicode="&#x4d9;" horiz-adv-x="585" 
d="M438.5 495q50.5 -30 78 -81.5t27.5 -114.5q0 -86 -37 -157t-103.5 -111.5t-150.5 -40.5q-69 0 -117 29t-72 78.5t-24 110.5q0 16 2 39.5t5 41.5h412v7q0 72 -40 113t-101 41q-58 0 -102 -26t-72 -70l-84 10q41 77 109 119t153 42q66 0 116.5 -30zM375.5 105.5
q52.5 40.5 73.5 111.5h-324v-4q0 -72 34.5 -110t95.5 -38q68 0 120.5 40.5z" />
    <glyph glyph-name="uni04DA" unicode="&#x4da;" horiz-adv-x="839" 
d="M658.5 726.5q74.5 -43.5 115.5 -119.5t41 -170q0 -120 -58 -223t-156.5 -163.5t-213.5 -60.5q-96 0 -171 44.5t-116 121t-41 169.5q0 45 10 98l660 -2v16q0 74 -30.5 132.5t-86 91t-127.5 32.5q-88 0 -163.5 -46.5t-120.5 -125.5l-88 16q54 107 155.5 170t219.5 63
q96 0 170.5 -43.5zM535 104q68 37 115.5 101t67.5 141h-570v-16q0 -76 30 -136t85 -93.5t127 -33.5q77 0 145 37zM376.5 884q-16.5 17 -16.5 41q0 25 16.5 42t41.5 17q24 0 41 -17t17 -42q0 -24 -17 -41t-41 -17q-25 0 -41.5 17zM562.5 884q-16.5 17 -16.5 41q0 25 16.5 42
t41.5 17q24 0 40.5 -17t16.5 -42q0 -24 -16.5 -41t-40.5 -17q-25 0 -41.5 17z" />
    <glyph glyph-name="uni04DB" unicode="&#x4db;" horiz-adv-x="585" 
d="M438.5 495q50.5 -30 78 -81.5t27.5 -114.5q0 -86 -37 -157t-103.5 -111.5t-150.5 -40.5q-69 0 -117 29t-72 78.5t-24 110.5q0 16 2 39.5t5 41.5h412v7q0 72 -40 113t-101 41q-58 0 -102 -26t-72 -70l-84 10q41 77 109 119t153 42q66 0 116.5 -30zM375.5 105.5
q52.5 40.5 73.5 111.5h-324v-4q0 -72 34.5 -110t95.5 -38q68 0 120.5 40.5zM210.5 639q-16.5 17 -16.5 41q0 25 16.5 42t41.5 17q24 0 41 -17t17 -42q0 -24 -17 -41t-41 -17q-25 0 -41.5 17zM396.5 639q-16.5 17 -16.5 41q0 25 16.5 42t41.5 17q24 0 40.5 -17t16.5 -42
q0 -24 -16.5 -41t-40.5 -17q-25 0 -41.5 17z" />
    <glyph glyph-name="uni04DC" unicode="&#x4dc;" horiz-adv-x="930" 
d="M698 448l186 -448h-87l-156 384l-136 -150l-33 -234h-86l35 253l-88 142l-263 -395h-96l313 468l-182 292h92l240 -394l55 394h86l-55 -397l353 397h105zM423.5 884q-16.5 17 -16.5 41q0 25 16.5 42t41.5 17q24 0 41 -17t17 -42q0 -24 -17 -41t-41 -17q-25 0 -41.5 17z
M609.5 884q-16.5 17 -16.5 41q0 25 16.5 42t41.5 17q24 0 40.5 -17t16.5 -42q0 -24 -16.5 -41t-40.5 -17q-25 0 -41.5 17z" />
    <glyph glyph-name="uni04DD" unicode="&#x4dd;" horiz-adv-x="715" 
d="M529 311l145 -311h-88l-117 253l-80 -78l-24 -175h-85l27 193l-48 64l-190 -257h-100l240 323l-145 192h97l160 -221l31 221h85l-31 -224l221 224h111zM284.5 639q-16.5 17 -16.5 41q0 25 16.5 42t41.5 17q24 0 41 -17t17 -42q0 -24 -17 -41t-41 -17q-25 0 -41.5 17z
M470.5 639q-16.5 17 -16.5 41q0 25 16.5 42t41.5 17q24 0 40.5 -17t16.5 -42q0 -24 -16.5 -41t-40.5 -17q-25 0 -41.5 17z" />
    <glyph glyph-name="uni04DE" unicode="&#x4de;" horiz-adv-x="575" 
d="M516.5 342.5q24.5 -40.5 24.5 -94.5q0 -78 -36.5 -136.5t-101.5 -90t-149 -31.5q-115 0 -174 51t-59 134q0 22 2 33l85 4q-2 -18 -2 -27q0 -56 36.5 -87.5t113.5 -31.5q87 0 142 49.5t55 131.5q0 53 -33 84.5t-99 31.5h-128l10 76h97q50 0 90.5 20t63.5 56.5t23 82.5
q0 44 -31.5 70t-100.5 26q-81 0 -124 -37.5t-52 -97.5l-85 9q13 88 81.5 145t185.5 57q103 0 158.5 -46.5t55.5 -122.5q0 -65 -31.5 -117t-86.5 -80q45 -21 69.5 -61.5zM239.5 884q-16.5 17 -16.5 41q0 25 16.5 42t41.5 17q24 0 41 -17t17 -42q0 -24 -17 -41t-41 -17
q-25 0 -41.5 17zM425.5 884q-16.5 17 -16.5 41q0 25 16.5 42t41.5 17q24 0 40.5 -17t16.5 -42q0 -24 -16.5 -41t-40.5 -17q-25 0 -41.5 17z" />
    <glyph glyph-name="uni04DF" unicode="&#x4df;" horiz-adv-x="432" 
d="M366.5 231q20.5 -28 20.5 -66q0 -79 -54 -127t-155 -48q-82 0 -129 36t-47 94q0 7 2 21l81 2q-1 -5 -1 -14q0 -32 24 -50.5t71 -18.5q55 0 89 28.5t34 74.5q0 30 -23.5 49t-70.5 19h-66l10 73h53q50 0 81.5 27.5t31.5 70.5q0 53 -79 53q-51 0 -80 -21.5t-35 -57.5l-78 7
q10 64 59.5 103t138.5 39q80 0 119.5 -32.5t39.5 -84.5q0 -41 -23.5 -78t-67.5 -56q34 -15 54.5 -43zM134.5 639q-16.5 17 -16.5 41q0 25 16.5 42t41.5 17q24 0 41 -17t17 -42q0 -24 -17 -41t-41 -17q-25 0 -41.5 17zM320.5 639q-16.5 17 -16.5 41q0 25 16.5 42t41.5 17
q24 0 40.5 -17t16.5 -42q0 -24 -16.5 -41t-40.5 -17q-25 0 -41.5 17z" />
    <glyph glyph-name="uni04E0" unicode="&#x4e0;" horiz-adv-x="575" 
d="M482.5 406.5q60.5 -49.5 60.5 -140.5q0 -82 -36 -144.5t-101.5 -97t-151.5 -34.5q-73 0 -125.5 24.5t-80 66.5t-27.5 95q0 21 2 32l85 4q-2 -16 -2 -25q0 -56 38 -88.5t112 -32.5q59 0 104 24.5t70 68.5t25 100q0 58 -37.5 91t-113.5 33h-88l9 76h1l210 225h-316l10 76
h482l-285 -301q95 -3 155.5 -52.5z" />
    <glyph glyph-name="uni04E1" unicode="&#x4e1;" horiz-adv-x="521" 
d="M404.5 175q58.5 -46 58.5 -130q0 -75 -33 -132t-94.5 -87.5t-143.5 -30.5q-65 0 -113.5 20.5t-74.5 56t-26 79.5q0 9 2 25h79q-1 -6 -1 -16q0 -45 35 -70t99 -25q85 0 135.5 48.5t50.5 128.5q0 55 -39.5 83.5t-116.5 28.5q-40 0 -87 -4l5 69h2l213 224h-270l10 72h434
l-278 -290q95 -4 153.5 -50z" />
    <glyph glyph-name="uni04E2" unicode="&#x4e2;" horiz-adv-x="671" 
d="M671 760l-106 -760h-86l85 612l-443 -612h-86l106 760h86l-85 -613l443 613h86zM303 967h275l-9 -67h-275z" />
    <glyph glyph-name="uni04E3" unicode="&#x4e3;" horiz-adv-x="528" 
d="M499 515l-72 -515h-85l54 386l-281 -386l-1 1v-1h-85l72 515h85l-54 -386l281 386l1 -1v1h85zM190 722h275l-9 -67h-275z" />
    <glyph glyph-name="uni04E4" unicode="&#x4e4;" horiz-adv-x="671" 
d="M671 760l-106 -760h-86l85 612l-443 -612h-86l106 760h86l-85 -613l443 613h86zM300.5 884q-16.5 17 -16.5 41q0 25 16.5 42t41.5 17q24 0 41 -17t17 -42q0 -24 -17 -41t-41 -17q-25 0 -41.5 17zM486.5 884q-16.5 17 -16.5 41q0 25 16.5 42t41.5 17q24 0 40.5 -17
t16.5 -42q0 -24 -16.5 -41t-40.5 -17q-25 0 -41.5 17z" />
    <glyph glyph-name="uni04E5" unicode="&#x4e5;" horiz-adv-x="528" 
d="M499 515l-72 -515h-85l54 386l-281 -386l-1 1v-1h-85l72 515h85l-54 -386l281 386l1 -1v1h85zM187.5 639q-16.5 17 -16.5 41q0 25 16.5 42t41.5 17q24 0 41 -17t17 -42q0 -24 -17 -41t-41 -17q-25 0 -41.5 17zM373.5 639q-16.5 17 -16.5 41q0 25 16.5 42t41.5 17
q24 0 40.5 -17t16.5 -42q0 -24 -16.5 -41t-40.5 -17q-25 0 -41.5 17z" />
    <glyph glyph-name="uni04E6" unicode="&#x4e6;" horiz-adv-x="841" 
d="M214 32q-74 42 -114.5 118.5t-40.5 176.5q0 122 58.5 223.5t157.5 160.5t215 59q97 0 171 -42t114.5 -118.5t40.5 -176.5q0 -122 -58.5 -223.5t-157.5 -160.5t-215 -59q-97 0 -171 42zM560 117.5q78 50.5 123 135t45 181.5q0 77 -29.5 136t-84.5 91t-128 32
q-93 0 -171 -50.5t-123 -135t-45 -181.5q0 -77 29.5 -136t84.5 -91t128 -32q93 0 171 50.5zM366.5 884q-16.5 17 -16.5 41q0 25 16.5 42t41.5 17q24 0 41 -17t17 -42q0 -24 -17 -41t-41 -17q-25 0 -41.5 17zM552.5 884q-16.5 17 -16.5 41q0 25 16.5 42t41.5 17
q24 0 40.5 -17t16.5 -42q0 -24 -16.5 -41t-40.5 -17q-25 0 -41.5 17z" />
    <glyph glyph-name="uni04E7" unicode="&#x4e7;" horiz-adv-x="602" 
d="M148.5 19q-50.5 29 -79 81t-28.5 118q0 89 38.5 159t106 109t152.5 39q65 0 116 -29t79 -81t28 -118q0 -89 -38 -159t-105.5 -109t-153.5 -39q-65 0 -115.5 29zM372.5 93q47.5 28 75.5 79.5t28 118.5q0 76 -39 117.5t-104 41.5q-56 0 -103.5 -28t-75.5 -79.5t-28 -118.5
q0 -76 39 -117.5t104 -41.5q56 0 103.5 28zM226.5 640q-16.5 17 -16.5 41q0 25 16.5 42t41.5 17q24 0 41 -17t17 -42q0 -24 -17 -41t-41 -17q-25 0 -41.5 17zM412.5 640q-16.5 17 -16.5 41q0 25 16.5 42t41.5 17q24 0 40.5 -17t16.5 -42q0 -24 -16.5 -41t-40.5 -17
q-25 0 -41.5 17z" />
    <glyph glyph-name="uni04E8" unicode="&#x4e8;" horiz-adv-x="841" 
d="M661 728q74 -42 114.5 -118.5t40.5 -176.5q0 -122 -58.5 -223.5t-157.5 -160.5t-215 -59q-97 0 -171 42t-114.5 118.5t-40.5 176.5q0 122 58.5 223.5t157.5 160.5t215 59q97 0 171 -42zM340.5 657.5q-67.5 -35.5 -115 -97.5t-66.5 -139h569v13q0 77 -29.5 136t-84.5 91
t-128 32q-78 0 -145.5 -35.5zM536.5 103.5q68.5 36.5 116 100t65.5 141.5h-571v-19q0 -77 29.5 -136t84.5 -91t128 -32q79 0 147.5 36.5z" />
    <glyph glyph-name="uni04E9" unicode="&#x4e9;" horiz-adv-x="602" 
d="M454 496q51 -29 79 -81t28 -118q0 -89 -38 -159t-105.5 -109t-153.5 -39q-65 0 -115.5 29t-79 81t-28.5 118q0 89 38.5 159t106 109t152.5 39q65 0 116 -29zM208.5 408q-54.5 -42 -73.5 -114h341q-1 75 -40 115.5t-103 40.5q-70 0 -124.5 -42zM393 107.5
q55 42.5 74 114.5h-341q1 -75 40 -116t103 -41q69 0 124 42.5z" />
    <glyph glyph-name="uni04EA" unicode="&#x4ea;" horiz-adv-x="841" 
d="M661 728q74 -42 114.5 -118.5t40.5 -176.5q0 -122 -58.5 -223.5t-157.5 -160.5t-215 -59q-97 0 -171 42t-114.5 118.5t-40.5 176.5q0 122 58.5 223.5t157.5 160.5t215 59q97 0 171 -42zM340.5 657.5q-67.5 -35.5 -115 -97.5t-66.5 -139h569v13q0 77 -29.5 136t-84.5 91
t-128 32q-78 0 -145.5 -35.5zM536.5 103.5q68.5 36.5 116 100t65.5 141.5h-571v-19q0 -77 29.5 -136t84.5 -91t128 -32q79 0 147.5 36.5zM380.5 884q-16.5 17 -16.5 41q0 25 16.5 42t41.5 17q24 0 41 -17t17 -42q0 -24 -17 -41t-41 -17q-25 0 -41.5 17zM566.5 884
q-16.5 17 -16.5 41q0 25 16.5 42t41.5 17q24 0 40.5 -17t16.5 -42q0 -24 -16.5 -41t-40.5 -17q-25 0 -41.5 17z" />
    <glyph glyph-name="uni04EB" unicode="&#x4eb;" horiz-adv-x="602" 
d="M454 496q51 -29 79 -81t28 -118q0 -89 -38 -159t-105.5 -109t-153.5 -39q-65 0 -115.5 29t-79 81t-28.5 118q0 89 38.5 159t106 109t152.5 39q65 0 116 -29zM208.5 408q-54.5 -42 -73.5 -114h341q-1 75 -40 115.5t-103 40.5q-70 0 -124.5 -42zM393 107.5
q55 42.5 74 114.5h-341q1 -75 40 -116t103 -41q69 0 124 42.5zM225.5 639q-16.5 17 -16.5 41q0 25 16.5 42t41.5 17q24 0 41 -17t17 -42q0 -24 -17 -41t-41 -17q-25 0 -41.5 17zM411.5 639q-16.5 17 -16.5 41q0 25 16.5 42t41.5 17q24 0 40.5 -17t16.5 -42q0 -24 -16.5 -41
t-40.5 -17q-25 0 -41.5 17z" />
    <glyph glyph-name="uni04EC" unicode="&#x4ec;" horiz-adv-x="819" 
d="M638.5 725.5q74.5 -44.5 115.5 -121t41 -167.5q0 -120 -58 -222.5t-156.5 -163.5t-214.5 -61q-83 0 -151 33.5t-112.5 93.5t-57.5 137l87 7q18 -89 81.5 -141.5t155.5 -52.5q78 0 146 37t115 100.5t66 140.5h-397l11 76h397v16q0 74 -30.5 132.5t-85.5 91t-126 32.5
q-95 0 -174.5 -53.5t-123.5 -142.5l-86 14q53 119 157.5 189t229.5 70q96 0 170.5 -44.5zM356.5 884q-16.5 17 -16.5 41q0 25 16.5 42t41.5 17q24 0 41 -17t17 -42q0 -24 -17 -41t-41 -17q-25 0 -41.5 17zM542.5 884q-16.5 17 -16.5 41q0 25 16.5 42t41.5 17q24 0 40.5 -17
t16.5 -42q0 -24 -16.5 -41t-40.5 -17q-25 0 -41.5 17z" />
    <glyph glyph-name="uni04ED" unicode="&#x4ed;" horiz-adv-x="590" 
d="M441 496q51 -29 79.5 -80.5t28.5 -117.5q0 -86 -39 -156.5t-106 -111t-148 -40.5q-90 0 -151 53.5t-72 139.5l84 5q9 -58 47.5 -90.5t94.5 -32.5q70 0 122 45t72 114h-245l10 72h246v2q0 71 -39.5 111.5t-103.5 40.5q-58 0 -106.5 -32.5t-74.5 -89.5l-85 12
q36 88 107 136.5t161 48.5q67 0 118 -29zM212.5 639q-16.5 17 -16.5 41q0 25 16.5 42t41.5 17q24 0 41 -17t17 -42q0 -24 -17 -41t-41 -17q-25 0 -41.5 17zM398.5 639q-16.5 17 -16.5 41q0 25 16.5 42t41.5 17q24 0 40.5 -17t16.5 -42q0 -24 -16.5 -41t-40.5 -17
q-25 0 -41.5 17z" />
    <glyph glyph-name="uni04EE" unicode="&#x4ee;" horiz-adv-x="567" 
d="M638 760l-467 -760h-94l183 297l-174 463h88l137 -379l233 379h94zM248 967h275l-9 -67h-275z" />
    <glyph glyph-name="uni04EF" unicode="&#x4ef;" horiz-adv-x="561" 
d="M531 515l-65 -468q-17 -121 -83 -186.5t-174 -65.5q-76 0 -124 32.5t-60 85.5l82 16q7 -31 34 -47.5t72 -16.5q143 0 168 181l6 41q-33 -48 -80 -72.5t-101 -24.5q-51 0 -86.5 21.5t-53.5 57.5t-18 78q0 21 3 42l45 326h85l-44 -317q-3 -22 -3 -41q0 -51 27.5 -73
t80.5 -22q50 0 85.5 28t55 69t25.5 82l38 274h85zM209 722h275l-9 -67h-275z" />
    <glyph glyph-name="uni04F0" unicode="&#x4f0;" horiz-adv-x="567" 
d="M638 760l-467 -760h-94l183 297l-174 463h88l137 -379l233 379h94zM245.5 884q-16.5 17 -16.5 41q0 25 16.5 42t41.5 17q24 0 41 -17t17 -42q0 -24 -17 -41t-41 -17q-25 0 -41.5 17zM431.5 884q-16.5 17 -16.5 41q0 25 16.5 42t41.5 17q24 0 40.5 -17t16.5 -42
q0 -24 -16.5 -41t-40.5 -17q-25 0 -41.5 17z" />
    <glyph glyph-name="uni04F1" unicode="&#x4f1;" horiz-adv-x="561" 
d="M531 515l-65 -468q-17 -121 -83 -186.5t-174 -65.5q-76 0 -124 32.5t-60 85.5l82 16q7 -31 34 -47.5t72 -16.5q143 0 168 181l6 41q-33 -48 -80 -72.5t-101 -24.5q-51 0 -86.5 21.5t-53.5 57.5t-18 78q0 21 3 42l45 326h85l-44 -317q-3 -22 -3 -41q0 -51 27.5 -73
t80.5 -22q50 0 85.5 28t55 69t25.5 82l38 274h85zM206.5 639q-16.5 17 -16.5 41q0 25 16.5 42t41.5 17q24 0 41 -17t17 -42q0 -24 -17 -41t-41 -17q-25 0 -41.5 17zM392.5 639q-16.5 17 -16.5 41q0 25 16.5 42t41.5 17q24 0 40.5 -17t16.5 -42q0 -24 -16.5 -41t-40.5 -17
q-25 0 -41.5 17z" />
    <glyph glyph-name="uni04F2" unicode="&#x4f2;" horiz-adv-x="567" 
d="M638 760l-467 -760h-94l183 297l-174 463h88l137 -379l233 379h94zM283 835h-67l94 170h112zM481 835h-67l94 170h112z" />
    <glyph glyph-name="uni04F3" unicode="&#x4f3;" horiz-adv-x="561" 
d="M531 515l-65 -468q-17 -121 -83 -186.5t-174 -65.5q-76 0 -124 32.5t-60 85.5l82 16q7 -31 34 -47.5t72 -16.5q143 0 168 181l6 41q-33 -48 -80 -72.5t-101 -24.5q-51 0 -86.5 21.5t-53.5 57.5t-18 78q0 21 3 42l45 326h85l-44 -317q-3 -22 -3 -41q0 -51 27.5 -73
t80.5 -22q50 0 85.5 28t55 69t25.5 82l38 274h85zM244 590h-67l94 170h112zM442 590h-67l94 170h112z" />
    <glyph glyph-name="uni04F4" unicode="&#x4f4;" horiz-adv-x="616" 
d="M616 760l-106 -760h-86l41 294h-135q-72 0 -126.5 26.5t-84.5 76t-30 115.5q0 20 3 41l29 207h86l-29 -208q-3 -21 -3 -39q0 -143 174 -143h127l54 390h86zM250.5 884q-16.5 17 -16.5 41q0 25 16.5 42t41.5 17q24 0 41 -17t17 -42q0 -24 -17 -41t-41 -17q-25 0 -41.5 17z
M436.5 884q-16.5 17 -16.5 41q0 25 16.5 42t41.5 17q24 0 40.5 -17t16.5 -42q0 -24 -16.5 -41t-40.5 -17q-25 0 -41.5 17z" />
    <glyph glyph-name="uni04F5" unicode="&#x4f5;" horiz-adv-x="485" 
d="M456 515l-72 -515h-85l27 190h-82q-85 0 -132.5 42t-47.5 111q0 11 2 31l20 141h85l-20 -140q-2 -16 -2 -25q0 -87 107 -87h80l35 252h85zM162.5 639q-16.5 17 -16.5 41q0 25 16.5 42t41.5 17q24 0 41 -17t17 -42q0 -24 -17 -41t-41 -17q-25 0 -41.5 17zM348.5 639
q-16.5 17 -16.5 41q0 25 16.5 42t41.5 17q24 0 40.5 -17t16.5 -42q0 -24 -16.5 -41t-40.5 -17q-25 0 -41.5 17z" />
    <glyph glyph-name="uni04F6" unicode="&#x4f6;" horiz-adv-x="486" 
d="M526 684h-310l-95 -684h-86l106 760h395zM177 -140h-76l12 140h-26l10 76h110z" />
    <glyph glyph-name="uni04F7" unicode="&#x4f7;" horiz-adv-x="381" 
d="M387 442h-211l-62 -442h-85l72 515h296zM167 -130h-76l12 130h-27l10 73h110z" />
    <glyph glyph-name="uni04F8" unicode="&#x4f8;" horiz-adv-x="840" 
d="M525 446.5q62 -58.5 62 -155.5q0 -89 -37 -154.5t-106 -101t-163 -35.5h-246l106 760h86l-36 -255h157q115 0 177 -58.5zM840 760l-106 -760h-86l106 760h86zM440 134q59 58 59 157q0 64 -41 101t-126 37h-151l-49 -353h147q102 0 161 58zM352.5 884q-16.5 17 -16.5 41
q0 25 16.5 42t41.5 17q24 0 41 -17t17 -42q0 -24 -17 -41t-41 -17q-25 0 -41.5 17zM538.5 884q-16.5 17 -16.5 41q0 25 16.5 42t41.5 17q24 0 40.5 -17t16.5 -42q0 -24 -16.5 -41t-40.5 -17q-25 0 -41.5 17z" />
    </font>
</defs>
</svg>
