<?xml version="1.0" standalone="no"?>
<!DOCTYPE svg PUBLIC "-//W3C//DTD SVG 1.1//EN" "http://www.w3.org/Graphics/SVG/1.1/DTD/svg11.dtd" >
<svg xmlns="http://www.w3.org/2000/svg" xmlns:xlink="http://www.w3.org/1999/xlink" version="1.1">
<metadata>
Created by FontForge 20170731 at Wed Nov 22 21:10:27 2017
 By Aleksey,,,
Copyright (c) 2017 by Andreu Balius. All rights reserved.
</metadata>
<defs>
<font id="SeatBcn-Web-BoldCondensedItalic" horiz-adv-x="566" >
  <font-face 
    font-family="Seat Bcn - Web Bold Condensed"
    font-weight="700"
    font-style="italic"
    font-stretch="condensed"
    units-per-em="1000"
    panose-1="0 0 8 6 0 0 0 0 0 0"
    ascent="760"
    descent="-240"
    x-height="518"
    cap-height="760"
    bbox="-432 -220 1292 1306"
    underline-thickness="50"
    underline-position="-150"
    slope="-8"
    unicode-range="U+000D-FB02"
  />
<missing-glyph horiz-adv-x="700" 
d="M163 705h400v-705h-400v705zM501 62v581h-276v-581h276z" />
    <glyph glyph-name="fi" unicode="fi" horiz-adv-x="592" 
d="M498 0h-171l54 385h-126l-55 -385h-170l53 385h-62l28 133h53l4 30q17 122 73 173.5t155 51.5q101 0 183 -46l-49 -106q-18 11 -44.5 18.5t-53.5 7.5q-78 0 -93 -104l-4 -25h298z" />
    <glyph glyph-name="fl" unicode="fl" horiz-adv-x="634" 
d="M538.5 135q13.5 -13 43.5 -13h13l-9 -131q-21 -4 -58 -4q-89 0 -132 37.5t-43 116.5q0 35 5 64l61 436q-24 6 -48 6q-78 0 -93 -104l-4 -25h73l-19 -133h-72l-55 -385h-170l53 385h-63l28 133h54l4 30q17 122 73 173.5t155 51.5q69 0 148.5 -15.5t116.5 -34.5l-73 -519
q-2 -20 -2 -28q0 -28 13.5 -41z" />
    <glyph glyph-name="f_f" unicode="ff" horiz-adv-x="644" 
d="M600.5 627q-18.5 -20 -24.5 -68l-6 -41h105l-19 -133h-105l-54 -385h-170l54 385h-126l-54 -385h-171l54 385h-63l28 133h54l8 55q14 105 63.5 152.5t139.5 47.5q45 0 95 -14l-25 -112q-13 6 -31 6q-32 0 -49 -19.5t-24 -67.5l-7 -48h126l8 55q15 105 64.5 152.5
t139.5 47.5q33 0 71.5 -7t53.5 -14l-24 -116q-25 11 -62 11q-31 0 -49.5 -20z" />
    <glyph glyph-name="f_f_i" unicode="ffi" horiz-adv-x="886" 
d="M792 0h-171l54 385h-123l-55 -385h-170l54 385h-126l-54 -385h-171l54 385h-63l28 133h54l8 55q14 105 63.5 152.5t139.5 47.5q45 0 95 -14l-25 -112q-13 6 -31 6q-32 0 -49 -19.5t-24 -67.5l-7 -48h127l4 30q17 121 73 173t155 52q98 0 182 -46l-49 -106
q-18 11 -44.5 18.5t-53.5 7.5q-78 0 -93 -104l-4 -25h295z" />
    <glyph glyph-name="f_f_l" unicode="ffl" horiz-adv-x="927" 
d="M831 134.5q13 -12.5 44 -12.5h13l-10 -131q-20 -4 -58 -4q-89 0 -132 37.5t-43 116.5q0 26 5 64l62 437q-25 5 -45 5q-78 0 -93 -104l-4 -25h71l-19 -133h-70l-55 -385h-170l54 385h-126l-54 -385h-171l54 385h-63l28 133h54l8 55q14 105 63.5 152.5t139.5 47.5
q45 0 95 -14l-25 -112q-13 6 -31 6q-32 0 -49 -19.5t-24 -67.5l-7 -48h127l4 30q17 121 73 173t155 52q69 0 146.5 -15.5t114.5 -34.5l-73 -518q-2 -11 -2 -29q0 -29 13 -41.5z" />
    <glyph glyph-name="uni04570457.liga" unicode="&#x457;&#x457;" horiz-adv-x="612" 
d="M36.5 635q-21.5 22 -21.5 52q0 31 21.5 52.5t51.5 21.5t52 -21.5t22 -52.5q0 -30 -22 -52t-52 -22t-51.5 22zM218.5 635q-21.5 22 -21.5 52q0 31 21.5 52.5t52.5 21.5q29 0 50.5 -21.5t21.5 -52.5q0 -30 -21.5 -52t-50.5 -22q-31 0 -52.5 22zM401.5 635
q-21.5 22 -21.5 52q0 31 21 52.5t52 21.5q30 0 51.5 -21.5t21.5 -52.5q0 -30 -22 -52t-51 -22q-30 0 -51.5 22zM582.5 635q-21.5 22 -21.5 52q0 31 21.5 52.5t52.5 21.5q30 0 51 -21.5t21 -52.5q0 -30 -21 -52t-51 -22q-31 0 -52.5 22zM74 518h172l-73 -518h-172zM438 518
h172l-73 -518h-172z" />
    <glyph glyph-name=".notdef" horiz-adv-x="700" 
d="M163 705h400v-705h-400v705zM501 62v581h-276v-581h276z" />
    <glyph glyph-name=".null" horiz-adv-x="510" 
 />
    <glyph glyph-name="nonmarkingreturn" unicode="&#xd;" horiz-adv-x="510" 
 />
    <glyph glyph-name="space" unicode=" " horiz-adv-x="177" 
 />
    <glyph glyph-name="exclam" unicode="!" horiz-adv-x="308" 
d="M145 760h159l-88 -516h-130zM63 14.5q-27 27.5 -27 65.5q0 39 27 66.5t66 27.5t66.5 -28t27.5 -66t-27.5 -65.5t-66.5 -27.5t-66 27.5z" />
    <glyph glyph-name="quotedbl" unicode="&#x22;" horiz-adv-x="455" 
d="M113 640l17 120h130l-17 -120l-40 -156h-93zM318 640l17 120h130l-17 -120l-40 -156h-93z" />
    <glyph glyph-name="numbersign" unicode="#" horiz-adv-x="797" 
d="M657 467l-59 -166h60l-16 -122h-88l-64 -179h-163l64 179h-96l-64 -179h-163l64 179h-63l17 122h90l60 166h-63l17 121h89l62 172h162l-62 -172h96l62 172h163l-62 -172h63l-17 -121h-89zM494 467h-96l-59 -166h96z" />
    <glyph glyph-name="dollar" unicode="$" horiz-adv-x="707" 
d="M578.5 369.5q43.5 -47.5 43.5 -116.5q0 -106 -64 -175t-171 -86l-16 -119h-149l17 124q-75 18 -115 71.5t-47 134.5q-2 14 -2 21l186 12v-20q0 -48 22 -71.5t58 -23.5q42 0 68.5 29.5t26.5 73.5q0 27 -15 44t-42 29l-66 27q-78 33 -127 84t-49 125q0 92 57.5 154.5
t153.5 79.5l16 114h149l-17 -116q82 -19 120.5 -77.5t40.5 -142.5l-185 -12q2 20 2 25q0 40 -18.5 61t-52.5 21q-36 0 -58 -23.5t-22 -60.5q0 -26 15.5 -45t49.5 -33l70 -29q77 -32 120.5 -79.5z" />
    <glyph glyph-name="percent" unicode="%" horiz-adv-x="1016" 
d="M159 395.5q-39 46.5 -39 120.5q0 66 25 124t70.5 93t104.5 35q64 0 103 -46t39 -120q0 -66 -25 -124.5t-70.5 -93.5t-104.5 -35q-64 0 -103 46.5zM730 760h177l-576 -760h-177zM321.5 504q15.5 50 15.5 104q0 29 -7.5 41.5t-24.5 12.5q-30 0 -45.5 -50t-15.5 -105
q0 -53 32 -53q30 0 45.5 50zM627 38q-39 46 -39 120q0 67 25 125t70 93t104 35q64 0 103.5 -46t39.5 -120q0 -66 -25 -124.5t-70.5 -93.5t-104.5 -35q-64 0 -103 46zM789.5 148q15.5 50 15.5 104t-32 54q-30 0 -46 -51t-16 -105q0 -52 33 -52q30 0 45.5 50z" />
    <glyph glyph-name="ampersand" unicode="&#x26;" horiz-adv-x="722" 
d="M568 132l84 -132h-157l-26 41q-86 -54 -192 -54q-64 0 -112 24t-74.5 68t-26.5 101q0 72 44 133t120 98q-28 45 -43 83t-15 76q0 59 30 105.5t83 72t120 25.5q58 0 100.5 -22.5t65 -61t22.5 -85.5q0 -65 -49 -123t-135 -95l85 -135q23 47 36 106h133q-22 -130 -93 -225z
M342.5 622.5q-17.5 -24.5 -17.5 -59.5q0 -48 29 -94q39 24 61 57.5t22 70.5q0 23 -12.5 36.5t-34.5 13.5q-30 0 -47.5 -24.5zM403 141l-114 176q-25 -24 -41 -57.5t-16 -62.5q0 -39 23 -62t63 -23q42 0 85 29z" />
    <glyph glyph-name="quotesingle" unicode="'" horiz-adv-x="250" 
d="M113 640l17 120h130l-17 -120l-40 -156h-93z" />
    <glyph glyph-name="parenleft" unicode="(" horiz-adv-x="401" 
d="M126 -56q-51 45 -51 120q0 16 4 48l79 558q11 81 37 126.5t76.5 66t137.5 20.5l-17 -118q-42 0 -62 -27.5t-27 -76.5l-76 -541q-3 -19 -3 -38q0 -31 14 -48t49 -17l-17 -118q-93 0 -144 45z" />
    <glyph glyph-name="parenright" unicode=")" horiz-adv-x="401" 
d="M312 838q51 -45 51 -120q0 -16 -4 -48l-79 -558q-11 -81 -37 -126.5t-76.5 -66t-137.5 -20.5l17 118q42 0 62 27.5t27 76.5l76 541q3 19 3 38q0 31 -14 48t-49 17l17 118q93 0 144 -45z" />
    <glyph glyph-name="asterisk" unicode="*" horiz-adv-x="585" 
d="M411 496l71 -109l-122 -74l-45 113l-78 -113l-102 74l103 109l-121 32l64 131l104 -55l7 146h138l-32 -143l117 52l28 -131z" />
    <glyph glyph-name="plus" unicode="+" horiz-adv-x="542" 
d="M455 209h-130l-22 -155h-120l22 155h-132l16 116h132l21 154h120l-21 -154h131z" />
    <glyph glyph-name="comma" unicode="," horiz-adv-x="292" 
d="M187.5 149q27.5 -27 27.5 -78q0 -59 -40.5 -121.5t-117.5 -99.5l-31 44q29 22 48.5 44t29.5 53q-32 5 -55 31.5t-23 59.5q0 38 27.5 66t67.5 28q39 0 66.5 -27z" />
    <glyph glyph-name="hyphen" unicode="-" horiz-adv-x="415" 
d="M71 333h294l-18 -133h-295z" />
    <glyph glyph-name="period" unicode="." horiz-adv-x="288" 
d="M53 14.5q-27 27.5 -27 65.5q0 39 27 66.5t66 27.5t66.5 -28t27.5 -66t-27.5 -65.5t-66.5 -27.5t-66 27.5z" />
    <glyph glyph-name="slash" unicode="/" horiz-adv-x="504" 
d="M335 760h189l-323 -760h-188z" />
    <glyph glyph-name="zero" unicode="0" horiz-adv-x="693" 
d="M177 24q-55 37 -84.5 104t-29.5 154q0 133 41.5 245t122 179t192.5 67q76 0 131.5 -37t84.5 -104t29 -154q0 -132 -41.5 -244t-122.5 -179.5t-192 -67.5q-76 0 -131 37zM413 198.5q34 51.5 51 127t17 145.5q0 71 -22 106.5t-63 35.5q-48 0 -82 -52t-51 -128t-17 -144
q0 -71 22.5 -106.5t62.5 -35.5q48 0 82 51.5z" />
    <glyph glyph-name="one" unicode="1" horiz-adv-x="444" 
d="M401 760l-107 -760h-178l75 534q-46 -10 -113 -10l19 140q66 0 110.5 23t68.5 73h125z" />
    <glyph glyph-name="two" unicode="2" horiz-adv-x="592" 
d="M246 221q-25 -31 -36 -75h307l-21 -146h-499l9 66q18 121 64.5 199.5t150.5 136.5l86 50q97 55 97 124q0 27 -14.5 42.5t-40.5 15.5q-29 0 -50.5 -21t-32.5 -54l-175 12q30 96 105 149t184 53q63 0 109.5 -24.5t71.5 -66t25 -91.5q0 -90 -49.5 -151t-152.5 -120l-65 -40
q-48 -28 -73 -59z" />
    <glyph glyph-name="three" unicode="3" horiz-adv-x="590" 
d="M513.5 339.5q25.5 -39.5 25.5 -91.5q0 -76 -37 -135.5t-100.5 -92.5t-142.5 -33q-63 0 -112.5 27t-79 76t-32.5 112l172 13q2 -42 18 -60t45 -18q40 0 65.5 35.5t25.5 79.5q0 39 -24 61t-74 22h-60l17 123h50q56 0 88 32.5t32 81.5q0 29 -13.5 45.5t-39.5 16.5
q-28 0 -49 -20t-32 -55l-169 12q32 97 101.5 149.5t172.5 52.5q61 0 107.5 -23t71.5 -64.5t25 -94.5q0 -58 -32 -107.5t-88 -82.5q43 -22 68.5 -61.5z" />
    <glyph glyph-name="four" unicode="4" horiz-adv-x="622" 
d="M598 155h-85l-22 -155h-167l22 155h-317l19 135l168 470h175l-172 -470h146l33 228h166l-32 -228h84z" />
    <glyph glyph-name="five" unicode="5" horiz-adv-x="602" 
d="M473 486.5q43 -26.5 66.5 -72t23.5 -101.5q0 -96 -38 -170t-107 -115t-159 -41q-95 0 -155.5 57.5t-69.5 157.5l174 13q5 -88 72 -88q33 0 57.5 26t36.5 65t12 79q0 87 -70 87q-27 0 -52 -15t-42 -39l-144 31l55 399h438l-19 -138h-268l-18 -130q48 21 108 21
q56 0 99 -26.5z" />
    <glyph glyph-name="six" unicode="6" horiz-adv-x="640" 
d="M513.5 485q41.5 -28 63.5 -74t22 -97q0 -94 -38 -168.5t-106.5 -116.5t-155.5 -42q-75 0 -129 34.5t-82.5 96.5t-28.5 143q0 122 39 240t118.5 195t192.5 77q93 0 146.5 -50.5t66.5 -136.5l-174 -11q-6 33 -20.5 48.5t-40.5 15.5q-85 0 -122 -186q63 60 150 60
q57 0 98.5 -28zM369.5 152.5q24.5 25.5 38.5 64.5t14 79q0 41 -18.5 64.5t-51.5 23.5q-32 0 -56.5 -24.5t-37.5 -62.5t-13 -78q0 -43 19 -67.5t51 -24.5q30 0 54.5 25.5z" />
    <glyph glyph-name="seven" unicode="7" horiz-adv-x="509" 
d="M588 760l-412 -760h-193l334 620h-254l19 140h506z" />
    <glyph glyph-name="eight" unicode="8" horiz-adv-x="622" 
d="M546.5 331q27.5 -41 27.5 -100q0 -73 -39 -128.5t-107.5 -85.5t-155.5 -30q-70 0 -124.5 24t-84.5 67.5t-30 99.5q0 74 43.5 132.5t118.5 91.5q-37 30 -61 70.5t-24 87.5q0 64 36 112t99.5 74.5t142.5 26.5q76 0 126.5 -23.5t74.5 -61.5t24 -83q0 -61 -38 -113.5
t-105 -88.5q49 -31 76.5 -72zM310.5 621.5q-23.5 -23.5 -23.5 -59.5q0 -30 16.5 -54.5t49.5 -40.5l17 -9q70 55 70 125q0 30 -18 46t-51 16q-37 0 -60.5 -23.5zM366.5 150.5q30.5 30.5 30.5 71.5q0 30 -20 57.5t-59 48.5l-31 17q-39 -30 -60 -67.5t-21 -75.5q0 -37 23 -59.5
t61 -22.5q46 0 76.5 30.5z" />
    <glyph glyph-name="nine" unicode="9" horiz-adv-x="642" 
d="M505 738.5q54 -34.5 82.5 -96.5t28.5 -143q0 -122 -39 -240t-118.5 -195t-192.5 -77q-93 0 -147 50.5t-67 136.5l172 11q7 -33 22 -48.5t41 -15.5q45 0 76 50t48 137q-62 -61 -151 -61q-57 0 -98.5 28t-63.5 74t-22 97q0 94 38 168.5t106.5 116.5t155.5 42
q75 0 129 -34.5zM379.5 400.5q24.5 24.5 37.5 62.5t13 78q0 43 -19 67.5t-52 24.5q-30 0 -54 -25.5t-38 -64.5t-14 -79q0 -42 18 -65t52 -23q32 0 56.5 24.5z" />
    <glyph glyph-name="colon" unicode=":" horiz-adv-x="290" 
d="M54 14.5q-27 27.5 -27 65.5q0 39 27 66.5t66 27.5t66.5 -28t27.5 -66t-27.5 -65.5t-66.5 -27.5t-66 27.5zM100 349.5q-27 27.5 -27 65.5q0 39 27 66.5t66 27.5t66.5 -28t27.5 -66t-27.5 -65.5t-66.5 -27.5t-66 27.5z" />
    <glyph glyph-name="semicolon" unicode=";" horiz-adv-x="293" 
d="M102 364.5q-27 27.5 -27 65.5q0 39 27 66.5t66 27.5t66.5 -28t27.5 -66t-27.5 -65.5t-66.5 -27.5t-66 27.5zM187.5 149q27.5 -27 27.5 -78q0 -59 -40.5 -121.5t-117.5 -99.5l-31 44q29 22 48.5 44t29.5 53q-32 5 -55 31.5t-23 59.5q0 38 27.5 66t67.5 28q39 0 66.5 -27z
" />
    <glyph glyph-name="less" unicode="&#x3c;" horiz-adv-x="525" 
d="M463 397l-258 -131l221 -135l-20 -140l-334 213l19 131l393 207z" />
    <glyph glyph-name="equal" unicode="=" horiz-adv-x="542" 
d="M106 439h382l-17 -116h-381zM74 210h381l-15 -116h-383z" />
    <glyph glyph-name="greater" unicode="&#x3e;" horiz-adv-x="525" 
d="M64 136l258 131l-221 135l20 140l334 -213l-19 -131l-393 -207z" />
    <glyph glyph-name="question" unicode="?" horiz-adv-x="573" 
d="M183 266q7 51 19 84.5t37 61t69 56.5l20 14q58 38 58 93q0 53 -52 53q-28 0 -50 -18.5t-40 -57.5l-135 54q77 167 255 167q89 0 141.5 -48t52.5 -128q0 -66 -34 -120.5t-97 -91.5l-25 -15q-55 -33 -64 -105l-3 -27h-156zM186.5 14.5q-27.5 27.5 -27.5 65.5t27.5 66
t65.5 28q39 0 66 -27.5t27 -66.5q0 -38 -27 -65.5t-66 -27.5q-38 0 -65.5 27.5z" />
    <glyph glyph-name="at" unicode="@" horiz-adv-x="1037" 
d="M802.5 725q81.5 -48 126 -128.5t44.5 -176.5q0 -102 -29.5 -181t-85.5 -123.5t-133 -44.5q-57 0 -93 27t-48 75q-30 -46 -71.5 -74t-94.5 -28q-36 0 -65.5 20t-47 57t-17.5 86q0 68 30.5 137t82 114t111.5 45q36 0 62 -16.5t39 -46.5l12 52h144l-53 -222q-7 -29 -7 -53
q0 -22 9 -34t30 -12q29 0 49 33.5t30 82t10 94.5q0 115 -65.5 180t-178.5 65q-103 0 -190.5 -62.5t-138.5 -164t-51 -214.5q0 -120 67 -190t183 -70q48 0 85 8t76 25l16 -117q-55 -22 -102 -30.5t-109 -8.5q-103 0 -183 48t-124.5 131.5t-44.5 186.5q0 155 70 288t193 211.5
t276 78.5q105 0 186.5 -48zM536.5 217q21.5 25 34 62t12.5 69q0 30 -11 46.5t-32 16.5q-25 0 -47 -24t-35 -60t-13 -68q0 -31 12 -49t33 -18q25 0 46.5 25z" />
    <glyph glyph-name="A" unicode="A" horiz-adv-x="618" 
d="M396 110h-204l-38 -110h-192l316 760h203l101 -760h-178zM387 239l-25 362l-125 -362h150z" />
    <glyph glyph-name="B" unicode="B" horiz-adv-x="579" 
d="M531.5 344.5q23.5 -37.5 23.5 -85.5q0 -75 -33 -134t-93.5 -92t-138.5 -33h-270l107 760h264q60 0 103 -22t65 -59.5t22 -83.5q0 -64 -29.5 -114.5t-83.5 -77.5q40 -21 63.5 -58.5zM386.5 485.5q24.5 31.5 24.5 79.5q0 66 -70 66h-59l-25 -177h59q46 0 70.5 31.5z
M358.5 171q26.5 37 26.5 88q0 35 -18 56.5t-52 21.5h-75l-28 -203h75q45 0 71.5 37z" />
    <glyph glyph-name="C" unicode="C" horiz-adv-x="726" 
d="M640.5 694.5q73.5 -78.5 84.5 -213.5l-187 -15q-10 145 -116 145q-59 0 -103 -43.5t-66.5 -111.5t-22.5 -138q0 -82 32.5 -125.5t91.5 -43.5q54 0 97 40t66 106l179 -15q-43 -137 -136.5 -215t-224.5 -78q-90 0 -155 40.5t-99 113.5t-34 169q0 123 49 229t139 170t207 64
q125 0 198.5 -78.5z" />
    <glyph glyph-name="D" unicode="D" horiz-adv-x="687" 
d="M529.5 720.5q68.5 -39.5 106.5 -110t38 -161.5q0 -120 -50.5 -222.5t-144 -164.5t-214.5 -62h-245l107 760h246q88 0 156.5 -39.5zM392 190q48 44 73 112.5t25 139.5q0 85 -34.5 128.5t-101.5 43.5h-69l-65 -468h60q64 0 112 44z" />
    <glyph glyph-name="E" unicode="E" horiz-adv-x="502" 
d="M285 614l-21 -150h214l-20 -140h-213l-25 -178h224l-21 -146h-403l107 760h402l-21 -146h-223z" />
    <glyph glyph-name="F" unicode="F" horiz-adv-x="478" 
d="M285 614l-21 -150h199l-20 -140h-198l-46 -324h-179l107 760h388l-21 -146h-209z" />
    <glyph glyph-name="G" unicode="G" horiz-adv-x="719" 
d="M380 423h313l-45 -326q-59 -48 -138.5 -79t-166.5 -31q-94 0 -161 41t-101 114t-34 168q0 123 49 229t137.5 170t202.5 64q124 0 191.5 -70t85.5 -173l-191 -15q-7 39 -34.5 67.5t-74.5 28.5q-55 0 -97 -44.5t-64 -112.5t-22 -137q0 -177 137 -177q69 0 129 42l15 114
h-149z" />
    <glyph glyph-name="H" unicode="H" horiz-adv-x="653" 
d="M666 760l-107 -760h-178l45 320h-182l-45 -320h-179l107 760h179l-41 -294h182l41 294h178z" />
    <glyph glyph-name="I" unicode="I" horiz-adv-x="292" 
d="M127 760h179l-107 -760h-179z" />
    <glyph glyph-name="J" unicode="J" horiz-adv-x="596" 
d="M135 18q-50 31 -79 90t-29 139l180 12q-1 -6 -1 -19q0 -45 18 -68t47 -23q37 0 62 31.5t34 93.5l69 486h178l-68 -479q-22 -153 -99.5 -223.5t-199.5 -70.5q-62 0 -112 31z" />
    <glyph glyph-name="K" unicode="K" horiz-adv-x="606" 
d="M413 444l164 -444h-173l-99 312l-78 -96l-30 -216h-177l107 760h177l-41 -292l212 292h195z" />
    <glyph glyph-name="L" unicode="L" horiz-adv-x="458" 
d="M425 146l-20 -146h-385l107 760h179l-86 -614h205z" />
    <glyph glyph-name="M" unicode="M" horiz-adv-x="794" 
d="M774 760l-51 -760h-165l44 503l-202 -503h-80l-62 501l-96 -501h-165l161 760h182l56 -480l190 480h188z" />
    <glyph glyph-name="N" unicode="N" horiz-adv-x="660" 
d="M673 760l-107 -760h-172l-131 499l-70 -499h-172l106 760h172l133 -490l69 490h172z" />
    <glyph glyph-name="O" unicode="O" horiz-adv-x="740" 
d="M179.5 28.5q-64.5 41.5 -98.5 115t-34 166.5q0 123 49 229t139 170t207 64q88 0 152.5 -41.5t98.5 -115t34 -167.5q0 -123 -49.5 -229t-139.5 -169.5t-206 -63.5q-88 0 -152.5 41.5zM455 192.5q43 43.5 65.5 111t22.5 138.5q0 81 -31.5 125t-89.5 44q-59 0 -102.5 -43.5
t-66 -111.5t-22.5 -138q0 -81 32 -125t91 -44q58 0 101 43.5z" />
    <glyph glyph-name="P" unicode="P" horiz-adv-x="600" 
d="M500 731q51 -29 78 -78.5t27 -108.5q0 -99 -35 -173t-101.5 -114t-158.5 -40h-83l-31 -217h-176l107 760h251q71 0 122 -29zM391.5 405q36.5 48 36.5 119q0 96 -92 96h-53l-37 -263h49q60 0 96.5 48z" />
    <glyph glyph-name="Q" unicode="Q" horiz-adv-x="751" 
d="M688.5 245q-38.5 -96 -107.5 -160l70 -141l-145 -99l-77 155q-45 -13 -97 -13q-88 0 -152.5 41.5t-98.5 115t-34 166.5q0 123 49 229t139 170t207 64q88 0 152.5 -41.5t98.5 -115t34 -167.5q0 -108 -38.5 -204zM263 193q32 -44 91 -44l-57 113l146 99l55 -110
q22 40 33.5 90.5t11.5 100.5q0 81 -31.5 125t-89.5 44q-59 0 -102.5 -43.5t-66 -111.5t-22.5 -138q0 -81 32 -125z" />
    <glyph glyph-name="R" unicode="R" horiz-adv-x="609" 
d="M569 368.5q-36 -74.5 -104 -113.5l86 -255h-172l-62 217h-7h-83l-31 -217h-176l107 760h251q71 0 122 -29t78 -78.5t27 -108.5q0 -101 -36 -175.5zM246 357h49q61 0 97 48t36 119q0 96 -92 96h-53z" />
    <glyph glyph-name="S" unicode="S" horiz-adv-x="616" 
d="M101 44q-61 57 -70 159q-2 14 -2 21l186 12v-20q0 -48 22 -71.5t58 -23.5q42 0 68.5 29.5t26.5 73.5q0 27 -15 44t-42 29l-66 27q-78 33 -127 84t-49 125q0 72 35.5 126.5t99 84t145.5 29.5q124 0 181 -63t59 -165l-185 -12q2 20 2 25q0 40 -18.5 61t-52.5 21
q-36 0 -58 -23.5t-22 -60.5q0 -26 15.5 -45t49.5 -33l70 -29q77 -32 120.5 -79.5t43.5 -116.5q0 -81 -38 -141t-106 -92.5t-154 -32.5q-116 0 -177 57z" />
    <glyph glyph-name="T" unicode="T" horiz-adv-x="543" 
d="M574 614h-164l-86 -614h-178l86 614h-163l20 146h506z" />
    <glyph glyph-name="U" unicode="U" horiz-adv-x="659" 
d="M114 50.5q-61 63.5 -61 180.5q0 31 5 74l64 455h179l-66 -464q-4 -27 -4 -53q0 -46 19.5 -70t62.5 -24q49 0 80 37t41 110l65 464h178l-64 -455q-22 -165 -101 -241.5t-221 -76.5q-116 0 -177 63.5z" />
    <glyph glyph-name="V" unicode="V" horiz-adv-x="605" 
d="M677 760l-316 -760h-191l-101 760h179l41 -557l195 557h193z" />
    <glyph glyph-name="W" unicode="W" horiz-adv-x="909" 
d="M971 760l-278 -760h-183l-21 509l-169 -509h-182l-59 760h183l3 -569l176 569h160l15 -570l161 570h194z" />
    <glyph glyph-name="X" unicode="X" horiz-adv-x="610" 
d="M415 385l156 -385h-184l-79 237l-146 -237h-200l274 396l-148 364h185l69 -227l134 227h202z" />
    <glyph glyph-name="Y" unicode="Y" horiz-adv-x="581" 
d="M661 760l-423 -760h-187l177 318l-161 442h183l72 -272l151 272h188z" />
    <glyph glyph-name="Z" unicode="Z" horiz-adv-x="571" 
d="M257 146h273l-21 -146h-532l370 614h-246l21 146h506z" />
    <glyph glyph-name="bracketleft" unicode="[" horiz-adv-x="454" 
d="M318 761l-105 -740h127l-17 -122h-274l139 984h269l-17 -122h-122z" />
    <glyph glyph-name="backslash" unicode="\" horiz-adv-x="718" 
d="M309 760h-189l323 -760h188z" />
    <glyph glyph-name="bracketright" unicode="]" horiz-adv-x="454" 
d="M173 21l105 740h-127l17 122h274l-139 -984h-269l17 122h122z" />
    <glyph glyph-name="asciicircum" unicode="^" horiz-adv-x="532" 
d="M335 394l-22 162l-72 -162h-142l149 247h150l72 -247h-135z" />
    <glyph glyph-name="underscore" unicode="_" horiz-adv-x="528" 
d="M-15 -60h468l-17 -120h-468z" />
    <glyph glyph-name="grave" unicode="`" horiz-adv-x="367" 
d="M279 760l84 -173h-105l-138 173h159z" />
    <glyph glyph-name="a" unicode="a" horiz-adv-x="599" 
d="M583 518l-72 -518h-160v81q-26 -43 -65 -68.5t-89 -25.5q-47 0 -85 25.5t-59.5 74t-21.5 112.5q0 81 30 158t83.5 125.5t121.5 48.5q52 0 85.5 -27.5t48.5 -71.5l12 86h171zM332.5 149.5q24.5 26.5 37.5 67t13 80.5q0 46 -18.5 72t-50.5 26t-56.5 -27t-37.5 -67.5
t-13 -80.5q0 -46 18 -71.5t51 -25.5q32 0 56.5 26.5z" />
    <glyph glyph-name="b" unicode="b" horiz-adv-x="599" 
d="M490 505.5q36 -25.5 56.5 -73t20.5 -110.5q0 -83 -30 -160.5t-84.5 -126t-123.5 -48.5q-48 0 -81.5 25t-48.5 70l-23 -82h-161l107 760h172l-45 -327q28 47 69 72.5t89 25.5q47 0 83 -25.5zM341 150q24 27 37 67.5t13 80.5q0 46 -18 71.5t-51 25.5q-32 0 -56 -26.5
t-37 -67.5t-13 -81q0 -44 18.5 -70.5t49.5 -26.5q33 0 57 27z" />
    <glyph glyph-name="c" unicode="c" horiz-adv-x="564" 
d="M89 50q-55 63 -55 160q0 91 35 164t102 115t158 42q94 0 149.5 -54.5t59.5 -147.5l-164 -13q-6 79 -65 79q-33 0 -57.5 -27t-37 -68.5t-12.5 -82.5q0 -45 18.5 -69.5t52.5 -24.5q28 0 51 22t35 61l162 -13q-25 -96 -94 -151t-174 -55q-109 0 -164 63z" />
    <glyph glyph-name="d" unicode="d" horiz-adv-x="600" 
d="M618 760l-107 -760h-160v81q-26 -43 -65 -68.5t-89 -25.5q-47 0 -85 25.5t-59.5 74t-21.5 112.5q0 80 29.5 157t83.5 126t121 49q52 0 86 -27.5t49 -71.5l46 328h172zM332.5 150.5q24.5 26.5 37.5 67t13 79.5q0 46 -18.5 72t-50.5 26t-56.5 -26.5t-37.5 -67.5t-13 -81
q0 -46 18 -71t51 -25q32 0 56.5 26.5z" />
    <glyph glyph-name="e" unicode="e" horiz-adv-x="578" 
d="M202 213l-1 -17q0 -44 17.5 -68t51.5 -24q25 0 46 16.5t32 43.5l170 -13q-37 -80 -104.5 -122t-165.5 -42q-66 0 -115 28.5t-74.5 78t-25.5 109.5q0 96 35 170.5t101 116t156 41.5q106 0 163.5 -62t57.5 -168q0 -18 -4 -45.5t-9 -42.5h-331zM250.5 380.5
q-25.5 -30.5 -36.5 -81.5h165q1 8 1 23q0 89 -67 89q-37 0 -62.5 -30.5z" />
    <glyph glyph-name="f" unicode="f" horiz-adv-x="347" 
d="M304 627q-18 -20 -25 -68l-6 -41h106l-19 -133h-106l-54 -385h-171l54 385h-62l28 133h53l8 55q15 105 64 152.5t140 47.5q34 0 72 -7t53 -14l-24 -116q-25 11 -62 11q-31 0 -49 -20z" />
    <glyph glyph-name="g" unicode="g" horiz-adv-x="600" 
d="M584 518l-67 -477q-18 -128 -89.5 -192t-192.5 -64q-93 0 -147 40.5t-68 109.5l173 16q12 -52 57 -52q38 0 61 30.5t30 87.5l10 72q-26 -42 -64.5 -66.5t-88.5 -24.5q-47 0 -85 25.5t-59.5 72.5t-21.5 108q0 79 30 155t83.5 124t119.5 48q52 0 86 -27.5t49 -70.5l23 85
h161zM333 152.5q24 26.5 37 67t13 79.5q0 44 -18.5 70t-50.5 26t-56.5 -25.5t-37 -65.5t-12.5 -81q0 -47 17.5 -72t51.5 -25q32 0 56 26.5z" />
    <glyph glyph-name="h" unicode="h" horiz-adv-x="570" 
d="M503.5 488q32.5 -43 32.5 -113q0 -25 -3 -51l-46 -324h-172l41 296q4 34 4 47q0 29 -11.5 44t-37.5 15q-62 0 -84 -116l-40 -286h-172l107 760h172l-43 -307q30 38 69.5 58t84.5 20q66 0 98.5 -43z" />
    <glyph glyph-name="i" unicode="i" horiz-adv-x="291" 
d="M137.5 623q-28.5 29 -28.5 69q0 41 28.5 69.5t68.5 28.5q41 0 69.5 -28.5t28.5 -69.5q0 -40 -28.5 -69t-69.5 -29q-40 0 -68.5 29zM96 518h172l-73 -518h-172z" />
    <glyph glyph-name="j" unicode="j" horiz-adv-x="288" 
d="M135 623q-29 29 -29 69q0 41 28.5 69.5t69.5 28.5q40 0 68.5 -28.5t28.5 -69.5q0 -40 -28.5 -69t-68.5 -29t-69 29zM-67 -210q-29 5 -53 13l28 125q24 -8 49 -8q31 0 45.5 19t20.5 66l72 513h171l-76 -536q-15 -107 -63.5 -152t-138.5 -45q-26 0 -55 5z" />
    <glyph glyph-name="k" unicode="k" horiz-adv-x="527" 
d="M354 302l141 -302h-167l-76 198l-47 -49l-21 -149h-169l107 760h169l-56 -400l140 158h191z" />
    <glyph glyph-name="l" unicode="l" horiz-adv-x="322" 
d="M83 24.5q-43 37.5 -43 116.5q0 35 5 64l78 555h170l-78 -556q-3 -15 -3 -28q0 -29 13.5 -41.5t44.5 -12.5h12l-9 -131q-20 -4 -58 -4q-89 0 -132 37.5z" />
    <glyph glyph-name="m" unicode="m" horiz-adv-x="836" 
d="M770.5 489q30.5 -42 30.5 -112q0 -27 -3 -54l-46 -323h-172l42 298q4 32 4 46q0 58 -39 58q-57 0 -77 -119l-40 -283h-172l42 298q4 32 4 45q0 59 -39 59q-28 0 -46.5 -28t-28.5 -74l-43 -300h-172l74 518h153l5 -65q57 78 146 78q49 0 79.5 -27.5t41.5 -73.5
q29 49 69.5 75t89.5 26q67 0 97.5 -42z" />
    <glyph glyph-name="n" unicode="n" horiz-adv-x="571" 
d="M504.5 488q32.5 -43 32.5 -113q0 -28 -4 -51l-46 -324h-172l42 296q4 34 4 47q0 29 -11.5 44t-37.5 15q-60 0 -82 -105l-43 -297h-172l74 518h153l6 -70q30 41 70.5 62t87.5 21q66 0 98.5 -43z" />
    <glyph glyph-name="o" unicode="o" horiz-adv-x="584" 
d="M89 50q-55 63 -55 160q0 91 35.5 164t102.5 115t158 42q109 0 164.5 -63.5t55.5 -160.5q0 -91 -35.5 -164t-102.5 -114.5t-159 -41.5q-109 0 -164 63zM330 150q24 27 36.5 68.5t12.5 82.5q0 45 -18 69.5t-50 24.5q-33 0 -57 -27.5t-36.5 -68.5t-12.5 -82q0 -45 18 -69.5
t50 -24.5q33 0 57 27z" />
    <glyph glyph-name="p" unicode="p" horiz-adv-x="599" 
d="M490 505.5q36 -25.5 56.5 -73t20.5 -110.5q0 -83 -30 -160.5t-84.5 -126t-123.5 -48.5q-48 0 -81.5 25t-48.5 70l-40 -283h-172l101 719h161l-1 -87q28 48 69 74t90 26q47 0 83 -25.5zM341 150q24 27 37 67.5t13 80.5q0 46 -18 71.5t-51 25.5q-32 0 -56 -26.5t-37 -67.5
t-13 -81q0 -44 18.5 -70.5t49.5 -26.5q33 0 57 27z" />
    <glyph glyph-name="q" unicode="q" horiz-adv-x="598" 
d="M584 518l-101 -719h-172l38 279q-26 -41 -64.5 -66t-87.5 -25q-47 0 -85 25.5t-59.5 74t-21.5 112.5q0 81 30 158t83.5 125.5t121.5 48.5q52 0 85.5 -27.5t48.5 -70.5l23 85h161zM332.5 149.5q24.5 26.5 37.5 67t13 80.5q0 46 -18.5 72t-50.5 26t-56.5 -26.5t-37.5 -67.5
t-13 -81q0 -46 18 -71.5t51 -25.5q32 0 56.5 26.5z" />
    <glyph glyph-name="r" unicode="r" horiz-adv-x="401" 
d="M428 526l-32 -157q-29 9 -58 9q-46 0 -77.5 -40t-40.5 -108h-1l-32 -230h-172l74 518h150l6 -88q30 50 67.5 75.5t77.5 25.5q24 0 38 -5z" />
    <glyph glyph-name="s" unicode="s" horiz-adv-x="500" 
d="M68.5 28.5q-54.5 41.5 -62.5 117.5l166 13q-1 -31 11.5 -48t43.5 -17q28 0 45.5 15t17.5 41q0 21 -17.5 34t-56.5 27l-31 10q-62 22 -98 58t-36 86q0 80 62.5 123t163.5 43q94 0 148 -37.5t62 -106.5l-165 -14q0 25 -9.5 41t-36.5 16q-19 0 -33.5 -13t-14.5 -34
q0 -28 48 -46l33 -11q75 -26 113.5 -59t38.5 -90q0 -94 -66 -142t-174 -48q-98 0 -152.5 41.5z" />
    <glyph glyph-name="t" unicode="t" horiz-adv-x="385" 
d="M231 201q-2 -13 -2 -31q0 -26 11 -37.5t38 -11.5t52 6l-8 -129q-48 -11 -107 -11q-75 0 -117.5 39.5t-42.5 112.5q0 23 3 48l28 198h-65l27 133h57l18 128h171l-18 -128h108l-19 -133h-108z" />
    <glyph glyph-name="u" unicode="u" 
d="M550 518l-73 -518h-154l-3 71q-30 -41 -69.5 -62.5t-85.5 -21.5q-65 0 -98 43t-33 113q0 24 4 50l46 325h172l-42 -296q-4 -34 -4 -47q0 -60 49 -60q33 0 52.5 35t27.5 92l39 276h172z" />
    <glyph glyph-name="v" unicode="v" horiz-adv-x="513" 
d="M559 518l-252 -518h-176l-105 518h177l31 -381l136 381h189z" />
    <glyph glyph-name="w" unicode="w" horiz-adv-x="739" 
d="M775 518l-216 -518h-163l-16 333l-111 -333h-163l-70 518h175l5 -379l123 379h130l15 -378l111 378h180z" />
    <glyph glyph-name="x" unicode="x" horiz-adv-x="499" 
d="M340 258l125 -258h-173l-51 156l-93 -156h-191l206 267l-124 251l175 1l48 -147l86 146h190z" />
    <glyph glyph-name="y" unicode="y" 
d="M550 518l-68 -481q-17 -129 -88 -190.5t-185 -61.5q-90 0 -140.5 39.5t-66.5 109.5l172 17q3 -27 15 -39.5t36 -12.5q36 0 55.5 32t28.5 99l7 46q-30 -36 -67.5 -55.5t-80.5 -19.5q-67 0 -99.5 43t-32.5 113q0 27 4 50l44 311h172l-40 -283q-4 -23 -4 -46q0 -29 11.5 -44
t38.5 -15q55 0 77 109l39 279h172z" />
    <glyph glyph-name="z" unicode="z" horiz-adv-x="480" 
d="M243 130h195l-18 -130h-441l254 389h-176l27 129h414z" />
    <glyph glyph-name="braceleft" unicode="{" horiz-adv-x="463" 
d="M470 883l-16 -116q-69 0 -81 -89l-20 -140q-16 -110 -88 -152q50 -39 50 -105q0 -16 -3 -36l-19 -141q-2 -10 -2 -29q0 -30 13 -45t44 -15l-16 -116h-35q-70 0 -112.5 42t-42.5 110q0 24 3 49l21 151q2 10 2 27q0 28 -13 43t-44 15l3 23l12 87q68 0 80 85l21 150
q15 109 63.5 155.5t140.5 46.5h39z" />
    <glyph glyph-name="bar" unicode="|" horiz-adv-x="419" 
d="M190 760h180l-135 -961h-180z" />
    <glyph glyph-name="braceright" unicode="}" horiz-adv-x="463" 
d="M30 -101l16 116q69 0 81 89l20 140q16 110 88 152q-50 39 -50 105q0 16 3 36l19 141q2 10 2 29q0 30 -13 45t-44 15l16 116h35q70 0 112.5 -42t42.5 -110q0 -24 -3 -49l-21 -151q-2 -10 -2 -27q0 -28 13 -43t44 -15l-3 -23l-12 -87q-68 0 -80 -85l-21 -150
q-15 -109 -63.5 -155.5t-140.5 -46.5h-39z" />
    <glyph glyph-name="asciitilde" unicode="~" horiz-adv-x="547" 
d="M334 359.5q-19 6.5 -44 20.5q-23 13 -43.5 20t-44.5 7q-58 0 -107 -43l17 127q45 40 106 40q24 0 42.5 -7t44.5 -21q26 -13 45.5 -19.5t44.5 -6.5q64 0 109 42l-17 -126q-20 -19 -49 -29.5t-60 -10.5q-25 0 -44 6.5z" />
    <glyph glyph-name="uni00A0" unicode="&#xa0;" horiz-adv-x="177" 
 />
    <glyph glyph-name="exclamdown" unicode="&#xa1;" horiz-adv-x="308" 
d="M251 544.5q27 -27.5 27 -65.5q0 -39 -27 -66.5t-66 -27.5t-66.5 28t-27.5 66t27.5 65.5t66.5 27.5t66 -27.5zM169 -201h-159l88 516h130z" />
    <glyph glyph-name="cent" unicode="&#xa2;" horiz-adv-x="655" 
d="M368 145q23 22 35 61l162 -13q-21 -79 -71.5 -131t-127.5 -68l-17 -121h-152l18 126q-68 22 -102.5 78.5t-34.5 132.5q0 116 55.5 199.5t154.5 110.5l17 118h152l-17 -116q64 -17 101.5 -68t40.5 -125l-164 -13q-6 79 -65 79q-33 0 -57.5 -27t-37 -68.5t-12.5 -82.5
q0 -45 18.5 -69.5t52.5 -24.5q28 0 51 22z" />
    <glyph glyph-name="sterling" unicode="&#xa3;" horiz-adv-x="632" 
d="M349 135h184l-18 -135h-466l18 135h94q49 65 49 128q0 11 -1 17h-109l13 94h70q-1 2 -8 14q-23 37 -36.5 78t-13.5 78q0 60 31 112.5t88.5 84.5t134.5 32q102 0 155.5 -56t58.5 -154l-162 -11q0 35 -14.5 56.5t-44.5 21.5t-50.5 -23.5t-20.5 -54.5q0 -25 12 -56.5
t31 -61.5q20 -32 30 -60h142l-13 -94h-112q-1 -74 -42 -145z" />
    <glyph glyph-name="currency" unicode="&#xa4;" horiz-adv-x="801" 
d="M635 220l62 -70l-118 -105l-70 83q-63 -26 -133 -26q-60 0 -110 22l-97 -87l-103 121l85 73q-21 42 -21 92q0 100 61 175l-60 68l119 104l67 -79q63 25 132 25q61 0 114 -24l95 86l104 -120l-87 -75q20 -42 20 -88q0 -99 -60 -175zM458 257q29 19 46.5 52t17.5 73
q0 45 -25.5 71.5t-66.5 26.5q-33 0 -62.5 -19t-47 -52t-17.5 -73q0 -45 25.5 -71.5t67.5 -26.5q33 0 62 19z" />
    <glyph glyph-name="yen" unicode="&#xa5;" horiz-adv-x="720" 
d="M514 420h100l-14 -94h-140l-1 -2l-9 -64h141l-13 -94h-141l-24 -166h-179l23 166h-141l13 94h141l10 65l-1 1h-141l14 94h99l-101 340h180l54 -300l139 300h187z" />
    <glyph glyph-name="brokenbar" unicode="&#xa6;" horiz-adv-x="419" 
d="M190 760h180l-52 -368h-179zM107 167h179l-51 -368h-180z" />
    <glyph glyph-name="section" unicode="&#xa7;" horiz-adv-x="648" 
d="M526.5 208.5q-23.5 -44.5 -65.5 -77.5q60 -54 60 -128q0 -63 -33.5 -113t-91 -77.5t-129.5 -27.5q-73 0 -122.5 32t-74 82t-26.5 106l176 14q-2 -45 13.5 -72.5t50.5 -27.5q32 0 51 20.5t19 52.5q0 25 -14 42t-45 32l-56 22q-63 25 -99.5 68t-36.5 100q0 51 23.5 96
t65.5 77q-60 55 -60 129q0 62 33.5 111t91.5 76.5t129 27.5q73 0 122.5 -32t74.5 -81.5t27 -104.5l-178 -15q2 45 -12.5 72.5t-50.5 27.5q-32 0 -51 -20.5t-19 -51.5q0 -25 13.5 -41.5t45.5 -31.5l56 -23q63 -24 99.5 -67.5t36.5 -100.5q0 -51 -23.5 -95.5zM281 238.5
q18 -19.5 65 -40.5l7 -4q37 39 37 82q0 26 -18 45.5t-65 41.5l-7 3q-37 -37 -37 -82q0 -26 18 -45.5z" />
    <glyph glyph-name="dieresis" unicode="&#xa8;" horiz-adv-x="467" 
d="M134.5 630.5q-23.5 23.5 -23.5 56.5q0 34 23.5 57.5t56.5 23.5t57 -23.5t24 -57.5q0 -33 -24 -56.5t-57 -23.5t-56.5 23.5zM341.5 630.5q-23.5 23.5 -23.5 56.5q0 34 23.5 57.5t56.5 23.5t56 -23.5t23 -57.5q0 -33 -23 -56.5t-56 -23.5t-56.5 23.5z" />
    <glyph glyph-name="copyright" unicode="&#xa9;" horiz-adv-x="992" 
d="M299 39.5q-94 52.5 -146 142t-52 198.5t52 198.5t146 142t214 52.5t214 -52.5t146 -142t52 -198.5t-52 -198.5t-146 -142t-214 -52.5t-214 52.5zM684.5 103.5q75.5 42.5 117.5 115.5t42 161t-42 161t-117.5 115.5t-171.5 42.5q-97 0 -172.5 -42.5t-117 -115.5t-41.5 -161
t41.5 -161t117 -115.5t172.5 -42.5q96 0 171.5 42.5zM360.5 218.5q-53.5 63.5 -53.5 163.5q0 101 53.5 164t156.5 63q86 0 137 -45t61 -122l-132 -10q-6 32 -23 49t-43 17q-33 0 -52 -29t-19 -87q0 -57 19.5 -86t51.5 -29q54 0 68 70l131 -11q-10 -77 -61.5 -124t-137.5 -47
q-103 0 -156.5 63.5z" />
    <glyph glyph-name="ordfeminine" unicode="&#xaa;" horiz-adv-x="534" 
d="M545 760l-58 -409h-118l-1 60q-49 -72 -125 -72q-39 0 -72.5 21t-53 60t-19.5 92q0 67 26.5 127t73.5 97t105 37q36 0 63 -18t42 -51l8 56h129zM359.5 490q26.5 40 26.5 91q0 39 -17 60t-44 21q-23 0 -44 -16.5t-34 -46t-13 -67.5q0 -37 17 -59.5t44 -22.5q38 0 64.5 40z
" />
    <glyph glyph-name="guillemotleft" unicode="&#xab;" horiz-adv-x="549" 
d="M177 480h136l-120 -208l60 -208h-124l-67 208zM384 480h136l-120 -208l60 -208h-124l-67 208z" />
    <glyph glyph-name="logicalnot" unicode="&#xac;" horiz-adv-x="606" 
d="M550 437l-37 -261h-138l20 140h-307l17 121h445z" />
    <glyph glyph-name="uni00AD" unicode="&#xad;" horiz-adv-x="415" 
d="M71 333h294l-18 -133h-295z" />
    <glyph glyph-name="registered" unicode="&#xae;" horiz-adv-x="730" 
d="M546 737.5q64 -35.5 100 -97t36 -135.5t-36 -135.5t-100 -97.5t-146 -36t-146.5 36t-100.5 97.5t-36 135.5t36 135.5t100.5 97t146.5 35.5t146 -35.5zM506.5 334q46.5 26 72 71t25.5 100q0 54 -26 99t-72.5 71.5t-105.5 26.5q-60 0 -106.5 -26.5t-72.5 -71.5t-26 -99
q0 -55 26 -100t72.5 -71t106.5 -26t106.5 26zM469 475l40 -92h-77l-29 75h-10v-75h-77v258h89q48 0 74 -24.5t26 -66.5q0 -52 -36 -75zM393 583v-67h9q13 0 19.5 9t6.5 25q0 33 -26 33h-9z" />
    <glyph glyph-name="macron" unicode="&#xaf;" horiz-adv-x="358" 
d="M118 743h257l-12 -91h-257z" />
    <glyph glyph-name="degree" unicode="&#xb0;" horiz-adv-x="461" 
d="M207.5 501.5q-34.5 19.5 -54.5 53t-20 73.5q0 39 20 72.5t54.5 53t75.5 19.5q40 0 74 -19.5t54 -53t20 -72.5q0 -40 -20 -73.5t-54 -53t-74 -19.5q-41 0 -75.5 19.5zM324.5 586q17.5 18 17.5 42q0 25 -17.5 42.5t-41.5 17.5q-25 0 -43 -17.5t-18 -42.5q0 -24 18 -42
t43 -18q24 0 41.5 18z" />
    <glyph glyph-name="plusminus" unicode="&#xb1;" horiz-adv-x="556" 
d="M495 393h-130l-22 -155h-120l22 155h-132l16 116h132l21 154h120l-21 -154h131zM62 129h383l-17 -115h-382z" />
    <glyph glyph-name="uni00B2" unicode="&#xb2;" horiz-adv-x="456" 
d="M253 483q-12 -13 -19 -32h165l-14 -93h-291l7 50q9 61 38.5 104t91.5 72l42 21q21 11 31 22t10 26q0 12 -7 19t-19 7q-14 0 -24 -9.5t-16 -24.5l-112 8q17 57 62 86t109 29q55 0 88.5 -30t33.5 -74q0 -46 -25.5 -76t-78.5 -58l-39 -23q-21 -11 -33 -24z" />
    <glyph glyph-name="uni00B3" unicode="&#xb3;" horiz-adv-x="461" 
d="M400 530.5q12 -19.5 12 -43.5q0 -61 -47.5 -98.5t-120.5 -37.5q-60 0 -93.5 30.5t-38.5 86.5l113 8q2 -35 31 -35q17 0 29 13.5t12 34.5q0 36 -48 36h-39l11 78h34q26 0 41 12.5t15 36.5q0 12 -6.5 19.5t-18.5 7.5q-29 0 -39 -34l-112 9q20 55 66 84.5t104 29.5
q57 0 90 -29t33 -75q0 -31 -16 -57.5t-45 -43.5q21 -13 33 -32.5z" />
    <glyph glyph-name="acute" unicode="&#xb4;" horiz-adv-x="319" 
d="M201 587h-105l84 173h159z" />
    <glyph glyph-name="uni00B5" unicode="&#xb5;" horiz-adv-x="634" 
d="M590 518l-72 -518h-156l-3 71q-28 -38 -64.5 -59.5t-78.5 -24.5l-26 -188h-174l67 466l36 253h172l-9 -66l-13 -91l-19 -138q-4 -32 -4 -45q0 -63 49 -63q33 0 55 38t30 95l38 270h172z" />
    <glyph glyph-name="paragraph" unicode="&#xb6;" horiz-adv-x="889" 
d="M147.5 599q38.5 72 103 116.5t137.5 44.5l-76 -539q-58 0 -104.5 29.5t-72.5 81.5t-26 116q0 79 38.5 151zM861 628h-74l-116 -829h-156l116 829h-107l-116 -829h-155l135 961h491z" />
    <glyph glyph-name="periodcentered" unicode="&#xb7;" horiz-adv-x="276" 
d="M96.5 338.5q-25.5 25.5 -25.5 61.5t25.5 61.5t61.5 25.5t61.5 -25.5t25.5 -61.5t-25.5 -61.5t-61.5 -25.5t-61.5 25.5z" />
    <glyph glyph-name="cedilla" unicode="&#xb8;" horiz-adv-x="291" 
d="M166 -57.5q22 -20.5 22 -55.5q0 -45 -32 -73.5t-86 -28.5q-47 0 -84 21l28 55q24 -10 43 -10q17 0 28 11t11 27q0 11 -6.5 17t-16.5 6q-16 0 -31 -13l-23 19l43 108h65l-20 -63h5q32 0 54 -20.5z" />
    <glyph glyph-name="uni00B9" unicode="&#xb9;" horiz-adv-x="347" 
d="M337 760l-57 -403h-116l35 246q-27 -7 -71 -7l15 113q44 0 76 12t44 39h74z" />
    <glyph glyph-name="ordmasculine" unicode="&#xba;" horiz-adv-x="518" 
d="M145 390.5q-45 51.5 -45 128.5q0 72 29.5 130t82 91t119.5 33q81 0 126 -51.5t45 -129.5q0 -71 -29.5 -129t-82 -91t-119.5 -33q-81 0 -126 51.5zM349 492q23 42 23 96q0 37 -15 56t-42 19q-40 0 -63 -44t-23 -95q0 -36 15.5 -55t41.5 -19q40 0 63 42z" />
    <glyph glyph-name="guillemotright" unicode="&#xbb;" horiz-adv-x="548" 
d="M375 64h-136l120 208l-60 208h124l67 -208zM168 64h-136l120 208l-60 208h124l67 -208z" />
    <glyph glyph-name="onequarter" unicode="&#xbc;" horiz-adv-x="1038" 
d="M337 760l-57 -403h-116l35 246q-27 -7 -71 -7l15 113q44 0 76 12t44 39h74zM665 760h177l-576 -760h-177zM935 92h-47l-13 -92h-100l13 92h-179l13 94l94 216h103l-92 -216h74l16 111h100l-16 -111h47z" />
    <glyph glyph-name="onehalf" unicode="&#xbd;" horiz-adv-x="1034" 
d="M337 760l-57 -403h-116l35 246q-27 -7 -71 -7l15 113q44 0 76 12t44 39h74zM781 126q-12 -13 -19 -32h165l-14 -93h-291l7 50q9 61 38.5 104t91.5 72l42 21q21 11 31 22t10 26q0 12 -7 19t-19 7q-14 0 -24 -9.5t-16 -24.5l-112 8q17 57 62 86t109 29q55 0 88.5 -30
t33.5 -74q0 -46 -25.5 -76t-78.5 -58l-39 -23q-21 -11 -33 -24zM665 760h177l-576 -760h-177z" />
    <glyph glyph-name="threequarters" unicode="&#xbe;" horiz-adv-x="1119" 
d="M400 530.5q12 -19.5 12 -43.5q0 -61 -47.5 -98.5t-120.5 -37.5q-60 0 -93.5 30.5t-38.5 86.5l113 8q2 -35 31 -35q17 0 29 13.5t12 34.5q0 36 -48 36h-39l11 78h34q26 0 41 12.5t15 36.5q0 12 -6.5 19.5t-18.5 7.5q-29 0 -39 -34l-112 9q20 55 66 84.5t104 29.5
q57 0 90 -29t33 -75q0 -31 -16 -57.5t-45 -43.5q21 -13 33 -32.5zM746 760h177l-576 -760h-177zM1016 92h-47l-13 -92h-100l13 92h-179l13 94l94 216h103l-92 -216h74l16 111h100l-16 -111h47z" />
    <glyph glyph-name="questiondown" unicode="&#xbf;" horiz-adv-x="573" 
d="M392.5 544.5q27.5 -27.5 27.5 -65.5t-27.5 -66t-65.5 -28q-39 0 -66 27.5t-27 66.5q0 38 27 65.5t66 27.5q38 0 65.5 -27.5zM396 293q-7 -51 -19 -84.5t-37 -61t-69 -56.5l-20 -14q-58 -38 -58 -93q0 -53 52 -53q28 0 50 18.5t40 57.5l135 -54q-77 -167 -255 -167
q-89 0 -141.5 48t-52.5 128q0 66 34 120.5t97 91.5l25 15q55 33 64 105l3 27h156z" />
    <glyph glyph-name="Agrave" unicode="&#xc0;" horiz-adv-x="618" 
d="M396 110h-204l-38 -110h-192l316 760h203l101 -760h-178zM387 239l-25 362l-125 -362h150zM348 1002l84 -173h-105l-138 173h159z" />
    <glyph glyph-name="Aacute" unicode="&#xc1;" horiz-adv-x="618" 
d="M396 110h-204l-38 -110h-192l316 760h203l101 -760h-178zM387 239l-25 362l-125 -362h150zM433 829h-105l84 173h159z" />
    <glyph glyph-name="Acircumflex" unicode="&#xc2;" horiz-adv-x="618" 
d="M396 110h-204l-38 -110h-192l316 760h203l101 -760h-178zM387 239l-25 362l-125 -362h150zM451 833l-44 94l-65 -94h-131l152 169h101l105 -169h-118z" />
    <glyph glyph-name="Atilde" unicode="&#xc3;" horiz-adv-x="618" 
d="M396 110h-204l-38 -110h-192l316 760h203l101 -760h-178zM387 239l-25 362l-125 -362h150zM414 862.5q-18 8.5 -38 23.5q-29 22 -52 22q-31 0 -60 -38l-54 53q26 45 62 71t80 26q24 0 43 -9t39 -24q27 -22 51 -22q28 0 60 39l54 -51q-25 -45 -62 -72t-82 -27
q-23 0 -41 8.5z" />
    <glyph glyph-name="Adieresis" unicode="&#xc4;" horiz-adv-x="618" 
d="M396 110h-204l-38 -110h-192l316 760h203l101 -760h-178zM387 239l-25 362l-125 -362h150zM242.5 872.5q-23.5 23.5 -23.5 56.5q0 34 23.5 57.5t56.5 23.5t57 -23.5t24 -57.5q0 -33 -24 -56.5t-57 -23.5t-56.5 23.5zM449.5 872.5q-23.5 23.5 -23.5 56.5q0 34 23.5 57.5
t56.5 23.5t56 -23.5t23 -57.5q0 -33 -23 -56.5t-56 -23.5t-56.5 23.5z" />
    <glyph glyph-name="Aring" unicode="&#xc5;" horiz-adv-x="618" 
d="M396 110h-204l-38 -110h-192l316 760h203l101 -760h-178zM387 239l-25 362l-125 -362h150zM315 858.5q-35 35.5 -35 85.5q0 49 35 84t85 35t85.5 -35t35.5 -84q0 -50 -35.5 -85.5t-85.5 -35.5t-85 35.5zM439.5 902q16.5 17 16.5 42q0 24 -16.5 40.5t-39.5 16.5
t-39.5 -16.5t-16.5 -40.5q0 -25 16.5 -42t39.5 -17t39.5 17z" />
    <glyph glyph-name="AE" unicode="&#xc6;" horiz-adv-x="863" 
d="M659 615l-22 -151h202l-20 -139h-201l-26 -180h213l-21 -145h-390l20 145h-185l-79 -145h-195l465 760h470l-21 -145h-210zM432 273l47 331l-180 -331h133z" />
    <glyph glyph-name="Ccedilla" unicode="&#xc7;" horiz-adv-x="726" 
d="M640.5 694.5q73.5 -78.5 84.5 -213.5l-187 -15q-10 145 -116 145q-59 0 -103 -43.5t-66.5 -111.5t-22.5 -138q0 -82 32.5 -125.5t91.5 -43.5q54 0 97 40t66 106l179 -15q-43 -137 -136.5 -215t-224.5 -78q-90 0 -155 40.5t-99 113.5t-34 169q0 123 49 229t139 170t207 64
q125 0 198.5 -78.5zM405 -57.5q22 -20.5 22 -55.5q0 -45 -32 -73.5t-86 -28.5q-47 0 -84 21l28 55q24 -10 43 -10q17 0 28 11t11 27q0 11 -6.5 17t-16.5 6q-16 0 -31 -13l-23 19l43 108h65l-20 -63h5q32 0 54 -20.5z" />
    <glyph glyph-name="Egrave" unicode="&#xc8;" horiz-adv-x="502" 
d="M285 614l-21 -150h214l-20 -140h-213l-25 -178h224l-21 -146h-403l107 760h402l-21 -146h-223zM298 1002l84 -173h-105l-138 173h159z" />
    <glyph glyph-name="Eacute" unicode="&#xc9;" horiz-adv-x="502" 
d="M285 614l-21 -150h214l-20 -140h-213l-25 -178h224l-21 -146h-403l107 760h402l-21 -146h-223zM383 829h-105l84 173h159z" />
    <glyph glyph-name="Ecircumflex" unicode="&#xca;" horiz-adv-x="502" 
d="M285 614l-21 -150h214l-20 -140h-213l-25 -178h224l-21 -146h-403l107 760h402l-21 -146h-223zM401 833l-44 94l-65 -94h-131l152 169h101l105 -169h-118z" />
    <glyph glyph-name="Edieresis" unicode="&#xcb;" horiz-adv-x="502" 
d="M285 614l-21 -150h214l-20 -140h-213l-25 -178h224l-21 -146h-403l107 760h402l-21 -146h-223zM192.5 872.5q-23.5 23.5 -23.5 56.5q0 34 23.5 57.5t56.5 23.5t57 -23.5t24 -57.5q0 -33 -24 -56.5t-57 -23.5t-56.5 23.5zM399.5 872.5q-23.5 23.5 -23.5 56.5
q0 34 23.5 57.5t56.5 23.5t56 -23.5t23 -57.5q0 -33 -23 -56.5t-56 -23.5t-56.5 23.5z" />
    <glyph glyph-name="Igrave" unicode="&#xcc;" horiz-adv-x="292" 
d="M127 760h179l-107 -760h-179zM186 1002l84 -173h-105l-138 173h159z" />
    <glyph glyph-name="Iacute" unicode="&#xcd;" horiz-adv-x="292" 
d="M127 760h179l-107 -760h-179zM271 829h-105l84 173h159z" />
    <glyph glyph-name="Icircumflex" unicode="&#xce;" horiz-adv-x="292" 
d="M127 760h179l-107 -760h-179zM271 833l-25 113l-53 -113h-122l130 169h100l83 -169h-113z" />
    <glyph glyph-name="Idieresis" unicode="&#xcf;" horiz-adv-x="292" 
d="M127 760h179l-107 -760h-179zM80.5 872.5q-23.5 23.5 -23.5 56.5q0 34 23.5 57.5t56.5 23.5t57 -23.5t24 -57.5q0 -33 -24 -56.5t-57 -23.5t-56.5 23.5zM287.5 872.5q-23.5 23.5 -23.5 56.5q0 34 23.5 57.5t56.5 23.5t56 -23.5t23 -57.5q0 -33 -23 -56.5t-56 -23.5
t-56.5 23.5z" />
    <glyph glyph-name="Eth" unicode="&#xd0;" horiz-adv-x="718" 
d="M560.5 720.5q68.5 -39.5 106.5 -110t38 -161.5q0 -120 -50.5 -222.5t-144 -164.5t-214.5 -62h-245l47 336h-80l18 122h79l43 302h246q88 0 156.5 -39.5zM423 190q48 44 73 112.5t25 139.5q0 85 -34.5 128.5t-101.5 43.5h-69l-22 -156h120l-18 -122h-119l-26 -190h60
q64 0 112 44z" />
    <glyph glyph-name="Ntilde" unicode="&#xd1;" horiz-adv-x="660" 
d="M673 760l-107 -760h-172l-131 499l-70 -499h-172l106 760h172l133 -490l69 490h172zM434 862.5q-18 8.5 -38 23.5q-29 22 -52 22q-31 0 -60 -38l-54 53q26 45 62 71t80 26q24 0 43 -9t39 -24q27 -22 51 -22q28 0 60 39l54 -51q-25 -45 -62 -72t-82 -27q-23 0 -41 8.5z
" />
    <glyph glyph-name="Ograve" unicode="&#xd2;" horiz-adv-x="740" 
d="M179.5 28.5q-64.5 41.5 -98.5 115t-34 166.5q0 123 49 229t139 170t207 64q88 0 152.5 -41.5t98.5 -115t34 -167.5q0 -123 -49.5 -229t-139.5 -169.5t-206 -63.5q-88 0 -152.5 41.5zM455 192.5q43 43.5 65.5 111t22.5 138.5q0 81 -31.5 125t-89.5 44q-59 0 -102.5 -43.5
t-66 -111.5t-22.5 -138q0 -81 32 -125t91 -44q58 0 101 43.5zM409 1002l84 -173h-105l-138 173h159z" />
    <glyph glyph-name="Oacute" unicode="&#xd3;" horiz-adv-x="740" 
d="M179.5 28.5q-64.5 41.5 -98.5 115t-34 166.5q0 123 49 229t139 170t207 64q88 0 152.5 -41.5t98.5 -115t34 -167.5q0 -123 -49.5 -229t-139.5 -169.5t-206 -63.5q-88 0 -152.5 41.5zM455 192.5q43 43.5 65.5 111t22.5 138.5q0 81 -31.5 125t-89.5 44q-59 0 -102.5 -43.5
t-66 -111.5t-22.5 -138q0 -81 32 -125t91 -44q58 0 101 43.5zM494 829h-105l84 173h159z" />
    <glyph glyph-name="Ocircumflex" unicode="&#xd4;" horiz-adv-x="740" 
d="M179.5 28.5q-64.5 41.5 -98.5 115t-34 166.5q0 123 49 229t139 170t207 64q88 0 152.5 -41.5t98.5 -115t34 -167.5q0 -123 -49.5 -229t-139.5 -169.5t-206 -63.5q-88 0 -152.5 41.5zM455 192.5q43 43.5 65.5 111t22.5 138.5q0 81 -31.5 125t-89.5 44q-59 0 -102.5 -43.5
t-66 -111.5t-22.5 -138q0 -81 32 -125t91 -44q58 0 101 43.5zM512 833l-44 94l-65 -94h-131l152 169h101l105 -169h-118z" />
    <glyph glyph-name="Otilde" unicode="&#xd5;" horiz-adv-x="740" 
d="M179.5 28.5q-64.5 41.5 -98.5 115t-34 166.5q0 123 49 229t139 170t207 64q88 0 152.5 -41.5t98.5 -115t34 -167.5q0 -123 -49.5 -229t-139.5 -169.5t-206 -63.5q-88 0 -152.5 41.5zM455 192.5q43 43.5 65.5 111t22.5 138.5q0 81 -31.5 125t-89.5 44q-59 0 -102.5 -43.5
t-66 -111.5t-22.5 -138q0 -81 32 -125t91 -44q58 0 101 43.5zM475 862.5q-18 8.5 -38 23.5q-29 22 -52 22q-31 0 -60 -38l-54 53q26 45 62 71t80 26q24 0 43 -9t39 -24q27 -22 51 -22q28 0 60 39l54 -51q-25 -45 -62 -72t-82 -27q-23 0 -41 8.5z" />
    <glyph glyph-name="Odieresis" unicode="&#xd6;" horiz-adv-x="740" 
d="M179.5 28.5q-64.5 41.5 -98.5 115t-34 166.5q0 123 49 229t139 170t207 64q88 0 152.5 -41.5t98.5 -115t34 -167.5q0 -123 -49.5 -229t-139.5 -169.5t-206 -63.5q-88 0 -152.5 41.5zM455 192.5q43 43.5 65.5 111t22.5 138.5q0 81 -31.5 125t-89.5 44q-59 0 -102.5 -43.5
t-66 -111.5t-22.5 -138q0 -81 32 -125t91 -44q58 0 101 43.5zM303.5 872.5q-23.5 23.5 -23.5 56.5q0 34 23.5 57.5t56.5 23.5t57 -23.5t24 -57.5q0 -33 -24 -56.5t-57 -23.5t-56.5 23.5zM510.5 872.5q-23.5 23.5 -23.5 56.5q0 34 23.5 57.5t56.5 23.5t56 -23.5t23 -57.5
q0 -33 -23 -56.5t-56 -23.5t-56.5 23.5z" />
    <glyph glyph-name="multiply" unicode="&#xd7;" horiz-adv-x="542" 
d="M348 261l93 -125l-89 -74l-88 117l-123 -120l-77 87l130 127l-89 120l88 75l85 -113l125 122l77 -87z" />
    <glyph glyph-name="Oslash" unicode="&#xd8;" horiz-adv-x="741" 
d="M669 662q59 -85 59 -213q0 -123 -49.5 -229t-140 -169.5t-206.5 -63.5q-75 0 -135 30l-32 -43h-147l89 122q-60 85 -60 214q0 123 49 229t139 170t207 64q78 0 137 -32l33 45h147zM223 254l262 359q-25 13 -60 13q-65 0 -112 -47.5t-71 -120.5t-24 -148q0 -28 5 -56z
M554 505l-262 -358q25 -12 58 -12q65 0 112 46.5t71.5 119t24.5 148.5q0 22 -4 56z" />
    <glyph glyph-name="Ugrave" unicode="&#xd9;" horiz-adv-x="659" 
d="M114 50.5q-61 63.5 -61 180.5q0 31 5 74l64 455h179l-66 -464q-4 -27 -4 -53q0 -46 19.5 -70t62.5 -24q49 0 80 37t41 110l65 464h178l-64 -455q-22 -165 -101 -241.5t-221 -76.5q-116 0 -177 63.5zM367 1002l84 -173h-105l-138 173h159z" />
    <glyph glyph-name="Uacute" unicode="&#xda;" horiz-adv-x="659" 
d="M114 50.5q-61 63.5 -61 180.5q0 31 5 74l64 455h179l-66 -464q-4 -27 -4 -53q0 -46 19.5 -70t62.5 -24q49 0 80 37t41 110l65 464h178l-64 -455q-22 -165 -101 -241.5t-221 -76.5q-116 0 -177 63.5zM452 829h-105l84 173h159z" />
    <glyph glyph-name="Ucircumflex" unicode="&#xdb;" horiz-adv-x="659" 
d="M114 50.5q-61 63.5 -61 180.5q0 31 5 74l64 455h179l-66 -464q-4 -27 -4 -53q0 -46 19.5 -70t62.5 -24q49 0 80 37t41 110l65 464h178l-64 -455q-22 -165 -101 -241.5t-221 -76.5q-116 0 -177 63.5zM470 833l-44 94l-65 -94h-131l152 169h101l105 -169h-118z" />
    <glyph glyph-name="Udieresis" unicode="&#xdc;" horiz-adv-x="659" 
d="M114 50.5q-61 63.5 -61 180.5q0 31 5 74l64 455h179l-66 -464q-4 -27 -4 -53q0 -46 19.5 -70t62.5 -24q49 0 80 37t41 110l65 464h178l-64 -455q-22 -165 -101 -241.5t-221 -76.5q-116 0 -177 63.5zM261.5 872.5q-23.5 23.5 -23.5 56.5q0 34 23.5 57.5t56.5 23.5
t57 -23.5t24 -57.5q0 -33 -24 -56.5t-57 -23.5t-56.5 23.5zM468.5 872.5q-23.5 23.5 -23.5 56.5q0 34 23.5 57.5t56.5 23.5t56 -23.5t23 -57.5q0 -33 -23 -56.5t-56 -23.5t-56.5 23.5z" />
    <glyph glyph-name="Yacute" unicode="&#xdd;" horiz-adv-x="581" 
d="M661 760l-423 -760h-187l177 318l-161 442h183l72 -272l151 272h188zM417 829h-105l84 173h159z" />
    <glyph glyph-name="Thorn" unicode="&#xde;" horiz-adv-x="599" 
d="M485.5 632q51.5 -29 78 -78.5t26.5 -109.5q0 -99 -35 -172t-101.5 -113t-158.5 -40h-82l-17 -119h-176l107 760h176l-14 -99h74q71 0 122.5 -29zM377.5 306.5q36.5 47.5 36.5 117.5q0 97 -93 97h-52l-37 -262h48q61 0 97.5 47.5z" />
    <glyph glyph-name="germandbls" unicode="&#xdf;" horiz-adv-x="546" 
d="M474.5 352q31.5 -45 31.5 -101q0 -75 -32.5 -135t-87 -94.5t-118.5 -34.5q-44 0 -75 12l25 112q17 -5 34 -5q27 0 51.5 18t40 49.5t15.5 68.5q0 44 -22.5 70t-58.5 26h-17l9 66l6 42q36 21 60.5 63t24.5 84q0 27 -12.5 42t-36.5 15q-26 0 -45 -25t-26 -69l-78 -556h-148
l75 529q18 133 74.5 188.5t159.5 55.5q75 0 119 -43t44 -110q0 -58 -25.5 -109t-70.5 -89q52 -25 83.5 -70z" />
    <glyph glyph-name="agrave" unicode="&#xe0;" horiz-adv-x="599" 
d="M583 518l-72 -518h-160v81q-26 -43 -65 -68.5t-89 -25.5q-47 0 -85 25.5t-59.5 74t-21.5 112.5q0 81 30 158t83.5 125.5t121.5 48.5q52 0 85.5 -27.5t48.5 -71.5l12 86h171zM332.5 149.5q24.5 26.5 37.5 67t13 80.5q0 46 -18.5 72t-50.5 26t-56.5 -27t-37.5 -67.5
t-13 -80.5q0 -46 18 -71.5t51 -25.5q32 0 56.5 26.5zM293 760l84 -173h-105l-138 173h159z" />
    <glyph glyph-name="aacute" unicode="&#xe1;" horiz-adv-x="599" 
d="M583 518l-72 -518h-160v81q-26 -43 -65 -68.5t-89 -25.5q-47 0 -85 25.5t-59.5 74t-21.5 112.5q0 81 30 158t83.5 125.5t121.5 48.5q52 0 85.5 -27.5t48.5 -71.5l12 86h171zM332.5 149.5q24.5 26.5 37.5 67t13 80.5q0 46 -18.5 72t-50.5 26t-56.5 -27t-37.5 -67.5
t-13 -80.5q0 -46 18 -71.5t51 -25.5q32 0 56.5 26.5zM378 587h-105l84 173h159z" />
    <glyph glyph-name="acircumflex" unicode="&#xe2;" horiz-adv-x="599" 
d="M583 518l-72 -518h-160v81q-26 -43 -65 -68.5t-89 -25.5q-47 0 -85 25.5t-59.5 74t-21.5 112.5q0 81 30 158t83.5 125.5t121.5 48.5q52 0 85.5 -27.5t48.5 -71.5l12 86h171zM332.5 149.5q24.5 26.5 37.5 67t13 80.5q0 46 -18.5 72t-50.5 26t-56.5 -27t-37.5 -67.5
t-13 -80.5q0 -46 18 -71.5t51 -25.5q32 0 56.5 26.5zM396 591l-44 94l-65 -94h-131l152 169h101l105 -169h-118z" />
    <glyph glyph-name="atilde" unicode="&#xe3;" horiz-adv-x="599" 
d="M583 518l-72 -518h-160v81q-26 -43 -65 -68.5t-89 -25.5q-47 0 -85 25.5t-59.5 74t-21.5 112.5q0 81 30 158t83.5 125.5t121.5 48.5q52 0 85.5 -27.5t48.5 -71.5l12 86h171zM332.5 149.5q24.5 26.5 37.5 67t13 80.5q0 46 -18.5 72t-50.5 26t-56.5 -27t-37.5 -67.5
t-13 -80.5q0 -46 18 -71.5t51 -25.5q32 0 56.5 26.5zM359 620.5q-18 8.5 -38 23.5q-29 22 -52 22q-31 0 -60 -38l-54 53q26 45 62 71t80 26q24 0 43 -9t39 -24q27 -22 51 -22q28 0 60 39l54 -51q-25 -45 -62 -72t-82 -27q-23 0 -41 8.5z" />
    <glyph glyph-name="adieresis" unicode="&#xe4;" horiz-adv-x="599" 
d="M583 518l-72 -518h-160v81q-26 -43 -65 -68.5t-89 -25.5q-47 0 -85 25.5t-59.5 74t-21.5 112.5q0 81 30 158t83.5 125.5t121.5 48.5q52 0 85.5 -27.5t48.5 -71.5l12 86h171zM332.5 149.5q24.5 26.5 37.5 67t13 80.5q0 46 -18.5 72t-50.5 26t-56.5 -27t-37.5 -67.5
t-13 -80.5q0 -46 18 -71.5t51 -25.5q32 0 56.5 26.5zM187.5 630.5q-23.5 23.5 -23.5 56.5q0 34 23.5 57.5t56.5 23.5t57 -23.5t24 -57.5q0 -33 -24 -56.5t-57 -23.5t-56.5 23.5zM394.5 630.5q-23.5 23.5 -23.5 56.5q0 34 23.5 57.5t56.5 23.5t56 -23.5t23 -57.5
q0 -33 -23 -56.5t-56 -23.5t-56.5 23.5z" />
    <glyph glyph-name="aring" unicode="&#xe5;" horiz-adv-x="599" 
d="M583 518l-72 -518h-160v81q-26 -43 -65 -68.5t-89 -25.5q-47 0 -85 25.5t-59.5 74t-21.5 112.5q0 81 30 158t83.5 125.5t121.5 48.5q52 0 85.5 -27.5t48.5 -71.5l12 86h171zM332.5 149.5q24.5 26.5 37.5 67t13 80.5q0 46 -18.5 72t-50.5 26t-56.5 -27t-37.5 -67.5
t-13 -80.5q0 -46 18 -71.5t51 -25.5q32 0 56.5 26.5zM260 616.5q-35 35.5 -35 85.5q0 49 35 84t85 35t85.5 -35t35.5 -84q0 -50 -35.5 -85.5t-85.5 -35.5t-85 35.5zM384.5 660q16.5 17 16.5 42q0 24 -16.5 40.5t-39.5 16.5t-39.5 -16.5t-16.5 -40.5q0 -25 16.5 -42t39.5 -17
t39.5 17z" />
    <glyph glyph-name="ae" unicode="&#xe6;" horiz-adv-x="845" 
d="M482 215l-1 -18q0 -44 18 -68.5t52 -24.5q25 0 45.5 16.5t32.5 43.5l154 -11q-72 -166 -253 -166q-55 0 -95.5 23t-64.5 64q-65 -87 -193 -87q-69 0 -113 37.5t-44 101.5q0 86 60 131.5t163 45.5h102l2 15q3 15 3 31q0 34 -15.5 49.5t-41.5 15.5q-25 0 -45.5 -15
t-31.5 -41l-146 13q28 69 89.5 114.5t150.5 45.5q43 0 78.5 -14t60.5 -40q66 54 157 54q99 0 152.5 -64t53.5 -170q0 -15 -3.5 -39t-7.5 -39h-319v-4zM532 381.5q-26 -29.5 -38 -78.5h166q1 7 1 19q0 89 -67 89q-36 0 -62 -29.5zM293 116q27 28 37 81l1 7l2 15h-71
q-45 0 -68.5 -20.5t-23.5 -58.5q0 -26 16 -39t41 -13q39 0 66 28z" />
    <glyph glyph-name="ccedilla" unicode="&#xe7;" horiz-adv-x="564" 
d="M89 50q-55 63 -55 160q0 91 35 164t102 115t158 42q94 0 149.5 -54.5t59.5 -147.5l-164 -13q-6 79 -65 79q-33 0 -57.5 -27t-37 -68.5t-12.5 -82.5q0 -45 18.5 -69.5t52.5 -24.5q28 0 51 22t35 61l162 -13q-25 -96 -94 -151t-174 -55q-109 0 -164 63zM319 -57.5
q22 -20.5 22 -55.5q0 -45 -32 -73.5t-86 -28.5q-47 0 -84 21l28 55q24 -10 43 -10q17 0 28 11t11 27q0 11 -6.5 17t-16.5 6q-16 0 -31 -13l-23 19l43 108h65l-20 -63h5q32 0 54 -20.5z" />
    <glyph glyph-name="egrave" unicode="&#xe8;" horiz-adv-x="578" 
d="M202 213l-1 -17q0 -44 17.5 -68t51.5 -24q25 0 46 16.5t32 43.5l170 -13q-37 -80 -104.5 -122t-165.5 -42q-66 0 -115 28.5t-74.5 78t-25.5 109.5q0 96 35 170.5t101 116t156 41.5q106 0 163.5 -62t57.5 -168q0 -18 -4 -45.5t-9 -42.5h-331zM250.5 380.5
q-25.5 -30.5 -36.5 -81.5h165q1 8 1 23q0 89 -67 89q-37 0 -62.5 -30.5zM291 760l84 -173h-105l-138 173h159z" />
    <glyph glyph-name="eacute" unicode="&#xe9;" horiz-adv-x="578" 
d="M202 213l-1 -17q0 -44 17.5 -68t51.5 -24q25 0 46 16.5t32 43.5l170 -13q-37 -80 -104.5 -122t-165.5 -42q-66 0 -115 28.5t-74.5 78t-25.5 109.5q0 96 35 170.5t101 116t156 41.5q106 0 163.5 -62t57.5 -168q0 -18 -4 -45.5t-9 -42.5h-331zM250.5 380.5
q-25.5 -30.5 -36.5 -81.5h165q1 8 1 23q0 89 -67 89q-37 0 -62.5 -30.5zM376 587h-105l84 173h159z" />
    <glyph glyph-name="ecircumflex" unicode="&#xea;" horiz-adv-x="578" 
d="M202 213l-1 -17q0 -44 17.5 -68t51.5 -24q25 0 46 16.5t32 43.5l170 -13q-37 -80 -104.5 -122t-165.5 -42q-66 0 -115 28.5t-74.5 78t-25.5 109.5q0 96 35 170.5t101 116t156 41.5q106 0 163.5 -62t57.5 -168q0 -18 -4 -45.5t-9 -42.5h-331zM250.5 380.5
q-25.5 -30.5 -36.5 -81.5h165q1 8 1 23q0 89 -67 89q-37 0 -62.5 -30.5zM394 591l-44 94l-65 -94h-131l152 169h101l105 -169h-118z" />
    <glyph glyph-name="edieresis" unicode="&#xeb;" horiz-adv-x="578" 
d="M202 213l-1 -17q0 -44 17.5 -68t51.5 -24q25 0 46 16.5t32 43.5l170 -13q-37 -80 -104.5 -122t-165.5 -42q-66 0 -115 28.5t-74.5 78t-25.5 109.5q0 96 35 170.5t101 116t156 41.5q106 0 163.5 -62t57.5 -168q0 -18 -4 -45.5t-9 -42.5h-331zM250.5 380.5
q-25.5 -30.5 -36.5 -81.5h165q1 8 1 23q0 89 -67 89q-37 0 -62.5 -30.5zM185.5 630.5q-23.5 23.5 -23.5 56.5q0 34 23.5 57.5t56.5 23.5t57 -23.5t24 -57.5q0 -33 -24 -56.5t-57 -23.5t-56.5 23.5zM392.5 630.5q-23.5 23.5 -23.5 56.5q0 34 23.5 57.5t56.5 23.5t56 -23.5
t23 -57.5q0 -33 -23 -56.5t-56 -23.5t-56.5 23.5z" />
    <glyph glyph-name="igrave" unicode="&#xec;" horiz-adv-x="287" 
d="M94 518h172l-73 -518h-172zM145 760l84 -173h-105l-138 173h159z" />
    <glyph glyph-name="iacute" unicode="&#xed;" horiz-adv-x="287" 
d="M94 518h172l-73 -518h-172zM230 587h-105l84 173h159z" />
    <glyph glyph-name="icircumflex" unicode="&#xee;" horiz-adv-x="287" 
d="M94 518h172l-73 -518h-172zM230 591l-25 113l-53 -113h-122l130 169h100l83 -169h-113z" />
    <glyph glyph-name="idieresis" unicode="&#xef;" horiz-adv-x="287" 
d="M94 518h172l-73 -518h-172zM39.5 630.5q-23.5 23.5 -23.5 56.5q0 34 23.5 57.5t56.5 23.5t57 -23.5t24 -57.5q0 -33 -24 -56.5t-57 -23.5t-56.5 23.5zM246.5 630.5q-23.5 23.5 -23.5 56.5q0 34 23.5 57.5t56.5 23.5t56 -23.5t23 -57.5q0 -33 -23 -56.5t-56 -23.5
t-56.5 23.5z" />
    <glyph glyph-name="eth" unicode="&#xf0;" horiz-adv-x="601" 
d="M529 637q28 -43 41.5 -95t13.5 -107q0 -121 -39.5 -223.5t-115 -163.5t-179.5 -61q-64 0 -114 26.5t-78 74t-28 107.5q0 84 35 150.5t99 104t147 37.5q73 0 114 -27v4q0 61 -22 109l-95 -49l-27 74l74 38q-36 32 -89 43l37 94q106 -13 174 -75l85 44l29 -74zM327.5 148.5
q24.5 25.5 37.5 65t13 77.5q0 43 -19 66.5t-51 23.5q-31 0 -55 -26t-36.5 -65t-12.5 -76q0 -44 18 -67.5t50 -23.5q31 0 55.5 25.5z" />
    <glyph glyph-name="ntilde" unicode="&#xf1;" horiz-adv-x="571" 
d="M504.5 488q32.5 -43 32.5 -113q0 -28 -4 -51l-46 -324h-172l42 296q4 34 4 47q0 29 -11.5 44t-37.5 15q-60 0 -82 -105l-43 -297h-172l74 518h153l6 -70q30 41 70.5 62t87.5 21q66 0 98.5 -43zM361 620.5q-18 8.5 -38 23.5q-29 22 -52 22q-31 0 -60 -38l-54 53
q26 45 62 71t80 26q24 0 43 -9t39 -24q27 -22 51 -22q28 0 60 39l54 -51q-25 -45 -62 -72t-82 -27q-23 0 -41 8.5z" />
    <glyph glyph-name="ograve" unicode="&#xf2;" horiz-adv-x="584" 
d="M89 50q-55 63 -55 160q0 91 35.5 164t102.5 115t158 42q109 0 164.5 -63.5t55.5 -160.5q0 -91 -35.5 -164t-102.5 -114.5t-159 -41.5q-109 0 -164 63zM330 150q24 27 36.5 68.5t12.5 82.5q0 45 -18 69.5t-50 24.5q-33 0 -57 -27.5t-36.5 -68.5t-12.5 -82q0 -45 18 -69.5
t50 -24.5q33 0 57 27zM299 760l84 -173h-105l-138 173h159z" />
    <glyph glyph-name="oacute" unicode="&#xf3;" horiz-adv-x="584" 
d="M89 50q-55 63 -55 160q0 91 35.5 164t102.5 115t158 42q109 0 164.5 -63.5t55.5 -160.5q0 -91 -35.5 -164t-102.5 -114.5t-159 -41.5q-109 0 -164 63zM330 150q24 27 36.5 68.5t12.5 82.5q0 45 -18 69.5t-50 24.5q-33 0 -57 -27.5t-36.5 -68.5t-12.5 -82q0 -45 18 -69.5
t50 -24.5q33 0 57 27zM384 587h-105l84 173h159z" />
    <glyph glyph-name="ocircumflex" unicode="&#xf4;" horiz-adv-x="584" 
d="M89 50q-55 63 -55 160q0 91 35.5 164t102.5 115t158 42q109 0 164.5 -63.5t55.5 -160.5q0 -91 -35.5 -164t-102.5 -114.5t-159 -41.5q-109 0 -164 63zM330 150q24 27 36.5 68.5t12.5 82.5q0 45 -18 69.5t-50 24.5q-33 0 -57 -27.5t-36.5 -68.5t-12.5 -82q0 -45 18 -69.5
t50 -24.5q33 0 57 27zM402 591l-44 94l-65 -94h-131l152 169h101l105 -169h-118z" />
    <glyph glyph-name="otilde" unicode="&#xf5;" horiz-adv-x="584" 
d="M89 50q-55 63 -55 160q0 91 35.5 164t102.5 115t158 42q109 0 164.5 -63.5t55.5 -160.5q0 -91 -35.5 -164t-102.5 -114.5t-159 -41.5q-109 0 -164 63zM330 150q24 27 36.5 68.5t12.5 82.5q0 45 -18 69.5t-50 24.5q-33 0 -57 -27.5t-36.5 -68.5t-12.5 -82q0 -45 18 -69.5
t50 -24.5q33 0 57 27zM365 620.5q-18 8.5 -38 23.5q-29 22 -52 22q-31 0 -60 -38l-54 53q26 45 62 71t80 26q24 0 43 -9t39 -24q27 -22 51 -22q28 0 60 39l54 -51q-25 -45 -62 -72t-82 -27q-23 0 -41 8.5z" />
    <glyph glyph-name="odieresis" unicode="&#xf6;" horiz-adv-x="584" 
d="M89 50q-55 63 -55 160q0 91 35.5 164t102.5 115t158 42q109 0 164.5 -63.5t55.5 -160.5q0 -91 -35.5 -164t-102.5 -114.5t-159 -41.5q-109 0 -164 63zM330 150q24 27 36.5 68.5t12.5 82.5q0 45 -18 69.5t-50 24.5q-33 0 -57 -27.5t-36.5 -68.5t-12.5 -82q0 -45 18 -69.5
t50 -24.5q33 0 57 27zM193.5 630.5q-23.5 23.5 -23.5 56.5q0 34 23.5 57.5t56.5 23.5t57 -23.5t24 -57.5q0 -33 -24 -56.5t-57 -23.5t-56.5 23.5zM400.5 630.5q-23.5 23.5 -23.5 56.5q0 34 23.5 57.5t56.5 23.5t56 -23.5t23 -57.5q0 -33 -23 -56.5t-56 -23.5t-56.5 23.5z
" />
    <glyph glyph-name="divide" unicode="&#xf7;" horiz-adv-x="542" 
d="M235.5 391q-22.5 23 -22.5 56t22.5 56t55.5 23q32 0 55 -23t23 -56q0 -32 -23 -55.5t-55 -23.5q-33 0 -55.5 23zM89 324h383l-17 -115h-382zM199 28q-23 23 -23 55t23 55t56 23q32 0 55 -23t23 -55t-23 -55t-55 -23q-33 0 -56 23z" />
    <glyph glyph-name="oslash" unicode="&#xf8;" horiz-adv-x="584" 
d="M534.5 400q15.5 -43 15.5 -93q0 -91 -35.5 -164t-102.5 -114.5t-159 -41.5q-59 0 -104 20l-20 -27h-82l47 65q-30 30 -45 73t-15 92q0 91 35.5 164t102.5 115t158 42q60 0 103 -20l20 27h82l-47 -64q31 -31 46.5 -74zM197 186l153 210q-18 10 -37 10q-37 0 -64 -29
t-40.5 -73.5t-13.5 -88.5q0 -11 2 -29zM334.5 142q26.5 29 40 73t13.5 88q0 12 -2 30l-153 -210q18 -10 38 -10q37 0 63.5 29z" />
    <glyph glyph-name="ugrave" unicode="&#xf9;" 
d="M550 518l-73 -518h-154l-3 71q-30 -41 -69.5 -62.5t-85.5 -21.5q-65 0 -98 43t-33 113q0 24 4 50l46 325h172l-42 -296q-4 -34 -4 -47q0 -60 49 -60q33 0 52.5 35t27.5 92l39 276h172zM285 760l84 -173h-105l-138 173h159z" />
    <glyph glyph-name="uacute" unicode="&#xfa;" 
d="M550 518l-73 -518h-154l-3 71q-30 -41 -69.5 -62.5t-85.5 -21.5q-65 0 -98 43t-33 113q0 24 4 50l46 325h172l-42 -296q-4 -34 -4 -47q0 -60 49 -60q33 0 52.5 35t27.5 92l39 276h172zM370 587h-105l84 173h159z" />
    <glyph glyph-name="ucircumflex" unicode="&#xfb;" 
d="M550 518l-73 -518h-154l-3 71q-30 -41 -69.5 -62.5t-85.5 -21.5q-65 0 -98 43t-33 113q0 24 4 50l46 325h172l-42 -296q-4 -34 -4 -47q0 -60 49 -60q33 0 52.5 35t27.5 92l39 276h172zM388 591l-44 94l-65 -94h-131l152 169h101l105 -169h-118z" />
    <glyph glyph-name="udieresis" unicode="&#xfc;" 
d="M550 518l-73 -518h-154l-3 71q-30 -41 -69.5 -62.5t-85.5 -21.5q-65 0 -98 43t-33 113q0 24 4 50l46 325h172l-42 -296q-4 -34 -4 -47q0 -60 49 -60q33 0 52.5 35t27.5 92l39 276h172zM179.5 630.5q-23.5 23.5 -23.5 56.5q0 34 23.5 57.5t56.5 23.5t57 -23.5t24 -57.5
q0 -33 -24 -56.5t-57 -23.5t-56.5 23.5zM386.5 630.5q-23.5 23.5 -23.5 56.5q0 34 23.5 57.5t56.5 23.5t56 -23.5t23 -57.5q0 -33 -23 -56.5t-56 -23.5t-56.5 23.5z" />
    <glyph glyph-name="yacute" unicode="&#xfd;" 
d="M550 518l-68 -481q-17 -129 -88 -190.5t-185 -61.5q-90 0 -140.5 39.5t-66.5 109.5l172 17q3 -27 15 -39.5t36 -12.5q36 0 55.5 32t28.5 99l7 46q-30 -36 -67.5 -55.5t-80.5 -19.5q-67 0 -99.5 43t-32.5 113q0 27 4 50l44 311h172l-40 -283q-4 -23 -4 -46q0 -29 11.5 -44
t38.5 -15q55 0 77 109l39 279h172zM374 587h-105l84 173h159z" />
    <glyph glyph-name="thorn" unicode="&#xfe;" horiz-adv-x="599" 
d="M490 505.5q36 -25.5 56.5 -73t20.5 -110.5q0 -83 -30 -160.5t-84.5 -126t-123.5 -48.5q-48 0 -81.5 25t-48.5 70l-40 -283h-172l135 961h172l-46 -327q29 47 70 72.5t89 25.5q47 0 83 -25.5zM341 150q24 27 37 68t13 80q0 46 -18 71.5t-51 25.5q-32 0 -56 -26.5
t-37 -67.5t-13 -81q0 -44 18.5 -70.5t49.5 -26.5q33 0 57 27z" />
    <glyph glyph-name="ydieresis" unicode="&#xff;" 
d="M550 518l-68 -481q-17 -129 -88 -190.5t-185 -61.5q-90 0 -140.5 39.5t-66.5 109.5l172 17q3 -27 15 -39.5t36 -12.5q36 0 55.5 32t28.5 99l7 46q-30 -36 -67.5 -55.5t-80.5 -19.5q-67 0 -99.5 43t-32.5 113q0 27 4 50l44 311h172l-40 -283q-4 -23 -4 -46q0 -29 11.5 -44
t38.5 -15q55 0 77 109l39 279h172zM183.5 630.5q-23.5 23.5 -23.5 56.5q0 34 23.5 57.5t56.5 23.5t57 -23.5t24 -57.5q0 -33 -24 -56.5t-57 -23.5t-56.5 23.5zM390.5 630.5q-23.5 23.5 -23.5 56.5q0 34 23.5 57.5t56.5 23.5t56 -23.5t23 -57.5q0 -33 -23 -56.5t-56 -23.5
t-56.5 23.5z" />
    <glyph glyph-name="Amacron" unicode="&#x100;" horiz-adv-x="618" 
d="M396 110h-204l-38 -110h-192l316 760h203l101 -760h-178zM387 239l-25 362l-125 -362h150zM282 985h257l-12 -91h-257z" />
    <glyph glyph-name="amacron" unicode="&#x101;" horiz-adv-x="599" 
d="M583 518l-72 -518h-160v81q-26 -43 -65 -68.5t-89 -25.5q-47 0 -85 25.5t-59.5 74t-21.5 112.5q0 81 30 158t83.5 125.5t121.5 48.5q52 0 85.5 -27.5t48.5 -71.5l12 86h171zM332.5 149.5q24.5 26.5 37.5 67t13 80.5q0 46 -18.5 72t-50.5 26t-56.5 -27t-37.5 -67.5
t-13 -80.5q0 -46 18 -71.5t51 -25.5q32 0 56.5 26.5zM227 743h257l-12 -91h-257z" />
    <glyph glyph-name="Abreve" unicode="&#x102;" horiz-adv-x="618" 
d="M396 110h-204l-38 -110h-192l316 760h203l101 -760h-178zM387 239l-25 362l-125 -362h150zM298.5 876q-36.5 45 -36.5 126h92q0 -42 13 -61t41 -19q27 0 43 19.5t23 60.5h91q-11 -90 -55 -130.5t-111 -40.5q-64 0 -100.5 45z" />
    <glyph glyph-name="abreve" unicode="&#x103;" horiz-adv-x="599" 
d="M583 518l-72 -518h-160v81q-26 -43 -65 -68.5t-89 -25.5q-47 0 -85 25.5t-59.5 74t-21.5 112.5q0 81 30 158t83.5 125.5t121.5 48.5q52 0 85.5 -27.5t48.5 -71.5l12 86h171zM332.5 149.5q24.5 26.5 37.5 67t13 80.5q0 46 -18.5 72t-50.5 26t-56.5 -27t-37.5 -67.5
t-13 -80.5q0 -46 18 -71.5t51 -25.5q32 0 56.5 26.5zM243.5 634q-36.5 45 -36.5 126h92q0 -42 13 -61t41 -19q27 0 43 19.5t23 60.5h91q-11 -90 -55 -130.5t-111 -40.5q-64 0 -100.5 45z" />
    <glyph glyph-name="Aogonek" unicode="&#x104;" horiz-adv-x="618" 
d="M396 110h-204l-38 -110h-192l316 760h203l101 -760h-178zM387 239l-25 362l-125 -362h150zM425 -23.5q-20 -20.5 -20 -53.5q0 -23 15 -36t42 -13q16 0 39 6l-8 -82q-37 -13 -75 -13q-46 0 -76.5 29.5t-30.5 71.5q0 64 44.5 108t115.5 52l3 -39q-29 -10 -49 -30.5z" />
    <glyph glyph-name="aogonek" unicode="&#x105;" horiz-adv-x="599" 
d="M583 518l-72 -518h-160v81q-26 -43 -65 -68.5t-89 -25.5q-47 0 -85 25.5t-59.5 74t-21.5 112.5q0 81 30 158t83.5 125.5t121.5 48.5q52 0 85.5 -27.5t48.5 -71.5l12 86h171zM332.5 149.5q24.5 26.5 37.5 67t13 80.5q0 46 -18.5 72t-50.5 26t-56.5 -27t-37.5 -67.5
t-13 -80.5q0 -46 18 -71.5t51 -25.5q32 0 56.5 26.5zM398 -23.5q-20 -20.5 -20 -53.5q0 -23 15 -36t42 -13q16 0 39 6l-8 -82q-37 -13 -75 -13q-46 0 -76.5 29.5t-30.5 71.5q0 64 44.5 108t115.5 52l3 -39q-29 -10 -49 -30.5z" />
    <glyph glyph-name="Cacute" unicode="&#x106;" horiz-adv-x="726" 
d="M640.5 694.5q73.5 -78.5 84.5 -213.5l-187 -15q-10 145 -116 145q-59 0 -103 -43.5t-66.5 -111.5t-22.5 -138q0 -82 32.5 -125.5t91.5 -43.5q54 0 97 40t66 106l179 -15q-43 -137 -136.5 -215t-224.5 -78q-90 0 -155 40.5t-99 113.5t-34 169q0 123 49 229t139 170t207 64
q125 0 198.5 -78.5zM499 829h-105l84 173h159z" />
    <glyph glyph-name="cacute" unicode="&#x107;" horiz-adv-x="564" 
d="M89 50q-55 63 -55 160q0 91 35 164t102 115t158 42q94 0 149.5 -54.5t59.5 -147.5l-164 -13q-6 79 -65 79q-33 0 -57.5 -27t-37 -68.5t-12.5 -82.5q0 -45 18.5 -69.5t52.5 -24.5q28 0 51 22t35 61l162 -13q-25 -96 -94 -151t-174 -55q-109 0 -164 63zM377 587h-105
l84 173h159z" />
    <glyph glyph-name="Ccircumflex" unicode="&#x108;" horiz-adv-x="726" 
d="M640.5 694.5q73.5 -78.5 84.5 -213.5l-187 -15q-10 145 -116 145q-59 0 -103 -43.5t-66.5 -111.5t-22.5 -138q0 -82 32.5 -125.5t91.5 -43.5q54 0 97 40t66 106l179 -15q-43 -137 -136.5 -215t-224.5 -78q-90 0 -155 40.5t-99 113.5t-34 169q0 123 49 229t139 170t207 64
q125 0 198.5 -78.5zM517 833l-44 94l-65 -94h-131l152 169h101l105 -169h-118z" />
    <glyph glyph-name="ccircumflex" unicode="&#x109;" horiz-adv-x="564" 
d="M89 50q-55 63 -55 160q0 91 35 164t102 115t158 42q94 0 149.5 -54.5t59.5 -147.5l-164 -13q-6 79 -65 79q-33 0 -57.5 -27t-37 -68.5t-12.5 -82.5q0 -45 18.5 -69.5t52.5 -24.5q28 0 51 22t35 61l162 -13q-25 -96 -94 -151t-174 -55q-109 0 -164 63zM395 591l-44 94
l-65 -94h-131l152 169h101l105 -169h-118z" />
    <glyph glyph-name="Cdotaccent" unicode="&#x10a;" horiz-adv-x="726" 
d="M640.5 694.5q73.5 -78.5 84.5 -213.5l-187 -15q-10 145 -116 145q-59 0 -103 -43.5t-66.5 -111.5t-22.5 -138q0 -82 32.5 -125.5t91.5 -43.5q54 0 97 40t66 106l179 -15q-43 -137 -136.5 -215t-224.5 -78q-90 0 -155 40.5t-99 113.5t-34 169q0 123 49 229t139 170t207 64
q125 0 198.5 -78.5zM394 867.5q-27 26.5 -27 64.5t27 65t65 27q37 0 63.5 -27t26.5 -65t-26.5 -64.5t-63.5 -26.5q-38 0 -65 26.5z" />
    <glyph glyph-name="cdotaccent" unicode="&#x10b;" horiz-adv-x="564" 
d="M89 50q-55 63 -55 160q0 91 35 164t102 115t158 42q94 0 149.5 -54.5t59.5 -147.5l-164 -13q-6 79 -65 79q-33 0 -57.5 -27t-37 -68.5t-12.5 -82.5q0 -45 18.5 -69.5t52.5 -24.5q28 0 51 22t35 61l162 -13q-25 -96 -94 -151t-174 -55q-109 0 -164 63zM272 625.5
q-27 26.5 -27 64.5t27 65t65 27q37 0 63.5 -27t26.5 -65t-26.5 -64.5t-63.5 -26.5q-38 0 -65 26.5z" />
    <glyph glyph-name="Ccaron" unicode="&#x10c;" horiz-adv-x="726" 
d="M640.5 694.5q73.5 -78.5 84.5 -213.5l-187 -15q-10 145 -116 145q-59 0 -103 -43.5t-66.5 -111.5t-22.5 -138q0 -82 32.5 -125.5t91.5 -43.5q54 0 97 40t66 106l179 -15q-43 -137 -136.5 -215t-224.5 -78q-90 0 -155 40.5t-99 113.5t-34 169q0 123 49 229t139 170t207 64
q125 0 198.5 -78.5zM647 1002l-152 -169h-101l-105 169h118l44 -94l65 94h131z" />
    <glyph glyph-name="ccaron" unicode="&#x10d;" horiz-adv-x="564" 
d="M89 50q-55 63 -55 160q0 91 35 164t102 115t158 42q94 0 149.5 -54.5t59.5 -147.5l-164 -13q-6 79 -65 79q-33 0 -57.5 -27t-37 -68.5t-12.5 -82.5q0 -45 18.5 -69.5t52.5 -24.5q28 0 51 22t35 61l162 -13q-25 -96 -94 -151t-174 -55q-109 0 -164 63zM525 760l-152 -169
h-101l-105 169h118l44 -94l65 94h131z" />
    <glyph glyph-name="Dcaron" unicode="&#x10e;" horiz-adv-x="687" 
d="M529.5 720.5q68.5 -39.5 106.5 -110t38 -161.5q0 -120 -50.5 -222.5t-144 -164.5t-214.5 -62h-245l107 760h246q88 0 156.5 -39.5zM392 190q48 44 73 112.5t25 139.5q0 85 -34.5 128.5t-101.5 43.5h-69l-65 -468h60q64 0 112 44zM566 1002l-152 -169h-101l-105 169h118
l44 -94l65 94h131z" />
    <glyph glyph-name="dcaron" unicode="&#x10f;" horiz-adv-x="788" 
d="M446 760h172l-107 -760h-160v81q-26 -43 -65 -68.5t-89 -25.5q-47 0 -85 25.5t-59.5 74t-21.5 112.5q0 80 29.5 157t83.5 126t121 49q52 0 86 -27.5t49 -71.5zM848 760l-92 -173h-91l31 173h152zM332.5 150.5q24.5 26.5 37.5 67t13 79.5q0 46 -18.5 72t-50.5 26
t-56.5 -26.5t-37.5 -67.5t-13 -81q0 -46 18 -71t51 -25q32 0 56.5 26.5z" />
    <glyph glyph-name="Dcroat" unicode="&#x110;" horiz-adv-x="718" 
d="M560.5 720.5q68.5 -39.5 106.5 -110t38 -161.5q0 -120 -50.5 -222.5t-144 -164.5t-214.5 -62h-245l47 336h-80l18 122h79l43 302h246q88 0 156.5 -39.5zM423 190q48 44 73 112.5t25 139.5q0 85 -34.5 128.5t-101.5 43.5h-69l-22 -156h120l-18 -122h-119l-26 -190h60
q64 0 112 44z" />
    <glyph glyph-name="dcroat" unicode="&#x111;" horiz-adv-x="613" 
d="M660 594h-65l-84 -594h-160v81q-26 -43 -65 -68.5t-89 -25.5q-47 0 -85 25.5t-59.5 74t-21.5 112.5q0 80 29.5 157t83.5 126t121 49q52 0 86 -27.5t49 -71.5l23 162h-164l13 95h164l10 71h172l-10 -71h66zM332.5 150.5q24.5 26.5 37.5 67t13 79.5q0 46 -18.5 72t-50.5 26
t-56.5 -26.5t-37.5 -67.5t-13 -81q0 -46 18 -71t51 -25q32 0 56.5 26.5z" />
    <glyph glyph-name="Emacron" unicode="&#x112;" horiz-adv-x="502" 
d="M285 614l-21 -150h214l-20 -140h-213l-25 -178h224l-21 -146h-403l107 760h402l-21 -146h-223zM232 985h257l-12 -91h-257z" />
    <glyph glyph-name="emacron" unicode="&#x113;" horiz-adv-x="578" 
d="M202 213l-1 -17q0 -44 17.5 -68t51.5 -24q25 0 46 16.5t32 43.5l170 -13q-37 -80 -104.5 -122t-165.5 -42q-66 0 -115 28.5t-74.5 78t-25.5 109.5q0 96 35 170.5t101 116t156 41.5q106 0 163.5 -62t57.5 -168q0 -18 -4 -45.5t-9 -42.5h-331zM250.5 380.5
q-25.5 -30.5 -36.5 -81.5h165q1 8 1 23q0 89 -67 89q-37 0 -62.5 -30.5zM225 743h257l-12 -91h-257z" />
    <glyph glyph-name="Ebreve" unicode="&#x114;" horiz-adv-x="502" 
d="M285 614l-21 -150h214l-20 -140h-213l-25 -178h224l-21 -146h-403l107 760h402l-21 -146h-223zM248.5 876q-36.5 45 -36.5 126h92q0 -42 13 -61t41 -19q27 0 43 19.5t23 60.5h91q-11 -90 -55 -130.5t-111 -40.5q-64 0 -100.5 45z" />
    <glyph glyph-name="ebreve" unicode="&#x115;" horiz-adv-x="578" 
d="M202 213l-1 -17q0 -44 17.5 -68t51.5 -24q25 0 46 16.5t32 43.5l170 -13q-37 -80 -104.5 -122t-165.5 -42q-66 0 -115 28.5t-74.5 78t-25.5 109.5q0 96 35 170.5t101 116t156 41.5q106 0 163.5 -62t57.5 -168q0 -18 -4 -45.5t-9 -42.5h-331zM250.5 380.5
q-25.5 -30.5 -36.5 -81.5h165q1 8 1 23q0 89 -67 89q-37 0 -62.5 -30.5zM241.5 634q-36.5 45 -36.5 126h92q0 -42 13 -61t41 -19q27 0 43 19.5t23 60.5h91q-11 -90 -55 -130.5t-111 -40.5q-64 0 -100.5 45z" />
    <glyph glyph-name="Edotaccent" unicode="&#x116;" horiz-adv-x="502" 
d="M285 614l-21 -150h214l-20 -140h-213l-25 -178h224l-21 -146h-403l107 760h402l-21 -146h-223zM278 867.5q-27 26.5 -27 64.5t27 65t65 27q37 0 63.5 -27t26.5 -65t-26.5 -64.5t-63.5 -26.5q-38 0 -65 26.5z" />
    <glyph glyph-name="edotaccent" unicode="&#x117;" horiz-adv-x="578" 
d="M202 213l-1 -17q0 -44 17.5 -68t51.5 -24q25 0 46 16.5t32 43.5l170 -13q-37 -80 -104.5 -122t-165.5 -42q-66 0 -115 28.5t-74.5 78t-25.5 109.5q0 96 35 170.5t101 116t156 41.5q106 0 163.5 -62t57.5 -168q0 -18 -4 -45.5t-9 -42.5h-331zM250.5 380.5
q-25.5 -30.5 -36.5 -81.5h165q1 8 1 23q0 89 -67 89q-37 0 -62.5 -30.5zM271 625.5q-27 26.5 -27 64.5t27 65t65 27q37 0 63.5 -27t26.5 -65t-26.5 -64.5t-63.5 -26.5q-38 0 -65 26.5z" />
    <glyph glyph-name="Eogonek" unicode="&#x118;" horiz-adv-x="502" 
d="M285 614l-21 -150h214l-20 -140h-213l-25 -178h224l-21 -146h-403l107 760h402l-21 -146h-223zM335 -23.5q-20 -20.5 -20 -53.5q0 -23 15 -36t42 -13q16 0 39 6l-8 -82q-37 -13 -75 -13q-46 0 -76.5 29.5t-30.5 71.5q0 64 44.5 108t115.5 52l3 -39q-29 -10 -49 -30.5z
" />
    <glyph glyph-name="eogonek" unicode="&#x119;" horiz-adv-x="578" 
d="M202 213l-1 -17q0 -44 17.5 -68t51.5 -24q25 0 46 16.5t32 43.5l170 -13q-37 -80 -104.5 -122t-165.5 -42q-66 0 -115 28.5t-74.5 78t-25.5 109.5q0 96 35 170.5t101 116t156 41.5q106 0 163.5 -62t57.5 -168q0 -18 -4 -45.5t-9 -42.5h-331zM250.5 380.5
q-25.5 -30.5 -36.5 -81.5h165q1 8 1 23q0 89 -67 89q-37 0 -62.5 -30.5zM315 -23.5q-20 -20.5 -20 -53.5q0 -23 15 -36t42 -13q16 0 39 6l-8 -82q-37 -13 -75 -13q-46 0 -76.5 29.5t-30.5 71.5q0 64 44.5 108t115.5 52l3 -39q-29 -10 -49 -30.5z" />
    <glyph glyph-name="Ecaron" unicode="&#x11a;" horiz-adv-x="502" 
d="M285 614l-21 -150h214l-20 -140h-213l-25 -178h224l-21 -146h-403l107 760h402l-21 -146h-223zM531 1002l-152 -169h-101l-105 169h118l44 -94l65 94h131z" />
    <glyph glyph-name="ecaron" unicode="&#x11b;" horiz-adv-x="578" 
d="M202 213l-1 -17q0 -44 17.5 -68t51.5 -24q25 0 46 16.5t32 43.5l170 -13q-37 -80 -104.5 -122t-165.5 -42q-66 0 -115 28.5t-74.5 78t-25.5 109.5q0 96 35 170.5t101 116t156 41.5q106 0 163.5 -62t57.5 -168q0 -18 -4 -45.5t-9 -42.5h-331zM250.5 380.5
q-25.5 -30.5 -36.5 -81.5h165q1 8 1 23q0 89 -67 89q-37 0 -62.5 -30.5zM524 760l-152 -169h-101l-105 169h118l44 -94l65 94h131z" />
    <glyph glyph-name="Gcircumflex" unicode="&#x11c;" horiz-adv-x="719" 
d="M380 423h313l-45 -326q-59 -48 -138.5 -79t-166.5 -31q-94 0 -161 41t-101 114t-34 168q0 123 49 229t137.5 170t202.5 64q124 0 191.5 -70t85.5 -173l-191 -15q-7 39 -34.5 67.5t-74.5 28.5q-55 0 -97 -44.5t-64 -112.5t-22 -137q0 -177 137 -177q69 0 129 42l15 114
h-149zM507 833l-44 94l-65 -94h-131l152 169h101l105 -169h-118z" />
    <glyph glyph-name="gcircumflex" unicode="&#x11d;" horiz-adv-x="600" 
d="M584 518l-67 -477q-18 -128 -89.5 -192t-192.5 -64q-93 0 -147 40.5t-68 109.5l173 16q12 -52 57 -52q38 0 61 30.5t30 87.5l10 72q-26 -42 -64.5 -66.5t-88.5 -24.5q-47 0 -85 25.5t-59.5 72.5t-21.5 108q0 79 30 155t83.5 124t119.5 48q52 0 86 -27.5t49 -70.5l23 85
h161zM333 152.5q24 26.5 37 67t13 79.5q0 44 -18.5 70t-50.5 26t-56.5 -25.5t-37 -65.5t-12.5 -81q0 -47 17.5 -72t51.5 -25q32 0 56 26.5zM404 591l-44 94l-65 -94h-131l152 169h101l105 -169h-118z" />
    <glyph glyph-name="Gbreve" unicode="&#x11e;" horiz-adv-x="719" 
d="M380 423h313l-45 -326q-59 -48 -138.5 -79t-166.5 -31q-94 0 -161 41t-101 114t-34 168q0 123 49 229t137.5 170t202.5 64q124 0 191.5 -70t85.5 -173l-191 -15q-7 39 -34.5 67.5t-74.5 28.5q-55 0 -97 -44.5t-64 -112.5t-22 -137q0 -177 137 -177q69 0 129 42l15 114
h-149zM354.5 876q-36.5 45 -36.5 126h92q0 -42 13 -61t41 -19q27 0 43 19.5t23 60.5h91q-11 -90 -55 -130.5t-111 -40.5q-64 0 -100.5 45z" />
    <glyph glyph-name="gbreve" unicode="&#x11f;" horiz-adv-x="600" 
d="M584 518l-67 -477q-18 -128 -89.5 -192t-192.5 -64q-93 0 -147 40.5t-68 109.5l173 16q12 -52 57 -52q38 0 61 30.5t30 87.5l10 72q-26 -42 -64.5 -66.5t-88.5 -24.5q-47 0 -85 25.5t-59.5 72.5t-21.5 108q0 79 30 155t83.5 124t119.5 48q52 0 86 -27.5t49 -70.5l23 85
h161zM333 152.5q24 26.5 37 67t13 79.5q0 44 -18.5 70t-50.5 26t-56.5 -25.5t-37 -65.5t-12.5 -81q0 -47 17.5 -72t51.5 -25q32 0 56 26.5zM251.5 634q-36.5 45 -36.5 126h92q0 -42 13 -61t41 -19q27 0 43 19.5t23 60.5h91q-11 -90 -55 -130.5t-111 -40.5q-64 0 -100.5 45z
" />
    <glyph glyph-name="Gdotaccent" unicode="&#x120;" horiz-adv-x="719" 
d="M380 423h313l-45 -326q-59 -48 -138.5 -79t-166.5 -31q-94 0 -161 41t-101 114t-34 168q0 123 49 229t137.5 170t202.5 64q124 0 191.5 -70t85.5 -173l-191 -15q-7 39 -34.5 67.5t-74.5 28.5q-55 0 -97 -44.5t-64 -112.5t-22 -137q0 -177 137 -177q69 0 129 42l15 114
h-149zM384 867.5q-27 26.5 -27 64.5t27 65t65 27q37 0 63.5 -27t26.5 -65t-26.5 -64.5t-63.5 -26.5q-38 0 -65 26.5z" />
    <glyph glyph-name="gdotaccent" unicode="&#x121;" horiz-adv-x="600" 
d="M584 518l-67 -477q-18 -128 -89.5 -192t-192.5 -64q-93 0 -147 40.5t-68 109.5l173 16q12 -52 57 -52q38 0 61 30.5t30 87.5l10 72q-26 -42 -64.5 -66.5t-88.5 -24.5q-47 0 -85 25.5t-59.5 72.5t-21.5 108q0 79 30 155t83.5 124t119.5 48q52 0 86 -27.5t49 -70.5l23 85
h161zM333 152.5q24 26.5 37 67t13 79.5q0 44 -18.5 70t-50.5 26t-56.5 -25.5t-37 -65.5t-12.5 -81q0 -47 17.5 -72t51.5 -25q32 0 56 26.5zM281 625.5q-27 26.5 -27 64.5t27 65t65 27q37 0 63.5 -27t26.5 -65t-26.5 -64.5t-63.5 -26.5q-38 0 -65 26.5z" />
    <glyph glyph-name="Gcommaaccent" unicode="&#x122;" horiz-adv-x="719" 
d="M380 423h313l-45 -326q-59 -48 -138.5 -79t-166.5 -31q-94 0 -161 41t-101 114t-34 168q0 123 49 229t137.5 170t202.5 64q124 0 191.5 -70t85.5 -173l-191 -15q-7 39 -34.5 67.5t-74.5 28.5q-55 0 -97 -44.5t-64 -112.5t-22 -137q0 -177 137 -177q69 0 129 42l15 114
h-149zM306 -220h-104l72 156h158z" />
    <glyph glyph-name="gcommaaccent" unicode="&#x123;" horiz-adv-x="600" 
d="M584 518l-67 -477q-18 -128 -89.5 -192t-192.5 -64q-93 0 -147 40.5t-68 109.5l173 16q12 -52 57 -52q38 0 61 30.5t30 87.5l10 72q-26 -42 -64.5 -66.5t-88.5 -24.5q-47 0 -85 25.5t-59.5 72.5t-21.5 108q0 79 30 155t83.5 124t119.5 48q52 0 86 -27.5t49 -70.5l23 85
h161zM333 152.5q24 26.5 37 67t13 79.5q0 44 -18.5 70t-50.5 26t-56.5 -25.5t-37 -65.5t-12.5 -81q0 -47 17.5 -72t51.5 -25q32 0 56 26.5zM391 758h104l-72 -156h-158z" />
    <glyph glyph-name="Hcircumflex" unicode="&#x124;" horiz-adv-x="653" 
d="M666 760l-107 -760h-178l45 320h-182l-45 -320h-179l107 760h179l-41 -294h182l41 294h178zM468 833l-44 94l-65 -94h-131l152 169h101l105 -169h-118z" />
    <glyph glyph-name="hcircumflex" unicode="&#x125;" horiz-adv-x="570" 
d="M503.5 488q32.5 -43 32.5 -113q0 -25 -3 -51l-46 -324h-172l41 296q4 34 4 47q0 29 -11.5 44t-37.5 15q-62 0 -84 -116l-40 -286h-172l107 760h172l-43 -307q30 38 69.5 58t84.5 20q66 0 98.5 -43zM446 833l-44 94l-65 -94h-131l152 169h101l105 -169h-118z" />
    <glyph glyph-name="Hbar" unicode="&#x126;" horiz-adv-x="699" 
d="M732 545h-71l-77 -545h-178l45 320h-182l-45 -320h-179l77 545h-76l18 122h75l13 93h179l-13 -93h182l13 93h178l-13 -93h72zM483 545h-182l-11 -79h182z" />
    <glyph glyph-name="hbar" unicode="&#x127;" horiz-adv-x="601" 
d="M533.5 488q32.5 -43 32.5 -113q0 -25 -3 -51l-46 -324h-172l41 296q4 34 4 47q0 29 -11.5 44t-37.5 15q-62 0 -84 -116l-40 -286h-172l84 594h-82l14 95h81l10 71h172l-10 -71h149l-14 -95h-148l-20 -141q30 38 69.5 58t84.5 20q66 0 98.5 -43z" />
    <glyph glyph-name="Itilde" unicode="&#x128;" horiz-adv-x="292" 
d="M127 760h179l-107 -760h-179zM252 862.5q-18 8.5 -38 23.5q-29 22 -52 22q-31 0 -60 -38l-54 53q26 45 62 71t80 26q24 0 43 -9t39 -24q27 -22 51 -22q28 0 60 39l54 -51q-25 -45 -62 -72t-82 -27q-23 0 -41 8.5z" />
    <glyph glyph-name="itilde" unicode="&#x129;" horiz-adv-x="287" 
d="M94 518h172l-73 -518h-172zM211 620.5q-18 8.5 -38 23.5q-29 22 -52 22q-31 0 -60 -38l-54 53q26 45 62 71t80 26q24 0 43 -9t39 -24q27 -22 51 -22q28 0 60 39l54 -51q-25 -45 -62 -72t-82 -27q-23 0 -41 8.5z" />
    <glyph glyph-name="Imacron" unicode="&#x12a;" horiz-adv-x="292" 
d="M127 760h179l-107 -760h-179zM120 985h257l-12 -91h-257z" />
    <glyph glyph-name="imacron" unicode="&#x12b;" horiz-adv-x="287" 
d="M94 518h172l-73 -518h-172zM79 743h257l-12 -91h-257z" />
    <glyph glyph-name="Ibreve" unicode="&#x12c;" horiz-adv-x="292" 
d="M127 760h179l-107 -760h-179zM136.5 876q-36.5 45 -36.5 126h92q0 -42 13 -61t41 -19q27 0 43 19.5t23 60.5h91q-11 -90 -55 -130.5t-111 -40.5q-64 0 -100.5 45z" />
    <glyph glyph-name="ibreve" unicode="&#x12d;" horiz-adv-x="287" 
d="M94 518h172l-73 -518h-172zM95.5 634q-36.5 45 -36.5 126h92q0 -42 13 -61t41 -19q27 0 43 19.5t23 60.5h91q-11 -90 -55 -130.5t-111 -40.5q-64 0 -100.5 45z" />
    <glyph glyph-name="Iogonek" unicode="&#x12e;" horiz-adv-x="292" 
d="M127 760h179l-107 -760h-179zM51 -23.5q-20 -20.5 -20 -53.5q0 -23 15 -36t42 -13q16 0 39 6l-8 -82q-37 -13 -75 -13q-46 0 -76.5 29.5t-30.5 71.5q0 64 44.5 108t115.5 52l3 -39q-29 -10 -49 -30.5z" />
    <glyph glyph-name="iogonek" unicode="&#x12f;" horiz-adv-x="287" 
d="M94 518h172l-73 -518h-172zM125 625.5q-27 26.5 -27 64.5t27 65t65 27q37 0 63.5 -27t26.5 -65t-26.5 -64.5t-63.5 -26.5q-38 0 -65 26.5zM51 -23.5q-20 -20.5 -20 -53.5q0 -23 15 -36t42 -13q16 0 39 6l-8 -82q-37 -13 -75 -13q-46 0 -76.5 29.5t-30.5 71.5
q0 64 44.5 108t115.5 52l3 -39q-29 -10 -49 -30.5z" />
    <glyph glyph-name="Idotaccent" unicode="&#x130;" horiz-adv-x="292" 
d="M127 760h179l-107 -760h-179zM166 867.5q-27 26.5 -27 64.5t27 65t65 27q37 0 63.5 -27t26.5 -65t-26.5 -64.5t-63.5 -26.5q-38 0 -65 26.5z" />
    <glyph glyph-name="dotlessi" unicode="&#x131;" horiz-adv-x="287" 
d="M94 518h172l-73 -518h-172z" />
    <glyph glyph-name="IJ" unicode="&#x132;" horiz-adv-x="666" 
d="M127 760h179l-69 -494h-178zM244 1.5q-44 14.5 -70 34.5l73 133q35 -26 82 -26q39 0 69.5 35t39.5 100l68 482h179l-68 -482q-20 -143 -96 -217t-187 -74q-46 0 -90 14.5z" />
    <glyph glyph-name="ij" unicode="&#x133;" horiz-adv-x="579" 
d="M137.5 623q-28.5 29 -28.5 69q0 41 28.5 69.5t68.5 28.5q41 0 69.5 -28.5t28.5 -69.5q0 -40 -28.5 -69t-69.5 -29q-40 0 -68.5 29zM96 518h172l-73 -518h-172zM426 623q-29 29 -29 69q0 41 28.5 69.5t69.5 28.5q40 0 68.5 -28.5t28.5 -69.5q0 -40 -28.5 -69t-68.5 -29
t-69 29zM224 -210q-29 5 -53 13l28 125q24 -8 49 -8q31 0 45.5 19t20.5 66l72 513h171l-76 -536q-15 -107 -63.5 -152t-138.5 -45q-26 0 -55 5z" />
    <glyph glyph-name="Jcircumflex" unicode="&#x134;" horiz-adv-x="596" 
d="M135 18q-50 31 -79 90t-29 139l180 12q-1 -6 -1 -19q0 -45 18 -68t47 -23q37 0 62 31.5t34 93.5l69 486h178l-68 -479q-22 -153 -99.5 -223.5t-199.5 -70.5q-62 0 -112 31zM579 833l-25 113l-53 -113h-122l130 169h100l83 -169h-113z" />
    <glyph glyph-name="jcircumflex" unicode="&#x135;" horiz-adv-x="287" 
d="M-67 -210q-29 5 -53 13l28 125q24 -8 49 -8q31 0 45.5 19t20.5 66l72 513h171l-76 -536q-15 -107 -63.5 -152t-138.5 -45q-26 0 -55 5zM232 591l-25 113l-53 -113h-122l130 169h100l83 -169h-113z" />
    <glyph glyph-name="Kcommaaccent" unicode="&#x136;" horiz-adv-x="606" 
d="M413 444l164 -444h-173l-99 312l-78 -96l-30 -216h-177l107 760h177l-41 -292l212 292h195zM230 -220h-104l72 156h158z" />
    <glyph glyph-name="kcommaaccent" unicode="&#x137;" horiz-adv-x="527" 
d="M354 302l141 -302h-167l-76 198l-47 -49l-21 -149h-169l107 760h169l-56 -400l140 158h191zM182 -220h-104l72 156h158z" />
    <glyph glyph-name="kgreenlandic" unicode="&#x138;" horiz-adv-x="517" 
d="M426 376q-18 -9 -40 -32l-30 -32l134 -312h-167l-69 207l-47 -49l-22 -158h-170l74 518h169l-21 -148l59 67q41 46 81 63.5t101 17.5h41l-19 -133h-31q-25 0 -43 -9z" />
    <glyph glyph-name="Lacute" unicode="&#x139;" horiz-adv-x="458" 
d="M425 146l-20 -146h-385l107 760h179l-86 -614h205zM276 829h-105l84 173h159z" />
    <glyph glyph-name="lacute" unicode="&#x13a;" horiz-adv-x="322" 
d="M83 24.5q-43 37.5 -43 116.5q0 35 5 64l78 555h170l-78 -556q-3 -15 -3 -28q0 -29 13.5 -41.5t44.5 -12.5h12l-9 -131q-20 -4 -58 -4q-89 0 -132 37.5zM264 829h-105l84 173h159z" />
    <glyph glyph-name="Lcommaaccent" unicode="&#x13b;" horiz-adv-x="458" 
d="M425 146l-20 -146h-385l107 760h179l-86 -614h205zM164 -220h-104l72 156h158z" />
    <glyph glyph-name="lcommaaccent" unicode="&#x13c;" horiz-adv-x="322" 
d="M83 24.5q-43 37.5 -43 116.5q0 35 5 64l78 555h170l-78 -556q-3 -15 -3 -28q0 -29 13.5 -41.5t44.5 -12.5h12l-9 -131q-20 -4 -58 -4q-89 0 -132 37.5zM97 -220h-104l72 156h158z" />
    <glyph glyph-name="Lcaron" unicode="&#x13d;" horiz-adv-x="506" 
d="M220 146h205l-20 -146h-385l107 760h179zM550 760l-94 -190h-88l33 190h149z" />
    <glyph glyph-name="lcaron" unicode="&#x13e;" horiz-adv-x="460" 
d="M83 24.5q-43 37.5 -43 116.5q0 35 5 64l78 555h170l-78 -556q-3 -15 -3 -28q0 -29 13.5 -41.5t44.5 -12.5h12l-9 -131q-20 -4 -58 -4q-89 0 -132 37.5zM429 587h-89l30 173h150z" />
    <glyph glyph-name="Ldot" unicode="&#x13f;" horiz-adv-x="528" 
d="M425 146l-20 -146h-385l107 760h179l-86 -614h205zM388.5 338.5q-25.5 25.5 -25.5 61.5t25.5 61.5t61.5 25.5t61.5 -25.5t25.5 -61.5t-25.5 -61.5t-61.5 -25.5t-61.5 25.5z" />
    <glyph glyph-name="ldot" unicode="&#x140;" horiz-adv-x="467" 
d="M83 24.5q-43 37.5 -43 116.5q0 35 5 64l78 555h170l-78 -556q-3 -15 -3 -28q0 -29 13.5 -41.5t44.5 -12.5h12l-9 -131q-20 -4 -58 -4q-89 0 -132 37.5zM338.5 338.5q-25.5 25.5 -25.5 61.5t25.5 61.5t61.5 25.5t61.5 -25.5t25.5 -61.5t-25.5 -61.5t-61.5 -25.5
t-61.5 25.5z" />
    <glyph glyph-name="Lslash" unicode="&#x141;" horiz-adv-x="522" 
d="M488 146l-20 -146h-385l39 277l-69 -35l-37 105l125 63l49 350h179l-36 -254l105 53l37 -105l-160 -81l-32 -227h205z" />
    <glyph glyph-name="lslash" unicode="&#x142;" horiz-adv-x="435" 
d="M291.5 134.5q13.5 -12.5 44.5 -12.5h12l-9 -131q-20 -4 -58 -4q-89 0 -132 37.5t-43 116.5q0 35 5 64l11 76l-72 -35l-32 94l120 59l51 361h170l-38 -271l100 49l33 -94l-150 -73l-23 -167q-3 -15 -3 -28q0 -29 13.5 -41.5z" />
    <glyph glyph-name="Nacute" unicode="&#x143;" horiz-adv-x="660" 
d="M673 760l-107 -760h-172l-131 499l-70 -499h-172l106 760h172l133 -490l69 490h172zM453 829h-105l84 173h159z" />
    <glyph glyph-name="nacute" unicode="&#x144;" horiz-adv-x="571" 
d="M504.5 488q32.5 -43 32.5 -113q0 -28 -4 -51l-46 -324h-172l42 296q4 34 4 47q0 29 -11.5 44t-37.5 15q-60 0 -82 -105l-43 -297h-172l74 518h153l6 -70q30 41 70.5 62t87.5 21q66 0 98.5 -43zM380 587h-105l84 173h159z" />
    <glyph glyph-name="Ncommaaccent" unicode="&#x145;" horiz-adv-x="660" 
d="M673 760l-107 -760h-172l-131 499l-70 -499h-172l106 760h172l133 -490l69 490h172zM256 -220h-104l72 156h158z" />
    <glyph glyph-name="ncommaaccent" unicode="&#x146;" horiz-adv-x="571" 
d="M504.5 488q32.5 -43 32.5 -113q0 -28 -4 -51l-46 -324h-172l42 296q4 34 4 47q0 29 -11.5 44t-37.5 15q-60 0 -82 -105l-43 -297h-172l74 518h153l6 -70q30 41 70.5 62t87.5 21q66 0 98.5 -43zM211 -220h-104l72 156h158z" />
    <glyph glyph-name="Ncaron" unicode="&#x147;" horiz-adv-x="660" 
d="M673 760l-107 -760h-172l-131 499l-70 -499h-172l106 760h172l133 -490l69 490h172zM601 1002l-152 -169h-101l-105 169h118l44 -94l65 94h131z" />
    <glyph glyph-name="ncaron" unicode="&#x148;" horiz-adv-x="571" 
d="M504.5 488q32.5 -43 32.5 -113q0 -28 -4 -51l-46 -324h-172l42 296q4 34 4 47q0 29 -11.5 44t-37.5 15q-60 0 -82 -105l-43 -297h-172l74 518h153l6 -70q30 41 70.5 62t87.5 21q66 0 98.5 -43zM528 760l-152 -169h-101l-105 169h118l44 -94l65 94h131z" />
    <glyph glyph-name="napostrophe" unicode="&#x149;" horiz-adv-x="648" 
d="M141 587h-91l84 173h152zM581.5 488q32.5 -43 32.5 -113q0 -28 -4 -51l-46 -324h-172l42 296q4 34 4 47q0 29 -11.5 44t-37.5 15q-60 0 -82 -105l-43 -297h-172l74 518h153l6 -70q30 41 70.5 62t87.5 21q66 0 98.5 -43z" />
    <glyph glyph-name="Eng" unicode="&#x14a;" horiz-adv-x="659" 
d="M673 760l-95 -676q-22 -155 -96.5 -227t-202.5 -72q-31 0 -61 5l30 138q18 -4 42 -4q41 0 71.5 33t40.5 100l2 12l-140 445l-72 -514h-172l107 760h172l141 -436l61 436h172z" />
    <glyph glyph-name="eng" unicode="&#x14b;" horiz-adv-x="571" 
d="M533 324l-33 -231l-15 -111q-14 -103 -63.5 -150t-139.5 -47q-26 0 -55 5t-52 13l27 125q28 -8 49 -8q30 0 44 18t20 62l11 75l17 126h1l13 95q4 34 4 47q0 29 -11.5 44t-37.5 15q-60 0 -82 -105l-43 -297h-172l74 518h153l6 -70q30 41 70.5 62t87.5 21q66 0 98.5 -43
t32.5 -113q0 -28 -4 -51z" />
    <glyph glyph-name="Omacron" unicode="&#x14c;" horiz-adv-x="740" 
d="M179.5 28.5q-64.5 41.5 -98.5 115t-34 166.5q0 123 49 229t139 170t207 64q88 0 152.5 -41.5t98.5 -115t34 -167.5q0 -123 -49.5 -229t-139.5 -169.5t-206 -63.5q-88 0 -152.5 41.5zM455 192.5q43 43.5 65.5 111t22.5 138.5q0 81 -31.5 125t-89.5 44q-59 0 -102.5 -43.5
t-66 -111.5t-22.5 -138q0 -81 32 -125t91 -44q58 0 101 43.5zM343 985h257l-12 -91h-257z" />
    <glyph glyph-name="omacron" unicode="&#x14d;" horiz-adv-x="584" 
d="M89 50q-55 63 -55 160q0 91 35.5 164t102.5 115t158 42q109 0 164.5 -63.5t55.5 -160.5q0 -91 -35.5 -164t-102.5 -114.5t-159 -41.5q-109 0 -164 63zM330 150q24 27 36.5 68.5t12.5 82.5q0 45 -18 69.5t-50 24.5q-33 0 -57 -27.5t-36.5 -68.5t-12.5 -82q0 -45 18 -69.5
t50 -24.5q33 0 57 27zM233 743h257l-12 -91h-257z" />
    <glyph glyph-name="Obreve" unicode="&#x14e;" horiz-adv-x="740" 
d="M179.5 28.5q-64.5 41.5 -98.5 115t-34 166.5q0 123 49 229t139 170t207 64q88 0 152.5 -41.5t98.5 -115t34 -167.5q0 -123 -49.5 -229t-139.5 -169.5t-206 -63.5q-88 0 -152.5 41.5zM455 192.5q43 43.5 65.5 111t22.5 138.5q0 81 -31.5 125t-89.5 44q-59 0 -102.5 -43.5
t-66 -111.5t-22.5 -138q0 -81 32 -125t91 -44q58 0 101 43.5zM359.5 876q-36.5 45 -36.5 126h92q0 -42 13 -61t41 -19q27 0 43 19.5t23 60.5h91q-11 -90 -55 -130.5t-111 -40.5q-64 0 -100.5 45z" />
    <glyph glyph-name="obreve" unicode="&#x14f;" horiz-adv-x="584" 
d="M89 50q-55 63 -55 160q0 91 35.5 164t102.5 115t158 42q109 0 164.5 -63.5t55.5 -160.5q0 -91 -35.5 -164t-102.5 -114.5t-159 -41.5q-109 0 -164 63zM330 150q24 27 36.5 68.5t12.5 82.5q0 45 -18 69.5t-50 24.5q-33 0 -57 -27.5t-36.5 -68.5t-12.5 -82q0 -45 18 -69.5
t50 -24.5q33 0 57 27zM249.5 634q-36.5 45 -36.5 126h92q0 -42 13 -61t41 -19q27 0 43 19.5t23 60.5h91q-11 -90 -55 -130.5t-111 -40.5q-64 0 -100.5 45z" />
    <glyph glyph-name="Ohungarumlaut" unicode="&#x150;" horiz-adv-x="740" 
d="M179.5 28.5q-64.5 41.5 -98.5 115t-34 166.5q0 123 49 229t139 170t207 64q88 0 152.5 -41.5t98.5 -115t34 -167.5q0 -123 -49.5 -229t-139.5 -169.5t-206 -63.5q-88 0 -152.5 41.5zM455 192.5q43 43.5 65.5 111t22.5 138.5q0 81 -31.5 125t-89.5 44q-59 0 -102.5 -43.5
t-66 -111.5t-22.5 -138q0 -81 32 -125t91 -44q58 0 101 43.5zM392 829h-105l84 173h159zM602 829h-105l84 173h159z" />
    <glyph glyph-name="ohungarumlaut" unicode="&#x151;" horiz-adv-x="584" 
d="M89 50q-55 63 -55 160q0 91 35.5 164t102.5 115t158 42q109 0 164.5 -63.5t55.5 -160.5q0 -91 -35.5 -164t-102.5 -114.5t-159 -41.5q-109 0 -164 63zM330 150q24 27 36.5 68.5t12.5 82.5q0 45 -18 69.5t-50 24.5q-33 0 -57 -27.5t-36.5 -68.5t-12.5 -82q0 -45 18 -69.5
t50 -24.5q33 0 57 27zM282 587h-105l84 173h159zM492 587h-105l84 173h159z" />
    <glyph glyph-name="OE" unicode="&#x152;" horiz-adv-x="968" 
d="M179.5 28.5q-64.5 41.5 -98.5 115t-34 166.5q0 123 49 229t139 170t207 64q88 0 152.5 -41.5t98.5 -115t34 -167.5q0 -123 -49.5 -229t-139.5 -169.5t-206 -63.5q-88 0 -152.5 41.5zM455 192.5q43 43.5 65.5 111t22.5 138.5q0 81 -31.5 125t-89.5 44q-59 0 -102.5 -43.5
t-66 -111.5t-22.5 -138q0 -81 32 -125t91 -44q58 0 101 43.5zM751 614l-21 -150h214l-20 -140h-213l-25 -178h224l-21 -146h-403l107 760h402l-21 -146h-223z" />
    <glyph glyph-name="oe" unicode="&#x153;" horiz-adv-x="916" 
d="M89 50q-55 63 -55 160q0 91 35.5 164t102.5 115t158 42q109 0 164.5 -63.5t55.5 -160.5q0 -91 -35.5 -164t-102.5 -114.5t-159 -41.5q-109 0 -164 63zM330 150q24 27 36.5 68.5t12.5 82.5q0 45 -18 69.5t-50 24.5q-33 0 -57 -27.5t-36.5 -68.5t-12.5 -82q0 -45 18 -69.5
t50 -24.5q33 0 57 27zM540 213l-1 -17q0 -44 17.5 -68t51.5 -24q25 0 46 16.5t32 43.5l170 -13q-37 -80 -104.5 -122t-165.5 -42q-66 0 -115 28.5t-74.5 78t-25.5 109.5q0 96 35 170.5t101 116t156 41.5q106 0 163.5 -62t57.5 -168q0 -18 -4 -45.5t-9 -42.5h-331z
M588.5 380.5q-25.5 -30.5 -36.5 -81.5h165q1 8 1 23q0 89 -67 89q-37 0 -62.5 -30.5z" />
    <glyph glyph-name="Racute" unicode="&#x154;" horiz-adv-x="609" 
d="M569 368.5q-36 -74.5 -104 -113.5l86 -255h-172l-62 217h-7h-83l-31 -217h-176l107 760h251q71 0 122 -29t78 -78.5t27 -108.5q0 -101 -36 -175.5zM246 357h49q61 0 97 48t36 119q0 96 -92 96h-53zM404 829h-105l84 173h159z" />
    <glyph glyph-name="racute" unicode="&#x155;" horiz-adv-x="401" 
d="M428 526l-32 -157q-29 9 -58 9q-46 0 -77.5 -40t-40.5 -108h-1l-32 -230h-172l74 518h150l6 -88q30 50 67.5 75.5t77.5 25.5q24 0 38 -5zM293 587h-105l84 173h159z" />
    <glyph glyph-name="Rcommaaccent" unicode="&#x156;" horiz-adv-x="609" 
d="M569 368.5q-36 -74.5 -104 -113.5l86 -255h-172l-62 217h-7h-83l-31 -217h-176l107 760h251q71 0 122 -29t78 -78.5t27 -108.5q0 -101 -36 -175.5zM246 357h49q61 0 97 48t36 119q0 96 -92 96h-53zM223 -220h-104l72 156h158z" />
    <glyph glyph-name="rcommaaccent" unicode="&#x157;" horiz-adv-x="401" 
d="M428 526l-32 -157q-29 9 -58 9q-46 0 -77.5 -40t-40.5 -108h-1l-32 -230h-172l74 518h150l6 -88q30 50 67.5 75.5t77.5 25.5q24 0 38 -5zM88 -220h-104l72 156h158z" />
    <glyph glyph-name="Rcaron" unicode="&#x158;" horiz-adv-x="609" 
d="M569 368.5q-36 -74.5 -104 -113.5l86 -255h-172l-62 217h-7h-83l-31 -217h-176l107 760h251q71 0 122 -29t78 -78.5t27 -108.5q0 -101 -36 -175.5zM246 357h49q61 0 97 48t36 119q0 96 -92 96h-53zM552 1002l-152 -169h-101l-105 169h118l44 -94l65 94h131z" />
    <glyph glyph-name="rcaron" unicode="&#x159;" horiz-adv-x="401" 
d="M428 526l-32 -157q-29 9 -58 9q-46 0 -77.5 -40t-40.5 -108h-1l-32 -230h-172l74 518h150l6 -88q30 50 67.5 75.5t77.5 25.5q24 0 38 -5zM441 760l-152 -169h-101l-105 169h118l44 -94l65 94h131z" />
    <glyph glyph-name="Sacute" unicode="&#x15a;" horiz-adv-x="616" 
d="M101 44q-61 57 -70 159q-2 14 -2 21l186 12v-20q0 -48 22 -71.5t58 -23.5q42 0 68.5 29.5t26.5 73.5q0 27 -15 44t-42 29l-66 27q-78 33 -127 84t-49 125q0 72 35.5 126.5t99 84t145.5 29.5q124 0 181 -63t59 -165l-185 -12q2 20 2 25q0 40 -18.5 61t-52.5 21
q-36 0 -58 -23.5t-22 -60.5q0 -26 15.5 -45t49.5 -33l70 -29q77 -32 120.5 -79.5t43.5 -116.5q0 -81 -38 -141t-106 -92.5t-154 -32.5q-116 0 -177 57zM427 829h-105l84 173h159z" />
    <glyph glyph-name="sacute" unicode="&#x15b;" horiz-adv-x="500" 
d="M68.5 28.5q-54.5 41.5 -62.5 117.5l166 13q-1 -31 11.5 -48t43.5 -17q28 0 45.5 15t17.5 41q0 21 -17.5 34t-56.5 27l-31 10q-62 22 -98 58t-36 86q0 80 62.5 123t163.5 43q94 0 148 -37.5t62 -106.5l-165 -14q0 25 -9.5 41t-36.5 16q-19 0 -33.5 -13t-14.5 -34
q0 -28 48 -46l33 -11q75 -26 113.5 -59t38.5 -90q0 -94 -66 -142t-174 -48q-98 0 -152.5 41.5zM328 587h-105l84 173h159z" />
    <glyph glyph-name="Scircumflex" unicode="&#x15c;" horiz-adv-x="616" 
d="M101 44q-61 57 -70 159q-2 14 -2 21l186 12v-20q0 -48 22 -71.5t58 -23.5q42 0 68.5 29.5t26.5 73.5q0 27 -15 44t-42 29l-66 27q-78 33 -127 84t-49 125q0 72 35.5 126.5t99 84t145.5 29.5q124 0 181 -63t59 -165l-185 -12q2 20 2 25q0 40 -18.5 61t-52.5 21
q-36 0 -58 -23.5t-22 -60.5q0 -26 15.5 -45t49.5 -33l70 -29q77 -32 120.5 -79.5t43.5 -116.5q0 -81 -38 -141t-106 -92.5t-154 -32.5q-116 0 -177 57zM445 833l-44 94l-65 -94h-131l152 169h101l105 -169h-118z" />
    <glyph glyph-name="scircumflex" unicode="&#x15d;" horiz-adv-x="500" 
d="M68.5 28.5q-54.5 41.5 -62.5 117.5l166 13q-1 -31 11.5 -48t43.5 -17q28 0 45.5 15t17.5 41q0 21 -17.5 34t-56.5 27l-31 10q-62 22 -98 58t-36 86q0 80 62.5 123t163.5 43q94 0 148 -37.5t62 -106.5l-165 -14q0 25 -9.5 41t-36.5 16q-19 0 -33.5 -13t-14.5 -34
q0 -28 48 -46l33 -11q75 -26 113.5 -59t38.5 -90q0 -94 -66 -142t-174 -48q-98 0 -152.5 41.5zM346 591l-44 94l-65 -94h-131l152 169h101l105 -169h-118z" />
    <glyph glyph-name="Scedilla" unicode="&#x15e;" horiz-adv-x="616" 
d="M101 44q-61 57 -70 159q-2 14 -2 21l186 12v-20q0 -48 22 -71.5t58 -23.5q42 0 68.5 29.5t26.5 73.5q0 27 -15 44t-42 29l-66 27q-78 33 -127 84t-49 125q0 72 35.5 126.5t99 84t145.5 29.5q124 0 181 -63t59 -165l-185 -12q2 20 2 25q0 40 -18.5 61t-52.5 21
q-36 0 -58 -23.5t-22 -60.5q0 -26 15.5 -45t49.5 -33l70 -29q77 -32 120.5 -79.5t43.5 -116.5q0 -81 -38 -141t-106 -92.5t-154 -32.5q-116 0 -177 57zM354 -57.5q22 -20.5 22 -55.5q0 -45 -32 -73.5t-86 -28.5q-47 0 -84 21l28 55q24 -10 43 -10q17 0 28 11t11 27
q0 11 -6.5 17t-16.5 6q-16 0 -31 -13l-23 19l43 108h65l-20 -63h5q32 0 54 -20.5z" />
    <glyph glyph-name="scedilla" unicode="&#x15f;" horiz-adv-x="500" 
d="M68.5 28.5q-54.5 41.5 -62.5 117.5l166 13q-1 -31 11.5 -48t43.5 -17q28 0 45.5 15t17.5 41q0 21 -17.5 34t-56.5 27l-31 10q-62 22 -98 58t-36 86q0 80 62.5 123t163.5 43q94 0 148 -37.5t62 -106.5l-165 -14q0 25 -9.5 41t-36.5 16q-19 0 -33.5 -13t-14.5 -34
q0 -28 48 -46l33 -11q75 -26 113.5 -59t38.5 -90q0 -94 -66 -142t-174 -48q-98 0 -152.5 41.5zM272 -57.5q22 -20.5 22 -55.5q0 -45 -32 -73.5t-86 -28.5q-47 0 -84 21l28 55q24 -10 43 -10q17 0 28 11t11 27q0 11 -6.5 17t-16.5 6q-16 0 -31 -13l-23 19l43 108h65l-20 -63
h5q32 0 54 -20.5z" />
    <glyph glyph-name="Scaron" unicode="&#x160;" horiz-adv-x="616" 
d="M101 44q-61 57 -70 159q-2 14 -2 21l186 12v-20q0 -48 22 -71.5t58 -23.5q42 0 68.5 29.5t26.5 73.5q0 27 -15 44t-42 29l-66 27q-78 33 -127 84t-49 125q0 72 35.5 126.5t99 84t145.5 29.5q124 0 181 -63t59 -165l-185 -12q2 20 2 25q0 40 -18.5 61t-52.5 21
q-36 0 -58 -23.5t-22 -60.5q0 -26 15.5 -45t49.5 -33l70 -29q77 -32 120.5 -79.5t43.5 -116.5q0 -81 -38 -141t-106 -92.5t-154 -32.5q-116 0 -177 57zM575 1002l-152 -169h-101l-105 169h118l44 -94l65 94h131z" />
    <glyph glyph-name="scaron" unicode="&#x161;" horiz-adv-x="500" 
d="M68.5 28.5q-54.5 41.5 -62.5 117.5l166 13q-1 -31 11.5 -48t43.5 -17q28 0 45.5 15t17.5 41q0 21 -17.5 34t-56.5 27l-31 10q-62 22 -98 58t-36 86q0 80 62.5 123t163.5 43q94 0 148 -37.5t62 -106.5l-165 -14q0 25 -9.5 41t-36.5 16q-19 0 -33.5 -13t-14.5 -34
q0 -28 48 -46l33 -11q75 -26 113.5 -59t38.5 -90q0 -94 -66 -142t-174 -48q-98 0 -152.5 41.5zM476 760l-152 -169h-101l-105 169h118l44 -94l65 94h131z" />
    <glyph glyph-name="uni0162" unicode="&#x162;" horiz-adv-x="543" 
d="M574 614h-164l-86 -614h-178l86 614h-163l20 146h506zM296 -57.5q22 -20.5 22 -55.5q0 -45 -32 -73.5t-86 -28.5q-47 0 -84 21l28 55q24 -10 43 -10q17 0 28 11t11 27q0 11 -6.5 17t-16.5 6q-16 0 -31 -13l-23 19l43 108h65l-20 -63h5q32 0 54 -20.5z" />
    <glyph glyph-name="uni0163" unicode="&#x163;" horiz-adv-x="385" 
d="M231 201q-2 -13 -2 -31q0 -26 11 -37.5t38 -11.5t52 6l-8 -129q-48 -11 -107 -11q-75 0 -117.5 39.5t-42.5 112.5q0 23 3 48l28 198h-65l27 133h57l18 128h171l-18 -128h108l-19 -133h-108zM226 -57.5q22 -20.5 22 -55.5q0 -45 -32 -73.5t-86 -28.5q-47 0 -84 21l28 55
q24 -10 43 -10q17 0 28 11t11 27q0 11 -6.5 17t-16.5 6q-16 0 -31 -13l-23 19l43 108h65l-20 -63h5q32 0 54 -20.5z" />
    <glyph glyph-name="Tcaron" unicode="&#x164;" horiz-adv-x="543" 
d="M574 614h-164l-86 -614h-178l86 614h-163l20 146h506zM544 1002l-152 -169h-101l-105 169h118l44 -94l65 94h131z" />
    <glyph glyph-name="tcaron" unicode="&#x165;" horiz-adv-x="498" 
d="M571 760l-145 -173h-90l83 173h152zM276 518h108l-19 -133h-108l-26 -184q-2 -13 -2 -31q0 -26 11 -37.5t38 -11.5t52 6l-8 -129q-48 -11 -107 -11q-75 0 -117.5 39.5t-42.5 112.5q0 23 3 48l28 198h-65l27 133h57l18 128h171z" />
    <glyph glyph-name="Tbar" unicode="&#x166;" horiz-adv-x="543" 
d="M410 614l-23 -170h107l-18 -122h-107l-45 -322h-178l45 322h-106l18 122h106l23 170h-163l20 146h506l-21 -146h-164z" />
    <glyph glyph-name="tbar" unicode="&#x167;" horiz-adv-x="385" 
d="M257 385l-9 -62h103l-12 -87h-103l-5 -35q-2 -13 -2 -31q0 -26 11 -37.5t38 -11.5t52 6l-8 -129q-48 -11 -107 -11q-75 0 -117.5 39.5t-42.5 112.5q0 23 3 48l7 49h-63l12 87h63l9 62h-65l27 133h57l18 128h171l-18 -128h108l-19 -133h-108z" />
    <glyph glyph-name="Utilde" unicode="&#x168;" horiz-adv-x="659" 
d="M114 50.5q-61 63.5 -61 180.5q0 31 5 74l64 455h179l-66 -464q-4 -27 -4 -53q0 -46 19.5 -70t62.5 -24q49 0 80 37t41 110l65 464h178l-64 -455q-22 -165 -101 -241.5t-221 -76.5q-116 0 -177 63.5zM433 862.5q-18 8.5 -38 23.5q-29 22 -52 22q-31 0 -60 -38l-54 53
q26 45 62 71t80 26q24 0 43 -9t39 -24q27 -22 51 -22q28 0 60 39l54 -51q-25 -45 -62 -72t-82 -27q-23 0 -41 8.5z" />
    <glyph glyph-name="utilde" unicode="&#x169;" 
d="M550 518l-73 -518h-154l-3 71q-30 -41 -69.5 -62.5t-85.5 -21.5q-65 0 -98 43t-33 113q0 24 4 50l46 325h172l-42 -296q-4 -34 -4 -47q0 -60 49 -60q33 0 52.5 35t27.5 92l39 276h172zM351 620.5q-18 8.5 -38 23.5q-29 22 -52 22q-31 0 -60 -38l-54 53q26 45 62 71t80 26
q24 0 43 -9t39 -24q27 -22 51 -22q28 0 60 39l54 -51q-25 -45 -62 -72t-82 -27q-23 0 -41 8.5z" />
    <glyph glyph-name="Umacron" unicode="&#x16a;" horiz-adv-x="659" 
d="M114 50.5q-61 63.5 -61 180.5q0 31 5 74l64 455h179l-66 -464q-4 -27 -4 -53q0 -46 19.5 -70t62.5 -24q49 0 80 37t41 110l65 464h178l-64 -455q-22 -165 -101 -241.5t-221 -76.5q-116 0 -177 63.5zM301 985h257l-12 -91h-257z" />
    <glyph glyph-name="umacron" unicode="&#x16b;" 
d="M550 518l-73 -518h-154l-3 71q-30 -41 -69.5 -62.5t-85.5 -21.5q-65 0 -98 43t-33 113q0 24 4 50l46 325h172l-42 -296q-4 -34 -4 -47q0 -60 49 -60q33 0 52.5 35t27.5 92l39 276h172zM219 743h257l-12 -91h-257z" />
    <glyph glyph-name="Ubreve" unicode="&#x16c;" horiz-adv-x="659" 
d="M114 50.5q-61 63.5 -61 180.5q0 31 5 74l64 455h179l-66 -464q-4 -27 -4 -53q0 -46 19.5 -70t62.5 -24q49 0 80 37t41 110l65 464h178l-64 -455q-22 -165 -101 -241.5t-221 -76.5q-116 0 -177 63.5zM317.5 876q-36.5 45 -36.5 126h92q0 -42 13 -61t41 -19q27 0 43 19.5
t23 60.5h91q-11 -90 -55 -130.5t-111 -40.5q-64 0 -100.5 45z" />
    <glyph glyph-name="ubreve" unicode="&#x16d;" 
d="M550 518l-73 -518h-154l-3 71q-30 -41 -69.5 -62.5t-85.5 -21.5q-65 0 -98 43t-33 113q0 24 4 50l46 325h172l-42 -296q-4 -34 -4 -47q0 -60 49 -60q33 0 52.5 35t27.5 92l39 276h172zM235.5 634q-36.5 45 -36.5 126h92q0 -42 13 -61t41 -19q27 0 43 19.5t23 60.5h91
q-11 -90 -55 -130.5t-111 -40.5q-64 0 -100.5 45z" />
    <glyph glyph-name="Uring" unicode="&#x16e;" horiz-adv-x="659" 
d="M114 50.5q-61 63.5 -61 180.5q0 31 5 74l64 455h179l-66 -464q-4 -27 -4 -53q0 -46 19.5 -70t62.5 -24q49 0 80 37t41 110l65 464h178l-64 -455q-22 -165 -101 -241.5t-221 -76.5q-116 0 -177 63.5zM334 858.5q-35 35.5 -35 85.5q0 49 35 84t85 35t85.5 -35t35.5 -84
q0 -50 -35.5 -85.5t-85.5 -35.5t-85 35.5zM458.5 902q16.5 17 16.5 42q0 24 -16.5 40.5t-39.5 16.5t-39.5 -16.5t-16.5 -40.5q0 -25 16.5 -42t39.5 -17t39.5 17z" />
    <glyph glyph-name="uring" unicode="&#x16f;" 
d="M550 518l-73 -518h-154l-3 71q-30 -41 -69.5 -62.5t-85.5 -21.5q-65 0 -98 43t-33 113q0 24 4 50l46 325h172l-42 -296q-4 -34 -4 -47q0 -60 49 -60q33 0 52.5 35t27.5 92l39 276h172zM252 616.5q-35 35.5 -35 85.5q0 49 35 84t85 35t85.5 -35t35.5 -84
q0 -50 -35.5 -85.5t-85.5 -35.5t-85 35.5zM376.5 660q16.5 17 16.5 42q0 24 -16.5 40.5t-39.5 16.5t-39.5 -16.5t-16.5 -40.5q0 -25 16.5 -42t39.5 -17t39.5 17z" />
    <glyph glyph-name="Uhungarumlaut" unicode="&#x170;" horiz-adv-x="659" 
d="M114 50.5q-61 63.5 -61 180.5q0 31 5 74l64 455h179l-66 -464q-4 -27 -4 -53q0 -46 19.5 -70t62.5 -24q49 0 80 37t41 110l65 464h178l-64 -455q-22 -165 -101 -241.5t-221 -76.5q-116 0 -177 63.5zM350 829h-105l84 173h159zM560 829h-105l84 173h159z" />
    <glyph glyph-name="uhungarumlaut" unicode="&#x171;" 
d="M550 518l-73 -518h-154l-3 71q-30 -41 -69.5 -62.5t-85.5 -21.5q-65 0 -98 43t-33 113q0 24 4 50l46 325h172l-42 -296q-4 -34 -4 -47q0 -60 49 -60q33 0 52.5 35t27.5 92l39 276h172zM268 587h-105l84 173h159zM478 587h-105l84 173h159z" />
    <glyph glyph-name="Uogonek" unicode="&#x172;" horiz-adv-x="659" 
d="M114 50.5q-61 63.5 -61 180.5q0 31 5 74l64 455h179l-66 -464q-4 -27 -4 -53q0 -46 19.5 -70t62.5 -24q49 0 80 37t41 110l65 464h178l-64 -455q-22 -165 -101 -241.5t-221 -76.5q-116 0 -177 63.5zM365 -23.5q-20 -20.5 -20 -53.5q0 -23 15 -36t42 -13q16 0 39 6l-8 -82
q-37 -13 -75 -13q-46 0 -76.5 29.5t-30.5 71.5q0 64 44.5 108t115.5 52l3 -39q-29 -10 -49 -30.5z" />
    <glyph glyph-name="uogonek" unicode="&#x173;" 
d="M550 518l-73 -518h-154l-3 71q-30 -41 -69.5 -62.5t-85.5 -21.5q-65 0 -98 43t-33 113q0 24 4 50l46 325h172l-42 -296q-4 -34 -4 -47q0 -60 49 -60q33 0 52.5 35t27.5 92l39 276h172zM369 -23.5q-20 -20.5 -20 -53.5q0 -23 15 -36t42 -13q16 0 39 6l-8 -82
q-37 -13 -75 -13q-46 0 -76.5 29.5t-30.5 71.5q0 64 44.5 108t115.5 52l3 -39q-29 -10 -49 -30.5z" />
    <glyph glyph-name="Wcircumflex" unicode="&#x174;" horiz-adv-x="909" 
d="M971 760l-278 -760h-183l-21 509l-169 -509h-182l-59 760h183l3 -569l176 569h160l15 -570l161 570h194zM593 833l-44 94l-65 -94h-131l152 169h101l105 -169h-118z" />
    <glyph glyph-name="wcircumflex" unicode="&#x175;" horiz-adv-x="739" 
d="M775 518l-216 -518h-163l-16 333l-111 -333h-163l-70 518h175l5 -379l123 379h130l15 -378l111 378h180zM476 591l-44 94l-65 -94h-131l152 169h101l105 -169h-118z" />
    <glyph glyph-name="Ycircumflex" unicode="&#x176;" horiz-adv-x="581" 
d="M661 760l-423 -760h-187l177 318l-161 442h183l72 -272l151 272h188zM435 833l-44 94l-65 -94h-131l152 169h101l105 -169h-118z" />
    <glyph glyph-name="ycircumflex" unicode="&#x177;" 
d="M550 518l-68 -481q-17 -129 -88 -190.5t-185 -61.5q-90 0 -140.5 39.5t-66.5 109.5l172 17q3 -27 15 -39.5t36 -12.5q36 0 55.5 32t28.5 99l7 46q-30 -36 -67.5 -55.5t-80.5 -19.5q-67 0 -99.5 43t-32.5 113q0 27 4 50l44 311h172l-40 -283q-4 -23 -4 -46q0 -29 11.5 -44
t38.5 -15q55 0 77 109l39 279h172zM392 591l-44 94l-65 -94h-131l152 169h101l105 -169h-118z" />
    <glyph glyph-name="Ydieresis" unicode="&#x178;" horiz-adv-x="581" 
d="M661 760l-423 -760h-187l177 318l-161 442h183l72 -272l151 272h188zM226.5 872.5q-23.5 23.5 -23.5 56.5q0 34 23.5 57.5t56.5 23.5t57 -23.5t24 -57.5q0 -33 -24 -56.5t-57 -23.5t-56.5 23.5zM433.5 872.5q-23.5 23.5 -23.5 56.5q0 34 23.5 57.5t56.5 23.5t56 -23.5
t23 -57.5q0 -33 -23 -56.5t-56 -23.5t-56.5 23.5z" />
    <glyph glyph-name="Zacute" unicode="&#x179;" horiz-adv-x="571" 
d="M257 146h273l-21 -146h-532l370 614h-246l21 146h506zM436 829h-105l84 173h159z" />
    <glyph glyph-name="zacute" unicode="&#x17a;" horiz-adv-x="480" 
d="M243 130h195l-18 -130h-441l254 389h-176l27 129h414zM338 587h-105l84 173h159z" />
    <glyph glyph-name="Zdotaccent" unicode="&#x17b;" horiz-adv-x="571" 
d="M257 146h273l-21 -146h-532l370 614h-246l21 146h506zM331 867.5q-27 26.5 -27 64.5t27 65t65 27q37 0 63.5 -27t26.5 -65t-26.5 -64.5t-63.5 -26.5q-38 0 -65 26.5z" />
    <glyph glyph-name="zdotaccent" unicode="&#x17c;" horiz-adv-x="480" 
d="M243 130h195l-18 -130h-441l254 389h-176l27 129h414zM233 625.5q-27 26.5 -27 64.5t27 65t65 27q37 0 63.5 -27t26.5 -65t-26.5 -64.5t-63.5 -26.5q-38 0 -65 26.5z" />
    <glyph glyph-name="Zcaron" unicode="&#x17d;" horiz-adv-x="571" 
d="M257 146h273l-21 -146h-532l370 614h-246l21 146h506zM584 1002l-152 -169h-101l-105 169h118l44 -94l65 94h131z" />
    <glyph glyph-name="zcaron" unicode="&#x17e;" horiz-adv-x="480" 
d="M243 130h195l-18 -130h-441l254 389h-176l27 129h414zM486 760l-152 -169h-101l-105 169h118l44 -94l65 94h131z" />
    <glyph glyph-name="longs" unicode="&#x17f;" horiz-adv-x="309" 
d="M386 766q38 -7 53 -14l-24 -116q-25 11 -62 11q-31 0 -49 -20t-25 -68l-79 -559h-171l55 386h-63l28 133h53l8 54q15 105 64 152.5t140 47.5q34 0 72 -7z" />
    <glyph glyph-name="uni018F" unicode="&#x18f;" horiz-adv-x="740" 
d="M593.5 732.5q65.5 -40.5 100 -114t34.5 -169.5q0 -123 -49.5 -229t-140 -169.5t-206.5 -63.5q-89 0 -153.5 40.5t-98.5 113.5t-34 169q0 31 4.5 65.5t11.5 59.5h481v7q0 82 -31.5 125.5t-90.5 43.5q-83 0 -139 -99l-183 22q52 115 137 177t202 62q90 0 155.5 -40.5z
M457.5 195.5q44.5 46.5 66.5 119.5h-293q1 -80 32.5 -123t89.5 -43q60 0 104.5 46.5z" />
    <glyph glyph-name="florin" unicode="&#x192;" horiz-adv-x="565" 
d="M465 602q-21 -26 -32 -76l-16 -69h72l-13 -94h-80l-77 -333q-28 -124 -86 -177.5t-159 -53.5h-59l32 131q40 1 60 26.5t32 75.5l76 331h-44l13 94h52l17 74q28 123 86.5 176t157.5 53h58l-32 -132q-37 0 -58 -26z" />
    <glyph glyph-name="uni019D" unicode="&#x19d;" horiz-adv-x="662" 
d="M674 760l-106 -760h-173l-131 496l-57 -412q-22 -154 -97 -226.5t-203 -72.5q-31 0 -61 5l30 138q18 -4 42 -4q41 0 72 33t40 100l99 703h172l132 -489l69 489h172z" />
    <glyph glyph-name="uni01CD" unicode="&#x1cd;" horiz-adv-x="618" 
d="M396 110h-204l-38 -110h-192l316 760h203l101 -760h-178zM387 239l-25 362l-125 -362h150zM581 1002l-152 -169h-101l-105 169h118l44 -94l65 94h131z" />
    <glyph glyph-name="uni01CE" unicode="&#x1ce;" horiz-adv-x="599" 
d="M583 518l-72 -518h-160v81q-26 -43 -65 -68.5t-89 -25.5q-47 0 -85 25.5t-59.5 74t-21.5 112.5q0 81 30 158t83.5 125.5t121.5 48.5q52 0 85.5 -27.5t48.5 -71.5l12 86h171zM332.5 149.5q24.5 26.5 37.5 67t13 80.5q0 46 -18.5 72t-50.5 26t-56.5 -27t-37.5 -67.5
t-13 -80.5q0 -46 18 -71.5t51 -25.5q32 0 56.5 26.5zM526 760l-152 -169h-101l-105 169h118l44 -94l65 94h131z" />
    <glyph glyph-name="Gcaron" unicode="&#x1e6;" horiz-adv-x="719" 
d="M380 423h313l-45 -326q-59 -48 -138.5 -79t-166.5 -31q-94 0 -161 41t-101 114t-34 168q0 123 49 229t137.5 170t202.5 64q124 0 191.5 -70t85.5 -173l-191 -15q-7 39 -34.5 67.5t-74.5 28.5q-55 0 -97 -44.5t-64 -112.5t-22 -137q0 -177 137 -177q69 0 129 42l15 114
h-149zM637 1002l-152 -169h-101l-105 169h118l44 -94l65 94h131z" />
    <glyph glyph-name="gcaron" unicode="&#x1e7;" horiz-adv-x="600" 
d="M584 518l-67 -477q-18 -128 -89.5 -192t-192.5 -64q-93 0 -147 40.5t-68 109.5l173 16q12 -52 57 -52q38 0 61 30.5t30 87.5l10 72q-26 -42 -64.5 -66.5t-88.5 -24.5q-47 0 -85 25.5t-59.5 72.5t-21.5 108q0 79 30 155t83.5 124t119.5 48q52 0 86 -27.5t49 -70.5l23 85
h161zM333 152.5q24 26.5 37 67t13 79.5q0 44 -18.5 70t-50.5 26t-56.5 -25.5t-37 -65.5t-12.5 -81q0 -47 17.5 -72t51.5 -25q32 0 56 26.5zM534 760l-152 -169h-101l-105 169h118l44 -94l65 94h131z" />
    <glyph glyph-name="Aringacute" unicode="&#x1fa;" horiz-adv-x="618" 
d="M396 110h-204l-38 -110h-192l316 760h203l101 -760h-178zM387 239l-25 362l-125 -362h150zM315 858.5q-35 35.5 -35 85.5q0 49 35 84t85 35t85.5 -35t35.5 -84q0 -50 -35.5 -85.5t-85.5 -35.5t-85 35.5zM439.5 902q16.5 17 16.5 42q0 24 -16.5 40.5t-39.5 16.5
t-39.5 -16.5t-16.5 -40.5q0 -25 16.5 -42t39.5 -17t39.5 17zM470 1133h-105l84 173h159z" />
    <glyph glyph-name="aringacute" unicode="&#x1fb;" horiz-adv-x="599" 
d="M583 518l-72 -518h-160v81q-26 -43 -65 -68.5t-89 -25.5q-47 0 -85 25.5t-59.5 74t-21.5 112.5q0 81 30 158t83.5 125.5t121.5 48.5q52 0 85.5 -27.5t48.5 -71.5l12 86h171zM332.5 149.5q24.5 26.5 37.5 67t13 80.5q0 46 -18.5 72t-50.5 26t-56.5 -27t-37.5 -67.5
t-13 -80.5q0 -46 18 -71.5t51 -25.5q32 0 56.5 26.5zM260 616.5q-35 35.5 -35 85.5q0 49 35 84t85 35t85.5 -35t35.5 -84q0 -50 -35.5 -85.5t-85.5 -35.5t-85 35.5zM384.5 660q16.5 17 16.5 42q0 24 -16.5 40.5t-39.5 16.5t-39.5 -16.5t-16.5 -40.5q0 -25 16.5 -42t39.5 -17
t39.5 17zM415 891h-105l84 173h159z" />
    <glyph glyph-name="AEacute" unicode="&#x1fc;" horiz-adv-x="863" 
d="M659 615l-22 -151h202l-20 -139h-201l-26 -180h213l-21 -145h-390l20 145h-185l-79 -145h-195l465 760h470l-21 -145h-210zM432 273l47 331l-180 -331h133zM723 829h-105l84 173h159z" />
    <glyph glyph-name="aeacute" unicode="&#x1fd;" horiz-adv-x="845" 
d="M482 215l-1 -18q0 -44 18 -68.5t52 -24.5q25 0 45.5 16.5t32.5 43.5l154 -11q-72 -166 -253 -166q-55 0 -95.5 23t-64.5 64q-65 -87 -193 -87q-69 0 -113 37.5t-44 101.5q0 86 60 131.5t163 45.5h102l2 15q3 15 3 31q0 34 -15.5 49.5t-41.5 15.5q-25 0 -45.5 -15
t-31.5 -41l-146 13q28 69 89.5 114.5t150.5 45.5q43 0 78.5 -14t60.5 -40q66 54 157 54q99 0 152.5 -64t53.5 -170q0 -15 -3.5 -39t-7.5 -39h-319v-4zM532 381.5q-26 -29.5 -38 -78.5h166q1 7 1 19q0 89 -67 89q-36 0 -62 -29.5zM293 116q27 28 37 81l1 7l2 15h-71
q-45 0 -68.5 -20.5t-23.5 -58.5q0 -26 16 -39t41 -13q39 0 66 28zM511 587h-105l84 173h159z" />
    <glyph glyph-name="Oslashacute" unicode="&#x1fe;" horiz-adv-x="741" 
d="M669 662q59 -85 59 -213q0 -123 -49.5 -229t-140 -169.5t-206.5 -63.5q-75 0 -135 30l-32 -43h-147l89 122q-60 85 -60 214q0 123 49 229t139 170t207 64q78 0 137 -32l33 45h147zM223 254l262 359q-25 13 -60 13q-65 0 -112 -47.5t-71 -120.5t-24 -148q0 -28 5 -56z
M554 505l-262 -358q25 -12 58 -12q65 0 112 46.5t71.5 119t24.5 148.5q0 22 -4 56zM493 829h-105l84 173h159z" />
    <glyph glyph-name="oslashacute" unicode="&#x1ff;" horiz-adv-x="584" 
d="M534.5 400q15.5 -43 15.5 -93q0 -91 -35.5 -164t-102.5 -114.5t-159 -41.5q-59 0 -104 20l-20 -27h-82l47 65q-30 30 -45 73t-15 92q0 91 35.5 164t102.5 115t158 42q60 0 103 -20l20 27h82l-47 -64q31 -31 46.5 -74zM197 186l153 210q-18 10 -37 10q-37 0 -64 -29
t-40.5 -73.5t-13.5 -88.5q0 -11 2 -29zM334.5 142q26.5 29 40 73t13.5 88q0 12 -2 30l-153 -210q18 -10 38 -10q37 0 63.5 29zM381 587h-105l84 173h159z" />
    <glyph glyph-name="Scommaaccent" unicode="&#x218;" horiz-adv-x="616" 
d="M101 44q-61 57 -70 159q-2 14 -2 21l186 12v-20q0 -48 22 -71.5t58 -23.5q42 0 68.5 29.5t26.5 73.5q0 27 -15 44t-42 29l-66 27q-78 33 -127 84t-49 125q0 72 35.5 126.5t99 84t145.5 29.5q124 0 181 -63t59 -165l-185 -12q2 20 2 25q0 40 -18.5 61t-52.5 21
q-36 0 -58 -23.5t-22 -60.5q0 -26 15.5 -45t49.5 -33l70 -29q77 -32 120.5 -79.5t43.5 -116.5q0 -81 -38 -141t-106 -92.5t-154 -32.5q-116 0 -177 57zM256 -220h-104l72 156h158z" />
    <glyph glyph-name="scommaaccent" unicode="&#x219;" horiz-adv-x="500" 
d="M68.5 28.5q-54.5 41.5 -62.5 117.5l166 13q-1 -31 11.5 -48t43.5 -17q28 0 45.5 15t17.5 41q0 21 -17.5 34t-56.5 27l-31 10q-62 22 -98 58t-36 86q0 80 62.5 123t163.5 43q94 0 148 -37.5t62 -106.5l-165 -14q0 25 -9.5 41t-36.5 16q-19 0 -33.5 -13t-14.5 -34
q0 -28 48 -46l33 -11q75 -26 113.5 -59t38.5 -90q0 -94 -66 -142t-174 -48q-98 0 -152.5 41.5zM174 -220h-104l72 156h158z" />
    <glyph glyph-name="uni021A" unicode="&#x21a;" horiz-adv-x="543" 
d="M574 614h-164l-86 -614h-178l86 614h-163l20 146h506zM198 -220h-104l72 156h158z" />
    <glyph glyph-name="uni021B" unicode="&#x21b;" horiz-adv-x="385" 
d="M231 201q-2 -13 -2 -31q0 -26 11 -37.5t38 -11.5t52 6l-8 -129q-48 -11 -107 -11q-75 0 -117.5 39.5t-42.5 112.5q0 23 3 48l28 198h-65l27 133h57l18 128h171l-18 -128h108l-19 -133h-108zM128 -220h-104l72 156h158z" />
    <glyph glyph-name="uni0232" unicode="&#x232;" horiz-adv-x="581" 
d="M661 760l-423 -760h-187l177 318l-161 442h183l72 -272l151 272h188zM266 985h257l-12 -91h-257z" />
    <glyph glyph-name="uni0233" unicode="&#x233;" 
d="M550 518l-68 -481q-17 -129 -88 -190.5t-185 -61.5q-90 0 -140.5 39.5t-66.5 109.5l172 17q3 -27 15 -39.5t36 -12.5q36 0 55.5 32t28.5 99l7 46q-30 -36 -67.5 -55.5t-80.5 -19.5q-67 0 -99.5 43t-32.5 113q0 27 4 50l44 311h172l-40 -283q-4 -23 -4 -46q0 -29 11.5 -44
t38.5 -15q55 0 77 109l39 279h172zM223 743h257l-12 -91h-257z" />
    <glyph glyph-name="uni0237" unicode="&#x237;" horiz-adv-x="287" 
d="M-67 -210q-29 5 -53 13l28 125q24 -8 49 -8q31 0 45.5 19t20.5 66l72 513h171l-76 -536q-15 -107 -63.5 -152t-138.5 -45q-26 0 -55 5z" />
    <glyph glyph-name="uni0259" unicode="&#x259;" horiz-adv-x="578" 
d="M376 305l1 17q0 44 -17.5 68t-51.5 24q-25 0 -46 -16.5t-32 -43.5l-170 13q37 80 104.5 122t165.5 42q66 0 115 -28.5t74.5 -78t25.5 -109.5q0 -96 -35 -170.5t-101 -116t-156 -41.5q-106 0 -163.5 62t-57.5 168q0 18 4 45.5t9 42.5h331zM327.5 137.5
q25.5 30.5 36.5 81.5h-165q-1 -8 -1 -23q0 -89 67 -89q37 0 62.5 30.5z" />
    <glyph glyph-name="uni0272" unicode="&#x272;" horiz-adv-x="576" 
d="M508.5 488q32.5 -43 32.5 -113q0 -25 -3 -51l-46 -324h-172l42 296q4 34 4 47q0 29 -11.5 44t-38.5 15q-32 0 -52 -29t-29 -78l-42 -295l-3 -18q-14 -103 -63.5 -150t-138.5 -47q-26 0 -55.5 5t-52.5 13l28 125q28 -8 49 -8q30 0 44 18.5t20 61.5l14 98l14 103l45 317
h154l5 -69q30 40 70.5 61t86.5 21q66 0 98.5 -43z" />
    <glyph glyph-name="circumflex" unicode="&#x2c6;" horiz-adv-x="458" 
d="M337 591l-44 94l-65 -94h-131l152 169h101l105 -169h-118z" />
    <glyph glyph-name="caron" unicode="&#x2c7;" horiz-adv-x="458" 
d="M479 760l-152 -169h-101l-105 169h118l44 -94l65 94h131z" />
    <glyph glyph-name="breve" unicode="&#x2d8;" horiz-adv-x="403" 
d="M156.5 634q-36.5 45 -36.5 126h92q0 -42 13 -61t41 -19q27 0 43 19.5t23 60.5h91q-11 -90 -55 -130.5t-111 -40.5q-64 0 -100.5 45z" />
    <glyph glyph-name="dotaccent" unicode="&#x2d9;" horiz-adv-x="284" 
d="M138 625.5q-27 26.5 -27 64.5t27 65t65 27q37 0 63.5 -27t26.5 -65t-26.5 -64.5t-63.5 -26.5q-38 0 -65 26.5z" />
    <glyph glyph-name="ring" unicode="&#x2da;" horiz-adv-x="344" 
d="M149 616.5q-35 35.5 -35 85.5q0 49 35 84t85 35t85.5 -35t35.5 -84q0 -50 -35.5 -85.5t-85.5 -35.5t-85 35.5zM273.5 660q16.5 17 16.5 42q0 24 -16.5 40.5t-39.5 16.5t-39.5 -16.5t-16.5 -40.5q0 -25 16.5 -42t39.5 -17t39.5 17z" />
    <glyph glyph-name="ogonek" unicode="&#x2db;" horiz-adv-x="295" 
d="M113 -23.5q-20 -20.5 -20 -53.5q0 -23 15 -36t42 -13q16 0 39 6l-8 -82q-37 -13 -75 -13q-46 0 -76.5 29.5t-30.5 71.5q0 64 44.5 108t115.5 52l3 -39q-29 -10 -49 -30.5z" />
    <glyph glyph-name="tilde" unicode="&#x2dc;" horiz-adv-x="484" 
d="M313 620.5q-18 8.5 -38 23.5q-29 22 -52 22q-31 0 -60 -38l-54 53q26 45 62 71t80 26q24 0 43 -9t39 -24q27 -22 51 -22q28 0 60 39l54 -51q-25 -45 -62 -72t-82 -27q-23 0 -41 8.5z" />
    <glyph glyph-name="hungarumlaut" unicode="&#x2dd;" horiz-adv-x="528" 
d="M201 587h-105l84 173h159zM411 587h-105l84 173h159z" />
    <glyph glyph-name="gravecomb" unicode="&#x300;" horiz-adv-x="0" 
d="M-88 760l84 -173h-105l-138 173h159z" />
    <glyph glyph-name="acutecomb" unicode="&#x301;" horiz-adv-x="0" 
d="M-118 587h-105l84 173h159z" />
    <glyph glyph-name="uni0302" unicode="&#x302;" horiz-adv-x="0" 
d="M-121 591l-44 94l-65 -94h-131l152 169h101l105 -169h-118z" />
    <glyph glyph-name="tildecomb" unicode="&#x303;" horiz-adv-x="0" 
d="M-171 620.5q-18 8.5 -38 23.5q-29 22 -52 22q-31 0 -60 -38l-54 53q26 45 62 71t80 26q24 0 43 -9t39 -24q27 -22 51 -22q28 0 60 39l54 -51q-25 -45 -62 -72t-82 -27q-23 0 -41 8.5z" />
    <glyph glyph-name="uni0304" unicode="&#x304;" horiz-adv-x="0" 
d="M-240 743h257l-12 -91h-257z" />
    <glyph glyph-name="uni0306" unicode="&#x306;" horiz-adv-x="0" 
d="M-246.5 634q-36.5 45 -36.5 126h92q0 -42 13 -61t41 -19q27 0 43 19.5t23 60.5h91q-11 -90 -55 -130.5t-111 -40.5q-64 0 -100.5 45z" />
    <glyph glyph-name="uni0307" unicode="&#x307;" horiz-adv-x="0" 
d="M-146 625.5q-27 26.5 -27 64.5t27 65t65 27q37 0 63.5 -27t26.5 -65t-26.5 -64.5t-63.5 -26.5q-38 0 -65 26.5z" />
    <glyph glyph-name="uni0308" unicode="&#x308;" horiz-adv-x="0" 
d="M-332.5 630.5q-23.5 23.5 -23.5 56.5q0 34 23.5 57.5t56.5 23.5t57 -23.5t24 -57.5q0 -33 -24 -56.5t-57 -23.5t-56.5 23.5zM-125.5 630.5q-23.5 23.5 -23.5 56.5q0 34 23.5 57.5t56.5 23.5t56 -23.5t23 -57.5q0 -33 -23 -56.5t-56 -23.5t-56.5 23.5z" />
    <glyph glyph-name="uni030A" unicode="&#x30a;" horiz-adv-x="0" 
d="M-195 616.5q-35 35.5 -35 85.5q0 49 35 84t85 35t85.5 -35t35.5 -84q0 -50 -35.5 -85.5t-85.5 -35.5t-85 35.5zM-70.5 660q16.5 17 16.5 42q0 24 -16.5 40.5t-39.5 16.5t-39.5 -16.5t-16.5 -40.5q0 -25 16.5 -42t39.5 -17t39.5 17z" />
    <glyph glyph-name="uni030B" unicode="&#x30b;" horiz-adv-x="0" 
d="M-327 587h-105l84 173h159zM-117 587h-105l84 173h159z" />
    <glyph glyph-name="uni030C" unicode="&#x30c;" horiz-adv-x="0" 
d="M21 760l-152 -169h-101l-105 169h118l44 -94l65 94h131z" />
    <glyph glyph-name="uni0326" unicode="&#x326;" horiz-adv-x="0" 
d="M-221 -220h-104l72 156h158z" />
    <glyph glyph-name="uni0327" unicode="&#x327;" horiz-adv-x="0" 
d="M-125 -57.5q22 -20.5 22 -55.5q0 -45 -32 -73.5t-86 -28.5q-47 0 -84 21l28 55q24 -10 43 -10q17 0 28 11t11 27q0 11 -6.5 17t-16.5 6q-16 0 -31 -13l-23 19l43 108h65l-20 -63h5q32 0 54 -20.5z" />
    <glyph glyph-name="uni0328" unicode="&#x328;" horiz-adv-x="0" 
d="M-182 -23.5q-20 -20.5 -20 -53.5q0 -23 15 -36t42 -13q16 0 39 6l-8 -82q-37 -13 -75 -13q-46 0 -76.5 29.5t-30.5 71.5q0 64 44.5 108t115.5 52l3 -39q-29 -10 -49 -30.5z" />
    <glyph glyph-name="tonos" unicode="&#x384;" horiz-adv-x="325" 
d="M197 587h-101l84 173h165z" />
    <glyph glyph-name="dieresistonos" unicode="&#x385;" horiz-adv-x="567" 
d="M315 797h146l-125 -210h-85zM132 636q-21 21 -21 51q0 31 21 52t51 21q29 0 50 -21t21 -52q0 -30 -21 -51t-50 -21q-30 0 -51 21zM454 636q-21 21 -21 51q0 31 21 52t51 21q29 0 50 -21t21 -52q0 -30 -21 -51t-50 -21q-30 0 -51 21z" />
    <glyph glyph-name="Alphatonos" unicode="&#x386;" horiz-adv-x="618" 
d="M396 110h-204l-38 -110h-192l316 760h203l101 -760h-178zM387 239l-25 362l-125 -362h150zM12 760h165l-148 -173h-101z" />
    <glyph glyph-name="anoteleia" unicode="&#x387;" horiz-adv-x="289" 
d="M100.5 349.5q-27.5 27.5 -27.5 65.5q0 39 27.5 66.5t66.5 27.5t66 -27.5t27 -66.5q0 -38 -27 -65.5t-66 -27.5t-66.5 27.5z" />
    <glyph glyph-name="Epsilontonos" unicode="&#x388;" horiz-adv-x="502" 
d="M285 614l-21 -150h214l-20 -140h-213l-25 -178h224l-21 -146h-403l107 760h402l-21 -146h-223zM-95 760h165l-148 -173h-101z" />
    <glyph glyph-name="Etatonos" unicode="&#x389;" horiz-adv-x="653" 
d="M666 760l-107 -760h-178l45 320h-182l-45 -320h-179l107 760h179l-41 -294h182l41 294h178zM-95 760h165l-148 -173h-101z" />
    <glyph glyph-name="Iotatonos" unicode="&#x38a;" horiz-adv-x="292" 
d="M127 760h179l-107 -760h-179zM-95 760h165l-148 -173h-101z" />
    <glyph glyph-name="Omicrontonos" unicode="&#x38c;" horiz-adv-x="740" 
d="M179.5 28.5q-64.5 41.5 -98.5 115t-34 166.5q0 123 49 229t139 170t207 64q88 0 152.5 -41.5t98.5 -115t34 -167.5q0 -123 -49.5 -229t-139.5 -169.5t-206 -63.5q-88 0 -152.5 41.5zM455 192.5q43 43.5 65.5 111t22.5 138.5q0 81 -31.5 125t-89.5 44q-59 0 -102.5 -43.5
t-66 -111.5t-22.5 -138q0 -81 32 -125t91 -44q58 0 101 43.5zM-49 760h165l-148 -173h-101z" />
    <glyph glyph-name="Upsilontonos" unicode="&#x38e;" horiz-adv-x="581" 
d="M661 760l-423 -760h-187l177 318l-161 442h183l72 -272l151 272h188zM-144 760h165l-148 -173h-101z" />
    <glyph glyph-name="Omegatonos" unicode="&#x38f;" horiz-adv-x="748" 
d="M693.5 290q-44.5 -88 -125.5 -144h126l-22 -146h-293l26 175q71 34 108 111t37 161q0 75 -35 119.5t-96 44.5q-55 0 -95.5 -35.5t-62.5 -95t-22 -128.5q0 -58 21.5 -105.5t63.5 -71.5l-28 -175h-291l21 146h125q-46 42 -70.5 101t-24.5 124q0 119 50.5 210.5t138.5 141.5
t196 50q90 0 157.5 -38t103.5 -104t36 -147q0 -106 -44.5 -194zM-62 760h165l-148 -173h-101z" />
    <glyph glyph-name="iotadieresistonos" unicode="&#x390;" horiz-adv-x="318" 
d="M79 20q-38 33 -38 107q0 20 6 72l42 319h172l-42 -319q-3 -16 -3 -30q0 -26 11 -36t45 -10h12l-11 -130q-30 -6 -71 -6q-85 0 -123 33zM167 797h146l-125 -210h-85zM-16 636q-21 21 -21 51q0 31 21 52t51 21q29 0 50 -21t21 -52q0 -30 -21 -51t-50 -21q-30 0 -51 21z
M306 636q-21 21 -21 51q0 31 21 52t51 21q29 0 50 -21t21 -52q0 -30 -21 -51t-50 -21q-30 0 -51 21z" />
    <glyph glyph-name="Alpha" unicode="&#x391;" horiz-adv-x="618" 
d="M396 110h-204l-38 -110h-192l316 760h203l101 -760h-178zM387 239l-25 362l-125 -362h150z" />
    <glyph glyph-name="Beta" unicode="&#x392;" horiz-adv-x="579" 
d="M531.5 344.5q23.5 -37.5 23.5 -85.5q0 -75 -33 -134t-93.5 -92t-138.5 -33h-270l107 760h264q60 0 103 -22t65 -59.5t22 -83.5q0 -64 -29.5 -114.5t-83.5 -77.5q40 -21 63.5 -58.5zM386.5 485.5q24.5 31.5 24.5 79.5q0 66 -70 66h-59l-25 -177h59q46 0 70.5 31.5z
M358.5 171q26.5 37 26.5 88q0 35 -18 56.5t-52 21.5h-75l-28 -203h75q45 0 71.5 37z" />
    <glyph glyph-name="Gamma" unicode="&#x393;" horiz-adv-x="465" 
d="M201 0h-180l106 760h387l-23 -146h-205z" />
    <glyph glyph-name="uni0394" unicode="&#x394;" horiz-adv-x="656" 
d="M621 0h-659l334 760h204zM423 129l-49 468l-179 -468h228z" />
    <glyph glyph-name="Epsilon" unicode="&#x395;" horiz-adv-x="502" 
d="M285 614l-21 -150h214l-20 -140h-213l-25 -178h224l-21 -146h-403l107 760h402l-21 -146h-223z" />
    <glyph glyph-name="Zeta" unicode="&#x396;" horiz-adv-x="571" 
d="M257 146h273l-21 -146h-532l370 614h-246l21 146h506z" />
    <glyph glyph-name="Eta" unicode="&#x397;" horiz-adv-x="653" 
d="M666 760l-107 -760h-178l45 320h-182l-45 -320h-179l107 760h179l-41 -294h182l41 294h178z" />
    <glyph glyph-name="Theta" unicode="&#x398;" horiz-adv-x="740" 
d="M181 28q-65 41 -99.5 115.5t-34.5 170.5q0 124 50.5 229t140.5 167.5t203 62.5q87 0 152 -41.5t99.5 -116t34.5 -170.5q0 -123 -50.5 -228t-140.5 -167.5t-203 -62.5q-87 0 -152 41zM454.5 187.5q44.5 43.5 68.5 112t24 141.5q0 85 -32.5 130t-91.5 45
q-58 0 -102.5 -43.5t-68.5 -112.5t-24 -141q0 -85 32.5 -130t91.5 -45q58 0 102.5 43.5zM311 458h177l-23 -141h-178z" />
    <glyph glyph-name="Iota" unicode="&#x399;" horiz-adv-x="292" 
d="M127 760h179l-107 -760h-179z" />
    <glyph glyph-name="Kappa" unicode="&#x39a;" horiz-adv-x="606" 
d="M413 444l164 -444h-173l-99 312l-78 -96l-30 -216h-177l107 760h177l-41 -292l212 292h195z" />
    <glyph glyph-name="Lambda" unicode="&#x39b;" horiz-adv-x="635" 
d="M414 0l-52 597l-215 -597h-185l323 760h203l112 -760h-186z" />
    <glyph glyph-name="Mu" unicode="&#x39c;" horiz-adv-x="794" 
d="M774 760l-51 -760h-165l44 503l-202 -503h-80l-62 501l-96 -501h-165l161 760h182l56 -480l190 480h188z" />
    <glyph glyph-name="Nu" unicode="&#x39d;" horiz-adv-x="660" 
d="M673 760l-107 -760h-172l-131 499l-70 -499h-172l106 760h172l133 -490l69 490h172z" />
    <glyph glyph-name="Xi" unicode="&#x39e;" horiz-adv-x="590" 
d="M122 760h496l-24 -146h-496zM120 465h421l-22 -140h-421zM26 146h521l-22 -146h-522z" />
    <glyph glyph-name="Omicron" unicode="&#x39f;" horiz-adv-x="740" 
d="M179.5 28.5q-64.5 41.5 -98.5 115t-34 166.5q0 123 49 229t139 170t207 64q88 0 152.5 -41.5t98.5 -115t34 -167.5q0 -123 -49.5 -229t-139.5 -169.5t-206 -63.5q-88 0 -152.5 41.5zM455 192.5q43 43.5 65.5 111t22.5 138.5q0 81 -31.5 125t-89.5 44q-59 0 -102.5 -43.5
t-66 -111.5t-22.5 -138q0 -81 32 -125t91 -44q58 0 101 43.5z" />
    <glyph glyph-name="Pi" unicode="&#x3a0;" horiz-adv-x="663" 
d="M127 760h548l-106 -760h-179l85 614h-188l-86 -614h-180z" />
    <glyph glyph-name="Rho" unicode="&#x3a1;" horiz-adv-x="600" 
d="M500 731q51 -29 78 -78.5t27 -108.5q0 -99 -35 -173t-101.5 -114t-158.5 -40h-83l-31 -217h-176l107 760h251q71 0 122 -29zM391.5 405q36.5 48 36.5 119q0 96 -92 96h-53l-37 -263h49q60 0 96.5 48z" />
    <glyph glyph-name="Sigma" unicode="&#x3a3;" horiz-adv-x="552" 
d="M221 406l-144 354h520l-19 -146h-263l90 -209l-154 -259h275l-22 -146h-533z" />
    <glyph glyph-name="Tau" unicode="&#x3a4;" horiz-adv-x="543" 
d="M574 614h-164l-86 -614h-178l86 614h-163l20 146h506z" />
    <glyph glyph-name="Upsilon" unicode="&#x3a5;" horiz-adv-x="581" 
d="M661 760l-423 -760h-187l177 318l-161 442h183l72 -272l151 272h188z" />
    <glyph glyph-name="Phi" unicode="&#x3a6;" horiz-adv-x="829" 
d="M776.5 258.5q-42.5 -76.5 -119.5 -120.5t-178 -54l-12 -84h-178l11 82q-121 13 -187 84.5t-66 183.5q0 101 44.5 178.5t122 124.5t174.5 58l7 49h178l-7 -48q120 -14 186.5 -87t66.5 -185q0 -105 -42.5 -181.5zM319 215l50 359q-72 -8 -114 -68.5t-42 -143.5
q0 -122 106 -147zM610 283q43 56 43 140q0 61 -29 100t-77 51l-50 -358q70 11 113 67z" />
    <glyph glyph-name="Chi" unicode="&#x3a7;" horiz-adv-x="610" 
d="M415 385l156 -385h-184l-79 237l-146 -237h-200l274 396l-148 364h185l69 -227l134 227h202z" />
    <glyph glyph-name="Psi" unicode="&#x3a8;" horiz-adv-x="803" 
d="M833 760l-28 -200q-21 -156 -103 -247t-216 -96l-30 -217h-178l30 218q-105 6 -166 80.5t-61 196.5q0 24 6 72l24 193h173l-29 -215q-4 -24 -4 -51q0 -55 20 -86.5t59 -37.5l54 390h177l-54 -390q55 4 84 47.5t39 121.5l30 221h173z" />
    <glyph glyph-name="uni03A9" unicode="&#x3a9;" horiz-adv-x="748" 
d="M693.5 290q-44.5 -88 -125.5 -144h126l-22 -146h-293l26 175q71 34 108 111t37 161q0 75 -35 119.5t-96 44.5q-55 0 -95.5 -35.5t-62.5 -95t-22 -128.5q0 -58 21.5 -105.5t63.5 -71.5l-28 -175h-291l21 146h125q-46 42 -70.5 101t-24.5 124q0 119 50.5 210.5t138.5 141.5
t196 50q90 0 157.5 -38t103.5 -104t36 -147q0 -106 -44.5 -194z" />
    <glyph glyph-name="Iotadieresis" unicode="&#x3aa;" horiz-adv-x="292" 
d="M127 760h179l-107 -760h-179zM80.5 872.5q-23.5 23.5 -23.5 56.5q0 34 23.5 57.5t56.5 23.5t57 -23.5t24 -57.5q0 -33 -24 -56.5t-57 -23.5t-56.5 23.5zM287.5 872.5q-23.5 23.5 -23.5 56.5q0 34 23.5 57.5t56.5 23.5t56 -23.5t23 -57.5q0 -33 -23 -56.5t-56 -23.5
t-56.5 23.5z" />
    <glyph glyph-name="Upsilondieresis" unicode="&#x3ab;" horiz-adv-x="581" 
d="M661 760l-423 -760h-187l177 318l-161 442h183l72 -272l151 272h188zM257.5 872.5q-23.5 23.5 -23.5 56.5q0 34 23.5 57.5t56.5 23.5t57 -23.5t24 -57.5q0 -33 -24 -56.5t-57 -23.5t-56.5 23.5zM464.5 872.5q-23.5 23.5 -23.5 56.5q0 34 23.5 57.5t56.5 23.5t56 -23.5
t23 -57.5q0 -33 -23 -56.5t-56 -23.5t-56.5 23.5z" />
    <glyph glyph-name="alphatonos" unicode="&#x3ac;" horiz-adv-x="614" 
d="M540.5 129q8.5 -6 25.5 -6h12l-11 -131q-25 -5 -64 -5q-62 0 -91 21.5t-40 68.5q-3 11 -3 24q-64 -114 -173 -114q-46 0 -82.5 27t-57.5 77t-21 118q0 101 32.5 174t85 110.5t111.5 37.5q55 0 89 -29t47 -75l12 91h168l-46 -342q-2 -10 -2 -25q0 -16 8.5 -22zM331.5 146
q23.5 22 37.5 59.5t14 80.5q0 49 -18.5 78.5t-50.5 29.5q-28 0 -52.5 -22t-38.5 -59t-14 -80q0 -50 19 -79.5t52 -29.5q28 0 51.5 22zM371 587h-101l84 173h165z" />
    <glyph glyph-name="epsilontonos" unicode="&#x3ad;" horiz-adv-x="514" 
d="M68 24.5q-49 38.5 -49 98.5q0 47 29.5 87.5t85.5 57.5v3q-37 7 -57.5 32t-20.5 57q0 43 27.5 82.5t81.5 64t128 24.5q80 0 134 -40t65 -106l-166 -35q-2 20 -18.5 33t-42.5 13q-28 0 -44.5 -14.5t-16.5 -34.5q0 -18 13.5 -27.5t37.5 -9.5h45l-12 -86h-40
q-36 0 -52.5 -16.5t-16.5 -41.5q0 -20 15.5 -33t43.5 -13q34 0 60 19t32 44l160 -12q-23 -90 -99 -137.5t-181 -47.5q-93 0 -142 38.5zM333 587h-101l84 173h165z" />
    <glyph glyph-name="etatonos" unicode="&#x3ae;" horiz-adv-x="574" 
d="M505.5 486.5q32.5 -44.5 32.5 -115.5q0 -36 -5 -67l-71 -505h-174l69 483q4 32 4 52q0 35 -11.5 51.5t-35.5 16.5q-28 0 -50.5 -32.5t-32.5 -83.5l-41 -286h-173l72 518h155l6 -70q58 83 158 83q65 0 97.5 -44.5zM375 587h-101l84 173h165z" />
    <glyph glyph-name="iotatonos" unicode="&#x3af;" horiz-adv-x="318" 
d="M79 20q-38 33 -38 107q0 20 6 72l42 319h172l-42 -319q-3 -16 -3 -30q0 -26 11 -36t45 -10h12l-11 -130q-30 -6 -71 -6q-85 0 -123 33zM217 587h-101l84 173h165z" />
    <glyph glyph-name="upsilondieresistonos" unicode="&#x3b0;" horiz-adv-x="565" 
d="M98.5 33.5q-57.5 46.5 -57.5 146.5q0 19 5 61l38 277h173l-39 -289q-3 -21 -3 -41q0 -65 51 -65q59 0 74 106l40 289h174l-41 -292q-17 -118 -87 -178.5t-173 -60.5q-97 0 -154.5 46.5zM311 797h146l-125 -210h-85zM128 636q-21 21 -21 51q0 31 21 52t51 21q29 0 50 -21
t21 -52q0 -30 -21 -51t-50 -21q-30 0 -51 21zM450 636q-21 21 -21 51q0 31 21 52t51 21q29 0 50 -21t21 -52q0 -30 -21 -51t-50 -21q-30 0 -51 21z" />
    <glyph glyph-name="alpha" unicode="&#x3b1;" horiz-adv-x="614" 
d="M540.5 129q8.5 -6 25.5 -6h12l-11 -131q-25 -5 -64 -5q-62 0 -91 21.5t-40 68.5q-3 11 -3 24q-64 -114 -173 -114q-46 0 -82.5 27t-57.5 77t-21 118q0 101 32.5 174t85 110.5t111.5 37.5q55 0 89 -29t47 -75l12 91h168l-46 -342q-2 -10 -2 -25q0 -16 8.5 -22zM331.5 146
q23.5 22 37.5 59.5t14 80.5q0 49 -18.5 78.5t-50.5 29.5q-28 0 -52.5 -22t-38.5 -59t-14 -80q0 -50 19 -79.5t52 -29.5q28 0 51.5 22z" />
    <glyph glyph-name="beta" unicode="&#x3b2;" horiz-adv-x="596" 
d="M90 505q18 125 89 196.5t185 71.5q91 0 141.5 -44t50.5 -114q0 -57 -29 -105.5t-92 -62.5q65 -19 95.5 -68t30.5 -118q0 -71 -29 -134t-81.5 -101.5t-119.5 -38.5q-47 0 -80.5 23.5t-48.5 65.5l-39 -277h-172zM365 168q26 44 26 108q0 102 -89 102h-11l16 112h9
q35 0 50.5 31t15.5 59q0 24 -13 40t-34 16q-59 0 -72 -93l-39 -291q-2 -10 -2 -26q0 -46 18.5 -74t51.5 -28q47 0 73 44z" />
    <glyph glyph-name="gamma" unicode="&#x3b3;" horiz-adv-x="531" 
d="M564 518l-244 -485l-34 -234h-172l34 231l-108 488h178l37 -341l132 341h177z" />
    <glyph glyph-name="delta" unicode="&#x3b4;" horiz-adv-x="580" 
d="M133 15.5q-49 28.5 -74.5 78t-25.5 111.5q0 91 38 164.5t117 95.5q36 14 80 17l-134 180l16 98h426l-20 -129h-190l112 -149q35 -47 51 -92.5t16 -97.5q0 -95 -37.5 -163.5t-104.5 -105t-153 -36.5q-68 0 -117 28.5zM323 145.5q23 20.5 36.5 55.5t13.5 78t-15.5 72
t-50.5 29q-28 0 -51.5 -22.5t-37.5 -59.5t-14 -78q0 -42 19.5 -68.5t49.5 -26.5q27 0 50 20.5z" />
    <glyph glyph-name="epsilon" unicode="&#x3b5;" horiz-adv-x="514" 
d="M68 24.5q-49 38.5 -49 98.5q0 47 29.5 87.5t85.5 57.5v3q-37 7 -57.5 32t-20.5 57q0 43 27.5 82.5t81.5 64t128 24.5q80 0 134 -40t65 -106l-166 -35q-2 20 -18.5 33t-42.5 13q-28 0 -44.5 -14.5t-16.5 -34.5q0 -18 13.5 -27.5t37.5 -9.5h45l-12 -86h-40
q-36 0 -52.5 -16.5t-16.5 -41.5q0 -20 15.5 -33t43.5 -13q34 0 60 19t32 44l160 -12q-23 -90 -99 -137.5t-181 -47.5q-93 0 -142 38.5z" />
    <glyph glyph-name="zeta" unicode="&#x3b6;" horiz-adv-x="440" 
d="M159 -127q22 31 38 60t16 40q0 8 -7 15.5t-23 17.5l-31 20q-49 33 -74.5 55.5t-38.5 48.5t-13 62q0 99 91.5 219.5t210.5 219.5h-218l29 129h395l-15 -96q-134 -138 -225 -252.5t-91 -176.5q0 -29 14 -50t47 -41l45 -29q40 -25 59 -46t19 -46q0 -36 -41 -99.5t-84 -103.5
z" />
    <glyph glyph-name="eta" unicode="&#x3b7;" horiz-adv-x="574" 
d="M505.5 486.5q32.5 -44.5 32.5 -115.5q0 -36 -5 -67l-71 -505h-174l69 483q4 32 4 52q0 35 -11.5 51.5t-35.5 16.5q-28 0 -50.5 -32.5t-32.5 -83.5l-41 -286h-173l72 518h155l6 -70q58 83 158 83q65 0 97.5 -44.5z" />
    <glyph glyph-name="theta" unicode="&#x3b8;" horiz-adv-x="592" 
d="M528.5 697.5q51.5 -75.5 51.5 -209.5q0 -140 -37.5 -254t-110.5 -180.5t-173 -66.5q-212 0 -212 284q0 137 36.5 251.5t108.5 182.5t172 68q113 0 164.5 -75.5zM279.5 586q-29.5 -51 -46.5 -133h178q1 15 1 45q0 139 -64 139q-39 0 -68.5 -51zM347 179q31 56 48 144h-179
q-2 -40 -2 -58q0 -142 60 -142q42 0 73 56z" />
    <glyph glyph-name="iota" unicode="&#x3b9;" horiz-adv-x="318" 
d="M79 20q-38 33 -38 107q0 20 6 72l42 319h172l-42 -319q-3 -16 -3 -30q0 -26 11 -36t45 -10h12l-11 -130q-30 -6 -71 -6q-85 0 -123 33z" />
    <glyph glyph-name="kappa" unicode="&#x3ba;" horiz-adv-x="530" 
d="M358 321l139 -321h-168l-81 208l-37 -38l-24 -170h-170l72 518h170l-22 -157l124 157h189z" />
    <glyph glyph-name="lambda" unicode="&#x3bb;" horiz-adv-x="525" 
d="M504 116l-8 -112q-45 -17 -89 -17q-55 0 -81.5 24t-32.5 86l-29 228l-131 -325h-178l265 509l-11 79q-3 29 -15 39t-42 10h-15l9 129q53 7 89 7q62 0 97.5 -35t46.5 -116l77 -469q3 -23 11 -30t26 -7h11z" />
    <glyph glyph-name="uni03BC" unicode="&#x3bc;" horiz-adv-x="577" 
d="M561 518l-72 -518h-156l-3 71q-28 -38 -64.5 -59.5t-78.5 -24.5l-26 -188h-174l67 466l36 253h172l-9 -66l-13 -91l-19 -138q-4 -32 -4 -45q0 -63 49 -63q33 0 55 38t30 95l38 270h172z" />
    <glyph glyph-name="nu" unicode="&#x3bd;" horiz-adv-x="513" 
d="M559 518l-252 -518h-176l-105 518h177l31 -381l136 381h189z" />
    <glyph glyph-name="xi" unicode="&#x3be;" horiz-adv-x="476" 
d="M209 -130q24 32 38 61t14 44q0 20 -29 33l-68 33q-68 31 -103.5 72.5t-35.5 102.5q0 75 49 131t130 75q-57 11 -90 50.5t-33 91.5q0 61 33.5 109t89.5 74t120 26q87 0 140.5 -49.5t52.5 -131.5l-155 -17q-2 61 -48 61q-28 0 -44.5 -22t-16.5 -57q0 -83 97 -83h55
l-19 -121h-87q-47 0 -73.5 -29t-26.5 -70q0 -31 17 -53t54 -39l95 -49q35 -17 50 -36.5t15 -44.5q0 -43 -39 -109t-75 -104z" />
    <glyph glyph-name="omicron" unicode="&#x3bf;" horiz-adv-x="584" 
d="M89 50q-55 63 -55 160q0 91 35.5 164t102.5 115t158 42q109 0 164.5 -63.5t55.5 -160.5q0 -91 -35.5 -164t-102.5 -114.5t-159 -41.5q-109 0 -164 63zM330 150q24 27 36.5 68.5t12.5 82.5q0 45 -18 69.5t-50 24.5q-33 0 -57 -27.5t-36.5 -68.5t-12.5 -82q0 -45 18 -69.5
t50 -24.5q33 0 57 27z" />
    <glyph glyph-name="pi" unicode="&#x3c0;" horiz-adv-x="577" 
d="M89 518h470l-71 -518h-174l53 385h-123l-55 -385h-174z" />
    <glyph glyph-name="rho" unicode="&#x3c1;" horiz-adv-x="593" 
d="M443.5 30q54.5 43 85 116t30.5 160q0 64 -24.5 115t-73.5 80.5t-120 29.5q-74 0 -136.5 -34.5t-105.5 -102.5t-56 -163l-61 -432h173l37 276q17 -45 54.5 -66.5t74.5 -21.5q68 0 122.5 43zM366 365q19 -30 19 -77t-14.5 -84.5t-38 -58.5t-50.5 -21q-34 0 -52 28.5
t-18 75.5q0 51 14 89t37.5 58t49.5 20q34 0 53 -30z" />
    <glyph glyph-name="uni03C2" unicode="&#x3c2;" horiz-adv-x="527" 
d="M186 -126q24 31 40 59.5t16 41.5q0 19 -28 34l-51 27q-66 36 -96.5 82.5t-30.5 115.5q0 85 35.5 152.5t99.5 106t144 38.5q95 0 151 -50t56 -141l-164 -15q-1 34 -16.5 52t-42.5 18q-40 0 -65.5 -38t-25.5 -99q0 -35 14 -57t50 -42l80 -47q34 -19 47 -37.5t13 -43.5
q0 -43 -40.5 -108t-79.5 -103z" />
    <glyph glyph-name="sigma" unicode="&#x3c3;" horiz-adv-x="569" 
d="M131 16q-48 29 -73 79.5t-25 113.5q0 86 35 156t102 111.5t158 41.5h268l-21 -133h-108q28 -18 42 -53t14 -74q0 -74 -33.5 -136t-96.5 -98.5t-147 -36.5q-67 0 -115 29zM338.5 167.5q27.5 44.5 27.5 115.5q0 48 -18 75t-48 27q-27 0 -50 -20t-36.5 -56.5t-13.5 -82.5
q0 -48 18 -75.5t49 -27.5q44 0 71.5 44.5z" />
    <glyph glyph-name="tau" unicode="&#x3c4;" horiz-adv-x="440" 
d="M137.5 20q-36.5 33 -36.5 106q0 27 5 67l27 192h-114l30 133h409l-20 -133h-132l-25 -184q-2 -22 -2 -33q0 -26 10 -36t37 -10q29 0 56 9l-11 -129q-20 -6 -53.5 -10.5t-63.5 -4.5q-80 0 -116.5 33z" />
    <glyph glyph-name="upsilon" unicode="&#x3c5;" horiz-adv-x="565" 
d="M98.5 33.5q-57.5 46.5 -57.5 146.5q0 19 5 61l38 277h173l-39 -289q-3 -21 -3 -41q0 -65 51 -65q59 0 74 106l40 289h174l-41 -292q-17 -118 -87 -178.5t-173 -60.5q-97 0 -154.5 46.5z" />
    <glyph glyph-name="phi" unicode="&#x3c6;" horiz-adv-x="750" 
d="M250 -12q-73 6 -121.5 41t-71.5 85.5t-23 105.5q0 100 54 179t156 104l32 -105q-40 -24 -61.5 -68t-21.5 -97q0 -49 19 -82.5t55 -41.5l57 409h113q138 0 208.5 -61.5t70.5 -163.5q0 -86 -40.5 -153t-107.5 -105.5t-145 -45.5l-26 -190h-173zM493.5 141.5
q26.5 22.5 44.5 59t18 80.5q0 48 -19.5 80.5t-56.5 37.5l-39 -284q26 4 52.5 26.5z" />
    <glyph glyph-name="chi" unicode="&#x3c7;" horiz-adv-x="492" 
d="M279.5 -187.5q-28.5 27.5 -35.5 78.5l-30 182l-117 -274h-176l228 388l-43 161q-7 29 -19.5 41t-41.5 12h-7l10 123q42 7 85 7q112 0 119 -111l16 -132l98 230h177l-204 -339l52 -220q5 -23 15 -29.5t35 -6.5h7l-6 -122q-46 -16 -93 -16q-41 0 -69.5 27.5z" />
    <glyph glyph-name="psi" unicode="&#x3c8;" horiz-adv-x="749" 
d="M251 -11q-57 4 -103.5 33t-74 80.5t-27.5 119.5q0 25 6 63l32 233h165l-38 -275q-2 -19 -2 -51q0 -33 17 -51.5t44 -20.5l55 398h171l-55 -398q40 5 63 35t30 80l37 283h166l-35 -260q-16 -118 -90.5 -192t-189.5 -78l-28 -189h-171z" />
    <glyph glyph-name="omega" unicode="&#x3c9;" horiz-adv-x="762" 
d="M70.5 39.5q-36.5 52.5 -36.5 143.5q0 140 66 240.5t221 107.5l1 -126q-56 -8 -86 -68t-30 -138q0 -77 41 -77q20 0 35.5 20t20.5 52l17 138h138l-15 -113q-3 -24 -3 -37q0 -26 9.5 -43t28.5 -17q33 0 53.5 47t20.5 118q0 49 -18 81.5t-56 37.5l40 125q107 -6 156.5 -71.5
t49.5 -163.5q0 -81 -27 -152t-81 -114t-131 -43q-30 0 -58.5 15t-48 44.5t-20.5 71.5q-23 -61 -70 -96t-101 -35q-80 0 -116.5 52.5z" />
    <glyph glyph-name="iotadieresis" unicode="&#x3ca;" horiz-adv-x="318" 
d="M79 20q-38 33 -38 107q0 20 6 72l42 319h172l-42 -319q-3 -16 -3 -30q0 -26 11 -36t45 -10h12l-11 -130q-30 -6 -71 -6q-85 0 -123 33zM37.5 630.5q-23.5 23.5 -23.5 56.5q0 34 23.5 57.5t56.5 23.5t57 -23.5t24 -57.5q0 -33 -24 -56.5t-57 -23.5t-56.5 23.5z
M244.5 630.5q-23.5 23.5 -23.5 56.5q0 34 23.5 57.5t56.5 23.5t56 -23.5t23 -57.5q0 -33 -23 -56.5t-56 -23.5t-56.5 23.5z" />
    <glyph glyph-name="upsilondieresis" unicode="&#x3cb;" horiz-adv-x="565" 
d="M98.5 33.5q-57.5 46.5 -57.5 146.5q0 19 5 61l38 277h173l-39 -289q-3 -21 -3 -41q0 -65 51 -65q59 0 74 106l40 289h174l-41 -292q-17 -118 -87 -178.5t-173 -60.5q-97 0 -154.5 46.5zM181.5 630.5q-23.5 23.5 -23.5 56.5q0 34 23.5 57.5t56.5 23.5t57 -23.5t24 -57.5
q0 -33 -24 -56.5t-57 -23.5t-56.5 23.5zM388.5 630.5q-23.5 23.5 -23.5 56.5q0 34 23.5 57.5t56.5 23.5t56 -23.5t23 -57.5q0 -33 -23 -56.5t-56 -23.5t-56.5 23.5z" />
    <glyph glyph-name="omicrontonos" unicode="&#x3cc;" horiz-adv-x="584" 
d="M89 50q-55 63 -55 160q0 91 35.5 164t102.5 115t158 42q109 0 164.5 -63.5t55.5 -160.5q0 -91 -35.5 -164t-102.5 -114.5t-159 -41.5q-109 0 -164 63zM330 150q24 27 36.5 68.5t12.5 82.5q0 45 -18 69.5t-50 24.5q-33 0 -57 -27.5t-36.5 -68.5t-12.5 -82q0 -45 18 -69.5
t50 -24.5q33 0 57 27zM401 587h-101l84 173h165z" />
    <glyph glyph-name="upsilontonos" unicode="&#x3cd;" horiz-adv-x="565" 
d="M98.5 33.5q-57.5 46.5 -57.5 146.5q0 19 5 61l38 277h173l-39 -289q-3 -21 -3 -41q0 -65 51 -65q59 0 74 106l40 289h174l-41 -292q-17 -118 -87 -178.5t-173 -60.5q-97 0 -154.5 46.5zM361 587h-101l84 173h165z" />
    <glyph glyph-name="omegatonos" unicode="&#x3ce;" horiz-adv-x="762" 
d="M70.5 39.5q-36.5 52.5 -36.5 143.5q0 140 66 240.5t221 107.5l1 -126q-56 -8 -86 -68t-30 -138q0 -77 41 -77q20 0 35.5 20t20.5 52l17 138h138l-15 -113q-3 -24 -3 -37q0 -26 9.5 -43t28.5 -17q33 0 53.5 47t20.5 118q0 49 -18 81.5t-56 37.5l40 125q107 -6 156.5 -71.5
t49.5 -163.5q0 -81 -27 -152t-81 -114t-131 -43q-30 0 -58.5 15t-48 44.5t-20.5 71.5q-23 -61 -70 -96t-101 -35q-80 0 -116.5 52.5zM462 587h-101l84 173h165z" />
    <glyph glyph-name="uni0400" unicode="&#x400;" horiz-adv-x="502" 
d="M285 614l-21 -150h214l-20 -140h-213l-25 -178h224l-21 -146h-403l107 760h402l-21 -146h-223zM298 1002l84 -173h-105l-138 173h159z" />
    <glyph glyph-name="uni0401" unicode="&#x401;" horiz-adv-x="502" 
d="M285 614l-21 -150h214l-20 -140h-213l-25 -178h224l-21 -146h-403l107 760h402l-21 -146h-223zM192.5 872.5q-23.5 23.5 -23.5 56.5q0 34 23.5 57.5t56.5 23.5t57 -23.5t24 -57.5q0 -33 -24 -56.5t-57 -23.5t-56.5 23.5zM399.5 872.5q-23.5 23.5 -23.5 56.5
q0 34 23.5 57.5t56.5 23.5t56 -23.5t23 -57.5q0 -33 -23 -56.5t-56 -23.5t-56.5 23.5z" />
    <glyph glyph-name="uni0402" unicode="&#x402;" horiz-adv-x="725" 
d="M595 442q50 -27 75 -71.5t25 -98.5q0 -79 -34 -142.5t-95.5 -101t-140.5 -41.5l2 129q44 11 66.5 49t22.5 85q0 36 -21 54.5t-57 18.5h-88l-45 -323h-178l86 614h-145l23 146h526l-23 -146h-203l-21 -145h104q71 0 121 -27z" />
    <glyph glyph-name="uni0403" unicode="&#x403;" horiz-adv-x="460" 
d="M492 614h-206l-86 -614h-179l106 760h387zM383 829h-105l84 173h159z" />
    <glyph glyph-name="uni0404" unicode="&#x404;" horiz-adv-x="728" 
d="M189.5 30.5q-67.5 43.5 -104.5 119t-37 168.5q0 126 52 230.5t140.5 164.5t194.5 60q83 0 146.5 -40.5t99.5 -108t40 -146.5l-170 -6q-7 70 -40 107t-87 37q-65 0 -114.5 -51t-72.5 -131h244l-16 -110h-244v-2q0 -83 34 -130.5t95 -47.5q58 0 104 40.5t72 110.5l170 -23
q-46 -134 -138 -209.5t-212 -75.5q-89 0 -156.5 43.5z" />
    <glyph glyph-name="uni0405" unicode="&#x405;" horiz-adv-x="616" 
d="M101 44q-61 57 -70 159q-2 14 -2 21l186 12v-20q0 -48 22 -71.5t58 -23.5q42 0 68.5 29.5t26.5 73.5q0 27 -15 44t-42 29l-66 27q-78 33 -127 84t-49 125q0 72 35.5 126.5t99 84t145.5 29.5q124 0 181 -63t59 -165l-185 -12q2 20 2 25q0 40 -18.5 61t-52.5 21
q-36 0 -58 -23.5t-22 -60.5q0 -26 15.5 -45t49.5 -33l70 -29q77 -32 120.5 -79.5t43.5 -116.5q0 -81 -38 -141t-106 -92.5t-154 -32.5q-116 0 -177 57z" />
    <glyph glyph-name="uni0406" unicode="&#x406;" horiz-adv-x="292" 
d="M127 760h179l-107 -760h-179z" />
    <glyph glyph-name="uni0407" unicode="&#x407;" horiz-adv-x="292" 
d="M127 760h179l-107 -760h-179zM80.5 872.5q-23.5 23.5 -23.5 56.5q0 34 23.5 57.5t56.5 23.5t57 -23.5t24 -57.5q0 -33 -24 -56.5t-57 -23.5t-56.5 23.5zM287.5 872.5q-23.5 23.5 -23.5 56.5q0 34 23.5 57.5t56.5 23.5t56 -23.5t23 -57.5q0 -33 -23 -56.5t-56 -23.5
t-56.5 23.5z" />
    <glyph glyph-name="uni0408" unicode="&#x408;" horiz-adv-x="596" 
d="M135 18q-50 31 -79 90t-29 139l180 12q-1 -6 -1 -19q0 -45 18 -68t47 -23q37 0 62 31.5t34 93.5l69 486h178l-68 -479q-22 -153 -99.5 -223.5t-199.5 -70.5q-62 0 -112 31z" />
    <glyph glyph-name="uni0409" unicode="&#x409;" horiz-adv-x="982" 
d="M853 501q50 -30 76 -80.5t26 -111.5q0 -97 -35.5 -166.5t-100 -106t-150.5 -36.5h-265l85 607l-333 -607h-188l448 760h272l-32 -229h77q70 0 120 -30zM743 186q33 46 33 113q0 43 -20 68t-64 25h-55l-35 -252h50q58 0 91 46z" />
    <glyph glyph-name="uni040A" unicode="&#x40a;" horiz-adv-x="936" 
d="M807 501q50 -30 76 -80.5t26 -111.5q0 -97 -35.5 -166.5t-100 -106t-150.5 -36.5h-265l45 320h-158l-45 -320h-179l106 760h179l-41 -294h158l41 294h178l-32 -229h77q70 0 120 -30zM697 186q33 46 33 113q0 43 -20 68t-64 25h-55l-35 -252h50q58 0 91 46z" />
    <glyph glyph-name="uni040B" unicode="&#x40b;" horiz-adv-x="733" 
d="M585.5 443.5q50.5 -25.5 79 -73t28.5 -110.5q0 -33 -3 -53l-27 -207h-178l26 196q5 35 5 54q0 39 -19 56t-63 17h-83l-45 -323h-179l86 614h-145l23 146h526l-23 -146h-202l-21 -145h99q65 0 115.5 -25.5z" />
    <glyph glyph-name="uni040C" unicode="&#x40c;" horiz-adv-x="606" 
d="M413 444l164 -444h-173l-99 312l-78 -96l-30 -216h-177l107 760h177l-41 -292l212 292h195zM431 829h-105l84 173h159z" />
    <glyph glyph-name="uni040D" unicode="&#x40d;" horiz-adv-x="663" 
d="M676 760l-106 -760h-173l68 488l-271 -488h-173l106 760h173l-67 -483l270 483h173zM368 1002l84 -173h-105l-138 173h159z" />
    <glyph glyph-name="uni040E" unicode="&#x40e;" horiz-adv-x="588" 
d="M665 760l-405 -760h-188l138 259l-143 501h179l67 -307l163 307h189zM279 882q-38 46 -35 130h91q-5 -85 54 -85q27 0 43 20.5t23 64.5h92q-11 -93 -55.5 -134.5t-111.5 -41.5q-63 0 -101 46z" />
    <glyph glyph-name="uni040F" unicode="&#x40f;" horiz-adv-x="648" 
d="M661 760l-106 -760h-186l-30 -156h-143l13 156h-187l106 760h177l-86 -614h178l86 614h178z" />
    <glyph glyph-name="uni0410" unicode="&#x410;" horiz-adv-x="618" 
d="M396 110h-204l-38 -110h-192l316 760h203l101 -760h-178zM387 239l-25 362l-125 -362h150z" />
    <glyph glyph-name="uni0411" unicode="&#x411;" horiz-adv-x="593" 
d="M461 472.5q50 -27.5 76.5 -75t26.5 -106.5q0 -89 -37 -155t-101.5 -101t-145.5 -35h-259l106 760h452l-23 -143h-271l-16 -117h75q67 0 117 -27.5zM354.5 185.5q31.5 39.5 31.5 103.5q0 37 -18.5 58.5t-63.5 21.5h-54l-31 -223h51q53 0 84.5 39.5z" />
    <glyph glyph-name="uni0412" unicode="&#x412;" horiz-adv-x="579" 
d="M531.5 344.5q23.5 -37.5 23.5 -85.5q0 -75 -33 -134t-93.5 -92t-138.5 -33h-270l107 760h264q60 0 103 -22t65 -59.5t22 -83.5q0 -64 -29.5 -114.5t-83.5 -77.5q40 -21 63.5 -58.5zM386.5 485.5q24.5 31.5 24.5 79.5q0 66 -70 66h-59l-25 -177h59q46 0 70.5 31.5z
M358.5 171q26.5 37 26.5 88q0 35 -18 56.5t-52 21.5h-75l-28 -203h75q45 0 71.5 37z" />
    <glyph glyph-name="uni0413" unicode="&#x413;" horiz-adv-x="460" 
d="M492 614h-206l-86 -614h-179l106 760h387z" />
    <glyph glyph-name="uni0414" unicode="&#x414;" horiz-adv-x="663" 
d="M640 146l-40 -286h-145l12 140h-343l-29 -140h-144l40 286h52l256 614h202l82 -614h57zM411 146l-34 415l-149 -415h183z" />
    <glyph glyph-name="uni0415" unicode="&#x415;" horiz-adv-x="502" 
d="M285 614l-21 -150h214l-20 -140h-213l-25 -178h224l-21 -146h-403l107 760h402l-21 -146h-223z" />
    <glyph glyph-name="uni0416" unicode="&#x416;" horiz-adv-x="930" 
d="M719 445l168 -445h-177l-98 318l-62 -71l-34 -247h-172l37 264l-41 72l-179 -336h-191l287 483l-156 277h180l127 -299l42 299h172l-43 -306l203 306h207z" />
    <glyph glyph-name="uni0417" unicode="&#x417;" horiz-adv-x="557" 
d="M512.5 343q20.5 -38 20.5 -88q0 -128 -76.5 -198t-212.5 -70q-109 0 -171.5 52.5t-62.5 141.5q0 18 3 36l170 3q-2 -16 -2 -24q0 -34 18 -52.5t52 -18.5q44 0 73 38.5t29 93.5q0 38 -22.5 58.5t-73.5 20.5h-90l17 126h78q55 0 86.5 31.5t31.5 79.5q0 30 -16.5 47
t-48.5 17q-41 0 -64 -25t-30 -67l-164 14q17 97 86.5 155.5t193.5 58.5q114 0 168.5 -50.5t54.5 -125.5q0 -64 -27.5 -114.5t-79.5 -79.5q39 -22 59.5 -60z" />
    <glyph glyph-name="uni0418" unicode="&#x418;" horiz-adv-x="663" 
d="M676 760l-106 -760h-173l68 488l-271 -488h-173l106 760h173l-67 -483l270 483h173z" />
    <glyph glyph-name="uni0419" unicode="&#x419;" horiz-adv-x="663" 
d="M676 760l-106 -760h-173l68 488l-271 -488h-173l106 760h173l-67 -483l270 483h173zM318 882q-38 46 -35 130h91q-5 -85 54 -85q27 0 43 20.5t23 64.5h92q-11 -93 -55.5 -134.5t-111.5 -41.5q-63 0 -101 46z" />
    <glyph glyph-name="uni041A" unicode="&#x41a;" horiz-adv-x="606" 
d="M413 444l164 -444h-173l-99 312l-78 -96l-30 -216h-177l107 760h177l-41 -292l212 292h195z" />
    <glyph glyph-name="uni041B" unicode="&#x41b;" horiz-adv-x="618" 
d="M405 0l-48 562l-205 -562h-190l315 760h203l102 -760h-177z" />
    <glyph glyph-name="uni041C" unicode="&#x41c;" horiz-adv-x="794" 
d="M774 760l-51 -760h-165l44 503l-202 -503h-80l-62 501l-96 -501h-165l161 760h182l56 -480l190 480h188z" />
    <glyph glyph-name="uni041D" unicode="&#x41d;" horiz-adv-x="653" 
d="M666 760l-107 -760h-178l45 320h-182l-45 -320h-179l107 760h179l-41 -294h182l41 294h178z" />
    <glyph glyph-name="uni041E" unicode="&#x41e;" horiz-adv-x="740" 
d="M179.5 28.5q-64.5 41.5 -98.5 115t-34 166.5q0 123 49 229t139 170t207 64q88 0 152.5 -41.5t98.5 -115t34 -167.5q0 -123 -49.5 -229t-139.5 -169.5t-206 -63.5q-88 0 -152.5 41.5zM455 192.5q43 43.5 65.5 111t22.5 138.5q0 81 -31.5 125t-89.5 44q-59 0 -102.5 -43.5
t-66 -111.5t-22.5 -138q0 -81 32 -125t91 -44q58 0 101 43.5z" />
    <glyph glyph-name="uni041F" unicode="&#x41f;" horiz-adv-x="648" 
d="M554 0h-177l86 614h-178l-86 -614h-178l106 760h533z" />
    <glyph glyph-name="uni0420" unicode="&#x420;" horiz-adv-x="600" 
d="M500 731q51 -29 78 -78.5t27 -108.5q0 -99 -35 -173t-101.5 -114t-158.5 -40h-83l-31 -217h-176l107 760h251q71 0 122 -29zM391.5 405q36.5 48 36.5 119q0 96 -92 96h-53l-37 -263h49q60 0 96.5 48z" />
    <glyph glyph-name="uni0421" unicode="&#x421;" horiz-adv-x="726" 
d="M640.5 694.5q73.5 -78.5 84.5 -213.5l-187 -15q-10 145 -116 145q-59 0 -103 -43.5t-66.5 -111.5t-22.5 -138q0 -82 32.5 -125.5t91.5 -43.5q54 0 97 40t66 106l179 -15q-43 -137 -136.5 -215t-224.5 -78q-90 0 -155 40.5t-99 113.5t-34 169q0 123 49 229t139 170t207 64
q125 0 198.5 -78.5z" />
    <glyph glyph-name="uni0422" unicode="&#x422;" horiz-adv-x="543" 
d="M574 614h-164l-86 -614h-178l86 614h-163l20 146h506z" />
    <glyph glyph-name="uni0423" unicode="&#x423;" horiz-adv-x="588" 
d="M665 760l-405 -760h-188l138 259l-143 501h179l67 -307l163 307h189z" />
    <glyph glyph-name="uni0424" unicode="&#x424;" horiz-adv-x="816" 
d="M761.5 246q-43.5 -76 -119 -117.5t-172.5 -45.5l-14 -96h-173l14 97q-73 5 -130 36.5t-89.5 86t-32.5 127.5q0 104 43.5 180t119.5 117.5t173 45.5l14 96h172l-14 -97q73 -5 130 -36.5t89.5 -86t32.5 -127.5q0 -104 -43.5 -180zM594 286.5q38 51.5 38 135.5
q0 52 -24 79.5t-75 31.5l-43 -306q66 8 104 59.5zM242.5 258.5q24.5 -27.5 74.5 -31.5l44 306q-66 -8 -104.5 -59.5t-38.5 -135.5q0 -52 24.5 -79.5z" />
    <glyph glyph-name="uni0425" unicode="&#x425;" horiz-adv-x="616" 
d="M419 385l156 -385h-185l-79 237l-146 -237h-200l275 396l-149 364h185l69 -227l135 227h202z" />
    <glyph glyph-name="uni0426" unicode="&#x426;" horiz-adv-x="678" 
d="M659 146l-43 -286h-143l12 140h-464l106 760h178l-86 -614h173l86 614h177l-86 -614h90z" />
    <glyph glyph-name="uni0427" unicode="&#x427;" horiz-adv-x="604" 
d="M616 760l-106 -760h-178l37 263h-74q-59 0 -110 25.5t-82 75t-31 117.5q0 18 4 52l32 227h178l-32 -221q-3 -22 -3 -46q0 -41 19.5 -62.5t62.5 -21.5h56l49 351h178z" />
    <glyph glyph-name="uni0428" unicode="&#x428;" horiz-adv-x="928" 
d="M940 760l-106 -760h-813l106 760h178l-86 -614h143l86 614h172l-86 -614h142l86 614h178z" />
    <glyph glyph-name="uni0429" unicode="&#x429;" horiz-adv-x="963" 
d="M945 146l-43 -286h-143l12 140h-750l106 760h178l-86 -614h143l86 614h172l-86 -614h142l86 614h178l-86 -614h91z" />
    <glyph glyph-name="uni042A" unicode="&#x42a;" horiz-adv-x="696" 
d="M567 501q50 -30 76 -80.5t26 -111.5q0 -97 -35.5 -166.5t-100 -106t-150.5 -36.5h-265l86 614h-136l23 146h311l-32 -229h77q70 0 120 -30zM457 186q33 46 33 113q0 43 -20 68t-64 25h-55l-35 -252h50q58 0 91 46z" />
    <glyph glyph-name="uni042B" unicode="&#x42b;" horiz-adv-x="876" 
d="M470 501q50 -30 76 -80.5t26 -111.5q0 -97 -35.5 -166.5t-100 -106t-150.5 -36.5h-265l106 760h178l-32 -229h77q70 0 120 -30zM889 760l-107 -760h-177l106 760h178zM360 186q33 46 33 113q0 43 -20 68t-64 25h-55l-35 -252h50q58 0 91 46z" />
    <glyph glyph-name="uni042C" unicode="&#x42c;" horiz-adv-x="598" 
d="M470 501q50 -30 76 -80.5t26 -111.5q0 -97 -35.5 -166.5t-100 -106t-150.5 -36.5h-265l106 760h178l-32 -229h77q70 0 120 -30zM360 186q33 46 33 113q0 43 -20 68t-64 25h-55l-35 -252h50q58 0 91 46z" />
    <glyph glyph-name="uni042D" unicode="&#x42d;" horiz-adv-x="728" 
d="M572.5 729.5q67.5 -43.5 104.5 -119t37 -168.5q0 -126 -52 -230.5t-140.5 -164.5t-194.5 -60q-83 0 -146.5 40.5t-99.5 108t-40 146.5l170 6q7 -70 40 -107t87 -37q65 0 114.5 51t72.5 131h-244l16 110h244v2q0 83 -34 130.5t-95 47.5q-58 0 -104 -40.5t-72 -110.5
l-170 23q46 134 138 209.5t212 75.5q89 0 156.5 -43.5z" />
    <glyph glyph-name="uni042E" unicode="&#x42e;" horiz-adv-x="985" 
d="M838 730q64 -43 98.5 -117.5t34.5 -166.5q0 -126 -47.5 -231t-133 -166.5t-194.5 -61.5q-85 0 -149 43t-98.5 117.5t-34.5 166.5v6h-69l-45 -320h-179l106 760h179l-41 -294h69q24 90 74.5 159.5t122.5 108.5t159 39q84 0 148 -43zM698 190.5q42 41.5 66.5 110
t24.5 143.5q0 78 -30 122.5t-80 44.5q-49 0 -91 -41.5t-67 -110t-25 -143.5q0 -78 30.5 -122.5t80.5 -44.5q49 0 91 41.5z" />
    <glyph glyph-name="uni042F" unicode="&#x42f;" horiz-adv-x="604" 
d="M511 0h-178l30 217h-48l-123 -217h-190l151 254q-43 29 -66 76.5t-23 107.5q0 99 36 171.5t103.5 111.5t159.5 39h254zM383 357l36 263h-50q-56 0 -91 -48t-35 -120q0 -44 20.5 -69.5t64.5 -25.5h55z" />
    <glyph glyph-name="uni0430" unicode="&#x430;" horiz-adv-x="599" 
d="M583 518l-72 -518h-160v81q-26 -43 -65 -68.5t-89 -25.5q-47 0 -85 25.5t-59.5 74t-21.5 112.5q0 81 30 158t83.5 125.5t121.5 48.5q52 0 85.5 -27.5t48.5 -71.5l12 86h171zM332.5 149.5q24.5 26.5 37.5 67t13 80.5q0 46 -18.5 72t-50.5 26t-56.5 -27t-37.5 -67.5
t-13 -80.5q0 -46 18 -71.5t51 -25.5q32 0 56.5 26.5z" />
    <glyph glyph-name="uni0431" unicode="&#x431;" horiz-adv-x="584" 
d="M498.5 453q50.5 -58 50.5 -152q0 -92 -36.5 -163.5t-102 -111t-149.5 -39.5q-103 0 -160.5 66.5t-57.5 193.5q0 51 9 105q23 152 72.5 239t118 122.5t161.5 39.5l163 8l-34 -138l-127 -4q-57 -2 -93.5 -18t-60.5 -51t-42 -95q32 29 70.5 42.5t77.5 13.5q90 0 140.5 -58z
M324.5 148.5q25.5 25.5 40 66.5t14.5 85t-17 69t-46 25q-30 0 -56 -23.5t-41 -63.5t-15 -87t17 -72t47 -25q31 0 56.5 25.5z" />
    <glyph glyph-name="uni0432" unicode="&#x432;" horiz-adv-x="506" 
d="M453 229q16 -26 16 -59q0 -80 -49.5 -125t-155.5 -45h-248l73 518h251q71 0 108 -32.5t37 -83.5q0 -40 -18.5 -77t-57.5 -54q28 -16 44 -42zM317.5 323q17.5 17 17.5 46q0 37 -39 37h-60l-13 -100h51q26 0 43.5 17zM296 136q18 19 18 52q0 42 -52 42h-50l-16 -113h50
q32 0 50 19z" />
    <glyph glyph-name="uni0433" unicode="&#x433;" horiz-adv-x="385" 
d="M385 385h-143l-54 -385h-172l73 518h318z" />
    <glyph glyph-name="uni0434" unicode="&#x434;" 
d="M501 -130h-133l11 130h-264l-28 -130h-135l38 263h58l178 385h187l71 -385h57zM336 133l-28 262l-99 -262h127z" />
    <glyph glyph-name="uni0435" unicode="&#x435;" horiz-adv-x="578" 
d="M202 213l-1 -17q0 -44 17.5 -68t51.5 -24q25 0 46 16.5t32 43.5l170 -13q-37 -80 -104.5 -122t-165.5 -42q-66 0 -115 28.5t-74.5 78t-25.5 109.5q0 96 35 170.5t101 116t156 41.5q106 0 163.5 -62t57.5 -168q0 -18 -4 -45.5t-9 -42.5h-331zM250.5 380.5
q-25.5 -30.5 -36.5 -81.5h165q1 8 1 23q0 89 -67 89q-37 0 -62.5 -30.5z" />
    <glyph glyph-name="uni0436" unicode="&#x436;" horiz-adv-x="754" 
d="M578 311l137 -311h-159l-71 217l-46 -47l-24 -170h-154l26 183l-27 39l-122 -222h-173l218 335l-126 183h162l91 -168l24 168h153l-24 -175l131 175h188z" />
    <glyph glyph-name="uni0437" unicode="&#x437;" horiz-adv-x="472" 
d="M415 231.5q19 -28.5 19 -68.5q0 -84 -60.5 -130t-171.5 -46q-69 0 -115 21.5t-67 56.5t-21 75q0 7 1 11l154 2v-9q0 -43 47 -43q32 0 51 21.5t19 52.5q0 24 -14 35t-44 11h-73l13 91h58q35 0 55.5 20.5t20.5 47.5q0 40 -43 40q-28 0 -45 -17t-21 -42l-147 16
q14 68 69.5 111t157.5 43q96 0 144.5 -34.5t48.5 -95.5q0 -45 -24 -78t-62 -47q31 -16 50 -44.5z" />
    <glyph glyph-name="uni0438" unicode="&#x438;" horiz-adv-x="563" 
d="M547 518l-73 -518h-166l40 283l-166 -283h-166l73 518h165l-40 -285l168 285h165z" />
    <glyph glyph-name="uni0439" unicode="&#x439;" horiz-adv-x="563" 
d="M547 518l-73 -518h-166l40 283l-166 -283h-166l73 518h165l-40 -285l168 285h165zM238 640q-38 46 -35 130h91q-5 -85 54 -85q27 0 43 20.5t23 64.5h92q-11 -93 -55.5 -134.5t-111.5 -41.5q-63 0 -101 46z" />
    <glyph glyph-name="uni043A" unicode="&#x43a;" horiz-adv-x="530" 
d="M344 298l148 -298h-168l-81 195l-39 -40l-22 -155h-166l73 518h167l-23 -160l137 160h190z" />
    <glyph glyph-name="uni043B" unicode="&#x43b;" horiz-adv-x="531" 
d="M333 0l-47 376l-147 -376h-174l243 518h188l97 -518h-160z" />
    <glyph glyph-name="uni043C" unicode="&#x43c;" horiz-adv-x="641" 
d="M611 518l-33 -518h-153l26 304l-126 -304h-79l-41 303l-59 -303h-156l112 518h168l46 -306l126 306h169z" />
    <glyph glyph-name="uni043D" unicode="&#x43d;" horiz-adv-x="556" 
d="M539 518l-72 -518h-172l28 199h-107l-28 -199h-172l73 518h172l-26 -186h106l26 186h172z" />
    <glyph glyph-name="uni043E" unicode="&#x43e;" horiz-adv-x="584" 
d="M89 50q-55 63 -55 160q0 91 35.5 164t102.5 115t158 42q109 0 164.5 -63.5t55.5 -160.5q0 -91 -35.5 -164t-102.5 -114.5t-159 -41.5q-109 0 -164 63zM330 150q24 27 36.5 68.5t12.5 82.5q0 45 -18 69.5t-50 24.5q-33 0 -57 -27.5t-36.5 -68.5t-12.5 -82q0 -45 18 -69.5
t50 -24.5q33 0 57 27z" />
    <glyph glyph-name="uni043F" unicode="&#x43f;" horiz-adv-x="552" 
d="M463 0h-172l54 385h-103l-54 -385h-172l73 518h447z" />
    <glyph glyph-name="uni0440" unicode="&#x440;" horiz-adv-x="599" 
d="M491 505.5q36 -25.5 56.5 -73t20.5 -110.5q0 -83 -30 -160.5t-84.5 -126t-123.5 -48.5q-48 0 -81.5 25t-48.5 70l-40 -283h-172l101 719h161l-1 -87q28 48 69 74t90 26q47 0 83 -25.5zM342 150q24 27 37 67.5t13 80.5q0 46 -18 71.5t-51 25.5q-32 0 -56 -26.5t-37 -67.5
t-13 -81q0 -44 18.5 -70.5t49.5 -26.5q33 0 57 27z" />
    <glyph glyph-name="uni0441" unicode="&#x441;" horiz-adv-x="564" 
d="M89 50q-55 63 -55 160q0 91 35 164t102 115t158 42q94 0 149.5 -54.5t59.5 -147.5l-164 -13q-6 79 -65 79q-33 0 -57.5 -27t-37 -68.5t-12.5 -82.5q0 -45 18.5 -69.5t52.5 -24.5q28 0 51 22t35 61l162 -13q-25 -96 -94 -151t-174 -55q-109 0 -164 63z" />
    <glyph glyph-name="uni0442" unicode="&#x442;" horiz-adv-x="442" 
d="M442 385h-117l-54 -385h-172l54 385h-120l21 133h409z" />
    <glyph glyph-name="uni0443" unicode="&#x443;" 
d="M550 518l-68 -481q-17 -129 -88 -190.5t-185 -61.5q-90 0 -140.5 39.5t-66.5 109.5l172 17q3 -27 15 -39.5t36 -12.5q36 0 55.5 32t28.5 99l7 46q-30 -36 -67.5 -55.5t-80.5 -19.5q-67 0 -99.5 43t-32.5 113q0 27 4 50l44 311h172l-40 -283q-4 -23 -4 -46q0 -29 11.5 -44
t38.5 -15q55 0 77 109l39 279h172z" />
    <glyph glyph-name="uni0444" unicode="&#x444;" horiz-adv-x="737" 
d="M665 135q-37 -70 -103.5 -108.5t-154.5 -39.5l-26 -188h-154l26 188q-64 2 -114 34t-77 83.5t-27 113.5q0 94 37 164t104 108.5t154 39.5l32 230h154l-32 -230q65 -2 114.5 -33.5t76.5 -83.5t27 -114q0 -94 -37 -164zM486.5 147q26.5 26 41 66.5t14.5 84.5q0 46 -20 72
t-57 29l-39 -281q34 3 60.5 29zM215 147q20 -26 57 -29l39 281q-34 -3 -60.5 -29t-41 -66.5t-14.5 -84.5q0 -46 20 -72z" />
    <glyph glyph-name="uni0445" unicode="&#x445;" horiz-adv-x="499" 
d="M340 258l125 -258h-173l-51 156l-93 -156h-191l206 267l-124 251l175 1l48 -147l86 146h190z" />
    <glyph glyph-name="uni0446" unicode="&#x446;" horiz-adv-x="578" 
d="M554 133l-40 -263h-133l10 130h-375l73 518h172l-54 -385h102l54 385h172l-54 -385h73z" />
    <glyph glyph-name="uni0447" unicode="&#x447;" horiz-adv-x="525" 
d="M509 518l-73 -518h-172l23 161h-60q-49 0 -89.5 20t-64.5 56.5t-24 85.5q0 15 2 35l24 160h167l-23 -150q-2 -16 -2 -29q0 -24 12 -36t40 -12h36l32 227h172z" />
    <glyph glyph-name="uni0448" unicode="&#x448;" horiz-adv-x="794" 
d="M779 518l-74 -518h-689l73 518h169l-54 -385h93l54 385h165l-54 -385h94l54 385h169z" />
    <glyph glyph-name="uni0449" unicode="&#x449;" horiz-adv-x="821" 
d="M796 133l-39 -263h-132l10 130h-619l73 518h169l-54 -385h93l54 385h165l-54 -385h93l54 385h170l-55 -385h72z" />
    <glyph glyph-name="uni044A" unicode="&#x44a;" horiz-adv-x="583" 
d="M465.5 362.5q40.5 -20.5 62.5 -56.5t22 -81q0 -108 -65 -166.5t-177 -58.5h-224l55 390h-106l19 128h275l-19 -135h63q54 0 94.5 -20.5zM362 142.5q23 26.5 23 70.5q0 54 -55 54h-38l-22 -151h28q41 0 64 26.5z" />
    <glyph glyph-name="uni044B" unicode="&#x44b;" horiz-adv-x="769" 
d="M397.5 362.5q40.5 -20.5 62.5 -56.5t22 -81q0 -108 -65 -166.5t-177 -58.5h-224l73 518h170l-19 -135h63q54 0 94.5 -20.5zM753 518l-73 -518h-172l73 518h172zM294 142.5q23 26.5 23 70.5q0 54 -55 54h-38l-22 -151h28q41 0 64 26.5z" />
    <glyph glyph-name="uni044C" unicode="&#x44c;" horiz-adv-x="516" 
d="M397.5 362.5q40.5 -20.5 62.5 -56.5t22 -81q0 -108 -65 -166.5t-177 -58.5h-224l73 518h170l-19 -135h63q54 0 94.5 -20.5zM294 142.5q23 26.5 23 70.5q0 54 -55 54h-38l-22 -151h28q41 0 64 26.5z" />
    <glyph glyph-name="uni044D" unicode="&#x44d;" horiz-adv-x="581" 
d="M441 501.5q52 -29.5 78.5 -81.5t26.5 -119q0 -93 -35 -164t-100.5 -110.5t-155.5 -39.5q-103 0 -160.5 58.5t-63.5 153.5l142 4q2 -44 25 -70t63 -26q43 0 74.5 29t46.5 78h-153l14 93h151q-3 104 -84 104q-43 0 -73.5 -27.5t-47.5 -74.5l-142 23q63 199 270 199
q72 0 124 -29.5z" />
    <glyph glyph-name="uni044E" unicode="&#x44e;" horiz-adv-x="774" 
d="M641.5 500q47.5 -31 73 -83.5t25.5 -113.5q0 -89 -35.5 -161t-98.5 -113.5t-143 -41.5q-95 0 -148.5 59.5t-58.5 149.5h-40l-28 -196h-172l73 518h172l-26 -183h37q28 90 95 143t162 53q65 0 112.5 -31zM530 146.5q24 23.5 38 63.5t14 88q0 46 -17.5 71.5t-49.5 25.5
q-29 0 -53 -23.5t-38.5 -63.5t-14.5 -88q0 -46 18 -71.5t50 -25.5q29 0 53 23.5z" />
    <glyph glyph-name="uni044F" unicode="&#x44f;" horiz-adv-x="516" 
d="M427 0h-164l17 122h-56l-62 -122h-166l93 164q-26 22 -39.5 53.5t-13.5 68.5q0 111 64.5 171.5t179.5 60.5h219zM298 247l21 147h-32q-43 0 -64.5 -25t-21.5 -68q0 -26 14.5 -40t40.5 -14h42z" />
    <glyph glyph-name="uni0450" unicode="&#x450;" horiz-adv-x="578" 
d="M202 213l-1 -17q0 -44 17.5 -68t51.5 -24q25 0 46 16.5t32 43.5l170 -13q-37 -80 -104.5 -122t-165.5 -42q-66 0 -115 28.5t-74.5 78t-25.5 109.5q0 96 35 170.5t101 116t156 41.5q106 0 163.5 -62t57.5 -168q0 -18 -4 -45.5t-9 -42.5h-331zM250.5 380.5
q-25.5 -30.5 -36.5 -81.5h165q1 8 1 23q0 89 -67 89q-37 0 -62.5 -30.5zM291 760l84 -173h-105l-138 173h159z" />
    <glyph glyph-name="uni0451" unicode="&#x451;" horiz-adv-x="578" 
d="M202 213l-1 -17q0 -44 17.5 -68t51.5 -24q25 0 46 16.5t32 43.5l170 -13q-37 -80 -104.5 -122t-165.5 -42q-66 0 -115 28.5t-74.5 78t-25.5 109.5q0 96 35 170.5t101 116t156 41.5q106 0 163.5 -62t57.5 -168q0 -18 -4 -45.5t-9 -42.5h-331zM250.5 380.5
q-25.5 -30.5 -36.5 -81.5h165q1 8 1 23q0 89 -67 89q-37 0 -62.5 -30.5zM185.5 630.5q-23.5 23.5 -23.5 56.5q0 34 23.5 57.5t56.5 23.5t57 -23.5t24 -57.5q0 -33 -24 -56.5t-57 -23.5t-56.5 23.5zM392.5 630.5q-23.5 23.5 -23.5 56.5q0 34 23.5 57.5t56.5 23.5t56 -23.5
t23 -57.5q0 -33 -23 -56.5t-56 -23.5t-56.5 23.5z" />
    <glyph glyph-name="uni0452" unicode="&#x452;" horiz-adv-x="610" 
d="M543.5 488q32.5 -43 32.5 -113q0 -25 -3 -51l-50 -345q-15 -103 -62 -148.5t-133 -45.5q-38 0 -82 11l23 128q11 -4 26 -4q27 0 40.5 20.5t21.5 69.5l39 286q4 34 4 47q0 29 -11.5 44t-37.5 15q-62 0 -82 -109l-41 -293h-172l85 605h-77l14 95h77l8 60h172l-8 -60h130
l-13 -95h-131l-21 -151q30 38 69 57.5t84 19.5q66 0 98.5 -43z" />
    <glyph glyph-name="uni0453" unicode="&#x453;" horiz-adv-x="385" 
d="M385 385h-143l-54 -385h-172l73 518h318zM293 587h-105l84 173h159z" />
    <glyph glyph-name="uni0454" unicode="&#x454;" horiz-adv-x="581" 
d="M140 16.5q-52 29.5 -78.5 81.5t-26.5 119q0 93 35 164t100.5 110.5t155.5 39.5q103 0 160.5 -58.5t63.5 -153.5l-142 -4q-2 44 -25 70t-63 26q-43 0 -74.5 -29t-46.5 -78h153l-14 -93h-151q3 -104 84 -104q43 0 73.5 27.5t47.5 74.5l142 -23q-63 -199 -270 -199
q-72 0 -124 29.5z" />
    <glyph glyph-name="uni0455" unicode="&#x455;" horiz-adv-x="500" 
d="M68.5 28.5q-54.5 41.5 -62.5 117.5l166 13q-1 -31 11.5 -48t43.5 -17q28 0 45.5 15t17.5 41q0 21 -17.5 34t-56.5 27l-31 10q-62 22 -98 58t-36 86q0 80 62.5 123t163.5 43q94 0 148 -37.5t62 -106.5l-165 -14q0 25 -9.5 41t-36.5 16q-19 0 -33.5 -13t-14.5 -34
q0 -28 48 -46l33 -11q75 -26 113.5 -59t38.5 -90q0 -94 -66 -142t-174 -48q-98 0 -152.5 41.5z" />
    <glyph glyph-name="uni0456" unicode="&#x456;" horiz-adv-x="291" 
d="M137.5 623q-28.5 29 -28.5 69q0 41 28.5 69.5t68.5 28.5q41 0 69.5 -28.5t28.5 -69.5q0 -40 -28.5 -69t-69.5 -29q-40 0 -68.5 29zM96 518h172l-73 -518h-172z" />
    <glyph glyph-name="uni0457" unicode="&#x457;" horiz-adv-x="287" 
d="M94 518h172l-73 -518h-172zM39.5 630.5q-23.5 23.5 -23.5 56.5q0 34 23.5 57.5t56.5 23.5t57 -23.5t24 -57.5q0 -33 -24 -56.5t-57 -23.5t-56.5 23.5zM246.5 630.5q-23.5 23.5 -23.5 56.5q0 34 23.5 57.5t56.5 23.5t56 -23.5t23 -57.5q0 -33 -23 -56.5t-56 -23.5
t-56.5 23.5z" />
    <glyph glyph-name="uni0458" unicode="&#x458;" horiz-adv-x="288" 
d="M135 623q-29 29 -29 69q0 41 28.5 69.5t69.5 28.5q40 0 68.5 -28.5t28.5 -69.5q0 -40 -28.5 -69t-68.5 -29t-69 29zM-67 -210q-29 5 -53 13l28 125q24 -8 49 -8q31 0 45.5 19t20.5 66l72 513h171l-76 -536q-15 -107 -63.5 -152t-138.5 -45q-26 0 -55 5z" />
    <glyph glyph-name="uni0459" unicode="&#x459;" horiz-adv-x="809" 
d="M691.5 362.5q40.5 -20.5 62.5 -56.5t22 -81q0 -108 -65 -166.5t-177 -58.5h-224l57 407h-6l-215 -407h-178l304 518h281l-19 -135h63q54 0 94.5 -20.5zM588 142.5q23 26.5 23 70.5q0 54 -55 54h-38l-22 -151h28q41 0 64 26.5z" />
    <glyph glyph-name="uni045A" unicode="&#x45a;" horiz-adv-x="801" 
d="M682.5 362.5q40.5 -20.5 62.5 -56.5t22 -81q0 -108 -65 -166.5t-177 -58.5h-224l28 199h-113l-28 -199h-172l73 518h172l-26 -186h113l26 186h170l-19 -135h63q54 0 94.5 -20.5zM579 142.5q23 26.5 23 70.5q0 54 -55 54h-38l-22 -151h28q41 0 64 26.5z" />
    <glyph glyph-name="uni045B" unicode="&#x45b;" horiz-adv-x="609" 
d="M542.5 488q32.5 -43 32.5 -113q0 -25 -3 -51l-46 -324h-172l41 296q4 34 4 47q0 29 -11.5 44t-37.5 15q-62 0 -84 -116l-40 -286h-172l84 598h-76l15 102h76l8 60h172l-8 -60h132l-15 -102h-132l-20 -145q30 38 69.5 58t84.5 20q66 0 98.5 -43z" />
    <glyph glyph-name="uni045C" unicode="&#x45c;" horiz-adv-x="530" 
d="M344 298l148 -298h-168l-81 195l-39 -40l-22 -155h-166l73 518h167l-23 -160l137 160h190zM361 587h-105l84 173h159z" />
    <glyph glyph-name="uni045D" unicode="&#x45d;" horiz-adv-x="563" 
d="M547 518l-73 -518h-166l40 283l-166 -283h-166l73 518h165l-40 -285l168 285h165zM288 760l84 -173h-105l-138 173h159z" />
    <glyph glyph-name="uni045E" unicode="&#x45e;" 
d="M550 518l-68 -481q-17 -129 -88 -190.5t-185 -61.5q-90 0 -140.5 39.5t-66.5 109.5l172 17q3 -27 15 -39.5t36 -12.5q36 0 55.5 32t28.5 99l7 46q-30 -36 -67.5 -55.5t-80.5 -19.5q-67 0 -99.5 43t-32.5 113q0 27 4 50l44 311h172l-40 -283q-4 -23 -4 -46q0 -29 11.5 -44
t38.5 -15q55 0 77 109l39 279h172zM239 640q-38 46 -35 130h91q-5 -85 54 -85q27 0 43 20.5t23 64.5h92q-11 -93 -55.5 -134.5t-111.5 -41.5q-63 0 -101 46z" />
    <glyph glyph-name="uni045F" unicode="&#x45f;" horiz-adv-x="552" 
d="M463 0h-142l-28 -146h-136l12 146h-153l73 518h172l-54 -385h103l54 385h172z" />
    <glyph glyph-name="uni0462" unicode="&#x462;" horiz-adv-x="668" 
d="M581.5 430q56.5 -58 56.5 -153q0 -83 -35.5 -146t-100.5 -97t-150 -34h-264l80 574h-109l19 117h106l10 69h177l-10 -69h163l-18 -117h-161l-12 -86h83q109 0 165.5 -58zM426 173.5q33 40.5 33 100.5q0 40 -19.5 60.5t-64.5 20.5h-60l-31 -222h51q58 0 91 40.5z" />
    <glyph glyph-name="uni0463" unicode="&#x463;" horiz-adv-x="554" 
d="M436.5 362.5q40.5 -20.5 62.5 -56.5t22 -81q0 -108 -65 -166.5t-177 -58.5h-226l65 468h-74l13 95h75l27 197h172l-27 -197h134l-13 -95h-135l-12 -85h64q54 0 94.5 -20.5zM332.5 143q23.5 27 23.5 70q0 27 -14 40.5t-41 13.5h-39l-21 -151h28q40 0 63.5 27z" />
    <glyph glyph-name="uni0472" unicode="&#x472;" horiz-adv-x="740" 
d="M594.5 731.5q64.5 -41.5 98.5 -115t34 -167.5q0 -123 -49.5 -229t-139.5 -169.5t-206 -63.5q-88 0 -152.5 41.5t-98.5 115t-34 166.5q0 123 49 229t139 170t207 64q88 0 152.5 -41.5zM307.5 566q-49.5 -50 -72.5 -130h319v4q0 81 -34 128.5t-97 47.5q-66 0 -115.5 -50z
M465.5 194.5q49.5 50.5 72.5 131.5h-319v-5q0 -82 34 -129.5t97 -47.5q66 0 115.5 50.5z" />
    <glyph glyph-name="uni0473" unicode="&#x473;" horiz-adv-x="584" 
d="M494.5 467.5q55.5 -63.5 55.5 -160.5q0 -91 -35.5 -164t-102.5 -114.5t-159 -41.5q-109 0 -164 63t-55 160q0 91 35.5 164t102.5 115t158 42q109 0 164.5 -63.5zM244.5 382.5q-30.5 -29.5 -45.5 -78.5h200v1q0 52 -20.5 79.5t-60.5 27.5q-43 0 -73.5 -29.5zM340.5 136
q30.5 30 45.5 80h-200v-3q0 -52 20.5 -79.5t59.5 -27.5q44 0 74.5 30z" />
    <glyph glyph-name="uni0474" unicode="&#x474;" horiz-adv-x="642" 
d="M712 760l-31 -131h-12q-25 0 -42.5 -14t-31.5 -49l-228 -566h-191l-101 760h177l42 -557l145 402q24 70 54 102.5t73 42.5t125 10h21z" />
    <glyph glyph-name="uni0475" unicode="&#x475;" horiz-adv-x="527" 
d="M564 518l-28 -123h-12q-23 0 -37.5 -13t-25.5 -39l-154 -343h-176l-96 518h173l29 -355l72 201q23 71 52 103.5t71 41.5t120 9h12z" />
    <glyph glyph-name="uni048A" unicode="&#x48a;" horiz-adv-x="716" 
d="M318 882q-38 46 -35 130h91q-5 -85 54 -85q27 0 43 20.5t23 64.5h92q-11 -93 -55.5 -134.5t-111.5 -41.5q-63 0 -101 46zM559 -140h-138l47 140h-71l68 488l-271 -488h-173l106 760h173l-67 -483l270 483h173l-86 -614h108z" />
    <glyph glyph-name="uni048B" unicode="&#x48b;" horiz-adv-x="598" 
d="M237 640q-38 46 -35 130h91q-5 -85 54 -85q27 0 43 20.5t23 64.5h92q-11 -93 -55.5 -134.5t-111.5 -41.5q-63 0 -101 46zM447 -130h-130l47 130h-56l40 283l-166 -283h-166l73 518h165l-40 -285l168 285h165l-54 -385h80z" />
    <glyph glyph-name="uni048C" unicode="&#x48c;" horiz-adv-x="668" 
d="M581.5 430q56.5 -58 56.5 -153q0 -83 -35.5 -146t-100.5 -97t-150 -34h-264l80 574h-109l19 117h106l10 69h177l-10 -69h163l-18 -117h-161l-12 -86h83q109 0 165.5 -58zM426 173.5q33 40.5 33 100.5q0 40 -19.5 60.5t-64.5 20.5h-60l-31 -222h51q58 0 91 40.5z" />
    <glyph glyph-name="uni048D" unicode="&#x48d;" horiz-adv-x="554" 
d="M436.5 362.5q40.5 -20.5 62.5 -56.5t22 -81q0 -108 -65 -166.5t-177 -58.5h-226l65 468h-74l13 95h75l27 197h172l-27 -197h134l-13 -95h-135l-12 -85h64q54 0 94.5 -20.5zM332.5 143q23.5 27 23.5 70q0 27 -14 40.5t-41 13.5h-39l-21 -151h28q40 0 63.5 27z" />
    <glyph glyph-name="uni048E" unicode="&#x48e;" horiz-adv-x="636" 
d="M597.5 355.5q-42.5 -77.5 -121.5 -112.5l29 -80l-74 -36l-34 94q-21 -4 -52 -4h-118l-31 -217h-176l107 760h286q71 0 122 -29t78 -79t27 -111q0 -108 -42.5 -185.5zM422 394q22 23 33.5 56t11.5 71q0 49 -22 74t-69 25h-93l-37 -263h89q9 0 13 1l-38 106l74 37z" />
    <glyph glyph-name="uni048F" unicode="&#x48f;" horiz-adv-x="608" 
d="M535 130.5q-40 -83.5 -108 -120.5l29 -80l-72 -38l-35 96q-4 -1 -14 -1q-49 0 -83.5 25t-52.5 69l-40 -282h-172l102 719h160l-1 -79q27 42 69 67t89 25q50 0 88.5 -27.5t59.5 -78t21 -116.5q0 -95 -40 -178.5zM371 164q18 28 28 63.5t10 71.5q0 50 -19.5 78t-55.5 28
q-35 0 -62.5 -27t-43 -70t-15.5 -88q0 -48 19.5 -77.5t54.5 -29.5q6 0 16 2l-36 99l72 38z" />
    <glyph glyph-name="uni0490" unicode="&#x490;" horiz-adv-x="461" 
d="M514 760l-22 -146h-206l-86 -614h-179l106 760h234l27 136h146z" />
    <glyph glyph-name="uni0491" unicode="&#x491;" horiz-adv-x="396" 
d="M431 613l-35 -228h-154l-54 -385h-172l73 518h197l20 95h125z" />
    <glyph glyph-name="uni0492" unicode="&#x492;" horiz-adv-x="527" 
d="M353 614l-28 -201h158l-19 -117h-156l-41 -296h-179l41 296h-106l19 117h104l48 347h387l-22 -146h-206z" />
    <glyph glyph-name="uni0493" unicode="&#x493;" horiz-adv-x="419" 
d="M276 385l-15 -106h95l-15 -96h-93l-26 -183h-172l26 183h-73l15 96h71l34 239h318l-22 -133h-143z" />
    <glyph glyph-name="uni0494" unicode="&#x494;" horiz-adv-x="629" 
d="M521 400.5q66 -68.5 66 -184.5q0 -115 -38.5 -209.5t-112 -153.5t-175.5 -68l2 153q44 10 76 49.5t48.5 96.5t16.5 118q0 121 -115 121h-44l-45 -323h-179l106 760h387l-22 -146h-206l-21 -145h76q114 0 180 -68.5z" />
    <glyph glyph-name="uni0495" unicode="&#x495;" horiz-adv-x="529" 
d="M425 249q56 -52 56 -140q0 -142 -72.5 -228t-204.5 -96l3 134q46 8 77 57.5t31 110.5q0 39 -17 57.5t-56 18.5h-31l-23 -163h-172l73 518h340l-19 -121h-166l-14 -96h47q92 0 148 -52z" />
    <glyph glyph-name="uni0496" unicode="&#x496;" horiz-adv-x="958" 
d="M719 445l168 -445h-177l-98 318l-62 -71l-34 -247h-172l37 264l-41 72l-179 -336h-191l287 483l-156 277h180l127 -299l42 299h172l-43 -306l203 306h207zM899 -140h-144l12 140h-42l23 146h194z" />
    <glyph glyph-name="uni0497" unicode="&#x497;" horiz-adv-x="774" 
d="M578 311l137 -311h-159l-71 217l-46 -47l-24 -170h-154l26 183l-27 39l-122 -222h-173l218 335l-126 183h162l91 -168l24 168h153l-24 -175l131 175h188zM715 -130h-134l10 130h-35l21 133h177z" />
    <glyph glyph-name="uni0498" unicode="&#x498;" horiz-adv-x="557" 
d="M512.5 343q20.5 -38 20.5 -88q0 -107 -54.5 -174.5t-154.5 -86.5l-29 -150h-143l12 152q-73 17 -113.5 65.5t-40.5 119.5q0 18 3 36l170 3q-2 -16 -2 -24q0 -34 18 -52.5t52 -18.5q44 0 73 38.5t29 93.5q0 38 -22.5 58.5t-73.5 20.5h-90l17 126h78q55 0 86.5 31.5
t31.5 79.5q0 30 -16.5 47t-48.5 17q-41 0 -64 -25t-30 -67l-164 14q17 97 86.5 155.5t193.5 58.5q114 0 168.5 -50.5t54.5 -125.5q0 -64 -27.5 -114.5t-79.5 -79.5q39 -22 59.5 -60z" />
    <glyph glyph-name="uni0499" unicode="&#x499;" horiz-adv-x="472" 
d="M415 231.5q19 -28.5 19 -68.5q0 -70 -42.5 -114t-120.5 -57l-28 -138h-132l13 142q-63 16 -94 55t-31 89q0 7 1 11l154 2v-9q0 -43 47 -43q32 0 51 21.5t19 52.5q0 24 -14 35t-44 11h-73l13 91h58q35 0 55.5 20.5t20.5 47.5q0 40 -43 40q-28 0 -45 -17t-21 -42l-147 16
q14 68 69.5 111t157.5 43q96 0 144.5 -34.5t48.5 -95.5q0 -45 -24 -78t-62 -47q31 -16 50 -44.5z" />
    <glyph glyph-name="uni049A" unicode="&#x49a;" horiz-adv-x="653" 
d="M413 444l164 -444h-173l-99 312l-78 -96l-30 -216h-177l107 760h177l-41 -292l212 292h195zM593 -140h-144l12 140h-42l23 146h194z" />
    <glyph glyph-name="uni049B" unicode="&#x49b;" horiz-adv-x="550" 
d="M344 298l148 -298h-168l-81 195l-39 -40l-22 -155h-166l73 518h167l-23 -160l137 160h190zM491 -130h-134l10 130h-35l21 133h177z" />
    <glyph glyph-name="uni049C" unicode="&#x49c;" horiz-adv-x="714" 
d="M485 478l185 -478h-175l-116 374l-12 -12l-26 -181h-91l14 97l-36 -36l-34 -242h-173l106 760h173l-44 -315l37 39l27 191h91l-13 -93l162 178h214z" />
    <glyph glyph-name="uni049D" unicode="&#x49d;" horiz-adv-x="618" 
d="M423 326l156 -326h-164l-97 235l-1 -1l-19 -133h-77l12 81l-32 -29l-21 -153h-164l73 518h163l-28 -203l32 29l20 135h77l-10 -68l113 107h188z" />
    <glyph glyph-name="uni049E" unicode="&#x49e;" horiz-adv-x="766" 
d="M545 446l178 -446h-177l-115 318l-149 -168l-21 -150h-177l82 587h-105l15 101h104l10 72h177l-10 -72h90l-16 -101h-88l-25 -175l297 348h210z" />
    <glyph glyph-name="uni049F" unicode="&#x49f;" horiz-adv-x="573" 
d="M387 298l148 -298h-168l-81 195l-39 -40l-22 -155h-172l85 605h-74l13 95h75l8 60h172l-8 -60h133l-13 -95h-134l-35 -248l138 161h190z" />
    <glyph glyph-name="uni04A0" unicode="&#x4a0;" horiz-adv-x="727" 
d="M519 444l164 -444h-173l-99 312l-78 -96l-30 -216h-177l86 614h-144l23 146h319l-41 -292l212 292h195z" />
    <glyph glyph-name="uni04A1" unicode="&#x4a1;" horiz-adv-x="641" 
d="M455 298l148 -298h-168l-81 195l-39 -40l-22 -155h-166l54 386h-148l21 132h313l-23 -160l137 160h190z" />
    <glyph glyph-name="uni04A2" unicode="&#x4a2;" horiz-adv-x="686" 
d="M666 760l-107 -760h-178l45 320h-182l-45 -320h-179l107 760h179l-41 -294h182l41 294h178zM625 -140h-144l12 140h-42l23 146h194z" />
    <glyph glyph-name="uni04A3" unicode="&#x4a3;" horiz-adv-x="583" 
d="M539 518l-72 -518h-172l28 199h-107l-28 -199h-172l73 518h172l-26 -186h106l26 186h172zM519 -130h-134l10 130h-35l21 133h177z" />
    <glyph glyph-name="uni04A4" unicode="&#x4a4;" horiz-adv-x="821" 
d="M852 614h-206l-86 -614h-179l106 760h387zM666 760l-107 -760h-178l45 320h-182l-45 -320h-179l107 760h179l-41 -294h182l41 294h178z" />
    <glyph glyph-name="uni04A5" unicode="&#x4a5;" horiz-adv-x="664" 
d="M539 518l-72 -518h-172l28 199h-107l-28 -199h-172l73 518h172l-26 -186h106l26 186h172zM664 385h-143l-54 -385h-172l73 518h318z" />
    <glyph glyph-name="uni04A6" unicode="&#x4a6;" horiz-adv-x="983" 
d="M826 438q56 -31 86 -88t30 -134q0 -115 -38.5 -209.5t-112 -153.5t-175.5 -68l2 153q44 10 76 49.5t48.5 96.5t16.5 118q0 121 -115 121h-45l-45 -323h-177l86 614h-178l-86 -614h-178l106 760h533l-41 -291h76q75 0 131 -31z" />
    <glyph glyph-name="uni04A7" unicode="&#x4a7;" horiz-adv-x="800" 
d="M696 249q56 -52 56 -140q0 -142 -72.5 -228t-204.5 -96l3 134q46 8 77 57.5t31 110.5q0 39 -17 57.5t-56 18.5h-27l-23 -163h-172l54 385h-103l-54 -385h-172l73 518h447l-31 -217h43q92 0 148 -52z" />
    <glyph glyph-name="uni04A8" unicode="&#x4a8;" horiz-adv-x="914" 
d="M852 280.5q-47 -100.5 -130 -171.5q37 3 79.5 17.5t61.5 26.5l-9 -142q-60 -24 -145 -24q-82 0 -151 28q-81 -28 -164 -28q-111 0 -189.5 46.5t-118.5 127.5t-40 184q0 150 84 262.5t222 165.5l-7 -165q-54 -38 -86.5 -107.5t-32.5 -156.5q0 -107 52 -170t148 -64
q-86 104 -86 270q0 110 37 199.5t109 141.5t172 52q116 0 178.5 -72t62.5 -204q0 -116 -47 -216.5zM572.5 582q-29.5 -38 -43.5 -97t-14 -122q0 -136 66 -202q65 49 101.5 135t36.5 190q0 70 -18.5 102t-55.5 32q-43 0 -72.5 -38z" />
    <glyph glyph-name="uni04A9" unicode="&#x4a9;" horiz-adv-x="709" 
d="M662.5 201q-32.5 -63 -89.5 -111q55 4 77 11v-105q-32 -9 -84 -9q-67 0 -131 25q-72 -25 -145 -25q-84 0 -143.5 31.5t-89.5 87.5t-30 128q0 119 65 194.5t162 102.5l-7 -141q-35 -25 -52.5 -64t-17.5 -83q0 -67 36 -102.5t98 -39.5q-58 73 -58 171q0 70 30 129.5
t86.5 94.5t131.5 35q94 0 144 -53t50 -142q0 -72 -32.5 -135zM430.5 368q-22.5 -45 -22.5 -116q0 -79 31 -119q47 30 74 83t27 119q0 41 -12 59.5t-36 18.5q-39 0 -61.5 -45z" />
    <glyph glyph-name="uni04AA" unicode="&#x4aa;" horiz-adv-x="726" 
d="M451 189q43 40 66 106l179 -15q-36 -117 -111 -192t-180 -95l-29 -149h-143l13 155q-95 27 -147 109t-52 202q0 123 49 229t139 170t207 64q125 0 198.5 -78.5t84.5 -213.5l-187 -15q-10 145 -116 145q-59 0 -103 -43.5t-66.5 -111.5t-22.5 -138q0 -82 32.5 -125.5
t91.5 -43.5q54 0 97 40z" />
    <glyph glyph-name="uni04AB" unicode="&#x4ab;" horiz-adv-x="564" 
d="M324 145q23 22 35 61l162 -13q-20 -78 -69.5 -129.5t-124.5 -68.5l-27 -141h-132l12 142q-73 20 -109.5 78t-36.5 136q0 91 35 164t102 115t158 42q94 0 149.5 -54.5t59.5 -147.5l-164 -13q-6 79 -65 79q-33 0 -57.5 -27t-37 -68.5t-12.5 -82.5q0 -45 18.5 -69.5
t52.5 -24.5q28 0 51 22z" />
    <glyph glyph-name="uni04AC" unicode="&#x4ac;" horiz-adv-x="543" 
d="M574 614h-164l-86 -614h-178l86 614h-163l20 146h506zM390 -140h-144l12 140h-42l23 146h194z" />
    <glyph glyph-name="uni04AD" unicode="&#x4ad;" horiz-adv-x="442" 
d="M442 385h-117l-54 -385h-172l54 385h-120l21 133h409zM324 -130h-134l10 130h-35l21 133h177z" />
    <glyph glyph-name="uni04AE" unicode="&#x4ae;" horiz-adv-x="594" 
d="M386 309l-44 -309h-178l44 311l-138 449h170l72 -296l163 296h189z" />
    <glyph glyph-name="uni04AF" unicode="&#x4af;" horiz-adv-x="574" 
d="M338 0l-28 -201h-178l28 200l-123 519h161l63 -389l172 389h177z" />
    <glyph glyph-name="uni04B0" unicode="&#x4b0;" horiz-adv-x="594" 
d="M446 406h87l-18 -117h-131l-42 -289h-178l41 289h-136l17 117h93l-109 354h170l72 -296l163 296h189z" />
    <glyph glyph-name="uni04B1" unicode="&#x4b1;" horiz-adv-x="574" 
d="M391 102h74l-15 -102h-112l-28 -201h-178l28 200l-1 1h-108l15 102h69l-98 416h161l63 -389l172 389h177z" />
    <glyph glyph-name="uni04B2" unicode="&#x4b2;" horiz-adv-x="641" 
d="M419 385l156 -385h-185l-79 237l-146 -237h-200l275 396l-149 364h185l69 -227l135 227h202zM580 -140h-144l12 140h-42l23 146h194z" />
    <glyph glyph-name="uni04B3" unicode="&#x4b3;" horiz-adv-x="512" 
d="M340 258l125 -258h-173l-51 156l-93 -156h-191l206 267l-124 251l175 1l48 -147l86 146h190zM454 -130h-134l10 130h-35l21 133h177z" />
    <glyph glyph-name="uni04B4" unicode="&#x4b4;" horiz-adv-x="840" 
d="M822 146l-43 -286h-144l12 140h-514l86 614h-151l23 146h475l-23 -146h-146l-66 -468h229l86 614h172l-86 -614h90z" />
    <glyph glyph-name="uni04B5" unicode="&#x4b5;" horiz-adv-x="698" 
d="M674 133l-40 -263h-133l10 130h-428l55 386h-105l19 132h379l-19 -132h-109l-35 -253h167l54 385h166l-54 -385h73z" />
    <glyph glyph-name="uni04B6" unicode="&#x4b6;" horiz-adv-x="638" 
d="M616 760l-106 -760h-178l37 263h-74q-59 0 -110 25.5t-82 75t-31 117.5q0 18 4 52l32 227h178l-32 -221q-3 -22 -3 -46q0 -41 19.5 -62.5t62.5 -21.5h56l49 351h178zM577 -140h-144l12 140h-42l23 146h194z" />
    <glyph glyph-name="uni04B7" unicode="&#x4b7;" horiz-adv-x="552" 
d="M509 518l-73 -518h-172l23 161h-60q-49 0 -89.5 20t-64.5 56.5t-24 85.5q0 15 2 35l24 160h167l-23 -150q-2 -16 -2 -29q0 -24 12 -36t40 -12h36l32 227h172zM488 -130h-134l10 130h-35l21 133h177z" />
    <glyph glyph-name="uni04B8" unicode="&#x4b8;" horiz-adv-x="680" 
d="M693 760l-106 -760h-172l37 263h-69l-20 -139h-100l20 139h-1q-57 0 -105.5 25.5t-77 75t-28.5 117.5q0 24 5 52l32 227h172l-31 -221q-4 -32 -4 -43q0 -40 14 -60.5t46 -25.5l23 162h100l-24 -163h68l49 351h172z" />
    <glyph glyph-name="uni04B9" unicode="&#x4b9;" horiz-adv-x="577" 
d="M561 518l-73 -518h-172l23 161h-37l-12 -84h-74l12 84h-1q-49 0 -89.5 20t-64.5 56.5t-24 85.5q0 15 2 35l24 160h165l-23 -150q-2 -16 -2 -29q0 -19 7.5 -30.5t25.5 -15.5l15 106h74l-16 -108h36l32 227h172z" />
    <glyph glyph-name="uni04BA" unicode="&#x4ba;" horiz-adv-x="626" 
d="M481.5 456q49.5 -25 79 -74.5t29.5 -118.5q0 -24 -5 -52l-30 -211h-178l27 202q4 30 4 44q0 46 -19 66t-62 20h-80l-46 -332h-180l106 760h180l-39 -279h105q59 0 108.5 -25z" />
    <glyph glyph-name="uni04BB" unicode="&#x4bb;" horiz-adv-x="570" 
d="M503.5 488q32.5 -43 32.5 -113q0 -25 -3 -51l-46 -324h-172l41 296q4 34 4 47q0 29 -11.5 44t-37.5 15q-62 0 -84 -116l-40 -286h-172l107 760h172l-43 -307q30 38 69.5 58t84.5 20q66 0 98.5 -43z" />
    <glyph glyph-name="uni04BC" unicode="&#x4bc;" horiz-adv-x="890" 
d="M380 325v-5q0 -82 35 -129t94 -47q43 0 81.5 28.5t63.5 80.5l173 -31q-51 -111 -138.5 -173t-193.5 -62q-87 0 -152 44t-100 119t-35 167v8h-4q-74 0 -117 33.5t-43 94.5q0 57 31 132l138 -19q-18 -49 -18 -89q0 -34 27 -40q22 96 75.5 172.5t130 120t163.5 43.5
q85 0 150 -44.5t101 -121.5t36 -170q0 -54 -18 -112h-480zM469 566q-50 -50 -73 -130h310v1q0 84 -33 131.5t-90 47.5q-64 0 -114 -50z" />
    <glyph glyph-name="uni04BD" unicode="&#x4bd;" horiz-adv-x="703" 
d="M327 213l-1 -17q0 -44 17.5 -68t51.5 -24q25 0 46 16.5t32 43.5l170 -13q-37 -80 -104.5 -122t-165.5 -42q-66 0 -115 28.5t-74.5 78t-25.5 109.5v10q-60 2 -95.5 30t-35.5 81q0 28 7 63.5t18 61.5l115 -19q-19 -55 -19 -93q0 -29 21 -35q24 106 97.5 167.5t183.5 61.5
q106 0 163.5 -62t57.5 -168q0 -18 -4 -45.5t-9 -42.5h-331zM375.5 380.5q-25.5 -30.5 -36.5 -81.5h165q1 8 1 23q0 89 -67 89q-37 0 -62.5 -30.5z" />
    <glyph glyph-name="uni04BE" unicode="&#x4be;" horiz-adv-x="890" 
d="M380 325v-5q0 -82 35 -129t94 -47q43 0 81.5 28.5t63.5 80.5l173 -31q-40 -89 -105 -147t-145 -78l-30 -153h-142l12 153q-97 27 -153 114.5t-56 205.5v8h-4q-74 0 -117 33.5t-43 94.5q0 57 31 132l138 -19q-18 -49 -18 -89q0 -34 27 -40q22 96 75.5 172.5t130 120
t163.5 43.5q85 0 150 -44.5t101 -121.5t36 -170q0 -54 -18 -112h-480zM469 566q-50 -50 -73 -130h310v1q0 84 -33 131.5t-90 47.5q-64 0 -114 -50z" />
    <glyph glyph-name="uni04BF" unicode="&#x4bf;" horiz-adv-x="703" 
d="M327 213l-1 -17q0 -44 17.5 -68t51.5 -24q25 0 46 16.5t32 43.5l170 -13q-57 -122 -180 -153l-28 -144h-131l12 139q-74 18 -116 75.5t-42 134.5v10q-60 2 -95.5 30t-35.5 81q0 28 7 63.5t18 61.5l115 -19q-19 -55 -19 -93q0 -29 21 -35q24 106 97.5 167.5t183.5 61.5
q106 0 163.5 -62t57.5 -168q0 -18 -4 -45.5t-9 -42.5h-331zM375.5 380.5q-25.5 -30.5 -36.5 -81.5h165q1 8 1 23q0 89 -67 89q-37 0 -62.5 -30.5z" />
    <glyph glyph-name="uni04C0" unicode="&#x4c0;" horiz-adv-x="292" 
d="M127 760h179l-107 -760h-179z" />
    <glyph glyph-name="uni04C1" unicode="&#x4c1;" horiz-adv-x="930" 
d="M719 445l168 -445h-177l-98 318l-62 -71l-34 -247h-172l37 264l-41 72l-179 -336h-191l287 483l-156 277h180l127 -299l42 299h172l-43 -306l203 306h207zM454 882q-38 46 -35 130h91q-5 -85 54 -85q27 0 43 20.5t23 64.5h92q-11 -93 -55.5 -134.5t-111.5 -41.5
q-63 0 -101 46z" />
    <glyph glyph-name="uni04C2" unicode="&#x4c2;" horiz-adv-x="754" 
d="M578 311l137 -311h-159l-71 217l-46 -47l-24 -170h-154l26 183l-27 39l-122 -222h-173l218 335l-126 183h162l91 -168l24 168h153l-24 -175l131 175h188zM329 640q-38 46 -35 130h91q-5 -85 54 -85q27 0 43 20.5t23 64.5h92q-11 -93 -55.5 -134.5t-111.5 -41.5
q-63 0 -101 46z" />
    <glyph glyph-name="uni04C3" unicode="&#x4c3;" horiz-adv-x="606" 
d="M543.5 323.5q38.5 -67.5 38.5 -153.5q0 -103 -36.5 -186t-109 -135t-178.5 -64l5 152q64 17 100 77.5t36 142.5q0 47 -16.5 88.5t-51.5 89.5l-104 -132l-28 -203h-178l106 760h178l-40 -287l198 287h205l-235 -297q72 -72 110.5 -139.5z" />
    <glyph glyph-name="uni04C4" unicode="&#x4c4;" horiz-adv-x="540" 
d="M455.5 192q33.5 -58 33.5 -127q0 -81 -34.5 -143t-97 -98t-143.5 -39l3 134q44 8 74.5 48.5t30.5 102.5q0 38 -13.5 73t-42.5 74l-62 -63l-22 -154h-166l73 518h167l-23 -163l137 163h190l-205 -210q67 -58 100.5 -116z" />
    <glyph glyph-name="uni04C5" unicode="&#x4c5;" horiz-adv-x="694" 
d="M537 -140h-141l54 140h-45l-48 562l-205 -562h-190l315 760h203l82 -614h119z" />
    <glyph glyph-name="uni04C6" unicode="&#x4c6;" horiz-adv-x="596" 
d="M449 -130h-128l46 130h-34l-47 376l-147 -376h-174l243 518h188l72 -385h108z" />
    <glyph glyph-name="uni04C7" unicode="&#x4c7;" horiz-adv-x="654" 
d="M666 760l-94 -679q-21 -147 -97 -221.5t-201 -74.5q-10 0 -14 1l5 150l12 -1q40 0 74 36t43 102l34 247h-184l-45 -320h-178l106 760h178l-41 -294h184l40 294h178z" />
    <glyph glyph-name="uni04C8" unicode="&#x4c8;" horiz-adv-x="556" 
d="M475 54l-8 -54l-4 -25q-14 -107 -62.5 -148.5t-138.5 -41.5q-37 0 -71 12l20 120q16 -4 23 -4q27 0 39.5 17.5t18.5 54.5l7 41l24 173h-107l-28 -199h-172l73 518h172l-26 -186h106l26 186h172l-61 -440z" />
    <glyph glyph-name="uni04C9" unicode="&#x4c9;" horiz-adv-x="704" 
d="M550 -140h-138l47 140h-78l45 320h-182l-45 -320h-179l107 760h179l-41 -294h182l41 294h178l-86 -614h109z" />
    <glyph glyph-name="uni04CA" unicode="&#x4ca;" horiz-adv-x="584" 
d="M433 -130h-129l47 130h-56l28 199h-107l-28 -199h-172l73 518h172l-26 -186h106l26 186h172l-54 -385h75z" />
    <glyph glyph-name="uni04CB" unicode="&#x4cb;" horiz-adv-x="605" 
d="M510 0h-111l-29 -140h-145l34 253h89l21 150h-74q-59 0 -110 25.5t-82 75t-31 117.5q0 18 4 52l32 227h178l-32 -221q-3 -22 -3 -46q0 -41 19.5 -62.5t62.5 -21.5h56l49 351h178z" />
    <glyph glyph-name="uni04CC" unicode="&#x4cc;" horiz-adv-x="525" 
d="M509 518l-73 -518h-106l-26 -130h-131l31 214h72l12 87h-59q-49 0 -90 19.5t-65 56.5t-24 86q0 15 2 35l22 150h166l-20 -140q-2 -16 -2 -29q0 -24 11.5 -36t40.5 -12h36l31 217h172z" />
    <glyph glyph-name="uni04CD" unicode="&#x4cd;" horiz-adv-x="865" 
d="M703 -140h-141l53 140h-57l44 503l-202 -503h-80l-62 501l-96 -501h-165l161 760h182l56 -480l190 480h188l-41 -614h114z" />
    <glyph glyph-name="uni04CE" unicode="&#x4ce;" horiz-adv-x="691" 
d="M546 -130h-128l46 130h-39l26 304l-126 -304h-79l-41 303l-59 -303h-156l112 518h168l46 -306l126 306h169l-25 -385h87z" />
    <glyph glyph-name="uni04CF" unicode="&#x4cf;" horiz-adv-x="277" 
d="M122 760h172l-106 -760h-172z" />
    <glyph glyph-name="uni04D0" unicode="&#x4d0;" horiz-adv-x="618" 
d="M396 110h-204l-38 -110h-192l316 760h203l101 -760h-178zM387 239l-25 362l-125 -362h150zM298 882q-38 46 -35 130h91q-5 -85 54 -85q27 0 43 20.5t23 64.5h92q-11 -93 -55.5 -134.5t-111.5 -41.5q-63 0 -101 46z" />
    <glyph glyph-name="uni04D1" unicode="&#x4d1;" horiz-adv-x="599" 
d="M583 518l-72 -518h-160v81q-26 -43 -65 -68.5t-89 -25.5q-47 0 -85 25.5t-59.5 74t-21.5 112.5q0 81 30 158t83.5 125.5t121.5 48.5q52 0 85.5 -27.5t48.5 -71.5l12 86h171zM332.5 149.5q24.5 26.5 37.5 67t13 80.5q0 46 -18.5 72t-50.5 26t-56.5 -27t-37.5 -67.5
t-13 -80.5q0 -46 18 -71.5t51 -25.5q32 0 56.5 26.5zM243 640q-38 46 -35 130h91q-5 -85 54 -85q27 0 43 20.5t23 64.5h92q-11 -93 -55.5 -134.5t-111.5 -41.5q-63 0 -101 46z" />
    <glyph glyph-name="uni04D2" unicode="&#x4d2;" horiz-adv-x="618" 
d="M396 110h-204l-38 -110h-192l316 760h203l101 -760h-178zM387 239l-25 362l-125 -362h150zM242.5 872.5q-23.5 23.5 -23.5 56.5q0 34 23.5 57.5t56.5 23.5t57 -23.5t24 -57.5q0 -33 -24 -56.5t-57 -23.5t-56.5 23.5zM449.5 872.5q-23.5 23.5 -23.5 56.5q0 34 23.5 57.5
t56.5 23.5t56 -23.5t23 -57.5q0 -33 -23 -56.5t-56 -23.5t-56.5 23.5z" />
    <glyph glyph-name="uni04D3" unicode="&#x4d3;" horiz-adv-x="599" 
d="M583 518l-72 -518h-160v81q-26 -43 -65 -68.5t-89 -25.5q-47 0 -85 25.5t-59.5 74t-21.5 112.5q0 81 30 158t83.5 125.5t121.5 48.5q52 0 85.5 -27.5t48.5 -71.5l12 86h171zM332.5 149.5q24.5 26.5 37.5 67t13 80.5q0 46 -18.5 72t-50.5 26t-56.5 -27t-37.5 -67.5
t-13 -80.5q0 -46 18 -71.5t51 -25.5q32 0 56.5 26.5zM187.5 630.5q-23.5 23.5 -23.5 56.5q0 34 23.5 57.5t56.5 23.5t57 -23.5t24 -57.5q0 -33 -24 -56.5t-57 -23.5t-56.5 23.5zM394.5 630.5q-23.5 23.5 -23.5 56.5q0 34 23.5 57.5t56.5 23.5t56 -23.5t23 -57.5
q0 -33 -23 -56.5t-56 -23.5t-56.5 23.5z" />
    <glyph glyph-name="uni04D4" unicode="&#x4d4;" horiz-adv-x="863" 
d="M659 615l-22 -151h202l-20 -139h-201l-26 -180h213l-21 -145h-390l20 145h-185l-79 -145h-195l465 760h470l-21 -145h-210zM432 273l47 331l-180 -331h133z" />
    <glyph glyph-name="uni04D5" unicode="&#x4d5;" horiz-adv-x="845" 
d="M482 215l-1 -18q0 -44 18 -68.5t52 -24.5q25 0 45.5 16.5t32.5 43.5l154 -11q-72 -166 -253 -166q-55 0 -95.5 23t-64.5 64q-65 -87 -193 -87q-69 0 -113 37.5t-44 101.5q0 86 60 131.5t163 45.5h102l2 15q3 15 3 31q0 34 -15.5 49.5t-41.5 15.5q-25 0 -45.5 -15
t-31.5 -41l-146 13q28 69 89.5 114.5t150.5 45.5q43 0 78.5 -14t60.5 -40q66 54 157 54q99 0 152.5 -64t53.5 -170q0 -15 -3.5 -39t-7.5 -39h-319v-4zM532 381.5q-26 -29.5 -38 -78.5h166q1 7 1 19q0 89 -67 89q-36 0 -62 -29.5zM293 116q27 28 37 81l1 7l2 15h-71
q-45 0 -68.5 -20.5t-23.5 -58.5q0 -26 16 -39t41 -13q39 0 66 28z" />
    <glyph glyph-name="uni04D6" unicode="&#x4d6;" horiz-adv-x="502" 
d="M285 614l-21 -150h214l-20 -140h-213l-25 -178h224l-21 -146h-403l107 760h402l-21 -146h-223zM248 882q-38 46 -35 130h91q-5 -85 54 -85q27 0 43 20.5t23 64.5h92q-11 -93 -55.5 -134.5t-111.5 -41.5q-63 0 -101 46z" />
    <glyph glyph-name="uni04D7" unicode="&#x4d7;" horiz-adv-x="578" 
d="M202 213l-1 -17q0 -44 17.5 -68t51.5 -24q25 0 46 16.5t32 43.5l170 -13q-37 -80 -104.5 -122t-165.5 -42q-66 0 -115 28.5t-74.5 78t-25.5 109.5q0 96 35 170.5t101 116t156 41.5q106 0 163.5 -62t57.5 -168q0 -18 -4 -45.5t-9 -42.5h-331zM250.5 380.5
q-25.5 -30.5 -36.5 -81.5h165q1 8 1 23q0 89 -67 89q-37 0 -62.5 -30.5zM241 640q-38 46 -35 130h91q-5 -85 54 -85q27 0 43 20.5t23 64.5h92q-11 -93 -55.5 -134.5t-111.5 -41.5q-63 0 -101 46z" />
    <glyph glyph-name="uni04D8" unicode="&#x4d8;" horiz-adv-x="730" 
d="M582 729q65 -44 100 -119t35 -167q0 -122 -51.5 -227t-139.5 -167t-192 -62q-85 0 -150 44.5t-101 121.5t-36 170q0 57 18 115h480v2q0 82 -35 129t-94 47q-43 0 -81.5 -28.5t-63.5 -80.5l-173 31q51 111 138.5 173t192.5 62q88 0 153 -44zM457 195q50 51 73 132h-311v-4
q0 -85 32.5 -132t90.5 -47q65 0 115 51z" />
    <glyph glyph-name="uni04D9" unicode="&#x4d9;" horiz-adv-x="570" 
d="M440.5 501.5q48.5 -29.5 74.5 -79t26 -107.5q0 -96 -35 -170.5t-101 -116t-156 -41.5q-106 0 -163.5 62.5t-57.5 168.5q0 17 4 44t9 41h331q0 112 -68 112q-25 0 -46 -17t-32 -44l-170 13q37 80 104.5 122t165.5 42q66 0 114.5 -29.5zM324.5 135.5q27.5 28.5 39.5 78.5
h-169q-1 -6 -1 -18q0 -89 67 -89q36 0 63.5 28.5z" />
    <glyph glyph-name="uni04DA" unicode="&#x4da;" horiz-adv-x="730" 
d="M582 729q65 -44 100 -119t35 -167q0 -122 -51.5 -227t-139.5 -167t-192 -62q-85 0 -150 44.5t-101 121.5t-36 170q0 57 18 115h480v2q0 82 -35 129t-94 47q-43 0 -81.5 -28.5t-63.5 -80.5l-173 31q51 111 138.5 173t192.5 62q88 0 153 -44zM457 195q50 51 73 132h-311v-4
q0 -85 32.5 -132t90.5 -47q65 0 115 51zM291.5 872.5q-23.5 23.5 -23.5 56.5q0 34 23.5 57.5t56.5 23.5t57 -23.5t24 -57.5q0 -33 -24 -56.5t-57 -23.5t-56.5 23.5zM498.5 872.5q-23.5 23.5 -23.5 56.5q0 34 23.5 57.5t56.5 23.5t56 -23.5t23 -57.5q0 -33 -23 -56.5
t-56 -23.5t-56.5 23.5z" />
    <glyph glyph-name="uni04DB" unicode="&#x4db;" horiz-adv-x="570" 
d="M440.5 501.5q48.5 -29.5 74.5 -79t26 -107.5q0 -96 -35 -170.5t-101 -116t-156 -41.5q-106 0 -163.5 62.5t-57.5 168.5q0 17 4 44t9 41h331q0 112 -68 112q-25 0 -46 -17t-32 -44l-170 13q37 80 104.5 122t165.5 42q66 0 114.5 -29.5zM324.5 135.5q27.5 28.5 39.5 78.5
h-169q-1 -6 -1 -18q0 -89 67 -89q36 0 63.5 28.5zM182.5 630.5q-23.5 23.5 -23.5 56.5q0 34 23.5 57.5t56.5 23.5t57 -23.5t24 -57.5q0 -33 -24 -56.5t-57 -23.5t-56.5 23.5zM389.5 630.5q-23.5 23.5 -23.5 56.5q0 34 23.5 57.5t56.5 23.5t56 -23.5t23 -57.5
q0 -33 -23 -56.5t-56 -23.5t-56.5 23.5z" />
    <glyph glyph-name="uni04DC" unicode="&#x4dc;" horiz-adv-x="930" 
d="M719 445l168 -445h-177l-98 318l-62 -71l-34 -247h-172l37 264l-41 72l-179 -336h-191l287 483l-156 277h180l127 -299l42 299h172l-43 -306l203 306h207zM398.5 872.5q-23.5 23.5 -23.5 56.5q0 34 23.5 57.5t56.5 23.5t57 -23.5t24 -57.5q0 -33 -24 -56.5t-57 -23.5
t-56.5 23.5zM605.5 872.5q-23.5 23.5 -23.5 56.5q0 34 23.5 57.5t56.5 23.5t56 -23.5t23 -57.5q0 -33 -23 -56.5t-56 -23.5t-56.5 23.5z" />
    <glyph glyph-name="uni04DD" unicode="&#x4dd;" horiz-adv-x="754" 
d="M578 311l137 -311h-159l-71 217l-46 -47l-24 -170h-154l26 183l-27 39l-122 -222h-173l218 335l-126 183h162l91 -168l24 168h153l-24 -175l131 175h188zM273.5 630.5q-23.5 23.5 -23.5 56.5q0 34 23.5 57.5t56.5 23.5t57 -23.5t24 -57.5q0 -33 -24 -56.5t-57 -23.5
t-56.5 23.5zM480.5 630.5q-23.5 23.5 -23.5 56.5q0 34 23.5 57.5t56.5 23.5t56 -23.5t23 -57.5q0 -33 -23 -56.5t-56 -23.5t-56.5 23.5z" />
    <glyph glyph-name="uni04DE" unicode="&#x4de;" horiz-adv-x="557" 
d="M512.5 343q20.5 -38 20.5 -88q0 -128 -76.5 -198t-212.5 -70q-109 0 -171.5 52.5t-62.5 141.5q0 18 3 36l170 3q-2 -16 -2 -24q0 -34 18 -52.5t52 -18.5q44 0 73 38.5t29 93.5q0 38 -22.5 58.5t-73.5 20.5h-90l17 126h78q55 0 86.5 31.5t31.5 79.5q0 30 -16.5 47
t-48.5 17q-41 0 -64 -25t-30 -67l-164 14q17 97 86.5 155.5t193.5 58.5q114 0 168.5 -50.5t54.5 -125.5q0 -64 -27.5 -114.5t-79.5 -79.5q39 -22 59.5 -60zM205.5 872.5q-23.5 23.5 -23.5 56.5q0 34 23.5 57.5t56.5 23.5t57 -23.5t24 -57.5q0 -33 -24 -56.5t-57 -23.5
t-56.5 23.5zM412.5 872.5q-23.5 23.5 -23.5 56.5q0 34 23.5 57.5t56.5 23.5t56 -23.5t23 -57.5q0 -33 -23 -56.5t-56 -23.5t-56.5 23.5z" />
    <glyph glyph-name="uni04DF" unicode="&#x4df;" horiz-adv-x="472" 
d="M415 231.5q19 -28.5 19 -68.5q0 -84 -60.5 -130t-171.5 -46q-69 0 -115 21.5t-67 56.5t-21 75q0 7 1 11l154 2v-9q0 -43 47 -43q32 0 51 21.5t19 52.5q0 24 -14 35t-44 11h-73l13 91h58q35 0 55.5 20.5t20.5 47.5q0 40 -43 40q-28 0 -45 -17t-21 -42l-147 16
q14 68 69.5 111t157.5 43q96 0 144.5 -34.5t48.5 -95.5q0 -45 -24 -78t-62 -47q31 -16 50 -44.5zM126.5 630.5q-23.5 23.5 -23.5 56.5q0 34 23.5 57.5t56.5 23.5t57 -23.5t24 -57.5q0 -33 -24 -56.5t-57 -23.5t-56.5 23.5zM333.5 630.5q-23.5 23.5 -23.5 56.5
q0 34 23.5 57.5t56.5 23.5t56 -23.5t23 -57.5q0 -33 -23 -56.5t-56 -23.5t-56.5 23.5z" />
    <glyph glyph-name="uni04E0" unicode="&#x4e0;" horiz-adv-x="546" 
d="M477 410.5q48 -52.5 48 -133.5q0 -90 -34.5 -155.5t-98.5 -100t-150 -34.5q-68 0 -120.5 24t-81 67t-28.5 100q0 23 4 39l172 3q-2 -14 -2 -24q0 -71 67 -71q44 0 71.5 41.5t27.5 104.5q0 41 -20.5 61.5t-67.5 20.5h-98l12 100l128 167h-201l22 140h460l-240 -288
q82 -9 130 -61.5z" />
    <glyph glyph-name="uni04E1" unicode="&#x4e1;" horiz-adv-x="490" 
d="M395 174q41 -47 41 -120q0 -84 -31.5 -144.5t-90 -92.5t-135.5 -32q-94 0 -148.5 51.5t-54.5 135.5v13l147 1v-9q0 -32 16.5 -49t46.5 -17q44 0 71.5 39.5t27.5 94.5q0 44 -23.5 64.5t-76.5 20.5q-36 0 -71 -4l9 107l112 161h-170l20 124h428l-226 -281q67 -16 108 -63z
" />
    <glyph glyph-name="uni04E2" unicode="&#x4e2;" horiz-adv-x="663" 
d="M676 760l-106 -760h-173l68 488l-271 -488h-173l106 760h173l-67 -483l270 483h173zM302 985h257l-12 -91h-257z" />
    <glyph glyph-name="uni04E3" unicode="&#x4e3;" horiz-adv-x="563" 
d="M547 518l-73 -518h-166l40 283l-166 -283h-166l73 518h165l-40 -285l168 285h165zM222 743h257l-12 -91h-257z" />
    <glyph glyph-name="uni04E4" unicode="&#x4e4;" horiz-adv-x="663" 
d="M676 760l-106 -760h-173l68 488l-271 -488h-173l106 760h173l-67 -483l270 483h173zM262.5 872.5q-23.5 23.5 -23.5 56.5q0 34 23.5 57.5t56.5 23.5t57 -23.5t24 -57.5q0 -33 -24 -56.5t-57 -23.5t-56.5 23.5zM469.5 872.5q-23.5 23.5 -23.5 56.5q0 34 23.5 57.5
t56.5 23.5t56 -23.5t23 -57.5q0 -33 -23 -56.5t-56 -23.5t-56.5 23.5z" />
    <glyph glyph-name="uni04E5" unicode="&#x4e5;" horiz-adv-x="563" 
d="M547 518l-73 -518h-166l40 283l-166 -283h-166l73 518h165l-40 -285l168 285h165zM182.5 630.5q-23.5 23.5 -23.5 56.5q0 34 23.5 57.5t56.5 23.5t57 -23.5t24 -57.5q0 -33 -24 -56.5t-57 -23.5t-56.5 23.5zM389.5 630.5q-23.5 23.5 -23.5 56.5q0 34 23.5 57.5t56.5 23.5
t56 -23.5t23 -57.5q0 -33 -23 -56.5t-56 -23.5t-56.5 23.5z" />
    <glyph glyph-name="uni04E6" unicode="&#x4e6;" horiz-adv-x="740" 
d="M179.5 28.5q-64.5 41.5 -98.5 115t-34 166.5q0 123 49 229t139 170t207 64q88 0 152.5 -41.5t98.5 -115t34 -167.5q0 -123 -49.5 -229t-139.5 -169.5t-206 -63.5q-88 0 -152.5 41.5zM455 192.5q43 43.5 65.5 111t22.5 138.5q0 81 -31.5 125t-89.5 44q-59 0 -102.5 -43.5
t-66 -111.5t-22.5 -138q0 -81 32 -125t91 -44q58 0 101 43.5zM302.5 872.5q-23.5 23.5 -23.5 56.5q0 34 23.5 57.5t56.5 23.5t57 -23.5t24 -57.5q0 -33 -24 -56.5t-57 -23.5t-56.5 23.5zM509.5 872.5q-23.5 23.5 -23.5 56.5q0 34 23.5 57.5t56.5 23.5t56 -23.5t23 -57.5
q0 -33 -23 -56.5t-56 -23.5t-56.5 23.5z" />
    <glyph glyph-name="uni04E7" unicode="&#x4e7;" horiz-adv-x="584" 
d="M89 50q-55 63 -55 160q0 91 35.5 164t102.5 115t158 42q109 0 164.5 -63.5t55.5 -160.5q0 -91 -35.5 -164t-102.5 -114.5t-159 -41.5q-109 0 -164 63zM330 150q24 27 36.5 68.5t12.5 82.5q0 45 -18 69.5t-50 24.5q-33 0 -57 -27.5t-36.5 -68.5t-12.5 -82q0 -45 18 -69.5
t50 -24.5q33 0 57 27zM193.5 630.5q-23.5 23.5 -23.5 56.5q0 34 23.5 57.5t56.5 23.5t57 -23.5t24 -57.5q0 -33 -24 -56.5t-57 -23.5t-56.5 23.5zM400.5 630.5q-23.5 23.5 -23.5 56.5q0 34 23.5 57.5t56.5 23.5t56 -23.5t23 -57.5q0 -33 -23 -56.5t-56 -23.5t-56.5 23.5z
" />
    <glyph glyph-name="uni04E8" unicode="&#x4e8;" horiz-adv-x="740" 
d="M594.5 731.5q64.5 -41.5 98.5 -115t34 -167.5q0 -123 -49.5 -229t-139.5 -169.5t-206 -63.5q-88 0 -152.5 41.5t-98.5 115t-34 166.5q0 123 49 229t139 170t207 64q88 0 152.5 -41.5zM307.5 566q-49.5 -50 -72.5 -130h319v4q0 81 -34 128.5t-97 47.5q-66 0 -115.5 -50z
M465.5 194.5q49.5 50.5 72.5 131.5h-319v-5q0 -82 34 -129.5t97 -47.5q66 0 115.5 50.5z" />
    <glyph glyph-name="uni04E9" unicode="&#x4e9;" horiz-adv-x="584" 
d="M494.5 467.5q55.5 -63.5 55.5 -160.5q0 -91 -35.5 -164t-102.5 -114.5t-159 -41.5q-109 0 -164 63t-55 160q0 91 35.5 164t102.5 115t158 42q109 0 164.5 -63.5zM244.5 382.5q-30.5 -29.5 -45.5 -78.5h200v1q0 52 -20.5 79.5t-60.5 27.5q-43 0 -73.5 -29.5zM340.5 136
q30.5 30 45.5 80h-200v-3q0 -52 20.5 -79.5t59.5 -27.5q44 0 74.5 30z" />
    <glyph glyph-name="uni04EA" unicode="&#x4ea;" horiz-adv-x="740" 
d="M594.5 731.5q64.5 -41.5 98.5 -115t34 -167.5q0 -123 -49.5 -229t-139.5 -169.5t-206 -63.5q-88 0 -152.5 41.5t-98.5 115t-34 166.5q0 123 49 229t139 170t207 64q88 0 152.5 -41.5zM307.5 566q-49.5 -50 -72.5 -130h319v4q0 81 -34 128.5t-97 47.5q-66 0 -115.5 -50z
M465.5 194.5q49.5 50.5 72.5 131.5h-319v-5q0 -82 34 -129.5t97 -47.5q66 0 115.5 50.5zM303.5 872.5q-23.5 23.5 -23.5 56.5q0 34 23.5 57.5t56.5 23.5t57 -23.5t24 -57.5q0 -33 -24 -56.5t-57 -23.5t-56.5 23.5zM510.5 872.5q-23.5 23.5 -23.5 56.5q0 34 23.5 57.5
t56.5 23.5t56 -23.5t23 -57.5q0 -33 -23 -56.5t-56 -23.5t-56.5 23.5z" />
    <glyph glyph-name="uni04EB" unicode="&#x4eb;" horiz-adv-x="584" 
d="M494.5 467.5q55.5 -63.5 55.5 -160.5q0 -91 -35.5 -164t-102.5 -114.5t-159 -41.5q-109 0 -164 63t-55 160q0 91 35.5 164t102.5 115t158 42q109 0 164.5 -63.5zM244.5 382.5q-30.5 -29.5 -45.5 -78.5h200v1q0 52 -20.5 79.5t-60.5 27.5q-43 0 -73.5 -29.5zM340.5 136
q30.5 30 45.5 80h-200v-3q0 -52 20.5 -79.5t59.5 -27.5q44 0 74.5 30zM190.5 630.5q-23.5 23.5 -23.5 56.5q0 34 23.5 57.5t56.5 23.5t57 -23.5t24 -57.5q0 -33 -24 -56.5t-57 -23.5t-56.5 23.5zM397.5 630.5q-23.5 23.5 -23.5 56.5q0 34 23.5 57.5t56.5 23.5t56 -23.5
t23 -57.5q0 -33 -23 -56.5t-56 -23.5t-56.5 23.5z" />
    <glyph glyph-name="uni04EC" unicode="&#x4ec;" horiz-adv-x="728" 
d="M572.5 729.5q67.5 -43.5 104.5 -119t37 -168.5q0 -126 -52 -230.5t-140.5 -164.5t-194.5 -60q-83 0 -146.5 40.5t-99.5 108t-40 146.5l170 6q7 -70 40 -107t87 -37q65 0 114.5 51t72.5 131h-244l16 110h244v2q0 83 -34 130.5t-95 47.5q-58 0 -104 -40.5t-72 -110.5
l-170 23q46 134 138 209.5t212 75.5q89 0 156.5 -43.5zM282.5 872.5q-23.5 23.5 -23.5 56.5q0 34 23.5 57.5t56.5 23.5t57 -23.5t24 -57.5q0 -33 -24 -56.5t-57 -23.5t-56.5 23.5zM489.5 872.5q-23.5 23.5 -23.5 56.5q0 34 23.5 57.5t56.5 23.5t56 -23.5t23 -57.5
q0 -33 -23 -56.5t-56 -23.5t-56.5 23.5z" />
    <glyph glyph-name="uni04ED" unicode="&#x4ed;" horiz-adv-x="581" 
d="M441 501.5q52 -29.5 78.5 -81.5t26.5 -119q0 -93 -35 -164t-100.5 -110.5t-155.5 -39.5q-103 0 -160.5 58.5t-63.5 153.5l142 4q2 -44 25 -70t63 -26q43 0 74.5 29t46.5 78h-153l14 93h151q-3 104 -84 104q-43 0 -73.5 -27.5t-47.5 -74.5l-142 23q63 199 270 199
q72 0 124 -29.5zM186.5 630.5q-23.5 23.5 -23.5 56.5q0 34 23.5 57.5t56.5 23.5t57 -23.5t24 -57.5q0 -33 -24 -56.5t-57 -23.5t-56.5 23.5zM393.5 630.5q-23.5 23.5 -23.5 56.5q0 34 23.5 57.5t56.5 23.5t56 -23.5t23 -57.5q0 -33 -23 -56.5t-56 -23.5t-56.5 23.5z" />
    <glyph glyph-name="uni04EE" unicode="&#x4ee;" horiz-adv-x="588" 
d="M665 760l-405 -760h-188l138 259l-143 501h179l67 -307l163 307h189zM263 985h257l-12 -91h-257z" />
    <glyph glyph-name="uni04EF" unicode="&#x4ef;" 
d="M550 518l-68 -481q-17 -129 -88 -190.5t-185 -61.5q-90 0 -140.5 39.5t-66.5 109.5l172 17q3 -27 15 -39.5t36 -12.5q36 0 55.5 32t28.5 99l7 46q-30 -36 -67.5 -55.5t-80.5 -19.5q-67 0 -99.5 43t-32.5 113q0 27 4 50l44 311h172l-40 -283q-4 -23 -4 -46q0 -29 11.5 -44
t38.5 -15q55 0 77 109l39 279h172zM223 743h257l-12 -91h-257z" />
    <glyph glyph-name="uni04F0" unicode="&#x4f0;" horiz-adv-x="588" 
d="M665 760l-405 -760h-188l138 259l-143 501h179l67 -307l163 307h189zM223.5 872.5q-23.5 23.5 -23.5 56.5q0 34 23.5 57.5t56.5 23.5t57 -23.5t24 -57.5q0 -33 -24 -56.5t-57 -23.5t-56.5 23.5zM430.5 872.5q-23.5 23.5 -23.5 56.5q0 34 23.5 57.5t56.5 23.5t56 -23.5
t23 -57.5q0 -33 -23 -56.5t-56 -23.5t-56.5 23.5z" />
    <glyph glyph-name="uni04F1" unicode="&#x4f1;" 
d="M550 518l-68 -481q-17 -129 -88 -190.5t-185 -61.5q-90 0 -140.5 39.5t-66.5 109.5l172 17q3 -27 15 -39.5t36 -12.5q36 0 55.5 32t28.5 99l7 46q-30 -36 -67.5 -55.5t-80.5 -19.5q-67 0 -99.5 43t-32.5 113q0 27 4 50l44 311h172l-40 -283q-4 -23 -4 -46q0 -29 11.5 -44
t38.5 -15q55 0 77 109l39 279h172zM183.5 630.5q-23.5 23.5 -23.5 56.5q0 34 23.5 57.5t56.5 23.5t57 -23.5t24 -57.5q0 -33 -24 -56.5t-57 -23.5t-56.5 23.5zM390.5 630.5q-23.5 23.5 -23.5 56.5q0 34 23.5 57.5t56.5 23.5t56 -23.5t23 -57.5q0 -33 -23 -56.5t-56 -23.5
t-56.5 23.5z" />
    <glyph glyph-name="uni04F2" unicode="&#x4f2;" horiz-adv-x="588" 
d="M665 760l-405 -760h-188l138 259l-143 501h179l67 -307l163 307h189zM312 829h-105l84 173h159zM522 829h-105l84 173h159z" />
    <glyph glyph-name="uni04F3" unicode="&#x4f3;" 
d="M550 518l-68 -481q-17 -129 -88 -190.5t-185 -61.5q-90 0 -140.5 39.5t-66.5 109.5l172 17q3 -27 15 -39.5t36 -12.5q36 0 55.5 32t28.5 99l7 46q-30 -36 -67.5 -55.5t-80.5 -19.5q-67 0 -99.5 43t-32.5 113q0 27 4 50l44 311h172l-40 -283q-4 -23 -4 -46q0 -29 11.5 -44
t38.5 -15q55 0 77 109l39 279h172zM272 587h-105l84 173h159zM482 587h-105l84 173h159z" />
    <glyph glyph-name="uni04F4" unicode="&#x4f4;" horiz-adv-x="604" 
d="M616 760l-106 -760h-178l37 263h-74q-59 0 -110 25.5t-82 75t-31 117.5q0 18 4 52l32 227h178l-32 -221q-3 -22 -3 -46q0 -41 19.5 -62.5t62.5 -21.5h56l49 351h178zM224.5 872.5q-23.5 23.5 -23.5 56.5q0 34 23.5 57.5t56.5 23.5t57 -23.5t24 -57.5q0 -33 -24 -56.5
t-57 -23.5t-56.5 23.5zM431.5 872.5q-23.5 23.5 -23.5 56.5q0 34 23.5 57.5t56.5 23.5t56 -23.5t23 -57.5q0 -33 -23 -56.5t-56 -23.5t-56.5 23.5z" />
    <glyph glyph-name="uni04F5" unicode="&#x4f5;" horiz-adv-x="525" 
d="M509 518l-73 -518h-172l23 161h-60q-49 0 -89.5 20t-64.5 56.5t-24 85.5q0 15 2 35l24 160h167l-23 -150q-2 -16 -2 -29q0 -24 12 -36t40 -12h36l32 227h172zM155.5 630.5q-23.5 23.5 -23.5 56.5q0 34 23.5 57.5t56.5 23.5t57 -23.5t24 -57.5q0 -33 -24 -56.5t-57 -23.5
t-56.5 23.5zM362.5 630.5q-23.5 23.5 -23.5 56.5q0 34 23.5 57.5t56.5 23.5t56 -23.5t23 -57.5q0 -33 -23 -56.5t-56 -23.5t-56.5 23.5z" />
    <glyph glyph-name="uni04F6" unicode="&#x4f6;" horiz-adv-x="460" 
d="M492 614h-206l-86 -614h-179l106 760h387zM265 -140h-144l12 140h-42l23 146h194z" />
    <glyph glyph-name="uni04F7" unicode="&#x4f7;" horiz-adv-x="385" 
d="M385 385h-143l-54 -385h-172l73 518h318zM240 -130h-134l10 130h-35l21 133h177z" />
    <glyph glyph-name="uni04F8" unicode="&#x4f8;" horiz-adv-x="876" 
d="M470 501q50 -30 76 -80.5t26 -111.5q0 -97 -35.5 -166.5t-100 -106t-150.5 -36.5h-265l106 760h178l-32 -229h77q70 0 120 -30zM889 760l-107 -760h-177l106 760h178zM360 186q33 46 33 113q0 43 -20 68t-64 25h-55l-35 -252h50q58 0 91 46zM367.5 872.5
q-23.5 23.5 -23.5 56.5q0 34 23.5 57.5t56.5 23.5t57 -23.5t24 -57.5q0 -33 -24 -56.5t-57 -23.5t-56.5 23.5zM574.5 872.5q-23.5 23.5 -23.5 56.5q0 34 23.5 57.5t56.5 23.5t56 -23.5t23 -57.5q0 -33 -23 -56.5t-56 -23.5t-56.5 23.5z" />
    <glyph glyph-name="uni04F9" unicode="&#x4f9;" horiz-adv-x="769" 
d="M397.5 362.5q40.5 -20.5 62.5 -56.5t22 -81q0 -108 -65 -166.5t-177 -58.5h-224l73 518h170l-19 -135h63q54 0 94.5 -20.5zM753 518l-73 -518h-172l73 518h172zM294 142.5q23 26.5 23 70.5q0 54 -55 54h-38l-22 -151h28q41 0 64 26.5zM262.5 630.5q-23.5 23.5 -23.5 56.5
q0 34 23.5 57.5t56.5 23.5t57 -23.5t24 -57.5q0 -33 -24 -56.5t-57 -23.5t-56.5 23.5zM469.5 630.5q-23.5 23.5 -23.5 56.5q0 34 23.5 57.5t56.5 23.5t56 -23.5t23 -57.5q0 -33 -23 -56.5t-56 -23.5t-56.5 23.5z" />
    <glyph glyph-name="uni04FC" unicode="&#x4fc;" horiz-adv-x="605" 
d="M485 217q22 -57 32 -99t10 -80q0 -76 -35 -132.5t-97 -88t-142 -32.5l4 145q46 5 74.5 38.5t28.5 91.5q0 41 -12 81l-31 96l-151 -237h-201l276 396l-153 364h177l77 -218l131 218h200l-254 -370z" />
    <glyph glyph-name="uni04FD" unicode="&#x4fd;" horiz-adv-x="500" 
d="M382 172q49 -95 49 -170q0 -106 -70.5 -161.5t-196.5 -55.5l6 134q44 0 75.5 28t31.5 78q0 37 -28 97l-11 24l-90 -146h-191l202 264l-120 254h169l51 -146l93 146h190l-200 -263z" />
    <glyph glyph-name="uni0510" unicode="&#x510;" horiz-adv-x="548" 
d="M463.5 748.5q51.5 -24.5 78.5 -66t27 -93.5q0 -20 -1 -30l-159 -14q1 7 1 20q0 33 -16 52.5t-50 19.5q-39 0 -61 -27t-22 -64t23.5 -60.5t66.5 -23.5h78l-19 -126h-82q-68 0 -101 -31t-33 -93q0 -39 19 -63t56 -24q77 0 93 95l162 -3q-21 -118 -92 -174t-182 -56
q-108 0 -172 53.5t-64 147.5q0 76 38 138t111 86q-75 45 -75 141q0 100 67 160t187 60q70 0 121.5 -24.5z" />
    <glyph glyph-name="uni0511" unicode="&#x511;" horiz-adv-x="466" 
d="M259 115q14 14 22 39l157 -5q-18 -82 -76 -122t-164 -40q-95 0 -144 37.5t-49 102.5q0 56 26.5 97t78.5 59q-26 14 -40.5 38t-14.5 57q0 44 24.5 78.5t71.5 54.5t112 20q94 0 144 -44t56 -112l-148 -13q-5 58 -51 58q-26 0 -39.5 -14.5t-13.5 -41.5q0 -23 17 -37.5
t46 -14.5h54l-14 -91h-77q-34 0 -51.5 -20t-17.5 -52q0 -22 12.5 -35t37.5 -13q27 0 41 14z" />
    <glyph glyph-name="uni0512" unicode="&#x512;" horiz-adv-x="608" 
d="M575 39q0 -117 -71 -183.5t-204 -70.5l5 145q95 15 95 121q0 25 -1 35l-41 478l-206 -564h-190l315 760h203l92 -677q3 -21 3 -44z" />
    <glyph glyph-name="uni0513" unicode="&#x513;" horiz-adv-x="527" 
d="M487 8q0 -109 -71 -166t-199 -57l5 134q42 0 73.5 27.5t31.5 74.5q0 40 -4 70l-37 280l-147 -371h-174l243 518h188l78 -408q13 -65 13 -102z" />
    <glyph glyph-name="uni051C" unicode="&#x51c;" horiz-adv-x="909" 
d="M971 760l-278 -760h-183l-21 509l-169 -509h-182l-59 760h183l3 -569l176 569h160l15 -570l161 570h194z" />
    <glyph glyph-name="uni051D" unicode="&#x51d;" horiz-adv-x="739" 
d="M775 518l-216 -518h-163l-16 333l-111 -333h-163l-70 518h175l5 -379l123 379h130l15 -378l111 378h180z" />
    <glyph glyph-name="uni0524" unicode="&#x524;" horiz-adv-x="682" 
d="M554 0h-177l86 614h-178l-86 -614h-178l106 760h533zM621 -140h-144l12 140h-42l23 146h194z" />
    </font>
</defs>
</svg>
