<?xml version="1.0" standalone="no"?>
<!DOCTYPE svg PUBLIC "-//W3C//DTD SVG 1.1//EN" "http://www.w3.org/Graphics/SVG/1.1/DTD/svg11.dtd" >
<svg xmlns="http://www.w3.org/2000/svg" xmlns:xlink="http://www.w3.org/1999/xlink" version="1.1">
<metadata>
Created by FontForge 20170731 at Wed Nov 22 21:06:53 2017
 By Aleksey,,,
Copyright (c) 2017 by Andreu Balius. All rights reserved.
</metadata>
<defs>
<font id="SeatBcn-Web-BoldItalic" horiz-adv-x="565" >
  <font-face 
    font-family="Seat Bcn - Web Bold"
    font-weight="700"
    font-style="italic"
    font-stretch="normal"
    units-per-em="1000"
    panose-1="0 0 8 0 0 0 0 0 0 0"
    ascent="760"
    descent="-240"
    x-height="518"
    cap-height="760"
    bbox="-474 -215 1419 1284"
    underline-thickness="50"
    underline-position="-150"
    slope="-8"
    unicode-range="U+000D-FB02"
  />
<missing-glyph horiz-adv-x="700" 
d="M163 705h400v-705h-400v705zM501 62v581h-276v-581h276z" />
    <glyph glyph-name="fi" unicode="fi" horiz-adv-x="653" 
d="M560 0h-171l54 385h-172l-53 -385h-171l53 385h-76l30 133h65l4 29q17 121 81 173.5t177 52.5q64 0 116.5 -13.5t84.5 -32.5l-53 -106q-21 11 -53.5 18.5t-64.5 7.5q-53 0 -81.5 -24.5t-37.5 -86.5l-2 -18h342z" />
    <glyph glyph-name="fl" unicode="fl" horiz-adv-x="711" 
d="M670 122l-10 -131q-23 -4 -63 -4q-94 0 -139.5 33.5t-45.5 112.5q0 15 8 82l58 424q-34 8 -66 8q-54 0 -82.5 -24.5t-37.5 -86.5l-2 -18h97l-18 -133h-98l-53 -385h-171l53 385h-76l30 133h65l4 29q17 121 81 173.5t178 52.5q80 0 159.5 -16.5t119.5 -33.5l-70 -501
q-4 -24 -4 -45q0 -29 16.5 -42t53.5 -13h13z" />
    <glyph glyph-name="f_f" unicode="ff" horiz-adv-x="734" 
d="M665 628q-20 -19 -27 -70l-6 -40h125l-19 -133h-124l-54 -385h-171l54 385h-171l-54 -385h-171l53 385h-76l30 133h64l8 55q14 105 69.5 152.5t148.5 47.5q64 0 122 -21l-25 -109q-28 9 -62 9q-36 0 -55.5 -17.5t-26.5 -68.5l-7 -48h171l8 56q14 105 69 152t148 47
q39 0 78 -7t59 -15l-27 -116q-38 12 -73 12q-38 0 -58 -19z" />
    <glyph glyph-name="f_f_i" unicode="ffi" horiz-adv-x="995" 
d="M902 0h-171l54 385h-172l-53 -385h-171l53 385h-170l-54 -385h-171l53 385h-76l30 133h64l8 56q15 104 70 151.5t148 47.5q64 0 122 -21l-25 -109q-28 9 -62 9q-36 0 -55.5 -17.5t-26.5 -68.5l-7 -48h171l4 29q17 121 80.5 173.5t176.5 52.5q65 0 117.5 -13.5t85.5 -32.5
l-54 -106q-22 11 -53.5 18.5t-64.5 7.5q-53 0 -81.5 -25t-37.5 -86l-2 -18h342z" />
    <glyph glyph-name="f_f_l" unicode="ffl" horiz-adv-x="1054" 
d="M1012 122l-9 -131q-24 -4 -64 -4q-94 0 -139.5 33.5t-45.5 112.5q0 15 8 82l58 424q-34 8 -66 8q-53 0 -82 -25t-38 -86l-2 -18h97l-19 -133h-97l-53 -385h-171l53 385h-170l-54 -385h-171l53 385h-76l30 133h64l8 56q15 104 70 151.5t148 47.5q64 0 122 -21l-25 -109
q-28 9 -62 9q-36 0 -55.5 -17.5t-26.5 -68.5l-7 -48h171l4 29q17 121 81 173.5t179 52.5q79 0 159 -16.5t119 -33.5l-70 -501q-4 -36 -4 -45q0 -29 16.5 -42t53.5 -13h13z" />
    <glyph glyph-name="uni04570457.liga" unicode="&#x457;&#x457;" horiz-adv-x="607" 
d="M30.5 635.5q-21.5 21.5 -21.5 52.5t21.5 52.5t51.5 21.5t52 -21.5t22 -52.5t-22 -52.5t-52 -21.5t-51.5 21.5zM216.5 635.5q-21.5 21.5 -21.5 52.5t21.5 52.5t51.5 21.5t51 -21.5t21 -52.5t-21 -52.5t-51 -21.5t-51.5 21.5zM404 635.5q-21 21.5 -21 52.5t21 52.5t52 21.5
q30 0 52 -21.5t22 -52.5t-22 -52.5t-52 -21.5q-31 0 -52 21.5zM589.5 635.5q-21.5 21.5 -21.5 52.5t21.5 52.5t52.5 21.5q30 0 51 -21.5t21 -52.5t-21 -52.5t-51 -21.5q-31 0 -52.5 21.5zM67 518h172l-72 -518h-172zM441 518h172l-72 -518h-172z" />
    <glyph glyph-name=".notdef" horiz-adv-x="700" 
d="M163 705h400v-705h-400v705zM501 62v581h-276v-581h276z" />
    <glyph glyph-name=".null" horiz-adv-x="600" 
 />
    <glyph glyph-name="nonmarkingreturn" unicode="&#xd;" horiz-adv-x="600" 
 />
    <glyph glyph-name="space" unicode=" " horiz-adv-x="214" 
 />
    <glyph glyph-name="exclam" unicode="!" horiz-adv-x="309" 
d="M141 760h161l-89 -516h-130zM63 14.5q-27 27.5 -27 65.5q0 39 27 66.5t66 27.5t66.5 -28t27.5 -66t-27.5 -65.5t-66.5 -27.5t-66 27.5z" />
    <glyph glyph-name="quotedbl" unicode="&#x22;" horiz-adv-x="480" 
d="M113 640l18 120h144l-17 -120l-41 -156h-104v156zM328 640l18 120h144l-17 -120l-41 -156h-104v156z" />
    <glyph glyph-name="numbersign" unicode="#" horiz-adv-x="880" 
d="M722 467l-66 -166h75l-17 -122h-107l-71 -179h-163l71 179h-133l-71 -179h-164l71 179h-78l17 122h109l66 166h-76l16 121h108l68 172h164l-68 -172h132l68 172h165l-68 -172h75l-16 -121h-107zM557 467h-132l-66 -166h133z" />
    <glyph glyph-name="dollar" unicode="$" horiz-adv-x="778" 
d="M604.5 406.5q41.5 -23.5 65 -61.5t23.5 -97q0 -108 -74 -175t-195 -82l-17 -118h-151l17 122q-98 18 -148 78t-50 147l181 13q0 -63 35.5 -87.5t85.5 -24.5q57 0 93 26.5t36 70.5q0 33 -20 48.5t-66 30.5l-85 27q-105 33 -154 81.5t-49 131.5q0 102 68 161.5t182 71.5
l16 111h151l-16 -117q97 -21 143.5 -80.5t46.5 -132.5l-184 -15q-2 104 -108 104q-49 0 -80.5 -21.5t-31.5 -60.5q0 -28 21 -46.5t73 -34.5l83 -26q67 -21 108.5 -44.5z" />
    <glyph glyph-name="percent" unicode="%" horiz-adv-x="1088" 
d="M166.5 397q-45.5 48 -45.5 134q0 68 25.5 122t73 84.5t109.5 30.5q74 0 119.5 -48t45.5 -135q0 -69 -26 -122.5t-73 -83.5t-108 -30q-75 0 -120.5 48zM801 760h174l-660 -760h-175zM348 491q18 37 18 93q0 40 -11.5 59t-34.5 19q-36 0 -53 -38t-17 -93q0 -39 11 -58
t35 -19q34 0 52 37zM672.5 40q-45.5 48 -45.5 134q0 68 25.5 122t72.5 84.5t109 30.5q75 0 120.5 -48t45.5 -135q0 -69 -26 -122.5t-73 -83.5t-108 -30q-75 0 -120.5 48zM854 134q18 36 18 91q0 42 -11.5 61.5t-34.5 19.5q-37 0 -53.5 -38.5t-16.5 -93.5q0 -39 11 -57.5
t35 -18.5q34 0 52 36z" />
    <glyph glyph-name="ampersand" unicode="&#x26;" horiz-adv-x="808" 
d="M563 0l-37 47q-95 -60 -218 -60q-113 0 -178 51t-65 141q0 154 174 231q-32 42 -49 79.5t-17 79.5q0 58 30 104.5t86 73t131 26.5q70 0 118.5 -21.5t72 -57.5t23.5 -79q0 -71 -51 -128t-149 -95l115 -149q25 45 38 104h137q-22 -118 -94 -208l108 -139h-175zM352 624
q-21 -23 -21 -58q0 -22 10.5 -44.5t30.5 -49.5l4 -5q47 25 72.5 56.5t25.5 64.5q0 26 -16 42.5t-48 16.5q-37 0 -58 -23zM453 139l-147 185q-32 -22 -51 -53t-19 -64q0 -45 30.5 -70t84.5 -25q53 0 102 27z" />
    <glyph glyph-name="quotesingle" unicode="'" horiz-adv-x="265" 
d="M113 640l18 120h144l-17 -120l-41 -156h-104v156z" />
    <glyph glyph-name="parenleft" unicode="(" horiz-adv-x="418" 
d="M78 69q0 31 4 54l76 552q11 76 39.5 121t83 66t144.5 21l-17 -118q-52 0 -73 -26t-29 -78l-76 -541q-2 -20 -2 -33q0 -35 15.5 -52.5t59.5 -17.5l-16 -118q-209 0 -209 170z" />
    <glyph glyph-name="parenright" unicode=")" horiz-adv-x="418" 
d="M377 713q0 -31 -4 -54l-76 -552q-11 -76 -39.5 -121t-83 -66t-144.5 -21l17 118q52 0 73 26t29 78l76 541q2 20 2 33q0 35 -15.5 52.5t-59.5 17.5l16 118q209 0 209 -170z" />
    <glyph glyph-name="asterisk" unicode="*" horiz-adv-x="633" 
d="M441 496l83 -109l-127 -85l-56 128l-94 -128l-105 85l114 109l-139 32l68 137l123 -60l5 145h144l-33 -144l139 59l28 -137z" />
    <glyph glyph-name="plus" unicode="+" horiz-adv-x="597" 
d="M510 206h-158l-22 -157h-121l22 157h-157l16 122h157l22 157h122l-22 -157h157z" />
    <glyph glyph-name="comma" unicode="," horiz-adv-x="289" 
d="M185 146.5q28 -27.5 28 -67.5q0 -36 -21 -79.5t-62 -83.5t-97 -66l-27 44q33 23 54 45.5t34 52.5q-30 6 -49 31t-19 57q0 40 28 67t66 27q37 0 65 -27.5z" />
    <glyph glyph-name="hyphen" unicode="-" horiz-adv-x="457" 
d="M70 331h337l-19 -133h-336z" />
    <glyph glyph-name="period" unicode="." horiz-adv-x="289" 
d="M53 14.5q-27 27.5 -27 65.5q0 39 27 66.5t66 27.5t66.5 -28t27.5 -66t-27.5 -65.5t-66.5 -27.5t-66 27.5z" />
    <glyph glyph-name="slash" unicode="/" horiz-adv-x="537" 
d="M373 760h184l-360 -760h-183z" />
    <glyph glyph-name="zero" unicode="0" horiz-adv-x="767" 
d="M194.5 26q-63.5 39 -97 108.5t-33.5 157.5q0 142 47 251t135.5 169.5t208.5 60.5q87 0 150.5 -39t97 -108.5t33.5 -158.5q0 -142 -47.5 -250.5t-135.5 -169t-208 -60.5q-87 0 -150.5 39zM468.5 189q41.5 43 62.5 112.5t21 146.5q0 80 -31.5 123t-88.5 43
q-59 0 -100.5 -42.5t-62 -111.5t-20.5 -148q0 -80 31.5 -123t86.5 -43q60 0 101.5 43z" />
    <glyph glyph-name="one" unicode="1" horiz-adv-x="465" 
d="M422 760l-107 -760h-178l74 536q-52 -12 -132 -12l18 140q82 0 129 21.5t68 74.5h128z" />
    <glyph glyph-name="two" unicode="2" horiz-adv-x="649" 
d="M248.5 217q-26.5 -32 -33.5 -71h360l-21 -146h-556l10 69q11 80 33 136.5t68.5 103.5t127.5 86l115 56q55 27 80 53.5t25 63.5q0 29 -21 45.5t-61 16.5q-42 0 -71 -20t-40 -52l-177 12q30 93 109 148t203 55q78 0 132.5 -25t82 -68t27.5 -96q0 -92 -56 -151.5
t-165 -111.5l-83 -42q-62 -30 -88.5 -62z" />
    <glyph glyph-name="three" unicode="3" horiz-adv-x="661" 
d="M581 342.5q28 -42.5 28 -101.5q0 -80 -38.5 -137t-107 -87t-158.5 -30q-112 0 -184 57.5t-84 157.5l177 13q6 -42 33.5 -60t67.5 -18q53 0 83.5 28.5t30.5 79.5q0 90 -122 90h-70l17 123h51q68 0 106.5 29t38.5 78q0 30 -19.5 47.5t-58.5 17.5t-66.5 -19t-41.5 -52
l-177 11q35 92 112 147.5t198 55.5q75 0 127.5 -23.5t79 -64t26.5 -91.5q0 -62 -33.5 -109t-93.5 -78q50 -22 78 -64.5z" />
    <glyph glyph-name="four" unicode="4" horiz-adv-x="697" 
d="M673 155h-112l-22 -155h-172l22 155h-359l18 135l188 470h179l-193 -470h185l32 228h172l-32 -228h113z" />
    <glyph glyph-name="five" unicode="5" horiz-adv-x="667" 
d="M528 483.5q50 -29.5 74 -79t24 -109.5q0 -94 -40.5 -163.5t-114.5 -107t-171 -37.5q-70 0 -128 24.5t-95 71.5t-44 114l175 13q3 -43 32 -63t68 -20q64 0 102.5 41t38.5 109q0 54 -29 80.5t-78 26.5q-36 0 -69.5 -15.5t-56.5 -38.5l-138 31l56 399h494l-19 -137h-325
l-21 -143q66 33 142 33q73 0 123 -29.5z" />
    <glyph glyph-name="six" unicode="6" horiz-adv-x="712" 
d="M612 456q58 -57 58 -153q0 -98 -44.5 -169.5t-121 -109t-169.5 -37.5q-129 0 -202 75t-73 209q0 35 4 70q14 132 62.5 229.5t129.5 150t190 52.5q101 0 165.5 -50t78.5 -137l-174 -12q-17 65 -90 65q-65 0 -106.5 -53.5t-60.5 -145.5q38 36 87 54.5t105 18.5
q103 0 161 -57zM422.5 147.5q32.5 20.5 51.5 55t19 75.5q0 48 -27 77t-79 29q-41 0 -73.5 -20.5t-51 -54.5t-18.5 -74q0 -49 28.5 -78.5t78.5 -29.5q39 0 71.5 20.5z" />
    <glyph glyph-name="seven" unicode="7" horiz-adv-x="577" 
d="M656 760l-486 -760h-187l401 620h-321l19 140h574z" />
    <glyph glyph-name="eight" unicode="8" horiz-adv-x="691" 
d="M613.5 337q30.5 -42 30.5 -102q0 -70 -38.5 -126.5t-114 -89t-182.5 -32.5q-89 0 -151 25.5t-93.5 69t-31.5 99.5q0 73 45.5 127.5t125.5 88.5q-88 62 -88 154q0 64 35 114t103.5 79t163.5 29q130 0 195 -47t65 -123q0 -65 -41.5 -113.5t-112.5 -79.5q59 -31 89.5 -73z
M325 622.5q-31 -22.5 -31 -64.5q0 -28 21 -50.5t71 -41.5l28 -10q86 53 86 115q0 36 -26 55t-69 19q-49 0 -80 -22.5zM397 135q32 15 50 40t18 55q0 27 -24 49.5t-78 43.5l-55 21q-94 -57 -94 -135q0 -41 30 -65t82 -24q39 0 71 15z" />
    <glyph glyph-name="nine" unicode="9" horiz-adv-x="713" 
d="M612.5 697q73.5 -76 73.5 -213q0 -31 -3 -64q-22 -208 -114.5 -320.5t-257.5 -112.5q-97 0 -168 46t-90 141l175 12q16 -65 93 -65q65 0 105.5 50.5t60.5 147.5q-38 -35 -86.5 -53.5t-101.5 -18.5q-70 0 -120 28t-75.5 77t-25.5 111q0 95 42.5 165t118 107.5t173.5 37.5
q127 0 200.5 -76zM431 396q33 20 51.5 54t18.5 74q0 50 -28 79.5t-78 29.5q-62 0 -101.5 -42.5t-39.5 -109.5q0 -48 26.5 -76.5t75.5 -28.5q42 0 75 20z" />
    <glyph glyph-name="colon" unicode=":" horiz-adv-x="290" 
d="M54 14.5q-27 27.5 -27 65.5q0 39 27 66.5t66 27.5t66.5 -28t27.5 -66t-27.5 -65.5t-66.5 -27.5t-66 27.5zM100 349.5q-27 27.5 -27 65.5q0 39 27 66.5t66 27.5t66.5 -28t27.5 -66t-27.5 -65.5t-66.5 -27.5t-66 27.5z" />
    <glyph glyph-name="semicolon" unicode=";" horiz-adv-x="290" 
d="M186 146.5q28 -27.5 28 -67.5q0 -36 -21 -79.5t-62 -83.5t-97 -66l-27 44q33 23 54 45.5t34 52.5q-30 6 -49 31t-19 57q0 40 28 67t66 27q37 0 65 -27.5zM100 349.5q-27 27.5 -27 65.5q0 39 27 66.5t66 27.5t66.5 -28t27.5 -66t-27.5 -65.5t-66.5 -27.5t-66 27.5z" />
    <glyph glyph-name="less" unicode="&#x3c;" horiz-adv-x="582" 
d="M523 408l-313 -141l272 -145l-20 -143l-390 225l19 131l451 219z" />
    <glyph glyph-name="equal" unicode="=" horiz-adv-x="597" 
d="M106 439h436l-17 -122h-436zM75 216h436l-17 -122h-437z" />
    <glyph glyph-name="greater" unicode="&#x3e;" horiz-adv-x="582" 
d="M60 125l313 141l-272 145l20 143l390 -225l-19 -131l-451 -219z" />
    <glyph glyph-name="question" unicode="?" horiz-adv-x="632" 
d="M210 267q7 50 20 84t41.5 62.5t80.5 53.5l35 16q61 31 61 82q0 31 -21 47t-57 16q-76 0 -125 -68l-140 61q44 70 114.5 111t171.5 41q112 0 171.5 -51.5t59.5 -136.5q0 -126 -139 -197l-45 -23q-36 -19 -50.5 -40.5t-20.5 -55.5l-4 -31h-157zM210.5 14.5
q-27.5 27.5 -27.5 65.5t27.5 66t66.5 28q38 0 65.5 -28t27.5 -66t-27.5 -65.5t-65.5 -27.5q-39 0 -66.5 27.5z" />
    <glyph glyph-name="at" unicode="@" horiz-adv-x="1141" 
d="M877.5 726q94.5 -47 147 -130t52.5 -188q0 -92 -32.5 -169t-93 -122.5t-140.5 -45.5q-62 0 -103.5 28t-53.5 76q-74 -104 -191 -104q-68 0 -112.5 43.5t-44.5 119.5q0 75 36.5 143t97 110t127.5 42q83 0 121 -67l14 57h151l-60 -231q-6 -28 -6 -38q0 -23 13.5 -36.5
t36.5 -13.5q33 0 56 30t34.5 75.5t11.5 91.5q0 79 -37 137t-103 88.5t-152 30.5q-119 0 -217.5 -59.5t-155 -158.5t-56.5 -213q0 -82 36 -143t103 -93.5t157 -32.5q56 0 103 10t94 31l19 -115q-67 -27 -123.5 -38.5t-125.5 -11.5q-119 0 -210.5 47.5t-142 133t-50.5 195.5
q0 155 76.5 285.5t210 206.5t296.5 76q122 0 216.5 -47zM594 212.5q28 20.5 45 54t17 69.5q0 34 -17.5 54.5t-48.5 20.5t-60 -19.5t-47 -52.5t-18 -70q0 -35 18.5 -56t51.5 -21q31 0 59 20.5z" />
    <glyph glyph-name="A" unicode="A" horiz-adv-x="699" 
d="M460 110h-264l-46 -110h-185l353 760h202l141 -760h-186zM443 239l-47 349l-146 -349h193z" />
    <glyph glyph-name="B" unicode="B" horiz-adv-x="645" 
d="M592.5 342.5q25.5 -40.5 25.5 -95.5q0 -71 -34 -127t-101.5 -88t-164.5 -32h-295l106 760h283q109 0 167.5 -47t58.5 -123q0 -60 -30 -107t-88 -78q47 -22 72.5 -62.5zM433 484q31 30 31 74q0 31 -21.5 49t-66.5 18h-93l-24 -171h86q57 0 88 30zM415.5 169
q31.5 32 31.5 86q0 38 -25 61t-73 23h-106l-29 -202h103q67 0 98.5 32z" />
    <glyph glyph-name="C" unicode="C" horiz-adv-x="834" 
d="M220 30.5q-79 43.5 -123 123.5t-44 186q0 118 54.5 217.5t153 157.5t223.5 58q100 0 175.5 -37.5t119.5 -103.5t54 -151l-186 -15q-11 70 -54.5 108.5t-113.5 38.5q-68 0 -123.5 -36.5t-87 -98t-31.5 -134.5q0 -90 47.5 -142.5t126.5 -52.5q70 0 127.5 40.5t85.5 106.5
l181 -16q-29 -86 -86.5 -152.5t-138 -103.5t-177.5 -37q-104 0 -183 43.5z" />
    <glyph glyph-name="D" unicode="D" horiz-adv-x="781" 
d="M596.5 717q80.5 -43 124 -117.5t43.5 -165.5q0 -126 -58.5 -225t-161 -154t-231.5 -55h-290l106 760h279q108 0 188.5 -43zM454.5 181q60.5 35 92.5 97.5t32 142.5q0 95 -55.5 144t-151.5 49h-85l-65 -468h89q83 0 143.5 35z" />
    <glyph glyph-name="E" unicode="E" 
d="M287 614l-21 -150h269l-20 -140h-268l-25 -178h280l-20 -146h-459l106 760h457l-20 -146h-279z" />
    <glyph glyph-name="F" unicode="F" horiz-adv-x="536" 
d="M287 614l-21 -150h252l-19 -140h-252l-46 -324h-178l106 760h440l-20 -146h-262z" />
    <glyph glyph-name="G" unicode="G" horiz-adv-x="825" 
d="M426 423h366l-44 -320q-66 -52 -154.5 -84t-190.5 -32q-109 0 -188.5 43t-121.5 120.5t-42 179.5q0 122 54 223.5t153 160.5t228 59q94 0 164 -35.5t111.5 -91t54.5 -116.5l-193 -15q-14 40 -53 70.5t-102 30.5q-73 0 -126.5 -38.5t-82 -102t-28.5 -136.5
q0 -96 50 -148.5t147 -52.5q92 0 167 42l16 117h-202z" />
    <glyph glyph-name="H" unicode="H" horiz-adv-x="723" 
d="M733 760l-106 -760h-178l45 320h-248l-45 -320h-178l106 760h179l-41 -294h248l41 294h177z" />
    <glyph glyph-name="I" unicode="I" horiz-adv-x="296" 
d="M129 760h179l-107 -760h-178z" />
    <glyph glyph-name="J" unicode="J" horiz-adv-x="654" 
d="M155 17.5q-59 30.5 -91.5 89.5t-32.5 141l177 12q0 -56 23.5 -83.5t66.5 -27.5q106 0 126 135l67 476h178l-66 -474q-22 -156 -101 -227.5t-211 -71.5q-77 0 -136 30.5z" />
    <glyph glyph-name="K" unicode="K" horiz-adv-x="673" 
d="M444 446l198 -446h-190l-129 312l-92 -102l-30 -210h-178l106 760h179l-43 -306l260 306h203z" />
    <glyph glyph-name="L" unicode="L" horiz-adv-x="517" 
d="M481 146l-21 -146h-437l106 760h179l-86 -614h259z" />
    <glyph glyph-name="M" unicode="M" horiz-adv-x="903" 
d="M869 760l-38 -760h-171l31 502l-234 -502h-85l-93 504l-110 -504h-170l174 760h185l92 -503l232 503h187z" />
    <glyph glyph-name="N" unicode="N" horiz-adv-x="728" 
d="M739 760l-106 -760h-176l-186 514l-72 -514h-176l106 760h176l187 -509l71 509h176z" />
    <glyph glyph-name="O" unicode="O" horiz-adv-x="855" 
d="M218 31q-79 44 -122 124t-43 186q0 124 58 222.5t157.5 154t218.5 55.5q105 0 184.5 -44t122.5 -124t43 -186q0 -124 -58 -222.5t-158 -154t-219 -55.5q-105 0 -184 44zM530.5 183.5q55.5 34.5 88.5 96t33 137.5q0 90 -46 142t-126 52q-65 0 -121 -34.5t-89 -95.5
t-33 -138q0 -90 46.5 -142t126.5 -52q65 0 120.5 34.5z" />
    <glyph glyph-name="P" unicode="P" horiz-adv-x="672" 
d="M605.5 698.5q67.5 -61.5 67.5 -169.5q0 -93 -39.5 -163.5t-112 -109.5t-169.5 -39h-120l-31 -217h-178l106 760h283q126 0 193.5 -61.5zM453.5 402q38.5 45 38.5 110q0 108 -122 108h-82l-37 -263h89q75 0 113.5 45z" />
    <glyph glyph-name="Q" unicode="Q" horiz-adv-x="855" 
d="M796.5 230q-40.5 -86 -112.5 -145l78 -141l-156 -99l-87 157q-55 -15 -117 -15q-105 0 -184 44t-122 124t-43 186q0 124 58 222.5t157.5 154t218.5 55.5q105 0 184.5 -44t122.5 -124t43 -186q0 -103 -40.5 -189zM437 151l-87 156l160 93l86 -156q27 34 41.5 78.5
t14.5 94.5q0 90 -46 142t-126 52q-65 0 -121 -34.5t-89 -95.5t-33 -138q0 -90 46.5 -142t126.5 -52q9 0 27 2z" />
    <glyph glyph-name="R" unicode="R" horiz-adv-x="678" 
d="M632.5 364.5q-40.5 -70.5 -114.5 -109.5l98 -255h-183l-76 217h-8h-117l-31 -217h-178l106 760h284q126 0 193 -61.5t67 -169.5q0 -94 -40.5 -164.5zM251 357h89q75 0 114 45t39 110q0 108 -123 108h-82z" />
    <glyph glyph-name="S" unicode="S" horiz-adv-x="693" 
d="M104 51q-72 64 -72 169l181 13q0 -63 35.5 -87.5t85.5 -24.5q57 0 93 26.5t36 70.5q0 33 -20 48.5t-66 30.5l-85 27q-105 33 -154 81.5t-49 131.5q0 114 84.5 175t221.5 61q100 0 164 -32t92.5 -82.5t28.5 -107.5l-184 -15q-2 104 -108 104q-49 0 -80.5 -21.5
t-31.5 -60.5q0 -28 21 -46.5t73 -34.5l83 -26q67 -21 108.5 -44.5t65 -61.5t23.5 -97q0 -82 -43.5 -141t-119 -89.5t-170.5 -30.5q-141 0 -213 64z" />
    <glyph glyph-name="T" unicode="T" horiz-adv-x="625" 
d="M653 614h-202l-86 -614h-178l86 614h-202l21 146h581z" />
    <glyph glyph-name="U" unicode="U" horiz-adv-x="736" 
d="M133.5 53.5q-75.5 66.5 -75.5 188.5q0 39 6 76l62 442h179l-63 -446q-4 -30 -4 -50q0 -57 30.5 -86t86.5 -29q63 0 102.5 39t50.5 120l65 452h178l-62 -445q-17 -118 -58.5 -189.5t-112.5 -105t-180 -33.5q-129 0 -204.5 66.5z" />
    <glyph glyph-name="V" unicode="V" horiz-adv-x="690" 
d="M758 760l-354 -760h-192l-140 760h181l79 -580l237 580h189z" />
    <glyph glyph-name="W" unicode="W" horiz-adv-x="1036" 
d="M1094 760l-303 -760h-184l-54 508l-196 -508h-183l-92 760h184l31 -580l211 580h157l49 -580l193 580h187z" />
    <glyph glyph-name="X" unicode="X" horiz-adv-x="685" 
d="M453 392l193 -392h-185l-113 251l-185 -251h-198l309 396l-180 364h185l100 -235l165 235h198z" />
    <glyph glyph-name="Y" unicode="Y" horiz-adv-x="650" 
d="M730 760l-488 -760h-188l200 312l-187 448h187l103 -289l185 289h188z" />
    <glyph glyph-name="Z" unicode="Z" horiz-adv-x="651" 
d="M274 145h329l-21 -145h-598l427 615h-301l21 145h570z" />
    <glyph glyph-name="bracketleft" unicode="[" horiz-adv-x="473" 
d="M321 761l-103 -740h140l-16 -122h-291l137 984h285l-16 -122h-136z" />
    <glyph glyph-name="backslash" unicode="\" horiz-adv-x="749" 
d="M304 760h-184l360 -760h183z" />
    <glyph glyph-name="bracketright" unicode="]" horiz-adv-x="473" 
d="M189 21l103 740h-140l16 122h291l-137 -984h-285l16 122h136z" />
    <glyph glyph-name="asciicircum" unicode="^" horiz-adv-x="573" 
d="M365 394l-37 142l-81 -142h-148l166 247h155l91 -247h-146z" />
    <glyph glyph-name="underscore" unicode="_" horiz-adv-x="611" 
d="M-15 -60h550l-16 -120h-550z" />
    <glyph glyph-name="grave" unicode="`" horiz-adv-x="391" 
d="M293 760l95 -173h-109l-159 173h173z" />
    <glyph glyph-name="a" unicode="a" horiz-adv-x="672" 
d="M654 518l-72 -518h-158v85q-32 -43 -78 -70.5t-106 -27.5q-57 0 -103 27.5t-73 81t-27 127.5q0 86 34.5 156.5t95 111t135.5 40.5q63 0 106 -28.5t62 -73.5l13 89h171zM383.5 144.5q32.5 21.5 51.5 58t19 79.5q0 51 -27 82t-74 31q-38 0 -70 -20t-50.5 -56t-18.5 -82
q0 -54 26.5 -84t71.5 -30q39 0 71.5 21.5z" />
    <glyph glyph-name="b" unicode="b" horiz-adv-x="673" 
d="M541.5 504q44.5 -27 70 -77t25.5 -119q0 -91 -36 -164.5t-99 -115t-141 -41.5q-58 0 -98.5 25t-60.5 70l-23 -82h-160l107 760h172l-48 -330q33 47 82 74t107 27t102.5 -27zM392 143.5q32 20.5 50.5 57t18.5 82.5q0 53 -27 82.5t-73 29.5q-40 0 -72 -21.5t-50 -58
t-18 -79.5q0 -52 27 -82.5t74 -30.5q38 0 70 20.5z" />
    <glyph glyph-name="c" unicode="c" horiz-adv-x="632" 
d="M157 18q-58 31 -89 84t-31 119q0 96 41 166t114 107t166 37q109 0 174 -54t74 -146l-168 -12q-6 37 -30.5 56.5t-59.5 19.5q-62 0 -100.5 -44.5t-38.5 -113.5q0 -53 26.5 -83.5t73.5 -30.5q37 0 68 21t47 60l162 -14q-27 -93 -102 -148t-193 -55q-76 0 -134 31z" />
    <glyph glyph-name="d" unicode="d" horiz-adv-x="674" 
d="M689 760l-106 -760h-159v84q-32 -43 -78.5 -70t-103.5 -27q-56 0 -103 27t-74.5 80.5t-27.5 129.5q0 87 34.5 157t95.5 110t136 40q62 0 105.5 -29t62.5 -74l46 332h172zM384 144.5q32 21.5 51 58t19 79.5q0 52 -27 82.5t-74 30.5q-38 0 -70 -20t-50.5 -56t-18.5 -82
q0 -53 27 -83.5t72 -30.5q39 0 71 21.5z" />
    <glyph glyph-name="e" unicode="e" horiz-adv-x="648" 
d="M207 215v-1q0 -50 27 -80t70 -30q39 0 67.5 16.5t45.5 44.5l169 -13q-42 -83 -117 -124t-179 -41q-78 0 -135.5 32t-87.5 85.5t-30 116.5q0 93 40.5 163.5t113 108.5t166.5 38q80 0 137.5 -29.5t87.5 -80.5t30 -115q0 -45 -11 -91h-394zM268 385q-34 -29 -49 -82h226
q-1 52 -25 81.5t-69 29.5q-49 0 -83 -29z" />
    <glyph glyph-name="f" unicode="f" horiz-adv-x="391" 
d="M322.5 628.5q-19.5 -18.5 -26.5 -68.5l-6 -42h126l-19 -133h-125l-54 -385h-171l53 385h-76l30 133h64l8 56q15 105 70 152t151 47q35 0 74.5 -6.5t58.5 -14.5l-25 -116q-33 11 -75 11q-38 0 -57.5 -18.5z" />
    <glyph glyph-name="g" unicode="g" horiz-adv-x="673" 
d="M655 518l-67 -472q-36 -261 -304 -261q-106 0 -173 40.5t-82 109.5l175 17q9 -27 29.5 -40t54.5 -13q55 0 85.5 32.5t40.5 100.5l9 57q-31 -40 -77.5 -65.5t-104.5 -25.5t-104.5 26t-73 77t-26.5 124q0 86 34.5 156t96 110t137.5 40q62 0 104 -29t61 -73l25 89h160z
M383.5 147q32.5 21 51.5 57t19 79q0 50 -27.5 81t-74.5 31q-38 0 -69.5 -20t-50 -55t-18.5 -80q0 -54 26 -84t74 -30q37 0 69.5 21z" />
    <glyph glyph-name="h" unicode="h" horiz-adv-x="631" 
d="M553 485q40 -46 40 -120q0 -33 -5 -61l-42 -304h-172l39 282q5 38 5 49q0 37 -17 54t-53 17q-48 0 -77.5 -33t-39.5 -87l-40 -282h-172l107 760h172l-45 -318q34 43 80.5 66t100.5 23q79 0 119 -46z" />
    <glyph glyph-name="i" unicode="i" horiz-adv-x="287" 
d="M135.5 622.5q-28.5 28.5 -28.5 69.5t28 69.5t69 28.5t69.5 -28.5t28.5 -69.5q0 -40 -28.5 -69t-69.5 -29q-40 0 -68.5 28.5zM93 518h172l-72 -518h-172z" />
    <glyph glyph-name="j" unicode="j" horiz-adv-x="303" 
d="M151.5 622.5q-28.5 28.5 -28.5 69.5t28 69.5t69 28.5t69.5 -28.5t28.5 -69.5q0 -40 -28.5 -69t-69.5 -29q-40 0 -68.5 28.5zM-130 -198l29 126q32 -8 64 -8q38 0 54 19.5t23 68.5l71 510h170l-75 -536q-15 -105 -68 -151t-148 -46q-67 0 -120 17z" />
    <glyph glyph-name="k" unicode="k" horiz-adv-x="574" 
d="M380 320l168 -320h-171l-109 218l-56 -51l-23 -167h-170l107 760h169l-56 -400l159 158h199z" />
    <glyph glyph-name="l" unicode="l" horiz-adv-x="341" 
d="M86 20.5q-45 33.5 -45 113.5q0 15 6 61q0 8 2 20l77 545h170l-76 -538q-3 -27 -3 -45q0 -29 16 -42t53 -13h13l-9 -131q-24 -4 -64 -4q-95 0 -140 33.5z" />
    <glyph glyph-name="m" unicode="m" horiz-adv-x="932" 
d="M854 488.5q40 -42.5 40 -120.5q0 -21 -4 -51l-44 -317h-172l40 285q2 10 3.5 24t1.5 26q0 34 -14 50.5t-44 16.5q-46 0 -71.5 -38t-33.5 -95l-37 -269h-172l40 285q4 44 4 50q0 67 -59 67q-45 0 -70.5 -38t-32.5 -92l-38 -272h-172l72 518h154l5 -75q31 43 73.5 65.5
t92.5 22.5q59 0 96 -29.5t49 -80.5q33 53 79 81.5t102 28.5q72 0 112 -42.5z" />
    <glyph glyph-name="n" unicode="n" horiz-adv-x="631" 
d="M552.5 485q40.5 -46 40.5 -120q0 -23 -5 -61l-42 -304h-172l39 282q4 30 4 49q0 37 -16.5 54t-52.5 17q-50 0 -80 -36t-39 -94l-38 -272h-172l72 518h154l6 -80q34 45 81 69t102 24q78 0 118.5 -46z" />
    <glyph glyph-name="o" unicode="o" horiz-adv-x="657" 
d="M161 16.5q-59 29.5 -91.5 82.5t-32.5 123q0 95 41 165t114.5 107t169.5 37q75 0 134 -29.5t91.5 -83t32.5 -122.5q0 -95 -40.5 -165t-114 -107t-169.5 -37q-76 0 -135 29.5zM378 143.5q32 20.5 51 57t19 82.5q0 53 -26.5 82.5t-71.5 29.5q-39 0 -71 -20.5t-51 -57
t-19 -82.5q0 -53 26.5 -82.5t71.5 -29.5q39 0 71 20.5z" />
    <glyph glyph-name="p" unicode="p" horiz-adv-x="674" 
d="M543 504q45 -27 70 -77.5t25 -118.5q0 -91 -36 -164.5t-99.5 -115t-141.5 -41.5q-57 0 -97.5 24.5t-61.5 68.5l-39 -281h-172l101 719h159l-1 -90q33 49 82 76t109 27q57 0 102 -27zM392 143q31 20 50 57t19 84q0 52 -27 81.5t-73 29.5q-39 0 -71 -21.5t-50.5 -58
t-18.5 -80.5q0 -51 27.5 -81.5t75.5 -30.5q37 0 68 20z" />
    <glyph glyph-name="q" unicode="q" horiz-adv-x="672" 
d="M655 518l-101 -719h-172l41 285q-32 -42 -78.5 -69.5t-103.5 -27.5t-103.5 27.5t-73.5 81t-27 126.5q0 85 33.5 155.5t94 112t137.5 41.5q62 0 105.5 -28.5t62.5 -72.5l25 88h160zM383.5 144.5q32.5 21.5 51.5 58t19 79.5q0 51 -27 82t-74 31q-38 0 -70 -20t-50.5 -56
t-18.5 -82q0 -54 26.5 -84t71.5 -30q39 0 71.5 21.5z" />
    <glyph glyph-name="r" unicode="r" horiz-adv-x="433" 
d="M457 526l-33 -156q-43 8 -65 8q-54 0 -88 -33.5t-46 -93.5l-35 -251h-172l73 518h150l8 -95q32 53 75.5 80.5t90.5 27.5q29 0 42 -5z" />
    <glyph glyph-name="s" unicode="s" 
d="M73 29q-62 42 -67 117l190 13q0 -64 64 -64q34 0 55 13t21 41q0 21 -19.5 32t-72.5 27l-40 12q-78 24 -117.5 55t-39.5 88q0 88 71.5 128t191.5 40q104 0 165 -37t67 -105l-181 -13q0 22 -15.5 36t-46.5 14q-30 0 -47.5 -11t-17.5 -30q0 -14 15.5 -23t54.5 -20l49 -13
q58 -16 94 -32.5t57.5 -45t21.5 -74.5q0 -94 -71.5 -142t-205.5 -48q-114 0 -176 42z" />
    <glyph glyph-name="t" unicode="t" horiz-adv-x="430" 
d="M248 211q-4 -24 -4 -39q0 -26 13.5 -38.5t43.5 -12.5q40 0 70 7l-8 -129q-58 -12 -131 -12q-76 0 -119 33.5t-43 113.5q0 25 5 57l27 194h-78l27 133h70l18 128h170l-18 -128h126l-18 -133h-127z" />
    <glyph glyph-name="u" unicode="u" horiz-adv-x="624" 
d="M606 518l-72 -518h-154l-3 82q-34 -46 -80.5 -70.5t-102.5 -24.5q-75 0 -115.5 43t-40.5 112q0 29 4 53l44 323h172l-40 -291q-3 -21 -3 -42q0 -70 69 -70q49 0 76.5 38.5t35.5 93.5h1l37 271h172z" />
    <glyph glyph-name="v" unicode="v" horiz-adv-x="583" 
d="M626 518l-280 -518h-180l-136 518h178l67 -375l166 375h185z" />
    <glyph glyph-name="w" unicode="w" horiz-adv-x="847" 
d="M880 518l-238 -518h-168l-44 319l-127 -319h-169l-94 518h178l31 -362l139 362h139l41 -358l128 358h184z" />
    <glyph glyph-name="x" unicode="x" horiz-adv-x="559" 
d="M372 264l155 -264h-178l-79 163l-130 -163h-181l234 268l-147 250h178l71 -148l117 148h181z" />
    <glyph glyph-name="y" unicode="y" horiz-adv-x="625" 
d="M606 518l-67 -481q-17 -126 -93.5 -189t-201.5 -63q-104 0 -165.5 40t-72.5 111l174 16q8 -53 74 -53q50 0 76.5 32t35.5 99l8 59q-33 -43 -78.5 -66t-99.5 -23q-75 0 -115.5 43t-40.5 112q0 23 5 53l42 310h172l-38 -277q-4 -30 -4 -43q0 -36 17.5 -52t51.5 -16
q50 0 77.5 38t34.5 92l36 258h172z" />
    <glyph glyph-name="z" unicode="z" horiz-adv-x="537" 
d="M253 130h237l-18 -130h-493l297 389h-215l27 129h464z" />
    <glyph glyph-name="braceleft" unicode="{" horiz-adv-x="497" 
d="M502 883l-15 -116q-47 0 -69 -23t-28 -66l-19 -140q-7 -49 -31 -86.5t-61 -60.5q54 -38 54 -113q0 -18 -4 -42l-18 -132q-2 -16 -2 -23q0 -33 16 -49.5t56 -16.5l-15 -116h-25q-79 0 -130.5 43t-51.5 124q0 32 4 55l18 125q2 22 2 28q0 30 -16 46t-56 16l3 23l12 87
q47 0 68 22.5t27 62.5l21 150q15 109 67 155.5t153 46.5h40z" />
    <glyph glyph-name="bar" unicode="|" horiz-adv-x="418" 
d="M190 760h179l-135 -961h-179z" />
    <glyph glyph-name="braceright" unicode="}" horiz-adv-x="497" 
d="M32 -101l15 116q47 0 69 23t28 66l19 140q7 49 31 86.5t61 60.5q-54 38 -54 113q0 18 4 42l18 132q2 16 2 23q0 33 -16 49.5t-56 16.5l15 116h25q79 0 130.5 -43t51.5 -124q0 -32 -4 -55l-18 -125q-2 -22 -2 -28q0 -30 16 -46t56 -16l-3 -23l-12 -87q-47 0 -68 -22.5
t-27 -62.5l-21 -150q-15 -109 -67 -155.5t-153 -46.5h-40z" />
    <glyph glyph-name="asciitilde" unicode="~" horiz-adv-x="609" 
d="M372 359.5q-22 6.5 -53 20.5t-53 20.5t-50 6.5q-67 0 -121 -43l17 127q48 40 120 40q29 0 52 -7t53 -21q30 -13 53.5 -19.5t52.5 -6.5q71 0 123 42l-17 -126q-23 -19 -56 -29.5t-69 -10.5q-30 0 -52 6.5z" />
    <glyph glyph-name="uni00A0" unicode="&#xa0;" horiz-adv-x="214" 
 />
    <glyph glyph-name="exclamdown" unicode="&#xa1;" horiz-adv-x="309" 
d="M252 544.5q27 -27.5 27 -65.5q0 -39 -27 -66.5t-66 -27.5t-66.5 28t-27.5 66t27.5 65.5t66.5 27.5t66 -27.5zM174 -201h-161l89 516h130z" />
    <glyph glyph-name="cent" unicode="&#xa2;" horiz-adv-x="717" 
d="M419 144q31 21 47 60l162 -14q-23 -79 -81.5 -131.5t-148.5 -66.5l-17 -119h-154l18 126q-77 23 -121.5 83t-44.5 139q0 122 65 201t174 101l17 115h153l-16 -114q77 -16 122.5 -66.5t53.5 -126.5l-168 -12q-6 37 -30.5 56.5t-59.5 19.5q-62 0 -100.5 -44.5t-38.5 -113.5
q0 -53 26.5 -83.5t73.5 -30.5q37 0 68 21z" />
    <glyph glyph-name="sterling" unicode="&#xa3;" horiz-adv-x="692" 
d="M361 133h234l-19 -133h-525l19 133h101q61 66 61 131q0 10 -1 15h-141l14 94h89q-6 10 -10 15q-29 41 -45 78.5t-16 77.5q0 62 33 114.5t95.5 83.5t147.5 31q119 0 184.5 -55.5t70.5 -155.5l-167 -11q-11 78 -87 78q-42 0 -68 -22.5t-26 -58.5q0 -21 11 -42.5t38 -62.5
q30 -45 42 -70h164l-13 -94h-130q-3 -76 -56 -146z" />
    <glyph glyph-name="currency" unicode="&#xa4;" horiz-adv-x="793" 
d="M633 227l65 -73l-127 -113l-72 85q-62 -24 -125 -24t-117 24l-96 -85l-95 113l84 73q-22 46 -22 98q0 91 57 165l-62 72l127 112l69 -82q62 24 125 24q67 0 122 -26l92 84l97 -112l-85 -74q21 -42 21 -95q0 -89 -58 -166zM325.5 265q25.5 -27 66.5 -27q34 0 63 18
t46 50.5t17 73.5q0 46 -25.5 73t-66.5 27q-54 0 -90 -41.5t-36 -101.5q0 -45 25.5 -72z" />
    <glyph glyph-name="yen" unicode="&#xa5;" horiz-adv-x="788" 
d="M556 419h120l-13 -94h-169l-1 -1l-9 -65h170l-14 -94h-169l-23 -165h-179l23 165h-166l13 94h166l8 65v1h-165l14 94h116l-128 341h185l84 -291l172 291h187z" />
    <glyph glyph-name="brokenbar" unicode="&#xa6;" horiz-adv-x="419" 
d="M191 760h178l-51 -368h-179zM107 166h178l-51 -367h-178z" />
    <glyph glyph-name="section" unicode="&#xa7;" horiz-adv-x="708" 
d="M517 134q61 -46 61 -120q0 -67 -30.5 -118.5t-92.5 -81t-152 -29.5q-83 0 -141.5 31.5t-87.5 82t-30 107.5l177 14q1 -51 23 -76t68 -25q44 0 70.5 20.5t26.5 53.5q0 44 -62 66l-68 23q-88 30 -131.5 70t-43.5 105q0 56 24.5 97.5t70.5 74.5q-61 48 -61 120q0 104 71 164
t204 60q83 0 141 -32t87 -82.5t29 -105.5l-176 -14q-2 101 -93 101q-44 0 -69 -19.5t-25 -55.5q0 -40 62 -63l67 -22q88 -30 131.5 -70t43.5 -102q0 -100 -94 -174zM294 240.5q23 -21.5 83 -42.5l25 -9q18 16 30.5 38.5t12.5 45.5q0 26 -23.5 48t-82.5 43l-25 8
q-18 -16 -30.5 -38t-12.5 -44q0 -28 23 -49.5z" />
    <glyph glyph-name="dieresis" unicode="&#xa8;" horiz-adv-x="486" 
d="M134.5 630.5q-23.5 23.5 -23.5 56.5q0 34 23.5 57.5t56.5 23.5t57 -23.5t24 -57.5q0 -33 -24 -56.5t-57 -23.5t-56.5 23.5zM360.5 630.5q-23.5 23.5 -23.5 56.5q0 34 23.5 57.5t56.5 23.5t56 -23.5t23 -57.5q0 -33 -23 -56.5t-56 -23.5t-56.5 23.5z" />
    <glyph glyph-name="copyright" unicode="&#xa9;" horiz-adv-x="991" 
d="M299 39.5q-94 52.5 -146 142t-52 198.5t52 198.5t146 142t214 52.5t213.5 -52.5t145.5 -142t52 -198.5t-52 -198.5t-145.5 -142t-213.5 -52.5t-214 52.5zM684.5 103.5q75.5 42.5 117.5 115.5t42 161t-42 161t-117.5 115.5t-171.5 42.5q-97 0 -172.5 -42.5t-117 -115.5
t-41.5 -161t41.5 -161t117 -115.5t172.5 -42.5q96 0 171.5 42.5zM386.5 184.5q-53.5 29.5 -80.5 81t-27 116.5t27.5 116.5t81 81t128.5 29.5q93 0 153 -44.5t75 -117.5l-141 -15q-10 32 -32 49.5t-53 17.5q-42 0 -68.5 -32.5t-26.5 -84.5t26.5 -84t68.5 -32q31 0 54 18.5
t34 52.5l138 -15q-13 -74 -73.5 -120.5t-154.5 -46.5q-76 0 -129.5 29.5z" />
    <glyph glyph-name="ordfeminine" unicode="&#xaa;" horiz-adv-x="579" 
d="M589 761l-57 -409h-123l-1 54q-58 -66 -141 -66q-73 0 -120 50.5t-47 135.5q0 69 28.5 125.5t79.5 89t115 32.5q41 0 74 -16t53 -49l7 53h132zM372.5 467.5q25.5 16.5 40.5 44.5t15 61q0 41 -23 65t-59 24q-48 0 -79.5 -32t-31.5 -85q0 -41 23.5 -67.5t60.5 -26.5
q28 0 53.5 16.5z" />
    <glyph glyph-name="guillemotleft" unicode="&#xab;" horiz-adv-x="570" 
d="M199 480h135l-140 -206l81 -210h-133l-80 210zM406 480h135l-140 -206l81 -210h-133l-80 210z" />
    <glyph glyph-name="logicalnot" unicode="&#xac;" horiz-adv-x="667" 
d="M611 437l-36 -261h-140l19 140h-366l17 121h506z" />
    <glyph glyph-name="uni00AD" unicode="&#xad;" horiz-adv-x="457" 
d="M70 331h337l-19 -133h-336z" />
    <glyph glyph-name="registered" unicode="&#xae;" horiz-adv-x="730" 
d="M546 737.5q64 -35.5 100 -97t36 -135.5t-36 -135.5t-100 -97.5t-146 -36t-146.5 36t-100.5 97.5t-36 135.5t36 135.5t100.5 97t146.5 35.5t146 -35.5zM506.5 334q46.5 26 72 71t25.5 100q0 54 -26 99t-72.5 71.5t-105.5 26.5q-60 0 -106.5 -26.5t-72.5 -71.5t-26 -99
q0 -55 26 -100t72.5 -71t106.5 -26t106.5 26zM498 511.5q-11 -19.5 -31 -31.5l48 -97h-84l-40 83h-8v-83h-78v258h105q46 0 72.5 -23.5t26.5 -62.5q0 -24 -11 -43.5zM383 583v-58h15q18 0 27 8t9 22q0 12 -9 20t-26 8h-16z" />
    <glyph glyph-name="macron" unicode="&#xaf;" horiz-adv-x="395" 
d="M118 743h295l-13 -96h-295z" />
    <glyph glyph-name="degree" unicode="&#xb0;" horiz-adv-x="435" 
d="M194.5 501.5q-34.5 19.5 -54.5 53t-20 73.5q0 39 20 72.5t54.5 53t74.5 19.5q41 0 75 -19.5t54 -53t20 -72.5q0 -40 -20 -73.5t-54 -53t-75 -19.5q-40 0 -74.5 19.5zM311.5 586q17.5 18 17.5 42q0 25 -17.5 42.5t-42.5 17.5q-24 0 -42 -17.5t-18 -42.5q0 -24 18 -42
t42 -18q25 0 42.5 18z" />
    <glyph glyph-name="plusminus" unicode="&#xb1;" horiz-adv-x="610" 
d="M536 390h-158l-22 -157h-121l22 157h-157l16 122h157l22 157h122l-22 -157h157zM76 135h436l-16 -122h-436z" />
    <glyph glyph-name="uni00B2" unicode="&#xb2;" horiz-adv-x="490" 
d="M255.5 481q-14.5 -12 -20.5 -30h199l-14 -93h-325l6 45q10 63 38.5 104.5t95.5 70.5l62 27q24 11 33.5 21t9.5 25q0 12 -9 19t-25 7q-18 0 -32 -8.5t-19 -23.5l-118 8q23 55 69.5 85t113.5 30q68 0 105 -29.5t37 -76.5q0 -49 -29 -79t-84 -54l-51 -23q-28 -13 -42.5 -25z
" />
    <glyph glyph-name="uni00B3" unicode="&#xb3;" horiz-adv-x="493" 
d="M444 485q0 -63 -49 -98.5t-122 -35.5q-70 0 -113.5 32t-50.5 85l122 8q2 -16 12.5 -25.5t28.5 -9.5q24 0 38 12.5t14 35.5q0 19 -14 27.5t-46 8.5h-45l11 78h36q32 0 50.5 12.5t18.5 34.5q0 27 -34 27q-17 0 -30 -8.5t-19 -23.5l-116 9q20 51 68 82.5t120 31.5
q62 0 97.5 -28.5t35.5 -74.5q0 -30 -16 -56t-44 -44q47 -26 47 -80z" />
    <glyph glyph-name="acute" unicode="&#xb4;" horiz-adv-x="343" 
d="M205 587h-109l95 173h173z" />
    <glyph glyph-name="uni00B5" unicode="&#xb5;" horiz-adv-x="687" 
d="M643 518l-72 -518h-155l-4 79q-34 -45 -82 -69t-104 -24h-12l-26 -187h-172l68 476l33 243h172l-39 -287q-4 -26 -4 -41q0 -75 69 -75q52 0 81.5 39t37.5 95l37 269h172z" />
    <glyph glyph-name="paragraph" unicode="&#xb6;" horiz-adv-x="951" 
d="M153.5 604q43.5 71 115 113.5t151.5 42.5l-76 -539q-67 0 -120.5 30.5t-83.5 83.5t-30 118q0 80 43.5 151zM923 628h-83l-116 -829h-155l116 829h-130l-116 -829h-154l135 961h522z" />
    <glyph glyph-name="periodcentered" unicode="&#xb7;" horiz-adv-x="276" 
d="M96.5 338.5q-25.5 25.5 -25.5 61.5t25.5 61.5t61.5 25.5t61.5 -25.5t25.5 -61.5t-25.5 -61.5t-61.5 -25.5t-61.5 25.5z" />
    <glyph glyph-name="cedilla" unicode="&#xb8;" horiz-adv-x="309" 
d="M184.5 -56.5q22.5 -19.5 22.5 -53.5q0 -49 -35.5 -77t-94.5 -28q-55 0 -90 23l30 56q22 -13 47 -13q19 0 31 9.5t12 26.5q0 13 -7.5 19.5t-21.5 6.5q-20 0 -37 -14l-27 19l46 108h71l-22 -64q5 1 15 1q38 0 60.5 -19.5z" />
    <glyph glyph-name="uni00B9" unicode="&#xb9;" horiz-adv-x="363" 
d="M353 760l-57 -403h-127l35 247q-29 -8 -76 -8l15 113q102 0 125 51h85z" />
    <glyph glyph-name="ordmasculine" unicode="&#xba;" 
d="M192 364q-45 24 -68.5 66.5t-23.5 94.5q0 70 31.5 126.5t88.5 89t130 32.5q61 0 106 -24.5t68.5 -66.5t23.5 -95q0 -71 -32.5 -127.5t-89.5 -88t-129 -31.5q-60 0 -105 24zM384.5 483.5q30.5 32.5 30.5 94.5q0 39 -22 62t-56 23q-45 0 -74.5 -34.5t-29.5 -91.5
q0 -40 21 -63t56 -23q44 0 74.5 32.5z" />
    <glyph glyph-name="guillemotright" unicode="&#xbb;" horiz-adv-x="570" 
d="M375 64h-135l140 206l-81 210h133l80 -210zM168 64h-135l140 206l-81 210h133l80 -210z" />
    <glyph glyph-name="onequarter" unicode="&#xbc;" horiz-adv-x="1104" 
d="M353 760l-57 -403h-127l35 247q-29 -8 -76 -8l15 113q102 0 125 51h85zM751 760h174l-660 -760h-175zM1001 94h-63l-13 -94h-107l13 94h-199l13 92l98 216h110l-101 -216h92l16 115h108l-16 -115h62z" />
    <glyph glyph-name="onehalf" unicode="&#xbd;" horiz-adv-x="1070" 
d="M353 760l-57 -403h-127l35 247q-29 -8 -76 -8l15 113q102 0 125 51h85zM785.5 124q-14.5 -12 -20.5 -30h199l-14 -93h-325l6 45q10 63 38.5 104.5t95.5 70.5l62 27q24 11 33.5 21t9.5 25q0 12 -9 19t-25 7q-18 0 -32 -8.5t-19 -23.5l-118 8q23 55 69.5 85t113.5 30
q68 0 105 -29.5t37 -76.5q0 -49 -29 -79t-84 -54l-51 -23q-28 -13 -42.5 -25zM751 760h174l-660 -760h-175z" />
    <glyph glyph-name="threequarters" unicode="&#xbe;" horiz-adv-x="1188" 
d="M444 485q0 -63 -49 -98.5t-122 -35.5q-70 0 -113.5 32t-50.5 85l122 8q2 -16 12.5 -25.5t28.5 -9.5q24 0 38 12.5t14 35.5q0 19 -14 27.5t-46 8.5h-45l11 78h36q32 0 50.5 12.5t18.5 34.5q0 27 -34 27q-17 0 -30 -8.5t-19 -23.5l-116 9q20 51 68 82.5t120 31.5
q62 0 97.5 -28.5t35.5 -74.5q0 -30 -16 -56t-44 -44q47 -26 47 -80zM835 760h174l-660 -760h-175zM1085 94h-63l-13 -94h-107l13 94h-199l13 92l98 216h110l-101 -216h92l16 115h108l-16 -115h62z" />
    <glyph glyph-name="questiondown" unicode="&#xbf;" horiz-adv-x="632" 
d="M428 292q-7 -50 -20 -84t-41.5 -62.5t-80.5 -53.5l-35 -16q-61 -31 -61 -82q0 -31 21 -47t57 -16q76 0 125 68l140 -61q-44 -70 -114.5 -111t-171.5 -41q-112 0 -171.5 51.5t-59.5 136.5q0 126 139 197l45 23q36 19 50.5 40.5t20.5 55.5l4 31h157zM427.5 544.5
q27.5 -27.5 27.5 -65.5t-27.5 -66t-66.5 -28q-38 0 -65.5 28t-27.5 66t27.5 65.5t65.5 27.5q39 0 66.5 -27.5z" />
    <glyph glyph-name="Agrave" unicode="&#xc0;" horiz-adv-x="699" 
d="M460 110h-264l-46 -110h-185l353 760h202l141 -760h-186zM443 239l-47 349l-146 -349h193zM390 1002l95 -173h-109l-159 173h173z" />
    <glyph glyph-name="Aacute" unicode="&#xc1;" horiz-adv-x="699" 
d="M460 110h-264l-46 -110h-185l353 760h202l141 -760h-186zM443 239l-47 349l-146 -349h193zM482 829h-109l95 173h173z" />
    <glyph glyph-name="Acircumflex" unicode="&#xc2;" horiz-adv-x="699" 
d="M460 110h-264l-46 -110h-185l353 760h202l141 -760h-186zM443 239l-47 349l-146 -349h193zM495 833l-55 92l-80 -92h-138l173 169h107l126 -169h-133z" />
    <glyph glyph-name="Atilde" unicode="&#xc3;" horiz-adv-x="699" 
d="M460 110h-264l-46 -110h-185l353 760h202l141 -760h-186zM443 239l-47 349l-146 -349h193zM454.5 862.5q-21.5 8.5 -42.5 22.5q-21 12 -33 17.5t-24 5.5q-34 0 -67 -38l-60 50q28 46 66.5 73t86.5 27q27 0 49 -8.5t46 -23.5q18 -12 30.5 -17.5t25.5 -5.5q34 0 67 39
l61 -48q-29 -47 -68.5 -74.5t-88.5 -27.5q-27 0 -48.5 8.5z" />
    <glyph glyph-name="Adieresis" unicode="&#xc4;" horiz-adv-x="699" 
d="M460 110h-264l-46 -110h-185l353 760h202l141 -760h-186zM443 239l-47 349l-146 -349h193zM270.5 872.5q-23.5 23.5 -23.5 56.5q0 34 23.5 57.5t56.5 23.5t57 -23.5t24 -57.5q0 -33 -24 -56.5t-57 -23.5t-56.5 23.5zM496.5 872.5q-23.5 23.5 -23.5 56.5q0 34 23.5 57.5
t56.5 23.5t56 -23.5t23 -57.5q0 -33 -23 -56.5t-56 -23.5t-56.5 23.5z" />
    <glyph glyph-name="Aring" unicode="&#xc5;" horiz-adv-x="699" 
d="M460 110h-264l-46 -110h-185l353 760h202l141 -760h-186zM443 239l-47 349l-146 -349h193zM351 858.5q-35 35.5 -35 85.5q0 49 35 84t85 35t85.5 -35t35.5 -84q0 -50 -35.5 -85.5t-85.5 -35.5t-85 35.5zM475.5 902q16.5 17 16.5 42q0 24 -16.5 40.5t-39.5 16.5
t-39.5 -16.5t-16.5 -40.5q0 -25 16.5 -42t39.5 -17t39.5 17z" />
    <glyph glyph-name="AE" unicode="&#xc6;" horiz-adv-x="990" 
d="M725 615l-22 -151h258l-20 -139h-257l-26 -180h270l-20 -145h-448l20 145h-243l-94 -145h-184l526 760h527l-20 -145h-267zM498 273l49 348l-226 -348h177z" />
    <glyph glyph-name="Ccedilla" unicode="&#xc7;" horiz-adv-x="834" 
d="M220 30.5q-79 43.5 -123 123.5t-44 186q0 118 54.5 217.5t153 157.5t223.5 58q100 0 175.5 -37.5t119.5 -103.5t54 -151l-186 -15q-11 70 -54.5 108.5t-113.5 38.5q-68 0 -123.5 -36.5t-87 -98t-31.5 -134.5q0 -90 47.5 -142.5t126.5 -52.5q70 0 127.5 40.5t85.5 106.5
l181 -16q-29 -86 -86.5 -152.5t-138 -103.5t-177.5 -37q-104 0 -183 43.5zM458.5 -56.5q22.5 -19.5 22.5 -53.5q0 -49 -35.5 -77t-94.5 -28q-55 0 -90 23l30 56q22 -13 47 -13q19 0 31 9.5t12 26.5q0 13 -7.5 19.5t-21.5 6.5q-20 0 -37 -14l-27 19l46 108h71l-22 -64
q5 1 15 1q38 0 60.5 -19.5z" />
    <glyph glyph-name="Egrave" unicode="&#xc8;" 
d="M287 614l-21 -150h269l-20 -140h-268l-25 -178h280l-20 -146h-459l106 760h457l-20 -146h-279zM330 1002l95 -173h-109l-159 173h173z" />
    <glyph glyph-name="Eacute" unicode="&#xc9;" 
d="M287 614l-21 -150h269l-20 -140h-268l-25 -178h280l-20 -146h-459l106 760h457l-20 -146h-279zM422 829h-109l95 173h173z" />
    <glyph glyph-name="Ecircumflex" unicode="&#xca;" 
d="M287 614l-21 -150h269l-20 -140h-268l-25 -178h280l-20 -146h-459l106 760h457l-20 -146h-279zM435 833l-55 92l-80 -92h-138l173 169h107l126 -169h-133z" />
    <glyph glyph-name="Edieresis" unicode="&#xcb;" 
d="M287 614l-21 -150h269l-20 -140h-268l-25 -178h280l-20 -146h-459l106 760h457l-20 -146h-279zM210.5 872.5q-23.5 23.5 -23.5 56.5q0 34 23.5 57.5t56.5 23.5t57 -23.5t24 -57.5q0 -33 -24 -56.5t-57 -23.5t-56.5 23.5zM436.5 872.5q-23.5 23.5 -23.5 56.5
q0 34 23.5 57.5t56.5 23.5t56 -23.5t23 -57.5q0 -33 -23 -56.5t-56 -23.5t-56.5 23.5z" />
    <glyph glyph-name="Igrave" unicode="&#xcc;" horiz-adv-x="296" 
d="M129 760h179l-107 -760h-178zM186 1002l95 -173h-109l-159 173h173z" />
    <glyph glyph-name="Iacute" unicode="&#xcd;" horiz-adv-x="296" 
d="M129 760h179l-107 -760h-178zM278 829h-109l95 173h173z" />
    <glyph glyph-name="Icircumflex" unicode="&#xce;" horiz-adv-x="296" 
d="M129 760h179l-107 -760h-178zM291 833l-55 92l-80 -92h-138l173 169h107l126 -169h-133z" />
    <glyph glyph-name="Idieresis" unicode="&#xcf;" horiz-adv-x="296" 
d="M129 760h179l-107 -760h-178zM66.5 872.5q-23.5 23.5 -23.5 56.5q0 34 23.5 57.5t56.5 23.5t57 -23.5t24 -57.5q0 -33 -24 -56.5t-57 -23.5t-56.5 23.5zM292.5 872.5q-23.5 23.5 -23.5 56.5q0 34 23.5 57.5t56.5 23.5t56 -23.5t23 -57.5q0 -33 -23 -56.5t-56 -23.5
t-56.5 23.5z" />
    <glyph glyph-name="Eth" unicode="&#xd0;" horiz-adv-x="816" 
d="M631.5 717q80.5 -43 124 -117.5t43.5 -165.5q0 -126 -58.5 -225t-161 -154t-231.5 -55h-290l47 336h-84l17 122h84l42 302h279q108 0 188.5 -43zM489.5 181q60.5 35 92.5 97.5t32 142.5q0 95 -55.5 144t-151.5 49h-85l-22 -156h160l-17 -122h-160l-26 -190h89
q83 0 143.5 35z" />
    <glyph glyph-name="Ntilde" unicode="&#xd1;" horiz-adv-x="728" 
d="M739 760l-106 -760h-176l-186 514l-72 -514h-176l106 760h176l187 -509l71 509h176zM469.5 862.5q-21.5 8.5 -42.5 22.5q-21 12 -33 17.5t-24 5.5q-34 0 -67 -38l-60 50q28 46 66.5 73t86.5 27q27 0 49 -8.5t46 -23.5q18 -12 30.5 -17.5t25.5 -5.5q34 0 67 39l61 -48
q-29 -47 -68.5 -74.5t-88.5 -27.5q-27 0 -48.5 8.5z" />
    <glyph glyph-name="Ograve" unicode="&#xd2;" horiz-adv-x="855" 
d="M218 31q-79 44 -122 124t-43 186q0 124 58 222.5t157.5 154t218.5 55.5q105 0 184.5 -44t122.5 -124t43 -186q0 -124 -58 -222.5t-158 -154t-219 -55.5q-105 0 -184 44zM530.5 183.5q55.5 34.5 88.5 96t33 137.5q0 90 -46 142t-126 52q-65 0 -121 -34.5t-89 -95.5
t-33 -138q0 -90 46.5 -142t126.5 -52q65 0 120.5 34.5zM469 1002l95 -173h-109l-159 173h173z" />
    <glyph glyph-name="Oacute" unicode="&#xd3;" horiz-adv-x="855" 
d="M218 31q-79 44 -122 124t-43 186q0 124 58 222.5t157.5 154t218.5 55.5q105 0 184.5 -44t122.5 -124t43 -186q0 -124 -58 -222.5t-158 -154t-219 -55.5q-105 0 -184 44zM530.5 183.5q55.5 34.5 88.5 96t33 137.5q0 90 -46 142t-126 52q-65 0 -121 -34.5t-89 -95.5
t-33 -138q0 -90 46.5 -142t126.5 -52q65 0 120.5 34.5zM561 829h-109l95 173h173z" />
    <glyph glyph-name="Ocircumflex" unicode="&#xd4;" horiz-adv-x="855" 
d="M218 31q-79 44 -122 124t-43 186q0 124 58 222.5t157.5 154t218.5 55.5q105 0 184.5 -44t122.5 -124t43 -186q0 -124 -58 -222.5t-158 -154t-219 -55.5q-105 0 -184 44zM530.5 183.5q55.5 34.5 88.5 96t33 137.5q0 90 -46 142t-126 52q-65 0 -121 -34.5t-89 -95.5
t-33 -138q0 -90 46.5 -142t126.5 -52q65 0 120.5 34.5zM574 833l-55 92l-80 -92h-138l173 169h107l126 -169h-133z" />
    <glyph glyph-name="Otilde" unicode="&#xd5;" horiz-adv-x="855" 
d="M218 31q-79 44 -122 124t-43 186q0 124 58 222.5t157.5 154t218.5 55.5q105 0 184.5 -44t122.5 -124t43 -186q0 -124 -58 -222.5t-158 -154t-219 -55.5q-105 0 -184 44zM530.5 183.5q55.5 34.5 88.5 96t33 137.5q0 90 -46 142t-126 52q-65 0 -121 -34.5t-89 -95.5
t-33 -138q0 -90 46.5 -142t126.5 -52q65 0 120.5 34.5zM533.5 862.5q-21.5 8.5 -42.5 22.5q-21 12 -33 17.5t-24 5.5q-34 0 -67 -38l-60 50q28 46 66.5 73t86.5 27q27 0 49 -8.5t46 -23.5q18 -12 30.5 -17.5t25.5 -5.5q34 0 67 39l61 -48q-29 -47 -68.5 -74.5t-88.5 -27.5
q-27 0 -48.5 8.5z" />
    <glyph glyph-name="Odieresis" unicode="&#xd6;" horiz-adv-x="855" 
d="M218 31q-79 44 -122 124t-43 186q0 124 58 222.5t157.5 154t218.5 55.5q105 0 184.5 -44t122.5 -124t43 -186q0 -124 -58 -222.5t-158 -154t-219 -55.5q-105 0 -184 44zM530.5 183.5q55.5 34.5 88.5 96t33 137.5q0 90 -46 142t-126 52q-65 0 -121 -34.5t-89 -95.5
t-33 -138q0 -90 46.5 -142t126.5 -52q65 0 120.5 34.5zM349.5 872.5q-23.5 23.5 -23.5 56.5q0 34 23.5 57.5t56.5 23.5t57 -23.5t24 -57.5q0 -33 -24 -56.5t-57 -23.5t-56.5 23.5zM575.5 872.5q-23.5 23.5 -23.5 56.5q0 34 23.5 57.5t56.5 23.5t56 -23.5t23 -57.5
q0 -33 -23 -56.5t-56 -23.5t-56.5 23.5z" />
    <glyph glyph-name="multiply" unicode="&#xd7;" horiz-adv-x="583" 
d="M379 267l107 -125l-98 -86l-108 125l-143 -125l-73 85l143 126l-108 126l98 86l108 -126l143 125l73 -86z" />
    <glyph glyph-name="Oslash" unicode="&#xd8;" horiz-adv-x="855" 
d="M752 666q41 -46 63 -109t22 -138q0 -124 -58 -222.5t-158 -154t-219 -55.5q-99 0 -176 40l-44 -53h-143l99 120q-41 46 -63 109t-22 138q0 124 58 222.5t157.5 154t218.5 55.5q100 0 177 -40l44 53h143zM250 230l311 377q-35 16 -80 16q-68 0 -126.5 -36t-93.5 -100.5
t-35 -145.5q0 -66 24 -111zM640 530l-311 -377q33 -16 79 -16q68 0 126.5 36t93.5 100.5t35 145.5q0 63 -23 111z" />
    <glyph glyph-name="Ugrave" unicode="&#xd9;" horiz-adv-x="736" 
d="M133.5 53.5q-75.5 66.5 -75.5 188.5q0 39 6 76l62 442h179l-63 -446q-4 -30 -4 -50q0 -57 30.5 -86t86.5 -29q63 0 102.5 39t50.5 120l65 452h178l-62 -445q-17 -118 -58.5 -189.5t-112.5 -105t-180 -33.5q-129 0 -204.5 66.5zM409 1002l95 -173h-109l-159 173h173z" />
    <glyph glyph-name="Uacute" unicode="&#xda;" horiz-adv-x="736" 
d="M133.5 53.5q-75.5 66.5 -75.5 188.5q0 39 6 76l62 442h179l-63 -446q-4 -30 -4 -50q0 -57 30.5 -86t86.5 -29q63 0 102.5 39t50.5 120l65 452h178l-62 -445q-17 -118 -58.5 -189.5t-112.5 -105t-180 -33.5q-129 0 -204.5 66.5zM501 829h-109l95 173h173z" />
    <glyph glyph-name="Ucircumflex" unicode="&#xdb;" horiz-adv-x="736" 
d="M133.5 53.5q-75.5 66.5 -75.5 188.5q0 39 6 76l62 442h179l-63 -446q-4 -30 -4 -50q0 -57 30.5 -86t86.5 -29q63 0 102.5 39t50.5 120l65 452h178l-62 -445q-17 -118 -58.5 -189.5t-112.5 -105t-180 -33.5q-129 0 -204.5 66.5zM514 833l-55 92l-80 -92h-138l173 169h107
l126 -169h-133z" />
    <glyph glyph-name="Udieresis" unicode="&#xdc;" horiz-adv-x="736" 
d="M133.5 53.5q-75.5 66.5 -75.5 188.5q0 39 6 76l62 442h179l-63 -446q-4 -30 -4 -50q0 -57 30.5 -86t86.5 -29q63 0 102.5 39t50.5 120l65 452h178l-62 -445q-17 -118 -58.5 -189.5t-112.5 -105t-180 -33.5q-129 0 -204.5 66.5zM289.5 872.5q-23.5 23.5 -23.5 56.5
q0 34 23.5 57.5t56.5 23.5t57 -23.5t24 -57.5q0 -33 -24 -56.5t-57 -23.5t-56.5 23.5zM515.5 872.5q-23.5 23.5 -23.5 56.5q0 34 23.5 57.5t56.5 23.5t56 -23.5t23 -57.5q0 -33 -23 -56.5t-56 -23.5t-56.5 23.5z" />
    <glyph glyph-name="Yacute" unicode="&#xdd;" horiz-adv-x="650" 
d="M730 760l-488 -760h-188l200 312l-187 448h187l103 -289l185 289h188zM455 829h-109l95 173h173z" />
    <glyph glyph-name="Thorn" unicode="&#xde;" horiz-adv-x="672" 
d="M591 599.5q67 -61.5 67 -169.5q0 -93 -39.5 -163.5t-112 -109t-169.5 -38.5h-119l-17 -119h-178l106 760h179l-14 -99h104q126 0 193 -61.5zM439 304q38 45 38 110q0 52 -28.5 79.5t-93.5 27.5h-81l-37 -262h89q75 0 113 45z" />
    <glyph glyph-name="germandbls" unicode="&#xdf;" horiz-adv-x="616" 
d="M533.5 357q34.5 -50 34.5 -118q0 -74 -32.5 -131.5t-90.5 -89t-133 -31.5q-60 0 -106 16l28 110q18 -6 55 -6q53 0 91 33.5t38 94.5q0 50 -31.5 79.5t-83.5 29.5h-21l16 112q49 20 76.5 53t27.5 74q0 30 -17 48.5t-49 18.5q-74 0 -88 -94l-80 -556h-149l76 537
q19 133 85 184.5t167 51.5q83 0 138.5 -44t55.5 -121q0 -49 -26 -94t-75 -82q59 -25 93.5 -75z" />
    <glyph glyph-name="agrave" unicode="&#xe0;" horiz-adv-x="672" 
d="M654 518l-72 -518h-158v85q-32 -43 -78 -70.5t-106 -27.5q-57 0 -103 27.5t-73 81t-27 127.5q0 86 34.5 156.5t95 111t135.5 40.5q63 0 106 -28.5t62 -73.5l13 89h171zM383.5 144.5q32.5 21.5 51.5 58t19 79.5q0 51 -27 82t-74 31q-38 0 -70 -20t-50.5 -56t-18.5 -82
q0 -54 26.5 -84t71.5 -30q39 0 71.5 21.5zM320 760l95 -173h-109l-159 173h173z" />
    <glyph glyph-name="aacute" unicode="&#xe1;" horiz-adv-x="672" 
d="M654 518l-72 -518h-158v85q-32 -43 -78 -70.5t-106 -27.5q-57 0 -103 27.5t-73 81t-27 127.5q0 86 34.5 156.5t95 111t135.5 40.5q63 0 106 -28.5t62 -73.5l13 89h171zM383.5 144.5q32.5 21.5 51.5 58t19 79.5q0 51 -27 82t-74 31q-38 0 -70 -20t-50.5 -56t-18.5 -82
q0 -54 26.5 -84t71.5 -30q39 0 71.5 21.5zM412 587h-109l95 173h173z" />
    <glyph glyph-name="acircumflex" unicode="&#xe2;" horiz-adv-x="672" 
d="M654 518l-72 -518h-158v85q-32 -43 -78 -70.5t-106 -27.5q-57 0 -103 27.5t-73 81t-27 127.5q0 86 34.5 156.5t95 111t135.5 40.5q63 0 106 -28.5t62 -73.5l13 89h171zM383.5 144.5q32.5 21.5 51.5 58t19 79.5q0 51 -27 82t-74 31q-38 0 -70 -20t-50.5 -56t-18.5 -82
q0 -54 26.5 -84t71.5 -30q39 0 71.5 21.5zM425 591l-55 92l-80 -92h-138l173 169h107l126 -169h-133z" />
    <glyph glyph-name="atilde" unicode="&#xe3;" horiz-adv-x="672" 
d="M654 518l-72 -518h-158v85q-32 -43 -78 -70.5t-106 -27.5q-57 0 -103 27.5t-73 81t-27 127.5q0 86 34.5 156.5t95 111t135.5 40.5q63 0 106 -28.5t62 -73.5l13 89h171zM383.5 144.5q32.5 21.5 51.5 58t19 79.5q0 51 -27 82t-74 31q-38 0 -70 -20t-50.5 -56t-18.5 -82
q0 -54 26.5 -84t71.5 -30q39 0 71.5 21.5zM384.5 620.5q-21.5 8.5 -42.5 22.5q-21 12 -33 17.5t-24 5.5q-34 0 -67 -38l-60 50q28 46 66.5 73t86.5 27q27 0 49 -8.5t46 -23.5q18 -12 30.5 -17.5t25.5 -5.5q34 0 67 39l61 -48q-29 -47 -68.5 -74.5t-88.5 -27.5
q-27 0 -48.5 8.5z" />
    <glyph glyph-name="adieresis" unicode="&#xe4;" horiz-adv-x="672" 
d="M654 518l-72 -518h-158v85q-32 -43 -78 -70.5t-106 -27.5q-57 0 -103 27.5t-73 81t-27 127.5q0 86 34.5 156.5t95 111t135.5 40.5q63 0 106 -28.5t62 -73.5l13 89h171zM383.5 144.5q32.5 21.5 51.5 58t19 79.5q0 51 -27 82t-74 31q-38 0 -70 -20t-50.5 -56t-18.5 -82
q0 -54 26.5 -84t71.5 -30q39 0 71.5 21.5zM200.5 630.5q-23.5 23.5 -23.5 56.5q0 34 23.5 57.5t56.5 23.5t57 -23.5t24 -57.5q0 -33 -24 -56.5t-57 -23.5t-56.5 23.5zM426.5 630.5q-23.5 23.5 -23.5 56.5q0 34 23.5 57.5t56.5 23.5t56 -23.5t23 -57.5q0 -33 -23 -56.5
t-56 -23.5t-56.5 23.5z" />
    <glyph glyph-name="aring" unicode="&#xe5;" horiz-adv-x="672" 
d="M654 518l-72 -518h-158v85q-32 -43 -78 -70.5t-106 -27.5q-57 0 -103 27.5t-73 81t-27 127.5q0 86 34.5 156.5t95 111t135.5 40.5q63 0 106 -28.5t62 -73.5l13 89h171zM383.5 144.5q32.5 21.5 51.5 58t19 79.5q0 51 -27 82t-74 31q-38 0 -70 -20t-50.5 -56t-18.5 -82
q0 -54 26.5 -84t71.5 -30q39 0 71.5 21.5zM281 616.5q-35 35.5 -35 85.5q0 49 35 84t85 35t85.5 -35t35.5 -84q0 -50 -35.5 -85.5t-85.5 -35.5t-85 35.5zM405.5 660q16.5 17 16.5 42q0 24 -16.5 40.5t-39.5 16.5t-39.5 -16.5t-16.5 -40.5q0 -25 16.5 -42t39.5 -17t39.5 17z
" />
    <glyph glyph-name="ae" unicode="&#xe6;" horiz-adv-x="966" 
d="M544 219v-9q0 -49 27 -77.5t71 -28.5q35 0 62.5 15.5t45.5 43.5l155 -13q-46 -80 -117 -121.5t-164 -41.5q-67 0 -116.5 25.5t-77.5 72.5q-73 -98 -223 -98q-88 0 -136 37t-48 104q0 90 67 132.5t189 42.5h126l3 35q0 40 -23 58t-61 18q-35 0 -61 -15.5t-41 -41.5
l-150 13q34 70 101.5 115.5t171.5 45.5q55 0 100.5 -15.5t74.5 -47.5q76 63 176 63q111 0 172 -60t61 -164q0 -21 -3 -46t-7 -42h-375zM603.5 381.5q-31.5 -29.5 -46.5 -78.5h217v6q0 48 -24 75t-68 27q-47 0 -78.5 -29.5zM344.5 116.5q36.5 28.5 44.5 80.5l3 22h-103
q-62 0 -88 -18t-26 -54q0 -30 21.5 -44.5t58.5 -14.5q53 0 89.5 28.5z" />
    <glyph glyph-name="ccedilla" unicode="&#xe7;" horiz-adv-x="632" 
d="M157 18q-58 31 -89 84t-31 119q0 96 41 166t114 107t166 37q109 0 174 -54t74 -146l-168 -12q-6 37 -30.5 56.5t-59.5 19.5q-62 0 -100.5 -44.5t-38.5 -113.5q0 -53 26.5 -83.5t73.5 -30.5q37 0 68 21t47 60l162 -14q-27 -93 -102 -148t-193 -55q-76 0 -134 31z
M360.5 -56.5q22.5 -19.5 22.5 -53.5q0 -49 -35.5 -77t-94.5 -28q-55 0 -90 23l30 56q22 -13 47 -13q19 0 31 9.5t12 26.5q0 13 -7.5 19.5t-21.5 6.5q-20 0 -37 -14l-27 19l46 108h71l-22 -64q5 1 15 1q38 0 60.5 -19.5z" />
    <glyph glyph-name="egrave" unicode="&#xe8;" horiz-adv-x="648" 
d="M207 215v-1q0 -50 27 -80t70 -30q39 0 67.5 16.5t45.5 44.5l169 -13q-42 -83 -117 -124t-179 -41q-78 0 -135.5 32t-87.5 85.5t-30 116.5q0 93 40.5 163.5t113 108.5t166.5 38q80 0 137.5 -29.5t87.5 -80.5t30 -115q0 -45 -11 -91h-394zM268 385q-34 -29 -49 -82h226
q-1 52 -25 81.5t-69 29.5q-49 0 -83 -29zM332 760l95 -173h-109l-159 173h173z" />
    <glyph glyph-name="eacute" unicode="&#xe9;" horiz-adv-x="648" 
d="M207 215v-1q0 -50 27 -80t70 -30q39 0 67.5 16.5t45.5 44.5l169 -13q-42 -83 -117 -124t-179 -41q-78 0 -135.5 32t-87.5 85.5t-30 116.5q0 93 40.5 163.5t113 108.5t166.5 38q80 0 137.5 -29.5t87.5 -80.5t30 -115q0 -45 -11 -91h-394zM268 385q-34 -29 -49 -82h226
q-1 52 -25 81.5t-69 29.5q-49 0 -83 -29zM424 587h-109l95 173h173z" />
    <glyph glyph-name="ecircumflex" unicode="&#xea;" horiz-adv-x="648" 
d="M207 215v-1q0 -50 27 -80t70 -30q39 0 67.5 16.5t45.5 44.5l169 -13q-42 -83 -117 -124t-179 -41q-78 0 -135.5 32t-87.5 85.5t-30 116.5q0 93 40.5 163.5t113 108.5t166.5 38q80 0 137.5 -29.5t87.5 -80.5t30 -115q0 -45 -11 -91h-394zM268 385q-34 -29 -49 -82h226
q-1 52 -25 81.5t-69 29.5q-49 0 -83 -29zM437 591l-55 92l-80 -92h-138l173 169h107l126 -169h-133z" />
    <glyph glyph-name="edieresis" unicode="&#xeb;" horiz-adv-x="648" 
d="M207 215v-1q0 -50 27 -80t70 -30q39 0 67.5 16.5t45.5 44.5l169 -13q-42 -83 -117 -124t-179 -41q-78 0 -135.5 32t-87.5 85.5t-30 116.5q0 93 40.5 163.5t113 108.5t166.5 38q80 0 137.5 -29.5t87.5 -80.5t30 -115q0 -45 -11 -91h-394zM268 385q-34 -29 -49 -82h226
q-1 52 -25 81.5t-69 29.5q-49 0 -83 -29zM212.5 630.5q-23.5 23.5 -23.5 56.5q0 34 23.5 57.5t56.5 23.5t57 -23.5t24 -57.5q0 -33 -24 -56.5t-57 -23.5t-56.5 23.5zM438.5 630.5q-23.5 23.5 -23.5 56.5q0 34 23.5 57.5t56.5 23.5t56 -23.5t23 -57.5q0 -33 -23 -56.5
t-56 -23.5t-56.5 23.5z" />
    <glyph glyph-name="igrave" unicode="&#xec;" horiz-adv-x="287" 
d="M94 518h172l-72 -518h-172zM152 760l95 -173h-109l-159 173h173z" />
    <glyph glyph-name="iacute" unicode="&#xed;" horiz-adv-x="287" 
d="M94 518h172l-72 -518h-172zM244 587h-109l95 173h173z" />
    <glyph glyph-name="icircumflex" unicode="&#xee;" horiz-adv-x="287" 
d="M94 518h172l-72 -518h-172zM237 591l-28 101l-54 -101h-133l143 169h107l96 -169h-131z" />
    <glyph glyph-name="idieresis" unicode="&#xef;" horiz-adv-x="287" 
d="M94 518h172l-72 -518h-172zM32.5 630.5q-23.5 23.5 -23.5 56.5q0 34 23.5 57.5t56.5 23.5t57 -23.5t24 -57.5q0 -33 -24 -56.5t-57 -23.5t-56.5 23.5zM258.5 630.5q-23.5 23.5 -23.5 56.5q0 34 23.5 57.5t56.5 23.5t56 -23.5t23 -57.5q0 -33 -23 -56.5t-56 -23.5
t-56.5 23.5z" />
    <glyph glyph-name="eth" unicode="&#xf0;" horiz-adv-x="677" 
d="M595 638q59 -86 59 -215q0 -131 -42 -229.5t-123.5 -152.5t-197.5 -54q-73 0 -131 27.5t-91.5 78.5t-33.5 119q0 80 40.5 142.5t111.5 97.5t159 35q87 0 139 -30q0 67 -32 116l-105 -48l-25 72l72 33q-38 25 -100 37l41 106q128 -13 205 -76l95 43l26 -71zM378 143.5
q32 20.5 51 56t19 77.5q0 48 -28.5 76t-73.5 28q-58 0 -97.5 -41t-39.5 -108q0 -50 28 -79.5t72 -29.5q37 0 69 20.5z" />
    <glyph glyph-name="ntilde" unicode="&#xf1;" horiz-adv-x="631" 
d="M552.5 485q40.5 -46 40.5 -120q0 -23 -5 -61l-42 -304h-172l39 282q4 30 4 49q0 37 -16.5 54t-52.5 17q-50 0 -80 -36t-39 -94l-38 -272h-172l72 518h154l6 -80q34 45 81 69t102 24q78 0 118.5 -46zM386.5 620.5q-21.5 8.5 -42.5 22.5q-21 12 -33 17.5t-24 5.5
q-34 0 -67 -38l-60 50q28 46 66.5 73t86.5 27q27 0 49 -8.5t46 -23.5q18 -12 30.5 -17.5t25.5 -5.5q34 0 67 39l61 -48q-29 -47 -68.5 -74.5t-88.5 -27.5q-27 0 -48.5 8.5z" />
    <glyph glyph-name="ograve" unicode="&#xf2;" horiz-adv-x="657" 
d="M161 16.5q-59 29.5 -91.5 82.5t-32.5 123q0 95 41 165t114.5 107t169.5 37q75 0 134 -29.5t91.5 -83t32.5 -122.5q0 -95 -40.5 -165t-114 -107t-169.5 -37q-76 0 -135 29.5zM378 143.5q32 20.5 51 57t19 82.5q0 53 -26.5 82.5t-71.5 29.5q-39 0 -71 -20.5t-51 -57
t-19 -82.5q0 -53 26.5 -82.5t71.5 -29.5q39 0 71 20.5zM336 761l95 -173h-109l-159 173h173z" />
    <glyph glyph-name="oacute" unicode="&#xf3;" horiz-adv-x="657" 
d="M161 16.5q-59 29.5 -91.5 82.5t-32.5 123q0 95 41 165t114.5 107t169.5 37q75 0 134 -29.5t91.5 -83t32.5 -122.5q0 -95 -40.5 -165t-114 -107t-169.5 -37q-76 0 -135 29.5zM378 143.5q32 20.5 51 57t19 82.5q0 53 -26.5 82.5t-71.5 29.5q-39 0 -71 -20.5t-51 -57
t-19 -82.5q0 -53 26.5 -82.5t71.5 -29.5q39 0 71 20.5zM428 588h-109l95 173h173z" />
    <glyph glyph-name="ocircumflex" unicode="&#xf4;" horiz-adv-x="657" 
d="M161 16.5q-59 29.5 -91.5 82.5t-32.5 123q0 95 41 165t114.5 107t169.5 37q75 0 134 -29.5t91.5 -83t32.5 -122.5q0 -95 -40.5 -165t-114 -107t-169.5 -37q-76 0 -135 29.5zM378 143.5q32 20.5 51 57t19 82.5q0 53 -26.5 82.5t-71.5 29.5q-39 0 -71 -20.5t-51 -57
t-19 -82.5q0 -53 26.5 -82.5t71.5 -29.5q39 0 71 20.5zM441 592l-55 92l-80 -92h-138l173 169h107l126 -169h-133z" />
    <glyph glyph-name="otilde" unicode="&#xf5;" horiz-adv-x="657" 
d="M161 16.5q-59 29.5 -91.5 82.5t-32.5 123q0 95 41 165t114.5 107t169.5 37q75 0 134 -29.5t91.5 -83t32.5 -122.5q0 -95 -40.5 -165t-114 -107t-169.5 -37q-76 0 -135 29.5zM378 143.5q32 20.5 51 57t19 82.5q0 53 -26.5 82.5t-71.5 29.5q-39 0 -71 -20.5t-51 -57
t-19 -82.5q0 -53 26.5 -82.5t71.5 -29.5q39 0 71 20.5zM400.5 621.5q-21.5 8.5 -42.5 22.5q-21 12 -33 17.5t-24 5.5q-34 0 -67 -38l-60 50q28 46 66.5 73t86.5 27q27 0 49 -8.5t46 -23.5q18 -12 30.5 -17.5t25.5 -5.5q34 0 67 39l61 -48q-29 -47 -68.5 -74.5t-88.5 -27.5
q-27 0 -48.5 8.5z" />
    <glyph glyph-name="odieresis" unicode="&#xf6;" horiz-adv-x="657" 
d="M161 16.5q-59 29.5 -91.5 82.5t-32.5 123q0 95 41 165t114.5 107t169.5 37q75 0 134 -29.5t91.5 -83t32.5 -122.5q0 -95 -40.5 -165t-114 -107t-169.5 -37q-76 0 -135 29.5zM378 143.5q32 20.5 51 57t19 82.5q0 53 -26.5 82.5t-71.5 29.5q-39 0 -71 -20.5t-51 -57
t-19 -82.5q0 -53 26.5 -82.5t71.5 -29.5q39 0 71 20.5zM216.5 631.5q-23.5 23.5 -23.5 56.5q0 34 23.5 57.5t56.5 23.5t57 -23.5t24 -57.5q0 -33 -24 -56.5t-57 -23.5t-56.5 23.5zM442.5 631.5q-23.5 23.5 -23.5 56.5q0 34 23.5 57.5t56.5 23.5t56 -23.5t23 -57.5
q0 -33 -23 -56.5t-56 -23.5t-56.5 23.5z" />
    <glyph glyph-name="divide" unicode="&#xf7;" horiz-adv-x="601" 
d="M256 391.5q-23 23.5 -23 55.5q0 33 23 56t55 23t55.5 -23t23.5 -56q0 -32 -23.5 -55.5t-55.5 -23.5t-55 23.5zM90 328h436l-12 -122h-437zM236 28q-23 23 -23 55t23 55t55 23t55.5 -23t23.5 -55t-23.5 -55t-55.5 -23t-55 23z" />
    <glyph glyph-name="oslash" unicode="&#xf8;" horiz-adv-x="657" 
d="M601 392q19 -44 19 -96q0 -95 -40.5 -165t-114 -107t-169.5 -37q-68 0 -126 25l-26 -32h-92l58 71q-35 31 -54 75t-19 96q0 95 41 165t114.5 107t169.5 37q68 0 124 -25l26 32h93l-58 -71q35 -31 54 -75zM211 173l185 224q-21 8 -44 8q-42 0 -76.5 -22t-55 -61t-20.5 -88
q0 -34 11 -61zM382.5 135q34.5 22 54.5 61.5t20 88.5q0 34 -11 61l-185 -225q21 -8 45 -8q42 0 76.5 22z" />
    <glyph glyph-name="ugrave" unicode="&#xf9;" horiz-adv-x="624" 
d="M606 518l-72 -518h-154l-3 82q-34 -46 -80.5 -70.5t-102.5 -24.5q-75 0 -115.5 43t-40.5 112q0 29 4 53l44 323h172l-40 -291q-3 -21 -3 -42q0 -70 69 -70q49 0 76.5 38.5t35.5 93.5h1l37 271h172zM316 760l95 -173h-109l-159 173h173z" />
    <glyph glyph-name="uacute" unicode="&#xfa;" horiz-adv-x="624" 
d="M606 518l-72 -518h-154l-3 82q-34 -46 -80.5 -70.5t-102.5 -24.5q-75 0 -115.5 43t-40.5 112q0 29 4 53l44 323h172l-40 -291q-3 -21 -3 -42q0 -70 69 -70q49 0 76.5 38.5t35.5 93.5h1l37 271h172zM408 587h-109l95 173h173z" />
    <glyph glyph-name="ucircumflex" unicode="&#xfb;" horiz-adv-x="624" 
d="M606 518l-72 -518h-154l-3 82q-34 -46 -80.5 -70.5t-102.5 -24.5q-75 0 -115.5 43t-40.5 112q0 29 4 53l44 323h172l-40 -291q-3 -21 -3 -42q0 -70 69 -70q49 0 76.5 38.5t35.5 93.5h1l37 271h172zM421 591l-55 92l-80 -92h-138l173 169h107l126 -169h-133z" />
    <glyph glyph-name="udieresis" unicode="&#xfc;" horiz-adv-x="624" 
d="M606 518l-72 -518h-154l-3 82q-34 -46 -80.5 -70.5t-102.5 -24.5q-75 0 -115.5 43t-40.5 112q0 29 4 53l44 323h172l-40 -291q-3 -21 -3 -42q0 -70 69 -70q49 0 76.5 38.5t35.5 93.5h1l37 271h172zM196.5 630.5q-23.5 23.5 -23.5 56.5q0 34 23.5 57.5t56.5 23.5t57 -23.5
t24 -57.5q0 -33 -24 -56.5t-57 -23.5t-56.5 23.5zM422.5 630.5q-23.5 23.5 -23.5 56.5q0 34 23.5 57.5t56.5 23.5t56 -23.5t23 -57.5q0 -33 -23 -56.5t-56 -23.5t-56.5 23.5z" />
    <glyph glyph-name="yacute" unicode="&#xfd;" horiz-adv-x="625" 
d="M606 518l-67 -481q-17 -126 -93.5 -189t-201.5 -63q-104 0 -165.5 40t-72.5 111l174 16q8 -53 74 -53q50 0 76.5 32t35.5 99l8 59q-33 -43 -78.5 -66t-99.5 -23q-75 0 -115.5 43t-40.5 112q0 23 5 53l42 310h172l-38 -277q-4 -30 -4 -43q0 -36 17.5 -52t51.5 -16
q50 0 77.5 38t34.5 92l36 258h172zM414 587h-109l95 173h173z" />
    <glyph glyph-name="thorn" unicode="&#xfe;" horiz-adv-x="673" 
d="M542.5 504.5q44.5 -26.5 69.5 -77t25 -119.5q0 -90 -36 -163.5t-99.5 -115.5t-141.5 -42q-57 0 -97 24.5t-61 68.5l-39 -281h-172l135 961h172l-48 -331q33 48 82 75t108 27q58 0 102.5 -26.5zM391.5 143q31.5 20 50 57t18.5 84q0 52 -27 81.5t-72 29.5q-40 0 -72 -21.5
t-50.5 -58t-18.5 -80.5q0 -51 27.5 -81.5t74.5 -30.5q38 0 69.5 20z" />
    <glyph glyph-name="ydieresis" unicode="&#xff;" horiz-adv-x="625" 
d="M606 518l-67 -481q-17 -126 -93.5 -189t-201.5 -63q-104 0 -165.5 40t-72.5 111l174 16q8 -53 74 -53q50 0 76.5 32t35.5 99l8 59q-33 -43 -78.5 -66t-99.5 -23q-75 0 -115.5 43t-40.5 112q0 23 5 53l42 310h172l-38 -277q-4 -30 -4 -43q0 -36 17.5 -52t51.5 -16
q50 0 77.5 38t34.5 92l36 258h172zM202.5 630.5q-23.5 23.5 -23.5 56.5q0 34 23.5 57.5t56.5 23.5t57 -23.5t24 -57.5q0 -33 -24 -56.5t-57 -23.5t-56.5 23.5zM428.5 630.5q-23.5 23.5 -23.5 56.5q0 34 23.5 57.5t56.5 23.5t56 -23.5t23 -57.5q0 -33 -23 -56.5t-56 -23.5
t-56.5 23.5z" />
    <glyph glyph-name="Amacron" unicode="&#x100;" horiz-adv-x="699" 
d="M460 110h-264l-46 -110h-185l353 760h202l141 -760h-186zM443 239l-47 349l-146 -349h193zM303 985h295l-13 -96h-295z" />
    <glyph glyph-name="amacron" unicode="&#x101;" horiz-adv-x="672" 
d="M654 518l-72 -518h-158v85q-32 -43 -78 -70.5t-106 -27.5q-57 0 -103 27.5t-73 81t-27 127.5q0 86 34.5 156.5t95 111t135.5 40.5q63 0 106 -28.5t62 -73.5l13 89h171zM383.5 144.5q32.5 21.5 51.5 58t19 79.5q0 51 -27 82t-74 31q-38 0 -70 -20t-50.5 -56t-18.5 -82
q0 -54 26.5 -84t71.5 -30q39 0 71.5 21.5zM233 743h295l-13 -96h-295z" />
    <glyph glyph-name="Abreve" unicode="&#x102;" horiz-adv-x="699" 
d="M460 110h-264l-46 -110h-185l353 760h202l141 -760h-186zM443 239l-47 349l-146 -349h193zM315.5 872.5q-40.5 46.5 -40.5 129.5h97q0 -41 17.5 -63t51.5 -22q33 0 55.5 22t33.5 63h96q-16 -83 -67.5 -129.5t-127.5 -46.5q-75 0 -115.5 46.5z" />
    <glyph glyph-name="abreve" unicode="&#x103;" horiz-adv-x="672" 
d="M654 518l-72 -518h-158v85q-32 -43 -78 -70.5t-106 -27.5q-57 0 -103 27.5t-73 81t-27 127.5q0 86 34.5 156.5t95 111t135.5 40.5q63 0 106 -28.5t62 -73.5l13 89h171zM383.5 144.5q32.5 21.5 51.5 58t19 79.5q0 51 -27 82t-74 31q-38 0 -70 -20t-50.5 -56t-18.5 -82
q0 -54 26.5 -84t71.5 -30q39 0 71.5 21.5zM245.5 630.5q-40.5 46.5 -40.5 129.5h97q0 -41 17.5 -63t51.5 -22q33 0 55.5 22t33.5 63h96q-16 -83 -67.5 -129.5t-127.5 -46.5q-75 0 -115.5 46.5z" />
    <glyph glyph-name="Aogonek" unicode="&#x104;" horiz-adv-x="699" 
d="M460 110h-264l-46 -110h-185l353 760h202l141 -760h-186zM443 239l-47 349l-146 -349h193zM505 -22q-23 -21 -23 -56q0 -26 17 -40t47 -14q16 0 44 6l-5 -68q-16 -9 -39.5 -15t-48.5 -6q-53 0 -86 27t-33 77q0 62 49 104t128 51l5 -37q-32 -8 -55 -29z" />
    <glyph glyph-name="aogonek" unicode="&#x105;" horiz-adv-x="672" 
d="M654 518l-72 -518h-158v85q-32 -43 -78 -70.5t-106 -27.5q-57 0 -103 27.5t-73 81t-27 127.5q0 86 34.5 156.5t95 111t135.5 40.5q63 0 106 -28.5t62 -73.5l13 89h171zM383.5 144.5q32.5 21.5 51.5 58t19 79.5q0 51 -27 82t-74 31q-38 0 -70 -20t-50.5 -56t-18.5 -82
q0 -54 26.5 -84t71.5 -30q39 0 71.5 21.5zM470 -22q-23 -21 -23 -56q0 -26 17 -40t47 -14q16 0 44 6l-5 -68q-16 -9 -39.5 -15t-48.5 -6q-53 0 -86 27t-33 77q0 62 49 104t128 51l5 -37q-32 -8 -55 -29z" />
    <glyph glyph-name="Cacute" unicode="&#x106;" horiz-adv-x="834" 
d="M220 30.5q-79 43.5 -123 123.5t-44 186q0 118 54.5 217.5t153 157.5t223.5 58q100 0 175.5 -37.5t119.5 -103.5t54 -151l-186 -15q-11 70 -54.5 108.5t-113.5 38.5q-68 0 -123.5 -36.5t-87 -98t-31.5 -134.5q0 -90 47.5 -142.5t126.5 -52.5q70 0 127.5 40.5t85.5 106.5
l181 -16q-29 -86 -86.5 -152.5t-138 -103.5t-177.5 -37q-104 0 -183 43.5zM561 829h-109l95 173h173z" />
    <glyph glyph-name="cacute" unicode="&#x107;" horiz-adv-x="632" 
d="M157 18q-58 31 -89 84t-31 119q0 96 41 166t114 107t166 37q109 0 174 -54t74 -146l-168 -12q-6 37 -30.5 56.5t-59.5 19.5q-62 0 -100.5 -44.5t-38.5 -113.5q0 -53 26.5 -83.5t73.5 -30.5q37 0 68 21t47 60l162 -14q-27 -93 -102 -148t-193 -55q-76 0 -134 31zM419 587
h-109l95 173h173z" />
    <glyph glyph-name="Ccircumflex" unicode="&#x108;" horiz-adv-x="834" 
d="M220 30.5q-79 43.5 -123 123.5t-44 186q0 118 54.5 217.5t153 157.5t223.5 58q100 0 175.5 -37.5t119.5 -103.5t54 -151l-186 -15q-11 70 -54.5 108.5t-113.5 38.5q-68 0 -123.5 -36.5t-87 -98t-31.5 -134.5q0 -90 47.5 -142.5t126.5 -52.5q70 0 127.5 40.5t85.5 106.5
l181 -16q-29 -86 -86.5 -152.5t-138 -103.5t-177.5 -37q-104 0 -183 43.5zM574 833l-55 92l-80 -92h-138l173 169h107l126 -169h-133z" />
    <glyph glyph-name="ccircumflex" unicode="&#x109;" horiz-adv-x="632" 
d="M157 18q-58 31 -89 84t-31 119q0 96 41 166t114 107t166 37q109 0 174 -54t74 -146l-168 -12q-6 37 -30.5 56.5t-59.5 19.5q-62 0 -100.5 -44.5t-38.5 -113.5q0 -53 26.5 -83.5t73.5 -30.5q37 0 68 21t47 60l162 -14q-27 -93 -102 -148t-193 -55q-76 0 -134 31zM432 591
l-55 92l-80 -92h-138l173 169h107l126 -169h-133z" />
    <glyph glyph-name="Cdotaccent" unicode="&#x10a;" horiz-adv-x="834" 
d="M220 30.5q-79 43.5 -123 123.5t-44 186q0 118 54.5 217.5t153 157.5t223.5 58q100 0 175.5 -37.5t119.5 -103.5t54 -151l-186 -15q-11 70 -54.5 108.5t-113.5 38.5q-68 0 -123.5 -36.5t-87 -98t-31.5 -134.5q0 -90 47.5 -142.5t126.5 -52.5q70 0 127.5 40.5t85.5 106.5
l181 -16q-29 -86 -86.5 -152.5t-138 -103.5t-177.5 -37q-104 0 -183 43.5zM453.5 871q-26.5 27 -26.5 64q0 38 26.5 65t64.5 27t65 -27t27 -65t-27 -64.5t-65 -26.5t-64.5 27z" />
    <glyph glyph-name="cdotaccent" unicode="&#x10b;" horiz-adv-x="632" 
d="M157 18q-58 31 -89 84t-31 119q0 96 41 166t114 107t166 37q109 0 174 -54t74 -146l-168 -12q-6 37 -30.5 56.5t-59.5 19.5q-62 0 -100.5 -44.5t-38.5 -113.5q0 -53 26.5 -83.5t73.5 -30.5q37 0 68 21t47 60l162 -14q-27 -93 -102 -148t-193 -55q-76 0 -134 31z
M311.5 629q-26.5 27 -26.5 64q0 38 26.5 65t64.5 27t65 -27t27 -65t-27 -64.5t-65 -26.5t-64.5 27z" />
    <glyph glyph-name="Ccaron" unicode="&#x10c;" horiz-adv-x="834" 
d="M220 30.5q-79 43.5 -123 123.5t-44 186q0 118 54.5 217.5t153 157.5t223.5 58q100 0 175.5 -37.5t119.5 -103.5t54 -151l-186 -15q-11 70 -54.5 108.5t-113.5 38.5q-68 0 -123.5 -36.5t-87 -98t-31.5 -134.5q0 -90 47.5 -142.5t126.5 -52.5q70 0 127.5 40.5t85.5 106.5
l181 -16q-29 -86 -86.5 -152.5t-138 -103.5t-177.5 -37q-104 0 -183 43.5zM738 1002l-173 -169h-107l-126 169h133l55 -92l80 92h138z" />
    <glyph glyph-name="ccaron" unicode="&#x10d;" horiz-adv-x="632" 
d="M157 18q-58 31 -89 84t-31 119q0 96 41 166t114 107t166 37q109 0 174 -54t74 -146l-168 -12q-6 37 -30.5 56.5t-59.5 19.5q-62 0 -100.5 -44.5t-38.5 -113.5q0 -53 26.5 -83.5t73.5 -30.5q37 0 68 21t47 60l162 -14q-27 -93 -102 -148t-193 -55q-76 0 -134 31zM596 760
l-173 -169h-107l-126 169h133l55 -92l80 92h138z" />
    <glyph glyph-name="Dcaron" unicode="&#x10e;" horiz-adv-x="781" 
d="M596.5 717q80.5 -43 124 -117.5t43.5 -165.5q0 -126 -58.5 -225t-161 -154t-231.5 -55h-290l106 760h279q108 0 188.5 -43zM454.5 181q60.5 35 92.5 97.5t32 142.5q0 95 -55.5 144t-151.5 49h-85l-65 -468h89q83 0 143.5 35zM638 1002l-173 -169h-107l-126 169h133
l55 -92l80 92h138z" />
    <glyph glyph-name="dcaron" unicode="&#x10f;" horiz-adv-x="893" 
d="M517 760h172l-106 -760h-159v84q-32 -43 -78.5 -70t-103.5 -27q-56 0 -103 27t-74.5 80.5t-27.5 129.5q0 87 34.5 157t95.5 110t136 40q62 0 105.5 -29t62.5 -74zM950 760l-98 -173h-97l33 173h162zM384 144.5q32 21.5 51 58t19 79.5q0 52 -27 82.5t-74 30.5
q-38 0 -70 -20t-50.5 -56t-18.5 -82q0 -53 27 -83.5t72 -30.5q39 0 71 21.5z" />
    <glyph glyph-name="Dcroat" unicode="&#x110;" horiz-adv-x="816" 
d="M631.5 717q80.5 -43 124 -117.5t43.5 -165.5q0 -126 -58.5 -225t-161 -154t-231.5 -55h-290l47 336h-84l17 122h84l42 302h279q108 0 188.5 -43zM489.5 181q60.5 35 92.5 97.5t32 142.5q0 95 -55.5 144t-151.5 49h-85l-22 -156h160l-17 -122h-160l-26 -190h89
q83 0 143.5 35z" />
    <glyph glyph-name="dcroat" unicode="&#x111;" horiz-adv-x="711" 
d="M754 594h-88l-83 -594h-159v84q-32 -43 -78.5 -70t-103.5 -27q-56 0 -103 27t-74.5 80.5t-27.5 129.5q0 87 34.5 157t95.5 110t136 40q62 0 105.5 -29t62.5 -74l23 166h-201l14 95h200l10 71h172l-10 -71h89zM384 144.5q32 21.5 51 58t19 79.5q0 52 -27 82.5t-74 30.5
q-38 0 -70 -20t-50.5 -56t-18.5 -82q0 -53 27 -83.5t72 -30.5q39 0 71 21.5z" />
    <glyph glyph-name="Emacron" unicode="&#x112;" 
d="M287 614l-21 -150h269l-20 -140h-268l-25 -178h280l-20 -146h-459l106 760h457l-20 -146h-279zM243 985h295l-13 -96h-295z" />
    <glyph glyph-name="emacron" unicode="&#x113;" horiz-adv-x="648" 
d="M207 215v-1q0 -50 27 -80t70 -30q39 0 67.5 16.5t45.5 44.5l169 -13q-42 -83 -117 -124t-179 -41q-78 0 -135.5 32t-87.5 85.5t-30 116.5q0 93 40.5 163.5t113 108.5t166.5 38q80 0 137.5 -29.5t87.5 -80.5t30 -115q0 -45 -11 -91h-394zM268 385q-34 -29 -49 -82h226
q-1 52 -25 81.5t-69 29.5q-49 0 -83 -29zM245 743h295l-13 -96h-295z" />
    <glyph glyph-name="Ebreve" unicode="&#x114;" 
d="M287 614l-21 -150h269l-20 -140h-268l-25 -178h280l-20 -146h-459l106 760h457l-20 -146h-279zM255.5 872.5q-40.5 46.5 -40.5 129.5h97q0 -41 17.5 -63t51.5 -22q33 0 55.5 22t33.5 63h96q-16 -83 -67.5 -129.5t-127.5 -46.5q-75 0 -115.5 46.5z" />
    <glyph glyph-name="ebreve" unicode="&#x115;" horiz-adv-x="648" 
d="M207 215v-1q0 -50 27 -80t70 -30q39 0 67.5 16.5t45.5 44.5l169 -13q-42 -83 -117 -124t-179 -41q-78 0 -135.5 32t-87.5 85.5t-30 116.5q0 93 40.5 163.5t113 108.5t166.5 38q80 0 137.5 -29.5t87.5 -80.5t30 -115q0 -45 -11 -91h-394zM268 385q-34 -29 -49 -82h226
q-1 52 -25 81.5t-69 29.5q-49 0 -83 -29zM257.5 630.5q-40.5 46.5 -40.5 129.5h97q0 -41 17.5 -63t51.5 -22q33 0 55.5 22t33.5 63h96q-16 -83 -67.5 -129.5t-127.5 -46.5q-75 0 -115.5 46.5z" />
    <glyph glyph-name="Edotaccent" unicode="&#x116;" 
d="M287 614l-21 -150h269l-20 -140h-268l-25 -178h280l-20 -146h-459l106 760h457l-20 -146h-279zM314.5 871q-26.5 27 -26.5 64q0 38 26.5 65t64.5 27t65 -27t27 -65t-27 -64.5t-65 -26.5t-64.5 27z" />
    <glyph glyph-name="edotaccent" unicode="&#x117;" horiz-adv-x="648" 
d="M207 215v-1q0 -50 27 -80t70 -30q39 0 67.5 16.5t45.5 44.5l169 -13q-42 -83 -117 -124t-179 -41q-78 0 -135.5 32t-87.5 85.5t-30 116.5q0 93 40.5 163.5t113 108.5t166.5 38q80 0 137.5 -29.5t87.5 -80.5t30 -115q0 -45 -11 -91h-394zM268 385q-34 -29 -49 -82h226
q-1 52 -25 81.5t-69 29.5q-49 0 -83 -29zM316.5 629q-26.5 27 -26.5 64q0 38 26.5 65t64.5 27t65 -27t27 -65t-27 -64.5t-65 -26.5t-64.5 27z" />
    <glyph glyph-name="Eogonek" unicode="&#x118;" 
d="M287 614l-21 -150h269l-20 -140h-268l-25 -178h280l-20 -146h-459l106 760h457l-20 -146h-279zM365 -22q-23 -21 -23 -56q0 -26 17 -40t47 -14q16 0 44 6l-5 -68q-16 -9 -39.5 -15t-48.5 -6q-53 0 -86 27t-33 77q0 62 49 104t128 51l5 -37q-32 -8 -55 -29z" />
    <glyph glyph-name="eogonek" unicode="&#x119;" horiz-adv-x="648" 
d="M207 215v-1q0 -50 27 -80t70 -30q39 0 67.5 16.5t45.5 44.5l169 -13q-42 -83 -117 -124t-179 -41q-78 0 -135.5 32t-87.5 85.5t-30 116.5q0 93 40.5 163.5t113 108.5t166.5 38q80 0 137.5 -29.5t87.5 -80.5t30 -115q0 -45 -11 -91h-394zM268 385q-34 -29 -49 -82h226
q-1 52 -25 81.5t-69 29.5q-49 0 -83 -29zM359 -22q-23 -21 -23 -56q0 -26 17 -40t47 -14q16 0 44 6l-5 -68q-16 -9 -39.5 -15t-48.5 -6q-53 0 -86 27t-33 77q0 62 49 104t128 51l5 -37q-32 -8 -55 -29z" />
    <glyph glyph-name="Ecaron" unicode="&#x11a;" 
d="M287 614l-21 -150h269l-20 -140h-268l-25 -178h280l-20 -146h-459l106 760h457l-20 -146h-279zM599 1002l-173 -169h-107l-126 169h133l55 -92l80 92h138z" />
    <glyph glyph-name="ecaron" unicode="&#x11b;" horiz-adv-x="648" 
d="M207 215v-1q0 -50 27 -80t70 -30q39 0 67.5 16.5t45.5 44.5l169 -13q-42 -83 -117 -124t-179 -41q-78 0 -135.5 32t-87.5 85.5t-30 116.5q0 93 40.5 163.5t113 108.5t166.5 38q80 0 137.5 -29.5t87.5 -80.5t30 -115q0 -45 -11 -91h-394zM268 385q-34 -29 -49 -82h226
q-1 52 -25 81.5t-69 29.5q-49 0 -83 -29zM601 760l-173 -169h-107l-126 169h133l55 -92l80 92h138z" />
    <glyph glyph-name="Gcircumflex" unicode="&#x11c;" horiz-adv-x="825" 
d="M426 423h366l-44 -320q-66 -52 -154.5 -84t-190.5 -32q-109 0 -188.5 43t-121.5 120.5t-42 179.5q0 122 54 223.5t153 160.5t228 59q94 0 164 -35.5t111.5 -91t54.5 -116.5l-193 -15q-14 40 -53 70.5t-102 30.5q-73 0 -126.5 -38.5t-82 -102t-28.5 -136.5
q0 -96 50 -148.5t147 -52.5q92 0 167 42l16 117h-202zM560 833l-55 92l-80 -92h-138l173 169h107l126 -169h-133z" />
    <glyph glyph-name="gcircumflex" unicode="&#x11d;" horiz-adv-x="673" 
d="M655 518l-67 -472q-36 -261 -304 -261q-106 0 -173 40.5t-82 109.5l175 17q9 -27 29.5 -40t54.5 -13q55 0 85.5 32.5t40.5 100.5l9 57q-31 -40 -77.5 -65.5t-104.5 -25.5t-104.5 26t-73 77t-26.5 124q0 86 34.5 156t96 110t137.5 40q62 0 104 -29t61 -73l25 89h160z
M383.5 147q32.5 21 51.5 57t19 79q0 50 -27.5 81t-74.5 31q-38 0 -69.5 -20t-50 -55t-18.5 -80q0 -54 26 -84t74 -30q37 0 69.5 21zM441 591l-55 92l-80 -92h-138l173 169h107l126 -169h-133z" />
    <glyph glyph-name="Gbreve" unicode="&#x11e;" horiz-adv-x="825" 
d="M426 423h366l-44 -320q-66 -52 -154.5 -84t-190.5 -32q-109 0 -188.5 43t-121.5 120.5t-42 179.5q0 122 54 223.5t153 160.5t228 59q94 0 164 -35.5t111.5 -91t54.5 -116.5l-193 -15q-14 40 -53 70.5t-102 30.5q-73 0 -126.5 -38.5t-82 -102t-28.5 -136.5
q0 -96 50 -148.5t147 -52.5q92 0 167 42l16 117h-202zM380.5 872.5q-40.5 46.5 -40.5 129.5h97q0 -41 17.5 -63t51.5 -22q33 0 55.5 22t33.5 63h96q-16 -83 -67.5 -129.5t-127.5 -46.5q-75 0 -115.5 46.5z" />
    <glyph glyph-name="gbreve" unicode="&#x11f;" horiz-adv-x="673" 
d="M655 518l-67 -472q-36 -261 -304 -261q-106 0 -173 40.5t-82 109.5l175 17q9 -27 29.5 -40t54.5 -13q55 0 85.5 32.5t40.5 100.5l9 57q-31 -40 -77.5 -65.5t-104.5 -25.5t-104.5 26t-73 77t-26.5 124q0 86 34.5 156t96 110t137.5 40q62 0 104 -29t61 -73l25 89h160z
M383.5 147q32.5 21 51.5 57t19 79q0 50 -27.5 81t-74.5 31q-38 0 -69.5 -20t-50 -55t-18.5 -80q0 -54 26 -84t74 -30q37 0 69.5 21zM261.5 630.5q-40.5 46.5 -40.5 129.5h97q0 -41 17.5 -63t51.5 -22q33 0 55.5 22t33.5 63h96q-16 -83 -67.5 -129.5t-127.5 -46.5
q-75 0 -115.5 46.5z" />
    <glyph glyph-name="Gdotaccent" unicode="&#x120;" horiz-adv-x="825" 
d="M426 423h366l-44 -320q-66 -52 -154.5 -84t-190.5 -32q-109 0 -188.5 43t-121.5 120.5t-42 179.5q0 122 54 223.5t153 160.5t228 59q94 0 164 -35.5t111.5 -91t54.5 -116.5l-193 -15q-14 40 -53 70.5t-102 30.5q-73 0 -126.5 -38.5t-82 -102t-28.5 -136.5
q0 -96 50 -148.5t147 -52.5q92 0 167 42l16 117h-202zM439.5 871q-26.5 27 -26.5 64q0 38 26.5 65t64.5 27t65 -27t27 -65t-27 -64.5t-65 -26.5t-64.5 27z" />
    <glyph glyph-name="gdotaccent" unicode="&#x121;" horiz-adv-x="673" 
d="M655 518l-67 -472q-36 -261 -304 -261q-106 0 -173 40.5t-82 109.5l175 17q9 -27 29.5 -40t54.5 -13q55 0 85.5 32.5t40.5 100.5l9 57q-31 -40 -77.5 -65.5t-104.5 -25.5t-104.5 26t-73 77t-26.5 124q0 86 34.5 156t96 110t137.5 40q62 0 104 -29t61 -73l25 89h160z
M383.5 147q32.5 21 51.5 57t19 79q0 50 -27.5 81t-74.5 31q-38 0 -69.5 -20t-50 -55t-18.5 -80q0 -54 26 -84t74 -30q37 0 69.5 21zM320.5 629q-26.5 27 -26.5 64q0 38 26.5 65t64.5 27t65 -27t27 -65t-27 -64.5t-65 -26.5t-64.5 27z" />
    <glyph glyph-name="Gcommaaccent" unicode="&#x122;" horiz-adv-x="825" 
d="M426 423h366l-44 -320q-66 -52 -154.5 -84t-190.5 -32q-109 0 -188.5 43t-121.5 120.5t-42 179.5q0 122 54 223.5t153 160.5t228 59q94 0 164 -35.5t111.5 -91t54.5 -116.5l-193 -15q-14 40 -53 70.5t-102 30.5q-73 0 -126.5 -38.5t-82 -102t-28.5 -136.5
q0 -96 50 -148.5t147 -52.5q92 0 167 42l16 117h-202zM354 -211h-108l78 147h172z" />
    <glyph glyph-name="gcommaaccent" unicode="&#x123;" horiz-adv-x="671" 
d="M655 518l-67 -472q-36 -261 -304 -261q-106 0 -173 40.5t-82 109.5l175 17q9 -27 29.5 -40t54.5 -13q55 0 85.5 32.5t40.5 100.5l9 57q-31 -40 -77.5 -65.5t-104.5 -25.5t-104.5 26t-73 77t-26.5 124q0 86 34.5 156t96 110t137.5 40q62 0 104 -29t61 -73l25 89h160z
M383.5 147q32.5 21 51.5 57t19 79q0 50 -27.5 81t-74.5 31q-38 0 -69.5 -20t-50 -55t-18.5 -80q0 -54 26 -84t74 -30q37 0 69.5 21zM425 749h108l-78 -147h-172z" />
    <glyph glyph-name="Hcircumflex" unicode="&#x124;" horiz-adv-x="723" 
d="M733 760l-106 -760h-178l45 320h-248l-45 -320h-178l106 760h179l-41 -294h248l41 294h177zM503 833l-55 92l-80 -92h-138l173 169h107l126 -169h-133z" />
    <glyph glyph-name="hcircumflex" unicode="&#x125;" horiz-adv-x="631" 
d="M553 485q40 -46 40 -120q0 -33 -5 -61l-42 -304h-172l39 282q5 38 5 49q0 37 -17 54t-53 17q-48 0 -77.5 -33t-39.5 -87l-40 -282h-172l107 760h172l-45 -318q34 43 80.5 66t100.5 23q79 0 119 -46zM482 833l-55 92l-80 -92h-138l173 169h107l126 -169h-133z" />
    <glyph glyph-name="Hbar" unicode="&#x126;" horiz-adv-x="784" 
d="M814 545h-79l-76 -545h-178l45 320h-248l-45 -320h-178l76 545h-80l17 122h80l13 93h179l-13 -93h248l13 93h177l-13 -93h80zM558 545h-248l-11 -79h248z" />
    <glyph glyph-name="hbar" unicode="&#x127;" horiz-adv-x="670" 
d="M591 485q40 -46 40 -120q0 -33 -5 -61l-42 -304h-172l39 282q5 38 5 49q0 37 -17 54t-53 17q-48 0 -77.5 -33t-39.5 -87l-40 -282h-172l84 594h-90l14 95h89l10 71h172l-10 -71h200l-14 -95h-199l-22 -152q34 43 80.5 66t100.5 23q79 0 119 -46z" />
    <glyph glyph-name="Itilde" unicode="&#x128;" horiz-adv-x="296" 
d="M129 760h179l-107 -760h-178zM250.5 862.5q-21.5 8.5 -42.5 22.5q-21 12 -33 17.5t-24 5.5q-34 0 -67 -38l-60 50q28 46 66.5 73t86.5 27q27 0 49 -8.5t46 -23.5q18 -12 30.5 -17.5t25.5 -5.5q34 0 67 39l61 -48q-29 -47 -68.5 -74.5t-88.5 -27.5q-27 0 -48.5 8.5z" />
    <glyph glyph-name="itilde" unicode="&#x129;" horiz-adv-x="287" 
d="M94 518h172l-72 -518h-172zM216.5 620.5q-21.5 8.5 -42.5 22.5q-21 12 -33 17.5t-24 5.5q-34 0 -67 -38l-60 50q28 46 66.5 73t86.5 27q27 0 49 -8.5t46 -23.5q18 -12 30.5 -17.5t25.5 -5.5q34 0 67 39l61 -48q-29 -47 -68.5 -74.5t-88.5 -27.5q-27 0 -48.5 8.5z" />
    <glyph glyph-name="Imacron" unicode="&#x12a;" horiz-adv-x="296" 
d="M129 760h179l-107 -760h-178zM99 985h295l-13 -96h-295z" />
    <glyph glyph-name="imacron" unicode="&#x12b;" horiz-adv-x="287" 
d="M94 518h172l-72 -518h-172zM65 743h295l-13 -96h-295z" />
    <glyph glyph-name="Ibreve" unicode="&#x12c;" horiz-adv-x="296" 
d="M129 760h179l-107 -760h-178zM111.5 872.5q-40.5 46.5 -40.5 129.5h97q0 -41 17.5 -63t51.5 -22q33 0 55.5 22t33.5 63h96q-16 -83 -67.5 -129.5t-127.5 -46.5q-75 0 -115.5 46.5z" />
    <glyph glyph-name="ibreve" unicode="&#x12d;" horiz-adv-x="287" 
d="M94 518h172l-72 -518h-172zM77.5 630.5q-40.5 46.5 -40.5 129.5h97q0 -41 17.5 -63t51.5 -22q33 0 55.5 22t33.5 63h96q-16 -83 -67.5 -129.5t-127.5 -46.5q-75 0 -115.5 46.5z" />
    <glyph glyph-name="Iogonek" unicode="&#x12e;" horiz-adv-x="296" 
d="M129 760h179l-107 -760h-178zM59 -22q-23 -21 -23 -56q0 -26 17 -40t47 -14q16 0 44 6l-5 -68q-16 -9 -39.5 -15t-48.5 -6q-53 0 -86 27t-33 77q0 62 49 104t128 51l5 -37q-32 -8 -55 -29z" />
    <glyph glyph-name="iogonek" unicode="&#x12f;" horiz-adv-x="287" 
d="M94 518h172l-72 -518h-172zM136.5 629q-26.5 27 -26.5 64q0 38 26.5 65t64.5 27t65 -27t27 -65t-27 -64.5t-65 -26.5t-64.5 27zM61 -22q-23 -21 -23 -56q0 -26 17 -40t47 -14q16 0 44 6l-5 -68q-16 -9 -39.5 -15t-48.5 -6q-53 0 -86 27t-33 77q0 62 49 104t128 51l5 -37
q-32 -8 -55 -29z" />
    <glyph glyph-name="Idotaccent" unicode="&#x130;" horiz-adv-x="296" 
d="M129 760h179l-107 -760h-178zM170.5 871q-26.5 27 -26.5 64q0 38 26.5 65t64.5 27t65 -27t27 -65t-27 -64.5t-65 -26.5t-64.5 27z" />
    <glyph glyph-name="dotlessi" unicode="&#x131;" horiz-adv-x="287" 
d="M94 518h172l-72 -518h-172z" />
    <glyph glyph-name="IJ" unicode="&#x132;" horiz-adv-x="712" 
d="M129 760h179l-70 -493h-178zM253.5 2q-50.5 15 -77.5 35l75 134q22 -12 49.5 -20t53.5 -8q51 0 84.5 33t44.5 112l66 472h178l-69 -487q-20 -142 -98 -214t-196 -72q-60 0 -110.5 15z" />
    <glyph glyph-name="ij" unicode="&#x133;" horiz-adv-x="590" 
d="M135.5 622.5q-28.5 28.5 -28.5 69.5t28 69.5t69 28.5t69.5 -28.5t28.5 -69.5q0 -40 -28.5 -69t-69.5 -29q-40 0 -68.5 28.5zM93 518h172l-72 -518h-172zM438.5 622.5q-28.5 28.5 -28.5 69.5t28 69.5t69 28.5t69.5 -28.5t28.5 -69.5q0 -40 -28.5 -69t-69.5 -29
q-40 0 -68.5 28.5zM157 -198l29 126q32 -8 64 -8q38 0 54 19.5t23 68.5l71 510h170l-75 -536q-15 -105 -68 -151t-148 -46q-67 0 -120 17z" />
    <glyph glyph-name="Jcircumflex" unicode="&#x134;" horiz-adv-x="654" 
d="M155 17.5q-59 30.5 -91.5 89.5t-32.5 141l177 12q0 -56 23.5 -83.5t66.5 -27.5q106 0 126 135l67 476h178l-66 -474q-22 -156 -101 -227.5t-211 -71.5q-77 0 -136 30.5zM658 833l-55 92l-80 -92h-138l173 169h107l126 -169h-133z" />
    <glyph glyph-name="jcircumflex" unicode="&#x135;" horiz-adv-x="302" 
d="M-130 -198l29 126q32 -8 64 -8q38 0 54 19.5t23 68.5l71 510h170l-75 -536q-15 -105 -68 -151t-148 -46q-67 0 -120 17zM251 591l-28 101l-54 -101h-133l143 169h107l96 -169h-131z" />
    <glyph glyph-name="Kcommaaccent" unicode="&#x136;" horiz-adv-x="673" 
d="M444 446l198 -446h-190l-129 312l-92 -102l-30 -210h-178l106 760h179l-43 -306l260 306h203zM261 -211h-108l78 147h172z" />
    <glyph glyph-name="kcommaaccent" unicode="&#x137;" horiz-adv-x="574" 
d="M380 320l168 -320h-171l-109 218l-56 -51l-23 -167h-170l107 760h169l-56 -400l159 158h199zM226 -211h-108l78 147h172z" />
    <glyph glyph-name="kgreenlandic" unicode="&#x138;" horiz-adv-x="570" 
d="M384 324l160 -324h-169l-103 225l-60 -54l-24 -171h-169l72 518h169l-21 -152l78 73q47 43 88.5 61t99.5 18h47l-20 -133h-31q-28 0 -48.5 -9.5t-46.5 -31.5z" />
    <glyph glyph-name="Lacute" unicode="&#x139;" horiz-adv-x="517" 
d="M481 146l-21 -146h-437l106 760h179l-86 -614h259zM286 829h-109l95 173h173z" />
    <glyph glyph-name="lacute" unicode="&#x13a;" horiz-adv-x="341" 
d="M86 20.5q-45 33.5 -45 113.5q0 15 6 61q0 8 2 20l77 545h170l-76 -538q-3 -27 -3 -45q0 -29 16 -42t53 -13h13l-9 -131q-24 -4 -64 -4q-95 0 -140 33.5zM275 829h-109l95 173h173z" />
    <glyph glyph-name="Lcommaaccent" unicode="&#x13b;" horiz-adv-x="517" 
d="M481 146l-21 -146h-437l106 760h179l-86 -614h259zM199 -211h-108l78 147h172z" />
    <glyph glyph-name="lcommaaccent" unicode="&#x13c;" horiz-adv-x="341" 
d="M86 20.5q-45 33.5 -45 113.5q0 15 6 61q0 8 2 20l77 545h170l-76 -538q-3 -27 -3 -45q0 -29 16 -42t53 -13h13l-9 -131q-24 -4 -64 -4q-95 0 -140 33.5zM101 -211h-108l78 147h172z" />
    <glyph glyph-name="Lcaron" unicode="&#x13d;" horiz-adv-x="561" 
d="M222 146h259l-21 -146h-437l106 760h179zM592 760l-100 -190h-92l35 190h157z" />
    <glyph glyph-name="lcaron" unicode="&#x13e;" horiz-adv-x="501" 
d="M86 20.5q-45 33.5 -45 113.5q0 15 6 61q0 8 2 20l77 545h170l-76 -538q-3 -27 -3 -45q0 -29 16 -42t53 -13h13l-9 -131q-24 -4 -64 -4q-95 0 -140 33.5zM459 587h-92l33 173h157z" />
    <glyph glyph-name="Ldot" unicode="&#x13f;" horiz-adv-x="550" 
d="M481 146l-21 -146h-437l106 760h179l-86 -614h259zM377.317 338.5q-24.6094 25.5 -23.3525 61.5t27.6475 61.5q26.3896 25.5 62.3896 25.5t60.6104 -25.5q24.6094 -25.5 23.3525 -61.5t-27.6475 -61.5q-26.3896 -25.5 -62.3896 -25.5t-60.6104 25.5z" />
    <glyph glyph-name="ldot" unicode="&#x140;" horiz-adv-x="482" 
d="M337.317 338.5q-24.6094 25.5 -23.3525 61.5t27.6475 61.5q26.3896 25.5 62.3896 25.5t60.6104 -25.5q24.6094 -25.5 23.3525 -61.5t-27.6475 -61.5q-26.3896 -25.5 -62.3896 -25.5t-60.6104 25.5zM86 20.5q-45 33.5 -45 113.5q0 15 6 61q0 8 2 20l77 545h170l-76 -538
q-3 -27 -3 -45q0 -29 16 -42t53 -13h13l-9 -131q-24 -4 -64 -4q-95 0 -140 33.5z" />
    <glyph glyph-name="Lslash" unicode="&#x141;" horiz-adv-x="576" 
d="M540 146l-21 -146h-437l38 274l-66 -30l-35 101l119 54l50 361h179l-39 -274l155 71l36 -101l-208 -95l-30 -215h259z" />
    <glyph glyph-name="lslash" unicode="&#x142;" horiz-adv-x="472" 
d="M301 135q16 -13 53 -13h13l-9 -131q-24 -4 -64 -4q-95 0 -140 33.5t-45 113.5q0 15 6 61q0 8 2 20l10 69l-72 -33l-33 94l121 55l51 360h170l-39 -276l130 59l33 -94l-180 -82l-20 -145q-3 -27 -3 -45q0 -29 16 -42z" />
    <glyph glyph-name="Nacute" unicode="&#x143;" horiz-adv-x="728" 
d="M739 760l-106 -760h-176l-186 514l-72 -514h-176l106 760h176l187 -509l71 509h176zM497 829h-109l95 173h173z" />
    <glyph glyph-name="nacute" unicode="&#x144;" horiz-adv-x="631" 
d="M552.5 485q40.5 -46 40.5 -120q0 -23 -5 -61l-42 -304h-172l39 282q4 30 4 49q0 37 -16.5 54t-52.5 17q-50 0 -80 -36t-39 -94l-38 -272h-172l72 518h154l6 -80q34 45 81 69t102 24q78 0 118.5 -46zM414 587h-109l95 173h173z" />
    <glyph glyph-name="Ncommaaccent" unicode="&#x145;" horiz-adv-x="728" 
d="M739 760l-106 -760h-176l-186 514l-72 -514h-176l106 760h176l187 -509l71 509h176zM291 -211h-108l78 147h172z" />
    <glyph glyph-name="ncommaaccent" unicode="&#x146;" horiz-adv-x="631" 
d="M552.5 485q40.5 -46 40.5 -120q0 -23 -5 -61l-42 -304h-172l39 282q4 30 4 49q0 37 -16.5 54t-52.5 17q-50 0 -80 -36t-39 -94l-38 -272h-172l72 518h154l6 -80q34 45 81 69t102 24q78 0 118.5 -46zM242 -211h-108l78 147h172z" />
    <glyph glyph-name="Ncaron" unicode="&#x147;" horiz-adv-x="728" 
d="M739 760l-106 -760h-176l-186 514l-72 -514h-176l106 760h176l187 -509l71 509h176zM674 1002l-173 -169h-107l-126 169h133l55 -92l80 92h138z" />
    <glyph glyph-name="ncaron" unicode="&#x148;" horiz-adv-x="631" 
d="M552.5 485q40.5 -46 40.5 -120q0 -23 -5 -61l-42 -304h-172l39 282q4 30 4 49q0 37 -16.5 54t-52.5 17q-50 0 -80 -36t-39 -94l-38 -272h-172l72 518h154l6 -80q34 45 81 69t102 24q78 0 118.5 -46zM591 760l-173 -169h-107l-126 169h133l55 -92l80 92h138z" />
    <glyph glyph-name="napostrophe" unicode="&#x149;" horiz-adv-x="717" 
d="M143 587h-97l95 173h162zM638.5 485q40.5 -46 40.5 -120q0 -23 -5 -61l-42 -304h-172l39 282q4 30 4 49q0 37 -16.5 54t-52.5 17q-50 0 -80 -36t-39 -94l-38 -272h-172l72 518h154l6 -80q34 45 81 69t102 24q78 0 118.5 -46z" />
    <glyph glyph-name="Eng" unicode="&#x14a;" horiz-adv-x="728" 
d="M740 760l-96 -674q-21 -150 -103 -225.5t-222 -75.5q-32 0 -64 5l30 138q22 -4 45 -4q51 0 89 33t46 100l2 12l-193 463l-75 -532h-176l106 760h177l193 -459l64 459h177z" />
    <glyph glyph-name="eng" unicode="&#x14b;" horiz-adv-x="631" 
d="M552.5 485q40.5 -46 40.5 -120q0 -23 -5 -61l-42 -304h-1l-2 -18q-14 -102 -68.5 -149.5t-149.5 -47.5q-30 0 -62 4.5t-56 12.5l28 126q32 -8 65 -8q36 0 51.5 19t22.5 66l25 181h1l13 96q4 30 4 49q0 37 -16.5 54t-52.5 17q-50 0 -80 -36t-39 -94h-1l-37 -272h-172
l72 518h154l5 -81q34 46 81 70t103 24q78 0 118.5 -46z" />
    <glyph glyph-name="Omacron" unicode="&#x14c;" horiz-adv-x="855" 
d="M218 31q-79 44 -122 124t-43 186q0 124 58 222.5t157.5 154t218.5 55.5q105 0 184.5 -44t122.5 -124t43 -186q0 -124 -58 -222.5t-158 -154t-219 -55.5q-105 0 -184 44zM530.5 183.5q55.5 34.5 88.5 96t33 137.5q0 90 -46 142t-126 52q-65 0 -121 -34.5t-89 -95.5
t-33 -138q0 -90 46.5 -142t126.5 -52q65 0 120.5 34.5zM382 985h295l-13 -96h-295z" />
    <glyph glyph-name="omacron" unicode="&#x14d;" horiz-adv-x="657" 
d="M161 16.5q-59 29.5 -91.5 82.5t-32.5 123q0 95 41 165t114.5 107t169.5 37q75 0 134 -29.5t91.5 -83t32.5 -122.5q0 -95 -40.5 -165t-114 -107t-169.5 -37q-76 0 -135 29.5zM378 143.5q32 20.5 51 57t19 82.5q0 53 -26.5 82.5t-71.5 29.5q-39 0 -71 -20.5t-51 -57
t-19 -82.5q0 -53 26.5 -82.5t71.5 -29.5q39 0 71 20.5zM249 744h295l-13 -96h-295z" />
    <glyph glyph-name="Obreve" unicode="&#x14e;" horiz-adv-x="855" 
d="M218 31q-79 44 -122 124t-43 186q0 124 58 222.5t157.5 154t218.5 55.5q105 0 184.5 -44t122.5 -124t43 -186q0 -124 -58 -222.5t-158 -154t-219 -55.5q-105 0 -184 44zM530.5 183.5q55.5 34.5 88.5 96t33 137.5q0 90 -46 142t-126 52q-65 0 -121 -34.5t-89 -95.5
t-33 -138q0 -90 46.5 -142t126.5 -52q65 0 120.5 34.5zM394.5 872.5q-40.5 46.5 -40.5 129.5h97q0 -41 17.5 -63t51.5 -22q33 0 55.5 22t33.5 63h96q-16 -83 -67.5 -129.5t-127.5 -46.5q-75 0 -115.5 46.5z" />
    <glyph glyph-name="obreve" unicode="&#x14f;" horiz-adv-x="657" 
d="M161 16.5q-59 29.5 -91.5 82.5t-32.5 123q0 95 41 165t114.5 107t169.5 37q75 0 134 -29.5t91.5 -83t32.5 -122.5q0 -95 -40.5 -165t-114 -107t-169.5 -37q-76 0 -135 29.5zM378 143.5q32 20.5 51 57t19 82.5q0 53 -26.5 82.5t-71.5 29.5q-39 0 -71 -20.5t-51 -57
t-19 -82.5q0 -53 26.5 -82.5t71.5 -29.5q39 0 71 20.5zM261.5 631.5q-40.5 46.5 -40.5 129.5h97q0 -41 17.5 -63t51.5 -22q33 0 55.5 22t33.5 63h96q-16 -83 -67.5 -129.5t-127.5 -46.5q-75 0 -115.5 46.5z" />
    <glyph glyph-name="Ohungarumlaut" unicode="&#x150;" horiz-adv-x="855" 
d="M218 31q-79 44 -122 124t-43 186q0 124 58 222.5t157.5 154t218.5 55.5q105 0 184.5 -44t122.5 -124t43 -186q0 -124 -58 -222.5t-158 -154t-219 -55.5q-105 0 -184 44zM530.5 183.5q55.5 34.5 88.5 96t33 137.5q0 90 -46 142t-126 52q-65 0 -121 -34.5t-89 -95.5
t-33 -138q0 -90 46.5 -142t126.5 -52q65 0 120.5 34.5zM431 829h-109l95 173h173zM658 829h-109l95 173h173z" />
    <glyph glyph-name="ohungarumlaut" unicode="&#x151;" horiz-adv-x="657" 
d="M161 16.5q-59 29.5 -91.5 82.5t-32.5 123q0 95 41 165t114.5 107t169.5 37q75 0 134 -29.5t91.5 -83t32.5 -122.5q0 -95 -40.5 -165t-114 -107t-169.5 -37q-76 0 -135 29.5zM378 143.5q32 20.5 51 57t19 82.5q0 53 -26.5 82.5t-71.5 29.5q-39 0 -71 -20.5t-51 -57
t-19 -82.5q0 -53 26.5 -82.5t71.5 -29.5q39 0 71 20.5zM298 588h-109l95 173h173zM525 588h-109l95 173h173z" />
    <glyph glyph-name="OE" unicode="&#x152;" horiz-adv-x="1144" 
d="M218 31q-79 44 -122 124t-43 186q0 124 58 222.5t157.5 154t218.5 55.5q105 0 184.5 -44t122.5 -124t43 -186q0 -124 -58 -222.5t-158 -154t-219 -55.5q-105 0 -184 44zM530.5 183.5q55.5 34.5 88.5 96t33 137.5q0 90 -46 142t-126 52q-65 0 -121 -34.5t-89 -95.5
t-33 -138q0 -90 46.5 -142t126.5 -52q65 0 120.5 34.5zM867 614l-21 -150h269l-20 -140h-268l-25 -178h280l-20 -146h-459l106 760h457l-20 -146h-279z" />
    <glyph glyph-name="oe" unicode="&#x153;" horiz-adv-x="1055" 
d="M161 16.5q-59 29.5 -91.5 82.5t-32.5 123q0 95 41 165t114.5 107t169.5 37q75 0 134 -29.5t91.5 -83t32.5 -122.5q0 -95 -40.5 -165t-114 -107t-169.5 -37q-76 0 -135 29.5zM378 143.5q32 20.5 51 57t19 82.5q0 53 -26.5 82.5t-71.5 29.5q-39 0 -71 -20.5t-51 -57
t-19 -82.5q0 -53 26.5 -82.5t71.5 -29.5q39 0 71 20.5zM615 215v-1q0 -50 27 -80t70 -30q39 0 67.5 16.5t45.5 44.5l169 -13q-42 -83 -117 -124t-179 -41q-78 0 -135.5 32t-87.5 85.5t-30 116.5q0 93 40.5 163.5t113 108.5t166.5 38q80 0 137.5 -29.5t87.5 -80.5t30 -115
q0 -45 -11 -91h-394zM676 385q-34 -29 -49 -82h226q-1 52 -25 81.5t-69 29.5q-49 0 -83 -29z" />
    <glyph glyph-name="Racute" unicode="&#x154;" horiz-adv-x="678" 
d="M632.5 364.5q-40.5 -70.5 -114.5 -109.5l98 -255h-183l-76 217h-8h-117l-31 -217h-178l106 760h284q126 0 193 -61.5t67 -169.5q0 -94 -40.5 -164.5zM251 357h89q75 0 114 45t39 110q0 108 -123 108h-82zM442 829h-109l95 173h173z" />
    <glyph glyph-name="racute" unicode="&#x155;" horiz-adv-x="433" 
d="M457 526l-33 -156q-43 8 -65 8q-54 0 -88 -33.5t-46 -93.5l-35 -251h-172l73 518h150l8 -95q32 53 75.5 80.5t90.5 27.5q29 0 42 -5zM316 587h-109l95 173h173z" />
    <glyph glyph-name="Rcommaaccent" unicode="&#x156;" horiz-adv-x="678" 
d="M632.5 364.5q-40.5 -70.5 -114.5 -109.5l98 -255h-183l-76 217h-8h-117l-31 -217h-178l106 760h284q126 0 193 -61.5t67 -169.5q0 -94 -40.5 -164.5zM251 357h89q75 0 114 45t39 110q0 108 -123 108h-82zM255 -211h-108l78 147h172z" />
    <glyph glyph-name="rcommaaccent" unicode="&#x157;" horiz-adv-x="433" 
d="M457 526l-33 -156q-43 8 -65 8q-54 0 -88 -33.5t-46 -93.5l-35 -251h-172l73 518h150l8 -95q32 53 75.5 80.5t90.5 27.5q29 0 42 -5zM98 -211h-108l78 147h172z" />
    <glyph glyph-name="Rcaron" unicode="&#x158;" horiz-adv-x="678" 
d="M632.5 364.5q-40.5 -70.5 -114.5 -109.5l98 -255h-183l-76 217h-8h-117l-31 -217h-178l106 760h284q126 0 193 -61.5t67 -169.5q0 -94 -40.5 -164.5zM251 357h89q75 0 114 45t39 110q0 108 -123 108h-82zM619 1002l-173 -169h-107l-126 169h133l55 -92l80 92h138z" />
    <glyph glyph-name="rcaron" unicode="&#x159;" horiz-adv-x="433" 
d="M457 526l-33 -156q-43 8 -65 8q-54 0 -88 -33.5t-46 -93.5l-35 -251h-172l73 518h150l8 -95q32 53 75.5 80.5t90.5 27.5q29 0 42 -5zM493 760l-173 -169h-107l-126 169h133l55 -92l80 92h138z" />
    <glyph glyph-name="Sacute" unicode="&#x15a;" horiz-adv-x="693" 
d="M104 51q-72 64 -72 169l181 13q0 -63 35.5 -87.5t85.5 -24.5q57 0 93 26.5t36 70.5q0 33 -20 48.5t-66 30.5l-85 27q-105 33 -154 81.5t-49 131.5q0 114 84.5 175t221.5 61q100 0 164 -32t92.5 -82.5t28.5 -107.5l-184 -15q-2 104 -108 104q-49 0 -80.5 -21.5
t-31.5 -60.5q0 -28 21 -46.5t73 -34.5l83 -26q67 -21 108.5 -44.5t65 -61.5t23.5 -97q0 -82 -43.5 -141t-119 -89.5t-170.5 -30.5q-141 0 -213 64zM459 829h-109l95 173h173z" />
    <glyph glyph-name="sacute" unicode="&#x15b;" 
d="M73 29q-62 42 -67 117l190 13q0 -64 64 -64q34 0 55 13t21 41q0 21 -19.5 32t-72.5 27l-40 12q-78 24 -117.5 55t-39.5 88q0 88 71.5 128t191.5 40q104 0 165 -37t67 -105l-181 -13q0 22 -15.5 36t-46.5 14q-30 0 -47.5 -11t-17.5 -30q0 -14 15.5 -23t54.5 -20l49 -13
q58 -16 94 -32.5t57.5 -45t21.5 -74.5q0 -94 -71.5 -142t-205.5 -48q-114 0 -176 42zM362 587h-109l95 173h173z" />
    <glyph glyph-name="Scircumflex" unicode="&#x15c;" horiz-adv-x="693" 
d="M104 51q-72 64 -72 169l181 13q0 -63 35.5 -87.5t85.5 -24.5q57 0 93 26.5t36 70.5q0 33 -20 48.5t-66 30.5l-85 27q-105 33 -154 81.5t-49 131.5q0 114 84.5 175t221.5 61q100 0 164 -32t92.5 -82.5t28.5 -107.5l-184 -15q-2 104 -108 104q-49 0 -80.5 -21.5
t-31.5 -60.5q0 -28 21 -46.5t73 -34.5l83 -26q67 -21 108.5 -44.5t65 -61.5t23.5 -97q0 -82 -43.5 -141t-119 -89.5t-170.5 -30.5q-141 0 -213 64zM472 833l-55 92l-80 -92h-138l173 169h107l126 -169h-133z" />
    <glyph glyph-name="scircumflex" unicode="&#x15d;" 
d="M73 29q-62 42 -67 117l190 13q0 -64 64 -64q34 0 55 13t21 41q0 21 -19.5 32t-72.5 27l-40 12q-78 24 -117.5 55t-39.5 88q0 88 71.5 128t191.5 40q104 0 165 -37t67 -105l-181 -13q0 22 -15.5 36t-46.5 14q-30 0 -47.5 -11t-17.5 -30q0 -14 15.5 -23t54.5 -20l49 -13
q58 -16 94 -32.5t57.5 -45t21.5 -74.5q0 -94 -71.5 -142t-205.5 -48q-114 0 -176 42zM375 591l-55 92l-80 -92h-138l173 169h107l126 -169h-133z" />
    <glyph glyph-name="Scedilla" unicode="&#x15e;" horiz-adv-x="693" 
d="M104 51q-72 64 -72 169l181 13q0 -63 35.5 -87.5t85.5 -24.5q57 0 93 26.5t36 70.5q0 33 -20 48.5t-66 30.5l-85 27q-105 33 -154 81.5t-49 131.5q0 114 84.5 175t221.5 61q100 0 164 -32t92.5 -82.5t28.5 -107.5l-184 -15q-2 104 -108 104q-49 0 -80.5 -21.5
t-31.5 -60.5q0 -28 21 -46.5t73 -34.5l83 -26q67 -21 108.5 -44.5t65 -61.5t23.5 -97q0 -82 -43.5 -141t-119 -89.5t-170.5 -30.5q-141 0 -213 64zM395.5 -56.5q22.5 -19.5 22.5 -53.5q0 -49 -35.5 -77t-94.5 -28q-55 0 -90 23l30 56q22 -13 47 -13q19 0 31 9.5t12 26.5
q0 13 -7.5 19.5t-21.5 6.5q-20 0 -37 -14l-27 19l46 108h71l-22 -64q5 1 15 1q38 0 60.5 -19.5z" />
    <glyph glyph-name="scedilla" unicode="&#x15f;" 
d="M73 29q-62 42 -67 117l190 13q0 -64 64 -64q34 0 55 13t21 41q0 21 -19.5 32t-72.5 27l-40 12q-78 24 -117.5 55t-39.5 88q0 88 71.5 128t191.5 40q104 0 165 -37t67 -105l-181 -13q0 22 -15.5 36t-46.5 14q-30 0 -47.5 -11t-17.5 -30q0 -14 15.5 -23t54.5 -20l49 -13
q58 -16 94 -32.5t57.5 -45t21.5 -74.5q0 -94 -71.5 -142t-205.5 -48q-114 0 -176 42zM330.5 -56.5q22.5 -19.5 22.5 -53.5q0 -49 -35.5 -77t-94.5 -28q-55 0 -90 23l30 56q22 -13 47 -13q19 0 31 9.5t12 26.5q0 13 -7.5 19.5t-21.5 6.5q-20 0 -37 -14l-27 19l46 108h71
l-22 -64q5 1 15 1q38 0 60.5 -19.5z" />
    <glyph glyph-name="Scaron" unicode="&#x160;" horiz-adv-x="693" 
d="M104 51q-72 64 -72 169l181 13q0 -63 35.5 -87.5t85.5 -24.5q57 0 93 26.5t36 70.5q0 33 -20 48.5t-66 30.5l-85 27q-105 33 -154 81.5t-49 131.5q0 114 84.5 175t221.5 61q100 0 164 -32t92.5 -82.5t28.5 -107.5l-184 -15q-2 104 -108 104q-49 0 -80.5 -21.5
t-31.5 -60.5q0 -28 21 -46.5t73 -34.5l83 -26q67 -21 108.5 -44.5t65 -61.5t23.5 -97q0 -82 -43.5 -141t-119 -89.5t-170.5 -30.5q-141 0 -213 64zM636 1002l-173 -169h-107l-126 169h133l55 -92l80 92h138z" />
    <glyph glyph-name="scaron" unicode="&#x161;" 
d="M73 29q-62 42 -67 117l190 13q0 -64 64 -64q34 0 55 13t21 41q0 21 -19.5 32t-72.5 27l-40 12q-78 24 -117.5 55t-39.5 88q0 88 71.5 128t191.5 40q104 0 165 -37t67 -105l-181 -13q0 22 -15.5 36t-46.5 14q-30 0 -47.5 -11t-17.5 -30q0 -14 15.5 -23t54.5 -20l49 -13
q58 -16 94 -32.5t57.5 -45t21.5 -74.5q0 -94 -71.5 -142t-205.5 -48q-114 0 -176 42zM539 760l-173 -169h-107l-126 169h133l55 -92l80 92h138z" />
    <glyph glyph-name="uni0162" unicode="&#x162;" horiz-adv-x="625" 
d="M653 614h-202l-86 -614h-178l86 614h-202l21 146h581zM352.5 -56.5q22.5 -19.5 22.5 -53.5q0 -49 -35.5 -77t-94.5 -28q-55 0 -90 23l30 56q22 -13 47 -13q19 0 31 9.5t12 26.5q0 13 -7.5 19.5t-21.5 6.5q-20 0 -37 -14l-27 19l46 108h71l-22 -64q5 1 15 1
q38 0 60.5 -19.5z" />
    <glyph glyph-name="uni0163" unicode="&#x163;" horiz-adv-x="430" 
d="M248 211q-4 -24 -4 -39q0 -26 13.5 -38.5t43.5 -12.5q40 0 70 7l-8 -129q-58 -12 -131 -12q-76 0 -119 33.5t-43 113.5q0 25 5 57l27 194h-78l27 133h70l18 128h170l-18 -128h126l-18 -133h-127zM283.5 -56.5q22.5 -19.5 22.5 -53.5q0 -49 -35.5 -77t-94.5 -28
q-55 0 -90 23l30 56q22 -13 47 -13q19 0 31 9.5t12 26.5q0 13 -7.5 19.5t-21.5 6.5q-20 0 -37 -14l-27 19l46 108h71l-22 -64q5 1 15 1q38 0 60.5 -19.5z" />
    <glyph glyph-name="Tcaron" unicode="&#x164;" horiz-adv-x="625" 
d="M653 614h-202l-86 -614h-178l86 614h-202l21 146h581zM623 1002l-173 -169h-107l-126 169h133l55 -92l80 92h138z" />
    <glyph glyph-name="tcaron" unicode="&#x165;" horiz-adv-x="539" 
d="M609 760l-159 -173h-96l94 173h161zM291 518h126l-18 -133h-127l-24 -174q-4 -24 -4 -39q0 -26 13.5 -38.5t43.5 -12.5q40 0 70 7l-8 -129q-58 -12 -131 -12q-76 0 -119 33.5t-43 113.5q0 25 5 57l27 194h-78l27 133h70l18 128h170z" />
    <glyph glyph-name="Tbar" unicode="&#x166;" horiz-adv-x="625" 
d="M451 614l-23 -170h141l-18 -122h-141l-45 -322h-178l45 322h-133l17 122h133l24 170h-202l21 146h581l-20 -146h-202z" />
    <glyph glyph-name="tbar" unicode="&#x167;" horiz-adv-x="430" 
d="M272 385l-8 -62h127l-12 -87h-127l-4 -25q-4 -24 -4 -39q0 -26 13.5 -38.5t43.5 -12.5q40 0 70 7l-8 -129q-58 -12 -131 -12q-76 0 -119 33.5t-43 113.5q0 25 5 57l6 45h-67l12 87h68l8 62h-78l27 133h70l18 128h170l-18 -128h126l-18 -133h-127z" />
    <glyph glyph-name="Utilde" unicode="&#x168;" horiz-adv-x="736" 
d="M133.5 53.5q-75.5 66.5 -75.5 188.5q0 39 6 76l62 442h179l-63 -446q-4 -30 -4 -50q0 -57 30.5 -86t86.5 -29q63 0 102.5 39t50.5 120l65 452h178l-62 -445q-17 -118 -58.5 -189.5t-112.5 -105t-180 -33.5q-129 0 -204.5 66.5zM473.5 862.5q-21.5 8.5 -42.5 22.5
q-21 12 -33 17.5t-24 5.5q-34 0 -67 -38l-60 50q28 46 66.5 73t86.5 27q27 0 49 -8.5t46 -23.5q18 -12 30.5 -17.5t25.5 -5.5q34 0 67 39l61 -48q-29 -47 -68.5 -74.5t-88.5 -27.5q-27 0 -48.5 8.5z" />
    <glyph glyph-name="utilde" unicode="&#x169;" horiz-adv-x="624" 
d="M606 518l-72 -518h-154l-3 82q-34 -46 -80.5 -70.5t-102.5 -24.5q-75 0 -115.5 43t-40.5 112q0 29 4 53l44 323h172l-40 -291q-3 -21 -3 -42q0 -70 69 -70q49 0 76.5 38.5t35.5 93.5h1l37 271h172zM380.5 620.5q-21.5 8.5 -42.5 22.5q-21 12 -33 17.5t-24 5.5
q-34 0 -67 -38l-60 50q28 46 66.5 73t86.5 27q27 0 49 -8.5t46 -23.5q18 -12 30.5 -17.5t25.5 -5.5q34 0 67 39l61 -48q-29 -47 -68.5 -74.5t-88.5 -27.5q-27 0 -48.5 8.5z" />
    <glyph glyph-name="Umacron" unicode="&#x16a;" horiz-adv-x="736" 
d="M133.5 53.5q-75.5 66.5 -75.5 188.5q0 39 6 76l62 442h179l-63 -446q-4 -30 -4 -50q0 -57 30.5 -86t86.5 -29q63 0 102.5 39t50.5 120l65 452h178l-62 -445q-17 -118 -58.5 -189.5t-112.5 -105t-180 -33.5q-129 0 -204.5 66.5zM322 985h295l-13 -96h-295z" />
    <glyph glyph-name="umacron" unicode="&#x16b;" horiz-adv-x="624" 
d="M606 518l-72 -518h-154l-3 82q-34 -46 -80.5 -70.5t-102.5 -24.5q-75 0 -115.5 43t-40.5 112q0 29 4 53l44 323h172l-40 -291q-3 -21 -3 -42q0 -70 69 -70q49 0 76.5 38.5t35.5 93.5h1l37 271h172zM229 743h295l-13 -96h-295z" />
    <glyph glyph-name="Ubreve" unicode="&#x16c;" horiz-adv-x="736" 
d="M133.5 53.5q-75.5 66.5 -75.5 188.5q0 39 6 76l62 442h179l-63 -446q-4 -30 -4 -50q0 -57 30.5 -86t86.5 -29q63 0 102.5 39t50.5 120l65 452h178l-62 -445q-17 -118 -58.5 -189.5t-112.5 -105t-180 -33.5q-129 0 -204.5 66.5zM334.5 872.5q-40.5 46.5 -40.5 129.5h97
q0 -41 17.5 -63t51.5 -22q33 0 55.5 22t33.5 63h96q-16 -83 -67.5 -129.5t-127.5 -46.5q-75 0 -115.5 46.5z" />
    <glyph glyph-name="ubreve" unicode="&#x16d;" horiz-adv-x="624" 
d="M606 518l-72 -518h-154l-3 82q-34 -46 -80.5 -70.5t-102.5 -24.5q-75 0 -115.5 43t-40.5 112q0 29 4 53l44 323h172l-40 -291q-3 -21 -3 -42q0 -70 69 -70q49 0 76.5 38.5t35.5 93.5h1l37 271h172zM241.5 630.5q-40.5 46.5 -40.5 129.5h97q0 -41 17.5 -63t51.5 -22
q33 0 55.5 22t33.5 63h96q-16 -83 -67.5 -129.5t-127.5 -46.5q-75 0 -115.5 46.5z" />
    <glyph glyph-name="Uring" unicode="&#x16e;" horiz-adv-x="736" 
d="M133.5 53.5q-75.5 66.5 -75.5 188.5q0 39 6 76l62 442h179l-63 -446q-4 -30 -4 -50q0 -57 30.5 -86t86.5 -29q63 0 102.5 39t50.5 120l65 452h178l-62 -445q-17 -118 -58.5 -189.5t-112.5 -105t-180 -33.5q-129 0 -204.5 66.5zM370 858.5q-35 35.5 -35 85.5q0 49 35 84
t85 35t85.5 -35t35.5 -84q0 -50 -35.5 -85.5t-85.5 -35.5t-85 35.5zM494.5 902q16.5 17 16.5 42q0 24 -16.5 40.5t-39.5 16.5t-39.5 -16.5t-16.5 -40.5q0 -25 16.5 -42t39.5 -17t39.5 17z" />
    <glyph glyph-name="uring" unicode="&#x16f;" horiz-adv-x="624" 
d="M606 518l-72 -518h-154l-3 82q-34 -46 -80.5 -70.5t-102.5 -24.5q-75 0 -115.5 43t-40.5 112q0 29 4 53l44 323h172l-40 -291q-3 -21 -3 -42q0 -70 69 -70q49 0 76.5 38.5t35.5 93.5h1l37 271h172zM277 616.5q-35 35.5 -35 85.5q0 49 35 84t85 35t85.5 -35t35.5 -84
q0 -50 -35.5 -85.5t-85.5 -35.5t-85 35.5zM401.5 660q16.5 17 16.5 42q0 24 -16.5 40.5t-39.5 16.5t-39.5 -16.5t-16.5 -40.5q0 -25 16.5 -42t39.5 -17t39.5 17z" />
    <glyph glyph-name="Uhungarumlaut" unicode="&#x170;" horiz-adv-x="736" 
d="M133.5 53.5q-75.5 66.5 -75.5 188.5q0 39 6 76l62 442h179l-63 -446q-4 -30 -4 -50q0 -57 30.5 -86t86.5 -29q63 0 102.5 39t50.5 120l65 452h178l-62 -445q-17 -118 -58.5 -189.5t-112.5 -105t-180 -33.5q-129 0 -204.5 66.5zM371 829h-109l95 173h173zM598 829h-109
l95 173h173z" />
    <glyph glyph-name="uhungarumlaut" unicode="&#x171;" horiz-adv-x="624" 
d="M606 518l-72 -518h-154l-3 82q-34 -46 -80.5 -70.5t-102.5 -24.5q-75 0 -115.5 43t-40.5 112q0 29 4 53l44 323h172l-40 -291q-3 -21 -3 -42q0 -70 69 -70q49 0 76.5 38.5t35.5 93.5h1l37 271h172zM278 587h-109l95 173h173zM505 587h-109l95 173h173z" />
    <glyph glyph-name="Uogonek" unicode="&#x172;" horiz-adv-x="736" 
d="M133.5 53.5q-75.5 66.5 -75.5 188.5q0 39 6 76l62 442h179l-63 -446q-4 -30 -4 -50q0 -57 30.5 -86t86.5 -29q63 0 102.5 39t50.5 120l65 452h178l-62 -445q-17 -118 -58.5 -189.5t-112.5 -105t-180 -33.5q-129 0 -204.5 66.5zM420 -22q-23 -21 -23 -56q0 -26 17 -40
t47 -14q16 0 44 6l-5 -68q-16 -9 -39.5 -15t-48.5 -6q-53 0 -86 27t-33 77q0 62 49 104t128 51l5 -37q-32 -8 -55 -29z" />
    <glyph glyph-name="uogonek" unicode="&#x173;" horiz-adv-x="624" 
d="M606 518l-72 -518h-154l-3 82q-34 -46 -80.5 -70.5t-102.5 -24.5q-75 0 -115.5 43t-40.5 112q0 29 4 53l44 323h172l-40 -291q-3 -21 -3 -42q0 -70 69 -70q49 0 76.5 38.5t35.5 93.5h1l37 271h172zM430 -22q-23 -21 -23 -56q0 -26 17 -40t47 -14q16 0 44 6l-5 -68
q-16 -9 -39.5 -15t-48.5 -6q-53 0 -86 27t-33 77q0 62 49 104t128 51l5 -37q-32 -8 -55 -29z" />
    <glyph glyph-name="Wcircumflex" unicode="&#x174;" horiz-adv-x="1036" 
d="M1094 760l-303 -760h-184l-54 508l-196 -508h-183l-92 760h184l31 -580l211 580h157l49 -580l193 580h187zM666 833l-55 92l-80 -92h-138l173 169h107l126 -169h-133z" />
    <glyph glyph-name="wcircumflex" unicode="&#x175;" horiz-adv-x="847" 
d="M880 518l-238 -518h-168l-44 319l-127 -319h-169l-94 518h178l31 -362l139 362h139l41 -358l128 358h184zM531 591l-55 92l-80 -92h-138l173 169h107l126 -169h-133z" />
    <glyph glyph-name="Ycircumflex" unicode="&#x176;" horiz-adv-x="650" 
d="M730 760l-488 -760h-188l200 312l-187 448h187l103 -289l185 289h188zM468 833l-55 92l-80 -92h-138l173 169h107l126 -169h-133z" />
    <glyph glyph-name="ycircumflex" unicode="&#x177;" horiz-adv-x="625" 
d="M606 518l-67 -481q-17 -126 -93.5 -189t-201.5 -63q-104 0 -165.5 40t-72.5 111l174 16q8 -53 74 -53q50 0 76.5 32t35.5 99l8 59q-33 -43 -78.5 -66t-99.5 -23q-75 0 -115.5 43t-40.5 112q0 23 5 53l42 310h172l-38 -277q-4 -30 -4 -43q0 -36 17.5 -52t51.5 -16
q50 0 77.5 38t34.5 92l36 258h172zM427 591l-55 92l-80 -92h-138l173 169h107l126 -169h-133z" />
    <glyph glyph-name="Ydieresis" unicode="&#x178;" horiz-adv-x="650" 
d="M730 760l-488 -760h-188l200 312l-187 448h187l103 -289l185 289h188zM243.5 872.5q-23.5 23.5 -23.5 56.5q0 34 23.5 57.5t56.5 23.5t57 -23.5t24 -57.5q0 -33 -24 -56.5t-57 -23.5t-56.5 23.5zM469.5 872.5q-23.5 23.5 -23.5 56.5q0 34 23.5 57.5t56.5 23.5t56 -23.5
t23 -57.5q0 -33 -23 -56.5t-56 -23.5t-56.5 23.5z" />
    <glyph glyph-name="Zacute" unicode="&#x179;" horiz-adv-x="651" 
d="M274 145h329l-21 -145h-598l427 615h-301l21 145h570zM476 829h-109l95 173h173z" />
    <glyph glyph-name="zacute" unicode="&#x17a;" horiz-adv-x="537" 
d="M253 130h237l-18 -130h-493l297 389h-215l27 129h464zM377 587h-109l95 173h173z" />
    <glyph glyph-name="Zdotaccent" unicode="&#x17b;" horiz-adv-x="651" 
d="M274 145h329l-21 -145h-598l427 615h-301l21 145h570zM368.5 871q-26.5 27 -26.5 64q0 38 26.5 65t64.5 27t65 -27t27 -65t-27 -64.5t-65 -26.5t-64.5 27z" />
    <glyph glyph-name="zdotaccent" unicode="&#x17c;" horiz-adv-x="537" 
d="M253 130h237l-18 -130h-493l297 389h-215l27 129h464zM269.5 629q-26.5 27 -26.5 64q0 38 26.5 65t64.5 27t65 -27t27 -65t-27 -64.5t-65 -26.5t-64.5 27z" />
    <glyph glyph-name="Zcaron" unicode="&#x17d;" horiz-adv-x="651" 
d="M274 145h329l-21 -145h-598l427 615h-301l21 145h570zM653 1002l-173 -169h-107l-126 169h133l55 -92l80 92h138z" />
    <glyph glyph-name="zcaron" unicode="&#x17e;" horiz-adv-x="537" 
d="M253 130h237l-18 -130h-493l297 389h-215l27 129h464zM554 760l-173 -169h-107l-126 169h133l55 -92l80 92h138z" />
    <glyph glyph-name="longs" unicode="&#x17f;" horiz-adv-x="351" 
d="M421.5 766.5q39.5 -6.5 58.5 -14.5l-25 -116q-33 11 -75 11q-38 0 -57.5 -18.5t-26.5 -68.5l-78 -560h-171l53 385h-76l30 133h64l8 56q15 105 70 152t152 47q34 0 73.5 -6.5z" />
    <glyph glyph-name="uni018F" unicode="&#x18f;" horiz-adv-x="854" 
d="M674.5 727q78.5 -46 119.5 -125.5t41 -178.5q0 -124 -58.5 -223.5t-158 -156t-219.5 -56.5q-106 0 -184.5 44.5t-120.5 122.5t-42 174q0 53 10 107h588q-4 82 -50.5 129t-121.5 47q-57 0 -105.5 -26t-80.5 -74l-193 22q57 111 159 175.5t230 64.5q108 0 186.5 -46z
M546.5 194.5q61.5 45.5 87.5 120.5h-399q6 -78 52 -122t121 -44q77 0 138.5 45.5z" />
    <glyph glyph-name="florin" unicode="&#x192;" horiz-adv-x="613" 
d="M497.5 599.5q-24.5 -25.5 -36.5 -76.5l-16 -66h77l-13 -94h-88l-82 -333q-30 -121 -96 -176t-174 -55h-54l33 135q50 0 75.5 25.5t38.5 75.5l81 328h-67l13 94h77l18 74q30 121 94.5 175t170.5 54h54l-33 -135q-48 0 -72.5 -25.5z" />
    <glyph glyph-name="uni019D" unicode="&#x19d;" horiz-adv-x="728" 
d="M738 760l-106 -760h-176l-186 514l-60 -428q-21 -150 -103 -225.5t-222 -75.5q-33 0 -65 5l31 138q22 -4 45 -4q51 0 88.5 33t46.5 100l99 703h175l186 -507l71 507h176z" />
    <glyph glyph-name="uni01CD" unicode="&#x1cd;" horiz-adv-x="699" 
d="M460 110h-264l-46 -110h-185l353 760h202l141 -760h-186zM443 239l-47 349l-146 -349h193zM659 1002l-173 -169h-107l-126 169h133l55 -92l80 92h138z" />
    <glyph glyph-name="uni01CE" unicode="&#x1ce;" horiz-adv-x="672" 
d="M654 518l-72 -518h-158v85q-32 -43 -78 -70.5t-106 -27.5q-57 0 -103 27.5t-73 81t-27 127.5q0 86 34.5 156.5t95 111t135.5 40.5q63 0 106 -28.5t62 -73.5l13 89h171zM383.5 144.5q32.5 21.5 51.5 58t19 79.5q0 51 -27 82t-74 31q-38 0 -70 -20t-50.5 -56t-18.5 -82
q0 -54 26.5 -84t71.5 -30q39 0 71.5 21.5zM589 760l-173 -169h-107l-126 169h133l55 -92l80 92h138z" />
    <glyph glyph-name="Gcaron" unicode="&#x1e6;" horiz-adv-x="825" 
d="M426 423h366l-44 -320q-66 -52 -154.5 -84t-190.5 -32q-109 0 -188.5 43t-121.5 120.5t-42 179.5q0 122 54 223.5t153 160.5t228 59q94 0 164 -35.5t111.5 -91t54.5 -116.5l-193 -15q-14 40 -53 70.5t-102 30.5q-73 0 -126.5 -38.5t-82 -102t-28.5 -136.5
q0 -96 50 -148.5t147 -52.5q92 0 167 42l16 117h-202zM724 1002l-173 -169h-107l-126 169h133l55 -92l80 92h138z" />
    <glyph glyph-name="gcaron" unicode="&#x1e7;" horiz-adv-x="673" 
d="M655 518l-67 -472q-36 -261 -304 -261q-106 0 -173 40.5t-82 109.5l175 17q9 -27 29.5 -40t54.5 -13q55 0 85.5 32.5t40.5 100.5l9 57q-31 -40 -77.5 -65.5t-104.5 -25.5t-104.5 26t-73 77t-26.5 124q0 86 34.5 156t96 110t137.5 40q62 0 104 -29t61 -73l25 89h160z
M383.5 147q32.5 21 51.5 57t19 79q0 50 -27.5 81t-74.5 31q-38 0 -69.5 -20t-50 -55t-18.5 -80q0 -54 26 -84t74 -30q37 0 69.5 21zM605 760l-173 -169h-107l-126 169h133l55 -92l80 92h138z" />
    <glyph glyph-name="Aringacute" unicode="&#x1fa;" horiz-adv-x="699" 
d="M460 110h-264l-46 -110h-185l353 760h202l141 -760h-186zM443 239l-47 349l-146 -349h193zM351 858.5q-35 35.5 -35 85.5q0 49 35 84t85 35t85.5 -35t35.5 -84q0 -50 -35.5 -85.5t-85.5 -35.5t-85 35.5zM475.5 902q16.5 17 16.5 42q0 24 -16.5 40.5t-39.5 16.5
t-39.5 -16.5t-16.5 -40.5q0 -25 16.5 -42t39.5 -17t39.5 17zM504 1111h-109l95 173h173z" />
    <glyph glyph-name="aringacute" unicode="&#x1fb;" horiz-adv-x="672" 
d="M654 518l-72 -518h-158v85q-32 -43 -78 -70.5t-106 -27.5q-57 0 -103 27.5t-73 81t-27 127.5q0 86 34.5 156.5t95 111t135.5 40.5q63 0 106 -28.5t62 -73.5l13 89h171zM383.5 144.5q32.5 21.5 51.5 58t19 79.5q0 51 -27 82t-74 31q-38 0 -70 -20t-50.5 -56t-18.5 -82
q0 -54 26.5 -84t71.5 -30q39 0 71.5 21.5zM281 616.5q-35 35.5 -35 85.5q0 49 35 84t85 35t85.5 -35t35.5 -84q0 -50 -35.5 -85.5t-85.5 -35.5t-85 35.5zM405.5 660q16.5 17 16.5 42q0 24 -16.5 40.5t-39.5 16.5t-39.5 -16.5t-16.5 -40.5q0 -25 16.5 -42t39.5 -17t39.5 17z
M434 869h-109l95 173h173z" />
    <glyph glyph-name="AEacute" unicode="&#x1fc;" horiz-adv-x="990" 
d="M725 615l-22 -151h258l-20 -139h-257l-26 -180h270l-20 -145h-448l20 145h-243l-94 -145h-184l526 760h527l-20 -145h-267zM498 273l49 348l-226 -348h177zM816 829h-109l95 173h173z" />
    <glyph glyph-name="aeacute" unicode="&#x1fd;" horiz-adv-x="966" 
d="M544 219v-9q0 -49 27 -77.5t71 -28.5q35 0 62.5 15.5t45.5 43.5l155 -13q-46 -80 -117 -121.5t-164 -41.5q-67 0 -116.5 25.5t-77.5 72.5q-73 -98 -223 -98q-88 0 -136 37t-48 104q0 90 67 132.5t189 42.5h126l3 35q0 40 -23 58t-61 18q-35 0 -61 -15.5t-41 -41.5
l-150 13q34 70 101.5 115.5t171.5 45.5q55 0 100.5 -15.5t74.5 -47.5q76 63 176 63q111 0 172 -60t61 -164q0 -21 -3 -46t-7 -42h-375zM603.5 381.5q-31.5 -29.5 -46.5 -78.5h217v6q0 48 -24 75t-68 27q-47 0 -78.5 -29.5zM344.5 116.5q36.5 28.5 44.5 80.5l3 22h-103
q-62 0 -88 -18t-26 -54q0 -30 21.5 -44.5t58.5 -14.5q53 0 89.5 28.5zM594 587h-109l95 173h173z" />
    <glyph glyph-name="Oslashacute" unicode="&#x1fe;" horiz-adv-x="855" 
d="M752 666q41 -46 63 -109t22 -138q0 -124 -58 -222.5t-158 -154t-219 -55.5q-99 0 -176 40l-44 -53h-143l99 120q-41 46 -63 109t-22 138q0 124 58 222.5t157.5 154t218.5 55.5q100 0 177 -40l44 53h143zM250 230l311 377q-35 16 -80 16q-68 0 -126.5 -36t-93.5 -100.5
t-35 -145.5q0 -66 24 -111zM640 530l-311 -377q33 -16 79 -16q68 0 126.5 36t93.5 100.5t35 145.5q0 63 -23 111zM554 829h-109l95 173h173z" />
    <glyph glyph-name="oslashacute" unicode="&#x1ff;" horiz-adv-x="657" 
d="M601 392q19 -44 19 -96q0 -95 -40.5 -165t-114 -107t-169.5 -37q-68 0 -126 25l-26 -32h-92l58 71q-35 31 -54 75t-19 96q0 95 41 165t114.5 107t169.5 37q68 0 124 -25l26 32h93l-58 -71q35 -31 54 -75zM211 173l185 224q-21 8 -44 8q-42 0 -76.5 -22t-55 -61t-20.5 -88
q0 -34 11 -61zM382.5 135q34.5 22 54.5 61.5t20 88.5q0 34 -11 61l-185 -225q21 -8 45 -8q42 0 76.5 22zM428 587h-109l95 173h173z" />
    <glyph glyph-name="Scommaaccent" unicode="&#x218;" horiz-adv-x="693" 
d="M104 51q-72 64 -72 169l181 13q0 -63 35.5 -87.5t85.5 -24.5q57 0 93 26.5t36 70.5q0 33 -20 48.5t-66 30.5l-85 27q-105 33 -154 81.5t-49 131.5q0 114 84.5 175t221.5 61q100 0 164 -32t92.5 -82.5t28.5 -107.5l-184 -15q-2 104 -108 104q-49 0 -80.5 -21.5
t-31.5 -60.5q0 -28 21 -46.5t73 -34.5l83 -26q67 -21 108.5 -44.5t65 -61.5t23.5 -97q0 -82 -43.5 -141t-119 -89.5t-170.5 -30.5q-141 0 -213 64zM282 -211h-108l78 147h172z" />
    <glyph glyph-name="scommaaccent" unicode="&#x219;" 
d="M73 29q-62 42 -67 117l190 13q0 -64 64 -64q34 0 55 13t21 41q0 21 -19.5 32t-72.5 27l-40 12q-78 24 -117.5 55t-39.5 88q0 88 71.5 128t191.5 40q104 0 165 -37t67 -105l-181 -13q0 22 -15.5 36t-46.5 14q-30 0 -47.5 -11t-17.5 -30q0 -14 15.5 -23t54.5 -20l49 -13
q58 -16 94 -32.5t57.5 -45t21.5 -74.5q0 -94 -71.5 -142t-205.5 -48q-114 0 -176 42zM217 -211h-108l78 147h172z" />
    <glyph glyph-name="uni021A" unicode="&#x21a;" horiz-adv-x="625" 
d="M653 614h-202l-86 -614h-178l86 614h-202l21 146h581zM239 -211h-108l78 147h172z" />
    <glyph glyph-name="uni021B" unicode="&#x21b;" horiz-adv-x="430" 
d="M248 211q-4 -24 -4 -39q0 -26 13.5 -38.5t43.5 -12.5q40 0 70 7l-8 -129q-58 -12 -131 -12q-76 0 -119 33.5t-43 113.5q0 25 5 57l27 194h-78l27 133h70l18 128h170l-18 -128h126l-18 -133h-127zM170 -211h-108l78 147h172z" />
    <glyph glyph-name="uni0232" unicode="&#x232;" horiz-adv-x="650" 
d="M730 760l-488 -760h-188l200 312l-187 448h187l103 -289l185 289h188zM276 985h295l-13 -96h-295z" />
    <glyph glyph-name="uni0233" unicode="&#x233;" horiz-adv-x="625" 
d="M606 518l-67 -481q-17 -126 -93.5 -189t-201.5 -63q-104 0 -165.5 40t-72.5 111l174 16q8 -53 74 -53q50 0 76.5 32t35.5 99l8 59q-33 -43 -78.5 -66t-99.5 -23q-75 0 -115.5 43t-40.5 112q0 23 5 53l42 310h172l-38 -277q-4 -30 -4 -43q0 -36 17.5 -52t51.5 -16
q50 0 77.5 38t34.5 92l36 258h172zM235 743h295l-13 -96h-295z" />
    <glyph glyph-name="uni0237" unicode="&#x237;" horiz-adv-x="302" 
d="M-130 -198l29 126q32 -8 64 -8q38 0 54 19.5t23 68.5l71 510h170l-75 -536q-15 -105 -68 -151t-148 -46q-67 0 -120 17z" />
    <glyph glyph-name="uni0259" unicode="&#x259;" horiz-adv-x="648" 
d="M441 303v1q0 50 -27 80t-70 30q-39 0 -67.5 -16.5t-45.5 -44.5l-169 13q42 83 117 124t179 41q78 0 135.5 -32t87.5 -85.5t30 -116.5q0 -93 -40.5 -163.5t-113 -108.5t-166.5 -38q-80 0 -137.5 29.5t-87.5 80.5t-30 115q0 45 11 91h394zM380 133q34 29 49 82h-226
q1 -52 25 -81.5t69 -29.5q49 0 83 29z" />
    <glyph glyph-name="uni0272" unicode="&#x272;" horiz-adv-x="648" 
d="M570 485q40 -46 40 -120q0 -24 -5 -61l-43 -304h-172l40 282q5 38 5 49q0 37 -17 54t-53 17q-50 0 -80 -36t-39 -94l-30 -216l-10 -74q-13 -101 -68 -149t-149 -48q-31 0 -63 4.5t-56 12.5l29 126q32 -8 63 -8q36 0 51.5 18t22.5 62l72 518h154l6 -80q34 45 81 69t102 24
q79 0 119 -46z" />
    <glyph glyph-name="circumflex" unicode="&#x2c6;" horiz-adv-x="506" 
d="M370 591l-55 92l-80 -92h-138l173 169h107l126 -169h-133z" />
    <glyph glyph-name="caron" unicode="&#x2c7;" horiz-adv-x="506" 
d="M527 760l-173 -169h-107l-126 169h133l55 -92l80 92h138z" />
    <glyph glyph-name="breve" unicode="&#x2d8;" horiz-adv-x="451" 
d="M160.5 630.5q-40.5 46.5 -40.5 129.5h97q0 -41 17.5 -63t51.5 -22q33 0 55.5 22t33.5 63h96q-16 -83 -67.5 -129.5t-127.5 -46.5q-75 0 -115.5 46.5z" />
    <glyph glyph-name="dotaccent" unicode="&#x2d9;" horiz-adv-x="285" 
d="M138.5 629q-26.5 27 -26.5 64q0 38 26.5 65t64.5 27t65 -27t27 -65t-27 -64.5t-65 -26.5t-64.5 27z" />
    <glyph glyph-name="ring" unicode="&#x2da;" horiz-adv-x="344" 
d="M149 616.5q-35 35.5 -35 85.5q0 49 35 84t85 35t85.5 -35t35.5 -84q0 -50 -35.5 -85.5t-85.5 -35.5t-85 35.5zM273.5 660q16.5 17 16.5 42q0 24 -16.5 40.5t-39.5 16.5t-39.5 -16.5t-16.5 -40.5q0 -25 16.5 -42t39.5 -17t39.5 17z" />
    <glyph glyph-name="ogonek" unicode="&#x2db;" horiz-adv-x="320" 
d="M126 -22q-23 -21 -23 -56q0 -26 17 -40t47 -14q16 0 44 6l-5 -68q-16 -9 -39.5 -15t-48.5 -6q-53 0 -86 27t-33 77q0 62 49 104t128 51l5 -37q-32 -8 -55 -29z" />
    <glyph glyph-name="tilde" unicode="&#x2dc;" horiz-adv-x="527" 
d="M335.5 620.5q-21.5 8.5 -42.5 22.5q-21 12 -33 17.5t-24 5.5q-34 0 -67 -38l-60 50q28 46 66.5 73t86.5 27q27 0 49 -8.5t46 -23.5q18 -12 30.5 -17.5t25.5 -5.5q34 0 67 39l61 -48q-29 -47 -68.5 -74.5t-88.5 -27.5q-27 0 -48.5 8.5z" />
    <glyph glyph-name="hungarumlaut" unicode="&#x2dd;" horiz-adv-x="570" 
d="M205 587h-109l95 173h173zM432 587h-109l95 173h173z" />
    <glyph glyph-name="gravecomb" unicode="&#x300;" horiz-adv-x="0" 
d="M-98 760l95 -173h-109l-159 173h173z" />
    <glyph glyph-name="acutecomb" unicode="&#x301;" horiz-adv-x="0" 
d="M-138 587h-109l95 173h173z" />
    <glyph glyph-name="uni0302" unicode="&#x302;" horiz-adv-x="0" 
d="M-136 591l-55 92l-80 -92h-138l173 169h107l126 -169h-133z" />
    <glyph glyph-name="tildecomb" unicode="&#x303;" horiz-adv-x="0" 
d="M-191.5 620.5q-21.5 8.5 -42.5 22.5q-21 12 -33 17.5t-24 5.5q-34 0 -67 -38l-60 50q28 46 66.5 73t86.5 27q27 0 49 -8.5t46 -23.5q18 -12 30.5 -17.5t25.5 -5.5q34 0 67 39l61 -48q-29 -47 -68.5 -74.5t-88.5 -27.5q-27 0 -48.5 8.5z" />
    <glyph glyph-name="uni0304" unicode="&#x304;" horiz-adv-x="0" 
d="M-277 743h295l-13 -96h-295z" />
    <glyph glyph-name="uni0306" unicode="&#x306;" horiz-adv-x="0" 
d="M-290.5 630.5q-40.5 46.5 -40.5 129.5h97q0 -41 17.5 -63t51.5 -22q33 0 55.5 22t33.5 63h96q-16 -83 -67.5 -129.5t-127.5 -46.5q-75 0 -115.5 46.5z" />
    <glyph glyph-name="uni0307" unicode="&#x307;" horiz-adv-x="0" 
d="M-146.5 629q-26.5 27 -26.5 64q0 38 26.5 65t64.5 27t65 -27t27 -65t-27 -64.5t-65 -26.5t-64.5 27z" />
    <glyph glyph-name="uni0308" unicode="&#x308;" horiz-adv-x="0" 
d="M-351.5 630.5q-23.5 23.5 -23.5 56.5q0 34 23.5 57.5t56.5 23.5t57 -23.5t24 -57.5q0 -33 -24 -56.5t-57 -23.5t-56.5 23.5zM-125.5 630.5q-23.5 23.5 -23.5 56.5q0 34 23.5 57.5t56.5 23.5t56 -23.5t23 -57.5q0 -33 -23 -56.5t-56 -23.5t-56.5 23.5z" />
    <glyph glyph-name="uni030A" unicode="&#x30a;" horiz-adv-x="0" 
d="M-195 616.5q-35 35.5 -35 85.5q0 49 35 84t85 35t85.5 -35t35.5 -84q0 -50 -35.5 -85.5t-85.5 -35.5t-85 35.5zM-70.5 660q16.5 17 16.5 42q0 24 -16.5 40.5t-39.5 16.5t-39.5 -16.5t-16.5 -40.5q0 -25 16.5 -42t39.5 -17t39.5 17z" />
    <glyph glyph-name="uni030B" unicode="&#x30b;" horiz-adv-x="0" 
d="M-365 587h-109l95 173h173zM-138 587h-109l95 173h173z" />
    <glyph glyph-name="uni030C" unicode="&#x30c;" horiz-adv-x="0" 
d="M21 760l-173 -169h-107l-126 169h133l55 -92l80 92h138z" />
    <glyph glyph-name="uni0326" unicode="&#x326;" horiz-adv-x="0" 
d="M-237 -211h-108l78 147h172z" />
    <glyph glyph-name="uni0327" unicode="&#x327;" horiz-adv-x="0" 
d="M-124.5 -56.5q22.5 -19.5 22.5 -53.5q0 -49 -35.5 -77t-94.5 -28q-55 0 -90 23l30 56q22 -13 47 -13q19 0 31 9.5t12 26.5q0 13 -7.5 19.5t-21.5 6.5q-20 0 -37 -14l-27 19l46 108h71l-22 -64q5 1 15 1q38 0 60.5 -19.5z" />
    <glyph glyph-name="uni0328" unicode="&#x328;" horiz-adv-x="0" 
d="M-194 -22q-23 -21 -23 -56q0 -26 17 -40t47 -14q16 0 44 6l-5 -68q-16 -9 -39.5 -15t-48.5 -6q-53 0 -86 27t-33 77q0 62 49 104t128 51l5 -37q-32 -8 -55 -29z" />
    <glyph glyph-name="tonos" unicode="&#x384;" horiz-adv-x="343" 
d="M96 587l95 173h173l-159 -173h-109z" />
    <glyph glyph-name="dieresistonos" unicode="&#x385;" horiz-adv-x="572" 
d="M319 797h156l-139 -210h-91zM132 637q-21 21 -21 51t21 51t51 21t51 -21t21 -51t-21 -51t-51 -21t-51 21zM460 636q-21 21 -21 51q0 31 21 52t51 21q29 0 50 -21t21 -52q0 -30 -21 -51t-50 -21q-30 0 -51 21z" />
    <glyph glyph-name="Alphatonos" unicode="&#x386;" horiz-adv-x="699" 
d="M460 110h-264l-46 -110h-185l353 760h202l141 -760h-186zM443 239l-47 349l-146 -349h193zM-84 587l95 173h173l-159 -173h-109z" />
    <glyph glyph-name="anoteleia" unicode="&#x387;" horiz-adv-x="289" 
d="M100.5 349.5q-27.5 27.5 -27.5 65.5q0 39 27.5 66.5t66.5 27.5t66 -27.5t27 -66.5q0 -38 -27 -65.5t-66 -27.5t-66.5 27.5z" />
    <glyph glyph-name="Epsilontonos" unicode="&#x388;" 
d="M287 614l-21 -150h269l-20 -140h-268l-25 -178h280l-20 -146h-459l106 760h457l-20 -146h-279zM-198 587l95 173h173l-159 -173h-109z" />
    <glyph glyph-name="Etatonos" unicode="&#x389;" horiz-adv-x="723" 
d="M733 760l-106 -760h-178l45 320h-248l-45 -320h-178l106 760h179l-41 -294h248l41 294h177zM-197 587l95 173h173l-159 -173h-109z" />
    <glyph glyph-name="Iotatonos" unicode="&#x38a;" horiz-adv-x="296" 
d="M129 760h179l-107 -760h-178zM-197 587l95 173h173l-159 -173h-109z" />
    <glyph glyph-name="Omicrontonos" unicode="&#x38c;" horiz-adv-x="855" 
d="M218 31q-79 44 -122 124t-43 186q0 124 58 222.5t157.5 154t218.5 55.5q105 0 184.5 -44t122.5 -124t43 -186q0 -124 -58 -222.5t-158 -154t-219 -55.5q-105 0 -184 44zM530.5 183.5q55.5 34.5 88.5 96t33 137.5q0 90 -46 142t-126 52q-65 0 -121 -34.5t-89 -95.5
t-33 -138q0 -90 46.5 -142t126.5 -52q65 0 120.5 34.5zM-131 587l95 173h173l-159 -173h-109z" />
    <glyph glyph-name="Upsilontonos" unicode="&#x38e;" horiz-adv-x="650" 
d="M730 760l-488 -760h-188l200 312l-187 448h187l103 -289l185 289h188zM-241 587l95 173h173l-159 -173h-109z" />
    <glyph glyph-name="Omegatonos" unicode="&#x38f;" horiz-adv-x="860" 
d="M798.5 275.5q-44.5 -79.5 -122.5 -129.5h130l-19 -146h-324l23 166q81 33 126.5 101t45.5 154q0 87 -47.5 139t-134.5 52q-68 0 -122.5 -32.5t-85 -90t-30.5 -129.5q0 -66 28.5 -116.5t83.5 -77.5l-23 -166h-322l20 146h140q-49 32 -78.5 92.5t-29.5 134.5
q0 111 58.5 202.5t159.5 144.5t222 53q106 0 184.5 -43t120 -117t41.5 -164q0 -94 -44.5 -173.5zM-130 587l95 173h173l-159 -173h-109z" />
    <glyph glyph-name="iotadieresistonos" unicode="&#x390;" horiz-adv-x="324" 
d="M78.5 21q-38.5 34 -38.5 111q0 24 5 67l44 319h171l-45 -319l-2 -24q0 -30 11.5 -41t50.5 -11h13l-9 -130q-30 -6 -71 -6q-91 0 -129.5 34zM166 797h156l-139 -210h-91zM-21 637q-21 21 -21 51t21 51t51 21t51 -21t21 -51t-21 -51t-51 -21t-51 21zM307 636q-21 21 -21 51
q0 31 21 52t51 21q29 0 50 -21t21 -52q0 -30 -21 -51t-50 -21q-30 0 -51 21z" />
    <glyph glyph-name="Alpha" unicode="&#x391;" horiz-adv-x="699" 
d="M460 110h-264l-46 -110h-185l353 760h202l141 -760h-186zM443 239l-47 349l-146 -349h193z" />
    <glyph glyph-name="Beta" unicode="&#x392;" horiz-adv-x="645" 
d="M592.5 342.5q25.5 -40.5 25.5 -95.5q0 -71 -34 -127t-101.5 -88t-164.5 -32h-295l106 760h283q109 0 167.5 -47t58.5 -123q0 -60 -30 -107t-88 -78q47 -22 72.5 -62.5zM433 484q31 30 31 74q0 31 -21.5 49t-66.5 18h-93l-24 -171h86q57 0 88 30zM415.5 169
q31.5 32 31.5 86q0 38 -25 61t-73 23h-106l-29 -202h103q67 0 98.5 32z" />
    <glyph glyph-name="Gamma" unicode="&#x393;" horiz-adv-x="529" 
d="M203 0h-180l106 760h440l-20 -146h-261z" />
    <glyph glyph-name="uni0394" unicode="&#x394;" horiz-adv-x="740" 
d="M701 0h-736l374 760h202zM496 129l-77 481l-212 -481h289z" />
    <glyph glyph-name="Epsilon" unicode="&#x395;" 
d="M287 614l-21 -150h269l-20 -140h-268l-25 -178h280l-20 -146h-459l106 760h457l-20 -146h-279z" />
    <glyph glyph-name="Zeta" unicode="&#x396;" horiz-adv-x="651" 
d="M274 145h329l-21 -145h-598l427 615h-301l21 145h570z" />
    <glyph glyph-name="Eta" unicode="&#x397;" horiz-adv-x="723" 
d="M733 760l-106 -760h-178l45 320h-248l-45 -320h-178l106 760h179l-41 -294h248l41 294h177z" />
    <glyph glyph-name="Theta" unicode="&#x398;" horiz-adv-x="855" 
d="M218 31q-79 44 -122 124t-43 186q0 124 58 222.5t157.5 154t218.5 55.5q105 0 184.5 -44t122.5 -124t43 -186q0 -124 -58 -222.5t-158 -154t-219 -55.5q-105 0 -184 44zM533.5 181q56.5 35 90 97.5t33.5 140.5q0 58 -23.5 102.5t-63.5 68.5t-90 24q-68 0 -124.5 -35
t-89 -97.5t-32.5 -140.5q0 -89 49 -142t129 -53q65 0 121.5 35zM340 459h234l-21 -140h-233z" />
    <glyph glyph-name="Iota" unicode="&#x399;" horiz-adv-x="296" 
d="M129 760h179l-107 -760h-178z" />
    <glyph glyph-name="Kappa" unicode="&#x39a;" horiz-adv-x="673" 
d="M444 446l198 -446h-190l-129 312l-92 -102l-30 -210h-178l106 760h179l-43 -306l260 306h203z" />
    <glyph glyph-name="Lambda" unicode="&#x39b;" horiz-adv-x="722" 
d="M498 0l-89 607l-259 -607h-185l364 760h202l152 -760h-185z" />
    <glyph glyph-name="Mu" unicode="&#x39c;" horiz-adv-x="903" 
d="M869 760l-38 -760h-171l31 502l-234 -502h-85l-93 504l-110 -504h-170l174 760h185l92 -503l232 503h187z" />
    <glyph glyph-name="Nu" unicode="&#x39d;" horiz-adv-x="728" 
d="M739 760l-106 -760h-176l-186 514l-72 -514h-176l106 760h176l187 -509l71 509h176z" />
    <glyph glyph-name="Xi" unicode="&#x39e;" horiz-adv-x="680" 
d="M125 760h569l-21 -146h-569zM124 465h490l-20 -141h-489zM24 146h599l-20 -146h-599z" />
    <glyph glyph-name="Omicron" unicode="&#x39f;" horiz-adv-x="855" 
d="M218 31q-79 44 -122 124t-43 186q0 124 58 222.5t157.5 154t218.5 55.5q105 0 184.5 -44t122.5 -124t43 -186q0 -124 -58 -222.5t-158 -154t-219 -55.5q-105 0 -184 44zM530.5 183.5q55.5 34.5 88.5 96t33 137.5q0 90 -46 142t-126 52q-65 0 -121 -34.5t-89 -95.5
t-33 -138q0 -90 46.5 -142t126.5 -52q65 0 120.5 34.5z" />
    <glyph glyph-name="Pi" unicode="&#x3a0;" horiz-adv-x="736" 
d="M641 0h-178l86 614h-262l-86 -614h-178l106 760h618z" />
    <glyph glyph-name="Rho" unicode="&#x3a1;" horiz-adv-x="672" 
d="M605.5 698.5q67.5 -61.5 67.5 -169.5q0 -93 -39.5 -163.5t-112 -109.5t-169.5 -39h-120l-31 -217h-178l106 760h283q126 0 193.5 -61.5zM453.5 402q38.5 45 38.5 110q0 108 -122 108h-82l-37 -263h89q75 0 113.5 45z" />
    <glyph glyph-name="Sigma" unicode="&#x3a3;" horiz-adv-x="627" 
d="M256 405l-179 355h590l-21 -146h-318l114 -209l-183 -259h344l-19 -146h-613z" />
    <glyph glyph-name="Tau" unicode="&#x3a4;" horiz-adv-x="625" 
d="M653 614h-202l-86 -614h-178l86 614h-202l21 146h581z" />
    <glyph glyph-name="Upsilon" unicode="&#x3a5;" horiz-adv-x="650" 
d="M730 760l-488 -760h-188l200 312l-187 448h187l103 -289l185 289h188z" />
    <glyph glyph-name="Phi" unicode="&#x3a6;" horiz-adv-x="948" 
d="M828 190.5q-107 -90.5 -287 -106.5l-12 -84h-178l11 81q-146 14 -228.5 87.5t-82.5 188.5q0 99 51.5 176t142 122.5t205.5 55.5l7 49h178l-7 -48q94 -10 163.5 -47.5t106.5 -96.5t37 -134q0 -153 -107 -243.5zM710 282q56 55 56 137q0 64 -42 104.5t-115 50.5l-50 -358
q95 11 151 66zM381 214l50 360q-65 -5 -112.5 -34t-73 -74t-25.5 -98q0 -131 161 -154z" />
    <glyph glyph-name="Chi" unicode="&#x3a7;" horiz-adv-x="685" 
d="M453 392l193 -392h-185l-113 251l-185 -251h-198l309 396l-180 364h185l100 -235l165 235h198z" />
    <glyph glyph-name="Psi" unicode="&#x3a8;" horiz-adv-x="898" 
d="M920 760l-26 -200q-21 -157 -113.5 -247.5t-247.5 -95.5l-30 -217h-178l30 218q-83 3 -143.5 39.5t-92.5 99.5t-32 146q0 27 5 64l25 193h179l-30 -215q-3 -22 -3 -45q0 -61 27.5 -93.5t86.5 -36.5l54 390h178l-54 -390q71 4 108 47.5t48 121.5l31 221h178z" />
    <glyph glyph-name="uni03A9" unicode="&#x3a9;" horiz-adv-x="860" 
d="M798.5 275.5q-44.5 -79.5 -122.5 -129.5h130l-19 -146h-324l23 166q81 33 126.5 101t45.5 154q0 87 -47.5 139t-134.5 52q-68 0 -122.5 -32.5t-85 -90t-30.5 -129.5q0 -66 28.5 -116.5t83.5 -77.5l-23 -166h-322l20 146h140q-49 32 -78.5 92.5t-29.5 134.5
q0 111 58.5 202.5t159.5 144.5t222 53q106 0 184.5 -43t120 -117t41.5 -164q0 -94 -44.5 -173.5z" />
    <glyph glyph-name="Iotadieresis" unicode="&#x3aa;" horiz-adv-x="296" 
d="M129 760h179l-107 -760h-178zM66.5 872.5q-23.5 23.5 -23.5 56.5q0 34 23.5 57.5t56.5 23.5t57 -23.5t24 -57.5q0 -33 -24 -56.5t-57 -23.5t-56.5 23.5zM292.5 872.5q-23.5 23.5 -23.5 56.5q0 34 23.5 57.5t56.5 23.5t56 -23.5t23 -57.5q0 -33 -23 -56.5t-56 -23.5
t-56.5 23.5z" />
    <glyph glyph-name="Upsilondieresis" unicode="&#x3ab;" horiz-adv-x="650" 
d="M730 760l-488 -760h-188l200 312l-187 448h187l103 -289l185 289h188zM246.5 872.5q-23.5 23.5 -23.5 56.5q0 34 23.5 57.5t56.5 23.5t57 -23.5t24 -57.5q0 -33 -24 -56.5t-57 -23.5t-56.5 23.5zM472.5 872.5q-23.5 23.5 -23.5 56.5q0 34 23.5 57.5t56.5 23.5t56 -23.5
t23 -57.5q0 -33 -23 -56.5t-56 -23.5t-56.5 23.5z" />
    <glyph glyph-name="alphatonos" unicode="&#x3ac;" horiz-adv-x="698" 
d="M134.5 14.5q-45.5 27.5 -71.5 79.5t-26 122q0 99 37.5 170t98.5 108t131 37q62 0 104 -28t62 -73l12 88h169l-49 -345q-1 -6 -1 -15q0 -19 10.5 -27t31.5 -8h12l-8 -131q-25 -5 -61 -5q-71 0 -104 21t-43 69l-3 22q-38 -58 -89 -85t-110 -27q-57 0 -102.5 27.5zM383 145
q32 21 50.5 58t18.5 81q0 49 -27 79.5t-73 30.5q-39 0 -71.5 -21.5t-51 -58.5t-18.5 -81q0 -49 27.5 -79t74.5 -30q38 0 70 21zM307 587l95 173h173l-159 -173h-109z" />
    <glyph glyph-name="epsilontonos" unicode="&#x3ad;" horiz-adv-x="570" 
d="M74 25q-55 39 -55 100q0 47 32 86.5t95 56.5v3q-88 21 -88 92q0 43 31 81.5t90 62.5t139 24q94 0 153.5 -36.5t69.5 -109.5l-165 -35q-3 21 -22.5 33.5t-50.5 12.5q-34 0 -55.5 -14.5t-21.5 -34.5q0 -18 15.5 -27.5t41.5 -9.5h51l-12 -86h-51q-39 0 -58.5 -15.5
t-19.5 -37.5t20 -35t56 -13q44 0 72.5 17.5t35.5 42.5l162 -12q-23 -90 -103.5 -137.5t-198.5 -47.5q-108 0 -163 39zM253 587l95 173h173l-159 -173h-109z" />
    <glyph glyph-name="etatonos" unicode="&#x3ae;" horiz-adv-x="633" 
d="M554 485q40 -46 40 -120q0 -23 -5 -61l-71 -505h-173l69 483q4 30 4 49q0 37 -16.5 54t-52.5 17q-50 0 -80 -36t-39 -94l-38 -272h-172l72 518h154l6 -80q34 45 81 69t103 24q78 0 118 -46zM301 587l95 173h173l-159 -173h-109z" />
    <glyph glyph-name="iotatonos" unicode="&#x3af;" horiz-adv-x="324" 
d="M78.5 21q-38.5 34 -38.5 111q0 24 5 67l44 319h171l-45 -319l-2 -24q0 -30 11.5 -41t50.5 -11h13l-9 -130q-30 -6 -71 -6q-91 0 -129.5 34zM112 587l95 173h173l-159 -173h-109z" />
    <glyph glyph-name="upsilondieresistonos" unicode="&#x3b0;" horiz-adv-x="622" 
d="M108 34.5q-63 47.5 -63 151.5q0 28 4 55l38 277h172l-40 -289q-2 -20 -2 -30q0 -39 18.5 -58t57.5 -19q85 0 102 107l40 289h172l-41 -292q-16 -117 -91.5 -178t-191.5 -61q-112 0 -175 47.5zM340 797h156l-139 -210h-91zM153 637q-21 21 -21 51t21 51t51 21t51 -21
t21 -51t-21 -51t-51 -21t-51 21zM481 636q-21 21 -21 51q0 31 21 52t51 21q29 0 50 -21t21 -52q0 -30 -21 -51t-50 -21q-30 0 -51 21z" />
    <glyph glyph-name="alpha" unicode="&#x3b1;" horiz-adv-x="698" 
d="M134.5 14.5q-45.5 27.5 -71.5 79.5t-26 122q0 99 37.5 170t98.5 108t131 37q62 0 104 -28t62 -73l12 88h169l-49 -345q-1 -6 -1 -15q0 -19 10.5 -27t31.5 -8h12l-8 -131q-25 -5 -61 -5q-71 0 -104 21t-43 69l-3 22q-38 -58 -89 -85t-110 -27q-57 0 -102.5 27.5zM383 145
q32 21 50.5 58t18.5 81q0 49 -27 79.5t-73 30.5q-39 0 -71.5 -21.5t-51 -58.5t-18.5 -81q0 -49 27.5 -79t74.5 -30q38 0 70 21z" />
    <glyph glyph-name="beta" unicode="&#x3b2;" horiz-adv-x="658" 
d="M583 376.5q38 -53.5 38 -123.5t-35 -131.5t-96 -98t-135 -36.5q-110 0 -151 90l-39 -278h-174l99 706q19 130 98.5 199t204.5 69q102 0 159 -45t57 -116q0 -54 -34.5 -101t-101.5 -64q72 -17 110 -70.5zM415 167q36 43 36 105q0 53 -32.5 79.5t-88.5 26.5h-17l16 112h15
q35 0 55.5 15.5t28.5 36t8 36.5q0 25 -19.5 42.5t-49.5 17.5q-49 0 -74 -30t-31 -75l-39 -281q-1 -10 -1 -23q0 -48 25 -76.5t72 -28.5q60 0 96 43z" />
    <glyph glyph-name="gamma" unicode="&#x3b3;" horiz-adv-x="591" 
d="M624 518l-274 -485l-34 -234h-172l34 231l-138 488h181l62 -344l158 344h183z" />
    <glyph glyph-name="delta" unicode="&#x3b4;" horiz-adv-x="644" 
d="M148 16.5q-56 29.5 -84.5 80.5t-28.5 114q0 89 50 160.5t148 94.5q38 13 77 16l-168 180l14 98h476l-18 -129h-232l137 -150q45 -48 66 -94.5t21 -100.5q0 -93 -41 -160.5t-114.5 -103t-168.5 -35.5q-78 0 -134 29.5zM398 167q38 43 38 107q0 45 -23 75.5t-72 30.5
q-40 0 -71 -22t-48 -58t-17 -77q0 -45 26.5 -72t70.5 -27q58 0 96 43z" />
    <glyph glyph-name="epsilon" unicode="&#x3b5;" horiz-adv-x="570" 
d="M74 25q-55 39 -55 100q0 47 32 86.5t95 56.5v3q-88 21 -88 92q0 43 31 81.5t90 62.5t139 24q94 0 153.5 -36.5t69.5 -109.5l-165 -35q-3 21 -22.5 33.5t-50.5 12.5q-34 0 -55.5 -14.5t-21.5 -34.5q0 -18 15.5 -27.5t41.5 -9.5h51l-12 -86h-51q-39 0 -58.5 -15.5
t-19.5 -37.5t20 -35t56 -13q44 0 72.5 17.5t35.5 42.5l162 -12q-23 -90 -103.5 -137.5t-198.5 -47.5q-108 0 -163 39z" />
    <glyph glyph-name="zeta" unicode="&#x3b6;" horiz-adv-x="498" 
d="M192 -126q65 80 65 102q0 15 -31 30l-41 21q-87 44 -122 79.5t-35 89.5q0 172 339 435h-251l27 129h449l-13 -96q-146 -116 -259.5 -239.5t-113.5 -188.5q0 -27 19.5 -45t68.5 -42l55 -28q48 -25 68.5 -44t20.5 -46q0 -38 -45 -102t-93 -109z" />
    <glyph glyph-name="eta" unicode="&#x3b7;" horiz-adv-x="633" 
d="M554 485q40 -46 40 -120q0 -23 -5 -61l-71 -505h-173l69 483q4 30 4 49q0 37 -16.5 54t-52.5 17q-50 0 -80 -36t-39 -94l-38 -272h-172l72 518h154l6 -80q34 45 81 69t103 24q78 0 118 -46z" />
    <glyph glyph-name="theta" unicode="&#x3b8;" horiz-adv-x="659" 
d="M583 693.5q58 -79.5 58 -224.5q0 -134 -39 -243t-118 -174t-193 -65q-125 0 -182.5 80t-57.5 223q0 130 38.5 240t117.5 176.5t193 66.5q125 0 183 -79.5zM292.5 587q-37.5 -51 -55.5 -134h236v20q0 82 -21 123.5t-67 41.5q-55 0 -92.5 -51zM404 177.5q38 55.5 56 146.5
h-239q-1 -11 -1 -32q0 -85 21 -127.5t66 -42.5q59 0 97 55.5z" />
    <glyph glyph-name="iota" unicode="&#x3b9;" horiz-adv-x="324" 
d="M78.5 21q-38.5 34 -38.5 111q0 24 5 67l44 319h171l-45 -319l-2 -24q0 -30 11.5 -41t50.5 -11h13l-9 -130q-30 -6 -71 -6q-91 0 -129.5 34z" />
    <glyph glyph-name="kappa" unicode="&#x3ba;" horiz-adv-x="574" 
d="M380 320l167 -320h-173l-107 218l-55 -50l-23 -168h-169l72 518h169l-22 -159l161 159h198z" />
    <glyph glyph-name="lambda" unicode="&#x3bb;" horiz-adv-x="596" 
d="M573 116l-6 -112q-44 -17 -88 -17q-57 0 -83 21.5t-38 81.5l-54 249l-161 -339h-183l293 502l-21 86q-7 30 -18.5 39.5t-43.5 9.5h-18l7 129q54 7 89 7q47 0 76 -14t47.5 -46.5t31.5 -90.5l112 -469q6 -23 15 -30t32 -7h11z" />
    <glyph glyph-name="uni03BC" unicode="&#x3bc;" horiz-adv-x="638" 
d="M618 518l-72 -518h-155l-4 79q-34 -45 -82 -69t-104 -24h-12l-26 -187h-172l68 476l33 243h172l-39 -287q-4 -26 -4 -41q0 -75 69 -75q52 0 81.5 39t37.5 95l37 269h172z" />
    <glyph glyph-name="nu" unicode="&#x3bd;" horiz-adv-x="583" 
d="M626 518l-280 -518h-180l-136 518h178l67 -375l166 375h185z" />
    <glyph glyph-name="xi" unicode="&#x3be;" horiz-adv-x="541" 
d="M258 -130q59 77 59 105q0 19 -36 33l-75 32q-88 36 -132 76.5t-44 102.5q0 74 53 129t139 75q-67 11 -100.5 48t-33.5 87q0 64 39 113t101 75.5t128 26.5q107 0 164.5 -46t57.5 -135l-160 -17q-1 29 -18 45t-49 16q-40 0 -65 -23.5t-25 -64.5q0 -35 26 -54.5t73 -19.5h95
l-16 -121h-117q-56 0 -87 -29t-31 -69q0 -29 25 -48t82 -43l103 -45q46 -20 64 -39.5t18 -45.5q0 -42 -44 -108t-85 -107z" />
    <glyph glyph-name="omicron" unicode="&#x3bf;" horiz-adv-x="657" 
d="M161 16.5q-59 29.5 -91.5 82.5t-32.5 123q0 95 41 165t114.5 107t169.5 37q75 0 134 -29.5t91.5 -83t32.5 -122.5q0 -95 -40.5 -165t-114 -107t-169.5 -37q-76 0 -135 29.5zM378 143.5q32 20.5 51 57t19 82.5q0 53 -26.5 82.5t-71.5 29.5q-39 0 -71 -20.5t-51 -57
t-19 -82.5q0 -53 26.5 -82.5t71.5 -29.5q39 0 71 20.5z" />
    <glyph glyph-name="pi" unicode="&#x3c0;" horiz-adv-x="641" 
d="M430 385h-184l-54 -385h-172l72 518h529l-72 -518h-172z" />
    <glyph glyph-name="rho" unicode="&#x3c1;" horiz-adv-x="670" 
d="M499 29q63 42 98.5 113.5t35.5 157.5q0 65 -29 117.5t-86 83t-138 30.5q-86 0 -156 -34.5t-115.5 -102t-58.5 -163.5l-61 -432h172l38 281q21 -48 65.5 -70.5t92.5 -22.5q79 0 142 42zM432.5 363.5q26.5 -30.5 26.5 -78.5q0 -47 -19 -84t-50.5 -57.5t-68.5 -20.5
q-48 0 -75 30.5t-27 78.5t19.5 85t51.5 57t69 20q47 0 73.5 -30.5z" />
    <glyph glyph-name="uni03C2" unicode="&#x3c2;" horiz-adv-x="585" 
d="M222 -126q31 38 49 63.5t18 36.5q0 10 -7.5 18t-26.5 17l-59 27q-58 27 -91 52t-49.5 61t-16.5 93q0 82 39.5 148t110 103.5t158.5 37.5q108 0 170 -49t62 -142l-165 -15q-5 69 -82 69q-51 0 -86 -37.5t-35 -96.5q0 -32 20.5 -53t61.5 -41l98 -49q44 -21 60 -40t16 -44
q0 -42 -46.5 -106.5t-91.5 -106.5z" />
    <glyph glyph-name="sigma" unicode="&#x3c3;" horiz-adv-x="646" 
d="M151 17q-56 30 -86 82t-30 116q0 84 39.5 153t114 109.5t174.5 40.5h307l-18 -133h-123q32 -18 48 -54.5t16 -76.5q0 -73 -38 -134t-108.5 -97t-163.5 -36q-76 0 -132 30zM397.5 166q38.5 43 38.5 113q0 50 -26.5 78.5t-69.5 28.5q-37 0 -68.5 -20t-50.5 -55.5t-19 -80.5
q0 -50 27 -78.5t71 -28.5q59 0 97.5 43z" />
    <glyph glyph-name="tau" unicode="&#x3c4;" horiz-adv-x="493" 
d="M168 23.5q-40 36.5 -40 114.5q0 30 4 55l27 192h-135l28 133h454l-18 -133h-159l-26 -184l-3 -24q0 -31 13 -43t47 -12q33 0 66 9l-8 -129q-22 -6 -57 -10.5t-68 -4.5q-85 0 -125 36.5z" />
    <glyph glyph-name="upsilon" unicode="&#x3c5;" horiz-adv-x="622" 
d="M108 34.5q-63 47.5 -63 151.5q0 28 4 55l38 277h172l-40 -289q-2 -20 -2 -30q0 -39 18.5 -58t57.5 -19q85 0 102 107l40 289h172l-41 -292q-16 -117 -91.5 -178t-191.5 -61q-112 0 -175 47.5z" />
    <glyph glyph-name="phi" unicode="&#x3c6;" horiz-adv-x="835" 
d="M292 -12q-87 6 -144.5 41t-84.5 87t-27 110q0 63 28.5 120t83.5 99t132 58l35 -105q-54 -23 -83 -65.5t-29 -95.5q0 -51 27 -85.5t79 -42.5l58 409h117q162 0 238 -62.5t76 -168.5q0 -85 -44.5 -150t-120.5 -103t-167 -45l-27 -190h-173zM557.5 140.5q34.5 21.5 55.5 57
t21 79.5q0 50 -28 83.5t-83 38.5l-40 -284q40 4 74.5 25.5z" />
    <glyph glyph-name="chi" unicode="&#x3c7;" horiz-adv-x="556" 
d="M340 -190q-28 22 -39 66l-52 193l-141 -270h-185l258 383l-62 164q-11 31 -22.5 42t-41.5 11h-11l10 123q64 8 98 8q49 0 76.5 -19.5t38.5 -64.5l37 -137l114 209h183l-228 -336l79 -221q8 -22 19 -28.5t33 -6.5h9l-5 -122q-20 -7 -50.5 -11.5t-49.5 -4.5q-40 0 -68 22z
" />
    <glyph glyph-name="psi" unicode="&#x3c8;" horiz-adv-x="816" 
d="M285 -11q-106 6 -170 66.5t-64 173.5q0 16 4 56l32 233h169l-40 -286q-2 -14 -2 -24q0 -40 23.5 -63t65.5 -25l56 398h172l-56 -398q54 5 83 37.5t36 77.5l39 283h169l-36 -260q-17 -119 -98 -192.5t-211 -77.5l-27 -189h-172z" />
    <glyph glyph-name="omega" unicode="&#x3c9;" horiz-adv-x="862" 
d="M78.5 42q-43.5 55 -43.5 150q0 84 30.5 159.5t100 125t179.5 54.5l5 -126q-68 -9 -104.5 -65.5t-36.5 -130.5q0 -88 60 -88q29 0 51.5 24.5t28.5 68.5l16 118h150l-17 -119q-2 -16 -2 -22q0 -31 14 -50t40 -19q42 0 70.5 45.5t28.5 114.5q0 50 -24.5 84t-73.5 40l39 125
q232 -11 232 -245q0 -76 -30.5 -144.5t-90 -111.5t-143.5 -43q-60 0 -103.5 35t-48.5 101q-29 -66 -78.5 -101t-112.5 -35q-93 0 -136.5 55z" />
    <glyph glyph-name="iotadieresis" unicode="&#x3ca;" horiz-adv-x="324" 
d="M78.5 21q-38.5 34 -38.5 111q0 24 5 67l44 319h171l-45 -319l-2 -24q0 -30 11.5 -41t50.5 -11h13l-9 -130q-30 -6 -71 -6q-91 0 -129.5 34zM25.5 630.5q-23.5 23.5 -23.5 56.5q0 34 23.5 57.5t56.5 23.5t57 -23.5t24 -57.5q0 -33 -24 -56.5t-57 -23.5t-56.5 23.5z
M251.5 630.5q-23.5 23.5 -23.5 56.5q0 34 23.5 57.5t56.5 23.5t56 -23.5t23 -57.5q0 -33 -23 -56.5t-56 -23.5t-56.5 23.5z" />
    <glyph glyph-name="upsilondieresis" unicode="&#x3cb;" horiz-adv-x="622" 
d="M108 34.5q-63 47.5 -63 151.5q0 28 4 55l38 277h172l-40 -289q-2 -20 -2 -30q0 -39 18.5 -58t57.5 -19q85 0 102 107l40 289h172l-41 -292q-16 -117 -91.5 -178t-191.5 -61q-112 0 -175 47.5zM199.5 630.5q-23.5 23.5 -23.5 56.5q0 34 23.5 57.5t56.5 23.5t57 -23.5
t24 -57.5q0 -33 -24 -56.5t-57 -23.5t-56.5 23.5zM425.5 630.5q-23.5 23.5 -23.5 56.5q0 34 23.5 57.5t56.5 23.5t56 -23.5t23 -57.5q0 -33 -23 -56.5t-56 -23.5t-56.5 23.5z" />
    <glyph glyph-name="omicrontonos" unicode="&#x3cc;" horiz-adv-x="657" 
d="M161 16.5q-59 29.5 -91.5 82.5t-32.5 123q0 95 41 165t114.5 107t169.5 37q75 0 134 -29.5t91.5 -83t32.5 -122.5q0 -95 -40.5 -165t-114 -107t-169.5 -37q-76 0 -135 29.5zM378 143.5q32 20.5 51 57t19 82.5q0 53 -26.5 82.5t-71.5 29.5q-39 0 -71 -20.5t-51 -57
t-19 -82.5q0 -53 26.5 -82.5t71.5 -29.5q39 0 71 20.5zM297 587l95 173h173l-159 -173h-109z" />
    <glyph glyph-name="upsilontonos" unicode="&#x3cd;" horiz-adv-x="622" 
d="M108 34.5q-63 47.5 -63 151.5q0 28 4 55l38 277h172l-40 -289q-2 -20 -2 -30q0 -39 18.5 -58t57.5 -19q85 0 102 107l40 289h172l-41 -292q-16 -117 -91.5 -178t-191.5 -61q-112 0 -175 47.5zM286 587l95 173h173l-159 -173h-109z" />
    <glyph glyph-name="omegatonos" unicode="&#x3ce;" horiz-adv-x="862" 
d="M78.5 42q-43.5 55 -43.5 150q0 84 30.5 159.5t100 125t179.5 54.5l5 -126q-68 -9 -104.5 -65.5t-36.5 -130.5q0 -88 60 -88q29 0 51.5 24.5t28.5 68.5l16 118h150l-17 -119q-2 -16 -2 -22q0 -31 14 -50t40 -19q42 0 70.5 45.5t28.5 114.5q0 50 -24.5 84t-73.5 40l39 125
q232 -11 232 -245q0 -76 -30.5 -144.5t-90 -111.5t-143.5 -43q-60 0 -103.5 35t-48.5 101q-29 -66 -78.5 -101t-112.5 -35q-93 0 -136.5 55zM406 587l95 173h173l-159 -173h-109z" />
    <glyph glyph-name="uni0400" unicode="&#x400;" 
d="M287 614l-21 -150h269l-20 -140h-268l-25 -178h280l-20 -146h-459l106 760h457l-20 -146h-279zM329 1002l95 -173h-109l-159 173h173z" />
    <glyph glyph-name="uni0401" unicode="&#x401;" 
d="M287 614l-21 -150h269l-20 -140h-268l-25 -178h280l-20 -146h-459l106 760h457l-20 -146h-279zM209.5 872.5q-23.5 23.5 -23.5 56.5q0 34 23.5 57.5t56.5 23.5t57 -23.5t24 -57.5q0 -33 -24 -56.5t-57 -23.5t-56.5 23.5zM435.5 872.5q-23.5 23.5 -23.5 56.5
q0 34 23.5 57.5t56.5 23.5t56 -23.5t23 -57.5q0 -33 -23 -56.5t-56 -23.5t-56.5 23.5z" />
    <glyph glyph-name="uni0402" unicode="&#x402;" horiz-adv-x="836" 
d="M684 442q57 -27 87 -73t30 -101q0 -79 -38 -141.5t-106 -99t-157 -40.5l-2 129q59 7 91.5 46t32.5 86q0 38 -29.5 56.5t-81.5 18.5h-127l-45 -323h-178l86 614h-175l20 146h598l-20 -146h-245l-21 -145h144q79 0 136 -27z" />
    <glyph glyph-name="uni0403" unicode="&#x403;" horiz-adv-x="520" 
d="M549 614h-262l-86 -614h-178l106 760h440zM414 829h-109l95 173h173z" />
    <glyph glyph-name="uni0404" unicode="&#x404;" horiz-adv-x="836" 
d="M218 31.5q-80 44.5 -123.5 122t-43.5 172.5q0 125 59 227.5t161.5 161t225.5 58.5q90 0 162.5 -39.5t116.5 -107t53 -148.5l-171 -6q-12 69 -58 106.5t-118 37.5q-83 0 -147 -51t-93 -131h313l-16 -110h-315q1 -84 48.5 -132t127.5 -48q77 0 137.5 40.5t93.5 110.5
l170 -23q-51 -134 -157 -209.5t-243 -75.5q-103 0 -183 44.5z" />
    <glyph glyph-name="uni0405" unicode="&#x405;" horiz-adv-x="693" 
d="M104 51q-72 64 -72 169l181 13q0 -63 35.5 -87.5t85.5 -24.5q57 0 93 26.5t36 70.5q0 33 -20 48.5t-66 30.5l-85 27q-105 33 -154 81.5t-49 131.5q0 114 84.5 175t221.5 61q100 0 164 -32t92.5 -82.5t28.5 -107.5l-184 -15q-2 104 -108 104q-49 0 -80.5 -21.5
t-31.5 -60.5q0 -28 21 -46.5t73 -34.5l83 -26q67 -21 108.5 -44.5t65 -61.5t23.5 -97q0 -82 -43.5 -141t-119 -89.5t-170.5 -30.5q-141 0 -213 64z" />
    <glyph glyph-name="uni0406" unicode="&#x406;" horiz-adv-x="296" 
d="M129 760h179l-107 -760h-178z" />
    <glyph glyph-name="uni0407" unicode="&#x407;" horiz-adv-x="296" 
d="M129 760h179l-107 -760h-178zM66.5 872.5q-23.5 23.5 -23.5 56.5q0 34 23.5 57.5t56.5 23.5t57 -23.5t24 -57.5q0 -33 -24 -56.5t-57 -23.5t-56.5 23.5zM292.5 872.5q-23.5 23.5 -23.5 56.5q0 34 23.5 57.5t56.5 23.5t56 -23.5t23 -57.5q0 -33 -23 -56.5t-56 -23.5
t-56.5 23.5z" />
    <glyph glyph-name="uni0408" unicode="&#x408;" horiz-adv-x="654" 
d="M155 17.5q-59 30.5 -91.5 89.5t-32.5 141l177 12q0 -56 23.5 -83.5t66.5 -27.5q106 0 126 135l67 476h178l-66 -474q-22 -156 -101 -227.5t-211 -71.5q-77 0 -136 30.5z" />
    <glyph glyph-name="uni0409" unicode="&#x409;" horiz-adv-x="1119" 
d="M971 502q57 -29 87 -80.5t30 -118.5q0 -95 -39.5 -163.5t-112.5 -104t-171 -35.5h-295l85 611l-391 -611h-196l518 760h268l-32 -229h112q80 0 137 -29zM833.5 161q36.5 21 56 56.5t19.5 78.5t-28.5 69.5t-89.5 26.5h-88l-35 -252h79q50 0 86.5 21z" />
    <glyph glyph-name="uni040A" unicode="&#x40a;" horiz-adv-x="1077" 
d="M929 502q57 -29 87 -80.5t30 -118.5q0 -95 -39.5 -163.5t-112.5 -104t-171 -35.5h-295l45 326h-227l-45 -326h-178l106 760h178l-40 -288h227l40 288h178l-32 -229h112q80 0 137 -29zM791.5 161q36.5 21 56 56.5t19.5 78.5t-28.5 69.5t-89.5 26.5h-88l-35 -252h79
q50 0 86.5 21z" />
    <glyph glyph-name="uni040B" unicode="&#x40b;" horiz-adv-x="838" 
d="M725.5 413q67.5 -56 67.5 -158q0 -24 -3 -48l-28 -207h-178l27 196q3 23 3 42q0 48 -25.5 66.5t-86.5 18.5h-118l-45 -323h-178l86 614h-175l20 146h598l-20 -146h-245l-21 -145h141q113 0 180.5 -56z" />
    <glyph glyph-name="uni040C" unicode="&#x40c;" horiz-adv-x="673" 
d="M444 446l198 -446h-190l-129 312l-92 -102l-30 -210h-178l106 760h179l-43 -306l260 306h203zM468 829h-109l95 173h173z" />
    <glyph glyph-name="uni040D" unicode="&#x40d;" horiz-adv-x="733" 
d="M743 760l-106 -760h-177l68 494l-326 -494l-1 1v-1h-178l106 760h178l-69 -493l326 493l1 -1v1h178zM410 1002l95 -173h-109l-159 173h173z" />
    <glyph glyph-name="uni040E" unicode="&#x40e;" horiz-adv-x="653" 
d="M733 760l-460 -760h-194l164 271l-174 489h183l92 -322l195 322h194zM303 882.5q-40 46.5 -40 129.5h96q0 -41 17.5 -63t51.5 -22q67 0 89 85h97q-16 -84 -67.5 -130t-128.5 -46q-75 0 -115 46.5z" />
    <glyph glyph-name="uni040F" unicode="&#x40f;" horiz-adv-x="716" 
d="M727 760l-106 -760h-221l-29 -156h-143l13 156h-217l106 760h177l-86 -614h242l86 614h178z" />
    <glyph glyph-name="uni0410" unicode="&#x410;" horiz-adv-x="699" 
d="M460 110h-264l-46 -110h-185l353 760h202l141 -760h-186zM443 239l-47 349l-146 -349h193z" />
    <glyph glyph-name="uni0411" unicode="&#x411;" horiz-adv-x="668" 
d="M513.5 472.5q58.5 -27.5 89.5 -76t31 -110.5q0 -89 -41 -153.5t-114 -98.5t-166 -34h-290l106 760h511l-19 -143h-334l-16 -117h105q79 0 137.5 -27.5zM414 184q42 38 42 101q0 38 -27.5 61t-88.5 23h-88l-31 -223h80q71 0 113 38z" />
    <glyph glyph-name="uni0412" unicode="&#x412;" horiz-adv-x="645" 
d="M592.5 342.5q25.5 -40.5 25.5 -95.5q0 -71 -34 -127t-101.5 -88t-164.5 -32h-295l106 760h283q109 0 167.5 -47t58.5 -123q0 -60 -30 -107t-88 -78q47 -22 72.5 -62.5zM433 484q31 30 31 74q0 31 -21.5 49t-66.5 18h-93l-24 -171h86q57 0 88 30zM415.5 169
q31.5 32 31.5 86q0 38 -25 61t-73 23h-106l-29 -202h103q67 0 98.5 32z" />
    <glyph glyph-name="uni0413" unicode="&#x413;" horiz-adv-x="520" 
d="M549 614h-262l-86 -614h-178l106 760h440z" />
    <glyph glyph-name="uni0414" unicode="&#x414;" horiz-adv-x="752" 
d="M729 146l-40 -286h-144l12 140h-433l-29 -140h-144l39 286h68l287 614h202l112 -614h70zM487 146l-60 436l-182 -436h242z" />
    <glyph glyph-name="uni0415" unicode="&#x415;" 
d="M287 614l-21 -150h269l-20 -140h-268l-25 -178h280l-20 -146h-459l106 760h457l-20 -146h-279z" />
    <glyph glyph-name="uni0416" unicode="&#x416;" horiz-adv-x="1048" 
d="M803 444l202 -444h-182l-128 330l-87 -92l-33 -238h-172l36 256l-60 90l-212 -346h-197l321 478l-187 282h189l173 -310l43 310h172l-44 -314l250 314h216z" />
    <glyph glyph-name="uni0417" unicode="&#x417;" horiz-adv-x="627" 
d="M598 241q0 -79 -38 -136t-108 -87.5t-164 -30.5q-87 0 -148 26t-92.5 70.5t-31.5 99.5q0 22 2 34l171 3q-2 -12 -2 -19q0 -37 25.5 -56.5t74.5 -19.5q61 0 98 35t37 90q0 41 -28 62t-90 21h-113l17 130h95q62 0 101 30t39 77q0 33 -22 50t-64 17q-51 0 -81 -25t-39 -67
l-167 14q18 101 99 157.5t210 56.5q82 0 136.5 -24.5t80.5 -65t26 -90.5q0 -63 -32 -112t-90 -78q98 -47 98 -162z" />
    <glyph glyph-name="uni0418" unicode="&#x418;" horiz-adv-x="733" 
d="M743 760l-106 -760h-177l68 494l-326 -494l-1 1v-1h-178l106 760h178l-69 -493l326 493l1 -1v1h178z" />
    <glyph glyph-name="uni0419" unicode="&#x419;" horiz-adv-x="733" 
d="M743 760l-106 -760h-177l68 494l-326 -494l-1 1v-1h-178l106 760h178l-69 -493l326 493l1 -1v1h178zM339 882.5q-40 46.5 -40 129.5h96q0 -41 17.5 -63t51.5 -22q67 0 89 85h97q-16 -84 -67.5 -130t-128.5 -46q-75 0 -115 46.5z" />
    <glyph glyph-name="uni041A" unicode="&#x41a;" horiz-adv-x="673" 
d="M444 446l198 -446h-190l-129 312l-92 -102l-30 -210h-178l106 760h179l-43 -306l260 306h203z" />
    <glyph glyph-name="uni041B" unicode="&#x41b;" horiz-adv-x="699" 
d="M482 0l-81 583l-243 -583h-193l353 760h202l141 -760h-179z" />
    <glyph glyph-name="uni041C" unicode="&#x41c;" horiz-adv-x="903" 
d="M869 760l-38 -760h-168l34 515l-240 -515h-85l-96 518l-110 -518h-167l174 760h181l96 -505l235 505h184z" />
    <glyph glyph-name="uni041D" unicode="&#x41d;" horiz-adv-x="723" 
d="M733 760l-106 -760h-178l45 320h-248l-45 -320h-178l106 760h179l-41 -294h248l41 294h177z" />
    <glyph glyph-name="uni041E" unicode="&#x41e;" horiz-adv-x="855" 
d="M218 31q-79 44 -122 124t-43 186q0 124 58 222.5t157.5 154t218.5 55.5q105 0 184.5 -44t122.5 -124t43 -186q0 -124 -58 -222.5t-158 -154t-219 -55.5q-105 0 -184 44zM530.5 183.5q55.5 34.5 88.5 96t33 137.5q0 90 -46 142t-126 52q-65 0 -121 -34.5t-89 -95.5
t-33 -138q0 -90 46.5 -142t126.5 -52q65 0 120.5 34.5z" />
    <glyph glyph-name="uni041F" unicode="&#x41f;" horiz-adv-x="716" 
d="M620 0h-177l86 614h-242l-86 -614h-178l106 760h597z" />
    <glyph glyph-name="uni0420" unicode="&#x420;" horiz-adv-x="672" 
d="M605.5 698.5q67.5 -61.5 67.5 -169.5q0 -93 -39.5 -163.5t-112 -109.5t-169.5 -39h-120l-31 -217h-178l106 760h283q126 0 193.5 -61.5zM453.5 402q38.5 45 38.5 110q0 108 -122 108h-82l-37 -263h89q75 0 113.5 45z" />
    <glyph glyph-name="uni0421" unicode="&#x421;" horiz-adv-x="834" 
d="M220 30.5q-79 43.5 -123 123.5t-44 186q0 118 54.5 217.5t153 157.5t223.5 58q100 0 175.5 -37.5t119.5 -103.5t54 -151l-186 -15q-11 70 -54.5 108.5t-113.5 38.5q-68 0 -123.5 -36.5t-87 -98t-31.5 -134.5q0 -90 47.5 -142.5t126.5 -52.5q70 0 127.5 40.5t85.5 106.5
l181 -16q-29 -86 -86.5 -152.5t-138 -103.5t-177.5 -37q-104 0 -183 43.5z" />
    <glyph glyph-name="uni0422" unicode="&#x422;" horiz-adv-x="625" 
d="M653 614h-202l-86 -614h-178l86 614h-202l21 146h581z" />
    <glyph glyph-name="uni0423" unicode="&#x423;" horiz-adv-x="653" 
d="M733 760l-460 -760h-194l164 271l-174 489h183l92 -322l195 322h194z" />
    <glyph glyph-name="uni0424" unicode="&#x424;" horiz-adv-x="932" 
d="M863.5 241q-49.5 -75 -137 -115t-200.5 -43l-14 -96h-169l14 96q-91 4 -159.5 36t-106 88.5t-37.5 132.5q0 104 49 179t136.5 115t200.5 43l14 96h169l-14 -96q91 -4 159.5 -36t106.5 -88.5t38 -132.5q0 -104 -49.5 -179zM687.5 283q50.5 50 50.5 135q0 110 -149 116
l-43 -307q91 6 141.5 56zM377 226l43 307q-91 -6 -141.5 -56t-50.5 -135q0 -110 149 -116z" />
    <glyph glyph-name="uni0425" unicode="&#x425;" horiz-adv-x="685" 
d="M453 389l193 -389h-184l-114 250l-184 -250h-199l309 396l-181 364h185l101 -235l164 235h200z" />
    <glyph glyph-name="uni0426" unicode="&#x426;" horiz-adv-x="750" 
d="M732 146l-40 -286h-146l10 140h-533l106 760h178l-86 -614h236l86 614h177l-86 -614h98z" />
    <glyph glyph-name="uni0427" unicode="&#x427;" horiz-adv-x="675" 
d="M685 760l-106 -760h-178l37 263h-103q-72 0 -130 26t-92 76.5t-34 120.5q0 23 3 47l32 227h178l-31 -221q-3 -21 -3 -38q0 -48 28 -70t89 -22h83l49 351h178z" />
    <glyph glyph-name="uni0428" unicode="&#x428;" horiz-adv-x="1039" 
d="M1049 760l-106 -760h-920l106 760h178l-86 -614h196l86 614h172l-86 -614h196l86 614h178z" />
    <glyph glyph-name="uni0429" unicode="&#x429;" horiz-adv-x="1079" 
d="M1061 146l-40 -286h-146l10 140h-862l106 760h178l-86 -614h196l86 614h172l-86 -614h197l86 614h177l-86 -614h98z" />
    <glyph glyph-name="uni042A" unicode="&#x42a;" horiz-adv-x="789" 
d="M640 502q57 -29 87 -80.5t30 -118.5q0 -95 -39.5 -163.5t-112.5 -104t-171 -35.5h-295l86 614h-153l20 146h331l-20 -146l-12 -83h112q80 0 137 -29zM502.5 161q36.5 21 56 56.5t19.5 78.5t-28.5 69.5t-89.5 26.5h-88l-35 -252h79q50 0 86.5 21z" />
    <glyph glyph-name="uni042B" unicode="&#x42b;" horiz-adv-x="962" 
d="M524 502q57 -29 87 -80.5t30 -118.5q0 -95 -39.5 -163.5t-112.5 -104t-171 -35.5h-295l106 760h178l-32 -229h112q80 0 137 -29zM973 760l-106 -760h-178l106 760h178zM386.5 161q36.5 21 56 56.5t19.5 78.5t-28.5 69.5t-89.5 26.5h-88l-35 -252h79q50 0 86.5 21z" />
    <glyph glyph-name="uni042C" unicode="&#x42c;" horiz-adv-x="672" 
d="M524 502q57 -29 87 -80.5t30 -118.5q0 -95 -39.5 -163.5t-112.5 -104t-171 -35.5h-295l106 760h178l-32 -229h112q80 0 137 -29zM386.5 161q36.5 21 56 56.5t19.5 78.5t-28.5 69.5t-89.5 26.5h-88l-35 -252h79q50 0 86.5 21z" />
    <glyph glyph-name="uni042D" unicode="&#x42d;" horiz-adv-x="836" 
d="M652 728.5q80 -44.5 123.5 -122t43.5 -172.5q0 -125 -59 -227.5t-161.5 -161t-225.5 -58.5q-90 0 -162.5 39.5t-116.5 107t-53 148.5l171 6q12 -69 58 -106.5t118 -37.5q83 0 147 51t93 131h-313l16 110h315q-1 84 -48.5 132t-127.5 48q-77 0 -137.5 -40.5t-93.5 -110.5
l-170 23q51 134 157 209.5t243 75.5q103 0 183 -44.5z" />
    <glyph glyph-name="uni042E" unicode="&#x42e;" horiz-adv-x="1119" 
d="M942 729q76 -44 118 -120.5t42 -170.5q0 -124 -55 -227.5t-152.5 -163.5t-220.5 -60q-97 0 -172.5 43.5t-118 119.5t-42.5 170h-95l-45 -320h-178l106 760h178l-41 -294h96q27 90 85 159.5t141 108.5t181 39q97 0 173 -44zM803 189q55 40 86 106t31 139q0 82 -44.5 129.5
t-113.5 47.5q-67 0 -122 -40t-86 -106t-31 -139q0 -82 44.5 -129.5t113.5 -47.5q67 0 122 40z" />
    <glyph glyph-name="uni042F" unicode="&#x42f;" horiz-adv-x="676" 
d="M581 0h-178l30 217h-94l-135 -217h-194l163 252q-51 29 -78.5 78.5t-27.5 113.5q0 98 40 169t116 109t180 38h284zM453 357l36 263h-78q-75 0 -120 -46.5t-45 -117.5q0 -46 29 -72.5t90 -26.5h88z" />
    <glyph glyph-name="uni0430" unicode="&#x430;" horiz-adv-x="672" 
d="M654 518l-72 -518h-158v85q-32 -43 -78 -70.5t-106 -27.5q-57 0 -103 27.5t-73 81t-27 127.5q0 86 34.5 156.5t95 111t135.5 40.5q63 0 106 -28.5t62 -73.5l13 89h171zM383.5 144.5q32.5 21.5 51.5 58t19 79.5q0 51 -27 82t-74 31q-38 0 -70 -20t-50.5 -56t-18.5 -82
q0 -54 26.5 -84t71.5 -30q39 0 71.5 21.5z" />
    <glyph glyph-name="uni0431" unicode="&#x431;" horiz-adv-x="659" 
d="M518 483.5q50 -27.5 77 -76.5t27 -111q0 -91 -41 -161.5t-114 -109t-167 -38.5q-117 0 -184 69t-67 200q0 40 8 96q21 152 73 239t129.5 122.5t187.5 39.5l187 8l-31 -143l-147 -3q-76 -3 -124 -20.5t-77.5 -56.5t-49.5 -107q39 42 89.5 61t104.5 19q69 0 119 -27.5z
M381 147q33 24 52 63t19 83q0 47 -25.5 74t-67.5 27q-41 0 -75 -22.5t-53.5 -61t-19.5 -85.5q0 -48 26 -75t69 -27q42 0 75 24z" />
    <glyph glyph-name="uni0432" unicode="&#x432;" horiz-adv-x="551" 
d="M491.5 229.5q18.5 -27.5 18.5 -61.5q0 -78 -56 -123t-167 -45h-269l73 518h265q83 0 125 -33t42 -86q0 -38 -20.5 -72.5t-62.5 -52.5q33 -17 51.5 -44.5zM346 321.5q22 15.5 22 44.5q0 21 -12 30.5t-37 9.5h-81l-13 -100h64q35 0 57 15.5zM334.5 135.5
q21.5 18.5 21.5 49.5q0 45 -58 45h-84l-16 -113h75q40 0 61.5 18.5z" />
    <glyph glyph-name="uni0433" unicode="&#x433;" horiz-adv-x="425" 
d="M426 385h-182l-54 -385h-172l73 518h354z" />
    <glyph glyph-name="uni0434" unicode="&#x434;" horiz-adv-x="617" 
d="M593 133l-38 -263h-134l10 130h-317l-27 -130h-135l38 263h63l195 385h189l89 -385h67zM376 133l-44 274l-119 -274h163z" />
    <glyph glyph-name="uni0435" unicode="&#x435;" horiz-adv-x="648" 
d="M207 215v-1q0 -50 27 -80t70 -30q39 0 67.5 16.5t45.5 44.5l169 -13q-42 -83 -117 -124t-179 -41q-78 0 -135.5 32t-87.5 85.5t-30 116.5q0 93 40.5 163.5t113 108.5t166.5 38q80 0 137.5 -29.5t87.5 -80.5t30 -115q0 -45 -11 -91h-394zM268 385q-34 -29 -49 -82h226
q-1 52 -25 81.5t-69 29.5q-49 0 -83 -29z" />
    <glyph glyph-name="uni0436" unicode="&#x436;" horiz-adv-x="828" 
d="M632 310l157 -310h-164l-90 219l-58 -53l-23 -166h-156l25 179l-39 50l-140 -229h-179l239 333l-144 185h169l116 -182l26 182h156l-26 -183l163 183h192z" />
    <glyph glyph-name="uni0437" unicode="&#x437;" horiz-adv-x="521" 
d="M459 230q20 -30 20 -71q0 -77 -61.5 -124.5t-188.5 -47.5q-81 0 -132 22.5t-73.5 57.5t-22.5 74v10l165 2v-10q0 -21 16 -31.5t45 -10.5q41 0 63.5 20t22.5 51q0 23 -18 36t-53 13h-83l13 91h57q46 0 72 19t26 50q0 19 -13.5 29t-40.5 10q-34 0 -53.5 -16.5t-25.5 -42.5
l-155 16q12 66 71.5 110t172.5 44q108 0 159 -33.5t51 -92.5q0 -43 -24 -78t-64 -50q34 -17 54 -47z" />
    <glyph glyph-name="uni0438" unicode="&#x438;" horiz-adv-x="610" 
d="M592 518l-72 -518h-166l44 310l-214 -310h-166l73 518h165l-43 -307l214 307h165z" />
    <glyph glyph-name="uni0439" unicode="&#x439;" horiz-adv-x="610" 
d="M592 518l-72 -518h-166l44 310l-214 -310h-166l73 518h165l-43 -307l214 307h165zM241 640.5q-40 46.5 -40 129.5h96q0 -41 17.5 -63t51.5 -22q67 0 89 85h97q-16 -84 -67.5 -130t-128.5 -46q-75 0 -115 46.5z" />
    <glyph glyph-name="uni043A" unicode="&#x43a;" horiz-adv-x="569" 
d="M361 296l169 -296h-169l-103 200l-52 -48l-21 -152h-167l73 518h167l-25 -177l168 177h198z" />
    <glyph glyph-name="uni043B" unicode="&#x43b;" horiz-adv-x="579" 
d="M369 0l-58 384l-167 -384h-176l260 518h188l121 -518h-168z" />
    <glyph glyph-name="uni043C" unicode="&#x43c;" horiz-adv-x="710" 
d="M669 518l-24 -518h-150l21 308l-152 -308h-88l-63 315l-67 -315h-154l121 518h168l67 -317l153 317h168z" />
    <glyph glyph-name="uni043D" unicode="&#x43d;" horiz-adv-x="605" 
d="M587 518l-72 -518h-172l28 199h-153l-28 -199h-172l73 518h172l-26 -186h152l26 186h172z" />
    <glyph glyph-name="uni043E" unicode="&#x43e;" horiz-adv-x="657" 
d="M161 16.5q-59 29.5 -91.5 82.5t-32.5 123q0 95 41 165t114.5 107t169.5 37q75 0 134 -29.5t91.5 -83t32.5 -122.5q0 -95 -40.5 -165t-114 -107t-169.5 -37q-76 0 -135 29.5zM378 143.5q32 20.5 51 57t19 82.5q0 53 -26.5 82.5t-71.5 29.5q-39 0 -71 -20.5t-51 -57
t-19 -82.5q0 -53 26.5 -82.5t71.5 -29.5q39 0 71 20.5z" />
    <glyph glyph-name="uni043F" unicode="&#x43f;" horiz-adv-x="601" 
d="M510 0h-172l54 385h-148l-54 -385h-172l73 518h492z" />
    <glyph glyph-name="uni0440" unicode="&#x440;" horiz-adv-x="673" 
d="M542 504q45 -27 70 -77.5t25 -118.5q0 -91 -36 -164.5t-99.5 -115t-141.5 -41.5q-57 0 -97.5 24.5t-61.5 68.5l-39 -281h-172l101 719h159l-1 -90q33 49 82 76t109 27q57 0 102 -27zM391 143q31 20 50 57t19 84q0 52 -27 81.5t-73 29.5q-39 0 -71 -21.5t-50.5 -58
t-18.5 -80.5q0 -51 27.5 -81.5t75.5 -30.5q37 0 68 20z" />
    <glyph glyph-name="uni0441" unicode="&#x441;" horiz-adv-x="632" 
d="M157 18q-58 31 -89 84t-31 119q0 96 41 166t114 107t166 37q109 0 174 -54t74 -146l-168 -12q-6 37 -30.5 56.5t-59.5 19.5q-62 0 -100.5 -44.5t-38.5 -113.5q0 -53 26.5 -83.5t73.5 -30.5q37 0 68 21t47 60l162 -14q-27 -93 -102 -148t-193 -55q-76 0 -134 31z" />
    <glyph glyph-name="uni0442" unicode="&#x442;" horiz-adv-x="494" 
d="M495 385h-144l-54 -385h-172l54 385h-145l19 133h461z" />
    <glyph glyph-name="uni0443" unicode="&#x443;" horiz-adv-x="625" 
d="M606 518l-67 -481q-17 -126 -93.5 -189t-201.5 -63q-104 0 -165.5 40t-72.5 111l174 16q8 -53 74 -53q50 0 76.5 32t35.5 99l8 59q-33 -43 -78.5 -66t-99.5 -23q-75 0 -115.5 43t-40.5 112q0 23 5 53l42 310h172l-38 -277q-4 -30 -4 -43q0 -36 17.5 -52t51.5 -16
q50 0 77.5 38t34.5 92l36 258h172z" />
    <glyph glyph-name="uni0444" unicode="&#x444;" horiz-adv-x="807" 
d="M727.5 131q-41.5 -69 -115.5 -106t-169 -38l-26 -188h-157l26 188q-77 2 -133.5 33t-86 84t-29.5 120q0 93 41.5 162t115.5 106t169 38l32 230h157l-32 -230q77 -2 133.5 -33t86 -84.5t29.5 -119.5q0 -93 -41.5 -162zM538.5 146.5q33.5 25.5 51.5 65t18 82.5
q0 49 -28.5 76.5t-78.5 28.5l-39 -281q43 3 76.5 28.5zM226.5 146.5q28.5 -27.5 78.5 -28.5l39 281q-43 -3 -76.5 -28.5t-51.5 -65t-18 -82.5q0 -49 28.5 -76.5z" />
    <glyph glyph-name="uni0445" unicode="&#x445;" horiz-adv-x="559" 
d="M372 264l155 -264h-178l-79 163l-130 -163h-181l234 268l-147 250h178l71 -148l117 148h181z" />
    <glyph glyph-name="uni0446" unicode="&#x446;" horiz-adv-x="632" 
d="M608 133l-37 -263h-134l9 130h-428l73 518h172l-54 -385h146l54 385h172l-54 -385h81z" />
    <glyph glyph-name="uni0447" unicode="&#x447;" horiz-adv-x="573" 
d="M555 518l-73 -518h-172l23 161h-72q-58 0 -104.5 20t-73.5 57.5t-27 87.5q0 21 2 32l22 160h167l-22 -151q-1 -8 -1 -21q0 -28 16.5 -41.5t56.5 -13.5h54l32 227h172z" />
    <glyph glyph-name="uni0448" unicode="&#x448;" horiz-adv-x="872" 
d="M854 518l-73 -518h-763l73 518h169l-54 -385h129l54 385h166l-54 -385h129l54 385h170z" />
    <glyph glyph-name="uni0449" unicode="&#x449;" horiz-adv-x="905" 
d="M880 133l-37 -263h-134l9 130h-700l73 518h169l-54 -385h129l54 385h166l-54 -385h129l54 385h170l-54 -385h80z" />
    <glyph glyph-name="uni044A" unicode="&#x44a;" horiz-adv-x="643" 
d="M555 337.5q54 -45.5 54 -117.5q0 -105 -71.5 -162.5t-194.5 -57.5h-247l55 390h-116l18 128h286l-19 -135h84q97 0 151 -45.5zM415 141.5q29 25.5 29 67.5q0 58 -80 58h-60l-22 -151h53q51 0 80 25.5z" />
    <glyph glyph-name="uni044B" unicode="&#x44b;" horiz-adv-x="824" 
d="M477 337.5q54 -45.5 54 -117.5q0 -105 -71.5 -162.5t-194.5 -57.5h-247l73 518h170l-19 -135h84q97 0 151 -45.5zM806 518l-73 -518h-172l73 518h172zM337 141.5q29 25.5 29 67.5q0 58 -80 58h-60l-22 -151h53q51 0 80 25.5z" />
    <glyph glyph-name="uni044C" unicode="&#x44c;" horiz-adv-x="566" 
d="M477 337.5q54 -45.5 54 -117.5q0 -105 -71.5 -162.5t-194.5 -57.5h-247l73 518h170l-19 -135h84q97 0 151 -45.5zM337 141.5q29 25.5 29 67.5q0 58 -80 58h-60l-22 -151h53q51 0 80 25.5z" />
    <glyph glyph-name="uni044D" unicode="&#x44d;" horiz-adv-x="648" 
d="M489.5 500.5q58.5 -30.5 90 -84t31.5 -121.5q0 -91 -39.5 -161t-112.5 -108.5t-169 -38.5q-115 0 -182 59t-77 153l147 4q14 -96 112 -96q54 0 94 29t59 78h-192l12 93h196q-1 49 -30.5 76.5t-79.5 27.5q-53 0 -92.5 -27.5t-60.5 -74.5l-147 23q35 95 110 147t192 52
q80 0 138.5 -30.5z" />
    <glyph glyph-name="uni044E" unicode="&#x44e;" horiz-adv-x="865" 
d="M716 499.5q55 -31.5 83.5 -85t28.5 -117.5q0 -89 -38.5 -159.5t-108.5 -110.5t-162 -40q-71 0 -123.5 27.5t-82 75t-35.5 106.5h-60l-28 -196h-172l73 518h172l-26 -183h58q31 90 107.5 143t181.5 53q77 0 132 -31.5zM599.5 147q33.5 24 52 63t18.5 84q0 47 -25 74
t-67 27q-41 0 -74.5 -24t-52.5 -63.5t-19 -83.5q0 -47 25.5 -74t67.5 -27q41 0 74.5 24z" />
    <glyph glyph-name="uni044F" unicode="&#x44f;" horiz-adv-x="563" 
d="M472 0h-164l17 122h-79l-72 -122h-171l103 162q-31 23 -47.5 56t-16.5 71q0 110 70 169.5t197 59.5h236zM343 247l21 147h-51q-54 0 -80.5 -24t-26.5 -66q0 -57 74 -57h63z" />
    <glyph glyph-name="uni0450" unicode="&#x450;" horiz-adv-x="648" 
d="M207 215v-1q0 -50 27 -80t70 -30q39 0 67.5 16.5t45.5 44.5l169 -13q-42 -83 -117 -124t-179 -41q-78 0 -135.5 32t-87.5 85.5t-30 116.5q0 93 40.5 163.5t113 108.5t166.5 38q80 0 137.5 -29.5t87.5 -80.5t30 -115q0 -45 -11 -91h-394zM268 385q-34 -29 -49 -82h226
q-1 52 -25 81.5t-69 29.5q-49 0 -83 -29zM332 760l95 -173h-109l-159 173h173z" />
    <glyph glyph-name="uni0451" unicode="&#x451;" horiz-adv-x="648" 
d="M207 215v-1q0 -50 27 -80t70 -30q39 0 67.5 16.5t45.5 44.5l169 -13q-42 -83 -117 -124t-179 -41q-78 0 -135.5 32t-87.5 85.5t-30 116.5q0 93 40.5 163.5t113 108.5t166.5 38q80 0 137.5 -29.5t87.5 -80.5t30 -115q0 -45 -11 -91h-394zM268 385q-34 -29 -49 -82h226
q-1 52 -25 81.5t-69 29.5q-49 0 -83 -29zM212.5 630.5q-23.5 23.5 -23.5 56.5q0 34 23.5 57.5t56.5 23.5t57 -23.5t24 -57.5q0 -33 -24 -56.5t-57 -23.5t-56.5 23.5zM438.5 630.5q-23.5 23.5 -23.5 56.5q0 34 23.5 57.5t56.5 23.5t56 -23.5t23 -57.5q0 -33 -23 -56.5
t-56 -23.5t-56.5 23.5z" />
    <glyph glyph-name="uni0452" unicode="&#x452;" horiz-adv-x="689" 
d="M610 485q40 -46 40 -120q0 -32 -4 -61l-47 -327q-15 -102 -66.5 -147t-143.5 -45q-47 0 -97 11l22 128q13 -4 35 -4q38 0 57.5 21t26.5 69l38 272q4 30 4 49q0 37 -17 54t-52 17q-46 0 -75.5 -30.5t-40.5 -81.5l-41 -290h-172l84 605h-92l13 95h93l8 60h172l-8 -60h168
l-13 -95h-169l-22 -163q34 44 80 66.5t101 22.5q78 0 118 -46z" />
    <glyph glyph-name="uni0453" unicode="&#x453;" horiz-adv-x="425" 
d="M426 385h-182l-54 -385h-172l73 518h354zM319 587h-109l95 173h173z" />
    <glyph glyph-name="uni0454" unicode="&#x454;" horiz-adv-x="648" 
d="M158.5 17.5q-58.5 30.5 -90 84t-31.5 121.5q0 91 39.5 161t112.5 108.5t169 38.5q115 0 182 -59t77 -153l-147 -4q-14 96 -112 96q-54 0 -94 -29t-59 -78h192l-12 -93h-196q1 -49 30.5 -76.5t79.5 -27.5q53 0 92.5 27.5t60.5 74.5l147 -23q-35 -95 -110 -147t-192 -52
q-80 0 -138.5 30.5z" />
    <glyph glyph-name="uni0455" unicode="&#x455;" 
d="M73 29q-62 42 -67 117l190 13q0 -64 64 -64q34 0 55 13t21 41q0 21 -19.5 32t-72.5 27l-40 12q-78 24 -117.5 55t-39.5 88q0 88 71.5 128t191.5 40q104 0 165 -37t67 -105l-181 -13q0 22 -15.5 36t-46.5 14q-30 0 -47.5 -11t-17.5 -30q0 -14 15.5 -23t54.5 -20l49 -13
q58 -16 94 -32.5t57.5 -45t21.5 -74.5q0 -94 -71.5 -142t-205.5 -48q-114 0 -176 42z" />
    <glyph glyph-name="uni0456" unicode="&#x456;" horiz-adv-x="287" 
d="M135.5 622.5q-28.5 28.5 -28.5 69.5t28 69.5t69 28.5t69.5 -28.5t28.5 -69.5q0 -40 -28.5 -69t-69.5 -29q-40 0 -68.5 28.5zM93 518h172l-72 -518h-172z" />
    <glyph glyph-name="uni0457" unicode="&#x457;" horiz-adv-x="287" 
d="M94 518h172l-72 -518h-172zM32.5 630.5q-23.5 23.5 -23.5 56.5q0 34 23.5 57.5t56.5 23.5t57 -23.5t24 -57.5q0 -33 -24 -56.5t-57 -23.5t-56.5 23.5zM258.5 630.5q-23.5 23.5 -23.5 56.5q0 34 23.5 57.5t56.5 23.5t56 -23.5t23 -57.5q0 -33 -23 -56.5t-56 -23.5
t-56.5 23.5z" />
    <glyph glyph-name="uni0458" unicode="&#x458;" horiz-adv-x="303" 
d="M151.5 622.5q-28.5 28.5 -28.5 69.5t28 69.5t69 28.5t69.5 -28.5t28.5 -69.5q0 -40 -28.5 -69t-69.5 -29q-40 0 -68.5 28.5zM-130 -198l29 126q32 -8 64 -8q38 0 54 19.5t23 68.5l71 510h170l-75 -536q-15 -105 -68 -151t-148 -46q-67 0 -120 17z" />
    <glyph glyph-name="uni0459" unicode="&#x459;" horiz-adv-x="896" 
d="M807 337.5q54 -45.5 54 -117.5q0 -105 -71.5 -162.5t-194.5 -57.5h-247l57 407h-6l-247 -407h-184l345 518h278l-19 -135h84q97 0 151 -45.5zM667 141.5q29 25.5 29 67.5q0 58 -80 58h-60l-22 -151h53q51 0 80 25.5z" />
    <glyph glyph-name="uni045A" unicode="&#x45a;" horiz-adv-x="892" 
d="M803 337.5q54 -45.5 54 -117.5q0 -105 -71.5 -162.5t-194.5 -57.5h-247l29 207h-154l-29 -207h-172l73 518h172l-25 -179h154l25 179h170l-19 -135h84q97 0 151 -45.5zM663 141.5q29 25.5 29 67.5q0 58 -80 58h-60l-22 -151h53q51 0 80 25.5z" />
    <glyph glyph-name="uni045B" unicode="&#x45b;" horiz-adv-x="689" 
d="M610 485q40 -46 40 -120q0 -33 -5 -61l-42 -304h-172l39 282q5 38 5 49q0 37 -17 54t-53 17q-48 0 -77.5 -33t-39.5 -87l-40 -282h-172l85 605h-92l13 95h93l8 60h172l-8 -60h168l-13 -95h-169l-23 -163q34 43 80.5 66t100.5 23q79 0 119 -46z" />
    <glyph glyph-name="uni045C" unicode="&#x45c;" horiz-adv-x="569" 
d="M361 296l169 -296h-169l-103 200l-52 -48l-21 -152h-167l73 518h167l-25 -177l168 177h198zM385 587h-109l95 173h173z" />
    <glyph glyph-name="uni045D" unicode="&#x45d;" horiz-adv-x="610" 
d="M592 518l-72 -518h-166l44 310l-214 -310h-166l73 518h165l-43 -307l214 307h165zM312 760l95 -173h-109l-159 173h173z" />
    <glyph glyph-name="uni045E" unicode="&#x45e;" horiz-adv-x="625" 
d="M606 518l-67 -481q-17 -126 -93.5 -189t-201.5 -63q-104 0 -165.5 40t-72.5 111l174 16q8 -53 74 -53q50 0 76.5 32t35.5 99l8 59q-33 -43 -78.5 -66t-99.5 -23q-75 0 -115.5 43t-40.5 112q0 23 5 53l42 310h172l-38 -277q-4 -30 -4 -43q0 -36 17.5 -52t51.5 -16
q50 0 77.5 38t34.5 92l36 258h172zM248 640.5q-40 46.5 -40 129.5h96q0 -41 17.5 -63t51.5 -22q67 0 89 85h97q-16 -84 -67.5 -130t-128.5 -46q-75 0 -115 46.5z" />
    <glyph glyph-name="uni045F" unicode="&#x45f;" horiz-adv-x="601" 
d="M583 518l-73 -518h-170l-28 -146h-136l13 146h-171l73 518h172l-54 -385h148l54 385h172z" />
    <glyph glyph-name="uni0462" unicode="&#x462;" horiz-adv-x="769" 
d="M613.5 460q58.5 -28 89.5 -77t31 -110q0 -85 -41 -147t-113.5 -94t-165.5 -32h-295l80 574h-135l17 117h134l10 69h177l-10 -69h202l-17 -117h-201l-12 -86h112q79 0 137.5 -28zM512.5 170q42.5 37 42.5 102q0 83 -120 83h-89l-31 -222h81q74 0 116.5 37z" />
    <glyph glyph-name="uni0463" unicode="&#x463;" horiz-adv-x="613" 
d="M524.5 339q53.5 -44 53.5 -117q0 -107 -71.5 -164.5t-194.5 -57.5h-240l65 468h-91l14 95h91l27 197h170l-27 -197h172l-14 -95h-172l-12 -85h78q98 0 151.5 -44zM383.5 141.5q29.5 25.5 29.5 68.5q0 58 -83 58h-51l-21 -152h45q51 0 80.5 25.5z" />
    <glyph glyph-name="uni0472" unicode="&#x472;" horiz-adv-x="852" 
d="M672.5 727.5q78.5 -45.5 120.5 -123t42 -172.5q0 -123 -57 -224.5t-157.5 -161t-225.5 -59.5q-103 0 -181.5 45.5t-120.5 123t-42 172.5q0 123 57 224.5t157.5 161t225.5 59.5q103 0 181.5 -45.5zM334.5 566q-64.5 -50 -93.5 -130h422q-2 84 -49.5 132t-129.5 48
q-85 0 -149.5 -50zM552 194.5q65 50.5 93 131.5h-422q2 -85 49 -133.5t130 -48.5q85 0 150 50.5z" />
    <glyph glyph-name="uni0473" unicode="&#x473;" horiz-adv-x="655" 
d="M498 499.5q59 -31.5 89.5 -85t30.5 -118.5q0 -90 -39.5 -160t-112.5 -109.5t-170 -39.5q-80 0 -139 31.5t-89.5 85t-30.5 118.5q0 90 39.5 160t112.5 109.5t170 39.5q80 0 139 -31.5zM263 383q-40 -29 -59 -79h262q-2 53 -30.5 80.5t-78.5 27.5q-54 0 -94 -29z
M392.5 135.5q40.5 29.5 59.5 80.5h-263q1 -54 29.5 -82t79.5 -28q54 0 94.5 29.5z" />
    <glyph glyph-name="uni0474" unicode="&#x474;" horiz-adv-x="726" 
d="M796 760l-29 -131h-14q-27 0 -46 -14t-36 -49l-264 -566h-192l-140 760h179l78 -580l184 429q29 68 59.5 99.5t73.5 41.5t123 10h24z" />
    <glyph glyph-name="uni0475" unicode="&#x475;" horiz-adv-x="590" 
d="M627 518l-27 -123h-12q-25 0 -41 -13t-29 -39l-179 -343h-179l-125 518h175l54 -379l99 227q28 70 58 102t71.5 41t120.5 9h14z" />
    <glyph glyph-name="uni048A" unicode="&#x48a;" horiz-adv-x="788" 
d="M308 882.5q-40 46.5 -40 129.5h96q0 -41 17.5 -63t51.5 -22q67 0 89 85h97q-16 -84 -67.5 -130t-128.5 -46q-75 0 -115 46.5zM626 -140h-141l51 140h-77l12 80l57 414l-326 -494l-1 1v-1h-178l106 760h178l-69 -493l326 493l1 -1v1h178l-86 -614h113z" />
    <glyph glyph-name="uni048B" unicode="&#x48b;" horiz-adv-x="652" 
d="M237 640.5q-40 46.5 -40 129.5h96q0 -41 17.5 -63t51.5 -22q67 0 89 85h97q-16 -84 -67.5 -130t-128.5 -46q-75 0 -115 46.5zM496 -130h-134l50 130h-58l44 310l-214 -310h-166l73 518h165l-43 -307l214 307h165l-54 -385h90z" />
    <glyph glyph-name="uni048C" unicode="&#x48c;" horiz-adv-x="769" 
d="M613.5 460q58.5 -28 89.5 -77t31 -110q0 -85 -41 -147t-113.5 -94t-165.5 -32h-295l80 574h-135l17 117h134l10 69h177l-10 -69h202l-17 -117h-201l-12 -86h112q79 0 137.5 -28zM512.5 170q42.5 37 42.5 102q0 83 -120 83h-89l-31 -222h81q74 0 116.5 37z" />
    <glyph glyph-name="uni048D" unicode="&#x48d;" horiz-adv-x="613" 
d="M524.5 339q53.5 -44 53.5 -117q0 -107 -71.5 -164.5t-194.5 -57.5h-240l65 468h-91l14 95h91l27 197h170l-27 -197h172l-14 -95h-172l-12 -85h78q98 0 151.5 -44zM383.5 141.5q29.5 25.5 29.5 68.5q0 58 -83 58h-51l-21 -152h45q51 0 80.5 25.5z" />
    <glyph glyph-name="uni048E" unicode="&#x48e;" horiz-adv-x="706" 
d="M659.5 348.5q-45.5 -73.5 -129.5 -106.5l35 -80l-92 -51l-48 108q-26 -2 -41 -2h-153l-30 -217h-178l106 760h320q80 0 137.5 -29t88 -81t30.5 -122q0 -106 -45.5 -179.5zM515 443q17 36 17 77q0 48 -28 74t-92 26h-125l-36 -263h114l-41 92l93 51l50 -115q31 22 48 58z
" />
    <glyph glyph-name="uni048F" unicode="&#x48f;" horiz-adv-x="678" 
d="M599.5 127q-42.5 -77 -115.5 -113l35 -80l-76 -43l-43 98q-24 -2 -35 -2q-59 0 -100.5 26t-62.5 71l-41 -285h-172l102 719h159l-1 -88q29 46 77.5 73.5t105.5 27.5q60 0 108 -30t75 -82t27 -115q0 -100 -42.5 -177zM421 156q26 25 40.5 61t14.5 76q0 53 -27 82.5
t-75 29.5q-45 0 -81.5 -25t-57 -66.5t-20.5 -87.5q0 -51 28 -82t78 -31q7 0 23 2l-44 99l77 43z" />
    <glyph glyph-name="uni0490" unicode="&#x490;" horiz-adv-x="520" 
d="M588 896l-39 -282h-262l-86 -614h-178l106 760h287l27 136h145z" />
    <glyph glyph-name="uni0491" unicode="&#x491;" horiz-adv-x="436" 
d="M469 613l-32 -228h-193l-54 -385h-172l73 518h234l19 95h125z" />
    <glyph glyph-name="uni0492" unicode="&#x492;" horiz-adv-x="610" 
d="M377 614l-28 -201h190l-17 -117h-190l-41 -296h-178l41 296h-127l17 117h127l48 347h440l-20 -146h-262z" />
    <glyph glyph-name="uni0493" unicode="&#x493;" horiz-adv-x="471" 
d="M290 385l-15 -106h121l-13 -96h-121l-26 -183h-172l26 183h-80l13 96h80l34 239h354l-19 -133h-182z" />
    <glyph glyph-name="uni0494" unicode="&#x494;" horiz-adv-x="700" 
d="M577 400q77 -69 77 -191q0 -111 -41.5 -202.5t-121 -150t-191.5 -71.5l-1 153q55 10 94 48.5t59 94.5t20 117q0 62 -37 93.5t-118 31.5h-71l-45 -323h-178l106 760h472l-20 -146h-294l-21 -145h97q137 0 214 -69z" />
    <glyph glyph-name="uni0495" unicode="&#x495;" horiz-adv-x="584" 
d="M467 250.5q64 -50.5 64 -146.5q0 -139 -77.5 -224t-222.5 -95l1 134q61 8 96.5 55t35.5 110q0 41 -23 60t-74 19h-54l-23 -163h-172l73 518h373l-17 -121h-201l-14 -96h65q106 0 170 -50.5z" />
    <glyph glyph-name="uni0496" unicode="&#x496;" horiz-adv-x="1076" 
d="M803 444l202 -444h-182l-128 330l-87 -92l-33 -238h-172l36 256l-60 90l-212 -346h-197l321 478l-187 282h189l173 -310l43 310h172l-44 -314l250 314h216zM1018 -140h-146l11 140h-45l20 146h200z" />
    <glyph glyph-name="uni0497" unicode="&#x497;" horiz-adv-x="852" 
d="M632 310l157 -310h-164l-90 219l-58 -53l-23 -166h-156l25 179l-39 50l-140 -229h-179l239 333l-144 185h169l116 -182l26 182h156l-26 -183l163 183h192zM795 -130h-135l11 130h-41l18 133h184z" />
    <glyph glyph-name="uni0498" unicode="&#x498;" horiz-adv-x="627" 
d="M598 241q0 -102 -63 -167t-174 -82l-29 -148h-143l12 151q-89 17 -137 68.5t-48 119.5q0 22 2 34l171 3q-2 -12 -2 -19q0 -37 25.5 -56.5t74.5 -19.5q61 0 98 35t37 90q0 41 -28 62t-90 21h-113l17 130h95q62 0 101 30t39 77q0 33 -22 50t-64 17q-51 0 -81 -25t-39 -67
l-167 14q18 101 99 157.5t210 56.5q82 0 136.5 -24.5t80.5 -65t26 -90.5q0 -63 -32 -112t-90 -78q98 -47 98 -162z" />
    <glyph glyph-name="uni0499" unicode="&#x499;" horiz-adv-x="521" 
d="M459 230q20 -30 20 -71q0 -65 -45 -110t-137 -58l-27 -137h-132l12 140q-77 15 -113 56t-36 91v10l165 2v-10q0 -21 16 -31.5t45 -10.5q41 0 63.5 20t22.5 51q0 23 -18 36t-53 13h-83l13 91h57q46 0 72 19t26 50q0 19 -13.5 29t-40.5 10q-34 0 -53.5 -16.5t-25.5 -42.5
l-155 16q12 66 71.5 110t172.5 44q108 0 159 -33.5t51 -92.5q0 -43 -24 -78t-64 -50q34 -17 54 -47z" />
    <glyph glyph-name="uni049A" unicode="&#x49a;" horiz-adv-x="694" 
d="M444 446l198 -446h-190l-129 312l-92 -102l-30 -210h-178l106 760h179l-43 -306l260 306h203zM636 -140h-146l11 140h-45l20 146h200z" />
    <glyph glyph-name="uni049B" unicode="&#x49b;" horiz-adv-x="588" 
d="M361 296l169 -296h-169l-103 200l-52 -48l-21 -152h-167l73 518h167l-25 -177l168 177h198zM531 -130h-135l11 130h-41l18 133h184z" />
    <glyph glyph-name="uni049C" unicode="&#x49c;" horiz-adv-x="784" 
d="M525 480l215 -480h-179l-143 385l-17 -15l-27 -189h-106l15 103l-54 -49l-33 -235h-173l106 760h173l-46 -326l55 52l27 189h106l-13 -93l180 178h231z" />
    <glyph glyph-name="uni049D" unicode="&#x49d;" horiz-adv-x="663" 
d="M441 325l184 -325h-170l-119 239h-1l-19 -138h-82l13 90l-43 -35l-22 -156h-164l73 518h163l-28 -199l44 37l17 123h82l-9 -66l122 105h199z" />
    <glyph glyph-name="uni049E" unicode="&#x49e;" horiz-adv-x="843" 
d="M594 442l206 -442h-181l-139 323l-173 -181l-20 -142h-177l82 587h-126l14 101h126l10 72h177l-10 -72h113l-15 -101h-112l-28 -197l341 370h218z" />
    <glyph glyph-name="uni049F" unicode="&#x49f;" horiz-adv-x="627" 
d="M420 296l168 -296h-169l-102 201l-49 -46l-22 -155h-170l84 605h-91l13 95h92l8 60h170l-8 -60h171l-13 -95h-172l-36 -263l165 176h200z" />
    <glyph glyph-name="uni04A0" unicode="&#x4a0;" horiz-adv-x="825" 
d="M584 446l198 -446h-190l-129 312l-92 -102l-30 -210h-178l86 614h-177l20 146h356l-43 -306l260 306h203z" />
    <glyph glyph-name="uni04A1" unicode="&#x4a1;" horiz-adv-x="701" 
d="M493 296l169 -296h-169l-103 200l-52 -48l-21 -152h-167l54 386h-170l19 132h337l-25 -177l168 177h198z" />
    <glyph glyph-name="uni04A2" unicode="&#x4a2;" horiz-adv-x="763" 
d="M733 760l-106 -760h-178l45 320h-248l-45 -320h-178l106 760h179l-41 -294h248l41 294h177zM705 -140h-146l11 140h-45l20 146h200z" />
    <glyph glyph-name="uni04A3" unicode="&#x4a3;" horiz-adv-x="638" 
d="M587 518l-72 -518h-172l28 199h-153l-28 -199h-172l73 518h172l-26 -186h152l26 186h172zM576 -130h-135l11 130h-41l18 133h184z" />
    <glyph glyph-name="uni04A4" unicode="&#x4a4;" horiz-adv-x="946" 
d="M733 760l-106 -760h-178l45 320h-248l-45 -320h-178l106 760h179l-41 -294h248l41 294h177zM975 614h-262l-86 -614h-178l106 760h440z" />
    <glyph glyph-name="uni04A5" unicode="&#x4a5;" horiz-adv-x="750" 
d="M587 518l-72 -518h-172l28 199h-153l-28 -199h-172l73 518h172l-26 -186h152l26 186h172zM752 385h-182l-54 -385h-172l73 518h354z" />
    <glyph glyph-name="uni04A6" unicode="&#x4a6;" horiz-adv-x="1119" 
d="M996 400q77 -69 77 -191q0 -111 -41.5 -202.5t-121 -150t-191.5 -71.5l-1 153q55 10 94 48.5t59 94.5t20 117q0 62 -37 93.5t-118 31.5h-71l-45 -323h-177l86 614h-242l-86 -614h-178l106 760h597l-41 -291h96q138 0 215 -69z" />
    <glyph glyph-name="uni04A7" unicode="&#x4a7;" horiz-adv-x="904" 
d="M787 250.5q64 -50.5 64 -146.5q0 -139 -77.5 -224t-221.5 -95v134q61 8 96.5 55t35.5 110q0 41 -23 60t-74 19h-54l-23 -163h-172l54 385h-148l-54 -385h-172l73 518h492l-31 -217h65q106 0 170 -50.5z" />
    <glyph glyph-name="uni04A8" unicode="&#x4a8;" horiz-adv-x="1021" 
d="M950.5 278.5q-49.5 -98.5 -137.5 -168.5q43 3 82 16t67 27l-6 -142q-67 -24 -160 -24q-90 0 -168 27q-85 -27 -182 -27q-125 0 -215 46t-137.5 128t-47.5 190q0 106 45 192.5t122 144.5t171 84l-5 -163q-62 -31 -107 -97t-45 -162q0 -109 62 -175t180 -66h5
q-103 106 -103 279q0 108 41 195.5t121 138.5t193 51q133 0 203.5 -71.5t70.5 -208.5q0 -116 -49.5 -214.5zM639 152q84 47 132.5 135.5t48.5 193.5q0 73 -25 106t-75 33q-58 0 -97.5 -38.5t-58 -98.5t-18.5 -124q0 -142 93 -207z" />
    <glyph glyph-name="uni04A9" unicode="&#x4a9;" horiz-adv-x="788" 
d="M733 197.5q-32 -61.5 -90 -107.5q47 3 81 11v-105q-36 -9 -97 -9q-73 0 -139 24q-78 -24 -167 -24q-87 0 -152.5 31t-101.5 87t-36 128q0 111 64.5 189t185.5 109l-4 -142q-44 -19 -69 -60.5t-25 -91.5q0 -67 45 -100.5t120 -35.5q-68 74 -68 171q0 73 32.5 132t93.5 93
t143 34q69 0 117.5 -26.5t73.5 -72.5t25 -103q0 -70 -32 -131.5zM465 363.5q-29 -49.5 -29 -115.5q0 -78 49 -119q58 29 90.5 83t32.5 125q0 38 -16 57t-45 19q-53 0 -82 -49.5z" />
    <glyph glyph-name="uni04AA" unicode="&#x4aa;" horiz-adv-x="834" 
d="M538.5 189.5q57.5 40.5 85.5 106.5l181 -16q-40 -118 -130 -196t-213 -93l-29 -147h-142l13 154q-116 29 -183.5 119t-67.5 223q0 118 54.5 217.5t153 157.5t223.5 58q100 0 175.5 -37.5t119.5 -103.5t54 -151l-186 -15q-11 70 -54.5 108.5t-113.5 38.5
q-68 0 -123.5 -36.5t-87 -98t-31.5 -134.5q0 -90 47.5 -142.5t126.5 -52.5q70 0 127.5 40.5z" />
    <glyph glyph-name="uni04AB" unicode="&#x4ab;" horiz-adv-x="632" 
d="M377 144q31 21 47 60l162 -14q-23 -78 -80 -130t-144 -67l-28 -139h-132l12 142q-82 21 -129.5 82t-47.5 143q0 96 41 166t114 107t166 37q109 0 174 -54t74 -146l-168 -12q-6 37 -30.5 56.5t-59.5 19.5q-62 0 -100.5 -44.5t-38.5 -113.5q0 -53 26.5 -83.5t73.5 -30.5
q37 0 68 21z" />
    <glyph glyph-name="uni04AC" unicode="&#x4ac;" horiz-adv-x="625" 
d="M653 614h-202l-86 -614h-178l86 614h-202l21 146h581zM443 -140h-146l11 140h-45l20 146h200z" />
    <glyph glyph-name="uni04AD" unicode="&#x4ad;" horiz-adv-x="494" 
d="M495 385h-144l-54 -385h-172l54 385h-145l19 133h461zM358 -130h-135l11 130h-41l18 133h184z" />
    <glyph glyph-name="uni04AE" unicode="&#x4ae;" horiz-adv-x="668" 
d="M430 311l-44 -311h-178l44 312l-182 448h175l106 -308l191 308h196z" />
    <glyph glyph-name="uni04AF" unicode="&#x4af;" horiz-adv-x="630" 
d="M366 -1l-28 -200h-178l29 204l-152 515h164l87 -401l196 401h182z" />
    <glyph glyph-name="uni04B0" unicode="&#x4b0;" horiz-adv-x="668" 
d="M495 406h114l-16 -117h-166l-41 -289h-178l41 289h-169l16 117h118l-144 354h175l106 -308l191 308h196z" />
    <glyph glyph-name="uni04B1" unicode="&#x4b1;" horiz-adv-x="630" 
d="M426 102h90l-14 -102h-135l-1 -1l-28 -200h-178l29 201h-136l14 102h93l-123 416h164l87 -401l196 401h182z" />
    <glyph glyph-name="uni04B2" unicode="&#x4b2;" horiz-adv-x="701" 
d="M453 389l193 -389h-184l-114 250l-184 -250h-199l309 396l-181 364h185l101 -235l164 235h200zM643 -140h-146l11 140h-45l20 146h200z" />
    <glyph glyph-name="uni04B3" unicode="&#x4b3;" horiz-adv-x="578" 
d="M372 264l155 -264h-178l-79 163l-130 -163h-181l234 268l-147 250h178l71 -148l117 148h181zM521 -130h-135l11 130h-41l18 133h184z" />
    <glyph glyph-name="uni04B4" unicode="&#x4b4;" horiz-adv-x="940" 
d="M922 146l-40 -286h-144l10 140h-577l86 614h-185l20 146h548l-20 -146h-185l-66 -468h285l86 614h172l-86 -614h96z" />
    <glyph glyph-name="uni04B5" unicode="&#x4b5;" horiz-adv-x="772" 
d="M748 133l-38 -263h-134l9 130h-475l54 386h-130l19 132h429l-19 -132h-134l-35 -253h204l54 385h166l-54 -385h84z" />
    <glyph glyph-name="uni04B6" unicode="&#x4b6;" horiz-adv-x="713" 
d="M685 760l-106 -760h-178l37 263h-103q-72 0 -130 26t-92 76.5t-34 120.5q0 23 3 47l32 227h178l-31 -221q-3 -21 -3 -38q0 -48 28 -70t89 -22h83l49 351h178zM655 -140h-146l11 140h-45l20 146h200z" />
    <glyph glyph-name="uni04B7" unicode="&#x4b7;" horiz-adv-x="606" 
d="M555 518l-73 -518h-172l23 161h-72q-58 0 -104.5 20t-73.5 57.5t-27 87.5q0 21 2 32l22 160h167l-22 -151q-1 -8 -1 -21q0 -28 16.5 -41.5t56.5 -13.5h54l32 227h172zM544 -130h-135l11 130h-41l18 133h184z" />
    <glyph glyph-name="uni04B8" unicode="&#x4b8;" horiz-adv-x="742" 
d="M752 760l-106 -760h-172l37 263h-89l-20 -139h-106l20 139q-67 3 -120.5 29.5t-85 76t-31.5 117.5q0 23 3 47l32 227h172l-31 -221q-3 -21 -3 -38q0 -41 20.5 -63t63.5 -27l23 161h106l-23 -163h89l49 351h172z" />
    <glyph glyph-name="uni04B9" unicode="&#x4b9;" horiz-adv-x="618" 
d="M600 518l-73 -518h-172l23 161h-46l-12 -84h-83l12 84q-85 4 -139 48.5t-54 116.5q0 21 2 32l22 160h166l-22 -151q-2 -16 -2 -21q0 -22 10.5 -35t34.5 -18l15 106h83l-15 -108h46l32 227h172z" />
    <glyph glyph-name="uni04BA" unicode="&#x4ba;" horiz-adv-x="694" 
d="M526 456q58 -25 92 -75.5t34 -122.5q0 -17 -4 -47l-30 -211h-178l28 202q3 21 3 38q0 49 -27.5 70.5t-89.5 21.5h-106l-46 -332h-179l106 760h179l-39 -279h127q72 0 130 -25z" />
    <glyph glyph-name="uni04BB" unicode="&#x4bb;" horiz-adv-x="631" 
d="M553 485q40 -46 40 -120q0 -33 -5 -61l-42 -304h-172l39 282q5 38 5 49q0 37 -17 54t-53 17q-48 0 -77.5 -33t-39.5 -87l-40 -282h-172l107 760h172l-45 -318q34 43 80.5 66t100.5 23q79 0 119 -46z" />
    <glyph glyph-name="uni04BC" unicode="&#x4bc;" horiz-adv-x="1018" 
d="M997.5 375.5q-4.5 -30.5 -12.5 -50.5h-589q1 -85 49.5 -133t129.5 -48q59 0 112 29.5t86 79.5l174 -31q-58 -111 -158.5 -173t-223.5 -62q-102 0 -179.5 45t-119.5 122.5t-42 170.5q-84 1 -129.5 33.5t-45.5 92.5q0 30 9 65.5t24 68.5l138 -19q-21 -50 -21 -87
q0 -20 9 -29.5t30 -12.5q24 96 85 172.5t148.5 120t188.5 43.5t179 -45t120.5 -122t42.5 -171q0 -29 -4.5 -59.5zM508 566q-64 -50 -93 -130h415q-1 85 -47.5 132.5t-127.5 47.5q-83 0 -147 -50z" />
    <glyph glyph-name="uni04BD" unicode="&#x4bd;" horiz-adv-x="794" 
d="M353 215v-1q0 -50 27 -80t70 -30q39 0 67.5 16.5t45.5 44.5l169 -13q-42 -83 -117 -124t-179 -41q-77 0 -134 31t-87.5 83.5t-31.5 114.5q-70 2 -110 32t-40 85q0 28 8 62t20 60l119 -19q-21 -55 -21 -91q0 -20 7.5 -29.5t25.5 -12.5q25 106 108 167t203 61
q80 0 137.5 -29.5t87.5 -80.5t30 -115q0 -45 -11 -91h-394zM414 385q-34 -29 -49 -82h226q-1 52 -25 81.5t-69 29.5q-49 0 -83 -29z" />
    <glyph glyph-name="uni04BE" unicode="&#x4be;" horiz-adv-x="1018" 
d="M997.5 375.5q-4.5 -30.5 -12.5 -50.5h-589q1 -85 49.5 -133t129.5 -48q59 0 112 29.5t86 79.5l174 -31q-49 -93 -128.5 -152.5t-178.5 -76.5l-29 -149h-142l12 152q-79 17 -137 64t-89 116t-31 149q-84 1 -129.5 33.5t-45.5 92.5q0 30 9 65.5t24 68.5l138 -19
q-21 -50 -21 -87q0 -20 9 -29.5t30 -12.5q24 96 85 172.5t148.5 120t188.5 43.5t179 -45t120.5 -122t42.5 -171q0 -29 -4.5 -59.5zM508 566q-64 -50 -93 -130h415q-1 85 -47.5 132.5t-127.5 47.5q-83 0 -147 -50z" />
    <glyph glyph-name="uni04BF" unicode="&#x4bf;" horiz-adv-x="794" 
d="M353 215v-1q0 -50 27 -80t70 -30q39 0 67.5 16.5t45.5 44.5l169 -13q-67 -130 -215 -158l-28 -140h-131l12 140q-86 18 -135.5 79.5t-51.5 142.5q-70 2 -110 32t-40 85q0 28 8 62t20 60l119 -19q-21 -55 -21 -91q0 -20 7.5 -29.5t25.5 -12.5q25 106 108 167t203 61
q80 0 137.5 -29.5t87.5 -80.5t30 -115q0 -45 -11 -91h-394zM414 385q-34 -29 -49 -82h226q-1 52 -25 81.5t-69 29.5q-49 0 -83 -29z" />
    <glyph glyph-name="uni04C0" unicode="&#x4c0;" horiz-adv-x="296" 
d="M129 760h179l-107 -760h-178z" />
    <glyph glyph-name="uni04C1" unicode="&#x4c1;" horiz-adv-x="1048" 
d="M803 444l202 -444h-182l-128 330l-87 -92l-33 -238h-172l36 256l-60 90l-212 -346h-197l321 478l-187 282h189l173 -310l43 310h172l-44 -314l250 314h216zM496 882.5q-40 46.5 -40 129.5h96q0 -41 17.5 -63t51.5 -22q67 0 89 85h97q-16 -84 -67.5 -130t-128.5 -46
q-75 0 -115 46.5z" />
    <glyph glyph-name="uni04C2" unicode="&#x4c2;" horiz-adv-x="828" 
d="M632 310l157 -310h-164l-90 219l-58 -53l-23 -166h-156l25 179l-39 50l-140 -229h-179l239 333l-144 185h169l116 -182l26 182h156l-26 -183l163 183h192zM350 640.5q-40 46.5 -40 129.5h96q0 -41 17.5 -63t51.5 -22q67 0 89 85h97q-16 -84 -67.5 -130t-128.5 -46
q-75 0 -115 46.5z" />
    <glyph glyph-name="uni04C3" unicode="&#x4c3;" horiz-adv-x="674" 
d="M603 321q46 -68 46 -157q0 -100 -42 -181t-120 -132.5t-185 -65.5l1 152q78 17 120.5 75.5t42.5 139.5q0 51 -25 94.5t-79 97.5l-134 -149l-27 -195h-178l106 760h178l-42 -303l256 303h216l-269 -298q89 -73 135 -141z" />
    <glyph glyph-name="uni04C4" unicode="&#x4c4;" horiz-adv-x="586" 
d="M495 190.5q40 -58.5 40 -130.5q0 -79 -37.5 -140t-105 -96.5t-154.5 -38.5l1 134q57 8 93.5 47t36.5 100q0 41 -20.5 77t-66.5 79l-76 -70l-21 -152h-167l73 518h167l-25 -178l168 178h199l-224 -208q79 -61 119 -119.5z" />
    <glyph glyph-name="uni04C5" unicode="&#x4c5;" horiz-adv-x="777" 
d="M615 -140h-142l54 140h-45l-81 583l-243 -583h-193l353 760h202l114 -614h125z" />
    <glyph glyph-name="uni04C6" unicode="&#x4c6;" horiz-adv-x="663" 
d="M511 -130h-132l49 130h-59l-58 384l-167 -384h-176l260 518h188l90 -385h138z" />
    <glyph glyph-name="uni04C7" unicode="&#x4c7;" horiz-adv-x="722" 
d="M733 760l-95 -679q-21 -147 -104.5 -221.5t-217.5 -74.5q-13 0 -18 1l1 150l17 -1q52 0 93 35.5t50 102.5l35 247h-248l-45 -320h-178l106 760h178l-41 -295h248l42 295h177z" />
    <glyph glyph-name="uni04C8" unicode="&#x4c8;" horiz-adv-x="605" 
d="M523 58l-8 -58l-4 -24q-16 -107 -68 -149t-148 -42q-40 0 -86 12l18 120q24 -4 37 -4q36 0 53.5 18t22.5 54l12 79l19 135h-153l-28 -199h-172l73 518h172l-26 -186h152l26 186h172l-61 -440z" />
    <glyph glyph-name="uni04C9" unicode="&#x4c9;" horiz-adv-x="769" 
d="M617 -140h-141l50 140h-77l45 320h-248l-45 -320h-178l106 760h179l-41 -294h248l41 294h177l-86 -614h114z" />
    <glyph glyph-name="uni04CA" unicode="&#x4ca;" horiz-adv-x="641" 
d="M484 -130h-133l50 130h-58l28 199h-153l-28 -199h-172l73 518h172l-26 -186h152l26 186h172l-54 -385h83z" />
    <glyph glyph-name="uni04CB" unicode="&#x4cb;" horiz-adv-x="675" 
d="M579 0h-122l-29 -140h-145l34 253h100l21 150h-103q-72 0 -130 26t-92 76.5t-34 120.5q0 23 3 47l32 227h178l-31 -221q-3 -21 -3 -38q0 -48 28 -70t89 -22h83l49 351h178z" />
    <glyph glyph-name="uni04CC" unicode="&#x4cc;" horiz-adv-x="573" 
d="M555 518l-73 -518h-112l-26 -130h-134l30 214h82l12 87h-71q-58 0 -104.5 20t-73.5 57.5t-27 87.5q0 10 2 32l20 150h167l-20 -142q-1 -7 -1 -20q0 -28 16.5 -41.5t56.5 -13.5h53l31 217h172z" />
    <glyph glyph-name="uni04CD" unicode="&#x4cd;" horiz-adv-x="972" 
d="M809 -140h-141l53 140h-58l34 515l-240 -515h-85l-96 518l-110 -518h-167l174 760h181l96 -505l235 505h184l-31 -614h115z" />
    <glyph glyph-name="uni04CE" unicode="&#x4ce;" horiz-adv-x="766" 
d="M616 -130h-132l51 130h-40l21 308l-152 -308h-88l-63 315l-67 -315h-154l121 518h168l67 -317l153 317h168l-18 -385h98z" />
    <glyph glyph-name="uni04CF" unicode="&#x4cf;" horiz-adv-x="281" 
d="M124 760h172l-106 -760h-172z" />
    <glyph glyph-name="uni04D0" unicode="&#x4d0;" horiz-adv-x="699" 
d="M460 110h-264l-46 -110h-185l353 760h202l141 -760h-186zM443 239l-47 349l-146 -349h193zM319 882.5q-40 46.5 -40 129.5h96q0 -41 17.5 -63t51.5 -22q67 0 89 85h97q-16 -84 -67.5 -130t-128.5 -46q-75 0 -115 46.5z" />
    <glyph glyph-name="uni04D1" unicode="&#x4d1;" horiz-adv-x="672" 
d="M654 518l-72 -518h-158v85q-32 -43 -78 -70.5t-106 -27.5q-57 0 -103 27.5t-73 81t-27 127.5q0 86 34.5 156.5t95 111t135.5 40.5q63 0 106 -28.5t62 -73.5l13 89h171zM383.5 144.5q32.5 21.5 51.5 58t19 79.5q0 51 -27 82t-74 31q-38 0 -70 -20t-50.5 -56t-18.5 -82
q0 -54 26.5 -84t71.5 -30q39 0 71.5 21.5zM249 640.5q-40 46.5 -40 129.5h96q0 -41 17.5 -63t51.5 -22q67 0 89 85h97q-16 -84 -67.5 -130t-128.5 -46q-75 0 -115 46.5z" />
    <glyph glyph-name="uni04D2" unicode="&#x4d2;" horiz-adv-x="699" 
d="M460 110h-264l-46 -110h-185l353 760h202l141 -760h-186zM443 239l-47 349l-146 -349h193zM270.5 872.5q-23.5 23.5 -23.5 56.5q0 34 23.5 57.5t56.5 23.5t57 -23.5t24 -57.5q0 -33 -24 -56.5t-57 -23.5t-56.5 23.5zM496.5 872.5q-23.5 23.5 -23.5 56.5q0 34 23.5 57.5
t56.5 23.5t56 -23.5t23 -57.5q0 -33 -23 -56.5t-56 -23.5t-56.5 23.5z" />
    <glyph glyph-name="uni04D3" unicode="&#x4d3;" horiz-adv-x="672" 
d="M654 518l-72 -518h-158v85q-32 -43 -78 -70.5t-106 -27.5q-57 0 -103 27.5t-73 81t-27 127.5q0 86 34.5 156.5t95 111t135.5 40.5q63 0 106 -28.5t62 -73.5l13 89h171zM383.5 144.5q32.5 21.5 51.5 58t19 79.5q0 51 -27 82t-74 31q-38 0 -70 -20t-50.5 -56t-18.5 -82
q0 -54 26.5 -84t71.5 -30q39 0 71.5 21.5zM200.5 630.5q-23.5 23.5 -23.5 56.5q0 34 23.5 57.5t56.5 23.5t57 -23.5t24 -57.5q0 -33 -24 -56.5t-57 -23.5t-56.5 23.5zM426.5 630.5q-23.5 23.5 -23.5 56.5q0 34 23.5 57.5t56.5 23.5t56 -23.5t23 -57.5q0 -33 -23 -56.5
t-56 -23.5t-56.5 23.5z" />
    <glyph glyph-name="uni04D4" unicode="&#x4d4;" horiz-adv-x="990" 
d="M725 615l-22 -151h258l-20 -139h-257l-26 -180h270l-20 -145h-448l20 145h-243l-94 -145h-184l526 760h527l-20 -145h-267zM498 273l49 348l-226 -348h177z" />
    <glyph glyph-name="uni04D5" unicode="&#x4d5;" horiz-adv-x="962" 
d="M541 219v-9q0 -49 27 -77.5t71 -28.5q35 0 62.5 15.5t45.5 43.5l155 -13q-46 -80 -117 -121.5t-164 -41.5q-67 0 -116.5 25.5t-77.5 72.5q-73 -98 -223 -98q-88 0 -136 37t-48 104q0 90 67 132.5t189 42.5h126l3 35q0 40 -23 58t-61 18q-35 0 -61 -15.5t-41 -41.5
l-150 13q34 70 101.5 115.5t171.5 45.5q55 0 100.5 -15.5t74.5 -47.5q76 63 176 63q111 0 172 -60t61 -164q0 -21 -3 -46t-7 -42h-375zM600.5 381.5q-31.5 -29.5 -46.5 -78.5h217v6q0 48 -24 75t-68 27q-47 0 -78.5 -29.5zM341.5 116.5q36.5 28.5 44.5 80.5l3 22h-103
q-62 0 -88 -18t-26 -54q0 -30 21.5 -44.5t58.5 -14.5q53 0 89.5 28.5z" />
    <glyph glyph-name="uni04D6" unicode="&#x4d6;" 
d="M287 614l-21 -150h269l-20 -140h-268l-25 -178h280l-20 -146h-459l106 760h457l-20 -146h-279zM258 882.5q-40 46.5 -40 129.5h96q0 -41 17.5 -63t51.5 -22q67 0 89 85h97q-16 -84 -67.5 -130t-128.5 -46q-75 0 -115 46.5z" />
    <glyph glyph-name="uni04D7" unicode="&#x4d7;" horiz-adv-x="648" 
d="M207 215v-1q0 -50 27 -80t70 -30q39 0 67.5 16.5t45.5 44.5l169 -13q-42 -83 -117 -124t-179 -41q-78 0 -135.5 32t-87.5 85.5t-30 116.5q0 93 40.5 163.5t113 108.5t166.5 38q80 0 137.5 -29.5t87.5 -80.5t30 -115q0 -45 -11 -91h-394zM268 385q-34 -29 -49 -82h226
q-1 52 -25 81.5t-69 29.5q-49 0 -83 -29zM261 640.5q-40 46.5 -40 129.5h96q0 -41 17.5 -63t51.5 -22q67 0 89 85h97q-16 -84 -67.5 -130t-128.5 -46q-75 0 -115 46.5z" />
    <glyph glyph-name="uni04D8" unicode="&#x4d8;" horiz-adv-x="844" 
d="M665.5 727.5q77.5 -45.5 119.5 -122.5t42 -170q0 -121 -58 -224t-158 -163.5t-219 -60.5q-101 0 -179 45t-121 122t-43 170q0 28 5 59t12 55l590 -1q-1 84 -50.5 132t-128.5 48q-60 0 -112.5 -29.5t-86.5 -80.5l-173 31q55 110 156.5 172.5t224.5 62.5q102 0 179.5 -45.5
zM544.5 194.5q64.5 51.5 93.5 132.5h-417q1 -85 48.5 -134.5t126.5 -49.5q84 0 148.5 51.5z" />
    <glyph glyph-name="uni04D9" unicode="&#x4d9;" horiz-adv-x="648" 
d="M492.5 499q57.5 -32 87.5 -85.5t30 -116.5q0 -93 -40.5 -163.5t-113 -108.5t-166.5 -38q-80 0 -137.5 29.5t-87.5 81t-30 115.5q0 44 11 90h395v1q0 50 -27.5 80.5t-70.5 30.5q-38 0 -66.5 -17t-46.5 -45l-169 14q86 164 296 164q78 0 135.5 -32zM379.5 133
q34.5 29 49.5 81h-227q1 -52 25.5 -81t68.5 -29q49 0 83.5 29z" />
    <glyph glyph-name="uni04DA" unicode="&#x4da;" horiz-adv-x="844" 
d="M665.5 727.5q77.5 -45.5 119.5 -122.5t42 -170q0 -121 -58 -224t-158 -163.5t-219 -60.5q-101 0 -179 45t-121 122t-43 170q0 28 5 59t12 55l590 -1q-1 84 -50.5 132t-128.5 48q-60 0 -112.5 -29.5t-86.5 -80.5l-173 31q55 110 156.5 172.5t224.5 62.5q102 0 179.5 -45.5
zM544.5 194.5q64.5 51.5 93.5 132.5h-417q1 -85 48.5 -134.5t126.5 -49.5q84 0 148.5 51.5zM342.5 872.5q-23.5 23.5 -23.5 56.5q0 34 23.5 57.5t56.5 23.5t57 -23.5t24 -57.5q0 -33 -24 -56.5t-57 -23.5t-56.5 23.5zM568.5 872.5q-23.5 23.5 -23.5 56.5q0 34 23.5 57.5
t56.5 23.5t56 -23.5t23 -57.5q0 -33 -23 -56.5t-56 -23.5t-56.5 23.5z" />
    <glyph glyph-name="uni04DB" unicode="&#x4db;" horiz-adv-x="648" 
d="M492.5 499q57.5 -32 87.5 -85.5t30 -116.5q0 -93 -40.5 -163.5t-113 -108.5t-166.5 -38q-80 0 -137.5 29.5t-87.5 81t-30 115.5q0 44 11 90h395v1q0 50 -27.5 80.5t-70.5 30.5q-38 0 -66.5 -17t-46.5 -45l-169 14q86 164 296 164q78 0 135.5 -32zM379.5 133
q34.5 29 49.5 81h-227q1 -52 25.5 -81t68.5 -29q49 0 83.5 29zM207.5 631.5q-23.5 23.5 -23.5 56.5q0 34 23.5 57.5t56.5 23.5t57 -23.5t24 -57.5q0 -33 -24 -56.5t-57 -23.5t-56.5 23.5zM433.5 631.5q-23.5 23.5 -23.5 56.5q0 34 23.5 57.5t56.5 23.5t56 -23.5t23 -57.5
q0 -33 -23 -56.5t-56 -23.5t-56.5 23.5z" />
    <glyph glyph-name="uni04DC" unicode="&#x4dc;" horiz-adv-x="1048" 
d="M803 444l202 -444h-182l-128 330l-87 -92l-33 -238h-172l36 256l-60 90l-212 -346h-197l321 478l-187 282h189l173 -310l43 310h172l-44 -314l250 314h216zM447.5 872.5q-23.5 23.5 -23.5 56.5q0 34 23.5 57.5t56.5 23.5t57 -23.5t24 -57.5q0 -33 -24 -56.5t-57 -23.5
t-56.5 23.5zM673.5 872.5q-23.5 23.5 -23.5 56.5q0 34 23.5 57.5t56.5 23.5t56 -23.5t23 -57.5q0 -33 -23 -56.5t-56 -23.5t-56.5 23.5z" />
    <glyph glyph-name="uni04DD" unicode="&#x4dd;" horiz-adv-x="828" 
d="M632 310l157 -310h-164l-90 219l-58 -53l-23 -166h-156l25 179l-39 50l-140 -229h-179l239 333l-144 185h169l116 -182l26 182h156l-26 -183l163 183h192zM301.5 630.5q-23.5 23.5 -23.5 56.5q0 34 23.5 57.5t56.5 23.5t57 -23.5t24 -57.5q0 -33 -24 -56.5t-57 -23.5
t-56.5 23.5zM527.5 630.5q-23.5 23.5 -23.5 56.5q0 34 23.5 57.5t56.5 23.5t56 -23.5t23 -57.5q0 -33 -23 -56.5t-56 -23.5t-56.5 23.5z" />
    <glyph glyph-name="uni04DE" unicode="&#x4de;" horiz-adv-x="627" 
d="M598 241q0 -79 -38 -136t-108 -87.5t-164 -30.5q-87 0 -148 26t-92.5 70.5t-31.5 99.5q0 22 2 34l171 3q-2 -12 -2 -19q0 -37 25.5 -56.5t74.5 -19.5q61 0 98 35t37 90q0 41 -28 62t-90 21h-113l17 130h95q62 0 101 30t39 77q0 33 -22 50t-64 17q-51 0 -81 -25t-39 -67
l-167 14q18 101 99 157.5t210 56.5q82 0 136.5 -24.5t80.5 -65t26 -90.5q0 -63 -32 -112t-90 -78q98 -47 98 -162zM238.5 872.5q-23.5 23.5 -23.5 56.5q0 34 23.5 57.5t56.5 23.5t57 -23.5t24 -57.5q0 -33 -24 -56.5t-57 -23.5t-56.5 23.5zM464.5 872.5
q-23.5 23.5 -23.5 56.5q0 34 23.5 57.5t56.5 23.5t56 -23.5t23 -57.5q0 -33 -23 -56.5t-56 -23.5t-56.5 23.5z" />
    <glyph glyph-name="uni04DF" unicode="&#x4df;" horiz-adv-x="521" 
d="M459 230q20 -30 20 -71q0 -77 -61.5 -124.5t-188.5 -47.5q-81 0 -132 22.5t-73.5 57.5t-22.5 74v10l165 2v-10q0 -21 16 -31.5t45 -10.5q41 0 63.5 20t22.5 51q0 23 -18 36t-53 13h-83l13 91h57q46 0 72 19t26 50q0 19 -13.5 29t-40.5 10q-34 0 -53.5 -16.5t-25.5 -42.5
l-155 16q12 66 71.5 110t172.5 44q108 0 159 -33.5t51 -92.5q0 -43 -24 -78t-64 -50q34 -17 54 -47zM143.5 630.5q-23.5 23.5 -23.5 56.5q0 34 23.5 57.5t56.5 23.5t57 -23.5t24 -57.5q0 -33 -24 -56.5t-57 -23.5t-56.5 23.5zM369.5 630.5q-23.5 23.5 -23.5 56.5
q0 34 23.5 57.5t56.5 23.5t56 -23.5t23 -57.5q0 -33 -23 -56.5t-56 -23.5t-56.5 23.5z" />
    <glyph glyph-name="uni04E0" unicode="&#x4e0;" horiz-adv-x="624" 
d="M544.5 408q53.5 -53 53.5 -136q0 -89 -38.5 -153t-109.5 -98t-167 -34q-80 0 -140 24.5t-92.5 68.5t-32.5 102q0 17 3 35l171 3q-1 -6 -1 -19q0 -37 23.5 -56.5t70.5 -19.5q64 0 102 40t38 103q0 42 -28 63.5t-89 21.5h-108l10 100h1l153 167h-247l19 140h526l-267 -289
q96 -10 149.5 -63z" />
    <glyph glyph-name="uni04E1" unicode="&#x4e1;" horiz-adv-x="558" 
d="M453.5 177.5q49.5 -48.5 49.5 -127.5q0 -125 -78 -195t-211 -70q-108 0 -171.5 51.5t-65.5 135.5l1 13l149 1q-1 -3 -1 -8q0 -32 23 -49.5t64 -17.5q62 0 99 39t37 98q0 41 -29.5 61.5t-92.5 20.5q-39 0 -92 -4l8 107l147 161h-215l17 124h487l-259 -279
q84 -13 133.5 -61.5z" />
    <glyph glyph-name="uni04E2" unicode="&#x4e2;" horiz-adv-x="733" 
d="M743 760l-106 -760h-177l68 494l-326 -494l-1 1v-1h-178l106 760h178l-69 -493l326 493l1 -1v1h178zM323 985h295l-13 -96h-295z" />
    <glyph glyph-name="uni04E3" unicode="&#x4e3;" horiz-adv-x="610" 
d="M592 518l-72 -518h-166l44 310l-214 -310h-166l73 518h165l-43 -307l214 307h165zM225 743h295l-13 -96h-295z" />
    <glyph glyph-name="uni04E4" unicode="&#x4e4;" horiz-adv-x="733" 
d="M743 760l-106 -760h-177l68 494l-326 -494l-1 1v-1h-178l106 760h178l-69 -493l326 493l1 -1v1h178zM290.5 872.5q-23.5 23.5 -23.5 56.5q0 34 23.5 57.5t56.5 23.5t57 -23.5t24 -57.5q0 -33 -24 -56.5t-57 -23.5t-56.5 23.5zM516.5 872.5q-23.5 23.5 -23.5 56.5
q0 34 23.5 57.5t56.5 23.5t56 -23.5t23 -57.5q0 -33 -23 -56.5t-56 -23.5t-56.5 23.5z" />
    <glyph glyph-name="uni04E5" unicode="&#x4e5;" horiz-adv-x="610" 
d="M592 518l-72 -518h-166l44 310l-214 -310h-166l73 518h165l-43 -307l214 307h165zM192.5 630.5q-23.5 23.5 -23.5 56.5q0 34 23.5 57.5t56.5 23.5t57 -23.5t24 -57.5q0 -33 -24 -56.5t-57 -23.5t-56.5 23.5zM418.5 630.5q-23.5 23.5 -23.5 56.5q0 34 23.5 57.5t56.5 23.5
t56 -23.5t23 -57.5q0 -33 -23 -56.5t-56 -23.5t-56.5 23.5z" />
    <glyph glyph-name="uni04E6" unicode="&#x4e6;" horiz-adv-x="855" 
d="M218 31q-79 44 -122 124t-43 186q0 124 58 222.5t157.5 154t218.5 55.5q105 0 184.5 -44t122.5 -124t43 -186q0 -124 -58 -222.5t-158 -154t-219 -55.5q-105 0 -184 44zM530.5 183.5q55.5 34.5 88.5 96t33 137.5q0 90 -46 142t-126 52q-65 0 -121 -34.5t-89 -95.5
t-33 -138q0 -90 46.5 -142t126.5 -52q65 0 120.5 34.5zM331.5 872.5q-23.5 23.5 -23.5 56.5q0 34 23.5 57.5t56.5 23.5t57 -23.5t24 -57.5q0 -33 -24 -56.5t-57 -23.5t-56.5 23.5zM557.5 872.5q-23.5 23.5 -23.5 56.5q0 34 23.5 57.5t56.5 23.5t56 -23.5t23 -57.5
q0 -33 -23 -56.5t-56 -23.5t-56.5 23.5z" />
    <glyph glyph-name="uni04E7" unicode="&#x4e7;" horiz-adv-x="657" 
d="M161 16.5q-59 29.5 -91.5 82.5t-32.5 123q0 95 41 165t114.5 107t169.5 37q75 0 134 -29.5t91.5 -83t32.5 -122.5q0 -95 -40.5 -165t-114 -107t-169.5 -37q-76 0 -135 29.5zM378 143.5q32 20.5 51 57t19 82.5q0 53 -26.5 82.5t-71.5 29.5q-39 0 -71 -20.5t-51 -57
t-19 -82.5q0 -53 26.5 -82.5t71.5 -29.5q39 0 71 20.5zM216.5 631.5q-23.5 23.5 -23.5 56.5q0 34 23.5 57.5t56.5 23.5t57 -23.5t24 -57.5q0 -33 -24 -56.5t-57 -23.5t-56.5 23.5zM442.5 631.5q-23.5 23.5 -23.5 56.5q0 34 23.5 57.5t56.5 23.5t56 -23.5t23 -57.5
q0 -33 -23 -56.5t-56 -23.5t-56.5 23.5z" />
    <glyph glyph-name="uni04E8" unicode="&#x4e8;" horiz-adv-x="852" 
d="M672.5 727.5q78.5 -45.5 120.5 -123t42 -172.5q0 -123 -57 -224.5t-157.5 -161t-225.5 -59.5q-103 0 -181.5 45.5t-120.5 123t-42 172.5q0 123 57 224.5t157.5 161t225.5 59.5q103 0 181.5 -45.5zM334.5 566q-64.5 -50 -93.5 -130h422q-2 84 -49.5 132t-129.5 48
q-85 0 -149.5 -50zM552 194.5q65 50.5 93 131.5h-422q2 -85 49 -133.5t130 -48.5q85 0 150 50.5z" />
    <glyph glyph-name="uni04E9" unicode="&#x4e9;" horiz-adv-x="655" 
d="M498 499.5q59 -31.5 89.5 -85t30.5 -118.5q0 -90 -39.5 -160t-112.5 -109.5t-170 -39.5q-80 0 -139 31.5t-89.5 85t-30.5 118.5q0 90 39.5 160t112.5 109.5t170 39.5q80 0 139 -31.5zM263 383q-40 -29 -59 -79h262q-2 53 -30.5 80.5t-78.5 27.5q-54 0 -94 -29z
M392.5 135.5q40.5 29.5 59.5 80.5h-263q1 -54 29.5 -82t79.5 -28q54 0 94.5 29.5z" />
    <glyph glyph-name="uni04EA" unicode="&#x4ea;" horiz-adv-x="852" 
d="M672.5 727.5q78.5 -45.5 120.5 -123t42 -172.5q0 -123 -57 -224.5t-157.5 -161t-225.5 -59.5q-103 0 -181.5 45.5t-120.5 123t-42 172.5q0 123 57 224.5t157.5 161t225.5 59.5q103 0 181.5 -45.5zM334.5 566q-64.5 -50 -93.5 -130h422q-2 84 -49.5 132t-129.5 48
q-85 0 -149.5 -50zM552 194.5q65 50.5 93 131.5h-422q2 -85 49 -133.5t130 -48.5q85 0 150 50.5zM347.5 872.5q-23.5 23.5 -23.5 56.5q0 34 23.5 57.5t56.5 23.5t57 -23.5t24 -57.5q0 -33 -24 -56.5t-57 -23.5t-56.5 23.5zM573.5 872.5q-23.5 23.5 -23.5 56.5
q0 34 23.5 57.5t56.5 23.5t56 -23.5t23 -57.5q0 -33 -23 -56.5t-56 -23.5t-56.5 23.5z" />
    <glyph glyph-name="uni04EB" unicode="&#x4eb;" horiz-adv-x="655" 
d="M498 499.5q59 -31.5 89.5 -85t30.5 -118.5q0 -90 -39.5 -160t-112.5 -109.5t-170 -39.5q-80 0 -139 31.5t-89.5 85t-30.5 118.5q0 90 39.5 160t112.5 109.5t170 39.5q80 0 139 -31.5zM263 383q-40 -29 -59 -79h262q-2 53 -30.5 80.5t-78.5 27.5q-54 0 -94 -29z
M392.5 135.5q40.5 29.5 59.5 80.5h-263q1 -54 29.5 -82t79.5 -28q54 0 94.5 29.5zM215.5 630.5q-23.5 23.5 -23.5 56.5q0 34 23.5 57.5t56.5 23.5t57 -23.5t24 -57.5q0 -33 -24 -56.5t-57 -23.5t-56.5 23.5zM441.5 630.5q-23.5 23.5 -23.5 56.5q0 34 23.5 57.5t56.5 23.5
t56 -23.5t23 -57.5q0 -33 -23 -56.5t-56 -23.5t-56.5 23.5z" />
    <glyph glyph-name="uni04EC" unicode="&#x4ec;" horiz-adv-x="836" 
d="M652 728.5q80 -44.5 123.5 -122t43.5 -172.5q0 -125 -59 -227.5t-161.5 -161t-225.5 -58.5q-90 0 -162.5 39.5t-116.5 107t-53 148.5l171 6q12 -69 58 -106.5t118 -37.5q83 0 147 51t93 131h-313l16 110h315q-1 84 -48.5 132t-127.5 48q-77 0 -137.5 -40.5t-93.5 -110.5
l-170 23q51 134 157 209.5t243 75.5q103 0 183 -44.5zM328.5 872.5q-23.5 23.5 -23.5 56.5q0 34 23.5 57.5t56.5 23.5t57 -23.5t24 -57.5q0 -33 -24 -56.5t-57 -23.5t-56.5 23.5zM554.5 872.5q-23.5 23.5 -23.5 56.5q0 34 23.5 57.5t56.5 23.5t56 -23.5t23 -57.5
q0 -33 -23 -56.5t-56 -23.5t-56.5 23.5z" />
    <glyph glyph-name="uni04ED" unicode="&#x4ed;" horiz-adv-x="648" 
d="M489.5 500.5q58.5 -30.5 90 -84t31.5 -121.5q0 -91 -39.5 -161t-112.5 -108.5t-169 -38.5q-115 0 -182 59t-77 153l147 4q14 -96 112 -96q54 0 94 29t59 78h-192l12 93h196q-1 49 -30.5 76.5t-79.5 27.5q-53 0 -92.5 -27.5t-60.5 -74.5l-147 23q35 95 110 147t192 52
q80 0 138.5 -30.5zM208.5 630.5q-23.5 23.5 -23.5 56.5q0 34 23.5 57.5t56.5 23.5t57 -23.5t24 -57.5q0 -33 -24 -56.5t-57 -23.5t-56.5 23.5zM434.5 630.5q-23.5 23.5 -23.5 56.5q0 34 23.5 57.5t56.5 23.5t56 -23.5t23 -57.5q0 -33 -23 -56.5t-56 -23.5t-56.5 23.5z" />
    <glyph glyph-name="uni04EE" unicode="&#x4ee;" horiz-adv-x="653" 
d="M733 760l-460 -760h-194l164 271l-174 489h183l92 -322l195 322h194zM287 985h295l-13 -96h-295z" />
    <glyph glyph-name="uni04EF" unicode="&#x4ef;" horiz-adv-x="625" 
d="M606 518l-67 -481q-17 -126 -93.5 -189t-201.5 -63q-104 0 -165.5 40t-72.5 111l174 16q8 -53 74 -53q50 0 76.5 32t35.5 99l8 59q-33 -43 -78.5 -66t-99.5 -23q-75 0 -115.5 43t-40.5 112q0 23 5 53l42 310h172l-38 -277q-4 -30 -4 -43q0 -36 17.5 -52t51.5 -16
q50 0 77.5 38t34.5 92l36 258h172zM232 743h295l-13 -96h-295z" />
    <glyph glyph-name="uni04F0" unicode="&#x4f0;" horiz-adv-x="653" 
d="M733 760l-460 -760h-194l164 271l-174 489h183l92 -322l195 322h194zM254.5 872.5q-23.5 23.5 -23.5 56.5q0 34 23.5 57.5t56.5 23.5t57 -23.5t24 -57.5q0 -33 -24 -56.5t-57 -23.5t-56.5 23.5zM480.5 872.5q-23.5 23.5 -23.5 56.5q0 34 23.5 57.5t56.5 23.5t56 -23.5
t23 -57.5q0 -33 -23 -56.5t-56 -23.5t-56.5 23.5z" />
    <glyph glyph-name="uni04F1" unicode="&#x4f1;" horiz-adv-x="625" 
d="M606 518l-67 -481q-17 -126 -93.5 -189t-201.5 -63q-104 0 -165.5 40t-72.5 111l174 16q8 -53 74 -53q50 0 76.5 32t35.5 99l8 59q-33 -43 -78.5 -66t-99.5 -23q-75 0 -115.5 43t-40.5 112q0 23 5 53l42 310h172l-38 -277q-4 -30 -4 -43q0 -36 17.5 -52t51.5 -16
q50 0 77.5 38t34.5 92l36 258h172zM199.5 630.5q-23.5 23.5 -23.5 56.5q0 34 23.5 57.5t56.5 23.5t57 -23.5t24 -57.5q0 -33 -24 -56.5t-57 -23.5t-56.5 23.5zM425.5 630.5q-23.5 23.5 -23.5 56.5q0 34 23.5 57.5t56.5 23.5t56 -23.5t23 -57.5q0 -33 -23 -56.5t-56 -23.5
t-56.5 23.5z" />
    <glyph glyph-name="uni04F2" unicode="&#x4f2;" horiz-adv-x="653" 
d="M733 760l-460 -760h-194l164 271l-174 489h183l92 -322l195 322h194zM336 829h-109l95 173h173zM563 829h-109l95 173h173z" />
    <glyph glyph-name="uni04F3" unicode="&#x4f3;" horiz-adv-x="625" 
d="M606 518l-67 -481q-17 -126 -93.5 -189t-201.5 -63q-104 0 -165.5 40t-72.5 111l174 16q8 -53 74 -53q50 0 76.5 32t35.5 99l8 59q-33 -43 -78.5 -66t-99.5 -23q-75 0 -115.5 43t-40.5 112q0 23 5 53l42 310h172l-38 -277q-4 -30 -4 -43q0 -36 17.5 -52t51.5 -16
q50 0 77.5 38t34.5 92l36 258h172zM281 587h-109l95 173h173zM508 587h-109l95 173h173z" />
    <glyph glyph-name="uni04F4" unicode="&#x4f4;" horiz-adv-x="675" 
d="M685 760l-106 -760h-178l37 263h-103q-72 0 -130 26t-92 76.5t-34 120.5q0 23 3 47l32 227h178l-31 -221q-3 -21 -3 -38q0 -48 28 -70t89 -22h83l49 351h178zM254.5 872.5q-23.5 23.5 -23.5 56.5q0 34 23.5 57.5t56.5 23.5t57 -23.5t24 -57.5q0 -33 -24 -56.5t-57 -23.5
t-56.5 23.5zM480.5 872.5q-23.5 23.5 -23.5 56.5q0 34 23.5 57.5t56.5 23.5t56 -23.5t23 -57.5q0 -33 -23 -56.5t-56 -23.5t-56.5 23.5z" />
    <glyph glyph-name="uni04F5" unicode="&#x4f5;" horiz-adv-x="573" 
d="M555 518l-73 -518h-172l23 161h-72q-58 0 -104.5 20t-73.5 57.5t-27 87.5q0 21 2 32l22 160h167l-22 -151q-1 -8 -1 -21q0 -28 16.5 -41.5t56.5 -13.5h54l32 227h172zM169.5 630.5q-23.5 23.5 -23.5 56.5q0 34 23.5 57.5t56.5 23.5t57 -23.5t24 -57.5q0 -33 -24 -56.5
t-57 -23.5t-56.5 23.5zM395.5 630.5q-23.5 23.5 -23.5 56.5q0 34 23.5 57.5t56.5 23.5t56 -23.5t23 -57.5q0 -33 -23 -56.5t-56 -23.5t-56.5 23.5z" />
    <glyph glyph-name="uni04F6" unicode="&#x4f6;" horiz-adv-x="520" 
d="M549 614h-262l-86 -614h-178l106 760h440zM280 -140h-146l11 140h-45l20 146h200z" />
    <glyph glyph-name="uni04F7" unicode="&#x4f7;" horiz-adv-x="425" 
d="M426 385h-182l-54 -385h-172l73 518h354zM251 -130h-135l11 130h-41l18 133h184z" />
    <glyph glyph-name="uni04F8" unicode="&#x4f8;" horiz-adv-x="962" 
d="M524 502q57 -29 87 -80.5t30 -118.5q0 -95 -39.5 -163.5t-112.5 -104t-171 -35.5h-295l106 760h178l-32 -229h112q80 0 137 -29zM973 760l-106 -760h-178l106 760h178zM386.5 161q36.5 21 56 56.5t19.5 78.5t-28.5 69.5t-89.5 26.5h-88l-35 -252h79q50 0 86.5 21z
M387.5 872.5q-23.5 23.5 -23.5 56.5q0 34 23.5 57.5t56.5 23.5t57 -23.5t24 -57.5q0 -33 -24 -56.5t-57 -23.5t-56.5 23.5zM613.5 872.5q-23.5 23.5 -23.5 56.5q0 34 23.5 57.5t56.5 23.5t56 -23.5t23 -57.5q0 -33 -23 -56.5t-56 -23.5t-56.5 23.5z" />
    <glyph glyph-name="uni04F9" unicode="&#x4f9;" horiz-adv-x="824" 
d="M477 337.5q54 -45.5 54 -117.5q0 -105 -71.5 -162.5t-194.5 -57.5h-247l73 518h170l-19 -135h84q97 0 151 -45.5zM806 518l-73 -518h-172l73 518h172zM337 141.5q29 25.5 29 67.5q0 58 -80 58h-60l-22 -151h53q51 0 80 25.5zM286.5 630.5q-23.5 23.5 -23.5 56.5
q0 34 23.5 57.5t56.5 23.5t57 -23.5t24 -57.5q0 -33 -24 -56.5t-57 -23.5t-56.5 23.5zM512.5 630.5q-23.5 23.5 -23.5 56.5q0 34 23.5 57.5t56.5 23.5t56 -23.5t23 -57.5q0 -33 -23 -56.5t-56 -23.5t-56.5 23.5z" />
    </font>
</defs>
</svg>
