<?xml version="1.0" standalone="no"?>
<!DOCTYPE svg PUBLIC "-//W3C//DTD SVG 1.1//EN" "http://www.w3.org/Graphics/SVG/1.1/DTD/svg11.dtd" >
<svg xmlns="http://www.w3.org/2000/svg" xmlns:xlink="http://www.w3.org/1999/xlink" version="1.1">
<metadata>
Created by FontForge 20170731 at Wed Nov 22 21:10:27 2017
 By Aleksey,,,
Copyright (c) 2017 by Andreu Balius. All rights reserved.
</metadata>
<defs>
<font id="SeatBcn-Web-MediumCondensedItalic" horiz-adv-x="537" >
  <font-face 
    font-family="Seat Bcn - Web Medium Condensed"
    font-weight="500"
    font-style="italic"
    font-stretch="condensed"
    units-per-em="1000"
    panose-1="0 0 6 6 0 0 0 0 0 0"
    ascent="760"
    descent="-240"
    x-height="517"
    cap-height="760"
    bbox="-380 -220 1155 1301"
    underline-thickness="50"
    underline-position="-150"
    slope="-8"
    unicode-range="U+000D-FB02"
  />
<missing-glyph horiz-adv-x="699" 
d="M163 705h400v-705h-400v705zM501 62v581h-276v-581h276z" />
    <glyph glyph-name="fi" unicode="fi" horiz-adv-x="553" 
d="M455 0h-129l57 412h-160l-58 -412h-129l57 412h-65l22 105h58l4 28q18 125 73 176t147 51q86 0 162 -46l-40 -85q-52 30 -104 30q-91 0 -108 -122l-4 -32h290z" />
    <glyph glyph-name="fl" unicode="fl" horiz-adv-x="592" 
d="M491.5 105.5q13.5 -11.5 44.5 -11.5h10l-7 -103q-16 -3 -41 -3q-151 0 -151 134q0 32 5 58l68 481q-35 10 -69 10q-91 0 -108 -122l-4 -32h91l-15 -104h-91l-58 -413h-129l58 413h-67l22 104h59l4 28q18 125 73 176t147 51q60 0 123 -15t101 -37l-76 -539q-3 -19 -3 -34
q0 -30 13.5 -41.5z" />
    <glyph glyph-name="f_f" unicode="ff" horiz-adv-x="608" 
d="M561 648.5q-19 -21.5 -26 -73.5l-8 -58h108l-14 -105h-109l-57 -412h-130l59 412h-161l-58 -412h-129l58 412h-66l23 105h58l9 67q14 99 58 143.5t123 44.5q25 0 49 -5.5t41 -12.5l-21 -91q-20 10 -46 10q-32 0 -50.5 -21.5t-25.5 -73.5l-9 -61h161l10 67q14 99 58 143.5
t122 44.5q31 0 62 -7t44 -15l-20 -93q-27 13 -62 13q-32 0 -51 -21.5z" />
    <glyph glyph-name="f_f_i" unicode="ffi" horiz-adv-x="841" 
d="M743 0h-129l57 412h-158l-58 -412h-130l58 412h-160l-58 -412h-129l58 412h-66l23 105h58l9 67q14 99 58 143.5t123 44.5q25 0 49 -5.5t41 -12.5l-21 -91q-20 10 -46 10q-32 0 -50.5 -21.5t-25.5 -73.5l-9 -61h161l4 28q18 124 73 175.5t147 51.5q86 0 162 -46l-41 -85
q-52 30 -103 30q-91 0 -108 -122l-4 -32h288z" />
    <glyph glyph-name="f_f_l" unicode="ffl" horiz-adv-x="879" 
d="M778.5 105.5q13.5 -11.5 44.5 -11.5h10l-7 -103q-16 -3 -41 -3q-151 0 -151 134q0 32 5 58l68 481q-35 10 -67 10q-91 0 -108 -122l-4 -32h90l-15 -105h-90l-58 -412h-130l58 412h-160l-58 -412h-129l58 412h-66l23 105h58l9 67q14 99 58 143.5t123 44.5q25 0 49 -5.5
t41 -12.5l-21 -91q-20 10 -46 10q-32 0 -50.5 -21.5t-25.5 -73.5l-9 -61h161l4 28q18 124 73 175.5t147 51.5q60 0 122.5 -15t99.5 -37l-76 -539q-3 -19 -3 -34q0 -30 13.5 -41.5z" />
    <glyph glyph-name="uni04570457.liga" unicode="&#x457;&#x457;" horiz-adv-x="544" 
d="M37.5 638q-18.5 19 -18.5 46t18.5 46t45.5 19q26 0 45.5 -19t19.5 -46t-19.5 -46t-45.5 -19q-27 0 -45.5 19zM200 638q-19 19 -19 46t19 46t46 19q26 0 44.5 -19t18.5 -46t-18.5 -46t-44.5 -19q-27 0 -46 19zM364.5 638q-18.5 19 -18.5 46t18.5 46t45.5 19q26 0 45.5 -19
t19.5 -46t-19.5 -46t-45.5 -19q-27 0 -45.5 19zM527 638q-19 19 -19 46t19 46t46 19q26 0 44.5 -19t18.5 -46t-18.5 -46t-44.5 -19q-27 0 -46 19zM79 517h130l-72 -517h-130zM406 517h130l-72 -517h-130z" />
    <glyph glyph-name=".notdef" horiz-adv-x="699" 
d="M163 705h400v-705h-400v705zM501 62v581h-276v-581h276z" />
    <glyph glyph-name=".null" horiz-adv-x="510" 
 />
    <glyph glyph-name="nonmarkingreturn" unicode="&#xd;" horiz-adv-x="510" 
 />
    <glyph glyph-name="space" unicode=" " horiz-adv-x="178" 
 />
    <glyph glyph-name="exclam" unicode="!" horiz-adv-x="283" 
d="M150 760h123l-87 -533h-99zM57.5 12q-23.5 24 -23.5 57t23.5 57t57.5 24q33 0 56.5 -24t23.5 -57t-23.5 -57t-56.5 -24q-34 0 -57.5 24z" />
    <glyph glyph-name="quotedbl" unicode="&#x22;" horiz-adv-x="405" 
d="M114 640l17 120h105l-17 -120l-38 -156h-73zM293 640l17 120h105l-17 -120l-38 -156h-73z" />
    <glyph glyph-name="numbersign" unicode="#" horiz-adv-x="755" 
d="M617 479l-67 -189h66l-13 -98h-88l-69 -192h-127l69 192h-122l-69 -192h-126l69 192h-69l13 98h91l68 189h-69l14 97h90l66 184h126l-66 -184h122l66 184h126l-66 -184h68l-14 -97h-89zM491 479h-122l-68 -189h122z" />
    <glyph glyph-name="dollar" unicode="$" horiz-adv-x="673" 
d="M587 244q0 -105 -64.5 -173t-169.5 -80l-17 -118h-116l17 122q-77 17 -117.5 71t-43.5 137q-1 6 -1 18l137 8v-21q0 -69 42 -96l34 245q-144 68 -144 188q0 88 55 148t147 75l16 113h116l-16 -114q85 -16 125.5 -75.5t40.5 -147.5l-138 -8q1 7 1 20q0 70 -45 96l-30 -212
l14 -6q157 -65 157 -190zM308 497l21 152q-22 -14 -34 -37.5t-12 -52.5q0 -37 25 -62zM426.5 150q21.5 33 21.5 76q0 30 -13.5 49.5t-37.5 33.5l-29 -206q37 14 58.5 47z" />
    <glyph glyph-name="percent" unicode="%" horiz-adv-x="912" 
d="M154.5 404.5q-34.5 42.5 -34.5 112.5q0 64 22 121t63.5 92.5t96.5 35.5q58 0 92.5 -42.5t34.5 -112.5q0 -64 -22 -121t-63.5 -92.5t-96.5 -35.5q-58 0 -92.5 42.5zM696 760h140l-574 -760h-139zM310 503q19 56 19 116q0 33 -9.5 47.5t-29.5 14.5q-33 0 -51.5 -56
t-18.5 -117q0 -32 9.5 -46.5t28.5 -14.5q33 0 52 56zM552.5 36.5q-34.5 42.5 -34.5 112.5q0 64 22 121t63 92.5t96 35.5q58 0 92.5 -42.5t34.5 -112.5q0 -64 -22 -121t-63.5 -92.5t-96.5 -35.5q-57 0 -91.5 42.5zM707.5 135q18.5 56 18.5 116q0 33 -9.5 47.5t-28.5 14.5
q-33 0 -52 -56.5t-19 -116.5q0 -32 10 -46.5t29 -14.5q33 0 51.5 56z" />
    <glyph glyph-name="ampersand" unicode="&#x26;" horiz-adv-x="684" 
d="M533 126l78 -126h-126l-30 47q-81 -59 -188 -59q-61 0 -106 25t-69.5 68t-24.5 97q0 70 43 134t115 102q-27 43 -42 81.5t-15 77.5q0 57 26.5 102.5t74 71t106.5 25.5q51 0 88.5 -21t57 -56.5t19.5 -77.5q0 -65 -46.5 -123t-127.5 -101l106 -169q30 58 43 136h108
q-23 -141 -90 -234zM310 640q-21 -29 -21 -71q0 -51 33 -105q46 28 71.5 67t25.5 80q0 28 -14 43t-39 15q-35 0 -56 -29zM402 132l-129 205q-35 -28 -56 -70t-21 -79q0 -45 26.5 -71.5t73.5 -26.5q55 0 106 42z" />
    <glyph glyph-name="quotesingle" unicode="'" horiz-adv-x="226" 
d="M114 640l17 120h105l-17 -120l-38 -156h-73z" />
    <glyph glyph-name="parenleft" unicode="(" horiz-adv-x="370" 
d="M119.5 -45q-43.5 41 -43.5 110q0 17 4 47l78 562q11 74 35 116.5t67.5 62t115.5 19.5l-14 -98q-75 0 -89 -108l-77 -547q-3 -19 -3 -40q0 -32 13.5 -49.5t48.5 -17.5l-14 -98q-78 0 -121.5 41z" />
    <glyph glyph-name="parenright" unicode=")" horiz-adv-x="370" 
d="M288.5 831q43.5 -41 43.5 -110q0 -17 -4 -47l-78 -562q-11 -74 -35 -116.5t-67.5 -62t-115.5 -19.5l14 98q75 0 89 108l77 547q3 19 3 40q0 32 -13.5 49.5t-48.5 17.5l14 98q78 0 121.5 -41z" />
    <glyph glyph-name="asterisk" unicode="*" horiz-adv-x="548" 
d="M378 509l70 -110l-99 -64l-47 122l-82 -122l-82 64l101 110l-119 32l52 111l106 -56l7 146h113l-31 -145l119 55l22 -111z" />
    <glyph glyph-name="plus" unicode="+" horiz-adv-x="524" 
d="M439 218h-135l-22 -159h-95l22 159h-134l13 95h135l22 159h95l-22 -159h134z" />
    <glyph glyph-name="comma" unicode="," horiz-adv-x="267" 
d="M164 127q23 -24 23 -68q0 -55 -36.5 -109.5t-101.5 -86.5l-24 34q54 43 70 95q-29 4 -49.5 26.5t-20.5 52.5q0 32 23.5 56t58.5 24q34 0 57 -24z" />
    <glyph glyph-name="hyphen" unicode="-" horiz-adv-x="401" 
d="M68 317h281l-15 -103h-280z" />
    <glyph glyph-name="period" unicode="." horiz-adv-x="263" 
d="M47.5 12q-23.5 24 -23.5 57t23.5 57t57.5 24q33 0 56.5 -24t23.5 -57t-23.5 -57t-56.5 -24q-34 0 -57.5 24z" />
    <glyph glyph-name="slash" unicode="/" horiz-adv-x="460" 
d="M338 760h143l-325 -760h-142z" />
    <glyph glyph-name="zero" unicode="0" horiz-adv-x="655" 
d="M169 23.5q-51 35.5 -78 100.5t-27 151q0 130 38.5 243.5t114.5 183.5t183 70q69 0 120 -35.5t78 -100.5t27 -151q0 -130 -38.5 -243.5t-114.5 -183.5t-183 -70q-69 0 -120 35.5zM404 166.5q41 58.5 62.5 145t21.5 167.5q0 85 -27.5 129t-77.5 44q-57 0 -98 -58.5
t-62.5 -145.5t-21.5 -167q0 -84 27.5 -128.5t77.5 -44.5q57 0 98 58.5z" />
    <glyph glyph-name="one" unicode="1" horiz-adv-x="403" 
d="M357 760l-107 -760h-133l80 571q-47 -10 -114 -10l15 105q62 0 101 22.5t60 71.5h98z" />
    <glyph glyph-name="two" unicode="2" horiz-adv-x="549" 
d="M199.5 212q-28.5 -43 -40.5 -100h313l-15 -112h-457l8 56q16 115 61 193.5t141 135.5l98 61q46 28 72.5 64.5t26.5 76.5q0 35 -19.5 55.5t-55.5 20.5q-37 0 -66.5 -25.5t-43.5 -64.5l-133 9q32 91 101 140.5t165 49.5q58 0 101 -23.5t65.5 -63t22.5 -86.5
q0 -82 -45.5 -143t-136.5 -117l-82 -52q-52 -32 -80.5 -75z" />
    <glyph glyph-name="three" unicode="3" horiz-adv-x="560" 
d="M480.5 340q26.5 -41 26.5 -95q0 -72 -35 -131t-96.5 -92.5t-136.5 -33.5q-58 0 -104 26.5t-72 73t-28 103.5l128 10q4 -52 25.5 -75t62.5 -23q35 0 62.5 20t43 53t15.5 69q0 49 -30 76.5t-90 27.5h-52l15 101h45q64 0 102 38.5t38 94.5q0 36 -18.5 58t-53.5 22
t-64.5 -24.5t-42.5 -65.5l-129 9q32 92 97.5 141t155.5 49q57 0 99.5 -23t65.5 -63t23 -89q0 -59 -32.5 -110t-89.5 -83q43 -23 69.5 -64z" />
    <glyph glyph-name="four" unicode="4" horiz-adv-x="590" 
d="M567 169h-86l-24 -169h-128l24 169h-319l15 106l171 485h134l-174 -485h188l34 242h127l-34 -242h87z" />
    <glyph glyph-name="five" unicode="5" horiz-adv-x="573" 
d="M442.5 482q43.5 -27 67 -73t23.5 -101q0 -93 -36.5 -166t-102.5 -113.5t-152 -40.5q-92 0 -146.5 57t-61.5 147l131 9q4 -53 29 -78t66 -25q42 0 73.5 28.5t48.5 73.5t17 94q0 54 -24.5 83t-71.5 29q-32 0 -63 -15.5t-57 -38.5l-101 24l54 384h409l-15 -108h-280
l-24 -167q51 24 116 24q57 0 100.5 -27z" />
    <glyph glyph-name="six" unicode="6" horiz-adv-x="610" 
d="M479.5 481q42.5 -28 65.5 -74t23 -99q0 -88 -37 -161.5t-102.5 -116t-146.5 -42.5q-105 0 -163.5 71t-58.5 191q0 113 35 233.5t110 204.5t189 84q82 0 134 -47t64 -132l-130 -9q-10 43 -29.5 62t-52.5 19q-58 0 -99 -61t-64 -166q34 35 76.5 53t88.5 18q55 0 97.5 -28z
M364 125.5q32 28.5 51.5 74t19.5 91.5q0 54 -25.5 84t-70.5 30q-41 0 -73 -27t-50 -70t-18 -90q0 -54 27 -87.5t70 -33.5q37 0 69 28.5z" />
    <glyph glyph-name="seven" unicode="7" horiz-adv-x="484" 
d="M561 760l-428 -760h-146l364 650h-282l15 110h477z" />
    <glyph glyph-name="eight" unicode="8" horiz-adv-x="593" 
d="M543 230q0 -71 -36.5 -126t-102 -85.5t-147.5 -30.5q-65 0 -115.5 24t-79 66.5t-28.5 96.5q0 77 43 138t118 95q-36 30 -59 71t-23 84q0 61 33.5 108.5t92.5 74t132 26.5q69 0 116 -23.5t70 -61t23 -80.5q0 -62 -38 -117t-103 -92q104 -68 104 -168zM279 640
q-32 -29 -32 -74q0 -71 80 -109l29 -14q92 65 92 149q0 37 -23.5 57t-67.5 20q-46 0 -78 -29zM340.5 111.5q31.5 17.5 50 46t18.5 61.5q0 34 -21 63.5t-64 51.5l-53 27q-51 -31 -78 -76t-27 -92q0 -46 29.5 -72.5t76.5 -26.5q37 0 68.5 17.5z" />
    <glyph glyph-name="nine" unicode="9" horiz-adv-x="611" 
d="M526.5 701q58.5 -71 58.5 -191q0 -113 -35 -233.5t-110 -204.5t-189 -84q-84 0 -137 47t-66 132l129 9q11 -44 32 -62.5t56 -18.5q58 0 99.5 61t63.5 167q-33 -36 -76 -54t-89 -18q-56 0 -98.5 28t-65.5 74t-23 99q0 88 37.5 161.5t103 116t146.5 42.5q105 0 163.5 -71z
M379 382q32 27 50 70t18 90q0 55 -27 88t-71 33q-36 0 -68 -28.5t-51.5 -74t-19.5 -91.5q0 -54 25.5 -84t70.5 -30q41 0 73 27z" />
    <glyph glyph-name="colon" unicode=":" horiz-adv-x="264" 
d="M48.5 12q-23.5 24 -23.5 57t23.5 57t57.5 24q33 0 56.5 -24t23.5 -57t-23.5 -57t-56.5 -24q-34 0 -57.5 24zM96.5 354q-23.5 24 -23.5 57t23.5 57t57.5 24q33 0 56.5 -24t23.5 -57t-23.5 -57t-56.5 -24q-34 0 -57.5 24z" />
    <glyph glyph-name="semicolon" unicode=";" horiz-adv-x="267" 
d="M97.5 362q-23.5 24 -23.5 57t23.5 57t57.5 24q33 0 56.5 -24t23.5 -57t-23.5 -57t-56.5 -24q-34 0 -57.5 24zM165 127q23 -24 23 -68q0 -55 -36.5 -109.5t-101.5 -86.5l-24 34q54 43 70 95q-29 4 -49.5 26.5t-20.5 52.5q0 32 23.5 56t58.5 24q34 0 57 -24z" />
    <glyph glyph-name="less" unicode="&#x3c;" horiz-adv-x="512" 
d="M454 414l-278 -149l236 -149l-16 -113l-322 211l15 112l382 207z" />
    <glyph glyph-name="equal" unicode="=" horiz-adv-x="524" 
d="M103 417h364l-14 -94h-364zM73 208h364l-13 -95h-364z" />
    <glyph glyph-name="greater" unicode="&#x3e;" horiz-adv-x="513" 
d="M61 122l278 149l-236 149l16 113l322 -211l-15 -112l-382 -207z" />
    <glyph glyph-name="question" unicode="?" horiz-adv-x="544" 
d="M178 253q8 56 21 91t38.5 63t73.5 58l21 14q67 42 67 110q0 71 -70 71q-38 0 -65 -23t-49 -65l-105 44q78 156 239 156q83 0 132.5 -46.5t49.5 -120.5q0 -66 -34 -118.5t-97 -89.5l-24 -14q-64 -39 -76 -128l-3 -31h-123zM172.5 12q-23.5 24 -23.5 57t23.5 57t56.5 24
q34 0 57.5 -24t23.5 -57t-23.5 -57t-57.5 -24q-33 0 -56.5 24z" />
    <glyph glyph-name="at" unicode="@" horiz-adv-x="978" 
d="M757 725q76 -47 117.5 -125t41.5 -169q0 -97 -27 -175t-79 -123t-123 -45q-49 0 -80.5 24.5t-41.5 65.5q-29 -41 -69.5 -65.5t-88.5 -24.5q-38 0 -69 22t-49 61t-18 88q0 66 31.5 133t85 111t114.5 44q35 0 62 -16t42 -44l12 50h115l-61 -251q-5 -22 -5 -47
q0 -24 9.5 -37t32.5 -13q31 0 53.5 37.5t34.5 91.5t12 101q0 119 -65.5 187.5t-178.5 68.5q-104 0 -190.5 -64.5t-137 -169t-50.5 -219.5q0 -81 30 -141t86 -92.5t132 -32.5q51 0 91 9.5t83 29.5l17 -91q-54 -25 -103 -35.5t-113 -10.5q-98 0 -173 46.5t-116 127.5t-41 180
q0 149 65.5 278t180.5 205.5t256 76.5q99 0 175 -47zM515 215q28 28 44.5 70.5t16.5 82.5q0 38 -16 60t-45 22q-32 0 -60.5 -27t-46 -68.5t-17.5 -80.5t17 -63t47 -24q32 0 60 28z" />
    <glyph glyph-name="A" unicode="A" horiz-adv-x="575" 
d="M391 123h-236l-45 -123h-145l317 760h153l102 -760h-135zM382 226l-37 411l-151 -411h188z" />
    <glyph glyph-name="B" unicode="B" horiz-adv-x="554" 
d="M503 342.5q23 -38.5 23 -86.5q0 -73 -32 -131t-89.5 -91.5t-133.5 -33.5h-244l107 760h236q58 0 99 -21.5t62 -58.5t21 -82q0 -64 -29.5 -116t-83.5 -81q41 -20 64 -58.5zM250 657l-29 -213h83q56 0 87 37.5t31 94.5q0 37 -20.5 59t-64.5 22h-87zM362 148.5
q33 42.5 33 104.5q0 42 -22 68t-65 26h-101l-34 -241h99q57 0 90 42.5z" />
    <glyph glyph-name="C" unicode="C" horiz-adv-x="721" 
d="M630 697q71 -75 86 -203l-139 -12q-9 79 -46.5 123.5t-105.5 44.5q-70 0 -123.5 -49t-82.5 -126.5t-29 -159.5q0 -95 41.5 -150t115.5 -55q66 0 120.5 47t82.5 123l133 -14q-45 -130 -136.5 -204t-214.5 -74q-87 0 -150.5 41t-96.5 113.5t-33 166.5q0 122 48.5 228.5
t137 170.5t202.5 64q119 0 190 -75z" />
    <glyph glyph-name="D" unicode="D" horiz-adv-x="676" 
d="M523 720.5q65 -39.5 100.5 -110t35.5 -159.5q0 -120 -49.5 -223.5t-139.5 -165.5t-206 -62h-237l107 760h237q87 0 152 -39.5zM403.5 160.5q56.5 48.5 87 125.5t30.5 160q0 94 -43.5 148t-122.5 54h-103l-75 -536h97q73 0 129.5 48.5z" />
    <glyph glyph-name="E" unicode="E" horiz-adv-x="495" 
d="M252 648l-28 -198h240l-15 -109h-240l-32 -229h249l-16 -112h-383l107 760h381l-16 -112h-247z" />
    <glyph glyph-name="F" unicode="F" horiz-adv-x="465" 
d="M252 648l-28 -198h225l-16 -109h-224l-48 -341h-134l107 760h365l-16 -112h-231z" />
    <glyph glyph-name="G" unicode="G" horiz-adv-x="713" 
d="M365 414h312l-45 -321q-58 -47 -131.5 -76t-158.5 -29q-93 0 -158 42t-98.5 115t-33.5 164q0 122 48.5 228.5t135.5 170.5t197 64q111 0 177.5 -65t89.5 -165l-142 -12q-10 49 -46 84.5t-96 35.5q-66 0 -117.5 -50t-80 -128.5t-28.5 -159.5q0 -98 43 -152.5t127 -54.5
q82 0 155 50l21 157h-186z" />
    <glyph glyph-name="H" unicode="H" horiz-adv-x="624" 
d="M632 760l-107 -760h-134l48 338h-230l-48 -338h-134l107 760h134l-44 -310h230l44 310h134z" />
    <glyph glyph-name="I" unicode="I" horiz-adv-x="260" 
d="M134 760h134l-107 -760h-134z" />
    <glyph glyph-name="J" unicode="J" horiz-adv-x="552" 
d="M123.5 16q-44.5 28 -70 82t-25.5 129l134 9v-21q0 -53 22 -79t58 -26q43 0 75 36t42 108l72 506h134l-71 -501q-20 -137 -91.5 -204t-178.5 -67q-56 0 -100.5 28z" />
    <glyph glyph-name="K" unicode="K" horiz-adv-x="573" 
d="M372 437l162 -437h-131l-113 334l-101 -126l-29 -208h-133l107 760h133l-49 -351l261 351h150z" />
    <glyph glyph-name="L" unicode="L" horiz-adv-x="446" 
d="M406 112l-15 -112h-364l107 760h134l-91 -648h229z" />
    <glyph glyph-name="M" unicode="M" horiz-adv-x="775" 
d="M746 760l-47 -760h-126l45 575l-232 -575h-71l-71 572l-115 -572h-126l166 760h143l65 -550l220 550h149z" />
    <glyph glyph-name="N" unicode="N" horiz-adv-x="629" 
d="M636 760l-107 -760h-130l-164 556l-78 -556h-130l107 760h130l165 -550l77 550h130z" />
    <glyph glyph-name="O" unicode="O" horiz-adv-x="737" 
d="M181.5 29.5q-63.5 41.5 -96.5 114.5t-33 165q0 122 48.5 228.5t137 170.5t202.5 64q86 0 149.5 -41.5t96.5 -114.5t33 -165q0 -123 -49 -229.5t-137.5 -170t-201.5 -63.5q-86 0 -149.5 41.5zM469 158.5q53 48.5 82.5 126.5t29.5 161q0 95 -41 149.5t-115 54.5
q-70 0 -123.5 -49t-82.5 -126.5t-29 -159.5q0 -95 41.5 -150t115.5 -55q69 0 122 48.5z" />
    <glyph glyph-name="P" unicode="P" horiz-adv-x="579" 
d="M481.5 732.5q49.5 -27.5 74.5 -75t25 -106.5q0 -96 -34 -169t-99.5 -113.5t-155.5 -40.5h-101l-32 -228h-132l107 760h228q70 0 119.5 -27.5zM403 393q44 56 44 142q0 57 -28.5 86.5t-88.5 29.5h-79l-45 -314h77q76 0 120 56z" />
    <glyph glyph-name="Q" unicode="Q" horiz-adv-x="742" 
d="M675.5 233.5q-43.5 -101.5 -121.5 -165.5l62 -137l-111 -72l-66 146q-53 -17 -108 -17q-86 0 -149.5 41.5t-96.5 114.5t-33 165q0 122 48.5 228.5t137 170.5t202.5 64q86 0 149.5 -41.5t96.5 -114.5t33 -165q0 -116 -43.5 -217.5zM389 115l-78 171l111 72l76 -168
q39 48 61 116.5t22 139.5q0 95 -41 149.5t-115 54.5q-70 0 -123.5 -49t-82.5 -126.5t-29 -159.5q0 -95 41.5 -150t115.5 -55q19 0 42 5z" />
    <glyph glyph-name="R" unicode="R" horiz-adv-x="584" 
d="M542 372q-39 -76 -112 -113l87 -259h-135l-69 229q-7 -1 -21 -1h-101l-32 -228h-132l107 760h228q70 0 119.5 -27.5t74.5 -75t25 -106.5q0 -103 -39 -179zM403 393q44 56 44 142q0 58 -28 87t-89 29h-79l-45 -314h77q76 0 120 56z" />
    <glyph glyph-name="S" unicode="S" horiz-adv-x="594" 
d="M96.5 45q-57.5 57 -61.5 158q-1 6 -1 18l137 8v-21q0 -61 31 -87.5t76 -26.5q56 0 92.5 37.5t36.5 94.5q0 37 -20 58.5t-55 36.5l-65 27q-75 32 -119.5 80.5t-44.5 116.5t32.5 119.5t91.5 79.5t134 28q116 0 171 -62.5t55 -165.5l-138 -8q1 7 1 20q0 52 -26.5 81
t-73.5 29q-49 0 -78.5 -30t-29.5 -77q0 -32 19 -55.5t61 -41.5l67 -28q157 -65 157 -190q0 -77 -35.5 -135t-99 -89.5t-144.5 -31.5q-113 0 -170.5 57z" />
    <glyph glyph-name="T" unicode="T" horiz-adv-x="529" 
d="M562 648h-175l-91 -648h-134l91 648h-176l15 112h486z" />
    <glyph glyph-name="U" unicode="U" horiz-adv-x="631" 
d="M113 50q-55 62 -55 171q0 29 5 71l66 468h134l-68 -477q-5 -35 -5 -57q0 -116 104 -116q59 0 97 43.5t51 129.5l67 477h134l-66 -468q-22 -156 -95.5 -230t-204.5 -74q-109 0 -164 62z" />
    <glyph glyph-name="V" unicode="V" horiz-adv-x="572" 
d="M641 760l-319 -760h-146l-104 760h136l58 -610l229 610h146z" />
    <glyph glyph-name="W" unicode="W" horiz-adv-x="870" 
d="M929 760l-277 -760h-139l-33 572l-198 -572h-138l-62 760h137l20 -614l204 614h120l32 -613l189 613h145z" />
    <glyph glyph-name="X" unicode="X" horiz-adv-x="564" 
d="M370 386l154 -386h-139l-96 272l-176 -272h-148l268 392l-147 368h139l88 -261l165 261h149z" />
    <glyph glyph-name="Y" unicode="Y" horiz-adv-x="539" 
d="M615 760l-428 -760h-141l180 320l-152 440h136l89 -309l174 309h142z" />
    <glyph glyph-name="Z" unicode="Z" horiz-adv-x="547" 
d="M200 112h294l-16 -112h-493l396 648h-272l16 112h471z" />
    <glyph glyph-name="bracketleft" unicode="[" horiz-adv-x="410" 
d="M288 774l-107 -762h114l-13 -98h-230l134 958h227l-14 -98h-111z" />
    <glyph glyph-name="backslash" unicode="\" horiz-adv-x="674" 
d="M264 760h-143l325 -760h142z" />
    <glyph glyph-name="bracketright" unicode="]" horiz-adv-x="410" 
d="M160 12l107 762h-114l13 98h230l-134 -958h-227l14 98h111z" />
    <glyph glyph-name="asciicircum" unicode="^" horiz-adv-x="498" 
d="M329 397l-34 161l-83 -161h-113l145 232h119l74 -232h-108z" />
    <glyph glyph-name="underscore" unicode="_" horiz-adv-x="528" 
d="M-16 -71h468l-14 -98h-468z" />
    <glyph glyph-name="grave" unicode="`" horiz-adv-x="340" 
d="M253 760l84 -171h-84l-132 171h132z" />
    <glyph glyph-name="a" unicode="a" horiz-adv-x="577" 
d="M555 517l-73 -517h-120l4 83q-28 -45 -69.5 -70t-89.5 -25q-50 0 -89 27.5t-61 76.5t-22 111q0 80 31.5 155t87 122.5t123.5 47.5q50 0 85 -27t51 -70l12 86h130zM331 125.5q31 30.5 48 77.5t17 95q0 55 -24.5 89t-66.5 34q-40 0 -72 -30.5t-49 -77.5t-17 -95
q0 -58 24 -90.5t69 -32.5q40 0 71 30.5z" />
    <glyph glyph-name="b" unicode="b" horiz-adv-x="577" 
d="M460.5 500.5q38.5 -27.5 60 -76t21.5 -109.5q0 -81 -32 -156.5t-88 -123t-124 -47.5q-48 0 -83 26t-52 71l-20 -85h-121l107 760h130l-46 -327q29 46 71 70.5t88 24.5q50 0 88.5 -27.5zM343.5 125.5q31.5 30.5 48.5 78t17 95.5q0 57 -24 89.5t-68 32.5q-40 0 -71 -30.5
t-48.5 -77t-17.5 -94.5q0 -56 25 -90t67 -34q40 0 71.5 30.5z" />
    <glyph glyph-name="c" unicode="c" horiz-adv-x="541" 
d="M129 17.5q-46 29.5 -69 79.5t-23 110q0 89 34 162t98 116t149 43q86 0 137 -50.5t59 -137.5l-126 -11q-5 45 -26.5 69t-59.5 24q-41 0 -72 -31t-48 -79.5t-17 -97.5q0 -57 24.5 -88t67.5 -31q37 0 67 26.5t47 71.5l123 -11q-28 -92 -93 -143t-160 -51q-66 0 -112 29.5z
" />
    <glyph glyph-name="d" unicode="d" horiz-adv-x="578" 
d="M590 760l-107 -760h-121l4 83q-28 -44 -69.5 -69.5t-89.5 -25.5q-50 0 -89 27.5t-61 76.5t-22 111q0 80 31.5 155t87 122.5t122.5 47.5q50 0 85.5 -27t51.5 -71l47 330h130zM331 125.5q31 30.5 48 77.5t17 95q0 55 -24.5 89t-66.5 34q-41 0 -72.5 -30.5t-48.5 -77.5
t-17 -96q0 -57 24.5 -89.5t68.5 -32.5q40 0 71 30.5z" />
    <glyph glyph-name="e" unicode="e" horiz-adv-x="551" 
d="M166 213q-2 -60 21.5 -94t68.5 -34q34 0 61.5 21.5t43.5 56.5l128 -12q-35 -78 -98 -120.5t-152 -42.5q-62 0 -108 29t-70.5 78t-24.5 108q0 91 33.5 165t96.5 117t147 43q97 0 149.5 -61t52.5 -161q0 -17 -3 -44.5t-7 -43.5h-338zM223 392.5q-32 -37.5 -46 -96.5h211
q1 8 1 23q0 54 -22 82.5t-65 28.5q-47 0 -79 -37.5z" />
    <glyph glyph-name="f" unicode="f" horiz-adv-x="319" 
d="M271.5 648.5q-18.5 -21.5 -25.5 -73.5l-8 -58h108l-15 -104h-108l-58 -413h-130l59 413h-66l23 104h57l10 67q14 99 58 143.5t122 44.5q31 0 62 -7t44 -15l-20 -93q-26 13 -62 13q-32 0 -50.5 -21.5z" />
    <glyph glyph-name="g" unicode="g" horiz-adv-x="578" 
d="M555 517l-65 -469q-17 -123 -86 -190.5t-182 -67.5q-82 0 -131.5 36.5t-63.5 97.5l130 16q16 -58 77 -58q50 0 82.5 40.5t41.5 113.5l6 48q-28 -43 -68.5 -66.5t-87.5 -23.5q-50 0 -89.5 27.5t-61.5 75.5t-22 109q0 79 31.5 153.5t87 121.5t122.5 47q51 0 86.5 -27.5
t51.5 -72.5l21 89h120zM331 126.5q31 30.5 48 77.5t17 94q0 55 -24.5 89t-66.5 34q-41 0 -72.5 -29.5t-48.5 -76.5t-17 -96q0 -58 24 -90.5t69 -32.5q40 0 71 30.5z" />
    <glyph glyph-name="h" unicode="h" horiz-adv-x="544" 
d="M470 485q33 -43 33 -113q0 -23 -3 -46l-46 -326h-130l42 302q4 34 4 48q0 37 -15.5 57t-51.5 20q-44 0 -71.5 -39.5t-38.5 -96.5l-41 -291h-130l107 760h130l-44 -314q31 40 70.5 61t84.5 21q67 0 100 -43z" />
    <glyph glyph-name="i" unicode="i" horiz-adv-x="260" 
d="M132 627q-24 24 -24 58t24 58.5t58 24.5t58 -24.5t24 -58.5t-24 -58t-58 -24t-58 24zM101 517h130l-72 -517h-130z" />
    <glyph glyph-name="j" unicode="j" horiz-adv-x="255" 
d="M128 627q-24 24 -24 58q0 35 24 59t58 24t57.5 -24t23.5 -59q0 -34 -23.5 -58t-57.5 -24t-58 24zM-77.5 -205q-26.5 5 -46.5 12l22 99q28 -10 56 -10q32 0 47 20t23 69l74 532h129l-76 -548q-14 -97 -58 -138t-120 -41q-24 0 -50.5 5z" />
    <glyph glyph-name="k" unicode="k" horiz-adv-x="486" 
d="M314 310l138 -310h-128l-89 226l-62 -64l-23 -162h-128l107 760h128l-60 -429l166 186h149z" />
    <glyph glyph-name="l" unicode="l" horiz-adv-x="288" 
d="M43 122q0 30 4 58l82 580h129l-81 -579q-3 -19 -3 -34q0 -30 13.5 -41.5t44.5 -11.5h10l-7 -103q-16 -3 -41 -3q-151 0 -151 134z" />
    <glyph glyph-name="m" unicode="m" horiz-adv-x="801" 
d="M728.5 485.5q31.5 -42.5 31.5 -111.5q0 -27 -4 -50l-45 -324h-130l42 302q4 32 4 47q0 36 -13 57t-41 21q-44 0 -69 -46t-34 -111l-38 -270h-130l42 301q4 32 4 47q0 79 -54 79q-40 0 -64.5 -37.5t-35.5 -93.5l-42 -296h-130l73 517h116l1 -69q27 39 63.5 59.5t78.5 20.5
q49 0 79.5 -28t41.5 -75q28 50 68.5 76.5t88.5 26.5q65 0 96.5 -42.5z" />
    <glyph glyph-name="n" unicode="n" horiz-adv-x="544" 
d="M470.5 485q33.5 -43 33.5 -113q0 -26 -4 -46l-46 -326h-130l43 302q4 34 4 48q0 77 -67 77q-44 0 -71.5 -38.5t-39.5 -96.5l-41 -292h-130l73 517h116l1 -75q31 42 71.5 64t87.5 22q66 0 99.5 -43z" />
    <glyph glyph-name="o" unicode="o" horiz-adv-x="560" 
d="M129 17.5q-46 29.5 -69 79.5t-23 110q0 89 34 162t98 116t149 43q66 0 112.5 -29.5t69.5 -79t23 -109.5q0 -89 -34 -162.5t-98 -116.5t-150 -43q-66 0 -112 29.5zM328 126q31 31 48 79t17 97q0 57 -24 88.5t-66 31.5q-41 0 -72 -31t-48 -79.5t-17 -97.5q0 -56 24.5 -87.5
t66.5 -31.5q40 0 71 31z" />
    <glyph glyph-name="p" unicode="p" horiz-adv-x="577" 
d="M460.5 500.5q38.5 -27.5 60 -75.5t21.5 -110q0 -81 -32 -156.5t-88 -123t-124 -47.5q-48 0 -83 26t-52 70l-39 -282h-130l100 715h121l-4 -87q30 47 72 72.5t89 25.5q50 0 88.5 -27.5zM343.5 125.5q31.5 30.5 48.5 78t17 95.5q0 57 -24 89.5t-68 32.5q-40 0 -71 -30.5
t-48.5 -77t-17.5 -94.5q0 -56 25 -90t67 -34q40 0 71.5 30.5z" />
    <glyph glyph-name="q" unicode="q" horiz-adv-x="574" 
d="M555 517l-100 -715h-130l39 277q-28 -42 -69 -66.5t-88 -24.5q-50 0 -89 27.5t-61 76.5t-22 111q0 80 31.5 155t87 122.5t123.5 47.5q50 0 85.5 -27.5t51.5 -72.5l21 89h120zM331 125.5q31 30.5 48 77.5t17 95q0 55 -24.5 89t-66.5 34q-41 0 -72.5 -30.5t-48.5 -77.5
t-17 -96q0 -57 24.5 -89.5t68.5 -32.5q40 0 71 30.5z" />
    <glyph glyph-name="r" unicode="r" horiz-adv-x="366" 
d="M388 525l-25 -125q-26 7 -50 7q-51 0 -84.5 -48t-43.5 -123l-33 -236h-130l73 517h114l1 -88q29 49 66.5 74t77.5 25q22 0 34 -3z" />
    <glyph glyph-name="s" unicode="s" horiz-adv-x="466" 
d="M65.5 31q-48.5 43 -52.5 117l126 11q-2 -39 14 -59t58 -20q34 0 57.5 18.5t23.5 52.5q0 25 -18 40.5t-61 31.5l-24 8q-127 48 -127 143q0 71 55.5 112.5t147.5 41.5q82 0 131.5 -39.5t54.5 -106.5l-127 -12q0 71 -63 71q-25 0 -45.5 -16.5t-20.5 -42.5q0 -17 14 -31
t44 -26l27 -10q70 -26 106 -59t36 -86q0 -88 -60.5 -135t-157.5 -47q-90 0 -138.5 43z" />
    <glyph glyph-name="t" unicode="t" horiz-adv-x="347" 
d="M191 176q-3 -19 -3 -34q0 -27 11.5 -38t36.5 -11q26 0 54 7l-7 -101q-49 -11 -92 -11q-63 0 -98.5 36t-35.5 97q0 15 4 47l34 245h-67l22 104h59l18 126h130l-18 -126h105l-15 -104h-105z" />
    <glyph glyph-name="u" unicode="u" 
d="M515 517l-72 -517h-117l1 74q-30 -42 -69.5 -64t-84.5 -22q-66 0 -99.5 43.5t-33.5 112.5q0 20 4 46l46 327h130l-43 -302q-4 -34 -4 -48q0 -77 67 -77q42 0 68.5 41t36.5 100l40 286h130z" />
    <glyph glyph-name="v" unicode="v" horiz-adv-x="480" 
d="M521 517l-250 -517h-136l-104 517h133l51 -406l162 406h144z" />
    <glyph glyph-name="w" unicode="w" horiz-adv-x="708" 
d="M739 517l-212 -517h-128l-29 370l-134 -370h-128l-67 517h132l21 -402l144 402h103l28 -401l133 401h137z" />
    <glyph glyph-name="x" unicode="x" horiz-adv-x="461" 
d="M300 261l124 -261h-132l-68 176l-114 -176h-147l202 267l-121 250l135 1l61 -164l105 163h147z" />
    <glyph glyph-name="y" unicode="y" 
d="M515 517l-67 -475q-17 -124 -82.5 -188t-170.5 -64q-78 0 -124 36t-60 98l130 16q8 -58 66 -58q47 0 73.5 39t37.5 117l5 39q-29 -39 -67 -59t-81 -20q-66 0 -99.5 43.5t-33.5 112.5q0 22 3 46l45 317h130l-41 -293q-4 -23 -4 -48q0 -37 15.5 -56.5t51.5 -19.5
q40 0 65.5 36.5t36.5 90.5l41 290h130z" />
    <glyph glyph-name="z" unicode="z" horiz-adv-x="454" 
d="M192 103h211l-14 -103h-405l275 414h-194l21 103h382z" />
    <glyph glyph-name="braceleft" unicode="{" horiz-adv-x="439" 
d="M445 872l-13 -94q-38 0 -58.5 -24t-26.5 -67l-23 -160q-14 -100 -83 -139q48 -34 48 -96q0 -10 -2 -32l-23 -161q-2 -20 -2 -29q0 -31 14 -46.5t47 -15.5l-13 -94h-28q-61 0 -98.5 38.5t-37.5 101.5q0 24 3 51l22 158q2 9 2 26q0 59 -61 59l10 69l3 21q71 0 83 86l22 155
q15 102 58.5 147.5t125.5 45.5h31z" />
    <glyph glyph-name="bar" unicode="|" horiz-adv-x="375" 
d="M191 760h134l-135 -958h-134z" />
    <glyph glyph-name="braceright" unicode="}" horiz-adv-x="439" 
d="M32 -86l13 94q38 0 58.5 24t26.5 67l23 160q14 100 83 139q-48 34 -48 96q0 10 2 32l23 161q2 20 2 29q0 31 -14 46.5t-47 15.5l13 94h28q61 0 98.5 -38.5t37.5 -101.5q0 -24 -3 -51l-22 -158q-2 -9 -2 -26q0 -59 61 -59l-10 -69l-3 -21q-71 0 -83 -86l-22 -155
q-15 -102 -58.5 -147.5t-125.5 -45.5h-31z" />
    <glyph glyph-name="asciitilde" unicode="~" horiz-adv-x="538" 
d="M331.5 381q-20.5 7 -44.5 20t-44.5 20t-43.5 7q-29 0 -53.5 -10t-47.5 -31l15 103q41 38 100 38q24 0 43 -7t46 -21q25 -13 45 -19.5t44 -6.5q61 0 103 41l-14 -103q-19 -18 -46.5 -28t-57.5 -10q-24 0 -44.5 7z" />
    <glyph glyph-name="uni00A0" unicode="&#xa0;" horiz-adv-x="178" 
 />
    <glyph glyph-name="exclamdown" unicode="&#xa1;" horiz-adv-x="283" 
d="M231.5 550q23.5 -24 23.5 -57t-23.5 -57t-57.5 -24q-33 0 -56.5 24t-23.5 57t23.5 57t56.5 24q34 0 57.5 -24zM139 -198h-123l87 533h99z" />
    <glyph glyph-name="cent" unicode="&#xa2;" horiz-adv-x="625" 
d="M412 193l123 -11q-24 -79 -75.5 -128t-125.5 -62l-17 -119h-118l17 124q-67 20 -102.5 77.5t-35.5 132.5q0 116 56.5 202.5t154.5 110.5l17 118h118l-16 -115q64 -13 102 -61t45 -122l-126 -11q-6 57 -37 79l-42 -298q40 25 62 83zM234 122l38 269q-31 -29 -48.5 -78
t-17.5 -99q0 -61 28 -92z" />
    <glyph glyph-name="sterling" unicode="&#xa3;" horiz-adv-x="601" 
d="M338.5 190.5q-13.5 -45.5 -38.5 -84.5h199l-14 -106h-432l14 106h86q63 77 63 152q0 16 -1 25h-112l12 84h75q-4 8 -14 24q-23 38 -37.5 80.5t-14.5 79.5q0 58 29.5 108.5t84.5 81.5t127 31q91 0 142 -53.5t56 -148.5l-124 -9q-2 46 -22.5 72.5t-59.5 26.5q-41 0 -70 -31
t-29 -71q0 -56 43 -124q19 -28 34 -67h152l-12 -84h-123v-1q0 -46 -13.5 -91.5z" />
    <glyph glyph-name="currency" unicode="&#xa4;" horiz-adv-x="765" 
d="M599 216l63 -73l-92 -83l-67 80q-66 -34 -145 -34q-67 0 -121 30l-92 -82l-80 96l85 74q-23 44 -23 97q0 103 64 181l-60 69l92 82l64 -75q68 33 143 33q69 0 125 -32l92 81l80 -95l-88 -76q22 -44 22 -94q0 -101 -62 -179zM290 245q32 -32 84 -32q40 0 76 22.5t58 62
t22 87.5q0 55 -32 87t-84 32q-40 0 -76 -22.5t-58 -62t-22 -87.5q0 -55 32 -87z" />
    <glyph glyph-name="yen" unicode="&#xa5;" horiz-adv-x="677" 
d="M464 411h107l-12 -85h-143l-10 -68h143l-11 -84h-144l-24 -174h-134l24 174h-144l12 84h144l10 68h-144l11 85h109l-107 349h134l76 -323l164 323h143z" />
    <glyph glyph-name="brokenbar" unicode="&#xa6;" horiz-adv-x="375" 
d="M191 760h134l-49 -352h-135zM105 154h135l-50 -352h-134z" />
    <glyph glyph-name="section" unicode="&#xa7;" horiz-adv-x="619" 
d="M494 197q-23 -43 -66 -73q58 -51 58 -126q0 -61 -30.5 -108t-84 -73.5t-121.5 -26.5q-98 0 -149.5 61.5t-55.5 154.5l131 12q-1 -56 20.5 -89t67.5 -33q43 0 68 26t25 67q0 33 -18 54t-60 42l-51 23q-55 25 -88.5 66t-33.5 99q0 51 23.5 93.5t65.5 72.5q-58 53 -58 127
q0 60 30.5 106.5t84 73t121.5 26.5q66 0 111.5 -29.5t69 -78.5t26.5 -108l-133 -12q0 56 -20.5 88.5t-67.5 32.5q-42 0 -67.5 -26t-25.5 -65q0 -33 17.5 -53.5t60.5 -42.5l51 -23q55 -24 88.5 -65.5t33.5 -99.5q0 -50 -23 -93zM248 236.5q18 -20.5 65 -43.5l30 -16
q50 44 50 99q0 30 -18 50.5t-65 43.5l-30 16q-50 -44 -50 -99q0 -30 18 -50.5z" />
    <glyph glyph-name="dieresis" unicode="&#xa8;" horiz-adv-x="427" 
d="M131 634.5q-20 20.5 -20 49.5t20 49.5t49 20.5t49.5 -20.5t20.5 -49.5t-20.5 -49.5t-49.5 -20.5t-49 20.5zM318.5 634.5q-20.5 20.5 -20.5 49.5t20.5 49.5t49.5 20.5q28 0 48 -20.5t20 -49.5t-20 -49.5t-48 -20.5q-29 0 -49.5 20.5z" />
    <glyph glyph-name="copyright" unicode="&#xa9;" horiz-adv-x="989" 
d="M298.5 40.5q-93.5 52.5 -145.5 142t-52 197.5t52 197.5t145.5 142t212.5 52.5q120 0 213.5 -52.5t145.5 -142t52 -197.5t-52 -197.5t-145.5 -142t-213.5 -52.5q-119 0 -212.5 52.5zM685.5 100.5q76.5 43.5 119 117.5t42.5 162t-42.5 162t-119 117.5t-174.5 43.5
t-174 -43.5t-118.5 -117.5t-42.5 -162t42.5 -162t118.5 -117.5t174 -43.5t174.5 43.5zM362.5 211.5q-53.5 65.5 -53.5 169.5t54 169.5t151 65.5q80 0 130.5 -43.5t64.5 -118.5l-105 -10q-10 39 -33 60t-57 21q-44 0 -70 -37.5t-26 -106.5q0 -68 26.5 -106t69.5 -38
q35 0 58.5 22.5t33.5 64.5l104 -9q-14 -77 -64.5 -123t-131.5 -46q-98 0 -151.5 65.5z" />
    <glyph glyph-name="ordfeminine" unicode="&#xaa;" horiz-adv-x="495" 
d="M506 760l-55 -386h-91l1 56q-23 -31 -53.5 -48t-65.5 -17q-39 0 -71.5 20.5t-51 58t-18.5 85.5q0 62 25.5 118t70.5 90.5t99 34.5q34 0 60.5 -17t42.5 -47l7 52h100zM325 472q24 19 38.5 51.5t14.5 70.5q0 42 -19 65.5t-50 23.5q-27 0 -51 -18t-39 -50t-15 -70
q0 -41 20.5 -66.5t51.5 -25.5q25 0 49 19z" />
    <glyph glyph-name="guillemotleft" unicode="&#xab;" horiz-adv-x="506" 
d="M180 480h111l-122 -208l61 -208h-100l-68 208zM367 480h111l-122 -208l61 -208h-100l-68 208z" />
    <glyph glyph-name="logicalnot" unicode="&#xac;" horiz-adv-x="582" 
d="M525 424l-34 -239h-108l20 141h-314l14 98h422z" />
    <glyph glyph-name="uni00AD" unicode="&#xad;" horiz-adv-x="401" 
d="M68 317h281l-15 -103h-280z" />
    <glyph glyph-name="registered" unicode="&#xae;" horiz-adv-x="719" 
d="M538 737q63 -35 98 -95.5t35 -133.5q0 -72 -35 -132.5t-98 -96t-143 -35.5q-81 0 -144 35.5t-98 96t-35 132.5q0 73 35 133.5t98 95.5t144 35q80 0 143 -35zM502 335.5q47 26.5 73 72t26 100.5t-26 100.5t-73 72t-107 26.5q-61 0 -108 -26.5t-73 -72t-26 -100.5
t26 -100.5t73 -72t108 -26.5q60 0 107 26.5zM457 479l41 -91h-71l-32 77h-11v-77h-69v255h84q47 0 71.5 -23.5t24.5 -64.5q0 -52 -38 -76zM384 521h12q30 0 30 34q0 33 -30 33h-12v-67z" />
    <glyph glyph-name="macron" unicode="&#xaf;" horiz-adv-x="348" 
d="M117 733h247l-11 -79h-247z" />
    <glyph glyph-name="degree" unicode="&#xb0;" horiz-adv-x="441" 
d="M203.5 515.5q-32.5 18.5 -51 50t-18.5 68.5t18.5 69t51 50.5t70.5 18.5q37 0 69 -18.5t50.5 -50.5t18.5 -69t-18.5 -68.5t-50.5 -50t-69 -18.5q-38 0 -70.5 18.5zM319 588.5q19 19.5 19 45.5q0 27 -19 46t-45 19q-27 0 -46.5 -19t-19.5 -46q0 -26 19.5 -45.5t46.5 -19.5
q26 0 45 19.5z" />
    <glyph glyph-name="plusminus" unicode="&#xb1;" horiz-adv-x="538" 
d="M476 385h-135l-22 -159h-95l22 159h-134l13 95h135l22 159h95l-22 -159h134zM60 115h364l-13 -95h-364z" />
    <glyph glyph-name="uni00B2" unicode="&#xb2;" horiz-adv-x="430" 
d="M229.5 483.5q-13.5 -15.5 -20.5 -35.5h166l-12 -79h-267l6 40q9 59 35.5 100t84.5 72l42 23q22 12 33 25.5t11 30.5q0 14 -8 22t-23 8q-16 0 -29 -9.5t-18 -24.5l-92 6q16 50 57 77t97 27q51 0 81 -29t30 -67q0 -43 -23 -71.5t-70 -56.5l-44 -28q-23 -15 -36.5 -30.5z
" />
    <glyph glyph-name="uni00B3" unicode="&#xb3;" horiz-adv-x="433" 
d="M372 538q12 -20 12 -43q0 -58 -43 -95t-108 -37q-54 0 -85.5 28t-36.5 77l92 7q3 -35 38 -35q21 0 35.5 16.5t14.5 40.5q0 40 -54 40h-37l9 67h30q31 0 47.5 14t16.5 42q0 13 -8 21.5t-23 8.5q-32 0 -45 -34l-90 7q17 50 57.5 76.5t93.5 26.5q50 0 79.5 -27.5t29.5 -68.5
q0 -30 -15.5 -56.5t-43.5 -42.5q22 -13 34 -33z" />
    <glyph glyph-name="acute" unicode="&#xb4;" horiz-adv-x="292" 
d="M181 589h-84l84 171h132z" />
    <glyph glyph-name="uni00B5" unicode="&#xb5;" horiz-adv-x="597" 
d="M553 517l-73 -517h-118l1 76q-32 -43 -73 -65.5t-89 -22.5q-9 0 -27 2l-26 -188h-132l52 363l3 27l46 325h131l-42 -300q-4 -32 -4 -44q0 -83 66 -83q44 0 76 47.5t40 108.5l38 271h131z" />
    <glyph glyph-name="paragraph" unicode="&#xb6;" horiz-adv-x="797" 
d="M773 658h-69l-121 -856h-116l121 856h-112l-121 -856h-116l63 446q-55 0 -98 28t-67.5 77.5t-24.5 109.5q0 75 36 144t96.5 111t129.5 42h413z" />
    <glyph glyph-name="periodcentered" unicode="&#xb7;" horiz-adv-x="256" 
d="M93 339q-23 23 -23 55t23 54.5t54 22.5q32 0 55 -22.5t23 -54.5t-23 -55t-55 -23q-31 0 -54 23z" />
    <glyph glyph-name="cedilla" unicode="&#xb8;" horiz-adv-x="279" 
d="M155 -57.5q21 -20.5 21 -53.5q0 -43 -31 -71t-80 -28q-46 0 -78 19l25 50q18 -10 42 -10q16 0 28 12t12 28q0 11 -6.5 17.5t-17.5 6.5q-17 0 -32 -12l-22 16l42 106h59l-19 -60h6q30 0 51 -20.5z" />
    <glyph glyph-name="uni00B9" unicode="&#xb9;" horiz-adv-x="323" 
d="M313 760l-55 -392h-96l37 263q-23 -7 -67 -7l12 88q89 0 106 48h63z" />
    <glyph glyph-name="ordmasculine" unicode="&#xba;" horiz-adv-x="484" 
d="M173.5 387.5q-35.5 22.5 -54 61t-18.5 84.5q0 66 27.5 120.5t76 86.5t109.5 32q48 0 83.5 -23t54 -61.5t18.5 -84.5q0 -65 -27 -119.5t-75.5 -86.5t-110.5 -32q-48 0 -83.5 22.5zM341 496q28 43 28 102q0 40 -18 63t-49 23t-53.5 -22t-34.5 -55.5t-12 -67.5q0 -40 18 -63
t49 -23q44 0 72 43z" />
    <glyph glyph-name="guillemotright" unicode="&#xbb;" horiz-adv-x="506" 
d="M330 64h-111l122 208l-61 208h100l68 -208zM143 64h-111l122 208l-61 208h100l68 -208z" />
    <glyph glyph-name="onequarter" unicode="&#xbc;" horiz-adv-x="970" 
d="M313 760l-55 -392h-96l37 263q-23 -7 -67 -7l12 88q89 0 106 48h63zM647 760h140l-574 -760h-139zM867 94h-50l-13 -94h-85l13 94h-171l11 80l92 217h89l-91 -217h82l15 106h85l-15 -106h49z" />
    <glyph glyph-name="onehalf" unicode="&#xbd;" horiz-adv-x="959" 
d="M313 760l-55 -392h-96l37 263q-23 -7 -67 -7l12 88q89 0 106 48h63zM706.5 115.5q-13.5 -15.5 -20.5 -35.5h166l-12 -79h-267l6 40q9 59 35.5 100t84.5 72l42 23q22 12 33 25.5t11 30.5q0 14 -8 22t-23 8q-16 0 -29 -9.5t-18 -24.5l-92 6q16 50 57 77t97 27q51 0 81 -29
t30 -67q0 -43 -23 -71.5t-70 -56.5l-44 -28q-23 -15 -36.5 -30.5zM647 760h140l-574 -760h-139z" />
    <glyph glyph-name="threequarters" unicode="&#xbe;" horiz-adv-x="1037" 
d="M372 538q12 -20 12 -43q0 -58 -43 -95t-108 -37q-54 0 -85.5 28t-36.5 77l92 7q3 -35 38 -35q21 0 35.5 16.5t14.5 40.5q0 40 -54 40h-37l9 67h30q31 0 47.5 14t16.5 42q0 13 -8 21.5t-23 8.5q-32 0 -45 -34l-90 7q17 50 57.5 76.5t93.5 26.5q50 0 79.5 -27.5t29.5 -68.5
q0 -30 -15.5 -56.5t-43.5 -42.5q22 -13 34 -33zM714 760h140l-574 -760h-139zM934 94h-50l-13 -94h-85l13 94h-171l11 80l92 217h89l-91 -217h82l15 106h85l-15 -106h49z" />
    <glyph glyph-name="questiondown" unicode="&#xbf;" horiz-adv-x="544" 
d="M377.5 550q23.5 -24 23.5 -57t-23.5 -57t-56.5 -24q-34 0 -57.5 24t-23.5 57t23.5 57t57.5 24q33 0 56.5 -24zM372 309q-8 -56 -21 -91t-38.5 -63t-73.5 -58l-21 -14q-67 -42 -67 -110q0 -71 70 -71q38 0 65 23t49 65l105 -44q-78 -156 -239 -156q-83 0 -132.5 46.5
t-49.5 120.5q0 66 34 118.5t97 89.5l24 14q64 39 76 128l3 31h123z" />
    <glyph glyph-name="Agrave" unicode="&#xc0;" horiz-adv-x="575" 
d="M391 123h-236l-45 -123h-145l317 760h153l102 -760h-135zM382 226l-37 411l-151 -411h188zM313 1004l84 -171h-84l-132 171h132z" />
    <glyph glyph-name="Aacute" unicode="&#xc1;" horiz-adv-x="575" 
d="M391 123h-236l-45 -123h-145l317 760h153l102 -760h-135zM382 226l-37 411l-151 -411h188zM405 833h-84l84 171h132z" />
    <glyph glyph-name="Acircumflex" unicode="&#xc2;" horiz-adv-x="575" 
d="M391 123h-236l-45 -123h-145l317 760h153l102 -760h-135zM382 226l-37 411l-151 -411h188zM436 836l-49 100l-73 -100h-113l150 168h85l102 -168h-102z" />
    <glyph glyph-name="Atilde" unicode="&#xc3;" horiz-adv-x="575" 
d="M391 123h-236l-45 -123h-145l317 760h153l102 -760h-135zM382 226l-37 411l-151 -411h188zM393.5 876.5q-16.5 8.5 -34.5 23.5q-26 23 -47 23q-14 0 -28 -10t-26 -29l-51 44q23 39 54.5 61t70.5 22q42 0 77 -33q24 -22 46 -22q26 0 54 39l53 -39q-24 -41 -57 -64.5
t-73 -23.5q-22 0 -38.5 8.5z" />
    <glyph glyph-name="Adieresis" unicode="&#xc4;" horiz-adv-x="575" 
d="M391 123h-236l-45 -123h-145l317 760h153l102 -760h-135zM382 226l-37 411l-151 -411h188zM238 878.5q-20 20.5 -20 49.5t20 49.5t49 20.5t49.5 -20.5t20.5 -49.5t-20.5 -49.5t-49.5 -20.5t-49 20.5zM425.5 878.5q-20.5 20.5 -20.5 49.5t20.5 49.5t49.5 20.5
q28 0 48 -20.5t20 -49.5t-20 -49.5t-48 -20.5q-29 0 -49.5 20.5z" />
    <glyph glyph-name="Aring" unicode="&#xc5;" horiz-adv-x="575" 
d="M391 123h-236l-45 -123h-145l317 760h153l102 -760h-135zM382 226l-37 411l-151 -411h188zM298.5 862q-33.5 34 -33.5 81q0 48 33.5 81.5t82.5 33.5q48 0 81.5 -34t33.5 -81t-33.5 -81t-81.5 -34q-49 0 -82.5 34zM421 900.5q17 17.5 17 42.5t-17 42.5t-40 17.5
q-24 0 -41 -17.5t-17 -42.5t17 -42.5t41 -17.5q23 0 40 17.5z" />
    <glyph glyph-name="AE" unicode="&#xc6;" horiz-adv-x="833" 
d="M599 649l-28 -200h231l-16 -108h-230l-32 -230h239l-15 -111h-373l23 161h-204l-92 -161h-145l461 760h434l-16 -111h-237zM412 263l53 373l-213 -373h160z" />
    <glyph glyph-name="Ccedilla" unicode="&#xc7;" horiz-adv-x="721" 
d="M630 697q71 -75 86 -203l-139 -12q-9 79 -46.5 123.5t-105.5 44.5q-70 0 -123.5 -49t-82.5 -126.5t-29 -159.5q0 -95 41.5 -150t115.5 -55q66 0 120.5 47t82.5 123l133 -14q-45 -130 -136.5 -204t-214.5 -74q-87 0 -150.5 41t-96.5 113.5t-33 166.5q0 122 48.5 228.5
t137 170.5t202.5 64q119 0 190 -75zM391 -57.5q21 -20.5 21 -53.5q0 -43 -31 -71t-80 -28q-46 0 -78 19l25 50q18 -10 42 -10q16 0 28 12t12 28q0 11 -6.5 17.5t-17.5 6.5q-17 0 -32 -12l-22 16l42 106h59l-19 -60h6q30 0 51 -20.5z" />
    <glyph glyph-name="Egrave" unicode="&#xc8;" horiz-adv-x="495" 
d="M252 648l-28 -198h240l-15 -109h-240l-32 -229h249l-16 -112h-383l107 760h381l-16 -112h-247zM279 1004l84 -171h-84l-132 171h132z" />
    <glyph glyph-name="Eacute" unicode="&#xc9;" horiz-adv-x="495" 
d="M252 648l-28 -198h240l-15 -109h-240l-32 -229h249l-16 -112h-383l107 760h381l-16 -112h-247zM371 833h-84l84 171h132z" />
    <glyph glyph-name="Ecircumflex" unicode="&#xca;" horiz-adv-x="495" 
d="M252 648l-28 -198h240l-15 -109h-240l-32 -229h249l-16 -112h-383l107 760h381l-16 -112h-247zM402 836l-49 100l-73 -100h-113l150 168h85l102 -168h-102z" />
    <glyph glyph-name="Edieresis" unicode="&#xcb;" horiz-adv-x="495" 
d="M252 648l-28 -198h240l-15 -109h-240l-32 -229h249l-16 -112h-383l107 760h381l-16 -112h-247zM204 878.5q-20 20.5 -20 49.5t20 49.5t49 20.5t49.5 -20.5t20.5 -49.5t-20.5 -49.5t-49.5 -20.5t-49 20.5zM391.5 878.5q-20.5 20.5 -20.5 49.5t20.5 49.5t49.5 20.5
q28 0 48 -20.5t20 -49.5t-20 -49.5t-48 -20.5q-29 0 -49.5 20.5z" />
    <glyph glyph-name="Igrave" unicode="&#xcc;" horiz-adv-x="260" 
d="M134 760h134l-107 -760h-134zM156 1004l84 -171h-84l-132 171h132z" />
    <glyph glyph-name="Iacute" unicode="&#xcd;" horiz-adv-x="260" 
d="M134 760h134l-107 -760h-134zM248 833h-84l84 171h132z" />
    <glyph glyph-name="Icircumflex" unicode="&#xce;" horiz-adv-x="260" 
d="M134 760h134l-107 -760h-134zM259 836l-28 113l-58 -113h-105l126 168h84l79 -168h-98z" />
    <glyph glyph-name="Idieresis" unicode="&#xcf;" horiz-adv-x="260" 
d="M134 760h134l-107 -760h-134zM81 878.5q-20 20.5 -20 49.5t20 49.5t49 20.5t49.5 -20.5t20.5 -49.5t-20.5 -49.5t-49.5 -20.5t-49 20.5zM268.5 878.5q-20.5 20.5 -20.5 49.5t20.5 49.5t49.5 20.5q28 0 48 -20.5t20 -49.5t-20 -49.5t-48 -20.5q-29 0 -49.5 20.5z" />
    <glyph glyph-name="Eth" unicode="&#xd0;" horiz-adv-x="707" 
d="M554 720.5q65 -39.5 100.5 -110t35.5 -159.5q0 -120 -49.5 -223.5t-139.5 -165.5t-206 -62h-237l49 347h-86l14 99h86l44 314h237q87 0 152 -39.5zM434.5 160.5q56.5 48.5 87 125.5t30.5 160q0 94 -43.5 148t-122.5 54h-103l-28 -202h152l-14 -99h-152l-33 -235h97
q73 0 129.5 48.5z" />
    <glyph glyph-name="Ntilde" unicode="&#xd1;" horiz-adv-x="629" 
d="M636 760l-107 -760h-130l-164 556l-78 -556h-130l107 760h130l165 -550l77 550h130zM419.5 876.5q-16.5 8.5 -34.5 23.5q-26 23 -47 23q-14 0 -28 -10t-26 -29l-51 44q23 39 54.5 61t70.5 22q42 0 77 -33q24 -22 46 -22q26 0 54 39l53 -39q-24 -41 -57 -64.5t-73 -23.5
q-22 0 -38.5 8.5z" />
    <glyph glyph-name="Ograve" unicode="&#xd2;" horiz-adv-x="737" 
d="M181.5 29.5q-63.5 41.5 -96.5 114.5t-33 165q0 122 48.5 228.5t137 170.5t202.5 64q86 0 149.5 -41.5t96.5 -114.5t33 -165q0 -123 -49 -229.5t-137.5 -170t-201.5 -63.5q-86 0 -149.5 41.5zM469 158.5q53 48.5 82.5 126.5t29.5 161q0 95 -41 149.5t-115 54.5
q-70 0 -123.5 -49t-82.5 -126.5t-29 -159.5q0 -95 41.5 -150t115.5 -55q69 0 122 48.5zM393 1004l84 -171h-84l-132 171h132z" />
    <glyph glyph-name="Oacute" unicode="&#xd3;" horiz-adv-x="737" 
d="M181.5 29.5q-63.5 41.5 -96.5 114.5t-33 165q0 122 48.5 228.5t137 170.5t202.5 64q86 0 149.5 -41.5t96.5 -114.5t33 -165q0 -123 -49 -229.5t-137.5 -170t-201.5 -63.5q-86 0 -149.5 41.5zM469 158.5q53 48.5 82.5 126.5t29.5 161q0 95 -41 149.5t-115 54.5
q-70 0 -123.5 -49t-82.5 -126.5t-29 -159.5q0 -95 41.5 -150t115.5 -55q69 0 122 48.5zM485 833h-84l84 171h132z" />
    <glyph glyph-name="Ocircumflex" unicode="&#xd4;" horiz-adv-x="737" 
d="M181.5 29.5q-63.5 41.5 -96.5 114.5t-33 165q0 122 48.5 228.5t137 170.5t202.5 64q86 0 149.5 -41.5t96.5 -114.5t33 -165q0 -123 -49 -229.5t-137.5 -170t-201.5 -63.5q-86 0 -149.5 41.5zM469 158.5q53 48.5 82.5 126.5t29.5 161q0 95 -41 149.5t-115 54.5
q-70 0 -123.5 -49t-82.5 -126.5t-29 -159.5q0 -95 41.5 -150t115.5 -55q69 0 122 48.5zM516 836l-49 100l-73 -100h-113l150 168h85l102 -168h-102z" />
    <glyph glyph-name="Otilde" unicode="&#xd5;" horiz-adv-x="737" 
d="M181.5 29.5q-63.5 41.5 -96.5 114.5t-33 165q0 122 48.5 228.5t137 170.5t202.5 64q86 0 149.5 -41.5t96.5 -114.5t33 -165q0 -123 -49 -229.5t-137.5 -170t-201.5 -63.5q-86 0 -149.5 41.5zM469 158.5q53 48.5 82.5 126.5t29.5 161q0 95 -41 149.5t-115 54.5
q-70 0 -123.5 -49t-82.5 -126.5t-29 -159.5q0 -95 41.5 -150t115.5 -55q69 0 122 48.5zM473.5 876.5q-16.5 8.5 -34.5 23.5q-26 23 -47 23q-14 0 -28 -10t-26 -29l-51 44q23 39 54.5 61t70.5 22q42 0 77 -33q24 -22 46 -22q26 0 54 39l53 -39q-24 -41 -57 -64.5t-73 -23.5
q-22 0 -38.5 8.5z" />
    <glyph glyph-name="Odieresis" unicode="&#xd6;" horiz-adv-x="737" 
d="M181.5 29.5q-63.5 41.5 -96.5 114.5t-33 165q0 122 48.5 228.5t137 170.5t202.5 64q86 0 149.5 -41.5t96.5 -114.5t33 -165q0 -123 -49 -229.5t-137.5 -170t-201.5 -63.5q-86 0 -149.5 41.5zM469 158.5q53 48.5 82.5 126.5t29.5 161q0 95 -41 149.5t-115 54.5
q-70 0 -123.5 -49t-82.5 -126.5t-29 -159.5q0 -95 41.5 -150t115.5 -55q69 0 122 48.5zM318 878.5q-20 20.5 -20 49.5t20 49.5t49 20.5t49.5 -20.5t20.5 -49.5t-20.5 -49.5t-49.5 -20.5t-49 20.5zM505.5 878.5q-20.5 20.5 -20.5 49.5t20.5 49.5t49.5 20.5q28 0 48 -20.5
t20 -49.5t-20 -49.5t-48 -20.5q-29 0 -49.5 20.5z" />
    <glyph glyph-name="multiply" unicode="&#xd7;" horiz-adv-x="511" 
d="M318 261l93 -128l-71 -60l-90 121l-125 -123l-61 71l130 128l-90 123l71 62l87 -118l127 125l61 -71z" />
    <glyph glyph-name="Oslash" unicode="&#xd8;" horiz-adv-x="737" 
d="M657 667q62 -87 62 -216q0 -123 -49 -229.5t-137.5 -170t-201.5 -63.5q-79 0 -142 36l-34 -47h-119l81 112q-32 42 -48.5 98t-16.5 122q0 122 48.5 228.5t137 170.5t202.5 64q84 0 146 -39l36 50h119zM201 203l312 431q-35 24 -86 24q-73 0 -129 -51t-85.5 -131.5
t-29.5 -164.5q0 -61 18 -108zM573 552l-311 -428q36 -22 83 -22q72 0 128 50.5t86 131t30 166.5q0 60 -16 102z" />
    <glyph glyph-name="Ugrave" unicode="&#xd9;" horiz-adv-x="631" 
d="M113 50q-55 62 -55 171q0 29 5 71l66 468h134l-68 -477q-5 -35 -5 -57q0 -116 104 -116q59 0 97 43.5t51 129.5l67 477h134l-66 -468q-22 -156 -95.5 -230t-204.5 -74q-109 0 -164 62zM340 1004l84 -171h-84l-132 171h132z" />
    <glyph glyph-name="Uacute" unicode="&#xda;" horiz-adv-x="631" 
d="M113 50q-55 62 -55 171q0 29 5 71l66 468h134l-68 -477q-5 -35 -5 -57q0 -116 104 -116q59 0 97 43.5t51 129.5l67 477h134l-66 -468q-22 -156 -95.5 -230t-204.5 -74q-109 0 -164 62zM432 833h-84l84 171h132z" />
    <glyph glyph-name="Ucircumflex" unicode="&#xdb;" horiz-adv-x="631" 
d="M113 50q-55 62 -55 171q0 29 5 71l66 468h134l-68 -477q-5 -35 -5 -57q0 -116 104 -116q59 0 97 43.5t51 129.5l67 477h134l-66 -468q-22 -156 -95.5 -230t-204.5 -74q-109 0 -164 62zM463 836l-49 100l-73 -100h-113l150 168h85l102 -168h-102z" />
    <glyph glyph-name="Udieresis" unicode="&#xdc;" horiz-adv-x="631" 
d="M113 50q-55 62 -55 171q0 29 5 71l66 468h134l-68 -477q-5 -35 -5 -57q0 -116 104 -116q59 0 97 43.5t51 129.5l67 477h134l-66 -468q-22 -156 -95.5 -230t-204.5 -74q-109 0 -164 62zM265 878.5q-20 20.5 -20 49.5t20 49.5t49 20.5t49.5 -20.5t20.5 -49.5t-20.5 -49.5
t-49.5 -20.5t-49 20.5zM452.5 878.5q-20.5 20.5 -20.5 49.5t20.5 49.5t49.5 20.5q28 0 48 -20.5t20 -49.5t-20 -49.5t-48 -20.5q-29 0 -49.5 20.5z" />
    <glyph glyph-name="Yacute" unicode="&#xdd;" horiz-adv-x="539" 
d="M615 760l-428 -760h-141l180 320l-152 440h136l89 -309l174 309h142zM393 833h-84l84 171h132z" />
    <glyph glyph-name="Thorn" unicode="&#xde;" horiz-adv-x="578" 
d="M464.5 628.5q49.5 -27.5 75 -75t25.5 -106.5q0 -96 -34 -169t-99.5 -113.5t-155.5 -40.5h-100l-17 -124h-132l107 760h132l-15 -104h95q69 0 118.5 -27.5zM387 289q44 56 44 142q0 58 -28 87t-89 29h-78l-44 -314h75q76 0 120 56z" />
    <glyph glyph-name="germandbls" unicode="&#xdf;" horiz-adv-x="531" 
d="M454.5 352q32.5 -47 32.5 -105q0 -71 -32 -130.5t-86 -94t-116 -34.5q-41 0 -80 14l24 90q26 -7 47 -7q32 0 61.5 21t47.5 56.5t18 76.5q0 53 -28.5 84.5t-74.5 31.5h-22l11 72l2 18q48 20 78 63.5t30 95.5q0 32 -15 50t-46 18q-33 0 -57 -33t-32 -87l-78 -552h-117
l76 538q17 125 72.5 179.5t146.5 54.5q72 0 113.5 -42.5t41.5 -104.5q0 -61 -27.5 -113t-75.5 -89q53 -24 85.5 -71z" />
    <glyph glyph-name="agrave" unicode="&#xe0;" horiz-adv-x="577" 
d="M555 517l-73 -517h-120l4 83q-28 -45 -69.5 -70t-89.5 -25q-50 0 -89 27.5t-61 76.5t-22 111q0 80 31.5 155t87 122.5t123.5 47.5q50 0 85 -27t51 -70l12 86h130zM331 125.5q31 30.5 48 77.5t17 95q0 55 -24.5 89t-66.5 34q-40 0 -72 -30.5t-49 -77.5t-17 -95
q0 -58 24 -90.5t69 -32.5q40 0 71 30.5zM266 761l84 -171h-84l-132 171h132z" />
    <glyph glyph-name="aacute" unicode="&#xe1;" horiz-adv-x="577" 
d="M555 517l-73 -517h-120l4 83q-28 -45 -69.5 -70t-89.5 -25q-50 0 -89 27.5t-61 76.5t-22 111q0 80 31.5 155t87 122.5t123.5 47.5q50 0 85 -27t51 -70l12 86h130zM331 125.5q31 30.5 48 77.5t17 95q0 55 -24.5 89t-66.5 34q-40 0 -72 -30.5t-49 -77.5t-17 -95
q0 -58 24 -90.5t69 -32.5q40 0 71 30.5zM358 590h-84l84 171h132z" />
    <glyph glyph-name="acircumflex" unicode="&#xe2;" horiz-adv-x="577" 
d="M555 517l-73 -517h-120l4 83q-28 -45 -69.5 -70t-89.5 -25q-50 0 -89 27.5t-61 76.5t-22 111q0 80 31.5 155t87 122.5t123.5 47.5q50 0 85 -27t51 -70l12 86h130zM331 125.5q31 30.5 48 77.5t17 95q0 55 -24.5 89t-66.5 34q-40 0 -72 -30.5t-49 -77.5t-17 -95
q0 -58 24 -90.5t69 -32.5q40 0 71 30.5zM389 593l-49 100l-73 -100h-113l150 168h85l102 -168h-102z" />
    <glyph glyph-name="atilde" unicode="&#xe3;" horiz-adv-x="577" 
d="M555 517l-73 -517h-120l4 83q-28 -45 -69.5 -70t-89.5 -25q-50 0 -89 27.5t-61 76.5t-22 111q0 80 31.5 155t87 122.5t123.5 47.5q50 0 85 -27t51 -70l12 86h130zM331 125.5q31 30.5 48 77.5t17 95q0 55 -24.5 89t-66.5 34q-40 0 -72 -30.5t-49 -77.5t-17 -95
q0 -58 24 -90.5t69 -32.5q40 0 71 30.5zM346.5 633.5q-16.5 8.5 -34.5 23.5q-26 23 -47 23q-14 0 -28 -10t-26 -29l-51 44q23 39 54.5 61t70.5 22q42 0 77 -33q24 -22 46 -22q26 0 54 39l53 -39q-24 -41 -57 -64.5t-73 -23.5q-22 0 -38.5 8.5z" />
    <glyph glyph-name="adieresis" unicode="&#xe4;" horiz-adv-x="577" 
d="M555 517l-73 -517h-120l4 83q-28 -45 -69.5 -70t-89.5 -25q-50 0 -89 27.5t-61 76.5t-22 111q0 80 31.5 155t87 122.5t123.5 47.5q50 0 85 -27t51 -70l12 86h130zM331 125.5q31 30.5 48 77.5t17 95q0 55 -24.5 89t-66.5 34q-40 0 -72 -30.5t-49 -77.5t-17 -95
q0 -58 24 -90.5t69 -32.5q40 0 71 30.5zM191 635.5q-20 20.5 -20 49.5t20 49.5t49 20.5t49.5 -20.5t20.5 -49.5t-20.5 -49.5t-49.5 -20.5t-49 20.5zM378.5 635.5q-20.5 20.5 -20.5 49.5t20.5 49.5t49.5 20.5q28 0 48 -20.5t20 -49.5t-20 -49.5t-48 -20.5q-29 0 -49.5 20.5z
" />
    <glyph glyph-name="aring" unicode="&#xe5;" horiz-adv-x="577" 
d="M555 517l-73 -517h-120l4 83q-28 -45 -69.5 -70t-89.5 -25q-50 0 -89 27.5t-61 76.5t-22 111q0 80 31.5 155t87 122.5t123.5 47.5q50 0 85 -27t51 -70l12 86h130zM331 125.5q31 30.5 48 77.5t17 95q0 55 -24.5 89t-66.5 34q-40 0 -72 -30.5t-49 -77.5t-17 -95
q0 -58 24 -90.5t69 -32.5q40 0 71 30.5zM251.5 619q-33.5 34 -33.5 81q0 48 33.5 81.5t82.5 33.5q48 0 81.5 -34t33.5 -81t-33.5 -81t-81.5 -34q-49 0 -82.5 34zM374 657.5q17 17.5 17 42.5t-17 42.5t-40 17.5q-24 0 -41 -17.5t-17 -42.5t17 -42.5t41 -17.5q23 0 40 17.5z
" />
    <glyph glyph-name="ae" unicode="&#xe6;" horiz-adv-x="836" 
d="M458 213q-2 -60 22 -94t69 -34q35 0 62 21.5t44 56.5l119 -11q-34 -79 -94.5 -121.5t-147.5 -42.5q-57 0 -98 26t-64 71q-66 -97 -198 -97q-65 0 -107.5 37t-42.5 100q0 88 58.5 133.5t159.5 45.5h112l2 12q3 17 3 32q0 45 -20.5 64t-52.5 19t-57.5 -17.5t-41.5 -49.5
l-114 12q30 69 87.5 110.5t139.5 41.5q45 0 82 -16.5t60 -49.5q33 32 75.5 49t90.5 17q94 0 144.5 -62t50.5 -162q0 -15 -3 -39t-7 -39h-331zM518.5 395q-32.5 -35 -47.5 -91h211v15q0 54 -22 82.5t-65 28.5q-44 0 -76.5 -35zM292.5 107q35.5 34 45.5 95l3 24h-92
q-53 0 -81.5 -22.5t-28.5 -66.5q0 -30 19.5 -47t51.5 -17q47 0 82.5 34z" />
    <glyph glyph-name="ccedilla" unicode="&#xe7;" horiz-adv-x="541" 
d="M129 17.5q-46 29.5 -69 79.5t-23 110q0 89 34 162t98 116t149 43q86 0 137 -50.5t59 -137.5l-126 -11q-5 45 -26.5 69t-59.5 24q-41 0 -72 -31t-48 -79.5t-17 -97.5q0 -57 24.5 -88t67.5 -31q37 0 67 26.5t47 71.5l123 -11q-28 -92 -93 -143t-160 -51q-66 0 -112 29.5z
M303 -57.5q21 -20.5 21 -53.5q0 -43 -31 -71t-80 -28q-46 0 -78 19l25 50q18 -10 42 -10q16 0 28 12t12 28q0 11 -6.5 17.5t-17.5 6.5q-17 0 -32 -12l-22 16l42 106h59l-19 -60h6q30 0 51 -20.5z" />
    <glyph glyph-name="egrave" unicode="&#xe8;" horiz-adv-x="551" 
d="M166 213q-2 -60 21.5 -94t68.5 -34q34 0 61.5 21.5t43.5 56.5l128 -12q-35 -78 -98 -120.5t-152 -42.5q-62 0 -108 29t-70.5 78t-24.5 108q0 91 33.5 165t96.5 117t147 43q97 0 149.5 -61t52.5 -161q0 -17 -3 -44.5t-7 -43.5h-338zM223 392.5q-32 -37.5 -46 -96.5h211
q1 8 1 23q0 54 -22 82.5t-65 28.5q-47 0 -79 -37.5zM264 761l84 -171h-84l-132 171h132z" />
    <glyph glyph-name="eacute" unicode="&#xe9;" horiz-adv-x="551" 
d="M166 213q-2 -60 21.5 -94t68.5 -34q34 0 61.5 21.5t43.5 56.5l128 -12q-35 -78 -98 -120.5t-152 -42.5q-62 0 -108 29t-70.5 78t-24.5 108q0 91 33.5 165t96.5 117t147 43q97 0 149.5 -61t52.5 -161q0 -17 -3 -44.5t-7 -43.5h-338zM223 392.5q-32 -37.5 -46 -96.5h211
q1 8 1 23q0 54 -22 82.5t-65 28.5q-47 0 -79 -37.5zM356 590h-84l84 171h132z" />
    <glyph glyph-name="ecircumflex" unicode="&#xea;" horiz-adv-x="551" 
d="M166 213q-2 -60 21.5 -94t68.5 -34q34 0 61.5 21.5t43.5 56.5l128 -12q-35 -78 -98 -120.5t-152 -42.5q-62 0 -108 29t-70.5 78t-24.5 108q0 91 33.5 165t96.5 117t147 43q97 0 149.5 -61t52.5 -161q0 -17 -3 -44.5t-7 -43.5h-338zM223 392.5q-32 -37.5 -46 -96.5h211
q1 8 1 23q0 54 -22 82.5t-65 28.5q-47 0 -79 -37.5zM387 593l-49 100l-73 -100h-113l150 168h85l102 -168h-102z" />
    <glyph glyph-name="edieresis" unicode="&#xeb;" horiz-adv-x="551" 
d="M166 213q-2 -60 21.5 -94t68.5 -34q34 0 61.5 21.5t43.5 56.5l128 -12q-35 -78 -98 -120.5t-152 -42.5q-62 0 -108 29t-70.5 78t-24.5 108q0 91 33.5 165t96.5 117t147 43q97 0 149.5 -61t52.5 -161q0 -17 -3 -44.5t-7 -43.5h-338zM223 392.5q-32 -37.5 -46 -96.5h211
q1 8 1 23q0 54 -22 82.5t-65 28.5q-47 0 -79 -37.5zM189 635.5q-20 20.5 -20 49.5t20 49.5t49 20.5t49.5 -20.5t20.5 -49.5t-20.5 -49.5t-49.5 -20.5t-49 20.5zM376.5 635.5q-20.5 20.5 -20.5 49.5t20.5 49.5t49.5 20.5q28 0 48 -20.5t20 -49.5t-20 -49.5t-48 -20.5
q-29 0 -49.5 20.5z" />
    <glyph glyph-name="igrave" unicode="&#xec;" horiz-adv-x="252" 
d="M97 517h130l-72 -517h-130zM115 761l84 -171h-84l-132 171h132z" />
    <glyph glyph-name="iacute" unicode="&#xed;" horiz-adv-x="252" 
d="M97 517h130l-72 -517h-130zM207 590h-84l84 171h132z" />
    <glyph glyph-name="icircumflex" unicode="&#xee;" horiz-adv-x="252" 
d="M97 517h130l-72 -517h-130zM218 593l-28 113l-58 -113h-105l126 168h84l79 -168h-98z" />
    <glyph glyph-name="idieresis" unicode="&#xef;" horiz-adv-x="252" 
d="M97 517h130l-72 -517h-130zM40 635.5q-20 20.5 -20 49.5t20 49.5t49 20.5t49.5 -20.5t20.5 -49.5t-20.5 -49.5t-49.5 -20.5t-49 20.5zM227.5 635.5q-20.5 20.5 -20.5 49.5t20.5 49.5t49.5 20.5q28 0 48 -20.5t20 -49.5t-20 -49.5t-48 -20.5q-29 0 -49.5 20.5z" />
    <glyph glyph-name="eth" unicode="&#xf0;" horiz-adv-x="574" 
d="M502 636q50 -84 50 -199q0 -120 -36 -222.5t-106.5 -164.5t-170.5 -62q-60 0 -106.5 27.5t-72.5 75t-26 106.5q0 82 33.5 149t94.5 106t140 39q85 0 130 -48v10q0 77 -28 134l-94 -48l-25 67l76 39q-36 33 -92 48l32 79q94 -19 156 -79l87 45l26 -67zM325.5 123.5
q31.5 28.5 49.5 73t18 89.5q0 53 -26.5 83.5t-68.5 30.5q-39 0 -69.5 -29t-47 -73t-16.5 -88q0 -54 24.5 -84.5t66.5 -30.5q38 0 69.5 28.5z" />
    <glyph glyph-name="ntilde" unicode="&#xf1;" horiz-adv-x="544" 
d="M470.5 485q33.5 -43 33.5 -113q0 -26 -4 -46l-46 -326h-130l43 302q4 34 4 48q0 77 -67 77q-44 0 -71.5 -38.5t-39.5 -96.5l-41 -292h-130l73 517h116l1 -75q31 42 71.5 64t87.5 22q66 0 99.5 -43zM350.5 633.5q-16.5 8.5 -34.5 23.5q-26 23 -47 23q-14 0 -28 -10
t-26 -29l-51 44q23 39 54.5 61t70.5 22q42 0 77 -33q24 -22 46 -22q26 0 54 39l53 -39q-24 -41 -57 -64.5t-73 -23.5q-22 0 -38.5 8.5z" />
    <glyph glyph-name="ograve" unicode="&#xf2;" horiz-adv-x="560" 
d="M129 17.5q-46 29.5 -69 79.5t-23 110q0 89 34 162t98 116t149 43q66 0 112.5 -29.5t69.5 -79t23 -109.5q0 -89 -34 -162.5t-98 -116.5t-150 -43q-66 0 -112 29.5zM328 126q31 31 48 79t17 97q0 57 -24 88.5t-66 31.5q-41 0 -72 -31t-48 -79.5t-17 -97.5q0 -56 24.5 -87.5
t66.5 -31.5q40 0 71 31zM274 761l84 -171h-84l-132 171h132z" />
    <glyph glyph-name="oacute" unicode="&#xf3;" horiz-adv-x="560" 
d="M129 17.5q-46 29.5 -69 79.5t-23 110q0 89 34 162t98 116t149 43q66 0 112.5 -29.5t69.5 -79t23 -109.5q0 -89 -34 -162.5t-98 -116.5t-150 -43q-66 0 -112 29.5zM328 126q31 31 48 79t17 97q0 57 -24 88.5t-66 31.5q-41 0 -72 -31t-48 -79.5t-17 -97.5q0 -56 24.5 -87.5
t66.5 -31.5q40 0 71 31zM366 590h-84l84 171h132z" />
    <glyph glyph-name="ocircumflex" unicode="&#xf4;" horiz-adv-x="560" 
d="M129 17.5q-46 29.5 -69 79.5t-23 110q0 89 34 162t98 116t149 43q66 0 112.5 -29.5t69.5 -79t23 -109.5q0 -89 -34 -162.5t-98 -116.5t-150 -43q-66 0 -112 29.5zM328 126q31 31 48 79t17 97q0 57 -24 88.5t-66 31.5q-41 0 -72 -31t-48 -79.5t-17 -97.5q0 -56 24.5 -87.5
t66.5 -31.5q40 0 71 31zM397 593l-49 100l-73 -100h-113l150 168h85l102 -168h-102z" />
    <glyph glyph-name="otilde" unicode="&#xf5;" horiz-adv-x="560" 
d="M129 17.5q-46 29.5 -69 79.5t-23 110q0 89 34 162t98 116t149 43q66 0 112.5 -29.5t69.5 -79t23 -109.5q0 -89 -34 -162.5t-98 -116.5t-150 -43q-66 0 -112 29.5zM328 126q31 31 48 79t17 97q0 57 -24 88.5t-66 31.5q-41 0 -72 -31t-48 -79.5t-17 -97.5q0 -56 24.5 -87.5
t66.5 -31.5q40 0 71 31zM354.5 633.5q-16.5 8.5 -34.5 23.5q-26 23 -47 23q-14 0 -28 -10t-26 -29l-51 44q23 39 54.5 61t70.5 22q42 0 77 -33q24 -22 46 -22q26 0 54 39l53 -39q-24 -41 -57 -64.5t-73 -23.5q-22 0 -38.5 8.5z" />
    <glyph glyph-name="odieresis" unicode="&#xf6;" horiz-adv-x="560" 
d="M129 17.5q-46 29.5 -69 79.5t-23 110q0 89 34 162t98 116t149 43q66 0 112.5 -29.5t69.5 -79t23 -109.5q0 -89 -34 -162.5t-98 -116.5t-150 -43q-66 0 -112 29.5zM328 126q31 31 48 79t17 97q0 57 -24 88.5t-66 31.5q-41 0 -72 -31t-48 -79.5t-17 -97.5q0 -56 24.5 -87.5
t66.5 -31.5q40 0 71 31zM199 635.5q-20 20.5 -20 49.5t20 49.5t49 20.5t49.5 -20.5t20.5 -49.5t-20.5 -49.5t-49.5 -20.5t-49 20.5zM386.5 635.5q-20.5 20.5 -20.5 49.5t20.5 49.5t49.5 20.5q28 0 48 -20.5t20 -49.5t-20 -49.5t-48 -20.5q-29 0 -49.5 20.5z" />
    <glyph glyph-name="divide" unicode="&#xf7;" horiz-adv-x="524" 
d="M230.5 388q-20.5 21 -20.5 50t20.5 50t50.5 21q29 0 50 -21t21 -50t-21 -50t-50 -21q-30 0 -50.5 21zM88 313h364l-14 -95h-364zM195.5 38q-20.5 21 -20.5 50t20.5 49.5t50.5 20.5q29 0 50 -20.5t21 -49.5t-21 -50t-50 -21q-30 0 -50.5 21z" />
    <glyph glyph-name="oslash" unicode="&#xf8;" horiz-adv-x="560" 
d="M509.5 396q13.5 -40 13.5 -86q0 -89 -34 -162.5t-98 -116.5t-150 -43q-55 0 -101 23l-23 -31h-78l51 71q-26 30 -39.5 70t-13.5 86q0 89 34 162t98 116t149 43q58 0 101 -23l22 31h78l-50 -70q27 -30 40.5 -70zM168 159l184 254q-20 14 -48 14q-43 0 -75.5 -32t-50 -82
t-17.5 -100q0 -26 7 -54zM331 122q32 32 49.5 81.5t17.5 99.5q0 27 -7 55l-184 -254q20 -14 49 -14q43 0 75 32z" />
    <glyph glyph-name="ugrave" unicode="&#xf9;" 
d="M515 517l-72 -517h-117l1 74q-30 -42 -69.5 -64t-84.5 -22q-66 0 -99.5 43.5t-33.5 112.5q0 20 4 46l46 327h130l-43 -302q-4 -34 -4 -48q0 -77 67 -77q42 0 68.5 41t36.5 100l40 286h130zM257 761l84 -171h-84l-132 171h132z" />
    <glyph glyph-name="uacute" unicode="&#xfa;" 
d="M515 517l-72 -517h-117l1 74q-30 -42 -69.5 -64t-84.5 -22q-66 0 -99.5 43.5t-33.5 112.5q0 20 4 46l46 327h130l-43 -302q-4 -34 -4 -48q0 -77 67 -77q42 0 68.5 41t36.5 100l40 286h130zM349 590h-84l84 171h132z" />
    <glyph glyph-name="ucircumflex" unicode="&#xfb;" 
d="M515 517l-72 -517h-117l1 74q-30 -42 -69.5 -64t-84.5 -22q-66 0 -99.5 43.5t-33.5 112.5q0 20 4 46l46 327h130l-43 -302q-4 -34 -4 -48q0 -77 67 -77q42 0 68.5 41t36.5 100l40 286h130zM380 593l-49 100l-73 -100h-113l150 168h85l102 -168h-102z" />
    <glyph glyph-name="udieresis" unicode="&#xfc;" 
d="M515 517l-72 -517h-117l1 74q-30 -42 -69.5 -64t-84.5 -22q-66 0 -99.5 43.5t-33.5 112.5q0 20 4 46l46 327h130l-43 -302q-4 -34 -4 -48q0 -77 67 -77q42 0 68.5 41t36.5 100l40 286h130zM182 635.5q-20 20.5 -20 49.5t20 49.5t49 20.5t49.5 -20.5t20.5 -49.5
t-20.5 -49.5t-49.5 -20.5t-49 20.5zM369.5 635.5q-20.5 20.5 -20.5 49.5t20.5 49.5t49.5 20.5q28 0 48 -20.5t20 -49.5t-20 -49.5t-48 -20.5q-29 0 -49.5 20.5z" />
    <glyph glyph-name="yacute" unicode="&#xfd;" 
d="M515 517l-67 -475q-17 -124 -82.5 -188t-170.5 -64q-78 0 -124 36t-60 98l130 16q8 -58 66 -58q47 0 73.5 39t37.5 117l5 39q-29 -39 -67 -59t-81 -20q-66 0 -99.5 43.5t-33.5 112.5q0 22 3 46l45 317h130l-41 -293q-4 -23 -4 -48q0 -37 15.5 -56.5t51.5 -19.5
q40 0 65.5 36.5t36.5 90.5l41 290h130zM355 590h-84l84 171h132z" />
    <glyph glyph-name="thorn" unicode="&#xfe;" horiz-adv-x="577" 
d="M460.5 500.5q38.5 -27.5 60 -75.5t21.5 -110q0 -81 -32 -156.5t-88 -123t-124 -47.5q-48 0 -83 26t-52 70l-39 -282h-130l135 958h130l-46 -327q29 46 71 70.5t88 24.5q50 0 88.5 -27.5zM343.5 125.5q31.5 30.5 48.5 78t17 95.5q0 57 -24 89.5t-68 32.5q-40 0 -71 -30.5
t-48.5 -77t-17.5 -94.5q0 -56 25 -90t67 -34q40 0 71.5 30.5z" />
    <glyph glyph-name="ydieresis" unicode="&#xff;" 
d="M515 517l-67 -475q-17 -124 -82.5 -188t-170.5 -64q-78 0 -124 36t-60 98l130 16q8 -58 66 -58q47 0 73.5 39t37.5 117l5 39q-29 -39 -67 -59t-81 -20q-66 0 -99.5 43.5t-33.5 112.5q0 22 3 46l45 317h130l-41 -293q-4 -23 -4 -48q0 -37 15.5 -56.5t51.5 -19.5
q40 0 65.5 36.5t36.5 90.5l41 290h130zM188 635.5q-20 20.5 -20 49.5t20 49.5t49 20.5t49.5 -20.5t20.5 -49.5t-20.5 -49.5t-49.5 -20.5t-49 20.5zM375.5 635.5q-20.5 20.5 -20.5 49.5t20.5 49.5t49.5 20.5q28 0 48 -20.5t20 -49.5t-20 -49.5t-48 -20.5q-29 0 -49.5 20.5z
" />
    <glyph glyph-name="Amacron" unicode="&#x100;" horiz-adv-x="575" 
d="M391 123h-236l-45 -123h-145l317 760h153l102 -760h-135zM382 226l-37 411l-151 -411h188zM266 977h247l-11 -79h-247z" />
    <glyph glyph-name="amacron" unicode="&#x101;" horiz-adv-x="577" 
d="M555 517l-73 -517h-120l4 83q-28 -45 -69.5 -70t-89.5 -25q-50 0 -89 27.5t-61 76.5t-22 111q0 80 31.5 155t87 122.5t123.5 47.5q50 0 85 -27t51 -70l12 86h130zM331 125.5q31 30.5 48 77.5t17 95q0 55 -24.5 89t-66.5 34q-40 0 -72 -30.5t-49 -77.5t-17 -95
q0 -58 24 -90.5t69 -32.5q40 0 71 30.5zM219 734h247l-11 -79h-247z" />
    <glyph glyph-name="Abreve" unicode="&#x102;" horiz-adv-x="575" 
d="M391 123h-236l-45 -123h-145l317 760h153l102 -760h-135zM382 226l-37 411l-151 -411h188zM280 878.5q-35 45.5 -35 125.5h76q0 -49 16.5 -71t50.5 -22q62 0 78 93h76q-11 -90 -55 -130.5t-109 -40.5q-63 0 -98 45.5z" />
    <glyph glyph-name="abreve" unicode="&#x103;" horiz-adv-x="577" 
d="M555 517l-73 -517h-120l4 83q-28 -45 -69.5 -70t-89.5 -25q-50 0 -89 27.5t-61 76.5t-22 111q0 80 31.5 155t87 122.5t123.5 47.5q50 0 85 -27t51 -70l12 86h130zM331 125.5q31 30.5 48 77.5t17 95q0 55 -24.5 89t-66.5 34q-40 0 -72 -30.5t-49 -77.5t-17 -95
q0 -58 24 -90.5t69 -32.5q40 0 71 30.5zM233 635.5q-35 45.5 -35 125.5h76q0 -49 16.5 -71t50.5 -22q62 0 78 93h76q-11 -90 -55 -130.5t-109 -40.5q-63 0 -98 45.5z" />
    <glyph glyph-name="Aogonek" unicode="&#x104;" horiz-adv-x="575" 
d="M391 123h-236l-45 -123h-145l317 760h153l102 -760h-135zM382 226l-37 411l-151 -411h188zM402.5 -27q-20.5 -22 -20.5 -54q0 -23 15 -35.5t43 -12.5q18 0 38 6l-7 -75q-30 -12 -69 -12q-44 0 -72.5 28.5t-28.5 68.5q0 63 42.5 104.5t107.5 49.5l3 -35q-31 -11 -51.5 -33
z" />
    <glyph glyph-name="aogonek" unicode="&#x105;" horiz-adv-x="577" 
d="M555 517l-73 -517h-120l4 83q-28 -45 -69.5 -70t-89.5 -25q-50 0 -89 27.5t-61 76.5t-22 111q0 80 31.5 155t87 122.5t123.5 47.5q50 0 85 -27t51 -70l12 86h130zM331 125.5q31 30.5 48 77.5t17 95q0 55 -24.5 89t-66.5 34q-40 0 -72 -30.5t-49 -77.5t-17 -95
q0 -58 24 -90.5t69 -32.5q40 0 71 30.5zM392.5 -27q-20.5 -22 -20.5 -54q0 -23 15 -35.5t43 -12.5q18 0 38 6l-7 -75q-30 -12 -69 -12q-44 0 -72.5 28.5t-28.5 68.5q0 63 42.5 104.5t107.5 49.5l3 -35q-31 -11 -51.5 -33z" />
    <glyph glyph-name="Cacute" unicode="&#x106;" horiz-adv-x="721" 
d="M630 697q71 -75 86 -203l-139 -12q-9 79 -46.5 123.5t-105.5 44.5q-70 0 -123.5 -49t-82.5 -126.5t-29 -159.5q0 -95 41.5 -150t115.5 -55q66 0 120.5 47t82.5 123l133 -14q-45 -130 -136.5 -204t-214.5 -74q-87 0 -150.5 41t-96.5 113.5t-33 166.5q0 122 48.5 228.5
t137 170.5t202.5 64q119 0 190 -75zM488 833h-84l84 171h132z" />
    <glyph glyph-name="cacute" unicode="&#x107;" horiz-adv-x="541" 
d="M129 17.5q-46 29.5 -69 79.5t-23 110q0 89 34 162t98 116t149 43q86 0 137 -50.5t59 -137.5l-126 -11q-5 45 -26.5 69t-59.5 24q-41 0 -72 -31t-48 -79.5t-17 -97.5q0 -57 24.5 -88t67.5 -31q37 0 67 26.5t47 71.5l123 -11q-28 -92 -93 -143t-160 -51q-66 0 -112 29.5z
M356 590h-84l84 171h132z" />
    <glyph glyph-name="Ccircumflex" unicode="&#x108;" horiz-adv-x="721" 
d="M630 697q71 -75 86 -203l-139 -12q-9 79 -46.5 123.5t-105.5 44.5q-70 0 -123.5 -49t-82.5 -126.5t-29 -159.5q0 -95 41.5 -150t115.5 -55q66 0 120.5 47t82.5 123l133 -14q-45 -130 -136.5 -204t-214.5 -74q-87 0 -150.5 41t-96.5 113.5t-33 166.5q0 122 48.5 228.5
t137 170.5t202.5 64q119 0 190 -75zM519 836l-49 100l-73 -100h-113l150 168h85l102 -168h-102z" />
    <glyph glyph-name="ccircumflex" unicode="&#x109;" horiz-adv-x="541" 
d="M129 17.5q-46 29.5 -69 79.5t-23 110q0 89 34 162t98 116t149 43q86 0 137 -50.5t59 -137.5l-126 -11q-5 45 -26.5 69t-59.5 24q-41 0 -72 -31t-48 -79.5t-17 -97.5q0 -57 24.5 -88t67.5 -31q37 0 67 26.5t47 71.5l123 -11q-28 -92 -93 -143t-160 -51q-66 0 -112 29.5z
M387 593l-49 100l-73 -100h-113l150 168h85l102 -168h-102z" />
    <glyph glyph-name="Cdotaccent" unicode="&#x10a;" horiz-adv-x="721" 
d="M630 697q71 -75 86 -203l-139 -12q-9 79 -46.5 123.5t-105.5 44.5q-70 0 -123.5 -49t-82.5 -126.5t-29 -159.5q0 -95 41.5 -150t115.5 -55q66 0 120.5 47t82.5 123l133 -14q-45 -130 -136.5 -204t-214.5 -74q-87 0 -150.5 41t-96.5 113.5t-33 166.5q0 122 48.5 228.5
t137 170.5t202.5 64q119 0 190 -75zM399 873q-23 23 -23 55q0 34 23 57t55 23q33 0 56 -23t23 -57q0 -32 -23 -55t-56 -23q-32 0 -55 23z" />
    <glyph glyph-name="cdotaccent" unicode="&#x10b;" horiz-adv-x="541" 
d="M129 17.5q-46 29.5 -69 79.5t-23 110q0 89 34 162t98 116t149 43q86 0 137 -50.5t59 -137.5l-126 -11q-5 45 -26.5 69t-59.5 24q-41 0 -72 -31t-48 -79.5t-17 -97.5q0 -57 24.5 -88t67.5 -31q37 0 67 26.5t47 71.5l123 -11q-28 -92 -93 -143t-160 -51q-66 0 -112 29.5z
M267 630q-23 23 -23 55q0 34 23 57t55 23q33 0 56 -23t23 -57q0 -32 -23 -55t-56 -23q-32 0 -55 23z" />
    <glyph glyph-name="Ccaron" unicode="&#x10c;" horiz-adv-x="721" 
d="M630 697q71 -75 86 -203l-139 -12q-9 79 -46.5 123.5t-105.5 44.5q-70 0 -123.5 -49t-82.5 -126.5t-29 -159.5q0 -95 41.5 -150t115.5 -55q66 0 120.5 47t82.5 123l133 -14q-45 -130 -136.5 -204t-214.5 -74q-87 0 -150.5 41t-96.5 113.5t-33 166.5q0 122 48.5 228.5
t137 170.5t202.5 64q119 0 190 -75zM633 1004l-150 -168h-85l-102 168h102l49 -100l73 100h113z" />
    <glyph glyph-name="ccaron" unicode="&#x10d;" horiz-adv-x="541" 
d="M129 17.5q-46 29.5 -69 79.5t-23 110q0 89 34 162t98 116t149 43q86 0 137 -50.5t59 -137.5l-126 -11q-5 45 -26.5 69t-59.5 24q-41 0 -72 -31t-48 -79.5t-17 -97.5q0 -57 24.5 -88t67.5 -31q37 0 67 26.5t47 71.5l123 -11q-28 -92 -93 -143t-160 -51q-66 0 -112 29.5z
M501 761l-150 -168h-85l-102 168h102l49 -100l73 100h113z" />
    <glyph glyph-name="Dcaron" unicode="&#x10e;" horiz-adv-x="676" 
d="M523 720.5q65 -39.5 100.5 -110t35.5 -159.5q0 -120 -49.5 -223.5t-139.5 -165.5t-206 -62h-237l107 760h237q87 0 152 -39.5zM403.5 160.5q56.5 48.5 87 125.5t30.5 160q0 94 -43.5 148t-122.5 54h-103l-75 -536h97q73 0 129.5 48.5zM560 1004l-150 -168h-85l-102 168
h102l49 -100l73 100h113z" />
    <glyph glyph-name="dcaron" unicode="&#x10f;" horiz-adv-x="741" 
d="M460 760h130l-107 -760h-121l4 83q-28 -44 -69.5 -69.5t-89.5 -25.5q-50 0 -89 27.5t-61 76.5t-22 111q0 80 31.5 155t87 122.5t122.5 47.5q50 0 85.5 -27t51.5 -71zM797 760l-84 -171h-76l31 171h129zM331 125.5q31 30.5 48 77.5t17 95q0 55 -24.5 89t-66.5 34
q-41 0 -72.5 -30.5t-48.5 -77.5t-17 -96q0 -57 24.5 -89.5t68.5 -32.5q40 0 71 30.5z" />
    <glyph glyph-name="Dcroat" unicode="&#x110;" horiz-adv-x="707" 
d="M554 720.5q65 -39.5 100.5 -110t35.5 -159.5q0 -120 -49.5 -223.5t-139.5 -165.5t-206 -62h-237l49 347h-86l14 99h86l44 314h237q87 0 152 -39.5zM434.5 160.5q56.5 48.5 87 125.5t30.5 160q0 94 -43.5 148t-122.5 54h-103l-28 -202h152l-14 -99h-152l-33 -235h97
q73 0 129.5 48.5z" />
    <glyph glyph-name="dcroat" unicode="&#x111;" horiz-adv-x="591" 
d="M640 603h-72l-85 -603h-121l4 83q-28 -44 -69.5 -69.5t-89.5 -25.5q-50 0 -89 27.5t-61 76.5t-22 111q0 80 31.5 155t87 122.5t122.5 47.5q50 0 85.5 -27t51.5 -71l25 173h-185l12 83h184l11 74h130l-10 -74h72zM331 125.5q31 30.5 48 77.5t17 95q0 55 -24.5 89t-66.5 34
q-41 0 -72.5 -30.5t-48.5 -77.5t-17 -96q0 -57 24.5 -89.5t68.5 -32.5q40 0 71 30.5z" />
    <glyph glyph-name="Emacron" unicode="&#x112;" horiz-adv-x="495" 
d="M252 648l-28 -198h240l-15 -109h-240l-32 -229h249l-16 -112h-383l107 760h381l-16 -112h-247zM232 977h247l-11 -79h-247z" />
    <glyph glyph-name="emacron" unicode="&#x113;" horiz-adv-x="551" 
d="M166 213q-2 -60 21.5 -94t68.5 -34q34 0 61.5 21.5t43.5 56.5l128 -12q-35 -78 -98 -120.5t-152 -42.5q-62 0 -108 29t-70.5 78t-24.5 108q0 91 33.5 165t96.5 117t147 43q97 0 149.5 -61t52.5 -161q0 -17 -3 -44.5t-7 -43.5h-338zM223 392.5q-32 -37.5 -46 -96.5h211
q1 8 1 23q0 54 -22 82.5t-65 28.5q-47 0 -79 -37.5zM217 734h247l-11 -79h-247z" />
    <glyph glyph-name="Ebreve" unicode="&#x114;" horiz-adv-x="495" 
d="M252 648l-28 -198h240l-15 -109h-240l-32 -229h249l-16 -112h-383l107 760h381l-16 -112h-247zM246 878.5q-35 45.5 -35 125.5h76q0 -49 16.5 -71t50.5 -22q62 0 78 93h76q-11 -90 -55 -130.5t-109 -40.5q-63 0 -98 45.5z" />
    <glyph glyph-name="ebreve" unicode="&#x115;" horiz-adv-x="551" 
d="M166 213q-2 -60 21.5 -94t68.5 -34q34 0 61.5 21.5t43.5 56.5l128 -12q-35 -78 -98 -120.5t-152 -42.5q-62 0 -108 29t-70.5 78t-24.5 108q0 91 33.5 165t96.5 117t147 43q97 0 149.5 -61t52.5 -161q0 -17 -3 -44.5t-7 -43.5h-338zM223 392.5q-32 -37.5 -46 -96.5h211
q1 8 1 23q0 54 -22 82.5t-65 28.5q-47 0 -79 -37.5zM231 635.5q-35 45.5 -35 125.5h76q0 -49 16.5 -71t50.5 -22q62 0 78 93h76q-11 -90 -55 -130.5t-109 -40.5q-63 0 -98 45.5z" />
    <glyph glyph-name="Edotaccent" unicode="&#x116;" horiz-adv-x="495" 
d="M252 648l-28 -198h240l-15 -109h-240l-32 -229h249l-16 -112h-383l107 760h381l-16 -112h-247zM282 873q-23 23 -23 55q0 34 23 57t55 23q33 0 56 -23t23 -57q0 -32 -23 -55t-56 -23q-32 0 -55 23z" />
    <glyph glyph-name="edotaccent" unicode="&#x117;" horiz-adv-x="551" 
d="M166 213q-2 -60 21.5 -94t68.5 -34q34 0 61.5 21.5t43.5 56.5l128 -12q-35 -78 -98 -120.5t-152 -42.5q-62 0 -108 29t-70.5 78t-24.5 108q0 91 33.5 165t96.5 117t147 43q97 0 149.5 -61t52.5 -161q0 -17 -3 -44.5t-7 -43.5h-338zM223 392.5q-32 -37.5 -46 -96.5h211
q1 8 1 23q0 54 -22 82.5t-65 28.5q-47 0 -79 -37.5zM267 630q-23 23 -23 55q0 34 23 57t55 23q33 0 56 -23t23 -57q0 -32 -23 -55t-56 -23q-32 0 -55 23z" />
    <glyph glyph-name="Eogonek" unicode="&#x118;" horiz-adv-x="495" 
d="M252 648l-28 -198h240l-15 -109h-240l-32 -229h249l-16 -112h-383l107 760h381l-16 -112h-247zM319.5 -27q-20.5 -22 -20.5 -54q0 -23 15 -35.5t43 -12.5q18 0 38 6l-7 -75q-30 -12 -69 -12q-44 0 -72.5 28.5t-28.5 68.5q0 63 42.5 104.5t107.5 49.5l3 -35
q-31 -11 -51.5 -33z" />
    <glyph glyph-name="eogonek" unicode="&#x119;" horiz-adv-x="551" 
d="M166 213q-2 -60 21.5 -94t68.5 -34q34 0 61.5 21.5t43.5 56.5l128 -12q-35 -78 -98 -120.5t-152 -42.5q-62 0 -108 29t-70.5 78t-24.5 108q0 91 33.5 165t96.5 117t147 43q97 0 149.5 -61t52.5 -161q0 -17 -3 -44.5t-7 -43.5h-338zM223 392.5q-32 -37.5 -46 -96.5h211
q1 8 1 23q0 54 -22 82.5t-65 28.5q-47 0 -79 -37.5zM288.5 -27q-20.5 -22 -20.5 -54q0 -23 15 -35.5t43 -12.5q18 0 38 6l-7 -75q-30 -12 -69 -12q-44 0 -72.5 28.5t-28.5 68.5q0 63 42.5 104.5t107.5 49.5l3 -35q-31 -11 -51.5 -33z" />
    <glyph glyph-name="Ecaron" unicode="&#x11a;" horiz-adv-x="495" 
d="M252 648l-28 -198h240l-15 -109h-240l-32 -229h249l-16 -112h-383l107 760h381l-16 -112h-247zM516 1004l-150 -168h-85l-102 168h102l49 -100l73 100h113z" />
    <glyph glyph-name="ecaron" unicode="&#x11b;" horiz-adv-x="551" 
d="M166 213q-2 -60 21.5 -94t68.5 -34q34 0 61.5 21.5t43.5 56.5l128 -12q-35 -78 -98 -120.5t-152 -42.5q-62 0 -108 29t-70.5 78t-24.5 108q0 91 33.5 165t96.5 117t147 43q97 0 149.5 -61t52.5 -161q0 -17 -3 -44.5t-7 -43.5h-338zM223 392.5q-32 -37.5 -46 -96.5h211
q1 8 1 23q0 54 -22 82.5t-65 28.5q-47 0 -79 -37.5zM501 761l-150 -168h-85l-102 168h102l49 -100l73 100h113z" />
    <glyph glyph-name="Gcircumflex" unicode="&#x11c;" horiz-adv-x="713" 
d="M365 414h312l-45 -321q-58 -47 -131.5 -76t-158.5 -29q-93 0 -158 42t-98.5 115t-33.5 164q0 122 48.5 228.5t135.5 170.5t197 64q111 0 177.5 -65t89.5 -165l-142 -12q-10 49 -46 84.5t-96 35.5q-66 0 -117.5 -50t-80 -128.5t-28.5 -159.5q0 -98 43 -152.5t127 -54.5
q82 0 155 50l21 157h-186zM510 836l-49 100l-73 -100h-113l150 168h85l102 -168h-102z" />
    <glyph glyph-name="gcircumflex" unicode="&#x11d;" horiz-adv-x="578" 
d="M555 517l-65 -469q-17 -123 -86 -190.5t-182 -67.5q-82 0 -131.5 36.5t-63.5 97.5l130 16q16 -58 77 -58q50 0 82.5 40.5t41.5 113.5l6 48q-28 -43 -68.5 -66.5t-87.5 -23.5q-50 0 -89.5 27.5t-61.5 75.5t-22 109q0 79 31.5 153.5t87 121.5t122.5 47q51 0 86.5 -27.5
t51.5 -72.5l21 89h120zM331 126.5q31 30.5 48 77.5t17 94q0 55 -24.5 89t-66.5 34q-41 0 -72.5 -29.5t-48.5 -76.5t-17 -96q0 -58 24 -90.5t69 -32.5q40 0 71 30.5zM393 593l-49 100l-73 -100h-113l150 168h85l102 -168h-102z" />
    <glyph glyph-name="Gbreve" unicode="&#x11e;" horiz-adv-x="713" 
d="M365 414h312l-45 -321q-58 -47 -131.5 -76t-158.5 -29q-93 0 -158 42t-98.5 115t-33.5 164q0 122 48.5 228.5t135.5 170.5t197 64q111 0 177.5 -65t89.5 -165l-142 -12q-10 49 -46 84.5t-96 35.5q-66 0 -117.5 -50t-80 -128.5t-28.5 -159.5q0 -98 43 -152.5t127 -54.5
q82 0 155 50l21 157h-186zM354 878.5q-35 45.5 -35 125.5h76q0 -49 16.5 -71t50.5 -22q62 0 78 93h76q-11 -90 -55 -130.5t-109 -40.5q-63 0 -98 45.5z" />
    <glyph glyph-name="gbreve" unicode="&#x11f;" horiz-adv-x="578" 
d="M555 517l-65 -469q-17 -123 -86 -190.5t-182 -67.5q-82 0 -131.5 36.5t-63.5 97.5l130 16q16 -58 77 -58q50 0 82.5 40.5t41.5 113.5l6 48q-28 -43 -68.5 -66.5t-87.5 -23.5q-50 0 -89.5 27.5t-61.5 75.5t-22 109q0 79 31.5 153.5t87 121.5t122.5 47q51 0 86.5 -27.5
t51.5 -72.5l21 89h120zM331 126.5q31 30.5 48 77.5t17 94q0 55 -24.5 89t-66.5 34q-41 0 -72.5 -29.5t-48.5 -76.5t-17 -96q0 -58 24 -90.5t69 -32.5q40 0 71 30.5zM237 635.5q-35 45.5 -35 125.5h76q0 -49 16.5 -71t50.5 -22q62 0 78 93h76q-11 -90 -55 -130.5t-109 -40.5
q-63 0 -98 45.5z" />
    <glyph glyph-name="Gdotaccent" unicode="&#x120;" horiz-adv-x="713" 
d="M365 414h312l-45 -321q-58 -47 -131.5 -76t-158.5 -29q-93 0 -158 42t-98.5 115t-33.5 164q0 122 48.5 228.5t135.5 170.5t197 64q111 0 177.5 -65t89.5 -165l-142 -12q-10 49 -46 84.5t-96 35.5q-66 0 -117.5 -50t-80 -128.5t-28.5 -159.5q0 -98 43 -152.5t127 -54.5
q82 0 155 50l21 157h-186zM390 873q-23 23 -23 55q0 34 23 57t55 23q33 0 56 -23t23 -57q0 -32 -23 -55t-56 -23q-32 0 -55 23z" />
    <glyph glyph-name="gdotaccent" unicode="&#x121;" horiz-adv-x="578" 
d="M555 517l-65 -469q-17 -123 -86 -190.5t-182 -67.5q-82 0 -131.5 36.5t-63.5 97.5l130 16q16 -58 77 -58q50 0 82.5 40.5t41.5 113.5l6 48q-28 -43 -68.5 -66.5t-87.5 -23.5q-50 0 -89.5 27.5t-61.5 75.5t-22 109q0 79 31.5 153.5t87 121.5t122.5 47q51 0 86.5 -27.5
t51.5 -72.5l21 89h120zM331 126.5q31 30.5 48 77.5t17 94q0 55 -24.5 89t-66.5 34q-41 0 -72.5 -29.5t-48.5 -76.5t-17 -96q0 -58 24 -90.5t69 -32.5q40 0 71 30.5zM273 630q-23 23 -23 55q0 34 23 57t55 23q33 0 56 -23t23 -57q0 -32 -23 -55t-56 -23q-32 0 -55 23z" />
    <glyph glyph-name="Gcommaaccent" unicode="&#x122;" horiz-adv-x="713" 
d="M365 414h312l-45 -321q-58 -47 -131.5 -76t-158.5 -29q-93 0 -158 42t-98.5 115t-33.5 164q0 122 48.5 228.5t135.5 170.5t197 64q111 0 177.5 -65t89.5 -165l-142 -12q-10 49 -46 84.5t-96 35.5q-66 0 -117.5 -50t-80 -128.5t-28.5 -159.5q0 -98 43 -152.5t127 -54.5
q82 0 155 50l21 157h-186zM295 -220h-84l69 153h132z" />
    <glyph glyph-name="gcommaaccent" unicode="&#x123;" horiz-adv-x="578" 
d="M555 517l-65 -469q-17 -123 -86 -190.5t-182 -67.5q-82 0 -131.5 36.5t-63.5 97.5l130 16q16 -58 77 -58q50 0 82.5 40.5t41.5 113.5l6 48q-28 -43 -68.5 -66.5t-87.5 -23.5q-50 0 -89.5 27.5t-61.5 75.5t-22 109q0 79 31.5 153.5t87 121.5t122.5 47q51 0 86.5 -27.5
t51.5 -72.5l21 89h120zM331 126.5q31 30.5 48 77.5t17 94q0 55 -24.5 89t-66.5 34q-41 0 -72.5 -29.5t-48.5 -76.5t-17 -96q0 -58 24 -90.5t69 -32.5q40 0 71 30.5zM376 756h84l-69 -153h-132z" />
    <glyph glyph-name="Hcircumflex" unicode="&#x124;" horiz-adv-x="624" 
d="M632 760l-107 -760h-134l48 338h-230l-48 -338h-134l107 760h134l-44 -310h230l44 310h134zM460 836l-49 100l-73 -100h-113l150 168h85l102 -168h-102z" />
    <glyph glyph-name="hcircumflex" unicode="&#x125;" horiz-adv-x="544" 
d="M470 485q33 -43 33 -113q0 -23 -3 -46l-46 -326h-130l42 302q4 34 4 48q0 37 -15.5 57t-51.5 20q-44 0 -71.5 -39.5t-38.5 -96.5l-41 -291h-130l107 760h130l-44 -314q31 40 70.5 61t84.5 21q67 0 100 -43zM435 836l-49 100l-73 -100h-113l150 168h85l102 -168h-102z" />
    <glyph glyph-name="Hbar" unicode="&#x126;" horiz-adv-x="643" 
d="M674 548h-62l-77 -548h-134l48 338h-230l-48 -338h-134l77 548h-65l14 99h65l16 113h134l-16 -113h230l16 113h134l-16 -113h63zM478 548h-230l-14 -98h230z" />
    <glyph glyph-name="hbar" unicode="&#x127;" horiz-adv-x="575" 
d="M502 485q33 -43 33 -113q0 -23 -3 -46l-46 -326h-130l42 302q4 34 4 48q0 37 -15.5 57t-51.5 20q-44 0 -71.5 -39.5t-38.5 -96.5l-41 -291h-130l85 603h-90l12 83h90l10 74h130l-10 -74h166l-12 -83h-166l-22 -157q31 40 70.5 61t84.5 21q67 0 100 -43z" />
    <glyph glyph-name="Itilde" unicode="&#x128;" horiz-adv-x="260" 
d="M134 760h134l-107 -760h-134zM236.5 876.5q-16.5 8.5 -34.5 23.5q-26 23 -47 23q-14 0 -28 -10t-26 -29l-51 44q23 39 54.5 61t70.5 22q42 0 77 -33q24 -22 46 -22q26 0 54 39l53 -39q-24 -41 -57 -64.5t-73 -23.5q-22 0 -38.5 8.5z" />
    <glyph glyph-name="itilde" unicode="&#x129;" horiz-adv-x="252" 
d="M97 517h130l-72 -517h-130zM195.5 633.5q-16.5 8.5 -34.5 23.5q-26 23 -47 23q-14 0 -28 -10t-26 -29l-51 44q23 39 54.5 61t70.5 22q42 0 77 -33q24 -22 46 -22q26 0 54 39l53 -39q-24 -41 -57 -64.5t-73 -23.5q-22 0 -38.5 8.5z" />
    <glyph glyph-name="Imacron" unicode="&#x12a;" horiz-adv-x="260" 
d="M134 760h134l-107 -760h-134zM109 977h247l-11 -79h-247z" />
    <glyph glyph-name="imacron" unicode="&#x12b;" horiz-adv-x="252" 
d="M97 517h130l-72 -517h-130zM68 734h247l-11 -79h-247z" />
    <glyph glyph-name="Ibreve" unicode="&#x12c;" horiz-adv-x="260" 
d="M134 760h134l-107 -760h-134zM123 878.5q-35 45.5 -35 125.5h76q0 -49 16.5 -71t50.5 -22q62 0 78 93h76q-11 -90 -55 -130.5t-109 -40.5q-63 0 -98 45.5z" />
    <glyph glyph-name="ibreve" unicode="&#x12d;" horiz-adv-x="252" 
d="M97 517h130l-72 -517h-130zM82 635.5q-35 45.5 -35 125.5h76q0 -49 16.5 -71t50.5 -22q62 0 78 93h76q-11 -90 -55 -130.5t-109 -40.5q-63 0 -98 45.5z" />
    <glyph glyph-name="Iogonek" unicode="&#x12e;" horiz-adv-x="260" 
d="M134 760h134l-107 -760h-134zM43.5 -27q-20.5 -22 -20.5 -54q0 -23 15 -35.5t43 -12.5q18 0 38 6l-7 -75q-30 -12 -69 -12q-44 0 -72.5 28.5t-28.5 68.5q0 63 42.5 104.5t107.5 49.5l3 -35q-31 -11 -51.5 -33z" />
    <glyph glyph-name="iogonek" unicode="&#x12f;" horiz-adv-x="252" 
d="M97 517h130l-72 -517h-130zM118 630q-23 23 -23 55q0 34 23 57t55 23q33 0 56 -23t23 -57q0 -32 -23 -55t-56 -23q-32 0 -55 23zM37.5 -27q-20.5 -22 -20.5 -54q0 -23 15 -35.5t43 -12.5q18 0 38 6l-7 -75q-30 -12 -69 -12q-44 0 -72.5 28.5t-28.5 68.5q0 63 42.5 104.5
t107.5 49.5l3 -35q-31 -11 -51.5 -33z" />
    <glyph glyph-name="Idotaccent" unicode="&#x130;" horiz-adv-x="260" 
d="M134 760h134l-107 -760h-134zM159 873q-23 23 -23 55q0 34 23 57t55 23q33 0 56 -23t23 -57q0 -32 -23 -55t-56 -23q-32 0 -55 23z" />
    <glyph glyph-name="dotlessi" unicode="&#x131;" horiz-adv-x="252" 
d="M97 517h130l-72 -517h-130z" />
    <glyph glyph-name="IJ" unicode="&#x132;" horiz-adv-x="600" 
d="M207.5 1.5q-38.5 13.5 -63.5 33.5l58 100q17 -13 39.5 -21t46.5 -8q42 0 75.5 38t43.5 109l71 508h134l-71 -507q-18 -130 -86.5 -198t-166.5 -68q-42 0 -80.5 13.5zM134 760h134l-71 -502h-133z" />
    <glyph glyph-name="ij" unicode="&#x133;" horiz-adv-x="515" 
d="M132 627q-24 24 -24 58t24 58.5t58 24.5t58 -24.5t24 -58.5t-24 -58t-58 -24t-58 24zM101 517h130l-72 -517h-130zM388 627q-24 24 -24 58q0 35 24 59t58 24t57.5 -24t23.5 -59q0 -34 -23.5 -58t-57.5 -24t-58 24zM182.5 -205q-26.5 5 -46.5 12l22 99q28 -10 56 -10
q32 0 47 20t23 69l74 532h129l-76 -548q-14 -97 -58 -138t-120 -41q-24 0 -50.5 5z" />
    <glyph glyph-name="Jcircumflex" unicode="&#x134;" horiz-adv-x="552" 
d="M123.5 16q-44.5 28 -70 82t-25.5 129l134 9v-21q0 -53 22 -79t58 -26q43 0 75 36t42 108l72 506h134l-71 -501q-20 -137 -91.5 -204t-178.5 -67q-56 0 -100.5 28zM555 836l-28 113l-58 -113h-105l126 168h84l79 -168h-98z" />
    <glyph glyph-name="jcircumflex" unicode="&#x135;" horiz-adv-x="252" 
d="M-77.5 -205q-26.5 5 -46.5 12l22 99q28 -10 56 -10q32 0 47 20t23 69l74 532h129l-76 -548q-14 -97 -58 -138t-120 -41q-24 0 -50.5 5zM219 593l-28 113l-58 -113h-105l126 168h84l79 -168h-98z" />
    <glyph glyph-name="Kcommaaccent" unicode="&#x136;" horiz-adv-x="573" 
d="M372 437l162 -437h-131l-113 334l-101 -126l-29 -208h-133l107 760h133l-49 -351l261 351h150zM204 -220h-84l69 153h132z" />
    <glyph glyph-name="kcommaaccent" unicode="&#x137;" horiz-adv-x="486" 
d="M314 310l138 -310h-128l-89 226l-62 -64l-23 -162h-128l107 760h128l-60 -429l166 186h149zM159 -220h-84l69 153h132z" />
    <glyph glyph-name="kgreenlandic" unicode="&#x138;" horiz-adv-x="484" 
d="M401 403q-17 -10 -39 -33l-45 -49l135 -321h-127l-87 236l-64 -68l-23 -168h-129l73 517h128l-25 -181l99 112q34 38 70 53.5t82 15.5h32l-14 -104h-25q-24 0 -41 -10z" />
    <glyph glyph-name="Lacute" unicode="&#x139;" horiz-adv-x="446" 
d="M406 112l-15 -112h-364l107 760h134l-91 -648h229zM254 833h-84l84 171h132z" />
    <glyph glyph-name="lacute" unicode="&#x13a;" horiz-adv-x="288" 
d="M43 122q0 30 4 58l82 580h129l-81 -579q-3 -19 -3 -34q0 -30 13.5 -41.5t44.5 -11.5h10l-7 -103q-16 -3 -41 -3q-151 0 -151 134zM240 833h-84l84 171h132z" />
    <glyph glyph-name="Lcommaaccent" unicode="&#x13b;" horiz-adv-x="446" 
d="M406 112l-15 -112h-364l107 760h134l-91 -648h229zM154 -220h-84l69 153h132z" />
    <glyph glyph-name="lcommaaccent" unicode="&#x13c;" horiz-adv-x="288" 
d="M43 122q0 30 4 58l82 580h129l-81 -579q-3 -19 -3 -34q0 -30 13.5 -41.5t44.5 -11.5h10l-7 -103q-16 -3 -41 -3q-151 0 -151 134zM68 -220h-84l69 153h132z" />
    <glyph glyph-name="Lcaron" unicode="&#x13d;" horiz-adv-x="470" 
d="M177 112h229l-15 -112h-364l107 760h134zM497 760l-86 -190h-72l34 190h124z" />
    <glyph glyph-name="lcaron" unicode="&#x13e;" horiz-adv-x="403" 
d="M43 122q0 30 4 58l82 580h129l-81 -579q-3 -19 -3 -34q0 -30 13.5 -41.5t44.5 -11.5h10l-7 -103q-16 -3 -41 -3q-151 0 -151 134zM376 589h-72l31 171h123z" />
    <glyph glyph-name="Ldot" unicode="&#x13f;" horiz-adv-x="487" 
d="M406 112l-15 -112h-364l107 760h134l-91 -648h229zM359 339q-23 23 -23 55t23 54.5t54 22.5q32 0 55 -22.5t23 -54.5t-23 -55t-55 -23q-31 0 -54 23z" />
    <glyph glyph-name="ldot" unicode="&#x140;" horiz-adv-x="418" 
d="M43 122q0 30 4 58l82 580h129l-81 -579q-3 -19 -3 -34q0 -30 13.5 -41.5t44.5 -11.5h10l-7 -103q-16 -3 -41 -3q-151 0 -151 134zM305 339q-23 23 -23 55t23 54.5t54 22.5q32 0 55 -22.5t23 -54.5t-23 -55t-55 -23q-31 0 -54 23z" />
    <glyph glyph-name="Lslash" unicode="&#x141;" horiz-adv-x="500" 
d="M460 112l-15 -112h-364l41 294l-72 -37l-31 88l119 60l50 355h134l-40 -282l122 62l31 -88l-168 -85l-36 -255h229z" />
    <glyph glyph-name="lslash" unicode="&#x142;" horiz-adv-x="383" 
d="M242.5 105.5q13.5 -11.5 44.5 -11.5h10l-7 -103q-16 -3 -41 -3q-151 0 -151 134q0 30 4 58l16 115l-71 -35l-27 81l113 56l51 363h129l-41 -295l100 50l28 -80l-142 -71l-26 -183q-3 -19 -3 -34q0 -30 13.5 -41.5z" />
    <glyph glyph-name="Nacute" unicode="&#x143;" horiz-adv-x="629" 
d="M636 760l-107 -760h-130l-164 556l-78 -556h-130l107 760h130l165 -550l77 550h130zM431 833h-84l84 171h132z" />
    <glyph glyph-name="nacute" unicode="&#x144;" horiz-adv-x="544" 
d="M470.5 485q33.5 -43 33.5 -113q0 -26 -4 -46l-46 -326h-130l43 302q4 34 4 48q0 77 -67 77q-44 0 -71.5 -38.5t-39.5 -96.5l-41 -292h-130l73 517h116l1 -75q31 42 71.5 64t87.5 22q66 0 99.5 -43zM362 590h-84l84 171h132z" />
    <glyph glyph-name="Ncommaaccent" unicode="&#x145;" horiz-adv-x="629" 
d="M636 760l-107 -760h-130l-164 556l-78 -556h-130l107 760h130l165 -550l77 550h130zM230 -220h-84l69 153h132z" />
    <glyph glyph-name="ncommaaccent" unicode="&#x146;" horiz-adv-x="544" 
d="M470.5 485q33.5 -43 33.5 -113q0 -26 -4 -46l-46 -326h-130l43 302q4 34 4 48q0 77 -67 77q-44 0 -71.5 -38.5t-39.5 -96.5l-41 -292h-130l73 517h116l1 -75q31 42 71.5 64t87.5 22q66 0 99.5 -43zM186 -220h-84l69 153h132z" />
    <glyph glyph-name="Ncaron" unicode="&#x147;" horiz-adv-x="629" 
d="M636 760l-107 -760h-130l-164 556l-78 -556h-130l107 760h130l165 -550l77 550h130zM576 1004l-150 -168h-85l-102 168h102l49 -100l73 100h113z" />
    <glyph glyph-name="ncaron" unicode="&#x148;" horiz-adv-x="544" 
d="M470.5 485q33.5 -43 33.5 -113q0 -26 -4 -46l-46 -326h-130l43 302q4 34 4 48q0 77 -67 77q-44 0 -71.5 -38.5t-39.5 -96.5l-41 -292h-130l73 517h116l1 -75q31 42 71.5 64t87.5 22q66 0 99.5 -43zM507 761l-150 -168h-85l-102 168h102l49 -100l73 100h113z" />
    <glyph glyph-name="napostrophe" unicode="&#x149;" horiz-adv-x="602" 
d="M130 589h-77l84 171h128zM528.5 485q33.5 -43 33.5 -113q0 -26 -4 -46l-46 -326h-130l43 302q4 34 4 48q0 77 -67 77q-44 0 -71.5 -38.5t-39.5 -96.5l-41 -292h-130l73 517h116l1 -75q31 42 71.5 64t87.5 22q66 0 99.5 -43z" />
    <glyph glyph-name="Eng" unicode="&#x14a;" horiz-adv-x="628" 
d="M636 760l-99 -698q-38 -272 -269 -272q-30 0 -50 4l24 108q13 -3 36 -3q45 0 79.5 34.5t45.5 103.5l-167 524l-79 -561h-130l107 760h130l168 -519l74 519h130z" />
    <glyph glyph-name="eng" unicode="&#x14b;" horiz-adv-x="544" 
d="M500 326l-33 -233l-17 -124q-13 -95 -57.5 -137t-120.5 -42q-24 0 -50.5 5t-45.5 12l21 99q28 -10 56 -10q32 0 47.5 20.5t21.5 68.5l2 15l4 25l25 183h1l13 94q4 34 4 48q0 77 -67 77q-44 0 -71.5 -38.5t-39.5 -96.5l-41 -292h-130l73 517h116l1 -75q31 42 71.5 64
t87.5 22q66 0 99.5 -43t33.5 -113q0 -26 -4 -46z" />
    <glyph glyph-name="Omacron" unicode="&#x14c;" horiz-adv-x="737" 
d="M181.5 29.5q-63.5 41.5 -96.5 114.5t-33 165q0 122 48.5 228.5t137 170.5t202.5 64q86 0 149.5 -41.5t96.5 -114.5t33 -165q0 -123 -49 -229.5t-137.5 -170t-201.5 -63.5q-86 0 -149.5 41.5zM469 158.5q53 48.5 82.5 126.5t29.5 161q0 95 -41 149.5t-115 54.5
q-70 0 -123.5 -49t-82.5 -126.5t-29 -159.5q0 -95 41.5 -150t115.5 -55q69 0 122 48.5zM346 977h247l-11 -79h-247z" />
    <glyph glyph-name="omacron" unicode="&#x14d;" horiz-adv-x="560" 
d="M129 17.5q-46 29.5 -69 79.5t-23 110q0 89 34 162t98 116t149 43q66 0 112.5 -29.5t69.5 -79t23 -109.5q0 -89 -34 -162.5t-98 -116.5t-150 -43q-66 0 -112 29.5zM328 126q31 31 48 79t17 97q0 57 -24 88.5t-66 31.5q-41 0 -72 -31t-48 -79.5t-17 -97.5q0 -56 24.5 -87.5
t66.5 -31.5q40 0 71 31zM227 734h247l-11 -79h-247z" />
    <glyph glyph-name="Obreve" unicode="&#x14e;" horiz-adv-x="737" 
d="M181.5 29.5q-63.5 41.5 -96.5 114.5t-33 165q0 122 48.5 228.5t137 170.5t202.5 64q86 0 149.5 -41.5t96.5 -114.5t33 -165q0 -123 -49 -229.5t-137.5 -170t-201.5 -63.5q-86 0 -149.5 41.5zM469 158.5q53 48.5 82.5 126.5t29.5 161q0 95 -41 149.5t-115 54.5
q-70 0 -123.5 -49t-82.5 -126.5t-29 -159.5q0 -95 41.5 -150t115.5 -55q69 0 122 48.5zM360 878.5q-35 45.5 -35 125.5h76q0 -49 16.5 -71t50.5 -22q62 0 78 93h76q-11 -90 -55 -130.5t-109 -40.5q-63 0 -98 45.5z" />
    <glyph glyph-name="obreve" unicode="&#x14f;" horiz-adv-x="560" 
d="M129 17.5q-46 29.5 -69 79.5t-23 110q0 89 34 162t98 116t149 43q66 0 112.5 -29.5t69.5 -79t23 -109.5q0 -89 -34 -162.5t-98 -116.5t-150 -43q-66 0 -112 29.5zM328 126q31 31 48 79t17 97q0 57 -24 88.5t-66 31.5q-41 0 -72 -31t-48 -79.5t-17 -97.5q0 -56 24.5 -87.5
t66.5 -31.5q40 0 71 31zM241 635.5q-35 45.5 -35 125.5h76q0 -49 16.5 -71t50.5 -22q62 0 78 93h76q-11 -90 -55 -130.5t-109 -40.5q-63 0 -98 45.5z" />
    <glyph glyph-name="Ohungarumlaut" unicode="&#x150;" horiz-adv-x="737" 
d="M181.5 29.5q-63.5 41.5 -96.5 114.5t-33 165q0 122 48.5 228.5t137 170.5t202.5 64q86 0 149.5 -41.5t96.5 -114.5t33 -165q0 -123 -49 -229.5t-137.5 -170t-201.5 -63.5q-86 0 -149.5 41.5zM469 158.5q53 48.5 82.5 126.5t29.5 161q0 95 -41 149.5t-115 54.5
q-70 0 -123.5 -49t-82.5 -126.5t-29 -159.5q0 -95 41.5 -150t115.5 -55q69 0 122 48.5zM392 833h-84l84 171h132zM577 833h-84l84 171h132z" />
    <glyph glyph-name="ohungarumlaut" unicode="&#x151;" horiz-adv-x="560" 
d="M129 17.5q-46 29.5 -69 79.5t-23 110q0 89 34 162t98 116t149 43q66 0 112.5 -29.5t69.5 -79t23 -109.5q0 -89 -34 -162.5t-98 -116.5t-150 -43q-66 0 -112 29.5zM328 126q31 31 48 79t17 97q0 57 -24 88.5t-66 31.5q-41 0 -72 -31t-48 -79.5t-17 -97.5q0 -56 24.5 -87.5
t66.5 -31.5q40 0 71 31zM273 590h-84l84 171h132zM458 590h-84l84 171h132z" />
    <glyph glyph-name="OE" unicode="&#x152;" horiz-adv-x="992" 
d="M181.5 29.5q-63.5 41.5 -96.5 114.5t-33 165q0 122 48.5 228.5t137 170.5t202.5 64q86 0 149.5 -41.5t96.5 -114.5t33 -165q0 -123 -49 -229.5t-137.5 -170t-201.5 -63.5q-86 0 -149.5 41.5zM469 158.5q53 48.5 82.5 126.5t29.5 161q0 95 -41 149.5t-115 54.5
q-70 0 -123.5 -49t-82.5 -126.5t-29 -159.5q0 -95 41.5 -150t115.5 -55q69 0 122 48.5zM748 648l-28 -198h240l-15 -109h-240l-32 -229h249l-16 -112h-383l107 760h381l-16 -112h-247z" />
    <glyph glyph-name="oe" unicode="&#x153;" horiz-adv-x="900" 
d="M129 17.5q-46 29.5 -69 79.5t-23 110q0 89 34 162t98 116t149 43q66 0 112.5 -29.5t69.5 -79t23 -109.5q0 -89 -34 -162.5t-98 -116.5t-150 -43q-66 0 -112 29.5zM328 126q31 31 48 79t17 97q0 57 -24 88.5t-66 31.5q-41 0 -72 -31t-48 -79.5t-17 -97.5q0 -56 24.5 -87.5
t66.5 -31.5q40 0 71 31zM515 213q-2 -60 21.5 -94t68.5 -34q34 0 61.5 21.5t43.5 56.5l128 -12q-35 -78 -98 -120.5t-152 -42.5q-62 0 -108 29t-70.5 78t-24.5 108q0 91 33.5 165t96.5 117t147 43q97 0 149.5 -61t52.5 -161q0 -17 -3 -44.5t-7 -43.5h-338zM572 392.5
q-32 -37.5 -46 -96.5h211q1 8 1 23q0 54 -22 82.5t-65 28.5q-47 0 -79 -37.5z" />
    <glyph glyph-name="Racute" unicode="&#x154;" horiz-adv-x="584" 
d="M542 372q-39 -76 -112 -113l87 -259h-135l-69 229q-7 -1 -21 -1h-101l-32 -228h-132l107 760h228q70 0 119.5 -27.5t74.5 -75t25 -106.5q0 -103 -39 -179zM403 393q44 56 44 142q0 58 -28 87t-89 29h-79l-45 -314h77q76 0 120 56zM384 833h-84l84 171h132z" />
    <glyph glyph-name="racute" unicode="&#x155;" horiz-adv-x="366" 
d="M388 525l-25 -125q-26 7 -50 7q-51 0 -84.5 -48t-43.5 -123l-33 -236h-130l73 517h114l1 -88q29 49 66.5 74t77.5 25q22 0 34 -3zM271 590h-84l84 171h132z" />
    <glyph glyph-name="Rcommaaccent" unicode="&#x156;" horiz-adv-x="584" 
d="M542 372q-39 -76 -112 -113l87 -259h-135l-69 229q-7 -1 -21 -1h-101l-32 -228h-132l107 760h228q70 0 119.5 -27.5t74.5 -75t25 -106.5q0 -103 -39 -179zM403 393q44 56 44 142q0 58 -28 87t-89 29h-79l-45 -314h77q76 0 120 56zM200 -220h-84l69 153h132z" />
    <glyph glyph-name="rcommaaccent" unicode="&#x157;" horiz-adv-x="366" 
d="M388 525l-25 -125q-26 7 -50 7q-51 0 -84.5 -48t-43.5 -123l-33 -236h-130l73 517h114l1 -88q29 49 66.5 74t77.5 25q22 0 34 -3zM67 -220h-84l69 153h132z" />
    <glyph glyph-name="Rcaron" unicode="&#x158;" horiz-adv-x="584" 
d="M542 372q-39 -76 -112 -113l87 -259h-135l-69 229q-7 -1 -21 -1h-101l-32 -228h-132l107 760h228q70 0 119.5 -27.5t74.5 -75t25 -106.5q0 -103 -39 -179zM403 393q44 56 44 142q0 58 -28 87t-89 29h-79l-45 -314h77q76 0 120 56zM529 1004l-150 -168h-85l-102 168h102
l49 -100l73 100h113z" />
    <glyph glyph-name="rcaron" unicode="&#x159;" horiz-adv-x="366" 
d="M388 525l-25 -125q-26 7 -50 7q-51 0 -84.5 -48t-43.5 -123l-33 -236h-130l73 517h114l1 -88q29 49 66.5 74t77.5 25q22 0 34 -3zM416 761l-150 -168h-85l-102 168h102l49 -100l73 100h113z" />
    <glyph glyph-name="Sacute" unicode="&#x15a;" horiz-adv-x="594" 
d="M96.5 45q-57.5 57 -61.5 158q-1 6 -1 18l137 8v-21q0 -61 31 -87.5t76 -26.5q56 0 92.5 37.5t36.5 94.5q0 37 -20 58.5t-55 36.5l-65 27q-75 32 -119.5 80.5t-44.5 116.5t32.5 119.5t91.5 79.5t134 28q116 0 171 -62.5t55 -165.5l-138 -8q1 7 1 20q0 52 -26.5 81
t-73.5 29q-49 0 -78.5 -30t-29.5 -77q0 -32 19 -55.5t61 -41.5l67 -28q157 -65 157 -190q0 -77 -35.5 -135t-99 -89.5t-144.5 -31.5q-113 0 -170.5 57zM402 833h-84l84 171h132z" />
    <glyph glyph-name="sacute" unicode="&#x15b;" horiz-adv-x="466" 
d="M65.5 31q-48.5 43 -52.5 117l126 11q-2 -39 14 -59t58 -20q34 0 57.5 18.5t23.5 52.5q0 25 -18 40.5t-61 31.5l-24 8q-127 48 -127 143q0 71 55.5 112.5t147.5 41.5q82 0 131.5 -39.5t54.5 -106.5l-127 -12q0 71 -63 71q-25 0 -45.5 -16.5t-20.5 -42.5q0 -17 14 -31
t44 -26l27 -10q70 -26 106 -59t36 -86q0 -88 -60.5 -135t-157.5 -47q-90 0 -138.5 43zM309 590h-84l84 171h132z" />
    <glyph glyph-name="Scircumflex" unicode="&#x15c;" horiz-adv-x="594" 
d="M96.5 45q-57.5 57 -61.5 158q-1 6 -1 18l137 8v-21q0 -61 31 -87.5t76 -26.5q56 0 92.5 37.5t36.5 94.5q0 37 -20 58.5t-55 36.5l-65 27q-75 32 -119.5 80.5t-44.5 116.5t32.5 119.5t91.5 79.5t134 28q116 0 171 -62.5t55 -165.5l-138 -8q1 7 1 20q0 52 -26.5 81
t-73.5 29q-49 0 -78.5 -30t-29.5 -77q0 -32 19 -55.5t61 -41.5l67 -28q157 -65 157 -190q0 -77 -35.5 -135t-99 -89.5t-144.5 -31.5q-113 0 -170.5 57zM433 836l-49 100l-73 -100h-113l150 168h85l102 -168h-102z" />
    <glyph glyph-name="scircumflex" unicode="&#x15d;" horiz-adv-x="466" 
d="M65.5 31q-48.5 43 -52.5 117l126 11q-2 -39 14 -59t58 -20q34 0 57.5 18.5t23.5 52.5q0 25 -18 40.5t-61 31.5l-24 8q-127 48 -127 143q0 71 55.5 112.5t147.5 41.5q82 0 131.5 -39.5t54.5 -106.5l-127 -12q0 71 -63 71q-25 0 -45.5 -16.5t-20.5 -42.5q0 -17 14 -31
t44 -26l27 -10q70 -26 106 -59t36 -86q0 -88 -60.5 -135t-157.5 -47q-90 0 -138.5 43zM340 593l-49 100l-73 -100h-113l150 168h85l102 -168h-102z" />
    <glyph glyph-name="Scedilla" unicode="&#x15e;" horiz-adv-x="594" 
d="M96.5 45q-57.5 57 -61.5 158q-1 6 -1 18l137 8v-21q0 -61 31 -87.5t76 -26.5q56 0 92.5 37.5t36.5 94.5q0 37 -20 58.5t-55 36.5l-65 27q-75 32 -119.5 80.5t-44.5 116.5t32.5 119.5t91.5 79.5t134 28q116 0 171 -62.5t55 -165.5l-138 -8q1 7 1 20q0 52 -26.5 81
t-73.5 29q-49 0 -78.5 -30t-29.5 -77q0 -32 19 -55.5t61 -41.5l67 -28q157 -65 157 -190q0 -77 -35.5 -135t-99 -89.5t-144.5 -31.5q-113 0 -170.5 57zM330 -57.5q21 -20.5 21 -53.5q0 -43 -31 -71t-80 -28q-46 0 -78 19l25 50q18 -10 42 -10q16 0 28 12t12 28
q0 11 -6.5 17.5t-17.5 6.5q-17 0 -32 -12l-22 16l42 106h59l-19 -60h6q30 0 51 -20.5z" />
    <glyph glyph-name="scedilla" unicode="&#x15f;" horiz-adv-x="466" 
d="M65.5 31q-48.5 43 -52.5 117l126 11q-2 -39 14 -59t58 -20q34 0 57.5 18.5t23.5 52.5q0 25 -18 40.5t-61 31.5l-24 8q-127 48 -127 143q0 71 55.5 112.5t147.5 41.5q82 0 131.5 -39.5t54.5 -106.5l-127 -12q0 71 -63 71q-25 0 -45.5 -16.5t-20.5 -42.5q0 -17 14 -31
t44 -26l27 -10q70 -26 106 -59t36 -86q0 -88 -60.5 -135t-157.5 -47q-90 0 -138.5 43zM249 -57.5q21 -20.5 21 -53.5q0 -43 -31 -71t-80 -28q-46 0 -78 19l25 50q18 -10 42 -10q16 0 28 12t12 28q0 11 -6.5 17.5t-17.5 6.5q-17 0 -32 -12l-22 16l42 106h59l-19 -60h6
q30 0 51 -20.5z" />
    <glyph glyph-name="Scaron" unicode="&#x160;" horiz-adv-x="594" 
d="M96.5 45q-57.5 57 -61.5 158q-1 6 -1 18l137 8v-21q0 -61 31 -87.5t76 -26.5q56 0 92.5 37.5t36.5 94.5q0 37 -20 58.5t-55 36.5l-65 27q-75 32 -119.5 80.5t-44.5 116.5t32.5 119.5t91.5 79.5t134 28q116 0 171 -62.5t55 -165.5l-138 -8q1 7 1 20q0 52 -26.5 81
t-73.5 29q-49 0 -78.5 -30t-29.5 -77q0 -32 19 -55.5t61 -41.5l67 -28q157 -65 157 -190q0 -77 -35.5 -135t-99 -89.5t-144.5 -31.5q-113 0 -170.5 57zM547 1004l-150 -168h-85l-102 168h102l49 -100l73 100h113z" />
    <glyph glyph-name="scaron" unicode="&#x161;" horiz-adv-x="466" 
d="M65.5 31q-48.5 43 -52.5 117l126 11q-2 -39 14 -59t58 -20q34 0 57.5 18.5t23.5 52.5q0 25 -18 40.5t-61 31.5l-24 8q-127 48 -127 143q0 71 55.5 112.5t147.5 41.5q82 0 131.5 -39.5t54.5 -106.5l-127 -12q0 71 -63 71q-25 0 -45.5 -16.5t-20.5 -42.5q0 -17 14 -31
t44 -26l27 -10q70 -26 106 -59t36 -86q0 -88 -60.5 -135t-157.5 -47q-90 0 -138.5 43zM454 761l-150 -168h-85l-102 168h102l49 -100l73 100h113z" />
    <glyph glyph-name="uni0162" unicode="&#x162;" horiz-adv-x="529" 
d="M562 648h-175l-91 -648h-134l91 648h-176l15 112h486zM286 -57.5q21 -20.5 21 -53.5q0 -43 -31 -71t-80 -28q-46 0 -78 19l25 50q18 -10 42 -10q16 0 28 12t12 28q0 11 -6.5 17.5t-17.5 6.5q-17 0 -32 -12l-22 16l42 106h59l-19 -60h6q30 0 51 -20.5z" />
    <glyph glyph-name="uni0163" unicode="&#x163;" horiz-adv-x="347" 
d="M191 176q-3 -19 -3 -34q0 -27 11.5 -38t36.5 -11q26 0 54 7l-7 -101q-49 -11 -92 -11q-63 0 -98.5 36t-35.5 97q0 15 4 47l34 245h-67l22 104h59l18 126h130l-18 -126h105l-15 -104h-105zM210 -57.5q21 -20.5 21 -53.5q0 -43 -31 -71t-80 -28q-46 0 -78 19l25 50
q18 -10 42 -10q16 0 28 12t12 28q0 11 -6.5 17.5t-17.5 6.5q-17 0 -32 -12l-22 16l42 106h59l-19 -60h6q30 0 51 -20.5z" />
    <glyph glyph-name="Tcaron" unicode="&#x164;" horiz-adv-x="529" 
d="M562 648h-175l-91 -648h-134l91 648h-176l15 112h486zM527 1004l-150 -168h-85l-102 168h102l49 -100l73 100h113z" />
    <glyph glyph-name="tcaron" unicode="&#x165;" horiz-adv-x="440" 
d="M512 760l-135 -171h-76l83 171h128zM239 517h105l-15 -104h-105l-33 -237q-3 -19 -3 -34q0 -27 11.5 -38t36.5 -11q26 0 54 7l-7 -101q-49 -11 -92 -11q-63 0 -98.5 36t-35.5 97q0 15 4 47l34 245h-67l22 104h59l18 126h130z" />
    <glyph glyph-name="Tbar" unicode="&#x166;" horiz-adv-x="529" 
d="M387 648l-29 -208h123l-14 -99h-123l-48 -341h-134l48 341h-123l13 99h124l29 208h-176l15 112h486l-16 -112h-175z" />
    <glyph glyph-name="tbar" unicode="&#x167;" horiz-adv-x="347" 
d="M224 413l-13 -93h98l-11 -79h-98l-9 -65q-3 -19 -3 -34q0 -27 11.5 -38t36.5 -11q26 0 54 7l-7 -101q-49 -11 -92 -11q-63 0 -98.5 36t-35.5 97q0 15 4 47l10 73h-65l11 79h65l13 93h-67l22 104h59l18 126h130l-18 -126h105l-15 -104h-105z" />
    <glyph glyph-name="Utilde" unicode="&#x168;" horiz-adv-x="631" 
d="M113 50q-55 62 -55 171q0 29 5 71l66 468h134l-68 -477q-5 -35 -5 -57q0 -116 104 -116q59 0 97 43.5t51 129.5l67 477h134l-66 -468q-22 -156 -95.5 -230t-204.5 -74q-109 0 -164 62zM420.5 876.5q-16.5 8.5 -34.5 23.5q-26 23 -47 23q-14 0 -28 -10t-26 -29l-51 44
q23 39 54.5 61t70.5 22q42 0 77 -33q24 -22 46 -22q26 0 54 39l53 -39q-24 -41 -57 -64.5t-73 -23.5q-22 0 -38.5 8.5z" />
    <glyph glyph-name="utilde" unicode="&#x169;" 
d="M515 517l-72 -517h-117l1 74q-30 -42 -69.5 -64t-84.5 -22q-66 0 -99.5 43.5t-33.5 112.5q0 20 4 46l46 327h130l-43 -302q-4 -34 -4 -48q0 -77 67 -77q42 0 68.5 41t36.5 100l40 286h130zM337.5 633.5q-16.5 8.5 -34.5 23.5q-26 23 -47 23q-14 0 -28 -10t-26 -29l-51 44
q23 39 54.5 61t70.5 22q42 0 77 -33q24 -22 46 -22q26 0 54 39l53 -39q-24 -41 -57 -64.5t-73 -23.5q-22 0 -38.5 8.5z" />
    <glyph glyph-name="Umacron" unicode="&#x16a;" horiz-adv-x="631" 
d="M113 50q-55 62 -55 171q0 29 5 71l66 468h134l-68 -477q-5 -35 -5 -57q0 -116 104 -116q59 0 97 43.5t51 129.5l67 477h134l-66 -468q-22 -156 -95.5 -230t-204.5 -74q-109 0 -164 62zM293 977h247l-11 -79h-247z" />
    <glyph glyph-name="umacron" unicode="&#x16b;" 
d="M515 517l-72 -517h-117l1 74q-30 -42 -69.5 -64t-84.5 -22q-66 0 -99.5 43.5t-33.5 112.5q0 20 4 46l46 327h130l-43 -302q-4 -34 -4 -48q0 -77 67 -77q42 0 68.5 41t36.5 100l40 286h130zM210 734h247l-11 -79h-247z" />
    <glyph glyph-name="Ubreve" unicode="&#x16c;" horiz-adv-x="631" 
d="M113 50q-55 62 -55 171q0 29 5 71l66 468h134l-68 -477q-5 -35 -5 -57q0 -116 104 -116q59 0 97 43.5t51 129.5l67 477h134l-66 -468q-22 -156 -95.5 -230t-204.5 -74q-109 0 -164 62zM307 878.5q-35 45.5 -35 125.5h76q0 -49 16.5 -71t50.5 -22q62 0 78 93h76
q-11 -90 -55 -130.5t-109 -40.5q-63 0 -98 45.5z" />
    <glyph glyph-name="ubreve" unicode="&#x16d;" 
d="M515 517l-72 -517h-117l1 74q-30 -42 -69.5 -64t-84.5 -22q-66 0 -99.5 43.5t-33.5 112.5q0 20 4 46l46 327h130l-43 -302q-4 -34 -4 -48q0 -77 67 -77q42 0 68.5 41t36.5 100l40 286h130zM224 635.5q-35 45.5 -35 125.5h76q0 -49 16.5 -71t50.5 -22q62 0 78 93h76
q-11 -90 -55 -130.5t-109 -40.5q-63 0 -98 45.5z" />
    <glyph glyph-name="Uring" unicode="&#x16e;" horiz-adv-x="631" 
d="M113 50q-55 62 -55 171q0 29 5 71l66 468h134l-68 -477q-5 -35 -5 -57q0 -116 104 -116q59 0 97 43.5t51 129.5l67 477h134l-66 -468q-22 -156 -95.5 -230t-204.5 -74q-109 0 -164 62zM325.5 862q-33.5 34 -33.5 81q0 48 33.5 81.5t82.5 33.5q48 0 81.5 -34t33.5 -81
t-33.5 -81t-81.5 -34q-49 0 -82.5 34zM448 900.5q17 17.5 17 42.5t-17 42.5t-40 17.5q-24 0 -41 -17.5t-17 -42.5t17 -42.5t41 -17.5q23 0 40 17.5z" />
    <glyph glyph-name="uring" unicode="&#x16f;" 
d="M515 517l-72 -517h-117l1 74q-30 -42 -69.5 -64t-84.5 -22q-66 0 -99.5 43.5t-33.5 112.5q0 20 4 46l46 327h130l-43 -302q-4 -34 -4 -48q0 -77 67 -77q42 0 68.5 41t36.5 100l40 286h130zM242.5 619q-33.5 34 -33.5 81q0 48 33.5 81.5t82.5 33.5q48 0 81.5 -34t33.5 -81
t-33.5 -81t-81.5 -34q-49 0 -82.5 34zM365 657.5q17 17.5 17 42.5t-17 42.5t-40 17.5q-24 0 -41 -17.5t-17 -42.5t17 -42.5t41 -17.5q23 0 40 17.5z" />
    <glyph glyph-name="Uhungarumlaut" unicode="&#x170;" horiz-adv-x="631" 
d="M113 50q-55 62 -55 171q0 29 5 71l66 468h134l-68 -477q-5 -35 -5 -57q0 -116 104 -116q59 0 97 43.5t51 129.5l67 477h134l-66 -468q-22 -156 -95.5 -230t-204.5 -74q-109 0 -164 62zM339 833h-84l84 171h132zM524 833h-84l84 171h132z" />
    <glyph glyph-name="uhungarumlaut" unicode="&#x171;" 
d="M515 517l-72 -517h-117l1 74q-30 -42 -69.5 -64t-84.5 -22q-66 0 -99.5 43.5t-33.5 112.5q0 20 4 46l46 327h130l-43 -302q-4 -34 -4 -48q0 -77 67 -77q42 0 68.5 41t36.5 100l40 286h130zM256 590h-84l84 171h132zM441 590h-84l84 171h132z" />
    <glyph glyph-name="Uogonek" unicode="&#x172;" horiz-adv-x="631" 
d="M113 50q-55 62 -55 171q0 29 5 71l66 468h134l-68 -477q-5 -35 -5 -57q0 -116 104 -116q59 0 97 43.5t51 129.5l67 477h134l-66 -468q-22 -156 -95.5 -230t-204.5 -74q-109 0 -164 62zM333.5 -27q-20.5 -22 -20.5 -54q0 -23 15 -35.5t43 -12.5q18 0 38 6l-7 -75
q-30 -12 -69 -12q-44 0 -72.5 28.5t-28.5 68.5q0 63 42.5 104.5t107.5 49.5l3 -35q-31 -11 -51.5 -33z" />
    <glyph glyph-name="uogonek" unicode="&#x173;" 
d="M515 517l-72 -517h-117l1 74q-30 -42 -69.5 -64t-84.5 -22q-66 0 -99.5 43.5t-33.5 112.5q0 20 4 46l46 327h130l-43 -302q-4 -34 -4 -48q0 -77 67 -77q42 0 68.5 41t36.5 100l40 286h130zM353.5 -27q-20.5 -22 -20.5 -54q0 -23 15 -35.5t43 -12.5q18 0 38 6l-7 -75
q-30 -12 -69 -12q-44 0 -72.5 28.5t-28.5 68.5q0 63 42.5 104.5t107.5 49.5l3 -35q-31 -11 -51.5 -33z" />
    <glyph glyph-name="Wcircumflex" unicode="&#x174;" horiz-adv-x="870" 
d="M929 760l-277 -760h-139l-33 572l-198 -572h-138l-62 760h137l20 -614l204 614h120l32 -613l189 613h145zM582 836l-49 100l-73 -100h-113l150 168h85l102 -168h-102z" />
    <glyph glyph-name="wcircumflex" unicode="&#x175;" horiz-adv-x="708" 
d="M739 517l-212 -517h-128l-29 370l-134 -370h-128l-67 517h132l21 -402l144 402h103l28 -401l133 401h137zM467 593l-49 100l-73 -100h-113l150 168h85l102 -168h-102z" />
    <glyph glyph-name="Ycircumflex" unicode="&#x176;" horiz-adv-x="539" 
d="M615 760l-428 -760h-141l180 320l-152 440h136l89 -309l174 309h142zM424 836l-49 100l-73 -100h-113l150 168h85l102 -168h-102z" />
    <glyph glyph-name="ycircumflex" unicode="&#x177;" 
d="M515 517l-67 -475q-17 -124 -82.5 -188t-170.5 -64q-78 0 -124 36t-60 98l130 16q8 -58 66 -58q47 0 73.5 39t37.5 117l5 39q-29 -39 -67 -59t-81 -20q-66 0 -99.5 43.5t-33.5 112.5q0 22 3 46l45 317h130l-41 -293q-4 -23 -4 -48q0 -37 15.5 -56.5t51.5 -19.5
q40 0 65.5 36.5t36.5 90.5l41 290h130zM386 593l-49 100l-73 -100h-113l150 168h85l102 -168h-102z" />
    <glyph glyph-name="Ydieresis" unicode="&#x178;" horiz-adv-x="539" 
d="M615 760l-428 -760h-141l180 320l-152 440h136l89 -309l174 309h142zM226 878.5q-20 20.5 -20 49.5t20 49.5t49 20.5t49.5 -20.5t20.5 -49.5t-20.5 -49.5t-49.5 -20.5t-49 20.5zM413.5 878.5q-20.5 20.5 -20.5 49.5t20.5 49.5t49.5 20.5q28 0 48 -20.5t20 -49.5
t-20 -49.5t-48 -20.5q-29 0 -49.5 20.5z" />
    <glyph glyph-name="Zacute" unicode="&#x179;" horiz-adv-x="547" 
d="M200 112h294l-16 -112h-493l396 648h-272l16 112h471zM412 833h-84l84 171h132z" />
    <glyph glyph-name="zacute" unicode="&#x17a;" horiz-adv-x="454" 
d="M192 103h211l-14 -103h-405l275 414h-194l21 103h382zM318 590h-84l84 171h132z" />
    <glyph glyph-name="Zdotaccent" unicode="&#x17b;" horiz-adv-x="547" 
d="M200 112h294l-16 -112h-493l396 648h-272l16 112h471zM323 873q-23 23 -23 55q0 34 23 57t55 23q33 0 56 -23t23 -57q0 -32 -23 -55t-56 -23q-32 0 -55 23z" />
    <glyph glyph-name="zdotaccent" unicode="&#x17c;" horiz-adv-x="454" 
d="M192 103h211l-14 -103h-405l275 414h-194l21 103h382zM229 630q-23 23 -23 55q0 34 23 57t55 23q33 0 56 -23t23 -57q0 -32 -23 -55t-56 -23q-32 0 -55 23z" />
    <glyph glyph-name="Zcaron" unicode="&#x17d;" horiz-adv-x="547" 
d="M200 112h294l-16 -112h-493l396 648h-272l16 112h471zM557 1004l-150 -168h-85l-102 168h102l49 -100l73 100h113z" />
    <glyph glyph-name="zcaron" unicode="&#x17e;" horiz-adv-x="454" 
d="M192 103h211l-14 -103h-405l275 414h-194l21 103h382zM463 761l-150 -168h-85l-102 168h102l49 -100l73 100h113z" />
    <glyph glyph-name="longs" unicode="&#x17f;" horiz-adv-x="277" 
d="M360 765q31 -7 44 -15l-20 -93q-26 13 -62 13q-32 0 -50.5 -21.5t-25.5 -73.5l-81 -575h-130l59 413h-66l23 104h57l10 67q14 99 58 143.5t122 44.5q31 0 62 -7z" />
    <glyph glyph-name="uni018F" unicode="&#x18f;" horiz-adv-x="737" 
d="M589.5 731q63.5 -41 97 -114t33.5 -166q0 -123 -49 -229.5t-137.5 -170t-201.5 -63.5q-87 0 -150.5 41t-96.5 113.5t-33 166.5q0 62 13 116h517v21q0 95 -41.5 149.5t-115.5 54.5q-114 0 -183 -133l-138 17q52 112 137 175t197 63q88 0 151.5 -41zM483 171q58 61 83 155
h-376v-11q0 -95 41.5 -150t115.5 -55q78 0 136 61z" />
    <glyph glyph-name="florin" unicode="&#x192;" horiz-adv-x="532" 
d="M436 629.5q-23 -28.5 -36 -83.5l-21 -93h79l-12 -84h-87l-81 -352q-26 -113 -77.5 -164t-144.5 -51h-40l24 102q44 1 67 29t35 82l81 354h-47l12 84h54l22 94q26 113 78.5 163t142.5 50h38l-25 -102q-39 0 -62 -28.5z" />
    <glyph glyph-name="uni019D" unicode="&#x19d;" horiz-adv-x="631" 
d="M638 760l-107 -760h-131l-163 553l-69 -491q-39 -272 -271 -272q-29 0 -49 4l24 108q13 -3 36 -3q47 0 82 37t45 111l101 713h130l164 -550l77 550h131z" />
    <glyph glyph-name="uni01CD" unicode="&#x1cd;" horiz-adv-x="575" 
d="M391 123h-236l-45 -123h-145l317 760h153l102 -760h-135zM382 226l-37 411l-151 -411h188zM550 1004l-150 -168h-85l-102 168h102l49 -100l73 100h113z" />
    <glyph glyph-name="uni01CE" unicode="&#x1ce;" horiz-adv-x="577" 
d="M555 517l-73 -517h-120l4 83q-28 -45 -69.5 -70t-89.5 -25q-50 0 -89 27.5t-61 76.5t-22 111q0 80 31.5 155t87 122.5t123.5 47.5q50 0 85 -27t51 -70l12 86h130zM331 125.5q31 30.5 48 77.5t17 95q0 55 -24.5 89t-66.5 34q-40 0 -72 -30.5t-49 -77.5t-17 -95
q0 -58 24 -90.5t69 -32.5q40 0 71 30.5zM503 761l-150 -168h-85l-102 168h102l49 -100l73 100h113z" />
    <glyph glyph-name="Gcaron" unicode="&#x1e6;" horiz-adv-x="713" 
d="M365 414h312l-45 -321q-58 -47 -131.5 -76t-158.5 -29q-93 0 -158 42t-98.5 115t-33.5 164q0 122 48.5 228.5t135.5 170.5t197 64q111 0 177.5 -65t89.5 -165l-142 -12q-10 49 -46 84.5t-96 35.5q-66 0 -117.5 -50t-80 -128.5t-28.5 -159.5q0 -98 43 -152.5t127 -54.5
q82 0 155 50l21 157h-186zM624 1004l-150 -168h-85l-102 168h102l49 -100l73 100h113z" />
    <glyph glyph-name="gcaron" unicode="&#x1e7;" horiz-adv-x="578" 
d="M555 517l-65 -469q-17 -123 -86 -190.5t-182 -67.5q-82 0 -131.5 36.5t-63.5 97.5l130 16q16 -58 77 -58q50 0 82.5 40.5t41.5 113.5l6 48q-28 -43 -68.5 -66.5t-87.5 -23.5q-50 0 -89.5 27.5t-61.5 75.5t-22 109q0 79 31.5 153.5t87 121.5t122.5 47q51 0 86.5 -27.5
t51.5 -72.5l21 89h120zM331 126.5q31 30.5 48 77.5t17 94q0 55 -24.5 89t-66.5 34q-41 0 -72.5 -29.5t-48.5 -76.5t-17 -96q0 -58 24 -90.5t69 -32.5q40 0 71 30.5zM507 761l-150 -168h-85l-102 168h102l49 -100l73 100h113z" />
    <glyph glyph-name="Aringacute" unicode="&#x1fa;" horiz-adv-x="575" 
d="M391 123h-236l-45 -123h-145l317 760h153l102 -760h-135zM382 226l-37 411l-151 -411h188zM298.5 862q-33.5 34 -33.5 81q0 48 33.5 81.5t82.5 33.5q48 0 81.5 -34t33.5 -81t-33.5 -81t-81.5 -34q-49 0 -82.5 34zM421 900.5q17 17.5 17 42.5t-17 42.5t-40 17.5
q-24 0 -41 -17.5t-17 -42.5t17 -42.5t41 -17.5q23 0 40 17.5zM443 1130h-84l84 171h132z" />
    <glyph glyph-name="aringacute" unicode="&#x1fb;" horiz-adv-x="577" 
d="M555 517l-73 -517h-120l4 83q-28 -45 -69.5 -70t-89.5 -25q-50 0 -89 27.5t-61 76.5t-22 111q0 80 31.5 155t87 122.5t123.5 47.5q50 0 85 -27t51 -70l12 86h130zM331 125.5q31 30.5 48 77.5t17 95q0 55 -24.5 89t-66.5 34q-40 0 -72 -30.5t-49 -77.5t-17 -95
q0 -58 24 -90.5t69 -32.5q40 0 71 30.5zM251.5 619q-33.5 34 -33.5 81q0 48 33.5 81.5t82.5 33.5q48 0 81.5 -34t33.5 -81t-33.5 -81t-81.5 -34q-49 0 -82.5 34zM374 657.5q17 17.5 17 42.5t-17 42.5t-40 17.5q-24 0 -41 -17.5t-17 -42.5t17 -42.5t41 -17.5q23 0 40 17.5z
M396 887h-84l84 171h132z" />
    <glyph glyph-name="AEacute" unicode="&#x1fc;" horiz-adv-x="833" 
d="M599 649l-28 -200h231l-16 -108h-230l-32 -230h239l-15 -111h-373l23 161h-204l-92 -161h-145l461 760h434l-16 -111h-237zM412 263l53 373l-213 -373h160zM694 833h-84l84 171h132z" />
    <glyph glyph-name="aeacute" unicode="&#x1fd;" horiz-adv-x="836" 
d="M458 213q-2 -60 22 -94t69 -34q35 0 62 21.5t44 56.5l119 -11q-34 -79 -94.5 -121.5t-147.5 -42.5q-57 0 -98 26t-64 71q-66 -97 -198 -97q-65 0 -107.5 37t-42.5 100q0 88 58.5 133.5t159.5 45.5h112l2 12q3 17 3 32q0 45 -20.5 64t-52.5 19t-57.5 -17.5t-41.5 -49.5
l-114 12q30 69 87.5 110.5t139.5 41.5q45 0 82 -16.5t60 -49.5q33 32 75.5 49t90.5 17q94 0 144.5 -62t50.5 -162q0 -15 -3 -39t-7 -39h-331zM518.5 395q-32.5 -35 -47.5 -91h211v15q0 54 -22 82.5t-65 28.5q-44 0 -76.5 -35zM292.5 107q35.5 34 45.5 95l3 24h-92
q-53 0 -81.5 -22.5t-28.5 -66.5q0 -30 19.5 -47t51.5 -17q47 0 82.5 34zM498 590h-84l84 171h132z" />
    <glyph glyph-name="Oslashacute" unicode="&#x1fe;" horiz-adv-x="737" 
d="M657 667q62 -87 62 -216q0 -123 -49 -229.5t-137.5 -170t-201.5 -63.5q-79 0 -142 36l-34 -47h-119l81 112q-32 42 -48.5 98t-16.5 122q0 122 48.5 228.5t137 170.5t202.5 64q84 0 146 -39l36 50h119zM201 203l312 431q-35 24 -86 24q-73 0 -129 -51t-85.5 -131.5
t-29.5 -164.5q0 -61 18 -108zM573 552l-311 -428q36 -22 83 -22q72 0 128 50.5t86 131t30 166.5q0 60 -16 102zM485 833h-84l84 171h132z" />
    <glyph glyph-name="oslashacute" unicode="&#x1ff;" horiz-adv-x="560" 
d="M509.5 396q13.5 -40 13.5 -86q0 -89 -34 -162.5t-98 -116.5t-150 -43q-55 0 -101 23l-23 -31h-78l51 71q-26 30 -39.5 70t-13.5 86q0 89 34 162t98 116t149 43q58 0 101 -23l22 31h78l-50 -70q27 -30 40.5 -70zM168 159l184 254q-20 14 -48 14q-43 0 -75.5 -32t-50 -82
t-17.5 -100q0 -26 7 -54zM331 122q32 32 49.5 81.5t17.5 99.5q0 27 -7 55l-184 -254q20 -14 49 -14q43 0 75 32zM361 590h-84l84 171h132z" />
    <glyph glyph-name="Scommaaccent" unicode="&#x218;" horiz-adv-x="594" 
d="M96.5 45q-57.5 57 -61.5 158q-1 6 -1 18l137 8v-21q0 -61 31 -87.5t76 -26.5q56 0 92.5 37.5t36.5 94.5q0 37 -20 58.5t-55 36.5l-65 27q-75 32 -119.5 80.5t-44.5 116.5t32.5 119.5t91.5 79.5t134 28q116 0 171 -62.5t55 -165.5l-138 -8q1 7 1 20q0 52 -26.5 81
t-73.5 29q-49 0 -78.5 -30t-29.5 -77q0 -32 19 -55.5t61 -41.5l67 -28q157 -65 157 -190q0 -77 -35.5 -135t-99 -89.5t-144.5 -31.5q-113 0 -170.5 57zM225 -220h-84l69 153h132z" />
    <glyph glyph-name="scommaaccent" unicode="&#x219;" horiz-adv-x="466" 
d="M65.5 31q-48.5 43 -52.5 117l126 11q-2 -39 14 -59t58 -20q34 0 57.5 18.5t23.5 52.5q0 25 -18 40.5t-61 31.5l-24 8q-127 48 -127 143q0 71 55.5 112.5t147.5 41.5q82 0 131.5 -39.5t54.5 -106.5l-127 -12q0 71 -63 71q-25 0 -45.5 -16.5t-20.5 -42.5q0 -17 14 -31
t44 -26l27 -10q70 -26 106 -59t36 -86q0 -88 -60.5 -135t-157.5 -47q-90 0 -138.5 43zM144 -220h-84l69 153h132z" />
    <glyph glyph-name="uni021A" unicode="&#x21a;" horiz-adv-x="529" 
d="M562 648h-175l-91 -648h-134l91 648h-176l15 112h486zM181 -220h-84l69 153h132z" />
    <glyph glyph-name="uni021B" unicode="&#x21b;" horiz-adv-x="347" 
d="M191 176q-3 -19 -3 -34q0 -27 11.5 -38t36.5 -11q26 0 54 7l-7 -101q-49 -11 -92 -11q-63 0 -98.5 36t-35.5 97q0 15 4 47l34 245h-67l22 104h59l18 126h130l-18 -126h105l-15 -104h-105zM105 -220h-84l69 153h132z" />
    <glyph glyph-name="uni0232" unicode="&#x232;" horiz-adv-x="539" 
d="M615 760l-428 -760h-141l180 320l-152 440h136l89 -309l174 309h142zM254 977h247l-11 -79h-247z" />
    <glyph glyph-name="uni0233" unicode="&#x233;" 
d="M515 517l-67 -475q-17 -124 -82.5 -188t-170.5 -64q-78 0 -124 36t-60 98l130 16q8 -58 66 -58q47 0 73.5 39t37.5 117l5 39q-29 -39 -67 -59t-81 -20q-66 0 -99.5 43.5t-33.5 112.5q0 22 3 46l45 317h130l-41 -293q-4 -23 -4 -48q0 -37 15.5 -56.5t51.5 -19.5
q40 0 65.5 36.5t36.5 90.5l41 290h130zM216 734h247l-11 -79h-247z" />
    <glyph glyph-name="uni0237" unicode="&#x237;" horiz-adv-x="252" 
d="M-77.5 -205q-26.5 5 -46.5 12l22 99q28 -10 56 -10q32 0 47 20t23 69l74 532h129l-76 -548q-14 -97 -58 -138t-120 -41q-24 0 -50.5 5z" />
    <glyph glyph-name="uni0259" unicode="&#x259;" horiz-adv-x="551" 
d="M385 304q2 60 -21.5 94t-68.5 34q-34 0 -61.5 -21.5t-43.5 -56.5l-128 12q35 78 98 120.5t152 42.5q62 0 108 -29t70.5 -78t24.5 -108q0 -91 -33.5 -165t-96.5 -117t-147 -43q-97 0 -149.5 61t-52.5 161q0 17 3 44.5t7 43.5h338zM328 124.5q32 37.5 46 96.5h-211
q-1 -8 -1 -23q0 -54 22 -82.5t65 -28.5q47 0 79 37.5z" />
    <glyph glyph-name="uni0272" unicode="&#x272;" horiz-adv-x="546" 
d="M473 485q33 -43 33 -113q0 -23 -3 -46l-46 -326h-130l42 302q4 34 4 48q0 37 -15.5 57t-51.5 20q-46 0 -74 -43t-38 -103l-11 -81l-32 -231q-14 -95 -58.5 -137t-119.5 -42q-24 0 -51 5t-46 12l22 99q28 -10 56 -10q31 0 46.5 20.5t22.5 68.5l2 15l72 517h117v-75
q31 42 71.5 64t87.5 22q67 0 100 -43z" />
    <glyph glyph-name="circumflex" unicode="&#x2c6;" horiz-adv-x="437" 
d="M332 592l-49 100l-73 -100h-113l150 168h85l102 -168h-102z" />
    <glyph glyph-name="caron" unicode="&#x2c7;" horiz-adv-x="437" 
d="M458 760l-150 -168h-85l-102 168h102l49 -100l73 100h113z" />
    <glyph glyph-name="breve" unicode="&#x2d8;" horiz-adv-x="398" 
d="M156 634.5q-35 45.5 -35 125.5h76q0 -49 16.5 -71t50.5 -22q62 0 78 93h76q-11 -90 -55 -130.5t-109 -40.5q-63 0 -98 45.5z" />
    <glyph glyph-name="dotaccent" unicode="&#x2d9;" horiz-adv-x="259" 
d="M134 629q-23 23 -23 55q0 34 23 57t55 23q33 0 56 -23t23 -57q0 -32 -23 -55t-56 -23q-32 0 -55 23z" />
    <glyph glyph-name="ring" unicode="&#x2da;" horiz-adv-x="333" 
d="M146.5 618q-33.5 34 -33.5 81q0 48 33.5 81.5t82.5 33.5q48 0 81.5 -34t33.5 -81t-33.5 -81t-81.5 -34q-49 0 -82.5 34zM269 656.5q17 17.5 17 42.5t-17 42.5t-40 17.5q-24 0 -41 -17.5t-17 -42.5t17 -42.5t41 -17.5q23 0 40 17.5z" />
    <glyph glyph-name="ogonek" unicode="&#x2db;" horiz-adv-x="284" 
d="M101.5 -27q-20.5 -22 -20.5 -54q0 -23 15 -35.5t43 -12.5q18 0 38 6l-7 -75q-30 -12 -69 -12q-44 0 -72.5 28.5t-28.5 68.5q0 63 42.5 104.5t107.5 49.5l3 -35q-31 -11 -51.5 -33z" />
    <glyph glyph-name="tilde" unicode="&#x2dc;" horiz-adv-x="451" 
d="M296.5 632.5q-16.5 8.5 -34.5 23.5q-26 23 -47 23q-14 0 -28 -10t-26 -29l-51 44q23 39 54.5 61t70.5 22q42 0 77 -33q24 -22 46 -22q26 0 54 39l53 -39q-24 -41 -57 -64.5t-73 -23.5q-22 0 -38.5 8.5z" />
    <glyph glyph-name="hungarumlaut" unicode="&#x2dd;" horiz-adv-x="477" 
d="M181 589h-84l84 171h132zM366 589h-84l84 171h132z" />
    <glyph glyph-name="gravecomb" unicode="&#x300;" horiz-adv-x="0" 
d="M-87 760l84 -171h-84l-132 171h132z" />
    <glyph glyph-name="acutecomb" unicode="&#x301;" horiz-adv-x="0" 
d="M-111 589h-84l84 171h132z" />
    <glyph glyph-name="uni0302" unicode="&#x302;" horiz-adv-x="0" 
d="M-105 592l-49 100l-73 -100h-113l150 168h85l102 -168h-102z" />
    <glyph glyph-name="tildecomb" unicode="&#x303;" horiz-adv-x="0" 
d="M-154.5 632.5q-16.5 8.5 -34.5 23.5q-26 23 -47 23q-14 0 -28 -10t-26 -29l-51 44q23 39 54.5 61t70.5 22q42 0 77 -33q24 -22 46 -22q26 0 54 39l53 -39q-24 -41 -57 -64.5t-73 -23.5q-22 0 -38.5 8.5z" />
    <glyph glyph-name="uni0304" unicode="&#x304;" horiz-adv-x="0" 
d="M-231 733h247l-11 -79h-247z" />
    <glyph glyph-name="uni0306" unicode="&#x306;" horiz-adv-x="0" 
d="M-242 634.5q-35 45.5 -35 125.5h76q0 -49 16.5 -71t50.5 -22q62 0 78 93h76q-11 -90 -55 -130.5t-109 -40.5q-63 0 -98 45.5z" />
    <glyph glyph-name="uni0307" unicode="&#x307;" horiz-adv-x="0" 
d="M-125 629q-23 23 -23 55q0 34 23 57t55 23q33 0 56 -23t23 -57q0 -32 -23 -55t-56 -23q-32 0 -55 23z" />
    <glyph glyph-name="uni0308" unicode="&#x308;" horiz-adv-x="0" 
d="M-296 634.5q-20 20.5 -20 49.5t20 49.5t49 20.5t49.5 -20.5t20.5 -49.5t-20.5 -49.5t-49.5 -20.5t-49 20.5zM-108.5 634.5q-20.5 20.5 -20.5 49.5t20.5 49.5t49.5 20.5q28 0 48 -20.5t20 -49.5t-20 -49.5t-48 -20.5q-29 0 -49.5 20.5z" />
    <glyph glyph-name="uni030A" unicode="&#x30a;" horiz-adv-x="0" 
d="M-186.5 618q-33.5 34 -33.5 81q0 48 33.5 81.5t82.5 33.5q48 0 81.5 -34t33.5 -81t-33.5 -81t-81.5 -34q-49 0 -82.5 34zM-64 656.5q17 17.5 17 42.5t-17 42.5t-40 17.5q-24 0 -41 -17.5t-17 -42.5t17 -42.5t41 -17.5q23 0 40 17.5z" />
    <glyph glyph-name="uni030B" unicode="&#x30b;" horiz-adv-x="0" 
d="M-296 589h-84l84 171h132zM-111 589h-84l84 171h132z" />
    <glyph glyph-name="uni030C" unicode="&#x30c;" horiz-adv-x="0" 
d="M21 760l-150 -168h-85l-102 168h102l49 -100l73 100h113z" />
    <glyph glyph-name="uni0326" unicode="&#x326;" horiz-adv-x="0" 
d="M-213 -220h-84l69 153h132z" />
    <glyph glyph-name="uni0327" unicode="&#x327;" horiz-adv-x="0" 
d="M-124 -57.5q21 -20.5 21 -53.5q0 -43 -31 -71t-80 -28q-46 0 -78 19l25 50q18 -10 42 -10q16 0 28 12t12 28q0 11 -6.5 17.5t-17.5 6.5q-17 0 -32 -12l-22 16l42 106h59l-19 -60h6q30 0 51 -20.5z" />
    <glyph glyph-name="uni0328" unicode="&#x328;" horiz-adv-x="0" 
d="M-182.5 -27q-20.5 -22 -20.5 -54q0 -23 15 -35.5t43 -12.5q18 0 38 6l-7 -75q-30 -12 -69 -12q-44 0 -72.5 28.5t-28.5 68.5q0 63 42.5 104.5t107.5 49.5l3 -35q-31 -11 -51.5 -33z" />
    <glyph glyph-name="tonos" unicode="&#x384;" horiz-adv-x="295" 
d="M179 588h-82l84 172h135z" />
    <glyph glyph-name="dieresistonos" unicode="&#x385;" horiz-adv-x="520" 
d="M298 779h126l-115 -190h-75zM129 637.5q-19 19.5 -19 46.5q0 28 19 47t47 19q26 0 45 -19t19 -47q0 -27 -19 -46.5t-45 -19.5q-28 0 -47 19.5zM419 637.5q-19 19.5 -19 46.5q0 28 18.5 47t46.5 19q27 0 45.5 -19t18.5 -47q0 -27 -18.5 -46.5t-45.5 -19.5t-46 19.5z" />
    <glyph glyph-name="Alphatonos" unicode="&#x386;" horiz-adv-x="575" 
d="M391 123h-236l-45 -123h-145l317 760h153l102 -760h-135zM382 226l-37 411l-151 -411h188zM39 760h135l-137 -172h-82z" />
    <glyph glyph-name="anoteleia" unicode="&#x387;" horiz-adv-x="264" 
d="M96.5 354.5q-23.5 23.5 -23.5 56.5q0 34 23.5 57.5t56.5 23.5q34 0 57.5 -23.5t23.5 -57.5q0 -33 -23.5 -56.5t-57.5 -23.5q-33 0 -56.5 23.5z" />
    <glyph glyph-name="Epsilontonos" unicode="&#x388;" horiz-adv-x="495" 
d="M252 648l-28 -198h240l-15 -109h-240l-32 -229h249l-16 -112h-383l107 760h381l-16 -112h-247zM-65 760h135l-137 -172h-82z" />
    <glyph glyph-name="Etatonos" unicode="&#x389;" horiz-adv-x="624" 
d="M632 760l-107 -760h-134l48 338h-230l-48 -338h-134l107 760h134l-44 -310h230l44 310h134zM-65 760h135l-137 -172h-82z" />
    <glyph glyph-name="Iotatonos" unicode="&#x38a;" horiz-adv-x="260" 
d="M134 760h134l-107 -760h-134zM-65 760h135l-137 -172h-82z" />
    <glyph glyph-name="Omicrontonos" unicode="&#x38c;" horiz-adv-x="737" 
d="M181.5 29.5q-63.5 41.5 -96.5 114.5t-33 165q0 122 48.5 228.5t137 170.5t202.5 64q86 0 149.5 -41.5t96.5 -114.5t33 -165q0 -123 -49 -229.5t-137.5 -170t-201.5 -63.5q-86 0 -149.5 41.5zM469 158.5q53 48.5 82.5 126.5t29.5 161q0 95 -41 149.5t-115 54.5
q-70 0 -123.5 -49t-82.5 -126.5t-29 -159.5q0 -95 41.5 -150t115.5 -55q69 0 122 48.5zM-22 760h135l-137 -172h-82z" />
    <glyph glyph-name="Upsilontonos" unicode="&#x38e;" horiz-adv-x="539" 
d="M615 760l-428 -760h-141l180 320l-152 440h136l89 -309l174 309h142zM-105 760h135l-137 -172h-82z" />
    <glyph glyph-name="Omegatonos" unicode="&#x38f;" horiz-adv-x="748" 
d="M684 264.5q-46 -93.5 -128 -152.5h130l-17 -112h-279l19 120q60 28 101 80.5t60.5 116.5t19.5 127q0 90 -44 148t-124 58q-66 0 -118 -41t-80.5 -112t-28.5 -157q0 -72 27.5 -131.5t81.5 -88.5l-19 -120h-275l17 112h128q-47 43 -71.5 104.5t-24.5 133.5q0 122 50 218.5
t136.5 150t192.5 53.5q88 0 154.5 -40.5t102 -110t35.5 -154.5q0 -109 -46 -202.5zM-38 760h135l-137 -172h-82z" />
    <glyph glyph-name="iotadieresistonos" unicode="&#x390;" horiz-adv-x="277" 
d="M73 16q-31 28 -31 88q0 20 5 57l48 356h130l-46 -346q-3 -22 -3 -33q0 -24 10 -33t39 -9h10l-9 -104q-32 -4 -53 -4q-69 0 -100 28zM158 779h126l-115 -190h-75zM-11 637.5q-19 19.5 -19 46.5q0 28 19 47t47 19q26 0 45 -19t19 -47q0 -27 -19 -46.5t-45 -19.5
q-28 0 -47 19.5zM279 637.5q-19 19.5 -19 46.5q0 28 18.5 47t46.5 19q27 0 45.5 -19t18.5 -47q0 -27 -18.5 -46.5t-45.5 -19.5t-46 19.5z" />
    <glyph glyph-name="Alpha" unicode="&#x391;" horiz-adv-x="575" 
d="M391 123h-236l-45 -123h-145l317 760h153l102 -760h-135zM382 226l-37 411l-151 -411h188z" />
    <glyph glyph-name="Beta" unicode="&#x392;" horiz-adv-x="554" 
d="M503 342.5q23 -38.5 23 -86.5q0 -73 -32 -131t-89.5 -91.5t-133.5 -33.5h-244l107 760h236q58 0 99 -21.5t62 -58.5t21 -82q0 -64 -29.5 -116t-83.5 -81q41 -20 64 -58.5zM250 657l-29 -213h83q56 0 87 37.5t31 94.5q0 37 -20.5 59t-64.5 22h-87zM362 148.5
q33 42.5 33 104.5q0 42 -22 68t-65 26h-101l-34 -241h99q57 0 90 42.5z" />
    <glyph glyph-name="Gamma" unicode="&#x393;" horiz-adv-x="452" 
d="M163 0h-135l106 760h365l-17 -112h-229z" />
    <glyph glyph-name="uni0394" unicode="&#x394;" horiz-adv-x="608" 
d="M570 0h-605l334 760h152zM420 103l-63 533l-213 -533h276z" />
    <glyph glyph-name="Epsilon" unicode="&#x395;" horiz-adv-x="495" 
d="M252 648l-28 -198h240l-15 -109h-240l-32 -229h249l-16 -112h-383l107 760h381l-16 -112h-247z" />
    <glyph glyph-name="Zeta" unicode="&#x396;" horiz-adv-x="547" 
d="M200 112h294l-16 -112h-493l396 648h-272l16 112h471z" />
    <glyph glyph-name="Eta" unicode="&#x397;" horiz-adv-x="624" 
d="M632 760l-107 -760h-134l48 338h-230l-48 -338h-134l107 760h134l-44 -310h230l44 310h134z" />
    <glyph glyph-name="Theta" unicode="&#x398;" horiz-adv-x="737" 
d="M184.5 29q-63.5 41 -97.5 115.5t-34 171.5q0 124 50.5 228.5t139 166t195.5 61.5q85 0 148.5 -41t97.5 -115.5t34 -172.5q0 -123 -51 -227.5t-139 -166t-195 -61.5q-85 0 -148.5 41zM466.5 154.5q54.5 47.5 85.5 124.5t31 162q0 99 -42 155.5t-115 56.5
q-67 0 -121.5 -47.5t-85 -124.5t-30.5 -163q0 -99 41.5 -155t114.5 -56q67 0 121.5 47.5zM281 447h227l-18 -110h-226z" />
    <glyph glyph-name="Iota" unicode="&#x399;" horiz-adv-x="260" 
d="M134 760h134l-107 -760h-134z" />
    <glyph glyph-name="Kappa" unicode="&#x39a;" horiz-adv-x="573" 
d="M372 437l162 -437h-131l-113 334l-101 -126l-29 -208h-133l107 760h133l-49 -351l261 351h150z" />
    <glyph glyph-name="Lambda" unicode="&#x39b;" horiz-adv-x="596" 
d="M418 0l-69 635l-244 -635h-140l327 760h152l114 -760h-140z" />
    <glyph glyph-name="Mu" unicode="&#x39c;" horiz-adv-x="775" 
d="M746 760l-47 -760h-126l45 575l-232 -575h-71l-71 572l-115 -572h-126l166 760h143l65 -550l220 550h149z" />
    <glyph glyph-name="Nu" unicode="&#x39d;" horiz-adv-x="629" 
d="M636 760l-107 -760h-130l-164 556l-78 -556h-130l107 760h130l165 -550l77 550h130z" />
    <glyph glyph-name="Xi" unicode="&#x39e;" horiz-adv-x="569" 
d="M122 760h476l-18 -112h-477zM111 451h414l-18 -109h-413zM21 112h501l-17 -112h-502z" />
    <glyph glyph-name="Omicron" unicode="&#x39f;" horiz-adv-x="737" 
d="M181.5 29.5q-63.5 41.5 -96.5 114.5t-33 165q0 122 48.5 228.5t137 170.5t202.5 64q86 0 149.5 -41.5t96.5 -114.5t33 -165q0 -123 -49 -229.5t-137.5 -170t-201.5 -63.5q-86 0 -149.5 41.5zM469 158.5q53 48.5 82.5 126.5t29.5 161q0 95 -41 149.5t-115 54.5
q-70 0 -123.5 -49t-82.5 -126.5t-29 -159.5q0 -95 41.5 -150t115.5 -55q69 0 122 48.5z" />
    <glyph glyph-name="Pi" unicode="&#x3a0;" horiz-adv-x="638" 
d="M134 760h510l-106 -760h-135l91 648h-241l-90 -648h-135z" />
    <glyph glyph-name="Rho" unicode="&#x3a1;" horiz-adv-x="579" 
d="M481.5 732.5q49.5 -27.5 74.5 -75t25 -106.5q0 -96 -34 -169t-99.5 -113.5t-155.5 -40.5h-101l-32 -228h-132l107 760h228q70 0 119.5 -27.5zM403 393q44 56 44 142q0 57 -28.5 86.5t-88.5 29.5h-79l-45 -314h77q76 0 120 56z" />
    <glyph glyph-name="Sigma" unicode="&#x3a3;" horiz-adv-x="525" 
d="M227 407l-147 353h489l-16 -112h-292l104 -244l-179 -292h308l-17 -112h-504z" />
    <glyph glyph-name="Tau" unicode="&#x3a4;" horiz-adv-x="529" 
d="M562 648h-175l-91 -648h-134l91 648h-176l15 112h486z" />
    <glyph glyph-name="Upsilon" unicode="&#x3a5;" horiz-adv-x="539" 
d="M615 760l-428 -760h-141l180 320l-152 440h136l89 -309l174 309h142z" />
    <glyph glyph-name="Phi" unicode="&#x3a6;" horiz-adv-x="807" 
d="M749.5 263q-43.5 -77 -122 -121t-181.5 -53l-12 -89h-134l12 88q-121 12 -190.5 83t-69.5 183q0 100 45 178t123.5 124t178.5 55l7 49h134l-7 -49q119 -13 189.5 -85t70.5 -183q0 -103 -43.5 -180zM218 248.5q38 -43.5 109 -53.5l57 407q-61 -5 -107.5 -37t-71.5 -84.5
t-25 -116.5q0 -72 38 -115.5zM610 269.5q56 63.5 56 160.5q0 72 -40 117t-108 55l-57 -407q93 11 149 74.5z" />
    <glyph glyph-name="Chi" unicode="&#x3a7;" horiz-adv-x="564" 
d="M370 386l154 -386h-139l-96 272l-176 -272h-148l268 392l-147 368h139l88 -261l165 261h149z" />
    <glyph glyph-name="Psi" unicode="&#x3a8;" horiz-adv-x="746" 
d="M771 760l-31 -221q-19 -144 -96.5 -228.5t-207.5 -88.5l-31 -222h-134l31 224q-103 5 -161 73t-58 181q0 35 4 66l29 216h131l-30 -222q-4 -25 -4 -57q0 -132 106 -140l58 419h134l-59 -421q134 7 157 194l31 227h131z" />
    <glyph glyph-name="uni03A9" unicode="&#x3a9;" horiz-adv-x="748" 
d="M684 264.5q-46 -93.5 -128 -152.5h130l-17 -112h-279l19 120q60 28 101 80.5t60.5 116.5t19.5 127q0 90 -44 148t-124 58q-66 0 -118 -41t-80.5 -112t-28.5 -157q0 -72 27.5 -131.5t81.5 -88.5l-19 -120h-275l17 112h128q-47 43 -71.5 104.5t-24.5 133.5q0 122 50 218.5
t136.5 150t192.5 53.5q88 0 154.5 -40.5t102 -110t35.5 -154.5q0 -109 -46 -202.5z" />
    <glyph glyph-name="Iotadieresis" unicode="&#x3aa;" horiz-adv-x="260" 
d="M134 760h134l-107 -760h-134zM81 878.5q-20 20.5 -20 49.5t20 49.5t49 20.5t49.5 -20.5t20.5 -49.5t-20.5 -49.5t-49.5 -20.5t-49 20.5zM268.5 878.5q-20.5 20.5 -20.5 49.5t20.5 49.5t49.5 20.5q28 0 48 -20.5t20 -49.5t-20 -49.5t-48 -20.5q-29 0 -49.5 20.5z" />
    <glyph glyph-name="Upsilondieresis" unicode="&#x3ab;" horiz-adv-x="539" 
d="M615 760l-428 -760h-141l180 320l-152 440h136l89 -309l174 309h142zM253 878.5q-20 20.5 -20 49.5t20 49.5t49 20.5t49.5 -20.5t20.5 -49.5t-20.5 -49.5t-49.5 -20.5t-49 20.5zM440.5 878.5q-20.5 20.5 -20.5 49.5t20.5 49.5t49.5 20.5q28 0 48 -20.5t20 -49.5
t-20 -49.5t-48 -20.5q-29 0 -49.5 20.5z" />
    <glyph glyph-name="alphatonos" unicode="&#x3ac;" horiz-adv-x="589" 
d="M510.5 102.5q8.5 -6.5 28.5 -6.5h9l-8 -104q-30 -4 -50 -4q-55 0 -81.5 21t-31.5 65l-2 21q-33 -55 -76.5 -81t-93.5 -26q-48 0 -86 27.5t-59.5 78t-21.5 118.5q0 93 33.5 165t87 111.5t112.5 39.5q56 0 92 -27.5t51 -73.5l13 90h126l-50 -361q-1 -10 -1 -27
q0 -20 8.5 -26.5zM329 122q31 27 49 71.5t18 96.5q0 59 -24.5 95t-66.5 36q-38 0 -69 -26.5t-49 -71t-18 -96.5q0 -60 25 -96t69 -36q35 0 66 27zM346 588h-82l84 172h135z" />
    <glyph glyph-name="epsilontonos" unicode="&#x3ad;" horiz-adv-x="474" 
d="M67 26.5q-46 38.5 -46 97.5q0 48 28.5 89t80.5 57v3q-31 7 -50.5 30.5t-19.5 55.5q0 44 26.5 83t76 62.5t114.5 23.5q73 0 121.5 -38.5t56.5 -98.5l-125 -27q-2 24 -20.5 40.5t-51.5 16.5q-39 0 -59.5 -19.5t-20.5 -45.5q0 -22 15.5 -33.5t38.5 -11.5h55l-12 -79h-46
q-43 0 -63.5 -21t-20.5 -56q0 -27 19 -44t58 -17t66.5 21t34.5 50l123 -11q-21 -79 -87 -122.5t-159 -43.5q-87 0 -133 38.5zM310 588h-82l84 172h135z" />
    <glyph glyph-name="etatonos" unicode="&#x3ae;" horiz-adv-x="546" 
d="M470.5 484q33.5 -44 33.5 -115q0 -25 -5 -60l-71 -507h-132l70 493q4 30 4 49q0 42 -15 62.5t-48 20.5q-43 0 -73.5 -45t-40.5 -105l-39 -277h-131l72 517h117l1 -78q58 89 159 89q65 0 98.5 -44zM357 588h-82l84 172h135z" />
    <glyph glyph-name="iotatonos" unicode="&#x3af;" horiz-adv-x="277" 
d="M73 16q-31 28 -31 88q0 20 5 57l48 356h130l-46 -346q-3 -22 -3 -33q0 -24 10 -33t39 -9h10l-9 -104q-32 -4 -53 -4q-69 0 -100 28zM199 588h-82l84 172h135z" />
    <glyph glyph-name="upsilondieresistonos" unicode="&#x3b0;" horiz-adv-x="536" 
d="M97 33.5q-51 45.5 -51 139.5q0 27 4 60l40 284h131l-41 -294q-3 -22 -3 -43q0 -85 70 -85q81 0 99 126l41 296h132l-42 -298q-16 -113 -79 -172t-160 -59q-90 0 -141 45.5zM301 779h126l-115 -190h-75zM132 637.5q-19 19.5 -19 46.5q0 28 19 47t47 19q26 0 45 -19t19 -47
q0 -27 -19 -46.5t-45 -19.5q-28 0 -47 19.5zM422 637.5q-19 19.5 -19 46.5q0 28 18.5 47t46.5 19q27 0 45.5 -19t18.5 -47q0 -27 -18.5 -46.5t-45.5 -19.5t-46 19.5z" />
    <glyph glyph-name="alpha" unicode="&#x3b1;" horiz-adv-x="589" 
d="M510.5 102.5q8.5 -6.5 28.5 -6.5h9l-8 -104q-30 -4 -50 -4q-55 0 -81.5 21t-31.5 65l-2 21q-33 -55 -76.5 -81t-93.5 -26q-48 0 -86 27.5t-59.5 78t-21.5 118.5q0 93 33.5 165t87 111.5t112.5 39.5q56 0 92 -27.5t51 -73.5l13 90h126l-50 -361q-1 -10 -1 -27
q0 -20 8.5 -26.5zM329 122q31 27 49 71.5t18 96.5q0 59 -24.5 95t-66.5 36q-38 0 -69 -26.5t-49 -71t-18 -96.5q0 -60 25 -96t69 -36q35 0 66 27z" />
    <glyph glyph-name="beta" unicode="&#x3b2;" horiz-adv-x="564" 
d="M97 520q16 115 82.5 183.5t169.5 68.5q83 0 130 -43t47 -113q0 -60 -31.5 -108t-87.5 -61q58 -15 89.5 -62.5t31.5 -118.5q0 -70 -29.5 -134t-83 -104t-123.5 -40q-47 0 -79 23t-48 64l-39 -273h-130zM363.5 147q35.5 51 35.5 127q0 60 -29.5 88.5t-78.5 28.5h-15l13 91
h15q34 0 54 19.5t28 45.5t8 45q0 34 -18 53t-47 19q-48 0 -72 -35.5t-31 -87.5l-40 -289q-2 -14 -2 -34q0 -53 22.5 -87.5t65.5 -34.5q56 0 91.5 51z" />
    <glyph glyph-name="gamma" unicode="&#x3b3;" horiz-adv-x="492" 
d="M521 517l-241 -478l-34 -237h-131l34 234l-106 481h133l55 -357l156 357h134z" />
    <glyph glyph-name="delta" unicode="&#x3b4;" horiz-adv-x="550" 
d="M128.5 16q-45.5 28 -69 75.5t-23.5 106.5q0 67 21 126t63.5 97.5t104.5 46.5q29 8 61 8l-147 207l12 77h392l-16 -103h-216l129 -175q37 -50 53.5 -96.5t16.5 -102.5q0 -89 -34.5 -156t-96.5 -103t-142 -36q-63 0 -108.5 28zM318 121.5q29 24.5 45.5 64.5t16.5 87
q0 51 -20.5 85.5t-63.5 34.5q-38 0 -68 -26.5t-46.5 -69t-16.5 -87.5q0 -49 24 -81t64 -32q36 0 65 24.5z" />
    <glyph glyph-name="epsilon" unicode="&#x3b5;" horiz-adv-x="474" 
d="M67 26.5q-46 38.5 -46 97.5q0 48 28.5 89t80.5 57v3q-31 7 -50.5 30.5t-19.5 55.5q0 44 26.5 83t76 62.5t114.5 23.5q73 0 121.5 -38.5t56.5 -98.5l-125 -27q-2 24 -20.5 40.5t-51.5 16.5q-39 0 -59.5 -19.5t-20.5 -45.5q0 -22 15.5 -33.5t38.5 -11.5h55l-12 -79h-46
q-43 0 -63.5 -21t-20.5 -56q0 -27 19 -44t58 -17t66.5 21t34.5 50l123 -11q-21 -79 -87 -122.5t-159 -43.5q-87 0 -133 38.5z" />
    <glyph glyph-name="zeta" unicode="&#x3b6;" horiz-adv-x="413" 
d="M166 -125q23 30 41 60.5t18 43.5q0 8 -5.5 15.5t-21.5 16.5l-38 23q-51 33 -76.5 54t-39.5 47.5t-14 64.5q0 100 99 227.5t220 230.5h-235l23 102h373l-11 -72q-153 -156 -244.5 -271t-91.5 -185q0 -32 17 -55.5t58 -48.5l48 -28q40 -24 58 -44t18 -43q0 -36 -39.5 -93.5
t-77.5 -91.5z" />
    <glyph glyph-name="eta" unicode="&#x3b7;" horiz-adv-x="546" 
d="M470.5 484q33.5 -44 33.5 -115q0 -25 -5 -60l-71 -507h-132l70 493q4 30 4 49q0 42 -15 62.5t-48 20.5q-43 0 -73.5 -45t-40.5 -105l-39 -277h-131l72 517h117l1 -78q58 89 159 89q65 0 98.5 -44z" />
    <glyph glyph-name="theta" unicode="&#x3b8;" horiz-adv-x="564" 
d="M499 699q48 -73 48 -202q0 -142 -35.5 -257.5t-104 -183t-163.5 -67.5q-101 0 -147 73.5t-46 200.5q0 135 34 251.5t102 187t163 70.5q101 0 149 -73zM251 603q-36 -62 -56 -160h222q2 38 2 56q0 79 -20.5 122.5t-61.5 43.5q-50 0 -86 -62zM349 164.5q38 68.5 56 174.5
h-224q-3 -37 -3 -73q0 -170 77 -170q56 0 94 68.5z" />
    <glyph glyph-name="iota" unicode="&#x3b9;" horiz-adv-x="277" 
d="M73 16q-31 28 -31 88q0 20 5 57l48 356h130l-46 -346q-3 -22 -3 -33q0 -24 10 -33t39 -9h10l-9 -104q-32 -4 -53 -4q-69 0 -100 28z" />
    <glyph glyph-name="kappa" unicode="&#x3ba;" horiz-adv-x="486" 
d="M318 321l133 -321h-130l-90 231l-55 -58l-24 -173h-129l72 517h129l-26 -188l162 188h145z" />
    <glyph glyph-name="lambda" unicode="&#x3bb;" horiz-adv-x="495" 
d="M469 90l-7 -91q-38 -11 -67 -11q-43 0 -66 22t-29 69l-45 274l-155 -353h-138l259 500l-20 117q-4 27 -14 36.5t-36 9.5h-15l7 104q37 5 68 5q48 0 75.5 -26.5t37.5 -87.5l97 -530q4 -23 12 -30.5t27 -7.5h9z" />
    <glyph glyph-name="uni03BC" unicode="&#x3bc;" horiz-adv-x="553" 
d="M531 517l-73 -517h-118l1 76q-32 -43 -73 -65.5t-89 -22.5q-9 0 -27 2l-26 -188h-132l52 363l3 27l46 325h131l-42 -300q-4 -32 -4 -44q0 -83 66 -83q44 0 76 47.5t40 108.5l38 271h131z" />
    <glyph glyph-name="nu" unicode="&#x3bd;" horiz-adv-x="480" 
d="M521 517l-250 -517h-136l-104 517h133l51 -406l162 406h144z" />
    <glyph glyph-name="xi" unicode="&#x3be;" horiz-adv-x="446" 
d="M216 -132q21 30 37 62.5t16 47.5q0 19 -29 32l-60 26q-75 30 -113.5 72.5t-38.5 106.5q0 74 48 133.5t122 79.5q-53 13 -82.5 50t-29.5 87q0 61 32.5 108.5t85 73t111.5 25.5q79 0 128 -45t48 -119l-121 -14q0 32 -16.5 51.5t-48.5 19.5q-40 0 -64.5 -28.5t-24.5 -73.5
q0 -47 27.5 -69.5t75.5 -22.5h68l-15 -97h-89q-39 0 -67.5 -19.5t-42.5 -50.5t-14 -64q0 -37 22 -61.5t69 -43.5l78 -37q40 -17 56 -35.5t16 -43.5q0 -41 -35 -100t-67 -93z" />
    <glyph glyph-name="omicron" unicode="&#x3bf;" horiz-adv-x="560" 
d="M129 17.5q-46 29.5 -69 79.5t-23 110q0 89 34 162t98 116t149 43q66 0 112.5 -29.5t69.5 -79t23 -109.5q0 -89 -34 -162.5t-98 -116.5t-150 -43q-66 0 -112 29.5zM328 126q31 31 48 79t17 97q0 57 -24 88.5t-66 31.5q-41 0 -72 -31t-48 -79.5t-17 -97.5q0 -56 24.5 -87.5
t66.5 -31.5q40 0 71 31z" />
    <glyph glyph-name="pi" unicode="&#x3c0;" horiz-adv-x="555" 
d="M95 517h436l-71 -517h-131l57 413h-175l-58 -413h-131z" />
    <glyph glyph-name="rho" unicode="&#x3c1;" horiz-adv-x="573" 
d="M417 30.5q56 42.5 87.5 115t31.5 158.5q0 63 -23.5 114t-69.5 80.5t-111 29.5q-73 0 -132.5 -35.5t-98.5 -101t-51 -153.5l-61 -436h131l37 271q18 -42 56 -63.5t80 -21.5q68 0 124 42.5zM381 384.5q24 -35.5 24 -92.5q0 -56 -18.5 -101t-49.5 -70t-66 -25
q-45 0 -68.5 35.5t-23.5 89.5q0 57 18 102.5t48.5 71t66.5 25.5q45 0 69 -35.5z" />
    <glyph glyph-name="uni03C2" unicode="&#x3c2;" horiz-adv-x="492" 
d="M186 -125q25 32 43 61.5t18 43.5q0 17 -28 33l-49 26q-68 38 -99 82t-31 112q0 85 34 152.5t93.5 105t133.5 37.5q85 0 135 -45.5t50 -123.5l-126 -12q-1 34 -18.5 53.5t-53.5 19.5q-32 0 -59 -20.5t-43 -60t-16 -92.5q0 -37 17.5 -61.5t59.5 -47.5l68 -39
q37 -22 50.5 -40.5t13.5 -42.5q0 -41 -39 -98t-75 -90z" />
    <glyph glyph-name="sigma" unicode="&#x3c3;" horiz-adv-x="545" 
d="M130.5 16.5q-45.5 28.5 -70 78.5t-24.5 114q0 87 34.5 157t97.5 110.5t146 40.5h258l-16 -104h-106q28 -22 41.5 -58t13.5 -78q0 -81 -33.5 -147t-94.5 -104t-140 -38q-61 0 -106.5 28.5zM317 119q30 24 47.5 67.5t17.5 100.5q0 59 -23 92t-63 33q-35 0 -65.5 -24
t-48.5 -68t-18 -100q0 -59 23.5 -92t63.5 -33q36 0 66 24z" />
    <glyph glyph-name="tau" unicode="&#x3c4;" horiz-adv-x="404" 
d="M134 18q-33 30 -33 95q0 22 6 58l33 242h-115l23 104h371l-16 -104h-132l-32 -237q-4 -26 -4 -39q0 -25 11 -34.5t36 -9.5q23 0 61 12l-8 -100q-53 -17 -103 -17q-65 0 -98 30z" />
    <glyph glyph-name="upsilon" unicode="&#x3c5;" horiz-adv-x="536" 
d="M97 33.5q-51 45.5 -51 139.5q0 27 4 60l40 284h131l-41 -294q-3 -22 -3 -43q0 -85 70 -85q81 0 99 126l41 296h132l-42 -298q-16 -113 -79 -172t-160 -59q-90 0 -141 45.5z" />
    <glyph glyph-name="phi" unicode="&#x3c6;" horiz-adv-x="702" 
d="M247 -11q-68 4 -115.5 37.5t-71 84t-23.5 106.5q0 105 57 183.5t157 104.5l23 -87q-54 -24 -84 -75.5t-30 -114.5q0 -59 26 -97.5t75 -43.5l60 430h93q120 0 185 -61.5t65 -163.5q0 -86 -38.5 -152.5t-104 -105t-143.5 -45.5l-26 -187h-131zM466.5 122q33.5 27 53.5 69.5
t20 92.5q0 56 -25 94t-76 42l-46 -330q40 5 73.5 32z" />
    <glyph glyph-name="chi" unicode="&#x3c7;" horiz-adv-x="461" 
d="M282.5 -188q-23.5 22 -31.5 66l-45 212l-143 -288h-137l232 391l-51 183q-8 27 -19.5 38.5t-36.5 11.5h-9l10 97q33 5 66 5q44 0 68 -21.5t31 -70.5l29 -151l114 232h138l-201 -334l66 -252q6 -22 16 -28.5t30 -6.5h8l-6 -96q-33 -10 -71 -10q-34 0 -57.5 22z" />
    <glyph glyph-name="psi" unicode="&#x3c8;" horiz-adv-x="690" 
d="M242 -10q-86 7 -139.5 63.5t-53.5 147.5q0 18 4 50l37 266h127l-40 -287q-2 -28 -2 -43q0 -40 21.5 -64t61.5 -29l58 423h130l-58 -423q50 7 80 41.5t37 90.5l40 291h127l-39 -281q-14 -109 -82.5 -174.5t-178.5 -71.5l-27 -188h-130z" />
    <glyph glyph-name="omega" unicode="&#x3c9;" horiz-adv-x="737" 
d="M73 40.5q-36 51.5 -36 141.5q0 142 63.5 238.5t199.5 107.5l2 -101q-65 -10 -100 -76t-35 -157q0 -98 57 -98q31 0 52.5 29.5t26.5 68.5l19 144h113l-17 -130q-3 -19 -3 -32q0 -34 13.5 -57t39.5 -23q45 0 72 58.5t27 139.5q0 57 -21 93t-65 42l33 99q92 -9 137.5 -72
t45.5 -156q0 -82 -26 -153t-77 -114.5t-122 -43.5q-50 0 -86 33t-40 86q-22 -53 -65 -86t-97 -33q-75 0 -111 51.5z" />
    <glyph glyph-name="iotadieresis" unicode="&#x3ca;" horiz-adv-x="277" 
d="M73 16q-31 28 -31 88q0 20 5 57l48 356h130l-46 -346q-3 -22 -3 -33q0 -24 10 -33t39 -9h10l-9 -104q-32 -4 -53 -4q-69 0 -100 28zM40 635.5q-20 20.5 -20 49.5t20 49.5t49 20.5t49.5 -20.5t20.5 -49.5t-20.5 -49.5t-49.5 -20.5t-49 20.5zM227.5 635.5
q-20.5 20.5 -20.5 49.5t20.5 49.5t49.5 20.5q28 0 48 -20.5t20 -49.5t-20 -49.5t-48 -20.5q-29 0 -49.5 20.5z" />
    <glyph glyph-name="upsilondieresis" unicode="&#x3cb;" horiz-adv-x="536" 
d="M97 33.5q-51 45.5 -51 139.5q0 27 4 60l40 284h131l-41 -294q-3 -22 -3 -43q0 -85 70 -85q81 0 99 126l41 296h132l-42 -298q-16 -113 -79 -172t-160 -59q-90 0 -141 45.5zM183 635.5q-20 20.5 -20 49.5t20 49.5t49 20.5t49.5 -20.5t20.5 -49.5t-20.5 -49.5t-49.5 -20.5
t-49 20.5zM370.5 635.5q-20.5 20.5 -20.5 49.5t20.5 49.5t49.5 20.5q28 0 48 -20.5t20 -49.5t-20 -49.5t-48 -20.5q-29 0 -49.5 20.5z" />
    <glyph glyph-name="omicrontonos" unicode="&#x3cc;" horiz-adv-x="560" 
d="M129 17.5q-46 29.5 -69 79.5t-23 110q0 89 34 162t98 116t149 43q66 0 112.5 -29.5t69.5 -79t23 -109.5q0 -89 -34 -162.5t-98 -116.5t-150 -43q-66 0 -112 29.5zM328 126q31 31 48 79t17 97q0 57 -24 88.5t-66 31.5q-41 0 -72 -31t-48 -79.5t-17 -97.5q0 -56 24.5 -87.5
t66.5 -31.5q40 0 71 31zM386 588h-82l84 172h135z" />
    <glyph glyph-name="upsilontonos" unicode="&#x3cd;" horiz-adv-x="536" 
d="M97 33.5q-51 45.5 -51 139.5q0 27 4 60l40 284h131l-41 -294q-3 -22 -3 -43q0 -85 70 -85q81 0 99 126l41 296h132l-42 -298q-16 -113 -79 -172t-160 -59q-90 0 -141 45.5zM342 588h-82l84 172h135z" />
    <glyph glyph-name="omegatonos" unicode="&#x3ce;" horiz-adv-x="737" 
d="M73 40.5q-36 51.5 -36 141.5q0 142 63.5 238.5t199.5 107.5l2 -101q-65 -10 -100 -76t-35 -157q0 -98 57 -98q31 0 52.5 29.5t26.5 68.5l19 144h113l-17 -130q-3 -19 -3 -32q0 -34 13.5 -57t39.5 -23q45 0 72 58.5t27 139.5q0 57 -21 93t-65 42l33 99q92 -9 137.5 -72
t45.5 -156q0 -82 -26 -153t-77 -114.5t-122 -43.5q-50 0 -86 33t-40 86q-22 -53 -65 -86t-97 -33q-75 0 -111 51.5zM444 588h-82l84 172h135z" />
    <glyph glyph-name="uni0400" unicode="&#x400;" horiz-adv-x="495" 
d="M252 648l-28 -198h240l-15 -109h-240l-32 -229h249l-16 -112h-383l107 760h381l-16 -112h-247zM279 1004l84 -171h-84l-132 171h132z" />
    <glyph glyph-name="uni0401" unicode="&#x401;" horiz-adv-x="495" 
d="M252 648l-28 -198h240l-15 -109h-240l-32 -229h249l-16 -112h-383l107 760h381l-16 -112h-247zM204 878.5q-20 20.5 -20 49.5t20 49.5t49 20.5t49.5 -20.5t20.5 -49.5t-20.5 -49.5t-49.5 -20.5t-49 20.5zM391.5 878.5q-20.5 20.5 -20.5 49.5t20.5 49.5t49.5 20.5
q28 0 48 -20.5t20 -49.5t-20 -49.5t-48 -20.5q-29 0 -49.5 20.5z" />
    <glyph glyph-name="uni0402" unicode="&#x402;" horiz-adv-x="709" 
d="M577.5 451q48.5 -26 74 -70.5t25.5 -99.5q0 -78 -32 -142t-90.5 -103.5t-134.5 -47.5v105q57 12 89.5 60.5t32.5 113.5q0 49 -28.5 73.5t-78.5 24.5h-111l-51 -365h-133l90 648h-154l18 112h497l-18 -112h-210l-23 -171h122q67 0 115.5 -26z" />
    <glyph glyph-name="uni0403" unicode="&#x403;" horiz-adv-x="447" 
d="M482 648h-230l-90 -648h-134l106 760h365zM371 833h-84l84 171h132z" />
    <glyph glyph-name="uni0404" unicode="&#x404;" horiz-adv-x="722" 
d="M189.5 31.5q-65.5 43.5 -101 118.5t-35.5 167q0 124 51 228.5t139 165.5t192 61q77 0 138 -37.5t96.5 -101.5t42.5 -142l-129 -6q-10 79 -51.5 123.5t-105.5 44.5q-80 0 -141.5 -64.5t-86.5 -163.5h284l-14 -94h-283v-12q0 -96 42.5 -154t116.5 -58q67 0 122.5 46.5
t87.5 126.5l129 -19q-47 -127 -137.5 -200t-205.5 -73q-85 0 -150.5 43.5z" />
    <glyph glyph-name="uni0405" unicode="&#x405;" horiz-adv-x="594" 
d="M96.5 45q-57.5 57 -61.5 158q-1 6 -1 18l137 8v-21q0 -61 31 -87.5t76 -26.5q56 0 92.5 37.5t36.5 94.5q0 37 -20 58.5t-55 36.5l-65 27q-75 32 -119.5 80.5t-44.5 116.5t32.5 119.5t91.5 79.5t134 28q116 0 171 -62.5t55 -165.5l-138 -8q1 7 1 20q0 52 -26.5 81
t-73.5 29q-49 0 -78.5 -30t-29.5 -77q0 -32 19 -55.5t61 -41.5l67 -28q157 -65 157 -190q0 -77 -35.5 -135t-99 -89.5t-144.5 -31.5q-113 0 -170.5 57z" />
    <glyph glyph-name="uni0406" unicode="&#x406;" horiz-adv-x="260" 
d="M134 760h134l-107 -760h-134z" />
    <glyph glyph-name="uni0407" unicode="&#x407;" horiz-adv-x="260" 
d="M134 760h134l-107 -760h-134zM81 878.5q-20 20.5 -20 49.5t20 49.5t49 20.5t49.5 -20.5t20.5 -49.5t-20.5 -49.5t-49.5 -20.5t-49 20.5zM268.5 878.5q-20.5 20.5 -20.5 49.5t20.5 49.5t49.5 20.5q28 0 48 -20.5t20 -49.5t-20 -49.5t-48 -20.5q-29 0 -49.5 20.5z" />
    <glyph glyph-name="uni0408" unicode="&#x408;" horiz-adv-x="552" 
d="M123.5 16q-44.5 28 -70 82t-25.5 129l134 9v-21q0 -53 22 -79t58 -26q43 0 75 36t42 108l72 506h134l-71 -501q-20 -137 -91.5 -204t-178.5 -67q-56 0 -100.5 28z" />
    <glyph glyph-name="uni0409" unicode="&#x409;" horiz-adv-x="948" 
d="M821 490q48 -29 72.5 -78t24.5 -109q0 -94 -34 -162.5t-97 -104.5t-147 -36h-241l91 651h-7l-373 -651h-141l450 760h219l-34 -241h102q67 0 115 -29zM742 161.5q41 52.5 41 135.5q0 52 -26 82.5t-81 30.5h-87l-42 -301h83q71 0 112 52.5z" />
    <glyph glyph-name="uni040A" unicode="&#x40a;" horiz-adv-x="919" 
d="M792 490q48 -29 72.5 -78t24.5 -109q0 -94 -34 -162.5t-97 -104.5t-147 -36h-241l47 338h-208l-47 -338h-134l106 760h134l-43 -310h208l43 310h133l-34 -241h102q67 0 115 -29zM713 161.5q41 52.5 41 135.5q0 52 -26 82.5t-81 30.5h-87l-42 -301h83q71 0 112 52.5z" />
    <glyph glyph-name="uni040B" unicode="&#x40b;" horiz-adv-x="707" 
d="M611 423.5q57 -53.5 57 -142.5q0 -13 -4 -53l-30 -228h-134l29 215q5 37 5 55q0 51 -24 73t-79 22h-106l-51 -365h-134l90 648h-154l18 112h497l-18 -112h-209l-23 -171h118q95 0 152 -53.5z" />
    <glyph glyph-name="uni040C" unicode="&#x40c;" horiz-adv-x="573" 
d="M372 437l162 -437h-131l-113 334l-101 -126l-29 -208h-133l107 760h133l-49 -351l261 351h150zM407 833h-84l84 171h132z" />
    <glyph glyph-name="uni040D" unicode="&#x40d;" horiz-adv-x="635" 
d="M641 760l-106 -760h-131l76 542l-321 -542h-131l106 760h131l-75 -538l320 538h131zM339 1004l84 -171h-84l-132 171h132z" />
    <glyph glyph-name="uni040E" unicode="&#x40e;" horiz-adv-x="543" 
d="M617 760l-408 -760h-141l147 275l-141 485h134l85 -341l183 341h141zM264 880.5q-36 46.5 -35 127.5h77q-3 -95 67 -95q61 0 78 95h76q-11 -91 -55 -132.5t-109 -41.5q-63 0 -99 46.5z" />
    <glyph glyph-name="uni040F" unicode="&#x40f;" horiz-adv-x="619" 
d="M625 760l-106 -760h-181l-28 -153h-111l14 153h-185l106 760h133l-90 -648h225l90 648h133z" />
    <glyph glyph-name="uni0410" unicode="&#x410;" horiz-adv-x="575" 
d="M391 123h-236l-45 -123h-145l317 760h153l102 -760h-135zM382 226l-37 411l-151 -411h188z" />
    <glyph glyph-name="uni0411" unicode="&#x411;" horiz-adv-x="574" 
d="M444 475.5q48 -27.5 73.5 -75.5t25.5 -106q0 -91 -35.5 -157.5t-98.5 -101.5t-144 -35h-237l106 760h424l-17 -111h-289l-21 -146h100q65 0 113 -27.5zM368.5 161q39.5 49 39.5 130q0 107 -106 107h-85l-40 -286h83q69 0 108.5 49z" />
    <glyph glyph-name="uni0412" unicode="&#x412;" horiz-adv-x="554" 
d="M503 342.5q23 -38.5 23 -86.5q0 -73 -32 -131t-89.5 -91.5t-133.5 -33.5h-244l107 760h236q58 0 99 -21.5t62 -58.5t21 -82q0 -64 -29.5 -116t-83.5 -81q41 -20 64 -58.5zM250 657l-29 -213h83q56 0 87 37.5t31 94.5q0 37 -20.5 59t-64.5 22h-87zM362 148.5
q33 42.5 33 104.5q0 42 -22 68t-65 26h-101l-34 -241h99q57 0 90 42.5z" />
    <glyph glyph-name="uni0413" unicode="&#x413;" horiz-adv-x="447" 
d="M482 648h-230l-90 -648h-134l106 760h365z" />
    <glyph glyph-name="uni0414" unicode="&#x414;" horiz-adv-x="635" 
d="M605 112l-36 -252h-112l14 140h-380l-27 -140h-112l36 252h52l271 648h151l88 -648h55zM418 112l-49 498l-189 -498h238z" />
    <glyph glyph-name="uni0415" unicode="&#x415;" horiz-adv-x="495" 
d="M252 648l-28 -198h240l-15 -109h-240l-32 -229h249l-16 -112h-383l107 760h381l-16 -112h-247z" />
    <glyph glyph-name="uni0416" unicode="&#x416;" horiz-adv-x="873" 
d="M669 447l159 -447h-132l-111 347l-85 -102l-34 -245h-130l37 262l-55 99l-202 -361h-144l283 478l-154 282h136l158 -340l47 340h130l-48 -347l250 347h155z" />
    <glyph glyph-name="uni0417" unicode="&#x417;" horiz-adv-x="531" 
d="M481 341q21 -40 21 -87q0 -82 -33.5 -142t-94.5 -92t-144 -32q-103 0 -160 51.5t-57 136.5q0 13 2 37l129 3q-2 -18 -2 -27q0 -44 23.5 -68.5t68.5 -24.5q58 0 95.5 44.5t37.5 113.5q0 95 -103 95h-98l15 102h80q59 0 96 38t37 97q0 36 -21 57t-63 21q-52 0 -81 -30.5
t-38 -81.5l-124 11q14 93 80 151t178 58q101 0 152.5 -49t51.5 -122q0 -65 -28 -117t-78 -81q37 -22 58 -62z" />
    <glyph glyph-name="uni0418" unicode="&#x418;" horiz-adv-x="635" 
d="M641 760l-106 -760h-131l76 542l-321 -542h-131l106 760h131l-75 -538l320 538h131z" />
    <glyph glyph-name="uni0419" unicode="&#x419;" horiz-adv-x="635" 
d="M641 760l-106 -760h-131l76 542l-321 -542h-131l106 760h131l-75 -538l320 538h131zM305 880.5q-36 46.5 -35 127.5h77q-3 -95 67 -95q61 0 78 95h76q-11 -91 -55 -132.5t-109 -41.5q-63 0 -99 46.5z" />
    <glyph glyph-name="uni041A" unicode="&#x41a;" horiz-adv-x="573" 
d="M372 437l162 -437h-131l-113 334l-101 -126l-29 -208h-133l107 760h133l-49 -351l261 351h150z" />
    <glyph glyph-name="uni041B" unicode="&#x41b;" horiz-adv-x="575" 
d="M405 0l-64 613l-234 -613h-142l316 760h153l103 -760h-132z" />
    <glyph glyph-name="uni041C" unicode="&#x41c;" horiz-adv-x="775" 
d="M746 760l-47 -760h-126l45 575l-232 -575h-71l-71 572l-115 -572h-126l166 760h143l65 -550l220 550h149z" />
    <glyph glyph-name="uni041D" unicode="&#x41d;" horiz-adv-x="624" 
d="M632 760l-107 -760h-134l48 338h-230l-48 -338h-134l107 760h134l-44 -310h230l44 310h134z" />
    <glyph glyph-name="uni041E" unicode="&#x41e;" horiz-adv-x="737" 
d="M181.5 29.5q-63.5 41.5 -96.5 114.5t-33 165q0 122 48.5 228.5t137 170.5t202.5 64q86 0 149.5 -41.5t96.5 -114.5t33 -165q0 -123 -49 -229.5t-137.5 -170t-201.5 -63.5q-86 0 -149.5 41.5zM469 158.5q53 48.5 82.5 126.5t29.5 161q0 95 -41 149.5t-115 54.5
q-70 0 -123.5 -49t-82.5 -126.5t-29 -159.5q0 -95 41.5 -150t115.5 -55q69 0 122 48.5z" />
    <glyph glyph-name="uni041F" unicode="&#x41f;" horiz-adv-x="619" 
d="M519 0h-133l90 648h-225l-90 -648h-133l106 760h491z" />
    <glyph glyph-name="uni0420" unicode="&#x420;" horiz-adv-x="579" 
d="M481.5 732.5q49.5 -27.5 74.5 -75t25 -106.5q0 -96 -34 -169t-99.5 -113.5t-155.5 -40.5h-101l-32 -228h-132l107 760h228q70 0 119.5 -27.5zM403 393q44 56 44 142q0 57 -28.5 86.5t-88.5 29.5h-79l-45 -314h77q76 0 120 56z" />
    <glyph glyph-name="uni0421" unicode="&#x421;" horiz-adv-x="721" 
d="M630 697q71 -75 86 -203l-139 -12q-9 79 -46.5 123.5t-105.5 44.5q-70 0 -123.5 -49t-82.5 -126.5t-29 -159.5q0 -95 41.5 -150t115.5 -55q66 0 120.5 47t82.5 123l133 -14q-45 -130 -136.5 -204t-214.5 -74q-87 0 -150.5 41t-96.5 113.5t-33 166.5q0 122 48.5 228.5
t137 170.5t202.5 64q119 0 190 -75z" />
    <glyph glyph-name="uni0422" unicode="&#x422;" horiz-adv-x="529" 
d="M562 648h-175l-91 -648h-134l91 648h-176l15 112h486z" />
    <glyph glyph-name="uni0423" unicode="&#x423;" horiz-adv-x="543" 
d="M617 760l-408 -760h-141l147 275l-141 485h134l85 -341l183 341h141z" />
    <glyph glyph-name="uni0424" unicode="&#x424;" horiz-adv-x="778" 
d="M720.5 246.5q-42.5 -77.5 -118 -120t-173.5 -45.5l-13 -93h-130l13 94q-72 4 -128.5 35t-88.5 86t-32 127q0 106 42 183.5t117.5 120t173.5 45.5l13 93h131l-13 -94q72 -4 128.5 -35t88.5 -86t32 -127q0 -106 -42.5 -183.5zM581.5 261q49.5 62 49.5 166q0 133 -133 140
l-53 -373q87 5 136.5 67zM315 193l52 373q-86 -6 -135.5 -67.5t-49.5 -165.5q0 -132 133 -140z" />
    <glyph glyph-name="uni0425" unicode="&#x425;" horiz-adv-x="567" 
d="M372 386l154 -386h-139l-96 273l-176 -273h-148l268 392l-147 368h139l88 -261l164 261h150z" />
    <glyph glyph-name="uni0426" unicode="&#x426;" horiz-adv-x="633" 
d="M529 112h80l-38 -252h-111l13 140h-446l107 760h133l-90 -648h219l91 648h133z" />
    <glyph glyph-name="uni0427" unicode="&#x427;" horiz-adv-x="575" 
d="M581 760l-106 -760h-133l39 278h-93q-59 0 -107.5 26t-77 75t-28.5 115q0 15 4 49l30 217h134l-30 -215q-4 -30 -4 -45q0 -55 26.5 -82.5t82.5 -27.5h78l52 370h133z" />
    <glyph glyph-name="uni0428" unicode="&#x428;" horiz-adv-x="891" 
d="M897 760l-106 -760h-763l106 760h133l-90 -648h183l90 648h131l-90 -648h183l90 648h133z" />
    <glyph glyph-name="uni0429" unicode="&#x429;" horiz-adv-x="911" 
d="M807 112h79l-37 -252h-110l13 140h-724l106 760h133l-90 -648h183l90 648h131l-90 -648h183l90 648h133z" />
    <glyph glyph-name="uni042A" unicode="&#x42a;" horiz-adv-x="675" 
d="M548 490q48 -29 72.5 -78t24.5 -109q0 -94 -34 -162.5t-97 -104.5t-147 -36h-241l90 648h-140l18 112h271l-34 -241h102q67 0 115 -29zM469 161.5q41 52.5 41 135.5q0 52 -26 82.5t-81 30.5h-87l-42 -301h83q71 0 112 52.5z" />
    <glyph glyph-name="uni042B" unicode="&#x42b;" horiz-adv-x="816" 
d="M450 490q48 -29 72.5 -78t24.5 -109q0 -94 -34 -162.5t-97 -104.5t-147 -36h-241l106 760h133l-34 -241h102q67 0 115 -29zM823 760l-107 -760h-133l106 760h134zM371 161.5q41 52.5 41 135.5q0 52 -26 82.5t-81 30.5h-87l-42 -301h83q71 0 112 52.5z" />
    <glyph glyph-name="uni042C" unicode="&#x42c;" horiz-adv-x="577" 
d="M450 490q48 -29 72.5 -78t24.5 -109q0 -94 -34 -162.5t-97 -104.5t-147 -36h-241l106 760h133l-34 -241h102q67 0 115 -29zM371 161.5q41 52.5 41 135.5q0 52 -26 82.5t-81 30.5h-87l-42 -301h83q71 0 112 52.5z" />
    <glyph glyph-name="uni042D" unicode="&#x42d;" horiz-adv-x="722" 
d="M566.5 728.5q65.5 -43.5 101 -118.5t35.5 -167q0 -124 -51 -228.5t-139 -165.5t-192 -61q-77 0 -138 37.5t-96.5 101.5t-42.5 142l129 6q10 -79 51.5 -123.5t105.5 -44.5q80 0 141.5 64.5t86.5 163.5h-284l14 94h283v12q0 96 -42.5 154t-116.5 58q-67 0 -122.5 -46.5
t-87.5 -126.5l-129 19q47 127 137.5 200t205.5 73q85 0 150.5 -43.5z" />
    <glyph glyph-name="uni042E" unicode="&#x42e;" horiz-adv-x="958" 
d="M807.5 730q62.5 -42 97 -116t34.5 -166q0 -125 -48 -230.5t-132.5 -167.5t-189.5 -62q-81 0 -143.5 42t-97 116t-34.5 166q0 17 1 26h-86l-47 -338h-134l106 760h134l-43 -310h85q23 93 74 166t123.5 114.5t157.5 41.5q80 0 142.5 -42zM691 157.5q52 47.5 82 125
t30 164.5q0 94 -40.5 148.5t-105.5 54.5q-62 0 -114 -47.5t-82 -125t-30 -164.5q0 -94 40.5 -148.5t105.5 -54.5q62 0 114 47.5z" />
    <glyph glyph-name="uni042F" unicode="&#x42f;" horiz-adv-x="580" 
d="M480 0h-133l32 228h-89l-133 -228h-147l154 255q-48 27 -73.5 76t-25.5 113q0 96 34.5 167.5t99.5 110t153 38.5h234zM394 337l44 314h-82q-71 0 -113 -55t-42 -142q0 -55 26 -86t82 -31h85z" />
    <glyph glyph-name="uni0430" unicode="&#x430;" horiz-adv-x="577" 
d="M555 517l-73 -517h-120l4 83q-28 -45 -69.5 -70t-89.5 -25q-50 0 -89 27.5t-61 76.5t-22 111q0 80 31.5 155t87 122.5t123.5 47.5q50 0 85 -27t51 -70l12 86h130zM331 125.5q31 30.5 48 77.5t17 95q0 55 -24.5 89t-66.5 34q-40 0 -72 -30.5t-49 -77.5t-17 -95
q0 -58 24 -90.5t69 -32.5q40 0 71 30.5z" />
    <glyph glyph-name="uni0431" unicode="&#x431;" horiz-adv-x="560" 
d="M472 458.5q50 -59.5 50 -155.5q0 -91 -35.5 -162.5t-98.5 -112t-142 -40.5q-94 0 -147.5 64t-53.5 188q0 47 9 108q22 143 65 230.5t110 128.5t164 46l151 7l-27 -108l-123 -4q-63 -2 -103.5 -23.5t-65.5 -64t-44 -112.5q59 70 155 70q86 0 136 -59.5zM325 124.5
q32 29.5 50 77t18 99.5q0 56 -23.5 88t-62.5 32t-71.5 -27.5t-51 -74.5t-18.5 -102q0 -58 24 -90t64 -32q39 0 71 29.5z" />
    <glyph glyph-name="uni0432" unicode="&#x432;" horiz-adv-x="467" 
d="M413.5 229.5q15.5 -26.5 15.5 -59.5q0 -77 -49 -123.5t-144 -46.5h-214l73 517h213q67 0 102.5 -32t35.5 -83q0 -41 -19 -77t-58 -53q29 -16 44.5 -42.5zM306 327q21 21 21 55q0 43 -49 43h-71l-16 -119h62q32 0 53 21zM286.5 117.5q21.5 23.5 21.5 63.5q0 52 -60 52h-68
l-19 -139h66q38 0 59.5 23.5z" />
    <glyph glyph-name="uni0433" unicode="&#x433;" horiz-adv-x="363" 
d="M368 413h-158l-58 -413h-130l73 517h290z" />
    <glyph glyph-name="uni0434" unicode="&#x434;" horiz-adv-x="531" 
d="M501 104l-35 -234h-106l12 130h-284l-27 -130h-107l34 234h51l191 413h143l76 -413h52zM332 104l-40 312l-126 -312h166z" />
    <glyph glyph-name="uni0435" unicode="&#x435;" horiz-adv-x="551" 
d="M166 213q-2 -60 21.5 -94t68.5 -34q34 0 61.5 21.5t43.5 56.5l128 -12q-35 -78 -98 -120.5t-152 -42.5q-62 0 -108 29t-70.5 78t-24.5 108q0 91 33.5 165t96.5 117t147 43q97 0 149.5 -61t52.5 -161q0 -17 -3 -44.5t-7 -43.5h-338zM223 392.5q-32 -37.5 -46 -96.5h211
q1 8 1 23q0 54 -22 82.5t-65 28.5q-47 0 -79 -37.5z" />
    <glyph glyph-name="uni0436" unicode="&#x436;" horiz-adv-x="693" 
d="M523 314l130 -314h-123l-83 235l-53 -56l-25 -179h-119l27 190l-32 48l-142 -238h-136l216 331l-124 186h128l109 -188l27 188h118l-27 -192l154 192h148z" />
    <glyph glyph-name="uni0437" unicode="&#x437;" horiz-adv-x="426" 
d="M368 231q19 -28 19 -67q0 -82 -54.5 -129t-155.5 -47q-88 0 -133 40.5t-45 100.5v17l119 2v-12q0 -55 60 -55q38 0 62 25.5t24 63.5q0 26 -17 41t-51 15h-65l11 82h53q39 0 62.5 24t23.5 57q0 48 -54 48q-34 0 -54 -19t-25 -50l-113 12q13 66 62.5 107t139.5 41
q81 0 124.5 -34t43.5 -90q0 -43 -24.5 -78.5t-63.5 -51.5q32 -15 51 -43z" />
    <glyph glyph-name="uni0438" unicode="&#x438;" horiz-adv-x="525" 
d="M502 517l-72 -517h-127l46 326l-200 -326h-127l73 517h126l-46 -327l201 327h126z" />
    <glyph glyph-name="uni0439" unicode="&#x439;" horiz-adv-x="525" 
d="M502 517l-72 -517h-127l46 326l-200 -326h-127l73 517h126l-46 -327l201 327h126zM222 637.5q-36 46.5 -35 127.5h77q-3 -95 67 -95q61 0 78 95h76q-11 -91 -55 -132.5t-109 -41.5q-63 0 -99 46.5z" />
    <glyph glyph-name="uni043A" unicode="&#x43a;" horiz-adv-x="480" 
d="M299 296l141 -296h-127l-93 214l-48 -50l-23 -164h-127l73 517h127l-26 -188l164 188h150z" />
    <glyph glyph-name="uni043B" unicode="&#x43b;" horiz-adv-x="486" 
d="M324 0l-57 404l-167 -404h-133l241 517h143l96 -517h-123z" />
    <glyph glyph-name="uni043C" unicode="&#x43c;" horiz-adv-x="600" 
d="M566 517l-31 -517h-117l24 336l-144 -336h-66l-50 336l-70 -336h-120l114 517h131l52 -338l145 338h132z" />
    <glyph glyph-name="uni043D" unicode="&#x43d;" horiz-adv-x="521" 
d="M499 517l-73 -517h-130l30 216h-144l-30 -216h-130l73 517h130l-28 -197h144l28 197h130z" />
    <glyph glyph-name="uni043E" unicode="&#x43e;" horiz-adv-x="560" 
d="M129 17.5q-46 29.5 -69 79.5t-23 110q0 89 34 162t98 116t149 43q66 0 112.5 -29.5t69.5 -79t23 -109.5q0 -89 -34 -162.5t-98 -116.5t-150 -43q-66 0 -112 29.5zM328 126q31 31 48 79t17 97q0 57 -24 88.5t-66 31.5q-41 0 -72 -31t-48 -79.5t-17 -97.5q0 -56 24.5 -87.5
t66.5 -31.5q40 0 71 31z" />
    <glyph glyph-name="uni043F" unicode="&#x43f;" horiz-adv-x="518" 
d="M423 0h-130l58 413h-141l-58 -413h-130l73 517h400z" />
    <glyph glyph-name="uni0440" unicode="&#x440;" horiz-adv-x="577" 
d="M460.5 500.5q38.5 -27.5 60 -75.5t21.5 -110q0 -81 -32 -156.5t-88 -123t-124 -47.5q-48 0 -83 26t-52 70l-39 -282h-130l100 715h121l-4 -87q30 47 72 72.5t89 25.5q50 0 88.5 -27.5zM343.5 125.5q31.5 30.5 48.5 78t17 95.5q0 57 -24 89.5t-68 32.5q-40 0 -71 -30.5
t-48.5 -77t-17.5 -94.5q0 -56 25 -90t67 -34q40 0 71.5 30.5z" />
    <glyph glyph-name="uni0441" unicode="&#x441;" horiz-adv-x="541" 
d="M129 17.5q-46 29.5 -69 79.5t-23 110q0 89 34 162t98 116t149 43q86 0 137 -50.5t59 -137.5l-126 -11q-5 45 -26.5 69t-59.5 24q-41 0 -72 -31t-48 -79.5t-17 -97.5q0 -57 24.5 -88t67.5 -31q37 0 67 26.5t47 71.5l123 -11q-28 -92 -93 -143t-160 -51q-66 0 -112 29.5z
" />
    <glyph glyph-name="uni0442" unicode="&#x442;" horiz-adv-x="411" 
d="M416 413h-122l-58 -413h-130l58 413h-127l16 104h380z" />
    <glyph glyph-name="uni0443" unicode="&#x443;" 
d="M515 517l-67 -475q-17 -124 -82.5 -188t-170.5 -64q-78 0 -124 36t-60 98l130 16q8 -58 66 -58q47 0 73.5 39t37.5 117l5 39q-29 -39 -67 -59t-81 -20q-66 0 -99.5 43.5t-33.5 112.5q0 22 3 46l45 317h130l-41 -293q-4 -23 -4 -48q0 -37 15.5 -56.5t51.5 -19.5
q40 0 65.5 36.5t36.5 90.5l41 290h130z" />
    <glyph glyph-name="uni0444" unicode="&#x444;" horiz-adv-x="681" 
d="M608.5 139.5q-35.5 -70.5 -99.5 -110.5t-146 -41l-26 -186h-121l26 186q-59 2 -105.5 32t-72.5 81.5t-26 113.5q0 91 35.5 161.5t99 110.5t145.5 41l33 232h121l-33 -232q59 -2 105.5 -32t73 -81.5t26.5 -113.5q0 -91 -35.5 -161.5zM452 124q32 30 50 77t18 99
q0 57 -25.5 89.5t-69.5 34.5l-47 -332q42 2 74 32zM187 126.5q25 -32.5 70 -34.5l47 332q-42 -2 -74 -32t-50 -77t-18 -99q0 -57 25 -89.5z" />
    <glyph glyph-name="uni0445" unicode="&#x445;" horiz-adv-x="461" 
d="M300 261l124 -261h-132l-68 176l-114 -176h-147l202 267l-121 250l135 1l61 -164l105 163h147z" />
    <glyph glyph-name="uni0446" unicode="&#x446;" horiz-adv-x="533" 
d="M503 104l-35 -234h-105l11 130h-352l73 517h130l-58 -413h138l58 413h130l-58 -413h68z" />
    <glyph glyph-name="uni0447" unicode="&#x447;" horiz-adv-x="482" 
d="M460 517l-73 -517h-130l25 175h-64q-73 0 -120 43t-47 113q0 19 3 35l22 151h127l-21 -146q-2 -14 -2 -28q0 -65 67 -65h49l34 239h130z" />
    <glyph glyph-name="uni0448" unicode="&#x448;" horiz-adv-x="740" 
d="M718 517l-73 -517h-623l73 517h128l-58 -413h120l58 413h126l-58 -413h121l58 413h128z" />
    <glyph glyph-name="uni0449" unicode="&#x449;" horiz-adv-x="758" 
d="M728 104l-35 -234h-104l12 130h-579l73 517h128l-58 -413h120l58 413h126l-58 -413h120l58 413h129l-58 -413h68z" />
    <glyph glyph-name="uni044A" unicode="&#x44a;" horiz-adv-x="538" 
d="M425 352q38 -20 58.5 -55.5t20.5 -78.5q0 -104 -61 -161t-164 -57h-196l59 415h-105l15 102h233l-20 -145h73q49 0 87 -20zM349.5 126q27.5 31 27.5 83q0 32 -18 49.5t-53 17.5h-55l-26 -181h49q48 0 75.5 31z" />
    <glyph glyph-name="uni044B" unicode="&#x44b;" horiz-adv-x="702" 
d="M364 352q38 -20 58.5 -55.5t20.5 -78.5q0 -104 -61 -161t-164 -57h-196l73 517h129l-20 -145h73q49 0 87 -20zM680 517l-73 -517h-130l73 517h130zM288.5 126q27.5 31 27.5 83q0 32 -18 49.5t-53 17.5h-55l-26 -181h49q48 0 75.5 31z" />
    <glyph glyph-name="uni044C" unicode="&#x44c;" horiz-adv-x="477" 
d="M364 352q38 -20 58.5 -55.5t20.5 -78.5q0 -104 -61 -161t-164 -57h-196l73 517h129l-20 -145h73q49 0 87 -20zM288.5 126q27.5 31 27.5 83q0 32 -18 49.5t-53 17.5h-55l-26 -181h49q48 0 75.5 31z" />
    <glyph glyph-name="uni044D" unicode="&#x44d;" horiz-adv-x="555" 
d="M419 499q48 -29 73.5 -80t25.5 -116q0 -91 -34.5 -162.5t-97.5 -112t-145 -40.5q-93 0 -147.5 56t-61.5 147l113 5q5 -51 31 -80t69 -29q51 0 88 36.5t54 95.5h-177l13 83h175q0 61 -26.5 94.5t-73.5 33.5q-44 0 -79 -30t-55 -82l-113 18q31 92 95.5 142t157.5 50
q67 0 115 -29z" />
    <glyph glyph-name="uni044E" unicode="&#x44e;" horiz-adv-x="739" 
d="M607 498q46 -30 70.5 -81t24.5 -114q0 -88 -35 -160t-96 -113.5t-138 -41.5q-62 0 -107 30t-68.5 81t-23.5 115h-52l-30 -214h-130l73 517h130l-28 -197h51q26 94 93.5 151t159.5 57q60 0 106 -30zM512 123q31 28 49 75.5t18 102.5q0 57 -23.5 89t-64.5 32
q-38 0 -69 -28.5t-49 -75.5t-18 -102q0 -57 23.5 -89t64.5 -32q38 0 69 28z" />
    <glyph glyph-name="uni044F" unicode="&#x44f;" horiz-adv-x="481" 
d="M386 0h-125l19 134h-74h-2l-70 -134h-131l94 166q-28 21 -42.5 53t-14.5 72q0 107 59.5 166.5t166.5 59.5h193zM294 233l26 184h-51q-50 0 -76.5 -31.5t-26.5 -84.5q0 -32 18 -50t52 -18h58z" />
    <glyph glyph-name="uni0450" unicode="&#x450;" horiz-adv-x="551" 
d="M166 213q-2 -60 21.5 -94t68.5 -34q34 0 61.5 21.5t43.5 56.5l128 -12q-35 -78 -98 -120.5t-152 -42.5q-62 0 -108 29t-70.5 78t-24.5 108q0 91 33.5 165t96.5 117t147 43q97 0 149.5 -61t52.5 -161q0 -17 -3 -44.5t-7 -43.5h-338zM223 392.5q-32 -37.5 -46 -96.5h211
q1 8 1 23q0 54 -22 82.5t-65 28.5q-47 0 -79 -37.5zM264 761l84 -171h-84l-132 171h132z" />
    <glyph glyph-name="uni0451" unicode="&#x451;" horiz-adv-x="551" 
d="M166 213q-2 -60 21.5 -94t68.5 -34q34 0 61.5 21.5t43.5 56.5l128 -12q-35 -78 -98 -120.5t-152 -42.5q-62 0 -108 29t-70.5 78t-24.5 108q0 91 33.5 165t96.5 117t147 43q97 0 149.5 -61t52.5 -161q0 -17 -3 -44.5t-7 -43.5h-338zM223 392.5q-32 -37.5 -46 -96.5h211
q1 8 1 23q0 54 -22 82.5t-65 28.5q-47 0 -79 -37.5zM189 635.5q-20 20.5 -20 49.5t20 49.5t49 20.5t49.5 -20.5t20.5 -49.5t-20.5 -49.5t-49.5 -20.5t-49 20.5zM376.5 635.5q-20.5 20.5 -20.5 49.5t20.5 49.5t49.5 20.5q28 0 48 -20.5t20 -49.5t-20 -49.5t-48 -20.5
q-29 0 -49.5 20.5z" />
    <glyph glyph-name="uni0452" unicode="&#x452;" horiz-adv-x="585" 
d="M511 485q33 -43 33 -113q0 -23 -3 -46l-52 -358q-14 -96 -56.5 -137t-115.5 -41q-43 0 -82 13l19 101q21 -8 42 -8q31 0 45.5 21t22.5 75l43 310q4 34 4 48q0 37 -15.5 57t-51.5 20q-44 0 -71.5 -39.5t-38.5 -96.5l-41 -291h-130l86 609h-85l12 83h84l10 68h130l-10 -68
h146l-12 -83h-145l-23 -163q31 40 70.5 61t84.5 21q67 0 100 -43z" />
    <glyph glyph-name="uni0453" unicode="&#x453;" horiz-adv-x="363" 
d="M368 413h-158l-58 -413h-130l73 517h290zM278 590h-84l84 171h132z" />
    <glyph glyph-name="uni0454" unicode="&#x454;" horiz-adv-x="556" 
d="M136 18q-48 29 -73.5 80t-25.5 116q0 91 34.5 162.5t97.5 112t145 40.5q93 0 147.5 -56t61.5 -147l-113 -5q-5 51 -31 80t-69 29q-51 0 -88 -36.5t-54 -95.5h177l-13 -83h-175q0 -61 26.5 -94.5t73.5 -33.5q44 0 79 30t55 82l113 -18q-31 -92 -95.5 -142t-157.5 -50
q-67 0 -115 29z" />
    <glyph glyph-name="uni0455" unicode="&#x455;" horiz-adv-x="466" 
d="M65.5 31q-48.5 43 -52.5 117l126 11q-2 -39 14 -59t58 -20q34 0 57.5 18.5t23.5 52.5q0 25 -18 40.5t-61 31.5l-24 8q-127 48 -127 143q0 71 55.5 112.5t147.5 41.5q82 0 131.5 -39.5t54.5 -106.5l-127 -12q0 71 -63 71q-25 0 -45.5 -16.5t-20.5 -42.5q0 -17 14 -31
t44 -26l27 -10q70 -26 106 -59t36 -86q0 -88 -60.5 -135t-157.5 -47q-90 0 -138.5 43z" />
    <glyph glyph-name="uni0456" unicode="&#x456;" horiz-adv-x="260" 
d="M132 627q-24 24 -24 58t24 58.5t58 24.5t58 -24.5t24 -58.5t-24 -58t-58 -24t-58 24zM101 517h130l-72 -517h-130z" />
    <glyph glyph-name="uni0457" unicode="&#x457;" horiz-adv-x="252" 
d="M97 517h130l-72 -517h-130zM40 635.5q-20 20.5 -20 49.5t20 49.5t49 20.5t49.5 -20.5t20.5 -49.5t-20.5 -49.5t-49.5 -20.5t-49 20.5zM227.5 635.5q-20.5 20.5 -20.5 49.5t20.5 49.5t49.5 20.5q28 0 48 -20.5t20 -49.5t-20 -49.5t-48 -20.5q-29 0 -49.5 20.5z" />
    <glyph glyph-name="uni0458" unicode="&#x458;" horiz-adv-x="255" 
d="M128 627q-24 24 -24 58q0 35 24 59t58 24t57.5 -24t23.5 -59q0 -34 -23.5 -58t-57.5 -24t-58 24zM-77.5 -205q-26.5 5 -46.5 12l22 99q28 -10 56 -10q32 0 47 20t23 69l74 532h129l-76 -548q-14 -97 -58 -138t-120 -41q-24 0 -50.5 5z" />
    <glyph glyph-name="uni0459" unicode="&#x459;" horiz-adv-x="745" 
d="M632 352q38 -20 58.5 -55.5t20.5 -78.5q0 -104 -61 -161t-164 -57h-196l59 420h-10l-235 -420h-135l303 517h220l-20 -145h73q49 0 87 -20zM556.5 126q27.5 31 27.5 83q0 32 -18 49.5t-53 17.5h-55l-26 -181h49q48 0 75.5 31z" />
    <glyph glyph-name="uni045A" unicode="&#x45a;" horiz-adv-x="757" 
d="M645 352q38 -20 58.5 -55.5t20.5 -78.5q0 -104 -61 -161t-164 -57h-196l30 216h-151l-30 -216h-130l73 517h130l-28 -197h151l28 197h129l-20 -145h73q49 0 87 -20zM569.5 126q27.5 31 27.5 83q0 32 -18 49.5t-53 17.5h-55l-26 -181h49q48 0 75.5 31z" />
    <glyph glyph-name="uni045B" unicode="&#x45b;" horiz-adv-x="584" 
d="M510 485q33 -43 33 -113q0 -23 -3 -46l-46 -326h-130l42 302q4 34 4 48q0 37 -15.5 57t-51.5 20q-44 0 -71.5 -39.5t-38.5 -96.5l-41 -291h-130l85 605h-83l12 87h83l10 68h130l-10 -68h147l-13 -87h-146l-22 -159q31 40 70.5 61t84.5 21q67 0 100 -43z" />
    <glyph glyph-name="uni045C" unicode="&#x45c;" horiz-adv-x="480" 
d="M299 296l141 -296h-127l-93 214l-48 -50l-23 -164h-127l73 517h127l-26 -188l164 188h150zM331 590h-84l84 171h132z" />
    <glyph glyph-name="uni045D" unicode="&#x45d;" horiz-adv-x="525" 
d="M502 517l-72 -517h-127l46 326l-200 -326h-127l73 517h126l-46 -327l201 327h126zM256 761l84 -171h-84l-132 171h132z" />
    <glyph glyph-name="uni045E" unicode="&#x45e;" 
d="M515 517l-67 -475q-17 -124 -82.5 -188t-170.5 -64q-78 0 -124 36t-60 98l130 16q8 -58 66 -58q47 0 73.5 39t37.5 117l5 39q-29 -39 -67 -59t-81 -20q-66 0 -99.5 43.5t-33.5 112.5q0 22 3 46l45 317h130l-41 -293q-4 -23 -4 -48q0 -37 15.5 -56.5t51.5 -19.5
q40 0 65.5 36.5t36.5 90.5l41 290h130zM229 637.5q-36 46.5 -35 127.5h77q-3 -95 67 -95q61 0 78 95h76q-11 -91 -55 -132.5t-109 -41.5q-63 0 -99 46.5z" />
    <glyph glyph-name="uni045F" unicode="&#x45f;" horiz-adv-x="518" 
d="M496 517l-73 -517h-133l-27 -143h-109l13 143h-144l72 517h130l-58 -413h141l58 413h130z" />
    <glyph glyph-name="uni0462" unicode="&#x462;" horiz-adv-x="651" 
d="M563.5 433.5q54.5 -57.5 54.5 -150.5q0 -85 -34 -149t-97 -99t-146 -35h-242l82 587h-120l15 97h118l11 76h134l-11 -76h177l-15 -97h-175l-14 -96h105q103 0 157.5 -57.5zM442 154.5q41 48.5 41 124.5q0 52 -25.5 79.5t-81.5 27.5h-89l-39 -280h83q70 0 111 48.5z" />
    <glyph glyph-name="uni0463" unicode="&#x463;" horiz-adv-x="514" 
d="M401 352q38 -20 58.5 -55.5t20.5 -78.5q0 -104 -60.5 -161t-163.5 -57h-197l64 457h-80l11 83h80l31 220h129l-31 -220h151l-11 -83h-151l-12 -85h74q49 0 87 -20zM325.5 126q27.5 31 27.5 83q0 32 -17.5 49.5t-52.5 17.5h-57l-25 -181h49q48 0 75.5 31z" />
    <glyph glyph-name="uni0472" unicode="&#x472;" horiz-adv-x="737" 
d="M589.5 730.5q63.5 -41.5 96.5 -114.5t33 -165q0 -123 -49 -229.5t-137.5 -170t-201.5 -63.5q-86 0 -149.5 41.5t-96.5 114.5t-33 165q0 122 48.5 228.5t137 170.5t202.5 64q86 0 149.5 -41.5zM283.5 589.5q-60.5 -63.5 -85.5 -160.5h389v16q0 95 -42.5 151.5t-119.5 56.5
q-81 0 -141.5 -63.5zM488 171q61 64 86 164h-390v-19q0 -96 42 -152.5t119 -56.5q82 0 143 64z" />
    <glyph glyph-name="uni0473" unicode="&#x473;" horiz-adv-x="560" 
d="M430.5 498.5q46.5 -29.5 69.5 -79t23 -109.5q0 -89 -34 -162.5t-98 -116.5t-150 -43q-66 0 -112 29.5t-69 79.5t-23 110q0 89 34 162t98 116t149 43q66 0 112.5 -29.5zM222 393.5q-36 -36.5 -53 -94.5h235v6q0 60 -25 92.5t-72 32.5q-49 0 -85 -36.5zM339 123
q36 37 53 96h-236v-7q0 -60 25.5 -93t72.5 -33q49 0 85 37z" />
    <glyph glyph-name="uni0474" unicode="&#x474;" horiz-adv-x="603" 
d="M673 760l-24 -104h-13q-22 0 -37 -13t-30 -50l-244 -593h-146l-103 760h133l60 -612l185 486q20 55 45 82t59.5 35.5t94.5 8.5h20z" />
    <glyph glyph-name="uni0475" unicode="&#x475;" horiz-adv-x="488" 
d="M524 517l-22 -101h-10q-36 0 -57 -46l-166 -370h-136l-95 517h131l46 -385l106 268q18 52 42 76.5t57.5 32.5t92.5 8h11z" />
    <glyph glyph-name="uni048A" unicode="&#x48a;" horiz-adv-x="666" 
d="M304 880.5q-36 46.5 -35 127.5h77q-3 -95 67 -95q61 0 78 95h76q-11 -91 -55 -132.5t-109 -41.5q-63 0 -99 46.5zM521 -140h-108l51 140h-60l76 542l-321 -542h-131l106 760h131l-75 -538l320 538h131l-90 -648h91z" />
    <glyph glyph-name="uni048B" unicode="&#x48b;" horiz-adv-x="550" 
d="M219 637.5q-36 46.5 -35 127.5h77q-3 -95 67 -95q61 0 78 95h76q-11 -91 -55 -132.5t-109 -41.5q-63 0 -99 46.5zM409 -130h-103l49 130h-52l46 326l-200 -326h-127l73 517h126l-46 -327l201 327h126l-58 -413h76z" />
    <glyph glyph-name="uni048C" unicode="&#x48c;" horiz-adv-x="651" 
d="M563.5 433.5q54.5 -57.5 54.5 -150.5q0 -85 -34 -149t-97 -99t-146 -35h-242l82 587h-120l15 97h118l11 76h134l-11 -76h177l-15 -97h-175l-14 -96h105q103 0 157.5 -57.5zM442 154.5q41 48.5 41 124.5q0 52 -25.5 79.5t-81.5 27.5h-89l-39 -280h83q70 0 111 48.5z" />
    <glyph glyph-name="uni048D" unicode="&#x48d;" horiz-adv-x="514" 
d="M401 352q38 -20 58.5 -55.5t20.5 -78.5q0 -104 -60.5 -161t-163.5 -57h-197l64 457h-80l11 83h80l31 220h129l-31 -220h151l-11 -83h-151l-12 -85h74q49 0 87 -20zM325.5 126q27.5 31 27.5 83q0 32 -17.5 49.5t-52.5 17.5h-57l-25 -181h49q48 0 75.5 31z" />
    <glyph glyph-name="uni048E" unicode="&#x48e;" horiz-adv-x="600" 
d="M560 368q-41 -76 -116 -112l34 -97l-72 -35l-38 108q-36 -4 -57 -4h-120l-32 -228h-132l107 760h247q70 0 119.5 -28t75 -76.5t25.5 -109.5q0 -102 -41 -178zM452.5 437.5q17.5 42.5 17.5 93.5q0 60 -28 90t-89 30h-102l-45 -314h100q8 0 24 2l-41 115l72 35l42 -119
q32 25 49.5 67.5z" />
    <glyph glyph-name="uni048F" unicode="&#x48f;" horiz-adv-x="581" 
d="M507 140.5q-38 -79.5 -101 -120.5l33 -92l-68 -36l-36 99q-16 -3 -34 -3q-49 0 -84 25.5t-53 69.5l-40 -281h-130l101 715h120l-4 -83q28 45 70.5 69.5t90.5 24.5q52 0 91 -28.5t60.5 -78.5t21.5 -113q0 -88 -38 -167.5zM404.5 210q14.5 44 14.5 90q0 59 -25 93t-71 34
q-41 0 -74 -30.5t-51.5 -78.5t-18.5 -99q0 -57 25.5 -93t68.5 -36q13 0 25 3l-40 112l69 36l37 -105q26 30 40.5 74z" />
    <glyph glyph-name="uni0490" unicode="&#x490;" horiz-adv-x="448" 
d="M499 760l-17 -112h-230l-90 -648h-134l106 760h246l26 133h113z" />
    <glyph glyph-name="uni0491" unicode="&#x491;" horiz-adv-x="370" 
d="M405 612l-31 -199h-164l-58 -413h-130l73 517h187l20 95h103z" />
    <glyph glyph-name="uni0492" unicode="&#x492;" horiz-adv-x="514" 
d="M319 648l-33 -241h163l-15 -98h-162l-43 -309h-134l43 309h-112l15 98h111l49 353h365l-17 -112h-230z" />
    <glyph glyph-name="uni0493" unicode="&#x493;" horiz-adv-x="397" 
d="M244 413l-17 -125h98l-12 -83h-98l-29 -205h-130l29 205h-76l13 83h75l32 229h290l-17 -104h-158z" />
    <glyph glyph-name="uni0494" unicode="&#x494;" horiz-adv-x="594" 
d="M487.5 412.5q64.5 -64.5 64.5 -181.5q0 -110 -35.5 -207.5t-103 -160.5t-160.5 -73v117q51 10 87.5 58t55.5 116.5t19 140.5q0 71 -33 107t-105 36h-64l-51 -365h-134l106 760h365l-17 -112h-230l-23 -171h83q111 0 175.5 -64.5z" />
    <glyph glyph-name="uni0495" unicode="&#x495;" horiz-adv-x="493" 
d="M392.5 261q52.5 -49 52.5 -139q0 -139 -65 -228t-187 -104l2 106q59 13 91 72.5t32 139.5q0 51 -21.5 73.5t-69.5 22.5h-46l-29 -204h-130l73 517h303l-15 -98h-172l-15 -109h56q88 0 140.5 -49z" />
    <glyph glyph-name="uni0496" unicode="&#x496;" horiz-adv-x="894" 
d="M669 447l159 -447h-132l-111 347l-85 -102l-34 -245h-130l37 262l-55 99l-202 -361h-144l283 478l-154 282h136l158 -340l47 340h130l-48 -347l250 347h155zM835 -140h-111l13 140h-33l17 112h152z" />
    <glyph glyph-name="uni0497" unicode="&#x497;" horiz-adv-x="713" 
d="M523 314l130 -314h-123l-83 235l-53 -56l-25 -179h-119l27 190l-32 48l-142 -238h-136l216 331l-124 186h128l109 -188l27 188h118l-27 -192l154 192h148zM653 -130h-106l11 130h-28l16 104h142z" />
    <glyph glyph-name="uni0498" unicode="&#x498;" horiz-adv-x="531" 
d="M481 341q21 -40 21 -87q0 -107 -55.5 -175.5t-153.5 -85.5l-27 -146h-111l13 147q-75 15 -115 63.5t-40 118.5q0 13 2 37l129 3q-2 -18 -2 -27q0 -44 23.5 -68.5t68.5 -24.5q58 0 95.5 44.5t37.5 113.5q0 95 -103 95h-98l15 102h80q59 0 96 38t37 97q0 36 -21 57t-63 21
q-52 0 -81 -30.5t-38 -81.5l-124 11q14 93 80 151t178 58q101 0 152.5 -49t51.5 -122q0 -65 -28 -117t-78 -81q37 -22 58 -62z" />
    <glyph glyph-name="uni0499" unicode="&#x499;" horiz-adv-x="426" 
d="M368 231q19 -28 19 -67q0 -68 -38.5 -113t-110.5 -58l-27 -136h-104l12 137q-59 12 -89.5 49.5t-30.5 85.5v17l119 2v-12q0 -55 60 -55q38 0 62 25.5t24 63.5q0 26 -17 41t-51 15h-65l11 82h53q39 0 62.5 24t23.5 57q0 48 -54 48q-34 0 -54 -19t-25 -50l-113 12
q13 66 62.5 107t139.5 41q81 0 124.5 -34t43.5 -90q0 -43 -24.5 -78.5t-63.5 -51.5q32 -15 51 -43z" />
    <glyph glyph-name="uni049A" unicode="&#x49a;" horiz-adv-x="601" 
d="M372 437l162 -437h-131l-113 334l-101 -126l-29 -208h-133l107 760h133l-49 -351l261 351h150zM542 -140h-111l13 140h-33l17 112h152z" />
    <glyph glyph-name="uni049B" unicode="&#x49b;" horiz-adv-x="500" 
d="M299 296l141 -296h-127l-93 214l-48 -50l-23 -164h-127l73 517h127l-26 -188l164 188h150zM441 -130h-106l11 130h-28l16 104h142z" />
    <glyph glyph-name="uni049C" unicode="&#x49c;" horiz-adv-x="657" 
d="M441 484l172 -484h-131l-125 398l-23 -23l-26 -185h-86l14 102l-43 -45l-34 -247h-131l106 760h131l-48 -346l43 45l27 194h86l-14 -100l193 207h163z" />
    <glyph glyph-name="uni049D" unicode="&#x49d;" horiz-adv-x="557" 
d="M365 326l152 -326h-125l-107 247l-20 -137h-74l13 89l-33 -30l-23 -169h-126l73 517h125l-30 -212l33 29l20 136h74l-10 -68l120 115h152z" />
    <glyph glyph-name="uni049E" unicode="&#x49e;" horiz-adv-x="686" 
d="M472 441l170 -441h-132l-124 339l-141 -166l-24 -173h-133l83 593h-109l13 89h108l11 78h134l-11 -78h101l-14 -89h-100l-29 -210l310 377h157z" />
    <glyph glyph-name="uni049F" unicode="&#x49f;" horiz-adv-x="520" 
d="M338 296l142 -296h-127l-94 214l-47 -49l-23 -165h-130l86 609h-81l12 83h80l10 68h130l-10 -68h150l-12 -83h-149l-40 -280l165 188h150z" />
    <glyph glyph-name="uni04A0" unicode="&#x4a0;" horiz-adv-x="691" 
d="M484 437l162 -437h-131l-113 334l-101 -126l-29 -208h-133l91 648h-154l18 112h285l-49 -351l261 351h150z" />
    <glyph glyph-name="uni04A1" unicode="&#x4a1;" horiz-adv-x="588" 
d="M407 296l141 -296h-127l-93 214l-48 -50l-23 -164h-127l58 413h-151l16 104h277l-26 -188l164 188h150z" />
    <glyph glyph-name="uni04A2" unicode="&#x4a2;" horiz-adv-x="644" 
d="M632 760l-107 -760h-134l48 338h-230l-48 -338h-134l107 760h134l-44 -310h230l44 310h134zM582 -140h-111l13 140h-33l17 112h152z" />
    <glyph glyph-name="uni04A3" unicode="&#x4a3;" horiz-adv-x="539" 
d="M499 517l-73 -517h-130l30 216h-144l-30 -216h-130l73 517h130l-28 -197h144l28 197h130zM475 -130h-106l11 130h-28l16 104h142z" />
    <glyph glyph-name="uni04A4" unicode="&#x4a4;" horiz-adv-x="811" 
d="M846 648h-230l-90 -648h-134l106 760h365zM632 760l-107 -760h-134l48 338h-230l-48 -338h-134l107 760h134l-44 -310h230l44 310h134z" />
    <glyph glyph-name="uni04A5" unicode="&#x4a5;" horiz-adv-x="637" 
d="M499 517l-73 -517h-130l30 216h-144l-30 -216h-130l73 517h130l-28 -197h144l28 197h130zM642 413h-158l-58 -413h-130l73 517h290z" />
    <glyph glyph-name="uni04A6" unicode="&#x4a6;" horiz-adv-x="951" 
d="M845 412.5q64 -64.5 64 -181.5q0 -110 -35 -207.5t-103 -160.5t-161 -73l1 117q51 10 87.5 58t55 116.5t18.5 140.5q0 70 -32.5 106.5t-104.5 36.5h-65l-51 -365h-133l90 648h-225l-90 -648h-133l106 760h491l-39 -283h84q111 0 175 -64.5z" />
    <glyph glyph-name="uni04A7" unicode="&#x4a7;" horiz-adv-x="759" 
d="M658 261q53 -49 53 -139q0 -139 -65 -228t-188 -104l3 106q58 13 90 72.5t32 139.5q0 51 -21 73.5t-69 22.5h-42l-28 -204h-130l58 413h-141l-58 -413h-130l73 517h400l-29 -207h51q88 0 141 -49z" />
    <glyph glyph-name="uni04A8" unicode="&#x4a8;" horiz-adv-x="852" 
d="M662 87q34 0 73.5 11t63.5 23l-7 -111q-62 -22 -133 -22q-73 0 -139 26q-72 -26 -147 -26q-101 0 -174.5 45.5t-112 125t-38.5 180.5q0 94 34.5 178.5t99.5 150.5t156 104l-6 -128q-71 -44 -110 -125.5t-39 -179.5q0 -116 55 -183t155 -67q12 0 17 1q-45 49 -70.5 119.5
t-25.5 162.5q0 109 35.5 200.5t104.5 145.5t164 54q107 0 164.5 -70.5t57.5 -200.5q0 -125 -52 -233.5t-140 -180.5h14zM533 130q79 49 125 148t46 219q0 81 -23.5 119.5t-71.5 38.5q-53 0 -89.5 -43t-54.5 -110.5t-18 -141.5q0 -162 86 -230z" />
    <glyph glyph-name="uni04A9" unicode="&#x4a9;" horiz-adv-x="652" 
d="M600 193q-36 -70 -98 -120q22 0 47.5 3.5t41.5 8.5v-87q-31 -10 -79 -10q-60 0 -117 23q-61 -23 -126 -23q-76 0 -130.5 31t-82.5 86.5t-28 126.5q0 75 29 136.5t78 102.5t110 57l-5 -110q-45 -26 -69.5 -74.5t-24.5 -108.5q0 -77 39 -116t106 -39h8q-66 74 -66 186
q0 72 27.5 131.5t79.5 95t122 35.5q86 0 130 -50.5t44 -136.5q0 -78 -36 -148zM399 110q54 32 85.5 93t31.5 136q0 49 -15 71t-46 22q-49 0 -75.5 -52.5t-26.5 -128.5q0 -98 46 -141z" />
    <glyph glyph-name="uni04AA" unicode="&#x4aa;" horiz-adv-x="721" 
d="M467.5 157q54.5 47 82.5 123l133 -14q-40 -115 -116 -186.5t-179 -87.5l-28 -145h-110l13 148q-100 23 -155.5 107.5t-55.5 206.5t48.5 228.5t137 170.5t202.5 64q119 0 190 -75t86 -203l-139 -12q-9 79 -46.5 123.5t-105.5 44.5q-70 0 -123.5 -49t-82.5 -126.5
t-29 -159.5q0 -95 41.5 -150t115.5 -55q66 0 120.5 47z" />
    <glyph glyph-name="uni04AB" unicode="&#x4ab;" horiz-adv-x="541" 
d="M324 121.5q30 26.5 47 71.5l123 -11q-24 -76 -72.5 -124.5t-118.5 -63.5l-27 -137h-104l12 138q-71 17 -109 75.5t-38 136.5q0 89 34 162t98 116t149 43q86 0 137 -50.5t59 -137.5l-126 -11q-5 45 -26.5 69t-59.5 24q-41 0 -72 -31t-48 -79.5t-17 -97.5q0 -57 24.5 -88
t67.5 -31q37 0 67 26.5z" />
    <glyph glyph-name="uni04AC" unicode="&#x4ac;" horiz-adv-x="529" 
d="M562 648h-175l-91 -648h-134l91 648h-176l15 112h486zM353 -140h-111l13 140h-33l17 112h152z" />
    <glyph glyph-name="uni04AD" unicode="&#x4ad;" horiz-adv-x="411" 
d="M416 413h-122l-58 -413h-130l58 413h-127l16 104h380zM285 -130h-106l11 130h-28l16 104h142z" />
    <glyph glyph-name="uni04AE" unicode="&#x4ae;" horiz-adv-x="551" 
d="M346 315l-44 -315h-134l45 320l-142 440h128l93 -324l188 324h142z" />
    <glyph glyph-name="uni04AF" unicode="&#x4af;" horiz-adv-x="511" 
d="M285 6l-28 -204h-133l28 207l-116 508h124l70 -400l182 400h135z" />
    <glyph glyph-name="uni04B0" unicode="&#x4b0;" horiz-adv-x="551" 
d="M401 403h106l-15 -97h-147l-43 -306h-134l43 306h-148l15 97h108l-115 357h128l93 -324l188 324h142z" />
    <glyph glyph-name="uni04B1" unicode="&#x4b1;" horiz-adv-x="511" 
d="M327 87h91l-13 -87h-121l-27 -198h-133l27 198h-117l13 87h88l-99 430h124l70 -400l182 400h135z" />
    <glyph glyph-name="uni04B2" unicode="&#x4b2;" horiz-adv-x="590" 
d="M372 386l154 -386h-139l-96 273l-176 -273h-148l268 392l-147 368h139l88 -261l164 261h150zM528 -140h-111l13 140h-33l17 112h152z" />
    <glyph glyph-name="uni04B3" unicode="&#x4b3;" horiz-adv-x="476" 
d="M300 261l124 -261h-132l-68 176l-114 -176h-147l202 267l-121 250l135 1l61 -164l105 163h147zM417 -130h-106l11 130h-28l16 104h142z" />
    <glyph glyph-name="uni04B4" unicode="&#x4b4;" horiz-adv-x="785" 
d="M682 112h79l-38 -252h-111l13 140h-475l90 648h-164l18 112h459l-17 -112h-162l-74 -536h251l90 648h131z" />
    <glyph glyph-name="uni04B5" unicode="&#x4b5;" horiz-adv-x="634" 
d="M604 104l-35 -234h-106l12 130h-383l58 413h-113l14 104h356l-15 -104h-116l-43 -309h175l58 413h127l-58 -413h69z" />
    <glyph glyph-name="uni04B6" unicode="&#x4b6;" horiz-adv-x="595" 
d="M581 760l-106 -760h-133l39 278h-93q-59 0 -107.5 26t-77 75t-28.5 115q0 15 4 49l30 217h134l-30 -215q-4 -30 -4 -45q0 -55 26.5 -82.5t82.5 -27.5h78l52 370h133zM533 -140h-111l13 140h-33l17 112h152z" />
    <glyph glyph-name="uni04B7" unicode="&#x4b7;" horiz-adv-x="500" 
d="M460 517l-73 -517h-130l25 175h-64q-73 0 -120 43t-47 113q0 19 3 35l22 151h127l-21 -146q-2 -14 -2 -28q0 -65 67 -65h49l34 239h130zM435 -130h-106l11 130h-28l16 104h142z" />
    <glyph glyph-name="uni04B8" unicode="&#x4b8;" horiz-adv-x="619" 
d="M626 760l-106 -760h-131l39 278h-80l-21 -146h-91l21 147q-80 8 -131 65t-51 150q0 26 4 49l30 217h131l-30 -215q-4 -32 -4 -43q0 -46 16.5 -72.5t51.5 -35.5l23 158h90l-23 -162h79l52 370h131z" />
    <glyph glyph-name="uni04B9" unicode="&#x4b9;" horiz-adv-x="512" 
d="M490 517l-73 -517h-130l25 175h-42l-13 -87h-67l12 88q-67 5 -109 47t-42 108q0 19 3 35l22 151h126l-21 -146q-2 -14 -2 -28q0 -50 39 -61l15 108h68l-16 -112h41l34 239h130z" />
    <glyph glyph-name="uni04BA" unicode="&#x4ba;" horiz-adv-x="589" 
d="M446 448q48 -26 75.5 -75t27.5 -115q0 -17 -4 -49l-29 -209h-134l28 205q3 23 3 44q0 57 -26.5 84t-81.5 27h-92l-50 -360h-135l106 760h135l-40 -286h110q59 0 107 -26z" />
    <glyph glyph-name="uni04BB" unicode="&#x4bb;" horiz-adv-x="544" 
d="M470 485q33 -43 33 -113q0 -23 -3 -46l-46 -326h-130l42 302q4 34 4 48q0 37 -15.5 57t-51.5 20q-44 0 -71.5 -39.5t-38.5 -96.5l-41 -291h-130l107 760h130l-44 -314q31 40 70.5 61t84.5 21q67 0 100 -43z" />
    <glyph glyph-name="uni04BC" unicode="&#x4bc;" horiz-adv-x="859" 
d="M312 335v-18q0 -96 44 -153t116 -57q57 0 106.5 36t80.5 103l132 -23q-52 -110 -139 -172.5t-190 -62.5q-84 0 -148 43t-98 118t-34 167v19q-66 2 -102 33t-36 86q0 28 9 64t22 64l107 -14q-21 -55 -21 -96q0 -19 8 -29t25 -13q21 97 74.5 175t129.5 122.5t162 44.5
q83 0 147 -44t99 -120t35 -168q0 -52 -14 -105h-515zM413.5 589.5q-61.5 -63.5 -87.5 -160.5h384v11q0 97 -42 155t-114 58q-79 0 -140.5 -63.5z" />
    <glyph glyph-name="uni04BD" unicode="&#x4bd;" horiz-adv-x="657" 
d="M272 213q-2 -60 21.5 -94t68.5 -34q34 0 61.5 21.5t43.5 56.5l128 -12q-35 -78 -98 -120.5t-152 -42.5q-62 0 -108 29t-70.5 78t-24.5 108v16q-55 4 -85.5 30.5t-30.5 75.5q0 27 8 63t19 62l93 -14q-21 -61 -21 -98q0 -18 6.5 -27t20.5 -12q24 103 94.5 166t172.5 63
q97 0 149.5 -61t52.5 -161q0 -17 -3 -44.5t-7 -43.5h-338zM329 392.5q-32 -37.5 -46 -96.5h211q1 8 1 23q0 54 -22 82.5t-65 28.5q-47 0 -79 -37.5z" />
    <glyph glyph-name="uni04BE" unicode="&#x4be;" horiz-adv-x="859" 
d="M312 335v-18q0 -96 44 -153t116 -57q57 0 106.5 36t80.5 103l132 -23q-43 -92 -111.5 -151.5t-151.5 -76.5l-28 -148h-110l13 147q-68 14 -118 59.5t-76.5 113.5t-26.5 149v19q-66 2 -102 33t-36 86q0 28 9 64t22 64l107 -14q-21 -55 -21 -96q0 -19 8 -29t25 -13
q21 97 74.5 175t129.5 122.5t162 44.5q83 0 147 -44t99 -120t35 -168q0 -52 -14 -105h-515zM413.5 589.5q-61.5 -63.5 -87.5 -160.5h384v11q0 97 -42 155t-114 58q-79 0 -140.5 -63.5z" />
    <glyph glyph-name="uni04BF" unicode="&#x4bf;" horiz-adv-x="657" 
d="M272 213q-2 -60 21.5 -94t68.5 -34q34 0 61.5 21.5t43.5 56.5l128 -12q-57 -126 -177 -155l-27 -139h-104l11 136q-73 15 -114.5 73.5t-41.5 136.5v16q-55 4 -85.5 30.5t-30.5 75.5q0 27 8 63t19 62l93 -14q-21 -61 -21 -98q0 -18 6.5 -27t20.5 -12q24 103 94.5 166
t172.5 63q97 0 149.5 -61t52.5 -161q0 -17 -3 -44.5t-7 -43.5h-338zM329 392.5q-32 -37.5 -46 -96.5h211q1 8 1 23q0 54 -22 82.5t-65 28.5q-47 0 -79 -37.5z" />
    <glyph glyph-name="uni04C0" unicode="&#x4c0;" horiz-adv-x="260" 
d="M134 760h134l-107 -760h-134z" />
    <glyph glyph-name="uni04C1" unicode="&#x4c1;" horiz-adv-x="873" 
d="M669 447l159 -447h-132l-111 347l-85 -102l-34 -245h-130l37 262l-55 99l-202 -361h-144l283 478l-154 282h136l158 -340l47 340h130l-48 -347l250 347h155zM427 880.5q-36 46.5 -35 127.5h77q-3 -95 67 -95q61 0 78 95h76q-11 -91 -55 -132.5t-109 -41.5q-63 0 -99 46.5
z" />
    <glyph glyph-name="uni04C2" unicode="&#x4c2;" horiz-adv-x="693" 
d="M523 314l130 -314h-123l-83 235l-53 -56l-25 -179h-119l27 190l-32 48l-142 -238h-136l216 331l-124 186h128l109 -188l27 188h118l-27 -192l154 192h148zM302 637.5q-36 46.5 -35 127.5h77q-3 -95 67 -95q61 0 78 95h76q-11 -91 -55 -132.5t-109 -41.5q-63 0 -99 46.5z
" />
    <glyph glyph-name="uni04C3" unicode="&#x4c3;" horiz-adv-x="574" 
d="M509 317q39 -67 39 -154q0 -96 -34.5 -176t-100 -131.5t-156.5 -65.5l3 116q72 22 111 89.5t39 159.5q0 58 -21.5 105t-66.5 100l-135 -173l-26 -187h-133l106 760h133l-51 -365l266 365h153l-239 -305q74 -71 113 -138z" />
    <glyph glyph-name="uni04C4" unicode="&#x4c4;" horiz-adv-x="491" 
d="M408 188.5q34 -58.5 34 -128.5q0 -76 -32 -135t-88.5 -93.5t-128.5 -41.5l3 106q54 12 86.5 56.5t32.5 112.5q0 46 -18.5 84.5t-58.5 81.5l-66 -70l-23 -161h-127l73 517h127l-27 -193l165 193h150l-202 -212q66 -58 100 -116.5z" />
    <glyph glyph-name="uni04C5" unicode="&#x4c5;" horiz-adv-x="641" 
d="M500 -140h-111l57 140h-41l-64 613l-234 -613h-142l316 760h153l88 -648h105z" />
    <glyph glyph-name="uni04C6" unicode="&#x4c6;" horiz-adv-x="539" 
d="M402 -130h-102l49 130h-25l-57 404l-167 -404h-133l241 517h143l77 -413h86z" />
    <glyph glyph-name="uni04C7" unicode="&#x4c7;" horiz-adv-x="626" 
d="M632 760l-97 -700q-19 -136 -89 -203t-179 -67q-12 0 -17 1l3 115q5 -1 17 -1q48 0 84.5 38.5t46.5 113.5l39 281h-231l-47 -338h-134l106 760h134l-43 -310h230l43 310h134z" />
    <glyph glyph-name="uni04C8" unicode="&#x4c8;" horiz-adv-x="521" 
d="M440 96l-18 -130q-14 -100 -57 -138t-120 -38q-39 0 -75 15l16 95q21 -8 40 -8q31 0 45.5 19.5t21.5 64.5l4 24h-1l30 216h-144l-30 -216h-130l73 517h130l-28 -197h144l28 197h130z" />
    <glyph glyph-name="uni04C9" unicode="&#x4c9;" horiz-adv-x="651" 
d="M512 -140h-108l51 140h-64l48 338h-230l-48 -338h-134l107 760h134l-44 -310h230l44 310h134l-91 -648h92z" />
    <glyph glyph-name="uni04CA" unicode="&#x4ca;" horiz-adv-x="543" 
d="M402 -130h-103l49 130h-52l30 216h-144l-30 -216h-130l73 517h130l-28 -197h144l28 197h130l-58 -413h72z" />
    <glyph glyph-name="uni04CB" unicode="&#x4cb;" horiz-adv-x="575" 
d="M581 760l-106 -760h-89l-27 -140h-113l32 235h77l26 183h-93q-59 0 -107.5 26t-77 75t-28.5 115q0 15 4 49l30 217h134l-30 -215q-4 -30 -4 -45q0 -55 26.5 -82.5t82.5 -27.5h78l52 370h133z" />
    <glyph glyph-name="uni04CC" unicode="&#x4cc;" horiz-adv-x="482" 
d="M460 517l-73 -517h-88l-26 -130h-103l30 209h68l14 101h-63q-73 0 -120 43t-47 113q0 19 3 35l20 146h127l-20 -141q-2 -14 -2 -28q0 -65 67 -65h50l33 234h130z" />
    <glyph glyph-name="uni04CD" unicode="&#x4cd;" horiz-adv-x="826" 
d="M675 -140h-111l57 140h-48l45 575l-232 -575h-71l-71 572l-115 -572h-126l166 760h143l65 -550l220 550h149l-40 -648h96z" />
    <glyph glyph-name="uni04CE" unicode="&#x4ce;" horiz-adv-x="639" 
d="M505 -130h-102l49 130h-34l24 336l-144 -336h-66l-50 336l-70 -336h-120l114 517h131l52 -338l145 338h132l-25 -413h77z" />
    <glyph glyph-name="uni04CF" unicode="&#x4cf;" horiz-adv-x="248" 
d="M129 760h130l-106 -760h-130z" />
    <glyph glyph-name="uni04D0" unicode="&#x4d0;" horiz-adv-x="575" 
d="M391 123h-236l-45 -123h-145l317 760h153l102 -760h-135zM382 226l-37 411l-151 -411h188zM279 880.5q-36 46.5 -35 127.5h77q-3 -95 67 -95q61 0 78 95h76q-11 -91 -55 -132.5t-109 -41.5q-63 0 -99 46.5z" />
    <glyph glyph-name="uni04D1" unicode="&#x4d1;" horiz-adv-x="577" 
d="M555 517l-73 -517h-120l4 83q-28 -45 -69.5 -70t-89.5 -25q-50 0 -89 27.5t-61 76.5t-22 111q0 80 31.5 155t87 122.5t123.5 47.5q50 0 85 -27t51 -70l12 86h130zM331 125.5q31 30.5 48 77.5t17 95q0 55 -24.5 89t-66.5 34q-40 0 -72 -30.5t-49 -77.5t-17 -95
q0 -58 24 -90.5t69 -32.5q40 0 71 30.5zM232 637.5q-36 46.5 -35 127.5h77q-3 -95 67 -95q61 0 78 95h76q-11 -91 -55 -132.5t-109 -41.5q-63 0 -99 46.5z" />
    <glyph glyph-name="uni04D2" unicode="&#x4d2;" horiz-adv-x="575" 
d="M391 123h-236l-45 -123h-145l317 760h153l102 -760h-135zM382 226l-37 411l-151 -411h188zM238 878.5q-20 20.5 -20 49.5t20 49.5t49 20.5t49.5 -20.5t20.5 -49.5t-20.5 -49.5t-49.5 -20.5t-49 20.5zM425.5 878.5q-20.5 20.5 -20.5 49.5t20.5 49.5t49.5 20.5
q28 0 48 -20.5t20 -49.5t-20 -49.5t-48 -20.5q-29 0 -49.5 20.5z" />
    <glyph glyph-name="uni04D3" unicode="&#x4d3;" horiz-adv-x="577" 
d="M555 517l-73 -517h-120l4 83q-28 -45 -69.5 -70t-89.5 -25q-50 0 -89 27.5t-61 76.5t-22 111q0 80 31.5 155t87 122.5t123.5 47.5q50 0 85 -27t51 -70l12 86h130zM331 125.5q31 30.5 48 77.5t17 95q0 55 -24.5 89t-66.5 34q-40 0 -72 -30.5t-49 -77.5t-17 -95
q0 -58 24 -90.5t69 -32.5q40 0 71 30.5zM191 635.5q-20 20.5 -20 49.5t20 49.5t49 20.5t49.5 -20.5t20.5 -49.5t-20.5 -49.5t-49.5 -20.5t-49 20.5zM378.5 635.5q-20.5 20.5 -20.5 49.5t20.5 49.5t49.5 20.5q28 0 48 -20.5t20 -49.5t-20 -49.5t-48 -20.5q-29 0 -49.5 20.5z
" />
    <glyph glyph-name="uni04D4" unicode="&#x4d4;" horiz-adv-x="833" 
d="M599 649l-28 -200h231l-16 -108h-230l-32 -230h239l-15 -111h-373l23 161h-204l-92 -161h-145l461 760h434l-16 -111h-237zM412 263l53 373l-213 -373h160z" />
    <glyph glyph-name="uni04D5" unicode="&#x4d5;" horiz-adv-x="836" 
d="M458 213q-2 -60 22 -94t69 -34q35 0 62 21.5t44 56.5l119 -11q-34 -79 -94.5 -121.5t-147.5 -42.5q-57 0 -98 26t-64 71q-66 -97 -198 -97q-65 0 -107.5 37t-42.5 100q0 88 58.5 133.5t159.5 45.5h112l2 12q3 17 3 32q0 45 -20.5 64t-52.5 19t-57.5 -17.5t-41.5 -49.5
l-114 12q30 69 87.5 110.5t139.5 41.5q45 0 82 -16.5t60 -49.5q33 32 75.5 49t90.5 17q94 0 144.5 -62t50.5 -162q0 -15 -3 -39t-7 -39h-331zM518.5 395q-32.5 -35 -47.5 -91h211v15q0 54 -22 82.5t-65 28.5q-44 0 -76.5 -35zM292.5 107q35.5 34 45.5 95l3 24h-92
q-53 0 -81.5 -22.5t-28.5 -66.5q0 -30 19.5 -47t51.5 -17q47 0 82.5 34z" />
    <glyph glyph-name="uni04D6" unicode="&#x4d6;" horiz-adv-x="495" 
d="M252 648l-28 -198h240l-15 -109h-240l-32 -229h249l-16 -112h-383l107 760h381l-16 -112h-247zM245 880.5q-36 46.5 -35 127.5h77q-3 -95 67 -95q61 0 78 95h76q-11 -91 -55 -132.5t-109 -41.5q-63 0 -99 46.5z" />
    <glyph glyph-name="uni04D7" unicode="&#x4d7;" horiz-adv-x="551" 
d="M166 213q-2 -60 21.5 -94t68.5 -34q34 0 61.5 21.5t43.5 56.5l128 -12q-35 -78 -98 -120.5t-152 -42.5q-62 0 -108 29t-70.5 78t-24.5 108q0 91 33.5 165t96.5 117t147 43q97 0 149.5 -61t52.5 -161q0 -17 -3 -44.5t-7 -43.5h-338zM223 392.5q-32 -37.5 -46 -96.5h211
q1 8 1 23q0 54 -22 82.5t-65 28.5q-47 0 -79 -37.5zM230 637.5q-36 46.5 -35 127.5h77q-3 -95 67 -95q61 0 78 95h76q-11 -91 -55 -132.5t-109 -41.5q-63 0 -99 46.5z" />
    <glyph glyph-name="uni04D8" unicode="&#x4d8;" horiz-adv-x="731" 
d="M580 729q64 -43 98 -118t34 -167q0 -122 -51 -227t-138 -167t-189 -62q-83 0 -147 44t-99 120t-35 168q0 55 14 111h515v12q0 96 -44 153t-116 57q-57 0 -106.5 -36t-80.5 -103l-132 23q52 110 139 172.5t190 62.5q84 0 148 -43zM483 172q62 65 86 165h-385v-17
q0 -97 42 -155t114 -58q81 0 143 65z" />
    <glyph glyph-name="uni04D9" unicode="&#x4d9;" horiz-adv-x="539" 
d="M414 499q46 -29 70.5 -78t24.5 -107q0 -91 -33.5 -165.5t-96.5 -117.5t-147 -43q-97 0 -149.5 61.5t-52.5 161.5q0 16 3 43t7 42h339v7q0 60 -23 94.5t-67 34.5q-34 0 -61.5 -21.5t-43.5 -56.5l-128 12q35 78 98 120t152 42q62 0 108 -29zM321.5 122.5
q33.5 35.5 48.5 93.5h-213q-1 -7 -1 -19q0 -54 22 -82t65 -28q45 0 78.5 35.5z" />
    <glyph glyph-name="uni04DA" unicode="&#x4da;" horiz-adv-x="731" 
d="M580 729q64 -43 98 -118t34 -167q0 -122 -51 -227t-138 -167t-189 -62q-83 0 -147 44t-99 120t-35 168q0 55 14 111h515v12q0 96 -44 153t-116 57q-57 0 -106.5 -36t-80.5 -103l-132 23q52 110 139 172.5t190 62.5q84 0 148 -43zM483 172q62 65 86 165h-385v-17
q0 -97 42 -155t114 -58q81 0 143 65zM311 878.5q-20 20.5 -20 49.5t20 49.5t49 20.5t49.5 -20.5t20.5 -49.5t-20.5 -49.5t-49.5 -20.5t-49 20.5zM498.5 878.5q-20.5 20.5 -20.5 49.5t20.5 49.5t49.5 20.5q28 0 48 -20.5t20 -49.5t-20 -49.5t-48 -20.5q-29 0 -49.5 20.5z" />
    <glyph glyph-name="uni04DB" unicode="&#x4db;" horiz-adv-x="539" 
d="M414 499q46 -29 70.5 -78t24.5 -107q0 -91 -33.5 -165.5t-96.5 -117.5t-147 -43q-97 0 -149.5 61.5t-52.5 161.5q0 16 3 43t7 42h339v7q0 60 -23 94.5t-67 34.5q-34 0 -61.5 -21.5t-43.5 -56.5l-128 12q35 78 98 120t152 42q62 0 108 -29zM321.5 122.5
q33.5 35.5 48.5 93.5h-213q-1 -7 -1 -19q0 -54 22 -82t65 -28q45 0 78.5 35.5zM180 635.5q-20 20.5 -20 49.5t20 49.5t49 20.5t49.5 -20.5t20.5 -49.5t-20.5 -49.5t-49.5 -20.5t-49 20.5zM367.5 635.5q-20.5 20.5 -20.5 49.5t20.5 49.5t49.5 20.5q28 0 48 -20.5t20 -49.5
t-20 -49.5t-48 -20.5q-29 0 -49.5 20.5z" />
    <glyph glyph-name="uni04DC" unicode="&#x4dc;" horiz-adv-x="873" 
d="M669 447l159 -447h-132l-111 347l-85 -102l-34 -245h-130l37 262l-55 99l-202 -361h-144l283 478l-154 282h136l158 -340l47 340h130l-48 -347l250 347h155zM386 878.5q-20 20.5 -20 49.5t20 49.5t49 20.5t49.5 -20.5t20.5 -49.5t-20.5 -49.5t-49.5 -20.5t-49 20.5z
M573.5 878.5q-20.5 20.5 -20.5 49.5t20.5 49.5t49.5 20.5q28 0 48 -20.5t20 -49.5t-20 -49.5t-48 -20.5q-29 0 -49.5 20.5z" />
    <glyph glyph-name="uni04DD" unicode="&#x4dd;" horiz-adv-x="693" 
d="M523 314l130 -314h-123l-83 235l-53 -56l-25 -179h-119l27 190l-32 48l-142 -238h-136l216 331l-124 186h128l109 -188l27 188h118l-27 -192l154 192h148zM261 635.5q-20 20.5 -20 49.5t20 49.5t49 20.5t49.5 -20.5t20.5 -49.5t-20.5 -49.5t-49.5 -20.5t-49 20.5z
M448.5 635.5q-20.5 20.5 -20.5 49.5t20.5 49.5t49.5 20.5q28 0 48 -20.5t20 -49.5t-20 -49.5t-48 -20.5q-29 0 -49.5 20.5z" />
    <glyph glyph-name="uni04DE" unicode="&#x4de;" horiz-adv-x="531" 
d="M481 341q21 -40 21 -87q0 -82 -33.5 -142t-94.5 -92t-144 -32q-103 0 -160 51.5t-57 136.5q0 13 2 37l129 3q-2 -18 -2 -27q0 -44 23.5 -68.5t68.5 -24.5q58 0 95.5 44.5t37.5 113.5q0 95 -103 95h-98l15 102h80q59 0 96 38t37 97q0 36 -21 57t-63 21q-52 0 -81 -30.5
t-38 -81.5l-124 11q14 93 80 151t178 58q101 0 152.5 -49t51.5 -122q0 -65 -28 -117t-78 -81q37 -22 58 -62zM208 878.5q-20 20.5 -20 49.5t20 49.5t49 20.5t49.5 -20.5t20.5 -49.5t-20.5 -49.5t-49.5 -20.5t-49 20.5zM395.5 878.5q-20.5 20.5 -20.5 49.5t20.5 49.5
t49.5 20.5q28 0 48 -20.5t20 -49.5t-20 -49.5t-48 -20.5q-29 0 -49.5 20.5z" />
    <glyph glyph-name="uni04DF" unicode="&#x4df;" horiz-adv-x="426" 
d="M368 231q19 -28 19 -67q0 -82 -54.5 -129t-155.5 -47q-88 0 -133 40.5t-45 100.5v17l119 2v-12q0 -55 60 -55q38 0 62 25.5t24 63.5q0 26 -17 41t-51 15h-65l11 82h53q39 0 62.5 24t23.5 57q0 48 -54 48q-34 0 -54 -19t-25 -50l-113 12q13 66 62.5 107t139.5 41
q81 0 124.5 -34t43.5 -90q0 -43 -24.5 -78.5t-63.5 -51.5q32 -15 51 -43zM121 635.5q-20 20.5 -20 49.5t20 49.5t49 20.5t49.5 -20.5t20.5 -49.5t-20.5 -49.5t-49.5 -20.5t-49 20.5zM308.5 635.5q-20.5 20.5 -20.5 49.5t20.5 49.5t49.5 20.5q28 0 48 -20.5t20 -49.5
t-20 -49.5t-48 -20.5q-29 0 -49.5 20.5z" />
    <glyph glyph-name="uni04E0" unicode="&#x4e0;" horiz-adv-x="525" 
d="M449.5 408.5q48.5 -51.5 48.5 -134.5q0 -87 -33 -151.5t-94 -99.5t-142 -35q-65 0 -114 24t-75 66.5t-26 96.5q0 20 3 38l130 3q-3 -12 -3 -26q0 -44 23 -69t69 -25q58 0 94 48t36 123q0 101 -103 101h-89l11 88l155 195h-232l16 109h439l-244 -295q82 -5 130.5 -56.5z
" />
    <glyph glyph-name="uni04E1" unicode="&#x4e1;" horiz-adv-x="469" 
d="M371 173.5q44 -46.5 44 -121.5q0 -80 -30.5 -139t-86 -91t-130.5 -32q-90 0 -141.5 47.5t-52.5 123.5q0 6 2 20h113l-1 -13q0 -38 22 -58.5t62 -20.5q56 0 91 44.5t35 111.5q0 49 -27.5 73t-84.5 24q-35 0 -74 -4l8 88l148 192h-199l15 99h404l-233 -285
q72 -12 116 -58.5z" />
    <glyph glyph-name="uni04E2" unicode="&#x4e2;" horiz-adv-x="635" 
d="M641 760l-106 -760h-131l76 542l-321 -542h-131l106 760h131l-75 -538l320 538h131zM292 977h247l-11 -79h-247z" />
    <glyph glyph-name="uni04E3" unicode="&#x4e3;" horiz-adv-x="525" 
d="M502 517l-72 -517h-127l46 326l-200 -326h-127l73 517h126l-46 -327l201 327h126zM209 734h247l-11 -79h-247z" />
    <glyph glyph-name="uni04E4" unicode="&#x4e4;" horiz-adv-x="635" 
d="M641 760l-106 -760h-131l76 542l-321 -542h-131l106 760h131l-75 -538l320 538h131zM264 878.5q-20 20.5 -20 49.5t20 49.5t49 20.5t49.5 -20.5t20.5 -49.5t-20.5 -49.5t-49.5 -20.5t-49 20.5zM451.5 878.5q-20.5 20.5 -20.5 49.5t20.5 49.5t49.5 20.5q28 0 48 -20.5
t20 -49.5t-20 -49.5t-48 -20.5q-29 0 -49.5 20.5z" />
    <glyph glyph-name="uni04E5" unicode="&#x4e5;" horiz-adv-x="525" 
d="M502 517l-72 -517h-127l46 326l-200 -326h-127l73 517h126l-46 -327l201 327h126zM181 635.5q-20 20.5 -20 49.5t20 49.5t49 20.5t49.5 -20.5t20.5 -49.5t-20.5 -49.5t-49.5 -20.5t-49 20.5zM368.5 635.5q-20.5 20.5 -20.5 49.5t20.5 49.5t49.5 20.5q28 0 48 -20.5
t20 -49.5t-20 -49.5t-48 -20.5q-29 0 -49.5 20.5z" />
    <glyph glyph-name="uni04E6" unicode="&#x4e6;" horiz-adv-x="737" 
d="M181.5 29.5q-63.5 41.5 -96.5 114.5t-33 165q0 122 48.5 228.5t137 170.5t202.5 64q86 0 149.5 -41.5t96.5 -114.5t33 -165q0 -123 -49 -229.5t-137.5 -170t-201.5 -63.5q-86 0 -149.5 41.5zM469 158.5q53 48.5 82.5 126.5t29.5 161q0 95 -41 149.5t-115 54.5
q-70 0 -123.5 -49t-82.5 -126.5t-29 -159.5q0 -95 41.5 -150t115.5 -55q69 0 122 48.5zM318 878.5q-20 20.5 -20 49.5t20 49.5t49 20.5t49.5 -20.5t20.5 -49.5t-20.5 -49.5t-49.5 -20.5t-49 20.5zM505.5 878.5q-20.5 20.5 -20.5 49.5t20.5 49.5t49.5 20.5q28 0 48 -20.5
t20 -49.5t-20 -49.5t-48 -20.5q-29 0 -49.5 20.5z" />
    <glyph glyph-name="uni04E7" unicode="&#x4e7;" horiz-adv-x="560" 
d="M129 17.5q-46 29.5 -69 79.5t-23 110q0 89 34 162t98 116t149 43q66 0 112.5 -29.5t69.5 -79t23 -109.5q0 -89 -34 -162.5t-98 -116.5t-150 -43q-66 0 -112 29.5zM328 126q31 31 48 79t17 97q0 57 -24 88.5t-66 31.5q-41 0 -72 -31t-48 -79.5t-17 -97.5q0 -56 24.5 -87.5
t66.5 -31.5q40 0 71 31zM199 635.5q-20 20.5 -20 49.5t20 49.5t49 20.5t49.5 -20.5t20.5 -49.5t-20.5 -49.5t-49.5 -20.5t-49 20.5zM386.5 635.5q-20.5 20.5 -20.5 49.5t20.5 49.5t49.5 20.5q28 0 48 -20.5t20 -49.5t-20 -49.5t-48 -20.5q-29 0 -49.5 20.5z" />
    <glyph glyph-name="uni04E8" unicode="&#x4e8;" horiz-adv-x="737" 
d="M589.5 730.5q63.5 -41.5 96.5 -114.5t33 -165q0 -123 -49 -229.5t-137.5 -170t-201.5 -63.5q-86 0 -149.5 41.5t-96.5 114.5t-33 165q0 122 48.5 228.5t137 170.5t202.5 64q86 0 149.5 -41.5zM283.5 589.5q-60.5 -63.5 -85.5 -160.5h389v16q0 95 -42.5 151.5t-119.5 56.5
q-81 0 -141.5 -63.5zM488 171q61 64 86 164h-390v-19q0 -96 42 -152.5t119 -56.5q82 0 143 64z" />
    <glyph glyph-name="uni04E9" unicode="&#x4e9;" horiz-adv-x="560" 
d="M430.5 498.5q46.5 -29.5 69.5 -79t23 -109.5q0 -89 -34 -162.5t-98 -116.5t-150 -43q-66 0 -112 29.5t-69 79.5t-23 110q0 89 34 162t98 116t149 43q66 0 112.5 -29.5zM222 393.5q-36 -36.5 -53 -94.5h235v6q0 60 -25 92.5t-72 32.5q-49 0 -85 -36.5zM339 123
q36 37 53 96h-236v-7q0 -60 25.5 -93t72.5 -33q49 0 85 37z" />
    <glyph glyph-name="uni04EA" unicode="&#x4ea;" horiz-adv-x="737" 
d="M589.5 730.5q63.5 -41.5 96.5 -114.5t33 -165q0 -123 -49 -229.5t-137.5 -170t-201.5 -63.5q-86 0 -149.5 41.5t-96.5 114.5t-33 165q0 122 48.5 228.5t137 170.5t202.5 64q86 0 149.5 -41.5zM283.5 589.5q-60.5 -63.5 -85.5 -160.5h389v16q0 95 -42.5 151.5t-119.5 56.5
q-81 0 -141.5 -63.5zM488 171q61 64 86 164h-390v-19q0 -96 42 -152.5t119 -56.5q82 0 143 64zM318 878.5q-20 20.5 -20 49.5t20 49.5t49 20.5t49.5 -20.5t20.5 -49.5t-20.5 -49.5t-49.5 -20.5t-49 20.5zM505.5 878.5q-20.5 20.5 -20.5 49.5t20.5 49.5t49.5 20.5
q28 0 48 -20.5t20 -49.5t-20 -49.5t-48 -20.5q-29 0 -49.5 20.5z" />
    <glyph glyph-name="uni04EB" unicode="&#x4eb;" horiz-adv-x="560" 
d="M430.5 498.5q46.5 -29.5 69.5 -79t23 -109.5q0 -89 -34 -162.5t-98 -116.5t-150 -43q-66 0 -112 29.5t-69 79.5t-23 110q0 89 34 162t98 116t149 43q66 0 112.5 -29.5zM222 393.5q-36 -36.5 -53 -94.5h235v6q0 60 -25 92.5t-72 32.5q-49 0 -85 -36.5zM339 123
q36 37 53 96h-236v-7q0 -60 25.5 -93t72.5 -33q49 0 85 37zM195 635.5q-20 20.5 -20 49.5t20 49.5t49 20.5t49.5 -20.5t20.5 -49.5t-20.5 -49.5t-49.5 -20.5t-49 20.5zM382.5 635.5q-20.5 20.5 -20.5 49.5t20.5 49.5t49.5 20.5q28 0 48 -20.5t20 -49.5t-20 -49.5t-48 -20.5
q-29 0 -49.5 20.5z" />
    <glyph glyph-name="uni04EC" unicode="&#x4ec;" horiz-adv-x="722" 
d="M566.5 728.5q65.5 -43.5 101 -118.5t35.5 -167q0 -124 -51 -228.5t-139 -165.5t-192 -61q-77 0 -138 37.5t-96.5 101.5t-42.5 142l129 6q10 -79 51.5 -123.5t105.5 -44.5q80 0 141.5 64.5t86.5 163.5h-284l14 94h283v12q0 96 -42.5 154t-116.5 58q-67 0 -122.5 -46.5
t-87.5 -126.5l-129 19q47 127 137.5 200t205.5 73q85 0 150.5 -43.5zM299 878.5q-20 20.5 -20 49.5t20 49.5t49 20.5t49.5 -20.5t20.5 -49.5t-20.5 -49.5t-49.5 -20.5t-49 20.5zM486.5 878.5q-20.5 20.5 -20.5 49.5t20.5 49.5t49.5 20.5q28 0 48 -20.5t20 -49.5t-20 -49.5
t-48 -20.5q-29 0 -49.5 20.5z" />
    <glyph glyph-name="uni04ED" unicode="&#x4ed;" horiz-adv-x="555" 
d="M419 499q48 -29 73.5 -80t25.5 -116q0 -91 -34.5 -162.5t-97.5 -112t-145 -40.5q-93 0 -147.5 56t-61.5 147l113 5q5 -51 31 -80t69 -29q51 0 88 36.5t54 95.5h-177l13 83h175q0 61 -26.5 94.5t-73.5 33.5q-44 0 -79 -30t-55 -82l-113 18q31 92 95.5 142t157.5 50
q67 0 115 -29zM188 635.5q-20 20.5 -20 49.5t20 49.5t49 20.5t49.5 -20.5t20.5 -49.5t-20.5 -49.5t-49.5 -20.5t-49 20.5zM375.5 635.5q-20.5 20.5 -20.5 49.5t20.5 49.5t49.5 20.5q28 0 48 -20.5t20 -49.5t-20 -49.5t-48 -20.5q-29 0 -49.5 20.5z" />
    <glyph glyph-name="uni04EE" unicode="&#x4ee;" horiz-adv-x="543" 
d="M617 760l-408 -760h-141l147 275l-141 485h134l85 -341l183 341h141zM251 977h247l-11 -79h-247z" />
    <glyph glyph-name="uni04EF" unicode="&#x4ef;" 
d="M515 517l-67 -475q-17 -124 -82.5 -188t-170.5 -64q-78 0 -124 36t-60 98l130 16q8 -58 66 -58q47 0 73.5 39t37.5 117l5 39q-29 -39 -67 -59t-81 -20q-66 0 -99.5 43.5t-33.5 112.5q0 22 3 46l45 317h130l-41 -293q-4 -23 -4 -48q0 -37 15.5 -56.5t51.5 -19.5
q40 0 65.5 36.5t36.5 90.5l41 290h130zM216 734h247l-11 -79h-247z" />
    <glyph glyph-name="uni04F0" unicode="&#x4f0;" horiz-adv-x="543" 
d="M617 760l-408 -760h-141l147 275l-141 485h134l85 -341l183 341h141zM223 878.5q-20 20.5 -20 49.5t20 49.5t49 20.5t49.5 -20.5t20.5 -49.5t-20.5 -49.5t-49.5 -20.5t-49 20.5zM410.5 878.5q-20.5 20.5 -20.5 49.5t20.5 49.5t49.5 20.5q28 0 48 -20.5t20 -49.5
t-20 -49.5t-48 -20.5q-29 0 -49.5 20.5z" />
    <glyph glyph-name="uni04F1" unicode="&#x4f1;" 
d="M515 517l-67 -475q-17 -124 -82.5 -188t-170.5 -64q-78 0 -124 36t-60 98l130 16q8 -58 66 -58q47 0 73.5 39t37.5 117l5 39q-29 -39 -67 -59t-81 -20q-66 0 -99.5 43.5t-33.5 112.5q0 22 3 46l45 317h130l-41 -293q-4 -23 -4 -48q0 -37 15.5 -56.5t51.5 -19.5
q40 0 65.5 36.5t36.5 90.5l41 290h130zM188 635.5q-20 20.5 -20 49.5t20 49.5t49 20.5t49.5 -20.5t20.5 -49.5t-20.5 -49.5t-49.5 -20.5t-49 20.5zM375.5 635.5q-20.5 20.5 -20.5 49.5t20.5 49.5t49.5 20.5q28 0 48 -20.5t20 -49.5t-20 -49.5t-48 -20.5q-29 0 -49.5 20.5z
" />
    <glyph glyph-name="uni04F2" unicode="&#x4f2;" horiz-adv-x="543" 
d="M617 760l-408 -760h-141l147 275l-141 485h134l85 -341l183 341h141zM297 833h-84l84 171h132zM482 833h-84l84 171h132z" />
    <glyph glyph-name="uni04F3" unicode="&#x4f3;" 
d="M515 517l-67 -475q-17 -124 -82.5 -188t-170.5 -64q-78 0 -124 36t-60 98l130 16q8 -58 66 -58q47 0 73.5 39t37.5 117l5 39q-29 -39 -67 -59t-81 -20q-66 0 -99.5 43.5t-33.5 112.5q0 22 3 46l45 317h130l-41 -293q-4 -23 -4 -48q0 -37 15.5 -56.5t51.5 -19.5
q40 0 65.5 36.5t36.5 90.5l41 290h130zM262 590h-84l84 171h132zM447 590h-84l84 171h132z" />
    <glyph glyph-name="uni04F4" unicode="&#x4f4;" horiz-adv-x="575" 
d="M581 760l-106 -760h-133l39 278h-93q-59 0 -107.5 26t-77 75t-28.5 115q0 15 4 49l30 217h134l-30 -215q-4 -30 -4 -45q0 -55 26.5 -82.5t82.5 -27.5h78l52 370h133zM222 878.5q-20 20.5 -20 49.5t20 49.5t49 20.5t49.5 -20.5t20.5 -49.5t-20.5 -49.5t-49.5 -20.5
t-49 20.5zM409.5 878.5q-20.5 20.5 -20.5 49.5t20.5 49.5t49.5 20.5q28 0 48 -20.5t20 -49.5t-20 -49.5t-48 -20.5q-29 0 -49.5 20.5z" />
    <glyph glyph-name="uni04F5" unicode="&#x4f5;" horiz-adv-x="482" 
d="M460 517l-73 -517h-130l25 175h-64q-73 0 -120 43t-47 113q0 19 3 35l22 151h127l-21 -146q-2 -14 -2 -28q0 -65 67 -65h49l34 239h130zM148 635.5q-20 20.5 -20 49.5t20 49.5t49 20.5t49.5 -20.5t20.5 -49.5t-20.5 -49.5t-49.5 -20.5t-49 20.5zM335.5 635.5
q-20.5 20.5 -20.5 49.5t20.5 49.5t49.5 20.5q28 0 48 -20.5t20 -49.5t-20 -49.5t-48 -20.5q-29 0 -49.5 20.5z" />
    <glyph glyph-name="uni04F6" unicode="&#x4f6;" horiz-adv-x="447" 
d="M482 648h-230l-90 -648h-134l106 760h365zM219 -140h-111l13 140h-33l17 112h152z" />
    <glyph glyph-name="uni04F7" unicode="&#x4f7;" horiz-adv-x="363" 
d="M368 413h-158l-58 -413h-130l73 517h290zM201 -130h-106l11 130h-28l16 104h142z" />
    <glyph glyph-name="uni04F8" unicode="&#x4f8;" horiz-adv-x="816" 
d="M450 490q48 -29 72.5 -78t24.5 -109q0 -94 -34 -162.5t-97 -104.5t-147 -36h-241l106 760h133l-34 -241h102q67 0 115 -29zM823 760l-107 -760h-133l106 760h134zM371 161.5q41 52.5 41 135.5q0 52 -26 82.5t-81 30.5h-87l-42 -301h83q71 0 112 52.5zM354 878.5
q-20 20.5 -20 49.5t20 49.5t49 20.5t49.5 -20.5t20.5 -49.5t-20.5 -49.5t-49.5 -20.5t-49 20.5zM541.5 878.5q-20.5 20.5 -20.5 49.5t20.5 49.5t49.5 20.5q28 0 48 -20.5t20 -49.5t-20 -49.5t-48 -20.5q-29 0 -49.5 20.5z" />
    <glyph glyph-name="uni04F9" unicode="&#x4f9;" horiz-adv-x="702" 
d="M364 352q38 -20 58.5 -55.5t20.5 -78.5q0 -104 -61 -161t-164 -57h-196l73 517h129l-20 -145h73q49 0 87 -20zM680 517l-73 -517h-130l73 517h130zM288.5 126q27.5 31 27.5 83q0 32 -18 49.5t-53 17.5h-55l-26 -181h49q48 0 75.5 31zM255 635.5q-20 20.5 -20 49.5
t20 49.5t49 20.5t49.5 -20.5t20.5 -49.5t-20.5 -49.5t-49.5 -20.5t-49 20.5zM442.5 635.5q-20.5 20.5 -20.5 49.5t20.5 49.5t49.5 20.5q28 0 48 -20.5t20 -49.5t-20 -49.5t-48 -20.5q-29 0 -49.5 20.5z" />
    <glyph glyph-name="uni04FC" unicode="&#x4fc;" horiz-adv-x="557" 
d="M450 181q18 -49 27 -86t9 -71q0 -70 -32 -123t-87.5 -81.5t-125.5 -29.5l1 112q51 2 84.5 36t33.5 97q0 46 -16 93l-50 142l-177 -270h-150l269 392l-149 368h132l95 -255l159 255h151l-251 -372z" />
    <glyph glyph-name="uni04FD" unicode="&#x4fd;" horiz-adv-x="458" 
d="M347 158q23 -45 34 -83.5t11 -75.5q0 -100 -65.5 -154.5t-172.5 -54.5l5 106q47 0 81 31t34 85q0 44 -30 106l-23 50l-110 -168h-148l199 267l-117 250h130l64 -164l109 164h147l-192 -259z" />
    <glyph glyph-name="uni0510" unicode="&#x510;" horiz-adv-x="525" 
d="M445 748.5q47 -23.5 72 -63.5t25 -88q0 -22 -2 -34l-125 -11q2 16 2 23q0 41 -20.5 65t-64.5 24q-51 0 -81 -32t-30 -80q0 -45 27 -73t74 -28h80l-14 -102h-84q-78 0 -115.5 -38.5t-37.5 -107.5q0 -49 24.5 -78t74.5 -29q101 0 123 120l124 -3q-20 -113 -88 -169
t-175 -56q-98 0 -158 53t-60 145q0 75 37 137.5t109 87.5q-36 22 -54.5 58.5t-18.5 84.5q0 62 29 111.5t84.5 78t131.5 28.5q64 0 111 -23.5z" />
    <glyph glyph-name="uni0511" unicode="&#x511;" horiz-adv-x="422" 
d="M244.5 100q19.5 19 29.5 51l119 -8q-18 -76 -70 -115.5t-145 -39.5q-83 0 -127 37.5t-44 99.5q0 56 27 97t78 58q-26 14 -40.5 39t-14.5 57q0 65 48.5 108.5t137.5 43.5q82 0 127.5 -43t47.5 -108l-114 -7q-1 31 -16 49t-44 18q-33 0 -50.5 -18.5t-17.5 -51.5
q0 -26 17.5 -42.5t49.5 -16.5h52l-13 -82h-67q-42 0 -63.5 -24.5t-21.5 -63.5q0 -26 15.5 -41.5t45.5 -15.5q34 0 53.5 19z" />
    <glyph glyph-name="uni0512" unicode="&#x512;" horiz-adv-x="569" 
d="M531 25q0 -107 -66.5 -170t-179.5 -65l2 112q52 4 83 37t31 91q0 12 -2 30l-58 553l-234 -613h-142l316 760h153l94 -693q3 -19 3 -42z" />
    <glyph glyph-name="uni0513" unicode="&#x513;" horiz-adv-x="485" 
d="M443 1q0 -99 -66.5 -155t-174.5 -56l4 106q46 0 80.5 30.5t34.5 78.5q0 31 -5 63l-48 330l-167 -398h-134l242 517h143l79 -422q12 -65 12 -94z" />
    <glyph glyph-name="uni051C" unicode="&#x51c;" horiz-adv-x="870" 
d="M929 760l-277 -760h-139l-33 572l-198 -572h-138l-62 760h137l20 -614l204 614h120l32 -613l189 613h145z" />
    <glyph glyph-name="uni051D" unicode="&#x51d;" horiz-adv-x="708" 
d="M739 517l-212 -517h-128l-29 370l-134 -370h-128l-67 517h132l21 -402l144 402h103l28 -401l133 401h137z" />
    <glyph glyph-name="uni0524" unicode="&#x524;" horiz-adv-x="639" 
d="M519 0h-133l90 648h-225l-90 -648h-133l106 760h491zM577 -140h-111l13 140h-33l17 112h152z" />
    <glyph glyph-name="uni0525" unicode="&#x525;" horiz-adv-x="536" 
d="M423 0h-130l58 413h-141l-58 -413h-130l73 517h400zM472 -130h-106l11 130h-28l16 104h142z" />
    <glyph glyph-name="uni0526" unicode="&#x526;" horiz-adv-x="635" 
d="M446 448q48 -26 75.5 -75t27.5 -115q0 -17 -4 -49l-29 -209h-134l28 205q3 23 3 44q0 57 -26.5 84t-81.5 27h-92l-50 -360h-135l106 760h135l-40 -286h110q59 0 107 -26zM573 -140h-111l13 140h-33l17 112h152z" />
    </font>
</defs>
</svg>
