<?xml version="1.0" standalone="no"?>
<!DOCTYPE svg PUBLIC "-//W3C//DTD SVG 1.1//EN" "http://www.w3.org/Graphics/SVG/1.1/DTD/svg11.dtd" >
<svg xmlns="http://www.w3.org/2000/svg" xmlns:xlink="http://www.w3.org/1999/xlink" version="1.1">
<metadata>
Created by FontForge 20170731 at Wed Nov 22 21:03:26 2017
 By Aleksey,,,
Copyright (c) 2017 by Andreu Balius. All rights reserved.
</metadata>
<defs>
<font id="SeatBcn-Web-Book" horiz-adv-x="0" >
  <font-face 
    font-family="Seat Bcn - Web Book"
    font-weight="350"
    font-stretch="normal"
    units-per-em="1000"
    panose-1="0 0 4 0 0 0 0 0 0 0"
    ascent="760"
    descent="-240"
    x-height="512"
    cap-height="760"
    bbox="-413 -493 3842 1252"
    underline-thickness="50"
    underline-position="-150"
    unicode-range="U+000D-FEFC"
  />
<missing-glyph horiz-adv-x="600" 
d="M100 705h400v-705h-400v705zM438 62v581h-276v-581h276z" />
    <glyph glyph-name="fi" unicode="fi" horiz-adv-x="557" 
d="M491 0h-70v451h-262v-451h-70v451h-77l7 61h70v35q0 119 54 171t146 52q85 0 163 -44l-20 -53q-70 35 -139 35q-63 0 -98.5 -33.5t-35.5 -112.5v-50h332v-512z" />
    <glyph glyph-name="fl" unicode="fl" horiz-adv-x="610" 
d="M588 -10h-11q-54 0 -88 13.5t-51 47.5t-17 95v538q-69 24 -126 24q-64 0 -100 -33.5t-36 -112.5v-50h147v-61h-147v-451h-70v451h-77l7 61h70v35q0 119 54.5 171t148.5 52q102 0 199 -54v-567q0 -39 8 -59.5t26 -28t51 -7.5h7z" />
    <glyph glyph-name="uniFB2A" unicode="&#x5e9;&#x5c1;" horiz-adv-x="727" 
d="M665 576v-263q0 -170 -75.5 -246.5t-225.5 -76.5q-151 0 -226.5 76.5t-75.5 246.5v263h71v-257q0 -43 4 -71q67 4 108.5 23.5t62 61t20.5 111.5v132h71v-126q0 -86 -27.5 -137.5t-83 -76t-143.5 -30.5q20 -84 74.5 -118t144.5 -34q76 0 126 23t77 81.5t27 160.5v257h71z
M602 672q-8 8 -8 20q0 11 8 19.5t20 8.5t20 -8.5t8 -19.5q0 -12 -8 -20t-20 -8t-20 8z" />
    <glyph glyph-name="uniFB2B" unicode="&#x5e9;&#x5c2;" horiz-adv-x="727" 
d="M665 576v-263q0 -170 -75.5 -246.5t-225.5 -76.5q-151 0 -226.5 76.5t-75.5 246.5v263h71v-257q0 -43 4 -71q67 4 108.5 23.5t62 61t20.5 111.5v132h71v-126q0 -86 -27.5 -137.5t-83 -76t-143.5 -30.5q20 -84 74.5 -118t144.5 -34q76 0 126 23t77 81.5t27 160.5v257h71z
M78 672q-8 8 -8 20q0 11 8 19.5t20 8.5t20 -8.5t8 -19.5q0 -12 -8 -20t-20 -8t-20 8z" />
    <glyph glyph-name="uniFB2C" unicode="&#x5e9;&#x5bc;&#x5c1;" horiz-adv-x="727" 
d="M665 576v-263q0 -170 -75.5 -246.5t-225.5 -76.5q-151 0 -226.5 76.5t-75.5 246.5v263h71v-257q0 -43 4 -71q67 4 108.5 23.5t62 61t20.5 111.5v132h71v-126q0 -86 -27.5 -137.5t-83 -76t-143.5 -30.5q20 -84 74.5 -118t144.5 -34q76 0 126 23t77 81.5t27 160.5v257h71z
M423 191q-8 8 -8 20q0 11 8 19.5t20 8.5t20 -8.5t8 -19.5q0 -12 -8 -20t-20 -8t-20 8zM602 672q-8 8 -8 20q0 11 8 19.5t20 8.5t20 -8.5t8 -19.5q0 -12 -8 -20t-20 -8t-20 8z" />
    <glyph glyph-name="uniFB2D" unicode="&#x5e9;&#x5bc;&#x5c2;" horiz-adv-x="727" 
d="M665 576v-263q0 -170 -75.5 -246.5t-225.5 -76.5q-151 0 -226.5 76.5t-75.5 246.5v263h71v-257q0 -43 4 -71q67 4 108.5 23.5t62 61t20.5 111.5v132h71v-126q0 -86 -27.5 -137.5t-83 -76t-143.5 -30.5q20 -84 74.5 -118t144.5 -34q76 0 126 23t77 81.5t27 160.5v257h71z
M423 191q-8 8 -8 20q0 11 8 19.5t20 8.5t20 -8.5t8 -19.5q0 -12 -8 -20t-20 -8t-20 8zM78 672q-8 8 -8 20q0 11 8 19.5t20 8.5t20 -8.5t8 -19.5q0 -12 -8 -20t-20 -8t-20 8z" />
    <glyph glyph-name="uniFB30" unicode="&#x5d0;&#x5bc;" horiz-adv-x="581" 
d="M475 0l-262 338q-34 -18 -52 -56.5t-28 -104.5l-26 -177h-73l27 179q11 75 41 124t86 67l-158 206h86l220 -285q53 12 78 53t40 121l21 111h74l-21 -112q-17 -89 -55.5 -141.5t-111.5 -63.5l200 -259h-86zM312 459q-8 8 -8 20q0 11 8 19.5t20 8.5t20 -8.5t8 -19.5
q0 -12 -8 -20t-20 -8t-20 8z" />
    <glyph glyph-name="uniFB31" unicode="&#x5d1;&#x5bc;" horiz-adv-x="561" 
d="M544 63v-63h-513v63h364v269q0 98 -52 141.5t-168 43.5q-56 0 -122 -9l5 64q64 9 125 9q283 0 283 -249v-269h78zM194 262q-8 8 -8 20q0 11 8 19.5t20 8.5t20 -8.5t8 -19.5q0 -12 -8 -20t-20 -8t-20 8z" />
    <glyph glyph-name="uniFB32" unicode="&#x5d2;&#x5bc;" horiz-adv-x="377" 
d="M268 0l-46 196q-75 -122 -193 -206v91q119 89 186 172v260h-165l5 63h231v-332l51 -244h-69zM81 330q-8 8 -8 20q0 11 8 19.5t20 8.5t20 -8.5t8 -19.5q0 -12 -8 -20t-20 -8t-20 8z" />
    <glyph glyph-name="uniFB33" unicode="&#x5d3;&#x5bc;" horiz-adv-x="527" 
d="M490 513h-73v-513h-71v513h-333l4 63h478zM154 265q-8 8 -8 20q0 11 8 19.5t20 8.5t20 -8.5t8 -19.5q0 -12 -8 -20t-20 -8t-20 8z" />
    <glyph glyph-name="uniFB34" unicode="&#x5d4;&#x5bc;" horiz-adv-x="612" 
d="M479 0v330q0 100 -53.5 143.5t-176.5 43.5q-71 0 -177 -17l5 62q92 19 180 19q144 0 218.5 -60.5t74.5 -188.5v-332h-71zM77 338h71v-338h-71v338zM287 255q-8 8 -8 20q0 11 8 19.5t20 8.5t20 -8.5t8 -19.5q0 -12 -8 -20t-20 -8t-20 8z" />
    <glyph glyph-name="uniFB35" unicode="&#x5d5;&#x5bc;" horiz-adv-x="261" 
d="M127 513h-86l5 63h152v-576h-71v513zM8 265q-8 8 -8 20q0 11 8 19.5t20 8.5t20 -8.5t8 -19.5q0 -12 -8 -20t-20 -8t-20 8z" />
    <glyph glyph-name="uniFB36" unicode="&#x5d6;&#x5bc;" horiz-adv-x="375" 
d="M355 576l-5 -63h-3q-72 0 -106.5 -41.5t-34.5 -126.5q0 -54 20.5 -140t54.5 -205h-72q-32 112 -53 200t-21 146q0 121 85 167h-149l5 63h279zM38 265q-8 8 -8 20q0 11 8 19.5t20 8.5t20 -8.5t8 -19.5q0 -12 -8 -20t-20 -8t-20 8z" />
    <glyph glyph-name="uniFB38" unicode="&#x5d8;&#x5bc;" horiz-adv-x="639" 
d="M551.5 119.5q-36.5 -67.5 -98 -98.5t-139.5 -31q-119 0 -185.5 67t-66.5 180v339h71v-336q0 -92 49 -139t133 -47q88 0 144.5 55.5t56.5 178.5q0 110 -46.5 169.5t-130.5 59.5q-42 0 -74 -13l-6 63q14 6 40 10t53 4q111 0 173.5 -77t62.5 -214q0 -103 -36.5 -170.5z
M297 259q-8 8 -8 20q0 11 8 19.5t20 8.5t20 -8.5t8 -19.5q0 -12 -8 -20t-20 -8t-20 8z" />
    <glyph glyph-name="uniFB39" unicode="&#x5d9;&#x5bc;" horiz-adv-x="267" 
d="M116 513h-86l5 63h152v-369h-71v306zM9 355q-8 8 -8 20q0 11 8 19.5t20 8.5t20 -8.5t8 -19.5q0 -12 -8 -20t-20 -8t-20 8z" />
    <glyph glyph-name="uniFB3A" unicode="&#x5da;&#x5bc;" horiz-adv-x="491" 
d="M357 329q0 99 -50 143.5t-154 44.5q-62 0 -132 -10l4 61q69 13 136 13q125 0 196 -62t71 -190v-523h-71v523zM152 285q-8 8 -8 20q0 11 8 19.5t20 8.5t20 -8.5t8 -19.5q0 -12 -8 -20t-20 -8t-20 8z" />
    <glyph glyph-name="uniFB3B" unicode="&#x5db;&#x5bc;" horiz-adv-x="521" 
d="M371.5 424.5q-26.5 50.5 -80 71.5t-140.5 21q-46 0 -98 -7l4 64q48 7 101 7q155 0 233 -67.5t78 -228.5q0 -159 -78.5 -227t-233.5 -68q-59 0 -121 11l8 61q61 -8 106 -8q88 0 141.5 21.5t80 71.5t26.5 138q0 89 -26.5 139.5zM183 262q-8 8 -8 20q0 11 8 19.5t20 8.5
t20 -8.5t8 -19.5q0 -12 -8 -20t-20 -8t-20 8z" />
    <glyph glyph-name="uniFB3C" unicode="&#x5dc;&#x5bc;" horiz-adv-x="486" 
d="M214 0h-76l243 513h-365v187h71v-124h376l-5 -61zM131 346q-8 8 -8 20q0 11 8 19.5t20 8.5t20 -8.5t8 -19.5q0 -12 -8 -20t-20 -8t-20 8z" />
    <glyph glyph-name="uniFB3E" unicode="&#x5de;&#x5bc;" horiz-adv-x="642" 
d="M531.5 509.5q59.5 -71.5 59.5 -235.5q0 -147 -59.5 -210.5t-188.5 -63.5q-62 0 -71 1v62h64q68 0 107.5 19t58 65.5t18.5 131.5q0 133 -39 185.5t-119 52.5q-69 0 -112.5 -34t-58.5 -114l-70 -369h-71l69 345l-83 231h83l33 -170q20 85 78 130t142 45q100 0 159.5 -71.5z
M332 262q-8 8 -8 20q0 11 8 19.5t20 8.5t20 -8.5t8 -19.5q0 -12 -8 -20t-20 -8t-20 8z" />
    <glyph glyph-name="uniFB40" unicode="&#x5e0;&#x5bc;" horiz-adv-x="317" 
d="M25 64h51q51 0 79.5 23.5t28.5 90.5v335h-140l5 63h206v-398q0 -101 -49 -139.5t-131 -38.5h-50v64zM56 272q-8 8 -8 20q0 11 8 19.5t20 8.5t20 -8.5t8 -19.5q0 -12 -8 -20t-20 -8t-20 8z" />
    <glyph glyph-name="uniFB41" unicode="&#x5e1;&#x5bc;" horiz-adv-x="634" 
d="M129.5 61q-68.5 71 -68.5 203v296q54 12 103.5 16.5t111.5 4.5q150 0 228.5 -70.5t78.5 -224.5q0 -147 -70 -221.5t-193 -74.5q-122 0 -190.5 71zM460.5 109q51.5 55 51.5 177q0 123 -57.5 177t-184.5 54q-66 0 -138 -9v-244q0 -109 49.5 -159.5t138.5 -50.5t140.5 55z
M297 272q-8 8 -8 20q0 11 8 19.5t20 8.5t20 -8.5t8 -19.5q0 -12 -8 -20t-20 -8t-20 8z" />
    <glyph glyph-name="uniFB43" unicode="&#x5e3;&#x5bc;" horiz-adv-x="574" 
d="M441 309q0 111 -44 159.5t-131 48.5q-79 0 -121 -36t-42 -105q0 -57 28 -90t76 -33h15v-64h-26q-44 0 -81 21t-60 63.5t-23 102.5q0 101 64 153t170 52q115 0 180.5 -65t65.5 -205v-505h-71v503zM248 365q-8 8 -8 20q0 11 8 19.5t20 8.5t20 -8.5t8 -19.5q0 -12 -8 -20
t-20 -8t-20 8z" />
    <glyph glyph-name="uniFB44" unicode="&#x5e4;&#x5bc;" horiz-adv-x="590" 
d="M55 1l8 62q59 -8 131 -8q95 0 154.5 21t89.5 71t30 136q0 121 -55 177.5t-146 56.5q-75 0 -114.5 -31t-39.5 -91q0 -48 26 -76t72 -28h12v-64h-21q-68 0 -114 44t-46 124q0 91 62 138.5t165 47.5q122 0 196 -75.5t74 -222.5q0 -156 -86.5 -224.5t-254.5 -68.5
q-68 0 -143 11zM251 377q-8 8 -8 20q0 11 8 19.5t20 8.5t20 -8.5t8 -19.5q0 -12 -8 -20t-20 -8t-20 8z" />
    <glyph glyph-name="uniFB46" unicode="&#x5e6;&#x5bc;" horiz-adv-x="537" 
d="M513 0h-486v63h359l-376 513h80l207 -282q55 13 80 52t40 118l21 112h71l-22 -112q-16 -88 -53.5 -139t-112.5 -64zM134 162q-8 8 -8 20q0 11 8 19.5t20 8.5t20 -8.5t8 -19.5q0 -12 -8 -20t-20 -8t-20 8z" />
    <glyph glyph-name="uniFB47" unicode="&#x5e7;&#x5bc;" horiz-adv-x="580" 
d="M348 0h-71l205 513h-414l4 63h486l-5 -62zM73 359h71v-553h-71v553zM262 345q-8 8 -8 20q0 11 8 19.5t20 8.5t20 -8.5t8 -19.5q0 -12 -8 -20t-20 -8t-20 8z" />
    <glyph glyph-name="uniFB48" unicode="&#x5e8;&#x5bc;" horiz-adv-x="491" 
d="M357 329q0 99 -50 143.5t-154 44.5q-55 0 -132 -11l4 63q69 12 136 12q125 0 196 -62t71 -190v-329h-71v329zM155 254q-8 8 -8 20q0 11 8 19.5t20 8.5t20 -8.5t8 -19.5q0 -12 -8 -20t-20 -8t-20 8z" />
    <glyph glyph-name="uniFB49" unicode="&#x5e9;&#x5bc;" horiz-adv-x="727" 
d="M665 576v-263q0 -170 -75.5 -246.5t-225.5 -76.5q-151 0 -226.5 76.5t-75.5 246.5v263h71v-257q0 -43 4 -71q67 4 108.5 23.5t62 61t20.5 111.5v132h71v-126q0 -86 -27.5 -137.5t-83 -76t-143.5 -30.5q20 -84 74.5 -118t144.5 -34q76 0 126 23t77 81.5t27 160.5v257h71z
M423 191q-8 8 -8 20q0 11 8 19.5t20 8.5t20 -8.5t8 -19.5q0 -12 -8 -20t-20 -8t-20 8z" />
    <glyph glyph-name="uniFB4A" unicode="&#x5ea;&#x5bc;" horiz-adv-x="671" 
d="M530 521q79 -60 79 -189v-332h-71v330q0 100 -56 143.5t-184 43.5q-25 0 -81 -2v-337q0 -101 -48 -139.5t-128 -38.5h-19v64h19q50 0 77.5 23.5t27.5 90.5v332q-77 -8 -113 -14l4 61q59 12 129 18t132 6q153 0 232 -60zM347 255q-8 8 -8 20q0 11 8 19.5t20 8.5t20 -8.5
t8 -19.5q0 -12 -8 -20t-20 -8t-20 8z" />
    <glyph glyph-name="uniFB4B" unicode="&#x5d5;&#x5b9;" horiz-adv-x="239" 
d="M99 513h-86l5 63h152v-576h-71v513zM69 673q-8 8 -8 20q0 11 8 19.5t20 8.5t20 -8.5t8 -19.5q0 -12 -8 -20t-20 -8t-20 8z" />
    <glyph glyph-name="uniFEF5" unicode="&#xfedf;&#xfe82;" horiz-adv-x="600" arabic-form="isolated" 
d="M520 760v-605q0 -61 -17.5 -94.5t-51 -47t-87.5 -13.5h-324v71h199l-132 565h73l132 -565h49q34 0 52.5 7t27.5 27.5t9 60.5v594h70zM318 774v47q-28 -16 -49 -23t-44 -7t-44.5 7.5t-49.5 23.5l-91 -38l17 -40l74 31q44 -30 94 -30t93 29z" />
    <glyph glyph-name="uniFEF6" unicode="&#xfee0;&#xfe82;" horiz-adv-x="633" arabic-form="final" 
d="M642 71v-71h-9q-54 0 -85 12.5t-44 50.5q-16 -35 -50.5 -49t-89.5 -14h-324v71h199l-132 565h73l132 -565h49q34 0 52.5 7t27.5 27.5t9 60.5v594h70v-594q0 -40 9 -60.5t27.5 -27.5t52.5 -7h33zM318 774v47q-28 -16 -49 -23t-44 -7t-44.5 7.5t-49.5 23.5l-91 -38l17 -40
l74 31q44 -30 94 -30t93 29z" />
    <glyph glyph-name="uniFEF7" unicode="&#xfedf;&#xfe84;" horiz-adv-x="600" arabic-form="isolated" 
d="M520 760v-605q0 -61 -17.5 -94.5t-51 -47t-87.5 -13.5h-324v71h199l-132 565h73l132 -565h49q34 0 52.5 7t27.5 27.5t9 60.5v594h70zM241 752h-193v47h43q-15 23 -15 51q0 42 27.5 64.5t67.5 22.5q29 0 49 -9l-2 -47q-20 10 -45 10q-24 0 -39 -12.5t-15 -32.5
q0 -18 12.5 -32.5t40.5 -14.5h69v-47z" />
    <glyph glyph-name="uniFEF8" unicode="&#xfee0;&#xfe84;" horiz-adv-x="633" arabic-form="final" 
d="M642 71v-71h-9q-54 0 -85 12.5t-44 50.5q-16 -35 -50.5 -49t-89.5 -14h-324v71h199l-132 565h73l132 -565h49q34 0 52.5 7t27.5 27.5t9 60.5v594h70v-594q0 -40 9 -60.5t27.5 -27.5t52.5 -7h33zM241 752h-193v47h43q-15 23 -15 51q0 42 27.5 64.5t67.5 22.5q29 0 49 -9
l-2 -47q-20 10 -45 10q-24 0 -39 -12.5t-15 -32.5q0 -18 12.5 -32.5t40.5 -14.5h69v-47z" />
    <glyph glyph-name="uniFEF9" unicode="&#xfedf;&#xfe88;" horiz-adv-x="600" arabic-form="isolated" 
d="M520 760v-605q0 -61 -17.5 -94.5t-51 -47t-87.5 -13.5h-324v71h199l-132 565h73l132 -565h49q34 0 52.5 7t27.5 27.5t9 60.5v594h70zM335 -249h-193v47h43q-15 23 -15 51q0 42 27.5 64.5t67.5 22.5q29 0 49 -9l-2 -47q-20 10 -45 10q-24 0 -39 -12.5t-15 -32.5
q0 -18 12.5 -32.5t40.5 -14.5h69v-47z" />
    <glyph glyph-name="uniFEFA" unicode="&#xfee0;&#xfe88;" horiz-adv-x="633" arabic-form="final" 
d="M642 71v-71h-9q-54 0 -85 12.5t-44 50.5q-16 -35 -50.5 -49t-89.5 -14h-324v71h199l-132 565h73l132 -565h49q34 0 52.5 7t27.5 27.5t9 60.5v594h70v-594q0 -40 9 -60.5t27.5 -27.5t52.5 -7h33zM335 -249h-193v47h43q-15 23 -15 51q0 42 27.5 64.5t67.5 22.5q29 0 49 -9
l-2 -47q-20 10 -45 10q-24 0 -39 -12.5t-15 -32.5q0 -18 12.5 -32.5t40.5 -14.5h69v-47z" />
    <glyph glyph-name="uniFEFB" unicode="&#xfedf;&#xfe8e;" horiz-adv-x="600" arabic-form="isolated" 
d="M520 760v-605q0 -61 -17.5 -94.5t-51 -47t-87.5 -13.5h-324v71h199l-132 565h73l132 -565h49q34 0 52.5 7t27.5 27.5t9 60.5v594h70z" />
    <glyph glyph-name="uniFEFC" unicode="&#xfee0;&#xfe8e;" horiz-adv-x="633" arabic-form="final" 
d="M642 71v-71h-9q-54 0 -85 12.5t-44 50.5q-16 -35 -50.5 -49t-89.5 -14h-324v71h199l-132 565h73l132 -565h49q34 0 52.5 7t27.5 27.5t9 60.5v594h70v-594q0 -40 9 -60.5t27.5 -27.5t52.5 -7h33z" />
    <glyph glyph-name="f_f" unicode="ff" horiz-adv-x="646" 
d="M511.5 683.5q-20.5 -24.5 -20.5 -86.5v-85h140v-61h-140v-451h-70v451h-262v-451h-70v451h-77l7 61h70v85q0 173 145 173q54 0 93 -22l-6 -58q-42 18 -79 18q-42 0 -62.5 -24.5t-20.5 -86.5v-85h262v85q0 173 145 173q54 0 93 -22l-6 -58q-42 18 -79 18
q-42 0 -62.5 -24.5z" />
    <glyph glyph-name="f_f_i" unicode="ffi" horiz-adv-x="889" 
d="M822 0h-70v451h-261v-451h-70v451h-262v-451h-70v451h-77l7 61h70v85q0 173 145 173q54 0 93 -22l-6 -58q-42 18 -79 18q-42 0 -62.5 -24.5t-20.5 -86.5v-85h262v35q0 119 54 171t146 52q85 0 163 -44l-21 -53q-68 35 -138 35q-63 0 -98.5 -33.5t-35.5 -112.5v-50h331
v-512z" />
    <glyph glyph-name="f_f_l" unicode="ffl" horiz-adv-x="942" 
d="M920 -10h-12q-54 0 -87.5 13.5t-51 47.5t-17.5 95v538q-62 24 -126 24t-99.5 -33.5t-35.5 -112.5v-50h147v-61h-147v-451h-70v451h-262v-451h-70v451h-77l7 61h70v85q0 173 145 173q54 0 93 -22l-6 -58q-42 18 -79 18q-42 0 -62.5 -24.5t-20.5 -86.5v-85h262v35
q0 119 54.5 171t148.5 52q101 0 198 -54v-567q0 -39 8.5 -59.5t26.5 -28t51 -7.5h7z" />
    <glyph glyph-name="uni04570457.liga" unicode="&#x457;&#x457;" horiz-adv-x="433" 
d="M-22.5 637q-14.5 14 -14.5 34q0 21 14.5 35.5t34.5 14.5t34.5 -14.5t14.5 -35.5q0 -20 -14.5 -34t-34.5 -14t-34.5 14zM113 637q-14 14 -14 34q0 21 14 35.5t35 14.5q20 0 34 -14.5t14 -35.5q0 -19 -14 -33.5t-34 -14.5q-21 0 -35 14zM252 637q-14 14 -14 34
q0 21 14 35.5t35 14.5q20 0 34 -14.5t14 -35.5q0 -19 -14 -33.5t-34 -14.5q-21 0 -35 14zM387 637q-14 14 -14 34q0 21 14 35.5t35 14.5q20 0 34 -14.5t14 -35.5q0 -20 -14 -34t-34 -14q-21 0 -35 14zM44 512h70v-512h-70v512zM319 512h70v-512h-70v512z" />
    <glyph glyph-name="uni06440671" unicode="&#xfedf;&#xfb51;" horiz-adv-x="609" 
d="M529 760v-605q0 -61 -17.5 -94.5t-51 -47t-87.5 -13.5h-324v71h199l-132 565h73l132 -565h49q34 0 52.5 7t27.5 27.5t9 60.5v594h70zM270 911q25 -24 25 -79v-80h-255v47h41q32 136 126 136q38 0 63 -24zM252 799v35q0 27 -13.5 40.5t-38.5 13.5q-30 0 -52.5 -22.5
t-33.5 -66.5h138z" />
    <glyph glyph-name="uni06440671.fina" unicode="&#xfee0;&#xfb51;" horiz-adv-x="642" 
d="M651 71v-71h-9q-54 0 -85 12.5t-44 50.5q-16 -35 -50.5 -49t-89.5 -14h-324v71h199l-132 565h73l132 -565h49q34 0 52.5 7t27.5 27.5t9 60.5v594h70v-594q0 -40 9 -60.5t27.5 -27.5t52.5 -7h33zM270 911q25 -24 25 -79v-80h-255v47h41q32 136 126 136q38 0 63 -24z
M252 799v35q0 27 -13.5 40.5t-38.5 13.5q-30 0 -52.5 -22.5t-33.5 -66.5h138z" />
    <glyph glyph-name="uni05DC05B9" unicode="&#x5dc;&#x5b9;" horiz-adv-x="486" 
d="M214 0h-76l243 513h-365v187h71v-124h376l-5 -61zM-70 672q-8 8 -8 20q0 11 8 19.5t20 8.5t20 -8.5t8 -19.5q0 -12 -8 -20t-20 -8t-20 8z" />
    <glyph glyph-name="uni05DC05BC05B9" unicode="&#x5dc;&#x5b9;&#x5bc;" horiz-adv-x="486" 
d="M214 0h-76l243 513h-365v187h71v-124h376l-5 -61zM131 346q-8 8 -8 20q0 11 8 19.5t20 8.5t20 -8.5t8 -19.5q0 -12 -8 -20t-20 -8t-20 8zM-70 672q-8 8 -8 20q0 11 8 19.5t20 8.5t20 -8.5t8 -19.5q0 -12 -8 -20t-20 -8t-20 8z" />
    <glyph glyph-name="uni066E.init" unicode="&#x66e;" horiz-adv-x="253" 
d="M-9 71h31q35 0 54 7.5t28 28.5t9 63v276h70v-290q0 -81 -36.5 -118.5t-122.5 -37.5h-33v71z" />
    <glyph glyph-name="uni066E.medi" unicode="&#x66e;" horiz-adv-x="297" 
d="M306 71v-71h-9q-55 0 -86.5 13t-44.5 52q-17 -35 -52 -50t-90 -15h-33v71h31q35 0 54 7.5t28 28.5t9 63v276h70v-280q0 -40 9 -60.5t27.5 -27.5t52.5 -7h34z" />
    <glyph glyph-name="uni066E.fina" unicode="&#x66e;" horiz-adv-x="878" 
d="M887 71v-71h-8q-55 0 -86 13t-45 51q-17 -35 -51.5 -49.5t-90.5 -14.5h-390q-54 0 -87.5 13.5t-51 47.5t-17.5 95v150h70v-140q0 -40 9 -60.5t27.5 -27.5t52.5 -7h384q35 0 54.5 7.5t28.5 28.5t9 63v276h70v-280q0 -40 9 -60.5t27.5 -27.5t52.5 -7h33z" />
    <glyph glyph-name="uni066F.fina" unicode="&#x66f;" horiz-adv-x="851" 
d="M860 71v-71h-115v-35q0 -89 -38 -124t-120 -35h-215q-167 0 -239.5 81.5t-72.5 202.5q0 91 33 161h71q-33 -75 -33 -156q0 -86 49 -152.5t184 -66.5h221q35 0 53.5 7.5t27.5 28.5t9 63v25h-70q-78 0 -134.5 28t-86.5 78.5t-30 116.5t29.5 116.5t84.5 78.5t130 28h147
v-375h115zM675 71v304h-77q-83 0 -128.5 -39.5t-45.5 -112.5t47 -112.5t134 -39.5h70z" />
    <glyph glyph-name="uni06A1.init" unicode="&#x6a1;" horiz-adv-x="547" 
d="M477 446v-446h-486v71h159q-64 61 -64 154q0 65 29 115t84 78t131 28h147zM407 71v304h-77q-83 0 -128.5 -39.5t-45.5 -112.5t47 -112.5t134 -39.5h70z" />
    <glyph glyph-name="uni06A1.medi" unicode="&#x6a1;" horiz-adv-x="590" 
d="M599 71v-71h-608v71h159q-64 61 -64 154q0 65 29 115t84 78t131 28h147v-375h122zM407 375h-77q-83 0 -128.5 -39.5t-45.5 -112.5t47 -112.5t134 -39.5h70v304z" />
    <glyph glyph-name="uni06A1.fina" unicode="&#x6a1;" horiz-adv-x="1026" 
d="M1035 71v-71h-819q-54 0 -87.5 13.5t-51 47t-17.5 94.5v151h70v-140q0 -40 9 -60.5t27.5 -27.5t52.5 -7h375q-64 61 -64 154q0 65 29 115t84 78t131 28h147v-375h114zM851 71v304h-77q-83 0 -128.5 -39.5t-45.5 -112.5t46.5 -112.5t132.5 -39.5h72z" />
    <glyph glyph-name="uni06C2.fina" unicode="&#x6c2;" horiz-adv-x="648" 
d="M657 71v-71h-36q-84 0 -120 36.5t-36 116.5v222h-27q-59 0 -103.5 -32.5t-92 -111.5t-116.5 -231h-76q78 183 139 278.5t117.5 131.5t131.5 36h97v-280q0 -40 9 -60.5t27.5 -27.5t52.5 -7h33zM580 547h-193v47h43q-15 23 -15 51q0 42 27.5 64.5t67.5 22.5q29 0 49 -9
l-2 -47q-20 10 -45 10q-24 0 -39 -12.5t-15 -32.5q0 -18 12.5 -32.5t40.5 -14.5h69v-47z" />
    <glyph glyph-name="uni06C3.fina" unicode="&#x6c3;" horiz-adv-x="648" 
d="M657 71v-71h-36q-84 0 -120 36.5t-36 116.5v222h-27q-59 0 -103.5 -32.5t-92 -111.5t-116.5 -231h-76q78 183 139 278.5t117.5 131.5t131.5 36h97v-280q0 -40 9 -60.5t27.5 -27.5t52.5 -7h33zM384 591q-15 15 -15 37t15 37t36 15t36 -15t15 -37t-15 -37t-36 -15t-36 15z
M513 591q-15 15 -15 37t15 37t36 15t36 -15t15 -37t-15 -37t-36 -15t-36 15z" />
    <glyph glyph-name="uniFB51" unicode="&#x671;" horiz-adv-x="263" arabic-form="final" 
d="M148.5 13.5q-33.5 13.5 -51 47t-17.5 94.5v605h70v-594q0 -40 9 -60.5t27.5 -27.5t52.5 -7h33v-71h-36q-54 0 -87.5 13.5zM203 1020q25 -24 25 -79v-80h-255v47h41q32 136 126 136q38 0 63 -24zM185 908v35q0 27 -13.5 40.5t-38.5 13.5q-30 0 -52.5 -22.5t-33.5 -66.5
h138z" />
    <glyph glyph-name="uniFB57" unicode="&#x67e;" horiz-adv-x="878" arabic-form="final" 
d="M887 71v-71h-8q-55 0 -86 13t-45 51q-17 -35 -51.5 -49.5t-90.5 -14.5h-390q-54 0 -87.5 13.5t-51 47.5t-17.5 95v150h70v-140q0 -40 9 -60.5t27.5 -27.5t52.5 -7h384q35 0 54.5 7.5t28.5 28.5t9 63v276h70v-280q0 -40 9 -60.5t27.5 -27.5t52.5 -7h33zM308.5 -182.5
q-13.5 13.5 -13.5 32.5q0 20 13.5 34t33.5 14q19 0 32.5 -14t13.5 -34t-13 -33t-33 -13t-33.5 13.5zM430.5 -183q-13.5 13 -13.5 33t13.5 34t33.5 14q19 0 32.5 -14t13.5 -34t-13 -33t-33 -13t-33.5 13zM369.5 -280.5q-13.5 13.5 -13.5 33.5t13.5 34t33.5 14q19 0 32.5 -14
t13.5 -34t-13.5 -33.5t-32.5 -13.5q-20 0 -33.5 13.5z" />
    <glyph glyph-name="uniFB58" unicode="&#x67e;" horiz-adv-x="253" arabic-form="initial" 
d="M-9 71h31q35 0 54 7.5t28 28.5t9 63v276h70v-290q0 -81 -36.5 -118.5t-122.5 -37.5h-33v71zM31.5 -182.5q-13.5 13.5 -13.5 32.5q0 20 13.5 34t33.5 14q19 0 32.5 -14t13.5 -34t-13 -33t-33 -13t-33.5 13.5zM153.5 -183q-13.5 13 -13.5 33t13.5 34t33.5 14q19 0 32.5 -14
t13.5 -34t-13 -33t-33 -13t-33.5 13zM92.5 -280.5q-13.5 13.5 -13.5 33.5t13.5 34t33.5 14q19 0 32.5 -14t13.5 -34t-13.5 -33.5t-32.5 -13.5q-20 0 -33.5 13.5z" />
    <glyph glyph-name="uniFB59" unicode="&#x67e;" horiz-adv-x="297" arabic-form="medial" 
d="M306 71v-71h-9q-55 0 -86.5 13t-44.5 52q-17 -35 -52 -50t-90 -15h-33v71h31q35 0 54 7.5t28 28.5t9 63v276h70v-280q0 -40 9 -60.5t27.5 -27.5t52.5 -7h34zM54.5 -182.5q-13.5 13.5 -13.5 32.5q0 20 13.5 34t33.5 14q19 0 32.5 -14t13.5 -34t-13 -33t-33 -13t-33.5 13.5
zM176.5 -183q-13.5 13 -13.5 33t13.5 34t33.5 14q19 0 32.5 -14t13.5 -34t-13 -33t-33 -13t-33.5 13zM115.5 -280.5q-13.5 13.5 -13.5 33.5t13.5 34t33.5 14q19 0 32.5 -14t13.5 -34t-13.5 -33.5t-32.5 -13.5q-20 0 -33.5 13.5z" />
    <glyph glyph-name="uniFB67" unicode="&#x679;" horiz-adv-x="878" arabic-form="final" 
d="M887 71v-71h-8q-55 0 -86 13t-45 51q-17 -35 -51.5 -49.5t-90.5 -14.5h-390q-54 0 -87.5 13.5t-51 47.5t-17.5 95v150h70v-140q0 -40 9 -60.5t27.5 -27.5t52.5 -7h384q35 0 54.5 7.5t28.5 28.5t9 63v276h70v-280q0 -40 9 -60.5t27.5 -27.5t52.5 -7h33zM506 573
q25 -24 25 -79v-80h-251v47h29v141h35v-72q37 67 99 67q38 0 63 -24zM488 461v35q0 27 -13.5 40.5t-37.5 13.5q-30 0 -53 -22.5t-34 -66.5h138z" />
    <glyph glyph-name="uniFB68" unicode="&#x679;" horiz-adv-x="253" arabic-form="initial" 
d="M-9 71h31q35 0 54 7.5t28 28.5t9 63v276h70v-290q0 -81 -36.5 -118.5t-122.5 -37.5h-33v71zM251 706q25 -24 25 -79v-80h-251v47h29v141h35v-72q37 67 99 67q38 0 63 -24zM233 594v35q0 27 -13.5 40.5t-37.5 13.5q-30 0 -53 -22.5t-34 -66.5h138z" />
    <glyph glyph-name="uniFB69" unicode="&#x679;" horiz-adv-x="297" arabic-form="medial" 
d="M306 71v-71h-9q-55 0 -86.5 13t-44.5 52q-17 -35 -52 -50t-90 -15h-33v71h31q35 0 54 7.5t28 28.5t9 63v276h70v-280q0 -40 9 -60.5t27.5 -27.5t52.5 -7h34zM252 706q25 -24 25 -79v-80h-251v47h29v141h35v-72q37 67 99 67q38 0 63 -24zM234 594v35q0 27 -13.5 40.5
t-37.5 13.5q-30 0 -53 -22.5t-34 -66.5h138z" />
    <glyph glyph-name="uniFB6B" unicode="&#x6a4;" horiz-adv-x="1026" arabic-form="final" 
d="M1035 71v-71h-819q-54 0 -87.5 13.5t-51 47t-17.5 94.5v151h70v-140q0 -40 9 -60.5t27.5 -27.5t52.5 -7h375q-64 61 -64 154q0 65 29 115t84 78t131 28h147v-375h114zM851 71v304h-77q-83 0 -128.5 -39.5t-45.5 -112.5t46.5 -112.5t132.5 -39.5h72zM794.5 727.5
q13.5 -13.5 13.5 -33.5t-13.5 -34t-32.5 -14q-20 0 -33.5 14t-13.5 34t13.5 33.5t33.5 13.5q19 0 32.5 -13.5zM734 630q13 -13 13 -33t-14 -34t-32 -14q-20 0 -33.5 14t-13.5 34q0 19 13.5 32.5t33.5 13.5t33 -13zM856 630q13 -13 13 -33t-13.5 -34t-32.5 -14
q-20 0 -33.5 14t-13.5 34t13.5 33t33.5 13t33 -13z" />
    <glyph glyph-name="uniFB6C" unicode="&#x6a4;" horiz-adv-x="547" arabic-form="initial" 
d="M477 446v-446h-486v71h159q-64 61 -64 154q0 65 29 115t84 78t131 28h147zM407 71v304h-77q-83 0 -128.5 -39.5t-45.5 -112.5t47 -112.5t134 -39.5h70zM350.5 727.5q13.5 -13.5 13.5 -33.5t-13.5 -34t-32.5 -14q-20 0 -33.5 14t-13.5 34t13.5 33.5t33.5 13.5
q19 0 32.5 -13.5zM290 630q13 -13 13 -33t-14 -34t-32 -14q-20 0 -33.5 14t-13.5 34q0 19 13.5 32.5t33.5 13.5t33 -13zM412 630q13 -13 13 -33t-13.5 -34t-32.5 -14q-20 0 -33.5 14t-13.5 34t13.5 33t33.5 13t33 -13z" />
    <glyph glyph-name="uniFB6D" unicode="&#x6a4;" horiz-adv-x="590" arabic-form="medial" 
d="M599 71v-71h-608v71h159q-64 61 -64 154q0 65 29 115t84 78t131 28h147v-375h122zM407 375h-77q-83 0 -128.5 -39.5t-45.5 -112.5t47 -112.5t134 -39.5h70v304zM350.5 727.5q13.5 -13.5 13.5 -33.5t-13.5 -34t-32.5 -14q-20 0 -33.5 14t-13.5 34t13.5 33.5t33.5 13.5
q19 0 32.5 -13.5zM290 630q13 -13 13 -33t-14 -34t-32 -14q-20 0 -33.5 14t-13.5 34q0 19 13.5 32.5t33.5 13.5t33 -13zM412 630q13 -13 13 -33t-13.5 -34t-32.5 -14q-20 0 -33.5 14t-13.5 34t13.5 33t33.5 13t33 -13z" />
    <glyph glyph-name="uniFB7B" unicode="&#x686;" horiz-adv-x="566" arabic-form="final" 
d="M575 71v-71h-8q-44 0 -73 12t-44 45q-18 -30 -57.5 -43.5t-91.5 -13.5h-85q-54 0 -80 -17.5t-26 -59.5q0 -50 36 -69t108 -19q26 0 53 3l-5 -71q-24 -3 -47 -3q-215 0 -215 158q0 79 48 114t129 35h82q47 0 71 12t24 46q0 16 -5 34l-32 123q-14 53 -36 75.5t-71 22.5
q-73 0 -157 -33l-6 71q86 33 162 33q70 0 112 -32t61 -107l31 -123l4 -16v0l5 -23q9 -46 29 -64.5t59 -18.5h25zM417 -208q-13 -13 -33 -13t-33.5 13.5t-13.5 32.5q0 20 13.5 34t33.5 14q19 0 32.5 -14t13.5 -34t-13 -33zM538.5 -141q13.5 -14 13.5 -34t-13 -33t-33 -13
t-33.5 13t-13.5 33t13.5 34t33.5 14q19 0 32.5 -14zM477.5 -238q13.5 -14 13.5 -34t-13.5 -33.5t-32.5 -13.5q-20 0 -33.5 13.5t-13.5 33.5t13.5 34t33.5 14q19 0 32.5 -14z" />
    <glyph glyph-name="uniFB7C" unicode="&#x686;" horiz-adv-x="476" arabic-form="initial" 
d="M-9 71h269q47 0 71.5 12.5t24.5 45.5q0 12 -6 34l-31 123q-13 53 -36 75.5t-72 22.5q-75 0 -156 -33l-6 71q83 33 161 33q70 0 112 -32t61 -107l32 -123q11 -41 11 -78q0 -61 -45 -88t-118 -27h-272v71zM105.5 -182.5q-13.5 13.5 -13.5 32.5q0 20 13.5 34t33.5 14
q19 0 32.5 -14t13.5 -34t-13 -33t-33 -13t-33.5 13.5zM227.5 -183q-13.5 13 -13.5 33t13.5 34t33.5 14q19 0 32.5 -14t13.5 -34t-13 -33t-33 -13t-33.5 13zM166.5 -280.5q-13.5 13.5 -13.5 33.5t13.5 34t33.5 14q19 0 32.5 -14t13.5 -34t-13.5 -33.5t-32.5 -13.5
q-20 0 -33.5 13.5z" />
    <glyph glyph-name="uniFB7D" unicode="&#x686;" horiz-adv-x="528" arabic-form="medial" 
d="M537 71v-71h-9q-45 0 -73.5 12t-43.5 45q-35 -57 -148 -57h-272v71h269q47 0 71.5 12.5t24.5 45.5q0 12 -6 34l-31 123q-13 53 -36 75.5t-72 22.5q-75 0 -156 -33l-6 71q83 33 161 33q70 0 112 -32t61 -107l32 -123l8 -37v-2q9 -46 29.5 -64.5t58.5 -18.5h26z
M106.5 -182.5q-13.5 13.5 -13.5 32.5q0 20 13.5 34t33.5 14q19 0 32.5 -14t13.5 -34t-13 -33t-33 -13t-33.5 13.5zM228.5 -183q-13.5 13 -13.5 33t13.5 34t33.5 14q19 0 32.5 -14t13.5 -34t-13 -33t-33 -13t-33.5 13zM167.5 -280.5q-13.5 13.5 -13.5 33.5t13.5 34t33.5 14
q19 0 32.5 -14t13.5 -34t-13.5 -33.5t-32.5 -13.5q-20 0 -33.5 13.5z" />
    <glyph glyph-name="uniFB89" unicode="&#x688;" horiz-adv-x="496" arabic-form="final" 
d="M505 71v-71h-8q-51 0 -81 12.5t-43 50.5q-18 -31 -53.5 -47t-84.5 -16h-195v71h192q46 0 67.5 17t21.5 54q0 67 -50.5 133t-122.5 106l-22 13l6 73l38 -19q55 -27 105.5 -74t83 -108t32.5 -128v-4q4 -37 23 -50t61 -13h30zM262 713q25 -24 25 -79v-80h-251v47h29v141h35
v-72q37 67 99 67q38 0 63 -24zM244 601v35q0 27 -13.5 40.5t-37.5 13.5q-30 0 -53 -22.5t-34 -66.5h138z" />
    <glyph glyph-name="uniFB8B" unicode="&#x698;" horiz-adv-x="398" arabic-form="final" 
d="M406 71v-71h-8q-43 0 -70 7t-44 27v-74q0 -89 -38 -126.5t-117 -37.5q-27 0 -53.5 5t-43.5 12l4 67q42 -13 86 -13q36 0 55.5 9t28 32t8.5 66v472h70v-280q0 -40 9 -60.5t27.5 -27.5t52.5 -7h33zM282.5 727.5q13.5 -13.5 13.5 -33.5t-13.5 -34t-32.5 -14q-20 0 -33.5 14
t-13.5 34t13.5 33.5t33.5 13.5q19 0 32.5 -13.5zM222 630q13 -13 13 -33t-14 -34t-32 -14q-20 0 -33.5 14t-13.5 34q0 19 13.5 32.5t33.5 13.5t33 -13zM344 630q13 -13 13 -33t-13.5 -34t-32.5 -14q-20 0 -33.5 14t-13.5 34t13.5 33t33.5 13t33 -13z" />
    <glyph glyph-name="uniFB8D" unicode="&#x691;" horiz-adv-x="398" arabic-form="final" 
d="M406 71v-71h-8q-43 0 -70 7t-44 27v-74q0 -89 -38 -126.5t-117 -37.5q-27 0 -53.5 5t-43.5 12l4 67q42 -13 86 -13q36 0 55.5 9t28 32t8.5 66v472h70v-280q0 -40 9 -60.5t27.5 -27.5t52.5 -7h33zM353 706q25 -24 25 -79v-80h-251v47h29v141h35v-72q37 67 99 67
q38 0 63 -24zM335 594v35q0 27 -13.5 40.5t-37.5 13.5q-30 0 -53 -22.5t-34 -66.5h138z" />
    <glyph glyph-name="uniFB8F" unicode="&#x6a9;" horiz-adv-x="832" arabic-form="final" 
d="M841 71v-71h-9q-55 0 -86 13t-45 51q-17 -35 -52.5 -49.5t-89.5 -14.5h-343q-54 0 -87.5 13.5t-51 47.5t-17.5 95v150h70v-140q0 -40 9 -60.5t27.5 -27.5t52.5 -7h338q35 0 54 7.5t28.5 28.5t9.5 63v65q0 47 -14 77.5t-51 46.5t-104 16h-148v71q55 105 140.5 186
t189.5 136l5 -78q-77 -42 -145 -106t-108 -138h66q123 0 181 -48t58 -153v-79q0 -40 8.5 -60.5t27 -27.5t52.5 -7h34z" />
    <glyph glyph-name="uniFB90" unicode="&#x6a9;" horiz-adv-x="474" arabic-form="initial" 
d="M356 398q58 -48 58 -153v-86q0 -89 -39 -124t-121 -35h-263v71h261q35 0 54 7.5t28.5 28.5t9.5 63v65q0 47 -14 77.5t-51 46.5t-104 16h-147v71q54 105 139.5 186t189.5 136l6 -78q-76 -40 -152.5 -108.5t-113.5 -135.5h78q123 0 181 -48z" />
    <glyph glyph-name="uniFB91" unicode="&#x6a9;" horiz-adv-x="527" arabic-form="medial" 
d="M536 71v-71h-9q-55 0 -86 13t-45 51q-17 -35 -52.5 -49.5t-89.5 -14.5h-263v71h261q35 0 54 7.5t28.5 28.5t9.5 63v65q0 47 -14 77.5t-51 46.5t-104 16h-147v71q54 105 139.5 186t189.5 136l6 -78q-76 -40 -152.5 -108.5t-113.5 -135.5h78q123 0 181 -48t58 -153v-79
q0 -40 9 -60.5t27.5 -27.5t52.5 -7h33z" />
    <glyph glyph-name="uniFB93" unicode="&#x6af;" horiz-adv-x="832" arabic-form="final" 
d="M471 707q-84 -73 -130 -155l-5 65q53 84 136.5 154t180.5 117l4 -57q-102 -51 -186 -124zM841 71v-71h-9q-55 0 -86 13t-45 51q-17 -35 -52.5 -49.5t-89.5 -14.5h-343q-54 0 -87.5 13.5t-51 47.5t-17.5 95v150h70v-140q0 -40 9 -60.5t27.5 -27.5t52.5 -7h338q35 0 54 7.5
t28.5 28.5t9.5 63v65q0 47 -14 77.5t-51 46.5t-104 16h-148v71q55 105 140.5 186t189.5 136l5 -78q-77 -42 -145 -106t-108 -138h66q123 0 181 -48t58 -153v-79q0 -40 8.5 -60.5t27 -27.5t52.5 -7h34z" />
    <glyph glyph-name="uniFB94" unicode="&#x6af;" horiz-adv-x="474" arabic-form="initial" 
d="M158 707q-84 -73 -130 -155l-5 65q53 84 136.5 154t180.5 117l5 -57q-103 -51 -187 -124zM356 398q58 -48 58 -153v-86q0 -89 -39 -124t-121 -35h-263v71h261q35 0 54 7.5t28.5 28.5t9.5 63v65q0 47 -14 77.5t-51 46.5t-104 16h-147v71q54 105 139.5 186t189.5 136l6 -78
q-76 -40 -152.5 -108.5t-113.5 -135.5h78q123 0 181 -48z" />
    <glyph glyph-name="uniFB95" unicode="&#x6af;" horiz-adv-x="527" arabic-form="medial" 
d="M158 707q-84 -73 -130 -155l-5 65q53 84 136.5 154t180.5 117l5 -57q-103 -51 -187 -124zM536 71v-71h-9q-55 0 -86 13t-45 51q-17 -35 -52.5 -49.5t-89.5 -14.5h-263v71h261q35 0 54 7.5t28.5 28.5t9.5 63v65q0 47 -14 77.5t-51 46.5t-104 16h-147v71q54 105 139.5 186
t189.5 136l6 -78q-76 -40 -152.5 -108.5t-113.5 -135.5h78q123 0 181 -48t58 -153v-79q0 -40 9 -60.5t27.5 -27.5t52.5 -7h33z" />
    <glyph glyph-name="uniFB9F" unicode="&#x6ba;" horiz-adv-x="669" arabic-form="final" 
d="M677 71v-71h-9q-43 0 -70 7t-44 28q-3 -64 -30.5 -118.5t-82 -87.5t-134.5 -33q-83 0 -140 36t-84.5 94.5t-27.5 127.5q0 49 13.5 102.5t31.5 84.5h69q-21 -40 -32.5 -87.5t-11.5 -92.5q0 -83 42.5 -138.5t138.5 -55.5q93 0 135.5 54t42.5 141v299h70v-195q0 -40 9 -60.5
t27.5 -27.5t52.5 -7h34z" />
    <glyph glyph-name="uniFBA7" unicode="&#x6c1;" horiz-adv-x="648" arabic-form="final" 
d="M657 71v-71h-36q-84 0 -120 36.5t-36 116.5v222h-27q-59 0 -103.5 -32.5t-92 -111.5t-116.5 -231h-76q78 183 139 278.5t117.5 131.5t131.5 36h97v-280q0 -40 9 -60.5t27.5 -27.5t52.5 -7h33z" />
    <glyph glyph-name="uniFBA8" unicode="&#x6c1;" horiz-adv-x="264" arabic-form="initial" 
d="M193 446v-290q0 -56 -17 -91t-54 -50q-21 -17 -32.5 -37t-11.5 -39q0 -20 14 -30t50 -10h13v-63h-24q-56 0 -86 23t-30 62q0 47 37 79h-18h-43v71h41q35 0 54 7.5t28 28.5t9 63v276h70z" />
    <glyph glyph-name="uniFBA9" unicode="&#x6c1;" horiz-adv-x="491" arabic-form="medial" 
d="M500 71v-71h-16q-39 0 -59 -7.5t-28.5 -26.5t-8.5 -55v-169h-79q-216 0 -268 258h-50v71h108q20 -137 70 -197.5t132 -60.5h17v102q0 82 33.5 119t120.5 37h28z" />
    <glyph glyph-name="uniFBAB" unicode="&#x6be;" horiz-adv-x="723" arabic-form="final" 
d="M732 71v-71h-677v71h110q-43 48 -43 113q0 64 41.5 105.5t114.5 41.5q71 0 112 -42t41 -124v-94h120v74q0 172 -78 236.5t-198 64.5q-65 0 -135 -16l-4 71q70 16 139 16q152 0 249 -86t97 -282v-78h111zM362 71v81q0 54 -20.5 81.5t-64.5 27.5q-41 0 -63.5 -22t-22.5 -64
q0 -50 34.5 -77t90.5 -27h46z" />
    <glyph glyph-name="uniFBAC" unicode="&#x6be;" horiz-adv-x="644" arabic-form="initial" 
d="M487 431q97 -86 97 -282v-149h-593v71h137q-43 48 -43 113q0 64 41.5 105.5t114.5 41.5q71 0 112 -42t41 -124v-94h120v74q0 172 -78 236.5t-198 64.5q-65 0 -135 -16l-4 71q68 16 139 16q152 0 249 -86zM325 71v81q0 109 -85 109q-41 0 -63.5 -22t-22.5 -64
q0 -50 34 -77t91 -27h46z" />
    <glyph glyph-name="uniFBAD" unicode="&#x6be;" horiz-adv-x="686" arabic-form="medial" 
d="M694 71v-71h-703v71h137q-43 48 -43 113q0 64 41.5 105.5t114.5 41.5q71 0 112 -42t41 -124v-94h120v74q0 172 -78 236.5t-198 64.5q-65 0 -135 -16l-4 71q68 16 139 16q152 0 249 -86t97 -282v-78h110zM325 71v81q0 109 -85 109q-41 0 -63.5 -22t-22.5 -64q0 -50 34 -77
t91 -27h46z" />
    <glyph glyph-name="uniFBAF" unicode="&#x6d2;" horiz-adv-x="399" arabic-form="final" 
d="M104 -163.5q-47 31.5 -47 101.5q0 133 182 133h168v-71h-173q-107 0 -107 -62t107 -62h442v-71h-437q-88 0 -135 31.5z" />
    <glyph glyph-name="uniFBB1" unicode="&#x6d3;" horiz-adv-x="399" arabic-form="final" 
d="M104 -163.5q-47 31.5 -47 101.5q0 133 182 133h168v-71h-173q-107 0 -107 -62t107 -62h442v-71h-437q-88 0 -135 31.5zM282 172h-193v47h43q-15 23 -15 51q0 42 27.5 64.5t67.5 22.5q29 0 49 -9l-2 -47q-20 10 -45 10q-24 0 -39 -12.5t-15 -32.5q0 -18 12.5 -32.5
t40.5 -14.5h69v-47z" />
    <glyph glyph-name="uniFBE8" unicode="&#x649;" horiz-adv-x="253" arabic-form="initial" 
d="M-9 71h31q35 0 54 7.5t28 28.5t9 63v276h70v-290q0 -81 -36.5 -118.5t-122.5 -37.5h-33v71z" />
    <glyph glyph-name="uniFBE9" unicode="&#x649;" horiz-adv-x="297" arabic-form="medial" 
d="M306 71v-71h-9q-55 0 -86.5 13t-44.5 52q-17 -35 -52 -50t-90 -15h-33v71h31q35 0 54 7.5t28 28.5t9 63v276h70v-280q0 -40 9 -60.5t27.5 -27.5t52.5 -7h34z" />
    <glyph glyph-name="uniFBFD" unicode="&#x6cc;" horiz-adv-x="928" arabic-form="final" 
d="M208 -169.5q-71 34.5 -109.5 97t-38.5 143.5q0 50 13 99.5t32 80.5h70q-22 -40 -33.5 -89t-11.5 -89q0 -95 64.5 -150.5t179.5 -55.5q75 0 121.5 22t66 51t19.5 52q0 15 -12 31t-37 35l-45 35q-29 22 -45.5 48.5t-16.5 64.5q0 65 45.5 102.5t119.5 37.5q40 0 69 -13.5
t57.5 -45t69.5 -92.5q36 -55 55 -79t37.5 -34.5t44.5 -10.5h14v-71h-25q-38 0 -63.5 12.5t-48 40t-59.5 83.5q-41 62 -62.5 89.5t-41.5 38.5t-49 11q-48 0 -70.5 -21t-22.5 -47q0 -21 14 -37.5t41 -36.5l29 -21q37 -28 54.5 -53t17.5 -64q0 -52 -33 -97.5t-96 -73.5
t-149 -28q-94 0 -165 34.5z" />
    <glyph glyph-name="uniFBFE" unicode="&#x6cc;" horiz-adv-x="253" arabic-form="initial" 
d="M-9 71h31q35 0 54 7.5t28 28.5t9 63v276h70v-290q0 -81 -36.5 -118.5t-122.5 -37.5h-33v71zM26 -181q-15 15 -15 37t15 37t36 15t36 -15t15 -37t-15 -37t-36 -15t-36 15zM155 -181q-15 15 -15 37t15 37t36 15t36 -15t15 -37t-15 -37t-36 -15t-36 15z" />
    <glyph glyph-name="uniFBFF" unicode="&#x6cc;" horiz-adv-x="297" arabic-form="medial" 
d="M306 71v-71h-9q-55 0 -86.5 13t-44.5 52q-17 -35 -52 -50t-90 -15h-33v71h31q35 0 54 7.5t28 28.5t9 63v276h70v-280q0 -40 9 -60.5t27.5 -27.5t52.5 -7h34zM49 -181q-15 15 -15 37t15 37t36 15t36 -15t15 -37t-15 -37t-36 -15t-36 15zM178 -181q-15 15 -15 37t15 37
t36 15t36 -15t15 -37t-15 -37t-36 -15t-36 15z" />
    <glyph glyph-name="uniFE82" unicode="&#x622;" horiz-adv-x="263" arabic-form="final" 
d="M148.5 13.5q-33.5 13.5 -51 47t-17.5 94.5v605h70v-594q0 -40 9 -60.5t27.5 -27.5t52.5 -7h33v-71h-36q-54 0 -87.5 13.5zM253 927v47q-28 -16 -49 -23t-44 -7t-44.5 7.5t-49.5 23.5l-91 -38l17 -40l74 31q44 -30 94 -30t93 29z" />
    <glyph glyph-name="uniFE84" unicode="&#x623;" horiz-adv-x="263" arabic-form="final" 
d="M148.5 13.5q-33.5 13.5 -51 47t-17.5 94.5v605h70v-594q0 -40 9 -60.5t27.5 -27.5t52.5 -7h33v-71h-36q-54 0 -87.5 13.5zM211 861h-193v47h43q-15 23 -15 51q0 42 27.5 64.5t67.5 22.5q29 0 49 -9l-2 -47q-20 10 -45 10q-24 0 -39 -12.5t-15 -32.5q0 -18 12.5 -32.5
t40.5 -14.5h69v-47z" />
    <glyph glyph-name="uniFE86" unicode="&#x624;" horiz-adv-x="564" arabic-form="final" 
d="M573 71v-71h-122q-1 -122 -64 -179t-169 -57q-84 0 -152 32l5 69q67 -30 142 -30q168 0 168 164v1h-71q-78 0 -134.5 28t-86 78t-29.5 117q0 66 29 116.5t84 78.5t131 28h147v-375h122zM381 71v304h-77q-83 0 -128.5 -39.5t-45.5 -112.5t47 -112.5t134 -39.5h70zM388 547
h-193v47h43q-15 23 -15 51q0 42 27.5 64.5t67.5 22.5q29 0 49 -9l-2 -47q-20 10 -45 10q-24 0 -39 -12.5t-15 -32.5q0 -18 12.5 -32.5t40.5 -14.5h69v-47z" />
    <glyph glyph-name="uniFE88" unicode="&#x625;" horiz-adv-x="263" arabic-form="final" 
d="M148.5 13.5q-33.5 13.5 -51 47t-17.5 94.5v605h70v-594q0 -40 9 -60.5t27.5 -27.5t52.5 -7h33v-71h-36q-54 0 -87.5 13.5zM239 -249h-193v47h43q-15 23 -15 51q0 42 27.5 64.5t67.5 22.5q29 0 49 -9l-2 -47q-20 10 -45 10q-24 0 -39 -12.5t-15 -32.5q0 -18 12.5 -32.5
t40.5 -14.5h69v-47z" />
    <glyph glyph-name="uniFE8A" unicode="&#x626;" horiz-adv-x="928" arabic-form="final" 
d="M208 -169.5q-71 34.5 -109.5 97t-38.5 143.5q0 50 13 99.5t32 80.5h70q-22 -40 -33.5 -89t-11.5 -89q0 -95 64.5 -150.5t179.5 -55.5q75 0 121.5 22t66 51t19.5 52q0 15 -12 31t-37 35l-45 35q-29 22 -45.5 48.5t-16.5 64.5q0 65 45.5 102.5t119.5 37.5q40 0 69 -13.5
t57.5 -45t69.5 -92.5q36 -55 55 -79t37.5 -34.5t44.5 -10.5h14v-71h-25q-38 0 -63.5 12.5t-48 40t-59.5 83.5q-41 62 -62.5 89.5t-41.5 38.5t-49 11q-48 0 -70.5 -21t-22.5 -47q0 -21 14 -37.5t41 -36.5l29 -21q37 -28 54.5 -53t17.5 -64q0 -52 -33 -97.5t-96 -73.5
t-149 -28q-94 0 -165 34.5zM243 353h-193v47h43q-15 23 -15 51q0 42 27.5 64.5t67.5 22.5q29 0 49 -9l-2 -47q-20 10 -45 10q-24 0 -39 -12.5t-15 -32.5q0 -18 12.5 -32.5t40.5 -14.5h69v-47z" />
    <glyph glyph-name="uniFE8B" unicode="&#x626;" horiz-adv-x="253" arabic-form="initial" 
d="M-9 71h31q35 0 54 7.5t28 28.5t9 63v276h70v-290q0 -81 -36.5 -118.5t-122.5 -37.5h-33v71zM244 547h-193v47h43q-15 23 -15 51q0 42 27.5 64.5t67.5 22.5q29 0 49 -9l-2 -47q-20 10 -45 10q-24 0 -39 -12.5t-15 -32.5q0 -18 12.5 -32.5t40.5 -14.5h69v-47z" />
    <glyph glyph-name="uniFE8C" unicode="&#x626;" horiz-adv-x="297" arabic-form="medial" 
d="M306 71v-71h-9q-55 0 -86.5 13t-44.5 52q-17 -35 -52 -50t-90 -15h-33v71h31q35 0 54 7.5t28 28.5t9 63v276h70v-280q0 -40 9 -60.5t27.5 -27.5t52.5 -7h34zM245 547h-193v47h43q-15 23 -15 51q0 42 27.5 64.5t67.5 22.5q29 0 49 -9l-2 -47q-20 10 -45 10
q-24 0 -39 -12.5t-15 -32.5q0 -18 12.5 -32.5t40.5 -14.5h69v-47z" />
    <glyph glyph-name="uniFE8E" unicode="&#x627;" horiz-adv-x="263" arabic-form="final" 
d="M148.5 13.5q-33.5 13.5 -51 47t-17.5 94.5v605h70v-594q0 -40 9 -60.5t27.5 -27.5t52.5 -7h33v-71h-36q-54 0 -87.5 13.5z" />
    <glyph glyph-name="uniFE90" unicode="&#x628;" horiz-adv-x="878" arabic-form="final" 
d="M887 71v-71h-8q-55 0 -86 13t-45 51q-17 -35 -51.5 -49.5t-90.5 -14.5h-390q-54 0 -87.5 13.5t-51 47.5t-17.5 95v150h70v-140q0 -40 9 -60.5t27.5 -27.5t52.5 -7h384q35 0 54.5 7.5t28.5 28.5t9 63v276h70v-280q0 -40 9 -60.5t27.5 -27.5t52.5 -7h33zM363.5 -183.5
q-16.5 16.5 -16.5 39.5t16.5 40t39.5 17t39.5 -17t16.5 -40t-16.5 -39.5t-39.5 -16.5t-39.5 16.5z" />
    <glyph glyph-name="uniFE91" unicode="&#x628;" horiz-adv-x="253" arabic-form="initial" 
d="M-9 71h31q35 0 54 7.5t28 28.5t9 63v276h70v-290q0 -81 -36.5 -118.5t-122.5 -37.5h-33v71zM86.5 -183.5q-16.5 16.5 -16.5 39.5t16.5 40t39.5 17t39.5 -17t16.5 -40t-16.5 -39.5t-39.5 -16.5t-39.5 16.5z" />
    <glyph glyph-name="uniFE92" unicode="&#x628;" horiz-adv-x="297" arabic-form="medial" 
d="M306 71v-71h-9q-55 0 -86.5 13t-44.5 52q-17 -35 -52 -50t-90 -15h-33v71h31q35 0 54 7.5t28 28.5t9 63v276h70v-280q0 -40 9 -60.5t27.5 -27.5t52.5 -7h34zM109.5 -183.5q-16.5 16.5 -16.5 39.5t16.5 40t39.5 17t39.5 -17t16.5 -40t-16.5 -39.5t-39.5 -16.5t-39.5 16.5z
" />
    <glyph glyph-name="uniFE94" unicode="&#x629;" horiz-adv-x="569" arabic-form="final" 
d="M578 71v-71h-279q-78 0 -134.5 28t-86 78t-29.5 117q0 66 29 116.5t84 78.5t131 28h92v61h70v-436h123zM385 375h-92q-83 0 -128.5 -39.5t-45.5 -112.5t47 -112.5t134 -39.5h85v304zM180 591q-15 15 -15 37t15 37t36 15t36 -15t15 -37t-15 -37t-36 -15t-36 15zM309 591
q-15 15 -15 37t15 37t36 15t36 -15t15 -37t-15 -37t-36 -15t-36 15z" />
    <glyph glyph-name="uniFE96" unicode="&#x62a;" horiz-adv-x="878" arabic-form="final" 
d="M887 71v-71h-8q-55 0 -86 13t-45 51q-17 -35 -51.5 -49.5t-90.5 -14.5h-390q-54 0 -87.5 13.5t-51 47.5t-17.5 95v150h70v-140q0 -40 9 -60.5t27.5 -27.5t52.5 -7h384q35 0 54.5 7.5t28.5 28.5t9 63v276h70v-280q0 -40 9 -60.5t27.5 -27.5t52.5 -7h33zM303 458
q-15 15 -15 37t15 37t36 15t36 -15t15 -37t-15 -37t-36 -15t-36 15zM432 458q-15 15 -15 37t15 37t36 15t36 -15t15 -37t-15 -37t-36 -15t-36 15z" />
    <glyph glyph-name="uniFE97" unicode="&#x62a;" horiz-adv-x="253" arabic-form="initial" 
d="M-9 71h31q35 0 54 7.5t28 28.5t9 63v276h70v-290q0 -81 -36.5 -118.5t-122.5 -37.5h-33v71zM48 591q-15 15 -15 37t15 37t36 15t36 -15t15 -37t-15 -37t-36 -15t-36 15zM177 591q-15 15 -15 37t15 37t36 15t36 -15t15 -37t-15 -37t-36 -15t-36 15z" />
    <glyph glyph-name="uniFE98" unicode="&#x62a;" horiz-adv-x="297" arabic-form="medial" 
d="M306 71v-71h-9q-55 0 -86.5 13t-44.5 52q-17 -35 -52 -50t-90 -15h-33v71h31q35 0 54 7.5t28 28.5t9 63v276h70v-280q0 -40 9 -60.5t27.5 -27.5t52.5 -7h34zM49 591q-15 15 -15 37t15 37t36 15t36 -15t15 -37t-15 -37t-36 -15t-36 15zM178 591q-15 15 -15 37t15 37t36 15
t36 -15t15 -37t-15 -37t-36 -15t-36 15z" />
    <glyph glyph-name="uniFE9A" unicode="&#x62b;" horiz-adv-x="878" arabic-form="final" 
d="M887 71v-71h-8q-55 0 -86 13t-45 51q-17 -35 -51.5 -49.5t-90.5 -14.5h-390q-54 0 -87.5 13.5t-51 47.5t-17.5 95v150h70v-140q0 -40 9 -60.5t27.5 -27.5t52.5 -7h384q35 0 54.5 7.5t28.5 28.5t9 63v276h70v-280q0 -40 9 -60.5t27.5 -27.5t52.5 -7h33zM435.5 594.5
q13.5 -13.5 13.5 -33.5t-13.5 -34t-32.5 -14q-20 0 -33.5 14t-13.5 34t13.5 33.5t33.5 13.5q19 0 32.5 -13.5zM375 497q13 -13 13 -33t-14 -34t-32 -14q-20 0 -33.5 14t-13.5 34q0 19 13.5 32.5t33.5 13.5t33 -13zM497 497q13 -13 13 -33t-13.5 -34t-32.5 -14
q-20 0 -33.5 14t-13.5 34t13.5 33t33.5 13t33 -13z" />
    <glyph glyph-name="uniFE9B" unicode="&#x62b;" horiz-adv-x="253" arabic-form="initial" 
d="M-9 71h31q35 0 54 7.5t28 28.5t9 63v276h70v-290q0 -81 -36.5 -118.5t-122.5 -37.5h-33v71zM180.5 727.5q13.5 -13.5 13.5 -33.5t-13.5 -34t-32.5 -14q-20 0 -33.5 14t-13.5 34t13.5 33.5t33.5 13.5q19 0 32.5 -13.5zM120 630q13 -13 13 -33t-14 -34t-32 -14
q-20 0 -33.5 14t-13.5 34q0 19 13.5 32.5t33.5 13.5t33 -13zM242 630q13 -13 13 -33t-13.5 -34t-32.5 -14q-20 0 -33.5 14t-13.5 34t13.5 33t33.5 13t33 -13z" />
    <glyph glyph-name="uniFE9C" unicode="&#x62b;" horiz-adv-x="297" arabic-form="medial" 
d="M306 71v-71h-9q-55 0 -86.5 13t-44.5 52q-17 -35 -52 -50t-90 -15h-33v71h31q35 0 54 7.5t28 28.5t9 63v276h70v-280q0 -40 9 -60.5t27.5 -27.5t52.5 -7h34zM181.5 727.5q13.5 -13.5 13.5 -33.5t-13.5 -34t-32.5 -14q-20 0 -33.5 14t-13.5 34t13.5 33.5t33.5 13.5
q19 0 32.5 -13.5zM121 630q13 -13 13 -33t-14 -34t-32 -14q-20 0 -33.5 14t-13.5 34q0 19 13.5 32.5t33.5 13.5t33 -13zM243 630q13 -13 13 -33t-13.5 -34t-32.5 -14q-20 0 -33.5 14t-13.5 34t13.5 33t33.5 13t33 -13z" />
    <glyph glyph-name="uniFE9E" unicode="&#x62c;" horiz-adv-x="566" arabic-form="final" 
d="M575 71v-71h-8q-44 0 -73 12t-44 45q-18 -30 -57.5 -43.5t-91.5 -13.5h-85q-54 0 -80 -17.5t-26 -59.5q0 -50 36 -69t108 -19q26 0 53 3l-5 -71q-24 -3 -47 -3q-215 0 -215 158q0 79 48 114t129 35h82q47 0 71 12t24 46q0 16 -5 34l-32 123q-14 53 -36 75.5t-71 22.5
q-73 0 -157 -33l-6 71q86 33 162 33q70 0 112 -32t61 -107l31 -123l4 -16v0l5 -23q9 -46 29 -64.5t59 -18.5h25zM447.5 -128q16.5 -17 16.5 -40t-16.5 -39.5t-39.5 -16.5t-39.5 16.5t-16.5 39.5t16.5 40t39.5 17t39.5 -17z" />
    <glyph glyph-name="uniFE9F" unicode="&#x62c;" horiz-adv-x="476" arabic-form="initial" 
d="M-9 71h269q47 0 71.5 12.5t24.5 45.5q0 12 -6 34l-31 123q-13 53 -36 75.5t-72 22.5q-75 0 -156 -33l-6 71q83 33 161 33q70 0 112 -32t61 -107l32 -123q11 -41 11 -78q0 -61 -45 -88t-118 -27h-272v71zM160.5 -183.5q-16.5 16.5 -16.5 39.5t16.5 40t39.5 17t39.5 -17
t16.5 -40t-16.5 -39.5t-39.5 -16.5t-39.5 16.5z" />
    <glyph glyph-name="uniFEA0" unicode="&#x62c;" horiz-adv-x="528" arabic-form="medial" 
d="M537 71v-71h-9q-45 0 -73.5 12t-43.5 45q-35 -57 -148 -57h-272v71h269q47 0 71.5 12.5t24.5 45.5q0 12 -6 34l-31 123q-13 53 -36 75.5t-72 22.5q-75 0 -156 -33l-6 71q83 33 161 33q70 0 112 -32t61 -107l32 -123l8 -37v-2q9 -46 29.5 -64.5t58.5 -18.5h26z
M161.5 -183.5q-16.5 16.5 -16.5 39.5t16.5 40t39.5 17t39.5 -17t16.5 -40t-16.5 -39.5t-39.5 -16.5t-39.5 16.5z" />
    <glyph glyph-name="uniFEA2" unicode="&#x62d;" horiz-adv-x="566" arabic-form="final" 
d="M575 71v-71h-8q-44 0 -73 12t-44 45q-18 -30 -57.5 -43.5t-91.5 -13.5h-85q-54 0 -80 -17.5t-26 -59.5q0 -50 36 -69t108 -19q43 0 86 5.5t69 10.5l-5 -72q-23 -6 -67 -10.5t-82 -4.5q-215 0 -215 158q0 79 48 114t129 35h82q47 0 71 12t24 46q0 16 -5 34l-32 123
q-14 53 -36 75.5t-71 22.5q-73 0 -157 -33l-6 71q86 33 162 33q70 0 112 -32t61 -107l31 -123l4 -16v0l5 -23q9 -46 29 -64.5t59 -18.5h25z" />
    <glyph glyph-name="uniFEA3" unicode="&#x62d;" horiz-adv-x="476" arabic-form="initial" 
d="M-9 71h269q47 0 71.5 12.5t24.5 45.5q0 12 -6 34l-31 123q-13 53 -36 75.5t-72 22.5q-75 0 -156 -33l-6 71q83 33 161 33q70 0 112 -32t61 -107l32 -123q11 -41 11 -78q0 -61 -45 -88t-118 -27h-272v71z" />
    <glyph glyph-name="uniFEA4" unicode="&#x62d;" horiz-adv-x="528" arabic-form="medial" 
d="M537 71v-71h-9q-45 0 -73.5 12t-43.5 45q-35 -57 -148 -57h-272v71h269q47 0 71.5 12.5t24.5 45.5q0 12 -6 34l-31 123q-13 53 -36 75.5t-72 22.5q-75 0 -156 -33l-6 71q83 33 161 33q70 0 112 -32t61 -107l32 -123l8 -37v-2q9 -46 29.5 -64.5t58.5 -18.5h26z" />
    <glyph glyph-name="uniFEA6" unicode="&#x62e;" horiz-adv-x="566" arabic-form="final" 
d="M575 71v-71h-8q-44 0 -73 12t-44 45q-18 -30 -57.5 -43.5t-91.5 -13.5h-85q-54 0 -80 -17.5t-26 -59.5q0 -50 36 -69t108 -19q43 0 86 5.5t69 10.5l-5 -72q-23 -6 -67 -10.5t-82 -4.5q-215 0 -215 158q0 79 48 114t129 35h82q47 0 71 12t24 46q0 16 -5 34l-32 123
q-14 53 -36 75.5t-71 22.5q-73 0 -157 -33l-6 71q86 33 162 33q70 0 112 -32t61 -107l31 -123l4 -16v0l5 -23q9 -46 29 -64.5t59 -18.5h25zM189.5 620.5q-16.5 16.5 -16.5 39.5t16.5 40t39.5 17t39.5 -17t16.5 -40t-16.5 -39.5t-39.5 -16.5t-39.5 16.5z" />
    <glyph glyph-name="uniFEA7" unicode="&#x62e;" horiz-adv-x="476" arabic-form="initial" 
d="M-9 71h269q47 0 71.5 12.5t24.5 45.5q0 12 -6 34l-31 123q-13 53 -36 75.5t-72 22.5q-75 0 -156 -33l-6 71q83 33 161 33q70 0 112 -32t61 -107l32 -123q11 -41 11 -78q0 -61 -45 -88t-118 -27h-272v71zM150.5 620.5q-16.5 16.5 -16.5 39.5t16.5 40t39.5 17t39.5 -17
t16.5 -40t-16.5 -39.5t-39.5 -16.5t-39.5 16.5z" />
    <glyph glyph-name="uniFEA8" unicode="&#x62e;" horiz-adv-x="528" arabic-form="medial" 
d="M537 71v-71h-9q-45 0 -73.5 12t-43.5 45q-35 -57 -148 -57h-272v71h269q47 0 71.5 12.5t24.5 45.5q0 12 -6 34l-31 123q-13 53 -36 75.5t-72 22.5q-75 0 -156 -33l-6 71q83 33 161 33q70 0 112 -32t61 -107l32 -123l8 -37v-2q9 -46 29.5 -64.5t58.5 -18.5h26z
M150.5 620.5q-16.5 16.5 -16.5 39.5t16.5 40t39.5 17t39.5 -17t16.5 -40t-16.5 -39.5t-39.5 -16.5t-39.5 16.5z" />
    <glyph glyph-name="uniFEAA" unicode="&#x62f;" horiz-adv-x="496" arabic-form="final" 
d="M505 71v-71h-8q-51 0 -81 12.5t-43 50.5q-18 -31 -53.5 -47t-84.5 -16h-195v71h192q46 0 67.5 17t21.5 54q0 67 -50.5 133t-122.5 106l-22 13l6 73l38 -19q55 -27 105.5 -74t83 -108t32.5 -128v-4q4 -37 23 -50t61 -13h30z" />
    <glyph glyph-name="uniFEAC" unicode="&#x630;" horiz-adv-x="496" arabic-form="final" 
d="M505 71v-71h-8q-51 0 -81 12.5t-43 50.5q-18 -31 -53.5 -47t-84.5 -16h-195v71h192q46 0 67.5 17t21.5 54q0 67 -50.5 133t-122.5 106l-22 13l6 73l38 -19q55 -27 105.5 -74t83 -108t32.5 -128v-4q4 -37 23 -50t61 -13h30zM119.5 595.5q-16.5 16.5 -16.5 39.5t16.5 40
t39.5 17t39.5 -17t16.5 -40t-16.5 -39.5t-39.5 -16.5t-39.5 16.5z" />
    <glyph glyph-name="uniFEAE" unicode="&#x631;" horiz-adv-x="398" arabic-form="final" 
d="M406 71v-71h-8q-43 0 -70 7t-44 27v-74q0 -89 -38 -126.5t-117 -37.5q-27 0 -53.5 5t-43.5 12l4 67q42 -13 86 -13q36 0 55.5 9t28 32t8.5 66v472h70v-280q0 -40 9 -60.5t27.5 -27.5t52.5 -7h33z" />
    <glyph glyph-name="uniFEB0" unicode="&#x632;" horiz-adv-x="398" arabic-form="final" 
d="M406 71v-71h-8q-43 0 -70 7t-44 27v-74q0 -89 -38 -126.5t-117 -37.5q-27 0 -53.5 5t-43.5 12l4 67q42 -13 86 -13q36 0 55.5 9t28 32t8.5 66v472h70v-280q0 -40 9 -60.5t27.5 -27.5t52.5 -7h33zM210.5 588.5q-16.5 16.5 -16.5 39.5t16.5 40t39.5 17t39.5 -17t16.5 -40
t-16.5 -39.5t-39.5 -16.5t-39.5 16.5z" />
    <glyph glyph-name="uniFEB2" unicode="&#x633;" horiz-adv-x="1153" arabic-form="final" 
d="M1161 71v-71h-8q-55 0 -86 13t-45 51q-15 -34 -46.5 -49t-79.5 -15q-43 0 -71.5 14t-42.5 49q-17 -34 -48 -48.5t-79 -14.5q-68 0 -96 33q-4 -64 -31.5 -117.5t-82 -86.5t-133.5 -33q-83 0 -140 36t-84.5 94.5t-27.5 127.5q0 49 13.5 102.5t31.5 84.5h69
q-21 -40 -32.5 -87.5t-11.5 -92.5q0 -83 42.5 -138.5t138.5 -55.5q93 0 135.5 54t42.5 141v299h70v-195q0 -41 8.5 -61t25.5 -27t48 -7q33 0 51.5 7.5t27.5 28.5t9 63v191h70v-195q0 -40 10 -60.5t27.5 -27.5t47.5 -7q32 0 49.5 7.5t26.5 29t9 62.5v276h70v-280
q0 -40 9 -60.5t27.5 -27.5t52.5 -7h33z" />
    <glyph glyph-name="uniFEB3" unicode="&#x633;" horiz-adv-x="733" arabic-form="initial" 
d="M663 446v-289q0 -87 -36 -122t-114 -35q-39 0 -66 14.5t-41 49.5q-16 -34 -47.5 -49t-79.5 -15q-45 0 -72.5 14t-41.5 49q-17 -34 -49 -48.5t-82 -14.5h-43v71h29q36 0 55.5 7.5t28.5 28.5t9 63v191h70v-195q0 -41 8.5 -61t25.5 -27t48 -7q33 0 51.5 7.5t27.5 28.5t9 63
v191h70v-195q0 -57 20 -76t61 -19q34 0 52.5 7.5t27.5 28.5t9 63v276h70z" />
    <glyph glyph-name="uniFEB4" unicode="&#x633;" horiz-adv-x="776" arabic-form="medial" 
d="M785 71v-71h-8q-54 0 -85.5 13t-44.5 51q-17 -34 -49.5 -49t-84.5 -15q-39 0 -66 14.5t-41 49.5q-16 -34 -47.5 -49t-79.5 -15q-45 0 -72.5 14t-41.5 49q-17 -34 -49 -48.5t-82 -14.5h-43v71h29q36 0 55.5 7.5t28.5 28.5t9 63v191h70v-195q0 -41 8.5 -61t25.5 -27t48 -7
q33 0 51.5 7.5t27.5 28.5t9 63v191h70v-195q0 -57 20 -76t61 -19q34 0 52.5 7.5t27.5 28.5t9 63v276h70v-280q0 -40 9 -60.5t27.5 -27.5t52.5 -7h33z" />
    <glyph glyph-name="uniFEB6" unicode="&#x634;" horiz-adv-x="1153" arabic-form="final" 
d="M1161 71v-71h-8q-55 0 -86 13t-45 51q-15 -34 -46.5 -49t-79.5 -15q-43 0 -71.5 14t-42.5 49q-17 -34 -48 -48.5t-79 -14.5q-68 0 -96 33q-4 -64 -31.5 -117.5t-82 -86.5t-133.5 -33q-83 0 -140 36t-84.5 94.5t-27.5 127.5q0 49 13.5 102.5t31.5 84.5h69
q-21 -40 -32.5 -87.5t-11.5 -92.5q0 -83 42.5 -138.5t138.5 -55.5q93 0 135.5 54t42.5 141v299h70v-195q0 -41 8.5 -61t25.5 -27t48 -7q33 0 51.5 7.5t27.5 28.5t9 63v191h70v-195q0 -40 10 -60.5t27.5 -27.5t47.5 -7q32 0 49.5 7.5t26.5 29t9 62.5v276h70v-280
q0 -40 9 -60.5t27.5 -27.5t52.5 -7h33zM794.5 657.5q13.5 -13.5 13.5 -33.5t-13.5 -34t-32.5 -14q-20 0 -33.5 14t-13.5 34t13.5 33.5t33.5 13.5q19 0 32.5 -13.5zM734 560q13 -13 13 -33t-14 -34t-32 -14q-20 0 -33.5 14t-13.5 34q0 19 13.5 32.5t33.5 13.5t33 -13z
M856 560q13 -13 13 -33t-13.5 -34t-32.5 -14q-20 0 -33.5 14t-13.5 34t13.5 33t33.5 13t33 -13z" />
    <glyph glyph-name="uniFEB7" unicode="&#x634;" horiz-adv-x="733" arabic-form="initial" 
d="M663 446v-289q0 -87 -36 -122t-114 -35q-39 0 -66 14.5t-41 49.5q-16 -34 -47.5 -49t-79.5 -15q-45 0 -72.5 14t-41.5 49q-17 -34 -49 -48.5t-82 -14.5h-43v71h29q36 0 55.5 7.5t28.5 28.5t9 63v191h70v-195q0 -41 8.5 -61t25.5 -27t48 -7q33 0 51.5 7.5t27.5 28.5t9 63
v191h70v-195q0 -57 20 -76t61 -19q34 0 52.5 7.5t27.5 28.5t9 63v276h70zM420.5 657.5q13.5 -13.5 13.5 -33.5t-13.5 -34t-32.5 -14q-20 0 -33.5 14t-13.5 34t13.5 33.5t33.5 13.5q19 0 32.5 -13.5zM360 560q13 -13 13 -33t-14 -34t-32 -14q-20 0 -33.5 14t-13.5 34
q0 19 13.5 32.5t33.5 13.5t33 -13zM482 560q13 -13 13 -33t-13.5 -34t-32.5 -14q-20 0 -33.5 14t-13.5 34t13.5 33t33.5 13t33 -13z" />
    <glyph glyph-name="uniFEB8" unicode="&#x634;" horiz-adv-x="776" arabic-form="medial" 
d="M785 71v-71h-8q-54 0 -85.5 13t-44.5 51q-17 -34 -49.5 -49t-84.5 -15q-39 0 -66 14.5t-41 49.5q-16 -34 -47.5 -49t-79.5 -15q-45 0 -72.5 14t-41.5 49q-17 -34 -49 -48.5t-82 -14.5h-43v71h29q36 0 55.5 7.5t28.5 28.5t9 63v191h70v-195q0 -41 8.5 -61t25.5 -27t48 -7
q33 0 51.5 7.5t27.5 28.5t9 63v191h70v-195q0 -57 20 -76t61 -19q34 0 52.5 7.5t27.5 28.5t9 63v276h70v-280q0 -40 9 -60.5t27.5 -27.5t52.5 -7h33zM420.5 657.5q13.5 -13.5 13.5 -33.5t-13.5 -34t-32.5 -14q-20 0 -33.5 14t-13.5 34t13.5 33.5t33.5 13.5q19 0 32.5 -13.5z
M360 560q13 -13 13 -33t-14 -34t-32 -14q-20 0 -33.5 14t-13.5 34q0 19 13.5 32.5t33.5 13.5t33 -13zM482 560q13 -13 13 -33t-13.5 -34t-32.5 -14q-20 0 -33.5 14t-13.5 34t13.5 33t33.5 13t33 -13z" />
    <glyph glyph-name="uniFEBA" unicode="&#x635;" horiz-adv-x="1183" arabic-form="final" 
d="M1192 71v-71h-637q-14 -89 -75 -146.5t-168 -57.5q-83 0 -140 36t-84.5 94.5t-27.5 126.5q0 50 13.5 103.5t31.5 84.5h69q-21 -40 -32.5 -87.5t-11.5 -92.5q0 -83 43 -138.5t138 -55.5q93 0 135.5 54t42.5 141v384h70v-257q52 126 128.5 196t181.5 70q103 0 160 -65.5
t57 -192.5v-126h106zM1016 71v124q0 98 -38 143.5t-113 45.5q-101 0 -175 -75.5t-131 -214.5v-23h457z" />
    <glyph glyph-name="uniFEBB" unicode="&#x635;" horiz-adv-x="762" arabic-form="initial" 
d="M645 389.5q57 -65.5 57 -192.5v-197h-711v71h115v375h70v-253q52 123 128.5 192.5t180.5 69.5q103 0 160 -65.5zM632 71v124q0 98 -38 143.5t-113 45.5q-100 0 -174.5 -76t-130.5 -214v-23h456z" />
    <glyph glyph-name="uniFEBC" unicode="&#x635;" horiz-adv-x="803" arabic-form="medial" 
d="M812 71v-71h-821v71h115v375h70v-256q52 125 128.5 195t181.5 70q103 0 160 -65.5t57 -192.5v-126h109zM633 71v124q0 98 -38 143.5t-113 45.5q-101 0 -175 -75.5t-131 -214.5v-23h457z" />
    <glyph glyph-name="uniFEBE" unicode="&#x636;" horiz-adv-x="1183" arabic-form="final" 
d="M1192 71v-71h-637q-14 -89 -75 -146.5t-168 -57.5q-83 0 -140 36t-84.5 94.5t-27.5 126.5q0 50 13.5 103.5t31.5 84.5h69q-21 -40 -32.5 -87.5t-11.5 -92.5q0 -83 43 -138.5t138 -55.5q93 0 135.5 54t42.5 141v384h70v-257q52 126 128.5 196t181.5 70q103 0 160 -65.5
t57 -192.5v-126h106zM1016 71v124q0 98 -38 143.5t-113 45.5q-101 0 -175 -75.5t-131 -214.5v-23h457zM809.5 597.5q-16.5 16.5 -16.5 39.5t16.5 40t39.5 17t39.5 -17t16.5 -40t-16.5 -39.5t-39.5 -16.5t-39.5 16.5z" />
    <glyph glyph-name="uniFEBF" unicode="&#x636;" horiz-adv-x="762" arabic-form="initial" 
d="M645 389.5q57 -65.5 57 -192.5v-197h-711v71h115v375h70v-253q52 123 128.5 192.5t180.5 69.5q103 0 160 -65.5zM632 71v124q0 98 -38 143.5t-113 45.5q-100 0 -174.5 -76t-130.5 -214v-23h456zM426.5 597.5q-16.5 16.5 -16.5 39.5t16.5 40t39.5 17t39.5 -17t16.5 -40
t-16.5 -39.5t-39.5 -16.5t-39.5 16.5z" />
    <glyph glyph-name="uniFEC0" unicode="&#x636;" horiz-adv-x="803" arabic-form="medial" 
d="M812 71v-71h-821v71h115v375h70v-256q52 125 128.5 195t181.5 70q103 0 160 -65.5t57 -192.5v-126h109zM633 71v124q0 98 -38 143.5t-113 45.5q-101 0 -175 -75.5t-131 -214.5v-23h457zM426.5 597.5q-16.5 16.5 -16.5 39.5t16.5 40t39.5 17t39.5 -17t16.5 -40
t-16.5 -39.5t-39.5 -16.5t-39.5 16.5z" />
    <glyph glyph-name="uniFEC2" unicode="&#x637;" horiz-adv-x="827" arabic-form="final" 
d="M835 71v-71h-795v71h93v689h70v-570q52 125 128.5 195t181.5 70q103 0 160 -65.5t57 -192.5v-126h105zM660 71v124q0 98 -38 143.5t-113 45.5q-101 0 -175 -75.5t-131 -214.5v-23h457z" />
    <glyph glyph-name="uniFEC3" unicode="&#x637;" horiz-adv-x="762" arabic-form="initial" 
d="M645 389.5q57 -65.5 57 -192.5v-197h-711v71h115v689h70v-567q52 123 128.5 192.5t180.5 69.5q103 0 160 -65.5zM632 71v124q0 98 -38 143.5t-113 45.5q-100 0 -174.5 -76t-130.5 -214v-23h456z" />
    <glyph glyph-name="uniFEC4" unicode="&#x637;" horiz-adv-x="803" arabic-form="medial" 
d="M812 71v-71h-821v71h115v689h70v-567q52 123 128.5 192.5t180.5 69.5q103 0 160 -65.5t57 -192.5v-126h110zM632 71v124q0 98 -38 143.5t-113 45.5q-100 0 -174.5 -76t-130.5 -214v-23h456z" />
    <glyph glyph-name="uniFEC6" unicode="&#x638;" horiz-adv-x="827" arabic-form="final" 
d="M835 71v-71h-795v71h93v689h70v-570q52 125 128.5 195t181.5 70q103 0 160 -65.5t57 -192.5v-126h105zM660 71v124q0 98 -38 143.5t-113 45.5q-101 0 -175 -75.5t-131 -214.5v-23h457zM455.5 597.5q-16.5 16.5 -16.5 39.5t16.5 40t39.5 17t39.5 -17t16.5 -40t-16.5 -39.5
t-39.5 -16.5t-39.5 16.5z" />
    <glyph glyph-name="uniFEC7" unicode="&#x638;" horiz-adv-x="762" arabic-form="initial" 
d="M645 389.5q57 -65.5 57 -192.5v-197h-711v71h115v689h70v-567q52 123 128.5 192.5t180.5 69.5q103 0 160 -65.5zM632 71v124q0 98 -38 143.5t-113 45.5q-100 0 -174.5 -76t-130.5 -214v-23h456zM427.5 597.5q-16.5 16.5 -16.5 39.5t16.5 40t39.5 17t39.5 -17t16.5 -40
t-16.5 -39.5t-39.5 -16.5t-39.5 16.5z" />
    <glyph glyph-name="uniFEC8" unicode="&#x638;" horiz-adv-x="803" arabic-form="medial" 
d="M812 71v-71h-821v71h115v689h70v-567q52 123 128.5 192.5t180.5 69.5q103 0 160 -65.5t57 -192.5v-126h110zM632 71v124q0 98 -38 143.5t-113 45.5q-100 0 -174.5 -76t-130.5 -214v-23h456zM427.5 597.5q-16.5 16.5 -16.5 39.5t16.5 40t39.5 17t39.5 -17t16.5 -40
t-16.5 -39.5t-39.5 -16.5t-39.5 16.5z" />
    <glyph glyph-name="uniFECA" unicode="&#x639;" horiz-adv-x="605" arabic-form="final" 
d="M136 -17.5q-26 -17.5 -26 -59.5q0 -49 35 -68.5t104 -19.5q41 0 79 5t58 11l-5 -73q-23 -6 -60.5 -10t-71.5 -4q-99 0 -154 38.5t-55 120.5q0 78 48 113t129 35h48l9 1q-60 148 -189 249l-6 70q93 64 222 64q106 0 160.5 -44.5t54.5 -126.5q0 -64 -29.5 -119t-84.5 -94
h212v-71h-398q-54 0 -80 -17.5zM332 89q54 26 84 76t30 108q0 55 -33 83t-113 28q-84 0 -153 -29q123 -103 185 -266z" />
    <glyph glyph-name="uniFECB" unicode="&#x639;" horiz-adv-x="463" arabic-form="initial" 
d="M426 71v-71h-435v71h189q-92 51 -92 171q0 66 28 114.5t77.5 73.5t112.5 25q51 0 84 -12l-5 -72q-39 13 -75 13q-74 0 -113 -40.5t-39 -109.5q0 -52 22.5 -89t60 -55.5t82.5 -18.5h103z" />
    <glyph glyph-name="uniFECC" unicode="&#x639;" horiz-adv-x="582" arabic-form="medial" 
d="M591 71v-71h-104q-117 0 -195 26q-73 -26 -163 -26h-138v71h219q22 0 43 3q-59 146 -188 247l-6 70q93 64 222 64q106 0 160.5 -44.5t54.5 -129.5q0 -62 -29.5 -116.5t-84.5 -93.5h209zM311 92q55 25 85 74.5t30 106.5q0 55 -33 83t-113 28q-84 0 -153 -29
q123 -104 184 -263z" />
    <glyph glyph-name="uniFECE" unicode="&#x63a;" horiz-adv-x="605" arabic-form="final" 
d="M136 -17.5q-26 -17.5 -26 -59.5q0 -49 35 -68.5t104 -19.5q41 0 79 5t58 11l-5 -73q-23 -6 -60.5 -10t-71.5 -4q-99 0 -154 38.5t-55 120.5q0 78 48 113t129 35h48l9 1q-60 148 -189 249l-6 70q93 64 222 64q106 0 160.5 -44.5t54.5 -126.5q0 -64 -29.5 -119t-84.5 -94
h212v-71h-398q-54 0 -80 -17.5zM332 89q54 26 84 76t30 108q0 55 -33 83t-113 28q-84 0 -153 -29q123 -103 185 -266zM269.5 597.5q-16.5 16.5 -16.5 39.5t16.5 40t39.5 17t39.5 -17t16.5 -40t-16.5 -39.5t-39.5 -16.5t-39.5 16.5z" />
    <glyph glyph-name="uniFECF" unicode="&#x63a;" horiz-adv-x="463" arabic-form="initial" 
d="M426 71v-71h-435v71h189q-92 51 -92 171q0 66 28 114.5t77.5 73.5t112.5 25q51 0 84 -12l-5 -72q-39 13 -75 13q-74 0 -113 -40.5t-39 -109.5q0 -52 22.5 -89t60 -55.5t82.5 -18.5h103zM236.5 597.5q-16.5 16.5 -16.5 39.5t16.5 40t39.5 17t39.5 -17t16.5 -40
t-16.5 -39.5t-39.5 -16.5t-39.5 16.5z" />
    <glyph glyph-name="uniFED0" unicode="&#x63a;" horiz-adv-x="582" arabic-form="medial" 
d="M591 71v-71h-104q-117 0 -195 26q-73 -26 -163 -26h-138v71h219q22 0 43 3q-59 146 -188 247l-6 70q93 64 222 64q106 0 160.5 -44.5t54.5 -129.5q0 -62 -29.5 -116.5t-84.5 -93.5h209zM311 92q55 25 85 74.5t30 106.5q0 55 -33 83t-113 28q-84 0 -153 -29
q123 -104 184 -263zM253.5 597.5q-16.5 16.5 -16.5 39.5t16.5 40t39.5 17t39.5 -17t16.5 -40t-16.5 -39.5t-39.5 -16.5t-39.5 16.5z" />
    <glyph glyph-name="uniFED2" unicode="&#x641;" horiz-adv-x="1026" arabic-form="final" 
d="M1035 71v-71h-819q-54 0 -87.5 13.5t-51 47t-17.5 94.5v151h70v-140q0 -40 9 -60.5t27.5 -27.5t52.5 -7h375q-64 61 -64 154q0 65 29 115t84 78t131 28h147v-375h114zM851 71v304h-77q-83 0 -128.5 -39.5t-45.5 -112.5t46.5 -112.5t132.5 -39.5h72zM722.5 588.5
q-16.5 16.5 -16.5 39.5t16.5 40t39.5 17t39.5 -17t16.5 -40t-16.5 -39.5t-39.5 -16.5t-39.5 16.5z" />
    <glyph glyph-name="uniFED3" unicode="&#x641;" horiz-adv-x="547" arabic-form="initial" 
d="M477 446v-446h-486v71h159q-64 61 -64 154q0 65 29 115t84 78t131 28h147zM407 71v304h-77q-83 0 -128.5 -39.5t-45.5 -112.5t47 -112.5t134 -39.5h70zM278.5 588.5q-16.5 16.5 -16.5 39.5t16.5 40t39.5 17t39.5 -17t16.5 -40t-16.5 -39.5t-39.5 -16.5t-39.5 16.5z" />
    <glyph glyph-name="uniFED4" unicode="&#x641;" horiz-adv-x="590" arabic-form="medial" 
d="M599 71v-71h-608v71h159q-64 61 -64 154q0 65 29 115t84 78t131 28h147v-375h122zM407 375h-77q-83 0 -128.5 -39.5t-45.5 -112.5t47 -112.5t134 -39.5h70v304zM277.5 588.5q-16.5 16.5 -16.5 39.5t16.5 40t39.5 17t39.5 -17t16.5 -40t-16.5 -39.5t-39.5 -16.5
t-39.5 16.5z" />
    <glyph glyph-name="uniFED6" unicode="&#x642;" horiz-adv-x="851" arabic-form="final" 
d="M860 71v-71h-115v-35q0 -89 -38 -124t-120 -35h-215q-167 0 -239.5 81.5t-72.5 202.5q0 91 33 161h71q-33 -75 -33 -156q0 -86 49 -152.5t184 -66.5h221q35 0 53.5 7.5t27.5 28.5t9 63v25h-70q-78 0 -134.5 28t-86.5 78.5t-30 116.5t29.5 116.5t84.5 78.5t130 28h147
v-375h115zM675 71v304h-77q-83 0 -128.5 -39.5t-45.5 -112.5t47 -112.5t134 -39.5h70zM509 591q-15 15 -15 37t15 37t36 15t36 -15t15 -37t-15 -37t-36 -15t-36 15zM638 591q-15 15 -15 37t15 37t36 15t36 -15t15 -37t-15 -37t-36 -15t-36 15z" />
    <glyph glyph-name="uniFED7" unicode="&#x642;" horiz-adv-x="547" arabic-form="initial" 
d="M477 446v-446h-486v71h159q-64 61 -64 154q0 65 29 115t84 78t131 28h147zM407 71v304h-77q-83 0 -128.5 -39.5t-45.5 -112.5t47 -112.5t134 -39.5h70zM218 591q-15 15 -15 37t15 37t36 15t36 -15t15 -37t-15 -37t-36 -15t-36 15zM347 591q-15 15 -15 37t15 37t36 15
t36 -15t15 -37t-15 -37t-36 -15t-36 15z" />
    <glyph glyph-name="uniFED8" unicode="&#x642;" horiz-adv-x="590" arabic-form="medial" 
d="M599 71v-71h-608v71h159q-64 61 -64 154q0 65 29 115t84 78t131 28h147v-375h122zM407 375h-77q-83 0 -128.5 -39.5t-45.5 -112.5t47 -112.5t134 -39.5h70v304zM218 591q-15 15 -15 37t15 37t36 15t36 -15t15 -37t-15 -37t-36 -15t-36 15zM347 591q-15 15 -15 37t15 37
t36 15t36 -15t15 -37t-15 -37t-36 -15t-36 15z" />
    <glyph glyph-name="uniFEDA" unicode="&#x643;" horiz-adv-x="832" arabic-form="final" 
d="M840 71v-71h-8q-54 0 -85 12.5t-45 50.5q-17 -35 -52 -49t-91 -14h-343q-54 0 -87.5 13.5t-51 47.5t-17.5 95v150h70v-140q0 -40 9 -60.5t27.5 -27.5t52.5 -7h338q35 0 54 7.5t28.5 28.5t9.5 63v590h70v-594q0 -40 8.5 -60.5t27 -27.5t52.5 -7h33zM436 333.5
q-16 -12.5 -51 -12.5h-78v40h79q16 0 22 4.5t6 17.5v7q0 14 -6 19.5t-22 5.5h-70v40q13 31 42 61.5t59 47.5l20 -36q-28 -15 -49.5 -32t-34.5 -41h33q35 0 50.5 -15t15.5 -44v-21q0 -29 -16 -41.5z" />
    <glyph glyph-name="uniFEDB" unicode="&#x643;" horiz-adv-x="474" arabic-form="initial" 
d="M356 398q58 -48 58 -153v-86q0 -89 -39 -124t-121 -35h-263v71h261q35 0 54 7.5t28.5 28.5t9.5 63v65q0 47 -14 77.5t-51 46.5t-104 16h-147v71q54 105 139.5 186t189.5 136l6 -78q-76 -40 -152.5 -108.5t-113.5 -135.5h78q123 0 181 -48z" />
    <glyph glyph-name="uniFEDC" unicode="&#x643;" horiz-adv-x="527" arabic-form="medial" 
d="M536 71v-71h-9q-55 0 -86 13t-45 51q-17 -35 -52.5 -49.5t-89.5 -14.5h-263v71h261q35 0 54 7.5t28.5 28.5t9.5 63v65q0 47 -14 77.5t-51 46.5t-104 16h-147v71q54 105 139.5 186t189.5 136l6 -78q-76 -40 -152.5 -108.5t-113.5 -135.5h78q123 0 181 -48t58 -153v-79
q0 -40 9 -60.5t27.5 -27.5t52.5 -7h33z" />
    <glyph glyph-name="uniFEDE" unicode="&#x644;" horiz-adv-x="677" arabic-form="final" 
d="M686 71v-71h-9q-43 0 -70 7t-44 28q-4 -65 -32 -119t-83 -87t-136 -33q-83 0 -139.5 36t-84.5 96t-28 131q0 57 15.5 112.5t36.5 89.5h69q-23 -42 -37 -92.5t-14 -101.5q0 -87 43 -143.5t138 -56.5q96 0 139 54.5t43 142.5v696h70v-594q0 -40 9 -60.5t27.5 -27.5t52.5 -7
h34z" />
    <glyph glyph-name="uniFEDF" unicode="&#x644;" horiz-adv-x="263" arabic-form="initial" 
d="M-9 71h31q35 0 54 7.5t28 28.5t9 63v590h70v-601q0 -62 -17.5 -97t-51.5 -48.5t-90 -13.5h-33v71z" />
    <glyph glyph-name="uniFEE0" unicode="&#x644;" horiz-adv-x="297" arabic-form="medial" 
d="M306 71v-71h-25q-45 0 -73.5 13t-41.5 50q-17 -35 -51 -49t-91 -14h-33v71h31q35 0 54 7.5t28 28.5t9 63v590h70v-594q0 -40 9 -60.5t27.5 -27.5t52.5 -7h34z" />
    <glyph glyph-name="uniFEE2" unicode="&#x645;" horiz-adv-x="622" arabic-form="final" 
d="M631 71v-71h-6q-54 0 -86 10t-49 39q-22 -56 -71 -86.5t-116 -30.5q-83 0 -137 45v-53q0 -86 -36.5 -123t-103.5 -37h-16l4 63q46 0 64 22.5t18 80.5v221q0 62 27 109.5t73.5 74t106.5 26.5t106.5 -26.5t72.5 -74.5t26 -111q0 -46 20.5 -62t71.5 -16h31zM402 41
q36 38 36 107q0 64 -37.5 103t-97.5 39q-61 0 -99 -39t-38 -103q0 -70 36.5 -107.5t100.5 -37.5q63 0 99 38z" />
    <glyph glyph-name="uniFEE3" unicode="&#x645;" horiz-adv-x="576" arabic-form="initial" 
d="M424.5 334.5q46.5 -26.5 72.5 -75t26 -111.5q0 -101 -56 -158.5t-149 -57.5q-67 0 -116.5 30t-72.5 86q-15 -29 -46.5 -38.5t-85.5 -9.5h-6v71h29q51 0 71 16t20 62q0 63 26.5 111t73.5 74.5t107 26.5t106.5 -26.5zM417 41q36 38 36 107q0 64 -37.5 103t-97.5 39
q-61 0 -98.5 -39t-37.5 -103q0 -70 36 -107.5t100 -37.5q63 0 99 38z" />
    <glyph glyph-name="uniFEE4" unicode="&#x645;" horiz-adv-x="634" arabic-form="medial" 
d="M643 71v-71h-6q-54 0 -85 10t-47 39q-23 -56 -72 -86.5t-116 -30.5t-116 30.5t-72 86.5q-15 -29 -46.5 -39t-85.5 -10h-6v71h29q51 0 71 16t20 62q0 63 26.5 111t73 74.5t106.5 26.5t107 -26.5t73 -74.5t26 -111q0 -46 20.5 -62t71.5 -16h28zM416.5 40.5
q36.5 37.5 36.5 107.5q0 64 -38 103t-98 39q-61 0 -98 -39t-37 -103q0 -70 36 -107.5t99 -37.5t99.5 37.5z" />
    <glyph glyph-name="uniFEE6" unicode="&#x646;" horiz-adv-x="669" arabic-form="final" 
d="M677 71v-71h-9q-43 0 -70 7t-44 28q-3 -64 -30.5 -118.5t-82 -87.5t-134.5 -33q-83 0 -140 36t-84.5 94.5t-27.5 127.5q0 49 13.5 102.5t31.5 84.5h69q-21 -40 -32.5 -87.5t-11.5 -92.5q0 -83 42.5 -138.5t138.5 -55.5q93 0 135.5 54t42.5 141v299h70v-195q0 -40 9 -60.5
t27.5 -27.5t52.5 -7h34zM270.5 333.5q-16.5 16.5 -16.5 39.5t16.5 40t39.5 17t39.5 -17t16.5 -40t-16.5 -39.5t-39.5 -16.5t-39.5 16.5z" />
    <glyph glyph-name="uniFEE7" unicode="&#x646;" horiz-adv-x="253" arabic-form="initial" 
d="M-9 71h31q35 0 54 7.5t28 28.5t9 63v276h70v-290q0 -81 -36.5 -118.5t-122.5 -37.5h-33v71zM108.5 588.5q-16.5 16.5 -16.5 39.5t16.5 40t39.5 17t39.5 -17t16.5 -40t-16.5 -39.5t-39.5 -16.5t-39.5 16.5z" />
    <glyph glyph-name="uniFEE8" unicode="&#x646;" horiz-adv-x="297" arabic-form="medial" 
d="M306 71v-71h-9q-55 0 -86.5 13t-44.5 52q-17 -35 -52 -50t-90 -15h-33v71h31q35 0 54 7.5t28 28.5t9 63v276h70v-280q0 -40 9 -60.5t27.5 -27.5t52.5 -7h34zM109.5 588.5q-16.5 16.5 -16.5 39.5t16.5 40t39.5 17t39.5 -17t16.5 -40t-16.5 -39.5t-39.5 -16.5t-39.5 16.5z
" />
    <glyph glyph-name="uniFEEA" unicode="&#x647;" horiz-adv-x="569" arabic-form="final" 
d="M578 71v-71h-279q-78 0 -134.5 28t-86 78t-29.5 117q0 66 29 116.5t84 78.5t131 28h92v61h70v-436h123zM385 375h-92q-83 0 -128.5 -39.5t-45.5 -112.5t47 -112.5t134 -39.5h85v304z" />
    <glyph glyph-name="uniFEEB" unicode="&#x647;" horiz-adv-x="644" arabic-form="initial" 
d="M487 431q97 -86 97 -282v-149h-593v71h137q-43 48 -43 113q0 64 41.5 105.5t114.5 41.5q71 0 112 -42t41 -124v-94h120v74q0 172 -78 236.5t-198 64.5q-65 0 -135 -16l-4 71q68 16 139 16q152 0 249 -86zM325 71v81q0 109 -85 109q-41 0 -63.5 -22t-22.5 -64
q0 -50 34 -77t91 -27h46z" />
    <glyph glyph-name="uniFEEC" unicode="&#x647;" horiz-adv-x="686" arabic-form="medial" 
d="M694 71v-71h-703v71h137q-43 48 -43 113q0 64 41.5 105.5t114.5 41.5q71 0 112 -42t41 -124v-94h120v74q0 172 -78 236.5t-198 64.5q-65 0 -135 -16l-4 71q68 16 139 16q152 0 249 -86t97 -282v-78h110zM325 71v81q0 109 -85 109q-41 0 -63.5 -22t-22.5 -64q0 -50 34 -77
t91 -27h46z" />
    <glyph glyph-name="uniFEEE" unicode="&#x648;" horiz-adv-x="564" arabic-form="final" 
d="M573 71v-71h-122q-1 -122 -64 -179t-169 -57q-84 0 -152 32l5 69q67 -30 142 -30q168 0 168 164v1h-71q-78 0 -134.5 28t-86 78t-29.5 117q0 66 29 116.5t84 78.5t131 28h147v-375h122zM381 71v304h-77q-83 0 -128.5 -39.5t-45.5 -112.5t47 -112.5t134 -39.5h70z" />
    <glyph glyph-name="uniFEF0" unicode="&#x649;" horiz-adv-x="928" arabic-form="final" 
d="M208 -169.5q-71 34.5 -109.5 97t-38.5 143.5q0 50 13 99.5t32 80.5h70q-22 -40 -33.5 -89t-11.5 -89q0 -95 64.5 -150.5t179.5 -55.5q75 0 121.5 22t66 51t19.5 52q0 15 -12 31t-37 35l-45 35q-29 22 -45.5 48.5t-16.5 64.5q0 65 45.5 102.5t119.5 37.5q40 0 69 -13.5
t57.5 -45t69.5 -92.5q36 -55 55 -79t37.5 -34.5t44.5 -10.5h14v-71h-25q-38 0 -63.5 12.5t-48 40t-59.5 83.5q-41 62 -62.5 89.5t-41.5 38.5t-49 11q-48 0 -70.5 -21t-22.5 -47q0 -21 14 -37.5t41 -36.5l29 -21q37 -28 54.5 -53t17.5 -64q0 -52 -33 -97.5t-96 -73.5
t-149 -28q-94 0 -165 34.5z" />
    <glyph glyph-name="uniFEF2" unicode="&#x64a;" horiz-adv-x="928" arabic-form="final" 
d="M208 -169.5q-71 34.5 -109.5 97t-38.5 143.5q0 50 13 99.5t32 80.5h70q-22 -40 -33.5 -89t-11.5 -89q0 -95 64.5 -150.5t179.5 -55.5q75 0 121.5 22t66 51t19.5 52q0 15 -12 31t-37 35l-45 35q-29 22 -45.5 48.5t-16.5 64.5q0 65 45.5 102.5t119.5 37.5q40 0 69 -13.5
t57.5 -45t69.5 -92.5q36 -55 55 -79t37.5 -34.5t44.5 -10.5h14v-71h-25q-38 0 -63.5 12.5t-48 40t-59.5 83.5q-41 62 -62.5 89.5t-41.5 38.5t-49 11q-48 0 -70.5 -21t-22.5 -47q0 -21 14 -37.5t41 -36.5l29 -21q37 -28 54.5 -53t17.5 -64q0 -52 -33 -97.5t-96 -73.5
t-149 -28q-94 0 -165 34.5zM275 -385q-15 15 -15 37t15 37t36 15t36 -15t15 -37t-15 -37t-36 -15t-36 15zM404 -385q-15 15 -15 37t15 37t36 15t36 -15t15 -37t-15 -37t-36 -15t-36 15z" />
    <glyph glyph-name="uniFEF3" unicode="&#x64a;" horiz-adv-x="253" arabic-form="initial" 
d="M-9 71h31q35 0 54 7.5t28 28.5t9 63v276h70v-290q0 -81 -36.5 -118.5t-122.5 -37.5h-33v71zM26 -181q-15 15 -15 37t15 37t36 15t36 -15t15 -37t-15 -37t-36 -15t-36 15zM155 -181q-15 15 -15 37t15 37t36 15t36 -15t15 -37t-15 -37t-36 -15t-36 15z" />
    <glyph glyph-name="uniFEF4" unicode="&#x64a;" horiz-adv-x="297" arabic-form="medial" 
d="M306 71v-71h-9q-55 0 -86.5 13t-44.5 52q-17 -35 -52 -50t-90 -15h-33v71h31q35 0 54 7.5t28 28.5t9 63v276h70v-280q0 -40 9 -60.5t27.5 -27.5t52.5 -7h34zM49 -181q-15 15 -15 37t15 37t36 15t36 -15t15 -37t-15 -37t-36 -15t-36 15zM178 -181q-15 15 -15 37t15 37
t36 15t36 -15t15 -37t-15 -37t-36 -15t-36 15z" />
    <glyph glyph-name=".notdef" horiz-adv-x="600" 
d="M100 705h400v-705h-400v705zM438 62v581h-276v-581h276z" />
    <glyph glyph-name=".null" horiz-adv-x="600" 
 />
    <glyph glyph-name="nonmarkingreturn" unicode="&#xd;" horiz-adv-x="600" 
 />
    <glyph glyph-name="space" unicode=" " horiz-adv-x="222" 
 />
    <glyph glyph-name="exclam" unicode="!" horiz-adv-x="238" 
d="M83 760h72l-8 -563h-56zM77.5 7.5q-17.5 17.5 -17.5 41.5t17 41.5t42 17.5q24 0 41.5 -17.5t17.5 -41.5q0 -23 -17.5 -41t-41.5 -18t-41.5 17.5z" />
    <glyph glyph-name="quotedbl" unicode="&#x22;" horiz-adv-x="336" 
d="M60 640v120h70v-120l-13 -156h-44zM206 640v120h70v-120l-13 -156h-44z" />
    <glyph glyph-name="numbersign" unicode="#" horiz-adv-x="780" 
d="M592 498l-58 -226h93v-60h-109l-54 -212h-73l55 212h-202l-54 -212h-74l55 212h-91v60h107l58 226h-92v60h108l52 202h72l-52 -202h203l52 202h71l-52 -202h93v-60h-108zM520 498h-202l-58 -226h202z" />
    <glyph glyph-name="dollar" unicode="$" horiz-adv-x="687" 
d="M547 55q-60 -57 -172 -64v-118h-69v119q-105 9 -162 64.5t-64 147.5l69 7q6 -74 48.5 -110.5t108.5 -44.5v320l-9 3q-111 34 -158.5 79.5t-47.5 120.5q0 88 58 136.5t157 53.5v114h69v-115q93 -11 147 -64t68 -139l-69 -9q-9 59 -45 97.5t-101 49.5v-281l23 -7
q65 -20 109.5 -44t72 -64.5t27.5 -103.5q0 -91 -60 -148zM196.5 500.5q32.5 -31.5 109.5 -56.5v261q-66 -4 -104 -34.5t-38 -88.5q0 -50 32.5 -81.5zM492 98.5q42 37.5 42 103.5q0 44 -18.5 72t-50.5 45.5t-83 33.5l-7 2v-300q75 6 117 43.5z" />
    <glyph glyph-name="percent" unicode="%" horiz-adv-x="854" 
d="M150 407q-32 23 -51 66t-19 101t19 101.5t51 66.5t72 23t72 -23t51 -66.5t19 -101.5t-19 -101t-51 -66t-72 -23t-72 23zM658 760h79l-554 -760h-79zM280 471.5q22 34.5 22 102.5q0 69 -22 103.5t-58 34.5q-35 0 -57 -34.5t-22 -103.5q0 -68 22 -102.5t57 -34.5
q36 0 58 34.5zM560 18q-32 23 -51 66.5t-19 101.5t19 101t51 66t72 23t72 -23t51 -66t19 -101t-19 -101.5t-51 -66.5t-72 -23t-72 23zM690 82.5q22 34.5 22 103.5q0 68 -22 102.5t-58 34.5q-35 0 -57 -34.5t-22 -102.5q0 -69 22 -103.5t57 -34.5q36 0 58 34.5z" />
    <glyph glyph-name="ampersand" unicode="&#x26;" horiz-adv-x="707" 
d="M576 0l-56 65q-78 -75 -196 -75q-77 0 -132.5 29.5t-83.5 78t-28 105.5q0 60 33 118t100 98q-39 48 -62.5 95t-23.5 96q0 45 21.5 81.5t61 57.5t91.5 21q51 0 88 -20.5t56 -55.5t19 -77q0 -115 -152 -210l206 -239q39 73 39 185h64q0 -66 -15 -126.5t-45 -108.5l102 -118
h-87zM226.5 679.5q-26.5 -26.5 -26.5 -72.5q0 -36 18.5 -74t55.5 -82q58 35 87.5 76.5t29.5 84.5q0 44 -27 69t-68 25q-43 0 -69.5 -26.5zM478 113l-227 261q-50 -32 -74.5 -77t-24.5 -93q0 -67 48 -108.5t127 -41.5q90 0 151 59z" />
    <glyph glyph-name="quotesingle" unicode="'" horiz-adv-x="190" 
d="M60 640v120h70v-120l-13 -156h-44z" />
    <glyph glyph-name="parenleft" unicode="(" horiz-adv-x="339" 
d="M100 106v578q0 172 159 172v-63q-53 0 -71 -30t-18 -83v-570q0 -53 18 -83t71 -30v-63q-159 0 -159 172z" />
    <glyph glyph-name="parenright" unicode=")" horiz-adv-x="339" 
d="M80 -3q53 0 71 30t18 83v570q0 53 -18 83t-71 30v63q159 0 159 -172v-578q0 -172 -159 -172v63z" />
    <glyph glyph-name="asterisk" unicode="*" horiz-adv-x="543" 
d="M318 527l98 -115l-60 -44l-83 135l-86 -135l-60 44l99 115l-146 37l25 73l141 -59l-12 152h75l-10 -152l140 58l24 -72z" />
    <glyph glyph-name="plus" unicode="+" horiz-adv-x="544" 
d="M464 235h-162v-162h-60v162h-162v60h162v162h60v-162h162v-60z" />
    <glyph glyph-name="comma" unicode="," horiz-adv-x="221" 
d="M154 90q17 -18 17 -52q0 -45 -29 -88t-76 -68l-16 22q48 40 60 88q-24 1 -41 18t-17 40q0 24 17 41t43 17q25 0 42 -18z" />
    <glyph glyph-name="hyphen" unicode="-" horiz-adv-x="425" 
d="M60 295h305v-60h-305v60z" />
    <glyph glyph-name="period" unicode="." horiz-adv-x="218" 
d="M67.5 7.5q-17.5 17.5 -17.5 41.5t17 41.5t42 17.5q24 0 41.5 -17.5t17.5 -41.5q0 -23 -17.5 -41t-41.5 -18t-41.5 17.5z" />
    <glyph glyph-name="slash" unicode="/" horiz-adv-x="426" 
d="M303 760h73l-253 -760h-73z" />
    <glyph glyph-name="zero" unicode="0" horiz-adv-x="680" 
d="M191.5 35.5q-64.5 45.5 -100 133.5t-35.5 211t35.5 211t100 133.5t149.5 45.5q84 0 148 -45.5t99.5 -133.5t35.5 -211t-35.5 -211t-99.5 -133.5t-148 -45.5q-85 0 -149.5 45.5zM452.5 92.5q47.5 38.5 73.5 112t26 175.5t-26 175.5t-73.5 112t-111.5 38.5
q-65 0 -113 -38.5t-74 -112t-26 -175.5t26 -175.5t74 -112t113 -38.5q64 0 111.5 38.5z" />
    <glyph glyph-name="one" unicode="1" horiz-adv-x="369" 
d="M247 760v-760h-71v628q-51 -15 -136 -15v56q75 0 107 19.5t39 71.5h61z" />
    <glyph glyph-name="two" unicode="2" horiz-adv-x="552" 
d="M502 63v-63h-458v37q0 109 38.5 187.5t126.5 132.5l118 72q99 61 99 149q0 58 -39.5 93t-108.5 35q-66 0 -109 -32t-56 -79l-71 5q24 82 86.5 126t149.5 44q70 0 119.5 -25.5t75 -69t25.5 -96.5q0 -62 -34.5 -114.5t-111.5 -98.5l-108 -66q-68 -41 -96.5 -99t-28.5 -138
h383z" />
    <glyph glyph-name="three" unicode="3" horiz-adv-x="585" 
d="M495 332.5q38 -52.5 38 -119.5q0 -61 -30.5 -112t-87 -81t-132.5 -30q-93 0 -155.5 47.5t-81.5 135.5l67 7q18 -66 65.5 -96t107.5 -30q78 0 126 44t48 114q0 71 -53 115.5t-154 44.5h-47v63h44q55 0 96 19t62.5 51.5t21.5 71.5q0 54 -38 91.5t-105 37.5
q-58 0 -99.5 -29.5t-59.5 -81.5l-69 6q24 80 85 124.5t145 44.5q66 0 114.5 -26.5t74 -69.5t25.5 -92q0 -55 -31 -100.5t-85 -72.5q70 -24 108 -76.5z" />
    <glyph glyph-name="four" unicode="4" horiz-adv-x="621" 
d="M609 189h-106v-189h-71v189h-380v63l125 508h71l-125 -508h309v260h71v-260h106v-63z" />
    <glyph glyph-name="five" unicode="5" horiz-adv-x="601" 
d="M436 467.5q59 -34.5 89 -92.5t30 -127q0 -71 -32 -130t-92.5 -93.5t-142.5 -34.5q-97 0 -159.5 49.5t-82.5 135.5l69 5q17 -65 66 -95.5t111 -30.5q57 0 100.5 25t67 69t23.5 100q0 57 -24.5 100.5t-67.5 67t-99 23.5q-90 0 -176 -57l-44 15v363h423v-63h-352v-233
q71 38 152 38q82 0 141 -34.5z" />
    <glyph glyph-name="six" unicode="6" horiz-adv-x="641" 
d="M471.5 469.5q58.5 -32.5 91 -89t32.5 -128.5q0 -76 -35 -135.5t-95 -93t-132 -33.5q-129 0 -203 89t-74 256q0 201 68.5 318t216.5 117q77 0 138 -41t88 -125l-68 -4q-40 106 -160 106q-104 0 -156.5 -84.5t-57.5 -232.5q33 54 89.5 83.5t122.5 29.5q76 0 134.5 -32.5z
M426.5 77q43.5 24 70 68.5t26.5 102.5q0 56 -25 99.5t-68.5 67.5t-97.5 24q-53 0 -97.5 -23.5t-71 -67t-26.5 -98.5q0 -56 26.5 -101t71.5 -70.5t98 -25.5q50 0 93.5 24z" />
    <glyph glyph-name="seven" unicode="7" horiz-adv-x="519" 
d="M523 760l-408 -760h-76l375 697h-398v63h507z" />
    <glyph glyph-name="eight" unicode="8" horiz-adv-x="620" 
d="M536 317q38 -46 38 -114q0 -60 -32.5 -108.5t-93 -76.5t-140.5 -28q-82 0 -141 29t-90 78.5t-31 108.5q0 69 39.5 122.5t104.5 85.5q-55 33 -84.5 79.5t-29.5 96.5q0 45 25.5 86t78 67.5t130.5 26.5q76 0 131 -26t83.5 -68.5t28.5 -92.5q0 -55 -36 -104.5t-94 -84.5
q75 -31 113 -77zM297 440l58 -21q126 68 126 162q0 58 -45.5 92.5t-123.5 34.5q-74 0 -118.5 -31t-44.5 -86q0 -100 148 -151zM402.5 71.5q44.5 19.5 71.5 54.5t27 79q0 95 -145 144l-99 34q-68 -28 -103.5 -73.5t-35.5 -99.5q0 -48 27.5 -84t71.5 -55t92 -19
q49 0 93.5 19.5z" />
    <glyph glyph-name="nine" unicode="9" horiz-adv-x="641" 
d="M454 730.5q62 -39.5 96.5 -117t34.5 -188.5q0 -204 -67.5 -319.5t-214.5 -115.5q-81 0 -146.5 40t-93.5 124l69 5q21 -54 66 -79.5t104 -25.5q106 0 158 83t57 234q-34 -54 -90.5 -83.5t-122.5 -29.5q-76 0 -134.5 32.5t-91 89t-32.5 128.5q0 75 35.5 135t96 93.5
t130.5 33.5q84 0 146 -39.5zM407 344.5q45 23.5 71 66t26 96.5q0 57 -26.5 103t-71 71.5t-97.5 25.5q-50 0 -94 -24t-70.5 -69t-26.5 -105q0 -55 25 -98t68.5 -66.5t97.5 -23.5q53 0 98 23.5z" />
    <glyph glyph-name="colon" unicode=":" horiz-adv-x="218" 
d="M67.5 7.5q-17.5 17.5 -17.5 41.5t17 41.5t42 17.5q24 0 41.5 -17.5t17.5 -41.5q0 -23 -17.5 -41t-41.5 -18t-41.5 17.5zM67.5 357.5q-17.5 17.5 -17.5 41.5t17 41.5t42 17.5q24 0 41.5 -17.5t17.5 -41.5q0 -23 -17.5 -41t-41.5 -18t-41.5 17.5z" />
    <glyph glyph-name="semicolon" unicode=";" horiz-adv-x="221" 
d="M68.5 357.5q-17.5 17.5 -17.5 41.5t17 41.5t42 17.5q24 0 41.5 -17.5t17.5 -41.5q0 -23 -17.5 -41t-41.5 -18t-41.5 17.5zM154 90q17 -18 17 -52q0 -45 -29 -88t-76 -68l-16 22q48 40 60 88q-24 1 -41 18t-17 40q0 24 17 41t43 17q25 0 42 -18z" />
    <glyph glyph-name="less" unicode="&#x3c;" horiz-adv-x="540" 
d="M460 437l-323 -167l323 -168v-72l-380 202v76l380 201v-72z" />
    <glyph glyph-name="equal" unicode="=" horiz-adv-x="544" 
d="M80 386h384v-60h-384v60zM80 204h384v-60h-384v60z" />
    <glyph glyph-name="greater" unicode="&#x3e;" horiz-adv-x="540" 
d="M80 437l323 -167l-323 -168v-72l380 202v76l-380 201v-72z" />
    <glyph glyph-name="question" unicode="?" horiz-adv-x="561" 
d="M202 222q0 59 10 98t36.5 69.5t77.5 58.5l28 16q75 41 75 120q0 60 -37.5 91.5t-102.5 31.5q-64 0 -104 -27.5t-67 -73.5l-58 28q32 62 90.5 99t140.5 37q65 0 112.5 -23.5t72.5 -65t25 -94.5q0 -112 -117 -177l-30 -16q-46 -25 -63.5 -61.5t-17.5 -97.5v-38h-71v25z
M195.5 7.5q-17.5 17.5 -17.5 41.5t17 41.5t42 17.5q24 0 41.5 -17.5t17.5 -41.5q0 -23 -17.5 -41t-41.5 -18t-41.5 17.5z" />
    <glyph glyph-name="at" unicode="@" horiz-adv-x="1027" 
d="M747 718q94 -52 147 -144t53 -209q0 -81 -25.5 -139t-68 -88t-94.5 -30q-47 0 -78.5 24t-38.5 66q-29 -41 -75 -65.5t-100 -24.5q-56 0 -100.5 26.5t-69 73t-24.5 105.5q0 68 32.5 126.5t87.5 92.5t119 34q47 0 83.5 -18.5t60.5 -52.5l7 62h73l-35 -297l-1 -11
q0 -40 21.5 -60t49.5 -20t53 23t40.5 67.5t15.5 103.5q0 102 -45.5 181.5t-124.5 123t-178 43.5q-112 0 -199.5 -56t-136.5 -149.5t-49 -203.5q0 -103 44 -183.5t123.5 -125.5t183.5 -45q113 0 219 59l25 -54q-123 -64 -247 -64q-120 0 -215 54t-147.5 149t-52.5 213
q0 125 58.5 231.5t162.5 170t235 63.5q117 0 211 -52zM560.5 196q39.5 26 62 69t22.5 94q0 65 -36.5 105.5t-95.5 40.5q-47 0 -87 -25.5t-63.5 -69t-23.5 -93.5q0 -64 37.5 -105.5t97.5 -41.5q47 0 86.5 26z" />
    <glyph glyph-name="A" unicode="A" horiz-adv-x="595" 
d="M471 142h-348l-45 -142h-73l252 760h80l253 -760h-74zM451 205l-154 485l-154 -485h308z" />
    <glyph glyph-name="B" unicode="B" horiz-adv-x="582" 
d="M518 327.5q33 -49.5 33 -114.5q0 -60 -28 -108.5t-83 -76.5t-133 -28h-235v760h227q112 0 169.5 -54t57.5 -138q0 -56 -26 -100t-78 -67q63 -24 96 -73.5zM143 697v-269h147q81 0 122.5 38t41.5 100q0 58 -38 94.5t-117 36.5h-156zM434.5 105.5q44.5 42.5 44.5 109.5
q0 66 -43.5 108.5t-125.5 42.5h-167v-303h164q83 0 127.5 42.5z" />
    <glyph glyph-name="C" unicode="C" horiz-adv-x="818" 
d="M229.5 42q-85.5 52 -134 141t-48.5 197t49 197.5t134 141t190 51.5q82 0 153 -32.5t122 -90.5t76 -134l-72 -8q-33 92 -107.5 146.5t-171.5 54.5q-85 0 -153.5 -42.5t-107.5 -117t-39 -166.5t39 -166.5t107.5 -117t153.5 -42.5q97 0 172 55.5t107 148.5l73 -9
q-25 -77 -76 -135.5t-122 -91t-154 -32.5q-105 0 -190.5 52z" />
    <glyph glyph-name="D" unicode="D" horiz-adv-x="752" 
d="M524.5 710q86.5 -50 133 -136.5t46.5 -193.5t-46 -193.5t-133 -136.5t-203 -50h-250v760h250q116 0 202.5 -50zM484 104.5q72 41.5 110 114t38 161.5t-38 161.5t-110 114t-169 41.5h-172v-634h172q97 0 169 41.5z" />
    <glyph glyph-name="E" unicode="E" horiz-adv-x="544" 
d="M488 63v-63h-416v760h411v-63h-340v-269h336v-62h-336v-303h345z" />
    <glyph glyph-name="F" unicode="F" horiz-adv-x="502" 
d="M143 697v-269h314v-62h-314v-366h-71v760h389v-63h-318z" />
    <glyph glyph-name="G" unicode="G" horiz-adv-x="803" 
d="M376 397h355v-311q-59 -44 -130.5 -70t-163.5 -26q-122 0 -210 51t-134 139t-46 197q0 110 45.5 199.5t129 141.5t191.5 52q120 0 203.5 -58.5t124.5 -152.5l-72 -8q-29 64 -95.5 109.5t-160.5 45.5q-87 0 -153.5 -42.5t-103 -117.5t-36.5 -169q0 -93 36.5 -166t108 -115
t172.5 -42q71 0 124 17t100 46v217h-285v63z" />
    <glyph glyph-name="H" unicode="H" horiz-adv-x="658" 
d="M586 760v-760h-71v366h-372v-366h-71v760h71v-332h372v332h71z" />
    <glyph glyph-name="I" unicode="I" horiz-adv-x="215" 
d="M72 760h71v-760h-71v760z" />
    <glyph glyph-name="J" unicode="J" horiz-adv-x="547" 
d="M103.5 43.5q-60.5 53.5 -67.5 151.5l70 5q5 -72 45.5 -109t105.5 -37q69 0 110.5 43t41.5 129v534h70v-531q0 -116 -61 -177.5t-161 -61.5q-93 0 -153.5 53.5z" />
    <glyph glyph-name="K" unicode="K" horiz-adv-x="589" 
d="M281 376l-138 -186v-190h-71v760h71v-464l341 464h80l-241 -327l251 -433h-75z" />
    <glyph glyph-name="L" unicode="L" horiz-adv-x="484" 
d="M462 63v-63h-390v760h71v-697h319z" />
    <glyph glyph-name="M" unicode="M" horiz-adv-x="848" 
d="M732 0l-67 655l-212 -655h-58l-212 655l-67 -655h-70l81 760h85l212 -669l212 669h85l81 -760h-70z" />
    <glyph glyph-name="N" unicode="N" horiz-adv-x="658" 
d="M586 760v-760h-71l-372 642v-642h-71v760h71l372 -642v642h71z" />
    <glyph glyph-name="O" unicode="O" horiz-adv-x="840" 
d="M229.5 42q-85.5 52 -134 141t-48.5 197t49 197.5t134 141t190 51.5t190 -51.5t134 -141t49 -197.5t-48.5 -197t-134 -141t-190.5 -52t-190.5 52zM573.5 96.5q68.5 42.5 107.5 117t39 166.5t-39 166.5t-107.5 117t-153.5 42.5t-153.5 -42.5t-107.5 -117t-39 -166.5
t39 -166.5t107.5 -117t153.5 -42.5t153.5 42.5z" />
    <glyph glyph-name="P" unicode="P" horiz-adv-x="621" 
d="M510.5 691.5q68.5 -68.5 68.5 -186.5q0 -117 -69 -188t-196 -71h-171v-246h-71v760h241q129 0 197.5 -68.5zM457.5 361.5q50.5 52.5 50.5 143.5t-50 141.5t-151 50.5h-164v-388h163q101 0 151.5 52.5z" />
    <glyph glyph-name="Q" unicode="Q" horiz-adv-x="840" 
d="M751.5 196.5q-41.5 -84.5 -114.5 -137.5l92 -143l-58 -41l-95 148q-74 -33 -156 -33q-105 0 -190.5 52t-134 141t-48.5 197t49 197.5t134 141t190 51.5t190 -51.5t134 -141t49 -197.5q0 -99 -41.5 -183.5zM540 79l-151 235l59 39l153 -237q56 44 87.5 113t31.5 151
q0 92 -39 166.5t-107.5 117t-153.5 42.5t-153.5 -42.5t-107.5 -117t-39 -166.5t39 -166.5t107.5 -117t153.5 -42.5q64 0 120 25z" />
    <glyph glyph-name="R" unicode="R" horiz-adv-x="621" 
d="M540 356.5q-39 -62.5 -112 -90.5l141 -266h-79l-132 249q-22 -3 -48 -3h-167v-246h-71v760h241q129 0 197.5 -68.5t68.5 -186.5q0 -86 -39 -148.5zM457.5 361.5q50.5 52.5 50.5 143.5t-50 141.5t-151 50.5h-164v-388h163q101 0 151.5 52.5z" />
    <glyph glyph-name="S" unicode="S" horiz-adv-x="625" 
d="M121.5 47q-66.5 57 -74.5 157l69 7q6 -85 61.5 -121t135.5 -36q88 0 138 38t50 110q0 44 -18.5 72t-50.5 45.5t-83 33.5l-85 26q-111 34 -158.5 79.5t-47.5 120.5q0 93 64.5 142t173.5 49q115 0 180 -54.5t81 -150.5l-69 -9q-10 68 -57 109t-135 41q-76 0 -120.5 -30.5
t-44.5 -93.5q0 -52 34.5 -83.5t116.5 -57.5l83 -26q65 -20 109.5 -44t72 -64.5t27.5 -103.5q0 -97 -67.5 -155t-193.5 -58q-125 0 -191.5 57z" />
    <glyph glyph-name="T" unicode="T" horiz-adv-x="586" 
d="M560 697h-232v-697h-71v697h-231v63h534v-63z" />
    <glyph glyph-name="U" unicode="U" horiz-adv-x="664" 
d="M136 66q-69 76 -69 212v482h71v-491q0 -103 51.5 -159t142.5 -56q92 0 143 56t51 159v491h71v-482q0 -137 -68.5 -212.5t-196.5 -75.5q-127 0 -196 76z" />
    <glyph glyph-name="V" unicode="V" horiz-adv-x="602" 
d="M597 760l-256 -760h-81l-255 760h74l222 -687l222 687h74z" />
    <glyph glyph-name="W" unicode="W" horiz-adv-x="949" 
d="M934 760l-204 -760h-78l-178 647l-177 -647h-76l-206 760h74l171 -677l183 677h61l186 -677l171 677h73z" />
    <glyph glyph-name="X" unicode="X" horiz-adv-x="568" 
d="M487 0l-202 326l-203 -326h-77l242 387l-232 373h76l193 -311l193 311h77l-232 -373l241 -387h-76z" />
    <glyph glyph-name="Y" unicode="Y" horiz-adv-x="553" 
d="M551 760l-388 -760h-73l164 322l-243 438h76l202 -371l189 371h73z" />
    <glyph glyph-name="Z" unicode="Z" horiz-adv-x="583" 
d="M143 61h399v-61h-510l406 699h-378v61h488z" />
    <glyph glyph-name="bracketleft" unicode="[" horiz-adv-x="370" 
d="M290 -6v-60h-190v922h185v-60h-115v-802h120z" />
    <glyph glyph-name="backslash" unicode="\" horiz-adv-x="426" 
d="M123 760h-73l253 -760h73z" />
    <glyph glyph-name="bracketright" unicode="]" horiz-adv-x="370" 
d="M80 -6v-60h190v922h-185v-60h115v-802h-120z" />
    <glyph glyph-name="asciicircum" unicode="^" horiz-adv-x="485" 
d="M335 400l-92 165l-93 -165h-70l125 214h76l124 -214h-70z" />
    <glyph glyph-name="underscore" unicode="_" horiz-adv-x="610" 
d="M30 -90h550v-60h-550v60z" />
    <glyph glyph-name="grave" unicode="`" horiz-adv-x="269" 
d="M142 760l77 -170h-55l-114 170h92z" />
    <glyph glyph-name="a" unicode="a" horiz-adv-x="615" 
d="M549 512v-512h-63l-4 102q-29 -53 -80.5 -82.5t-113.5 -29.5q-69 0 -124.5 34.5t-87.5 95.5t-32 135q0 76 32.5 136.5t89 95t124.5 34.5q61 0 111 -29t79 -80v100h69zM394 78.5q42 26.5 65.5 73t23.5 104.5t-23.5 104t-65.5 72.5t-94 26.5q-55 0 -97.5 -26t-65.5 -72.5
t-23 -105.5q0 -58 23 -104.5t65.5 -72.5t97.5 -26q52 0 94 26.5z" />
    <glyph glyph-name="b" unicode="b" horiz-adv-x="615" 
d="M449.5 487q56.5 -34 89 -94.5t32.5 -136.5t-33 -136.5t-89.5 -95t-124.5 -34.5q-62 0 -112 29t-78 79l-5 -98h-63v760h70v-344q29 49 78 77t110 28q69 0 125.5 -34zM411 77.5q42 25.5 66 71.5t24 106q0 59 -23 105t-64.5 72.5t-95.5 26.5t-96 -26.5t-66 -73t-24 -104.5
t23.5 -104t65.5 -72.5t95 -26.5t95 25.5z" />
    <glyph glyph-name="c" unicode="c" horiz-adv-x="575" 
d="M165 23.5q-57 33.5 -89 94t-32 137.5q0 78 32.5 138.5t90 94t129.5 33.5q83 0 146 -44.5t90 -120.5l-71 -8q-21 53 -64.5 82t-100.5 29q-52 0 -93.5 -24.5t-65 -71t-23.5 -108.5q0 -61 24 -107t65 -71t93 -25q59 0 105 32.5t65 90.5l68 -8q-23 -81 -87.5 -129t-150.5 -48
q-74 0 -131 33.5z" />
    <glyph glyph-name="d" unicode="d" horiz-adv-x="615" 
d="M549 760v-760h-62l-6 100q-28 -51 -78 -80.5t-113 -29.5q-69 0 -125.5 34.5t-88.5 95t-32 135.5q0 76 33 136.5t89.5 95t124.5 34.5q61 0 110.5 -28t77.5 -76v343h70zM394.5 78.5q41.5 26.5 65 73t23.5 104.5t-23.5 104.5t-65 72.5t-95.5 26q-55 0 -97 -26.5t-65 -72.5
t-23 -105t23.5 -105.5t66 -72t95.5 -25.5q54 0 95.5 26.5z" />
    <glyph glyph-name="e" unicode="e" horiz-adv-x="579" 
d="M535 229h-420q7 -82 58 -129.5t125 -47.5q57 0 98 28t64 77l69 -9q-30 -74 -89.5 -116t-142.5 -42q-74 0 -131.5 33.5t-89.5 94.5t-32 141q0 77 30.5 136.5t86.5 92.5t131 33t130 -34t84 -94t29 -135v-29zM169 414q-47 -45 -54 -125h349q-8 82 -54 126t-119 44
q-75 0 -122 -45z" />
    <glyph glyph-name="f" unicode="f" horiz-adv-x="314" 
d="M178.5 683q-19.5 -25 -19.5 -86v-85h140v-61h-140v-451h-70v451h-77l6 61h71v85q0 173 143 173q27 0 52.5 -6t42.5 -16l-4 -58q-42 18 -80 18q-45 0 -64.5 -25z" />
    <glyph glyph-name="g" unicode="g" horiz-adv-x="615" 
d="M549 512v-457q0 -122 -65 -190.5t-180 -68.5q-83 0 -138 33t-75 84l67 14q40 -73 144 -73q86 0 131.5 51t45.5 150v40q-29 -49 -78 -77t-110 -28q-68 0 -124.5 34.5t-89.5 95t-33 136.5q0 77 33.5 137.5t90 94t123.5 33.5q62 0 112.5 -29.5t77.5 -81.5l5 102h63z
M393.5 78.5q42.5 26.5 66 73t23.5 104.5t-23.5 104.5t-66 72.5t-95.5 26q-54 0 -96 -26t-65 -72.5t-23 -105.5t23.5 -105.5t65.5 -72t95 -25.5t95.5 26.5z" />
    <glyph glyph-name="h" unicode="h" horiz-adv-x="566" 
d="M454 468q50 -53 50 -145v-323h-70v307q0 155 -139 155q-53 0 -89 -27.5t-53 -71.5t-17 -92v-271h-70v760h70v-347q27 53 73 80.5t104 27.5q91 0 141 -53z" />
    <glyph glyph-name="i" unicode="i" horiz-adv-x="203" 
d="M61 630q-17 17 -17 40q0 24 17 40.5t40 16.5t40 -16.5t17 -40.5q0 -23 -17 -40t-40 -17t-40 17zM67 512h70v-512h-70v512z" />
    <glyph glyph-name="j" unicode="j" horiz-adv-x="218" 
d="M76 630q-17 17 -17 40q0 24 17 40.5t40 16.5t40 -16.5t17 -40.5q0 -23 -17 -40t-40 -17t-40 17zM-38 -199.5q-25 4.5 -43 12.5l5 59q42 -14 78 -14q44 0 61.5 23t17.5 81v550h70v-557q0 -159 -139 -159q-25 0 -50 4.5z" />
    <glyph glyph-name="k" unicode="k" horiz-adv-x="483" 
d="M229 271l-93 -101v-170h-70v760h70v-499l232 251h85l-178 -192l207 -320h-76z" />
    <glyph glyph-name="l" unicode="l" horiz-adv-x="256" 
d="M133 3q-33 13 -50 47t-17 96v614h70v-611q0 -41 8.5 -61.5t26 -28t51.5 -7.5h7l5 -62h-14q-54 0 -87 13z" />
    <glyph glyph-name="m" unicode="m" horiz-adv-x="864" 
d="M714 499q40 -22 64.5 -67t24.5 -111v-321h-70v306q0 74 -30.5 115t-90.5 41q-73 0 -108 -58.5t-35 -136.5v-267h-70v305q0 77 -31.5 117t-89.5 40q-72 0 -107 -58t-35 -133v-271h-70v512h63l6 -96q24 51 65 78t93 27q59 0 103 -32t62 -90q24 60 67.5 91t100.5 31
q48 0 88 -22z" />
    <glyph glyph-name="n" unicode="n" horiz-adv-x="566" 
d="M454 468q50 -53 50 -145v-323h-70v307q0 155 -139 155q-53 0 -89 -27.5t-53 -71.5t-17 -92v-271h-70v512h63l6 -101q26 54 72.5 82t105.5 28q91 0 141 -53z" />
    <glyph glyph-name="o" unicode="o" horiz-adv-x="595" 
d="M168 23.5q-58 33.5 -91 94t-33 137.5q0 78 33 138.5t91 94t130 33.5t129.5 -33.5t90.5 -94t33 -138.5q0 -77 -33 -137t-90.5 -94t-129.5 -34t-130 33.5zM391 77q42 25 66 71t24 107q0 62 -24 108t-66 71t-93 25q-52 0 -94 -25t-66 -71t-24 -108q0 -61 24 -107t66 -71
t94 -25q51 0 93 25z" />
    <glyph glyph-name="p" unicode="p" horiz-adv-x="615" 
d="M448.5 487.5q56.5 -33.5 89.5 -94.5t33 -138q0 -76 -32.5 -136.5t-89 -94.5t-125.5 -34q-61 0 -110 28t-78 77v-289h-70v706h63l5 -103q27 53 77 82.5t113 29.5q68 0 124.5 -33.5zM411 77.5q42 25.5 66 71.5t24 106q0 59 -23 105t-65 72.5t-96 26.5q-53 0 -95.5 -26
t-66 -72.5t-23.5 -104.5t23.5 -104.5t65.5 -73t95 -26.5t95 25.5z" />
    <glyph glyph-name="q" unicode="q" horiz-adv-x="611" 
d="M549 512v-706h-70v292q-29 -50 -78.5 -79t-111.5 -29q-67 0 -123.5 34t-89 95t-32.5 136q0 76 32.5 136.5t89 95t124.5 34.5q63 0 114 -30t77 -81l5 102h63zM394 78.5q42 26.5 65.5 73t23.5 104.5t-23.5 104.5t-65 72.5t-95.5 26q-55 0 -97 -26.5t-65 -72.5t-23 -105
t23.5 -105t66 -72t95.5 -26t95 26.5z" />
    <glyph glyph-name="r" unicode="r" horiz-adv-x="353" 
d="M331 519l-4 -73q-23 5 -45 5q-73 0 -109.5 -59.5t-36.5 -151.5v-240h-70v512h63l6 -108q25 57 67 87t93 30q26 0 36 -2z" />
    <glyph glyph-name="s" unicode="s" horiz-adv-x="466" 
d="M37 142l68 8q7 -51 36.5 -74.5t91.5 -23.5q127 0 127 86q0 29 -14 46t-39 28t-75 26l-25 8q-60 19 -93 34.5t-52.5 41.5t-19.5 68q0 65 48 98t135 33q78 0 129.5 -37.5t59.5 -101.5l-69 -7q-6 37 -35.5 60.5t-84.5 23.5q-56 0 -85 -18t-29 -51q0 -29 24 -45.5t89 -37.5
l27 -8q65 -21 100 -37.5t56.5 -46t21.5 -77.5q0 -74 -53 -111t-142 -37q-181 0 -197 152z" />
    <glyph glyph-name="t" unicode="t" horiz-adv-x="333" 
d="M303 1q-41 -11 -79 -11q-135 0 -135 157v304h-77l4 61h73v128h70v-128h129v-61h-129v-303q0 -54 17 -75.5t56 -21.5q36 0 66 8z" />
    <glyph glyph-name="u" unicode="u" horiz-adv-x="554" 
d="M488 512v-512h-63l-5 98q-25 -53 -69.5 -80.5t-102.5 -27.5q-88 0 -137.5 47.5t-49.5 139.5v335h70v-318q0 -76 34.5 -109t100.5 -33q52 0 86 27.5t50 70.5t16 91v271h70z" />
    <glyph glyph-name="v" unicode="v" horiz-adv-x="497" 
d="M496 512l-207 -512h-81l-207 512h74l173 -446l173 446h75z" />
    <glyph glyph-name="w" unicode="w" horiz-adv-x="775" 
d="M764 512l-164 -512h-78l-135 422l-135 -422h-78l-163 512h72l132 -438l139 438h66l138 -437l134 437h72z" />
    <glyph glyph-name="x" unicode="x" horiz-adv-x="459" 
d="M374 0l-144 206l-145 -206h-79l184 263l-174 249h79l135 -192l134 192h79l-173 -249l183 -263h-79z" />
    <glyph glyph-name="y" unicode="y" horiz-adv-x="554" 
d="M488 512v-465q0 -120 -57 -185.5t-162 -65.5q-75 0 -125 32t-69 84l66 14q12 -34 44.5 -53t81.5 -19q78 0 114.5 48t36.5 144v52q-25 -51 -69.5 -77.5t-100.5 -26.5q-88 0 -137.5 47t-49.5 140v331h70v-315q0 -75 34.5 -108t100.5 -33q52 0 86 27.5t50 70.5t16 91v267h70
z" />
    <glyph glyph-name="z" unicode="z" horiz-adv-x="469" 
d="M145 60h286v-60h-404l293 451h-269l4 61h384z" />
    <glyph glyph-name="braceleft" unicode="{" horiz-adv-x="434" 
d="M244.5 442.5q-17.5 -30.5 -47.5 -47.5q30 -17 47.5 -47t17.5 -74v-182q0 -51 20.5 -75t71.5 -24v-59h-18q-77 0 -110.5 41.5t-33.5 129.5v169q0 46 -20.5 69t-71.5 23v58q51 0 71.5 23.5t20.5 69.5v167q0 88 33.5 130t110.5 42h18v-59q-51 0 -71.5 -24t-20.5 -75v-181
q0 -44 -17.5 -74.5z" />
    <glyph glyph-name="bar" unicode="|" horiz-adv-x="311" 
d="M120 760h71v-954h-71v954z" />
    <glyph glyph-name="braceright" unicode="}" horiz-adv-x="434" 
d="M189.5 442.5q17.5 -30.5 47.5 -47.5q-30 -17 -47.5 -47t-17.5 -74v-182q0 -51 -20.5 -75t-71.5 -24v-59h18q77 0 110.5 41.5t33.5 129.5v169q0 46 20.5 69t71.5 23v58q-51 0 -71.5 23.5t-20.5 69.5v167q0 88 -33.5 130t-110.5 42h-18v-59q51 0 71.5 -24t20.5 -75v-181
q0 -44 17.5 -74.5z" />
    <glyph glyph-name="asciitilde" unicode="~" horiz-adv-x="589" 
d="M346 413q-25 7 -57 20q-34 13 -57.5 20t-49.5 7q-32 0 -56.5 -10t-45.5 -31v65q40 37 104 37q29 0 53.5 -7t58.5 -21q35 -13 57.5 -19.5t49.5 -6.5q65 0 106 42v-66q-19 -17 -48 -27t-61 -10q-29 0 -54 7z" />
    <glyph glyph-name="uni00A0" unicode="&#xa0;" horiz-adv-x="222" 
 />
    <glyph glyph-name="exclamdown" unicode="&#xa1;" horiz-adv-x="238" 
d="M160.5 558q17.5 -18 17.5 -41q0 -24 -17.5 -41.5t-41.5 -17.5q-25 0 -42 17.5t-17 41.5t17.5 41.5t41.5 17.5t41.5 -18zM147 369l8 -563h-72l8 563h56z" />
    <glyph glyph-name="cent" unicode="&#xa2;" horiz-adv-x="650" 
d="M495 48q-54 -47 -129 -56v-119h-68v119q-64 7 -113.5 42.5t-77 92.5t-27.5 128t27.5 128.5t77 93t113.5 42.5v119h68v-119q71 -9 124.5 -52t77.5 -111l-71 -8q-18 45 -52 72.5t-79 35.5v-401q48 8 84 39.5t52 80.5l68 -8q-21 -72 -75 -119zM191 120q41 -53 107 -65v401
q-66 -12 -107 -65t-41 -136q0 -82 41 -135z" />
    <glyph glyph-name="sterling" unicode="&#xa3;" horiz-adv-x="622" 
d="M542 61v-61h-444v61h86q70 79 70 161q0 37 -14 70h-134v61h98q-18 25 -37 44q-87 94 -87 181q0 53 26 96.5t76 69.5t119 26q87 0 148.5 -46.5t84.5 -136.5l-69 -5q-17 58 -58 91t-106 33q-71 0 -111 -36t-40 -92q0 -35 18.5 -70.5t59.5 -75.5q39 -38 64 -79h198v-61h-172
q9 -30 9 -63q0 -89 -59 -168h274z" />
    <glyph glyph-name="currency" unicode="&#xa4;" horiz-adv-x="710" 
d="M579 80l-77 78q-63 -48 -151 -48q-84 0 -146 45l-75 -75l-50 51l75 74q-47 63 -47 150q0 86 46 151l-74 73l50 51l74 -74q62 45 147 45q43 0 82 -12.5t69 -35.5l77 77l50 -51l-78 -77q44 -63 44 -147q0 -83 -44 -146l79 -78zM439.5 194.5q39.5 22.5 62.5 64t23 96.5
q0 56 -23 97.5t-62.5 64t-88.5 22.5t-88.5 -22.5t-62 -64t-22.5 -97.5q0 -55 23 -96.5t62 -64t88 -22.5t88.5 22.5z" />
    <glyph glyph-name="yen" unicode="&#xa5;" horiz-adv-x="680" 
d="M404 393h148v-62h-176v-79h176v-61h-176v-191h-71v191h-176v61h176v79h-176v62h148l-197 367h74l186 -355l186 355h74z" />
    <glyph glyph-name="brokenbar" unicode="&#xa6;" horiz-adv-x="311" 
d="M120 760h71v-334h-71v334zM120 140h71v-334h-71v334z" />
    <glyph glyph-name="section" unicode="&#xa7;" horiz-adv-x="627" 
d="M526 -21q0 -50 -24.5 -91.5t-72.5 -66.5t-115 -25q-98 0 -158.5 52.5t-75.5 148.5l69 8q9 -66 51.5 -105.5t111.5 -39.5q67 0 104.5 31t37.5 85q0 45 -28.5 74.5t-82.5 49.5l-55 21q-91 35 -136.5 76t-45.5 112q0 87 71 142q-76 54 -76 138q0 50 24.5 91t72.5 65.5
t115 24.5q98 0 158.5 -52.5t75.5 -148.5l-69 -8q-9 66 -51.5 105.5t-111.5 39.5q-67 0 -104 -30t-37 -83q0 -44 28.5 -74t81.5 -50l55 -21q90 -34 136 -75.5t46 -111.5q0 -87 -71 -142q76 -52 76 -140zM364 162q15 -5 27 -11q27 19 42.5 47.5t15.5 60.5q0 44 -30 72.5
t-106 56.5l-50 19q-9 3 -27 11q-27 -18 -42 -46.5t-15 -60.5q0 -44 29.5 -73t105.5 -57z" />
    <glyph glyph-name="dieresis" unicode="&#xa8;" horiz-adv-x="377" 
d="M64.5 635q-14.5 15 -14.5 36q0 22 14.5 37t36.5 15q21 0 36 -15t15 -37q0 -21 -15 -36t-36 -15q-22 0 -36.5 15zM240 635q-15 15 -15 36q0 22 15 37t37 15q21 0 35.5 -15t14.5 -37q0 -21 -14.5 -36t-35.5 -15q-22 0 -37 15z" />
    <glyph glyph-name="copyright" unicode="&#xa9;" horiz-adv-x="972" 
d="M276.5 42q-92.5 52 -144.5 141.5t-52 196.5t52 196.5t144.5 141.5t209.5 52q116 0 209 -52t145 -141.5t52 -196.5t-52 -196.5t-145 -141.5t-209 -52q-117 0 -209.5 52zM665.5 88.5q79.5 45.5 124.5 122.5t45 169t-45 169t-124.5 122.5t-179.5 45.5t-179.5 -45.5
t-124 -122.5t-44.5 -169t44.5 -169t124 -122.5t179.5 -45.5t179.5 45.5zM371 169.5q-52 30.5 -81 85.5t-29 125q0 71 30 126t82 85.5t117 30.5q76 0 133 -41t81 -110l-64 -7q-19 48 -58.5 74.5t-91.5 26.5q-47 0 -84.5 -22.5t-59 -64.5t-21.5 -98q0 -55 21.5 -97t59 -64.5
t84.5 -22.5q54 0 95.5 29.5t59.5 81.5l61 -7q-21 -73 -79.5 -117t-136.5 -44q-67 0 -119 30.5z" />
    <glyph glyph-name="ordfeminine" unicode="&#xaa;" horiz-adv-x="482" 
d="M422 760v-346h-54l-2 58q-23 -30 -56.5 -47t-73.5 -17q-47 0 -87.5 24t-64.5 65t-24 91t24 92t64.5 66t87.5 24q40 0 73 -17t56 -47v54h57zM326.5 497q34.5 36 34.5 91q0 57 -34.5 92.5t-84.5 35.5q-33 0 -61.5 -17t-45 -46.5t-16.5 -64.5t16.5 -64t45 -46t61.5 -17
q50 0 84.5 36z" />
    <glyph glyph-name="guillemotleft" unicode="&#xab;" horiz-adv-x="455" 
d="M170 480h70l-110 -208l110 -208h-70l-110 208zM325 480h70l-110 -208l110 -208h-70l-110 208z" />
    <glyph glyph-name="logicalnot" unicode="&#xac;" horiz-adv-x="610" 
d="M530 403v-203h-65v143h-385v60h450z" />
    <glyph glyph-name="uni00AD" unicode="&#xad;" horiz-adv-x="425" 
d="M60 295h305v-60h-305v60z" />
    <glyph glyph-name="registered" unicode="&#xae;" horiz-adv-x="697" 
d="M488 735.5q61 -34.5 95 -93t34 -128.5t-34 -129t-95 -93.5t-139 -34.5t-139.5 34.5t-95.5 93t-34 129.5q0 70 34 128.5t95.5 93t139.5 34.5t139 -34.5zM461 332.5q49 27.5 76 75.5t27 106q0 57 -27 105t-76 75.5t-112 27.5t-112.5 -27.5t-77 -75.5t-27.5 -105
q0 -58 27.5 -106t76.5 -75.5t113 -27.5q63 0 112 27.5zM431.5 523.5q-11.5 -18.5 -32.5 -29.5l46 -98h-56l-40 88h-28v-88h-51v252h87q39 0 62.5 -22.5t23.5 -58.5q0 -25 -11.5 -43.5zM321 529h27q21 0 32.5 10.5t11.5 27.5q0 15 -11.5 25.5t-29.5 10.5h-30v-74z" />
    <glyph glyph-name="macron" unicode="&#xaf;" horiz-adv-x="374" 
d="M50 711h274v-55h-274v55z" />
    <glyph glyph-name="degree" unicode="&#xb0;" horiz-adv-x="415" 
d="M143.5 530.5q-29.5 17.5 -46.5 47t-17 63.5q0 35 17 64.5t46.5 47t64.5 17.5t64 -17.5t46 -47t17 -64.5t-17 -64t-46 -46.5t-64 -17.5t-64.5 17.5zM264 585.5q23 23.5 23 55.5q0 33 -23 56t-56 23t-56 -23t-23 -56q0 -32 23 -55.5t56 -23.5t56 23.5z" />
    <glyph glyph-name="plusminus" unicode="&#xb1;" horiz-adv-x="544" 
d="M464 374h-162v-162h-60v162h-162v60h162v162h60v-162h162v-60zM80 96h384v-60h-384v60z" />
    <glyph glyph-name="uni00B2" unicode="&#xb2;" horiz-adv-x="424" 
d="M344 444v-53h-264v25q0 54 21.5 91.5t75.5 68.5l46 27q26 15 37.5 28.5t11.5 32.5q0 23 -16 36.5t-46 13.5q-25 0 -43.5 -10.5t-23.5 -27.5l-61 5q10 39 46 62t84 23q60 0 91.5 -28t31.5 -71q0 -34 -17.5 -58t-53.5 -46l-51 -32q-35 -22 -50 -42t-17 -45h198z" />
    <glyph glyph-name="uni00B3" unicode="&#xb3;" horiz-adv-x="422" 
d="M325.5 552q16.5 -24 16.5 -55q0 -50 -36.5 -80.5t-93.5 -30.5q-52 0 -87.5 22.5t-44.5 62.5l62 4q6 -17 23 -27t43 -10q34 0 52.5 16t18.5 45t-21.5 45.5t-63.5 16.5h-39v46h26q40 0 61 14.5t21 41.5q0 23 -14.5 37t-42.5 14q-24 0 -42 -10t-23 -27l-59 4
q10 40 44.5 62.5t83.5 22.5q53 0 84 -27t31 -69q0 -54 -51 -82q35 -12 51.5 -36z" />
    <glyph glyph-name="acute" unicode="&#xb4;" horiz-adv-x="269" 
d="M105 590h-55l77 170h92z" />
    <glyph glyph-name="uni00B5" unicode="&#xb5;" horiz-adv-x="587" 
d="M507 512v-512h-64l-4 93q-25 -51 -68 -77t-97 -26q-73 0 -124 42v-226h-70v706h70v-312q0 -77 33 -112.5t100 -35.5q78 0 116 56.5t38 135.5v268h70z" />
    <glyph glyph-name="paragraph" unicode="&#xb6;" horiz-adv-x="740" 
d="M660 702h-83v-896h-58v896h-145v-896h-59v483q-65 0 -118.5 32t-85 86t-31.5 118t31.5 117.5t85.5 85.5t118 32h345v-58z" />
    <glyph glyph-name="periodcentered" unicode="&#xb7;" horiz-adv-x="218" 
d="M67 343.5q-17 17.5 -17 41.5t17 41.5t42 17.5q24 0 41.5 -17.5t17.5 -41.5t-17.5 -41.5t-41.5 -17.5q-25 0 -42 17.5z" />
    <glyph glyph-name="cedilla" unicode="&#xb8;" horiz-adv-x="277" 
d="M202 -61.5q25 -21.5 25 -57.5q0 -39 -28.5 -62t-73.5 -23q-21 0 -41 5t-34 14l15 37q22 -12 46 -12q23 0 36 11.5t13 31.5q0 17 -10 26.5t-29 9.5q-21 0 -40 -13l-22 13l27 98h49l-12 -58q4 1 15 1q39 0 64 -21.5z" />
    <glyph glyph-name="uni00B9" unicode="&#xb9;" horiz-adv-x="298" 
d="M218 760v-371h-64v285q-23 -8 -74 -8v51q47 0 67.5 9.5t23.5 33.5h47z" />
    <glyph glyph-name="ordmasculine" unicode="&#xba;" horiz-adv-x="479" 
d="M148 432q-41 24 -64.5 65.5t-23.5 90.5t23.5 91t64.5 66.5t91 24.5t91 -24.5t65 -66.5t24 -91t-24 -90.5t-65 -65.5t-91 -24t-91 24zM324.5 497.5q35.5 36.5 35.5 90.5q0 55 -35.5 91.5t-85.5 36.5t-85 -36.5t-35 -91.5q0 -54 35 -90.5t85 -36.5t85.5 36.5z" />
    <glyph glyph-name="guillemotright" unicode="&#xbb;" horiz-adv-x="455" 
d="M285 480h-70l110 -208l-110 -208h70l110 208zM130 480h-70l110 -208l-110 -208h70l110 208z" />
    <glyph glyph-name="onequarter" unicode="&#xbc;" horiz-adv-x="924" 
d="M225 760v-371h-64v285q-23 -8 -74 -8v51q47 0 67.5 9.5t23.5 33.5h47zM637 760h79l-554 -760h-79zM844 98h-62v-97h-62v97h-190v53l71 220h62l-71 -220h128v104h62v-104h62v-53z" />
    <glyph glyph-name="onehalf" unicode="&#xbd;" horiz-adv-x="873" 
d="M225 760v-371h-64v285q-23 -8 -74 -8v51q47 0 67.5 9.5t23.5 33.5h47zM793 54v-53h-264v25q0 54 21.5 91.5t75.5 68.5l46 27q26 15 37.5 28.5t11.5 32.5q0 23 -16 36.5t-46 13.5q-25 0 -43.5 -10.5t-23.5 -27.5l-61 5q10 39 46 62t84 23q60 0 91.5 -28t31.5 -71
q0 -34 -17.5 -58t-53.5 -46l-51 -32q-35 -22 -50 -42t-17 -45h198zM637 760h79l-554 -760h-79z" />
    <glyph glyph-name="threequarters" unicode="&#xbe;" horiz-adv-x="981" 
d="M325.5 552q16.5 -24 16.5 -55q0 -50 -36.5 -80.5t-93.5 -30.5q-52 0 -87.5 22.5t-44.5 62.5l62 4q6 -17 23 -27t43 -10q34 0 52.5 16t18.5 45t-21.5 45.5t-63.5 16.5h-39v46h26q40 0 61 14.5t21 41.5q0 23 -14.5 37t-42.5 14q-24 0 -42 -10t-23 -27l-59 4
q10 40 44.5 62.5t83.5 22.5q53 0 84 -27t31 -69q0 -54 -51 -82q35 -12 51.5 -36zM694 760h79l-554 -760h-79zM901 98h-62v-97h-62v97h-190v53l71 220h62l-71 -220h128v104h62v-104h62v-53z" />
    <glyph glyph-name="questiondown" unicode="&#xbf;" horiz-adv-x="561" 
d="M365.5 558.5q17.5 -17.5 17.5 -41.5t-17 -41.5t-42 -17.5q-24 0 -41.5 17.5t-17.5 41.5q0 23 17.5 41t41.5 18t41.5 -17.5zM359 344q0 -59 -10 -98t-36.5 -69.5t-77.5 -58.5l-28 -16q-75 -41 -75 -120q0 -60 37.5 -91.5t102.5 -31.5q64 0 104 27.5t67 73.5l58 -28
q-32 -62 -90.5 -99t-140.5 -37q-65 0 -112.5 23.5t-72.5 65t-25 94.5q0 112 117 177l30 16q46 25 63.5 61.5t17.5 97.5v38h71v-25z" />
    <glyph glyph-name="Agrave" unicode="&#xc0;" horiz-adv-x="595" 
d="M471 142h-348l-45 -142h-73l252 760h80l253 -760h-74zM451 205l-154 485l-154 -485h308zM255 1008l77 -170h-55l-114 170h92z" />
    <glyph glyph-name="Aacute" unicode="&#xc1;" horiz-adv-x="595" 
d="M471 142h-348l-45 -142h-73l252 760h80l253 -760h-74zM451 205l-154 485l-154 -485h308zM318 838h-55l77 170h92z" />
    <glyph glyph-name="Acircumflex" unicode="&#xc2;" horiz-adv-x="595" 
d="M471 142h-348l-45 -142h-73l252 760h80l253 -760h-74zM451 205l-154 485l-154 -485h308zM390 840l-93 118l-93 -118h-83l145 168h62l144 -168h-82z" />
    <glyph glyph-name="Atilde" unicode="&#xc3;" horiz-adv-x="595" 
d="M471 142h-348l-45 -142h-73l252 760h80l253 -760h-74zM451 205l-154 485l-154 -485h308zM317 893.5q-20 9.5 -40 24.5q-17 12 -29 18t-23 6q-15 0 -30 -10.5t-26 -30.5l-50 22q35 72 108 72q24 0 44 -9t44 -25q16 -12 28 -18t24 -6q16 0 31 10.5t26 31.5l50 -18
q-42 -77 -113 -77q-24 0 -44 9.5z" />
    <glyph glyph-name="Adieresis" unicode="&#xc4;" horiz-adv-x="595" 
d="M471 142h-348l-45 -142h-73l252 760h80l253 -760h-74zM451 205l-154 485l-154 -485h308zM173.5 883q-14.5 15 -14.5 36q0 22 14.5 37t36.5 15q21 0 36 -15t15 -37q0 -21 -15 -36t-36 -15q-22 0 -36.5 15zM349 883q-15 15 -15 36q0 22 15 37t37 15q21 0 35.5 -15t14.5 -37
q0 -21 -14.5 -36t-35.5 -15q-22 0 -37 15z" />
    <glyph glyph-name="Aring" unicode="&#xc5;" horiz-adv-x="595" 
d="M471 142h-348l-45 -142h-73l252 760h80l253 -760h-74zM451 205l-154 485l-154 -485h308zM220 864.5q-31 31.5 -31 76.5t31 76t77 31q45 0 76 -31.5t31 -75.5q0 -45 -31 -76.5t-76 -31.5q-46 0 -77 31.5zM343 893.5q19 19.5 19 47.5t-19 47t-46 19q-28 0 -47 -19t-19 -47
t19 -47.5t47 -19.5q27 0 46 19.5z" />
    <glyph glyph-name="AE" unicode="&#xc6;" horiz-adv-x="905" 
d="M849 61v-61h-404v186h-277l-101 -186h-72l412 760h437v-61h-328v-271h324v-62h-324v-305h333zM445 247v450l-244 -450h244z" />
    <glyph glyph-name="Ccedilla" unicode="&#xc7;" horiz-adv-x="818" 
d="M229.5 42q-85.5 52 -134 141t-48.5 197t49 197.5t134 141t190 51.5q82 0 153 -32.5t122 -90.5t76 -134l-72 -8q-33 92 -107.5 146.5t-171.5 54.5q-85 0 -153.5 -42.5t-107.5 -117t-39 -166.5t39 -166.5t107.5 -117t153.5 -42.5q97 0 172 55.5t107 148.5l73 -9
q-25 -77 -76 -135.5t-122 -91t-154 -32.5q-105 0 -190.5 52zM490 -61.5q25 -21.5 25 -57.5q0 -39 -28.5 -62t-73.5 -23q-21 0 -41 5t-34 14l15 37q22 -12 46 -12q23 0 36 11.5t13 31.5q0 17 -10 26.5t-29 9.5q-21 0 -40 -13l-22 13l27 98h49l-12 -58q4 1 15 1q39 0 64 -21.5
z" />
    <glyph glyph-name="Egrave" unicode="&#xc8;" horiz-adv-x="544" 
d="M488 63v-63h-416v760h411v-63h-340v-269h336v-62h-336v-303h345zM233 1008l77 -170h-55l-114 170h92z" />
    <glyph glyph-name="Eacute" unicode="&#xc9;" horiz-adv-x="544" 
d="M488 63v-63h-416v760h411v-63h-340v-269h336v-62h-336v-303h345zM296 838h-55l77 170h92z" />
    <glyph glyph-name="Ecircumflex" unicode="&#xca;" horiz-adv-x="544" 
d="M488 63v-63h-416v760h411v-63h-340v-269h336v-62h-336v-303h345zM368 840l-93 118l-93 -118h-83l145 168h62l144 -168h-82z" />
    <glyph glyph-name="Edieresis" unicode="&#xcb;" horiz-adv-x="544" 
d="M488 63v-63h-416v760h411v-63h-340v-269h336v-62h-336v-303h345zM151.5 883q-14.5 15 -14.5 36q0 22 14.5 37t36.5 15q21 0 36 -15t15 -37q0 -21 -15 -36t-36 -15q-22 0 -36.5 15zM327 883q-15 15 -15 36q0 22 15 37t37 15q21 0 35.5 -15t14.5 -37q0 -21 -14.5 -36
t-35.5 -15q-22 0 -37 15z" />
    <glyph glyph-name="Igrave" unicode="&#xcc;" horiz-adv-x="215" 
d="M72 760h71v-760h-71v760zM66 1008l77 -170h-55l-114 170h92z" />
    <glyph glyph-name="Iacute" unicode="&#xcd;" horiz-adv-x="215" 
d="M72 760h71v-760h-71v760zM129 838h-55l77 170h92z" />
    <glyph glyph-name="Icircumflex" unicode="&#xce;" horiz-adv-x="215" 
d="M72 760h71v-760h-71v760zM201 840l-93 118l-93 -118h-83l145 168h62l144 -168h-82z" />
    <glyph glyph-name="Idieresis" unicode="&#xcf;" horiz-adv-x="215" 
d="M72 760h71v-760h-71v760zM-15.5 883q-14.5 15 -14.5 36q0 22 14.5 37t36.5 15q21 0 36 -15t15 -37q0 -21 -15 -36t-36 -15q-22 0 -36.5 15zM160 883q-15 15 -15 36q0 22 15 37t37 15q21 0 35.5 -15t14.5 -37q0 -21 -14.5 -36t-35.5 -15q-22 0 -37 15z" />
    <glyph glyph-name="Eth" unicode="&#xd0;" horiz-adv-x="789" 
d="M561.5 710q86.5 -50 133 -136.5t46.5 -193.5t-46 -193.5t-133 -136.5t-203 -50h-250v366h-97v62h97v332h250q116 0 202.5 -50zM521 104.5q72 41.5 110 114t38 161.5t-38 161.5t-110 114t-169 41.5h-172v-269h259v-62h-259v-303h172q97 0 169 41.5z" />
    <glyph glyph-name="Ntilde" unicode="&#xd1;" horiz-adv-x="658" 
d="M586 760v-760h-71l-372 642v-642h-71v760h71l372 -642v642h71zM349 893.5q-20 9.5 -40 24.5q-17 12 -29 18t-23 6q-15 0 -30 -10.5t-26 -30.5l-50 22q35 72 108 72q24 0 44 -9t44 -25q16 -12 28 -18t24 -6q16 0 31 10.5t26 31.5l50 -18q-42 -77 -113 -77q-24 0 -44 9.5z
" />
    <glyph glyph-name="Ograve" unicode="&#xd2;" horiz-adv-x="840" 
d="M229.5 42q-85.5 52 -134 141t-48.5 197t49 197.5t134 141t190 51.5t190 -51.5t134 -141t49 -197.5t-48.5 -197t-134 -141t-190.5 -52t-190.5 52zM573.5 96.5q68.5 42.5 107.5 117t39 166.5t-39 166.5t-107.5 117t-153.5 42.5t-153.5 -42.5t-107.5 -117t-39 -166.5
t39 -166.5t107.5 -117t153.5 -42.5t153.5 42.5zM378 1008l77 -170h-55l-114 170h92z" />
    <glyph glyph-name="Oacute" unicode="&#xd3;" horiz-adv-x="840" 
d="M229.5 42q-85.5 52 -134 141t-48.5 197t49 197.5t134 141t190 51.5t190 -51.5t134 -141t49 -197.5t-48.5 -197t-134 -141t-190.5 -52t-190.5 52zM573.5 96.5q68.5 42.5 107.5 117t39 166.5t-39 166.5t-107.5 117t-153.5 42.5t-153.5 -42.5t-107.5 -117t-39 -166.5
t39 -166.5t107.5 -117t153.5 -42.5t153.5 42.5zM441 838h-55l77 170h92z" />
    <glyph glyph-name="Ocircumflex" unicode="&#xd4;" horiz-adv-x="840" 
d="M229.5 42q-85.5 52 -134 141t-48.5 197t49 197.5t134 141t190 51.5t190 -51.5t134 -141t49 -197.5t-48.5 -197t-134 -141t-190.5 -52t-190.5 52zM573.5 96.5q68.5 42.5 107.5 117t39 166.5t-39 166.5t-107.5 117t-153.5 42.5t-153.5 -42.5t-107.5 -117t-39 -166.5
t39 -166.5t107.5 -117t153.5 -42.5t153.5 42.5zM513 840l-93 118l-93 -118h-83l145 168h62l144 -168h-82z" />
    <glyph glyph-name="Otilde" unicode="&#xd5;" horiz-adv-x="840" 
d="M229.5 42q-85.5 52 -134 141t-48.5 197t49 197.5t134 141t190 51.5t190 -51.5t134 -141t49 -197.5t-48.5 -197t-134 -141t-190.5 -52t-190.5 52zM573.5 96.5q68.5 42.5 107.5 117t39 166.5t-39 166.5t-107.5 117t-153.5 42.5t-153.5 -42.5t-107.5 -117t-39 -166.5
t39 -166.5t107.5 -117t153.5 -42.5t153.5 42.5zM440 893.5q-20 9.5 -40 24.5q-17 12 -29 18t-23 6q-15 0 -30 -10.5t-26 -30.5l-50 22q35 72 108 72q24 0 44 -9t44 -25q16 -12 28 -18t24 -6q16 0 31 10.5t26 31.5l50 -18q-42 -77 -113 -77q-24 0 -44 9.5z" />
    <glyph glyph-name="Odieresis" unicode="&#xd6;" horiz-adv-x="840" 
d="M229.5 42q-85.5 52 -134 141t-48.5 197t49 197.5t134 141t190 51.5t190 -51.5t134 -141t49 -197.5t-48.5 -197t-134 -141t-190.5 -52t-190.5 52zM573.5 96.5q68.5 42.5 107.5 117t39 166.5t-39 166.5t-107.5 117t-153.5 42.5t-153.5 -42.5t-107.5 -117t-39 -166.5
t39 -166.5t107.5 -117t153.5 -42.5t153.5 42.5zM296.5 883q-14.5 15 -14.5 36q0 22 14.5 37t36.5 15q21 0 36 -15t15 -37q0 -21 -15 -36t-36 -15q-22 0 -36.5 15zM472 883q-15 15 -15 36q0 22 15 37t37 15q21 0 35.5 -15t14.5 -37q0 -21 -14.5 -36t-35.5 -15q-22 0 -37 15z
" />
    <glyph glyph-name="multiply" unicode="&#xd7;" horiz-adv-x="504" 
d="M294 265l130 -131l-42 -41l-130 130l-131 -130l-41 41l130 131l-130 130l41 43l131 -131l130 130l42 -42z" />
    <glyph glyph-name="Oslash" unicode="&#xd8;" horiz-adv-x="840" 
d="M759 547.5q34 -77.5 34 -167.5q0 -108 -48.5 -197t-134 -141t-190.5 -52q-106 0 -192 53l-40 -59h-73l64 94q-62 54 -97 132.5t-35 169.5q0 108 49 197.5t134 141t190 51.5q107 0 195 -55l42 61h74l-67 -97q61 -54 95 -131.5zM146 242.5q26 -63.5 72 -108.5l360 526
q-69 46 -158 46q-85 0 -153.5 -42.5t-107.5 -117t-39 -166.5q0 -74 26 -137.5zM573.5 96.5q68.5 42.5 107.5 117t39 166.5q0 72 -25 134.5t-69 107.5l-360 -525q70 -43 154 -43q85 0 153.5 42.5z" />
    <glyph glyph-name="Ugrave" unicode="&#xd9;" horiz-adv-x="664" 
d="M136 66q-69 76 -69 212v482h71v-491q0 -103 51.5 -159t142.5 -56q92 0 143 56t51 159v491h71v-482q0 -137 -68.5 -212.5t-196.5 -75.5q-127 0 -196 76zM288 1008l77 -170h-55l-114 170h92z" />
    <glyph glyph-name="Uacute" unicode="&#xda;" horiz-adv-x="664" 
d="M136 66q-69 76 -69 212v482h71v-491q0 -103 51.5 -159t142.5 -56q92 0 143 56t51 159v491h71v-482q0 -137 -68.5 -212.5t-196.5 -75.5q-127 0 -196 76zM351 838h-55l77 170h92z" />
    <glyph glyph-name="Ucircumflex" unicode="&#xdb;" horiz-adv-x="664" 
d="M136 66q-69 76 -69 212v482h71v-491q0 -103 51.5 -159t142.5 -56q92 0 143 56t51 159v491h71v-482q0 -137 -68.5 -212.5t-196.5 -75.5q-127 0 -196 76zM423 840l-93 118l-93 -118h-83l145 168h62l144 -168h-82z" />
    <glyph glyph-name="Udieresis" unicode="&#xdc;" horiz-adv-x="664" 
d="M136 66q-69 76 -69 212v482h71v-491q0 -103 51.5 -159t142.5 -56q92 0 143 56t51 159v491h71v-482q0 -137 -68.5 -212.5t-196.5 -75.5q-127 0 -196 76zM206.5 883q-14.5 15 -14.5 36q0 22 14.5 37t36.5 15q21 0 36 -15t15 -37q0 -21 -15 -36t-36 -15q-22 0 -36.5 15z
M382 883q-15 15 -15 36q0 22 15 37t37 15q21 0 35.5 -15t14.5 -37q0 -21 -14.5 -36t-35.5 -15q-22 0 -37 15z" />
    <glyph glyph-name="Yacute" unicode="&#xdd;" horiz-adv-x="553" 
d="M551 760l-388 -760h-73l164 322l-243 438h76l202 -371l189 371h73zM306 838h-55l77 170h92z" />
    <glyph glyph-name="Thorn" unicode="&#xde;" horiz-adv-x="621" 
d="M511.5 576q67.5 -70 67.5 -188q0 -117 -68.5 -186.5t-196.5 -69.5h-171v-132h-71v760h71v-114h178q123 0 190.5 -70zM457.5 244.5q50.5 51.5 50.5 143.5t-49 144t-144 52h-172v-391h163q101 0 151.5 51.5z" />
    <glyph glyph-name="germandbls" unicode="&#xdf;" horiz-adv-x="567" 
d="M470.5 348.5q50.5 -58.5 50.5 -139.5q0 -60 -30.5 -110t-83.5 -79.5t-118 -29.5q-51 0 -99 20l14 55q39 -14 76 -14q47 0 86 20t62 56.5t23 82.5q0 51 -25.5 89.5t-70 59t-100.5 20.5h-27v60q68 14 108.5 54.5t40.5 96.5q0 52 -33.5 85t-87.5 33q-59 0 -89.5 -42
t-30.5 -113v-553h-70v544q0 116 54 171t138 55q55 0 98 -22t66.5 -61t23.5 -89q0 -53 -27.5 -97t-79.5 -74q81 -20 131.5 -78.5z" />
    <glyph glyph-name="agrave" unicode="&#xe0;" horiz-adv-x="615" 
d="M549 512v-512h-63l-4 102q-29 -53 -80.5 -82.5t-113.5 -29.5q-69 0 -124.5 34.5t-87.5 95.5t-32 135q0 76 32.5 136.5t89 95t124.5 34.5q61 0 111 -29t79 -80v100h69zM394 78.5q42 26.5 65.5 73t23.5 104.5t-23.5 104t-65.5 72.5t-94 26.5q-55 0 -97.5 -26t-65.5 -72.5
t-23 -105.5q0 -58 23 -104.5t65.5 -72.5t97.5 -26q52 0 94 26.5zM253 760l77 -170h-55l-114 170h92z" />
    <glyph glyph-name="aacute" unicode="&#xe1;" horiz-adv-x="615" 
d="M549 512v-512h-63l-4 102q-29 -53 -80.5 -82.5t-113.5 -29.5q-69 0 -124.5 34.5t-87.5 95.5t-32 135q0 76 32.5 136.5t89 95t124.5 34.5q61 0 111 -29t79 -80v100h69zM394 78.5q42 26.5 65.5 73t23.5 104.5t-23.5 104t-65.5 72.5t-94 26.5q-55 0 -97.5 -26t-65.5 -72.5
t-23 -105.5q0 -58 23 -104.5t65.5 -72.5t97.5 -26q52 0 94 26.5zM316 590h-55l77 170h92z" />
    <glyph glyph-name="acircumflex" unicode="&#xe2;" horiz-adv-x="615" 
d="M549 512v-512h-63l-4 102q-29 -53 -80.5 -82.5t-113.5 -29.5q-69 0 -124.5 34.5t-87.5 95.5t-32 135q0 76 32.5 136.5t89 95t124.5 34.5q61 0 111 -29t79 -80v100h69zM394 78.5q42 26.5 65.5 73t23.5 104.5t-23.5 104t-65.5 72.5t-94 26.5q-55 0 -97.5 -26t-65.5 -72.5
t-23 -105.5q0 -58 23 -104.5t65.5 -72.5t97.5 -26q52 0 94 26.5zM388 592l-93 118l-93 -118h-83l145 168h62l144 -168h-82z" />
    <glyph glyph-name="atilde" unicode="&#xe3;" horiz-adv-x="615" 
d="M549 512v-512h-63l-4 102q-29 -53 -80.5 -82.5t-113.5 -29.5q-69 0 -124.5 34.5t-87.5 95.5t-32 135q0 76 32.5 136.5t89 95t124.5 34.5q61 0 111 -29t79 -80v100h69zM394 78.5q42 26.5 65.5 73t23.5 104.5t-23.5 104t-65.5 72.5t-94 26.5q-55 0 -97.5 -26t-65.5 -72.5
t-23 -105.5q0 -58 23 -104.5t65.5 -72.5t97.5 -26q52 0 94 26.5zM315 645.5q-20 9.5 -40 24.5q-17 12 -29 18t-23 6q-15 0 -30 -10.5t-26 -30.5l-50 22q35 72 108 72q24 0 44 -9t44 -25q16 -12 28 -18t24 -6q16 0 31 10.5t26 31.5l50 -18q-42 -77 -113 -77q-24 0 -44 9.5z
" />
    <glyph glyph-name="adieresis" unicode="&#xe4;" horiz-adv-x="615" 
d="M549 512v-512h-63l-4 102q-29 -53 -80.5 -82.5t-113.5 -29.5q-69 0 -124.5 34.5t-87.5 95.5t-32 135q0 76 32.5 136.5t89 95t124.5 34.5q61 0 111 -29t79 -80v100h69zM394 78.5q42 26.5 65.5 73t23.5 104.5t-23.5 104t-65.5 72.5t-94 26.5q-55 0 -97.5 -26t-65.5 -72.5
t-23 -105.5q0 -58 23 -104.5t65.5 -72.5t97.5 -26q52 0 94 26.5zM171.5 635q-14.5 15 -14.5 36q0 22 14.5 37t36.5 15q21 0 36 -15t15 -37q0 -21 -15 -36t-36 -15q-22 0 -36.5 15zM347 635q-15 15 -15 36q0 22 15 37t37 15q21 0 35.5 -15t14.5 -37q0 -21 -14.5 -36
t-35.5 -15q-22 0 -37 15z" />
    <glyph glyph-name="aring" unicode="&#xe5;" horiz-adv-x="615" 
d="M549 512v-512h-63l-4 102q-29 -53 -80.5 -82.5t-113.5 -29.5q-69 0 -124.5 34.5t-87.5 95.5t-32 135q0 76 32.5 136.5t89 95t124.5 34.5q61 0 111 -29t79 -80v100h69zM394 78.5q42 26.5 65.5 73t23.5 104.5t-23.5 104t-65.5 72.5t-94 26.5q-55 0 -97.5 -26t-65.5 -72.5
t-23 -105.5q0 -58 23 -104.5t65.5 -72.5t97.5 -26q52 0 94 26.5zM218 616.5q-31 31.5 -31 76.5t31 76t77 31q45 0 76 -31.5t31 -75.5q0 -45 -31 -76.5t-76 -31.5q-46 0 -77 31.5zM341 645.5q19 19.5 19 47.5t-19 47t-46 19q-28 0 -47 -19t-19 -47t19 -47.5t47 -19.5
q27 0 46 19.5z" />
    <glyph glyph-name="ae" unicode="&#xe6;" horiz-adv-x="937" 
d="M891 145q-30 -74 -88 -114.5t-139 -40.5q-72 0 -127 32t-85 90q-24 -57 -82 -89.5t-140 -32.5q-81 0 -134.5 38.5t-53.5 117.5q0 82 59.5 117t156.5 35h161v16q0 75 -41.5 110t-101.5 35q-99 0 -148 -82l-67 10q26 58 82 96t132 38q63 0 113.5 -24.5t76.5 -75.5
q31 48 80.5 74t111.5 26q70 0 123 -34t81 -91.5t28 -127.5v-28h-400q4 -88 53 -138t125 -50q54 0 93 26.5t61 74.5zM545 416.5q-44 -42.5 -54 -118.5h326q-7 77 -50.5 119t-110.5 42t-111 -42.5zM329 66.5q41 19.5 65.5 56.5t24.5 87v30h-155q-83 0 -118.5 -24t-35.5 -70
q0 -45 36 -72t95 -27q47 0 88 19.5z" />
    <glyph glyph-name="ccedilla" unicode="&#xe7;" horiz-adv-x="575" 
d="M165 23.5q-57 33.5 -89 94t-32 137.5q0 78 32.5 138.5t90 94t129.5 33.5q83 0 146 -44.5t90 -120.5l-71 -8q-21 53 -64.5 82t-100.5 29q-52 0 -93.5 -24.5t-65 -71t-23.5 -108.5q0 -61 24 -107t65 -71t93 -25q59 0 105 32.5t65 90.5l68 -8q-23 -81 -87.5 -129t-150.5 -48
q-74 0 -131 33.5zM379 -61.5q25 -21.5 25 -57.5q0 -39 -28.5 -62t-73.5 -23q-21 0 -41 5t-34 14l15 37q22 -12 46 -12q23 0 36 11.5t13 31.5q0 17 -10 26.5t-29 9.5q-21 0 -40 -13l-22 13l27 98h49l-12 -58q4 1 15 1q39 0 64 -21.5z" />
    <glyph glyph-name="egrave" unicode="&#xe8;" horiz-adv-x="579" 
d="M535 229h-420q7 -82 58 -129.5t125 -47.5q57 0 98 28t64 77l69 -9q-30 -74 -89.5 -116t-142.5 -42q-74 0 -131.5 33.5t-89.5 94.5t-32 141q0 77 30.5 136.5t86.5 92.5t131 33t130 -34t84 -94t29 -135v-29zM169 414q-47 -45 -54 -125h349q-8 82 -54 126t-119 44
q-75 0 -122 -45zM246 760l77 -170h-55l-114 170h92z" />
    <glyph glyph-name="eacute" unicode="&#xe9;" horiz-adv-x="579" 
d="M535 229h-420q7 -82 58 -129.5t125 -47.5q57 0 98 28t64 77l69 -9q-30 -74 -89.5 -116t-142.5 -42q-74 0 -131.5 33.5t-89.5 94.5t-32 141q0 77 30.5 136.5t86.5 92.5t131 33t130 -34t84 -94t29 -135v-29zM169 414q-47 -45 -54 -125h349q-8 82 -54 126t-119 44
q-75 0 -122 -45zM309 590h-55l77 170h92z" />
    <glyph glyph-name="ecircumflex" unicode="&#xea;" horiz-adv-x="579" 
d="M535 229h-420q7 -82 58 -129.5t125 -47.5q57 0 98 28t64 77l69 -9q-30 -74 -89.5 -116t-142.5 -42q-74 0 -131.5 33.5t-89.5 94.5t-32 141q0 77 30.5 136.5t86.5 92.5t131 33t130 -34t84 -94t29 -135v-29zM169 414q-47 -45 -54 -125h349q-8 82 -54 126t-119 44
q-75 0 -122 -45zM381 592l-93 118l-93 -118h-83l145 168h62l144 -168h-82z" />
    <glyph glyph-name="edieresis" unicode="&#xeb;" horiz-adv-x="579" 
d="M535 229h-420q7 -82 58 -129.5t125 -47.5q57 0 98 28t64 77l69 -9q-30 -74 -89.5 -116t-142.5 -42q-74 0 -131.5 33.5t-89.5 94.5t-32 141q0 77 30.5 136.5t86.5 92.5t131 33t130 -34t84 -94t29 -135v-29zM169 414q-47 -45 -54 -125h349q-8 82 -54 126t-119 44
q-75 0 -122 -45zM164.5 635q-14.5 15 -14.5 36q0 22 14.5 37t36.5 15q21 0 36 -15t15 -37q0 -21 -15 -36t-36 -15q-22 0 -36.5 15zM340 635q-15 15 -15 36q0 22 15 37t37 15q21 0 35.5 -15t14.5 -37q0 -21 -14.5 -36t-35.5 -15q-22 0 -37 15z" />
    <glyph glyph-name="igrave" unicode="&#xec;" horiz-adv-x="203" 
d="M67 512h70v-512h-70v512zM60 760l77 -170h-55l-114 170h92z" />
    <glyph glyph-name="iacute" unicode="&#xed;" horiz-adv-x="203" 
d="M67 512h70v-512h-70v512zM123 590h-55l77 170h92z" />
    <glyph glyph-name="icircumflex" unicode="&#xee;" horiz-adv-x="203" 
d="M67 512h70v-512h-70v512zM163 592l-61 114l-61 -114h-82l112 168h62l112 -168h-82z" />
    <glyph glyph-name="idieresis" unicode="&#xef;" horiz-adv-x="203" 
d="M67 512h70v-512h-70v512zM-21.5 635q-14.5 15 -14.5 36q0 22 14.5 37t36.5 15q21 0 36 -15t15 -37q0 -21 -15 -36t-36 -15q-22 0 -36.5 15zM154 635q-15 15 -15 36q0 22 15 37t37 15q21 0 35.5 -15t14.5 -37q0 -21 -14.5 -36t-35.5 -15q-22 0 -37 15z" />
    <glyph glyph-name="eth" unicode="&#xf0;" horiz-adv-x="608" 
d="M537.5 503q21.5 -79 21.5 -168q0 -111 -32.5 -188.5t-92.5 -117t-140 -39.5q-67 0 -124.5 33t-91.5 91t-34 129q0 73 31 130.5t86.5 89.5t128.5 32q63 0 117.5 -28.5t86.5 -80.5q-3 65 -23.5 124t-57.5 104l-111 -53l-25 48l95 45q-56 45 -134 64l15 52q108 -22 178 -87
l96 45l25 -48l-82 -39q46 -59 67.5 -138zM387.5 78q42.5 26 68 70.5t25.5 97.5q0 56 -25 98.5t-67 65.5t-93 23q-52 0 -93.5 -23.5t-65 -66.5t-23.5 -100q0 -56 25 -99.5t67 -67.5t89 -24q50 0 92.5 26z" />
    <glyph glyph-name="ntilde" unicode="&#xf1;" horiz-adv-x="566" 
d="M454 468q50 -53 50 -145v-323h-70v307q0 155 -139 155q-53 0 -89 -27.5t-53 -71.5t-17 -92v-271h-70v512h63l6 -101q26 54 72.5 82t105.5 28q91 0 141 -53zM314 645.5q-20 9.5 -40 24.5q-17 12 -29 18t-23 6q-15 0 -30 -10.5t-26 -30.5l-50 22q35 72 108 72q24 0 44 -9
t44 -25q16 -12 28 -18t24 -6q16 0 31 10.5t26 31.5l50 -18q-42 -77 -113 -77q-24 0 -44 9.5z" />
    <glyph glyph-name="ograve" unicode="&#xf2;" horiz-adv-x="595" 
d="M168 23.5q-58 33.5 -91 94t-33 137.5q0 78 33 138.5t91 94t130 33.5t129.5 -33.5t90.5 -94t33 -138.5q0 -77 -33 -137t-90.5 -94t-129.5 -34t-130 33.5zM391 77q42 25 66 71t24 107q0 62 -24 108t-66 71t-93 25q-52 0 -94 -25t-66 -71t-24 -108q0 -61 24 -107t66 -71
t94 -25q51 0 93 25zM254 760l77 -170h-55l-114 170h92z" />
    <glyph glyph-name="oacute" unicode="&#xf3;" horiz-adv-x="595" 
d="M168 23.5q-58 33.5 -91 94t-33 137.5q0 78 33 138.5t91 94t130 33.5t129.5 -33.5t90.5 -94t33 -138.5q0 -77 -33 -137t-90.5 -94t-129.5 -34t-130 33.5zM391 77q42 25 66 71t24 107q0 62 -24 108t-66 71t-93 25q-52 0 -94 -25t-66 -71t-24 -108q0 -61 24 -107t66 -71
t94 -25q51 0 93 25zM317 590h-55l77 170h92z" />
    <glyph glyph-name="ocircumflex" unicode="&#xf4;" horiz-adv-x="595" 
d="M168 23.5q-58 33.5 -91 94t-33 137.5q0 78 33 138.5t91 94t130 33.5t129.5 -33.5t90.5 -94t33 -138.5q0 -77 -33 -137t-90.5 -94t-129.5 -34t-130 33.5zM391 77q42 25 66 71t24 107q0 62 -24 108t-66 71t-93 25q-52 0 -94 -25t-66 -71t-24 -108q0 -61 24 -107t66 -71
t94 -25q51 0 93 25zM389 592l-93 118l-93 -118h-83l145 168h62l144 -168h-82z" />
    <glyph glyph-name="otilde" unicode="&#xf5;" horiz-adv-x="595" 
d="M168 23.5q-58 33.5 -91 94t-33 137.5q0 78 33 138.5t91 94t130 33.5t129.5 -33.5t90.5 -94t33 -138.5q0 -77 -33 -137t-90.5 -94t-129.5 -34t-130 33.5zM391 77q42 25 66 71t24 107q0 62 -24 108t-66 71t-93 25q-52 0 -94 -25t-66 -71t-24 -108q0 -61 24 -107t66 -71
t94 -25q51 0 93 25zM316 645.5q-20 9.5 -40 24.5q-17 12 -29 18t-23 6q-15 0 -30 -10.5t-26 -30.5l-50 22q35 72 108 72q24 0 44 -9t44 -25q16 -12 28 -18t24 -6q16 0 31 10.5t26 31.5l50 -18q-42 -77 -113 -77q-24 0 -44 9.5z" />
    <glyph glyph-name="odieresis" unicode="&#xf6;" horiz-adv-x="595" 
d="M168 23.5q-58 33.5 -91 94t-33 137.5q0 78 33 138.5t91 94t130 33.5t129.5 -33.5t90.5 -94t33 -138.5q0 -77 -33 -137t-90.5 -94t-129.5 -34t-130 33.5zM391 77q42 25 66 71t24 107q0 62 -24 108t-66 71t-93 25q-52 0 -94 -25t-66 -71t-24 -108q0 -61 24 -107t66 -71
t94 -25q51 0 93 25zM172.5 635q-14.5 15 -14.5 36q0 22 14.5 37t36.5 15q21 0 36 -15t15 -37q0 -21 -15 -36t-36 -15q-22 0 -36.5 15zM348 635q-15 15 -15 36q0 22 15 37t37 15q21 0 35.5 -15t14.5 -37q0 -21 -14.5 -36t-35.5 -15q-22 0 -37 15z" />
    <glyph glyph-name="divide" unicode="&#xf7;" horiz-adv-x="544" 
d="M233 383q-16 16 -16 39t16 39t39 16t39 -16t16 -39q0 -22 -16 -38.5t-39 -16.5t-39 16zM80 295h384v-60h-384v60zM233 64q-16 16 -16 39t16 38.5t39 15.5t39 -16t16 -38q0 -23 -16 -39t-39 -16t-39 16z" />
    <glyph glyph-name="oslash" unicode="&#xf8;" horiz-adv-x="595" 
d="M529.5 369.5q21.5 -51.5 21.5 -114.5q0 -77 -33 -137t-90.5 -94t-129.5 -34q-71 0 -127 32l-26 -38h-66l48 70q-40 36 -61.5 87.5t-21.5 113.5q0 78 33 138.5t91 94t130 33.5q71 0 127 -32l26 38h66l-48 -70q39 -36 60.5 -87.5zM125.5 171.5q13.5 -37.5 37.5 -64.5
l227 331q-40 24 -92 24q-53 0 -95 -25.5t-66.5 -72t-24.5 -109.5q0 -46 13.5 -83.5zM392 74q42 25 66.5 72t24.5 109q0 46 -13.5 83.5t-37.5 64.5l-226 -330q41 -24 92 -24q52 0 94 25z" />
    <glyph glyph-name="ugrave" unicode="&#xf9;" horiz-adv-x="554" 
d="M488 512v-512h-63l-5 98q-25 -53 -69.5 -80.5t-102.5 -27.5q-88 0 -137.5 47.5t-49.5 139.5v335h70v-318q0 -76 34.5 -109t100.5 -33q52 0 86 27.5t50 70.5t16 91v271h70zM233 760l77 -170h-55l-114 170h92z" />
    <glyph glyph-name="uacute" unicode="&#xfa;" horiz-adv-x="554" 
d="M488 512v-512h-63l-5 98q-25 -53 -69.5 -80.5t-102.5 -27.5q-88 0 -137.5 47.5t-49.5 139.5v335h70v-318q0 -76 34.5 -109t100.5 -33q52 0 86 27.5t50 70.5t16 91v271h70zM296 590h-55l77 170h92z" />
    <glyph glyph-name="ucircumflex" unicode="&#xfb;" horiz-adv-x="554" 
d="M488 512v-512h-63l-5 98q-25 -53 -69.5 -80.5t-102.5 -27.5q-88 0 -137.5 47.5t-49.5 139.5v335h70v-318q0 -76 34.5 -109t100.5 -33q52 0 86 27.5t50 70.5t16 91v271h70zM368 592l-93 118l-93 -118h-83l145 168h62l144 -168h-82z" />
    <glyph glyph-name="udieresis" unicode="&#xfc;" horiz-adv-x="554" 
d="M488 512v-512h-63l-5 98q-25 -53 -69.5 -80.5t-102.5 -27.5q-88 0 -137.5 47.5t-49.5 139.5v335h70v-318q0 -76 34.5 -109t100.5 -33q52 0 86 27.5t50 70.5t16 91v271h70zM151.5 635q-14.5 15 -14.5 36q0 22 14.5 37t36.5 15q21 0 36 -15t15 -37q0 -21 -15 -36t-36 -15
q-22 0 -36.5 15zM327 635q-15 15 -15 36q0 22 15 37t37 15q21 0 35.5 -15t14.5 -37q0 -21 -14.5 -36t-35.5 -15q-22 0 -37 15z" />
    <glyph glyph-name="yacute" unicode="&#xfd;" horiz-adv-x="554" 
d="M488 512v-465q0 -120 -57 -185.5t-162 -65.5q-75 0 -125 32t-69 84l66 14q12 -34 44.5 -53t81.5 -19q78 0 114.5 48t36.5 144v52q-25 -51 -69.5 -77.5t-100.5 -26.5q-88 0 -137.5 47t-49.5 140v331h70v-315q0 -75 34.5 -108t100.5 -33q52 0 86 27.5t50 70.5t16 91v267h70
zM300 590h-55l77 170h92z" />
    <glyph glyph-name="thorn" unicode="&#xfe;" horiz-adv-x="615" 
d="M448.5 487.5q56.5 -33.5 89.5 -94.5t33 -138q0 -76 -32.5 -136.5t-89 -94.5t-125.5 -34q-61 0 -110 28t-78 77v-289h-70v954h70v-347q28 51 77.5 79.5t110.5 28.5q68 0 124.5 -33.5zM411 77.5q42 25.5 66 71.5t24 106q0 59 -23 105t-65 72.5t-96 26.5q-53 0 -95.5 -26
t-66 -72.5t-23.5 -104.5t23.5 -104.5t65.5 -73t95 -26.5t95 25.5z" />
    <glyph glyph-name="ydieresis" unicode="&#xff;" horiz-adv-x="554" 
d="M488 512v-465q0 -120 -57 -185.5t-162 -65.5q-75 0 -125 32t-69 84l66 14q12 -34 44.5 -53t81.5 -19q78 0 114.5 48t36.5 144v52q-25 -51 -69.5 -77.5t-100.5 -26.5q-88 0 -137.5 47t-49.5 140v331h70v-315q0 -75 34.5 -108t100.5 -33q52 0 86 27.5t50 70.5t16 91v267h70
zM155.5 635q-14.5 15 -14.5 36q0 22 14.5 37t36.5 15q21 0 36 -15t15 -37q0 -21 -15 -36t-36 -15q-22 0 -36.5 15zM331 635q-15 15 -15 36q0 22 15 37t37 15q21 0 35.5 -15t14.5 -37q0 -21 -14.5 -36t-35.5 -15q-22 0 -37 15z" />
    <glyph glyph-name="Amacron" unicode="&#x100;" horiz-adv-x="595" 
d="M471 142h-348l-45 -142h-73l252 760h80l253 -760h-74zM451 205l-154 485l-154 -485h308zM160 959h274v-55h-274v55z" />
    <glyph glyph-name="amacron" unicode="&#x101;" horiz-adv-x="615" 
d="M549 512v-512h-63l-4 102q-29 -53 -80.5 -82.5t-113.5 -29.5q-69 0 -124.5 34.5t-87.5 95.5t-32 135q0 76 32.5 136.5t89 95t124.5 34.5q61 0 111 -29t79 -80v100h69zM394 78.5q42 26.5 65.5 73t23.5 104.5t-23.5 104t-65.5 72.5t-94 26.5q-55 0 -97.5 -26t-65.5 -72.5
t-23 -105.5q0 -58 23 -104.5t65.5 -72.5t97.5 -26q52 0 94 26.5zM158 711h274v-55h-274v55z" />
    <glyph glyph-name="Abreve" unicode="&#x102;" horiz-adv-x="595" 
d="M471 142h-348l-45 -142h-73l252 760h80l253 -760h-74zM451 205l-154 485l-154 -485h308zM185 884q-44 43 -54 124h54q10 -54 39 -82.5t73 -28.5t73.5 28.5t38.5 82.5h54q-10 -81 -54 -124t-112 -43t-112 43z" />
    <glyph glyph-name="abreve" unicode="&#x103;" horiz-adv-x="615" 
d="M549 512v-512h-63l-4 102q-29 -53 -80.5 -82.5t-113.5 -29.5q-69 0 -124.5 34.5t-87.5 95.5t-32 135q0 76 32.5 136.5t89 95t124.5 34.5q61 0 111 -29t79 -80v100h69zM394 78.5q42 26.5 65.5 73t23.5 104.5t-23.5 104t-65.5 72.5t-94 26.5q-55 0 -97.5 -26t-65.5 -72.5
t-23 -105.5q0 -58 23 -104.5t65.5 -72.5t97.5 -26q52 0 94 26.5zM183 636q-44 43 -54 124h54q10 -54 39 -82.5t73 -28.5t73.5 28.5t38.5 82.5h54q-10 -81 -54 -124t-112 -43t-112 43z" />
    <glyph glyph-name="Aogonek" unicode="&#x104;" horiz-adv-x="595" 
d="M471 142h-348l-45 -142h-73l252 760h80l253 -760h-74zM451 205l-154 485l-154 -485h308zM485 -28q-22 -21 -22 -55q0 -32 20.5 -49.5t59.5 -17.5q18 0 46 8l2 -48q-28 -14 -65 -14q-56 0 -89.5 27.5t-33.5 77.5q0 52 38 85t93 44l7 -26q-34 -11 -56 -32z" />
    <glyph glyph-name="aogonek" unicode="&#x105;" horiz-adv-x="615" 
d="M549 512v-512h-63l-4 102q-29 -53 -80.5 -82.5t-113.5 -29.5q-69 0 -124.5 34.5t-87.5 95.5t-32 135q0 76 32.5 136.5t89 95t124.5 34.5q61 0 111 -29t79 -80v100h69zM394 78.5q42 26.5 65.5 73t23.5 104.5t-23.5 104t-65.5 72.5t-94 26.5q-55 0 -97.5 -26t-65.5 -72.5
t-23 -105.5q0 -58 23 -104.5t65.5 -72.5t97.5 -26q52 0 94 26.5zM487 -28q-22 -21 -22 -55q0 -32 20.5 -49.5t59.5 -17.5q18 0 46 8l2 -48q-28 -14 -65 -14q-56 0 -89.5 27.5t-33.5 77.5q0 52 38 85t93 44l7 -26q-34 -11 -56 -32z" />
    <glyph glyph-name="Cacute" unicode="&#x106;" horiz-adv-x="818" 
d="M229.5 42q-85.5 52 -134 141t-48.5 197t49 197.5t134 141t190 51.5q82 0 153 -32.5t122 -90.5t76 -134l-72 -8q-33 92 -107.5 146.5t-171.5 54.5q-85 0 -153.5 -42.5t-107.5 -117t-39 -166.5t39 -166.5t107.5 -117t153.5 -42.5q97 0 172 55.5t107 148.5l73 -9
q-25 -77 -76 -135.5t-122 -91t-154 -32.5q-105 0 -190.5 52zM439 838h-55l77 170h92z" />
    <glyph glyph-name="cacute" unicode="&#x107;" horiz-adv-x="575" 
d="M165 23.5q-57 33.5 -89 94t-32 137.5q0 78 32.5 138.5t90 94t129.5 33.5q83 0 146 -44.5t90 -120.5l-71 -8q-21 53 -64.5 82t-100.5 29q-52 0 -93.5 -24.5t-65 -71t-23.5 -108.5q0 -61 24 -107t65 -71t93 -25q59 0 105 32.5t65 90.5l68 -8q-23 -81 -87.5 -129t-150.5 -48
q-74 0 -131 33.5zM311 590h-55l77 170h92z" />
    <glyph glyph-name="Ccircumflex" unicode="&#x108;" horiz-adv-x="818" 
d="M229.5 42q-85.5 52 -134 141t-48.5 197t49 197.5t134 141t190 51.5q82 0 153 -32.5t122 -90.5t76 -134l-72 -8q-33 92 -107.5 146.5t-171.5 54.5q-85 0 -153.5 -42.5t-107.5 -117t-39 -166.5t39 -166.5t107.5 -117t153.5 -42.5q97 0 172 55.5t107 148.5l73 -9
q-25 -77 -76 -135.5t-122 -91t-154 -32.5q-105 0 -190.5 52zM511 840l-93 118l-93 -118h-83l145 168h62l144 -168h-82z" />
    <glyph glyph-name="ccircumflex" unicode="&#x109;" horiz-adv-x="575" 
d="M165 23.5q-57 33.5 -89 94t-32 137.5q0 78 32.5 138.5t90 94t129.5 33.5q83 0 146 -44.5t90 -120.5l-71 -8q-21 53 -64.5 82t-100.5 29q-52 0 -93.5 -24.5t-65 -71t-23.5 -108.5q0 -61 24 -107t65 -71t93 -25q59 0 105 32.5t65 90.5l68 -8q-23 -81 -87.5 -129t-150.5 -48
q-74 0 -131 33.5zM383 592l-93 118l-93 -118h-83l145 168h62l144 -168h-82z" />
    <glyph glyph-name="Cdotaccent" unicode="&#x10a;" horiz-adv-x="818" 
d="M229.5 42q-85.5 52 -134 141t-48.5 197t49 197.5t134 141t190 51.5q82 0 153 -32.5t122 -90.5t76 -134l-72 -8q-33 92 -107.5 146.5t-171.5 54.5q-85 0 -153.5 -42.5t-107.5 -117t-39 -166.5t39 -166.5t107.5 -117t153.5 -42.5q97 0 172 55.5t107 148.5l73 -9
q-25 -77 -76 -135.5t-122 -91t-154 -32.5q-105 0 -190.5 52zM377.5 878q-16.5 17 -16.5 40q0 24 16.5 40.5t40.5 16.5q23 0 39.5 -16.5t16.5 -40.5q0 -23 -16.5 -40t-39.5 -17q-24 0 -40.5 17z" />
    <glyph glyph-name="cdotaccent" unicode="&#x10b;" horiz-adv-x="575" 
d="M165 23.5q-57 33.5 -89 94t-32 137.5q0 78 32.5 138.5t90 94t129.5 33.5q83 0 146 -44.5t90 -120.5l-71 -8q-21 53 -64.5 82t-100.5 29q-52 0 -93.5 -24.5t-65 -71t-23.5 -108.5q0 -61 24 -107t65 -71t93 -25q59 0 105 32.5t65 90.5l68 -8q-23 -81 -87.5 -129t-150.5 -48
q-74 0 -131 33.5zM249.5 630q-16.5 17 -16.5 40q0 24 16.5 40.5t40.5 16.5q23 0 39.5 -16.5t16.5 -40.5q0 -23 -16.5 -40t-39.5 -17q-24 0 -40.5 17z" />
    <glyph glyph-name="Ccaron" unicode="&#x10c;" horiz-adv-x="818" 
d="M229.5 42q-85.5 52 -134 141t-48.5 197t49 197.5t134 141t190 51.5q82 0 153 -32.5t122 -90.5t76 -134l-72 -8q-33 92 -107.5 146.5t-171.5 54.5q-85 0 -153.5 -42.5t-107.5 -117t-39 -166.5t39 -166.5t107.5 -117t153.5 -42.5q97 0 172 55.5t107 148.5l73 -9
q-25 -77 -76 -135.5t-122 -91t-154 -32.5q-105 0 -190.5 52zM595 1008l-144 -168h-62l-145 168h83l93 -118l93 118h82z" />
    <glyph glyph-name="ccaron" unicode="&#x10d;" horiz-adv-x="575" 
d="M165 23.5q-57 33.5 -89 94t-32 137.5q0 78 32.5 138.5t90 94t129.5 33.5q83 0 146 -44.5t90 -120.5l-71 -8q-21 53 -64.5 82t-100.5 29q-52 0 -93.5 -24.5t-65 -71t-23.5 -108.5q0 -61 24 -107t65 -71t93 -25q59 0 105 32.5t65 90.5l68 -8q-23 -81 -87.5 -129t-150.5 -48
q-74 0 -131 33.5zM467 760l-144 -168h-62l-145 168h83l93 -118l93 118h82z" />
    <glyph glyph-name="Dcaron" unicode="&#x10e;" horiz-adv-x="752" 
d="M524.5 710q86.5 -50 133 -136.5t46.5 -193.5t-46 -193.5t-133 -136.5t-203 -50h-250v760h250q116 0 202.5 -50zM484 104.5q72 41.5 110 114t38 161.5t-38 161.5t-110 114t-169 41.5h-172v-634h172q97 0 169 41.5zM514 1008l-144 -168h-62l-145 168h83l93 -118l93 118h82z
" />
    <glyph glyph-name="dcaron" unicode="&#x10f;" horiz-adv-x="765" 
d="M479 760h70v-760h-62l-6 100q-28 -51 -78 -80.5t-113 -29.5q-69 0 -125.5 34.5t-88.5 95t-32 135.5q0 76 33 136.5t89.5 95t124.5 34.5q61 0 110.5 -28t77.5 -76v343zM745 760l-47 -170h-55l11 170h91zM394.5 78.5q41.5 26.5 65 73t23.5 104.5t-23.5 104.5t-65 72.5
t-95.5 26q-55 0 -97 -26.5t-65 -72.5t-23 -105t23.5 -105.5t66 -72t95.5 -25.5q54 0 95.5 26.5z" />
    <glyph glyph-name="Dcroat" unicode="&#x110;" horiz-adv-x="789" 
d="M561.5 710q86.5 -50 133 -136.5t46.5 -193.5t-46 -193.5t-133 -136.5t-203 -50h-250v366h-97v62h97v332h250q116 0 202.5 -50zM521 104.5q72 41.5 110 114t38 161.5t-38 161.5t-110 114t-169 41.5h-172v-269h259v-62h-259v-303h172q97 0 169 41.5z" />
    <glyph glyph-name="dcroat" unicode="&#x111;" horiz-adv-x="658" 
d="M658 617h-109v-617h-62l-6 100q-28 -51 -78 -80.5t-113 -29.5q-69 0 -125.5 34.5t-88.5 95t-32 135.5q0 76 33 136.5t89.5 95t124.5 34.5q61 0 110.5 -28t77.5 -76v200h-240v57h240v86h70v-86h109v-57zM394.5 78.5q41.5 26.5 65 73t23.5 104.5t-23.5 104.5t-65 72.5
t-95.5 26q-55 0 -97 -26.5t-65 -72.5t-23 -105t23.5 -105.5t66 -72t95.5 -25.5q54 0 95.5 26.5z" />
    <glyph glyph-name="Emacron" unicode="&#x112;" horiz-adv-x="544" 
d="M488 63v-63h-416v760h411v-63h-340v-269h336v-62h-336v-303h345zM138 959h274v-55h-274v55z" />
    <glyph glyph-name="emacron" unicode="&#x113;" horiz-adv-x="579" 
d="M535 229h-420q7 -82 58 -129.5t125 -47.5q57 0 98 28t64 77l69 -9q-30 -74 -89.5 -116t-142.5 -42q-74 0 -131.5 33.5t-89.5 94.5t-32 141q0 77 30.5 136.5t86.5 92.5t131 33t130 -34t84 -94t29 -135v-29zM169 414q-47 -45 -54 -125h349q-8 82 -54 126t-119 44
q-75 0 -122 -45zM151 711h274v-55h-274v55z" />
    <glyph glyph-name="Ebreve" unicode="&#x114;" horiz-adv-x="544" 
d="M488 63v-63h-416v760h411v-63h-340v-269h336v-62h-336v-303h345zM163 884q-44 43 -54 124h54q10 -54 39 -82.5t73 -28.5t73.5 28.5t38.5 82.5h54q-10 -81 -54 -124t-112 -43t-112 43z" />
    <glyph glyph-name="ebreve" unicode="&#x115;" horiz-adv-x="579" 
d="M535 229h-420q7 -82 58 -129.5t125 -47.5q57 0 98 28t64 77l69 -9q-30 -74 -89.5 -116t-142.5 -42q-74 0 -131.5 33.5t-89.5 94.5t-32 141q0 77 30.5 136.5t86.5 92.5t131 33t130 -34t84 -94t29 -135v-29zM169 414q-47 -45 -54 -125h349q-8 82 -54 126t-119 44
q-75 0 -122 -45zM176 636q-44 43 -54 124h54q10 -54 39 -82.5t73 -28.5t73.5 28.5t38.5 82.5h54q-10 -81 -54 -124t-112 -43t-112 43z" />
    <glyph glyph-name="Edotaccent" unicode="&#x116;" horiz-adv-x="544" 
d="M488 63v-63h-416v760h411v-63h-340v-269h336v-62h-336v-303h345zM234.5 878q-16.5 17 -16.5 40q0 24 16.5 40.5t40.5 16.5q23 0 39.5 -16.5t16.5 -40.5q0 -23 -16.5 -40t-39.5 -17q-24 0 -40.5 17z" />
    <glyph glyph-name="edotaccent" unicode="&#x117;" horiz-adv-x="579" 
d="M535 229h-420q7 -82 58 -129.5t125 -47.5q57 0 98 28t64 77l69 -9q-30 -74 -89.5 -116t-142.5 -42q-74 0 -131.5 33.5t-89.5 94.5t-32 141q0 77 30.5 136.5t86.5 92.5t131 33t130 -34t84 -94t29 -135v-29zM169 414q-47 -45 -54 -125h349q-8 82 -54 126t-119 44
q-75 0 -122 -45zM247.5 630q-16.5 17 -16.5 40q0 24 16.5 40.5t40.5 16.5q23 0 39.5 -16.5t16.5 -40.5q0 -23 -16.5 -40t-39.5 -17q-24 0 -40.5 17z" />
    <glyph glyph-name="Eogonek" unicode="&#x118;" horiz-adv-x="544" 
d="M488 63v-63h-416v760h411v-63h-340v-269h336v-62h-336v-303h345zM384 -28q-22 -21 -22 -55q0 -32 20.5 -49.5t59.5 -17.5q18 0 46 8l2 -48q-28 -14 -65 -14q-56 0 -89.5 27.5t-33.5 77.5q0 52 38 85t93 44l7 -26q-34 -11 -56 -32z" />
    <glyph glyph-name="eogonek" unicode="&#x119;" horiz-adv-x="579" 
d="M535 229h-420q7 -82 58 -129.5t125 -47.5q57 0 98 28t64 77l69 -9q-30 -74 -89.5 -116t-142.5 -42q-74 0 -131.5 33.5t-89.5 94.5t-32 141q0 77 30.5 136.5t86.5 92.5t131 33t130 -34t84 -94t29 -135v-29zM169 414q-47 -45 -54 -125h349q-8 82 -54 126t-119 44
q-75 0 -122 -45zM325 -28q-22 -21 -22 -55q0 -32 20.5 -49.5t59.5 -17.5q18 0 46 8l2 -48q-28 -14 -65 -14q-56 0 -89.5 27.5t-33.5 77.5q0 52 38 85t93 44l7 -26q-34 -11 -56 -32z" />
    <glyph glyph-name="Ecaron" unicode="&#x11a;" horiz-adv-x="544" 
d="M488 63v-63h-416v760h411v-63h-340v-269h336v-62h-336v-303h345zM452 1008l-144 -168h-62l-145 168h83l93 -118l93 118h82z" />
    <glyph glyph-name="ecaron" unicode="&#x11b;" horiz-adv-x="579" 
d="M535 229h-420q7 -82 58 -129.5t125 -47.5q57 0 98 28t64 77l69 -9q-30 -74 -89.5 -116t-142.5 -42q-74 0 -131.5 33.5t-89.5 94.5t-32 141q0 77 30.5 136.5t86.5 92.5t131 33t130 -34t84 -94t29 -135v-29zM169 414q-47 -45 -54 -125h349q-8 82 -54 126t-119 44
q-75 0 -122 -45zM465 760l-144 -168h-62l-145 168h83l93 -118l93 118h82z" />
    <glyph glyph-name="Gcircumflex" unicode="&#x11c;" horiz-adv-x="803" 
d="M376 397h355v-311q-59 -44 -130.5 -70t-163.5 -26q-122 0 -210 51t-134 139t-46 197q0 110 45.5 199.5t129 141.5t191.5 52q120 0 203.5 -58.5t124.5 -152.5l-72 -8q-29 64 -95.5 109.5t-160.5 45.5q-87 0 -153.5 -42.5t-103 -117.5t-36.5 -169q0 -93 36.5 -166t108 -115
t172.5 -42q71 0 124 17t100 46v217h-285v63zM504 840l-93 118l-93 -118h-83l145 168h62l144 -168h-82z" />
    <glyph glyph-name="gcircumflex" unicode="&#x11d;" horiz-adv-x="615" 
d="M549 512v-457q0 -122 -65 -190.5t-180 -68.5q-83 0 -138 33t-75 84l67 14q40 -73 144 -73q86 0 131.5 51t45.5 150v40q-29 -49 -78 -77t-110 -28q-68 0 -124.5 34.5t-89.5 95t-33 136.5q0 77 33.5 137.5t90 94t123.5 33.5q62 0 112.5 -29.5t77.5 -81.5l5 102h63z
M393.5 78.5q42.5 26.5 66 73t23.5 104.5t-23.5 104.5t-66 72.5t-95.5 26q-54 0 -96 -26t-65 -72.5t-23 -105.5t23.5 -105.5t65.5 -72t95 -25.5t95.5 26.5zM386 592l-93 118l-93 -118h-83l145 168h62l144 -168h-82z" />
    <glyph glyph-name="Gbreve" unicode="&#x11e;" horiz-adv-x="803" 
d="M376 397h355v-311q-59 -44 -130.5 -70t-163.5 -26q-122 0 -210 51t-134 139t-46 197q0 110 45.5 199.5t129 141.5t191.5 52q120 0 203.5 -58.5t124.5 -152.5l-72 -8q-29 64 -95.5 109.5t-160.5 45.5q-87 0 -153.5 -42.5t-103 -117.5t-36.5 -169q0 -93 36.5 -166t108 -115
t172.5 -42q71 0 124 17t100 46v217h-285v63zM299 884q-44 43 -54 124h54q10 -54 39 -82.5t73 -28.5t73.5 28.5t38.5 82.5h54q-10 -81 -54 -124t-112 -43t-112 43z" />
    <glyph glyph-name="gbreve" unicode="&#x11f;" horiz-adv-x="615" 
d="M549 512v-457q0 -122 -65 -190.5t-180 -68.5q-83 0 -138 33t-75 84l67 14q40 -73 144 -73q86 0 131.5 51t45.5 150v40q-29 -49 -78 -77t-110 -28q-68 0 -124.5 34.5t-89.5 95t-33 136.5q0 77 33.5 137.5t90 94t123.5 33.5q62 0 112.5 -29.5t77.5 -81.5l5 102h63z
M393.5 78.5q42.5 26.5 66 73t23.5 104.5t-23.5 104.5t-66 72.5t-95.5 26q-54 0 -96 -26t-65 -72.5t-23 -105.5t23.5 -105.5t65.5 -72t95 -25.5t95.5 26.5zM181 636q-44 43 -54 124h54q10 -54 39 -82.5t73 -28.5t73.5 28.5t38.5 82.5h54q-10 -81 -54 -124t-112 -43t-112 43z
" />
    <glyph glyph-name="Gdotaccent" unicode="&#x120;" horiz-adv-x="803" 
d="M376 397h355v-311q-59 -44 -130.5 -70t-163.5 -26q-122 0 -210 51t-134 139t-46 197q0 110 45.5 199.5t129 141.5t191.5 52q120 0 203.5 -58.5t124.5 -152.5l-72 -8q-29 64 -95.5 109.5t-160.5 45.5q-87 0 -153.5 -42.5t-103 -117.5t-36.5 -169q0 -93 36.5 -166t108 -115
t172.5 -42q71 0 124 17t100 46v217h-285v63zM370.5 878q-16.5 17 -16.5 40q0 24 16.5 40.5t40.5 16.5q23 0 39.5 -16.5t16.5 -40.5q0 -23 -16.5 -40t-39.5 -17q-24 0 -40.5 17z" />
    <glyph glyph-name="gdotaccent" unicode="&#x121;" horiz-adv-x="615" 
d="M549 512v-457q0 -122 -65 -190.5t-180 -68.5q-83 0 -138 33t-75 84l67 14q40 -73 144 -73q86 0 131.5 51t45.5 150v40q-29 -49 -78 -77t-110 -28q-68 0 -124.5 34.5t-89.5 95t-33 136.5q0 77 33.5 137.5t90 94t123.5 33.5q62 0 112.5 -29.5t77.5 -81.5l5 102h63z
M393.5 78.5q42.5 26.5 66 73t23.5 104.5t-23.5 104.5t-66 72.5t-95.5 26q-54 0 -96 -26t-65 -72.5t-23 -105.5t23.5 -105.5t65.5 -72t95 -25.5t95.5 26.5zM252.5 630q-16.5 17 -16.5 40q0 24 16.5 40.5t40.5 16.5q23 0 39.5 -16.5t16.5 -40.5q0 -23 -16.5 -40t-39.5 -17
q-24 0 -40.5 17z" />
    <glyph glyph-name="Gcommaaccent" unicode="&#x122;" horiz-adv-x="803" 
d="M376 397h355v-311q-59 -44 -130.5 -70t-163.5 -26q-122 0 -210 51t-134 139t-46 197q0 110 45.5 199.5t129 141.5t191.5 52q120 0 203.5 -58.5t124.5 -152.5l-72 -8q-29 64 -95.5 109.5t-160.5 45.5q-87 0 -153.5 -42.5t-103 -117.5t-36.5 -169q0 -93 36.5 -166t108 -115
t172.5 -42q71 0 124 17t100 46v217h-285v63zM393 -220h-55l56 150h91z" />
    <glyph glyph-name="gcommaaccent" unicode="&#x123;" horiz-adv-x="615" 
d="M549 512v-457q0 -122 -65 -190.5t-180 -68.5q-83 0 -138 33t-75 84l67 14q40 -73 144 -73q86 0 131.5 51t45.5 150v40q-29 -49 -78 -77t-110 -28q-68 0 -124.5 34.5t-89.5 95t-33 136.5q0 77 33.5 137.5t90 94t123.5 33.5q62 0 112.5 -29.5t77.5 -81.5l5 102h63z
M393.5 78.5q42.5 26.5 66 73t23.5 104.5t-23.5 104.5t-66 72.5t-95.5 26q-54 0 -96 -26t-65 -72.5t-23 -105.5t23.5 -105.5t65.5 -72t95 -25.5t95.5 26.5zM334 752h55l-56 -150h-91z" />
    <glyph glyph-name="Hcircumflex" unicode="&#x124;" horiz-adv-x="658" 
d="M586 760v-760h-71v366h-372v-366h-71v760h71v-332h372v332h71zM422 840l-93 118l-93 -118h-83l145 168h62l144 -168h-82z" />
    <glyph glyph-name="hcircumflex" unicode="&#x125;" horiz-adv-x="566" 
d="M454 468q50 -53 50 -145v-323h-70v307q0 155 -139 155q-53 0 -89 -27.5t-53 -71.5t-17 -92v-271h-70v760h70v-347q27 53 73 80.5t104 27.5q91 0 141 -53zM388 840l-93 118l-93 -118h-83l145 168h62l144 -168h-82z" />
    <glyph glyph-name="Hbar" unicode="&#x126;" horiz-adv-x="660" 
d="M650 551h-63v-551h-71v366h-372v-366h-71v551h-63v61h63v148h71v-148h372v148h71v-148h63v-61zM516 551h-372v-123h372v123z" />
    <glyph glyph-name="hbar" unicode="&#x127;" horiz-adv-x="608" 
d="M496 468q50 -53 50 -145v-323h-70v307q0 155 -139 155q-53 0 -89 -27.5t-53 -71.5t-17 -92v-271h-70v617h-108v57h108v86h70v-86h241v-57h-241v-204q27 53 73 80.5t104 27.5q91 0 141 -53z" />
    <glyph glyph-name="Itilde" unicode="&#x128;" horiz-adv-x="215" 
d="M72 760h71v-760h-71v760zM128 893.5q-20 9.5 -40 24.5q-17 12 -29 18t-23 6q-15 0 -30 -10.5t-26 -30.5l-50 22q35 72 108 72q24 0 44 -9t44 -25q16 -12 28 -18t24 -6q16 0 31 10.5t26 31.5l50 -18q-42 -77 -113 -77q-24 0 -44 9.5z" />
    <glyph glyph-name="itilde" unicode="&#x129;" horiz-adv-x="203" 
d="M67 512h70v-512h-70v512zM122 645.5q-20 9.5 -40 24.5q-17 12 -29 18t-23 6q-15 0 -30 -10.5t-26 -30.5l-50 22q35 72 108 72q24 0 44 -9t44 -25q16 -12 28 -18t24 -6q16 0 31 10.5t26 31.5l50 -18q-42 -77 -113 -77q-24 0 -44 9.5z" />
    <glyph glyph-name="Imacron" unicode="&#x12a;" horiz-adv-x="215" 
d="M72 760h71v-760h-71v760zM-29 959h274v-55h-274v55z" />
    <glyph glyph-name="imacron" unicode="&#x12b;" horiz-adv-x="203" 
d="M67 512h70v-512h-70v512zM-35 711h274v-55h-274v55z" />
    <glyph glyph-name="Ibreve" unicode="&#x12c;" horiz-adv-x="215" 
d="M72 760h71v-760h-71v760zM-4 884q-44 43 -54 124h54q10 -54 39 -82.5t73 -28.5t73.5 28.5t38.5 82.5h54q-10 -81 -54 -124t-112 -43t-112 43z" />
    <glyph glyph-name="ibreve" unicode="&#x12d;" horiz-adv-x="203" 
d="M67 512h70v-512h-70v512zM-10 636q-44 43 -54 124h54q10 -54 39 -82.5t73 -28.5t73.5 28.5t38.5 82.5h54q-10 -81 -54 -124t-112 -43t-112 43z" />
    <glyph glyph-name="Iogonek" unicode="&#x12e;" horiz-adv-x="215" 
d="M72 760h71v-760h-71v760zM65 -28q-22 -21 -22 -55q0 -32 20.5 -49.5t59.5 -17.5q18 0 46 8l2 -48q-28 -14 -65 -14q-56 0 -89.5 27.5t-33.5 77.5q0 52 38 85t93 44l7 -26q-34 -11 -56 -32z" />
    <glyph glyph-name="iogonek" unicode="&#x12f;" horiz-adv-x="203" 
d="M67 512h70v-512h-70v512zM61.5 630q-16.5 17 -16.5 40q0 24 16.5 40.5t40.5 16.5q23 0 39.5 -16.5t16.5 -40.5q0 -23 -16.5 -40t-39.5 -17q-24 0 -40.5 17zM51 -28q-22 -21 -22 -55q0 -32 20.5 -49.5t59.5 -17.5q18 0 46 8l2 -48q-28 -14 -65 -14q-56 0 -89.5 27.5
t-33.5 77.5q0 52 38 85t93 44l7 -26q-34 -11 -56 -32z" />
    <glyph glyph-name="Idotaccent" unicode="&#x130;" horiz-adv-x="215" 
d="M72 760h71v-760h-71v760zM67.5 878q-16.5 17 -16.5 40q0 24 16.5 40.5t40.5 16.5q23 0 39.5 -16.5t16.5 -40.5q0 -23 -16.5 -40t-39.5 -17q-24 0 -40.5 17z" />
    <glyph glyph-name="dotlessi" unicode="&#x131;" horiz-adv-x="203" 
d="M67 512h70v-512h-70v512z" />
    <glyph glyph-name="IJ" unicode="&#x132;" horiz-adv-x="553" 
d="M207 2q-37 12 -67 32l30 53q52 -33 111 -33t96.5 41t37.5 120v546h71v-543q0 -72 -27 -123.5t-73 -78t-103 -26.5q-39 0 -76 12zM72 760h71v-514h-71v514z" />
    <glyph glyph-name="ij" unicode="&#x133;" horiz-adv-x="421" 
d="M61 630q-17 17 -17 40q0 24 17 40.5t40 16.5t40 -16.5t17 -40.5q0 -23 -17 -40t-40 -17t-40 17zM67 512h70v-512h-70v512zM279 630q-17 17 -17 40q0 24 17 40.5t40 16.5t40 -16.5t17 -40.5q0 -23 -17 -40t-40 -17t-40 17zM165 -199.5q-25 4.5 -43 12.5l5 59
q42 -14 78 -14q44 0 61.5 23t17.5 81v550h70v-557q0 -159 -139 -159q-25 0 -50 4.5z" />
    <glyph glyph-name="Jcircumflex" unicode="&#x134;" horiz-adv-x="547" 
d="M103.5 43.5q-60.5 53.5 -67.5 151.5l70 5q5 -72 45.5 -109t105.5 -37q69 0 110.5 43t41.5 129v534h70v-531q0 -116 -61 -177.5t-161 -61.5q-93 0 -153.5 53.5zM536 840l-93 118l-93 -118h-83l145 168h62l144 -168h-82z" />
    <glyph glyph-name="jcircumflex" unicode="&#x135;" horiz-adv-x="218" 
d="M-38 -199.5q-25 4.5 -43 12.5l5 59q42 -14 78 -14q44 0 61.5 23t17.5 81v550h70v-557q0 -159 -139 -159q-25 0 -50 4.5zM177 592l-61 114l-61 -114h-82l112 168h62l112 -168h-82z" />
    <glyph glyph-name="Kcommaaccent" unicode="&#x136;" horiz-adv-x="589" 
d="M281 376l-138 -186v-190h-71v760h71v-464l341 464h80l-241 -327l251 -433h-75zM253 -220h-55l56 150h91z" />
    <glyph glyph-name="kcommaaccent" unicode="&#x137;" horiz-adv-x="483" 
d="M229 271l-93 -101v-170h-70v760h70v-499l232 251h85l-178 -192l207 -320h-76zM204 -220h-55l56 150h91z" />
    <glyph glyph-name="kgreenlandic" unicode="&#x138;" horiz-adv-x="489" 
d="M230 278l-94 -105v-173h-70v512h70v-249l174 193q26 28 56.5 42t60.5 14h18v-61h-18q-24 0 -41.5 -10.5t-39.5 -34.5l-70 -78l212 -328h-77z" />
    <glyph glyph-name="Lacute" unicode="&#x139;" horiz-adv-x="484" 
d="M462 63v-63h-390v760h71v-697h319zM140 838h-55l77 170h92z" />
    <glyph glyph-name="lacute" unicode="&#x13a;" horiz-adv-x="256" 
d="M133 3q-33 13 -50 47t-17 96v614h70v-611q0 -41 8.5 -61.5t26 -28t51.5 -7.5h7l5 -62h-14q-54 0 -87 13zM121 838h-55l77 170h92z" />
    <glyph glyph-name="Lcommaaccent" unicode="&#x13b;" horiz-adv-x="484" 
d="M462 63v-63h-390v760h71v-697h319zM221 -220h-55l56 150h91z" />
    <glyph glyph-name="lcommaaccent" unicode="&#x13c;" horiz-adv-x="256" 
d="M133 3q-33 13 -50 47t-17 96v614h70v-611q0 -41 8.5 -61.5t26 -28t51.5 -7.5h7l5 -62h-14q-54 0 -87 13zM93 -220h-55l56 150h91z" />
    <glyph glyph-name="Lcaron" unicode="&#x13d;" horiz-adv-x="484" 
d="M462 63v-63h-390v760h71v-697h319zM354 570h-48l10 190h84z" />
    <glyph glyph-name="lcaron" unicode="&#x13e;" horiz-adv-x="345" 
d="M133 3q-33 13 -50 47t-17 96v614h70v-611q0 -41 8.5 -61.5t26 -28t51.5 -7.5h7l5 -62h-14q-54 0 -87 13zM278 590h-48l11 170h84z" />
    <glyph glyph-name="Ldot" unicode="&#x13f;" horiz-adv-x="484" 
d="M462 63v-63h-390v760h71v-697h319zM307 343.5q-17 17.5 -17 41.5t17 41.5t42 17.5q24 0 41.5 -17.5t17.5 -41.5t-17.5 -41.5t-41.5 -17.5q-25 0 -42 17.5z" />
    <glyph glyph-name="ldot" unicode="&#x140;" horiz-adv-x="361" 
d="M239 343.5q-17 17.5 -17 41.5t17 41.5t42 17.5q24 0 41.5 -17.5t17.5 -41.5t-17.5 -41.5t-41.5 -17.5q-25 0 -42 17.5zM133 3q-33 13 -50 47t-17 96v614h70v-611q0 -41 8.5 -61.5t26 -28t51.5 -7.5h7l5 -62h-14q-54 0 -87 13z" />
    <glyph glyph-name="Lslash" unicode="&#x141;" horiz-adv-x="526" 
d="M504 63v-63h-390v319l-75 -36l-27 55l102 50v372h71v-337l189 92l28 -56l-217 -105v-291h319z" />
    <glyph glyph-name="lslash" unicode="&#x142;" horiz-adv-x="340" 
d="M267 52l5 -62h-14q-54 0 -87 13t-50 47t-17 96v173l-68 -33l-26 52l94 46v376h70v-342l130 63l26 -52l-156 -76v-204q0 -41 8.5 -61.5t26 -28t51.5 -7.5h7z" />
    <glyph glyph-name="Nacute" unicode="&#x143;" horiz-adv-x="658" 
d="M586 760v-760h-71l-372 642v-642h-71v760h71l372 -642v642h71zM350 838h-55l77 170h92z" />
    <glyph glyph-name="nacute" unicode="&#x144;" horiz-adv-x="566" 
d="M454 468q50 -53 50 -145v-323h-70v307q0 155 -139 155q-53 0 -89 -27.5t-53 -71.5t-17 -92v-271h-70v512h63l6 -101q26 54 72.5 82t105.5 28q91 0 141 -53zM315 590h-55l77 170h92z" />
    <glyph glyph-name="Ncommaaccent" unicode="&#x145;" horiz-adv-x="658" 
d="M586 760v-760h-71l-372 642v-642h-71v760h71l372 -642v642h71zM288 -220h-55l56 150h91z" />
    <glyph glyph-name="ncommaaccent" unicode="&#x146;" horiz-adv-x="566" 
d="M454 468q50 -53 50 -145v-323h-70v307q0 155 -139 155q-53 0 -89 -27.5t-53 -71.5t-17 -92v-271h-70v512h63l6 -101q26 54 72.5 82t105.5 28q91 0 141 -53zM236 -220h-55l56 150h91z" />
    <glyph glyph-name="Ncaron" unicode="&#x147;" horiz-adv-x="658" 
d="M586 760v-760h-71l-372 642v-642h-71v760h71l372 -642v642h71zM506 1008l-144 -168h-62l-145 168h83l93 -118l93 118h82z" />
    <glyph glyph-name="ncaron" unicode="&#x148;" horiz-adv-x="566" 
d="M454 468q50 -53 50 -145v-323h-70v307q0 155 -139 155q-53 0 -89 -27.5t-53 -71.5t-17 -92v-271h-70v512h63l6 -101q26 54 72.5 82t105.5 28q91 0 141 -53zM471 760l-144 -168h-62l-145 168h83l93 -118l93 118h82z" />
    <glyph glyph-name="napostrophe" unicode="&#x149;" horiz-adv-x="619" 
d="M169 760l-114 -170h-55l77 170h92zM507 468q50 -53 50 -145v-323h-70v307q0 155 -139 155q-53 0 -89 -27.5t-53 -71.5t-17 -92v-271h-70v512h63l6 -101q26 54 72.5 82t105.5 28q91 0 141 -53z" />
    <glyph glyph-name="Eng" unicode="&#x14a;" horiz-adv-x="658" 
d="M586 760v-729q-1 -115 -62 -175t-161 -60q-19 0 -37 3l5 63q10 -2 32 -2q63 0 103.5 35.5t47.5 106.5l-371 641v-643h-71v760h71l372 -643v643h71z" />
    <glyph glyph-name="eng" unicode="&#x14b;" horiz-adv-x="566" 
d="M454 468q50 -53 50 -145v-368q0 -159 -141 -159q-50 0 -92 16l6 58q43 -12 78 -12q44 0 61.5 23.5t17.5 80.5v345q0 155 -139 155q-53 0 -89 -27.5t-53 -71.5t-17 -92v-271h-70v512h63l6 -99q27 53 73 80.5t105 27.5q91 0 141 -53z" />
    <glyph glyph-name="Omacron" unicode="&#x14c;" horiz-adv-x="840" 
d="M229.5 42q-85.5 52 -134 141t-48.5 197t49 197.5t134 141t190 51.5t190 -51.5t134 -141t49 -197.5t-48.5 -197t-134 -141t-190.5 -52t-190.5 52zM573.5 96.5q68.5 42.5 107.5 117t39 166.5t-39 166.5t-107.5 117t-153.5 42.5t-153.5 -42.5t-107.5 -117t-39 -166.5
t39 -166.5t107.5 -117t153.5 -42.5t153.5 42.5zM283 959h274v-55h-274v55z" />
    <glyph glyph-name="omacron" unicode="&#x14d;" horiz-adv-x="595" 
d="M168 23.5q-58 33.5 -91 94t-33 137.5q0 78 33 138.5t91 94t130 33.5t129.5 -33.5t90.5 -94t33 -138.5q0 -77 -33 -137t-90.5 -94t-129.5 -34t-130 33.5zM391 77q42 25 66 71t24 107q0 62 -24 108t-66 71t-93 25q-52 0 -94 -25t-66 -71t-24 -108q0 -61 24 -107t66 -71
t94 -25q51 0 93 25zM159 711h274v-55h-274v55z" />
    <glyph glyph-name="Obreve" unicode="&#x14e;" horiz-adv-x="840" 
d="M229.5 42q-85.5 52 -134 141t-48.5 197t49 197.5t134 141t190 51.5t190 -51.5t134 -141t49 -197.5t-48.5 -197t-134 -141t-190.5 -52t-190.5 52zM573.5 96.5q68.5 42.5 107.5 117t39 166.5t-39 166.5t-107.5 117t-153.5 42.5t-153.5 -42.5t-107.5 -117t-39 -166.5
t39 -166.5t107.5 -117t153.5 -42.5t153.5 42.5zM308 884q-44 43 -54 124h54q10 -54 39 -82.5t73 -28.5t73.5 28.5t38.5 82.5h54q-10 -81 -54 -124t-112 -43t-112 43z" />
    <glyph glyph-name="obreve" unicode="&#x14f;" horiz-adv-x="595" 
d="M168 23.5q-58 33.5 -91 94t-33 137.5q0 78 33 138.5t91 94t130 33.5t129.5 -33.5t90.5 -94t33 -138.5q0 -77 -33 -137t-90.5 -94t-129.5 -34t-130 33.5zM391 77q42 25 66 71t24 107q0 62 -24 108t-66 71t-93 25q-52 0 -94 -25t-66 -71t-24 -108q0 -61 24 -107t66 -71
t94 -25q51 0 93 25zM184 636q-44 43 -54 124h54q10 -54 39 -82.5t73 -28.5t73.5 28.5t38.5 82.5h54q-10 -81 -54 -124t-112 -43t-112 43z" />
    <glyph glyph-name="Ohungarumlaut" unicode="&#x150;" horiz-adv-x="840" 
d="M229.5 42q-85.5 52 -134 141t-48.5 197t49 197.5t134 141t190 51.5t190 -51.5t134 -141t49 -197.5t-48.5 -197t-134 -141t-190.5 -52t-190.5 52zM573.5 96.5q68.5 42.5 107.5 117t39 166.5t-39 166.5t-107.5 117t-153.5 42.5t-153.5 -42.5t-107.5 -117t-39 -166.5
t39 -166.5t107.5 -117t153.5 -42.5t153.5 42.5zM342 838h-55l77 170h92zM536 838h-55l77 170h92z" />
    <glyph glyph-name="ohungarumlaut" unicode="&#x151;" horiz-adv-x="595" 
d="M168 23.5q-58 33.5 -91 94t-33 137.5q0 78 33 138.5t91 94t130 33.5t129.5 -33.5t90.5 -94t33 -138.5q0 -77 -33 -137t-90.5 -94t-129.5 -34t-130 33.5zM391 77q42 25 66 71t24 107q0 62 -24 108t-66 71t-93 25q-52 0 -94 -25t-66 -71t-24 -108q0 -61 24 -107t66 -71
t94 -25q51 0 93 25zM218 590h-55l77 170h92zM412 590h-55l77 170h92z" />
    <glyph glyph-name="OE" unicode="&#x152;" horiz-adv-x="1194" 
d="M229.5 42q-85.5 52 -134 141t-48.5 197t49 197.5t134 141t190 51.5t190 -51.5t134 -141t49 -197.5t-48.5 -197t-134 -141t-190.5 -52t-190.5 52zM573.5 96.5q68.5 42.5 107.5 117t39 166.5t-39 166.5t-107.5 117t-153.5 42.5t-153.5 -42.5t-107.5 -117t-39 -166.5
t39 -166.5t107.5 -117t153.5 -42.5t153.5 42.5zM1138 63v-63h-416v760h411v-63h-340v-269h336v-62h-336v-303h345z" />
    <glyph glyph-name="oe" unicode="&#x153;" horiz-adv-x="1017" 
d="M168 23.5q-58 33.5 -91 94t-33 137.5q0 78 33 138.5t91 94t130 33.5t129.5 -33.5t90.5 -94t33 -138.5q0 -77 -33 -137t-90.5 -94t-129.5 -34t-130 33.5zM391 77q42 25 66 71t24 107q0 62 -24 108t-66 71t-93 25q-52 0 -94 -25t-66 -71t-24 -108q0 -61 24 -107t66 -71
t94 -25q51 0 93 25zM974 229h-420q7 -82 58 -129.5t125 -47.5q57 0 98 28t64 77l69 -9q-30 -74 -89.5 -116t-142.5 -42q-74 0 -131.5 33.5t-89.5 94.5t-32 141q0 77 30.5 136.5t86.5 92.5t131 33t130 -34t84 -94t29 -135v-29zM608 414q-47 -45 -54 -125h349q-8 82 -54 126
t-119 44q-75 0 -122 -45z" />
    <glyph glyph-name="Racute" unicode="&#x154;" horiz-adv-x="621" 
d="M540 356.5q-39 -62.5 -112 -90.5l141 -266h-79l-132 249q-22 -3 -48 -3h-167v-246h-71v760h241q129 0 197.5 -68.5t68.5 -186.5q0 -86 -39 -148.5zM457.5 361.5q50.5 52.5 50.5 143.5t-50 141.5t-151 50.5h-164v-388h163q101 0 151.5 52.5zM302 838h-55l77 170h92z" />
    <glyph glyph-name="racute" unicode="&#x155;" horiz-adv-x="353" 
d="M331 519l-4 -73q-23 5 -45 5q-73 0 -109.5 -59.5t-36.5 -151.5v-240h-70v512h63l6 -108q25 57 67 87t93 30q26 0 36 -2zM203 590h-55l77 170h92z" />
    <glyph glyph-name="Rcommaaccent" unicode="&#x156;" horiz-adv-x="621" 
d="M540 356.5q-39 -62.5 -112 -90.5l141 -266h-79l-132 249q-22 -3 -48 -3h-167v-246h-71v760h241q129 0 197.5 -68.5t68.5 -186.5q0 -86 -39 -148.5zM457.5 361.5q50.5 52.5 50.5 143.5t-50 141.5t-151 50.5h-164v-388h163q101 0 151.5 52.5zM256 -220h-55l56 150h91z" />
    <glyph glyph-name="rcommaaccent" unicode="&#x157;" horiz-adv-x="353" 
d="M331 519l-4 -73q-23 5 -45 5q-73 0 -109.5 -59.5t-36.5 -151.5v-240h-70v512h63l6 -108q25 57 67 87t93 30q26 0 36 -2zM101 -220h-55l56 150h91z" />
    <glyph glyph-name="Rcaron" unicode="&#x158;" horiz-adv-x="621" 
d="M540 356.5q-39 -62.5 -112 -90.5l141 -266h-79l-132 249q-22 -3 -48 -3h-167v-246h-71v760h241q129 0 197.5 -68.5t68.5 -186.5q0 -86 -39 -148.5zM457.5 361.5q50.5 52.5 50.5 143.5t-50 141.5t-151 50.5h-164v-388h163q101 0 151.5 52.5zM458 1008l-144 -168h-62
l-145 168h83l93 -118l93 118h82z" />
    <glyph glyph-name="rcaron" unicode="&#x159;" horiz-adv-x="353" 
d="M331 519l-4 -73q-23 5 -45 5q-73 0 -109.5 -59.5t-36.5 -151.5v-240h-70v512h63l6 -108q25 57 67 87t93 30q26 0 36 -2zM359 760l-144 -168h-62l-145 168h83l93 -118l93 118h82z" />
    <glyph glyph-name="Sacute" unicode="&#x15a;" horiz-adv-x="625" 
d="M121.5 47q-66.5 57 -74.5 157l69 7q6 -85 61.5 -121t135.5 -36q88 0 138 38t50 110q0 44 -18.5 72t-50.5 45.5t-83 33.5l-85 26q-111 34 -158.5 79.5t-47.5 120.5q0 93 64.5 142t173.5 49q115 0 180 -54.5t81 -150.5l-69 -9q-10 68 -57 109t-135 41q-76 0 -120.5 -30.5
t-44.5 -93.5q0 -52 34.5 -83.5t116.5 -57.5l83 -26q65 -20 109.5 -44t72 -64.5t27.5 -103.5q0 -97 -67.5 -155t-193.5 -58q-125 0 -191.5 57zM316 838h-55l77 170h92z" />
    <glyph glyph-name="sacute" unicode="&#x15b;" horiz-adv-x="466" 
d="M37 142l68 8q7 -51 36.5 -74.5t91.5 -23.5q127 0 127 86q0 29 -14 46t-39 28t-75 26l-25 8q-60 19 -93 34.5t-52.5 41.5t-19.5 68q0 65 48 98t135 33q78 0 129.5 -37.5t59.5 -101.5l-69 -7q-6 37 -35.5 60.5t-84.5 23.5q-56 0 -85 -18t-29 -51q0 -29 24 -45.5t89 -37.5
l27 -8q65 -21 100 -37.5t56.5 -46t21.5 -77.5q0 -74 -53 -111t-142 -37q-181 0 -197 152zM244 590h-55l77 170h92z" />
    <glyph glyph-name="Scircumflex" unicode="&#x15c;" horiz-adv-x="625" 
d="M121.5 47q-66.5 57 -74.5 157l69 7q6 -85 61.5 -121t135.5 -36q88 0 138 38t50 110q0 44 -18.5 72t-50.5 45.5t-83 33.5l-85 26q-111 34 -158.5 79.5t-47.5 120.5q0 93 64.5 142t173.5 49q115 0 180 -54.5t81 -150.5l-69 -9q-10 68 -57 109t-135 41q-76 0 -120.5 -30.5
t-44.5 -93.5q0 -52 34.5 -83.5t116.5 -57.5l83 -26q65 -20 109.5 -44t72 -64.5t27.5 -103.5q0 -97 -67.5 -155t-193.5 -58q-125 0 -191.5 57zM388 840l-93 118l-93 -118h-83l145 168h62l144 -168h-82z" />
    <glyph glyph-name="scircumflex" unicode="&#x15d;" horiz-adv-x="466" 
d="M37 142l68 8q7 -51 36.5 -74.5t91.5 -23.5q127 0 127 86q0 29 -14 46t-39 28t-75 26l-25 8q-60 19 -93 34.5t-52.5 41.5t-19.5 68q0 65 48 98t135 33q78 0 129.5 -37.5t59.5 -101.5l-69 -7q-6 37 -35.5 60.5t-84.5 23.5q-56 0 -85 -18t-29 -51q0 -29 24 -45.5t89 -37.5
l27 -8q65 -21 100 -37.5t56.5 -46t21.5 -77.5q0 -74 -53 -111t-142 -37q-181 0 -197 152zM316 592l-93 118l-93 -118h-83l145 168h62l144 -168h-82z" />
    <glyph glyph-name="Scedilla" unicode="&#x15e;" horiz-adv-x="625" 
d="M121.5 47q-66.5 57 -74.5 157l69 7q6 -85 61.5 -121t135.5 -36q88 0 138 38t50 110q0 44 -18.5 72t-50.5 45.5t-83 33.5l-85 26q-111 34 -158.5 79.5t-47.5 120.5q0 93 64.5 142t173.5 49q115 0 180 -54.5t81 -150.5l-69 -9q-10 68 -57 109t-135 41q-76 0 -120.5 -30.5
t-44.5 -93.5q0 -52 34.5 -83.5t116.5 -57.5l83 -26q65 -20 109.5 -44t72 -64.5t27.5 -103.5q0 -97 -67.5 -155t-193.5 -58q-125 0 -191.5 57zM398 -61.5q25 -21.5 25 -57.5q0 -39 -28.5 -62t-73.5 -23q-21 0 -41 5t-34 14l15 37q22 -12 46 -12q23 0 36 11.5t13 31.5
q0 17 -10 26.5t-29 9.5q-21 0 -40 -13l-22 13l27 98h49l-12 -58q4 1 15 1q39 0 64 -21.5z" />
    <glyph glyph-name="scedilla" unicode="&#x15f;" horiz-adv-x="466" 
d="M37 142l68 8q7 -51 36.5 -74.5t91.5 -23.5q127 0 127 86q0 29 -14 46t-39 28t-75 26l-25 8q-60 19 -93 34.5t-52.5 41.5t-19.5 68q0 65 48 98t135 33q78 0 129.5 -37.5t59.5 -101.5l-69 -7q-6 37 -35.5 60.5t-84.5 23.5q-56 0 -85 -18t-29 -51q0 -29 24 -45.5t89 -37.5
l27 -8q65 -21 100 -37.5t56.5 -46t21.5 -77.5q0 -74 -53 -111t-142 -37q-181 0 -197 152zM316 -61.5q25 -21.5 25 -57.5q0 -39 -28.5 -62t-73.5 -23q-21 0 -41 5t-34 14l15 37q22 -12 46 -12q23 0 36 11.5t13 31.5q0 17 -10 26.5t-29 9.5q-21 0 -40 -13l-22 13l27 98h49
l-12 -58q4 1 15 1q39 0 64 -21.5z" />
    <glyph glyph-name="Scaron" unicode="&#x160;" horiz-adv-x="625" 
d="M121.5 47q-66.5 57 -74.5 157l69 7q6 -85 61.5 -121t135.5 -36q88 0 138 38t50 110q0 44 -18.5 72t-50.5 45.5t-83 33.5l-85 26q-111 34 -158.5 79.5t-47.5 120.5q0 93 64.5 142t173.5 49q115 0 180 -54.5t81 -150.5l-69 -9q-10 68 -57 109t-135 41q-76 0 -120.5 -30.5
t-44.5 -93.5q0 -52 34.5 -83.5t116.5 -57.5l83 -26q65 -20 109.5 -44t72 -64.5t27.5 -103.5q0 -97 -67.5 -155t-193.5 -58q-125 0 -191.5 57zM472 1008l-144 -168h-62l-145 168h83l93 -118l93 118h82z" />
    <glyph glyph-name="scaron" unicode="&#x161;" horiz-adv-x="466" 
d="M37 142l68 8q7 -51 36.5 -74.5t91.5 -23.5q127 0 127 86q0 29 -14 46t-39 28t-75 26l-25 8q-60 19 -93 34.5t-52.5 41.5t-19.5 68q0 65 48 98t135 33q78 0 129.5 -37.5t59.5 -101.5l-69 -7q-6 37 -35.5 60.5t-84.5 23.5q-56 0 -85 -18t-29 -51q0 -29 24 -45.5t89 -37.5
l27 -8q65 -21 100 -37.5t56.5 -46t21.5 -77.5q0 -74 -53 -111t-142 -37q-181 0 -197 152zM400 760l-144 -168h-62l-145 168h83l93 -118l93 118h82z" />
    <glyph glyph-name="uni0162" unicode="&#x162;" horiz-adv-x="586" 
d="M560 697h-232v-697h-71v697h-231v63h534v-63zM378 -61.5q25 -21.5 25 -57.5q0 -39 -28.5 -62t-73.5 -23q-21 0 -41 5t-34 14l15 37q22 -12 46 -12q23 0 36 11.5t13 31.5q0 17 -10 26.5t-29 9.5q-21 0 -40 -13l-22 13l27 98h49l-12 -58q4 1 15 1q39 0 64 -21.5z" />
    <glyph glyph-name="uni0163" unicode="&#x163;" horiz-adv-x="333" 
d="M303 1q-41 -11 -79 -11q-135 0 -135 157v304h-77l4 61h73v128h70v-128h129v-61h-129v-303q0 -54 17 -75.5t56 -21.5q36 0 66 8zM270 -63.5q25 -21.5 25 -57.5q0 -39 -28.5 -62t-73.5 -23q-21 0 -41 5t-34 14l15 37q22 -12 46 -12q23 0 36 11.5t13 31.5q0 17 -10 26.5
t-29 9.5q-21 0 -40 -13l-22 13l27 98h49l-12 -58q4 1 15 1q39 0 64 -21.5z" />
    <glyph glyph-name="Tcaron" unicode="&#x164;" horiz-adv-x="586" 
d="M560 697h-232v-697h-71v697h-231v63h534v-63zM470 1008l-144 -168h-62l-145 168h83l93 -118l93 118h82z" />
    <glyph glyph-name="tcaron" unicode="&#x165;" horiz-adv-x="389" 
d="M276 590h-56l77 170h92zM298 59l5 -58q-41 -11 -79 -11q-135 0 -135 157v304h-77l4 61h73v128h70v-128h129v-61h-129v-303q0 -54 17 -75.5t56 -21.5q36 0 66 8z" />
    <glyph glyph-name="Tbar" unicode="&#x166;" horiz-adv-x="586" 
d="M328 697v-266h180v-61h-180v-370h-71v370h-179v61h179v266h-231v63h534v-63h-232z" />
    <glyph glyph-name="tbar" unicode="&#x167;" horiz-adv-x="333" 
d="M303 1q-41 -11 -79 -11q-135 0 -135 157v105h-73v58h73v141h-77l4 61h73v128h70v-128h129v-61h-129v-141h121v-58h-121v-104q0 -54 17 -75.5t56 -21.5q36 0 66 8z" />
    <glyph glyph-name="Utilde" unicode="&#x168;" horiz-adv-x="664" 
d="M136 66q-69 76 -69 212v482h71v-491q0 -103 51.5 -159t142.5 -56q92 0 143 56t51 159v491h71v-482q0 -137 -68.5 -212.5t-196.5 -75.5q-127 0 -196 76zM350 893.5q-20 9.5 -40 24.5q-17 12 -29 18t-23 6q-15 0 -30 -10.5t-26 -30.5l-50 22q35 72 108 72q24 0 44 -9
t44 -25q16 -12 28 -18t24 -6q16 0 31 10.5t26 31.5l50 -18q-42 -77 -113 -77q-24 0 -44 9.5z" />
    <glyph glyph-name="utilde" unicode="&#x169;" horiz-adv-x="554" 
d="M488 512v-512h-63l-5 98q-25 -53 -69.5 -80.5t-102.5 -27.5q-88 0 -137.5 47.5t-49.5 139.5v335h70v-318q0 -76 34.5 -109t100.5 -33q52 0 86 27.5t50 70.5t16 91v271h70zM295 645.5q-20 9.5 -40 24.5q-17 12 -29 18t-23 6q-15 0 -30 -10.5t-26 -30.5l-50 22
q35 72 108 72q24 0 44 -9t44 -25q16 -12 28 -18t24 -6q16 0 31 10.5t26 31.5l50 -18q-42 -77 -113 -77q-24 0 -44 9.5z" />
    <glyph glyph-name="Umacron" unicode="&#x16a;" horiz-adv-x="664" 
d="M136 66q-69 76 -69 212v482h71v-491q0 -103 51.5 -159t142.5 -56q92 0 143 56t51 159v491h71v-482q0 -137 -68.5 -212.5t-196.5 -75.5q-127 0 -196 76zM193 959h274v-55h-274v55z" />
    <glyph glyph-name="umacron" unicode="&#x16b;" horiz-adv-x="554" 
d="M488 512v-512h-63l-5 98q-25 -53 -69.5 -80.5t-102.5 -27.5q-88 0 -137.5 47.5t-49.5 139.5v335h70v-318q0 -76 34.5 -109t100.5 -33q52 0 86 27.5t50 70.5t16 91v271h70zM138 711h274v-55h-274v55z" />
    <glyph glyph-name="Ubreve" unicode="&#x16c;" horiz-adv-x="664" 
d="M136 66q-69 76 -69 212v482h71v-491q0 -103 51.5 -159t142.5 -56q92 0 143 56t51 159v491h71v-482q0 -137 -68.5 -212.5t-196.5 -75.5q-127 0 -196 76zM218 884q-44 43 -54 124h54q10 -54 39 -82.5t73 -28.5t73.5 28.5t38.5 82.5h54q-10 -81 -54 -124t-112 -43t-112 43z
" />
    <glyph glyph-name="ubreve" unicode="&#x16d;" horiz-adv-x="554" 
d="M488 512v-512h-63l-5 98q-25 -53 -69.5 -80.5t-102.5 -27.5q-88 0 -137.5 47.5t-49.5 139.5v335h70v-318q0 -76 34.5 -109t100.5 -33q52 0 86 27.5t50 70.5t16 91v271h70zM163 636q-44 43 -54 124h54q10 -54 39 -82.5t73 -28.5t73.5 28.5t38.5 82.5h54q-10 -81 -54 -124
t-112 -43t-112 43z" />
    <glyph glyph-name="Uring" unicode="&#x16e;" horiz-adv-x="664" 
d="M136 66q-69 76 -69 212v482h71v-491q0 -103 51.5 -159t142.5 -56q92 0 143 56t51 159v491h71v-482q0 -137 -68.5 -212.5t-196.5 -75.5q-127 0 -196 76zM253 864.5q-31 31.5 -31 76.5t31 76t77 31q45 0 76 -31.5t31 -75.5q0 -45 -31 -76.5t-76 -31.5q-46 0 -77 31.5z
M376 893.5q19 19.5 19 47.5t-19 47t-46 19q-28 0 -47 -19t-19 -47t19 -47.5t47 -19.5q27 0 46 19.5z" />
    <glyph glyph-name="uring" unicode="&#x16f;" horiz-adv-x="554" 
d="M488 512v-512h-63l-5 98q-25 -53 -69.5 -80.5t-102.5 -27.5q-88 0 -137.5 47.5t-49.5 139.5v335h70v-318q0 -76 34.5 -109t100.5 -33q52 0 86 27.5t50 70.5t16 91v271h70zM198 616.5q-31 31.5 -31 76.5t31 76t77 31q45 0 76 -31.5t31 -75.5q0 -45 -31 -76.5t-76 -31.5
q-46 0 -77 31.5zM321 645.5q19 19.5 19 47.5t-19 47t-46 19q-28 0 -47 -19t-19 -47t19 -47.5t47 -19.5q27 0 46 19.5z" />
    <glyph glyph-name="Uhungarumlaut" unicode="&#x170;" horiz-adv-x="664" 
d="M136 66q-69 76 -69 212v482h71v-491q0 -103 51.5 -159t142.5 -56q92 0 143 56t51 159v491h71v-482q0 -137 -68.5 -212.5t-196.5 -75.5q-127 0 -196 76zM252 838h-55l77 170h92zM446 838h-55l77 170h92z" />
    <glyph glyph-name="uhungarumlaut" unicode="&#x171;" horiz-adv-x="554" 
d="M488 512v-512h-63l-5 98q-25 -53 -69.5 -80.5t-102.5 -27.5q-88 0 -137.5 47.5t-49.5 139.5v335h70v-318q0 -76 34.5 -109t100.5 -33q52 0 86 27.5t50 70.5t16 91v271h70zM197 590h-55l77 170h92zM391 590h-55l77 170h92z" />
    <glyph glyph-name="Uogonek" unicode="&#x172;" horiz-adv-x="664" 
d="M136 66q-69 76 -69 212v482h71v-491q0 -103 51.5 -159t142.5 -56q92 0 143 56t51 159v491h71v-482q0 -137 -68.5 -212.5t-196.5 -75.5q-127 0 -196 76zM371 -28q-22 -21 -22 -55q0 -32 20.5 -49.5t59.5 -17.5q18 0 46 8l2 -48q-28 -14 -65 -14q-56 0 -89.5 27.5
t-33.5 77.5q0 52 38 85t93 44l7 -26q-34 -11 -56 -32z" />
    <glyph glyph-name="uogonek" unicode="&#x173;" horiz-adv-x="554" 
d="M488 512v-512h-63l-5 98q-25 -53 -69.5 -80.5t-102.5 -27.5q-88 0 -137.5 47.5t-49.5 139.5v335h70v-318q0 -76 34.5 -109t100.5 -33q52 0 86 27.5t50 70.5t16 91v271h70zM421 -28q-22 -21 -22 -55q0 -32 20.5 -49.5t59.5 -17.5q18 0 46 8l2 -48q-28 -14 -65 -14
q-56 0 -89.5 27.5t-33.5 77.5q0 52 38 85t93 44l7 -26q-34 -11 -56 -32z" />
    <glyph glyph-name="Wcircumflex" unicode="&#x174;" horiz-adv-x="949" 
d="M934 760l-204 -760h-78l-178 647l-177 -647h-76l-206 760h74l171 -677l183 677h61l186 -677l171 677h73zM568 840l-93 118l-93 -118h-83l145 168h62l144 -168h-82z" />
    <glyph glyph-name="wcircumflex" unicode="&#x175;" horiz-adv-x="775" 
d="M764 512l-164 -512h-78l-135 422l-135 -422h-78l-163 512h72l132 -438l139 438h66l138 -437l134 437h72zM480 592l-93 118l-93 -118h-83l145 168h62l144 -168h-82z" />
    <glyph glyph-name="Ycircumflex" unicode="&#x176;" horiz-adv-x="553" 
d="M551 760l-388 -760h-73l164 322l-243 438h76l202 -371l189 371h73zM378 840l-93 118l-93 -118h-83l145 168h62l144 -168h-82z" />
    <glyph glyph-name="ycircumflex" unicode="&#x177;" horiz-adv-x="554" 
d="M488 512v-465q0 -120 -57 -185.5t-162 -65.5q-75 0 -125 32t-69 84l66 14q12 -34 44.5 -53t81.5 -19q78 0 114.5 48t36.5 144v52q-25 -51 -69.5 -77.5t-100.5 -26.5q-88 0 -137.5 47t-49.5 140v331h70v-315q0 -75 34.5 -108t100.5 -33q52 0 86 27.5t50 70.5t16 91v267h70
zM372 592l-93 118l-93 -118h-83l145 168h62l144 -168h-82z" />
    <glyph glyph-name="Ydieresis" unicode="&#x178;" horiz-adv-x="553" 
d="M551 760l-388 -760h-73l164 322l-243 438h76l202 -371l189 371h73zM161.5 883q-14.5 15 -14.5 36q0 22 14.5 37t36.5 15q21 0 36 -15t15 -37q0 -21 -15 -36t-36 -15q-22 0 -36.5 15zM337 883q-15 15 -15 36q0 22 15 37t37 15q21 0 35.5 -15t14.5 -37q0 -21 -14.5 -36
t-35.5 -15q-22 0 -37 15z" />
    <glyph glyph-name="Zacute" unicode="&#x179;" horiz-adv-x="583" 
d="M143 61h399v-61h-510l406 699h-378v61h488zM329 838h-55l77 170h92z" />
    <glyph glyph-name="zacute" unicode="&#x17a;" horiz-adv-x="469" 
d="M145 60h286v-60h-404l293 451h-269l4 61h384zM265 590h-55l77 170h92z" />
    <glyph glyph-name="Zdotaccent" unicode="&#x17b;" horiz-adv-x="583" 
d="M143 61h399v-61h-510l406 699h-378v61h488zM267.5 878q-16.5 17 -16.5 40q0 24 16.5 40.5t40.5 16.5q23 0 39.5 -16.5t16.5 -40.5q0 -23 -16.5 -40t-39.5 -17q-24 0 -40.5 17z" />
    <glyph glyph-name="zdotaccent" unicode="&#x17c;" horiz-adv-x="469" 
d="M145 60h286v-60h-404l293 451h-269l4 61h384zM203.5 630q-16.5 17 -16.5 40q0 24 16.5 40.5t40.5 16.5q23 0 39.5 -16.5t16.5 -40.5q0 -23 -16.5 -40t-39.5 -17q-24 0 -40.5 17z" />
    <glyph glyph-name="Zcaron" unicode="&#x17d;" horiz-adv-x="583" 
d="M143 61h399v-61h-510l406 699h-378v61h488zM485 1008l-144 -168h-62l-145 168h83l93 -118l93 118h82z" />
    <glyph glyph-name="zcaron" unicode="&#x17e;" horiz-adv-x="469" 
d="M145 60h286v-60h-404l293 451h-269l4 61h384zM421 760l-144 -168h-62l-145 168h83l93 -118l93 118h82z" />
    <glyph glyph-name="longs" unicode="&#x17f;" horiz-adv-x="263" 
d="M284.5 764q25.5 -6 42.5 -16l-5 -58q-40 18 -79 18q-45 0 -64.5 -25t-19.5 -86v-597h-70v452h-77l7 60h70v85q0 173 143 173q27 0 52.5 -6z" />
    <glyph glyph-name="uni018F" unicode="&#x18f;" horiz-adv-x="839" 
d="M609.5 718.5q85.5 -51.5 134 -141t48.5 -197.5t-48.5 -197t-133.5 -141t-190 -52t-190.5 52t-134 142t-48.5 198v24h672q-5 86 -45.5 154t-107 107t-147.5 39q-90 0 -161.5 -48t-107.5 -130l-72 10q42 105 133 168.5t208 63.5q105 0 190.5 -51.5zM564 91.5
q65 37.5 106 103t48 148.5h-596q7 -82 47.5 -148t106 -103.5t144.5 -37.5t144 37.5z" />
    <glyph glyph-name="florin" unicode="&#x192;" horiz-adv-x="533" 
d="M369.5 672.5q-24.5 -29.5 -32.5 -94.5l-14 -134h105v-61h-112l-42 -392q-10 -95 -55.5 -140t-128.5 -45h-10l5 58q58 0 84.5 29t33.5 94l42 396h-66v61h73l14 133q10 95 53 139t123 44h11l-5 -58q-54 0 -78.5 -29.5z" />
    <glyph glyph-name="uni019D" unicode="&#x19d;" horiz-adv-x="661" 
d="M589 760v-760h-71l-372 646v-615q-1 -115 -61 -175t-160 -60q-19 0 -37 3l5 63q10 -2 32 -2q70 0 111 42.5t41 129.5v728h69l372 -643v643h71z" />
    <glyph glyph-name="uni01CD" unicode="&#x1cd;" horiz-adv-x="595" 
d="M471 142h-348l-45 -142h-73l252 760h80l253 -760h-74zM451 205l-154 485l-154 -485h308zM474 1008l-144 -168h-62l-145 168h83l93 -118l93 118h82z" />
    <glyph glyph-name="uni01CE" unicode="&#x1ce;" horiz-adv-x="615" 
d="M549 512v-512h-63l-4 102q-29 -53 -80.5 -82.5t-113.5 -29.5q-69 0 -124.5 34.5t-87.5 95.5t-32 135q0 76 32.5 136.5t89 95t124.5 34.5q61 0 111 -29t79 -80v100h69zM394 78.5q42 26.5 65.5 73t23.5 104.5t-23.5 104t-65.5 72.5t-94 26.5q-55 0 -97.5 -26t-65.5 -72.5
t-23 -105.5q0 -58 23 -104.5t65.5 -72.5t97.5 -26q52 0 94 26.5zM472 760l-144 -168h-62l-145 168h83l93 -118l93 118h82z" />
    <glyph glyph-name="Gcaron" unicode="&#x1e6;" horiz-adv-x="803" 
d="M376 397h355v-311q-59 -44 -130.5 -70t-163.5 -26q-122 0 -210 51t-134 139t-46 197q0 110 45.5 199.5t129 141.5t191.5 52q120 0 203.5 -58.5t124.5 -152.5l-72 -8q-29 64 -95.5 109.5t-160.5 45.5q-87 0 -153.5 -42.5t-103 -117.5t-36.5 -169q0 -93 36.5 -166t108 -115
t172.5 -42q71 0 124 17t100 46v217h-285v63zM588 1008l-144 -168h-62l-145 168h83l93 -118l93 118h82z" />
    <glyph glyph-name="gcaron" unicode="&#x1e7;" horiz-adv-x="615" 
d="M549 512v-457q0 -122 -65 -190.5t-180 -68.5q-83 0 -138 33t-75 84l67 14q40 -73 144 -73q86 0 131.5 51t45.5 150v40q-29 -49 -78 -77t-110 -28q-68 0 -124.5 34.5t-89.5 95t-33 136.5q0 77 33.5 137.5t90 94t123.5 33.5q62 0 112.5 -29.5t77.5 -81.5l5 102h63z
M393.5 78.5q42.5 26.5 66 73t23.5 104.5t-23.5 104.5t-66 72.5t-95.5 26q-54 0 -96 -26t-65 -72.5t-23 -105.5t23.5 -105.5t65.5 -72t95 -25.5t95.5 26.5zM470 760l-144 -168h-62l-145 168h83l93 -118l93 118h82z" />
    <glyph glyph-name="Aringacute" unicode="&#x1fa;" horiz-adv-x="595" 
d="M471 142h-348l-45 -142h-73l252 760h80l253 -760h-74zM451 205l-154 485l-154 -485h308zM220 864.5q-31 31.5 -31 76.5t31 76t77 31q45 0 76 -31.5t31 -75.5q0 -45 -31 -76.5t-76 -31.5q-46 0 -77 31.5zM343 893.5q19 19.5 19 47.5t-19 47t-46 19q-28 0 -47 -19t-19 -47
t19 -47.5t47 -19.5q27 0 46 19.5zM318 1082h-55l77 170h92z" />
    <glyph glyph-name="aringacute" unicode="&#x1fb;" horiz-adv-x="615" 
d="M549 512v-512h-63l-4 102q-29 -53 -80.5 -82.5t-113.5 -29.5q-69 0 -124.5 34.5t-87.5 95.5t-32 135q0 76 32.5 136.5t89 95t124.5 34.5q61 0 111 -29t79 -80v100h69zM394 78.5q42 26.5 65.5 73t23.5 104.5t-23.5 104t-65.5 72.5t-94 26.5q-55 0 -97.5 -26t-65.5 -72.5
t-23 -105.5q0 -58 23 -104.5t65.5 -72.5t97.5 -26q52 0 94 26.5zM218 616.5q-31 31.5 -31 76.5t31 76t77 31q45 0 76 -31.5t31 -75.5q0 -45 -31 -76.5t-76 -31.5q-46 0 -77 31.5zM341 645.5q19 19.5 19 47.5t-19 47t-46 19q-28 0 -47 -19t-19 -47t19 -47.5t47 -19.5
q27 0 46 19.5zM316 834h-55l77 170h92z" />
    <glyph glyph-name="AEacute" unicode="&#x1fc;" horiz-adv-x="905" 
d="M849 61v-61h-404v186h-277l-101 -186h-72l412 760h437v-61h-328v-271h324v-62h-324v-305h333zM445 247v450l-244 -450h244zM654 838h-55l77 170h92z" />
    <glyph glyph-name="aeacute" unicode="&#x1fd;" horiz-adv-x="937" 
d="M891 145q-30 -74 -88 -114.5t-139 -40.5q-72 0 -127 32t-85 90q-24 -57 -82 -89.5t-140 -32.5q-81 0 -134.5 38.5t-53.5 117.5q0 82 59.5 117t156.5 35h161v16q0 75 -41.5 110t-101.5 35q-99 0 -148 -82l-67 10q26 58 82 96t132 38q63 0 113.5 -24.5t76.5 -75.5
q31 48 80.5 74t111.5 26q70 0 123 -34t81 -91.5t28 -127.5v-28h-400q4 -88 53 -138t125 -50q54 0 93 26.5t61 74.5zM545 416.5q-44 -42.5 -54 -118.5h326q-7 77 -50.5 119t-110.5 42t-111 -42.5zM329 66.5q41 19.5 65.5 56.5t24.5 87v30h-155q-83 0 -118.5 -24t-35.5 -70
q0 -45 36 -72t95 -27q47 0 88 19.5zM493 590h-55l77 170h92z" />
    <glyph glyph-name="Oslashacute" unicode="&#x1fe;" horiz-adv-x="840" 
d="M759 547.5q34 -77.5 34 -167.5q0 -108 -48.5 -197t-134 -141t-190.5 -52q-106 0 -192 53l-40 -59h-73l64 94q-62 54 -97 132.5t-35 169.5q0 108 49 197.5t134 141t190 51.5q107 0 195 -55l42 61h74l-67 -97q61 -54 95 -131.5zM146 242.5q26 -63.5 72 -108.5l360 526
q-69 46 -158 46q-85 0 -153.5 -42.5t-107.5 -117t-39 -166.5q0 -74 26 -137.5zM573.5 96.5q68.5 42.5 107.5 117t39 166.5q0 72 -25 134.5t-69 107.5l-360 -525q70 -43 154 -43q85 0 153.5 42.5zM444 838h-55l77 170h92z" />
    <glyph glyph-name="oslashacute" unicode="&#x1ff;" horiz-adv-x="595" 
d="M529.5 369.5q21.5 -51.5 21.5 -114.5q0 -77 -33 -137t-90.5 -94t-129.5 -34q-71 0 -127 32l-26 -38h-66l48 70q-40 36 -61.5 87.5t-21.5 113.5q0 78 33 138.5t91 94t130 33.5q71 0 127 -32l26 38h66l-48 -70q39 -36 60.5 -87.5zM125.5 171.5q13.5 -37.5 37.5 -64.5
l227 331q-40 24 -92 24q-53 0 -95 -25.5t-66.5 -72t-24.5 -109.5q0 -46 13.5 -83.5zM392 74q42 25 66.5 72t24.5 109q0 46 -13.5 83.5t-37.5 64.5l-226 -330q41 -24 92 -24q52 0 94 25zM319 590h-55l77 170h92z" />
    <glyph glyph-name="Scommaaccent" unicode="&#x218;" horiz-adv-x="625" 
d="M121.5 47q-66.5 57 -74.5 157l69 7q6 -85 61.5 -121t135.5 -36q88 0 138 38t50 110q0 44 -18.5 72t-50.5 45.5t-83 33.5l-85 26q-111 34 -158.5 79.5t-47.5 120.5q0 93 64.5 142t173.5 49q115 0 180 -54.5t81 -150.5l-69 -9q-10 68 -57 109t-135 41q-76 0 -120.5 -30.5
t-44.5 -93.5q0 -52 34.5 -83.5t116.5 -57.5l83 -26q65 -20 109.5 -44t72 -64.5t27.5 -103.5q0 -97 -67.5 -155t-193.5 -58q-125 0 -191.5 57zM277 -220h-55l56 150h91z" />
    <glyph glyph-name="scommaaccent" unicode="&#x219;" horiz-adv-x="466" 
d="M37 142l68 8q7 -51 36.5 -74.5t91.5 -23.5q127 0 127 86q0 29 -14 46t-39 28t-75 26l-25 8q-60 19 -93 34.5t-52.5 41.5t-19.5 68q0 65 48 98t135 33q78 0 129.5 -37.5t59.5 -101.5l-69 -7q-6 37 -35.5 60.5t-84.5 23.5q-56 0 -85 -18t-29 -51q0 -29 24 -45.5t89 -37.5
l27 -8q65 -21 100 -37.5t56.5 -46t21.5 -77.5q0 -74 -53 -111t-142 -37q-181 0 -197 152zM195 -220h-55l56 150h91z" />
    <glyph glyph-name="uni021A" unicode="&#x21a;" horiz-adv-x="586" 
d="M560 697h-232v-697h-71v697h-231v63h534v-63zM257 -220h-55l56 150h91z" />
    <glyph glyph-name="uni021B" unicode="&#x21b;" horiz-adv-x="333" 
d="M303 1q-41 -11 -79 -11q-135 0 -135 157v304h-77l4 61h73v128h70v-128h129v-61h-129v-303q0 -54 17 -75.5t56 -21.5q36 0 66 8zM149 -222h-55l56 150h91z" />
    <glyph glyph-name="uni0232" unicode="&#x232;" horiz-adv-x="553" 
d="M551 760l-388 -760h-73l164 322l-243 438h76l202 -371l189 371h73zM148 959h274v-55h-274v55z" />
    <glyph glyph-name="uni0233" unicode="&#x233;" horiz-adv-x="554" 
d="M488 512v-465q0 -120 -57 -185.5t-162 -65.5q-75 0 -125 32t-69 84l66 14q12 -34 44.5 -53t81.5 -19q78 0 114.5 48t36.5 144v52q-25 -51 -69.5 -77.5t-100.5 -26.5q-88 0 -137.5 47t-49.5 140v331h70v-315q0 -75 34.5 -108t100.5 -33q52 0 86 27.5t50 70.5t16 91v267h70
zM142 711h274v-55h-274v55z" />
    <glyph glyph-name="uni0237" unicode="&#x237;" horiz-adv-x="218" 
d="M-38 -199.5q-25 4.5 -43 12.5l5 59q42 -14 78 -14q44 0 61.5 23t17.5 81v550h70v-557q0 -159 -139 -159q-25 0 -50 4.5z" />
    <glyph glyph-name="uni0259" unicode="&#x259;" horiz-adv-x="579" 
d="M44 283h420q-7 82 -58 129.5t-125 47.5q-57 0 -98 -28t-64 -77l-69 9q30 74 89.5 116t142.5 42q74 0 131.5 -33.5t89.5 -94.5t32 -141q0 -77 -30.5 -136.5t-86.5 -92.5t-131 -33t-130 34t-84 94t-29 135v29zM410 98q47 45 54 125h-349q8 -82 54 -126t119 -44q75 0 122 45
z" />
    <glyph glyph-name="uni0272" unicode="&#x272;" horiz-adv-x="581" 
d="M469.5 468q50.5 -53 50.5 -145v-323h-70v307q0 155 -140 155q-53 0 -89 -27.5t-53 -71.5t-17 -92v-316q0 -159 -139 -159q-49 0 -93 17l5 59q36 -14 81 -14q42 0 59 23.5t17 80.5v550h64l5 -101q26 54 73 82t105 28q91 0 141.5 -53z" />
    <glyph glyph-name="circumflex" unicode="&#x2c6;" horiz-adv-x="451" 
d="M319 592l-93 118l-93 -118h-83l145 168h62l144 -168h-82z" />
    <glyph glyph-name="caron" unicode="&#x2c7;" horiz-adv-x="451" 
d="M401 760l-144 -168h-62l-145 168h83l93 -118l93 118h82z" />
    <glyph glyph-name="breve" unicode="&#x2d8;" horiz-adv-x="432" 
d="M104 636q-44 43 -54 124h54q10 -54 39 -82.5t73 -28.5t73.5 28.5t38.5 82.5h54q-10 -81 -54 -124t-112 -43t-112 43z" />
    <glyph glyph-name="dotaccent" unicode="&#x2d9;" horiz-adv-x="213" 
d="M66.5 630q-16.5 17 -16.5 40q0 24 16.5 40.5t40.5 16.5q23 0 39.5 -16.5t16.5 -40.5q0 -23 -16.5 -40t-39.5 -17q-24 0 -40.5 17z" />
    <glyph glyph-name="ring" unicode="&#x2da;" horiz-adv-x="315" 
d="M81 616.5q-31 31.5 -31 76.5t31 76t77 31q45 0 76 -31.5t31 -75.5q0 -45 -31 -76.5t-76 -31.5q-46 0 -77 31.5zM204 645.5q19 19.5 19 47.5t-19 47t-46 19q-28 0 -47 -19t-19 -47t19 -47.5t47 -19.5q27 0 46 19.5z" />
    <glyph glyph-name="ogonek" unicode="&#x2db;" horiz-adv-x="288" 
d="M132 -28q-22 -21 -22 -55q0 -32 20.5 -49.5t59.5 -17.5q18 0 46 8l2 -48q-28 -14 -65 -14q-56 0 -89.5 27.5t-33.5 77.5q0 52 38 85t93 44l7 -26q-34 -11 -56 -32z" />
    <glyph glyph-name="tilde" unicode="&#x2dc;" horiz-adv-x="455" 
d="M248 645.5q-20 9.5 -40 24.5q-17 12 -29 18t-23 6q-15 0 -30 -10.5t-26 -30.5l-50 22q35 72 108 72q24 0 44 -9t44 -25q16 -12 28 -18t24 -6q16 0 31 10.5t26 31.5l50 -18q-42 -77 -113 -77q-24 0 -44 9.5z" />
    <glyph glyph-name="hungarumlaut" unicode="&#x2dd;" horiz-adv-x="463" 
d="M105 590h-55l77 170h92zM299 590h-55l77 170h92z" />
    <glyph glyph-name="gravecomb" unicode="&#x300;" 
d="M-127 760l77 -170h-55l-114 170h92z" />
    <glyph glyph-name="acutecomb" unicode="&#x301;" 
d="M-164 590h-55l77 170h92z" />
    <glyph glyph-name="uni0302" unicode="&#x302;" 
d="M-132 592l-93 118l-93 -118h-83l145 168h62l144 -168h-82z" />
    <glyph glyph-name="tildecomb" unicode="&#x303;" 
d="M-207 645.5q-20 9.5 -40 24.5q-17 12 -29 18t-23 6q-15 0 -30 -10.5t-26 -30.5l-50 22q35 72 108 72q24 0 44 -9t44 -25q16 -12 28 -18t24 -6q16 0 31 10.5t26 31.5l50 -18q-42 -77 -113 -77q-24 0 -44 9.5z" />
    <glyph glyph-name="uni0304" unicode="&#x304;" 
d="M-324 711h274v-55h-274v55z" />
    <glyph glyph-name="uni0306" unicode="&#x306;" 
d="M-328 636q-44 43 -54 124h54q10 -54 39 -82.5t73 -28.5t73.5 28.5t38.5 82.5h54q-10 -81 -54 -124t-112 -43t-112 43z" />
    <glyph glyph-name="uni0307" unicode="&#x307;" 
d="M-146.5 630q-16.5 17 -16.5 40q0 24 16.5 40.5t40.5 16.5q23 0 39.5 -16.5t16.5 -40.5q0 -23 -16.5 -40t-39.5 -17q-24 0 -40.5 17z" />
    <glyph glyph-name="uni0308" unicode="&#x308;" 
d="M-312.5 635q-14.5 15 -14.5 36q0 22 14.5 37t36.5 15q21 0 36 -15t15 -37q0 -21 -15 -36t-36 -15q-22 0 -36.5 15zM-137 635q-15 15 -15 36q0 22 15 37t37 15q21 0 35.5 -15t14.5 -37q0 -21 -14.5 -36t-35.5 -15q-22 0 -37 15z" />
    <glyph glyph-name="uni030A" unicode="&#x30a;" 
d="M-234 616.5q-31 31.5 -31 76.5t31 76t77 31q45 0 76 -31.5t31 -75.5q0 -45 -31 -76.5t-76 -31.5q-46 0 -77 31.5zM-111 645.5q19 19.5 19 47.5t-19 47t-46 19q-28 0 -47 -19t-19 -47t19 -47.5t47 -19.5q27 0 46 19.5z" />
    <glyph glyph-name="uni030B" unicode="&#x30b;" 
d="M-358 590h-55l77 170h92zM-164 590h-55l77 170h92z" />
    <glyph glyph-name="uni030C" unicode="&#x30c;" 
d="M-50 760l-144 -168h-62l-145 168h83l93 -118l93 118h82z" />
    <glyph glyph-name="uni0326" unicode="&#x326;" 
d="M-142 -220h-55l56 150h91z" />
    <glyph glyph-name="uni0327" unicode="&#x327;" 
d="M-75 -61.5q25 -21.5 25 -57.5q0 -39 -28.5 -62t-73.5 -23q-21 0 -41 5t-34 14l15 37q22 -12 46 -12q23 0 36 11.5t13 31.5q0 17 -10 26.5t-29 9.5q-21 0 -40 -13l-22 13l27 98h49l-12 -58q4 1 15 1q39 0 64 -21.5z" />
    <glyph glyph-name="uni0328" unicode="&#x328;" 
d="M-156 -28q-22 -21 -22 -55q0 -32 20.5 -49.5t59.5 -17.5q18 0 46 8l2 -48q-28 -14 -65 -14q-56 0 -89.5 27.5t-33.5 77.5q0 52 38 85t93 44l7 -26q-34 -11 -56 -32z" />
    <glyph glyph-name="tonos" unicode="&#x384;" horiz-adv-x="264" 
d="M122 760h92l-109 -170h-55z" />
    <glyph glyph-name="dieresistonos" unicode="&#x385;" horiz-adv-x="452" 
d="M224 760h92l-108 -170h-56zM64.5 635q-14.5 15 -14.5 36q0 22 14.5 37t36.5 15q21 0 36 -15t15 -37q0 -21 -15 -36t-36 -15q-22 0 -36.5 15zM315 635q-15 15 -15 36q0 22 15 37t37 15q21 0 35.5 -15t14.5 -37q0 -21 -14.5 -36t-35.5 -15q-22 0 -37 15z" />
    <glyph glyph-name="Alphatonos" unicode="&#x386;" horiz-adv-x="595" 
d="M471 142h-348l-45 -142h-73l252 760h80l253 -760h-74zM451 205l-154 485l-154 -485h308zM61 760h92l-109 -170h-55z" />
    <glyph glyph-name="anoteleia" unicode="&#x387;" horiz-adv-x="218" 
d="M67.5 357.5q-17.5 17.5 -17.5 41.5t17 41.5t42 17.5q24 0 41.5 -17.5t17.5 -41.5q0 -23 -17.5 -41t-41.5 -18t-41.5 17.5z" />
    <glyph glyph-name="Epsilontonos" unicode="&#x388;" horiz-adv-x="544" 
d="M488 63v-63h-416v760h411v-63h-340v-269h336v-62h-336v-303h345zM-87 760h92l-109 -170h-55z" />
    <glyph glyph-name="Etatonos" unicode="&#x389;" horiz-adv-x="658" 
d="M586 760v-760h-71v366h-372v-366h-71v760h71v-332h372v332h71zM-87 760h92l-109 -170h-55z" />
    <glyph glyph-name="Iotatonos" unicode="&#x38a;" horiz-adv-x="215" 
d="M72 760h71v-760h-71v760zM-87 760h92l-109 -170h-55z" />
    <glyph glyph-name="Omicrontonos" unicode="&#x38c;" horiz-adv-x="840" 
d="M229.5 42q-85.5 52 -134 141t-48.5 197t49 197.5t134 141t190 51.5t190 -51.5t134 -141t49 -197.5t-48.5 -197t-134 -141t-190.5 -52t-190.5 52zM573.5 96.5q68.5 42.5 107.5 117t39 166.5t-39 166.5t-107.5 117t-153.5 42.5t-153.5 -42.5t-107.5 -117t-39 -166.5
t39 -166.5t107.5 -117t153.5 -42.5t153.5 42.5zM-16 760h92l-109 -170h-55z" />
    <glyph glyph-name="Upsilontonos" unicode="&#x38e;" horiz-adv-x="553" 
d="M551 760l-388 -760h-73l164 322l-243 438h76l202 -371l189 371h73zM-122 760h92l-109 -170h-55z" />
    <glyph glyph-name="Omegatonos" unicode="&#x38f;" horiz-adv-x="856" 
d="M761.5 195q-44.5 -84 -123.5 -132h160v-63h-290v53q111 38 168 127.5t57 198.5q0 87 -35.5 162t-104 120t-163.5 45q-91 0 -161 -43.5t-108.5 -118t-38.5 -165.5q0 -108 58 -198t168 -128v-53h-292v63h161q-83 48 -125 130.5t-42 185.5q0 110 51.5 199.5t138.5 140.5
t190 51q106 0 192 -52t135 -141.5t49 -197.5q0 -100 -44.5 -184zM-8 760h92l-109 -170h-55z" />
    <glyph glyph-name="iotadieresistonos" unicode="&#x390;" horiz-adv-x="238" 
d="M95.5 21q-27.5 31 -27.5 100v391h70v-378q0 -34 7 -51.5t21.5 -23t39.5 -5.5h7l5 -62q-16 -2 -27 -2q-68 0 -95.5 31zM103 760h92l-108 -170h-56zM-56.5 635q-14.5 15 -14.5 36q0 22 14.5 37t36.5 15q21 0 36 -15t15 -37q0 -21 -15 -36t-36 -15q-22 0 -36.5 15zM194 635
q-15 15 -15 36q0 22 15 37t37 15q21 0 35.5 -15t14.5 -37q0 -21 -14.5 -36t-35.5 -15q-22 0 -37 15z" />
    <glyph glyph-name="Alpha" unicode="&#x391;" horiz-adv-x="595" 
d="M471 142h-348l-45 -142h-73l252 760h80l253 -760h-74zM451 205l-154 485l-154 -485h308z" />
    <glyph glyph-name="Beta" unicode="&#x392;" horiz-adv-x="582" 
d="M518 327.5q33 -49.5 33 -114.5q0 -60 -28 -108.5t-83 -76.5t-133 -28h-235v760h227q112 0 169.5 -54t57.5 -138q0 -56 -26 -100t-78 -67q63 -24 96 -73.5zM143 697v-269h147q81 0 122.5 38t41.5 100q0 58 -38 94.5t-117 36.5h-156zM434.5 105.5q44.5 42.5 44.5 109.5
q0 66 -43.5 108.5t-125.5 42.5h-167v-303h164q83 0 127.5 42.5z" />
    <glyph glyph-name="Gamma" unicode="&#x393;" horiz-adv-x="491" 
d="M143 0h-71v760h389v-63h-318v-697z" />
    <glyph glyph-name="uni0394" unicode="&#x394;" horiz-adv-x="622" 
d="M617 0h-612l266 760h80zM522 63l-211 631l-212 -631h423z" />
    <glyph glyph-name="Epsilon" unicode="&#x395;" horiz-adv-x="544" 
d="M488 63v-63h-416v760h411v-63h-340v-269h336v-62h-336v-303h345z" />
    <glyph glyph-name="Zeta" unicode="&#x396;" horiz-adv-x="583" 
d="M143 61h399v-61h-510l406 699h-378v61h488z" />
    <glyph glyph-name="Eta" unicode="&#x397;" horiz-adv-x="658" 
d="M586 760v-760h-71v366h-372v-366h-71v760h71v-332h372v332h71z" />
    <glyph glyph-name="Theta" unicode="&#x398;" horiz-adv-x="840" 
d="M229.5 42q-85.5 52 -134 141t-48.5 197t49 197.5t134 141t190 51.5t190 -51.5t134 -141t49 -197.5t-48.5 -197t-134 -141t-190.5 -52t-190.5 52zM573.5 96.5q68.5 42.5 107.5 117t39 166.5t-39 166.5t-107.5 117t-153.5 42.5t-153.5 -42.5t-107.5 -117t-39 -166.5
t39 -166.5t107.5 -117t153.5 -42.5t153.5 42.5zM250 429h345v-63h-345v63z" />
    <glyph glyph-name="Iota" unicode="&#x399;" horiz-adv-x="215" 
d="M72 760h71v-760h-71v760z" />
    <glyph glyph-name="Kappa" unicode="&#x39a;" horiz-adv-x="589" 
d="M281 376l-138 -186v-190h-71v760h71v-464l341 464h80l-241 -327l251 -433h-75z" />
    <glyph glyph-name="Lambda" unicode="&#x39b;" horiz-adv-x="610" 
d="M531 0l-226 689l-226 -689h-74l260 760h80l260 -760h-74z" />
    <glyph glyph-name="Mu" unicode="&#x39c;" horiz-adv-x="848" 
d="M732 0l-67 655l-212 -655h-58l-212 655l-67 -655h-70l81 760h85l212 -669l212 669h85l81 -760h-70z" />
    <glyph glyph-name="Nu" unicode="&#x39d;" horiz-adv-x="658" 
d="M586 760v-760h-71l-372 642v-642h-71v760h71l372 -642v642h71z" />
    <glyph glyph-name="Xi" unicode="&#x39e;" horiz-adv-x="637" 
d="M59 760h519v-63h-519v63zM86 428h465v-62h-465v62zM44 63h549v-63h-549v63z" />
    <glyph glyph-name="Omicron" unicode="&#x39f;" horiz-adv-x="840" 
d="M229.5 42q-85.5 52 -134 141t-48.5 197t49 197.5t134 141t190 51.5t190 -51.5t134 -141t49 -197.5t-48.5 -197t-134 -141t-190.5 -52t-190.5 52zM573.5 96.5q68.5 42.5 107.5 117t39 166.5t-39 166.5t-107.5 117t-153.5 42.5t-153.5 -42.5t-107.5 -117t-39 -166.5
t39 -166.5t107.5 -117t153.5 -42.5t153.5 42.5z" />
    <glyph glyph-name="Pi" unicode="&#x3a0;" horiz-adv-x="676" 
d="M603 0h-70v697h-390v-697h-71v760h531v-760z" />
    <glyph glyph-name="Rho" unicode="&#x3a1;" horiz-adv-x="621" 
d="M510.5 691.5q68.5 -68.5 68.5 -186.5q0 -117 -69 -188t-196 -71h-171v-246h-71v760h241q129 0 197.5 -68.5zM457.5 361.5q50.5 52.5 50.5 143.5t-50 141.5t-151 50.5h-164v-388h163q101 0 151.5 52.5z" />
    <glyph glyph-name="Sigma" unicode="&#x3a3;" horiz-adv-x="569" 
d="M248 404l-229 356h516v-63h-398l190 -291l-199 -343h426v-63h-537z" />
    <glyph glyph-name="Tau" unicode="&#x3a4;" horiz-adv-x="586" 
d="M560 697h-232v-697h-71v697h-231v63h534v-63z" />
    <glyph glyph-name="Upsilon" unicode="&#x3a5;" horiz-adv-x="553" 
d="M551 760l-388 -760h-73l164 322l-243 438h76l202 -371l189 371h73z" />
    <glyph glyph-name="Phi" unicode="&#x3a6;" horiz-adv-x="877" 
d="M786.5 247q-48.5 -68 -130.5 -106.5t-182 -43.5v-97h-71v97q-100 5 -182 43.5t-130.5 106.5t-48.5 155t48.5 155t130.5 107t182 44v52h71v-52q100 -5 182 -44t130.5 -107t48.5 -155t-48.5 -155zM149.5 280.5q36.5 -52.5 102 -83.5t151.5 -37v485q-86 -6 -151.5 -36.5
t-102 -83.5t-36.5 -123q0 -69 36.5 -121.5zM625.5 197q65.5 31 102 83.5t36.5 121.5q0 70 -36.5 123t-102 83.5t-151.5 36.5v-485q86 6 151.5 37z" />
    <glyph glyph-name="Chi" unicode="&#x3a7;" horiz-adv-x="568" 
d="M487 0l-202 326l-203 -326h-77l242 387l-232 373h76l193 -311l193 311h77l-232 -373l241 -387h-76z" />
    <glyph glyph-name="Psi" unicode="&#x3a8;" horiz-adv-x="769" 
d="M709 760v-240q0 -128 -73.5 -204t-215.5 -85v-231h-71v231q-141 9 -215 85t-74 204v240h71v-233q0 -215 218 -231v464h71v-464q219 16 219 231v233h70z" />
    <glyph glyph-name="uni03A9" unicode="&#x3a9;" horiz-adv-x="856" 
d="M761.5 195q-44.5 -84 -123.5 -132h160v-63h-290v53q111 38 168 127.5t57 198.5q0 87 -35.5 162t-104 120t-163.5 45q-91 0 -161 -43.5t-108.5 -118t-38.5 -165.5q0 -108 58 -198t168 -128v-53h-292v63h161q-83 48 -125 130.5t-42 185.5q0 110 51.5 199.5t138.5 140.5
t190 51q106 0 192 -52t135 -141.5t49 -197.5q0 -100 -44.5 -184z" />
    <glyph glyph-name="Iotadieresis" unicode="&#x3aa;" horiz-adv-x="215" 
d="M72 760h71v-760h-71v760zM-15.5 883q-14.5 15 -14.5 36q0 22 14.5 37t36.5 15q21 0 36 -15t15 -37q0 -21 -15 -36t-36 -15q-22 0 -36.5 15zM160 883q-15 15 -15 36q0 22 15 37t37 15q21 0 35.5 -15t14.5 -37q0 -21 -14.5 -36t-35.5 -15q-22 0 -37 15z" />
    <glyph glyph-name="Upsilondieresis" unicode="&#x3ab;" horiz-adv-x="553" 
d="M551 760l-388 -760h-73l164 322l-243 438h76l202 -371l189 371h73zM152.5 883q-14.5 15 -14.5 36q0 22 14.5 37t36.5 15q21 0 36 -15t15 -37q0 -21 -15 -36t-36 -15q-22 0 -36.5 15zM328 883q-15 15 -15 36q0 22 15 37t37 15q21 0 35.5 -15t14.5 -37q0 -21 -14.5 -36
t-35.5 -15q-22 0 -37 15z" />
    <glyph glyph-name="alphatonos" unicode="&#x3ac;" horiz-adv-x="647" 
d="M163.5 24.5q-55.5 34.5 -87.5 95.5t-32 135q0 76 32.5 136.5t89 95t124.5 34.5q61 0 111.5 -29t78.5 -80v100h70v-375q0 -36 7 -54t20.5 -23.5t36.5 -5.5h8l5 -62q-18 -2 -28 -2q-59 0 -87.5 26.5t-30.5 84.5q-29 -53 -80.5 -82t-112.5 -29q-69 0 -124.5 34.5zM394 78.5
q42 26.5 65.5 73t23.5 104.5t-23.5 104t-65.5 72.5t-94 26.5q-55 0 -97.5 -26t-65.5 -72.5t-23 -105.5q0 -58 23 -104.5t65.5 -72.5t97.5 -26q52 0 94 26.5zM337 760h92l-109 -170h-55z" />
    <glyph glyph-name="epsilontonos" unicode="&#x3ad;" horiz-adv-x="478" 
d="M134.5 11.5q-47.5 21.5 -70.5 57t-23 77.5q0 41 24.5 76.5t71.5 48.5v3q-44 9 -64 38.5t-20 60.5q0 41 23 74.5t67.5 53.5t104.5 20q72 0 122 -32t67 -88l-65 -16q-10 33 -40.5 53.5t-82.5 20.5q-66 0 -96.5 -25.5t-30.5 -60.5q0 -34 30 -51.5t63 -17.5h81v-60h-64
q-60 0 -91 -24t-31 -65q0 -43 35 -73t109 -30q60 0 94.5 25t41.5 66l69 -8q-9 -67 -65.5 -106t-142.5 -39q-69 0 -116.5 21.5zM271 760h92l-109 -170h-55z" />
    <glyph glyph-name="etatonos" unicode="&#x3ae;" horiz-adv-x="566" 
d="M454 468q50 -53 50 -145v-517h-70v501q0 155 -139 155q-53 0 -89 -27.5t-53 -71.5t-17 -92v-271h-70v512h63l6 -101q26 54 72.5 82t105.5 28q91 0 141 -53zM316 760h92l-109 -170h-55z" />
    <glyph glyph-name="iotatonos" unicode="&#x3af;" horiz-adv-x="238" 
d="M95.5 21q-27.5 31 -27.5 100v391h70v-378q0 -34 7 -51.5t21.5 -23t39.5 -5.5h7l5 -62q-16 -2 -27 -2q-68 0 -95.5 31zM138 760h92l-109 -170h-55z" />
    <glyph glyph-name="upsilondieresistonos" unicode="&#x3b0;" horiz-adv-x="549" 
d="M117 46q-56 56 -56 163v303h70v-301q0 -76 35 -117.5t109 -41.5q143 0 143 159v301h70v-303q0 -107 -55.5 -163t-157.5 -56t-158 56zM273 760h92l-108 -170h-56zM113.5 635q-14.5 15 -14.5 36q0 22 14.5 37t36.5 15q21 0 36 -15t15 -37q0 -21 -15 -36t-36 -15
q-22 0 -36.5 15zM364 635q-15 15 -15 36q0 22 15 37t37 15q21 0 35.5 -15t14.5 -37q0 -21 -14.5 -36t-35.5 -15q-22 0 -37 15z" />
    <glyph glyph-name="alpha" unicode="&#x3b1;" horiz-adv-x="647" 
d="M163.5 24.5q-55.5 34.5 -87.5 95.5t-32 135q0 76 32.5 136.5t89 95t124.5 34.5q61 0 111.5 -29t78.5 -80v100h70v-375q0 -36 7 -54t20.5 -23.5t36.5 -5.5h8l5 -62q-18 -2 -28 -2q-59 0 -87.5 26.5t-30.5 84.5q-29 -53 -80.5 -82t-112.5 -29q-69 0 -124.5 34.5zM394 78.5
q42 26.5 65.5 73t23.5 104.5t-23.5 104t-65.5 72.5t-94 26.5q-55 0 -97.5 -26t-65.5 -72.5t-23 -105.5q0 -58 23 -104.5t65.5 -72.5t97.5 -26q52 0 94 26.5z" />
    <glyph glyph-name="beta" unicode="&#x3b2;" horiz-adv-x="590" 
d="M462 410.5q39 -27.5 63 -72.5t24 -103q0 -63 -29 -119t-83.5 -90.5t-127.5 -34.5q-120 0 -173 96v-281h-70v733q0 68 26 120t75 81.5t116 29.5q61 0 108 -23t73 -63.5t26 -91.5q0 -55 -31.5 -94.5t-79.5 -51.5q44 -8 83 -35.5zM395 77q40 24 62 66.5t22 96.5
q0 89 -57 130.5t-135 41.5h-22v57h24q72 0 102 38t30 84q0 53 -39.5 85t-100.5 32q-83 0 -116 -52t-33 -117v-298q0 -48 19.5 -91t58 -70t94.5 -27q51 0 91 24z" />
    <glyph glyph-name="gamma" unicode="&#x3b3;" horiz-adv-x="497" 
d="M487 512l-203 -468v-238h-71v235l-203 471h74l163 -395l169 395h71z" />
    <glyph glyph-name="delta" unicode="&#x3b4;" horiz-adv-x="577" 
d="M158.5 22q-55.5 32 -85 86.5t-29.5 118.5q0 67 31 124t85 90t121 33q33 0 57 -10l-248 250v46h399v-60h-296l211 -212q67 -69 98 -126.5t31 -127.5q0 -71 -31 -126.5t-87 -86.5t-127 -31q-74 0 -129.5 32zM382.5 76q39.5 24 60 64.5t20.5 89.5q0 48 -18.5 91.5t-57 71.5
t-94.5 28q-57 0 -97.5 -28t-61 -72.5t-20.5 -92.5q0 -47 21 -87.5t60.5 -64.5t93.5 -24t93.5 24z" />
    <glyph glyph-name="epsilon" unicode="&#x3b5;" horiz-adv-x="478" 
d="M134.5 11.5q-47.5 21.5 -70.5 57t-23 77.5q0 41 24.5 76.5t71.5 48.5v3q-44 9 -64 38.5t-20 60.5q0 41 23 74.5t67.5 53.5t104.5 20q72 0 122 -32t67 -88l-65 -16q-10 33 -40.5 53.5t-82.5 20.5q-66 0 -96.5 -25.5t-30.5 -60.5q0 -34 30 -51.5t63 -17.5h81v-60h-64
q-60 0 -91 -24t-31 -65q0 -43 35 -73t109 -30q60 0 94.5 25t41.5 66l69 -8q-9 -67 -65.5 -106t-142.5 -39q-69 0 -116.5 21.5z" />
    <glyph glyph-name="zeta" unicode="&#x3b6;" horiz-adv-x="445" 
d="M143 455.5q97 120.5 235 244.5h-309l5 60h399v-39q-168 -158 -263 -278.5t-95 -205.5q0 -39 24.5 -65t82.5 -53l99 -48q54 -25 74.5 -43.5t20.5 -45.5q0 -32 -29.5 -76t-60.5 -72l-47 34q23 26 44 56t21 45q0 11 -15 22t-51 28l-89 42q-71 33 -107 70.5t-36 100.5
q0 103 97 223.5z" />
    <glyph glyph-name="eta" unicode="&#x3b7;" horiz-adv-x="566" 
d="M454 468q50 -53 50 -145v-517h-70v501q0 155 -139 155q-53 0 -89 -27.5t-53 -71.5t-17 -92v-271h-70v512h63l6 -101q26 54 72.5 82t105.5 28q91 0 141 -53z" />
    <glyph glyph-name="theta" unicode="&#x3b8;" horiz-adv-x="576" 
d="M472.5 662.5q58.5 -107.5 58.5 -282.5q0 -174 -58.5 -282t-184.5 -108t-184.5 108t-58.5 282q0 175 58.5 282.5t184.5 107.5t184.5 -107.5zM166.5 637.5q-43.5 -70.5 -50.5 -209.5h344q-7 139 -50.5 209.5t-121.5 70.5t-121.5 -70.5zM414.5 131.5q44.5 79.5 46.5 235.5
h-346q1 -156 45.5 -235.5t127.5 -79.5q82 0 126.5 79.5z" />
    <glyph glyph-name="iota" unicode="&#x3b9;" horiz-adv-x="238" 
d="M95.5 21q-27.5 31 -27.5 100v391h70v-378q0 -34 7 -51.5t21.5 -23t39.5 -5.5h7l5 -62q-16 -2 -27 -2q-68 0 -95.5 31z" />
    <glyph glyph-name="kappa" unicode="&#x3ba;" horiz-adv-x="476" 
d="M229 270l-93 -100v-170h-70v512h70v-251l232 251h85l-178 -192l203 -320h-80z" />
    <glyph glyph-name="lambda" unicode="&#x3bb;" horiz-adv-x="523" 
d="M527 -7q-19 -3 -38 -3q-33 0 -52 16.5t-34 53.5l-144 355l-176 -415h-74l218 495l-67 162q-12 29 -23.5 38.5t-38.5 9.5h-14l-5 62q21 3 39 3q37 0 58.5 -16t36.5 -52l250 -607q11 -27 21 -35t30 -8h9z" />
    <glyph glyph-name="uni03BC" unicode="&#x3bc;" horiz-adv-x="559" 
d="M493 512v-512h-64l-4 93q-25 -51 -68 -77t-97 -26q-73 0 -124 42v-226h-70v706h70v-312q0 -77 33 -112.5t100 -35.5q78 0 116 56.5t38 135.5v268h70z" />
    <glyph glyph-name="nu" unicode="&#x3bd;" horiz-adv-x="497" 
d="M496 512l-207 -512h-81l-207 512h74l173 -446l173 446h75z" />
    <glyph glyph-name="xi" unicode="&#x3be;" horiz-adv-x="474" 
d="M322 -132q25 28 46 57t21 43q0 12 -16 21.5t-55 23.5l-81 28q-97 34 -146 76.5t-49 115.5q0 67 42 121t110 76q-64 17 -100 58.5t-36 101.5q0 54 29.5 95t78 63t104.5 22q77 0 130 -38.5t64 -100.5l-69 -8q-8 35 -39.5 60t-88.5 25q-61 0 -100.5 -33.5t-39.5 -88.5
q0 -62 49 -93t116 -31h90v-60h-96q-57 0 -96.5 -23t-59 -59.5t-19.5 -76.5q0 -36 16 -59.5t47 -41t86 -37.5l87 -33q65 -24 88.5 -42.5t23.5 -48.5q0 -31 -29.5 -75t-59.5 -72z" />
    <glyph glyph-name="omicron" unicode="&#x3bf;" horiz-adv-x="595" 
d="M168 23.5q-58 33.5 -91 94t-33 137.5q0 78 33 138.5t91 94t130 33.5t129.5 -33.5t90.5 -94t33 -138.5q0 -77 -33 -137t-90.5 -94t-129.5 -34t-130 33.5zM391 77q42 25 66 71t24 107q0 62 -24 108t-66 71t-93 25q-52 0 -94 -25t-66 -71t-24 -108q0 -61 24 -107t66 -71
t94 -25q51 0 93 25z" />
    <glyph glyph-name="pi" unicode="&#x3c0;" horiz-adv-x="580" 
d="M444 451h-308v-451h-70v512h448v-512h-70v451z" />
    <glyph glyph-name="rho" unicode="&#x3c1;" horiz-adv-x="613" 
d="M448 26q57 35 89 95t32 133t-30.5 134t-88.5 97t-137 36q-80 0 -137 -40t-86 -104t-29 -134v-437h69v278q31 -46 80.5 -69.5t107.5 -23.5q73 0 130 35zM476.5 148q-23.5 -46 -65.5 -70.5t-96 -24.5q-57 0 -99 27t-63.5 72t-21.5 98q0 57 22 104.5t63.5 76t97.5 28.5
q58 0 100 -28t64 -75t22 -102q0 -60 -23.5 -106z" />
    <glyph glyph-name="uni03C2" unicode="&#x3c2;" horiz-adv-x="502" 
d="M276 -132q67 75 67 99q0 20 -52 41l-83 32q-91 35 -127.5 89t-36.5 141q0 73 29 130t81 89t119 32q82 0 134.5 -39t61.5 -101l-69 -7q-7 36 -36.5 60.5t-87.5 24.5q-74 0 -118 -49t-44 -139q0 -68 28 -106.5t98 -66.5l81 -32q49 -19 71 -39t22 -47q0 -32 -29 -74t-61 -72
z" />
    <glyph glyph-name="sigma" unicode="&#x3c3;" horiz-adv-x="606" 
d="M167 24.5q-58 34.5 -90.5 94t-32.5 132.5t33.5 133t91 94t128.5 34h291v-61h-141q56 -30 79.5 -85t23.5 -115q0 -73 -33 -132.5t-90.5 -94t-129.5 -34.5t-130 34.5zM392 76.5q42 26.5 65 72.5t23 102q0 88 -48 144.5t-135 56.5q-52 0 -94 -26.5t-65.5 -72.5t-23.5 -102
q0 -55 23 -101t65 -73t95 -27t95 26.5z" />
    <glyph glyph-name="tau" unicode="&#x3c4;" horiz-adv-x="416" 
d="M286 -10q-135 0 -135 157v304h-139l4 61h370v-61h-165v-303q0 -54 17 -75.5t56 -21.5t79 14l4 -58q-45 -17 -91 -17z" />
    <glyph glyph-name="upsilon" unicode="&#x3c5;" horiz-adv-x="549" 
d="M117 46q-56 56 -56 163v303h70v-301q0 -76 35 -117.5t109 -41.5q143 0 143 159v301h70v-303q0 -107 -55.5 -163t-157.5 -56t-158 56z" />
    <glyph glyph-name="phi" unicode="&#x3c6;" horiz-adv-x="721" 
d="M326 -10q-86 4 -150 39t-98 92.5t-34 126.5q0 89 54.5 159.5t146.5 94.5l20 -55q-73 -22 -112.5 -77t-39.5 -123q0 -53 25 -97t73 -71t115 -29v462h61q85 0 151 -33t102.5 -91.5t36.5 -131.5q0 -72 -36.5 -130.5t-100.5 -94t-145 -40.5v-185h-69v184zM551.5 112.5
q56.5 55.5 56.5 138.5q0 52 -23 97t-70.5 74t-119.5 32v-404q100 7 156.5 62.5z" />
    <glyph glyph-name="chi" unicode="&#x3c7;" horiz-adv-x="486" 
d="M417 -189q-20 15 -37 50l-131 271l-171 -326h-78l210 385l-108 218q-14 27 -27.5 37.5t-36.5 10.5h-12v62q26 2 36 2q35 0 56 -15.5t38 -50.5l96 -197l133 254h79l-174 -318l147 -293q12 -24 25 -33t31 -9h12l4 -60q-19 -3 -39 -3q-33 0 -53 15z" />
    <glyph glyph-name="psi" unicode="&#x3c8;" horiz-adv-x="686" 
d="M625 512v-298q0 -100 -65 -157.5t-182 -65.5v-185h-70v185q-117 8 -182 65.5t-65 157.5v298h70v-296q0 -69 45 -112t132 -51v459h70v-459q87 8 132 51t45 112v296h70z" />
    <glyph glyph-name="omega" unicode="&#x3c9;" horiz-adv-x="809" 
d="M100 60q-50 69 -50 181q0 114 53.5 188.5t156.5 90.5l13 -59q-75 -12 -114 -71t-39 -149q0 -83 33 -136t97 -53q40 0 67 21.5t40 54t13 66.5v142h70v-142q0 -55 30.5 -98.5t89.5 -43.5q64 0 96.5 53t32.5 136q0 90 -38.5 149t-114.5 71l13 59q103 -16 156.5 -90.5
t53.5 -188.5q0 -112 -49.5 -181t-143.5 -69q-62 0 -102.5 30.5t-58.5 81.5q-18 -50 -59 -81t-102 -31q-94 0 -144 69z" />
    <glyph glyph-name="iotadieresis" unicode="&#x3ca;" horiz-adv-x="238" 
d="M95.5 21q-27.5 31 -27.5 100v391h70v-378q0 -34 7 -51.5t21.5 -23t39.5 -5.5h7l5 -62q-16 -2 -27 -2q-68 0 -95.5 31zM-18.5 635q-14.5 15 -14.5 36q0 22 14.5 37t36.5 15q21 0 36 -15t15 -37q0 -21 -15 -36t-36 -15q-22 0 -36.5 15zM157 635q-15 15 -15 36q0 22 15 37
t37 15q21 0 35.5 -15t14.5 -37q0 -21 -14.5 -36t-35.5 -15q-22 0 -37 15z" />
    <glyph glyph-name="upsilondieresis" unicode="&#x3cb;" horiz-adv-x="549" 
d="M117 46q-56 56 -56 163v303h70v-301q0 -76 35 -117.5t109 -41.5q143 0 143 159v301h70v-303q0 -107 -55.5 -163t-157.5 -56t-158 56zM151.5 635q-14.5 15 -14.5 36q0 22 14.5 37t36.5 15q21 0 36 -15t15 -37q0 -21 -15 -36t-36 -15q-22 0 -36.5 15zM327 635
q-15 15 -15 36q0 22 15 37t37 15q21 0 35.5 -15t14.5 -37q0 -21 -14.5 -36t-35.5 -15q-22 0 -37 15z" />
    <glyph glyph-name="omicrontonos" unicode="&#x3cc;" horiz-adv-x="595" 
d="M168 23.5q-58 33.5 -91 94t-33 137.5q0 78 33 138.5t91 94t130 33.5t129.5 -33.5t90.5 -94t33 -138.5q0 -77 -33 -137t-90.5 -94t-129.5 -34t-130 33.5zM391 77q42 25 66 71t24 107q0 62 -24 108t-66 71t-93 25q-52 0 -94 -25t-66 -71t-24 -108q0 -61 24 -107t66 -71
t94 -25q51 0 93 25zM329 760h92l-109 -170h-55z" />
    <glyph glyph-name="upsilontonos" unicode="&#x3cd;" horiz-adv-x="549" 
d="M117 46q-56 56 -56 163v303h70v-301q0 -76 35 -117.5t109 -41.5q143 0 143 159v301h70v-303q0 -107 -55.5 -163t-157.5 -56t-158 56zM308 760h92l-109 -170h-55z" />
    <glyph glyph-name="omegatonos" unicode="&#x3ce;" horiz-adv-x="809" 
d="M100 60q-50 69 -50 181q0 114 53.5 188.5t156.5 90.5l13 -59q-75 -12 -114 -71t-39 -149q0 -83 33 -136t97 -53q40 0 67 21.5t40 54t13 66.5v142h70v-142q0 -55 30.5 -98.5t89.5 -43.5q64 0 96.5 53t32.5 136q0 90 -38.5 149t-114.5 71l13 59q103 -16 156.5 -90.5
t53.5 -188.5q0 -112 -49.5 -181t-143.5 -69q-62 0 -102.5 30.5t-58.5 81.5q-18 -50 -59 -81t-102 -31q-94 0 -144 69zM438 760h92l-109 -170h-55z" />
    <glyph glyph-name="uni0400" unicode="&#x400;" horiz-adv-x="544" 
d="M488 63v-63h-416v760h411v-63h-340v-269h336v-62h-336v-303h345zM243 1008l77 -170h-55l-114 170h92z" />
    <glyph glyph-name="uni0401" unicode="&#x401;" horiz-adv-x="544" 
d="M488 63v-63h-416v760h411v-63h-340v-269h336v-62h-336v-303h345zM161.5 883q-14.5 15 -14.5 36q0 22 14.5 37t36.5 15q21 0 36 -15t15 -37q0 -21 -15 -36t-36 -15q-22 0 -36.5 15zM337 883q-15 15 -15 36q0 22 15 37t37 15q21 0 35.5 -15t14.5 -37q0 -21 -14.5 -36
t-35.5 -15q-22 0 -37 15z" />
    <glyph glyph-name="uni0402" unicode="&#x402;" horiz-adv-x="796" 
d="M678.5 420.5q75.5 -61.5 75.5 -171.5q0 -68 -30 -123t-82.5 -90t-119.5 -46l-8 65q78 14 123 64.5t45 126.5q0 85 -55.5 129t-156.5 44h-174v-419h-71v697h-199v63h536v-63h-266v-215h183q124 0 199.5 -61.5z" />
    <glyph glyph-name="uni0403" unicode="&#x403;" horiz-adv-x="482" 
d="M461 697h-318v-697h-71v760h389v-63zM300 838h-55l77 170h92z" />
    <glyph glyph-name="uni0404" unicode="&#x404;" horiz-adv-x="819" 
d="M230 718.5q-85 -51.5 -134 -141t-49 -197.5t48.5 -197t134 -141t190.5 -52q83 0 154 32.5t122 91t76 135.5l-73 9q-32 -93 -107 -148.5t-172 -55.5q-80 0 -146 38.5t-106.5 106t-46.5 152.5h420v63h-420q7 84 48 150.5t106.5 104t144.5 37.5q97 0 171.5 -54.5
t107.5 -146.5l72 8q-25 76 -76 134t-122 90.5t-153 32.5q-105 0 -190 -51.5z" />
    <glyph glyph-name="uni0405" unicode="&#x405;" horiz-adv-x="625" 
d="M121.5 47q-66.5 57 -74.5 157l69 7q6 -85 61.5 -121t135.5 -36q88 0 138 38t50 110q0 44 -18.5 72t-50.5 45.5t-83 33.5l-85 26q-111 34 -158.5 79.5t-47.5 120.5q0 93 64.5 142t173.5 49q115 0 180 -54.5t81 -150.5l-69 -9q-10 68 -57 109t-135 41q-76 0 -120.5 -30.5
t-44.5 -93.5q0 -52 34.5 -83.5t116.5 -57.5l83 -26q65 -20 109.5 -44t72 -64.5t27.5 -103.5q0 -97 -67.5 -155t-193.5 -58q-125 0 -191.5 57z" />
    <glyph glyph-name="uni0406" unicode="&#x406;" horiz-adv-x="215" 
d="M72 760h71v-760h-71v760z" />
    <glyph glyph-name="uni0407" unicode="&#x407;" horiz-adv-x="215" 
d="M72 760h71v-760h-71v760zM-15.5 883q-14.5 15 -14.5 36q0 22 14.5 37t36.5 15q21 0 36 -15t15 -37q0 -21 -15 -36t-36 -15q-22 0 -36.5 15zM160 883q-15 15 -15 36q0 22 15 37t37 15q21 0 35.5 -15t14.5 -37q0 -21 -14.5 -36t-35.5 -15q-22 0 -37 15z" />
    <glyph glyph-name="uni0408" unicode="&#x408;" horiz-adv-x="547" 
d="M103.5 43.5q-60.5 53.5 -67.5 151.5l70 5q5 -72 45.5 -109t105.5 -37q69 0 110.5 43t41.5 129v534h70v-531q0 -116 -61 -177.5t-161 -61.5q-93 0 -153.5 53.5z" />
    <glyph glyph-name="uni0409" unicode="&#x409;" horiz-adv-x="1026" 
d="M863.5 467q59.5 -32 90 -89t30.5 -130q0 -113 -69 -180.5t-197 -67.5h-241v705h-19l-377 -705h-76l409 760h134v-261h171q85 0 144.5 -32zM862 112.5q50 49.5 50 135.5t-50.5 137.5t-150.5 51.5h-163v-374h164q100 0 150 49.5z" />
    <glyph glyph-name="uni040A" unicode="&#x40a;" horiz-adv-x="1052" 
d="M889.5 467q59.5 -32 90 -89t30.5 -130q0 -113 -69 -180.5t-197 -67.5h-241v370h-360v-370h-71v760h71v-327h360v327h71v-261h171q85 0 144.5 -32zM888 112.5q50 49.5 50 135.5t-50.5 137.5t-150.5 51.5h-163v-374h164q100 0 150 49.5z" />
    <glyph glyph-name="uni040B" unicode="&#x40b;" horiz-adv-x="783" 
d="M731 248v-248h-71v233q0 101 -43.5 143.5t-146.5 42.5h-174v-419h-71v697h-199v63h536v-63h-266v-215h188q247 0 247 -234z" />
    <glyph glyph-name="uni040C" unicode="&#x40c;" horiz-adv-x="589" 
d="M281 376l-138 -186v-190h-71v760h71v-464l341 464h80l-241 -327l251 -433h-75zM314 838h-55l77 170h92z" />
    <glyph glyph-name="uni040D" unicode="&#x40d;" horiz-adv-x="668" 
d="M596 760v-760h-71v647l-382 -647h-71v760h71v-646l382 646h71zM297 1008l77 -170h-55l-114 170h92z" />
    <glyph glyph-name="uni040E" unicode="&#x40e;" horiz-adv-x="558" 
d="M556 760l-362 -760h-73l138 290l-243 470h76l201 -398l190 398h73zM169 884q-44 43 -54 124h54q10 -54 39 -82.5t73 -28.5t73.5 28.5t38.5 82.5h54q-10 -81 -54 -124t-112 -43t-112 43z" />
    <glyph glyph-name="uni040F" unicode="&#x40f;" horiz-adv-x="648" 
d="M576 760v-760h-216l-5 -150h-63l-4 150h-216v760h71v-697h362v697h71z" />
    <glyph glyph-name="uni0410" unicode="&#x410;" horiz-adv-x="595" 
d="M471 142h-348l-45 -142h-73l252 760h80l253 -760h-74zM451 205l-154 485l-154 -485h308z" />
    <glyph glyph-name="uni0411" unicode="&#x411;" horiz-adv-x="621" 
d="M458.5 467q59.5 -32 90 -89t30.5 -130q0 -113 -69 -180.5t-197 -67.5h-241v760h446v-63h-375v-198h171q85 0 144.5 -32zM457.5 112.5q50.5 49.5 50.5 135.5t-51 137.5t-151 51.5h-163v-374h164q100 0 150.5 49.5z" />
    </font>
</defs>
</svg>
