<?xml version="1.0" standalone="no"?>
<!DOCTYPE svg PUBLIC "-//W3C//DTD SVG 1.1//EN" "http://www.w3.org/Graphics/SVG/1.1/DTD/svg11.dtd" >
<svg xmlns="http://www.w3.org/2000/svg" xmlns:xlink="http://www.w3.org/1999/xlink" version="1.1">
<metadata>
Created by FontForge 20170731 at Wed Nov 22 21:06:52 2017
 By Aleksey,,,
Copyright (c) 2017 by Andreu Balius. All rights reserved.
</metadata>
<defs>
<font id="SeatBcn-Web-BookItalic" horiz-adv-x="841" >
  <font-face 
    font-family="Seat Bcn - Web Book"
    font-weight="350"
    font-style="italic"
    font-stretch="normal"
    units-per-em="1000"
    panose-1="0 0 4 0 0 0 0 0 0 0"
    ascent="760"
    descent="-240"
    x-height="512"
    cap-height="760"
    bbox="-366 -204 1204 1270"
    underline-thickness="50"
    underline-position="-150"
    slope="-8"
    unicode-range="U+000D-FB02"
  />
<missing-glyph horiz-adv-x="700" 
d="M163 705h401v-705h-401v705zM502 62v581h-277v-581h277z" />
    <glyph glyph-name="fi" unicode="fi" horiz-adv-x="558" 
d="M456 0h-70l63 451h-262l-63 -451h-70l62 451h-76l15 61h69l6 42q30 216 229 216q87 0 159 -44l-27 -53q-66 35 -134 35q-63 0 -103.5 -33.5t-51.5 -113.5l-7 -49h332z" />
    <glyph glyph-name="fl" unicode="fl" horiz-adv-x="611" 
d="M556 52l-4 -62h-14q-66 0 -101 24.5t-35 81.5q0 20 4 50l75 538q-61 24 -123 24q-64 0 -104.5 -33.5t-51.5 -112.5l-7 -50h148l-9 -61h-147l-63 -451h-70l62 451h-76l15 61h69l6 42q16 118 77.5 167t155.5 49q104 0 192 -54l-78 -567q-3 -21 -3 -37q0 -36 16.5 -48
t58.5 -12h7z" />
    <glyph glyph-name="f_f" unicode="ff" horiz-adv-x="646" 
d="M572 683.5q-24 -24.5 -33 -86.5l-12 -85h140l-9 -61h-139l-63 -451h-70l62 451h-261l-63 -451h-70l63 451h-77l15 61h70l13 91q13 91 56.5 129t110.5 38q56 0 92 -22l-13 -58q-39 18 -77 18q-42 0 -66.5 -24t-32.5 -87l-12 -85h260l13 92q13 91 57 128.5t111 37.5
q56 0 92 -22l-14 -58q-39 18 -77 18q-42 0 -66 -24.5z" />
    <glyph glyph-name="f_f_i" unicode="ffi" horiz-adv-x="890" 
d="M788 0h-70l63 451h-262l-63 -451h-70l62 451h-261l-63 -451h-70l63 451h-77l15 61h70l13 91q13 91 56.5 129t110.5 38q56 0 92 -22l-13 -58q-39 18 -77 18q-42 0 -66.5 -24t-32.5 -87l-12 -85h260l6 42q31 216 229 216q87 0 159 -44l-27 -53q-65 35 -134 35
q-63 0 -103.5 -33.5t-51.5 -113.5l-7 -49h332z" />
    <glyph glyph-name="f_f_l" unicode="ffl" horiz-adv-x="944" 
d="M823 64q17 -12 58 -12h7l-4 -62h-14q-66 0 -101 24.5t-35 81.5q0 20 4 50l75 538q-59 24 -122 24q-64 0 -105 -33.5t-52 -112.5l-7 -50h148l-10 -61h-146l-63 -451h-70l62 451h-261l-63 -451h-70l63 451h-77l15 61h70l13 91q13 91 56.5 129t110.5 38q56 0 92 -22l-13 -58
q-39 18 -77 18q-42 0 -66.5 -24t-32.5 -87l-12 -85h260l6 42q17 118 78 167t155 49q103 0 193 -54l-79 -567q-3 -21 -3 -37q0 -36 17 -48z" />
    <glyph glyph-name="uni04570457.liga" unicode="&#x457;&#x457;" horiz-adv-x="432" 
d="M36.5 637q-14.5 14 -14.5 34q0 21 14.5 35.5t34.5 14.5t34.5 -14.5t14.5 -35.5q0 -20 -14.5 -34t-34.5 -14t-34.5 14zM171 637q-14 14 -14 34q0 21 14 35.5t35 14.5q20 0 34 -14.5t14 -35.5q0 -20 -14 -34t-34 -14q-21 0 -35 14zM310.5 637q-14.5 14 -14.5 34
q0 21 14.5 35.5t34.5 14.5t34.5 -14.5t14.5 -35.5q0 -20 -14.5 -34t-34.5 -14t-34.5 14zM445 637q-14 14 -14 34q0 21 14 35.5t35 14.5q20 0 34 -14.5t14 -35.5q0 -20 -14 -34t-34 -14q-21 0 -35 14zM80 512h70l-72 -512h-70zM354 512h70l-72 -512h-70z" />
    <glyph glyph-name=".notdef" horiz-adv-x="700" 
d="M163 705h401v-705h-401v705zM502 62v581h-277v-581h277z" />
    <glyph glyph-name=".null" horiz-adv-x="600" 
 />
    <glyph glyph-name="nonmarkingreturn" unicode="&#xd;" horiz-adv-x="600" 
 />
    <glyph glyph-name="space" unicode=" " horiz-adv-x="222" 
 />
    <glyph glyph-name="exclam" unicode="!" horiz-adv-x="238" 
d="M152 760h71l-90 -563h-55zM48.5 8q-17.5 18 -17.5 41q0 24 17.5 41.5t41.5 17.5t41.5 -17.5t17.5 -41.5q0 -23 -17.5 -41t-41.5 -18t-41.5 18z" />
    <glyph glyph-name="quotedbl" unicode="&#x22;" horiz-adv-x="337" 
d="M114 640l18 120h70l-18 -120l-34 -156h-44zM260 640l18 120h70l-18 -120l-34 -156h-44z" />
    <glyph glyph-name="numbersign" unicode="#" horiz-adv-x="780" 
d="M627 498l-90 -226h92l-8 -60h-108l-85 -212h-73l85 212h-201l-85 -212h-73l85 212h-92l9 60h107l90 226h-93l9 60h108l81 202h73l-81 -202h201l81 202h73l-81 -202h91l-8 -60h-107zM554 498h-201l-90 -226h201z" />
    <glyph glyph-name="dollar" unicode="$" horiz-adv-x="691" 
d="M521.5 374.5q38.5 -21.5 60.5 -57.5t22 -92q0 -105 -72 -167t-192 -67l-16 -118h-68l17 119q-99 11 -149.5 66.5t-50.5 145.5l70 7q0 -139 139 -155l44 318l-17 5q-92 30 -134.5 75t-42.5 112q0 90 67 145t182 59l16 113h68l-16 -116q94 -12 142 -65t49 -137l-70 -9
q-2 130 -130 147l-39 -281l21 -7q61 -19 99.5 -40.5zM235.5 495.5q30.5 -28.5 100.5 -52.5l36 262q-75 -5 -121 -39.5t-46 -95.5q0 -46 30.5 -74.5zM483 106q49 44 49 115q0 39 -16 62.5t-43.5 37.5t-76.5 30l-5 2l-42 -298q85 7 134 51z" />
    <glyph glyph-name="percent" unicode="%" horiz-adv-x="855" 
d="M156.5 423.5q-33.5 39.5 -33.5 112.5q0 66 21.5 118t60 81.5t87.5 29.5q54 0 87.5 -39.5t33.5 -112.5q0 -66 -21.5 -118t-60 -81.5t-87.5 -29.5q-54 0 -87.5 39.5zM729 760h79l-660 -760h-80zM323.5 491.5q26.5 54.5 26.5 123.5q0 97 -63 97q-49 0 -75 -54t-26 -125
q0 -96 62 -96q49 0 75.5 54.5zM510 34q-33 39 -33 113q0 66 21 118t59.5 81.5t87.5 29.5q54 0 88 -39.5t34 -111.5q0 -66 -21.5 -118.5t-60 -82t-87.5 -29.5q-55 0 -88 39zM677.5 101.5q26.5 53.5 26.5 122.5q0 99 -63 99q-49 0 -75.5 -54t-26.5 -125q0 -96 63 -96
q49 0 75.5 53.5z" />
    <glyph glyph-name="ampersand" unicode="&#x26;" horiz-adv-x="709" 
d="M545 116l84 -116h-84l-47 65q-86 -75 -205 -75q-102 0 -161 54t-59 143q0 149 168 234q-30 41 -47.5 82t-17.5 85q0 51 21.5 92.5t63 65.5t99.5 24q74 0 116 -40t42 -99q0 -62 -46.5 -119.5t-136.5 -106.5l172 -237q43 68 60 165h67q-23 -129 -89 -217zM277.5 673.5
q-29.5 -33.5 -29.5 -86.5q0 -33 13.5 -66t40.5 -70q70 38 107 82t37 91q0 38 -23.5 60.5t-66.5 22.5q-49 0 -78.5 -33.5zM462 115l-188 261q-129 -69 -129 -183q0 -66 42.5 -102.5t114.5 -36.5q93 0 160 61z" />
    <glyph glyph-name="quotesingle" unicode="'" horiz-adv-x="191" 
d="M114 640l18 120h70l-18 -120l-34 -156h-44z" />
    <glyph glyph-name="parenleft" unicode="(" horiz-adv-x="339" 
d="M112 -31.5q-36 33.5 -36 96.5q0 17 3 41l81 578q13 89 57 130.5t126 41.5l-9 -63q-53 0 -75 -29.5t-30 -83.5l-80 -570q-3 -33 -3 -39q0 -35 17.5 -54.5t59.5 -19.5l-9 -63q-66 1 -102 34.5z" />
    <glyph glyph-name="parenright" unicode=")" horiz-adv-x="339" 
d="M266 821.5q36 -33.5 36 -96.5q0 -17 -3 -41l-81 -578q-13 -89 -57 -130.5t-126 -41.5l9 63q53 0 75 29.5t30 83.5l80 570q3 33 3 39q0 35 -17.5 54.5t-59.5 19.5l9 63q66 -1 102 -34.5z" />
    <glyph glyph-name="asterisk" unicode="*" horiz-adv-x="543" 
d="M357 527l81 -115l-65 -44l-65 135l-104 -135l-55 44l116 115l-142 37l36 73l133 -59l9 152h75l-32 -152l149 58l14 -72z" />
    <glyph glyph-name="plus" unicode="+" horiz-adv-x="544" 
d="M461 235h-162l-23 -162h-60l23 162h-162l9 60h161l23 162h60l-23 -162h162z" />
    <glyph glyph-name="comma" unicode="," horiz-adv-x="221" 
d="M122.5 91.5q17.5 -16.5 17.5 -43.5q0 -49 -35 -95.5t-86 -70.5l-13 22q29 23 44.5 42.5t23.5 44.5q-22 3 -36.5 19t-14.5 38q0 25 16.5 42.5t41.5 17.5q24 0 41.5 -16.5z" />
    <glyph glyph-name="hyphen" unicode="-" horiz-adv-x="426" 
d="M66 295h305l-8 -60h-305z" />
    <glyph glyph-name="period" unicode="." horiz-adv-x="218" 
d="M38.5 8q-17.5 18 -17.5 41q0 24 17.5 41.5t41.5 17.5t41.5 -17.5t17.5 -41.5q0 -23 -17.5 -41t-41.5 -18t-41.5 18z" />
    <glyph glyph-name="slash" unicode="/" horiz-adv-x="426" 
d="M374 760h73l-359 -760h-74z" />
    <glyph glyph-name="zero" unicode="0" horiz-adv-x="682" 
d="M178 25.5q-53 35.5 -81.5 101.5t-28.5 156q0 131 40 242.5t118 178t186 66.5q73 0 126 -35.5t82 -101t29 -155.5q0 -132 -40.5 -243.5t-119 -178t-186.5 -66.5q-72 0 -125 35.5zM455.5 114.5q60.5 60.5 91 156t30.5 199.5q0 114 -45.5 175t-127.5 61q-84 0 -143.5 -60
t-90 -156t-30.5 -200q0 -114 45 -175t126 -61q84 0 144.5 60.5z" />
    <glyph glyph-name="one" unicode="1" horiz-adv-x="370" 
d="M319 760l-107 -760h-72l89 628q-54 -15 -138 -15l8 56q74 0 109 19.5t50 71.5h61z" />
    <glyph glyph-name="two" unicode="2" horiz-adv-x="553" 
d="M140.5 200q-36.5 -60 -47.5 -137h383l-10 -63h-458l6 37q16 110 64 187.5t145 132.5l128 72q122 70 122 171q0 50 -35 78t-100 28t-111 -32t-65 -79l-72 5q32 81 100 125.5t156 44.5q65 0 110 -22.5t67 -60t22 -81.5q0 -77 -46 -135t-131 -105l-117 -66
q-74 -40 -110.5 -100z" />
    <glyph glyph-name="three" unicode="3" horiz-adv-x="585" 
d="M497 338q30 -47 30 -107q0 -73 -33 -127.5t-92.5 -84t-138.5 -29.5q-97 0 -158 48t-70 135l68 6q10 -69 56.5 -97t109.5 -28q83 0 134 45.5t51 125.5q0 70 -46 108.5t-139 38.5h-48l9 63h44q89 0 146 45t57 119q0 49 -32.5 78t-97.5 29q-62 0 -107.5 -29.5t-68.5 -80.5
l-71 4q33 83 99.5 126.5t153.5 43.5q60 0 104.5 -21.5t68.5 -59t24 -84.5q0 -66 -38 -117t-104 -80q59 -23 89 -70z" />
    <glyph glyph-name="four" unicode="4" horiz-adv-x="622" 
d="M600 189h-124l-27 -189h-72l27 189h-361l9 63l197 508h73l-197 -508h287l37 260h72l-37 -260h125z" />
    <glyph glyph-name="five" unicode="5" horiz-adv-x="594" 
d="M198 697l-34 -233q74 38 159 38q109 0 167 -60.5t58 -157.5q0 -85 -37 -152t-103.5 -104.5t-153.5 -37.5q-90 0 -150.5 49.5t-68.5 135.5l69 5q6 -68 51 -97.5t105 -29.5q63 0 112.5 29.5t76.5 80.5t27 115q0 79 -45.5 120t-121.5 41q-49 0 -96.5 -16.5t-85.5 -40.5
l-42 15l51 363h423l-9 -63h-352z" />
    <glyph glyph-name="six" unicode="6" horiz-adv-x="641" 
d="M491.5 474.5q50.5 -27.5 77.5 -76t27 -110.5q0 -87 -40 -155t-108 -105.5t-149 -37.5q-111 0 -174.5 67.5t-63.5 197.5q0 31 7 80q28 204 112.5 319.5t232.5 115.5q77 0 132.5 -41t70.5 -125l-69 -4q-27 106 -143 106q-102 0 -167 -86.5t-92 -224.5q41 51 100.5 79
t126.5 28q69 0 119.5 -27.5zM410 81.5q51 28.5 82.5 80t31.5 116.5q0 74 -44.5 117.5t-122.5 43.5q-58 0 -109 -27.5t-82.5 -77t-31.5 -110.5q0 -76 46.5 -123.5t123.5 -47.5q55 0 106 28.5z" />
    <glyph glyph-name="seven" unicode="7" horiz-adv-x="519" 
d="M595 760l-513 -760h-80l471 697h-395l9 63h508z" />
    <glyph glyph-name="eight" unicode="8" horiz-adv-x="620" 
d="M536.5 325q31.5 -40 31.5 -97q0 -65 -35 -119.5t-102 -86.5t-159 -32q-74 0 -127 26t-80 70t-27 97q0 78 48.5 137.5t126.5 93.5q-49 31 -70.5 71t-21.5 84q0 49 28 95t86.5 76t146.5 30q70 0 119 -23t74 -61t25 -83q0 -64 -43.5 -118t-113.5 -91q62 -29 93.5 -69z
M243 672.5q-49 -35.5 -49 -99.5q0 -44 29 -75.5t100 -57.5l56 -21q75 37 112 81t37 97q0 50 -40.5 80.5t-112.5 30.5q-83 0 -132 -35.5zM388 74.5q49 22.5 78 61.5t29 86q0 85 -125 129l-93 34q-79 -30 -123 -80t-44 -116q0 -64 47.5 -100.5t123.5 -36.5q58 0 107 22.5z" />
    <glyph glyph-name="nine" unicode="9" horiz-adv-x="641" 
d="M551.5 702q62.5 -68 62.5 -195q0 -34 -5 -82q-27 -206 -111.5 -320.5t-234.5 -114.5q-80 0 -137.5 40t-73.5 126l71 4q13 -56 52 -81t93 -25q107 0 171.5 85t91.5 225q-41 -51 -101 -78.5t-128 -27.5t-118 28.5t-76.5 78t-26.5 110.5q0 87 40 154.5t108.5 104t152.5 36.5
q107 0 169.5 -68zM428 348.5q52 27.5 83 76.5t31 111q0 76 -47 123.5t-121 47.5q-57 0 -108 -27t-82 -78t-31 -120q0 -75 44 -118t119 -43q60 0 112 27.5z" />
    <glyph glyph-name="colon" unicode=":" horiz-adv-x="220" 
d="M40.5 8q-17.5 18 -17.5 41q0 24 17.5 41.5t41.5 17.5t41.5 -17.5t17.5 -41.5q0 -23 -17.5 -41t-41.5 -18t-41.5 18zM88.5 358q-17.5 18 -17.5 41q0 24 17.5 41.5t41.5 17.5t41.5 -17.5t17.5 -41.5q0 -23 -17.5 -41t-41.5 -18t-41.5 18z" />
    <glyph glyph-name="semicolon" unicode=";" horiz-adv-x="223" 
d="M124.5 91.5q17.5 -16.5 17.5 -43.5q0 -49 -35 -95.5t-86 -70.5l-13 22q29 23 44.5 42.5t23.5 44.5q-22 3 -36.5 19t-14.5 38q0 25 16.5 42.5t41.5 17.5q24 0 41.5 -16.5zM90.5 358q-17.5 18 -17.5 41q0 24 17.5 41.5t41.5 17.5t41.5 -17.5t17.5 -41.5q0 -23 -17.5 -41
t-41.5 -18t-41.5 18z" />
    <glyph glyph-name="less" unicode="&#x3c;" horiz-adv-x="541" 
d="M486 433l-347 -163l300 -170l-10 -70l-353 202l11 76l409 201z" />
    <glyph glyph-name="equal" unicode="=" horiz-adv-x="545" 
d="M99 386h384l-10 -60h-383zM73 204h384l-8 -60h-384z" />
    <glyph glyph-name="greater" unicode="&#x3e;" horiz-adv-x="541" 
d="M59 106l347 163l-300 170l10 70l353 -202l-11 -76l-409 -201z" />
    <glyph glyph-name="question" unicode="?" horiz-adv-x="571" 
d="M206 222q8 58 22.5 96t44 69t81.5 58l40 21q91 46 91 132q0 55 -36.5 81.5t-95.5 26.5q-110 0 -183 -86l-55 31q97 119 244 119q92 0 145 -45.5t53 -122.5q0 -63 -36 -110t-105 -84l-34 -18q-48 -25 -70 -59.5t-31 -94.5l-6 -39h-73zM187.5 7.5q-17.5 17.5 -17.5 41.5
t17 41.5t42 17.5q24 0 41 -17.5t17 -41.5t-17 -41.5t-41 -17.5t-41.5 17.5z" />
    <glyph glyph-name="at" unicode="@" horiz-adv-x="1028" 
d="M792.5 727q82.5 -43 129 -120t46.5 -175q0 -84 -27 -158.5t-78 -120t-117 -45.5q-48 0 -78.5 24.5t-32.5 65.5q-70 -90 -190 -90q-73 0 -119 47.5t-46 121.5q0 77 39.5 143.5t103.5 106t132 39.5q94 0 136 -72l15 63h72l-74 -290q-6 -24 -6 -35q0 -30 18 -46.5t45 -16.5
q41 0 73 39.5t49 98.5t17 114q0 86 -38 152t-107 102t-159 36q-121 0 -223.5 -64t-162.5 -171.5t-60 -231.5q0 -89 37 -156t106.5 -103.5t163.5 -36.5q109 0 227 59l17 -54q-66 -32 -129 -48t-129 -16q-108 0 -190 45t-126 124.5t-44 180.5q0 145 69.5 267t189 193t262.5 71
q106 0 188.5 -43zM561 200q46 30 73.5 80.5t27.5 106.5q0 53 -30.5 85.5t-83.5 32.5q-51 0 -97.5 -29.5t-75 -79t-28.5 -104.5t31 -88.5t86 -33.5q51 0 97 30z" />
    <glyph glyph-name="A" unicode="A" horiz-adv-x="595" 
d="M456 142h-347l-65 -142h-75l359 760h81l145 -760h-73zM445 205l-86 485l-221 -485h307z" />
    <glyph glyph-name="B" unicode="B" horiz-adv-x="582" 
d="M519 337.5q27 -41.5 27 -95.5q0 -72 -31.5 -126.5t-91 -85t-141.5 -30.5h-246l107 760h225q99 0 150.5 -45.5t51.5 -117.5q0 -67 -33 -118.5t-96 -78.5q51 -21 78 -62.5zM205 697l-38 -269h146q89 0 136.5 46t47.5 117q0 49 -33.5 77.5t-104.5 28.5h-154zM428.5 111.5
q45.5 48.5 45.5 127.5q0 56 -38.5 91.5t-110.5 35.5h-166l-43 -303h174q93 0 138.5 48.5z" />
    <glyph glyph-name="C" unicode="C" horiz-adv-x="818" 
d="M216.5 31q-73.5 41 -114.5 117t-41 177q0 119 57.5 221.5t155.5 163t215 60.5q84 0 151 -32t110 -90t57 -135l-73 -8q-20 95 -85 148t-162 53t-178 -52t-128 -139.5t-47 -187.5q0 -82 31.5 -144t89 -95.5t134.5 -33.5q100 0 182.5 55t128.5 149l70 -9
q-56 -119 -157.5 -189t-227.5 -70q-95 0 -168.5 41z" />
    <glyph glyph-name="D" unicode="D" horiz-adv-x="752" 
d="M566 718.5q76 -41.5 118 -114t42 -162.5q0 -127 -56.5 -228t-156.5 -157.5t-224 -56.5h-253l107 760h250q97 0 173 -41.5zM476 112q83 49 130 134t47 187q0 78 -33 138t-94.5 93t-144.5 33h-176l-89 -634h174q103 0 186 49z" />
    <glyph glyph-name="E" unicode="E" horiz-adv-x="545" 
d="M205 697l-38 -269h336l-8 -62h-336l-43 -303h345l-9 -63h-416l107 760h411l-9 -63h-340z" />
    <glyph glyph-name="F" unicode="F" horiz-adv-x="502" 
d="M205 697l-38 -269h314l-8 -62h-314l-52 -366h-71l107 760h389l-9 -63h-318z" />
    <glyph glyph-name="G" unicode="G" horiz-adv-x="803" 
d="M397 397h356l-44 -311q-140 -96 -304 -96q-107 0 -184.5 40.5t-118.5 116.5t-41 179q0 120 56 222t153.5 162t215.5 60q119 0 194.5 -59t102.5 -152l-71 -8q-21 64 -79.5 109.5t-151.5 45.5q-99 0 -178.5 -53t-124 -141t-44.5 -187q0 -129 73 -200t206 -71q123 0 229 63
l31 217h-285z" />
    <glyph glyph-name="H" unicode="H" horiz-adv-x="658" 
d="M657 760l-107 -760h-71l52 366h-372l-52 -366h-71l107 760h71l-47 -332h372l47 332h71z" />
    <glyph glyph-name="I" unicode="I" horiz-adv-x="215" 
d="M143 760h71l-107 -760h-71z" />
    <glyph glyph-name="J" unicode="J" horiz-adv-x="547" 
d="M81.5 43.5q-53.5 53.5 -53.5 151.5l69 5q0 -73 33.5 -109.5t97.5 -36.5q71 0 117.5 44.5t60.5 143.5l74 518h70l-73 -519q-18 -130 -81 -190.5t-169 -60.5q-92 0 -145.5 53.5z" />
    <glyph glyph-name="K" unicode="K" horiz-adv-x="589" 
d="M348 434l190 -434h-74l-165 378l-165 -188l-27 -190h-71l107 760h71l-65 -463l406 463h80z" />
    <glyph glyph-name="L" unicode="L" horiz-adv-x="485" 
d="M435 63l-9 -63h-390l107 760h71l-98 -697h319z" />
    <glyph glyph-name="M" unicode="M" horiz-adv-x="848" 
d="M792 760l-26 -760h-69l26 658l-304 -658h-58l-121 660l-159 -660h-71l188 760h84l119 -668l306 668h85z" />
    <glyph glyph-name="N" unicode="N" horiz-adv-x="658" 
d="M657 760l-107 -760h-70l-283 648l-91 -648h-70l107 760h70l283 -648l91 648h70z" />
    <glyph glyph-name="O" unicode="O" 
d="M214.5 32q-73.5 42 -113.5 118.5t-40 176.5q0 120 58 222t157 161.5t215 59.5q96 0 169.5 -42t113.5 -118.5t40 -176.5q0 -120 -58 -222t-157 -161.5t-215 -59.5q-96 0 -169.5 42zM565 106.5q81 52.5 128.5 139.5t47.5 187q0 82 -31 143.5t-88.5 95.5t-134.5 34
q-96 0 -177 -52.5t-128.5 -140t-47.5 -187.5q0 -81 31 -143t88 -95.5t134 -33.5q97 0 178 52.5z" />
    <glyph glyph-name="P" unicode="P" horiz-adv-x="621" 
d="M555 703.5q61 -56.5 61 -163.5q0 -83 -36 -150t-103 -105.5t-157 -38.5h-178l-35 -246h-71l107 760h234q117 0 178 -56.5zM442.5 339q50.5 30 76.5 82t26 117q0 80 -42.5 119.5t-138.5 39.5h-159l-54 -388h171q70 0 120.5 30z" />
    <glyph glyph-name="Q" unicode="Q" 
d="M764.5 226.5q-49.5 -95.5 -134.5 -156.5l99 -154l-58 -41l-102 158q-89 -43 -185 -43t-169.5 42t-113.5 118.5t-40 176.5q0 120 58 222t157 161.5t215 59.5q96 0 169.5 -42t113.5 -118.5t40 -176.5q0 -111 -49.5 -206.5zM534 89l-145 225l59 39l146 -227q68 54 107.5 135
t39.5 172q0 82 -31 143.5t-88.5 95.5t-134.5 34q-96 0 -177 -52.5t-128.5 -140t-47.5 -187.5q0 -81 31 -143t88 -95.5t134 -33.5q79 0 147 35z" />
    <glyph glyph-name="R" unicode="R" horiz-adv-x="621" 
d="M566.5 369.5q-49.5 -73.5 -135.5 -104.5l103 -265h-79l-98 248q-26 -2 -41 -2h-174l-35 -246h-71l107 760h234q117 0 178 -56.5t61 -163.5q0 -97 -49.5 -170.5zM322 309q70 0 120.5 30t76.5 82t26 117q0 80 -42.5 119.5t-138.5 39.5h-159l-54 -388h171z" />
    <glyph glyph-name="S" unicode="S" horiz-adv-x="630" 
d="M102 47q-62 57 -62 157l70 7q0 -86 49.5 -121.5t128.5 -35.5q97 0 154 44.5t57 122.5q0 39 -16 62.5t-43.5 37.5t-76.5 30l-87 28q-92 30 -134.5 75t-42.5 112q0 61 32 107t91.5 71.5t140.5 25.5q120 0 181.5 -55t62.5 -150l-70 -9q-2 150 -173 150q-84 0 -138 -35
t-54 -101q0 -48 32 -76.5t106 -52.5l79 -26q61 -19 99.5 -40.5t60.5 -57.5t22 -92q0 -73 -36.5 -126.5t-101 -81t-148.5 -27.5q-121 0 -183 57z" />
    <glyph glyph-name="T" unicode="T" horiz-adv-x="586" 
d="M622 697h-231l-98 -697h-72l98 697h-231l9 63h534z" />
    <glyph glyph-name="U" unicode="U" horiz-adv-x="664" 
d="M127.5 50q-62.5 60 -62.5 167q0 25 5 63l68 480h71l-69 -486q-5 -32 -5 -56q0 -78 43.5 -121t124.5 -43q95 0 152.5 56.5t72.5 162.5l70 487h70l-68 -482q-20 -145 -93.5 -216.5t-207.5 -71.5q-109 0 -171.5 60z" />
    <glyph glyph-name="V" unicode="V" horiz-adv-x="602" 
d="M669 760l-363 -760h-82l-148 760h73l125 -687l318 687h77z" />
    <glyph glyph-name="W" unicode="W" horiz-adv-x="949" 
d="M1006 760l-312 -760h-78l-87 649l-267 -649h-77l-99 760h72l77 -673l279 673h65l87 -676l264 676h76z" />
    <glyph glyph-name="X" unicode="X" horiz-adv-x="568" 
d="M341 387l186 -387h-73l-156 326l-250 -326h-79l297 387l-179 373h74l148 -311l237 311h79z" />
    <glyph glyph-name="Y" unicode="Y" horiz-adv-x="551" 
d="M621 760l-495 -760h-75l211 324l-180 436h74l148 -371l242 371h75z" />
    <glyph glyph-name="Z" unicode="Z" horiz-adv-x="583" 
d="M118 61h397l-9 -61h-510l502 699h-376l10 61h487z" />
    <glyph glyph-name="bracketleft" unicode="[" horiz-adv-x="372" 
d="M247 796l-113 -802h120l-7 -60h-191l129 922h185l-8 -60h-115z" />
    <glyph glyph-name="backslash" unicode="\" horiz-adv-x="640" 
d="M195 760h-73l359 -760h74z" />
    <glyph glyph-name="bracketright" unicode="]" horiz-adv-x="372" 
d="M164 -8l113 802h-120l7 60h191l-129 -922h-185l8 60h115z" />
    <glyph glyph-name="asciicircum" unicode="^" horiz-adv-x="485" 
d="M357 400l-69 165l-116 -165h-72l155 214h76l94 -214h-68z" />
    <glyph glyph-name="underscore" unicode="_" horiz-adv-x="611" 
d="M-19 -90h550l-7 -60h-550z" />
    <glyph glyph-name="grave" unicode="`" horiz-adv-x="317" 
d="M213 760l101 -170h-56l-137 170h92z" />
    <glyph glyph-name="a" unicode="a" horiz-adv-x="615" 
d="M585 512l-72 -512h-62l10 100q-35 -51 -89 -80.5t-117 -29.5q-60 0 -108.5 28.5t-76.5 80.5t-28 120q0 87 39 156t104.5 107.5t141.5 38.5q63 0 108.5 -28.5t66.5 -79.5l14 99h69zM377.5 84.5q50.5 32.5 79.5 87.5t29 119q0 76 -42 122t-115 46q-59 0 -108.5 -29.5
t-79 -83t-29.5 -122.5q0 -81 42 -126.5t113 -45.5q60 0 110.5 32.5z" />
    <glyph glyph-name="b" unicode="b" horiz-adv-x="616" 
d="M471.5 492q48.5 -29 75.5 -80.5t27 -115.5q0 -90 -38.5 -159.5t-104 -108t-142.5 -38.5q-63 0 -109.5 28.5t-67.5 78.5l-18 -97h-64l107 760h70l-49 -344q35 49 87.5 77t116.5 28q61 0 109.5 -29zM395.5 82q49.5 30 79 84.5t29.5 124.5q0 79 -42.5 123.5t-113.5 44.5
q-62 0 -112 -32t-78 -86.5t-28 -118.5q0 -77 42.5 -123.5t115.5 -46.5q58 0 107.5 30z" />
    <glyph glyph-name="c" unicode="c" horiz-adv-x="576" 
d="M146 18.5q-50 28.5 -77 79.5t-27 116q0 89 38 159t104.5 109t148.5 39q84 0 141 -44.5t73 -120.5l-71 -8q-12 53 -51 82t-93 29q-65 0 -115 -31t-77.5 -85.5t-27.5 -120.5q0 -79 42 -124.5t114 -45.5q60 0 111.5 33t76.5 90l67 -8q-33 -82 -102 -129.5t-161 -47.5
q-64 0 -114 28.5z" />
    <glyph glyph-name="d" unicode="d" horiz-adv-x="616" 
d="M620 760l-106 -760h-63l10 101q-35 -52 -89 -81.5t-116 -29.5q-61 0 -109.5 28.5t-76.5 80.5t-28 120q0 87 39 156t104.5 107.5t141.5 38.5q63 0 108.5 -28.5t66.5 -79.5l48 347h70zM377.5 84.5q50.5 32.5 79.5 87.5t29 119q0 77 -42 122.5t-116 45.5q-58 0 -107.5 -29.5
t-79 -83.5t-29.5 -123q0 -79 42.5 -125t112.5 -46q60 0 110.5 32.5z" />
    <glyph glyph-name="e" unicode="e" horiz-adv-x="580" 
d="M112 231v-14q0 -77 43 -121t110 -44q60 0 106.5 28t75.5 77l69 -9q-39 -75 -105 -116.5t-150 -41.5q-65 0 -114.5 29.5t-77 80.5t-27.5 114q0 85 36.5 155t102 111t148.5 41q67 0 114 -28t71.5 -76.5t24.5 -109.5q0 -22 -6 -76h-421zM196.5 413q-56.5 -46 -75.5 -122h348
v11q0 76 -38 116.5t-104 40.5q-74 0 -130.5 -46z" />
    <glyph glyph-name="f" unicode="f" horiz-adv-x="315" 
d="M240.5 684q-24.5 -24 -32.5 -87l-12 -85h140l-10 -61h-139l-63 -451h-70l63 451h-77l15 61h70l13 91q13 91 56.5 129t110.5 38q56 0 92 -22l-13 -58q-39 18 -77 18q-42 0 -66.5 -24z" />
    <glyph glyph-name="g" unicode="g" horiz-adv-x="616" 
d="M586 512l-63 -447q-37 -269 -278 -269q-82 0 -134 33t-69 84l70 14q14 -34 48.5 -53.5t87.5 -19.5q86 0 138 51t66 150l6 40q-36 -49 -89 -77t-113 -28q-61 0 -110 29t-76.5 81t-27.5 118q0 88 39 157t104.5 107.5t143.5 38.5q61 0 107.5 -29.5t66.5 -81.5l19 102h64z
M378 84.5q50 32.5 79 87.5t29 120q0 75 -42.5 121t-113.5 46q-59 0 -109 -29.5t-79.5 -83t-29.5 -121.5q0 -81 41.5 -127t115.5 -46q59 0 109 32.5z" />
    <glyph glyph-name="h" unicode="h" horiz-adv-x="566" 
d="M473 476.5q43 -44.5 43 -117.5q0 -18 -4 -46l-43 -313h-70l43 307q3 23 3 41q0 57 -28.5 85.5t-88.5 28.5q-78 0 -126.5 -54t-62.5 -128l-39 -280h-70l107 760h70l-49 -345q34 52 84 79t108 27q80 0 123 -44.5z" />
    <glyph glyph-name="i" unicode="i" horiz-adv-x="204" 
d="M120 630q-17 17 -17 40q0 24 17 40.5t40 16.5t40 -16.5t17 -40.5q0 -23 -17 -40t-40 -17t-40 17zM102 512h70l-71 -512h-70z" />
    <glyph glyph-name="j" unicode="j" horiz-adv-x="218" 
d="M134.5 630q-16.5 17 -16.5 40q0 24 16.5 40.5t40.5 16.5q23 0 39.5 -16.5t16.5 -40.5q0 -23 -16.5 -40t-39.5 -17q-24 0 -40.5 17zM-143 -188l13 60q40 -14 77 -14q44 0 65 24.5t29 85.5l76 544h70l-78 -557q-13 -85 -54 -122t-106 -37q-55 0 -92 16z" />
    <glyph glyph-name="k" unicode="k" horiz-adv-x="483" 
d="M284 321l162 -321h-72l-141 273l-109 -102l-24 -171h-70l107 760h70l-69 -493l261 245h90z" />
    <glyph glyph-name="l" unicode="l" horiz-adv-x="256" 
d="M81.5 15q-34.5 25 -34.5 84q0 22 3 47l87 614h70l-86 -611q-3 -21 -3 -37q0 -36 17 -48t58 -12h7l-4 -62h-14q-66 0 -100.5 25z" />
    <glyph glyph-name="m" unicode="m" horiz-adv-x="864" 
d="M770 480.5q45 -40.5 45 -118.5q0 -18 -3 -41l-45 -321h-70l43 307q4 30 4 43q0 112 -103 112q-74 0 -117 -58t-53 -137l-37 -267h-70l43 307q3 21 3 44q0 56 -26.5 83.5t-77.5 27.5q-68 0 -109.5 -51.5t-55.5 -122.5l-41 -288h-70l72 512h63l-7 -94q31 50 74.5 76.5
t95.5 26.5q59 0 99.5 -33t51.5 -88q31 59 78 90t101 31q67 0 112 -40.5z" />
    <glyph glyph-name="n" unicode="n" horiz-adv-x="566" 
d="M473 476.5q43 -44.5 43 -117.5q0 -18 -4 -46l-43 -313h-70l43 307q3 23 3 41q0 57 -28.5 85.5t-88.5 28.5q-77 0 -125 -51.5t-63 -124.5l-40 -286h-70l72 512h63l-8 -99q34 54 84 81t109 27q80 0 123 -44.5z" />
    <glyph glyph-name="o" unicode="o" horiz-adv-x="597" 
d="M148 18.5q-50 28.5 -78 80t-28 118.5q0 87 38 156.5t105 108.5t150 39q65 0 115 -28.5t77.5 -79.5t27.5 -118q0 -88 -37.5 -157.5t-104.5 -108.5t-151 -39q-64 0 -114 28.5zM376 82q50 30 79.5 84.5t29.5 124.5q0 80 -42 124t-112 44q-60 0 -110 -30t-79.5 -84.5
t-29.5 -123.5q0 -80 42 -124.5t112 -44.5q60 0 110 30z" />
    <glyph glyph-name="p" unicode="p" horiz-adv-x="616" 
d="M473 492q48 -29 74.5 -80t26.5 -116q0 -90 -39 -159.5t-104 -108t-142 -38.5q-62 0 -108 28t-68 76l-40 -288h-70l99 706h63l-10 -104q34 54 88 83.5t120 29.5q62 0 110 -29zM396.5 82q48.5 30 78 84.5t29.5 123.5q0 80 -42.5 124.5t-113.5 44.5q-62 0 -112 -32
t-78 -86.5t-28 -118.5q0 -77 43 -123.5t118 -46.5q57 0 105.5 30z" />
    <glyph glyph-name="q" unicode="q" horiz-adv-x="612" 
d="M586 512l-100 -706h-70l42 292q-35 -50 -88.5 -79t-113.5 -29q-61 0 -110 29t-76.5 81t-27.5 119q0 88 39 157t104.5 107t141.5 38q63 0 109.5 -29.5t66.5 -81.5l19 102h64zM377.5 84.5q50.5 32.5 79.5 87.5t29 119q0 77 -42 122.5t-116 45.5q-58 0 -107.5 -29.5
t-79 -83.5t-29.5 -123q0 -79 42.5 -125t112.5 -46q60 0 110.5 32.5z" />
    <glyph glyph-name="r" unicode="r" horiz-adv-x="353" 
d="M368 519l-15 -73q-20 5 -44 5q-67 0 -110.5 -51t-60.5 -134l-38 -266h-70l72 512h63l-8 -103q32 55 78 83.5t96 28.5q27 0 37 -2z" />
    <glyph glyph-name="s" unicode="s" horiz-adv-x="467" 
d="M65 30.5q-45 40.5 -45 111.5l70 8q0 -50 26 -74t85 -24q66 0 105 24.5t39 76.5q0 23 -13 37.5t-35 24t-64 23.5l-34 12q-70 22 -105 50.5t-35 78.5q0 67 54 104.5t145 37.5q79 0 126.5 -38t47.5 -101l-70 -7q-1 38 -27.5 61t-83.5 23q-58 0 -90 -21t-32 -58
q0 -24 21.5 -38.5t70.5 -30.5l41 -14q52 -17 83.5 -33t50.5 -41.5t19 -64.5q0 -84 -59.5 -126t-154.5 -42q-91 0 -136 40.5z" />
    <glyph glyph-name="t" unicode="t" horiz-adv-x="333" 
d="M144 148q-3 -18 -3 -35q0 -34 15 -48t48 -14q35 0 67 8l-4 -58q-41 -11 -78 -11q-54 0 -86 28t-32 87q0 20 3 42l43 304h-77l12 61h73l18 128h70l-18 -128h129l-8 -61h-130z" />
    <glyph glyph-name="u" unicode="u" horiz-adv-x="554" 
d="M524 512l-71 -512h-64l9 98q-33 -53 -82 -80.5t-107 -27.5q-74 0 -117 45t-43 113q0 20 3 41l45 323h70l-44 -316q-3 -21 -3 -40q0 -106 117 -106q70 0 115.5 50t60.5 120l41 292h70z" />
    <glyph glyph-name="v" unicode="v" horiz-adv-x="497" 
d="M532 512l-279 -512h-80l-136 512h72l111 -445l235 445h77z" />
    <glyph glyph-name="w" unicode="w" horiz-adv-x="774" 
d="M799 512l-235 -512h-78l-76 423l-193 -423h-78l-92 512h70l70 -438l201 438h67l79 -437l191 437h74z" />
    <glyph glyph-name="x" unicode="x" horiz-adv-x="459" 
d="M271 260l146 -260h-74l-117 209l-175 -209h-81l225 266l-140 246h75l108 -194l163 194h81z" />
    <glyph glyph-name="y" unicode="y" horiz-adv-x="555" 
d="M524 512l-65 -466q-17 -122 -81 -186t-170 -64q-77 0 -123.5 32t-57.5 84l67 14q8 -34 37.5 -53t80.5 -19q151 0 177 191l7 50q-33 -52 -81.5 -78.5t-105.5 -26.5q-74 0 -117 45t-43 113q0 20 3 41l45 323h70l-44 -316q-3 -21 -3 -40q0 -106 117 -106q71 0 116.5 50.5
t60.5 122.5l40 289h70z" />
    <glyph glyph-name="z" unicode="z" horiz-adv-x="469" 
d="M118 60h287l-9 -60h-405l356 451h-269l13 61h384z" />
    <glyph glyph-name="braceleft" unicode="{" horiz-adv-x="435" 
d="M438 856l-8 -59q-51 0 -75 -24t-32 -75l-25 -181q-6 -44 -28 -74.5t-54 -47.5q50 -30 50 -94q0 -22 -2 -36l-25 -173q-2 -18 -2 -26q0 -38 18 -55.5t62 -17.5l-7 -59h-14q-62 0 -95.5 34.5t-33.5 90.5q0 25 4 49l22 155q3 23 3 37q0 33 -18.5 49.5t-61.5 16.5l2 11h-1
l7 47q51 0 74.5 23.5t29.5 69.5l24 167q13 91 51.5 131.5t116.5 40.5h18z" />
    <glyph glyph-name="bar" unicode="|" horiz-adv-x="311" 
d="M191 760h71l-135 -954h-71z" />
    <glyph glyph-name="braceright" unicode="}" horiz-adv-x="436" 
d="M36 -66l8 59q51 0 75 24t32 75l25 181q6 44 28 74.5t54 47.5q-50 30 -50 94q0 22 2 36l25 173q2 18 2 26q0 38 -18 55.5t-62 17.5l7 59h14q62 0 95.5 -34.5t33.5 -90.5q0 -25 -4 -49l-22 -155q-3 -23 -3 -37q0 -33 18.5 -49.5t61.5 -16.5l-2 -11h1l-7 -47
q-51 0 -74.5 -23.5t-29.5 -69.5l-24 -167q-13 -91 -51.5 -131.5t-116.5 -40.5h-18z" />
    <glyph glyph-name="asciitilde" unicode="~" horiz-adv-x="589" 
d="M368 413q-23 7 -54 20q-31 14 -52.5 20.5t-49.5 6.5q-33 0 -59 -10t-50 -31l10 65q43 37 109 37q28 0 52.5 -7t54.5 -21q32 -13 54.5 -19.5t49.5 -6.5q64 0 112 42l-10 -66q-22 -17 -51.5 -27t-63.5 -10q-29 0 -52 7z" />
    <glyph glyph-name="uni00A0" unicode="&#xa0;" horiz-adv-x="222" 
 />
    <glyph glyph-name="exclamdown" unicode="&#xa1;" horiz-adv-x="239" 
d="M197.5 558q17.5 -18 17.5 -41q0 -24 -17.5 -41.5t-41.5 -17.5t-41.5 17.5t-17.5 41.5q0 23 17.5 41t41.5 18t41.5 -18zM94 -194h-71l90 563h55z" />
    <glyph glyph-name="cent" unicode="&#xa2;" horiz-adv-x="651" 
d="M427 92.5q43 31.5 65 82.5l67 -8q-30 -76 -91.5 -122.5t-143.5 -53.5l-17 -118h-68l17 120q-81 13 -129.5 73.5t-48.5 147.5q0 82 32 148t89 106.5t129 49.5l17 120h69l-17 -118q73 -7 122.5 -51t63.5 -113l-71 -8q-10 48 -43 76.5t-80 33.5l-57 -404q52 7 95 38.5z
M179 111.5q31 -43.5 85 -55.5l56 398q-79 -16 -125.5 -80t-46.5 -152q0 -67 31 -110.5z" />
    <glyph glyph-name="sterling" unicode="&#xa3;" horiz-adv-x="623" 
d="M299.5 155q-21.5 -51 -58.5 -94h275l-10 -61h-444l9 61h85q96 94 96 184q0 24 -6 46h-147l9 61h111q-14 23 -30 45q-30 44 -47.5 81.5t-17.5 79.5q0 59 30 107.5t85.5 76.5t127.5 28q88 0 144.5 -47t69.5 -136l-70 -5q-10 56 -46.5 90t-102.5 34q-72 0 -119.5 -39
t-47.5 -104q0 -34 14.5 -64t44.5 -74q31 -45 44 -73h201l-9 -61h-172q3 -16 3 -35q0 -50 -21.5 -101z" />
    <glyph glyph-name="currency" unicode="&#xa4;" horiz-adv-x="710" 
d="M594.5 293q-17.5 -47 -49.5 -84l68 -78l-57 -51l-67 78q-72 -48 -156 -48q-83 0 -140 46l-86 -76l-43 51l86 75q-30 52 -30 116q0 52 18 99t51 85l-63 73l57 51l64 -74q68 45 152 45q43 0 80 -12.5t64 -36.5l89 78l43 -51l-90 -79q27 -49 27 -109q0 -51 -17.5 -98z
M232.5 213q41.5 -41 107.5 -41q54 0 100.5 27.5t73.5 76.5t27 110q0 71 -41 112t-108 41q-57 0 -103 -29t-72 -78t-26 -107q0 -71 41.5 -112z" />
    <glyph glyph-name="yen" unicode="&#xa5;" horiz-adv-x="680" 
d="M422 392h150l-10 -61h-175l-11 -80h176l-9 -61h-176l-26 -190h-72l27 190h-176l9 61h175l12 80h-177l9 61h148l-145 368h74l133 -354l235 354h79z" />
    <glyph glyph-name="brokenbar" unicode="&#xa6;" horiz-adv-x="312" 
d="M191 760h71l-47 -334h-71zM104 140h71l-48 -334h-71z" />
    <glyph glyph-name="section" unicode="&#xa7;" horiz-adv-x="626" 
d="M499 192.5q-24 -42.5 -68 -73.5q58 -46 58 -116q0 -92 -60.5 -149.5t-175.5 -57.5q-96 0 -151.5 53t-57.5 148l70 8q3 -145 143 -145q72 0 116 35t44 95q0 40 -25 66t-71 45l-51 22q-54 23 -86.5 43t-52 48.5t-19.5 68.5q0 52 24.5 95t69.5 74q-59 47 -59 118
q0 93 61 146.5t173 53.5q95 0 151.5 -54.5t57.5 -146.5l-70 -8q-1 67 -38 106t-108 39q-73 0 -114 -33.5t-41 -95.5q0 -37 24.5 -63t71.5 -45l51 -21q80 -34 118.5 -68.5t38.5 -92.5q0 -52 -24 -94.5zM430.5 206q20.5 34 20.5 70t-27 61.5t-92 51.5l-48 19q-3 1 -24 10
q-34 -20 -54.5 -54t-20.5 -70t26.5 -61.5t92.5 -51.5l47 -19q9 -3 25 -11q34 21 54.5 55z" />
    <glyph glyph-name="dieresis" unicode="&#xa8;" horiz-adv-x="377" 
d="M123.5 635q-14.5 15 -14.5 36q0 22 14.5 37t36.5 15q21 0 36 -15t15 -37q0 -21 -15 -36t-36 -15q-22 0 -36.5 15zM298 635q-15 15 -15 36q0 22 15 37t37 15q21 0 35.5 -15t14.5 -37q0 -21 -14.5 -36t-35.5 -15q-22 0 -37 15z" />
    <glyph glyph-name="copyright" unicode="&#xa9;" horiz-adv-x="980" 
d="M298 42q-93 52 -145 141.5t-52 196.5t52 196.5t145 141.5t210 52q116 0 208.5 -52t144.5 -141.5t52 -196.5t-52 -196.5t-144.5 -141.5t-208.5 -52q-117 0 -210 52zM687.5 88.5q79.5 45.5 124 122.5t44.5 169t-44.5 169t-124 122.5t-179.5 45.5t-180 -45.5t-124.5 -122.5
t-44.5 -169t44.5 -169t124.5 -122.5t180 -45.5t179.5 45.5zM392 169.5q-52 30.5 -81 85.5t-29 125q0 71 30 126t82 85.5t117 30.5q76 0 133.5 -41t81.5 -110l-65 -7q-19 48 -58.5 74.5t-91.5 26.5q-47 0 -84.5 -22.5t-59 -64.5t-21.5 -98q0 -55 21.5 -97t59 -64.5
t84.5 -22.5q54 0 95.5 29.5t59.5 81.5l61 -7q-21 -73 -79 -117t-137 -44q-67 0 -119 30.5z" />
    <glyph glyph-name="ordfeminine" unicode="&#xaa;" horiz-adv-x="482" 
d="M493 760l-49 -346h-54l4 53q-27 -28 -62 -43.5t-75 -15.5q-69 0 -110.5 45t-41.5 114q0 57 28 103.5t74 73t99 26.5q40 0 71.5 -16.5t50.5 -46.5l8 53h57zM340 480q32 19 51 52.5t19 74.5q0 51 -29.5 80t-75.5 29q-37 0 -69.5 -17.5t-52 -50t-19.5 -73.5
q0 -51 29.5 -82.5t77.5 -31.5q37 0 69 19z" />
    <glyph glyph-name="guillemotleft" unicode="&#xab;" horiz-adv-x="455" 
d="M197 480h75l-139 -208l80 -208h-70l-80 211zM352 480h75l-139 -208l80 -208h-70l-80 211z" />
    <glyph glyph-name="logicalnot" unicode="&#xac;" horiz-adv-x="610" 
d="M550 403l-28 -203h-65l21 143h-386l9 60h449z" />
    <glyph glyph-name="uni00AD" unicode="&#xad;" horiz-adv-x="426" 
d="M66 295h305l-8 -60h-305z" />
    <glyph glyph-name="registered" unicode="&#xae;" horiz-adv-x="702" 
d="M526.5 735.5q61.5 -34.5 95.5 -93t34 -128.5t-34 -129t-95.5 -93.5t-139.5 -34.5t-139.5 34.5t-95.5 93t-34 129.5q0 70 34 128.5t95.5 93t139.5 34.5t139.5 -34.5zM499.5 332.5q49.5 27.5 76.5 75.5t27 106q0 57 -27.5 105t-76.5 75.5t-112 27.5t-112 -27.5t-76.5 -75.5
t-27.5 -105q0 -58 27 -106t76.5 -75.5t112.5 -27.5t112.5 27.5zM469.5 523.5q-11.5 -18.5 -31.5 -29.5l45 -98h-56l-40 88h-27v-88h-52v252h87q39 0 62.5 -22.5t23.5 -58.5q0 -25 -11.5 -43.5zM360 529h26q21 0 33 10.5t12 27.5q0 15 -11.5 25.5t-30.5 10.5h-29v-74z" />
    <glyph glyph-name="macron" unicode="&#xaf;" horiz-adv-x="374" 
d="M114 711h274l-8 -55h-274z" />
    <glyph glyph-name="degree" unicode="&#xb0;" horiz-adv-x="417" 
d="M198.5 530.5q-29.5 17.5 -46.5 47t-17 63.5q0 35 17 64.5t46.5 47t64.5 17.5t64.5 -17.5t46.5 -47t17 -64.5q0 -34 -17 -63.5t-46.5 -47t-64.5 -17.5t-64.5 17.5zM319 585.5q23 23.5 23 55.5q0 33 -23 56t-56 23q-32 0 -55.5 -23t-23.5 -56q0 -32 23.5 -55.5t55.5 -23.5
q33 0 56 23.5z" />
    <glyph glyph-name="plusminus" unicode="&#xb1;" horiz-adv-x="556" 
d="M481 377h-162l-23 -162h-60l23 162h-162l9 60h161l23 162h60l-23 -162h162zM70 99h383l-8 -60h-384z" />
    <glyph glyph-name="uni00B2" unicode="&#xb2;" horiz-adv-x="426" 
d="M199 491.5q-18 -20.5 -26 -47.5h199l-8 -53h-264l3 25q8 54 35 91t84 69l51 28q31 18 44 32.5t13 36.5q0 19 -13.5 30t-39.5 11q-24 0 -43.5 -10.5t-27.5 -27.5l-65 5q21 43 58 64t86 21q55 0 82.5 -25.5t27.5 -62.5q0 -38 -22.5 -63.5t-65.5 -50.5l-55 -32
q-35 -20 -53 -40.5z" />
    <glyph glyph-name="uni00B3" unicode="&#xb3;" horiz-adv-x="423" 
d="M363.5 554q13.5 -21 13.5 -48q0 -54 -40.5 -87t-101.5 -33q-51 0 -83.5 22t-41.5 63l64 4q8 -37 61 -37q36 0 58 19t22 52q0 52 -78 52h-39l7 46h27q43 0 66.5 17t23.5 48q0 19 -13 30.5t-38 11.5q-23 0 -42 -10.5t-26 -26.5l-61 4q17 40 54 62.5t86 22.5q48 0 76 -24.5
t28 -61.5q0 -63 -64 -93q28 -12 41.5 -33z" />
    <glyph glyph-name="acute" unicode="&#xb4;" horiz-adv-x="269" 
d="M153 590h-56l101 170h92z" />
    <glyph glyph-name="uni00B5" unicode="&#xb5;" horiz-adv-x="601" 
d="M557 512l-72 -512h-65l10 94q-37 -51 -89 -77.5t-109 -26.5q-71 0 -114 38l-31 -222h-70l53 375l1 10l6 45l37 260h1l2 16h70l-43 -305q-3 -19 -3 -38q0 -58 30.5 -88.5t87.5 -30.5q53 0 94 28t65.5 72.5t30.5 93.5h1l37 268h70z" />
    <glyph glyph-name="paragraph" unicode="&#xb6;" horiz-adv-x="740" 
d="M722 702h-82l-126 -896h-59l127 896h-145l-127 -896h-58l68 483q-58 0 -105 26.5t-73.5 73t-26.5 102.5q0 71 38 132.5t100.5 99t132.5 37.5h345z" />
    <glyph glyph-name="periodcentered" unicode="&#xb7;" horiz-adv-x="218" 
d="M86 343.5q-17 17.5 -17 41.5t17 41.5t42 17.5q24 0 41 -17.5t17 -41.5t-17 -41.5t-41 -17.5q-25 0 -42 17.5z" />
    <glyph glyph-name="cedilla" unicode="&#xb8;" horiz-adv-x="277" 
d="M153.5 -58q21.5 -18 21.5 -50q0 -47 -31.5 -71.5t-79.5 -24.5q-22 0 -43 5t-33 14l20 37q20 -12 47 -12q25 0 39 12.5t14 34.5q0 16 -9 24t-26 8q-21 0 -41 -13l-21 13l41 98h50l-21 -58q5 1 15 1q36 0 57.5 -18z" />
    <glyph glyph-name="uni00B9" unicode="&#xb9;" horiz-adv-x="298" 
d="M289 760l-52 -371h-65l40 285q-24 -8 -74 -8l6 51q47 0 69.5 9.5t29.5 33.5h46z" />
    <glyph glyph-name="ordmasculine" unicode="&#xba;" horiz-adv-x="479" 
d="M181 428.5q-36 20.5 -55.5 56t-19.5 78.5q0 59 27.5 106t74 74t101.5 27q71 0 114.5 -44.5t43.5 -112.5q0 -58 -27.5 -105t-74 -73.5t-101.5 -26.5q-47 0 -83 20.5zM337.5 479.5q31.5 18.5 51 52t19.5 76.5q0 47 -30 77.5t-76 30.5q-36 0 -67.5 -18t-51 -51.5
t-19.5 -77.5q0 -47 30 -77.5t77 -30.5q35 0 66.5 18.5z" />
    <glyph glyph-name="guillemotright" unicode="&#xbb;" horiz-adv-x="455" 
d="M263 64h-75l139 208l-80 208h70l80 -211zM108 64h-75l139 208l-80 208h70l80 -211z" />
    <glyph glyph-name="onequarter" unicode="&#xbc;" horiz-adv-x="927" 
d="M289 760l-52 -371h-65l40 285q-24 -8 -74 -8l6 51q47 0 69.5 9.5t29.5 33.5h46zM708 760h79l-660 -760h-80zM825 98h-62l-14 -97h-61l14 97h-191l8 53l100 220h62l-100 -220h129l16 112h61l-16 -112h62z" />
    <glyph glyph-name="onehalf" unicode="&#xbd;" horiz-adv-x="888" 
d="M289 760l-52 -371h-65l40 285q-24 -8 -74 -8l6 51q47 0 69.5 9.5t29.5 33.5h46zM607 101.5q-18 -20.5 -26 -47.5h199l-8 -53h-264l3 25q8 54 35 91t84 69l51 28q31 18 44 32.5t13 36.5q0 19 -13.5 30t-39.5 11q-24 0 -43.5 -10.5t-27.5 -27.5l-65 5q21 43 58 64t86 21
q55 0 82.5 -25.5t27.5 -62.5q0 -38 -22.5 -63.5t-65.5 -50.5l-55 -32q-35 -20 -53 -40.5zM708 760h79l-660 -760h-80z" />
    <glyph glyph-name="threequarters" unicode="&#xbe;" horiz-adv-x="990" 
d="M363.5 554q13.5 -21 13.5 -48q0 -54 -40.5 -87t-101.5 -33q-51 0 -83.5 22t-41.5 63l64 4q8 -37 61 -37q36 0 58 19t22 52q0 52 -78 52h-39l7 46h27q43 0 66.5 17t23.5 48q0 19 -13 30.5t-38 11.5q-23 0 -42 -10.5t-26 -26.5l-61 4q17 40 54 62.5t86 22.5q48 0 76 -24.5
t28 -61.5q0 -63 -64 -93q28 -12 41.5 -33zM771 760h79l-660 -760h-80zM888 98h-62l-14 -97h-61l14 97h-191l8 53l100 220h62l-100 -220h129l16 112h61l-16 -112h62z" />
    <glyph glyph-name="questiondown" unicode="&#xbf;" horiz-adv-x="571" 
d="M372 344q-8 -58 -22.5 -96t-44 -69t-81.5 -58l-40 -21q-91 -46 -91 -132q0 -55 36.5 -81.5t95.5 -26.5q110 0 183 86l55 -31q-97 -119 -244 -119q-92 0 -145 45.5t-53 122.5q0 63 36 110t105 84l34 18q48 25 70 59.5t31 94.5l6 39h73zM390.5 558.5q17.5 -17.5 17.5 -41.5
t-17 -41.5t-42 -17.5q-24 0 -41 17.5t-17 41.5t17 41.5t41 17.5t41.5 -17.5z" />
    <glyph glyph-name="Agrave" unicode="&#xc0;" horiz-adv-x="595" 
d="M456 142h-347l-65 -142h-75l359 760h81l145 -760h-73zM445 205l-86 485l-221 -485h307zM311 1008l101 -170h-56l-137 170h92z" />
    <glyph glyph-name="Aacute" unicode="&#xc1;" horiz-adv-x="595" 
d="M456 142h-347l-65 -142h-75l359 760h81l145 -760h-73zM445 205l-86 485l-221 -485h307zM406 838h-56l101 170h92z" />
    <glyph glyph-name="Acircumflex" unicode="&#xc2;" horiz-adv-x="595" 
d="M456 142h-347l-65 -142h-75l359 760h81l145 -760h-73zM445 205l-86 485l-221 -485h307zM467 840l-75 117l-111 -117h-86l169 168h62l121 -168h-80z" />
    <glyph glyph-name="Atilde" unicode="&#xc3;" horiz-adv-x="595" 
d="M456 142h-347l-65 -142h-75l359 760h81l145 -760h-73zM445 205l-86 485l-221 -485h307zM371 918q-17 13 -27.5 18.5t-22.5 5.5q-15 0 -31.5 -10.5t-29.5 -30.5l-47 22q45 72 117 72q25 0 44.5 -9.5t38.5 -24.5q17 -12 28 -18t22 -6q15 0 32 10.5t31 31.5l48 -18
q-26 -37 -57.5 -57t-67.5 -20q-39 0 -78 34z" />
    <glyph glyph-name="Adieresis" unicode="&#xc4;" horiz-adv-x="595" 
d="M456 142h-347l-65 -142h-75l359 760h81l145 -760h-73zM445 205l-86 485l-221 -485h307zM267.5 883q-14.5 15 -14.5 36q0 22 14.5 37t36.5 15q21 0 36 -15t15 -37q0 -21 -15 -36t-36 -15q-22 0 -36.5 15zM442 883q-15 15 -15 36q0 22 15 37t37 15q21 0 35.5 -15t14.5 -37
q0 -21 -14.5 -36t-35.5 -15q-22 0 -37 15z" />
    <glyph glyph-name="Aring" unicode="&#xc5;" horiz-adv-x="595" 
d="M456 142h-347l-65 -142h-75l359 760h81l145 -760h-73zM445 205l-86 485l-221 -485h307zM309 864.5q-31 31.5 -31 76.5q0 44 31 75.5t76 31.5t76 -31.5t31 -75.5q0 -45 -31 -76.5t-76 -31.5t-76 31.5zM431 893.5q19 19.5 19 47.5t-19 47t-46 19t-46 -19t-19 -47t19 -47.5
t46 -19.5t46 19.5z" />
    <glyph glyph-name="AE" unicode="&#xc6;" horiz-adv-x="906" 
d="M578 699l-38 -271h324l-8 -62h-324l-43 -305h334l-9 -61h-405l26 186h-275l-127 -186h-74l519 760h438l-10 -61h-328zM444 247l63 447l-305 -447h242z" />
    <glyph glyph-name="Ccedilla" unicode="&#xc7;" horiz-adv-x="818" 
d="M216.5 31q-73.5 41 -114.5 117t-41 177q0 119 57.5 221.5t155.5 163t215 60.5q84 0 151 -32t110 -90t57 -135l-73 -8q-20 95 -85 148t-162 53t-178 -52t-128 -139.5t-47 -187.5q0 -82 31.5 -144t89 -95.5t134.5 -33.5q100 0 182.5 55t128.5 149l70 -9
q-56 -119 -157.5 -189t-227.5 -70q-95 0 -168.5 41zM439.5 -58q21.5 -18 21.5 -50q0 -47 -31.5 -71.5t-79.5 -24.5q-22 0 -43 5t-33 14l20 37q20 -12 47 -12q25 0 39 12.5t14 34.5q0 16 -9 24t-26 8q-21 0 -41 -13l-21 13l41 98h50l-21 -58q5 1 15 1q36 0 57.5 -18z" />
    <glyph glyph-name="Egrave" unicode="&#xc8;" horiz-adv-x="545" 
d="M205 697l-38 -269h336l-8 -62h-336l-43 -303h345l-9 -63h-416l107 760h411l-9 -63h-340zM290 1008l101 -170h-56l-137 170h92z" />
    <glyph glyph-name="Eacute" unicode="&#xc9;" horiz-adv-x="545" 
d="M205 697l-38 -269h336l-8 -62h-336l-43 -303h345l-9 -63h-416l107 760h411l-9 -63h-340zM385 838h-56l101 170h92z" />
    <glyph glyph-name="Ecircumflex" unicode="&#xca;" horiz-adv-x="545" 
d="M205 697l-38 -269h336l-8 -62h-336l-43 -303h345l-9 -63h-416l107 760h411l-9 -63h-340zM446 840l-75 117l-111 -117h-86l169 168h62l121 -168h-80z" />
    <glyph glyph-name="Edieresis" unicode="&#xcb;" horiz-adv-x="545" 
d="M205 697l-38 -269h336l-8 -62h-336l-43 -303h345l-9 -63h-416l107 760h411l-9 -63h-340zM246.5 883q-14.5 15 -14.5 36q0 22 14.5 37t36.5 15q21 0 36 -15t15 -37q0 -21 -15 -36t-36 -15q-22 0 -36.5 15zM421 883q-15 15 -15 36q0 22 15 37t37 15q21 0 35.5 -15t14.5 -37
q0 -21 -14.5 -36t-35.5 -15q-22 0 -37 15z" />
    <glyph glyph-name="Igrave" unicode="&#xcc;" horiz-adv-x="215" 
d="M143 760h71l-107 -760h-71zM122 1008l101 -170h-56l-137 170h92z" />
    <glyph glyph-name="Iacute" unicode="&#xcd;" horiz-adv-x="215" 
d="M143 760h71l-107 -760h-71zM217 838h-56l101 170h92z" />
    <glyph glyph-name="Icircumflex" unicode="&#xce;" horiz-adv-x="215" 
d="M143 760h71l-107 -760h-71zM278 840l-75 117l-111 -117h-86l169 168h62l121 -168h-80z" />
    <glyph glyph-name="Idieresis" unicode="&#xcf;" horiz-adv-x="215" 
d="M143 760h71l-107 -760h-71zM78.5 883q-14.5 15 -14.5 36q0 22 14.5 37t36.5 15q21 0 36 -15t15 -37q0 -21 -15 -36t-36 -15q-22 0 -36.5 15zM253 883q-15 15 -15 36q0 22 15 37t37 15q21 0 35.5 -15t14.5 -37q0 -21 -14.5 -36t-35.5 -15q-22 0 -37 15z" />
    <glyph glyph-name="Eth" unicode="&#xd0;" horiz-adv-x="790" 
d="M604 718.5q76 -41.5 118 -114t42 -162.5q0 -127 -56.5 -228t-156.5 -157.5t-224 -56.5h-253l52 366h-97l8 62h97l47 332h250q97 0 173 -41.5zM514 112q83 49 130 134t47 187q0 78 -33 138t-94.5 93t-144.5 33h-176l-38 -269h258l-8 -62h-258l-43 -303h174q103 0 186 49z
" />
    <glyph glyph-name="Ntilde" unicode="&#xd1;" horiz-adv-x="658" 
d="M657 760l-107 -760h-70l-283 648l-91 -648h-70l107 760h70l283 -648l91 648h70zM403 918q-17 13 -27.5 18.5t-22.5 5.5q-15 0 -31.5 -10.5t-29.5 -30.5l-47 22q45 72 117 72q25 0 44.5 -9.5t38.5 -24.5q17 -12 28 -18t22 -6q15 0 32 10.5t31 31.5l48 -18
q-26 -37 -57.5 -57t-67.5 -20q-39 0 -78 34z" />
    <glyph glyph-name="Ograve" unicode="&#xd2;" 
d="M214.5 32q-73.5 42 -113.5 118.5t-40 176.5q0 120 58 222t157 161.5t215 59.5q96 0 169.5 -42t113.5 -118.5t40 -176.5q0 -120 -58 -222t-157 -161.5t-215 -59.5q-96 0 -169.5 42zM565 106.5q81 52.5 128.5 139.5t47.5 187q0 82 -31 143.5t-88.5 95.5t-134.5 34
q-96 0 -177 -52.5t-128.5 -140t-47.5 -187.5q0 -81 31 -143t88 -95.5t134 -33.5q97 0 178 52.5zM436 1008l101 -170h-56l-137 170h92z" />
    <glyph glyph-name="Oacute" unicode="&#xd3;" 
d="M214.5 32q-73.5 42 -113.5 118.5t-40 176.5q0 120 58 222t157 161.5t215 59.5q96 0 169.5 -42t113.5 -118.5t40 -176.5q0 -120 -58 -222t-157 -161.5t-215 -59.5q-96 0 -169.5 42zM565 106.5q81 52.5 128.5 139.5t47.5 187q0 82 -31 143.5t-88.5 95.5t-134.5 34
q-96 0 -177 -52.5t-128.5 -140t-47.5 -187.5q0 -81 31 -143t88 -95.5t134 -33.5q97 0 178 52.5zM531 838h-56l101 170h92z" />
    <glyph glyph-name="Ocircumflex" unicode="&#xd4;" 
d="M214.5 32q-73.5 42 -113.5 118.5t-40 176.5q0 120 58 222t157 161.5t215 59.5q96 0 169.5 -42t113.5 -118.5t40 -176.5q0 -120 -58 -222t-157 -161.5t-215 -59.5q-96 0 -169.5 42zM565 106.5q81 52.5 128.5 139.5t47.5 187q0 82 -31 143.5t-88.5 95.5t-134.5 34
q-96 0 -177 -52.5t-128.5 -140t-47.5 -187.5q0 -81 31 -143t88 -95.5t134 -33.5q97 0 178 52.5zM592 840l-75 117l-111 -117h-86l169 168h62l121 -168h-80z" />
    <glyph glyph-name="Otilde" unicode="&#xd5;" 
d="M214.5 32q-73.5 42 -113.5 118.5t-40 176.5q0 120 58 222t157 161.5t215 59.5q96 0 169.5 -42t113.5 -118.5t40 -176.5q0 -120 -58 -222t-157 -161.5t-215 -59.5q-96 0 -169.5 42zM565 106.5q81 52.5 128.5 139.5t47.5 187q0 82 -31 143.5t-88.5 95.5t-134.5 34
q-96 0 -177 -52.5t-128.5 -140t-47.5 -187.5q0 -81 31 -143t88 -95.5t134 -33.5q97 0 178 52.5zM496 918q-17 13 -27.5 18.5t-22.5 5.5q-15 0 -31.5 -10.5t-29.5 -30.5l-47 22q45 72 117 72q25 0 44.5 -9.5t38.5 -24.5q17 -12 28 -18t22 -6q15 0 32 10.5t31 31.5l48 -18
q-26 -37 -57.5 -57t-67.5 -20q-39 0 -78 34z" />
    <glyph glyph-name="Odieresis" unicode="&#xd6;" 
d="M214.5 32q-73.5 42 -113.5 118.5t-40 176.5q0 120 58 222t157 161.5t215 59.5q96 0 169.5 -42t113.5 -118.5t40 -176.5q0 -120 -58 -222t-157 -161.5t-215 -59.5q-96 0 -169.5 42zM565 106.5q81 52.5 128.5 139.5t47.5 187q0 82 -31 143.5t-88.5 95.5t-134.5 34
q-96 0 -177 -52.5t-128.5 -140t-47.5 -187.5q0 -81 31 -143t88 -95.5t134 -33.5q97 0 178 52.5zM396.5 883q-14.5 15 -14.5 36q0 22 14.5 37t36.5 15q21 0 36 -15t15 -37q0 -21 -15 -36t-36 -15q-22 0 -36.5 15zM571 883q-15 15 -15 36q0 22 15 37t37 15q21 0 35.5 -15
t14.5 -37q0 -21 -14.5 -36t-35.5 -15q-22 0 -37 15z" />
    <glyph glyph-name="multiply" unicode="&#xd7;" horiz-adv-x="505" 
d="M295 265l112 -131l-47 -41l-112 130l-149 -130l-36 41l149 131l-112 130l48 43l112 -131l148 130l36 -42z" />
    <glyph glyph-name="Oslash" unicode="&#xd8;" 
d="M790.5 573q23.5 -63 23.5 -140q0 -120 -58 -222t-157 -161.5t-215 -59.5q-108 0 -188 53l-49 -59h-74l79 96q-44 45 -67.5 108t-23.5 139q0 120 58 222t157 161.5t215 59.5q108 0 187 -53l49 59h74l-79 -95q45 -45 68.5 -108zM197 135l438 529q-62 42 -148 42
q-97 0 -178 -52.5t-128 -140t-47 -187.5q0 -117 63 -191zM565.5 106q81.5 52 128.5 139.5t47 187.5q0 120 -64 193l-437 -530q62 -42 147 -42q97 0 178.5 52z" />
    <glyph glyph-name="Ugrave" unicode="&#xd9;" horiz-adv-x="664" 
d="M127.5 50q-62.5 60 -62.5 167q0 25 5 63l68 480h71l-69 -486q-5 -32 -5 -56q0 -78 43.5 -121t124.5 -43q95 0 152.5 56.5t72.5 162.5l70 487h70l-68 -482q-20 -145 -93.5 -216.5t-207.5 -71.5q-109 0 -171.5 60zM344 1008l101 -170h-56l-137 170h92z" />
    <glyph glyph-name="Uacute" unicode="&#xda;" horiz-adv-x="664" 
d="M127.5 50q-62.5 60 -62.5 167q0 25 5 63l68 480h71l-69 -486q-5 -32 -5 -56q0 -78 43.5 -121t124.5 -43q95 0 152.5 56.5t72.5 162.5l70 487h70l-68 -482q-20 -145 -93.5 -216.5t-207.5 -71.5q-109 0 -171.5 60zM439 838h-56l101 170h92z" />
    <glyph glyph-name="Ucircumflex" unicode="&#xdb;" horiz-adv-x="664" 
d="M127.5 50q-62.5 60 -62.5 167q0 25 5 63l68 480h71l-69 -486q-5 -32 -5 -56q0 -78 43.5 -121t124.5 -43q95 0 152.5 56.5t72.5 162.5l70 487h70l-68 -482q-20 -145 -93.5 -216.5t-207.5 -71.5q-109 0 -171.5 60zM500 840l-75 117l-111 -117h-86l169 168h62l121 -168h-80z
" />
    <glyph glyph-name="Udieresis" unicode="&#xdc;" horiz-adv-x="664" 
d="M127.5 50q-62.5 60 -62.5 167q0 25 5 63l68 480h71l-69 -486q-5 -32 -5 -56q0 -78 43.5 -121t124.5 -43q95 0 152.5 56.5t72.5 162.5l70 487h70l-68 -482q-20 -145 -93.5 -216.5t-207.5 -71.5q-109 0 -171.5 60zM300.5 883q-14.5 15 -14.5 36q0 22 14.5 37t36.5 15
q21 0 36 -15t15 -37q0 -21 -15 -36t-36 -15q-22 0 -36.5 15zM475 883q-15 15 -15 36q0 22 15 37t37 15q21 0 35.5 -15t14.5 -37q0 -21 -14.5 -36t-35.5 -15q-22 0 -37 15z" />
    <glyph glyph-name="Yacute" unicode="&#xdd;" horiz-adv-x="551" 
d="M621 760l-495 -760h-75l211 324l-180 436h74l148 -371l242 371h75zM377 838h-56l101 170h92z" />
    <glyph glyph-name="Thorn" unicode="&#xde;" horiz-adv-x="621" 
d="M538 589q61 -57 61 -163q0 -83 -36 -150t-103 -105.5t-157 -38.5h-177l-19 -132h-71l107 760h71l-16 -114h162q117 0 178 -57zM425.5 225q50.5 30 76.5 81.5t26 116.5q0 80 -42 120t-138 40h-159l-55 -388h171q70 0 120.5 30z" />
    <glyph glyph-name="germandbls" unicode="&#xdf;" horiz-adv-x="569" 
d="M476.5 357q40.5 -50 40.5 -124q0 -71 -34 -126.5t-92 -86t-128 -30.5q-60 0 -108 19l21 56q35 -13 85 -13t92.5 20.5t68 60t25.5 93.5q0 74 -47.5 113.5t-125.5 39.5h-27l8 57q76 17 124 64t48 109q0 44 -27 71.5t-76 27.5q-58 0 -95 -37t-47 -103l-82 -568h-70l83 576
q14 98 73.5 146t143.5 48q76 0 121.5 -41t45.5 -109q0 -60 -33.5 -110t-95.5 -84q68 -19 108.5 -69z" />
    <glyph glyph-name="agrave" unicode="&#xe0;" horiz-adv-x="615" 
d="M585 512l-72 -512h-62l10 100q-35 -51 -89 -80.5t-117 -29.5q-60 0 -108.5 28.5t-76.5 80.5t-28 120q0 87 39 156t104.5 107.5t141.5 38.5q63 0 108.5 -28.5t66.5 -79.5l14 99h69zM377.5 84.5q50.5 32.5 79.5 87.5t29 119q0 76 -42 122t-115 46q-59 0 -108.5 -29.5
t-79 -83t-29.5 -122.5q0 -81 42 -126.5t113 -45.5q60 0 110.5 32.5zM273 760l101 -170h-56l-137 170h92z" />
    <glyph glyph-name="aacute" unicode="&#xe1;" horiz-adv-x="615" 
d="M585 512l-72 -512h-62l10 100q-35 -51 -89 -80.5t-117 -29.5q-60 0 -108.5 28.5t-76.5 80.5t-28 120q0 87 39 156t104.5 107.5t141.5 38.5q63 0 108.5 -28.5t66.5 -79.5l14 99h69zM377.5 84.5q50.5 32.5 79.5 87.5t29 119q0 76 -42 122t-115 46q-59 0 -108.5 -29.5
t-79 -83t-29.5 -122.5q0 -81 42 -126.5t113 -45.5q60 0 110.5 32.5zM368 590h-56l101 170h92z" />
    <glyph glyph-name="acircumflex" unicode="&#xe2;" horiz-adv-x="615" 
d="M585 512l-72 -512h-62l10 100q-35 -51 -89 -80.5t-117 -29.5q-60 0 -108.5 28.5t-76.5 80.5t-28 120q0 87 39 156t104.5 107.5t141.5 38.5q63 0 108.5 -28.5t66.5 -79.5l14 99h69zM377.5 84.5q50.5 32.5 79.5 87.5t29 119q0 76 -42 122t-115 46q-59 0 -108.5 -29.5
t-79 -83t-29.5 -122.5q0 -81 42 -126.5t113 -45.5q60 0 110.5 32.5zM429 592l-75 117l-111 -117h-86l169 168h62l121 -168h-80z" />
    <glyph glyph-name="atilde" unicode="&#xe3;" horiz-adv-x="615" 
d="M585 512l-72 -512h-62l10 100q-35 -51 -89 -80.5t-117 -29.5q-60 0 -108.5 28.5t-76.5 80.5t-28 120q0 87 39 156t104.5 107.5t141.5 38.5q63 0 108.5 -28.5t66.5 -79.5l14 99h69zM377.5 84.5q50.5 32.5 79.5 87.5t29 119q0 76 -42 122t-115 46q-59 0 -108.5 -29.5
t-79 -83t-29.5 -122.5q0 -81 42 -126.5t113 -45.5q60 0 110.5 32.5zM333 670q-17 13 -27.5 18.5t-22.5 5.5q-15 0 -31.5 -10.5t-29.5 -30.5l-47 22q45 72 117 72q25 0 44.5 -9.5t38.5 -24.5q17 -12 28 -18t22 -6q15 0 32 10.5t31 31.5l48 -18q-26 -37 -57.5 -57t-67.5 -20
q-39 0 -78 34z" />
    <glyph glyph-name="adieresis" unicode="&#xe4;" horiz-adv-x="615" 
d="M585 512l-72 -512h-62l10 100q-35 -51 -89 -80.5t-117 -29.5q-60 0 -108.5 28.5t-76.5 80.5t-28 120q0 87 39 156t104.5 107.5t141.5 38.5q63 0 108.5 -28.5t66.5 -79.5l14 99h69zM377.5 84.5q50.5 32.5 79.5 87.5t29 119q0 76 -42 122t-115 46q-59 0 -108.5 -29.5
t-79 -83t-29.5 -122.5q0 -81 42 -126.5t113 -45.5q60 0 110.5 32.5zM229.5 635q-14.5 15 -14.5 36q0 22 14.5 37t36.5 15q21 0 36 -15t15 -37q0 -21 -15 -36t-36 -15q-22 0 -36.5 15zM404 635q-15 15 -15 36q0 22 15 37t37 15q21 0 35.5 -15t14.5 -37q0 -21 -14.5 -36
t-35.5 -15q-22 0 -37 15z" />
    <glyph glyph-name="aring" unicode="&#xe5;" horiz-adv-x="615" 
d="M585 512l-72 -512h-62l10 100q-35 -51 -89 -80.5t-117 -29.5q-60 0 -108.5 28.5t-76.5 80.5t-28 120q0 87 39 156t104.5 107.5t141.5 38.5q63 0 108.5 -28.5t66.5 -79.5l14 99h69zM377.5 84.5q50.5 32.5 79.5 87.5t29 119q0 76 -42 122t-115 46q-59 0 -108.5 -29.5
t-79 -83t-29.5 -122.5q0 -81 42 -126.5t113 -45.5q60 0 110.5 32.5zM271 616.5q-31 31.5 -31 76.5q0 44 31 75.5t76 31.5t76 -31.5t31 -75.5q0 -45 -31 -76.5t-76 -31.5t-76 31.5zM393 645.5q19 19.5 19 47.5t-19 47t-46 19t-46 -19t-19 -47t19 -47.5t46 -19.5t46 19.5z" />
    <glyph glyph-name="ae" unicode="&#xe6;" horiz-adv-x="938" 
d="M488 240q-1 -9 -1 -26q0 -76 41 -119t110 -43q56 0 98.5 26.5t71.5 74.5l68 -8q-40 -74 -103 -114.5t-142 -40.5q-71 0 -123 33t-75 91q-32 -59 -93.5 -91.5t-140.5 -32.5q-78 0 -125.5 35t-47.5 103q0 92 67 131t174 39h158q4 37 4 45q0 60 -35.5 88t-90.5 28
q-53 0 -91 -21.5t-67 -60.5l-69 10q39 64 96 99t144 35q60 0 107 -25t65 -76q38 47 91 74t116 27q94 0 146.5 -58t52.5 -150q0 -21 -2 -42t-4 -31h-400zM567 414.5q-49 -44.5 -69 -116.5h326v12q0 72 -37.5 110.5t-100.5 38.5q-70 0 -119 -44.5zM303.5 66q43.5 19 73 56
t36.5 88l4 30h-157q-90 0 -127.5 -27t-37.5 -78q0 -43 30.5 -65.5t86.5 -22.5q48 0 91.5 19z" />
    <glyph glyph-name="ccedilla" unicode="&#xe7;" horiz-adv-x="576" 
d="M146 18.5q-50 28.5 -77 79.5t-27 116q0 89 38 159t104.5 109t148.5 39q84 0 141 -44.5t73 -120.5l-71 -8q-12 53 -51 82t-93 29q-65 0 -115 -31t-77.5 -85.5t-27.5 -120.5q0 -79 42 -124.5t114 -45.5q60 0 111.5 33t76.5 90l67 -8q-33 -82 -102 -129.5t-161 -47.5
q-64 0 -114 28.5zM321.5 -58q21.5 -18 21.5 -50q0 -47 -31.5 -71.5t-79.5 -24.5q-22 0 -43 5t-33 14l20 37q20 -12 47 -12q25 0 39 12.5t14 34.5q0 16 -9 24t-26 8q-21 0 -41 -13l-21 13l41 98h50l-21 -58q5 1 15 1q36 0 57.5 -18z" />
    <glyph glyph-name="egrave" unicode="&#xe8;" horiz-adv-x="580" 
d="M112 231v-14q0 -77 43 -121t110 -44q60 0 106.5 28t75.5 77l69 -9q-39 -75 -105 -116.5t-150 -41.5q-65 0 -114.5 29.5t-77 80.5t-27.5 114q0 85 36.5 155t102 111t148.5 41q67 0 114 -28t71.5 -76.5t24.5 -109.5q0 -22 -6 -76h-421zM196.5 413q-56.5 -46 -75.5 -122h348
v11q0 76 -38 116.5t-104 40.5q-74 0 -130.5 -46zM270 760l101 -170h-56l-137 170h92z" />
    <glyph glyph-name="eacute" unicode="&#xe9;" horiz-adv-x="580" 
d="M112 231v-14q0 -77 43 -121t110 -44q60 0 106.5 28t75.5 77l69 -9q-39 -75 -105 -116.5t-150 -41.5q-65 0 -114.5 29.5t-77 80.5t-27.5 114q0 85 36.5 155t102 111t148.5 41q67 0 114 -28t71.5 -76.5t24.5 -109.5q0 -22 -6 -76h-421zM196.5 413q-56.5 -46 -75.5 -122h348
v11q0 76 -38 116.5t-104 40.5q-74 0 -130.5 -46zM365 590h-56l101 170h92z" />
    <glyph glyph-name="ecircumflex" unicode="&#xea;" horiz-adv-x="580" 
d="M112 231v-14q0 -77 43 -121t110 -44q60 0 106.5 28t75.5 77l69 -9q-39 -75 -105 -116.5t-150 -41.5q-65 0 -114.5 29.5t-77 80.5t-27.5 114q0 85 36.5 155t102 111t148.5 41q67 0 114 -28t71.5 -76.5t24.5 -109.5q0 -22 -6 -76h-421zM196.5 413q-56.5 -46 -75.5 -122h348
v11q0 76 -38 116.5t-104 40.5q-74 0 -130.5 -46zM426 592l-75 117l-111 -117h-86l169 168h62l121 -168h-80z" />
    <glyph glyph-name="edieresis" unicode="&#xeb;" horiz-adv-x="580" 
d="M112 231v-14q0 -77 43 -121t110 -44q60 0 106.5 28t75.5 77l69 -9q-39 -75 -105 -116.5t-150 -41.5q-65 0 -114.5 29.5t-77 80.5t-27.5 114q0 85 36.5 155t102 111t148.5 41q67 0 114 -28t71.5 -76.5t24.5 -109.5q0 -22 -6 -76h-421zM196.5 413q-56.5 -46 -75.5 -122h348
v11q0 76 -38 116.5t-104 40.5q-74 0 -130.5 -46zM226.5 635q-14.5 15 -14.5 36q0 22 14.5 37t36.5 15q21 0 36 -15t15 -37q0 -21 -15 -36t-36 -15q-22 0 -36.5 15zM401 635q-15 15 -15 36q0 22 15 37t37 15q21 0 35.5 -15t14.5 -37q0 -21 -14.5 -36t-35.5 -15q-22 0 -37 15z
" />
    <glyph glyph-name="igrave" unicode="&#xec;" horiz-adv-x="203" 
d="M102 512h70l-71 -512h-70zM81 760l101 -170h-56l-137 170h92z" />
    <glyph glyph-name="iacute" unicode="&#xed;" horiz-adv-x="203" 
d="M102 512h70l-71 -512h-70zM176 590h-56l101 170h92z" />
    <glyph glyph-name="icircumflex" unicode="&#xee;" horiz-adv-x="203" 
d="M102 512h70l-71 -512h-70zM211 592l-45 113l-78 -113h-84l137 168h61l89 -168h-80z" />
    <glyph glyph-name="idieresis" unicode="&#xef;" horiz-adv-x="203" 
d="M102 512h70l-71 -512h-70zM37.5 635q-14.5 15 -14.5 36q0 22 14.5 37t36.5 15q21 0 36 -15t15 -37q0 -21 -15 -36t-36 -15q-22 0 -36.5 15zM212 635q-15 15 -15 36q0 22 15 37t37 15q21 0 35.5 -15t14.5 -37q0 -21 -14.5 -36t-35.5 -15q-22 0 -37 15z" />
    <glyph glyph-name="eth" unicode="&#xf0;" horiz-adv-x="610" 
d="M523 641q54 -84 54 -223q0 -121 -37 -218.5t-110 -153.5t-177 -56q-57 0 -105.5 27t-77.5 77t-29 117q0 77 36.5 142.5t101 103.5t142.5 38q64 0 115 -27.5t76 -80.5q2 28 2 40q0 112 -52 187l-119 -53l-16 48l100 45q-48 45 -125 64l23 52q104 -21 166 -88l103 46
l17 -48zM371 83.5q50 31.5 80 83.5t30 110q0 71 -45 113.5t-115 42.5q-57 0 -105.5 -28.5t-76.5 -78t-28 -110.5q0 -50 20.5 -87.5t56 -57t78.5 -19.5q55 0 105 31.5z" />
    <glyph glyph-name="ntilde" unicode="&#xf1;" horiz-adv-x="566" 
d="M473 476.5q43 -44.5 43 -117.5q0 -18 -4 -46l-43 -313h-70l43 307q3 23 3 41q0 57 -28.5 85.5t-88.5 28.5q-77 0 -125 -51.5t-63 -124.5l-40 -286h-70l72 512h63l-8 -99q34 54 84 81t109 27q80 0 123 -44.5zM334 670q-17 13 -27.5 18.5t-22.5 5.5q-15 0 -31.5 -10.5
t-29.5 -30.5l-47 22q45 72 117 72q25 0 44.5 -9.5t38.5 -24.5q17 -12 28 -18t22 -6q15 0 32 10.5t31 31.5l48 -18q-26 -37 -57.5 -57t-67.5 -20q-39 0 -78 34z" />
    <glyph glyph-name="ograve" unicode="&#xf2;" horiz-adv-x="597" 
d="M148 18.5q-50 28.5 -78 80t-28 118.5q0 87 38 156.5t105 108.5t150 39q65 0 115 -28.5t77.5 -79.5t27.5 -118q0 -88 -37.5 -157.5t-104.5 -108.5t-151 -39q-64 0 -114 28.5zM376 82q50 30 79.5 84.5t29.5 124.5q0 80 -42 124t-112 44q-60 0 -110 -30t-79.5 -84.5
t-29.5 -123.5q0 -80 42 -124.5t112 -44.5q60 0 110 30zM277 760l101 -170h-56l-137 170h92z" />
    <glyph glyph-name="oacute" unicode="&#xf3;" horiz-adv-x="597" 
d="M148 18.5q-50 28.5 -78 80t-28 118.5q0 87 38 156.5t105 108.5t150 39q65 0 115 -28.5t77.5 -79.5t27.5 -118q0 -88 -37.5 -157.5t-104.5 -108.5t-151 -39q-64 0 -114 28.5zM376 82q50 30 79.5 84.5t29.5 124.5q0 80 -42 124t-112 44q-60 0 -110 -30t-79.5 -84.5
t-29.5 -123.5q0 -80 42 -124.5t112 -44.5q60 0 110 30zM372 590h-56l101 170h92z" />
    <glyph glyph-name="ocircumflex" unicode="&#xf4;" horiz-adv-x="597" 
d="M148 18.5q-50 28.5 -78 80t-28 118.5q0 87 38 156.5t105 108.5t150 39q65 0 115 -28.5t77.5 -79.5t27.5 -118q0 -88 -37.5 -157.5t-104.5 -108.5t-151 -39q-64 0 -114 28.5zM376 82q50 30 79.5 84.5t29.5 124.5q0 80 -42 124t-112 44q-60 0 -110 -30t-79.5 -84.5
t-29.5 -123.5q0 -80 42 -124.5t112 -44.5q60 0 110 30zM433 592l-75 117l-111 -117h-86l169 168h62l121 -168h-80z" />
    <glyph glyph-name="otilde" unicode="&#xf5;" horiz-adv-x="597" 
d="M148 18.5q-50 28.5 -78 80t-28 118.5q0 87 38 156.5t105 108.5t150 39q65 0 115 -28.5t77.5 -79.5t27.5 -118q0 -88 -37.5 -157.5t-104.5 -108.5t-151 -39q-64 0 -114 28.5zM376 82q50 30 79.5 84.5t29.5 124.5q0 80 -42 124t-112 44q-60 0 -110 -30t-79.5 -84.5
t-29.5 -123.5q0 -80 42 -124.5t112 -44.5q60 0 110 30zM337 670q-17 13 -27.5 18.5t-22.5 5.5q-15 0 -31.5 -10.5t-29.5 -30.5l-47 22q45 72 117 72q25 0 44.5 -9.5t38.5 -24.5q17 -12 28 -18t22 -6q15 0 32 10.5t31 31.5l48 -18q-26 -37 -57.5 -57t-67.5 -20q-39 0 -78 34z
" />
    <glyph glyph-name="odieresis" unicode="&#xf6;" horiz-adv-x="597" 
d="M148 18.5q-50 28.5 -78 80t-28 118.5q0 87 38 156.5t105 108.5t150 39q65 0 115 -28.5t77.5 -79.5t27.5 -118q0 -88 -37.5 -157.5t-104.5 -108.5t-151 -39q-64 0 -114 28.5zM376 82q50 30 79.5 84.5t29.5 124.5q0 80 -42 124t-112 44q-60 0 -110 -30t-79.5 -84.5
t-29.5 -123.5q0 -80 42 -124.5t112 -44.5q60 0 110 30zM233.5 635q-14.5 15 -14.5 36q0 22 14.5 37t36.5 15q21 0 36 -15t15 -37q0 -21 -15 -36t-36 -15q-22 0 -36.5 15zM408 635q-15 15 -15 36q0 22 15 37t37 15q21 0 35.5 -15t14.5 -37q0 -21 -14.5 -36t-35.5 -15
q-22 0 -37 15z" />
    <glyph glyph-name="divide" unicode="&#xf7;" horiz-adv-x="545" 
d="M245 383q-16 16 -16 39t16 39t38 16q23 0 39 -16t16 -39t-16 -39t-39 -16q-22 0 -38 16zM86 295h383l-7 -60h-383zM224.5 64q-15.5 16 -15.5 39t16 38.5t38 15.5q23 0 39 -15.5t16 -38.5t-16 -39t-39 -16t-38.5 16z" />
    <glyph glyph-name="oslash" unicode="&#xf8;" horiz-adv-x="597" 
d="M498 454q27 -30 42 -70.5t15 -88.5q0 -88 -37.5 -157.5t-104.5 -108.5t-151 -39q-68 0 -121 33l-32 -39h-70l60 73q-27 30 -42 71t-15 89q0 87 38 156.5t105 108.5t150 39q71 0 121 -32l32 38h70zM143 110l271 328q-34 21 -83 21q-60 0 -110 -30t-79.5 -84.5
t-29.5 -123.5q0 -68 31 -111zM454 401l-271 -328q35 -21 83 -21q60 0 110 30t79.5 84.5t29.5 124.5q0 68 -31 110z" />
    <glyph glyph-name="ugrave" unicode="&#xf9;" horiz-adv-x="554" 
d="M524 512l-71 -512h-64l9 98q-33 -53 -82 -80.5t-107 -27.5q-74 0 -117 45t-43 113q0 20 3 41l45 323h70l-44 -316q-3 -21 -3 -40q0 -106 117 -106q70 0 115.5 50t60.5 120l41 292h70zM256 760l101 -170h-56l-137 170h92z" />
    <glyph glyph-name="uacute" unicode="&#xfa;" horiz-adv-x="554" 
d="M524 512l-71 -512h-64l9 98q-33 -53 -82 -80.5t-107 -27.5q-74 0 -117 45t-43 113q0 20 3 41l45 323h70l-44 -316q-3 -21 -3 -40q0 -106 117 -106q70 0 115.5 50t60.5 120l41 292h70zM351 590h-56l101 170h92z" />
    <glyph glyph-name="ucircumflex" unicode="&#xfb;" horiz-adv-x="554" 
d="M524 512l-71 -512h-64l9 98q-33 -53 -82 -80.5t-107 -27.5q-74 0 -117 45t-43 113q0 20 3 41l45 323h70l-44 -316q-3 -21 -3 -40q0 -106 117 -106q70 0 115.5 50t60.5 120l41 292h70zM412 592l-75 117l-111 -117h-86l169 168h62l121 -168h-80z" />
    <glyph glyph-name="udieresis" unicode="&#xfc;" horiz-adv-x="554" 
d="M524 512l-71 -512h-64l9 98q-33 -53 -82 -80.5t-107 -27.5q-74 0 -117 45t-43 113q0 20 3 41l45 323h70l-44 -316q-3 -21 -3 -40q0 -106 117 -106q70 0 115.5 50t60.5 120l41 292h70zM212.5 635q-14.5 15 -14.5 36q0 22 14.5 37t36.5 15q21 0 36 -15t15 -37
q0 -21 -15 -36t-36 -15q-22 0 -36.5 15zM387 635q-15 15 -15 36q0 22 15 37t37 15q21 0 35.5 -15t14.5 -37q0 -21 -14.5 -36t-35.5 -15q-22 0 -37 15z" />
    <glyph glyph-name="yacute" unicode="&#xfd;" horiz-adv-x="555" 
d="M524 512l-65 -466q-17 -122 -81 -186t-170 -64q-77 0 -123.5 32t-57.5 84l67 14q8 -34 37.5 -53t80.5 -19q151 0 177 191l7 50q-33 -52 -81.5 -78.5t-105.5 -26.5q-74 0 -117 45t-43 113q0 20 3 41l45 323h70l-44 -316q-3 -21 -3 -40q0 -106 117 -106q71 0 116.5 50.5
t60.5 122.5l40 289h70zM353 590h-56l101 170h92z" />
    <glyph glyph-name="thorn" unicode="&#xfe;" horiz-adv-x="616" 
d="M473 492.5q48 -28.5 74.5 -79.5t26.5 -117q0 -89 -38.5 -158.5t-104 -108.5t-142.5 -39q-62 0 -108 27.5t-68 76.5l-40 -288h-70l134 954h70l-49 -344q35 49 88.5 77t116.5 28q62 0 110 -28.5zM395.5 82q49.5 30 79 84.5t29.5 123.5q0 80 -42.5 124.5t-113.5 44.5
q-62 0 -112 -32t-78 -86.5t-28 -118.5q0 -77 42.5 -123.5t115.5 -46.5q58 0 107.5 30z" />
    <glyph glyph-name="ydieresis" unicode="&#xff;" horiz-adv-x="555" 
d="M524 512l-65 -466q-17 -122 -81 -186t-170 -64q-77 0 -123.5 32t-57.5 84l67 14q8 -34 37.5 -53t80.5 -19q151 0 177 191l7 50q-33 -52 -81.5 -78.5t-105.5 -26.5q-74 0 -117 45t-43 113q0 20 3 41l45 323h70l-44 -316q-3 -21 -3 -40q0 -106 117 -106q71 0 116.5 50.5
t60.5 122.5l40 289h70zM214.5 635q-14.5 15 -14.5 36q0 22 14.5 37t36.5 15q21 0 36 -15t15 -37q0 -21 -15 -36t-36 -15q-22 0 -36.5 15zM389 635q-15 15 -15 36q0 22 15 37t37 15q21 0 35.5 -15t14.5 -37q0 -21 -14.5 -36t-35.5 -15q-22 0 -37 15z" />
    <glyph glyph-name="Amacron" unicode="&#x100;" horiz-adv-x="595" 
d="M456 142h-347l-65 -142h-75l359 760h81l145 -760h-73zM445 205l-86 485l-221 -485h307zM260 959h274l-8 -55h-274z" />
    <glyph glyph-name="amacron" unicode="&#x101;" horiz-adv-x="615" 
d="M585 512l-72 -512h-62l10 100q-35 -51 -89 -80.5t-117 -29.5q-60 0 -108.5 28.5t-76.5 80.5t-28 120q0 87 39 156t104.5 107.5t141.5 38.5q63 0 108.5 -28.5t66.5 -79.5l14 99h69zM377.5 84.5q50.5 32.5 79.5 87.5t29 119q0 76 -42 122t-115 46q-59 0 -108.5 -29.5
t-79 -83t-29.5 -122.5q0 -81 42 -126.5t113 -45.5q60 0 110.5 32.5zM222 711h274l-8 -55h-274z" />
    <glyph glyph-name="Abreve" unicode="&#x102;" horiz-adv-x="595" 
d="M456 142h-347l-65 -142h-75l359 760h81l145 -760h-73zM445 205l-86 485l-221 -485h307zM270 884q-38 43 -38 124h54q0 -54 27 -82.5t73 -28.5q44 0 76 28t48 83h54q-19 -82 -66.5 -124.5t-118.5 -42.5t-109 43z" />
    <glyph glyph-name="abreve" unicode="&#x103;" horiz-adv-x="615" 
d="M585 512l-72 -512h-62l10 100q-35 -51 -89 -80.5t-117 -29.5q-60 0 -108.5 28.5t-76.5 80.5t-28 120q0 87 39 156t104.5 107.5t141.5 38.5q63 0 108.5 -28.5t66.5 -79.5l14 99h69zM377.5 84.5q50.5 32.5 79.5 87.5t29 119q0 76 -42 122t-115 46q-59 0 -108.5 -29.5
t-79 -83t-29.5 -122.5q0 -81 42 -126.5t113 -45.5q60 0 110.5 32.5zM232 636q-38 43 -38 124h54q0 -54 27 -82.5t73 -28.5q44 0 76 28t48 83h54q-19 -82 -66.5 -124.5t-118.5 -42.5t-109 43z" />
    <glyph glyph-name="Aogonek" unicode="&#x104;" horiz-adv-x="595" 
d="M456 142h-347l-65 -142h-75l359 760h81l145 -760h-73zM445 205l-86 485l-221 -485h307zM461 -31q-26 -24 -26 -62q0 -28 18 -42.5t52 -14.5q19 0 47 8l-4 -48q-30 -14 -67 -14q-50 0 -79.5 24t-29.5 69q0 57 43.5 92t106.5 49l3 -26q-38 -11 -64 -35z" />
    <glyph glyph-name="aogonek" unicode="&#x105;" horiz-adv-x="615" 
d="M585 512l-72 -512h-62l10 100q-35 -51 -89 -80.5t-117 -29.5q-60 0 -108.5 28.5t-76.5 80.5t-28 120q0 87 39 156t104.5 107.5t141.5 38.5q63 0 108.5 -28.5t66.5 -79.5l14 99h69zM377.5 84.5q50.5 32.5 79.5 87.5t29 119q0 76 -42 122t-115 46q-59 0 -108.5 -29.5
t-79 -83t-29.5 -122.5q0 -81 42 -126.5t113 -45.5q60 0 110.5 32.5zM440 -31q-26 -24 -26 -62q0 -28 18 -42.5t52 -14.5q19 0 47 8l-4 -48q-30 -14 -67 -14q-50 0 -79.5 24t-29.5 69q0 57 43.5 92t106.5 49l3 -26q-38 -11 -64 -35z" />
    <glyph glyph-name="Cacute" unicode="&#x106;" horiz-adv-x="818" 
d="M216.5 31q-73.5 41 -114.5 117t-41 177q0 119 57.5 221.5t155.5 163t215 60.5q84 0 151 -32t110 -90t57 -135l-73 -8q-20 95 -85 148t-162 53t-178 -52t-128 -139.5t-47 -187.5q0 -82 31.5 -144t89 -95.5t134.5 -33.5q100 0 182.5 55t128.5 149l70 -9
q-56 -119 -157.5 -189t-227.5 -70q-95 0 -168.5 41zM527 838h-56l101 170h92z" />
    <glyph glyph-name="cacute" unicode="&#x107;" horiz-adv-x="576" 
d="M146 18.5q-50 28.5 -77 79.5t-27 116q0 89 38 159t104.5 109t148.5 39q84 0 141 -44.5t73 -120.5l-71 -8q-12 53 -51 82t-93 29q-65 0 -115 -31t-77.5 -85.5t-27.5 -120.5q0 -79 42 -124.5t114 -45.5q60 0 111.5 33t76.5 90l67 -8q-33 -82 -102 -129.5t-161 -47.5
q-64 0 -114 28.5zM365 590h-56l101 170h92z" />
    <glyph glyph-name="Ccircumflex" unicode="&#x108;" horiz-adv-x="818" 
d="M216.5 31q-73.5 41 -114.5 117t-41 177q0 119 57.5 221.5t155.5 163t215 60.5q84 0 151 -32t110 -90t57 -135l-73 -8q-20 95 -85 148t-162 53t-178 -52t-128 -139.5t-47 -187.5q0 -82 31.5 -144t89 -95.5t134.5 -33.5q100 0 182.5 55t128.5 149l70 -9
q-56 -119 -157.5 -189t-227.5 -70q-95 0 -168.5 41zM588 840l-75 117l-111 -117h-86l169 168h62l121 -168h-80z" />
    <glyph glyph-name="ccircumflex" unicode="&#x109;" horiz-adv-x="576" 
d="M146 18.5q-50 28.5 -77 79.5t-27 116q0 89 38 159t104.5 109t148.5 39q84 0 141 -44.5t73 -120.5l-71 -8q-12 53 -51 82t-93 29q-65 0 -115 -31t-77.5 -85.5t-27.5 -120.5q0 -79 42 -124.5t114 -45.5q60 0 111.5 33t76.5 90l67 -8q-33 -82 -102 -129.5t-161 -47.5
q-64 0 -114 28.5zM426 592l-75 117l-111 -117h-86l169 168h62l121 -168h-80z" />
    <glyph glyph-name="Cdotaccent" unicode="&#x10a;" horiz-adv-x="818" 
d="M216.5 31q-73.5 41 -114.5 117t-41 177q0 119 57.5 221.5t155.5 163t215 60.5q84 0 151 -32t110 -90t57 -135l-73 -8q-20 95 -85 148t-162 53t-178 -52t-128 -139.5t-47 -187.5q0 -82 31.5 -144t89 -95.5t134.5 -33.5q100 0 182.5 55t128.5 149l70 -9
q-56 -119 -157.5 -189t-227.5 -70q-95 0 -168.5 41zM471.5 878q-16.5 17 -16.5 40q0 24 16.5 40.5t40.5 16.5q23 0 39.5 -16.5t16.5 -40.5q0 -23 -16.5 -40t-39.5 -17q-24 0 -40.5 17z" />
    <glyph glyph-name="cdotaccent" unicode="&#x10b;" horiz-adv-x="576" 
d="M146 18.5q-50 28.5 -77 79.5t-27 116q0 89 38 159t104.5 109t148.5 39q84 0 141 -44.5t73 -120.5l-71 -8q-12 53 -51 82t-93 29q-65 0 -115 -31t-77.5 -85.5t-27.5 -120.5q0 -79 42 -124.5t114 -45.5q60 0 111.5 33t76.5 90l67 -8q-33 -82 -102 -129.5t-161 -47.5
q-64 0 -114 28.5zM309.5 630q-16.5 17 -16.5 40q0 24 16.5 40.5t40.5 16.5q23 0 39.5 -16.5t16.5 -40.5q0 -23 -16.5 -40t-39.5 -17q-24 0 -40.5 17z" />
    <glyph glyph-name="Ccaron" unicode="&#x10c;" horiz-adv-x="818" 
d="M216.5 31q-73.5 41 -114.5 117t-41 177q0 119 57.5 221.5t155.5 163t215 60.5q84 0 151 -32t110 -90t57 -135l-73 -8q-20 95 -85 148t-162 53t-178 -52t-128 -139.5t-47 -187.5q0 -82 31.5 -144t89 -95.5t134.5 -33.5q100 0 182.5 55t128.5 149l70 -9
q-56 -119 -157.5 -189t-227.5 -70q-95 0 -168.5 41zM700 1008l-169 -168h-62l-121 168h80l75 -117l111 117h86z" />
    <glyph glyph-name="ccaron" unicode="&#x10d;" horiz-adv-x="576" 
d="M146 18.5q-50 28.5 -77 79.5t-27 116q0 89 38 159t104.5 109t148.5 39q84 0 141 -44.5t73 -120.5l-71 -8q-12 53 -51 82t-93 29q-65 0 -115 -31t-77.5 -85.5t-27.5 -120.5q0 -79 42 -124.5t114 -45.5q60 0 111.5 33t76.5 90l67 -8q-33 -82 -102 -129.5t-161 -47.5
q-64 0 -114 28.5zM538 760l-169 -168h-62l-121 168h80l75 -117l111 117h86z" />
    <glyph glyph-name="Dcaron" unicode="&#x10e;" horiz-adv-x="752" 
d="M566 718.5q76 -41.5 118 -114t42 -162.5q0 -127 -56.5 -228t-156.5 -157.5t-224 -56.5h-253l107 760h250q97 0 173 -41.5zM476 112q83 49 130 134t47 187q0 78 -33 138t-94.5 93t-144.5 33h-176l-89 -634h174q103 0 186 49zM601 1008l-169 -168h-62l-121 168h80l75 -117
l111 117h86z" />
    <glyph glyph-name="dcaron" unicode="&#x10f;" horiz-adv-x="765" 
d="M550 760h70l-106 -760h-63l10 101q-35 -52 -89 -81.5t-116 -29.5q-61 0 -109.5 28.5t-76.5 80.5t-28 120q0 87 39 156t104.5 107.5t141.5 38.5q63 0 108.5 -28.5t66.5 -79.5zM817 760l-71 -170h-56l35 170h92zM377.5 84.5q50.5 32.5 79.5 87.5t29 119q0 77 -42 122.5
t-116 45.5q-58 0 -107.5 -29.5t-79 -83.5t-29.5 -123q0 -79 42.5 -125t112.5 -46q60 0 110.5 32.5z" />
    <glyph glyph-name="Dcroat" unicode="&#x110;" horiz-adv-x="790" 
d="M604 718.5q76 -41.5 118 -114t42 -162.5q0 -127 -56.5 -228t-156.5 -157.5t-224 -56.5h-253l52 366h-97l8 62h97l47 332h250q97 0 173 -41.5zM514 112q83 49 130 134t47 187q0 78 -33 138t-94.5 93t-144.5 33h-176l-38 -269h258l-8 -62h-258l-43 -303h174q103 0 186 49z
" />
    <glyph glyph-name="dcroat" unicode="&#x111;" horiz-adv-x="658" 
d="M708 617h-108l-86 -617h-63l10 101q-35 -52 -89 -81.5t-116 -29.5q-61 0 -109.5 28.5t-76.5 80.5t-28 120q0 87 39 156t104.5 107.5t141.5 38.5q63 0 108.5 -28.5t66.5 -79.5l28 204h-241l9 57h240l12 86h70l-12 -86h109zM377.5 84.5q50.5 32.5 79.5 87.5t29 119
q0 77 -42 122.5t-116 45.5q-58 0 -107.5 -29.5t-79 -83.5t-29.5 -123q0 -79 42.5 -125t112.5 -46q60 0 110.5 32.5z" />
    <glyph glyph-name="Emacron" unicode="&#x112;" horiz-adv-x="545" 
d="M205 697l-38 -269h336l-8 -62h-336l-43 -303h345l-9 -63h-416l107 760h411l-9 -63h-340zM239 959h274l-8 -55h-274z" />
    <glyph glyph-name="emacron" unicode="&#x113;" horiz-adv-x="580" 
d="M112 231v-14q0 -77 43 -121t110 -44q60 0 106.5 28t75.5 77l69 -9q-39 -75 -105 -116.5t-150 -41.5q-65 0 -114.5 29.5t-77 80.5t-27.5 114q0 85 36.5 155t102 111t148.5 41q67 0 114 -28t71.5 -76.5t24.5 -109.5q0 -22 -6 -76h-421zM196.5 413q-56.5 -46 -75.5 -122h348
v11q0 76 -38 116.5t-104 40.5q-74 0 -130.5 -46zM219 711h274l-8 -55h-274z" />
    <glyph glyph-name="Ebreve" unicode="&#x114;" horiz-adv-x="545" 
d="M205 697l-38 -269h336l-8 -62h-336l-43 -303h345l-9 -63h-416l107 760h411l-9 -63h-340zM249 884q-38 43 -38 124h54q0 -54 27 -82.5t73 -28.5q44 0 76 28t48 83h54q-19 -82 -66.5 -124.5t-118.5 -42.5t-109 43z" />
    <glyph glyph-name="ebreve" unicode="&#x115;" horiz-adv-x="580" 
d="M112 231v-14q0 -77 43 -121t110 -44q60 0 106.5 28t75.5 77l69 -9q-39 -75 -105 -116.5t-150 -41.5q-65 0 -114.5 29.5t-77 80.5t-27.5 114q0 85 36.5 155t102 111t148.5 41q67 0 114 -28t71.5 -76.5t24.5 -109.5q0 -22 -6 -76h-421zM196.5 413q-56.5 -46 -75.5 -122h348
v11q0 76 -38 116.5t-104 40.5q-74 0 -130.5 -46zM229 636q-38 43 -38 124h54q0 -54 27 -82.5t73 -28.5q44 0 76 28t48 83h54q-19 -82 -66.5 -124.5t-118.5 -42.5t-109 43z" />
    <glyph glyph-name="Edotaccent" unicode="&#x116;" horiz-adv-x="545" 
d="M205 697l-38 -269h336l-8 -62h-336l-43 -303h345l-9 -63h-416l107 760h411l-9 -63h-340zM329.5 878q-16.5 17 -16.5 40q0 24 16.5 40.5t40.5 16.5q23 0 39.5 -16.5t16.5 -40.5q0 -23 -16.5 -40t-39.5 -17q-24 0 -40.5 17z" />
    <glyph glyph-name="edotaccent" unicode="&#x117;" horiz-adv-x="580" 
d="M112 231v-14q0 -77 43 -121t110 -44q60 0 106.5 28t75.5 77l69 -9q-39 -75 -105 -116.5t-150 -41.5q-65 0 -114.5 29.5t-77 80.5t-27.5 114q0 85 36.5 155t102 111t148.5 41q67 0 114 -28t71.5 -76.5t24.5 -109.5q0 -22 -6 -76h-421zM196.5 413q-56.5 -46 -75.5 -122h348
v11q0 76 -38 116.5t-104 40.5q-74 0 -130.5 -46zM309.5 630q-16.5 17 -16.5 40q0 24 16.5 40.5t40.5 16.5q23 0 39.5 -16.5t16.5 -40.5q0 -23 -16.5 -40t-39.5 -17q-24 0 -40.5 17z" />
    <glyph glyph-name="Eogonek" unicode="&#x118;" horiz-adv-x="545" 
d="M205 697l-38 -269h336l-8 -62h-336l-43 -303h345l-9 -63h-416l107 760h411l-9 -63h-340zM337 -31q-26 -24 -26 -62q0 -28 18 -42.5t52 -14.5q19 0 47 8l-4 -48q-30 -14 -67 -14q-50 0 -79.5 24t-29.5 69q0 57 43.5 92t106.5 49l3 -26q-38 -11 -64 -35z" />
    <glyph glyph-name="eogonek" unicode="&#x119;" horiz-adv-x="580" 
d="M112 231v-14q0 -77 43 -121t110 -44q60 0 106.5 28t75.5 77l69 -9q-39 -75 -105 -116.5t-150 -41.5q-65 0 -114.5 29.5t-77 80.5t-27.5 114q0 85 36.5 155t102 111t148.5 41q67 0 114 -28t71.5 -76.5t24.5 -109.5q0 -22 -6 -76h-421zM196.5 413q-56.5 -46 -75.5 -122h348
v11q0 76 -38 116.5t-104 40.5q-74 0 -130.5 -46zM281 -31q-26 -24 -26 -62q0 -28 18 -42.5t52 -14.5q19 0 47 8l-4 -48q-30 -14 -67 -14q-50 0 -79.5 24t-29.5 69q0 57 43.5 92t106.5 49l3 -26q-38 -11 -64 -35z" />
    <glyph glyph-name="Ecaron" unicode="&#x11a;" horiz-adv-x="545" 
d="M205 697l-38 -269h336l-8 -62h-336l-43 -303h345l-9 -63h-416l107 760h411l-9 -63h-340zM558 1008l-169 -168h-62l-121 168h80l75 -117l111 117h86z" />
    <glyph glyph-name="ecaron" unicode="&#x11b;" horiz-adv-x="580" 
d="M112 231v-14q0 -77 43 -121t110 -44q60 0 106.5 28t75.5 77l69 -9q-39 -75 -105 -116.5t-150 -41.5q-65 0 -114.5 29.5t-77 80.5t-27.5 114q0 85 36.5 155t102 111t148.5 41q67 0 114 -28t71.5 -76.5t24.5 -109.5q0 -22 -6 -76h-421zM196.5 413q-56.5 -46 -75.5 -122h348
v11q0 76 -38 116.5t-104 40.5q-74 0 -130.5 -46zM538 760l-169 -168h-62l-121 168h80l75 -117l111 117h86z" />
    <glyph glyph-name="Gcircumflex" unicode="&#x11c;" horiz-adv-x="803" 
d="M397 397h356l-44 -311q-140 -96 -304 -96q-107 0 -184.5 40.5t-118.5 116.5t-41 179q0 120 56 222t153.5 162t215.5 60q119 0 194.5 -59t102.5 -152l-71 -8q-21 64 -79.5 109.5t-151.5 45.5q-99 0 -178.5 -53t-124 -141t-44.5 -187q0 -129 73 -200t206 -71q123 0 229 63
l31 217h-285zM584 840l-75 117l-111 -117h-86l169 168h62l121 -168h-80z" />
    <glyph glyph-name="gcircumflex" unicode="&#x11d;" horiz-adv-x="616" 
d="M586 512l-63 -447q-37 -269 -278 -269q-82 0 -134 33t-69 84l70 14q14 -34 48.5 -53.5t87.5 -19.5q86 0 138 51t66 150l6 40q-36 -49 -89 -77t-113 -28q-61 0 -110 29t-76.5 81t-27.5 118q0 88 39 157t104.5 107.5t143.5 38.5q61 0 107.5 -29.5t66.5 -81.5l19 102h64z
M378 84.5q50 32.5 79 87.5t29 120q0 75 -42.5 121t-113.5 46q-59 0 -109 -29.5t-79.5 -83t-29.5 -121.5q0 -81 41.5 -127t115.5 -46q59 0 109 32.5zM429 592l-75 117l-111 -117h-86l169 168h62l121 -168h-80z" />
    <glyph glyph-name="Gbreve" unicode="&#x11e;" horiz-adv-x="803" 
d="M397 397h356l-44 -311q-140 -96 -304 -96q-107 0 -184.5 40.5t-118.5 116.5t-41 179q0 120 56 222t153.5 162t215.5 60q119 0 194.5 -59t102.5 -152l-71 -8q-21 64 -79.5 109.5t-151.5 45.5q-99 0 -178.5 -53t-124 -141t-44.5 -187q0 -129 73 -200t206 -71q123 0 229 63
l31 217h-285zM387 884q-38 43 -38 124h54q0 -54 27 -82.5t73 -28.5q44 0 76 28t48 83h54q-19 -82 -66.5 -124.5t-118.5 -42.5t-109 43z" />
    <glyph glyph-name="gbreve" unicode="&#x11f;" horiz-adv-x="616" 
d="M586 512l-63 -447q-37 -269 -278 -269q-82 0 -134 33t-69 84l70 14q14 -34 48.5 -53.5t87.5 -19.5q86 0 138 51t66 150l6 40q-36 -49 -89 -77t-113 -28q-61 0 -110 29t-76.5 81t-27.5 118q0 88 39 157t104.5 107.5t143.5 38.5q61 0 107.5 -29.5t66.5 -81.5l19 102h64z
M378 84.5q50 32.5 79 87.5t29 120q0 75 -42.5 121t-113.5 46q-59 0 -109 -29.5t-79.5 -83t-29.5 -121.5q0 -81 41.5 -127t115.5 -46q59 0 109 32.5zM232 636q-38 43 -38 124h54q0 -54 27 -82.5t73 -28.5q44 0 76 28t48 83h54q-19 -82 -66.5 -124.5t-118.5 -42.5t-109 43z
" />
    <glyph glyph-name="Gdotaccent" unicode="&#x120;" horiz-adv-x="803" 
d="M397 397h356l-44 -311q-140 -96 -304 -96q-107 0 -184.5 40.5t-118.5 116.5t-41 179q0 120 56 222t153.5 162t215.5 60q119 0 194.5 -59t102.5 -152l-71 -8q-21 64 -79.5 109.5t-151.5 45.5q-99 0 -178.5 -53t-124 -141t-44.5 -187q0 -129 73 -200t206 -71q123 0 229 63
l31 217h-285zM467.5 878q-16.5 17 -16.5 40q0 24 16.5 40.5t40.5 16.5q23 0 39.5 -16.5t16.5 -40.5q0 -23 -16.5 -40t-39.5 -17q-24 0 -40.5 17z" />
    <glyph glyph-name="gdotaccent" unicode="&#x121;" horiz-adv-x="616" 
d="M586 512l-63 -447q-37 -269 -278 -269q-82 0 -134 33t-69 84l70 14q14 -34 48.5 -53.5t87.5 -19.5q86 0 138 51t66 150l6 40q-36 -49 -89 -77t-113 -28q-61 0 -110 29t-76.5 81t-27.5 118q0 88 39 157t104.5 107.5t143.5 38.5q61 0 107.5 -29.5t66.5 -81.5l19 102h64z
M378 84.5q50 32.5 79 87.5t29 120q0 75 -42.5 121t-113.5 46q-59 0 -109 -29.5t-79.5 -83t-29.5 -121.5q0 -81 41.5 -127t115.5 -46q59 0 109 32.5zM312.5 630q-16.5 17 -16.5 40q0 24 16.5 40.5t40.5 16.5q23 0 39.5 -16.5t16.5 -40.5q0 -23 -16.5 -40t-39.5 -17
q-24 0 -40.5 17z" />
    <glyph glyph-name="Gcommaaccent" unicode="&#x122;" horiz-adv-x="803" 
d="M397 397h356l-44 -311q-140 -96 -304 -96q-107 0 -184.5 40.5t-118.5 116.5t-41 179q0 120 56 222t153.5 162t215.5 60q119 0 194.5 -59t102.5 -152l-71 -8q-21 64 -79.5 109.5t-151.5 45.5q-99 0 -178.5 -53t-124 -141t-44.5 -187q0 -129 73 -200t206 -71q123 0 229 63
l31 217h-285zM346 -204h-55l75 134h91z" />
    <glyph glyph-name="gcommaaccent" unicode="&#x123;" horiz-adv-x="616" 
d="M586 512l-63 -447q-37 -269 -278 -269q-82 0 -134 33t-69 84l70 14q14 -34 48.5 -53.5t87.5 -19.5q86 0 138 51t66 150l6 40q-36 -49 -89 -77t-113 -28q-61 0 -110 29t-76.5 81t-27.5 118q0 88 39 157t104.5 107.5t143.5 38.5q61 0 107.5 -29.5t66.5 -81.5l19 102h64z
M378 84.5q50 32.5 79 87.5t29 120q0 75 -42.5 121t-113.5 46q-59 0 -109 -29.5t-79.5 -83t-29.5 -121.5q0 -81 41.5 -127t115.5 -46q59 0 109 32.5zM398 736h55l-75 -134h-91z" />
    <glyph glyph-name="Hcircumflex" unicode="&#x124;" horiz-adv-x="658" 
d="M657 760l-107 -760h-71l52 366h-372l-52 -366h-71l107 760h71l-47 -332h372l47 332h71zM499 840l-75 117l-111 -117h-86l169 168h62l121 -168h-80z" />
    <glyph glyph-name="hcircumflex" unicode="&#x125;" horiz-adv-x="566" 
d="M473 476.5q43 -44.5 43 -117.5q0 -18 -4 -46l-43 -313h-70l43 307q3 23 3 41q0 57 -28.5 85.5t-88.5 28.5q-78 0 -126.5 -54t-62.5 -128l-39 -280h-70l107 760h70l-49 -345q34 52 84 79t108 27q80 0 123 -44.5zM465 840l-75 117l-111 -117h-86l169 168h62l121 -168h-80z
" />
    <glyph glyph-name="Hbar" unicode="&#x126;" horiz-adv-x="660" 
d="M691 551h-62l-78 -551h-71l52 366h-372l-52 -366h-71l78 551h-64l9 61h63l21 148h71l-21 -148h372l21 148h71l-21 -148h63zM558 551h-372l-18 -123h372z" />
    <glyph glyph-name="hbar" unicode="&#x127;" horiz-adv-x="609" 
d="M516 476.5q43 -44.5 43 -117.5q0 -18 -4 -46l-43 -313h-70l43 307q3 23 3 41q0 57 -28.5 85.5t-88.5 28.5q-78 0 -126.5 -54t-62.5 -128l-39 -280h-70l87 617h-109l9 57h108l12 86h70l-12 -86h241l-9 -57h-240l-29 -202q34 52 84 79t108 27q80 0 123 -44.5z" />
    <glyph glyph-name="Itilde" unicode="&#x128;" horiz-adv-x="215" 
d="M143 760h71l-107 -760h-71zM182 918q-17 13 -27.5 18.5t-22.5 5.5q-15 0 -31.5 -10.5t-29.5 -30.5l-47 22q45 72 117 72q25 0 44.5 -9.5t38.5 -24.5q17 -12 28 -18t22 -6q15 0 32 10.5t31 31.5l48 -18q-26 -37 -57.5 -57t-67.5 -20q-39 0 -78 34z" />
    <glyph glyph-name="itilde" unicode="&#x129;" horiz-adv-x="203" 
d="M102 512h70l-71 -512h-70zM141 670q-17 13 -27.5 18.5t-22.5 5.5q-15 0 -31.5 -10.5t-29.5 -30.5l-47 22q45 72 117 72q25 0 44.5 -9.5t38.5 -24.5q17 -12 28 -18t22 -6q15 0 32 10.5t31 31.5l48 -18q-26 -37 -57.5 -57t-67.5 -20q-39 0 -78 34z" />
    <glyph glyph-name="Imacron" unicode="&#x12a;" horiz-adv-x="215" 
d="M143 760h71l-107 -760h-71zM71 959h274l-8 -55h-274z" />
    <glyph glyph-name="imacron" unicode="&#x12b;" horiz-adv-x="203" 
d="M102 512h70l-71 -512h-70zM30 711h274l-8 -55h-274z" />
    <glyph glyph-name="Ibreve" unicode="&#x12c;" horiz-adv-x="215" 
d="M143 760h71l-107 -760h-71zM81 884q-38 43 -38 124h54q0 -54 27 -82.5t73 -28.5q44 0 76 28t48 83h54q-19 -82 -66.5 -124.5t-118.5 -42.5t-109 43z" />
    <glyph glyph-name="ibreve" unicode="&#x12d;" horiz-adv-x="203" 
d="M102 512h70l-71 -512h-70zM40 636q-38 43 -38 124h54q0 -54 27 -82.5t73 -28.5q44 0 76 28t48 83h54q-19 -82 -66.5 -124.5t-118.5 -42.5t-109 43z" />
    <glyph glyph-name="Iogonek" unicode="&#x12e;" horiz-adv-x="215" 
d="M143 760h71l-107 -760h-71zM31 -31q-26 -24 -26 -62q0 -28 18 -42.5t52 -14.5q19 0 47 8l-4 -48q-30 -14 -67 -14q-50 0 -79.5 24t-29.5 69q0 57 43.5 92t106.5 49l3 -26q-38 -11 -64 -35z" />
    <glyph glyph-name="iogonek" unicode="&#x12f;" horiz-adv-x="203" 
d="M102 512h70l-71 -512h-70zM120.5 630q-16.5 17 -16.5 40q0 24 16.5 40.5t40.5 16.5q23 0 39.5 -16.5t16.5 -40.5q0 -23 -16.5 -40t-39.5 -17q-24 0 -40.5 17zM25 -31q-26 -24 -26 -62q0 -28 18 -42.5t52 -14.5q19 0 47 8l-4 -48q-30 -14 -67 -14q-50 0 -79.5 24t-29.5 69
q0 57 43.5 92t106.5 49l3 -26q-38 -11 -64 -35z" />
    <glyph glyph-name="Idotaccent" unicode="&#x130;" horiz-adv-x="215" 
d="M143 760h71l-107 -760h-71zM161.5 878q-16.5 17 -16.5 40q0 24 16.5 40.5t40.5 16.5q23 0 39.5 -16.5t16.5 -40.5q0 -23 -16.5 -40t-39.5 -17q-24 0 -40.5 17z" />
    <glyph glyph-name="dotlessi" unicode="&#x131;" horiz-adv-x="203" 
d="M102 512h70l-71 -512h-70z" />
    <glyph glyph-name="IJ" unicode="&#x132;" horiz-adv-x="553" 
d="M174.5 2.5q-39.5 12.5 -65.5 31.5l37 53q47 -33 111 -33q131 0 154 170l75 537h71l-78 -551q-15 -108 -74.5 -164t-148.5 -56q-42 0 -81.5 12.5zM143 760h71l-72 -514h-71z" />
    <glyph glyph-name="ij" unicode="&#x133;" horiz-adv-x="422" 
d="M120 630q-17 17 -17 40q0 24 17 40.5t40 16.5t40 -16.5t17 -40.5q0 -23 -17 -40t-40 -17t-40 17zM102 512h70l-71 -512h-70zM338.5 630q-16.5 17 -16.5 40q0 24 16.5 40.5t40.5 16.5q23 0 39.5 -16.5t16.5 -40.5q0 -23 -16.5 -40t-39.5 -17q-24 0 -40.5 17zM61 -188
l13 60q40 -14 77 -14q44 0 65 24.5t29 85.5l76 544h70l-78 -557q-13 -85 -54 -122t-106 -37q-55 0 -92 16z" />
    <glyph glyph-name="Jcircumflex" unicode="&#x134;" horiz-adv-x="547" 
d="M81.5 43.5q-53.5 53.5 -53.5 151.5l69 5q0 -73 33.5 -109.5t97.5 -36.5q71 0 117.5 44.5t60.5 143.5l74 518h70l-73 -519q-18 -130 -81 -190.5t-169 -60.5q-92 0 -145.5 53.5zM613 840l-75 117l-111 -117h-86l169 168h62l121 -168h-80z" />
    <glyph glyph-name="jcircumflex" unicode="&#x135;" horiz-adv-x="218" 
d="M-143 -188l13 60q40 -14 78 -14q43 0 64 24.5t29 85.5l76 544h70l-78 -557q-13 -85 -54 -122t-105 -37q-56 0 -93 16zM225 592l-45 113l-78 -113h-84l137 168h61l89 -168h-80z" />
    <glyph glyph-name="Kcommaaccent" unicode="&#x136;" horiz-adv-x="589" 
d="M348 434l190 -434h-74l-165 378l-165 -188l-27 -190h-71l107 760h71l-65 -463l406 463h80zM206 -204h-55l75 134h91z" />
    <glyph glyph-name="kcommaaccent" unicode="&#x137;" horiz-adv-x="483" 
d="M284 321l162 -321h-72l-141 273l-109 -102l-24 -171h-70l107 760h70l-69 -493l261 245h90zM171 -204h-55l75 134h91z" />
    <glyph glyph-name="kgreenlandic" unicode="&#x138;" horiz-adv-x="489" 
d="M481 512l-9 -61h-18q-24 0 -42.5 -11t-44.5 -36l-81 -77l166 -327h-73l-143 279l-112 -107l-24 -172h-70l72 512h70l-34 -244l199 188q29 28 61.5 42t63.5 14h19z" />
    <glyph glyph-name="Lacute" unicode="&#x139;" horiz-adv-x="485" 
d="M435 63l-9 -63h-390l107 760h71l-98 -697h319zM224 838h-56l101 170h92z" />
    <glyph glyph-name="lacute" unicode="&#x13a;" horiz-adv-x="256" 
d="M81.5 15q-34.5 25 -34.5 84q0 22 3 47l87 614h70l-86 -611q-3 -21 -3 -37q0 -36 17 -48t58 -12h7l-4 -62h-14q-66 0 -100.5 25zM211 838h-56l101 170h92z" />
    <glyph glyph-name="Lcommaaccent" unicode="&#x13b;" horiz-adv-x="485" 
d="M435 63l-9 -63h-390l107 760h71l-98 -697h319zM176 -204h-55l75 134h91z" />
    <glyph glyph-name="lcommaaccent" unicode="&#x13c;" horiz-adv-x="256" 
d="M81.5 15q-34.5 25 -34.5 84q0 22 3 47l87 614h70l-86 -611q-3 -21 -3 -37q0 -36 17 -48t58 -12h7l-4 -62h-14q-66 0 -100.5 25zM39 -204h-55l75 134h91z" />
    <glyph glyph-name="Lcaron" unicode="&#x13d;" horiz-adv-x="485" 
d="M116 63h319l-9 -63h-390l107 760h71zM407 570h-48l38 190h84z" />
    <glyph glyph-name="lcaron" unicode="&#x13e;" horiz-adv-x="345" 
d="M81.5 15q-34.5 25 -34.5 84q0 22 3 47l87 614h70l-86 -611q-3 -21 -3 -37q0 -36 17 -48t58 -12h7l-4 -62h-14q-66 0 -100.5 25zM325 590h-48l35 170h84z" />
    <glyph glyph-name="Ldot" unicode="&#x13f;" horiz-adv-x="485" 
d="M435 63l-9 -63h-390l107 760h71l-98 -697h319zM324.992 343.5q-16.3887 17.5 -15.5508 41.5t18.4482 41.5q17.6113 17.5 42.6113 17.5q24 0 40.3887 -17.5q16.3896 -17.5 15.5518 -41.5t-18.4492 -41.5t-41.6113 -17.5q-25 0 -41.3887 17.5z" />
    <glyph glyph-name="ldot" unicode="&#x140;" horiz-adv-x="361" 
d="M254.992 343.5q-16.3887 17.5 -15.5508 41.5t18.4482 41.5q17.6113 17.5 42.6113 17.5q24 0 40.3887 -17.5q16.3896 -17.5 15.5518 -41.5t-18.4492 -41.5t-41.6113 -17.5q-25 0 -41.3887 17.5zM81.5 15q-34.5 25 -34.5 84q0 22 3 47l87 614h70l-86 -611q-3 -21 -3 -37
q0 -36 17 -48t58 -12h7l-4 -62h-14q-66 0 -100.5 25z" />
    <glyph glyph-name="Lslash" unicode="&#x141;" horiz-adv-x="527" 
d="M477 63l-9 -63h-390l45 319l-79 -36l-20 55l109 50l52 372h71l-48 -337l202 92l20 -56l-231 -105l-41 -291h319z" />
    <glyph glyph-name="lslash" unicode="&#x142;" horiz-adv-x="340" 
d="M173 64q17 -12 58 -12h7l-4 -62h-14q-66 0 -100.5 25t-34.5 84q0 22 3 47l24 170l-70 -32l-20 54l100 46l53 376h70l-48 -342l138 63l20 -54l-168 -77l-28 -201q-3 -21 -3 -37q0 -36 17 -48z" />
    <glyph glyph-name="Nacute" unicode="&#x143;" horiz-adv-x="658" 
d="M657 760l-107 -760h-70l-283 648l-91 -648h-70l107 760h70l283 -648l91 648h70zM438 838h-56l101 170h92z" />
    <glyph glyph-name="nacute" unicode="&#x144;" horiz-adv-x="566" 
d="M473 476.5q43 -44.5 43 -117.5q0 -18 -4 -46l-43 -313h-70l43 307q3 23 3 41q0 57 -28.5 85.5t-88.5 28.5q-77 0 -125 -51.5t-63 -124.5l-40 -286h-70l72 512h63l-8 -99q34 54 84 81t109 27q80 0 123 -44.5zM369 590h-56l101 170h92z" />
    <glyph glyph-name="Ncommaaccent" unicode="&#x145;" horiz-adv-x="658" 
d="M657 760l-107 -760h-70l-283 648l-91 -648h-70l107 760h70l283 -648l91 648h70zM240 -204h-55l75 134h91z" />
    <glyph glyph-name="ncommaaccent" unicode="&#x146;" horiz-adv-x="566" 
d="M473 476.5q43 -44.5 43 -117.5q0 -18 -4 -46l-43 -313h-70l43 307q3 23 3 41q0 57 -28.5 85.5t-88.5 28.5q-77 0 -125 -51.5t-63 -124.5l-40 -286h-70l72 512h63l-8 -99q34 54 84 81t109 27q80 0 123 -44.5zM186 -204h-55l75 134h91z" />
    <glyph glyph-name="Ncaron" unicode="&#x147;" horiz-adv-x="658" 
d="M657 760l-107 -760h-70l-283 648l-91 -648h-70l107 760h70l283 -648l91 648h70zM611 1008l-169 -168h-62l-121 168h80l75 -117l111 117h86z" />
    <glyph glyph-name="ncaron" unicode="&#x148;" horiz-adv-x="566" 
d="M473 476.5q43 -44.5 43 -117.5q0 -18 -4 -46l-43 -313h-70l43 307q3 23 3 41q0 57 -28.5 85.5t-88.5 28.5q-77 0 -125 -51.5t-63 -124.5l-40 -286h-70l72 512h63l-8 -99q34 54 84 81t109 27q80 0 123 -44.5zM542 760l-169 -168h-62l-121 168h80l75 -117l111 117h86z" />
    <glyph glyph-name="napostrophe" unicode="&#x149;" horiz-adv-x="599" 
d="M103 590h-56l101 170h92zM506 476.5q43 -44.5 43 -117.5q0 -18 -4 -46l-43 -313h-70l43 307q3 23 3 41q0 57 -28.5 85.5t-88.5 28.5q-77 0 -125 -51.5t-63 -124.5l-40 -286h-70l72 512h63l-8 -99q34 54 84 81t109 27q80 0 123 -44.5z" />
    <glyph glyph-name="Eng" unicode="&#x14a;" horiz-adv-x="658" 
d="M657 760l-103 -725q-16 -117 -84 -178t-170 -61q-19 0 -37 3l14 63q11 -2 32 -2q62 0 107 34.5t63 105.5l-281 644l-91 -644h-71l107 760h71l283 -645l89 645h71z" />
    <glyph glyph-name="eng" unicode="&#x14b;" horiz-adv-x="566" 
d="M473 476.5q43 -44.5 43 -117.5q0 -18 -4 -46l-43 -313l-6 -45q-23 -159 -162 -159q-54 0 -91 16l13 60q42 -14 78 -14q43 0 64 23.5t28 80.5l29 211h1l19 134q3 23 3 41q0 57 -28.5 85.5t-88.5 28.5q-55 0 -95.5 -27.5t-64 -71t-30.5 -92.5l-38 -271h-70l72 512h63
l-9 -100q34 54 84.5 81.5t109.5 27.5q80 0 123 -44.5z" />
    <glyph glyph-name="Omacron" unicode="&#x14c;" 
d="M214.5 32q-73.5 42 -113.5 118.5t-40 176.5q0 120 58 222t157 161.5t215 59.5q96 0 169.5 -42t113.5 -118.5t40 -176.5q0 -120 -58 -222t-157 -161.5t-215 -59.5q-96 0 -169.5 42zM565 106.5q81 52.5 128.5 139.5t47.5 187q0 82 -31 143.5t-88.5 95.5t-134.5 34
q-96 0 -177 -52.5t-128.5 -140t-47.5 -187.5q0 -81 31 -143t88 -95.5t134 -33.5q97 0 178 52.5zM385 959h274l-8 -55h-274z" />
    <glyph glyph-name="omacron" unicode="&#x14d;" horiz-adv-x="597" 
d="M148 18.5q-50 28.5 -78 80t-28 118.5q0 87 38 156.5t105 108.5t150 39q65 0 115 -28.5t77.5 -79.5t27.5 -118q0 -88 -37.5 -157.5t-104.5 -108.5t-151 -39q-64 0 -114 28.5zM376 82q50 30 79.5 84.5t29.5 124.5q0 80 -42 124t-112 44q-60 0 -110 -30t-79.5 -84.5
t-29.5 -123.5q0 -80 42 -124.5t112 -44.5q60 0 110 30zM226 711h274l-8 -55h-274z" />
    <glyph glyph-name="Obreve" unicode="&#x14e;" 
d="M214.5 32q-73.5 42 -113.5 118.5t-40 176.5q0 120 58 222t157 161.5t215 59.5q96 0 169.5 -42t113.5 -118.5t40 -176.5q0 -120 -58 -222t-157 -161.5t-215 -59.5q-96 0 -169.5 42zM565 106.5q81 52.5 128.5 139.5t47.5 187q0 82 -31 143.5t-88.5 95.5t-134.5 34
q-96 0 -177 -52.5t-128.5 -140t-47.5 -187.5q0 -81 31 -143t88 -95.5t134 -33.5q97 0 178 52.5zM395 884q-38 43 -38 124h54q0 -54 27 -82.5t73 -28.5q44 0 76 28t48 83h54q-19 -82 -66.5 -124.5t-118.5 -42.5t-109 43z" />
    <glyph glyph-name="obreve" unicode="&#x14f;" horiz-adv-x="597" 
d="M148 18.5q-50 28.5 -78 80t-28 118.5q0 87 38 156.5t105 108.5t150 39q65 0 115 -28.5t77.5 -79.5t27.5 -118q0 -88 -37.5 -157.5t-104.5 -108.5t-151 -39q-64 0 -114 28.5zM376 82q50 30 79.5 84.5t29.5 124.5q0 80 -42 124t-112 44q-60 0 -110 -30t-79.5 -84.5
t-29.5 -123.5q0 -80 42 -124.5t112 -44.5q60 0 110 30zM236 636q-38 43 -38 124h54q0 -54 27 -82.5t73 -28.5q44 0 76 28t48 83h54q-19 -82 -66.5 -124.5t-118.5 -42.5t-109 43z" />
    <glyph glyph-name="Ohungarumlaut" unicode="&#x150;" 
d="M214.5 32q-73.5 42 -113.5 118.5t-40 176.5q0 120 58 222t157 161.5t215 59.5q96 0 169.5 -42t113.5 -118.5t40 -176.5q0 -120 -58 -222t-157 -161.5t-215 -59.5q-96 0 -169.5 42zM565 106.5q81 52.5 128.5 139.5t47.5 187q0 82 -31 143.5t-88.5 95.5t-134.5 34
q-96 0 -177 -52.5t-128.5 -140t-47.5 -187.5q0 -81 31 -143t88 -95.5t134 -33.5q97 0 178 52.5zM414 838h-56l101 170h92zM608 838h-56l101 170h92z" />
    <glyph glyph-name="ohungarumlaut" unicode="&#x151;" horiz-adv-x="597" 
d="M148 18.5q-50 28.5 -78 80t-28 118.5q0 87 38 156.5t105 108.5t150 39q65 0 115 -28.5t77.5 -79.5t27.5 -118q0 -88 -37.5 -157.5t-104.5 -108.5t-151 -39q-64 0 -114 28.5zM376 82q50 30 79.5 84.5t29.5 124.5q0 80 -42 124t-112 44q-60 0 -110 -30t-79.5 -84.5
t-29.5 -123.5q0 -80 42 -124.5t112 -44.5q60 0 110 30zM255 590h-56l101 170h92zM449 590h-56l101 170h92z" />
    <glyph glyph-name="OE" unicode="&#x152;" horiz-adv-x="1195" 
d="M214.5 32q-73.5 42 -113.5 118.5t-40 176.5q0 120 58 222t157 161.5t215 59.5q96 0 169.5 -42t113.5 -118.5t40 -176.5q0 -120 -58 -222t-157 -161.5t-215 -59.5q-96 0 -169.5 42zM565 106.5q81 52.5 128.5 139.5t47.5 187q0 82 -31 143.5t-88.5 95.5t-134.5 34
q-96 0 -177 -52.5t-128.5 -140t-47.5 -187.5q0 -81 31 -143t88 -95.5t134 -33.5q97 0 178 52.5zM855 697l-38 -269h336l-8 -62h-336l-43 -303h345l-9 -63h-416l107 760h411l-9 -63h-340z" />
    <glyph glyph-name="oe" unicode="&#x153;" horiz-adv-x="1018" 
d="M148 18.5q-50 28.5 -78 80t-28 118.5q0 87 38 156.5t105 108.5t150 39q65 0 115 -28.5t77.5 -79.5t27.5 -118q0 -88 -37.5 -157.5t-104.5 -108.5t-151 -39q-64 0 -114 28.5zM376 82q50 30 79.5 84.5t29.5 124.5q0 80 -42 124t-112 44q-60 0 -110 -30t-79.5 -84.5
t-29.5 -123.5q0 -80 42 -124.5t112 -44.5q60 0 110 30zM551 231v-14q0 -77 43 -121t110 -44q60 0 106.5 28t75.5 77l69 -9q-39 -75 -105 -116.5t-150 -41.5q-65 0 -114.5 29.5t-77 80.5t-27.5 114q0 85 36.5 155t102 111t148.5 41q67 0 114 -28t71.5 -76.5t24.5 -109.5
q0 -22 -6 -76h-421zM635.5 413q-56.5 -46 -75.5 -122h348v11q0 76 -38 116.5t-104 40.5q-74 0 -130.5 -46z" />
    <glyph glyph-name="Racute" unicode="&#x154;" horiz-adv-x="621" 
d="M566.5 369.5q-49.5 -73.5 -135.5 -104.5l103 -265h-79l-98 248q-26 -2 -41 -2h-174l-35 -246h-71l107 760h234q117 0 178 -56.5t61 -163.5q0 -97 -49.5 -170.5zM322 309q70 0 120.5 30t76.5 82t26 117q0 80 -42.5 119.5t-138.5 39.5h-159l-54 -388h171zM391 838h-56
l101 170h92z" />
    <glyph glyph-name="racute" unicode="&#x155;" horiz-adv-x="353" 
d="M368 519l-15 -73q-20 5 -44 5q-67 0 -110.5 -51t-60.5 -134l-38 -266h-70l72 512h63l-8 -103q32 55 78 83.5t96 28.5q27 0 37 -2zM256 590h-56l101 170h92z" />
    <glyph glyph-name="Rcommaaccent" unicode="&#x156;" horiz-adv-x="621" 
d="M566.5 369.5q-49.5 -73.5 -135.5 -104.5l103 -265h-79l-98 248q-26 -2 -41 -2h-174l-35 -246h-71l107 760h234q117 0 178 -56.5t61 -163.5q0 -97 -49.5 -170.5zM322 309q70 0 120.5 30t76.5 82t26 117q0 80 -42.5 119.5t-138.5 39.5h-159l-54 -388h171zM208 -204h-55
l75 134h91z" />
    <glyph glyph-name="rcommaaccent" unicode="&#x157;" horiz-adv-x="353" 
d="M368 519l-15 -73q-20 5 -44 5q-67 0 -110.5 -51t-60.5 -134l-38 -266h-70l72 512h63l-8 -103q32 55 78 83.5t96 28.5q27 0 37 -2zM54 -204h-55l75 134h91z" />
    <glyph glyph-name="Rcaron" unicode="&#x158;" horiz-adv-x="621" 
d="M566.5 369.5q-49.5 -73.5 -135.5 -104.5l103 -265h-79l-98 248q-26 -2 -41 -2h-174l-35 -246h-71l107 760h234q117 0 178 -56.5t61 -163.5q0 -97 -49.5 -170.5zM322 309q70 0 120.5 30t76.5 82t26 117q0 80 -42.5 119.5t-138.5 39.5h-159l-54 -388h171zM564 1008
l-169 -168h-62l-121 168h80l75 -117l111 117h86z" />
    <glyph glyph-name="rcaron" unicode="&#x159;" horiz-adv-x="353" 
d="M368 519l-15 -73q-20 5 -44 5q-67 0 -110.5 -51t-60.5 -134l-38 -266h-70l72 512h63l-8 -103q32 55 78 83.5t96 28.5q27 0 37 -2zM429 760l-169 -168h-62l-121 168h80l75 -117l111 117h86z" />
    <glyph glyph-name="Sacute" unicode="&#x15a;" horiz-adv-x="630" 
d="M102 47q-62 57 -62 157l70 7q0 -86 49.5 -121.5t128.5 -35.5q97 0 154 44.5t57 122.5q0 39 -16 62.5t-43.5 37.5t-76.5 30l-87 28q-92 30 -134.5 75t-42.5 112q0 61 32 107t91.5 71.5t140.5 25.5q120 0 181.5 -55t62.5 -150l-70 -9q-2 150 -173 150q-84 0 -138 -35
t-54 -101q0 -48 32 -76.5t106 -52.5l79 -26q61 -19 99.5 -40.5t60.5 -57.5t22 -92q0 -73 -36.5 -126.5t-101 -81t-148.5 -27.5q-121 0 -183 57zM407 838h-56l101 170h92z" />
    <glyph glyph-name="sacute" unicode="&#x15b;" horiz-adv-x="467" 
d="M65 30.5q-45 40.5 -45 111.5l70 8q0 -50 26 -74t85 -24q66 0 105 24.5t39 76.5q0 23 -13 37.5t-35 24t-64 23.5l-34 12q-70 22 -105 50.5t-35 78.5q0 67 54 104.5t145 37.5q79 0 126.5 -38t47.5 -101l-70 -7q-1 38 -27.5 61t-83.5 23q-58 0 -90 -21t-32 -58
q0 -24 21.5 -38.5t70.5 -30.5l41 -14q52 -17 83.5 -33t50.5 -41.5t19 -64.5q0 -84 -59.5 -126t-154.5 -42q-91 0 -136 40.5zM296 590h-56l101 170h92z" />
    <glyph glyph-name="Scircumflex" unicode="&#x15c;" horiz-adv-x="630" 
d="M102 47q-62 57 -62 157l70 7q0 -86 49.5 -121.5t128.5 -35.5q97 0 154 44.5t57 122.5q0 39 -16 62.5t-43.5 37.5t-76.5 30l-87 28q-92 30 -134.5 75t-42.5 112q0 61 32 107t91.5 71.5t140.5 25.5q120 0 181.5 -55t62.5 -150l-70 -9q-2 150 -173 150q-84 0 -138 -35
t-54 -101q0 -48 32 -76.5t106 -52.5l79 -26q61 -19 99.5 -40.5t60.5 -57.5t22 -92q0 -73 -36.5 -126.5t-101 -81t-148.5 -27.5q-121 0 -183 57zM468 840l-75 117l-111 -117h-86l169 168h62l121 -168h-80z" />
    <glyph glyph-name="scircumflex" unicode="&#x15d;" horiz-adv-x="467" 
d="M65 30.5q-45 40.5 -45 111.5l70 8q0 -50 26 -74t85 -24q66 0 105 24.5t39 76.5q0 23 -13 37.5t-35 24t-64 23.5l-34 12q-70 22 -105 50.5t-35 78.5q0 67 54 104.5t145 37.5q79 0 126.5 -38t47.5 -101l-70 -7q-1 38 -27.5 61t-83.5 23q-58 0 -90 -21t-32 -58
q0 -24 21.5 -38.5t70.5 -30.5l41 -14q52 -17 83.5 -33t50.5 -41.5t19 -64.5q0 -84 -59.5 -126t-154.5 -42q-91 0 -136 40.5zM357 592l-75 117l-111 -117h-86l169 168h62l121 -168h-80z" />
    <glyph glyph-name="Scedilla" unicode="&#x15e;" horiz-adv-x="630" 
d="M102 47q-62 57 -62 157l70 7q0 -86 49.5 -121.5t128.5 -35.5q97 0 154 44.5t57 122.5q0 39 -16 62.5t-43.5 37.5t-76.5 30l-87 28q-92 30 -134.5 75t-42.5 112q0 61 32 107t91.5 71.5t140.5 25.5q120 0 181.5 -55t62.5 -150l-70 -9q-2 150 -173 150q-84 0 -138 -35
t-54 -101q0 -48 32 -76.5t106 -52.5l79 -26q61 -19 99.5 -40.5t60.5 -57.5t22 -92q0 -73 -36.5 -126.5t-101 -81t-148.5 -27.5q-121 0 -183 57zM354.5 -58q21.5 -18 21.5 -50q0 -47 -31.5 -71.5t-79.5 -24.5q-22 0 -43 5t-33 14l20 37q20 -12 47 -12q25 0 39 12.5t14 34.5
q0 16 -9 24t-26 8q-21 0 -41 -13l-21 13l41 98h50l-21 -58q5 1 15 1q36 0 57.5 -18z" />
    <glyph glyph-name="scedilla" unicode="&#x15f;" horiz-adv-x="467" 
d="M65 30.5q-45 40.5 -45 111.5l70 8q0 -50 26 -74t85 -24q66 0 105 24.5t39 76.5q0 23 -13 37.5t-35 24t-64 23.5l-34 12q-70 22 -105 50.5t-35 78.5q0 67 54 104.5t145 37.5q79 0 126.5 -38t47.5 -101l-70 -7q-1 38 -27.5 61t-83.5 23q-58 0 -90 -21t-32 -58
q0 -24 21.5 -38.5t70.5 -30.5l41 -14q52 -17 83.5 -33t50.5 -41.5t19 -64.5q0 -84 -59.5 -126t-154.5 -42q-91 0 -136 40.5zM270.5 -58q21.5 -18 21.5 -50q0 -47 -31.5 -71.5t-79.5 -24.5q-22 0 -43 5t-33 14l20 37q20 -12 47 -12q25 0 39 12.5t14 34.5q0 16 -9 24t-26 8
q-21 0 -41 -13l-21 13l41 98h50l-21 -58q5 1 15 1q36 0 57.5 -18z" />
    <glyph glyph-name="Scaron" unicode="&#x160;" horiz-adv-x="630" 
d="M102 47q-62 57 -62 157l70 7q0 -86 49.5 -121.5t128.5 -35.5q97 0 154 44.5t57 122.5q0 39 -16 62.5t-43.5 37.5t-76.5 30l-87 28q-92 30 -134.5 75t-42.5 112q0 61 32 107t91.5 71.5t140.5 25.5q120 0 181.5 -55t62.5 -150l-70 -9q-2 150 -173 150q-84 0 -138 -35
t-54 -101q0 -48 32 -76.5t106 -52.5l79 -26q61 -19 99.5 -40.5t60.5 -57.5t22 -92q0 -73 -36.5 -126.5t-101 -81t-148.5 -27.5q-121 0 -183 57zM580 1008l-169 -168h-62l-121 168h80l75 -117l111 117h86z" />
    <glyph glyph-name="scaron" unicode="&#x161;" horiz-adv-x="467" 
d="M65 30.5q-45 40.5 -45 111.5l70 8q0 -50 26 -74t85 -24q66 0 105 24.5t39 76.5q0 23 -13 37.5t-35 24t-64 23.5l-34 12q-70 22 -105 50.5t-35 78.5q0 67 54 104.5t145 37.5q79 0 126.5 -38t47.5 -101l-70 -7q-1 38 -27.5 61t-83.5 23q-58 0 -90 -21t-32 -58
q0 -24 21.5 -38.5t70.5 -30.5l41 -14q52 -17 83.5 -33t50.5 -41.5t19 -64.5q0 -84 -59.5 -126t-154.5 -42q-91 0 -136 40.5zM469 760l-169 -168h-62l-121 168h80l75 -117l111 117h86z" />
    <glyph glyph-name="uni0162" unicode="&#x162;" horiz-adv-x="586" 
d="M622 697h-231l-98 -697h-72l98 697h-231l9 63h534zM328.5 -58q21.5 -18 21.5 -50q0 -47 -31.5 -71.5t-79.5 -24.5q-22 0 -43 5t-33 14l20 37q20 -12 47 -12q25 0 39 12.5t14 34.5q0 16 -9 24t-26 8q-21 0 -41 -13l-21 13l41 98h50l-21 -58q5 1 15 1q36 0 57.5 -18z" />
    <glyph glyph-name="uni0163" unicode="&#x163;" horiz-adv-x="333" 
d="M144 148q-3 -18 -3 -35q0 -34 15 -48t48 -14q35 0 67 8l-4 -58q-41 -11 -78 -11q-54 0 -86 28t-32 87q0 20 3 42l43 304h-77l12 61h73l18 128h70l-18 -128h129l-8 -61h-130zM213.5 -58q21.5 -18 21.5 -50q0 -47 -31.5 -71.5t-79.5 -24.5q-22 0 -43 5t-33 14l20 37
q20 -12 47 -12q25 0 39 12.5t14 34.5q0 16 -9 24t-26 8q-21 0 -41 -13l-21 13l41 98h50l-21 -58q5 1 15 1q36 0 57.5 -18z" />
    <glyph glyph-name="Tcaron" unicode="&#x164;" horiz-adv-x="586" 
d="M622 697h-231l-98 -697h-72l98 697h-231l9 63h534zM576 1008l-169 -168h-62l-121 168h80l75 -117l111 117h86z" />
    <glyph glyph-name="tcaron" unicode="&#x165;" horiz-adv-x="389" 
d="M323 590h-56l101 170h92zM195 512h129l-8 -61h-130l-42 -303q-3 -18 -3 -35q0 -34 15 -48t48 -14q35 0 67 8l-4 -58q-41 -11 -78 -11q-54 0 -86 28t-32 87q0 20 3 42l43 304h-77l12 61h73l18 128h70z" />
    <glyph glyph-name="Tbar" unicode="&#x166;" horiz-adv-x="586" 
d="M391 697l-37 -266h181l-9 -61h-181l-52 -370h-72l52 370h-177l9 61h177l37 266h-231l9 63h534l-9 -63h-231z" />
    <glyph glyph-name="tbar" unicode="&#x167;" horiz-adv-x="333" 
d="M186 451l-19 -141h128l-8 -58h-128l-15 -104q-3 -18 -3 -35q0 -34 15 -48t48 -14q35 0 67 8l-4 -58q-41 -11 -78 -11q-54 0 -86 28t-32 87q0 20 3 42l15 105h-66l8 58h66l20 141h-77l12 61h73l18 128h70l-18 -128h129l-8 -61h-130z" />
    <glyph glyph-name="Utilde" unicode="&#x168;" horiz-adv-x="664" 
d="M127.5 50q-62.5 60 -62.5 167q0 25 5 63l68 480h71l-69 -486q-5 -32 -5 -56q0 -78 43.5 -121t124.5 -43q95 0 152.5 56.5t72.5 162.5l70 487h70l-68 -482q-20 -145 -93.5 -216.5t-207.5 -71.5q-109 0 -171.5 60zM404 918q-17 13 -27.5 18.5t-22.5 5.5q-15 0 -31.5 -10.5
t-29.5 -30.5l-47 22q45 72 117 72q25 0 44.5 -9.5t38.5 -24.5q17 -12 28 -18t22 -6q15 0 32 10.5t31 31.5l48 -18q-26 -37 -57.5 -57t-67.5 -20q-39 0 -78 34z" />
    <glyph glyph-name="utilde" unicode="&#x169;" horiz-adv-x="554" 
d="M524 512l-71 -512h-64l9 98q-33 -53 -82 -80.5t-107 -27.5q-74 0 -117 45t-43 113q0 20 3 41l45 323h70l-44 -316q-3 -21 -3 -40q0 -106 117 -106q70 0 115.5 50t60.5 120l41 292h70zM316 670q-17 13 -27.5 18.5t-22.5 5.5q-15 0 -31.5 -10.5t-29.5 -30.5l-47 22
q45 72 117 72q25 0 44.5 -9.5t38.5 -24.5q17 -12 28 -18t22 -6q15 0 32 10.5t31 31.5l48 -18q-26 -37 -57.5 -57t-67.5 -20q-39 0 -78 34z" />
    <glyph glyph-name="Umacron" unicode="&#x16a;" horiz-adv-x="664" 
d="M127.5 50q-62.5 60 -62.5 167q0 25 5 63l68 480h71l-69 -486q-5 -32 -5 -56q0 -78 43.5 -121t124.5 -43q95 0 152.5 56.5t72.5 162.5l70 487h70l-68 -482q-20 -145 -93.5 -216.5t-207.5 -71.5q-109 0 -171.5 60zM293 959h274l-8 -55h-274z" />
    <glyph glyph-name="umacron" unicode="&#x16b;" horiz-adv-x="554" 
d="M524 512l-71 -512h-64l9 98q-33 -53 -82 -80.5t-107 -27.5q-74 0 -117 45t-43 113q0 20 3 41l45 323h70l-44 -316q-3 -21 -3 -40q0 -106 117 -106q70 0 115.5 50t60.5 120l41 292h70zM205 711h274l-8 -55h-274z" />
    <glyph glyph-name="Ubreve" unicode="&#x16c;" horiz-adv-x="664" 
d="M127.5 50q-62.5 60 -62.5 167q0 25 5 63l68 480h71l-69 -486q-5 -32 -5 -56q0 -78 43.5 -121t124.5 -43q95 0 152.5 56.5t72.5 162.5l70 487h70l-68 -482q-20 -145 -93.5 -216.5t-207.5 -71.5q-109 0 -171.5 60zM303 884q-38 43 -38 124h54q0 -54 27 -82.5t73 -28.5
q44 0 76 28t48 83h54q-19 -82 -66.5 -124.5t-118.5 -42.5t-109 43z" />
    <glyph glyph-name="ubreve" unicode="&#x16d;" horiz-adv-x="554" 
d="M524 512l-71 -512h-64l9 98q-33 -53 -82 -80.5t-107 -27.5q-74 0 -117 45t-43 113q0 20 3 41l45 323h70l-44 -316q-3 -21 -3 -40q0 -106 117 -106q70 0 115.5 50t60.5 120l41 292h70zM215 636q-38 43 -38 124h54q0 -54 27 -82.5t73 -28.5q44 0 76 28t48 83h54
q-19 -82 -66.5 -124.5t-118.5 -42.5t-109 43z" />
    <glyph glyph-name="Uring" unicode="&#x16e;" horiz-adv-x="664" 
d="M127.5 50q-62.5 60 -62.5 167q0 25 5 63l68 480h71l-69 -486q-5 -32 -5 -56q0 -78 43.5 -121t124.5 -43q95 0 152.5 56.5t72.5 162.5l70 487h70l-68 -482q-20 -145 -93.5 -216.5t-207.5 -71.5q-109 0 -171.5 60zM342 864.5q-31 31.5 -31 76.5q0 44 31 75.5t76 31.5
t76 -31.5t31 -75.5q0 -45 -31 -76.5t-76 -31.5t-76 31.5zM464 893.5q19 19.5 19 47.5t-19 47t-46 19t-46 -19t-19 -47t19 -47.5t46 -19.5t46 19.5z" />
    <glyph glyph-name="uring" unicode="&#x16f;" horiz-adv-x="554" 
d="M524 512l-71 -512h-64l9 98q-33 -53 -82 -80.5t-107 -27.5q-74 0 -117 45t-43 113q0 20 3 41l45 323h70l-44 -316q-3 -21 -3 -40q0 -106 117 -106q70 0 115.5 50t60.5 120l41 292h70zM254 616.5q-31 31.5 -31 76.5q0 44 31 75.5t76 31.5t76 -31.5t31 -75.5
q0 -45 -31 -76.5t-76 -31.5t-76 31.5zM376 645.5q19 19.5 19 47.5t-19 47t-46 19t-46 -19t-19 -47t19 -47.5t46 -19.5t46 19.5z" />
    <glyph glyph-name="Uhungarumlaut" unicode="&#x170;" horiz-adv-x="664" 
d="M127.5 50q-62.5 60 -62.5 167q0 25 5 63l68 480h71l-69 -486q-5 -32 -5 -56q0 -78 43.5 -121t124.5 -43q95 0 152.5 56.5t72.5 162.5l70 487h70l-68 -482q-20 -145 -93.5 -216.5t-207.5 -71.5q-109 0 -171.5 60zM322 838h-56l101 170h92zM516 838h-56l101 170h92z" />
    <glyph glyph-name="uhungarumlaut" unicode="&#x171;" horiz-adv-x="554" 
d="M524 512l-71 -512h-64l9 98q-33 -53 -82 -80.5t-107 -27.5q-74 0 -117 45t-43 113q0 20 3 41l45 323h70l-44 -316q-3 -21 -3 -40q0 -106 117 -106q70 0 115.5 50t60.5 120l41 292h70zM234 590h-56l101 170h92zM428 590h-56l101 170h92z" />
    <glyph glyph-name="Uogonek" unicode="&#x172;" horiz-adv-x="664" 
d="M127.5 50q-62.5 60 -62.5 167q0 25 5 63l68 480h71l-69 -486q-5 -32 -5 -56q0 -78 43.5 -121t124.5 -43q95 0 152.5 56.5t72.5 162.5l70 487h70l-68 -482q-20 -145 -93.5 -216.5t-207.5 -71.5q-109 0 -171.5 60zM332 -31q-26 -24 -26 -62q0 -28 18 -42.5t52 -14.5
q19 0 47 8l-4 -48q-30 -14 -67 -14q-50 0 -79.5 24t-29.5 69q0 57 43.5 92t106.5 49l3 -26q-38 -11 -64 -35z" />
    <glyph glyph-name="uogonek" unicode="&#x173;" horiz-adv-x="554" 
d="M524 512l-71 -512h-64l9 98q-33 -53 -82 -80.5t-107 -27.5q-74 0 -117 45t-43 113q0 20 3 41l45 323h70l-44 -316q-3 -21 -3 -40q0 -106 117 -106q70 0 115.5 50t60.5 120l41 292h70zM382 -31q-26 -24 -26 -62q0 -28 18 -42.5t52 -14.5q19 0 47 8l-4 -48q-30 -14 -67 -14
q-50 0 -79.5 24t-29.5 69q0 57 43.5 92t106.5 49l3 -26q-38 -11 -64 -35z" />
    <glyph glyph-name="Wcircumflex" unicode="&#x174;" horiz-adv-x="949" 
d="M1006 760l-312 -760h-78l-87 649l-267 -649h-77l-99 760h72l77 -673l279 673h65l87 -676l264 676h76zM645 840l-75 117l-111 -117h-86l169 168h62l121 -168h-80z" />
    <glyph glyph-name="wcircumflex" unicode="&#x175;" horiz-adv-x="774" 
d="M799 512l-235 -512h-78l-76 423l-193 -423h-78l-92 512h70l70 -438l201 438h67l79 -437l191 437h74zM522 592l-75 117l-111 -117h-86l169 168h62l121 -168h-80z" />
    <glyph glyph-name="Ycircumflex" unicode="&#x176;" horiz-adv-x="551" 
d="M621 760l-495 -760h-75l211 324l-180 436h74l148 -371l242 371h75zM438 840l-75 117l-111 -117h-86l169 168h62l121 -168h-80z" />
    <glyph glyph-name="ycircumflex" unicode="&#x177;" horiz-adv-x="555" 
d="M524 512l-65 -466q-17 -122 -81 -186t-170 -64q-77 0 -123.5 32t-57.5 84l67 14q8 -34 37.5 -53t80.5 -19q151 0 177 191l7 50q-33 -52 -81.5 -78.5t-105.5 -26.5q-74 0 -117 45t-43 113q0 20 3 41l45 323h70l-44 -316q-3 -21 -3 -40q0 -106 117 -106q71 0 116.5 50.5
t60.5 122.5l40 289h70zM414 592l-75 117l-111 -117h-86l169 168h62l121 -168h-80z" />
    <glyph glyph-name="Ydieresis" unicode="&#x178;" horiz-adv-x="551" 
d="M621 760l-495 -760h-75l211 324l-180 436h74l148 -371l242 371h75zM238.5 883q-14.5 15 -14.5 36q0 22 14.5 37t36.5 15q21 0 36 -15t15 -37q0 -21 -15 -36t-36 -15q-22 0 -36.5 15zM413 883q-15 15 -15 36q0 22 15 37t37 15q21 0 35.5 -15t14.5 -37q0 -21 -14.5 -36
t-35.5 -15q-22 0 -37 15z" />
    <glyph glyph-name="Zacute" unicode="&#x179;" horiz-adv-x="583" 
d="M118 61h397l-9 -61h-510l502 699h-376l10 61h487zM402 838h-56l101 170h92z" />
    <glyph glyph-name="zacute" unicode="&#x17a;" horiz-adv-x="469" 
d="M118 60h287l-9 -60h-405l356 451h-269l13 61h384zM316 590h-56l101 170h92z" />
    <glyph glyph-name="Zdotaccent" unicode="&#x17b;" horiz-adv-x="583" 
d="M118 61h397l-9 -61h-510l502 699h-376l10 61h487zM346.5 878q-16.5 17 -16.5 40q0 24 16.5 40.5t40.5 16.5q23 0 39.5 -16.5t16.5 -40.5q0 -23 -16.5 -40t-39.5 -17q-24 0 -40.5 17z" />
    <glyph glyph-name="zdotaccent" unicode="&#x17c;" horiz-adv-x="469" 
d="M118 60h287l-9 -60h-405l356 451h-269l13 61h384zM260.5 630q-16.5 17 -16.5 40q0 24 16.5 40.5t40.5 16.5q23 0 39.5 -16.5t16.5 -40.5q0 -23 -16.5 -40t-39.5 -17q-24 0 -40.5 17z" />
    <glyph glyph-name="Zcaron" unicode="&#x17d;" horiz-adv-x="583" 
d="M118 61h397l-9 -61h-510l502 699h-376l10 61h487zM575 1008l-169 -168h-62l-121 168h80l75 -117l111 117h86z" />
    <glyph glyph-name="zcaron" unicode="&#x17e;" horiz-adv-x="469" 
d="M118 60h287l-9 -60h-405l356 451h-269l13 61h384zM489 760l-169 -168h-62l-121 168h80l75 -117l111 117h86z" />
    <glyph glyph-name="longs" unicode="&#x17f;" horiz-adv-x="263" 
d="M397 748l-13 -58q-39 18 -78 18q-42 0 -65.5 -24.5t-32.5 -86.5l-84 -597h-70l63 451h-77l15 61h70l13 91q13 91 56.5 129t112.5 38q54 0 90 -22z" />
    <glyph glyph-name="uni018F" unicode="&#x18f;" horiz-adv-x="840" 
d="M660.5 727.5q73.5 -42.5 113.5 -118t40 -170.5q0 -123 -58.5 -226t-157.5 -163t-215 -60q-97 0 -170 42.5t-112 118t-39 172.5q0 33 6 83h672q1 8 1 25q0 82 -31.5 144.5t-88.5 96.5t-131 34q-95 0 -174.5 -48t-127.5 -130l-71 10q58 105 157 168.5t218 63.5
q95 0 168.5 -42.5zM542.5 92.5q71.5 38.5 120.5 104.5t68 146h-597v-11q0 -83 30.5 -146t88 -97.5t134.5 -34.5q84 0 155.5 38.5z" />
    <glyph glyph-name="florin" unicode="&#x192;" horiz-adv-x="533" 
d="M425.5 667q-28.5 -29 -44.5 -95l-32 -128h96l-9 -61h-102l-97 -392q-24 -95 -76 -140t-135 -45h-10l15 63q58 0 88.5 29.5t47.5 94.5l96 390h-76l9 61h82l33 133q24 96 73.5 139.5t128.5 43.5h11l-16 -64q-54 0 -82.5 -29z" />
    <glyph glyph-name="uni019D" unicode="&#x19d;" horiz-adv-x="659" 
d="M658 760l-107 -760h-70l-281 646l-87 -611q-16 -117 -84 -178t-170 -61q-20 0 -36 3l13 63q11 -2 32 -2q68 0 115.5 42.5t59.5 129.5l103 728h70l281 -646l91 646h70z" />
    <glyph glyph-name="uni01CD" unicode="&#x1cd;" horiz-adv-x="595" 
d="M456 142h-347l-65 -142h-75l359 760h81l145 -760h-73zM445 205l-86 485l-221 -485h307zM579 1008l-169 -168h-62l-121 168h80l75 -117l111 117h86z" />
    <glyph glyph-name="uni01CE" unicode="&#x1ce;" horiz-adv-x="615" 
d="M585 512l-72 -512h-62l10 100q-35 -51 -89 -80.5t-117 -29.5q-60 0 -108.5 28.5t-76.5 80.5t-28 120q0 87 39 156t104.5 107.5t141.5 38.5q63 0 108.5 -28.5t66.5 -79.5l14 99h69zM377.5 84.5q50.5 32.5 79.5 87.5t29 119q0 76 -42 122t-115 46q-59 0 -108.5 -29.5
t-79 -83t-29.5 -122.5q0 -81 42 -126.5t113 -45.5q60 0 110.5 32.5zM541 760l-169 -168h-62l-121 168h80l75 -117l111 117h86z" />
    <glyph glyph-name="Gcaron" unicode="&#x1e6;" horiz-adv-x="803" 
d="M397 397h356l-44 -311q-140 -96 -304 -96q-107 0 -184.5 40.5t-118.5 116.5t-41 179q0 120 56 222t153.5 162t215.5 60q119 0 194.5 -59t102.5 -152l-71 -8q-21 64 -79.5 109.5t-151.5 45.5q-99 0 -178.5 -53t-124 -141t-44.5 -187q0 -129 73 -200t206 -71q123 0 229 63
l31 217h-285zM696 1008l-169 -168h-62l-121 168h80l75 -117l111 117h86z" />
    <glyph glyph-name="gcaron" unicode="&#x1e7;" horiz-adv-x="616" 
d="M586 512l-63 -447q-37 -269 -278 -269q-82 0 -134 33t-69 84l70 14q14 -34 48.5 -53.5t87.5 -19.5q86 0 138 51t66 150l6 40q-36 -49 -89 -77t-113 -28q-61 0 -110 29t-76.5 81t-27.5 118q0 88 39 157t104.5 107.5t143.5 38.5q61 0 107.5 -29.5t66.5 -81.5l19 102h64z
M378 84.5q50 32.5 79 87.5t29 120q0 75 -42.5 121t-113.5 46q-59 0 -109 -29.5t-79.5 -83t-29.5 -121.5q0 -81 41.5 -127t115.5 -46q59 0 109 32.5zM541 760l-169 -168h-62l-121 168h80l75 -117l111 117h86z" />
    <glyph glyph-name="Aringacute" unicode="&#x1fa;" horiz-adv-x="595" 
d="M456 142h-347l-65 -142h-75l359 760h81l145 -760h-73zM445 205l-86 485l-221 -485h307zM309 864.5q-31 31.5 -31 76.5q0 44 31 75.5t76 31.5t76 -31.5t31 -75.5q0 -45 -31 -76.5t-76 -31.5t-76 31.5zM431 893.5q19 19.5 19 47.5t-19 47t-46 19t-46 -19t-19 -47t19 -47.5
t46 -19.5t46 19.5zM432 1100h-56l101 170h92z" />
    <glyph glyph-name="aringacute" unicode="&#x1fb;" horiz-adv-x="615" 
d="M585 512l-72 -512h-62l10 100q-35 -51 -89 -80.5t-117 -29.5q-60 0 -108.5 28.5t-76.5 80.5t-28 120q0 87 39 156t104.5 107.5t141.5 38.5q63 0 108.5 -28.5t66.5 -79.5l14 99h69zM377.5 84.5q50.5 32.5 79.5 87.5t29 119q0 76 -42 122t-115 46q-59 0 -108.5 -29.5
t-79 -83t-29.5 -122.5q0 -81 42 -126.5t113 -45.5q60 0 110.5 32.5zM271 616.5q-31 31.5 -31 76.5q0 44 31 75.5t76 31.5t76 -31.5t31 -75.5q0 -45 -31 -76.5t-76 -31.5t-76 31.5zM393 645.5q19 19.5 19 47.5t-19 47t-46 19t-46 -19t-19 -47t19 -47.5t46 -19.5t46 19.5z
M394 852h-56l101 170h92z" />
    <glyph glyph-name="AEacute" unicode="&#x1fc;" horiz-adv-x="906" 
d="M578 699l-38 -271h324l-8 -62h-324l-43 -305h334l-9 -61h-405l26 186h-275l-127 -186h-74l519 760h438l-10 -61h-328zM444 247l63 447l-305 -447h242zM724 838h-56l101 170h92z" />
    <glyph glyph-name="aeacute" unicode="&#x1fd;" horiz-adv-x="938" 
d="M488 240q-1 -9 -1 -26q0 -76 41 -119t110 -43q56 0 98.5 26.5t71.5 74.5l68 -8q-40 -74 -103 -114.5t-142 -40.5q-71 0 -123 33t-75 91q-32 -59 -93.5 -91.5t-140.5 -32.5q-78 0 -125.5 35t-47.5 103q0 92 67 131t174 39h158q4 37 4 45q0 60 -35.5 88t-90.5 28
q-53 0 -91 -21.5t-67 -60.5l-69 10q39 64 96 99t144 35q60 0 107 -25t65 -76q38 47 91 74t116 27q94 0 146.5 -58t52.5 -150q0 -21 -2 -42t-4 -31h-400zM567 414.5q-49 -44.5 -69 -116.5h326v12q0 72 -37.5 110.5t-100.5 38.5q-70 0 -119 -44.5zM303.5 66q43.5 19 73 56
t36.5 88l4 30h-157q-90 0 -127.5 -27t-37.5 -78q0 -43 30.5 -65.5t86.5 -22.5q48 0 91.5 19zM545 590h-56l101 170h92z" />
    <glyph glyph-name="Oslashacute" unicode="&#x1fe;" 
d="M790.5 573q23.5 -63 23.5 -140q0 -120 -58 -222t-157 -161.5t-215 -59.5q-108 0 -188 53l-49 -59h-74l79 96q-44 45 -67.5 108t-23.5 139q0 120 58 222t157 161.5t215 59.5q108 0 187 -53l49 59h74l-79 -95q45 -45 68.5 -108zM197 135l438 529q-62 42 -148 42
q-97 0 -178 -52.5t-128 -140t-47 -187.5q0 -117 63 -191zM565.5 106q81.5 52 128.5 139.5t47 187.5q0 120 -64 193l-437 -530q62 -42 147 -42q97 0 178.5 52zM528 838h-56l101 170h92z" />
    <glyph glyph-name="oslashacute" unicode="&#x1ff;" horiz-adv-x="597" 
d="M498 454q27 -30 42 -70.5t15 -88.5q0 -88 -37.5 -157.5t-104.5 -108.5t-151 -39q-68 0 -121 33l-32 -39h-70l60 73q-27 30 -42 71t-15 89q0 87 38 156.5t105 108.5t150 39q71 0 121 -32l32 38h70zM143 110l271 328q-34 21 -83 21q-60 0 -110 -30t-79.5 -84.5
t-29.5 -123.5q0 -68 31 -111zM454 401l-271 -328q35 -21 83 -21q60 0 110 30t79.5 84.5t29.5 124.5q0 68 -31 110zM372 590h-56l101 170h92z" />
    <glyph glyph-name="Scommaaccent" unicode="&#x218;" horiz-adv-x="630" 
d="M102 47q-62 57 -62 157l70 7q0 -86 49.5 -121.5t128.5 -35.5q97 0 154 44.5t57 122.5q0 39 -16 62.5t-43.5 37.5t-76.5 30l-87 28q-92 30 -134.5 75t-42.5 112q0 61 32 107t91.5 71.5t140.5 25.5q120 0 181.5 -55t62.5 -150l-70 -9q-2 150 -173 150q-84 0 -138 -35
t-54 -101q0 -48 32 -76.5t106 -52.5l79 -26q61 -19 99.5 -40.5t60.5 -57.5t22 -92q0 -73 -36.5 -126.5t-101 -81t-148.5 -27.5q-121 0 -183 57zM236 -204h-55l75 134h91z" />
    <glyph glyph-name="scommaaccent" unicode="&#x219;" horiz-adv-x="467" 
d="M65 30.5q-45 40.5 -45 111.5l70 8q0 -50 26 -74t85 -24q66 0 105 24.5t39 76.5q0 23 -13 37.5t-35 24t-64 23.5l-34 12q-70 22 -105 50.5t-35 78.5q0 67 54 104.5t145 37.5q79 0 126.5 -38t47.5 -101l-70 -7q-1 38 -27.5 61t-83.5 23q-58 0 -90 -21t-32 -58
q0 -24 21.5 -38.5t70.5 -30.5l41 -14q52 -17 83.5 -33t50.5 -41.5t19 -64.5q0 -84 -59.5 -126t-154.5 -42q-91 0 -136 40.5zM152 -204h-55l75 134h91z" />
    <glyph glyph-name="uni021A" unicode="&#x21a;" horiz-adv-x="586" 
d="M622 697h-231l-98 -697h-72l98 697h-231l9 63h534zM210 -204h-55l75 134h91z" />
    <glyph glyph-name="uni021B" unicode="&#x21b;" horiz-adv-x="333" 
d="M144 148q-3 -18 -3 -35q0 -34 15 -48t48 -14q35 0 67 8l-4 -58q-41 -11 -78 -11q-54 0 -86 28t-32 87q0 20 3 42l43 304h-77l12 61h73l18 128h70l-18 -128h129l-8 -61h-130zM95 -204h-55l75 134h91z" />
    <glyph glyph-name="uni0232" unicode="&#x232;" horiz-adv-x="551" 
d="M621 760l-495 -760h-75l211 324l-180 436h74l148 -371l242 371h75zM231 959h274l-8 -55h-274z" />
    <glyph glyph-name="uni0233" unicode="&#x233;" horiz-adv-x="555" 
d="M524 512l-65 -466q-17 -122 -81 -186t-170 -64q-77 0 -123.5 32t-57.5 84l67 14q8 -34 37.5 -53t80.5 -19q151 0 177 191l7 50q-33 -52 -81.5 -78.5t-105.5 -26.5q-74 0 -117 45t-43 113q0 20 3 41l45 323h70l-44 -316q-3 -21 -3 -40q0 -106 117 -106q71 0 116.5 50.5
t60.5 122.5l40 289h70zM207 711h274l-8 -55h-274z" />
    <glyph glyph-name="uni0237" unicode="&#x237;" horiz-adv-x="218" 
d="M-143 -188l13 60q40 -14 78 -14q43 0 64 24.5t29 85.5l76 544h70l-78 -557q-13 -85 -54 -122t-105 -37q-56 0 -93 16z" />
    <glyph glyph-name="uni0259" unicode="&#x259;" horiz-adv-x="580" 
d="M468 281v14q0 77 -43 121t-110 44q-60 0 -106.5 -28t-75.5 -77l-69 9q39 75 105 116.5t150 41.5q65 0 114.5 -29.5t77 -80.5t27.5 -114q0 -85 -36.5 -155t-102 -111t-148.5 -41q-67 0 -114 28t-71.5 76.5t-24.5 109.5q0 22 6 76h421zM383.5 99q56.5 46 75.5 122h-348v-11
q0 -76 38 -116.5t104 -40.5q74 0 130.5 46z" />
    <glyph glyph-name="uni0272" unicode="&#x272;" horiz-adv-x="580" 
d="M487.5 476.5q43.5 -44.5 43.5 -117.5q0 -18 -4 -46l-44 -313h-70l43 307q4 30 4 41q0 114 -117 114q-80 0 -129 -55.5t-61 -131.5l-14 -102l-30 -218q-23 -159 -162 -159q-53 0 -90 16l13 60q40 -14 77 -14q43 0 64 23.5t28 80.5l30 208l47 342h64l-9 -101q34 54 84.5 82
t109.5 28q79 0 122.5 -44.5z" />
    <glyph glyph-name="circumflex" unicode="&#x2c6;" horiz-adv-x="451" 
d="M369 592l-75 117l-111 -117h-86l169 168h62l121 -168h-80z" />
    <glyph glyph-name="caron" unicode="&#x2c7;" horiz-adv-x="451" 
d="M473 760l-169 -168h-62l-121 168h80l75 -117l111 117h86z" />
    <glyph glyph-name="breve" unicode="&#x2d8;" horiz-adv-x="432" 
d="M159 636q-38 43 -38 124h54q0 -54 27 -82.5t73 -28.5q44 0 76 28t48 83h54q-19 -82 -66.5 -124.5t-118.5 -42.5t-109 43z" />
    <glyph glyph-name="dotaccent" unicode="&#x2d9;" horiz-adv-x="215" 
d="M125.5 630q-16.5 17 -16.5 40q0 24 16.5 40.5t40.5 16.5q23 0 39.5 -16.5t16.5 -40.5q0 -23 -16.5 -40t-39.5 -17q-24 0 -40.5 17z" />
    <glyph glyph-name="ring" unicode="&#x2da;" horiz-adv-x="317" 
d="M144 616.5q-31 31.5 -31 76.5q0 44 31 75.5t76 31.5t76 -31.5t31 -75.5q0 -45 -31 -76.5t-76 -31.5t-76 31.5zM266 645.5q19 19.5 19 47.5t-19 47t-46 19t-46 -19t-19 -47t19 -47.5t46 -19.5t46 19.5z" />
    <glyph glyph-name="ogonek" unicode="&#x2db;" horiz-adv-x="288" 
d="M89 -31q-26 -24 -26 -62q0 -28 18 -42.5t52 -14.5q19 0 47 8l-4 -48q-30 -14 -67 -14q-50 0 -79.5 24t-29.5 69q0 57 43.5 92t106.5 49l3 -26q-38 -11 -64 -35z" />
    <glyph glyph-name="tilde" unicode="&#x2dc;" horiz-adv-x="455" 
d="M267 670q-17 13 -27.5 18.5t-22.5 5.5q-15 0 -31.5 -10.5t-29.5 -30.5l-47 22q45 72 117 72q25 0 44.5 -9.5t38.5 -24.5q17 -12 28 -18t22 -6q15 0 32 10.5t31 31.5l48 -18q-26 -37 -57.5 -57t-67.5 -20q-39 0 -78 34z" />
    <glyph glyph-name="hungarumlaut" unicode="&#x2dd;" horiz-adv-x="463" 
d="M153 590h-56l101 170h92zM347 590h-56l101 170h92z" />
    <glyph glyph-name="gravecomb" unicode="&#x300;" horiz-adv-x="0" 
d="M-104 760l101 -170h-56l-137 170h92z" />
    <glyph glyph-name="acutecomb" unicode="&#x301;" horiz-adv-x="0" 
d="M-116 590h-56l101 170h92z" />
    <glyph glyph-name="uni0302" unicode="&#x302;" horiz-adv-x="0" 
d="M-82 592l-75 117l-111 -117h-86l169 168h62l121 -168h-80z" />
    <glyph glyph-name="tildecomb" unicode="&#x303;" horiz-adv-x="0" 
d="M-188 670q-17 13 -27.5 18.5t-22.5 5.5q-15 0 -31.5 -10.5t-29.5 -30.5l-47 22q45 72 117 72q25 0 44.5 -9.5t38.5 -24.5q17 -12 28 -18t22 -6q15 0 32 10.5t31 31.5l48 -18q-26 -37 -57.5 -57t-67.5 -20q-39 0 -78 34z" />
    <glyph glyph-name="uni0304" unicode="&#x304;" horiz-adv-x="0" 
d="M-260 711h274l-8 -55h-274z" />
    <glyph glyph-name="uni0306" unicode="&#x306;" horiz-adv-x="0" 
d="M-273 636q-38 43 -38 124h54q0 -54 27 -82.5t73 -28.5q44 0 76 28t48 83h54q-19 -82 -66.5 -124.5t-118.5 -42.5t-109 43z" />
    <glyph glyph-name="uni0307" unicode="&#x307;" horiz-adv-x="0" 
d="M-89.5 630q-16.5 17 -16.5 40q0 24 16.5 40.5t40.5 16.5q23 0 39.5 -16.5t16.5 -40.5q0 -23 -16.5 -40t-39.5 -17q-24 0 -40.5 17z" />
    <glyph glyph-name="uni0308" unicode="&#x308;" horiz-adv-x="0" 
d="M-253.5 635q-14.5 15 -14.5 36q0 22 14.5 37t36.5 15q21 0 36 -15t15 -37q0 -21 -15 -36t-36 -15q-22 0 -36.5 15zM-79 635q-15 15 -15 36q0 22 15 37t37 15q21 0 35.5 -15t14.5 -37q0 -21 -14.5 -36t-35.5 -15q-22 0 -37 15z" />
    <glyph glyph-name="uni030A" unicode="&#x30a;" horiz-adv-x="0" 
d="M-173 616.5q-31 31.5 -31 76.5q0 44 31 75.5t76 31.5t76 -31.5t31 -75.5q0 -45 -31 -76.5t-76 -31.5t-76 31.5zM-51 645.5q19 19.5 19 47.5t-19 47t-46 19t-46 -19t-19 -47t19 -47.5t46 -19.5t46 19.5z" />
    <glyph glyph-name="uni030B" unicode="&#x30b;" horiz-adv-x="0" 
d="M-310 590h-56l101 170h92zM-116 590h-56l101 170h92z" />
    <glyph glyph-name="uni030C" unicode="&#x30c;" horiz-adv-x="0" 
d="M22 760l-169 -168h-62l-121 168h80l75 -117l111 117h86z" />
    <glyph glyph-name="uni0326" unicode="&#x326;" horiz-adv-x="0" 
d="M-207 -204h-55l75 134h91z" />
    <glyph glyph-name="uni0327" unicode="&#x327;" horiz-adv-x="0" 
d="M-123.5 -58q21.5 -18 21.5 -50q0 -47 -31.5 -71.5t-79.5 -24.5q-22 0 -43 5t-33 14l20 37q20 -12 47 -12q25 0 39 12.5t14 34.5q0 16 -9 24t-26 8q-21 0 -41 -13l-21 13l41 98h50l-21 -58q5 1 15 1q36 0 57.5 -18z" />
    <glyph glyph-name="uni0328" unicode="&#x328;" horiz-adv-x="0" 
d="M-199 -31q-26 -24 -26 -62q0 -28 18 -42.5t52 -14.5q19 0 47 8l-4 -48q-30 -14 -67 -14q-50 0 -79.5 24t-29.5 69q0 57 43.5 92t106.5 49l3 -26q-38 -11 -64 -35z" />
    <glyph glyph-name="tonos" unicode="&#x384;" horiz-adv-x="269" 
d="M97 590l101 170h92l-137 -170h-56z" />
    <glyph glyph-name="dieresistonos" unicode="&#x385;" horiz-adv-x="449" 
d="M296 760h92l-137 -170h-55zM123.5 635q-14.5 15 -14.5 36q0 22 14.5 37t36.5 15q21 0 36 -15t15 -37q0 -21 -15 -36t-36 -15q-22 0 -36.5 15zM370.5 635q-14.5 15 -14.5 36q0 22 14.5 37t36.5 15q21 0 35.5 -15t14.5 -37q0 -21 -14.5 -36t-35.5 -15q-22 0 -36.5 15z" />
    <glyph glyph-name="Alphatonos" unicode="&#x386;" horiz-adv-x="595" 
d="M456 142h-347l-65 -142h-75l359 760h81l145 -760h-73zM445 205l-86 485l-221 -485h307zM-8 590l101 170h92l-137 -170h-56z" />
    <glyph glyph-name="anoteleia" unicode="&#x387;" horiz-adv-x="219" 
d="M88.5 357.5q-17.5 17.5 -17.5 41.5t17 41.5t42 17.5q24 0 41.5 -17.5t17.5 -41.5q0 -23 -17.5 -41t-41.5 -18t-41.5 17.5z" />
    <glyph glyph-name="Epsilontonos" unicode="&#x388;" horiz-adv-x="545" 
d="M205 697l-38 -269h336l-8 -62h-336l-43 -303h345l-9 -63h-416l107 760h411l-9 -63h-340zM-122 590l101 170h92l-137 -170h-56z" />
    <glyph glyph-name="Etatonos" unicode="&#x389;" horiz-adv-x="658" 
d="M657 760l-107 -760h-71l52 366h-372l-52 -366h-71l107 760h71l-47 -332h372l47 332h71zM-121 590l101 170h92l-137 -170h-56z" />
    <glyph glyph-name="Iotatonos" unicode="&#x38a;" horiz-adv-x="215" 
d="M143 760h71l-107 -760h-71zM-120 590l101 170h92l-137 -170h-56z" />
    <glyph glyph-name="Omicrontonos" unicode="&#x38c;" 
d="M214.5 32q-73.5 42 -113.5 118.5t-40 176.5q0 120 58 222t157 161.5t215 59.5q96 0 169.5 -42t113.5 -118.5t40 -176.5q0 -120 -58 -222t-157 -161.5t-215 -59.5q-96 0 -169.5 42zM565 106.5q81 52.5 128.5 139.5t47.5 187q0 82 -31 143.5t-88.5 95.5t-134.5 34
q-96 0 -177 -52.5t-128.5 -140t-47.5 -187.5q0 -81 31 -143t88 -95.5t134 -33.5q97 0 178 52.5zM-52 590l101 170h92l-137 -170h-56z" />
    <glyph glyph-name="Upsilontonos" unicode="&#x38e;" horiz-adv-x="551" 
d="M621 760l-495 -760h-75l211 324l-180 436h74l148 -371l242 371h75zM-152 590l101 170h92l-137 -170h-56z" />
    <glyph glyph-name="Omegatonos" unicode="&#x38f;" horiz-adv-x="861" 
d="M771 221.5q-59 -102.5 -158 -158.5h168l-9 -63h-296l7 53q89 30 151 90t93 136.5t31 154.5q0 76 -29.5 137.5t-89 98t-145.5 36.5q-99 0 -180.5 -49t-128.5 -134.5t-47 -189.5q0 -95 46.5 -171t138.5 -109l-7 -53h-292l8 63h168q-66 43 -100 112t-34 157q0 123 58 223.5
t157.5 157.5t217.5 57q101 0 176 -43t115 -117.5t40 -168.5q0 -117 -59 -219.5zM-52 590l101 170h92l-137 -170h-56z" />
    <glyph glyph-name="iotadieresistonos" unicode="&#x390;" horiz-adv-x="238" 
d="M71 13.5q-24 23.5 -24 69.5q0 16 3 38l55 391h70l-53 -375q-3 -22 -3 -32q0 -31 13.5 -41t43.5 -10h9l-4 -62q-18 -2 -28 -2q-58 0 -82 23.5zM177 760h92l-137 -170h-55zM4.5 635q-14.5 15 -14.5 36q0 22 14.5 37t36.5 15q21 0 36 -15t15 -37q0 -21 -15 -36t-36 -15
q-22 0 -36.5 15zM251.5 635q-14.5 15 -14.5 36q0 22 14.5 37t36.5 15q21 0 35.5 -15t14.5 -37q0 -21 -14.5 -36t-35.5 -15q-22 0 -36.5 15z" />
    <glyph glyph-name="Alpha" unicode="&#x391;" horiz-adv-x="595" 
d="M456 142h-347l-65 -142h-75l359 760h81l145 -760h-73zM445 205l-86 485l-221 -485h307z" />
    <glyph glyph-name="Beta" unicode="&#x392;" horiz-adv-x="582" 
d="M519 337.5q27 -41.5 27 -95.5q0 -72 -31.5 -126.5t-91 -85t-141.5 -30.5h-246l107 760h225q99 0 150.5 -45.5t51.5 -117.5q0 -67 -33 -118.5t-96 -78.5q51 -21 78 -62.5zM205 697l-38 -269h146q89 0 136.5 46t47.5 117q0 49 -33.5 77.5t-104.5 28.5h-154zM428.5 111.5
q45.5 48.5 45.5 127.5q0 56 -38.5 91.5t-110.5 35.5h-166l-43 -303h174q93 0 138.5 48.5z" />
    <glyph glyph-name="Gamma" unicode="&#x393;" horiz-adv-x="492" 
d="M109 0h-72l106 760h389l-8 -63h-318z" />
    <glyph glyph-name="uni0394" unicode="&#x394;" horiz-adv-x="622" 
d="M581 0h-612l373 760h80zM496 63l-123 629l-300 -629h423z" />
    <glyph glyph-name="Epsilon" unicode="&#x395;" horiz-adv-x="545" 
d="M205 697l-38 -269h336l-8 -62h-336l-43 -303h345l-9 -63h-416l107 760h411l-9 -63h-340z" />
    <glyph glyph-name="Zeta" unicode="&#x396;" horiz-adv-x="583" 
d="M118 61h397l-9 -61h-510l502 699h-376l10 61h487z" />
    <glyph glyph-name="Eta" unicode="&#x397;" horiz-adv-x="658" 
d="M657 760l-107 -760h-71l52 366h-372l-52 -366h-71l107 760h71l-47 -332h372l47 332h71z" />
    <glyph glyph-name="Theta" unicode="&#x398;" 
d="M214.5 32q-73.5 42 -113.5 118.5t-40 176.5q0 120 58 222t157 161.5t215 59.5q96 0 169.5 -42t113.5 -118.5t40 -176.5q0 -120 -58 -222t-157 -161.5t-215 -59.5q-96 0 -169.5 42zM565 106.5q81 52.5 128.5 139.5t47.5 187q0 82 -31 143.5t-88.5 95.5t-134.5 34
q-96 0 -177 -52.5t-128.5 -140t-47.5 -187.5q0 -81 31 -143t88 -95.5t134 -33.5q97 0 178 52.5zM275 429h344l-8 -63h-345z" />
    <glyph glyph-name="Iota" unicode="&#x399;" horiz-adv-x="215" 
d="M143 760h71l-107 -760h-71z" />
    <glyph glyph-name="Kappa" unicode="&#x39a;" horiz-adv-x="589" 
d="M348 434l190 -434h-74l-165 378l-165 -188l-27 -190h-71l107 760h71l-65 -463l406 463h80z" />
    <glyph glyph-name="Lambda" unicode="&#x39b;" horiz-adv-x="622" 
d="M508 0l-135 692l-330 -692h-74l373 760h80l159 -760h-73z" />
    <glyph glyph-name="Mu" unicode="&#x39c;" horiz-adv-x="848" 
d="M792 760l-26 -760h-69l26 658l-304 -658h-58l-121 660l-159 -660h-71l188 760h84l119 -668l306 668h85z" />
    <glyph glyph-name="Nu" unicode="&#x39d;" horiz-adv-x="658" 
d="M657 760l-107 -760h-70l-283 648l-91 -648h-70l107 760h70l283 -648l91 648h70z" />
    <glyph glyph-name="Xi" unicode="&#x39e;" horiz-adv-x="637" 
d="M130 760h518l-9 -63h-518zM111 428h464l-9 -62h-464zM18 63h548l-9 -63h-548z" />
    <glyph glyph-name="Omicron" unicode="&#x39f;" 
d="M214.5 32q-73.5 42 -113.5 118.5t-40 176.5q0 120 58 222t157 161.5t215 59.5q96 0 169.5 -42t113.5 -118.5t40 -176.5q0 -120 -58 -222t-157 -161.5t-215 -59.5q-96 0 -169.5 42zM565 106.5q81 52.5 128.5 139.5t47.5 187q0 82 -31 143.5t-88.5 95.5t-134.5 34
q-96 0 -177 -52.5t-128.5 -140t-47.5 -187.5q0 -81 31 -143t88 -95.5t134 -33.5q97 0 178 52.5z" />
    <glyph glyph-name="Pi" unicode="&#x3a0;" horiz-adv-x="677" 
d="M569 0h-71l98 697h-391l-97 -697h-71l106 760h532z" />
    <glyph glyph-name="Rho" unicode="&#x3a1;" horiz-adv-x="621" 
d="M555 703.5q61 -56.5 61 -163.5q0 -83 -36 -150t-103 -105.5t-157 -38.5h-178l-35 -246h-71l107 760h234q117 0 178 -56.5zM442.5 339q50.5 30 76.5 82t26 117q0 80 -42.5 119.5t-138.5 39.5h-159l-54 -388h171q70 0 120.5 30z" />
    <glyph glyph-name="Sigma" unicode="&#x3a3;" horiz-adv-x="571" 
d="M272 406l-183 354h513l-8 -63h-397l152 -294l-242 -340h421l-8 -63h-539z" />
    <glyph glyph-name="Tau" unicode="&#x3a4;" horiz-adv-x="586" 
d="M622 697h-231l-98 -697h-72l98 697h-231l9 63h534z" />
    <glyph glyph-name="Upsilon" unicode="&#x3a5;" horiz-adv-x="551" 
d="M621 760l-495 -760h-75l211 324l-180 436h74l148 -371l242 371h75z" />
    <glyph glyph-name="Phi" unicode="&#x3a6;" horiz-adv-x="881" 
d="M809.5 267q-51.5 -76 -143.5 -119.5t-210 -50.5l-13 -97h-71l13 95q-94 5 -168 40t-115.5 94t-41.5 134q0 98 53 175t146.5 122t211.5 50l7 50h71l-7 -50q93 -7 165.5 -42t113 -93.5t40.5 -132.5q0 -99 -51.5 -175zM200.5 221.5q69.5 -56.5 193.5 -62.5l68 487
q-96 -5 -171.5 -41t-117.5 -97t-42 -138q0 -92 69.5 -148.5zM635 203.5q74 36.5 114.5 97t40.5 135.5q0 89 -69 145.5t-188 64.5l-68 -486q96 7 170 43.5z" />
    <glyph glyph-name="Chi" unicode="&#x3a7;" horiz-adv-x="568" 
d="M341 387l186 -387h-73l-156 326l-250 -326h-79l297 387l-179 373h74l148 -311l237 311h79z" />
    <glyph glyph-name="Psi" unicode="&#x3a8;" horiz-adv-x="768" 
d="M778 760l-34 -243q-19 -130 -100 -205t-227 -79l-33 -233h-72l33 234q-121 6 -186 67t-65 165q0 30 4 55l34 239h71l-32 -233q-4 -34 -4 -55q0 -166 187 -173l64 461h72l-64 -462q112 3 172 62.5t75 164.5l34 235h71z" />
    <glyph glyph-name="uni03A9" unicode="&#x3a9;" horiz-adv-x="861" 
d="M771 221.5q-59 -102.5 -158 -158.5h168l-9 -63h-296l7 53q89 30 151 90t93 136.5t31 154.5q0 76 -29.5 137.5t-89 98t-145.5 36.5q-99 0 -180.5 -49t-128.5 -134.5t-47 -189.5q0 -95 46.5 -171t138.5 -109l-7 -53h-292l8 63h168q-66 43 -100 112t-34 157q0 123 58 223.5
t157.5 157.5t217.5 57q101 0 176 -43t115 -117.5t40 -168.5q0 -117 -59 -219.5z" />
    <glyph glyph-name="Iotadieresis" unicode="&#x3aa;" horiz-adv-x="215" 
d="M143 760h71l-107 -760h-71zM78.5 883q-14.5 15 -14.5 36q0 22 14.5 37t36.5 15q21 0 36 -15t15 -37q0 -21 -15 -36t-36 -15q-22 0 -36.5 15zM253 883q-15 15 -15 36q0 22 15 37t37 15q21 0 35.5 -15t14.5 -37q0 -21 -14.5 -36t-35.5 -15q-22 0 -37 15z" />
    <glyph glyph-name="Upsilondieresis" unicode="&#x3ab;" horiz-adv-x="551" 
d="M621 760l-495 -760h-75l211 324l-180 436h74l148 -371l242 371h75zM246.5 883q-14.5 15 -14.5 36q0 22 14.5 37t36.5 15q21 0 36 -15t15 -37q0 -21 -15 -36t-36 -15q-22 0 -36.5 15zM421 883q-15 15 -15 36q0 22 15 37t37 15q21 0 35.5 -15t14.5 -37q0 -21 -14.5 -36
t-35.5 -15q-22 0 -37 15z" />
    <glyph glyph-name="alphatonos" unicode="&#x3ac;" horiz-adv-x="647" 
d="M142.5 18.5q-47.5 28.5 -74 80.5t-26.5 120q0 85 39 154.5t102.5 108.5t133.5 39q68 0 116.5 -28.5t69.5 -80.5l14 100h68l-53 -375q-2 -13 -2 -32q0 -31 13 -41t42 -10h9l-4 -62q-16 -2 -30 -2q-98 0 -103 85q0 17 2 26q-37 -53 -90.5 -82t-116.5 -29q-62 0 -109.5 28.5
zM378.5 84.5q49.5 32.5 78.5 87.5t29 119q0 75 -43 121.5t-115 46.5q-61 0 -110.5 -32.5t-78 -87.5t-28.5 -120q0 -75 43 -121t117 -46q58 0 107.5 32.5zM299 590l101 170h92l-137 -170h-56z" />
    <glyph glyph-name="epsilontonos" unicode="&#x3ad;" horiz-adv-x="476" 
d="M72 28.5q-48 38.5 -48 96.5q0 47 29.5 90t88.5 56v3q-37 9 -55.5 33t-18.5 57q0 44 28 79.5t77 56.5t109 21q75 0 120.5 -31.5t54.5 -88.5l-67 -16q-6 34 -33.5 54t-81.5 20q-46 0 -76.5 -14t-45.5 -35.5t-15 -43.5q0 -32 26 -47.5t57 -15.5h81l-8 -58h-64
q-65 0 -100 -29t-35 -74q0 -40 30.5 -65t95.5 -25q63 0 101 25t52 66l68 -8q-19 -67 -78.5 -106t-150.5 -39q-93 0 -141 38.5zM243 590l101 170h92l-137 -170h-56z" />
    <glyph glyph-name="etatonos" unicode="&#x3ae;" horiz-adv-x="566" 
d="M473 476.5q43 -44.5 43 -117.5q0 -18 -4 -46l-71 -507h-71l71 501q4 30 4 41q0 57 -28.5 85.5t-88.5 28.5q-55 0 -95.5 -27.5t-63.5 -71t-30 -92.5l-38 -271h-71l72 512h63l-8 -99q34 54 84 81t109 27q80 0 123 -44.5zM295 590l101 170h92l-137 -170h-56z" />
    <glyph glyph-name="iotatonos" unicode="&#x3af;" horiz-adv-x="238" 
d="M71 13.5q-24 23.5 -24 69.5q0 16 3 38l55 391h70l-53 -375q-3 -22 -3 -32q0 -31 13.5 -41t43.5 -10h9l-4 -62q-18 -2 -28 -2q-58 0 -82 23.5zM110 590l101 170h92l-137 -170h-56z" />
    <glyph glyph-name="upsilondieresistonos" unicode="&#x3b0;" horiz-adv-x="552" 
d="M102 35.5q-50 45.5 -50 132.5q0 23 3 50l43 294h70l-43 -301q-3 -19 -3 -39q0 -120 126 -120q142 0 165 158l43 302h70l-42 -303q-15 -109 -78 -164t-163 -55q-91 0 -141 45.5zM347 760h92l-137 -170h-55zM174.5 635q-14.5 15 -14.5 36q0 22 14.5 37t36.5 15q21 0 36 -15
t15 -37q0 -21 -15 -36t-36 -15q-22 0 -36.5 15zM421.5 635q-14.5 15 -14.5 36q0 22 14.5 37t36.5 15q21 0 35.5 -15t14.5 -37q0 -21 -14.5 -36t-35.5 -15q-22 0 -36.5 15z" />
    <glyph glyph-name="alpha" unicode="&#x3b1;" horiz-adv-x="647" 
d="M142.5 18.5q-47.5 28.5 -74 80.5t-26.5 120q0 85 39 154.5t102.5 108.5t133.5 39q68 0 116.5 -28.5t69.5 -80.5l14 100h68l-53 -375q-2 -13 -2 -32q0 -31 13 -41t42 -10h9l-4 -62q-16 -2 -30 -2q-98 0 -103 85q0 17 2 26q-37 -53 -90.5 -82t-116.5 -29q-62 0 -109.5 28.5
zM378.5 84.5q49.5 32.5 78.5 87.5t29 119q0 75 -43 121.5t-115 46.5q-61 0 -110.5 -32.5t-78 -87.5t-28.5 -120q0 -75 43 -121t117 -46q58 0 107.5 32.5z" />
    <glyph glyph-name="beta" unicode="&#x3b2;" horiz-adv-x="588" 
d="M505.5 387q39.5 -48 39.5 -122q0 -69 -32.5 -132t-94.5 -103t-146 -40q-59 0 -99.5 25t-59.5 70l-39 -279h-71l104 733q15 112 82.5 171t168.5 59q82 0 131 -42.5t49 -111.5q0 -63 -38.5 -110t-94.5 -59q61 -11 100.5 -59zM377.5 81q45.5 29 71.5 78t26 107q0 76 -48 111
t-119 35h-22l8 57h25q58 0 91.5 24.5t45.5 56.5t12 58q0 46 -34 73t-83 27q-86 0 -127.5 -52.5t-51.5 -120.5l-40 -288q-3 -24 -3 -39q0 -65 37.5 -110.5t108.5 -45.5q57 0 102.5 29z" />
    <glyph glyph-name="gamma" unicode="&#x3b3;" horiz-adv-x="497" 
d="M523 512l-269 -468l-34 -239h-71l33 236l-136 471h71l109 -395l223 395h74z" />
    <glyph glyph-name="delta" unicode="&#x3b4;" horiz-adv-x="578" 
d="M137 17.5q-48 27.5 -73 74t-25 102.5q0 78 34 142t96 101t143 37q34 0 56 -10l-213 250l6 46h399l-9 -61h-298l186 -215q48 -56 70.5 -105.5t22.5 -108.5q0 -82 -35.5 -146t-99 -99t-144.5 -35q-68 0 -116 27.5zM365 81.5q46 29.5 71.5 78t25.5 104.5q0 67 -36 112
t-108 45q-66 0 -113.5 -33t-71.5 -84t-24 -104q0 -64 39.5 -106t110.5 -42q60 0 106 29.5z" />
    <glyph glyph-name="epsilon" unicode="&#x3b5;" horiz-adv-x="476" 
d="M72 28.5q-48 38.5 -48 96.5q0 47 29.5 90t88.5 56v3q-37 9 -55.5 33t-18.5 57q0 44 28 79.5t77 56.5t109 21q75 0 120.5 -31.5t54.5 -88.5l-67 -16q-6 34 -33.5 54t-81.5 20q-46 0 -76.5 -14t-45.5 -35.5t-15 -43.5q0 -32 26 -47.5t57 -15.5h81l-8 -58h-64
q-65 0 -100 -29t-35 -74q0 -40 30.5 -65t95.5 -25q63 0 101 25t52 66l68 -8q-19 -67 -78.5 -106t-150.5 -39q-93 0 -141 38.5z" />
    <glyph glyph-name="zeta" unicode="&#x3b6;" horiz-adv-x="444" 
d="M223 -132q79 86 79 109q0 19 -43 38l-62 31q-62 30 -92 49t-47 45.5t-17 67.5q0 108 122.5 240.5t275.5 251.5h-309l14 60h398l-5 -39q-189 -158 -307.5 -286.5t-118.5 -211.5q0 -37 26 -61.5t89 -56.5l68 -33q49 -24 67.5 -42.5t18.5 -39.5q0 -32 -37 -76t-76 -79z" />
    <glyph glyph-name="eta" unicode="&#x3b7;" horiz-adv-x="566" 
d="M473 476.5q43 -44.5 43 -117.5q0 -18 -4 -46l-71 -507h-71l71 501q4 30 4 41q0 57 -28.5 85.5t-88.5 28.5q-55 0 -95.5 -27.5t-63.5 -71t-30 -92.5l-38 -271h-71l72 512h63l-8 -99q34 54 84 81t109 27q80 0 123 -44.5z" />
    <glyph glyph-name="theta" unicode="&#x3b8;" horiz-adv-x="584" 
d="M513.5 697q49.5 -73 49.5 -200q0 -139 -35.5 -254t-105.5 -183.5t-168 -68.5q-101 0 -149.5 74.5t-48.5 198.5q0 133 34 248.5t103.5 186.5t169.5 71q101 0 150.5 -73zM220 629q-55 -79 -79 -201h350q2 42 2 64q0 101 -34 158.5t-102 57.5q-82 0 -137 -79zM407 142.5
q57 89.5 77 224.5h-353q-5 -52 -5 -93q0 -102 33 -161.5t100 -59.5q91 0 148 89.5z" />
    <glyph glyph-name="iota" unicode="&#x3b9;" horiz-adv-x="238" 
d="M71 13.5q-24 23.5 -24 69.5q0 16 3 38l55 391h70l-53 -375q-3 -22 -3 -32q0 -31 13.5 -41t43.5 -10h9l-4 -62q-18 -2 -28 -2q-58 0 -82 23.5z" />
    <glyph glyph-name="kappa" unicode="&#x3ba;" horiz-adv-x="476" 
d="M284 320l159 -320h-77l-133 273l-109 -102l-24 -171h-70l72 512h70l-35 -250l266 250h86z" />
    <glyph glyph-name="lambda" unicode="&#x3bb;" horiz-adv-x="522" 
d="M493 51l-5 -58q-19 -3 -37 -3q-34 0 -51.5 16t-26.5 53l-94 352l-226 -411h-80l284 492l-44 166q-7 28 -17 37.5t-37 9.5h-16l4 62q24 3 41 3q36 0 54 -15.5t28 -52.5l164 -607q7 -29 16 -36.5t34 -7.5h9z" />
    <glyph glyph-name="uni03BC" unicode="&#x3bc;" horiz-adv-x="573" 
d="M543 512l-72 -512h-65l10 94q-37 -51 -89 -77.5t-109 -26.5q-71 0 -114 38l-31 -222h-70l53 375l1 10l6 45l37 260h1l2 16h70l-43 -305q-3 -19 -3 -38q0 -58 30.5 -88.5t87.5 -30.5q53 0 94 28t65.5 72.5t30.5 93.5h1l37 268h70z" />
    <glyph glyph-name="nu" unicode="&#x3bd;" horiz-adv-x="497" 
d="M532 512l-279 -512h-80l-136 512h72l111 -445l235 445h77z" />
    <glyph glyph-name="xi" unicode="&#x3be;" horiz-adv-x="474" 
d="M277 -140q66 90 66 114q0 10 -10.5 18t-38.5 18l-56 20q-102 36 -151 77.5t-49 107.5q0 46 23.5 91t64.5 78.5t92 48.5q-56 15 -86.5 49t-30.5 83q0 62 34.5 108.5t89.5 71.5t114 25q82 0 128.5 -38.5t49.5 -100.5l-70 -8q-3 35 -31 60t-86 25q-43 0 -79.5 -17.5
t-58 -49.5t-21.5 -72q0 -54 43.5 -81t105.5 -27h89l-8 -59h-95q-61 0 -106.5 -26.5t-69 -68t-23.5 -85.5q0 -46 36.5 -73t116.5 -56l62 -22q56 -20 77 -37t21 -41q0 -33 -31.5 -79t-63.5 -81z" />
    <glyph glyph-name="omicron" unicode="&#x3bf;" horiz-adv-x="597" 
d="M148 18.5q-50 28.5 -78 80t-28 118.5q0 87 38 156.5t105 108.5t150 39q65 0 115 -28.5t77.5 -79.5t27.5 -118q0 -88 -37.5 -157.5t-104.5 -108.5t-151 -39q-64 0 -114 28.5zM376 82q50 30 79.5 84.5t29.5 124.5q0 80 -42 124t-112 44q-60 0 -110 -30t-79.5 -84.5
t-29.5 -123.5q0 -80 42 -124.5t112 -44.5q60 0 110 30z" />
    <glyph glyph-name="pi" unicode="&#x3c0;" horiz-adv-x="581" 
d="M471 451h-307l-63 -451h-71l72 512h448l-71 -512h-71z" />
    <glyph glyph-name="rho" unicode="&#x3c1;" horiz-adv-x="615" 
d="M432.5 31q65.5 41 103 111t37.5 154q0 63 -25.5 114t-75.5 81t-120 30q-83 0 -145.5 -36t-99 -98t-47.5 -139l-62 -442h70l41 295q22 -56 69.5 -83.5t107.5 -27.5q81 0 146.5 41zM463.5 412q40.5 -47 40.5 -121q0 -69 -29 -123.5t-78.5 -85t-107.5 -30.5
q-76 0 -117.5 47.5t-41.5 117.5q0 66 28 121.5t77 88t110 32.5q78 0 118.5 -47z" />
    <glyph glyph-name="uni03C2" unicode="&#x3c2;" horiz-adv-x="506" 
d="M221 -132q79 86 79 109q0 9 -9 16.5t-33 19.5l-59 28q-57 28 -89 51t-49 56.5t-17 84.5q0 82 35 148t96 103t137 37q83 0 130 -38.5t49 -101.5l-70 -7q-3 37 -29.5 61t-85.5 24q-52 0 -96 -27.5t-70 -78.5t-26 -120q0 -46 26.5 -74t91.5 -59l62 -30q47 -23 65.5 -41
t18.5 -39q0 -32 -37.5 -77t-75.5 -78z" />
    <glyph glyph-name="sigma" unicode="&#x3c3;" horiz-adv-x="596" 
d="M145.5 18.5q-49.5 28.5 -77 79t-27.5 114.5q0 85 38 153.5t104 107.5t146 39h285l-8 -61h-133q40 -26 58 -68t18 -92q0 -86 -37.5 -154.5t-103.5 -107.5t-149 -39q-64 0 -113.5 28.5zM372 82q49 30 78 83.5t29 120.5q0 77 -41 121t-111 44q-58 0 -107.5 -29.5t-79 -83
t-29.5 -121.5q0 -77 41.5 -121t111.5 -44q59 0 108 30z" />
    <glyph glyph-name="tau" unicode="&#x3c4;" horiz-adv-x="419" 
d="M135 103q0 14 4 44l45 304h-144l12 61h373l-9 -61h-164l-43 -303q-3 -19 -3 -34q0 -35 15 -49t48 -14q38 0 80 14l-3 -58q-47 -17 -93 -17q-118 0 -118 113z" />
    <glyph glyph-name="upsilon" unicode="&#x3c5;" horiz-adv-x="552" 
d="M102 35.5q-50 45.5 -50 132.5q0 23 3 50l43 294h70l-43 -301q-3 -19 -3 -39q0 -120 126 -120q142 0 165 158l43 302h70l-42 -303q-15 -109 -78 -164t-163 -55q-91 0 -141 45.5z" />
    <glyph glyph-name="phi" unicode="&#x3c6;" horiz-adv-x="721" 
d="M287 -12q-78 3 -133.5 34t-84 81.5t-28.5 111.5q0 70 31 129.5t85.5 100t122.5 57.5l12 -55q-85 -24 -133.5 -86.5t-48.5 -138.5q0 -74 48 -121.5t137 -50.5l66 462h62q78 0 136 -28.5t88.5 -80t30.5 -119.5q0 -82 -41 -147t-114.5 -104t-165.5 -44l-26 -183h-70zM496 88
q55 33 84 84.5t29 110.5q0 71 -46 118t-141 52l-57 -403q76 5 131 38z" />
    <glyph glyph-name="chi" unicode="&#x3c7;" horiz-adv-x="483" 
d="M355.5 -183q-18.5 15 -30.5 50l-93 259l-213 -320h-81l270 391l-83 212q-10 27 -23 37.5t-39 10.5h-12l8 58q13 2 38 2q36 0 54 -15.5t31 -50.5l69 -192l167 253h82l-225 -324l110 -288q9 -24 20.5 -31.5t30.5 -7.5h10l-4 -57q-13 -2 -38 -2q-30 0 -48.5 15z" />
    <glyph glyph-name="psi" unicode="&#x3c8;" horiz-adv-x="679" 
d="M267 -8q-100 7 -156.5 57.5t-56.5 135.5q0 22 2 36l41 291h70l-41 -290q-2 -20 -2 -35q0 -58 38 -92.5t114 -40.5l64 458h70l-64 -458q86 7 136 50t60 114l42 294h70l-42 -298q-14 -103 -85.5 -159t-189.5 -63l-26 -186h-70z" />
    <glyph glyph-name="omega" unicode="&#x3c9;" horiz-adv-x="811" 
d="M86 43q-42 52 -42 140q0 134 67 226t187 111l4 -62q-88 -15 -138 -90t-50 -178q0 -64 26 -101t80 -37q40 0 71 21.5t48.5 54t22.5 66.5l20 142h69l-20 -142q-2 -16 -2 -24q0 -49 25.5 -83.5t77.5 -34.5q50 0 86.5 34t55 89t18.5 117q0 70 -31.5 114.5t-94.5 54.5l21 59
q87 -14 131 -73.5t44 -154.5q0 -79 -27.5 -148t-80 -111t-124.5 -42q-62 0 -99 31t-47 81q-24 -51 -68.5 -81.5t-106.5 -30.5q-81 0 -123 52z" />
    <glyph glyph-name="iotadieresis" unicode="&#x3ca;" horiz-adv-x="238" 
d="M71 13.5q-24 23.5 -24 69.5q0 16 3 38l55 391h70l-53 -375q-3 -22 -3 -32q0 -31 13.5 -41t43.5 -10h9l-4 -62q-18 -2 -28 -2q-58 0 -82 23.5zM40.5 635q-14.5 15 -14.5 36q0 22 14.5 37t36.5 15q21 0 36 -15t15 -37q0 -21 -15 -36t-36 -15q-22 0 -36.5 15zM215 635
q-15 15 -15 36q0 22 15 37t37 15q21 0 35.5 -15t14.5 -37q0 -21 -14.5 -36t-35.5 -15q-22 0 -37 15z" />
    <glyph glyph-name="upsilondieresis" unicode="&#x3cb;" horiz-adv-x="552" 
d="M102 35.5q-50 45.5 -50 132.5q0 23 3 50l43 294h70l-43 -301q-3 -19 -3 -39q0 -120 126 -120q142 0 165 158l43 302h70l-42 -303q-15 -109 -78 -164t-163 -55q-91 0 -141 45.5zM210.5 635q-14.5 15 -14.5 36q0 22 14.5 37t36.5 15q21 0 36 -15t15 -37q0 -21 -15 -36
t-36 -15q-22 0 -36.5 15zM385 635q-15 15 -15 36q0 22 15 37t37 15q21 0 35.5 -15t14.5 -37q0 -21 -14.5 -36t-35.5 -15q-22 0 -37 15z" />
    <glyph glyph-name="omicrontonos" unicode="&#x3cc;" horiz-adv-x="597" 
d="M148 18.5q-50 28.5 -78 80t-28 118.5q0 87 38 156.5t105 108.5t150 39q65 0 115 -28.5t77.5 -79.5t27.5 -118q0 -88 -37.5 -157.5t-104.5 -108.5t-151 -39q-64 0 -114 28.5zM376 82q50 30 79.5 84.5t29.5 124.5q0 80 -42 124t-112 44q-60 0 -110 -30t-79.5 -84.5
t-29.5 -123.5q0 -80 42 -124.5t112 -44.5q60 0 110 30zM303 590l101 170h92l-137 -170h-56z" />
    <glyph glyph-name="upsilontonos" unicode="&#x3cd;" horiz-adv-x="552" 
d="M102 35.5q-50 45.5 -50 132.5q0 23 3 50l43 294h70l-43 -301q-3 -19 -3 -39q0 -120 126 -120q142 0 165 158l43 302h70l-42 -303q-15 -109 -78 -164t-163 -55q-91 0 -141 45.5zM280 590l101 170h92l-137 -170h-56z" />
    <glyph glyph-name="omegatonos" unicode="&#x3ce;" horiz-adv-x="811" 
d="M86 43q-42 52 -42 140q0 134 67 226t187 111l4 -62q-88 -15 -138 -90t-50 -178q0 -64 26 -101t80 -37q40 0 71 21.5t48.5 54t22.5 66.5l20 142h69l-20 -142q-2 -16 -2 -24q0 -49 25.5 -83.5t77.5 -34.5q50 0 86.5 34t55 89t18.5 117q0 70 -31.5 114.5t-94.5 54.5l21 59
q87 -14 131 -73.5t44 -154.5q0 -79 -27.5 -148t-80 -111t-124.5 -42q-62 0 -99 31t-47 81q-24 -51 -68.5 -81.5t-106.5 -30.5q-81 0 -123 52zM410 590l101 170h92l-137 -170h-56z" />
    <glyph glyph-name="uni0400" unicode="&#x400;" horiz-adv-x="545" 
d="M205 697l-38 -269h336l-8 -62h-336l-43 -303h345l-9 -63h-416l107 760h411l-9 -63h-340zM289 1008l101 -170h-56l-137 170h92z" />
    <glyph glyph-name="uni0401" unicode="&#x401;" horiz-adv-x="545" 
d="M205 697l-38 -269h336l-8 -62h-336l-43 -303h345l-9 -63h-416l107 760h411l-9 -63h-340zM245.5 883q-14.5 15 -14.5 36q0 22 14.5 37t36.5 15q21 0 36 -15t15 -37q0 -21 -15 -36t-36 -15q-22 0 -36.5 15zM420 883q-15 15 -15 36q0 22 15 37t37 15q21 0 35.5 -15t14.5 -37
q0 -21 -14.5 -36t-35.5 -15q-22 0 -37 15z" />
    <glyph glyph-name="uni0402" unicode="&#x402;" horiz-adv-x="796" 
d="M689 429q67 -53 67 -145q0 -75 -34 -137.5t-95 -103.5t-139 -53l-3 65q91 16 145 78t54 148q0 68 -49 103t-139 35h-177l-58 -419h-71l98 697h-199l8 63h536l-8 -63h-267l-30 -215h182q112 0 179 -53z" />
    <glyph glyph-name="uni0403" unicode="&#x403;" horiz-adv-x="482" 
d="M523 697h-318l-97 -697h-71l106 760h389zM388 838h-56l101 170h92z" />
    <glyph glyph-name="uni0404" unicode="&#x404;" horiz-adv-x="818" 
d="M216.5 34.5q-73.5 44.5 -114.5 120.5t-41 169q0 119 58 221.5t156 163.5t214 61q81 0 148 -33t111 -92t58 -135l-71 -6q-20 93 -86.5 147.5t-162.5 54.5q-83 0 -155 -40t-121.5 -108t-67.5 -149h420l-9 -63h-419q-1 -7 -1 -21q0 -79 32 -140.5t90 -96t133 -34.5
q98 0 181 55.5t129 147.5l71 -11q-54 -117 -157 -186.5t-227 -69.5q-95 0 -168.5 44.5z" />
    <glyph glyph-name="uni0405" unicode="&#x405;" horiz-adv-x="630" 
d="M102 47q-62 57 -62 157l70 7q0 -86 49.5 -121.5t128.5 -35.5q97 0 154 44.5t57 122.5q0 39 -16 62.5t-43.5 37.5t-76.5 30l-87 28q-92 30 -134.5 75t-42.5 112q0 61 32 107t91.5 71.5t140.5 25.5q120 0 181.5 -55t62.5 -150l-70 -9q-2 150 -173 150q-84 0 -138 -35
t-54 -101q0 -48 32 -76.5t106 -52.5l79 -26q61 -19 99.5 -40.5t60.5 -57.5t22 -92q0 -73 -36.5 -126.5t-101 -81t-148.5 -27.5q-121 0 -183 57z" />
    <glyph glyph-name="uni0406" unicode="&#x406;" horiz-adv-x="215" 
d="M143 760h71l-107 -760h-71z" />
    <glyph glyph-name="uni0407" unicode="&#x407;" horiz-adv-x="215" 
d="M143 760h71l-107 -760h-71zM78.5 883q-14.5 15 -14.5 36q0 22 14.5 37t36.5 15q21 0 36 -15t15 -37q0 -21 -15 -36t-36 -15q-22 0 -36.5 15zM253 883q-15 15 -15 36q0 22 15 37t37 15q21 0 35.5 -15t14.5 -37q0 -21 -14.5 -36t-35.5 -15q-22 0 -37 15z" />
    <glyph glyph-name="uni0408" unicode="&#x408;" horiz-adv-x="547" 
d="M81.5 43.5q-53.5 53.5 -53.5 151.5l69 5q0 -73 33.5 -109.5t97.5 -36.5q71 0 117.5 44.5t60.5 143.5l74 518h70l-73 -519q-18 -130 -81 -190.5t-169 -60.5q-92 0 -145.5 53.5z" />
    <glyph glyph-name="uni0409" unicode="&#x409;" horiz-adv-x="1026" 
d="M924.5 441.5q60.5 -57.5 60.5 -153.5q0 -87 -37 -152t-105 -100.5t-160 -35.5h-242l98 705h-14l-479 -705h-77l515 760h134l-36 -261h168q114 0 174.5 -57.5zM804 91q52 28 80.5 79t28.5 118q0 68 -44 108.5t-131 40.5h-165l-52 -374h161q70 0 122 28z" />
    <glyph glyph-name="uni040A" unicode="&#x40a;" horiz-adv-x="1052" 
d="M951.5 441.5q60.5 -57.5 60.5 -153.5q0 -87 -37 -152t-105 -100.5t-160 -35.5h-242l51 367h-360l-51 -367h-71l106 760h71l-46 -331h360l46 331h71l-36 -261h168q114 0 174.5 -57.5zM831 91q52 28 80.5 79t28.5 118q0 68 -44 108.5t-131 40.5h-165l-52 -374h161
q70 0 122 28z" />
    <glyph glyph-name="uni040B" unicode="&#x40b;" horiz-adv-x="784" 
d="M677.5 434q55.5 -48 55.5 -139q0 -24 -3 -48l-34 -247h-71l33 234q4 27 4 54q0 71 -39 101t-128 30h-176l-58 -419h-71l98 697h-199l8 63h536l-8 -63h-267l-30 -215h187q107 0 162.5 -48z" />
    <glyph glyph-name="uni040C" unicode="&#x40c;" horiz-adv-x="589" 
d="M348 434l190 -434h-74l-165 378l-165 -188l-27 -190h-71l107 760h71l-65 -463l406 463h80zM400 838h-56l101 170h92z" />
    <glyph glyph-name="uni040D" unicode="&#x40d;" horiz-adv-x="669" 
d="M667 760l-106 -760h-71l89 640l-471 -640h-71l106 760h71l-89 -640l471 640h71zM353 1008l101 -170h-56l-137 170h92z" />
    <glyph glyph-name="uni040E" unicode="&#x40e;" horiz-adv-x="558" 
d="M628 760l-469 -760h-78l183 296l-177 464h73l146 -396l244 396h78zM259 884q-38 43 -38 124h54q0 -54 27 -82.5t73 -28.5q44 0 76 28t48 83h54q-19 -82 -66.5 -124.5t-118.5 -42.5t-109 43z" />
    <glyph glyph-name="uni040F" unicode="&#x40f;" horiz-adv-x="649" 
d="M647 760l-106 -760h-216l-25 -148h-63l15 148h-215l106 760h71l-97 -697h362l97 697h71z" />
    <glyph glyph-name="uni0410" unicode="&#x410;" horiz-adv-x="595" 
d="M456 142h-347l-65 -142h-75l359 760h81l145 -760h-73zM445 205l-86 485l-221 -485h307z" />
    <glyph glyph-name="uni0411" unicode="&#x411;" horiz-adv-x="622" 
d="M519.5 441.5q62.5 -57.5 62.5 -152.5q0 -88 -37.5 -153.5t-106 -100.5t-159.5 -35h-242l106 760h447l-9 -63h-375l-27 -198h167q111 0 173.5 -57.5zM448 124q62 61 62 163q0 69 -44 109.5t-132 40.5h-164l-52 -374h160q108 0 170 61z" />
    <glyph glyph-name="uni0412" unicode="&#x412;" horiz-adv-x="582" 
d="M519 337.5q27 -41.5 27 -95.5q0 -72 -31.5 -126.5t-91 -85t-141.5 -30.5h-246l107 760h225q99 0 150.5 -45.5t51.5 -117.5q0 -67 -33 -118.5t-96 -78.5q51 -21 78 -62.5zM205 697l-38 -269h146q89 0 136.5 46t47.5 117q0 49 -33.5 77.5t-104.5 28.5h-154zM428.5 111.5
q45.5 48.5 45.5 127.5q0 56 -38.5 91.5t-110.5 35.5h-166l-43 -303h174q93 0 138.5 48.5z" />
    <glyph glyph-name="uni0413" unicode="&#x413;" horiz-adv-x="482" 
d="M523 697h-318l-97 -697h-71l106 760h389z" />
    <glyph glyph-name="uni0414" unicode="&#x414;" horiz-adv-x="683" 
d="M646 63l-29 -203h-63l14 140h-526l-25 -140h-63l28 203h61l329 697h80l133 -697h61zM515 63l-111 626l-285 -626h396z" />
    <glyph glyph-name="uni0415" unicode="&#x415;" horiz-adv-x="545" 
d="M205 697l-38 -269h336l-8 -62h-336l-43 -303h345l-9 -63h-416l107 760h411l-9 -63h-340z" />
    <glyph glyph-name="uni0416" unicode="&#x416;" horiz-adv-x="921" 
d="M686 454l188 -454h-72l-164 401l-144 -159l-34 -242h-71l36 258l-95 152l-275 -410h-80l318 470l-182 290h76l251 -410l58 410h70l-57 -412l368 412h86z" />
    <glyph glyph-name="uni0417" unicode="&#x417;" horiz-adv-x="571" 
d="M509 342q26 -41 26 -98q0 -76 -36 -133.5t-100.5 -89t-147.5 -31.5q-112 0 -170.5 50.5t-58.5 131.5q0 23 2 33l70 3q-2 -18 -2 -27q0 -60 39.5 -94t121.5 -34q61 0 109 23.5t74.5 66.5t26.5 100q0 58 -37 92t-110 34h-117l8 63h95q54 0 96.5 21t66.5 59t24 86
q0 51 -34.5 80t-108.5 29q-86 0 -133 -40.5t-57 -105.5l-70 7q13 88 81 145t184 57q103 0 156.5 -46.5t53.5 -122.5q0 -67 -34 -120t-93 -78q49 -20 75 -61z" />
    <glyph glyph-name="uni0418" unicode="&#x418;" horiz-adv-x="669" 
d="M667 760l-106 -760h-71l89 640l-471 -640h-71l106 760h71l-89 -640l471 640h71z" />
    <glyph glyph-name="uni0419" unicode="&#x419;" horiz-adv-x="669" 
d="M667 760l-106 -760h-71l89 640l-471 -640h-71l106 760h71l-89 -640l471 640h71zM317 884q-38 43 -38 124h54q0 -54 27 -82.5t73 -28.5q44 0 76 28t48 83h54q-19 -82 -66.5 -124.5t-118.5 -42.5t-109 43z" />
    <glyph glyph-name="uni041A" unicode="&#x41a;" horiz-adv-x="589" 
d="M348 434l190 -434h-74l-165 378l-165 -188l-27 -190h-71l107 760h71l-65 -463l406 463h80z" />
    <glyph glyph-name="uni041B" unicode="&#x41b;" horiz-adv-x="595" 
d="M482 0l-122 687l-314 -687h-77l359 760h80l146 -760h-72z" />
    <glyph glyph-name="uni041C" unicode="&#x41c;" horiz-adv-x="848" 
d="M792 760l-26 -760h-69l26 658l-304 -658h-58l-121 660l-159 -660h-71l188 760h84l119 -668l306 668h85z" />
    <glyph glyph-name="uni041D" unicode="&#x41d;" horiz-adv-x="658" 
d="M657 760l-107 -760h-71l52 366h-372l-52 -366h-71l107 760h71l-47 -332h372l47 332h71z" />
    <glyph glyph-name="uni041E" unicode="&#x41e;" 
d="M214.5 32q-73.5 42 -113.5 118.5t-40 176.5q0 120 58 222t157 161.5t215 59.5q96 0 169.5 -42t113.5 -118.5t40 -176.5q0 -120 -58 -222t-157 -161.5t-215 -59.5q-96 0 -169.5 42zM565 106.5q81 52.5 128.5 139.5t47.5 187q0 82 -31 143.5t-88.5 95.5t-134.5 34
q-96 0 -177 -52.5t-128.5 -140t-47.5 -187.5q0 -81 31 -143t88 -95.5t134 -33.5q97 0 178 52.5z" />
    <glyph glyph-name="uni041F" unicode="&#x41f;" horiz-adv-x="649" 
d="M541 0h-71l97 697h-362l-97 -697h-71l106 760h504z" />
    <glyph glyph-name="uni0420" unicode="&#x420;" horiz-adv-x="621" 
d="M555 703.5q61 -56.5 61 -163.5q0 -83 -36 -150t-103 -105.5t-157 -38.5h-178l-35 -246h-71l107 760h234q117 0 178 -56.5zM442.5 339q50.5 30 76.5 82t26 117q0 80 -42.5 119.5t-138.5 39.5h-159l-54 -388h171q70 0 120.5 30z" />
    <glyph glyph-name="uni0421" unicode="&#x421;" horiz-adv-x="818" 
d="M216.5 31q-73.5 41 -114.5 117t-41 177q0 119 57.5 221.5t155.5 163t215 60.5q84 0 151 -32t110 -90t57 -135l-73 -8q-20 95 -85 148t-162 53t-178 -52t-128 -139.5t-47 -187.5q0 -82 31.5 -144t89 -95.5t134.5 -33.5q100 0 182.5 55t128.5 149l70 -9
q-56 -119 -157.5 -189t-227.5 -70q-95 0 -168.5 41z" />
    <glyph glyph-name="uni0422" unicode="&#x422;" horiz-adv-x="586" 
d="M622 697h-231l-98 -697h-72l98 697h-231l9 63h534z" />
    <glyph glyph-name="uni0423" unicode="&#x423;" horiz-adv-x="558" 
d="M628 760l-469 -760h-78l183 296l-177 464h73l146 -396l244 396h78z" />
    <glyph glyph-name="uni0424" unicode="&#x424;" horiz-adv-x="838" 
d="M765 243.5q-47 -76.5 -133.5 -117.5t-201.5 -43l-13 -93h-70l13 93q-140 2 -219 67.5t-79 183.5q0 106 47 183t133.5 118t201.5 42l13 93h70l-13 -93q139 -2 218.5 -67.5t79.5 -183.5q0 -106 -47 -182.5zM659 222q80 73 80 203q0 94 -60.5 140.5t-173.5 48.5l-66 -468
q140 3 220 76zM435 614q-141 -2 -221 -75.5t-80 -203.5q0 -94 60.5 -140.5t174.5 -48.5z" />
    <glyph glyph-name="uni0425" unicode="&#x425;" horiz-adv-x="568" 
d="M341 381l186 -381h-72l-157 322l-246 -322h-83l297 387l-179 373h72l151 -313l235 313h81z" />
    <glyph glyph-name="uni0426" unicode="&#x426;" horiz-adv-x="654" 
d="M614 63l-28 -203h-63l14 140h-501l107 760h71l-98 -697h357l98 697h71l-98 -697h70z" />
    <glyph glyph-name="uni0427" unicode="&#x427;" horiz-adv-x="610" 
d="M608 760l-106 -760h-71l42 298h-147q-70 0 -123.5 26t-83 74.5t-29.5 113.5q0 21 3 42l29 206h71l-29 -206q-3 -22 -3 -41q0 -74 46 -113t134 -39h141l56 399h70z" />
    <glyph glyph-name="uni0428" unicode="&#x428;" horiz-adv-x="942" 
d="M940 760l-106 -760h-797l106 760h71l-97 -697h292l98 697h70l-97 -697h292l98 697h70z" />
    <glyph glyph-name="uni0429" unicode="&#x429;" horiz-adv-x="952" 
d="M913 63l-28 -203h-63l14 140h-799l106 760h71l-97 -697h292l98 697h70l-97 -697h292l98 697h70l-97 -697h70z" />
    <glyph glyph-name="uni042A" unicode="&#x42a;" horiz-adv-x="737" 
d="M636.5 441.5q60.5 -57.5 60.5 -153.5q0 -87 -37 -152t-105 -100.5t-160 -35.5h-242l97 697h-162l9 63h233l-36 -261h168q114 0 174.5 -57.5zM516 91q52 28 80.5 79t28.5 118q0 68 -44 108.5t-131 40.5h-165l-52 -374h161q70 0 122 28z" />
    <glyph glyph-name="uni042B" unicode="&#x42b;" horiz-adv-x="822" 
d="M520.5 441.5q60.5 -57.5 60.5 -153.5q0 -87 -37 -152t-105 -100.5t-160 -35.5h-242l106 760h71l-36 -261h168q114 0 174.5 -57.5zM820 760l-106 -760h-71l107 760h70zM400 91q52 28 80.5 79t28.5 118q0 68 -44 108.5t-131 40.5h-165l-52 -374h161q70 0 122 28z" />
    <glyph glyph-name="uni042C" unicode="&#x42c;" horiz-adv-x="621" 
d="M520.5 441.5q60.5 -57.5 60.5 -153.5q0 -87 -37 -152t-105 -100.5t-160 -35.5h-242l106 760h71l-36 -261h168q114 0 174.5 -57.5zM400 91q52 28 80.5 79t28.5 118q0 68 -44 108.5t-131 40.5h-165l-52 -374h161q70 0 122 28z" />
    <glyph glyph-name="uni042D" unicode="&#x42d;" horiz-adv-x="818" 
d="M636.5 725.5q73.5 -44.5 114.5 -120.5t41 -169q0 -119 -58 -221.5t-156 -163.5t-214 -61q-81 0 -148 33t-111 92t-58 135l71 6q20 -93 86.5 -147.5t162.5 -54.5q83 0 155 40t121.5 108t67.5 149h-420l9 63h419q1 7 1 21q0 79 -32 140.5t-90 96t-133 34.5
q-98 0 -181 -55.5t-129 -147.5l-71 11q54 117 157 186.5t227 69.5q95 0 168.5 -44.5z" />
    <glyph glyph-name="uni042E" unicode="&#x42e;" horiz-adv-x="1050" 
d="M871.5 728q71.5 -42 112 -117t40.5 -171q0 -121 -56.5 -224.5t-152.5 -164.5t-209 -61q-89 0 -160 42t-111.5 117t-40.5 171q0 16 2 46h-137l-51 -366h-71l106 760h71l-46 -332h138q22 97 81 175t143.5 122.5t180.5 44.5q89 0 160.5 -42zM782.5 107.5
q78.5 53.5 123.5 142.5t45 190q0 80 -31 140t-86 93t-126 33q-95 0 -173.5 -53.5t-123.5 -142.5t-45 -190q0 -80 31 -140.5t86 -93t126 -32.5q95 0 173.5 53.5z" />
    <glyph glyph-name="uni042F" unicode="&#x42f;" horiz-adv-x="622" 
d="M514 0h-70l34 244h-168q-20 0 -30 1l-160 -245h-84l170 260q-64 22 -98 74t-34 126q0 91 36.5 159t106 104.5t165.5 36.5h239zM487 307l54 390h-158q-112 0 -174.5 -64t-62.5 -170q0 -75 44 -115.5t134 -40.5h163z" />
    <glyph glyph-name="uni0430" unicode="&#x430;" horiz-adv-x="615" 
d="M585 512l-72 -512h-62l10 100q-35 -51 -89 -80.5t-117 -29.5q-60 0 -108.5 28.5t-76.5 80.5t-28 120q0 87 39 156t104.5 107.5t141.5 38.5q63 0 108.5 -28.5t66.5 -79.5l14 99h69zM377.5 84.5q50.5 32.5 79.5 87.5t29 119q0 76 -42 122t-115 46q-59 0 -108.5 -29.5
t-79 -83t-29.5 -122.5q0 -81 42 -126.5t113 -45.5q60 0 110.5 32.5z" />
    <glyph glyph-name="uni0431" unicode="&#x431;" horiz-adv-x="603" 
d="M277 654.5q-57 -33.5 -88.5 -94t-53.5 -159.5q70 120 210 120q65 0 114 -28.5t76 -79t27 -115.5q0 -86 -38.5 -156.5t-106 -111t-150.5 -40.5q-97 0 -155 62.5t-58 181.5q0 38 8 88q20 144 56.5 234t110.5 140.5t200 56.5l153 7l-13 -63l-141 -5q-94 -4 -151 -37.5z
M225.5 426q-50.5 -33 -78.5 -89t-28 -122q0 -77 42.5 -120t112.5 -43q62 0 112 34t78 90.5t28 120.5q0 75 -42.5 118.5t-111.5 43.5q-62 0 -112.5 -33z" />
    <glyph glyph-name="uni0432" unicode="&#x432;" horiz-adv-x="463" 
d="M399 228.5q19 -27.5 19 -64.5q0 -72 -53.5 -118t-147.5 -46h-187l72 512h181q76 0 113 -31t37 -82q0 -44 -22.5 -78.5t-68.5 -50.5q38 -14 57 -41.5zM164 454l-22 -156h102q55 0 87 28t32 70q0 26 -21 42t-67 16h-111zM313 88.5q35 30.5 35 79.5q0 33 -25 52.5t-76 19.5
h-113l-26 -182h111q59 0 94 30.5z" />
    <glyph glyph-name="uni0433" unicode="&#x433;" horiz-adv-x="376" 
d="M383 451h-220l-63 -451h-70l72 512h289z" />
    <glyph glyph-name="uni0434" unicode="&#x434;" horiz-adv-x="556" 
d="M518 60l-27 -190h-64l14 130h-397l-24 -130h-64l27 190h53l238 452h80l110 -452h54zM396 60l-88 387l-197 -387h285z" />
    <glyph glyph-name="uni0435" unicode="&#x435;" horiz-adv-x="580" 
d="M112 231v-14q0 -77 43 -121t110 -44q60 0 106.5 28t75.5 77l69 -9q-39 -75 -105 -116.5t-150 -41.5q-65 0 -114.5 29.5t-77 80.5t-27.5 114q0 85 36.5 155t102 111t148.5 41q67 0 114 -28t71.5 -76.5t24.5 -109.5q0 -22 -6 -76h-421zM196.5 413q-56.5 -46 -75.5 -122h348
v11q0 76 -38 116.5t-104 40.5q-74 0 -130.5 -46z" />
    <glyph glyph-name="uni0436" unicode="&#x436;" horiz-adv-x="692" 
d="M509 311l141 -311h-72l-118 263l-89 -88l-25 -175h-70l27 192l-56 75l-194 -267h-83l235 322l-142 190h80l172 -237l33 237h70l-34 -241l238 241h91z" />
    <glyph glyph-name="uni0437" unicode="&#x437;" horiz-adv-x="425" 
d="M359 229.5q21 -28.5 21 -67.5q0 -77 -53 -124.5t-153 -47.5q-81 0 -126.5 35.5t-45.5 92.5q0 6 2 20l66 2q-1 -6 -1 -15q0 -36 26.5 -56t79.5 -20q61 0 98 31t37 81q0 34 -26.5 55t-77.5 21h-63l9 60h52q54 0 88.5 29.5t34.5 75.5q0 28 -22 44.5t-68 16.5q-54 0 -86 -23
t-40 -61l-64 6q10 62 59 99t136 37q78 0 116.5 -32t38.5 -82q0 -43 -25.5 -80t-70.5 -55q37 -14 58 -42.5z" />
    <glyph glyph-name="uni0438" unicode="&#x438;" horiz-adv-x="522" 
d="M491 512l-71 -512h-70l56 406l-305 -406l-1 1v-1h-70l72 512h70l-57 -408l306 408h70z" />
    <glyph glyph-name="uni0439" unicode="&#x439;" horiz-adv-x="522" 
d="M491 512l-71 -512h-70l56 406l-305 -406l-1 1v-1h-70l72 512h70l-57 -408l306 408h70zM203 636q-38 43 -38 124h54q0 -54 27 -82.5t73 -28.5q44 0 76 28t48 83h54q-19 -82 -66.5 -124.5t-118.5 -42.5t-109 43z" />
    <glyph glyph-name="uni043A" unicode="&#x43a;" horiz-adv-x="455" 
d="M252 290l161 -290h-72l-136 245l-82 -78l-23 -167h-70l72 512h70l-35 -246l254 246h92z" />
    <glyph glyph-name="uni043B" unicode="&#x43b;" horiz-adv-x="486" 
d="M375 0l-102 447l-227 -447h-77l270 512h80l126 -512h-70z" />
    <glyph glyph-name="uni043C" unicode="&#x43c;" horiz-adv-x="623" 
d="M569 512l-15 -512h-68l13 406l-200 -406h-46l-84 411l-101 -411h-70l128 512h76l87 -410l203 410h77z" />
    <glyph glyph-name="uni043D" unicode="&#x43d;" horiz-adv-x="522" 
d="M492 512l-72 -512h-70l33 238h-250l-33 -238h-70l72 512h70l-30 -213h250l30 213h70z" />
    <glyph glyph-name="uni043E" unicode="&#x43e;" horiz-adv-x="597" 
d="M148 18.5q-50 28.5 -78 80t-28 118.5q0 87 38 156.5t105 108.5t150 39q65 0 115 -28.5t77.5 -79.5t27.5 -118q0 -88 -37.5 -157.5t-104.5 -108.5t-151 -39q-64 0 -114 28.5zM376 82q50 30 79.5 84.5t29.5 124.5q0 80 -42 124t-112 44q-60 0 -110 -30t-79.5 -84.5
t-29.5 -123.5q0 -80 42 -124.5t112 -44.5q60 0 110 30z" />
    <glyph glyph-name="uni043F" unicode="&#x43f;" horiz-adv-x="518" 
d="M416 0h-70l63 451h-246l-63 -451h-70l72 512h386z" />
    <glyph glyph-name="uni0440" unicode="&#x440;" horiz-adv-x="616" 
d="M473 492q48 -29 74.5 -80t26.5 -116q0 -90 -39 -159.5t-104 -108t-142 -38.5q-62 0 -108 28t-68 76l-40 -288h-70l99 706h63l-10 -104q34 54 88 83.5t120 29.5q62 0 110 -29zM396.5 82q48.5 30 78 84.5t29.5 123.5q0 80 -42.5 124.5t-113.5 44.5q-62 0 -112 -32
t-78 -86.5t-28 -118.5q0 -77 43 -123.5t118 -46.5q57 0 105.5 30z" />
    <glyph glyph-name="uni0441" unicode="&#x441;" horiz-adv-x="576" 
d="M146 18.5q-50 28.5 -77 79.5t-27 116q0 89 38 159t104.5 109t148.5 39q84 0 141 -44.5t73 -120.5l-71 -8q-12 53 -51 82t-93 29q-65 0 -115 -31t-77.5 -85.5t-27.5 -120.5q0 -79 42 -124.5t114 -45.5q60 0 111.5 33t76.5 90l67 -8q-33 -82 -102 -129.5t-161 -47.5
q-64 0 -114 28.5z" />
    <glyph glyph-name="uni0442" unicode="&#x442;" horiz-adv-x="435" 
d="M441 451h-161l-63 -451h-70l63 451h-161l8 61h392z" />
    <glyph glyph-name="uni0443" unicode="&#x443;" horiz-adv-x="555" 
d="M524 512l-65 -466q-17 -122 -81 -186t-170 -64q-77 0 -123.5 32t-57.5 84l67 14q8 -34 37.5 -53t80.5 -19q151 0 177 191l7 50q-33 -52 -81.5 -78.5t-105.5 -26.5q-74 0 -117 45t-43 113q0 20 3 41l45 323h70l-44 -316q-3 -21 -3 -40q0 -106 117 -106q71 0 116.5 50.5
t60.5 122.5l40 289h70z" />
    <glyph glyph-name="uni0444" unicode="&#x444;" horiz-adv-x="674" 
d="M593.5 141q-38.5 -70 -106.5 -110.5t-152 -40.5l-26 -184h-70l26 184q-65 1 -116 29.5t-79 79t-28 115.5q0 86 38.5 156t106.5 110.5t152 40.5l33 239h70l-33 -239q65 -1 116 -29.5t79 -79t28 -115.5q0 -86 -38.5 -156zM457 87q50 34 77.5 89.5t27.5 120.5q0 76 -44 119
t-118 43l-57 -407q64 1 114 35zM330 459q-64 -1 -113.5 -35t-77 -90t-27.5 -120q0 -75 43.5 -118t117.5 -44z" />
    <glyph glyph-name="uni0445" unicode="&#x445;" horiz-adv-x="459" 
d="M271 260l146 -260h-74l-117 209l-175 -209h-81l225 266l-140 246h75l108 -194l163 194h81z" />
    <glyph glyph-name="uni0446" unicode="&#x446;" horiz-adv-x="527" 
d="M457 -130h-63l13 130h-377l72 512h70l-64 -452h240l63 452h70l-63 -452h66z" />
    <glyph glyph-name="uni0447" unicode="&#x447;" horiz-adv-x="477" 
d="M447 512l-72 -512h-70l27 194h-91q-82 0 -128.5 40.5t-46.5 108.5q0 21 2 31l19 138h70l-19 -137q-2 -18 -2 -26q0 -46 28.5 -70.5t86.5 -24.5h90l36 258h70z" />
    <glyph glyph-name="uni0448" unicode="&#x448;" horiz-adv-x="736" 
d="M706 512l-72 -512h-604l72 512h70l-64 -452h197l64 452h70l-64 -452h197l64 452h70z" />
    <glyph glyph-name="uni0449" unicode="&#x449;" horiz-adv-x="751" 
d="M681 -130h-63l13 130h-601l72 512h70l-64 -452h197l64 452h70l-64 -452h197l64 452h70l-64 -452h66z" />
    <glyph glyph-name="uni044A" unicode="&#x44a;" horiz-adv-x="548" 
d="M462 311q45 -41 45 -107q0 -98 -60.5 -151t-164.5 -53h-181l64 452h-116l8 60h186l-8 -60l-14 -100h111q85 0 130 -41zM395 98q42 38 42 102q0 43 -29.5 67.5t-90.5 24.5h-105l-33 -232h102q72 0 114 38z" />
    <glyph glyph-name="uni044B" unicode="&#x44b;" horiz-adv-x="667" 
d="M391 311q45 -41 45 -107q0 -98 -60.5 -151t-164.5 -53h-181l72 512h70l-22 -160h111q85 0 130 -41zM637 512l-72 -512h-70l72 512h70zM324 98q42 38 42 102q0 43 -29.5 67.5t-90.5 24.5h-105l-33 -232h102q72 0 114 38z" />
    <glyph glyph-name="uni044C" unicode="&#x44c;" horiz-adv-x="477" 
d="M391 311q45 -41 45 -107q0 -98 -60.5 -151t-164.5 -53h-181l72 512h70l-22 -160h111q85 0 130 -41zM324 98q42 38 42 102q0 43 -29.5 67.5t-90.5 24.5h-105l-33 -232h102q72 0 114 38z" />
    <glyph glyph-name="uni044D" unicode="&#x44d;" horiz-adv-x="584" 
d="M435.5 492.5q50.5 -28.5 78.5 -79t28 -115.5q0 -86 -38.5 -156.5t-105 -111t-146.5 -40.5q-87 0 -147.5 52t-71.5 135l69 4q10 -60 51.5 -94.5t100.5 -34.5q77 0 133.5 50t75.5 126h-265l8 60h266v9q0 75 -42.5 118.5t-111.5 43.5q-61 0 -112.5 -34.5t-78.5 -92.5l-70 10
q35 84 105 131.5t157 47.5q66 0 116.5 -28.5z" />
    <glyph glyph-name="uni044E" unicode="&#x44e;" horiz-adv-x="775" 
d="M628 492.5q50 -28.5 78 -79.5t28 -116q0 -83 -38 -153.5t-104 -112t-146 -41.5q-65 0 -115 28.5t-77.5 80t-27.5 116.5q0 15 1 23h-94l-33 -238h-70l72 512h70l-30 -215h94q17 65 56.5 115.5t96.5 79.5t124 29q65 0 115 -28.5zM558.5 86q49.5 34 77.5 90.5t28 121.5
q0 74 -42.5 117.5t-109.5 43.5q-61 0 -110.5 -34t-77.5 -90.5t-28 -120.5q0 -75 42.5 -118.5t109.5 -43.5q61 0 110.5 34z" />
    <glyph glyph-name="uni044F" unicode="&#x44f;" horiz-adv-x="488" 
d="M386 0h-70l21 151h-112q-20 0 -29 1l-93 -152h-78l105 169q-39 19 -59.5 52.5t-20.5 79.5q0 99 59 155t168 56h180zM345 211l34 240h-101q-75 0 -116.5 -39.5t-41.5 -106.5q0 -44 30 -69t90 -25h105z" />
    <glyph glyph-name="uni0450" unicode="&#x450;" horiz-adv-x="580" 
d="M112 231v-14q0 -77 43 -121t110 -44q60 0 106.5 28t75.5 77l69 -9q-39 -75 -105 -116.5t-150 -41.5q-65 0 -114.5 29.5t-77 80.5t-27.5 114q0 85 36.5 155t102 111t148.5 41q67 0 114 -28t71.5 -76.5t24.5 -109.5q0 -22 -6 -76h-421zM196.5 413q-56.5 -46 -75.5 -122h348
v11q0 76 -38 116.5t-104 40.5q-74 0 -130.5 -46zM270 760l101 -170h-56l-137 170h92z" />
    <glyph glyph-name="uni0451" unicode="&#x451;" horiz-adv-x="580" 
d="M112 231v-14q0 -77 43 -121t110 -44q60 0 106.5 28t75.5 77l69 -9q-39 -75 -105 -116.5t-150 -41.5q-65 0 -114.5 29.5t-77 80.5t-27.5 114q0 85 36.5 155t102 111t148.5 41q67 0 114 -28t71.5 -76.5t24.5 -109.5q0 -22 -6 -76h-421zM196.5 413q-56.5 -46 -75.5 -122h348
v11q0 76 -38 116.5t-104 40.5q-74 0 -130.5 -46zM226.5 635q-14.5 15 -14.5 36q0 22 14.5 37t36.5 15q21 0 36 -15t15 -37q0 -21 -15 -36t-36 -15q-22 0 -36.5 15zM401 635q-15 15 -15 36q0 22 15 37t37 15q21 0 35.5 -15t14.5 -37q0 -21 -14.5 -36t-35.5 -15q-22 0 -37 15z
" />
    <glyph glyph-name="uni0452" unicode="&#x452;" horiz-adv-x="628" 
d="M535 476.5q43 -44.5 43 -117.5q0 -25 -3 -46l-51 -358q-23 -159 -160 -159q-55 0 -92 16l13 60q42 -14 78 -14q43 0 64 24.5t29 85.5l48 339q4 30 4 41q0 114 -117 114q-75 0 -122.5 -48.5t-63.5 -118.5l-42 -295h-70l87 617h-109l8 57h109l12 86h70l-12 -86h200l-8 -57
h-200l-28 -201q33 52 82.5 78.5t108.5 26.5q79 0 122 -44.5z" />
    <glyph glyph-name="uni0453" unicode="&#x453;" horiz-adv-x="376" 
d="M383 451h-220l-63 -451h-70l72 512h289zM277 590h-56l101 170h92z" />
    <glyph glyph-name="uni0454" unicode="&#x454;" horiz-adv-x="584" 
d="M148.5 19.5q-50.5 28.5 -78.5 79t-28 115.5q0 86 38.5 156.5t105 111t146.5 40.5q87 0 147.5 -52t71.5 -135l-69 -4q-10 60 -51.5 94.5t-100.5 34.5q-77 0 -133.5 -50t-75.5 -126h265l-8 -60h-266v-9q0 -75 42.5 -118.5t111.5 -43.5q61 0 112.5 34.5t78.5 92.5l70 -10
q-35 -84 -105 -131.5t-157 -47.5q-66 0 -116.5 28.5z" />
    <glyph glyph-name="uni0455" unicode="&#x455;" horiz-adv-x="467" 
d="M65 30.5q-45 40.5 -45 111.5l70 8q0 -50 26 -74t85 -24q66 0 105 24.5t39 76.5q0 23 -13 37.5t-35 24t-64 23.5l-34 12q-70 22 -105 50.5t-35 78.5q0 67 54 104.5t145 37.5q79 0 126.5 -38t47.5 -101l-70 -7q-1 38 -27.5 61t-83.5 23q-58 0 -90 -21t-32 -58
q0 -24 21.5 -38.5t70.5 -30.5l41 -14q52 -17 83.5 -33t50.5 -41.5t19 -64.5q0 -84 -59.5 -126t-154.5 -42q-91 0 -136 40.5z" />
    <glyph glyph-name="uni0456" unicode="&#x456;" horiz-adv-x="204" 
d="M120 630q-17 17 -17 40q0 24 17 40.5t40 16.5t40 -16.5t17 -40.5q0 -23 -17 -40t-40 -17t-40 17zM102 512h70l-71 -512h-70z" />
    <glyph glyph-name="uni0457" unicode="&#x457;" horiz-adv-x="203" 
d="M102 512h70l-71 -512h-70zM37.5 635q-14.5 15 -14.5 36q0 22 14.5 37t36.5 15q21 0 36 -15t15 -37q0 -21 -15 -36t-36 -15q-22 0 -36.5 15zM212 635q-15 15 -15 36q0 22 15 37t37 15q21 0 35.5 -15t14.5 -37q0 -21 -14.5 -36t-35.5 -15q-22 0 -37 15z" />
    <glyph glyph-name="uni0458" unicode="&#x458;" horiz-adv-x="218" 
d="M134.5 630q-16.5 17 -16.5 40q0 24 16.5 40.5t40.5 16.5q23 0 39.5 -16.5t16.5 -40.5q0 -23 -16.5 -40t-39.5 -17q-24 0 -40.5 17zM-143 -188l13 60q40 -14 77 -14q44 0 65 24.5t29 85.5l76 544h70l-78 -557q-13 -85 -54 -122t-106 -37q-55 0 -92 16z" />
    <glyph glyph-name="uni0459" unicode="&#x459;" horiz-adv-x="743" 
d="M657 311q45 -41 45 -107q0 -98 -60.5 -151t-164.5 -53h-181l63 446h-10l-302 -446h-78l345 512h124l-22 -160h111q85 0 130 -41zM590 98q42 38 42 102q0 43 -29.5 67.5t-90.5 24.5h-105l-33 -232h102q72 0 114 38z" />
    <glyph glyph-name="uni045A" unicode="&#x45a;" horiz-adv-x="797" 
d="M710 311q45 -41 45 -107q0 -98 -60.5 -151t-164.5 -53h-181l34 241h-249l-34 -241h-70l72 512h70l-30 -210h249l30 210h70l-22 -160h111q85 0 130 -41zM643 98q42 38 42 102q0 43 -29.5 67.5t-90.5 24.5h-105l-33 -232h102q72 0 114 38z" />
    <glyph glyph-name="uni045B" unicode="&#x45b;" horiz-adv-x="628" 
d="M535 476.5q43 -44.5 43 -117.5q0 -18 -4 -46l-43 -313h-70l43 307q3 23 3 41q0 57 -28.5 85.5t-88.5 28.5q-78 0 -126.5 -54t-62.5 -128l-39 -280h-70l87 617h-108l8 57h108l12 86h70l-12 -86h201l-8 -57h-201l-29 -202q34 52 84 79t108 27q80 0 123 -44.5z" />
    <glyph glyph-name="uni045C" unicode="&#x45c;" horiz-adv-x="455" 
d="M252 290l161 -290h-72l-136 245l-82 -78l-23 -167h-70l72 512h70l-35 -246l254 246h92zM312 590h-56l101 170h92z" />
    <glyph glyph-name="uni045D" unicode="&#x45d;" horiz-adv-x="522" 
d="M491 512l-71 -512h-70l56 406l-305 -406l-1 1v-1h-70l72 512h70l-57 -408l306 408h70zM239 760l101 -170h-56l-137 170h92z" />
    <glyph glyph-name="uni045E" unicode="&#x45e;" horiz-adv-x="555" 
d="M524 512l-65 -466q-17 -122 -81 -186t-170 -64q-77 0 -123.5 32t-57.5 84l67 14q8 -34 37.5 -53t80.5 -19q151 0 177 191l7 50q-33 -52 -81.5 -78.5t-105.5 -26.5q-74 0 -117 45t-43 113q0 20 3 41l45 323h70l-44 -316q-3 -21 -3 -40q0 -106 117 -106q71 0 116.5 50.5
t60.5 122.5l40 289h70zM221 636q-38 43 -38 124h54q0 -54 27 -82.5t73 -28.5q44 0 76 28t48 83h54q-19 -82 -66.5 -124.5t-118.5 -42.5t-109 43z" />
    <glyph glyph-name="uni045F" unicode="&#x45f;" horiz-adv-x="518" 
d="M488 512l-72 -512h-154l-24 -140h-66l15 140h-157l72 512h70l-63 -451h246l63 451h70z" />
    <glyph glyph-name="uni0462" unicode="&#x462;" horiz-adv-x="727" 
d="M625.5 434q60.5 -58 60.5 -151q0 -88 -37.5 -151.5t-105.5 -97.5t-158 -34h-242l84 602h-157l9 63h157l13 95h71l-13 -95h230l-9 -63h-230l-15 -110h169q113 0 173.5 -58zM507 90q52 27 80 76t28 114q0 69 -43 109t-133 40h-165l-51 -366h161q71 0 123 27z" />
    <glyph glyph-name="uni0463" unicode="&#x463;" horiz-adv-x="541" 
d="M454 311q45 -41 45 -107q0 -98 -60.5 -151t-163.5 -53h-181l63 454h-108l8 58h108l35 248h70l-35 -248h201l-8 -58h-201l-14 -102h111q85 0 130 -41zM387 98q42 38 42 102q0 43 -29.5 67.5t-90.5 24.5h-104l-33 -232h102q71 0 113 38z" />
    <glyph glyph-name="uni0472" unicode="&#x472;" 
d="M660.5 728q73.5 -42 113.5 -118.5t40 -176.5q0 -120 -58 -222t-157 -161.5t-215 -59.5q-96 0 -169.5 42t-113.5 118.5t-40 176.5q0 120 58 222t157 161.5t215 59.5q96 0 169.5 -42zM333 667.5q-72 -38.5 -121.5 -105t-67.5 -148.5h597v19q0 82 -31 143.5t-88.5 95.5
t-134.5 34q-82 0 -154 -38.5zM543.5 93q72.5 39 122 107t66.5 151h-597q-1 -8 -1 -25q0 -81 31 -143t88 -95.5t134 -33.5q84 0 156.5 39z" />
    <glyph glyph-name="uni0473" unicode="&#x473;" horiz-adv-x="597" 
d="M450 492.5q50 -28.5 77.5 -79.5t27.5 -118q0 -88 -37.5 -157.5t-104.5 -108.5t-151 -39q-64 0 -114 28.5t-78 80t-28 118.5q0 87 38 156.5t105 108.5t150 39q65 0 115 -28.5zM197 412q-58 -47 -77 -125h365v4q0 80 -42 124t-112 44q-76 0 -134 -47zM400.5 99.5
q58.5 47.5 77.5 127.5h-366v-6q0 -80 42 -124.5t112 -44.5q76 0 134.5 47.5z" />
    <glyph glyph-name="uni0474" unicode="&#x474;" horiz-adv-x="638" 
d="M710 760l-15 -63h-17q-21 0 -35.5 -11t-30.5 -45l-307 -641h-81l-148 760h72l125 -686l281 601q24 51 54 68t78 17h24z" />
    <glyph glyph-name="uni0475" unicode="&#x475;" horiz-adv-x="500" 
d="M536 512l-14 -63h-7q-32 0 -55 -41l-214 -408h-80l-125 512h71l101 -444l188 375q20 41 46.5 55t77.5 14h11z" />
    <glyph glyph-name="uni048A" unicode="&#x48a;" horiz-adv-x="677" 
d="M317 884q-38 43 -38 124h54q0 -54 27 -82.5t73 -28.5q44 0 76 28t48 83h54q-19 -82 -66.5 -124.5t-118.5 -42.5t-109 43zM641 63l-102 -203h-65l63 140h-47l89 640l-471 -640h-71l106 760h71l-89 -640l471 640h71l-97 -697h71z" />
    <glyph glyph-name="uni048B" unicode="&#x48b;" horiz-adv-x="543" 
d="M203 636q-38 43 -38 124h54q0 -54 27 -82.5t73 -28.5q44 0 76 28t48 83h54q-19 -82 -66.5 -124.5t-118.5 -42.5t-109 43zM404 -130h-65l58 130h-47l56 406l-305 -406l-1 1v-1h-70l72 512h70l-57 -408l306 408h70l-63 -452h72z" />
    <glyph glyph-name="uni048C" unicode="&#x48c;" horiz-adv-x="727" 
d="M625.5 434q60.5 -58 60.5 -151q0 -88 -37.5 -151.5t-105.5 -97.5t-158 -34h-242l84 602h-157l9 63h157l13 95h71l-13 -95h230l-9 -63h-230l-15 -110h169q113 0 173.5 -58zM507 90q52 27 80 76t28 114q0 69 -43 109t-133 40h-165l-51 -366h161q71 0 123 27z" />
    <glyph glyph-name="uni048D" unicode="&#x48d;" horiz-adv-x="541" 
d="M454 311q45 -41 45 -107q0 -98 -60.5 -151t-163.5 -53h-181l63 454h-108l8 58h108l35 248h70l-35 -248h201l-8 -58h-201l-14 -102h111q85 0 130 -41zM387 98q42 38 42 102q0 43 -29.5 67.5t-90.5 24.5h-104l-33 -232h102q71 0 113 38z" />
    <glyph glyph-name="uni048E" unicode="&#x48e;" horiz-adv-x="621" 
d="M572.5 377q-43.5 -71 -121.5 -105l52 -120l-57 -30l-57 131q-29 -7 -69 -7h-178l-35 -246h-71l107 760h234q117 0 178 -56.5t61 -163.5q0 -92 -43.5 -163zM513.5 412q30.5 55 30.5 126q0 80 -42 119.5t-138 39.5h-159l-54 -388h171q21 0 42 3l-57 131l57 30l62 -143
q57 27 87.5 82z" />
    <glyph glyph-name="uni048F" unicode="&#x48f;" horiz-adv-x="616" 
d="M535.5 136.5q-38.5 -69.5 -104.5 -107.5l46 -105l-55 -30l-47 109q-45 -13 -86 -13q-62 0 -108 28t-68 76l-40 -288h-70l99 706h63l-10 -104q34 54 88 83.5t120 29.5q62 0 110 -29t74.5 -80t26.5 -116q0 -90 -38.5 -159.5zM477.5 171.5q26.5 52.5 26.5 118.5
q0 80 -42.5 124.5t-113.5 44.5q-62 0 -112 -32t-78 -86.5t-28 -118.5q0 -77 43 -123.5t118 -46.5q31 0 58 9l-58 134l55 29l59 -136q46 31 72.5 83.5z" />
    <glyph glyph-name="uni0490" unicode="&#x490;" horiz-adv-x="482" 
d="M532 760l-9 -63h-318l-97 -697h-71l106 760h320l23 126h63z" />
    <glyph glyph-name="uni0491" unicode="&#x491;" horiz-adv-x="376" 
d="M404 604l-21 -153h-220l-63 -451h-70l72 512h221l17 92h64z" />
    <glyph glyph-name="uni0492" unicode="&#x492;" horiz-adv-x="579" 
d="M301 697l-42 -305h206l-9 -63h-206l-46 -329h-71l46 329h-142l8 63h143l51 368h389l-9 -63h-318z" />
    <glyph glyph-name="uni0493" unicode="&#x493;" horiz-adv-x="417" 
d="M204 451l-22 -158h140l-8 -58h-140l-33 -235h-70l33 235h-86l8 58h86l31 219h289l-8 -61h-220z" />
    <glyph glyph-name="uni0494" unicode="&#x494;" horiz-adv-x="622" 
d="M499.5 423.5q73.5 -58.5 73.5 -184.5q0 -101 -34 -199.5t-100 -166t-157 -77.5l-2 64q70 11 120 69t75.5 140.5t25.5 167.5q0 92 -51.5 137t-164.5 45h-119l-58 -419h-71l106 760h389l-9 -63h-318l-30 -215h120q131 0 204.5 -58.5z" />
    <glyph glyph-name="uni0495" unicode="&#x495;" horiz-adv-x="498" 
d="M387.5 273.5q55.5 -44.5 55.5 -142.5q0 -83 -25.5 -154.5t-79 -119.5t-131.5 -61v63q85 17 125.5 91t40.5 176q0 71 -35.5 101t-112.5 30h-89l-36 -257h-70l72 512h289l-8 -61h-220l-18 -133h89q98 0 153.5 -44.5z" />
    <glyph glyph-name="uni0496" unicode="&#x496;" horiz-adv-x="952" 
d="M686 454l188 -454h-72l-164 401l-144 -159l-34 -242h-71l36 258l-95 152l-275 -410h-80l318 470l-182 290h76l251 -410l58 410h70l-57 -412l368 412h86zM889 -140h-63l14 140h-32l9 63h100z" />
    <glyph glyph-name="uni0497" unicode="&#x497;" horiz-adv-x="720" 
d="M509 311l141 -311h-72l-118 263l-89 -88l-25 -175h-70l27 192l-56 75l-194 -267h-83l235 322l-142 190h80l172 -237l33 237h70l-34 -241l238 241h91zM659 -130h-63l14 130h-32l8 60h100z" />
    <glyph glyph-name="uni0498" unicode="&#x498;" horiz-adv-x="571" 
d="M509 342q26 -41 26 -98q0 -71 -31 -126t-87.5 -88t-130.5 -39l-24 -141h-63l14 142q-94 9 -142.5 57.5t-48.5 122.5q0 23 2 33l70 3q-2 -18 -2 -27q0 -60 39.5 -94t121.5 -34q61 0 109 23.5t74.5 66.5t26.5 100q0 58 -37 92t-110 34h-117l8 63h95q54 0 96.5 21t66.5 59
t24 86q0 51 -34.5 80t-108.5 29q-86 0 -133 -40.5t-57 -105.5l-70 7q13 88 81 145t184 57q103 0 156.5 -46.5t53.5 -122.5q0 -67 -34 -120t-93 -78q49 -20 75 -61z" />
    <glyph glyph-name="uni0499" unicode="&#x499;" horiz-adv-x="425" 
d="M359 229.5q21 -28.5 21 -67.5q0 -69 -43 -115t-124 -55l-24 -132h-61l13 132q-66 7 -102.5 41t-36.5 85q0 6 2 20l66 2q-1 -6 -1 -15q0 -36 26.5 -56t79.5 -20q61 0 98 31t37 81q0 34 -26.5 55t-77.5 21h-63l9 60h52q54 0 88.5 29.5t34.5 75.5q0 28 -22 44.5t-68 16.5
q-54 0 -86 -23t-40 -61l-64 6q10 62 59 99t136 37q78 0 116.5 -32t38.5 -82q0 -43 -25.5 -80t-70.5 -55q37 -14 58 -42.5z" />
    <glyph glyph-name="uni049A" unicode="&#x49a;" horiz-adv-x="616" 
d="M348 434l190 -434h-74l-165 378l-165 -188l-27 -190h-71l107 760h71l-65 -463l406 463h80zM552 -140h-63l14 140h-32l9 63h100z" />
    <glyph glyph-name="uni049B" unicode="&#x49b;" horiz-adv-x="479" 
d="M252 290l161 -290h-72l-136 245l-82 -78l-23 -167h-70l72 512h70l-35 -246l254 246h92zM418 -130h-63l14 130h-32l8 60h100z" />
    <glyph glyph-name="uni049C" unicode="&#x49c;" horiz-adv-x="639" 
d="M398 474l194 -474h-70l-174 426l-40 -39l-26 -189h-66l19 135l-94 -95l-33 -238h-71l106 760h71l-58 -419l93 94l25 182h66l-18 -128l275 271h94z" />
    <glyph glyph-name="uni049D" unicode="&#x49d;" horiz-adv-x="513" 
d="M294 314l177 -314h-72l-154 273l-1 -1l-21 -153h-59l15 107l-54 -45l-25 -181h-70l72 512h70l-34 -244l54 46l19 134h58l-12 -88l172 152h99z" />
    <glyph glyph-name="uni049E" unicode="&#x49e;" horiz-adv-x="667" 
d="M428 431l192 -431h-72l-167 378l-165 -188l-27 -190h-71l85 602h-133l9 63h133l13 95h71l-13 -95h139l-9 -63h-139l-42 -296l400 454h85z" />
    <glyph glyph-name="uni049F" unicode="&#x49f;" horiz-adv-x="517" 
d="M314 290l161 -290h-72l-137 244l-81 -77l-23 -167h-70l87 617h-108l8 57h108l12 86h70l-12 -86h197l-8 -57h-197l-50 -351l254 246h91z" />
    <glyph glyph-name="uni04A0" unicode="&#x4a0;" horiz-adv-x="740" 
d="M503 434l190 -434h-74l-165 378l-165 -188l-27 -190h-71l98 697h-200l8 63h272l-65 -463l406 463h80z" />
    <glyph glyph-name="uni04A1" unicode="&#x4a1;" horiz-adv-x="579" 
d="M376 290l161 -290h-72l-136 245l-82 -78l-23 -167h-70l64 452h-169l8 60h239l-35 -246l254 246h92z" />
    <glyph glyph-name="uni04A2" unicode="&#x4a2;" horiz-adv-x="658" 
d="M657 760l-107 -760h-71l52 366h-372l-52 -366h-71l107 760h71l-47 -332h372l47 332h71zM593 -140h-63l14 140h-32l9 63h100z" />
    <glyph glyph-name="uni04A3" unicode="&#x4a3;" horiz-adv-x="538" 
d="M492 512l-72 -512h-70l33 238h-250l-33 -238h-70l72 512h70l-30 -213h250l30 213h70zM468 -130h-63l14 130h-32l8 60h100z" />
    <glyph glyph-name="uni04A4" unicode="&#x4a4;" horiz-adv-x="925" 
d="M657 760l-107 -760h-71l52 366h-372l-52 -366h-71l107 760h71l-47 -332h372l47 332h71zM966 697h-318l-97 -697h-71l106 760h389z" />
    <glyph glyph-name="uni04A5" unicode="&#x4a5;" horiz-adv-x="697" 
d="M492 512l-72 -512h-70l33 238h-250l-33 -238h-70l72 512h70l-30 -213h250l30 213h70zM704 451h-220l-63 -451h-70l72 512h289z" />
    <glyph glyph-name="uni04A6" unicode="&#x4a6;" horiz-adv-x="1054" 
d="M931 423.5q74 -58.5 74 -184.5q0 -101 -34 -199.5t-100 -166t-157 -77.5l-2 64q70 11 120 69t75.5 140.5t25.5 167.5q0 92 -51.5 137t-165.5 45h-117l-58 -419h-71l97 697h-362l-97 -697h-71l106 760h504l-39 -278h118q131 0 205 -58.5z" />
    <glyph glyph-name="uni04A7" unicode="&#x4a7;" horiz-adv-x="813" 
d="M702.5 273.5q55.5 -44.5 55.5 -142.5q0 -83 -25.5 -154.5t-79 -119.5t-131.5 -61v63q85 17 125.5 91t40.5 176q0 71 -35.5 101t-112.5 30h-88l-36 -257h-70l63 451h-246l-63 -451h-70l72 512h386l-27 -194h88q98 0 153.5 -44.5z" />
    <glyph glyph-name="uni04A8" unicode="&#x4a8;" horiz-adv-x="887" 
d="M695 52q65 0 130 20l-3 -63q-60 -19 -131 -19q-79 0 -147 25q-73 -25 -149 -25q-103 0 -180 43.5t-118.5 121.5t-41.5 180q0 103 41.5 193t111.5 152.5t154 85.5l-2 -65q-64 -24 -117 -78t-84.5 -128.5t-31.5 -157.5q0 -84 32.5 -148.5t93.5 -100.5t145 -36q33 0 64 6
q-68 47 -106.5 126t-38.5 188q0 106 37.5 197t110.5 146t175 55q113 0 173 -69.5t60 -199.5q0 -138 -65.5 -257.5t-175.5 -186.5q35 -5 63 -5zM431 187.5q42 -70.5 115 -104.5q75 34 132.5 98t89.5 147.5t32 174.5q0 102 -41.5 152.5t-119.5 50.5q-81 0 -137.5 -48.5
t-84.5 -126t-28 -164.5q0 -109 42 -179.5z" />
    <glyph glyph-name="uni04A9" unicode="&#x4a9;" horiz-adv-x="656" 
d="M503 45q44 0 88 11v-55q-37 -11 -90 -11q-54 0 -105 20q-54 -20 -113 -20q-72 0 -128.5 29t-88 82.5t-31.5 124.5q0 70 29 132t80.5 105t115.5 57v-63q-72 -23 -114.5 -85.5t-42.5 -141.5q0 -86 51 -134.5t137 -48.5q19 0 37 3q-44 35 -69 88.5t-25 121.5q0 73 27 132.5
t78 94t121 34.5q81 0 125 -48t44 -135q0 -88 -43 -165.5t-115 -125.5q20 -2 32 -2zM327.5 139q25.5 -45 70.5 -69q74 33 118.5 105.5t44.5 159.5q0 126 -102 126q-77 0 -117 -61.5t-40 -148.5q0 -67 25.5 -112z" />
    <glyph glyph-name="uni04AA" unicode="&#x4aa;" horiz-adv-x="818" 
d="M571.5 109q82.5 55 128.5 149l70 -9q-53 -113 -146.5 -182t-211.5 -76l-24 -141h-63l14 143q-83 9 -146 52.5t-97.5 115t-34.5 164.5q0 119 57.5 221.5t155.5 163t215 60.5q84 0 151 -32t110 -90t57 -135l-73 -8q-20 95 -85 148t-162 53t-178 -52t-128 -139.5t-47 -187.5
q0 -82 31.5 -144t89 -95.5t134.5 -33.5q100 0 182.5 55z" />
    <glyph glyph-name="uni04AB" unicode="&#x4ab;" horiz-adv-x="576" 
d="M379.5 85q51.5 33 76.5 90l67 -8q-30 -74 -88.5 -120t-137.5 -55l-24 -132h-61l13 132q-83 11 -133 72t-50 150t38 159t104.5 109t148.5 39q84 0 141 -44.5t73 -120.5l-71 -8q-12 53 -51 82t-93 29q-65 0 -115 -31t-77.5 -85.5t-27.5 -120.5q0 -79 42 -124.5t114 -45.5
q60 0 111.5 33z" />
    <glyph glyph-name="uni04AC" unicode="&#x4ac;" horiz-adv-x="586" 
d="M622 697h-231l-98 -697h-72l98 697h-231l9 63h534zM342 -140h-63l14 140h-32l9 63h100z" />
    <glyph glyph-name="uni04AD" unicode="&#x4ad;" horiz-adv-x="435" 
d="M441 451h-161l-63 -451h-70l63 451h-161l8 61h392zM264 -130h-63l14 130h-32l8 60h100z" />
    <glyph glyph-name="uni04AE" unicode="&#x4ae;" horiz-adv-x="560" 
d="M327 334l-46 -334h-72l47 333l-185 427h70l155 -364l256 364h80z" />
    <glyph glyph-name="uni04AF" unicode="&#x4af;" horiz-adv-x="487" 
d="M244 14l-30 -208h-70l30 213l-137 493h69l111 -429l228 429h76z" />
    <glyph glyph-name="uni04B0" unicode="&#x4b0;" horiz-adv-x="560" 
d="M369 392h160l-9 -63h-193l-46 -329h-72l46 329h-193l8 63h161l-160 368h70l155 -364l256 364h80z" />
    <glyph glyph-name="uni04B1" unicode="&#x4b1;" horiz-adv-x="487" 
d="M268 58h134l-7 -58h-153l-28 -194h-70l28 194h-152l7 58h136l-126 454h69l111 -429l228 429h76z" />
    <glyph glyph-name="uni04B2" unicode="&#x4b2;" horiz-adv-x="605" 
d="M341 381l186 -381h-72l-157 322l-246 -322h-83l297 387l-179 373h72l151 -313l235 313h81zM541 -140h-63l14 140h-32l9 63h100z" />
    <glyph glyph-name="uni04B3" unicode="&#x4b3;" horiz-adv-x="485" 
d="M271 260l146 -260h-74l-117 209l-175 -209h-81l225 266l-140 246h75l108 -194l163 194h81zM424 -130h-63l14 130h-32l8 60h100z" />
    <glyph glyph-name="uni04B4" unicode="&#x4b4;" horiz-adv-x="830" 
d="M790 63l-28 -203h-63l14 140h-500l98 697h-222l8 63h515l-8 -63h-223l-88 -634h357l97 697h71l-97 -697h69z" />
    <glyph glyph-name="uni04B5" unicode="&#x4b5;" horiz-adv-x="636" 
d="M566 -130h-63l13 130h-377l63 452h-153l8 60h377l-8 -60h-154l-55 -392h240l64 452h70l-64 -452h66z" />
    <glyph glyph-name="uni04B6" unicode="&#x4b6;" horiz-adv-x="620" 
d="M608 760l-106 -760h-71l42 298h-147q-70 0 -123.5 26t-83 74.5t-29.5 113.5q0 21 3 42l29 206h71l-29 -206q-3 -22 -3 -41q0 -74 46 -113t134 -39h141l56 399h70zM552 -140h-63l14 140h-32l9 63h100z" />
    <glyph glyph-name="uni04B7" unicode="&#x4b7;" horiz-adv-x="494" 
d="M447 512l-72 -512h-70l27 194h-91q-82 0 -128.5 40.5t-46.5 108.5q0 21 2 31l19 138h70l-19 -137q-2 -18 -2 -26q0 -46 28.5 -70.5t86.5 -24.5h90l36 258h70zM423 -130h-63l14 130h-32l8 60h100z" />
    <glyph glyph-name="uni04B8" unicode="&#x4b8;" horiz-adv-x="610" 
d="M608 760l-106 -760h-71l42 298h-131l-23 -165h-66l24 169q-86 13 -136.5 68.5t-50.5 141.5q0 21 3 42l29 206h71l-29 -206q-3 -22 -3 -40q0 -62 32 -100t93 -48l23 164h66l-24 -169h131l56 399h70z" />
    <glyph glyph-name="uni04B9" unicode="&#x4b9;" horiz-adv-x="477" 
d="M447 512l-72 -512h-70l27 194h-74l-14 -100h-58l14 103q-63 10 -98.5 48.5t-35.5 97.5q0 21 2 31l19 138h70l-19 -137q-2 -18 -2 -26q0 -75 73 -91l17 124h58l-18 -128h75l36 258h70z" />
    <glyph glyph-name="uni04BA" unicode="&#x4ba;" horiz-adv-x="616" 
d="M493.5 403.5q65.5 -57.5 65.5 -156.5q0 -21 -3 -42l-28 -205h-71l29 206q3 21 3 40q0 75 -47.5 114t-138.5 39h-139l-56 -399h-71l106 760h71l-42 -299h146q110 0 175.5 -57.5z" />
    <glyph glyph-name="uni04BB" unicode="&#x4bb;" horiz-adv-x="566" 
d="M473 476.5q43 -44.5 43 -117.5q0 -18 -4 -46l-43 -313h-70l43 307q3 23 3 41q0 57 -28.5 85.5t-88.5 28.5q-78 0 -126.5 -54t-62.5 -128l-39 -280h-70l107 760h70l-49 -345q34 52 84 79t108 27q80 0 123 -44.5z" />
    <glyph glyph-name="uni04BC" unicode="&#x4bc;" horiz-adv-x="952" 
d="M245 353q-1 -10 -1 -29q0 -80 31.5 -141t89.5 -95t135 -34q90 0 170 49t127 130l73 -12q-60 -108 -158 -169.5t-214 -61.5q-96 0 -170 43t-114.5 119t-40.5 172q0 20 1 30q-63 4 -93.5 31t-30.5 74q0 26 9.5 62.5t22.5 58.5l62 -8q-28 -58 -28 -100q0 -26 15.5 -39
t51.5 -16q20 98 80.5 179t148.5 127.5t188 46.5q95 0 169.5 -44t115.5 -120t41 -169q0 -40 -8 -84h-673zM444 667q-71 -39 -120 -105t-69 -146h598v20q0 79 -31.5 140t-89.5 95.5t-135 34.5q-82 0 -153 -39z" />
    <glyph glyph-name="uni04BD" unicode="&#x4bd;" horiz-adv-x="688" 
d="M220 217q0 -77 43 -121t110 -44q60 0 106.5 28t75.5 77l69 -9q-39 -75 -105 -116.5t-150 -41.5q-65 0 -114.5 29.5t-77 80.5t-27.5 114v18q-117 12 -117 105q0 27 9.5 61.5t21.5 55.5l61 -7q-26 -54 -26 -100q0 -26 13.5 -38.5t46.5 -16.5q15 67 54 119t96.5 81t127.5 29
q67 0 114 -28t71.5 -76.5t24.5 -109.5q0 -22 -6 -76h-421v-14zM304.5 413q-56.5 -46 -75.5 -122h348v11q0 76 -38 116.5t-104 40.5q-74 0 -130.5 -46z" />
    <glyph glyph-name="uni04BE" unicode="&#x4be;" horiz-adv-x="952" 
d="M245 353q-1 -10 -1 -29q0 -80 31.5 -141t89.5 -95t135 -34q90 0 170 49t127 130l73 -12q-55 -100 -143.5 -160.5t-194.5 -69.5l-24 -141h-63l14 142q-85 8 -150 53t-100.5 117.5t-35.5 161.5q0 20 1 30q-63 4 -93.5 31t-30.5 74q0 26 9.5 62.5t22.5 58.5l62 -8
q-28 -58 -28 -100q0 -26 15.5 -39t51.5 -16q20 98 80.5 179t148.5 127.5t188 46.5q95 0 169.5 -44t115.5 -120t41 -169q0 -40 -8 -84h-673zM444 667q-71 -39 -120 -105t-69 -146h598v20q0 79 -31.5 140t-89.5 95.5t-135 34.5q-82 0 -153 -39z" />
    <glyph glyph-name="uni04BF" unicode="&#x4bf;" horiz-adv-x="688" 
d="M220 217q0 -77 43 -121t110 -44q60 0 106.5 28t75.5 77l69 -9q-35 -67 -91 -107.5t-128 -48.5l-24 -132h-61l13 133q-83 12 -133 73t-50 148v18q-117 12 -117 105q0 27 9.5 61.5t21.5 55.5l61 -7q-26 -54 -26 -100q0 -26 13.5 -38.5t46.5 -16.5q15 67 54 119t96.5 81
t127.5 29q67 0 114 -28t71.5 -76.5t24.5 -109.5q0 -22 -6 -76h-421v-14zM304.5 413q-56.5 -46 -75.5 -122h348v11q0 76 -38 116.5t-104 40.5q-74 0 -130.5 -46z" />
    <glyph glyph-name="uni04C0" unicode="&#x4c0;" horiz-adv-x="215" 
d="M143 760h71l-107 -760h-71z" />
    <glyph glyph-name="uni04C1" unicode="&#x4c1;" horiz-adv-x="921" 
d="M686 454l188 -454h-72l-164 401l-144 -159l-34 -242h-71l36 258l-95 152l-275 -410h-80l318 470l-182 290h76l251 -410l58 410h70l-57 -412l368 412h86zM437 884q-38 43 -38 124h54q0 -54 27 -82.5t73 -28.5q44 0 76 28t48 83h54q-19 -82 -66.5 -124.5t-118.5 -42.5
t-109 43z" />
    <glyph glyph-name="uni04C2" unicode="&#x4c2;" horiz-adv-x="692" 
d="M509 311l141 -311h-72l-118 263l-89 -88l-25 -175h-70l27 192l-56 75l-194 -267h-83l235 322l-142 190h80l172 -237l33 237h70l-34 -241l238 241h91zM291 636q-38 43 -38 124h54q0 -54 27 -82.5t73 -28.5q44 0 76 28t48 83h54q-19 -82 -66.5 -124.5t-118.5 -42.5t-109 43
z" />
    <glyph glyph-name="uni04C3" unicode="&#x4c3;" horiz-adv-x="598" 
d="M475 356q40 -41 64 -92.5t24 -115.5q0 -84 -35 -160t-97 -127t-139 -65l-2 64q95 26 147.5 105t52.5 182q0 75 -38 129t-120 120l-201 -228l-23 -168h-71l106 760h71l-67 -479l419 479h86l-278 -316q61 -47 101 -88z" />
    <glyph glyph-name="uni04C4" unicode="&#x4c4;" horiz-adv-x="476" 
d="M379 182q41 -58 41 -131q0 -67 -30 -122t-82.5 -89.5t-116.5 -43.5l1 64q74 15 116 67.5t42 128.5q0 59 -33 102.5t-102 95.5l-92 -87l-23 -167h-70l72 512h70l-35 -251l253 251h93l-223 -214q78 -58 119 -116z" />
    <glyph glyph-name="uni04C5" unicode="&#x4c5;" horiz-adv-x="660" 
d="M525 -140h-66l63 140h-40l-122 687l-314 -687h-77l359 760h80l134 -697h85z" />
    <glyph glyph-name="uni04C6" unicode="&#x4c6;" horiz-adv-x="550" 
d="M422 -130h-66l59 130h-40l-102 447l-227 -447h-77l270 512h80l111 -452h88z" />
    <glyph glyph-name="uni04C7" unicode="&#x4c7;" horiz-adv-x="659" 
d="M657 760l-102 -727q-17 -121 -84 -179t-168 -58q-17 0 -25 1l-2 64q10 -1 29 -1q71 0 119 43.5t60 130.5l47 332h-372l-51 -366h-71l106 760h71l-46 -331h371l47 331h71z" />
    <glyph glyph-name="uni04C8" unicode="&#x4c8;" horiz-adv-x="522" 
d="M429 61l-9 -61l-7 -46q-13 -89 -52.5 -123.5t-104.5 -34.5q-26 0 -51.5 5t-41.5 13l10 57q37 -13 74 -13q46 0 68 23.5t30 81.5l5 37l33 238h-250l-33 -238h-70l72 512h70l-30 -213h250l30 213h70l-56 -400z" />
    <glyph glyph-name="uni04C9" unicode="&#x4c9;" horiz-adv-x="659" 
d="M631 63l-102 -203h-65l63 140h-48l52 366h-372l-52 -366h-71l107 760h71l-47 -332h372l47 332h71l-98 -697h72z" />
    <glyph glyph-name="uni04CA" unicode="&#x4ca;" horiz-adv-x="544" 
d="M405 -130h-66l59 130h-48l33 238h-250l-33 -238h-70l72 512h70l-30 -213h250l30 213h70l-64 -452h72z" />
    <glyph glyph-name="uni04CB" unicode="&#x4cb;" horiz-adv-x="610" 
d="M608 760l-106 -760h-71v2h-2l-25 -142h-63l28 203h71l33 235h-147q-70 0 -123.5 26t-83 74.5t-29.5 113.5q0 21 3 42l29 206h71l-29 -206q-3 -22 -3 -41q0 -74 46 -113t134 -39h141l56 399h70z" />
    <glyph glyph-name="uni04CC" unicode="&#x4cc;" horiz-adv-x="477" 
d="M447 512l-72 -512h-69l-24 -130h-63l28 190h66l19 134h-91q-82 0 -128.5 40.5t-46.5 108.5q0 21 2 31l19 138h70l-19 -137q-2 -18 -2 -26q0 -46 28.5 -70.5t86.5 -24.5h90l36 258h70z" />
    <glyph glyph-name="uni04CD" unicode="&#x4cd;" horiz-adv-x="876" 
d="M739 -140h-65l63 140h-40l26 658l-304 -658h-58l-121 660l-159 -660h-71l188 760h84l119 -668l306 668h85l-24 -697h73z" />
    <glyph glyph-name="uni04CE" unicode="&#x4ce;" horiz-adv-x="657" 
d="M531 -130h-65l58 130h-38l13 406l-200 -406h-46l-84 411l-101 -411h-70l128 512h76l87 -410l203 410h77l-13 -452h71z" />
    <glyph glyph-name="uni04CF" unicode="&#x4cf;" horiz-adv-x="203" 
d="M137 760h70l-106 -760h-70z" />
    <glyph glyph-name="uni04D0" unicode="&#x4d0;" horiz-adv-x="595" 
d="M456 142h-347l-65 -142h-75l359 760h81l145 -760h-73zM445 205l-86 485l-221 -485h307zM275 884q-38 43 -38 124h54q0 -54 27 -82.5t73 -28.5q44 0 76 28t48 83h54q-19 -82 -66.5 -124.5t-118.5 -42.5t-109 43z" />
    <glyph glyph-name="uni04D1" unicode="&#x4d1;" horiz-adv-x="615" 
d="M585 512l-72 -512h-62l10 100q-35 -51 -89 -80.5t-117 -29.5q-60 0 -108.5 28.5t-76.5 80.5t-28 120q0 87 39 156t104.5 107.5t141.5 38.5q63 0 108.5 -28.5t66.5 -79.5l14 99h69zM377.5 84.5q50.5 32.5 79.5 87.5t29 119q0 76 -42 122t-115 46q-59 0 -108.5 -29.5
t-79 -83t-29.5 -122.5q0 -81 42 -126.5t113 -45.5q60 0 110.5 32.5zM237 636q-38 43 -38 124h54q0 -54 27 -82.5t73 -28.5q44 0 76 28t48 83h54q-19 -82 -66.5 -124.5t-118.5 -42.5t-109 43z" />
    <glyph glyph-name="uni04D2" unicode="&#x4d2;" horiz-adv-x="595" 
d="M456 142h-347l-65 -142h-75l359 760h81l145 -760h-73zM445 205l-86 485l-221 -485h307zM267.5 883q-14.5 15 -14.5 36q0 22 14.5 37t36.5 15q21 0 36 -15t15 -37q0 -21 -15 -36t-36 -15q-22 0 -36.5 15zM442 883q-15 15 -15 36q0 22 15 37t37 15q21 0 35.5 -15t14.5 -37
q0 -21 -14.5 -36t-35.5 -15q-22 0 -37 15z" />
    <glyph glyph-name="uni04D3" unicode="&#x4d3;" horiz-adv-x="615" 
d="M585 512l-72 -512h-62l10 100q-35 -51 -89 -80.5t-117 -29.5q-60 0 -108.5 28.5t-76.5 80.5t-28 120q0 87 39 156t104.5 107.5t141.5 38.5q63 0 108.5 -28.5t66.5 -79.5l14 99h69zM377.5 84.5q50.5 32.5 79.5 87.5t29 119q0 76 -42 122t-115 46q-59 0 -108.5 -29.5
t-79 -83t-29.5 -122.5q0 -81 42 -126.5t113 -45.5q60 0 110.5 32.5zM229.5 635q-14.5 15 -14.5 36q0 22 14.5 37t36.5 15q21 0 36 -15t15 -37q0 -21 -15 -36t-36 -15q-22 0 -36.5 15zM404 635q-15 15 -15 36q0 22 15 37t37 15q21 0 35.5 -15t14.5 -37q0 -21 -14.5 -36
t-35.5 -15q-22 0 -37 15z" />
    <glyph glyph-name="uni04D4" unicode="&#x4d4;" horiz-adv-x="906" 
d="M578 699l-38 -271h324l-8 -62h-324l-43 -305h334l-9 -61h-405l26 186h-275l-127 -186h-74l519 760h438l-10 -61h-328zM444 247l63 447l-305 -447h242z" />
    <glyph glyph-name="uni04D5" unicode="&#x4d5;" horiz-adv-x="936" 
d="M486 240q-1 -9 -1 -26q0 -76 41 -119t110 -43q56 0 98.5 26.5t71.5 74.5l68 -8q-40 -74 -103 -114.5t-142 -40.5q-71 0 -123 33t-75 91q-32 -59 -93.5 -91.5t-140.5 -32.5q-78 0 -125.5 35t-47.5 103q0 92 67 131t174 39h158q4 37 4 45q0 60 -35.5 88t-90.5 28
q-53 0 -91 -21.5t-67 -60.5l-69 10q39 64 96 99t144 35q60 0 107 -25t65 -76q38 47 91 74t116 27q94 0 146.5 -58t52.5 -150q0 -21 -2 -42t-4 -31h-400zM565 414.5q-49 -44.5 -69 -116.5h326v12q0 72 -37.5 110.5t-100.5 38.5q-70 0 -119 -44.5zM301.5 66q43.5 19 73 56
t36.5 88l4 30h-157q-90 0 -127.5 -27t-37.5 -78q0 -43 30.5 -65.5t86.5 -22.5q48 0 91.5 19z" />
    <glyph glyph-name="uni04D6" unicode="&#x4d6;" horiz-adv-x="545" 
d="M205 697l-38 -269h336l-8 -62h-336l-43 -303h345l-9 -63h-416l107 760h411l-9 -63h-340zM253 884q-38 43 -38 124h54q0 -54 27 -82.5t73 -28.5q44 0 76 28t48 83h54q-19 -82 -66.5 -124.5t-118.5 -42.5t-109 43z" />
    <glyph glyph-name="uni04D7" unicode="&#x4d7;" horiz-adv-x="580" 
d="M112 231v-14q0 -77 43 -121t110 -44q60 0 106.5 28t75.5 77l69 -9q-39 -75 -105 -116.5t-150 -41.5q-65 0 -114.5 29.5t-77 80.5t-27.5 114q0 85 36.5 155t102 111t148.5 41q67 0 114 -28t71.5 -76.5t24.5 -109.5q0 -22 -6 -76h-421zM196.5 413q-56.5 -46 -75.5 -122h348
v11q0 76 -38 116.5t-104 40.5q-74 0 -130.5 -46zM234 636q-38 43 -38 124h54q0 -54 27 -82.5t73 -28.5q44 0 76 28t48 83h54q-19 -82 -66.5 -124.5t-118.5 -42.5t-109 43z" />
    <glyph glyph-name="uni04D8" unicode="&#x4d8;" horiz-adv-x="840" 
d="M659 726.5q74 -43.5 114.5 -119t40.5 -169.5q0 -120 -58 -223t-156 -164t-213 -61q-95 0 -169.5 44t-115.5 120t-41 169q0 41 9 93l672 -2q1 8 1 24q0 78 -32 138.5t-90 95t-134 34.5q-91 0 -170.5 -48.5t-126.5 -130.5l-73 12q55 106 155.5 168.5t217.5 62.5
q95 0 169 -43.5zM543 94q72 40 121.5 108t68.5 150h-597q-1 -8 -1 -25q0 -79 31.5 -141t89.5 -97t134 -35q81 0 153 40z" />
    <glyph glyph-name="uni04D9" unicode="&#x4d9;" horiz-adv-x="580" 
d="M434.5 492q49.5 -29 76.5 -80t27 -114q0 -85 -36.5 -155.5t-102 -111.5t-148.5 -41q-67 0 -114 28t-71.5 77t-24.5 110q0 19 2 41.5t5 36.5h420v13q0 76 -42.5 119.5t-109.5 43.5q-61 0 -107.5 -27.5t-75.5 -76.5l-70 8q40 76 106 117t150 41q66 0 115.5 -29zM384 98.5
q56 46.5 75 124.5h-348v-14q0 -76 38.5 -116.5t103.5 -40.5q75 0 131 46.5z" />
    <glyph glyph-name="uni04DA" unicode="&#x4da;" horiz-adv-x="840" 
d="M659 726.5q74 -43.5 114.5 -119t40.5 -169.5q0 -120 -58 -223t-156 -164t-213 -61q-95 0 -169.5 44t-115.5 120t-41 169q0 41 9 93l672 -2q1 8 1 24q0 78 -32 138.5t-90 95t-134 34.5q-91 0 -170.5 -48.5t-126.5 -130.5l-73 12q55 106 155.5 168.5t217.5 62.5
q95 0 169 -43.5zM543 94q72 40 121.5 108t68.5 150h-597q-1 -8 -1 -25q0 -79 31.5 -141t89.5 -97t134 -35q81 0 153 40zM388.5 883q-14.5 15 -14.5 36q0 22 14.5 37t36.5 15q21 0 36 -15t15 -37q0 -21 -15 -36t-36 -15q-22 0 -36.5 15zM563 883q-15 15 -15 36q0 22 15 37
t37 15q21 0 35.5 -15t14.5 -37q0 -21 -14.5 -36t-35.5 -15q-22 0 -37 15z" />
    <glyph glyph-name="uni04DB" unicode="&#x4db;" horiz-adv-x="580" 
d="M434.5 492q49.5 -29 76.5 -80t27 -114q0 -85 -36.5 -155.5t-102 -111.5t-148.5 -41q-67 0 -114 28t-71.5 77t-24.5 110q0 19 2 41.5t5 36.5h420v13q0 76 -42.5 119.5t-109.5 43.5q-61 0 -107.5 -27.5t-75.5 -76.5l-70 8q40 76 106 117t150 41q66 0 115.5 -29zM384 98.5
q56 46.5 75 124.5h-348v-14q0 -76 38.5 -116.5t103.5 -40.5q75 0 131 46.5zM217.5 635q-14.5 15 -14.5 36q0 22 14.5 37t36.5 15q21 0 36 -15t15 -37q0 -21 -15 -36t-36 -15q-22 0 -36.5 15zM392 635q-15 15 -15 36q0 22 15 37t37 15q21 0 35.5 -15t14.5 -37
q0 -21 -14.5 -36t-35.5 -15q-22 0 -37 15z" />
    <glyph glyph-name="uni04DC" unicode="&#x4dc;" horiz-adv-x="921" 
d="M686 454l188 -454h-72l-164 401l-144 -159l-34 -242h-71l36 258l-95 152l-275 -410h-80l318 470l-182 290h76l251 -410l58 410h70l-57 -412l368 412h86zM429.5 883q-14.5 15 -14.5 36q0 22 14.5 37t36.5 15q21 0 36 -15t15 -37q0 -21 -15 -36t-36 -15q-22 0 -36.5 15z
M604 883q-15 15 -15 36q0 22 15 37t37 15q21 0 35.5 -15t14.5 -37q0 -21 -14.5 -36t-35.5 -15q-22 0 -37 15z" />
    <glyph glyph-name="uni04DD" unicode="&#x4dd;" horiz-adv-x="692" 
d="M509 311l141 -311h-72l-118 263l-89 -88l-25 -175h-70l27 192l-56 75l-194 -267h-83l235 322l-142 190h80l172 -237l33 237h70l-34 -241l238 241h91zM283.5 635q-14.5 15 -14.5 36q0 22 14.5 37t36.5 15q21 0 36 -15t15 -37q0 -21 -15 -36t-36 -15q-22 0 -36.5 15z
M458 635q-15 15 -15 36q0 22 15 37t37 15q21 0 35.5 -15t14.5 -37q0 -21 -14.5 -36t-35.5 -15q-22 0 -37 15z" />
    <glyph glyph-name="uni04DE" unicode="&#x4de;" horiz-adv-x="571" 
d="M509 342q26 -41 26 -98q0 -76 -36 -133.5t-100.5 -89t-147.5 -31.5q-112 0 -170.5 50.5t-58.5 131.5q0 23 2 33l70 3q-2 -18 -2 -27q0 -60 39.5 -94t121.5 -34q61 0 109 23.5t74.5 66.5t26.5 100q0 58 -37 92t-110 34h-117l8 63h95q54 0 96.5 21t66.5 59t24 86
q0 51 -34.5 80t-108.5 29q-86 0 -133 -40.5t-57 -105.5l-70 7q13 88 81 145t184 57q103 0 156.5 -46.5t53.5 -122.5q0 -67 -34 -120t-93 -78q49 -20 75 -61zM249.5 883q-14.5 15 -14.5 36q0 22 14.5 37t36.5 15q21 0 36 -15t15 -37q0 -21 -15 -36t-36 -15q-22 0 -36.5 15z
M424 883q-15 15 -15 36q0 22 15 37t37 15q21 0 35.5 -15t14.5 -37q0 -21 -14.5 -36t-35.5 -15q-22 0 -37 15z" />
    <glyph glyph-name="uni04DF" unicode="&#x4df;" horiz-adv-x="425" 
d="M359 229.5q21 -28.5 21 -67.5q0 -77 -53 -124.5t-153 -47.5q-81 0 -126.5 35.5t-45.5 92.5q0 6 2 20l66 2q-1 -6 -1 -15q0 -36 26.5 -56t79.5 -20q61 0 98 31t37 81q0 34 -26.5 55t-77.5 21h-63l9 60h52q54 0 88.5 29.5t34.5 75.5q0 28 -22 44.5t-68 16.5q-54 0 -86 -23
t-40 -61l-64 6q10 62 59 99t136 37q78 0 116.5 -32t38.5 -82q0 -43 -25.5 -80t-70.5 -55q37 -14 58 -42.5zM140.5 635q-14.5 15 -14.5 36q0 22 14.5 37t36.5 15q21 0 36 -15t15 -37q0 -21 -15 -36t-36 -15q-22 0 -36.5 15zM315 635q-15 15 -15 36q0 22 15 37t37 15
q21 0 35.5 -15t14.5 -37q0 -21 -14.5 -36t-35.5 -15q-22 0 -37 15z" />
    <glyph glyph-name="uni04E0" unicode="&#x4e0;" horiz-adv-x="572" 
d="M477 404q61 -49 61 -139q0 -82 -36 -144t-101.5 -96.5t-150.5 -34.5q-72 0 -123.5 24t-78 65.5t-26.5 93.5q0 21 2 32l70 3q-2 -16 -2 -26q0 -59 40.5 -94t119.5 -35q63 0 111 26t75 73t27 107q0 62 -40 97.5t-121 35.5h-79l7 63h1l229 242h-340l8 63h479l-291 -305
q98 -2 159 -51z" />
    <glyph glyph-name="uni04E1" unicode="&#x4e1;" horiz-adv-x="505" 
d="M385.5 175q60.5 -45 60.5 -131q0 -74 -32.5 -130.5t-92 -87t-139.5 -30.5q-63 0 -109 19.5t-70 53.5t-24 76q0 15 1 22h66q-1 -5 -1 -14q0 -46 35.5 -72.5t101.5 -26.5q89 0 141.5 51.5t52.5 135.5q0 60 -42 90.5t-120 30.5q-42 0 -82 -4l5 57h1l229 237h-286l8 60h421
l-280 -291q95 -1 155.5 -46z" />
    <glyph glyph-name="uni04E2" unicode="&#x4e2;" horiz-adv-x="669" 
d="M667 760l-106 -760h-71l89 640l-471 -640h-71l106 760h71l-89 -640l471 640h71zM302 959h274l-8 -55h-274z" />
    <glyph glyph-name="uni04E3" unicode="&#x4e3;" horiz-adv-x="522" 
d="M491 512l-71 -512h-70l56 406l-305 -406l-1 1v-1h-70l72 512h70l-57 -408l306 408h70zM188 711h274l-8 -55h-274z" />
    <glyph glyph-name="uni04E4" unicode="&#x4e4;" horiz-adv-x="669" 
d="M667 760l-106 -760h-71l89 640l-471 -640h-71l106 760h71l-89 -640l471 640h71zM309.5 883q-14.5 15 -14.5 36q0 22 14.5 37t36.5 15q21 0 36 -15t15 -37q0 -21 -15 -36t-36 -15q-22 0 -36.5 15zM484 883q-15 15 -15 36q0 22 15 37t37 15q21 0 35.5 -15t14.5 -37
q0 -21 -14.5 -36t-35.5 -15q-22 0 -37 15z" />
    <glyph glyph-name="uni04E5" unicode="&#x4e5;" horiz-adv-x="522" 
d="M491 512l-71 -512h-70l56 406l-305 -406l-1 1v-1h-70l72 512h70l-57 -408l306 408h70zM195.5 635q-14.5 15 -14.5 36q0 22 14.5 37t36.5 15q21 0 36 -15t15 -37q0 -21 -15 -36t-36 -15q-22 0 -36.5 15zM370 635q-15 15 -15 36q0 22 15 37t37 15q21 0 35.5 -15t14.5 -37
q0 -21 -14.5 -36t-35.5 -15q-22 0 -37 15z" />
    <glyph glyph-name="uni04E6" unicode="&#x4e6;" 
d="M214.5 32q-73.5 42 -113.5 118.5t-40 176.5q0 120 58 222t157 161.5t215 59.5q96 0 169.5 -42t113.5 -118.5t40 -176.5q0 -120 -58 -222t-157 -161.5t-215 -59.5q-96 0 -169.5 42zM565 106.5q81 52.5 128.5 139.5t47.5 187q0 82 -31 143.5t-88.5 95.5t-134.5 34
q-96 0 -177 -52.5t-128.5 -140t-47.5 -187.5q0 -81 31 -143t88 -95.5t134 -33.5q97 0 178 52.5zM380.5 883q-14.5 15 -14.5 36q0 22 14.5 37t36.5 15q21 0 36 -15t15 -37q0 -21 -15 -36t-36 -15q-22 0 -36.5 15zM555 883q-15 15 -15 36q0 22 15 37t37 15q21 0 35.5 -15
t14.5 -37q0 -21 -14.5 -36t-35.5 -15q-22 0 -37 15z" />
    <glyph glyph-name="uni04E7" unicode="&#x4e7;" horiz-adv-x="597" 
d="M148 18.5q-50 28.5 -78 80t-28 118.5q0 87 38 156.5t105 108.5t150 39q65 0 115 -28.5t77.5 -79.5t27.5 -118q0 -88 -37.5 -157.5t-104.5 -108.5t-151 -39q-64 0 -114 28.5zM376 82q50 30 79.5 84.5t29.5 124.5q0 80 -42 124t-112 44q-60 0 -110 -30t-79.5 -84.5
t-29.5 -123.5q0 -80 42 -124.5t112 -44.5q60 0 110 30zM233.5 635q-14.5 15 -14.5 36q0 22 14.5 37t36.5 15q21 0 36 -15t15 -37q0 -21 -15 -36t-36 -15q-22 0 -36.5 15zM408 635q-15 15 -15 36q0 22 15 37t37 15q21 0 35.5 -15t14.5 -37q0 -21 -14.5 -36t-35.5 -15
q-22 0 -37 15z" />
    <glyph glyph-name="uni04E8" unicode="&#x4e8;" 
d="M660.5 728q73.5 -42 113.5 -118.5t40 -176.5q0 -120 -58 -222t-157 -161.5t-215 -59.5q-96 0 -169.5 42t-113.5 118.5t-40 176.5q0 120 58 222t157 161.5t215 59.5q96 0 169.5 -42zM333 667.5q-72 -38.5 -121.5 -105t-67.5 -148.5h597v19q0 82 -31 143.5t-88.5 95.5
t-134.5 34q-82 0 -154 -38.5zM543.5 93q72.5 39 122 107t66.5 151h-597q-1 -8 -1 -25q0 -81 31 -143t88 -95.5t134 -33.5q84 0 156.5 39z" />
    <glyph glyph-name="uni04E9" unicode="&#x4e9;" horiz-adv-x="597" 
d="M450 492.5q50 -28.5 77.5 -79.5t27.5 -118q0 -88 -37.5 -157.5t-104.5 -108.5t-151 -39q-64 0 -114 28.5t-78 80t-28 118.5q0 87 38 156.5t105 108.5t150 39q65 0 115 -28.5zM197 412q-58 -47 -77 -125h365v4q0 80 -42 124t-112 44q-76 0 -134 -47zM400.5 99.5
q58.5 47.5 77.5 127.5h-366v-6q0 -80 42 -124.5t112 -44.5q76 0 134.5 47.5z" />
    <glyph glyph-name="uni04EA" unicode="&#x4ea;" 
d="M660.5 728q73.5 -42 113.5 -118.5t40 -176.5q0 -120 -58 -222t-157 -161.5t-215 -59.5q-96 0 -169.5 42t-113.5 118.5t-40 176.5q0 120 58 222t157 161.5t215 59.5q96 0 169.5 -42zM333 667.5q-72 -38.5 -121.5 -105t-67.5 -148.5h597v19q0 82 -31 143.5t-88.5 95.5
t-134.5 34q-82 0 -154 -38.5zM543.5 93q72.5 39 122 107t66.5 151h-597q-1 -8 -1 -25q0 -81 31 -143t88 -95.5t134 -33.5q84 0 156.5 39zM391.5 883q-14.5 15 -14.5 36q0 22 14.5 37t36.5 15q21 0 36 -15t15 -37q0 -21 -15 -36t-36 -15q-22 0 -36.5 15zM566 883
q-15 15 -15 36q0 22 15 37t37 15q21 0 35.5 -15t14.5 -37q0 -21 -14.5 -36t-35.5 -15q-22 0 -37 15z" />
    <glyph glyph-name="uni04EB" unicode="&#x4eb;" horiz-adv-x="597" 
d="M450 492.5q50 -28.5 77.5 -79.5t27.5 -118q0 -88 -37.5 -157.5t-104.5 -108.5t-151 -39q-64 0 -114 28.5t-78 80t-28 118.5q0 87 38 156.5t105 108.5t150 39q65 0 115 -28.5zM197 412q-58 -47 -77 -125h365v4q0 80 -42 124t-112 44q-76 0 -134 -47zM400.5 99.5
q58.5 47.5 77.5 127.5h-366v-6q0 -80 42 -124.5t112 -44.5q76 0 134.5 47.5zM232.5 635q-14.5 15 -14.5 36q0 22 14.5 37t36.5 15q21 0 36 -15t15 -37q0 -21 -15 -36t-36 -15q-22 0 -36.5 15zM407 635q-15 15 -15 36q0 22 15 37t37 15q21 0 35.5 -15t14.5 -37
q0 -21 -14.5 -36t-35.5 -15q-22 0 -37 15z" />
    <glyph glyph-name="uni04EC" unicode="&#x4ec;" horiz-adv-x="818" 
d="M636.5 725.5q73.5 -44.5 114.5 -120.5t41 -169q0 -119 -58 -221.5t-156 -163.5t-214 -61q-81 0 -148 33t-111 92t-58 135l71 6q20 -93 86.5 -147.5t162.5 -54.5q83 0 155 40t121.5 108t67.5 149h-420l9 63h419q1 7 1 21q0 79 -32 140.5t-90 96t-133 34.5
q-98 0 -181 -55.5t-129 -147.5l-71 11q54 117 157 186.5t227 69.5q95 0 168.5 -44.5zM369.5 883q-14.5 15 -14.5 36q0 22 14.5 37t36.5 15q21 0 36 -15t15 -37q0 -21 -15 -36t-36 -15q-22 0 -36.5 15zM544 883q-15 15 -15 36q0 22 15 37t37 15q21 0 35.5 -15t14.5 -37
q0 -21 -14.5 -36t-35.5 -15q-22 0 -37 15z" />
    <glyph glyph-name="uni04ED" unicode="&#x4ed;" horiz-adv-x="584" 
d="M435.5 492.5q50.5 -28.5 78.5 -79t28 -115.5q0 -86 -38.5 -156.5t-105 -111t-146.5 -40.5q-87 0 -147.5 52t-71.5 135l69 4q10 -60 51.5 -94.5t100.5 -34.5q77 0 133.5 50t75.5 126h-265l8 60h266v9q0 75 -42.5 118.5t-111.5 43.5q-61 0 -112.5 -34.5t-78.5 -92.5l-70 10
q35 84 105 131.5t157 47.5q66 0 116.5 -28.5zM218.5 635q-14.5 15 -14.5 36q0 22 14.5 37t36.5 15q21 0 36 -15t15 -37q0 -21 -15 -36t-36 -15q-22 0 -36.5 15zM393 635q-15 15 -15 36q0 22 15 37t37 15q21 0 35.5 -15t14.5 -37q0 -21 -14.5 -36t-35.5 -15q-22 0 -37 15z
" />
    <glyph glyph-name="uni04EE" unicode="&#x4ee;" horiz-adv-x="558" 
d="M628 760l-469 -760h-78l183 296l-177 464h73l146 -396l244 396h78zM244 959h274l-8 -55h-274z" />
    <glyph glyph-name="uni04EF" unicode="&#x4ef;" horiz-adv-x="555" 
d="M524 512l-65 -466q-17 -122 -81 -186t-170 -64q-77 0 -123.5 32t-57.5 84l67 14q8 -34 37.5 -53t80.5 -19q151 0 177 191l7 50q-33 -52 -81.5 -78.5t-105.5 -26.5q-74 0 -117 45t-43 113q0 20 3 41l45 323h70l-44 -316q-3 -21 -3 -40q0 -106 117 -106q71 0 116.5 50.5
t60.5 122.5l40 289h70zM206 711h274l-8 -55h-274z" />
    <glyph glyph-name="uni04F0" unicode="&#x4f0;" horiz-adv-x="558" 
d="M628 760l-469 -760h-78l183 296l-177 464h73l146 -396l244 396h78zM251.5 883q-14.5 15 -14.5 36q0 22 14.5 37t36.5 15q21 0 36 -15t15 -37q0 -21 -15 -36t-36 -15q-22 0 -36.5 15zM426 883q-15 15 -15 36q0 22 15 37t37 15q21 0 35.5 -15t14.5 -37q0 -21 -14.5 -36
t-35.5 -15q-22 0 -37 15z" />
    <glyph glyph-name="uni04F1" unicode="&#x4f1;" horiz-adv-x="555" 
d="M524 512l-65 -466q-17 -122 -81 -186t-170 -64q-77 0 -123.5 32t-57.5 84l67 14q8 -34 37.5 -53t80.5 -19q151 0 177 191l7 50q-33 -52 -81.5 -78.5t-105.5 -26.5q-74 0 -117 45t-43 113q0 20 3 41l45 323h70l-44 -316q-3 -21 -3 -40q0 -106 117 -106q71 0 116.5 50.5
t60.5 122.5l40 289h70zM213.5 635q-14.5 15 -14.5 36q0 22 14.5 37t36.5 15q21 0 36 -15t15 -37q0 -21 -15 -36t-36 -15q-22 0 -36.5 15zM388 635q-15 15 -15 36q0 22 15 37t37 15q21 0 35.5 -15t14.5 -37q0 -21 -14.5 -36t-35.5 -15q-22 0 -37 15z" />
    <glyph glyph-name="uni04F2" unicode="&#x4f2;" horiz-adv-x="558" 
d="M628 760l-469 -760h-78l183 296l-177 464h73l146 -396l244 396h78zM273 838h-56l101 170h92zM467 838h-56l101 170h92z" />
    <glyph glyph-name="uni04F3" unicode="&#x4f3;" horiz-adv-x="555" 
d="M524 512l-65 -466q-17 -122 -81 -186t-170 -64q-77 0 -123.5 32t-57.5 84l67 14q8 -34 37.5 -53t80.5 -19q151 0 177 191l7 50q-33 -52 -81.5 -78.5t-105.5 -26.5q-74 0 -117 45t-43 113q0 20 3 41l45 323h70l-44 -316q-3 -21 -3 -40q0 -106 117 -106q71 0 116.5 50.5
t60.5 122.5l40 289h70zM235 590h-56l101 170h92zM429 590h-56l101 170h92z" />
    <glyph glyph-name="uni04F4" unicode="&#x4f4;" horiz-adv-x="610" 
d="M608 760l-106 -760h-71l42 298h-147q-70 0 -123.5 26t-83 74.5t-29.5 113.5q0 21 3 42l29 206h71l-29 -206q-3 -22 -3 -41q0 -74 46 -113t134 -39h141l56 399h70zM260.5 883q-14.5 15 -14.5 36q0 22 14.5 37t36.5 15q21 0 36 -15t15 -37q0 -21 -15 -36t-36 -15
q-22 0 -36.5 15zM435 883q-15 15 -15 36q0 22 15 37t37 15q21 0 35.5 -15t14.5 -37q0 -21 -14.5 -36t-35.5 -15q-22 0 -37 15z" />
    <glyph glyph-name="uni04F5" unicode="&#x4f5;" horiz-adv-x="477" 
d="M447 512l-72 -512h-70l27 194h-91q-82 0 -128.5 40.5t-46.5 108.5q0 21 2 31l19 138h70l-19 -137q-2 -18 -2 -26q0 -46 28.5 -70.5t86.5 -24.5h90l36 258h70zM168.5 635q-14.5 15 -14.5 36q0 22 14.5 37t36.5 15q21 0 36 -15t15 -37q0 -21 -15 -36t-36 -15
q-22 0 -36.5 15zM343 635q-15 15 -15 36q0 22 15 37t37 15q21 0 35.5 -15t14.5 -37q0 -21 -14.5 -36t-35.5 -15q-22 0 -37 15z" />
    <glyph glyph-name="uni04F6" unicode="&#x4f6;" horiz-adv-x="482" 
d="M523 697h-318l-97 -697h-71l106 760h389zM158 -140h-63l14 140h-32l9 63h100z" />
    <glyph glyph-name="uni04F7" unicode="&#x4f7;" horiz-adv-x="376" 
d="M383 451h-220l-63 -451h-70l72 512h289zM147 -130h-63l14 130h-32l8 60h100z" />
    <glyph glyph-name="uni04F8" unicode="&#x4f8;" horiz-adv-x="822" 
d="M520.5 441.5q60.5 -57.5 60.5 -153.5q0 -87 -37 -152t-105 -100.5t-160 -35.5h-242l106 760h71l-36 -261h168q114 0 174.5 -57.5zM820 760l-106 -760h-71l107 760h70zM400 91q52 28 80.5 79t28.5 118q0 68 -44 108.5t-131 40.5h-165l-52 -374h161q70 0 122 28zM361.5 883
q-14.5 15 -14.5 36q0 22 14.5 37t36.5 15q21 0 36 -15t15 -37q0 -21 -15 -36t-36 -15q-22 0 -36.5 15zM536 883q-15 15 -15 36q0 22 15 37t37 15q21 0 35.5 -15t14.5 -37q0 -21 -14.5 -36t-35.5 -15q-22 0 -37 15z" />
    <glyph glyph-name="uni04F9" unicode="&#x4f9;" horiz-adv-x="667" 
d="M391 311q45 -41 45 -107q0 -98 -60.5 -151t-164.5 -53h-181l72 512h70l-22 -160h111q85 0 130 -41zM637 512l-72 -512h-70l72 512h70zM324 98q42 38 42 102q0 43 -29.5 67.5t-90.5 24.5h-105l-33 -232h102q72 0 114 38zM268.5 635q-14.5 15 -14.5 36q0 22 14.5 37
t36.5 15q21 0 36 -15t15 -37q0 -21 -15 -36t-36 -15q-22 0 -36.5 15zM443 635q-15 15 -15 36q0 22 15 37t37 15q21 0 35.5 -15t14.5 -37q0 -21 -14.5 -36t-35.5 -15q-22 0 -37 15z" />
    </font>
</defs>
</svg>
