<?xml version="1.0" standalone="no"?>
<!DOCTYPE svg PUBLIC "-//W3C//DTD SVG 1.1//EN" "http://www.w3.org/Graphics/SVG/1.1/DTD/svg11.dtd" >
<svg xmlns="http://www.w3.org/2000/svg" xmlns:xlink="http://www.w3.org/1999/xlink" version="1.1">
<metadata>
Created by FontForge 20170731 at Wed Nov 22 21:03:27 2017
 By Aleksey,,,
Copyright (c) 2017 by Andreu Balius. All rights reserved.
</metadata>
<defs>
<font id="SeatBcn-Web-Black" horiz-adv-x="0" >
  <font-face 
    font-family="Seat Bcn - Web Black"
    font-weight="750"
    font-stretch="normal"
    units-per-em="1000"
    panose-1="0 0 8 0 0 0 0 0 0 0"
    ascent="760"
    descent="-240"
    x-height="520"
    cap-height="760"
    bbox="-569 -694 4863 1281"
    underline-thickness="50"
    underline-position="-150"
    unicode-range="U+000D-FEFC"
  />
<missing-glyph horiz-adv-x="600" 
d="M100 705h400v-705h-400v705zM438 62v581h-276v-581h276z" />
    <glyph glyph-name="fi" unicode="fi" horiz-adv-x="697" 
d="M645 0h-218v354h-131v-354h-218v354h-73l10 166h63v27q0 119 57 173.5t181 54.5q71 0 133 -15t97 -32l-46 -129q-19 8 -51.5 14.5t-62.5 6.5q-49 0 -69.5 -21.5t-20.5 -72.5v-6h349v-520z" />
    <glyph glyph-name="fl" unicode="fl" horiz-adv-x="760" 
d="M750 -8q-34 -7 -93 -7q-89 0 -138.5 24t-70.5 77.5t-21 147.5v383q-21 3 -40 3q-50 0 -70.5 -21.5t-20.5 -72.5v-6h75v-166h-75v-354h-218v354h-73l10 166h63v27q0 119 57 173.5t181 54.5q91 0 187 -17t142 -32v-496q0 -39 18 -58t59 -19h16z" />
    <glyph glyph-name="uniFB2A" unicode="&#x5e9;&#x5c1;" horiz-adv-x="930" 
d="M885 600v-178q0 -235 -110.5 -336t-309.5 -101t-309.5 101t-110.5 336v178h220v-156q0 -67 6 -117q50 11 69.5 43.5t19.5 99.5v130h210v-85q0 -129 -67.5 -195t-209.5 -84q21 -49 62 -70t110 -21q78 0 120.5 26.5t61 90.5t18.5 182v156h220zM746.5 678q-10.5 11 -10.5 26
q0 16 10.5 26.5t26.5 10.5t26.5 -10.5t10.5 -26.5q0 -15 -10.5 -26t-26.5 -11t-26.5 11z" />
    <glyph glyph-name="uniFB2B" unicode="&#x5e9;&#x5c2;" horiz-adv-x="930" 
d="M885 600v-178q0 -235 -110.5 -336t-309.5 -101t-309.5 101t-110.5 336v178h220v-156q0 -67 6 -117q50 11 69.5 43.5t19.5 99.5v130h210v-85q0 -129 -67.5 -195t-209.5 -84q21 -49 62 -70t110 -21q78 0 120.5 26.5t61 90.5t18.5 182v156h220zM131.5 679q-10.5 11 -10.5 26
q0 16 10.5 26.5t26.5 10.5t26.5 -10.5t10.5 -26.5q0 -15 -10.5 -26t-26.5 -11t-26.5 11z" />
    <glyph glyph-name="uniFB2C" unicode="&#x5e9;&#x5bc;&#x5c1;" horiz-adv-x="930" 
d="M885 600v-178q0 -235 -110.5 -336t-309.5 -101t-309.5 101t-110.5 336v178h220v-156q0 -67 6 -117q50 11 69.5 43.5t19.5 99.5v130h210v-85q0 -129 -67.5 -195t-209.5 -84q21 -49 62 -70t110 -21q78 0 120.5 26.5t61 90.5t18.5 182v156h220zM526.5 235q-10.5 11 -10.5 26
q0 16 10.5 26.5t26.5 10.5t26.5 -10.5t10.5 -26.5q0 -15 -10.5 -26t-26.5 -11t-26.5 11zM746.5 678q-10.5 11 -10.5 26q0 16 10.5 26.5t26.5 10.5t26.5 -10.5t10.5 -26.5q0 -15 -10.5 -26t-26.5 -11t-26.5 11z" />
    <glyph glyph-name="uniFB2D" unicode="&#x5e9;&#x5bc;&#x5c2;" horiz-adv-x="930" 
d="M885 600v-178q0 -235 -110.5 -336t-309.5 -101t-309.5 101t-110.5 336v178h220v-156q0 -67 6 -117q50 11 69.5 43.5t19.5 99.5v130h210v-85q0 -129 -67.5 -195t-209.5 -84q21 -49 62 -70t110 -21q78 0 120.5 26.5t61 90.5t18.5 182v156h220zM526.5 235q-10.5 11 -10.5 26
q0 16 10.5 26.5t26.5 10.5t26.5 -10.5t10.5 -26.5q0 -15 -10.5 -26t-26.5 -11t-26.5 11zM131.5 679q-10.5 11 -10.5 26q0 16 10.5 26.5t26.5 10.5t26.5 -10.5t10.5 -26.5q0 -15 -10.5 -26t-26.5 -11t-26.5 11z" />
    <glyph glyph-name="uniFB30" unicode="&#x5d0;&#x5bc;" horiz-adv-x="740" 
d="M467 0l-189 296q-5 -22 -12 -89l-20 -207h-221l23 192q9 72 39 119.5t85 77.5l-162 211h269l168 -270q26 40 33 131l12 139h225l-22 -143q-12 -78 -48 -128t-101 -80l184 -249h-263zM380.5 514q-10.5 11 -10.5 26q0 16 10.5 26.5t26.5 10.5t26.5 -10.5t10.5 -26.5
q0 -15 -10.5 -26t-26.5 -11t-26.5 11z" />
    <glyph glyph-name="uniFB31" unicode="&#x5d1;&#x5bc;" horiz-adv-x="651" 
d="M631 170v-170h-591v170h285v151q0 65 -34.5 89t-106.5 24q-62 0 -130 -5l10 159q42 8 77 12.5t77 4.5q155 0 243.5 -73t88.5 -218v-144h81zM159.5 264q-10.5 11 -10.5 26q0 16 10.5 26.5t26.5 10.5t26.5 -10.5t10.5 -26.5q0 -15 -10.5 -26t-26.5 -11t-26.5 11z" />
    <glyph glyph-name="uniFB32" unicode="&#x5d2;&#x5bc;" horiz-adv-x="515" 
d="M302 0l-49 165q-44 -65 -98 -109.5t-125 -70.5v204q104 32 186 116v120h-159l14 175h370v-321l44 -279h-183zM64.5 307q-10.5 11 -10.5 26q0 16 10.5 26.5t26.5 10.5t26.5 -10.5t10.5 -26.5q0 -15 -10.5 -26t-26.5 -11t-26.5 11z" />
    <glyph glyph-name="uniFB33" unicode="&#x5d3;&#x5bc;" horiz-adv-x="597" 
d="M560 430h-68v-430h-225v430h-267l10 170h562zM101.5 230q-10.5 11 -10.5 26q0 16 10.5 26.5t26.5 10.5t26.5 -10.5t10.5 -26.5q0 -15 -10.5 -26t-26.5 -11t-26.5 11z" />
    <glyph glyph-name="uniFB34" unicode="&#x5d4;&#x5bc;" horiz-adv-x="729" 
d="M454 0v321q0 61 -36.5 87.5t-113.5 26.5q-49 0 -118.5 -4t-125.5 -11l12 165q52 9 119 14.5t122 5.5q183 0 274.5 -72t91.5 -219v-314h-225zM61 310h210v-310h-210v310zM326.5 257q-10.5 11 -10.5 26q0 16 10.5 26.5t26.5 10.5t26.5 -10.5t10.5 -26.5q0 -15 -10.5 -26
t-26.5 -11t-26.5 11z" />
    <glyph glyph-name="uniFB35" unicode="&#x5d5;&#x5bc;" horiz-adv-x="398" 
d="M123 430h-92l13 170h304v-600h-225v430zM15.5 230q-10.5 11 -10.5 26q0 16 10.5 26.5t26.5 10.5t26.5 -10.5t10.5 -26.5q0 -15 -10.5 -26t-26.5 -11t-26.5 11z" />
    <glyph glyph-name="uniFB36" unicode="&#x5d6;&#x5bc;" horiz-adv-x="491" 
d="M476 600l-12 -170h-4q-52 0 -72 -34t-20 -113q0 -97 60 -283h-225q-57 167 -57 254q0 119 65 176h-125l12 170h378zM40.5 230q-10.5 11 -10.5 26q0 16 10.5 26.5t26.5 10.5t26.5 -10.5t10.5 -26.5q0 -15 -10.5 -26t-26.5 -11t-26.5 11z" />
    <glyph glyph-name="uniFB38" unicode="&#x5d8;&#x5bc;" horiz-adv-x="745" 
d="M614 67q-91 -82 -253 -82q-155 0 -233 72t-78 204v339h225v-322q0 -65 23 -94t66 -29q48 0 82 32.5t34 111.5q0 69 -28.5 102.5t-74.5 33.5q-15 0 -29 -2l-12 164q40 8 100 8q125 0 197 -74t72 -220q0 -162 -91 -244zM342.5 267q-10.5 11 -10.5 26q0 16 10.5 26.5
t26.5 10.5t26.5 -10.5t10.5 -26.5q0 -15 -10.5 -26t-26.5 -11t-26.5 11z" />
    <glyph glyph-name="uniFB39" unicode="&#x5d9;&#x5bc;" horiz-adv-x="398" 
d="M108 430h-92l14 170h303v-442h-225v272zM10.5 274q-10.5 11 -10.5 26q0 16 10.5 26.5t26.5 10.5t26.5 -10.5t10.5 -26.5q0 -15 -10.5 -26t-26.5 -11t-26.5 11z" />
    <glyph glyph-name="uniFB3A" unicode="&#x5da;&#x5bc;" horiz-adv-x="574" 
d="M299 317q0 68 -37.5 93t-118.5 25q-68 0 -133 -6l12 163q78 13 148 13q174 0 264 -72t90 -219v-519h-225v522zM116.5 259q-10.5 11 -10.5 26q0 16 10.5 26.5t26.5 10.5t26.5 -10.5t10.5 -26.5q0 -15 -10.5 -26t-26.5 -11t-26.5 11z" />
    <glyph glyph-name="uniFB3B" unicode="&#x5db;&#x5bc;" horiz-adv-x="590" 
d="M285.5 401.5q-34.5 32.5 -111.5 32.5q-60 0 -118 -7l12 163q77 15 140 15q342 0 342 -311q0 -309 -347 -309q-84 0 -168 19l14 161q52 -7 97 -7q65 0 102 11t54.5 39.5t17.5 82.5q0 78 -34.5 110.5zM147.5 269q-10.5 11 -10.5 26q0 16 10.5 26.5t26.5 10.5t26.5 -10.5
t10.5 -26.5q0 -15 -10.5 -26t-26.5 -11t-26.5 11z" />
    <glyph glyph-name="uniFB3C" unicode="&#x5dc;&#x5bc;" horiz-adv-x="557" 
d="M330 0h-239l204 430h-285v298h210v-128h327l-12 -171zM82.5 267q-10.5 11 -10.5 26q0 16 10.5 26.5t26.5 10.5t26.5 -10.5t10.5 -26.5q0 -15 -10.5 -26t-26.5 -11t-26.5 11z" />
    <glyph glyph-name="uniFB3E" unicode="&#x5de;&#x5bc;" horiz-adv-x="789" 
d="M677.5 532.5q71.5 -77.5 71.5 -242.5q0 -106 -32.5 -170t-97.5 -92t-168 -28q-71 0 -87 1v169h42q60 0 89 27t29 100q0 71 -25 101t-70 30q-51 0 -80 -35.5t-45 -128.5l-45 -264h-217l72 332l-109 268h220l18 -157q34 88 97.5 127.5t142.5 39.5q123 0 194.5 -77.5z
M390.5 269q-10.5 11 -10.5 26q0 16 10.5 26.5t26.5 10.5t26.5 -10.5t10.5 -26.5q0 -15 -10.5 -26t-26.5 -11t-26.5 11z" />
    <glyph glyph-name="uniFB40" unicode="&#x5e0;&#x5bc;" horiz-adv-x="449" 
d="M30 170h63q46 0 63.5 19t17.5 73v168h-133l13 170h345v-346q0 -132 -62 -193t-204 -61h-103v170zM64.5 276q-10.5 11 -10.5 26q0 16 10.5 26.5t26.5 10.5t26.5 -10.5t10.5 -26.5q0 -15 -10.5 -26t-26.5 -11t-26.5 11z" />
    <glyph glyph-name="uniFB41" unicode="&#x5e1;&#x5bc;" horiz-adv-x="735" 
d="M126.5 61q-76.5 76 -76.5 229v293q139 22 273 22q192 0 282 -79t90 -234q0 -151 -83 -229t-246 -78t-239.5 76zM445 188.5q25 33.5 25 101.5q0 76 -32 110.5t-106 34.5q-30 0 -72 -6v-139q0 -69 23.5 -102t81.5 -33q55 0 80 33.5zM333.5 276q-10.5 11 -10.5 26
q0 16 10.5 26.5t26.5 10.5t26.5 -10.5t10.5 -26.5q0 -15 -10.5 -26t-26.5 -11t-26.5 11z" />
    <glyph glyph-name="uniFB43" unicode="&#x5e3;&#x5bc;" horiz-adv-x="733" 
d="M458 288q0 88 -29.5 122.5t-81.5 34.5q-46 0 -74.5 -26.5t-28.5 -76.5q0 -45 22 -70t55 -25h10v-143h-26q-127 0 -203.5 58.5t-76.5 183.5q0 140 88.5 204.5t236.5 64.5q166 0 249.5 -83t83.5 -221v-516h-225v493zM319.5 314q-10.5 11 -10.5 26q0 16 10.5 26.5t26.5 10.5
t26.5 -10.5t10.5 -26.5q0 -15 -10.5 -26t-26.5 -11t-26.5 11z" />
    <glyph glyph-name="uniFB44" unicode="&#x5e4;&#x5bc;" horiz-adv-x="715" 
d="M165 -9q-64 6 -99 14l15 148q35 -4 89 -7.5t92 -3.5q69 0 109.5 14t59.5 46.5t19 90.5q0 152 -119 152q-41 0 -62.5 -18.5t-21.5 -44.5q0 -23 13.5 -36.5t35.5 -13.5h7v-125h-17q-126 0 -193.5 48t-67.5 139q0 68 38 118t107.5 76.5t161.5 26.5q171 0 257 -86.5
t86 -239.5t-94.5 -228.5t-290.5 -75.5q-61 0 -125 6zM340.5 304q-10.5 11 -10.5 26q0 16 10.5 26.5t26.5 10.5t26.5 -10.5t10.5 -26.5q0 -15 -10.5 -26t-26.5 -11t-26.5 11z" />
    <glyph glyph-name="uniFB46" unicode="&#x5e6;&#x5bc;" horiz-adv-x="710" 
d="M623.5 310q-37.5 -49 -107.5 -73l168 -237h-646v170h260l-298 430h258l174 -276q28 42 36 124l15 152h207l-19 -157q-10 -84 -47.5 -133zM81.5 256q-10.5 11 -10.5 26q0 16 10.5 26.5t26.5 10.5t26.5 -10.5t10.5 -26.5q0 -15 -10.5 -26t-26.5 -11t-26.5 11z" />
    <glyph glyph-name="uniFB47" unicode="&#x5e7;&#x5bc;" horiz-adv-x="690" 
d="M525 0h-215l141 430h-416l12 170h633l-11 -161zM41 310h205v-515h-205v515zM295.5 317q-10.5 11 -10.5 26q0 16 10.5 26.5t26.5 10.5t26.5 -10.5t10.5 -26.5q0 -15 -10.5 -26t-26.5 -11t-26.5 11z" />
    <glyph glyph-name="uniFB48" unicode="&#x5e8;&#x5bc;" horiz-adv-x="574" 
d="M299 317q0 68 -37 93t-119 25q-68 0 -133 -6l13 166q68 10 147 10q174 0 264 -72t90 -219v-314h-225v317zM126.5 219q-10.5 11 -10.5 26q0 16 10.5 26.5t26.5 10.5t26.5 -10.5t10.5 -26.5q0 -15 -10.5 -26t-26.5 -11t-26.5 11z" />
    <glyph glyph-name="uniFB49" unicode="&#x5e9;&#x5bc;" horiz-adv-x="930" 
d="M885 600v-178q0 -235 -110.5 -336t-309.5 -101t-309.5 101t-110.5 336v178h220v-156q0 -67 6 -117q50 11 69.5 43.5t19.5 99.5v130h210v-85q0 -129 -67.5 -195t-209.5 -84q21 -49 62 -70t110 -21q78 0 120.5 26.5t61 90.5t18.5 182v156h220zM526.5 235q-10.5 11 -10.5 26
q0 16 10.5 26.5t26.5 10.5t26.5 -10.5t10.5 -26.5q0 -15 -10.5 -26t-26.5 -11t-26.5 11z" />
    <glyph glyph-name="uniFB4A" unicode="&#x5ea;&#x5bc;" horiz-adv-x="785" 
d="M643 537q92 -73 92 -224v-313h-225v320q0 47 -12.5 72t-46 36.5t-98.5 11.5h-12v-186q0 -90 -23.5 -145t-78 -82t-148.5 -27h-66v172h25q46 0 63.5 19t17.5 71v169l-44 -3l-58 -5l11 161q178 26 320 26q191 0 283 -73zM394.5 238q-10.5 11 -10.5 26q0 16 10.5 26.5
t26.5 10.5t26.5 -10.5t10.5 -26.5q0 -15 -10.5 -26t-26.5 -11t-26.5 11z" />
    <glyph glyph-name="uniFB4B" unicode="&#x5d5;&#x5b9;" horiz-adv-x="367" 
d="M92 430h-92l13 170h304v-600h-225v430zM126.5 679q-10.5 11 -10.5 26q0 16 10.5 26.5t26.5 10.5t26.5 -10.5t10.5 -26.5q0 -15 -10.5 -26t-26.5 -11t-26.5 11z" />
    <glyph glyph-name="uniFEF5" unicode="&#xfedf;&#xfe82;" horiz-adv-x="720" arabic-form="isolated" 
d="M660 760v-534q0 -85 -25.5 -134t-73.5 -69.5t-122 -22.5h-399v230h157l-102 440h189l102 -440h17q40 0 56 14.5t16 55.5v460h185zM365 793v85q-29 -16 -52 -23t-56 -7t-56 7t-52 23l-109 -46l29 -74l80 35q44 -30 108 -30t108 30z" />
    <glyph glyph-name="uniFEF6" unicode="&#xfee0;&#xfe82;" horiz-adv-x="735" arabic-form="final" 
d="M745 230v-230h-15q-38 0 -71.5 14t-48.5 43q-27 -29 -69 -42t-102 -15h-399v230h157l-102 440h189l102 -440h17q40 0 56 14.5t16 55.5v460h185v-460q0 -41 16 -55.5t55 -14.5h14zM365 793v85q-29 -16 -52 -23t-56 -7t-56 7t-52 23l-109 -46l29 -74l80 35q44 -30 108 -30
t108 30z" />
    <glyph glyph-name="uniFEF7" unicode="&#xfedf;&#xfe84;" horiz-adv-x="720" arabic-form="isolated" 
d="M660 760v-534q0 -85 -25.5 -134t-73.5 -69.5t-122 -22.5h-399v230h157l-102 440h189l102 -440h17q40 0 56 14.5t16 55.5v460h185zM320 740h-270v84h53q-10 23 -10 48q0 57 36.5 93.5t98.5 36.5q38 0 68 -13l-3 -84q-9 4 -25.5 8.5t-34.5 4.5q-24 0 -40 -11t-16 -34
q0 -24 16 -36.5t46 -12.5h81v-84z" />
    <glyph glyph-name="uniFEF8" unicode="&#xfee0;&#xfe84;" horiz-adv-x="735" arabic-form="final" 
d="M745 230v-230h-15q-38 0 -71.5 14t-48.5 43q-27 -29 -69 -42t-102 -15h-399v230h157l-102 440h189l102 -440h17q40 0 56 14.5t16 55.5v460h185v-460q0 -41 16 -55.5t55 -14.5h14zM320 740h-270v84h53q-10 23 -10 48q0 57 36.5 93.5t98.5 36.5q38 0 68 -13l-3 -84
q-9 4 -25.5 8.5t-34.5 4.5q-24 0 -40 -11t-16 -34q0 -24 16 -36.5t46 -12.5h81v-84z" />
    <glyph glyph-name="uniFEF9" unicode="&#xfedf;&#xfe88;" horiz-adv-x="720" arabic-form="isolated" 
d="M660 760v-534q0 -85 -25.5 -134t-73.5 -69.5t-122 -22.5h-399v230h157l-102 440h189l102 -440h17q40 0 56 14.5t16 55.5v460h185zM410 -322h-270v84h53q-10 23 -10 48q0 57 36.5 93.5t98.5 36.5q38 0 68 -13l-3 -84q-9 4 -25.5 8.5t-34.5 4.5q-24 0 -40 -11t-16 -34
q0 -24 16 -36.5t46 -12.5h81v-84z" />
    <glyph glyph-name="uniFEFA" unicode="&#xfee0;&#xfe88;" horiz-adv-x="735" arabic-form="final" 
d="M745 230v-230h-15q-38 0 -71.5 14t-48.5 43q-27 -29 -69 -42t-102 -15h-399v230h157l-102 440h189l102 -440h17q40 0 56 14.5t16 55.5v460h185v-460q0 -41 16 -55.5t55 -14.5h14zM410 -322h-270v84h53q-10 23 -10 48q0 57 36.5 93.5t98.5 36.5q38 0 68 -13l-3 -84
q-9 4 -25.5 8.5t-34.5 4.5q-24 0 -40 -11t-16 -34q0 -24 16 -36.5t46 -12.5h81v-84z" />
    <glyph glyph-name="uniFEFB" unicode="&#xfedf;&#xfe8e;" horiz-adv-x="720" arabic-form="isolated" 
d="M660 760v-534q0 -85 -25.5 -134t-73.5 -69.5t-122 -22.5h-399v230h157l-102 440h189l102 -440h17q40 0 56 14.5t16 55.5v460h185z" />
    <glyph glyph-name="uniFEFC" unicode="&#xfee0;&#xfe8e;" horiz-adv-x="735" arabic-form="final" 
d="M745 230v-230h-15q-38 0 -71.5 14t-48.5 43q-27 -29 -69 -42t-102 -15h-399v230h157l-102 440h189l102 -440h17q40 0 56 14.5t16 55.5v460h185v-460q0 -41 16 -55.5t55 -14.5h14z" />
    <glyph glyph-name="f_f" unicode="ff" horiz-adv-x="776" 
d="M660.5 602q-15.5 -18 -15.5 -61v-21h121v-166h-121v-354h-218v354h-131v-354h-218v354h-73l10 166h63v39q0 111 53 163.5t163 52.5q94 0 197 -43q52 43 152 43q39 0 88 -7.5t70 -14.5l-12 -142q-41 9 -75 9q-38 0 -53.5 -18zM427 559q0 30 5 62q-37 8 -67 8
q-36 0 -52.5 -16.5t-16.5 -60.5v-32h131v39z" />
    <glyph glyph-name="f_f_i" unicode="ffi" horiz-adv-x="1046" 
d="M994 0h-218v354h-131v-354h-218v354h-131v-354h-218v354h-73l10 166h63v39q0 111 53 163.5t163 52.5q96 0 202 -45q55 45 169 45q71 0 133 -15t97 -32l-45 -129q-20 8 -52.5 14.5t-62.5 6.5q-49 0 -69.5 -21.5t-20.5 -72.5v-6h349v-520zM427 547q0 43 7 74q-38 8 -69 8
q-36 0 -52.5 -16.5t-16.5 -60.5v-32h131v27z" />
    <glyph glyph-name="f_f_l" unicode="ffl" horiz-adv-x="1110" 
d="M1100 -8q-35 -7 -94 -7q-89 0 -138.5 24t-70.5 77.5t-21 147.5v383q-20 3 -40 3q-50 0 -70.5 -21.5t-20.5 -72.5v-6h74v-166h-74v-354h-218v354h-131v-354h-218v354h-73l10 166h63v39q0 111 53 163.5t163 52.5q96 0 202 -45q55 45 169 45q91 0 187 -17t142 -32v-496
q0 -39 18 -58t59 -19h17zM427 547q0 43 7 74q-38 8 -69 8q-36 0 -52.5 -16.5t-16.5 -60.5v-32h131v27z" />
    <glyph glyph-name="uni04570457.liga" unicode="&#x457;&#x457;" horiz-adv-x="682" 
d="M-29.5 633q-24.5 25 -24.5 59q0 35 24.5 59.5t58.5 24.5t59 -24.5t25 -59.5q0 -34 -25 -59t-59 -25t-58.5 25zM179 633q-25 25 -25 59q0 35 24.5 59.5t59.5 24.5q34 0 58.5 -24.5t24.5 -59.5q0 -34 -24.5 -59t-58.5 -25t-59 25zM386.5 633q-24.5 25 -24.5 59
q0 35 24.5 59.5t58.5 24.5t59 -24.5t25 -59.5q0 -34 -25 -59t-59 -25t-58.5 25zM595 633q-25 25 -25 59q0 35 24.5 59.5t59.5 24.5q34 0 58.5 -24.5t24.5 -59.5q0 -34 -24.5 -59t-58.5 -25t-59 25zM23 520h220v-520h-220v520zM439 520h220v-520h-220v520z" />
    <glyph glyph-name="uni06440671" unicode="&#xfedf;&#xfb51;" horiz-adv-x="720" 
d="M660 760v-534q0 -85 -25.5 -134t-73.5 -69.5t-122 -22.5h-399v230h157l-102 440h189l102 -440h17q40 0 56 14.5t16 55.5v460h185zM354.5 980q33.5 -32 33.5 -106v-124h-338v84h47q26 92 71 135t102 43q51 0 84.5 -32zM313 834v43q0 29 -15 45t-38 16q-62 0 -91 -104h144z
" />
    <glyph glyph-name="uni06440671.fina" unicode="&#xfee0;&#xfb51;" horiz-adv-x="735" 
d="M745 230v-230h-15q-38 0 -71.5 14t-48.5 43q-27 -29 -69 -42t-102 -15h-399v230h157l-102 440h189l102 -440h17q40 0 56 14.5t16 55.5v460h185v-460q0 -41 16 -55.5t55 -14.5h14zM354.5 980q33.5 -32 33.5 -106v-124h-338v84h47q26 92 71 135t102 43q51 0 84.5 -32z
M313 834v43q0 29 -15 45t-38 16q-62 0 -91 -104h144z" />
    <glyph glyph-name="uni05DC05B9" unicode="&#x5dc;&#x5b9;" horiz-adv-x="557" 
d="M330 0h-239l204 430h-285v298h210v-128h327l-12 -171zM-95.5 679q-10.5 11 -10.5 26q0 16 10.5 26.5t26.5 10.5t26.5 -10.5t10.5 -26.5q0 -15 -10.5 -26t-26.5 -11t-26.5 11z" />
    <glyph glyph-name="uni05DC05BC05B9" unicode="&#x5dc;&#x5b9;&#x5bc;" horiz-adv-x="557" 
d="M330 0h-239l204 430h-285v298h210v-128h327l-12 -171zM82.5 267q-10.5 11 -10.5 26q0 16 10.5 26.5t26.5 10.5t26.5 -10.5t10.5 -26.5q0 -15 -10.5 -26t-26.5 -11t-26.5 11zM-95.5 679q-10.5 11 -10.5 26q0 16 10.5 26.5t26.5 10.5t26.5 -10.5t10.5 -26.5
q0 -15 -10.5 -26t-26.5 -11t-26.5 11z" />
    <glyph glyph-name="uni066E.init" unicode="&#x66e;" horiz-adv-x="345" 
d="M-10 230h23q40 0 56 14.5t16 55.5v220h190v-294q0 -88 -27.5 -137.5t-78.5 -69t-130 -19.5h-49v230z" />
    <glyph glyph-name="uni066E.medi" unicode="&#x66e;" horiz-adv-x="360" 
d="M370 230v-230h-25q-35 0 -70.5 11.5t-58.5 36.5q-29 -26 -73 -37t-104 -11h-49v230h23q40 0 56 14.5t16 55.5v220h190v-220q0 -41 16 -55.5t55 -14.5h24z" />
    <glyph glyph-name="uni066E.fina" unicode="&#x66e;" horiz-adv-x="1065" 
d="M1075 230v-230h-26q-29 0 -62.5 11.5t-55.5 36.5q-29 -25 -72 -36.5t-105 -11.5h-458q-82 0 -133.5 21t-77 70.5t-25.5 134.5v164h190v-90q0 -41 16 -55.5t56 -14.5h406q40 0 56 14.5t16 55.5v220h190v-220q0 -40 14 -55t46 -15h25z" />
    <glyph glyph-name="uni066F.fina" unicode="&#x66f;" horiz-adv-x="1005" 
d="M1015 230v-230h-85q-2 -101 -36 -160t-100 -84.5t-171 -25.5h-177q-188 0 -287 84.5t-99 240.5q0 61 15 118.5t34 86.5h187q-20 -33 -32.5 -76t-12.5 -78q0 -71 41.5 -108.5t153.5 -37.5h214q33 0 50.5 8.5t24.5 31.5h-34q-152 0 -231.5 78.5t-79.5 222.5q0 145 75.5 217
t232.5 72h232v-360h85zM740 230v155h-71q-45 0 -67 -18t-22 -61t22.5 -59.5t64.5 -16.5h73z" />
    <glyph glyph-name="uni06A1.init" unicode="&#x6a1;" horiz-adv-x="685" 
d="M615 590v-590h-625v230h112q-27 51 -27 113q0 116 77 181.5t231 65.5h232zM425 230v155h-71q-45 0 -67 -18t-22 -61t22.5 -59.5t64.5 -16.5h73z" />
    <glyph glyph-name="uni06A1.medi" unicode="&#x6a1;" horiz-adv-x="690" 
d="M700 230v-230h-710v230h112q-27 51 -27 113q0 116 77 181.5t231 65.5h232v-360h85zM287 367q-22 -18 -22 -61t22.5 -59.5t64.5 -16.5h73v155h-71q-45 0 -67 -18z" />
    <glyph glyph-name="uni06A1.fina" unicode="&#x6a1;" horiz-adv-x="1150" 
d="M1160 230v-230h-864q-86 0 -137 22.5t-75 71.5t-24 132v153h190v-79q0 -41 16 -55.5t56 -14.5h221q-8 37 -8 71q0 145 75.5 217t232.5 72h232v-360h85zM885 385h-71q-45 0 -67 -18t-22 -61t22.5 -59.5t64.5 -16.5h73v155z" />
    <glyph glyph-name="uni06C2.fina" unicode="&#x6c2;" horiz-adv-x="750" 
d="M760 230v-230h-49q-79 0 -130 19.5t-78.5 69t-27.5 137.5v80q-33 -8 -58.5 -36.5t-54.5 -84t-90 -185.5h-222q92 209 158 317t140 155.5t181 47.5h136v-220q0 -41 16 -55.5t56 -14.5h23zM613 611h-270v84h53q-10 23 -10 48q0 57 36.5 93.5t98.5 36.5q38 0 68 -13l-3 -84
q-9 4 -25.5 8.5t-34.5 4.5q-24 0 -40 -11t-16 -34q0 -24 16 -36.5t46 -12.5h81v-84z" />
    <glyph glyph-name="uni06C3.fina" unicode="&#x6c3;" horiz-adv-x="750" 
d="M760 230v-230h-49q-79 0 -130 19.5t-78.5 69t-27.5 137.5v80q-33 -8 -58.5 -36.5t-54.5 -84t-90 -185.5h-222q92 209 158 317t140 155.5t181 47.5h136v-220q0 -41 16 -55.5t56 -14.5h23zM333 688q-23 23 -23 56q0 34 23 57t56 23t56.5 -23t23.5 -57q0 -33 -23.5 -56
t-56.5 -23t-56 23zM510 688q-23 23 -23 56q0 34 23 57t56 23t56.5 -23t23.5 -57q0 -33 -23.5 -56t-56.5 -23t-56 23z" />
    <glyph glyph-name="uniFB51" unicode="&#x671;" horiz-adv-x="335" arabic-form="final" 
d="M118.5 49q-58.5 49 -58.5 167v544h190v-460q0 -41 16 -55.5t56 -14.5h23v-230h-59q-109 0 -167.5 49zM280.5 1081q33.5 -32 33.5 -106v-124h-338v84h47q26 92 71 135t102 43q51 0 84.5 -32zM239 935v43q0 29 -15 45t-38 16q-62 0 -91 -104h144z" />
    <glyph glyph-name="uniFB57" unicode="&#x67e;" horiz-adv-x="1065" arabic-form="final" 
d="M1075 230v-230h-26q-29 0 -62.5 11.5t-55.5 36.5q-29 -25 -72 -36.5t-105 -11.5h-458q-82 0 -133.5 21t-77 70.5t-25.5 134.5v164h190v-90q0 -41 16 -55.5t56 -14.5h406q40 0 56 14.5t16 55.5v220h190v-220q0 -40 14 -55t46 -15h25zM360.5 -204q-23.5 23 -23.5 56
q0 34 23.5 57t56.5 23t56 -23t23 -57q0 -33 -23 -56t-56 -23t-56.5 23zM537 -204q-23 23 -23 56q0 34 23 57t56 23t56.5 -23t23.5 -57q0 -33 -23.5 -56t-56.5 -23t-56 23zM447 -358q-23 23 -23 56q0 34 23 57t56 23t56.5 -23t23.5 -57q0 -33 -23.5 -56t-56.5 -23t-56 23z
" />
    <glyph glyph-name="uniFB58" unicode="&#x67e;" horiz-adv-x="345" arabic-form="initial" 
d="M-10 230h23q40 0 56 14.5t16 55.5v220h190v-294q0 -88 -27.5 -137.5t-78.5 -69t-130 -19.5h-49v230zM35.5 -204q-23.5 23 -23.5 56q0 34 23.5 57t56.5 23t56 -23t23 -57q0 -33 -23 -56t-56 -23t-56.5 23zM212 -204q-23 23 -23 56q0 34 23 57t56 23t56.5 -23t23.5 -57
q0 -33 -23.5 -56t-56.5 -23t-56 23zM122 -358q-23 23 -23 56q0 34 23 57t56 23t56.5 -23t23.5 -57q0 -33 -23.5 -56t-56.5 -23t-56 23z" />
    <glyph glyph-name="uniFB59" unicode="&#x67e;" horiz-adv-x="360" arabic-form="medial" 
d="M370 230v-230h-25q-35 0 -70.5 11.5t-58.5 36.5q-29 -26 -73 -37t-104 -11h-49v230h23q40 0 56 14.5t16 55.5v220h190v-220q0 -41 16 -55.5t55 -14.5h24zM35.5 -204q-23.5 23 -23.5 56q0 34 23.5 57t56.5 23t56 -23t23 -57q0 -33 -23 -56t-56 -23t-56.5 23zM212 -204
q-23 23 -23 56q0 34 23 57t56 23t56.5 -23t23.5 -57q0 -33 -23.5 -56t-56.5 -23t-56 23zM122 -358q-23 23 -23 56q0 34 23 57t56 23t56.5 -23t23.5 -57q0 -33 -23.5 -56t-56.5 -23t-56 23z" />
    <glyph glyph-name="uniFB67" unicode="&#x679;" horiz-adv-x="1065" arabic-form="final" 
d="M1075 230v-230h-26q-29 0 -62.5 11.5t-55.5 36.5q-29 -25 -72 -36.5t-105 -11.5h-458q-82 0 -133.5 21t-77 70.5t-25.5 134.5v164h190v-90q0 -41 16 -55.5t56 -14.5h406q40 0 56 14.5t16 55.5v220h190v-220q0 -40 14 -55t46 -15h25zM650.5 715.5q33.5 -31.5 33.5 -106.5
v-124h-358v84h35v185h70v-78q51 71 135 71q51 0 84.5 -31.5zM607 569v43q0 29 -14.5 45t-36.5 16q-83 0 -115 -104h166z" />
    <glyph glyph-name="uniFB68" unicode="&#x679;" horiz-adv-x="345" arabic-form="initial" 
d="M-10 230h23q40 0 56 14.5t16 55.5v220h190v-294q0 -88 -27.5 -137.5t-78.5 -69t-130 -19.5h-49v230zM325.5 836.5q33.5 -31.5 33.5 -106.5v-124h-358v84h35v185h70v-78q51 71 135 71q51 0 84.5 -31.5zM282 690v43q0 29 -14.5 45t-36.5 16q-83 0 -115 -104h166z" />
    <glyph glyph-name="uniFB69" unicode="&#x679;" horiz-adv-x="360" arabic-form="medial" 
d="M370 230v-230h-25q-35 0 -70.5 11.5t-58.5 36.5q-29 -26 -73 -37t-104 -11h-49v230h23q40 0 56 14.5t16 55.5v220h190v-220q0 -41 16 -55.5t55 -14.5h24zM325.5 836.5q33.5 -31.5 33.5 -106.5v-124h-358v84h35v185h70v-78q51 71 135 71q51 0 84.5 -31.5zM282 690v43
q0 29 -14.5 45t-36.5 16q-83 0 -115 -104h166z" />
    <glyph glyph-name="uniFB6B" unicode="&#x6a4;" horiz-adv-x="1150" arabic-form="final" 
d="M1160 230v-230h-864q-86 0 -137 22.5t-75 71.5t-24 132v153h190v-79q0 -41 16 -55.5t56 -14.5h221q-8 37 -8 71q0 145 75.5 217t232.5 72h232v-360h85zM885 385h-71q-45 0 -67 -18t-22 -61t22.5 -59.5t64.5 -16.5h73v155zM916.5 950q23.5 -23 23.5 -56q0 -34 -23.5 -57
t-56.5 -23t-56 23t-23 57q0 33 23 56t56 23t56.5 -23zM830 796q23 -23 23 -56q0 -34 -23 -57t-56 -23t-56.5 23t-23.5 57q0 33 23.5 56t56.5 23t56 -23zM1006.5 796q23.5 -23 23.5 -56q0 -34 -23.5 -57t-56.5 -23t-56 23t-23 57q0 33 23 56t56 23t56.5 -23z" />
    <glyph glyph-name="uniFB6C" unicode="&#x6a4;" horiz-adv-x="685" arabic-form="initial" 
d="M615 590v-590h-625v230h112q-27 51 -27 113q0 116 77 181.5t231 65.5h232zM425 230v155h-71q-45 0 -67 -18t-22 -61t22.5 -59.5t64.5 -16.5h73zM437.5 950q23.5 -23 23.5 -56q0 -34 -23.5 -57t-56.5 -23t-56 23t-23 57q0 33 23 56t56 23t56.5 -23zM351 796q23 -23 23 -56
q0 -34 -23 -57t-56 -23t-56.5 23t-23.5 57q0 33 23.5 56t56.5 23t56 -23zM527.5 796q23.5 -23 23.5 -56q0 -34 -23.5 -57t-56.5 -23t-56 23t-23 57q0 33 23 56t56 23t56.5 -23z" />
    <glyph glyph-name="uniFB6D" unicode="&#x6a4;" horiz-adv-x="690" arabic-form="medial" 
d="M700 230v-230h-710v230h112q-27 51 -27 113q0 116 77 181.5t231 65.5h232v-360h85zM287 367q-22 -18 -22 -61t22.5 -59.5t64.5 -16.5h73v155h-71q-45 0 -67 -18zM437.5 950q23.5 -23 23.5 -56q0 -34 -23.5 -57t-56.5 -23t-56 23t-23 57q0 33 23 56t56 23t56.5 -23z
M351 796q23 -23 23 -56q0 -34 -23 -57t-56 -23t-56.5 23t-23.5 57q0 33 23.5 56t56.5 23t56 -23zM527.5 796q23.5 -23 23.5 -56q0 -34 -23.5 -57t-56.5 -23t-56 23t-23 57q0 33 23 56t56 23t56.5 -23z" />
    <glyph glyph-name="uniFB7B" unicode="&#x686;" horiz-adv-x="755" arabic-form="final" 
d="M765 230v-230h-25q-34 0 -64.5 11t-47.5 34q-59 -45 -170 -45h-140q-43 0 -60.5 -12t-17.5 -34q0 -29 26.5 -41.5t88.5 -12.5q32 0 44 1l-15 -200q-11 -1 -33 -1q-142 0 -226.5 66.5t-84.5 208.5q0 134 75 194.5t207 60.5h54q52 0 72 11.5t20 37.5q0 16 -5 36l-10 36
q-5 19 -14 29.5t-31.5 16.5t-64.5 6q-44 0 -91 -8.5t-76 -18.5l-14 196q26 10 97.5 21.5t136.5 11.5q103 0 156.5 -36.5t75.5 -119.5l35 -133l3 -13q13 -45 29.5 -59t45.5 -14h24zM565 -184q-23 -23 -56 -23t-56.5 23t-23.5 56q0 34 23.5 57t56.5 23t56 -23t23 -57
q0 -33 -23 -56zM741.5 -71q23.5 -23 23.5 -57q0 -33 -23.5 -56t-56.5 -23t-56 23t-23 56q0 34 23 57t56 23t56.5 -23zM651.5 -225q23.5 -23 23.5 -57q0 -33 -23.5 -56t-56.5 -23t-56 23t-23 56q0 34 23 57t56 23t56.5 -23z" />
    <glyph glyph-name="uniFB7C" unicode="&#x686;" horiz-adv-x="620" arabic-form="initial" 
d="M-10 230h291q39 0 55.5 11.5t16.5 37.5q0 16 -5 36l-10 37q-5 19 -14 29.5t-31.5 16t-64.5 5.5q-38 0 -89 -9t-78 -18l-14 196q26 10 98 21.5t136 11.5q103 0 156.5 -36.5t75.5 -119.5l35 -133q9 -35 15.5 -74.5t6.5 -67.5q0 -68 -47.5 -121t-179.5 -53h-353v230z
M108.5 -204q-23.5 23 -23.5 56q0 34 23.5 57t56.5 23t56 -23t23 -57q0 -33 -23 -56t-56 -23t-56.5 23zM285 -204q-23 23 -23 56q0 34 23 57t56 23t56.5 -23t23.5 -57q0 -33 -23.5 -56t-56.5 -23t-56 23zM195 -358q-23 23 -23 56q0 34 23 57t56 23t56.5 -23t23.5 -57
q0 -33 -23.5 -56t-56.5 -23t-56 23z" />
    <glyph glyph-name="uniFB7D" unicode="&#x686;" horiz-adv-x="640" arabic-form="medial" 
d="M650 230v-230h-25q-34 0 -64.5 11t-47.5 34q-59 -45 -170 -45h-353v230h291q39 0 55.5 11.5t16.5 37.5q0 16 -5 36l-10 37q-5 19 -14 29.5t-31.5 16t-64.5 5.5q-38 0 -89 -9t-78 -18l-14 196q26 10 98 21.5t136 11.5q103 0 156.5 -36.5t75.5 -119.5l35 -133l3 -13
q13 -45 29.5 -59t45.5 -14h24zM108.5 -204q-23.5 23 -23.5 56q0 34 23.5 57t56.5 23t56 -23t23 -57q0 -33 -23 -56t-56 -23t-56.5 23zM285 -204q-23 23 -23 56q0 34 23 57t56 23t56.5 -23t23.5 -57q0 -33 -23.5 -56t-56.5 -23t-56 23zM195 -358q-23 23 -23 56q0 34 23 57
t56 23t56.5 -23t23.5 -57q0 -33 -23.5 -56t-56.5 -23t-56 23z" />
    <glyph glyph-name="uniFB89" unicode="&#x688;" horiz-adv-x="565" arabic-form="final" 
d="M575 230v-230h-25q-42 0 -74 17t-42 54q-65 -71 -208 -71h-186v230h177q42 0 54.5 9t12.5 24q0 21 -38.5 47.5t-88.5 48.5l-32 14l38 243l33 -16q104 -49 182.5 -129t100.5 -177q11 -40 27 -52t45 -12h24zM321.5 918.5q33.5 -31.5 33.5 -106.5v-124h-358v84h35v185h70
v-78q51 71 135 71q51 0 84.5 -31.5zM278 772v43q0 29 -14.5 45t-36.5 16q-83 0 -115 -104h166z" />
    <glyph glyph-name="uniFB8B" unicode="&#x698;" horiz-adv-x="500" arabic-form="final" 
d="M510 230v-230h-15q-46 0 -70 21v-47q0 -244 -237 -244q-33 0 -74 5t-69 13l12 222q14 -3 47.5 -6t60.5 -3q36 0 53 15.5t17 56.5v487h190v-220q0 -41 16 -55.5t55 -14.5h14zM380.5 879q23.5 -23 23.5 -56q0 -34 -23.5 -57t-56.5 -23t-56 23t-23 57q0 33 23 56t56 23
t56.5 -23zM294 725q23 -23 23 -56q0 -34 -23 -57t-56 -23t-56.5 23t-23.5 57q0 33 23.5 56t56.5 23t56 -23zM470.5 725q23.5 -23 23.5 -56q0 -34 -23.5 -57t-56.5 -23t-56 23t-23 57q0 33 23 56t56 23t56.5 -23z" />
    <glyph glyph-name="uniFB8D" unicode="&#x691;" horiz-adv-x="500" arabic-form="final" 
d="M510 230v-230h-15q-46 0 -70 21v-47q0 -244 -237 -244q-33 0 -74 5t-69 13l12 222q14 -3 47.5 -6t60.5 -3q36 0 53 15.5t17 56.5v487h190v-220q0 -41 16 -55.5t55 -14.5h14zM471.5 835.5q33.5 -31.5 33.5 -106.5v-124h-358v84h35v185h70v-78q51 71 135 71
q51 0 84.5 -31.5zM428 689v43q0 29 -14.5 45t-36.5 16q-83 0 -115 -104h166z" />
    <glyph glyph-name="uniFB8F" unicode="&#x6a9;" horiz-adv-x="905" arabic-form="final" 
d="M915 230v-230h-15q-38 0 -71.5 14t-48.5 43q-28 -29 -73.5 -43t-112.5 -14h-298q-79 0 -130 19t-78.5 68.5t-27.5 138.5v153h190v-79q0 -41 16 -55.5t56 -14.5h271q47 0 47 37v12q0 37 -47 37h-248v190q58 88 166 168t255 116l16 -201q-91 -20 -206 -83h9q95 0 147.5 -20
t75 -64t22.5 -122v-6q0 -37 16 -50.5t55 -13.5h14z" />
    <glyph glyph-name="uniFB90" unicode="&#x6a9;" horiz-adv-x="615" arabic-form="initial" 
d="M457.5 486q52.5 -20 75 -64t22.5 -122v-94q0 -76 -22 -120.5t-75.5 -65t-147.5 -20.5h-320v230h328q47 0 47 37v12q0 37 -47 37h-268v190q35 53 98.5 108.5t152 103t190.5 72.5l15 -201q-96 -22 -215 -83h19q95 0 147.5 -20z" />
    <glyph glyph-name="uniFB91" unicode="&#x6a9;" horiz-adv-x="630" arabic-form="medial" 
d="M640 230v-230h-15q-36 0 -68.5 13t-48.5 39q-28 -27 -76 -39.5t-122 -12.5h-320v230h328q47 0 47 37v12q0 37 -47 37h-268v190q35 53 98.5 108.5t152 103t190.5 72.5l15 -201q-96 -22 -215 -83h19q95 0 147.5 -20t75 -64t22.5 -122v-6q0 -37 16 -50.5t55 -13.5h14z" />
    <glyph glyph-name="uniFB93" unicode="&#x6af;" horiz-adv-x="905" arabic-form="final" 
d="M550.5 746q-100.5 -58 -172.5 -139l-8 93q67 77 165 136t219 89l8 -95q-111 -26 -211.5 -84zM915 230v-230h-15q-38 0 -71.5 14t-48.5 43q-28 -29 -73.5 -43t-112.5 -14h-298q-79 0 -130 19t-78.5 68.5t-27.5 138.5v153h190v-79q0 -41 16 -55.5t56 -14.5h271q47 0 47 37
v12q0 37 -47 37h-248v190q58 88 166 168t255 116l16 -201q-91 -20 -206 -83h9q95 0 147.5 -20t75 -64t22.5 -122v-6q0 -37 16 -50.5t55 -13.5h14z" />
    <glyph glyph-name="uniFB94" unicode="&#x6af;" horiz-adv-x="615" arabic-form="initial" 
d="M272.5 746q-100.5 -58 -172.5 -139l-8 93q67 77 165 136t219 89l8 -95q-111 -26 -211.5 -84zM457.5 486q52.5 -20 75 -64t22.5 -122v-94q0 -76 -22 -120.5t-75.5 -65t-147.5 -20.5h-320v230h328q47 0 47 37v12q0 37 -47 37h-268v190q35 53 98.5 108.5t152 103t190.5 72.5
l15 -201q-96 -22 -215 -83h19q95 0 147.5 -20z" />
    <glyph glyph-name="uniFB95" unicode="&#x6af;" horiz-adv-x="630" arabic-form="medial" 
d="M272.5 746q-100.5 -58 -172.5 -139l-8 93q67 77 165 136t219 89l8 -95q-111 -26 -211.5 -84zM640 230v-230h-15q-36 0 -68.5 13t-48.5 39q-28 -27 -76 -39.5t-122 -12.5h-320v230h328q47 0 47 37v12q0 37 -47 37h-268v190q35 53 98.5 108.5t152 103t190.5 72.5l15 -201
q-96 -22 -215 -83h19q95 0 147.5 -20t75 -64t22.5 -122v-6q0 -37 16 -50.5t55 -13.5h14z" />
    <glyph glyph-name="uniFB9F" unicode="&#x6ba;" horiz-adv-x="770" arabic-form="final" 
d="M780 230v-230h-15q-49 0 -73 24q-15 -151 -96 -222.5t-216 -71.5q-96 0 -168 35.5t-112 106t-40 171.5q0 114 49 187h183q-41 -70 -41 -140q0 -62 31.5 -96t96.5 -34q52 0 79.5 22.5t37 63t9.5 105.5v299h190v-150q0 -41 16 -55.5t55 -14.5h14z" />
    <glyph glyph-name="uniFBA7" unicode="&#x6c1;" horiz-adv-x="750" arabic-form="final" 
d="M760 230v-230h-49q-79 0 -130 19.5t-78.5 69t-27.5 137.5v80q-33 -8 -58.5 -36.5t-54.5 -84t-90 -185.5h-222q92 209 158 317t140 155.5t181 47.5h136v-220q0 -41 16 -55.5t56 -14.5h23z" />
    <glyph glyph-name="uniFBA8" unicode="&#x6c1;" horiz-adv-x="345" arabic-form="initial" 
d="M275 520v-294q0 -79 -22 -127t-66 -71q-30 -19 -47 -47t-17 -55q0 -23 16 -34.5t61 -11.5h19v-100h-37q-78 0 -119.5 31.5t-41.5 84.5q0 61 49 105q-10 -1 -31 -1h-49v230h23q40 0 56 14.5t16 55.5v220h190z" />
    <glyph glyph-name="uniFBA9" unicode="&#x6c1;" horiz-adv-x="650" arabic-form="medial" 
d="M660 230v-230h-23q-40 0 -56 -14.5t-16 -55.5v-230h-132q-89 0 -165.5 41.5t-130 110t-78.5 148.5h-69v230h216q17 -115 54 -197t115 -110v81q0 88 27.5 137.5t78.5 69t130 19.5h49z" />
    <glyph glyph-name="uniFBAB" unicode="&#x6be;" horiz-adv-x="840" arabic-form="final" 
d="M850 230v-230h-795v230h142q-16 32 -16 69q0 66 46 107t129 41q91 0 135 -55t46 -162h47q-3 138 -59.5 197.5t-163.5 59.5q-50 0 -84 -8t-65 -20l-13 181q29 8 73.5 14t92.5 6q175 0 283 -93t116 -337h86zM309.5 245q13.5 -15 45.5 -15h58v17q0 29 -14.5 54.5t-51.5 25.5
q-26 0 -38.5 -13t-12.5 -34q0 -20 13.5 -35z" />
    <glyph glyph-name="uniFBAC" unicode="&#x6be;" horiz-adv-x="750" arabic-form="initial" 
d="M580.5 560q109.5 -100 109.5 -365v-195h-700v230h132q-16 32 -16 69q0 66 46 107t129 41q91 0 135 -55t46 -162h47q-3 138 -59.5 197.5t-163.5 59.5q-50 0 -84 -8t-65 -20l-13 181q29 8 73.5 14t92.5 6q181 0 290.5 -100zM234.5 245q13.5 -15 45.5 -15h58v17
q0 29 -14.5 54.5t-51.5 25.5q-26 0 -38.5 -13t-12.5 -34q0 -20 13.5 -35z" />
    <glyph glyph-name="uniFBAD" unicode="&#x6be;" horiz-adv-x="775" arabic-form="medial" 
d="M785 230v-230h-795v230h132q-16 32 -16 69q0 66 46 107t129 41q91 0 135 -55t46 -162h47q-3 138 -59.5 197.5t-163.5 59.5q-50 0 -84 -8t-65 -20l-13 181q29 8 73.5 14t92.5 6q175 0 283 -93t116 -337h96zM234.5 245q13.5 -15 45.5 -15h58v17q0 29 -14.5 54.5t-51.5 25.5
q-26 0 -38.5 -13t-12.5 -34q0 -20 13.5 -35z" />
    <glyph glyph-name="uniFBAF" unicode="&#x6d2;" horiz-adv-x="460" arabic-form="final" 
d="M150 -227.5q-70 62.5 -70 194.5q0 263 280 263h110v-230h-162q-20 0 -29 -7t-9 -23t9 -23t29 -7h532v-230h-480q-140 0 -210 62.5z" />
    <glyph glyph-name="uniFBB1" unicode="&#x6d3;" horiz-adv-x="460" arabic-form="final" 
d="M150 -227.5q-70 62.5 -70 194.5q0 263 280 263h110v-230h-162q-20 0 -29 -7t-9 -23t9 -23t29 -7h532v-230h-480q-140 0 -210 62.5zM380 321h-270v84h53q-10 23 -10 48q0 57 36.5 93.5t98.5 36.5q38 0 68 -13l-3 -84q-9 4 -25.5 8.5t-34.5 4.5q-24 0 -40 -11t-16 -34
q0 -24 16 -36.5t46 -12.5h81v-84z" />
    <glyph glyph-name="uniFBE8" unicode="&#x649;" horiz-adv-x="345" arabic-form="initial" 
d="M-10 230h23q40 0 56 14.5t16 55.5v220h190v-294q0 -88 -27.5 -137.5t-78.5 -69t-130 -19.5h-49v230z" />
    <glyph glyph-name="uniFBE9" unicode="&#x649;" horiz-adv-x="360" arabic-form="medial" 
d="M370 230v-230h-25q-35 0 -70.5 11.5t-58.5 36.5q-29 -26 -73 -37t-104 -11h-49v230h23q40 0 56 14.5t16 55.5v220h190v-220q0 -41 16 -55.5t55 -14.5h24z" />
    <glyph glyph-name="uniFBFD" unicode="&#x6cc;" horiz-adv-x="1020" arabic-form="final" 
d="M162 -186q-102 84 -102 242q0 59 13 108t31 76h187q-39 -67 -39 -144q0 -62 46.5 -99t145.5 -37q77 0 106.5 16.5t29.5 38.5q0 13 -9 26t-33 32l-6 5q-58 46 -83.5 85t-25.5 93q0 65 33.5 111t89.5 69.5t121 23.5t111.5 -20.5t77 -50t59.5 -71.5q37 -52 56 -70t46 -18h13
v-230h-30q-47 0 -79.5 16.5t-63 54t-81.5 114.5q-36 54 -64.5 76t-58.5 22q-20 0 -30 -8t-10 -19q0 -13 10.5 -26t50.5 -46l8 -7q51 -43 71.5 -82.5t20.5 -88.5q0 -87 -41 -149t-115.5 -94.5t-174.5 -32.5q-179 0 -281 84z" />
    <glyph glyph-name="uniFBFE" unicode="&#x6cc;" horiz-adv-x="345" arabic-form="initial" 
d="M-10 230h23q40 0 56 14.5t16 55.5v220h190v-294q0 -88 -27.5 -137.5t-78.5 -69t-130 -19.5h-49v230zM34 -248q-23 23 -23 56q0 34 23 57t56 23t56.5 -23t23.5 -57q0 -33 -23.5 -56t-56.5 -23t-56 23zM211 -248q-23 23 -23 56q0 34 23 57t56 23t56.5 -23t23.5 -57
q0 -33 -23.5 -56t-56.5 -23t-56 23z" />
    <glyph glyph-name="uniFBFF" unicode="&#x6cc;" horiz-adv-x="360" arabic-form="medial" 
d="M370 230v-230h-25q-35 0 -70.5 11.5t-58.5 36.5q-29 -26 -73 -37t-104 -11h-49v230h23q40 0 56 14.5t16 55.5v220h190v-220q0 -41 16 -55.5t55 -14.5h24zM34 -248q-23 23 -23 56q0 34 23 57t56 23t56.5 -23t23.5 -57q0 -33 -23.5 -56t-56.5 -23t-56 23zM211 -248
q-23 23 -23 56q0 34 23 57t56 23t56.5 -23t23.5 -57q0 -33 -23.5 -56t-56.5 -23t-56 23z" />
    <glyph glyph-name="uniFE82" unicode="&#x622;" horiz-adv-x="335" arabic-form="final" 
d="M118.5 49q-58.5 49 -58.5 167v544h190v-460q0 -41 16 -55.5t56 -14.5h23v-230h-59q-109 0 -167.5 49zM312 934v85q-29 -16 -52 -23t-56 -7t-56 7t-52 23l-109 -46l29 -74l80 35q44 -30 108 -30t108 30z" />
    <glyph glyph-name="uniFE84" unicode="&#x623;" horiz-adv-x="335" arabic-form="final" 
d="M118.5 49q-58.5 49 -58.5 167v544h190v-460q0 -41 16 -55.5t56 -14.5h23v-230h-59q-109 0 -167.5 49zM285 851h-270v84h53q-10 23 -10 48q0 57 36.5 93.5t98.5 36.5q38 0 68 -13l-3 -84q-9 4 -25.5 8.5t-34.5 4.5q-24 0 -40 -11t-16 -34q0 -24 16 -36.5t46 -12.5h81v-84z
" />
    <glyph glyph-name="uniFE86" unicode="&#x624;" horiz-adv-x="655" arabic-form="final" 
d="M665 230v-230h-65v-4q0 -151 -72.5 -223.5t-222.5 -72.5q-69 0 -125.5 13t-93.5 29l16 207q22 -8 79.5 -19t114.5 -11q62 0 87 18.5t27 62.5h-39q-152 0 -231.5 78.5t-79.5 222.5q0 145 75.5 217t232.5 72h232v-360h65zM410 230v155h-71q-45 0 -67 -18t-22 -61
t22.5 -59.5t64.5 -16.5h73zM503 681h-270v84h53q-10 23 -10 48q0 57 36.5 93.5t98.5 36.5q38 0 68 -13l-3 -84q-9 4 -25.5 8.5t-34.5 4.5q-24 0 -40 -11t-16 -34q0 -24 16 -36.5t46 -12.5h81v-84z" />
    <glyph glyph-name="uniFE88" unicode="&#x625;" horiz-adv-x="335" arabic-form="final" 
d="M118.5 49q-58.5 49 -58.5 167v544h190v-460q0 -41 16 -55.5t56 -14.5h23v-230h-59q-109 0 -167.5 49zM305 -322h-270v84h53q-10 23 -10 48q0 57 36.5 93.5t98.5 36.5q38 0 68 -13l-3 -84q-9 4 -25.5 8.5t-34.5 4.5q-24 0 -40 -11t-16 -34q0 -24 16 -36.5t46 -12.5h81v-84
z" />
    <glyph glyph-name="uniFE8A" unicode="&#x626;" horiz-adv-x="1020" arabic-form="final" 
d="M162 -186q-102 84 -102 242q0 59 13 108t31 76h187q-39 -67 -39 -144q0 -62 46.5 -99t145.5 -37q77 0 106.5 16.5t29.5 38.5q0 13 -9 26t-33 32l-6 5q-58 46 -83.5 85t-25.5 93q0 65 33.5 111t89.5 69.5t121 23.5t111.5 -20.5t77 -50t59.5 -71.5q37 -52 56 -70t46 -18h13
v-230h-30q-47 0 -79.5 16.5t-63 54t-81.5 114.5q-36 54 -64.5 76t-58.5 22q-20 0 -30 -8t-10 -19q0 -13 10.5 -26t50.5 -46l8 -7q51 -43 71.5 -82.5t20.5 -88.5q0 -87 -41 -149t-115.5 -94.5t-174.5 -32.5q-179 0 -281 84zM311 331h-270v84h53q-10 23 -10 48q0 57 36.5 93.5
t98.5 36.5q38 0 68 -13l-3 -84q-9 4 -25.5 8.5t-34.5 4.5q-24 0 -40 -11t-16 -34q0 -24 16 -36.5t46 -12.5h81v-84z" />
    <glyph glyph-name="uniFE8B" unicode="&#x626;" horiz-adv-x="345" arabic-form="initial" 
d="M-10 230h23q40 0 56 14.5t16 55.5v220h190v-294q0 -88 -27.5 -137.5t-78.5 -69t-130 -19.5h-49v230zM315 611h-270v84h53q-10 23 -10 48q0 57 36.5 93.5t98.5 36.5q38 0 68 -13l-3 -84q-9 4 -25.5 8.5t-34.5 4.5q-24 0 -40 -11t-16 -34q0 -24 16 -36.5t46 -12.5h81v-84z
" />
    <glyph glyph-name="uniFE8C" unicode="&#x626;" horiz-adv-x="360" arabic-form="medial" 
d="M370 230v-230h-25q-35 0 -70.5 11.5t-58.5 36.5q-29 -26 -73 -37t-104 -11h-49v230h23q40 0 56 14.5t16 55.5v220h190v-220q0 -41 16 -55.5t55 -14.5h24zM315 611h-270v84h53q-10 23 -10 48q0 57 36.5 93.5t98.5 36.5q38 0 68 -13l-3 -84q-9 4 -25.5 8.5t-34.5 4.5
q-24 0 -40 -11t-16 -34q0 -24 16 -36.5t46 -12.5h81v-84z" />
    <glyph glyph-name="uniFE8E" unicode="&#x627;" horiz-adv-x="335" arabic-form="final" 
d="M118.5 49q-58.5 49 -58.5 167v544h190v-460q0 -41 16 -55.5t56 -14.5h23v-230h-59q-109 0 -167.5 49z" />
    <glyph glyph-name="uniFE90" unicode="&#x628;" horiz-adv-x="1065" arabic-form="final" 
d="M1075 230v-230h-26q-29 0 -62.5 11.5t-55.5 36.5q-29 -25 -72 -36.5t-105 -11.5h-458q-82 0 -133.5 21t-77 70.5t-25.5 134.5v164h190v-90q0 -41 16 -55.5t56 -14.5h406q40 0 56 14.5t16 55.5v220h190v-220q0 -40 14 -55t46 -15h25zM442.5 -251.5q-25.5 25.5 -25.5 62.5
t25.5 63t62.5 26t62.5 -26t25.5 -63t-25.5 -62.5t-62.5 -25.5t-62.5 25.5z" />
    <glyph glyph-name="uniFE91" unicode="&#x628;" horiz-adv-x="345" arabic-form="initial" 
d="M-10 230h23q40 0 56 14.5t16 55.5v220h190v-294q0 -88 -27.5 -137.5t-78.5 -69t-130 -19.5h-49v230zM117.5 -251.5q-25.5 25.5 -25.5 62.5t25.5 63t62.5 26t62.5 -26t25.5 -63t-25.5 -62.5t-62.5 -25.5t-62.5 25.5z" />
    <glyph glyph-name="uniFE92" unicode="&#x628;" horiz-adv-x="360" arabic-form="medial" 
d="M370 230v-230h-25q-35 0 -70.5 11.5t-58.5 36.5q-29 -26 -73 -37t-104 -11h-49v230h23q40 0 56 14.5t16 55.5v220h190v-220q0 -41 16 -55.5t55 -14.5h24zM117.5 -251.5q-25.5 25.5 -25.5 62.5t25.5 63t62.5 26t62.5 -26t25.5 -63t-25.5 -62.5t-62.5 -25.5t-62.5 25.5z
" />
    <glyph glyph-name="uniFE94" unicode="&#x629;" horiz-adv-x="655" arabic-form="final" 
d="M665 230v-230h-315q-90 0 -155.5 34t-100 95.5t-34.5 141.5q0 116 73 182.5t214 66.5h42v85h190v-375h86zM389 325h-70q-39 0 -54 -12.5t-15 -37.5q0 -50 57 -50h82v100zM244 703q-23 23 -23 56q0 34 23 57t56 23t56.5 -23t23.5 -57q0 -33 -23.5 -56t-56.5 -23t-56 23z
M421 703q-23 23 -23 56q0 34 23 57t56 23t56.5 -23t23.5 -57q0 -33 -23.5 -56t-56.5 -23t-56 23z" />
    <glyph glyph-name="uniFE96" unicode="&#x62a;" horiz-adv-x="1065" arabic-form="final" 
d="M1075 230v-230h-26q-29 0 -62.5 11.5t-55.5 36.5q-29 -25 -72 -36.5t-105 -11.5h-458q-82 0 -133.5 21t-77 70.5t-25.5 134.5v164h190v-90q0 -41 16 -55.5t56 -14.5h406q40 0 56 14.5t16 55.5v220h190v-220q0 -40 14 -55t46 -15h25zM360 567q-23 23 -23 56q0 34 23 57
t56 23t56.5 -23t23.5 -57q0 -33 -23.5 -56t-56.5 -23t-56 23zM537 567q-23 23 -23 56q0 34 23 57t56 23t56.5 -23t23.5 -57q0 -33 -23.5 -56t-56.5 -23t-56 23z" />
    <glyph glyph-name="uniFE97" unicode="&#x62a;" horiz-adv-x="345" arabic-form="initial" 
d="M-10 230h23q40 0 56 14.5t16 55.5v220h190v-294q0 -88 -27.5 -137.5t-78.5 -69t-130 -19.5h-49v230zM35 688q-23 23 -23 56q0 34 23 57t56 23t56.5 -23t23.5 -57q0 -33 -23.5 -56t-56.5 -23t-56 23zM212 688q-23 23 -23 56q0 34 23 57t56 23t56.5 -23t23.5 -57
q0 -33 -23.5 -56t-56.5 -23t-56 23z" />
    <glyph glyph-name="uniFE98" unicode="&#x62a;" horiz-adv-x="360" arabic-form="medial" 
d="M370 230v-230h-25q-35 0 -70.5 11.5t-58.5 36.5q-29 -26 -73 -37t-104 -11h-49v230h23q40 0 56 14.5t16 55.5v220h190v-220q0 -41 16 -55.5t55 -14.5h24zM35 688q-23 23 -23 56q0 34 23 57t56 23t56.5 -23t23.5 -57q0 -33 -23.5 -56t-56.5 -23t-56 23zM212 688
q-23 23 -23 56q0 34 23 57t56 23t56.5 -23t23.5 -57q0 -33 -23.5 -56t-56.5 -23t-56 23z" />
    <glyph glyph-name="uniFE9A" unicode="&#x62b;" horiz-adv-x="1065" arabic-form="final" 
d="M1075 230v-230h-26q-29 0 -62.5 11.5t-55.5 36.5q-29 -25 -72 -36.5t-105 -11.5h-458q-82 0 -133.5 21t-77 70.5t-25.5 134.5v164h190v-90q0 -41 16 -55.5t56 -14.5h406q40 0 56 14.5t16 55.5v220h190v-220q0 -40 14 -55t46 -15h25zM559.5 759q23.5 -23 23.5 -56
q0 -34 -23.5 -57t-56.5 -23t-56 23t-23 57q0 33 23 56t56 23t56.5 -23zM473 605q23 -23 23 -56q0 -34 -23 -57t-56 -23t-56.5 23t-23.5 57q0 33 23.5 56t56.5 23t56 -23zM649.5 605q23.5 -23 23.5 -56q0 -34 -23.5 -57t-56.5 -23t-56 23t-23 57q0 33 23 56t56 23t56.5 -23z
" />
    <glyph glyph-name="uniFE9B" unicode="&#x62b;" horiz-adv-x="345" arabic-form="initial" 
d="M-10 230h23q40 0 56 14.5t16 55.5v220h190v-294q0 -88 -27.5 -137.5t-78.5 -69t-130 -19.5h-49v230zM234.5 880q23.5 -23 23.5 -56q0 -34 -23.5 -57t-56.5 -23t-56 23t-23 57q0 33 23 56t56 23t56.5 -23zM148 726q23 -23 23 -56q0 -34 -23 -57t-56 -23t-56.5 23t-23.5 57
q0 33 23.5 56t56.5 23t56 -23zM324.5 726q23.5 -23 23.5 -56q0 -34 -23.5 -57t-56.5 -23t-56 23t-23 57q0 33 23 56t56 23t56.5 -23z" />
    <glyph glyph-name="uniFE9C" unicode="&#x62b;" horiz-adv-x="360" arabic-form="medial" 
d="M370 230v-230h-25q-35 0 -70.5 11.5t-58.5 36.5q-29 -26 -73 -37t-104 -11h-49v230h23q40 0 56 14.5t16 55.5v220h190v-220q0 -41 16 -55.5t55 -14.5h24zM234.5 880q23.5 -23 23.5 -56q0 -34 -23.5 -57t-56.5 -23t-56 23t-23 57q0 33 23 56t56 23t56.5 -23zM148 726
q23 -23 23 -56q0 -34 -23 -57t-56 -23t-56.5 23t-23.5 57q0 33 23.5 56t56.5 23t56 -23zM324.5 726q23.5 -23 23.5 -56q0 -34 -23.5 -57t-56.5 -23t-56 23t-23 57q0 33 23 56t56 23t56.5 -23z" />
    <glyph glyph-name="uniFE9E" unicode="&#x62c;" horiz-adv-x="755" arabic-form="final" 
d="M765 230v-230h-25q-34 0 -64.5 11t-47.5 34q-59 -45 -170 -45h-140q-43 0 -60.5 -12t-17.5 -34q0 -29 26.5 -41.5t88.5 -12.5q32 0 44 1l-15 -200q-11 -1 -33 -1q-142 0 -226.5 66.5t-84.5 208.5q0 134 75 194.5t207 60.5h54q52 0 72 11.5t20 37.5q0 16 -5 36l-10 36
q-5 19 -14 29.5t-31.5 16.5t-64.5 6q-44 0 -91 -8.5t-76 -18.5l-14 196q26 10 97.5 21.5t136.5 11.5q103 0 156.5 -36.5t75.5 -119.5l35 -133l3 -13q13 -45 29.5 -59t45.5 -14h24zM632.5 -126q25.5 -26 25.5 -63t-25.5 -62.5t-62.5 -25.5t-62.5 25.5t-25.5 62.5t25.5 63
t62.5 26t62.5 -26z" />
    <glyph glyph-name="uniFE9F" unicode="&#x62c;" horiz-adv-x="620" arabic-form="initial" 
d="M-10 230h291q39 0 55.5 11.5t16.5 37.5q0 16 -5 36l-10 37q-5 19 -14 29.5t-31.5 16t-64.5 5.5q-38 0 -89 -9t-78 -18l-14 196q26 10 98 21.5t136 11.5q103 0 156.5 -36.5t75.5 -119.5l35 -133q9 -35 15.5 -74.5t6.5 -67.5q0 -68 -47.5 -121t-179.5 -53h-353v230z
M190.5 -251.5q-25.5 25.5 -25.5 62.5t25.5 63t62.5 26t62.5 -26t25.5 -63t-25.5 -62.5t-62.5 -25.5t-62.5 25.5z" />
    <glyph glyph-name="uniFEA0" unicode="&#x62c;" horiz-adv-x="640" arabic-form="medial" 
d="M650 230v-230h-25q-34 0 -64.5 11t-47.5 34q-59 -45 -170 -45h-353v230h291q39 0 55.5 11.5t16.5 37.5q0 16 -5 36l-10 37q-5 19 -14 29.5t-31.5 16t-64.5 5.5q-38 0 -89 -9t-78 -18l-14 196q26 10 98 21.5t136 11.5q103 0 156.5 -36.5t75.5 -119.5l35 -133l3 -13
q13 -45 29.5 -59t45.5 -14h24zM190.5 -251.5q-25.5 25.5 -25.5 62.5t25.5 63t62.5 26t62.5 -26t25.5 -63t-25.5 -62.5t-62.5 -25.5t-62.5 25.5z" />
    <glyph glyph-name="uniFEA2" unicode="&#x62d;" horiz-adv-x="755" arabic-form="final" 
d="M765 230v-230h-25q-34 0 -64.5 11t-47.5 34q-59 -45 -170 -45h-140q-43 0 -60.5 -12t-17.5 -34q0 -29 27 -41.5t92 -12.5q46 0 105 6t74 10l-14 -201q-22 -5 -76 -10t-97 -5q-142 0 -226.5 66.5t-84.5 208.5q0 132 72 193.5t190 61.5h74q52 0 72 11.5t20 37.5q0 16 -5 36
l-10 36q-5 19 -14 29.5t-31.5 16.5t-64.5 6q-44 0 -91 -8.5t-76 -18.5l-14 196q26 10 97.5 21.5t136.5 11.5q103 0 156.5 -36.5t75.5 -119.5l35 -133l3 -13q13 -45 29.5 -59t45.5 -14h24z" />
    <glyph glyph-name="uniFEA3" unicode="&#x62d;" horiz-adv-x="620" arabic-form="initial" 
d="M-10 230h291q39 0 55.5 11.5t16.5 37.5q0 16 -5 36l-10 37q-5 19 -14 29.5t-31.5 16t-64.5 5.5q-38 0 -89 -9t-78 -18l-14 196q26 10 98 21.5t136 11.5q103 0 156.5 -36.5t75.5 -119.5l35 -133q9 -35 15.5 -74.5t6.5 -67.5q0 -68 -47.5 -121t-179.5 -53h-353v230z" />
    <glyph glyph-name="uniFEA4" unicode="&#x62d;" horiz-adv-x="640" arabic-form="medial" 
d="M650 230v-230h-25q-34 0 -64.5 11t-47.5 34q-59 -45 -170 -45h-353v230h291q39 0 55.5 11.5t16.5 37.5q0 16 -5 36l-10 37q-5 19 -14 29.5t-31.5 16t-64.5 5.5q-38 0 -89 -9t-78 -18l-14 196q26 10 98 21.5t136 11.5q103 0 156.5 -36.5t75.5 -119.5l35 -133l3 -13
q13 -45 29.5 -59t45.5 -14h24z" />
    <glyph glyph-name="uniFEA6" unicode="&#x62e;" horiz-adv-x="755" arabic-form="final" 
d="M765 230v-230h-25q-34 0 -64.5 11t-47.5 34q-59 -45 -170 -45h-140q-43 0 -60.5 -12t-17.5 -34q0 -29 27 -41.5t92 -12.5q46 0 105 6t74 10l-14 -201q-22 -5 -76 -10t-97 -5q-142 0 -226.5 66.5t-84.5 208.5q0 132 72 193.5t190 61.5h74q52 0 72 11.5t20 37.5q0 16 -5 36
l-10 36q-5 19 -14 29.5t-31.5 16.5t-64.5 6q-44 0 -91 -8.5t-76 -18.5l-14 196q26 10 97.5 21.5t136.5 11.5q103 0 156.5 -36.5t75.5 -119.5l35 -133l3 -13q13 -45 29.5 -59t45.5 -14h24zM307.5 766.5q-25.5 25.5 -25.5 62.5t25.5 63t62.5 26t62.5 -26t25.5 -63t-25.5 -62.5
t-62.5 -25.5t-62.5 25.5z" />
    <glyph glyph-name="uniFEA7" unicode="&#x62e;" horiz-adv-x="620" arabic-form="initial" 
d="M-10 230h291q39 0 55.5 11.5t16.5 37.5q0 16 -5 36l-10 37q-5 19 -14 29.5t-31.5 16t-64.5 5.5q-38 0 -89 -9t-78 -18l-14 196q26 10 98 21.5t136 11.5q103 0 156.5 -36.5t75.5 -119.5l35 -133q9 -35 15.5 -74.5t6.5 -67.5q0 -68 -47.5 -121t-179.5 -53h-353v230z
M208.5 765.5q-25.5 25.5 -25.5 62.5t25.5 63t62.5 26t62.5 -26t25.5 -63t-25.5 -62.5t-62.5 -25.5t-62.5 25.5z" />
    <glyph glyph-name="uniFEA8" unicode="&#x62e;" horiz-adv-x="640" arabic-form="medial" 
d="M650 230v-230h-25q-34 0 -64.5 11t-47.5 34q-59 -45 -170 -45h-353v230h291q39 0 55.5 11.5t16.5 37.5q0 16 -5 36l-10 37q-5 19 -14 29.5t-31.5 16t-64.5 5.5q-38 0 -89 -9t-78 -18l-14 196q26 10 98 21.5t136 11.5q103 0 156.5 -36.5t75.5 -119.5l35 -133l3 -13
q13 -45 29.5 -59t45.5 -14h24zM208.5 765.5q-25.5 25.5 -25.5 62.5t25.5 63t62.5 26t62.5 -26t25.5 -63t-25.5 -62.5t-62.5 -25.5t-62.5 25.5z" />
    <glyph glyph-name="uniFEAA" unicode="&#x62f;" horiz-adv-x="565" arabic-form="final" 
d="M575 230v-230h-25q-42 0 -74 17t-42 54q-65 -71 -208 -71h-186v230h177q42 0 54.5 9t12.5 24q0 21 -38.5 47.5t-88.5 48.5l-32 14l38 243l33 -16q104 -49 182.5 -129t100.5 -177q11 -40 27 -52t45 -12h24z" />
    <glyph glyph-name="uniFEAC" unicode="&#x630;" horiz-adv-x="565" arabic-form="final" 
d="M575 230v-230h-25q-42 0 -74 17t-42 54q-65 -71 -208 -71h-186v230h177q42 0 54.5 9t12.5 24q0 21 -38.5 47.5t-88.5 48.5l-32 14l38 243l33 -16q104 -49 182.5 -129t100.5 -177q11 -40 27 -52t45 -12h24zM113.5 762.5q-25.5 25.5 -25.5 62.5t25.5 63t62.5 26t62.5 -26
t25.5 -63t-25.5 -62.5t-62.5 -25.5t-62.5 25.5z" />
    <glyph glyph-name="uniFEAE" unicode="&#x631;" horiz-adv-x="500" arabic-form="final" 
d="M510 230v-230h-15q-46 0 -70 21v-47q0 -244 -237 -244q-33 0 -74 5t-69 13l12 222q14 -3 47.5 -6t60.5 -3q36 0 53 15.5t17 56.5v487h190v-220q0 -41 16 -55.5t55 -14.5h14z" />
    <glyph glyph-name="uniFEB0" unicode="&#x632;" horiz-adv-x="500" arabic-form="final" 
d="M510 230v-230h-15q-46 0 -70 21v-47q0 -244 -237 -244q-33 0 -74 5t-69 13l12 222q14 -3 47.5 -6t60.5 -3q36 0 53 15.5t17 56.5v487h190v-220q0 -41 16 -55.5t55 -14.5h14zM263.5 679.5q-25.5 25.5 -25.5 62.5t25.5 63t62.5 26t62.5 -26t25.5 -63t-25.5 -62.5
t-62.5 -25.5t-62.5 25.5z" />
    <glyph glyph-name="uniFEB2" unicode="&#x633;" horiz-adv-x="1280" arabic-form="final" 
d="M1290 230v-230h-15q-35 0 -64 12.5t-44 38.5q-39 -56 -124 -56q-49 0 -84 21t-54 61q-33 -82 -115 -82q-65 0 -96 53q-10 -163 -92 -240.5t-222 -77.5q-96 0 -168 35.5t-112 106t-40 171.5q0 114 49 187h183q-41 -70 -41 -140q0 -62 31.5 -96t96.5 -34q52 0 79.5 22.5
t37 63t9.5 105.5v299h190v-125q0 -60 14 -80t35 -20q23 0 32 16t9 53v156h140v-125q0 -57 13 -78.5t37 -21.5q23 0 31.5 16t8.5 49v230h190v-220q0 -41 16 -55.5t55 -14.5h14z" />
    <glyph glyph-name="uniFEB3" unicode="&#x633;" horiz-adv-x="845" arabic-form="initial" 
d="M775 520v-315q0 -210 -159 -210q-49 0 -85 21t-56 62q-32 -83 -115 -83q-85 0 -113 91q-32 -86 -139 -86h-118v230h20q39 0 52 17t13 53v150h190v-125q0 -60 14 -80t35 -20q23 0 32 16t9 53v156h140v-125q0 -57 13 -78.5t37 -21.5q23 0 31.5 16t8.5 49v230h190z" />
    <glyph glyph-name="uniFEB4" unicode="&#x633;" horiz-adv-x="850" arabic-form="medial" 
d="M860 230v-230h-15q-35 0 -64.5 13t-43.5 39q-41 -57 -119 -57q-51 0 -87 21t-56 61q-32 -82 -115 -82q-85 0 -113 91q-32 -86 -139 -86h-118v230h20q39 0 52 17t13 53v150h190v-125q0 -60 14 -80t35 -20q23 0 32 16t9 53v156h140v-125q0 -57 13 -78.5t37 -21.5
q23 0 31.5 16t8.5 49v230h190v-220q0 -41 16 -55.5t55 -14.5h14z" />
    <glyph glyph-name="uniFEB6" unicode="&#x634;" horiz-adv-x="1280" arabic-form="final" 
d="M1290 230v-230h-15q-35 0 -64 12.5t-44 38.5q-39 -56 -124 -56q-49 0 -84 21t-54 61q-33 -82 -115 -82q-65 0 -96 53q-10 -163 -92 -240.5t-222 -77.5q-96 0 -168 35.5t-112 106t-40 171.5q0 114 49 187h183q-41 -70 -41 -140q0 -62 31.5 -96t96.5 -34q52 0 79.5 22.5
t37 63t9.5 105.5v299h190v-125q0 -60 14 -80t35 -20q23 0 32 16t9 53v156h140v-125q0 -57 13 -78.5t37 -21.5q23 0 31.5 16t8.5 49v230h190v-220q0 -41 16 -55.5t55 -14.5h14zM869.5 840q23.5 -23 23.5 -56q0 -34 -23.5 -57t-56.5 -23t-56 23t-23 57q0 33 23 56t56 23
t56.5 -23zM783 686q23 -23 23 -56q0 -34 -23 -57t-56 -23t-56.5 23t-23.5 57q0 33 23.5 56t56.5 23t56 -23zM959.5 686q23.5 -23 23.5 -56q0 -34 -23.5 -57t-56.5 -23t-56 23t-23 57q0 33 23 56t56 23t56.5 -23z" />
    <glyph glyph-name="uniFEB7" unicode="&#x634;" horiz-adv-x="845" arabic-form="initial" 
d="M775 520v-315q0 -210 -159 -210q-49 0 -85 21t-56 62q-32 -83 -115 -83q-85 0 -113 91q-32 -86 -139 -86h-118v230h20q39 0 52 17t13 53v150h190v-125q0 -60 14 -80t35 -20q23 0 32 16t9 53v156h140v-125q0 -57 13 -78.5t37 -21.5q23 0 31.5 16t8.5 49v230h190z
M426.5 840q23.5 -23 23.5 -56q0 -34 -23.5 -57t-56.5 -23t-56 23t-23 57q0 33 23 56t56 23t56.5 -23zM340 686q23 -23 23 -56q0 -34 -23 -57t-56 -23t-56.5 23t-23.5 57q0 33 23.5 56t56.5 23t56 -23zM516.5 686q23.5 -23 23.5 -56q0 -34 -23.5 -57t-56.5 -23t-56 23t-23 57
q0 33 23 56t56 23t56.5 -23z" />
    <glyph glyph-name="uniFEB8" unicode="&#x634;" horiz-adv-x="850" arabic-form="medial" 
d="M860 230v-230h-15q-35 0 -64.5 13t-43.5 39q-41 -57 -119 -57q-51 0 -87 21t-56 61q-32 -82 -115 -82q-85 0 -113 91q-32 -86 -139 -86h-118v230h20q39 0 52 17t13 53v150h190v-125q0 -60 14 -80t35 -20q23 0 32 16t9 53v156h140v-125q0 -57 13 -78.5t37 -21.5
q23 0 31.5 16t8.5 49v230h190v-220q0 -41 16 -55.5t55 -14.5h14zM426.5 840q23.5 -23 23.5 -56q0 -34 -23.5 -57t-56.5 -23t-56 23t-23 57q0 33 23 56t56 23t56.5 -23zM340 686q23 -23 23 -56q0 -34 -23 -57t-56 -23t-56.5 23t-23.5 57q0 33 23.5 56t56.5 23t56 -23z
M516.5 686q23.5 -23 23.5 -56q0 -34 -23.5 -57t-56.5 -23t-56 23t-23 57q0 33 23 56t56 23t56.5 -23z" />
    <glyph glyph-name="uniFEBA" unicode="&#x635;" horiz-adv-x="1300" arabic-form="final" 
d="M1310 230v-230h-619q-18 -135 -99 -202.5t-212 -67.5q-96 0 -168 35.5t-112 106t-40 171.5q0 114 49 187h183q-41 -70 -41 -140q0 -62 31.5 -96t96.5 -34q52 0 79.5 22.5t37 63t9.5 105.5v369h190v-173q63 96 131 142t166 46q122 0 175 -79.5t57 -225.5h86zM836.5 323
q-42.5 -31 -90.5 -103h288q-1 67 -25 100.5t-79 33.5q-51 0 -93.5 -31z" />
    <glyph glyph-name="uniFEBB" unicode="&#x635;" horiz-adv-x="855" arabic-form="initial" 
d="M743.5 447q51.5 -88 51.5 -251v-196h-805v230h85v290h190v-173q63 96 131 142t166 46q130 0 181.5 -88zM406.5 323q-42.5 -31 -90.5 -103h288q-1 67 -25 100.5t-79 33.5q-51 0 -93.5 -31z" />
    <glyph glyph-name="uniFEBC" unicode="&#x635;" horiz-adv-x="870" arabic-form="medial" 
d="M880 230v-230h-890v230h85v290h190v-173q63 96 131 142t166 46q122 0 175 -79.5t57 -225.5h86zM406.5 323q-42.5 -31 -90.5 -103h288q-1 67 -25 100.5t-79 33.5q-51 0 -93.5 -31z" />
    <glyph glyph-name="uniFEBE" unicode="&#x636;" horiz-adv-x="1300" arabic-form="final" 
d="M1310 230v-230h-619q-18 -135 -99 -202.5t-212 -67.5q-96 0 -168 35.5t-112 106t-40 171.5q0 114 49 187h183q-41 -70 -41 -140q0 -62 31.5 -96t96.5 -34q52 0 79.5 22.5t37 63t9.5 105.5v369h190v-173q63 96 131 142t166 46q122 0 175 -79.5t57 -225.5h86zM836.5 323
q-42.5 -31 -90.5 -103h288q-1 67 -25 100.5t-79 33.5q-51 0 -93.5 -31zM902.5 679.5q-25.5 25.5 -25.5 62.5t25.5 63t62.5 26t62.5 -26t25.5 -63t-25.5 -62.5t-62.5 -25.5t-62.5 25.5z" />
    <glyph glyph-name="uniFEBF" unicode="&#x636;" horiz-adv-x="855" arabic-form="initial" 
d="M743.5 447q51.5 -88 51.5 -251v-196h-805v230h85v290h190v-173q63 96 131 142t166 46q130 0 181.5 -88zM406.5 323q-42.5 -31 -90.5 -103h288q-1 67 -25 100.5t-79 33.5q-51 0 -93.5 -31zM455.5 679.5q-25.5 25.5 -25.5 62.5t25.5 63t62.5 26t62.5 -26t25.5 -63
t-25.5 -62.5t-62.5 -25.5t-62.5 25.5z" />
    <glyph glyph-name="uniFEC0" unicode="&#x636;" horiz-adv-x="870" arabic-form="medial" 
d="M880 230v-230h-890v230h85v290h190v-173q63 96 131 142t166 46q122 0 175 -79.5t57 -225.5h86zM406.5 323q-42.5 -31 -90.5 -103h288q-1 67 -25 100.5t-79 33.5q-51 0 -93.5 -31zM455.5 679.5q-25.5 25.5 -25.5 62.5t25.5 63t62.5 26t62.5 -26t25.5 -63t-25.5 -62.5
t-62.5 -25.5t-62.5 25.5z" />
    <glyph glyph-name="uniFEC2" unicode="&#x637;" horiz-adv-x="950" arabic-form="final" 
d="M960 230v-230h-920v230h115v530h190v-413q63 96 131 142t166 46q122 0 175 -79.5t57 -225.5h86zM486.5 323q-42.5 -31 -90.5 -103h288q-1 67 -25 100.5t-79 33.5q-51 0 -93.5 -31z" />
    <glyph glyph-name="uniFEC3" unicode="&#x637;" horiz-adv-x="855" arabic-form="initial" 
d="M743.5 447q51.5 -88 51.5 -251v-196h-805v230h85v530h190v-413q63 96 131 142t166 46q130 0 181.5 -88zM406.5 323q-42.5 -31 -90.5 -103h288q-1 67 -25 100.5t-79 33.5q-51 0 -93.5 -31z" />
    <glyph glyph-name="uniFEC4" unicode="&#x637;" horiz-adv-x="870" arabic-form="medial" 
d="M880 230v-230h-890v230h85v530h190v-413q63 96 131 142t166 46q122 0 175 -79.5t57 -225.5h86zM406.5 323q-42.5 -31 -90.5 -103h288q-1 67 -25 100.5t-79 33.5q-51 0 -93.5 -31z" />
    <glyph glyph-name="uniFEC6" unicode="&#x638;" horiz-adv-x="950" arabic-form="final" 
d="M960 230v-230h-920v230h115v530h190v-413q63 96 131 142t166 46q122 0 175 -79.5t57 -225.5h86zM486.5 323q-42.5 -31 -90.5 -103h288q-1 67 -25 100.5t-79 33.5q-51 0 -93.5 -31zM565.5 679.5q-25.5 25.5 -25.5 62.5t25.5 63t62.5 26t62.5 -26t25.5 -63t-25.5 -62.5
t-62.5 -25.5t-62.5 25.5z" />
    <glyph glyph-name="uniFEC7" unicode="&#x638;" horiz-adv-x="855" arabic-form="initial" 
d="M743.5 447q51.5 -88 51.5 -251v-196h-805v230h85v530h190v-413q63 96 131 142t166 46q130 0 181.5 -88zM406.5 323q-42.5 -31 -90.5 -103h288q-1 67 -25 100.5t-79 33.5q-51 0 -93.5 -31zM485.5 679.5q-25.5 25.5 -25.5 62.5t25.5 63t62.5 26t62.5 -26t25.5 -63
t-25.5 -62.5t-62.5 -25.5t-62.5 25.5z" />
    <glyph glyph-name="uniFEC8" unicode="&#x638;" horiz-adv-x="870" arabic-form="medial" 
d="M880 230v-230h-890v230h85v530h190v-413q63 96 131 142t166 46q122 0 175 -79.5t57 -225.5h86zM406.5 323q-42.5 -31 -90.5 -103h288q-1 67 -25 100.5t-79 33.5q-51 0 -93.5 -31zM485.5 679.5q-25.5 25.5 -25.5 62.5t25.5 63t62.5 26t62.5 -26t25.5 -63t-25.5 -62.5
t-62.5 -25.5t-62.5 25.5z" />
    <glyph glyph-name="uniFECA" unicode="&#x639;" horiz-adv-x="790" arabic-form="final" 
d="M257.5 -12q-17.5 -12 -17.5 -34q0 -28 27.5 -41t92.5 -13q66 0 147 11l-16 -201q-74 -10 -140 -10q-142 0 -226.5 66.5t-84.5 208.5q0 99 41.5 158t114.5 82q-46 55 -106 101l7 5l-7 -5l-10 178q54 38 140 74.5t195 36.5q89 0 153.5 -29.5t98.5 -80.5t34 -115
q0 -81 -52 -150h151v-230h-482q-43 0 -60.5 -12zM286 377q70 -66 119 -141q52 11 73.5 32t21.5 53q0 34 -24.5 51.5t-80.5 17.5q-44 0 -109 -13z" />
    <glyph glyph-name="uniFECB" unicode="&#x639;" horiz-adv-x="650" arabic-form="initial" 
d="M610 230v-230h-620v230h148q-53 60 -53 147q0 109 76.5 168.5t200.5 59.5q51 0 102.5 -9t71.5 -19l-15 -198q-20 7 -51 11.5t-57 4.5q-51 0 -80.5 -20.5t-29.5 -60.5q0 -41 37.5 -62.5t125.5 -21.5h144z" />
    <glyph glyph-name="uniFECC" unicode="&#x639;" horiz-adv-x="780" arabic-form="medial" 
d="M790 230v-230h-62q-175 0 -360 42q-132 -42 -289 -42h-89v230h183q-43 48 -93 86l7 5l-7 -5l-10 178q53 36 141 73.5t199 37.5q87 0 150.5 -29t97 -79.5t33.5 -113.5q0 -79 -50 -153h149zM276 377q70 -66 119 -141q53 10 74 32t21 53q0 34 -24.5 51.5t-80.5 17.5
q-44 0 -109 -13z" />
    <glyph glyph-name="uniFECE" unicode="&#x63a;" horiz-adv-x="790" arabic-form="final" 
d="M257.5 -12q-17.5 -12 -17.5 -34q0 -28 27.5 -41t92.5 -13q66 0 147 11l-16 -201q-74 -10 -140 -10q-142 0 -226.5 66.5t-84.5 208.5q0 99 41.5 158t114.5 82q-46 55 -106 101l7 5l-7 -5l-10 178q54 38 140 74.5t195 36.5q89 0 153.5 -29.5t98.5 -80.5t34 -115
q0 -81 -52 -150h151v-230h-482q-43 0 -60.5 -12zM286 377q70 -66 119 -141q52 11 73.5 32t21.5 53q0 34 -24.5 51.5t-80.5 17.5q-44 0 -109 -13zM324.5 760.5q-25.5 25.5 -25.5 62.5t25.5 63t62.5 26t62.5 -26t25.5 -63t-25.5 -62.5t-62.5 -25.5t-62.5 25.5z" />
    <glyph glyph-name="uniFECF" unicode="&#x63a;" horiz-adv-x="650" arabic-form="initial" 
d="M610 230v-230h-620v230h148q-53 60 -53 147q0 109 76.5 168.5t200.5 59.5q51 0 102.5 -9t71.5 -19l-15 -198q-20 7 -51 11.5t-57 4.5q-51 0 -80.5 -20.5t-29.5 -60.5q0 -41 37.5 -62.5t125.5 -21.5h144zM279.5 765.5q-25.5 25.5 -25.5 62.5t25.5 63t62.5 26t62.5 -26
t25.5 -63t-25.5 -62.5t-62.5 -25.5t-62.5 25.5z" />
    <glyph glyph-name="uniFED0" unicode="&#x63a;" horiz-adv-x="780" arabic-form="medial" 
d="M790 230v-230h-62q-175 0 -360 42q-132 -42 -289 -42h-89v230h183q-43 48 -93 86l7 5l-7 -5l-10 178q53 36 141 73.5t199 37.5q87 0 150.5 -29t97 -79.5t33.5 -113.5q0 -79 -50 -153h149zM276 377q70 -66 119 -141q53 10 74 32t21 53q0 34 -24.5 51.5t-80.5 17.5
q-44 0 -109 -13zM327.5 758.5q-25.5 25.5 -25.5 62.5t25.5 63t62.5 26t62.5 -26t25.5 -63t-25.5 -62.5t-62.5 -25.5t-62.5 25.5z" />
    <glyph glyph-name="uniFED2" unicode="&#x641;" horiz-adv-x="1150" arabic-form="final" 
d="M1160 230v-230h-864q-86 0 -137 22.5t-75 71.5t-24 132v153h190v-79q0 -41 16 -55.5t56 -14.5h221q-8 37 -8 71q0 145 75.5 217t232.5 72h232v-360h85zM885 385h-71q-45 0 -67 -18t-22 -61t22.5 -59.5t64.5 -16.5h73v155zM799.5 750.5q-25.5 25.5 -25.5 62.5t25.5 63
t62.5 26t62.5 -26t25.5 -63t-25.5 -62.5t-62.5 -25.5t-62.5 25.5z" />
    <glyph glyph-name="uniFED3" unicode="&#x641;" horiz-adv-x="685" arabic-form="initial" 
d="M615 590v-590h-625v230h112q-27 51 -27 113q0 116 77 181.5t231 65.5h232zM425 230v155h-71q-45 0 -67 -18t-22 -61t22.5 -59.5t64.5 -16.5h73zM320.5 750.5q-25.5 25.5 -25.5 62.5t25.5 63t62.5 26t62.5 -26t25.5 -63t-25.5 -62.5t-62.5 -25.5t-62.5 25.5z" />
    <glyph glyph-name="uniFED4" unicode="&#x641;" horiz-adv-x="690" arabic-form="medial" 
d="M700 230v-230h-710v230h112q-27 51 -27 113q0 116 77 181.5t231 65.5h232v-360h85zM287 367q-22 -18 -22 -61t22.5 -59.5t64.5 -16.5h73v155h-71q-45 0 -67 -18zM320.5 750.5q-25.5 25.5 -25.5 62.5t25.5 63t62.5 26t62.5 -26t25.5 -63t-25.5 -62.5t-62.5 -25.5
t-62.5 25.5z" />
    <glyph glyph-name="uniFED6" unicode="&#x642;" horiz-adv-x="1005" arabic-form="final" 
d="M1015 230v-230h-85q-2 -101 -36 -160t-100 -84.5t-171 -25.5h-177q-188 0 -287 84.5t-99 240.5q0 61 15 118.5t34 86.5h187q-20 -33 -32.5 -76t-12.5 -78q0 -71 41.5 -108.5t153.5 -37.5h214q33 0 50.5 8.5t24.5 31.5h-34q-152 0 -231.5 78.5t-79.5 222.5q0 145 75.5 217
t232.5 72h232v-360h85zM740 230v155h-71q-45 0 -67 -18t-22 -61t22.5 -59.5t64.5 -16.5h73zM578 758q-23 23 -23 56q0 34 23 57t56 23t56.5 -23t23.5 -57q0 -33 -23.5 -56t-56.5 -23t-56 23zM755 758q-23 23 -23 56q0 34 23 57t56 23t56.5 -23t23.5 -57q0 -33 -23.5 -56
t-56.5 -23t-56 23z" />
    <glyph glyph-name="uniFED7" unicode="&#x642;" horiz-adv-x="685" arabic-form="initial" 
d="M615 590v-590h-625v230h112q-27 51 -27 113q0 116 77 181.5t231 65.5h232zM425 230v155h-71q-45 0 -67 -18t-22 -61t22.5 -59.5t64.5 -16.5h73zM238 758q-23 23 -23 56q0 34 23 57t56 23t56.5 -23t23.5 -57q0 -33 -23.5 -56t-56.5 -23t-56 23zM415 758q-23 23 -23 56
q0 34 23 57t56 23t56.5 -23t23.5 -57q0 -33 -23.5 -56t-56.5 -23t-56 23z" />
    <glyph glyph-name="uniFED8" unicode="&#x642;" horiz-adv-x="690" arabic-form="medial" 
d="M700 230v-230h-710v230h112q-27 51 -27 113q0 116 77 181.5t231 65.5h232v-360h85zM287 367q-22 -18 -22 -61t22.5 -59.5t64.5 -16.5h73v155h-71q-45 0 -67 -18zM238 758q-23 23 -23 56q0 34 23 57t56 23t56.5 -23t23.5 -57q0 -33 -23.5 -56t-56.5 -23t-56 23zM415 758
q-23 23 -23 56q0 34 23 57t56 23t56.5 -23t23.5 -57q0 -33 -23.5 -56t-56.5 -23t-56 23z" />
    <glyph glyph-name="uniFEDA" unicode="&#x643;" horiz-adv-x="850" arabic-form="final" 
d="M860 230v-230h-15q-38 0 -71 14t-48 43q-28 -30 -72.5 -43.5t-109.5 -13.5h-253q-80 0 -130 21t-75.5 70.5t-25.5 134.5v153h190v-79q0 -41 16 -55.5t56 -14.5h191q40 0 56 14.5t16 55.5v460h190v-460q0 -41 16 -55.5t55 -14.5h14zM500.5 394.5q-20.5 -15.5 -67.5 -15.5
h-114v69h112q12 0 18 3t6 13v6q0 19 -24 19h-104v68q17 41 61 84.5t84 64.5l31 -75q-34 -17 -59 -34t-44 -40h34q48 0 67.5 -19.5t19.5 -60.5v-26q0 -41 -20.5 -56.5z" />
    <glyph glyph-name="uniFEDB" unicode="&#x643;" horiz-adv-x="615" arabic-form="initial" 
d="M457.5 486q52.5 -20 75 -64t22.5 -122v-94q0 -76 -22 -120.5t-75.5 -65t-147.5 -20.5h-320v230h328q47 0 47 37v12q0 37 -47 37h-268v190q35 53 98.5 108.5t152 103t190.5 72.5l15 -201q-96 -22 -215 -83h19q95 0 147.5 -20z" />
    <glyph glyph-name="uniFEDC" unicode="&#x643;" horiz-adv-x="630" arabic-form="medial" 
d="M640 230v-230h-15q-36 0 -68.5 13t-48.5 39q-28 -27 -76 -39.5t-122 -12.5h-320v230h328q47 0 47 37v12q0 37 -47 37h-268v190q35 53 98.5 108.5t152 103t190.5 72.5l15 -201q-96 -22 -215 -83h19q95 0 147.5 -20t75 -64t22.5 -122v-6q0 -37 16 -50.5t55 -13.5h14z" />
    <glyph glyph-name="uniFEDE" unicode="&#x644;" horiz-adv-x="770" arabic-form="final" 
d="M780 230v-230h-15q-49 0 -74 24q-31 -294 -310 -294q-148 0 -234.5 80t-86.5 233q0 128 61 222h187q-57 -89 -57 -174q0 -62 31.5 -96.5t96.5 -34.5q52 0 80 23t37 63t9 102v612h190v-460q0 -41 16 -55.5t55 -14.5h14z" />
    <glyph glyph-name="uniFEDF" unicode="&#x644;" horiz-adv-x="335" arabic-form="initial" 
d="M-10 230h23q40 0 56 14.5t16 55.5v460h190v-534q0 -88 -27.5 -137.5t-78.5 -69t-130 -19.5h-49v230z" />
    <glyph glyph-name="uniFEE0" unicode="&#x644;" horiz-adv-x="360" arabic-form="medial" 
d="M370 230v-230h-25q-36 0 -72.5 12t-57.5 36q-29 -26 -72.5 -37t-103.5 -11h-49v230h23q40 0 56 14.5t16 55.5v460h190v-460q0 -41 16 -55.5t55 -14.5h24z" />
    <glyph glyph-name="uniFEE2" unicode="&#x645;" horiz-adv-x="736" arabic-form="final" 
d="M746 230v-230h-30q-73 0 -110 36q-36 -55 -94 -81.5t-129 -26.5q-48 0 -85 11q0 -88 -20 -139.5t-68.5 -75.5t-135.5 -24h-64l16 220q43 0 62.5 21t19.5 73v227q0 97 36.5 163.5t98.5 98.5t140 32q112 0 187 -65.5t86 -191.5l2 -12q3 -23 19 -29.5t52 -6.5h17z
M444.5 173.5q23.5 25.5 23.5 65.5q0 41 -23.5 66t-60.5 25q-38 0 -61.5 -25.5t-23.5 -65.5t24 -65.5t61 -25.5t60.5 25.5z" />
    <glyph glyph-name="uniFEE3" unicode="&#x645;" horiz-adv-x="688" arabic-form="initial" 
d="M493 502.5q62 -32.5 98.5 -99t36.5 -164.5q0 -158 -76.5 -234.5t-198.5 -76.5q-71 0 -129 26.5t-94 81.5q-37 -36 -110 -36h-30v230h17q36 0 52 6.5t19 29.5l2 12q11 126 86 191.5t187 65.5q78 0 140 -32.5zM414.5 173.5q23.5 25.5 23.5 65.5q0 41 -23.5 66t-60.5 25
q-38 0 -61.5 -25.5t-23.5 -65.5t24 -65.5t61 -25.5t60.5 25.5z" />
    <glyph glyph-name="uniFEE4" unicode="&#x645;" horiz-adv-x="706" arabic-form="medial" 
d="M716 230v-230h-30q-73 0 -110 36q-36 -55 -94 -81.5t-129 -26.5t-129 26.5t-94 81.5q-37 -36 -110 -36h-30v230h17q36 0 52 6.5t19 29.5l2 12q11 126 86 191.5t187 65.5t187 -65.5t86 -191.5l2 -12q3 -23 19 -29.5t52 -6.5h17zM414.5 173.5q23.5 25.5 23.5 65.5
q0 41 -23.5 66t-60.5 25q-38 0 -61.5 -25.5t-23.5 -65.5t24 -65.5t61 -25.5t60.5 25.5z" />
    <glyph glyph-name="uniFEE6" unicode="&#x646;" horiz-adv-x="770" arabic-form="final" 
d="M780 230v-230h-15q-49 0 -73 24q-15 -151 -96 -222.5t-216 -71.5q-96 0 -168 35.5t-112 106t-40 171.5q0 114 49 187h183q-41 -70 -41 -140q0 -62 31.5 -96t96.5 -34q52 0 79.5 22.5t37 63t9.5 105.5v299h190v-150q0 -41 16 -55.5t55 -14.5h14zM254.5 347.5
q-25.5 25.5 -25.5 62.5t25.5 63t62.5 26t62.5 -26t25.5 -63t-25.5 -62.5t-62.5 -25.5t-62.5 25.5z" />
    <glyph glyph-name="uniFEE7" unicode="&#x646;" horiz-adv-x="345" arabic-form="initial" 
d="M-10 230h23q40 0 56 14.5t16 55.5v220h190v-294q0 -88 -27.5 -137.5t-78.5 -69t-130 -19.5h-49v230zM117.5 680.5q-25.5 25.5 -25.5 62.5t25.5 63t62.5 26t62.5 -26t25.5 -63t-25.5 -62.5t-62.5 -25.5t-62.5 25.5z" />
    <glyph glyph-name="uniFEE8" unicode="&#x646;" horiz-adv-x="360" arabic-form="medial" 
d="M370 230v-230h-25q-35 0 -70.5 11.5t-58.5 36.5q-29 -26 -73 -37t-104 -11h-49v230h23q40 0 56 14.5t16 55.5v220h190v-220q0 -41 16 -55.5t55 -14.5h24zM117.5 680.5q-25.5 25.5 -25.5 62.5t25.5 63t62.5 26t62.5 -26t25.5 -63t-25.5 -62.5t-62.5 -25.5t-62.5 25.5z" />
    <glyph glyph-name="uniFEEA" unicode="&#x647;" horiz-adv-x="655" arabic-form="final" 
d="M665 230v-230h-315q-90 0 -155.5 34t-100 95.5t-34.5 141.5q0 116 73 182.5t214 66.5h42v85h190v-375h86zM389 325h-70q-39 0 -54 -12.5t-15 -37.5q0 -50 57 -50h82v100z" />
    <glyph glyph-name="uniFEEB" unicode="&#x647;" horiz-adv-x="750" arabic-form="initial" 
d="M580.5 560q109.5 -100 109.5 -365v-195h-700v230h132q-16 32 -16 69q0 66 46 107t129 41q91 0 135 -55t46 -162h47q-3 138 -59.5 197.5t-163.5 59.5q-50 0 -84 -8t-65 -20l-13 181q29 8 73.5 14t92.5 6q181 0 290.5 -100zM234.5 245q13.5 -15 45.5 -15h58v17
q0 29 -14.5 54.5t-51.5 25.5q-26 0 -38.5 -13t-12.5 -34q0 -20 13.5 -35z" />
    <glyph glyph-name="uniFEEC" unicode="&#x647;" horiz-adv-x="775" arabic-form="medial" 
d="M785 230v-230h-795v230h132q-16 32 -16 69q0 66 46 107t129 41q91 0 135 -55t46 -162h47q-3 138 -59.5 197.5t-163.5 59.5q-50 0 -84 -8t-65 -20l-13 181q29 8 73.5 14t92.5 6q175 0 283 -93t116 -337h96zM234.5 245q13.5 -15 45.5 -15h58v17q0 29 -14.5 54.5t-51.5 25.5
q-26 0 -38.5 -13t-12.5 -34q0 -20 13.5 -35z" />
    <glyph glyph-name="uniFEEE" unicode="&#x648;" horiz-adv-x="655" arabic-form="final" 
d="M665 230v-230h-65v-4q0 -151 -72.5 -223.5t-222.5 -72.5q-69 0 -125.5 13t-93.5 29l16 207q22 -8 79.5 -19t114.5 -11q62 0 87 18.5t27 62.5h-39q-152 0 -231.5 78.5t-79.5 222.5q0 145 75.5 217t232.5 72h232v-360h65zM410 230v155h-71q-45 0 -67 -18t-22 -61
t22.5 -59.5t64.5 -16.5h73z" />
    <glyph glyph-name="uniFEF0" unicode="&#x649;" horiz-adv-x="1020" arabic-form="final" 
d="M162 -186q-102 84 -102 242q0 59 13 108t31 76h187q-39 -67 -39 -144q0 -62 46.5 -99t145.5 -37q77 0 106.5 16.5t29.5 38.5q0 13 -9 26t-33 32l-6 5q-58 46 -83.5 85t-25.5 93q0 65 33.5 111t89.5 69.5t121 23.5t111.5 -20.5t77 -50t59.5 -71.5q37 -52 56 -70t46 -18h13
v-230h-30q-47 0 -79.5 16.5t-63 54t-81.5 114.5q-36 54 -64.5 76t-58.5 22q-20 0 -30 -8t-10 -19q0 -13 10.5 -26t50.5 -46l8 -7q51 -43 71.5 -82.5t20.5 -88.5q0 -87 -41 -149t-115.5 -94.5t-174.5 -32.5q-179 0 -281 84z" />
    <glyph glyph-name="uniFEF2" unicode="&#x64a;" horiz-adv-x="1020" arabic-form="final" 
d="M162 -186q-102 84 -102 242q0 59 13 108t31 76h187q-39 -67 -39 -144q0 -62 46.5 -99t145.5 -37q77 0 106.5 16.5t29.5 38.5q0 13 -9 26t-33 32l-6 5q-58 46 -83.5 85t-25.5 93q0 65 33.5 111t89.5 69.5t121 23.5t111.5 -20.5t77 -50t59.5 -71.5q37 -52 56 -70t46 -18h13
v-230h-30q-47 0 -79.5 16.5t-63 54t-81.5 114.5q-36 54 -64.5 76t-58.5 22q-20 0 -30 -8t-10 -19q0 -13 10.5 -26t50.5 -46l8 -7q51 -43 71.5 -82.5t20.5 -88.5q0 -87 -41 -149t-115.5 -94.5t-174.5 -32.5q-179 0 -281 84zM288 -516q-23 23 -23 56q0 34 23 57t56 23
t56.5 -23t23.5 -57q0 -33 -23.5 -56t-56.5 -23t-56 23zM465 -516q-23 23 -23 56q0 34 23 57t56 23t56.5 -23t23.5 -57q0 -33 -23.5 -56t-56.5 -23t-56 23z" />
    <glyph glyph-name="uniFEF3" unicode="&#x64a;" horiz-adv-x="345" arabic-form="initial" 
d="M-10 230h23q40 0 56 14.5t16 55.5v220h190v-294q0 -88 -27.5 -137.5t-78.5 -69t-130 -19.5h-49v230zM34 -248q-23 23 -23 56q0 34 23 57t56 23t56.5 -23t23.5 -57q0 -33 -23.5 -56t-56.5 -23t-56 23zM211 -248q-23 23 -23 56q0 34 23 57t56 23t56.5 -23t23.5 -57
q0 -33 -23.5 -56t-56.5 -23t-56 23z" />
    <glyph glyph-name="uniFEF4" unicode="&#x64a;" horiz-adv-x="360" arabic-form="medial" 
d="M370 230v-230h-25q-35 0 -70.5 11.5t-58.5 36.5q-29 -26 -73 -37t-104 -11h-49v230h23q40 0 56 14.5t16 55.5v220h190v-220q0 -41 16 -55.5t55 -14.5h24zM34 -248q-23 23 -23 56q0 34 23 57t56 23t56.5 -23t23.5 -57q0 -33 -23.5 -56t-56.5 -23t-56 23zM211 -248
q-23 23 -23 56q0 34 23 57t56 23t56.5 -23t23.5 -57q0 -33 -23.5 -56t-56.5 -23t-56 23z" />
    <glyph glyph-name=".notdef" horiz-adv-x="600" 
d="M100 705h400v-705h-400v705zM438 62v581h-276v-581h276z" />
    <glyph glyph-name=".null" horiz-adv-x="600" 
 />
    <glyph glyph-name="nonmarkingreturn" unicode="&#xd;" horiz-adv-x="600" 
 />
    <glyph glyph-name="space" unicode=" " horiz-adv-x="210" 
 />
    <glyph glyph-name="exclam" unicode="!" horiz-adv-x="336" 
d="M67 760h202l-18 -498h-166zM91.5 16.5q-31.5 31.5 -31.5 76.5q0 44 31.5 76t76.5 32t76.5 -32t31.5 -76q0 -45 -31.5 -76.5t-76.5 -31.5t-76.5 31.5z" />
    <glyph glyph-name="quotedbl" unicode="&#x22;" horiz-adv-x="551" 
d="M60 640v120h178v-120l-22 -156h-133zM313 640v120h178v-120l-22 -156h-133z" />
    <glyph glyph-name="numbersign" unicode="#" horiz-adv-x="926" 
d="M739 453l-36 -140h68v-149h-105l-42 -164h-206l42 164h-103l-42 -164h-206l42 164h-71v149h108l36 140h-68v148h106l40 159h206l-40 -159h103l40 159h206l-40 -159h69v-148h-107zM533 453h-103l-36 -140h103z" />
    <glyph glyph-name="dollar" unicode="$" horiz-adv-x="813" 
d="M671.5 69.5q-61.5 -60.5 -168.5 -77.5v-119h-189v122q-103 21 -162.5 82.5t-71.5 150.5l235 16q9 -92 98 -92q38 0 60 14.5t22 42.5q0 23 -16 36t-54 25l-86 27q-89 28 -142.5 60t-80 77.5t-26.5 111.5q0 98 62 153.5t162 70.5v111h189v-120q96 -25 148.5 -86t62.5 -128
l-235 -17q-14 80 -84 80q-30 0 -48 -13.5t-18 -36.5t17 -38t63 -29l90 -27q77 -23 127.5 -51.5t78.5 -74t28 -112.5q0 -98 -61.5 -158.5z" />
    <glyph glyph-name="percent" unicode="%" horiz-adv-x="1205" 
d="M180.5 361.5q-46.5 26.5 -73.5 76t-27 115.5q0 65 27 114t73.5 75.5t103.5 26.5t103 -26.5t73 -75.5t27 -114q0 -66 -27 -115.5t-73 -76t-103 -26.5t-103.5 26.5zM769 760h218l-554 -760h-218zM318.5 486.5q12.5 23.5 12.5 66.5q0 42 -12.5 65t-34.5 23q-23 0 -35.5 -23
t-12.5 -65q0 -43 12.5 -66.5t35.5 -23.5q22 0 34.5 23.5zM818.5 17.5q-46.5 26.5 -73.5 76t-27 114.5q0 66 27 115t73.5 75.5t103.5 26.5t103 -26.5t73 -75.5t27 -115q0 -65 -27 -114.5t-73 -76t-103 -26.5t-103.5 26.5zM957 142q12 23 12 66q0 42 -12.5 65.5t-34.5 23.5
q-23 0 -35.5 -23.5t-12.5 -65.5q0 -43 12.5 -66t35.5 -23t35 23z" />
    <glyph glyph-name="ampersand" unicode="&#x26;" horiz-adv-x="856" 
d="M610 0l-37 38q-93 -53 -214 -53q-86 0 -151 26t-101.5 75.5t-36.5 116.5q0 130 148 201q-43 47 -65 88t-22 87q0 56 31 100.5t89.5 70t137.5 25.5q86 0 143.5 -26t85 -69.5t27.5 -97.5q0 -65 -46.5 -115.5t-134.5 -80.5l103 -109q13 37 17 78h176q-5 -117 -70 -210
l136 -145h-216zM343.5 605.5q-15.5 -15.5 -15.5 -39.5q0 -21 12 -41t37 -46l6 -6q32 18 49 42t17 49t-15.5 41t-44.5 16q-30 0 -45.5 -15.5zM461 153l-142 147q-16 -16 -25 -36.5t-9 -40.5q0 -39 28.5 -62.5t77.5 -23.5q37 0 70 16z" />
    <glyph glyph-name="quotesingle" unicode="'" horiz-adv-x="298" 
d="M60 640v120h178v-120l-22 -156h-133z" />
    <glyph glyph-name="parenleft" unicode="(" horiz-adv-x="452" 
d="M207.5 -93.5q-59.5 24.5 -83.5 74.5t-24 131v553q0 81 24 131t83.5 74.5t164.5 24.5v-141q-51 0 -69 -24.5t-18 -74.5v-534q0 -49 18 -73.5t69 -24.5v-141q-105 0 -164.5 24.5z" />
    <glyph glyph-name="parenright" unicode=")" horiz-adv-x="452" 
d="M80 23q51 0 69 24.5t18 73.5v534q0 50 -18 74.5t-69 24.5v141q105 0 164.5 -24.5t83.5 -74.5t24 -131v-553q0 -81 -24 -131t-83.5 -74.5t-164.5 -24.5v141z" />
    <glyph glyph-name="asterisk" unicode="*" horiz-adv-x="674" 
d="M449 481l99 -109l-140 -102l-72 124l-72 -124l-139 102l98 108l-143 32l56 164l130 -61l-16 145h173l-13 -142l127 58l57 -164z" />
    <glyph glyph-name="plus" unicode="+" horiz-adv-x="616" 
d="M536 194h-153v-154h-149v154h-154v149h154v154h149v-154h153v-149z" />
    <glyph glyph-name="comma" unicode="," horiz-adv-x="318" 
d="M235.5 173.5q32.5 -30.5 32.5 -87.5q0 -41 -19 -87.5t-59.5 -90t-101.5 -72.5l-38 54q31 22 53 45.5t34 55.5q-37 7 -62 36.5t-25 68.5q0 44 31.5 76t77.5 32q44 0 76.5 -30.5z" />
    <glyph glyph-name="hyphen" unicode="-" horiz-adv-x="473" 
d="M60 351h353v-166h-353v166z" />
    <glyph glyph-name="period" unicode="." horiz-adv-x="316" 
d="M81.5 16.5q-31.5 31.5 -31.5 76.5q0 44 31.5 76t76.5 32t76.5 -32t31.5 -76q0 -45 -31.5 -76.5t-76.5 -31.5t-76.5 31.5z" />
    <glyph glyph-name="slash" unicode="/" horiz-adv-x="588" 
d="M303 760h235l-253 -760h-235z" />
    <glyph glyph-name="zero" unicode="0" horiz-adv-x="808" 
d="M216 33.5q-80 48.5 -123 137.5t-43 209t43 209t123 137.5t188 48.5t188 -48.5t123 -137.5t43 -209t-43 -209t-123 -137.5t-188 -48.5t-188 48.5zM490 239.5q32 49.5 32 140.5t-32 140.5t-86 49.5t-86 -49.5t-32 -140.5t32 -140.5t86 -49.5t86 49.5z" />
    <glyph glyph-name="one" unicode="1" horiz-adv-x="509" 
d="M399 760v-760h-228v494q-49 -12 -131 -12v181q87 0 136.5 22.5t65.5 74.5h157z" />
    <glyph glyph-name="two" unicode="2" horiz-adv-x="697" 
d="M304.5 225q-19.5 -18 -20.5 -41h350v-184h-604v83q0 85 13 140.5t54.5 102t123.5 85.5l101 48q49 23 68.5 40.5t19.5 42.5q0 24 -16.5 39t-47.5 15q-30 0 -48.5 -15t-23.5 -39l-225 15q20 98 100.5 158t216.5 60q133 0 207 -60.5t74 -170.5q0 -58 -22.5 -99.5t-66.5 -75
t-118 -69.5l-59 -29q-57 -28 -76.5 -46z" />
    <glyph glyph-name="three" unicode="3" horiz-adv-x="694" 
d="M615.5 339q33.5 -46 33.5 -112q0 -71 -36.5 -126t-104 -85.5t-158.5 -30.5q-120 0 -202.5 57.5t-107.5 172.5l227 16q15 -56 75 -56q34 0 53.5 19t19.5 52q0 35 -24.5 53.5t-74.5 18.5h-82v149h52q55 0 81.5 19.5t26.5 50.5q0 27 -15.5 43t-44.5 16q-55 0 -69 -54
l-224 15q21 96 101.5 157t210.5 61q90 0 150.5 -28.5t89 -74.5t28.5 -100q0 -52 -25 -93.5t-71 -69.5q57 -24 90.5 -70z" />
    <glyph glyph-name="four" unicode="4" horiz-adv-x="734" 
d="M724 140h-99v-140h-220v140h-365v167l121 453h229l-130 -453h145v213h220v-213h99v-167z" />
    <glyph glyph-name="five" unicode="5" horiz-adv-x="704" 
d="M549 485.5q56 -32.5 85.5 -89.5t29.5 -131q0 -84 -37.5 -147t-108 -98t-167.5 -35q-123 0 -204 58t-107 172l222 16q19 -71 90 -71q38 0 62.5 25t24.5 74q0 48 -23.5 74t-63.5 26q-31 0 -54.5 -14t-37.5 -40l-193 38v417h527v-171h-311v-102q59 31 134 31q76 0 132 -32.5
z" />
    <glyph glyph-name="six" unicode="6" horiz-adv-x="745" 
d="M585.5 485.5q55.5 -32.5 85 -90t29.5 -130.5q0 -84 -38 -147.5t-107.5 -98t-162.5 -34.5q-106 0 -183 45t-118 130t-41 203q0 112 35 205t111.5 150t195.5 57q117 0 189.5 -55t98.5 -142l-222 -14q-21 45 -74 45q-51 0 -74 -40t-26 -114q65 63 170 63q76 0 131.5 -32.5z
M452.5 188.5q22.5 28.5 22.5 71.5q0 42 -22.5 70.5t-65.5 28.5t-65.5 -28.5t-22.5 -70.5q0 -43 22.5 -71.5t65.5 -28.5t65.5 28.5z" />
    <glyph glyph-name="seven" unicode="7" horiz-adv-x="606" 
d="M616 760l-366 -760h-237l287 585h-290v175h606z" />
    <glyph glyph-name="eight" unicode="8" horiz-adv-x="724" 
d="M646 333q38 -47 38 -118q0 -68 -36 -120t-108 -81t-177 -29q-104 0 -177 28.5t-109.5 77.5t-36.5 111q0 60 35.5 107t106.5 77q-112 73 -112 186q0 91 73 147t226 56q103 0 170 -25.5t98 -68.5t31 -96q0 -56 -34.5 -99t-98.5 -70q73 -36 111 -83zM317.5 602
q-19.5 -16 -19.5 -43q0 -51 85 -82l15 -5q47 36 47 78q0 31 -22 49.5t-55 18.5q-31 0 -50.5 -16zM429 172q25 21 25 53q0 29 -24.5 47.5t-83.5 40.5l-30 11q-25 -22 -37 -43t-12 -47q0 -39 25 -61t68 -22q44 0 69 21z" />
    <glyph glyph-name="nine" unicode="9" horiz-adv-x="745" 
d="M605.5 675q89.5 -100 89.5 -287q0 -134 -44 -224.5t-119.5 -134.5t-170.5 -44q-118 0 -191.5 55.5t-105.5 141.5l222 15q24 -46 75 -46q48 0 73 37.5t28 116.5q-66 -63 -172 -63q-77 0 -132 33t-84 90t-29 130q0 84 37.5 147.5t107.5 98t164 34.5q162 0 251.5 -100z
M423.5 429.5q22.5 28.5 22.5 70.5q0 43 -23 71.5t-66 28.5q-42 0 -64.5 -28.5t-22.5 -71.5q0 -42 22 -70.5t66 -28.5q43 0 65.5 28.5z" />
    <glyph glyph-name="colon" unicode=":" horiz-adv-x="316" 
d="M81.5 16.5q-31.5 31.5 -31.5 76.5q0 44 31.5 76t76.5 32t76.5 -32t31.5 -76q0 -45 -31.5 -76.5t-76.5 -31.5t-76.5 31.5zM81.5 342.5q-31.5 31.5 -31.5 76.5q0 44 31.5 76t76.5 32t76.5 -32t31.5 -76q0 -45 -31.5 -76.5t-76.5 -31.5t-76.5 31.5z" />
    <glyph glyph-name="semicolon" unicode=";" horiz-adv-x="318" 
d="M81.5 342.5q-31.5 31.5 -31.5 76.5q0 44 31.5 76t76.5 32t76.5 -32t31.5 -76q0 -45 -31.5 -76.5t-76.5 -31.5t-76.5 31.5zM235.5 173.5q32.5 -30.5 32.5 -87.5q0 -41 -19 -87.5t-59.5 -90t-101.5 -72.5l-38 54q31 22 53 45.5t34 55.5q-37 7 -62 36.5t-25 68.5
q0 44 31.5 76t77.5 32q44 0 76.5 -30.5z" />
    <glyph glyph-name="less" unicode="&#x3c;" horiz-adv-x="594" 
d="M514 397l-276 -127l276 -137v-174l-434 234v153l434 225v-174z" />
    <glyph glyph-name="equal" unicode="=" horiz-adv-x="616" 
d="M80 464h456v-149h-456v149zM80 221h456v-149h-456v149z" />
    <glyph glyph-name="greater" unicode="&#x3e;" horiz-adv-x="594" 
d="M80 397l276 -127l-276 -137v-174l434 234v153l-434 225v-174z" />
    <glyph glyph-name="question" unicode="?" horiz-adv-x="655" 
d="M206 283q0 46 8 78.5t32.5 60t70.5 51.5l29 15q41 21 41 54q0 23 -15 36.5t-44 13.5q-60 0 -88 -63l-190 73q30 71 100.5 122t189.5 51q126 0 195.5 -57.5t69.5 -157.5q0 -122 -120 -188l-38 -21q-27 -15 -37 -32.5t-10 -40.5v-24h-194v29zM227.5 16.5
q-31.5 31.5 -31.5 76.5q0 44 31.5 76t76.5 32t76.5 -32t31.5 -76q0 -45 -31.5 -76.5t-76.5 -31.5t-76.5 31.5z" />
    <glyph glyph-name="at" unicode="@" horiz-adv-x="1204" 
d="M886.5 718q112.5 -57 175 -157t62.5 -224q0 -100 -35.5 -164t-91.5 -93t-119 -29q-69 0 -120 31t-75 86q-26 -52 -70.5 -84.5t-108.5 -32.5q-47 0 -88 22t-65.5 66.5t-24.5 109.5q0 68 27 128t75.5 96t110.5 36q85 0 129 -72l6 61h186l-24 -202q-2 -16 -2 -24
q0 -28 12.5 -44.5t39.5 -16.5q32 0 50.5 33.5t18.5 93.5q0 91 -43 156t-117.5 99t-167.5 34q-111 0 -196.5 -50t-132 -134t-46.5 -182q0 -95 41.5 -165.5t117 -109t173.5 -38.5q55 0 97 8t83 25l38 -142q-62 -25 -115 -34.5t-124 -9.5q-140 0 -249.5 59t-171.5 164.5
t-62 240.5q0 142 71 260t196.5 187t283.5 69q143 0 255.5 -57zM634 226q22 29 22 67q0 33 -15.5 53t-40.5 20q-32 0 -54 -27.5t-22 -67.5q0 -34 15.5 -54t41.5 -20q31 0 53 29z" />
    <glyph glyph-name="A" unicode="A" horiz-adv-x="751" 
d="M487 96h-223l-25 -96h-239l245 760h261l245 -760h-239zM447 254l-71 281l-72 -281h143z" />
    <glyph glyph-name="B" unicode="B" horiz-adv-x="676" 
d="M656 230q0 -107 -74.5 -168.5t-201.5 -61.5h-327v760h322q128 0 191 -52.5t63 -139.5q0 -105 -91 -158q118 -46 118 -180zM273 593v-128h69q35 0 53 19t18 47q0 29 -18.5 45.5t-54.5 16.5h-67zM415 192q23 22 23 60q0 35 -23 56t-65 21h-77v-159h77q42 0 65 22z" />
    <glyph glyph-name="C" unicode="C" horiz-adv-x="837" 
d="M224 36q-91 51 -141.5 141t-50.5 201t49.5 201.5t140 143t208.5 52.5q101 0 181 -39t131.5 -109t69.5 -162l-236 -17q-14 56 -53.5 88.5t-95.5 32.5q-73 0 -116.5 -52.5t-43.5 -133.5q0 -57 21.5 -99.5t58.5 -65.5t82 -23q55 0 95 33t54 86l234 -18q-18 -92 -68 -162
t-129.5 -109.5t-182.5 -39.5q-117 0 -208 51z" />
    <glyph glyph-name="D" unicode="D" horiz-adv-x="794" 
d="M566.5 709.5q95.5 -50.5 145.5 -137t50 -192.5t-50 -192.5t-145.5 -137t-224.5 -50.5h-289v760h289q129 0 224.5 -50.5zM471 232q53 48 53 149t-53 148t-150 47h-40v-392h40q97 0 150 48z" />
    <glyph glyph-name="E" unicode="E" horiz-adv-x="574" 
d="M534 184v-184h-481v760h480v-184h-252v-95h239v-176h-239v-121h253z" />
    <glyph glyph-name="F" unicode="F" horiz-adv-x="552" 
d="M281 576v-95h224v-175h-224v-306h-228v760h464v-184h-236z" />
    <glyph glyph-name="G" unicode="G" horiz-adv-x="833" 
d="M420 433h367v-323q-59 -56 -148.5 -90.5t-195.5 -34.5q-128 0 -221 52.5t-141.5 141.5t-48.5 198q0 114 50.5 204.5t139.5 142t200 51.5q108 0 185.5 -39.5t122.5 -98.5t63 -121l-242 -17q-14 27 -46.5 48.5t-82.5 21.5q-72 0 -113.5 -51t-41.5 -141q0 -92 45 -144.5
t134 -52.5q38 0 72.5 9t60.5 25v65h-159v154z" />
    <glyph glyph-name="H" unicode="H" horiz-adv-x="755" 
d="M702 760v-760h-228v299h-193v-299h-228v760h228v-277h193v277h228z" />
    <glyph glyph-name="I" unicode="I" horiz-adv-x="334" 
d="M53 760h228v-760h-228v760z" />
    <glyph glyph-name="J" unicode="J" horiz-adv-x="707" 
d="M186 17q-69 32 -110.5 96t-45.5 157l227 15q4 -46 26.5 -68t57.5 -22q88 0 88 107v458h228v-455q0 -106 -40 -177.5t-111 -107t-164 -35.5q-87 0 -156 32z" />
    <glyph glyph-name="K" unicode="K" horiz-adv-x="714" 
d="M332 281l-51 -66v-215h-228v760h228v-233l162 233h261l-239 -308l264 -452h-245z" />
    <glyph glyph-name="L" unicode="L" horiz-adv-x="533" 
d="M513 184v-184h-460v760h228v-576h232z" />
    <glyph glyph-name="M" unicode="M" horiz-adv-x="940" 
d="M671 0l-23 382l-128 -382h-100l-128 382l-23 -382h-239l60 760h252l128 -394l128 394h252l60 -760h-239z" />
    <glyph glyph-name="N" unicode="N" horiz-adv-x="765" 
d="M712 760v-760h-226l-207 429v-429h-226v760h226l207 -429v429h226z" />
    <glyph glyph-name="O" unicode="O" horiz-adv-x="857" 
d="M221 37.5q-90 52.5 -139.5 142.5t-49.5 200t49.5 200t139.5 142.5t208 52.5q117 0 207 -52.5t139.5 -143t49.5 -199.5t-49.5 -199.5t-139.5 -143t-207 -52.5q-118 0 -208 52.5zM510 218q37 23 58 65t21 97t-21 97t-58 65t-81 23q-45 0 -81.5 -23t-58 -65t-21.5 -97
t21.5 -97t58 -65t81.5 -23q44 0 81 23z" />
    <glyph glyph-name="P" unicode="P" horiz-adv-x="698" 
d="M590.5 685.5q77.5 -74.5 77.5 -202.5q0 -84 -34.5 -146.5t-101 -97t-160.5 -34.5h-91v-205h-228v760h318q142 0 219.5 -74.5zM410.5 409.5q26.5 29.5 26.5 73.5t-26.5 73t-82.5 29h-47v-205h48q55 0 81.5 29.5z" />
    <glyph glyph-name="Q" unicode="Q" horiz-adv-x="857" 
d="M798 229.5q-27 -70.5 -77 -124.5l93 -147l-185 -128l-105 165q-43 -10 -95 -10q-118 0 -208 52.5t-139.5 142.5t-49.5 200t49.5 200t139.5 142.5t208 52.5q117 0 207 -52.5t139.5 -143t49.5 -199.5q0 -80 -27 -150.5zM289.5 283q21.5 -42 58 -65t81.5 -23q44 0 81 23
t58 65t21 97t-21 97t-58 65t-81 23q-45 0 -81.5 -23t-58 -65t-21.5 -97t21.5 -97z" />
    <glyph glyph-name="R" unicode="R" horiz-adv-x="708" 
d="M363 205h-82v-205h-228v760h318q142 0 219.5 -74.5t77.5 -202.5q0 -75 -27.5 -133t-81.5 -95l134 -255h-233zM281 380h48q55 0 81.5 29.5t26.5 73.5t-26.5 73t-82.5 29h-47v-205z" />
    <glyph glyph-name="S" unicode="S" horiz-adv-x="717" 
d="M134 51.5q-86 66.5 -102 176.5l235 16q9 -92 98 -92q38 0 60 14.5t22 42.5q0 23 -16 36t-54 25l-86 27q-89 28 -142.5 60t-80 77.5t-26.5 111.5q0 78 40 129.5t106.5 75.5t146.5 24q106 0 178 -35t108.5 -87t44.5 -106l-235 -17q-14 80 -84 80q-30 0 -48 -13.5t-18 -36.5
t17 -38t63 -29l90 -27q77 -23 127.5 -51.5t78.5 -74t28 -112.5q0 -117 -86 -180t-230 -63q-149 0 -235 66.5z" />
    <glyph glyph-name="T" unicode="T" horiz-adv-x="643" 
d="M623 576h-187v-576h-229v576h-187v184h603v-184z" />
    <glyph glyph-name="U" unicode="U" horiz-adv-x="771" 
d="M138 70q-88 85 -88 259v431h229v-439q0 -66 30 -96t77 -30t76.5 30t29.5 96v439h229v-431q0 -174 -88 -259t-247 -85q-160 0 -248 85z" />
    <glyph glyph-name="V" unicode="V" horiz-adv-x="731" 
d="M731 760l-244 -760h-244l-243 760h237l128 -523l128 523h238z" />
    <glyph glyph-name="W" unicode="W" horiz-adv-x="1080" 
d="M1070 760l-194 -760h-234l-102 443l-103 -443h-234l-193 760h238l87 -530l104 530h201l105 -532l87 532h238z" />
    <glyph glyph-name="X" unicode="X" horiz-adv-x="744" 
d="M493 0l-121 212l-121 -212h-251l256 396l-239 364h253l102 -195l102 195h253l-237 -364l254 -396h-251z" />
    <glyph glyph-name="Y" unicode="Y" horiz-adv-x="699" 
d="M714 760l-379 -760h-236l147 294l-256 466h246l116 -253l126 253h236z" />
    <glyph glyph-name="Z" unicode="Z" horiz-adv-x="686" 
d="M355 184h302v-184h-642l316 576h-271v184h611z" />
    <glyph glyph-name="bracketleft" unicode="[" horiz-adv-x="519" 
d="M439 31v-149h-339v1013h334v-149h-149v-715h154z" />
    <glyph glyph-name="backslash" unicode="\" horiz-adv-x="588" 
d="M285 760h-235l253 -760h235z" />
    <glyph glyph-name="bracketright" unicode="]" horiz-adv-x="519" 
d="M80 31v-149h339v1013h-334v-149h149v-715h-154z" />
    <glyph glyph-name="asciicircum" unicode="^" horiz-adv-x="611" 
d="M349 391l-41 124l-46 -124h-182l136 263h188l127 -263h-182z" />
    <glyph glyph-name="underscore" unicode="_" horiz-adv-x="610" 
d="M30 -46h550v-148h-550v148z" />
    <glyph glyph-name="grave" unicode="`" horiz-adv-x="376" 
d="M256 760l70 -174h-131l-145 174h206z" />
    <glyph glyph-name="a" unicode="a" horiz-adv-x="699" 
d="M651 520v-520h-205l-15 83q-55 -98 -165 -98q-62 0 -114.5 31t-84 93t-31.5 150q0 83 29 145.5t79.5 96.5t114.5 34q61 0 104.5 -30.5t67.5 -75.5v91h220zM411.5 184.5q24.5 29.5 24.5 75.5t-24 75t-64 29t-64 -29t-24 -75q0 -47 24 -76t64 -29q39 0 63.5 29.5z" />
    <glyph glyph-name="b" unicode="b" horiz-adv-x="701" 
d="M554 503q51 -32 81 -94t30 -148q0 -88 -31 -150.5t-83.5 -94t-114.5 -31.5q-57 0 -99 25.5t-67 70.5l-15 -81h-205v760h220v-332q25 50 68.5 78.5t102.5 28.5q62 0 113 -32zM416 184q24 29 24 75q0 47 -24 76t-63 29q-40 0 -64 -29t-24 -75t24.5 -75.5t63.5 -29.5t63 29z
" />
    <glyph glyph-name="c" unicode="c" horiz-adv-x="662" 
d="M169.5 21.5q-67.5 36.5 -100.5 98.5t-33 139q0 78 34 140.5t102.5 99t168.5 36.5q125 0 197 -57.5t89 -156.5l-210 -16q-20 59 -76 59q-39 0 -63 -29t-24 -76t23 -75.5t62 -28.5q31 0 52 16t30 46l207 -15q-18 -97 -91.5 -157t-201.5 -60q-98 0 -165.5 36.5z" />
    <glyph glyph-name="d" unicode="d" horiz-adv-x="701" 
d="M651 760v-760h-205l-15 83q-55 -98 -165 -98q-62 0 -114.5 31t-84 93t-31.5 150q0 83 29 145.5t79.5 96.5t114.5 34q61 0 104.5 -30t67.5 -75v330h220zM411.5 184.5q24.5 29.5 24.5 75.5t-24 75t-64 29t-64 -29t-24 -75q0 -47 24.5 -76t63.5 -29t63.5 29.5z" />
    <glyph glyph-name="e" unicode="e" horiz-adv-x="681" 
d="M642 207h-387q6 -37 29.5 -59.5t58.5 -22.5q24 0 42.5 12t28.5 30l216 -15q-69 -167 -294 -167q-95 0 -162.5 35.5t-102.5 97.5t-35 141t34.5 141.5t102 98.5t162.5 36q149 0 229.5 -73t80.5 -209q0 -25 -3 -46zM283 370.5q-23 -23.5 -28 -65.5h174q-3 43 -25 66t-61 23
q-37 0 -60 -23.5z" />
    <glyph glyph-name="f" unicode="f" horiz-adv-x="427" 
d="M311.5 602.5q-15.5 -17.5 -15.5 -60.5v-22h122v-166h-122v-354h-218v354h-73l13 166h60v39q0 110 52.5 163t163.5 53q39 0 88 -7.5t70 -14.5l-10 -141q-38 8 -77 8q-38 0 -53.5 -17.5z" />
    <glyph glyph-name="g" unicode="g" horiz-adv-x="699" 
d="M651 520v-490q0 -121 -76.5 -185.5t-219.5 -64.5q-123 0 -194.5 44.5t-94.5 122.5l222 16q14 -46 67 -46q41 0 58.5 24t17.5 76v79q-54 -94 -165 -94q-62 0 -114.5 30t-84 88.5t-31.5 138.5q0 83 29 145.5t80 96.5t114 34q61 0 104 -29.5t67 -74.5l16 89h205zM412 187
q24 29 24 75q0 45 -24.5 73.5t-63.5 28.5t-63.5 -28.5t-24.5 -73.5q0 -46 24.5 -75t63.5 -29q40 0 64 29z" />
    <glyph glyph-name="h" unicode="h" horiz-adv-x="665" 
d="M577 475.5q44 -59.5 44 -162.5v-313h-220v272q0 56 -14 79t-47 23q-38 0 -54 -28t-16 -76v-270h-220v760h220v-313q29 42 72.5 65t98.5 23q92 0 136 -59.5z" />
    <glyph glyph-name="i" unicode="i" horiz-adv-x="324" 
d="M80 618q-34 34 -34 82t34 81.5t82 33.5t81.5 -33.5t33.5 -81.5t-33.5 -82t-81.5 -34t-82 34zM52 520h220v-520h-220v520z" />
    <glyph glyph-name="j" unicode="j" horiz-adv-x="342" 
d="M97 618q-34 34 -34 82t34 81.5t82 33.5t82 -33.5t34 -81.5t-34 -82t-82 -34t-82 34zM5 -215q-37 5 -65 13l12 156q32 -7 56 -7q37 0 50 17.5t13 60.5v495h218v-526q0 -109 -52.5 -161.5t-162.5 -52.5q-32 0 -69 5z" />
    <glyph glyph-name="k" unicode="k" horiz-adv-x="621" 
d="M295 195l-29 -29v-166h-216v760h216v-359l99 119h250l-196 -199l217 -321h-217z" />
    <glyph glyph-name="l" unicode="l" horiz-adv-x="384" 
d="M145 8q-50 23 -72.5 76.5t-22.5 149.5v526h218v-530q0 -40 18.5 -58.5t60.5 -18.5h15l12 -161q-35 -7 -91 -7q-88 0 -138 23z" />
    <glyph glyph-name="m" unicode="m" horiz-adv-x="970" 
d="M881.5 475.5q44.5 -59.5 44.5 -162.5v-313h-220v276q0 54 -12 76t-38 22q-59 0 -59 -105v-269h-220v276q0 54 -12.5 76t-38.5 22q-58 0 -58 -104v-270h-220v520h196l21 -69q54 84 156 84q59 0 99 -29t59 -81q25 53 68.5 81.5t102.5 28.5q87 0 131.5 -59.5z" />
    <glyph glyph-name="n" unicode="n" horiz-adv-x="663" 
d="M574.5 475.5q44.5 -59.5 44.5 -162.5v-313h-220v272q0 56 -14.5 79t-47.5 23q-69 0 -69 -104v-270h-220v520h196l23 -74q28 43 72 66t100 23q91 0 135.5 -59.5z" />
    <glyph glyph-name="o" unicode="o" horiz-adv-x="684" 
d="M171 21.5q-69 36.5 -102 98.5t-33 140t33 140t102 98.5t171 36.5t170.5 -36.5t102 -98.5t33.5 -140t-33.5 -140t-102 -98.5t-170.5 -36.5t-171 36.5zM404.5 184q24.5 29 24.5 76q0 46 -24.5 75t-62.5 29q-39 0 -63.5 -29t-24.5 -75q0 -47 24.5 -76t63.5 -29q38 0 62.5 29
z" />
    <glyph glyph-name="p" unicode="p" horiz-adv-x="701" 
d="M554 503q51 -32 81 -94.5t30 -148.5q0 -88 -31 -150t-83.5 -93.5t-114.5 -31.5q-57 0 -99 25.5t-67 70.5v-286h-220v725h205l16 -91q25 49 68.5 77.5t101.5 28.5q62 0 113 -32zM416 184q24 29 24 76q0 46 -24 75t-63 29q-40 0 -64 -29t-24 -75t24.5 -75.5t63.5 -29.5
t63 29z" />
    <glyph glyph-name="q" unicode="q" horiz-adv-x="701" 
d="M651 520v-725h-220v288q-55 -98 -165 -98q-62 0 -114.5 31t-84 93t-31.5 150q0 83 29 145.5t79.5 96.5t114.5 34q61 0 104 -29.5t67 -74.5l16 89h205zM412 184q24 29 24 76q0 46 -24 75t-64 29t-64 -29t-24 -75q0 -47 24.5 -76t63.5 -29q40 0 64 29z" />
    <glyph glyph-name="r" unicode="r" horiz-adv-x="476" 
d="M466 528l-15 -193q-47 9 -76 9q-51 0 -79 -30.5t-28 -90.5v-223h-220v520h192l27 -99q25 57 64 85.5t87 28.5q27 0 48 -7z" />
    <glyph glyph-name="s" unicode="s" horiz-adv-x="589" 
d="M15 145l225 15q1 -28 16.5 -42t38.5 -14q53 0 53 41q0 18 -19 27.5t-75 23.5l-48 12q-90 23 -134.5 57.5t-44.5 104.5q0 165 259 165q118 0 185.5 -35t83.5 -108l-213 -14q-2 19 -15.5 30t-35.5 11q-21 0 -33 -8.5t-12 -23.5q0 -13 16 -21t57 -18l50 -12
q69 -17 110.5 -35.5t65.5 -52t24 -89.5q0 -174 -277 -174q-245 0 -277 160z" />
    <glyph glyph-name="t" unicode="t" horiz-adv-x="470" 
d="M440 -3q-67 -12 -143 -12q-114 0 -164.5 52.5t-50.5 169.5v147h-77l11 166h66v129h218v-129h129v-166h-129v-125q0 -40 14.5 -58t53.5 -18q30 0 60 6z" />
    <glyph glyph-name="u" unicode="u" horiz-adv-x="658" 
d="M610 520v-520h-196l-22 74q-27 -43 -68.5 -66t-93.5 -23q-186 0 -186 211v324h220v-279q0 -54 14 -74.5t45 -20.5q67 0 67 104v270h220z" />
    <glyph glyph-name="v" unicode="v" horiz-adv-x="625" 
d="M635 520l-210 -520h-224l-211 520h233l90 -336l89 336h233z" />
    <glyph glyph-name="w" unicode="w" horiz-adv-x="887" 
d="M887 520l-170 -520h-210l-63 265l-64 -265h-210l-170 520h233l59 -322l66 322h171l67 -322l58 322h233z" />
    <glyph glyph-name="x" unicode="x" horiz-adv-x="606" 
d="M380 0l-77 143l-77 -143h-236l195 261l-189 259h237l70 -128l70 128h237l-188 -259l194 -261h-236z" />
    <glyph glyph-name="y" unicode="y" horiz-adv-x="660" 
d="M612 520v-490q0 -123 -77.5 -186.5t-211.5 -63.5q-238 0 -283 165l223 18q7 -24 21 -35t40 -11q38 0 53 25t15 77v69q-27 -41 -68 -63t-92 -22q-186 0 -186 211v306h220v-261q0 -54 14 -74.5t46 -20.5q66 0 66 104v252h220z" />
    <glyph glyph-name="z" unicode="z" horiz-adv-x="569" 
d="M327 162h218v-162h-535l219 359h-191l11 161h500z" />
    <glyph glyph-name="braceleft" unicode="{" horiz-adv-x="523" 
d="M344.5 456q-19.5 -41 -56.5 -67q37 -25 56.5 -66t19.5 -94v-120q0 -41 17 -63.5t62 -22.5v-141h-51q-108 0 -160.5 51.5t-52.5 160.5v144q0 40 -17.5 62.5t-61.5 22.5v132q44 0 61.5 22.5t17.5 62.5v142q0 109 52.5 161t160.5 52h51v-141q-45 0 -62 -22.5t-17 -63.5v-118
q0 -53 -19.5 -94z" />
    <glyph glyph-name="bar" unicode="|" horiz-adv-x="469" 
d="M120 760h229v-965h-229v965z" />
    <glyph glyph-name="braceright" unicode="}" horiz-adv-x="523" 
d="M178.5 456q19.5 -41 56.5 -67q-37 -25 -56.5 -66t-19.5 -94v-120q0 -41 -17 -63.5t-62 -22.5v-141h51q108 0 160.5 51.5t52.5 160.5v144q0 40 17.5 62.5t61.5 22.5v132q-44 0 -61.5 22.5t-17.5 62.5v142q0 109 -52.5 161t-160.5 52h-51v-141q45 0 62 -22.5t17 -63.5v-118
q0 -53 19.5 -94z" />
    <glyph glyph-name="asciitilde" unicode="~" horiz-adv-x="620" 
d="M363 335q-24 7 -53 20q-60 27 -109 27q-71 0 -121 -44v153q21 21 52 32t67 11q29 0 51.5 -6.5t56.5 -20.5q30 -13 55.5 -20t53.5 -7q76 0 124 44v-153q-21 -21 -53 -32t-69 -11q-31 0 -55 7z" />
    <glyph glyph-name="uni00A0" unicode="&#xa0;" horiz-adv-x="210" 
 />
    <glyph glyph-name="exclamdown" unicode="&#xa1;" horiz-adv-x="336" 
d="M244.5 538.5q31.5 -31.5 31.5 -76.5q0 -44 -31.5 -76t-76.5 -32t-76.5 32t-31.5 76q0 45 31.5 76.5t76.5 31.5t76.5 -31.5zM251 293l18 -498h-202l18 498h166z" />
    <glyph glyph-name="cent" unicode="&#xa2;" horiz-adv-x="752" 
d="M607 70q-50 -55 -135 -75v-122h-193v124q-98 25 -148.5 95.5t-50.5 166.5t50.5 167t148.5 96v116h193v-112q86 -18 135.5 -71.5t63.5 -133.5l-210 -16q-20 59 -76 59q-39 0 -63 -29t-24 -76t23 -75.5t62 -28.5q31 0 52 16t30 46l207 -15q-15 -77 -65 -132z" />
    <glyph glyph-name="sterling" unicode="&#xa3;" horiz-adv-x="725" 
d="M645 166v-166h-564v166h115q26 37 26 82q0 10 -2 28h-123v105h68l-3 3q-82 90 -82 176q0 59 31.5 108t93 78t146.5 29q133 0 205.5 -59t87.5 -162l-210 -14q-6 24 -21.5 38.5t-41.5 14.5t-40.5 -13.5t-14.5 -34.5q0 -18 13 -38t45 -55q38 -43 54 -71h155v-105h-123v-2
q0 -57 -30 -108h215z" />
    <glyph glyph-name="currency" unicode="&#xa4;" horiz-adv-x="832" 
d="M678 235l74 -72l-140 -140l-89 91q-53 -17 -108 -17q-56 0 -107 17l-89 -91l-139 140l73 71q-35 59 -35 126q0 68 34 124l-72 71l140 139l88 -89q51 17 107 17t109 -17l87 89l141 -139l-73 -71q34 -57 34 -124q0 -69 -35 -125zM471.5 293.5q21.5 25.5 21.5 66.5t-22 66.5
t-56 25.5t-55.5 -26t-21.5 -66q0 -41 21.5 -66.5t55.5 -25.5q35 0 56.5 25.5z" />
    <glyph glyph-name="yen" unicode="&#xa5;" horiz-adv-x="836" 
d="M592 431h106v-106h-159l-6 -11v-53h165v-105h-165v-156h-229v156h-166v105h166v51l-6 13h-160v106h107l-165 329h237l101 -257l101 257h237z" />
    <glyph glyph-name="brokenbar" unicode="&#xa6;" horiz-adv-x="469" 
d="M120 760h229v-386h-229v386zM120 181h229v-386h-229v386z" />
    <glyph glyph-name="section" unicode="&#xa7;" horiz-adv-x="745" 
d="M634.5 76q19.5 -37 19.5 -84q0 -57 -31 -105.5t-92.5 -77.5t-147.5 -29q-97 0 -163.5 35t-100 86.5t-39.5 103.5l224 16q11 -76 77 -76q30 0 45.5 13t15.5 33q0 32 -57 49l-77 22q-106 30 -157 79t-51 122q0 89 75 152q-84 56 -84 149q0 57 31 105.5t92.5 77t147.5 28.5
q97 0 163.5 -35t100 -86.5t39.5 -102.5l-224 -17q-11 77 -77 77q-29 0 -45 -13.5t-16 -32.5q0 -33 57 -49l77 -22q106 -30 157 -79t51 -122q0 -88 -74 -152q44 -28 63.5 -65zM328 247q23 -22 87 -43q25 29 25 58q0 26 -22.5 48t-87.5 42q-25 -27 -25 -58q0 -25 23 -47z" />
    <glyph glyph-name="dieresis" unicode="&#xa8;" horiz-adv-x="533" 
d="M77 625.5q-27 27.5 -27 65.5q0 39 27 66t65 27t65.5 -27t27.5 -66q0 -38 -27.5 -65.5t-65.5 -27.5t-65 27.5zM325.5 625.5q-27.5 27.5 -27.5 65.5q0 39 27.5 66t65.5 27t65 -27t27 -66q0 -38 -27 -65.5t-65 -27.5t-65.5 27.5z" />
    <glyph glyph-name="copyright" unicode="&#xa9;" horiz-adv-x="987" 
d="M279 37.5q-94 52.5 -146.5 143t-52.5 199.5t52.5 199.5t146.5 143t214 52.5q121 0 215 -52.5t146.5 -143t52.5 -199.5t-52.5 -199.5t-146.5 -143t-215 -52.5q-120 0 -214 52.5zM662.5 107q74.5 42 115.5 114t41 159t-41 159t-115.5 114t-169.5 42t-169 -42t-115.5 -114
t-41.5 -159t41.5 -159t115.5 -114t169 -42t169.5 42zM317.5 226q-60.5 61 -60.5 157t60.5 157t179.5 61q100 0 161.5 -45.5t70.5 -118.5l-175 -20q-6 24 -20 37t-35 13q-27 0 -44 -23.5t-17 -60.5t17 -60.5t44 -23.5q21 0 35.5 14t20.5 39l174 -19q-9 -74 -70 -121t-162 -47
q-119 0 -179.5 61z" />
    <glyph glyph-name="ordfeminine" unicode="&#xaa;" horiz-adv-x="623" 
d="M563 761v-435h-154l-11 57q-22 -35 -56.5 -53t-78.5 -18q-53 0 -99.5 26.5t-75 79t-28.5 126.5t28.5 126t75 78.5t99.5 26.5q87 0 134 -68v54h166zM372 476.5q24 27.5 24 67.5q0 39 -24 66.5t-58 27.5t-59 -28t-25 -66q0 -39 25 -67t59 -28t58 27.5z" />
    <glyph glyph-name="guillemotleft" unicode="&#xab;" horiz-adv-x="619" 
d="M170 480h159l-101 -208l101 -208h-159l-110 208zM400 480h159l-101 -208l101 -208h-159l-110 208z" />
    <glyph glyph-name="logicalnot" unicode="&#xac;" horiz-adv-x="694" 
d="M614 453v-287h-176v138h-358v149h534z" />
    <glyph glyph-name="uni00AD" unicode="&#xad;" horiz-adv-x="473" 
d="M60 351h353v-166h-353v166z" />
    <glyph glyph-name="registered" unicode="&#xae;" horiz-adv-x="737" 
d="M518 738.5q66 -36.5 102.5 -99t36.5 -138.5q0 -75 -36.5 -138t-102.5 -100t-150 -37q-83 0 -149 37t-102.5 100t-36.5 138q0 76 36.5 138.5t102 99t149.5 36.5t150 -36.5zM474 332q46 26 71.5 70.5t25.5 98.5q0 53 -25.5 98t-72 71t-105.5 26t-105 -26t-71.5 -71
t-25.5 -98q0 -54 25.5 -98.5t71.5 -70.5t105 -26q60 0 106 26zM473 506.5q-11 -19.5 -31 -31.5l50 -97h-94l-41 81h-2v-81h-87v260h110q51 0 78.5 -24t27.5 -64q0 -24 -11 -43.5zM355 577v-57h11q36 0 36 30q0 12 -9 19.5t-26 7.5h-12z" />
    <glyph glyph-name="macron" unicode="&#xaf;" horiz-adv-x="405" 
d="M50 755h305v-113h-305v113z" />
    <glyph glyph-name="degree" unicode="&#xb0;" horiz-adv-x="440" 
d="M139.5 486.5q-36.5 20.5 -58 56t-21.5 78.5q0 42 21.5 77.5t58 56t80.5 20.5q43 0 80 -20.5t58.5 -56t21.5 -77.5q0 -43 -21.5 -78.5t-58.5 -56t-80 -20.5q-44 0 -80.5 20.5zM258 583q16 16 16 38t-16 38t-38 16t-38.5 -16t-16.5 -38t16.5 -38t38.5 -16t38 16z" />
    <glyph glyph-name="plusminus" unicode="&#xb1;" horiz-adv-x="616" 
d="M536 397h-153v-154h-149v154h-154v149h154v154h149v-154h153v-149zM80 152h456v-149h-456v149z" />
    <glyph glyph-name="uni00B2" unicode="&#xb2;" horiz-adv-x="517" 
d="M249 478q-10 -8 -13 -23h197v-110h-353l1 2v57q0 65 23.5 107t90.5 68l67 26q17 7 23.5 14.5t6.5 19.5q0 11 -8 17.5t-22 6.5q-15 0 -26 -8t-15 -22l-140 9q12 55 63.5 91t126.5 36q79 0 122.5 -33t43.5 -90q0 -47 -25.5 -78.5t-79.5 -52.5l-46 -18q-27 -11 -37 -19z" />
    <glyph glyph-name="uni00B3" unicode="&#xb3;" horiz-adv-x="526" 
d="M431.5 517q14.5 -24 14.5 -55q0 -57 -47 -91.5t-131 -34.5q-81 0 -129.5 36t-58.5 95l145 10q7 -35 37 -35q17 0 27.5 8.5t10.5 26.5t-14.5 26t-44.5 8h-46v91h42q26 0 40 8.5t14 25.5q0 27 -30 27q-32 0 -40 -31l-140 11q13 55 63 90.5t129 35.5q77 0 119.5 -33
t42.5 -87q0 -59 -44 -93q26 -15 40.5 -39z" />
    <glyph glyph-name="acute" unicode="&#xb4;" horiz-adv-x="376" 
d="M181 586h-131l70 174h206z" />
    <glyph glyph-name="uni00B5" unicode="&#xb5;" horiz-adv-x="726" 
d="M646 520v-520h-196l-22 74q-46 -72 -128 -86v-193h-220v725h220v-279q0 -54 14 -74.5t45 -20.5q67 0 67 104v270h220z" />
    <glyph glyph-name="paragraph" unicode="&#xb6;" horiz-adv-x="1056" 
d="M976 594h-87v-799h-201v799h-123v-799h-200v394q-78 0 -143 38.5t-103.5 104.5t-38.5 143q0 78 38 143.5t103.5 103.5t143.5 38h611v-166z" />
    <glyph glyph-name="periodcentered" unicode="&#xb7;" horiz-adv-x="297" 
d="M79 338q-29 29 -29 69q0 41 29 69.5t69 28.5q41 0 70 -28.5t29 -69.5t-29 -69.5t-70 -28.5q-40 0 -69 29z" />
    <glyph glyph-name="cedilla" unicode="&#xb8;" horiz-adv-x="324" 
d="M247.5 -59.5q26.5 -22.5 26.5 -61.5q0 -45 -32.5 -72t-92.5 -27q-58 0 -99 24l26 63q26 -14 49 -14q16 0 26 8.5t10 24.5q0 12 -8 19t-21 7q-18 0 -34 -14l-32 21l31 110h78l-13 -67q5 1 16 1q43 0 69.5 -22.5z" />
    <glyph glyph-name="uni00B9" unicode="&#xb9;" horiz-adv-x="389" 
d="M309 760v-415h-146v227q-30 -8 -83 -8v141q53 0 89.5 13t47.5 42h92z" />
    <glyph glyph-name="ordmasculine" unicode="&#xba;" horiz-adv-x="601" 
d="M171.5 343q-54.5 31 -83 84t-28.5 117t28.5 116.5t83 83.5t129.5 31t129 -31t82.5 -84t28.5 -116q0 -64 -28.5 -117t-82.5 -84t-129 -31t-129.5 31zM354.5 473q21.5 25 21.5 71q0 45 -21.5 70t-54.5 25q-32 0 -53.5 -25t-21.5 -70q0 -46 21.5 -71t53.5 -25q33 0 54.5 25z
" />
    <glyph glyph-name="guillemotright" unicode="&#xbb;" horiz-adv-x="619" 
d="M449 480h-159l101 -208l-101 -208h159l110 208zM219 480h-159l101 -208l-101 -208h159l110 208z" />
    <glyph glyph-name="onequarter" unicode="&#xbc;" horiz-adv-x="1176" 
d="M309 760v-415h-146v227q-30 -8 -83 -8v141q53 0 89.5 13t47.5 42h92zM695 760h218l-554 -760h-218zM1096 87h-54v-87h-126v87h-211v112l75 215h129l-75 -215h82v116h126v-116h54v-112z" />
    <glyph glyph-name="onehalf" unicode="&#xbd;" horiz-adv-x="1110" 
d="M309 760v-415h-146v227q-30 -8 -83 -8v141q53 0 89.5 13t47.5 42h92zM842 133q-10 -8 -13 -23h197v-110h-353l1 2v57q0 65 23.5 107t90.5 68l67 26q17 7 23.5 14.5t6.5 19.5q0 11 -8 17.5t-22 6.5q-15 0 -26 -8t-15 -22l-140 9q12 55 63.5 91t126.5 36q79 0 122.5 -33
t43.5 -90q0 -47 -25.5 -78.5t-79.5 -52.5l-46 -18q-27 -11 -37 -19zM695 760h218l-554 -760h-218z" />
    <glyph glyph-name="threequarters" unicode="&#xbe;" horiz-adv-x="1260" 
d="M431.5 517q14.5 -24 14.5 -55q0 -57 -47 -91.5t-131 -34.5q-81 0 -129.5 36t-58.5 95l145 10q7 -35 37 -35q17 0 27.5 8.5t10.5 26.5t-14.5 26t-44.5 8h-46v91h42q26 0 40 8.5t14 25.5q0 27 -30 27q-32 0 -40 -31l-140 11q13 55 63 90.5t129 35.5q77 0 119.5 -33
t42.5 -87q0 -59 -44 -93q26 -15 40.5 -39zM783 760h218l-554 -760h-218zM1180 87h-54v-87h-126v87h-211v112l75 215h129l-75 -215h82v116h126v-116h54v-112z" />
    <glyph glyph-name="questiondown" unicode="&#xbf;" horiz-adv-x="655" 
d="M427.5 538.5q31.5 -31.5 31.5 -76.5q0 -44 -31.5 -76t-76.5 -32t-76.5 32t-31.5 76q0 45 31.5 76.5t76.5 31.5t76.5 -31.5zM449 272q0 -46 -8 -78.5t-32.5 -60t-70.5 -51.5l-29 -15q-41 -21 -41 -54q0 -23 15 -36.5t44 -13.5q60 0 88 63l190 -73q-30 -71 -100.5 -122
t-189.5 -51q-126 0 -195.5 57.5t-69.5 157.5q0 122 120 188l38 21q27 15 37 32.5t10 40.5v24h194v-29z" />
    <glyph glyph-name="Agrave" unicode="&#xc0;" horiz-adv-x="751" 
d="M487 96h-223l-25 -96h-239l245 760h261l245 -760h-239zM447 254l-71 281l-72 -281h143zM375 1001l70 -174h-131l-145 174h206z" />
    <glyph glyph-name="Aacute" unicode="&#xc1;" horiz-adv-x="751" 
d="M487 96h-223l-25 -96h-239l245 760h261l245 -760h-239zM447 254l-71 281l-72 -281h143zM436 827h-131l70 174h206z" />
    <glyph glyph-name="Acircumflex" unicode="&#xc2;" horiz-adv-x="751" 
d="M487 96h-223l-25 -96h-239l245 760h261l245 -760h-239zM447 254l-71 281l-72 -281h143zM435 832l-60 83l-61 -83h-155l153 169h125l153 -169h-155z" />
    <glyph glyph-name="Atilde" unicode="&#xc3;" horiz-adv-x="751" 
d="M487 96h-223l-25 -96h-239l245 760h261l245 -760h-239zM447 254l-71 281l-72 -281h143zM399.5 846.5q-22.5 8.5 -51.5 23.5q-21 11 -36 17t-29 6q-37 0 -69 -39l-71 63q24 52 62.5 83t93.5 31q29 0 51.5 -8.5t51.5 -23.5q23 -12 37.5 -17.5t29.5 -5.5q35 0 67 39l71 -62
q-22 -51 -62 -83t-95 -32q-28 0 -50.5 8.5z" />
    <glyph glyph-name="Adieresis" unicode="&#xc4;" horiz-adv-x="751" 
d="M487 96h-223l-25 -96h-239l245 760h261l245 -760h-239zM447 254l-71 281l-72 -281h143zM186 866.5q-27 27.5 -27 65.5q0 39 27 66t65 27t65.5 -27t27.5 -66q0 -38 -27.5 -65.5t-65.5 -27.5t-65 27.5zM434.5 866.5q-27.5 27.5 -27.5 65.5q0 39 27.5 66t65.5 27t65 -27
t27 -66q0 -38 -27 -65.5t-65 -27.5t-65.5 27.5z" />
    <glyph glyph-name="Aring" unicode="&#xc5;" horiz-adv-x="751" 
d="M487 96h-223l-25 -96h-239l245 760h261l245 -760h-239zM447 254l-71 281l-72 -281h143zM311 835.5q-29 17.5 -46 46.5t-17 63t17 63t46 46t64 17q34 0 63 -17t46 -46t17 -63t-17 -63t-46 -46.5t-63 -17.5q-35 0 -64 17.5zM413 905q15 16 15 40t-15 40t-38 16t-38.5 -16
t-15.5 -40t15.5 -40t38.5 -16t38 16z" />
    <glyph glyph-name="AE" unicode="&#xc6;" horiz-adv-x="1027" 
d="M987 184v-184h-467v127h-226l-62 -127h-237l423 760h568v-184h-237v-95h225v-175h-225v-122h238zM520 285v300l-148 -300h148z" />
    <glyph glyph-name="Ccedilla" unicode="&#xc7;" horiz-adv-x="837" 
d="M224 36q-91 51 -141.5 141t-50.5 201t49.5 201.5t140 143t208.5 52.5q101 0 181 -39t131.5 -109t69.5 -162l-236 -17q-14 56 -53.5 88.5t-95.5 32.5q-73 0 -116.5 -52.5t-43.5 -133.5q0 -57 21.5 -99.5t58.5 -65.5t82 -23q55 0 95 33t54 86l234 -18q-18 -92 -68 -162
t-129.5 -109.5t-182.5 -39.5q-117 0 -208 51zM534.5 -59.5q26.5 -22.5 26.5 -61.5q0 -45 -32.5 -72t-92.5 -27q-58 0 -99 24l26 63q26 -14 49 -14q16 0 26 8.5t10 24.5q0 12 -8 19t-21 7q-18 0 -34 -14l-32 21l31 110h78l-13 -67q5 1 16 1q43 0 69.5 -22.5z" />
    <glyph glyph-name="Egrave" unicode="&#xc8;" horiz-adv-x="574" 
d="M534 184v-184h-481v760h480v-184h-252v-95h239v-176h-239v-121h253zM295 1001l70 -174h-131l-145 174h206z" />
    <glyph glyph-name="Eacute" unicode="&#xc9;" horiz-adv-x="574" 
d="M534 184v-184h-481v760h480v-184h-252v-95h239v-176h-239v-121h253zM356 827h-131l70 174h206z" />
    <glyph glyph-name="Ecircumflex" unicode="&#xca;" horiz-adv-x="574" 
d="M534 184v-184h-481v760h480v-184h-252v-95h239v-176h-239v-121h253zM355 832l-60 83l-61 -83h-155l153 169h125l153 -169h-155z" />
    <glyph glyph-name="Edieresis" unicode="&#xcb;" horiz-adv-x="574" 
d="M534 184v-184h-481v760h480v-184h-252v-95h239v-176h-239v-121h253zM106 866.5q-27 27.5 -27 65.5q0 39 27 66t65 27t65.5 -27t27.5 -66q0 -38 -27.5 -65.5t-65.5 -27.5t-65 27.5zM354.5 866.5q-27.5 27.5 -27.5 65.5q0 39 27.5 66t65.5 27t65 -27t27 -66
q0 -38 -27 -65.5t-65 -27.5t-65.5 27.5z" />
    <glyph glyph-name="Igrave" unicode="&#xcc;" horiz-adv-x="334" 
d="M53 760h228v-760h-228v760zM167 1001l70 -174h-131l-145 174h206z" />
    <glyph glyph-name="Iacute" unicode="&#xcd;" horiz-adv-x="334" 
d="M53 760h228v-760h-228v760zM228 827h-131l70 174h206z" />
    <glyph glyph-name="Icircumflex" unicode="&#xce;" horiz-adv-x="334" 
d="M53 760h228v-760h-228v760zM227 832l-60 83l-61 -83h-155l153 169h125l153 -169h-155z" />
    <glyph glyph-name="Idieresis" unicode="&#xcf;" horiz-adv-x="334" 
d="M53 760h228v-760h-228v760zM-22 866.5q-27 27.5 -27 65.5q0 39 27 66t65 27t65.5 -27t27.5 -66q0 -38 -27.5 -65.5t-65.5 -27.5t-65 27.5zM226.5 866.5q-27.5 27.5 -27.5 65.5q0 39 27.5 66t65.5 27t65 -27t27 -66q0 -38 -27 -65.5t-65 -27.5t-65.5 27.5z" />
    <glyph glyph-name="Eth" unicode="&#xd0;" horiz-adv-x="829" 
d="M601.5 709.5q95.5 -50.5 145.5 -137t50 -192.5t-50 -192.5t-145.5 -137t-224.5 -50.5h-289v323h-78v149h78v288h289q129 0 224.5 -50.5zM506 232q53 48 53 149t-53 148t-150 47h-40v-104h111v-149h-111v-139h40q97 0 150 48z" />
    <glyph glyph-name="Ntilde" unicode="&#xd1;" horiz-adv-x="765" 
d="M712 760v-760h-226l-207 429v-429h-226v760h226l207 -429v429h226zM395.5 846.5q-22.5 8.5 -51.5 23.5q-21 11 -36 17t-29 6q-37 0 -69 -39l-71 63q24 52 62.5 83t93.5 31q29 0 51.5 -8.5t51.5 -23.5q23 -12 37.5 -17.5t29.5 -5.5q35 0 67 39l71 -62q-22 -51 -62 -83
t-95 -32q-28 0 -50.5 8.5z" />
    <glyph glyph-name="Ograve" unicode="&#xd2;" horiz-adv-x="857" 
d="M221 37.5q-90 52.5 -139.5 142.5t-49.5 200t49.5 200t139.5 142.5t208 52.5q117 0 207 -52.5t139.5 -143t49.5 -199.5t-49.5 -199.5t-139.5 -143t-207 -52.5q-118 0 -208 52.5zM510 218q37 23 58 65t21 97t-21 97t-58 65t-81 23q-45 0 -81.5 -23t-58 -65t-21.5 -97
t21.5 -97t58 -65t81.5 -23q44 0 81 23zM429 1001l70 -174h-131l-145 174h206z" />
    <glyph glyph-name="Oacute" unicode="&#xd3;" horiz-adv-x="857" 
d="M221 37.5q-90 52.5 -139.5 142.5t-49.5 200t49.5 200t139.5 142.5t208 52.5q117 0 207 -52.5t139.5 -143t49.5 -199.5t-49.5 -199.5t-139.5 -143t-207 -52.5q-118 0 -208 52.5zM510 218q37 23 58 65t21 97t-21 97t-58 65t-81 23q-45 0 -81.5 -23t-58 -65t-21.5 -97
t21.5 -97t58 -65t81.5 -23q44 0 81 23zM490 827h-131l70 174h206z" />
    <glyph glyph-name="Ocircumflex" unicode="&#xd4;" horiz-adv-x="857" 
d="M221 37.5q-90 52.5 -139.5 142.5t-49.5 200t49.5 200t139.5 142.5t208 52.5q117 0 207 -52.5t139.5 -143t49.5 -199.5t-49.5 -199.5t-139.5 -143t-207 -52.5q-118 0 -208 52.5zM510 218q37 23 58 65t21 97t-21 97t-58 65t-81 23q-45 0 -81.5 -23t-58 -65t-21.5 -97
t21.5 -97t58 -65t81.5 -23q44 0 81 23zM489 832l-60 83l-61 -83h-155l153 169h125l153 -169h-155z" />
    <glyph glyph-name="Otilde" unicode="&#xd5;" horiz-adv-x="857" 
d="M221 37.5q-90 52.5 -139.5 142.5t-49.5 200t49.5 200t139.5 142.5t208 52.5q117 0 207 -52.5t139.5 -143t49.5 -199.5t-49.5 -199.5t-139.5 -143t-207 -52.5q-118 0 -208 52.5zM510 218q37 23 58 65t21 97t-21 97t-58 65t-81 23q-45 0 -81.5 -23t-58 -65t-21.5 -97
t21.5 -97t58 -65t81.5 -23q44 0 81 23zM453.5 846.5q-22.5 8.5 -51.5 23.5q-21 11 -36 17t-29 6q-37 0 -69 -39l-71 63q24 52 62.5 83t93.5 31q29 0 51.5 -8.5t51.5 -23.5q23 -12 37.5 -17.5t29.5 -5.5q35 0 67 39l71 -62q-22 -51 -62 -83t-95 -32q-28 0 -50.5 8.5z" />
    <glyph glyph-name="Odieresis" unicode="&#xd6;" horiz-adv-x="857" 
d="M221 37.5q-90 52.5 -139.5 142.5t-49.5 200t49.5 200t139.5 142.5t208 52.5q117 0 207 -52.5t139.5 -143t49.5 -199.5t-49.5 -199.5t-139.5 -143t-207 -52.5q-118 0 -208 52.5zM510 218q37 23 58 65t21 97t-21 97t-58 65t-81 23q-45 0 -81.5 -23t-58 -65t-21.5 -97
t21.5 -97t58 -65t81.5 -23q44 0 81 23zM240 866.5q-27 27.5 -27 65.5q0 39 27 66t65 27t65.5 -27t27.5 -66q0 -38 -27.5 -65.5t-65.5 -27.5t-65 27.5zM488.5 866.5q-27.5 27.5 -27.5 65.5q0 39 27.5 66t65.5 27t65 -27t27 -66q0 -38 -27 -65.5t-65 -27.5t-65.5 27.5z" />
    <glyph glyph-name="multiply" unicode="&#xd7;" horiz-adv-x="616" 
d="M414 269l122 -123l-105 -105l-122 123l-124 -124l-105 105l124 124l-124 123l105 105l124 -123l122 122l105 -105z" />
    <glyph glyph-name="Oslash" unicode="&#xd8;" horiz-adv-x="857" 
d="M797 534q28 -72 28 -154q0 -109 -49.5 -199.5t-139.5 -143t-207 -52.5q-80 0 -155 27l-28 -41h-173l80 117q-58 54 -89.5 129.5t-31.5 162.5q0 110 49.5 200t139.5 142.5t208 52.5q93 0 170 -34l33 48h173l-88 -129q52 -54 80 -126zM275 267l213 311q-32 10 -59 10
q-50 0 -91 -26t-65 -73.5t-24 -108.5q0 -63 26 -113zM519.5 198q40.5 26 64.5 73.5t24 108.5q0 53 -18 95l-203 -298q22 -5 42 -5q50 0 90.5 26z" />
    <glyph glyph-name="Ugrave" unicode="&#xd9;" horiz-adv-x="771" 
d="M138 70q-88 85 -88 259v431h229v-439q0 -66 30 -96t77 -30t76.5 30t29.5 96v439h229v-431q0 -174 -88 -259t-247 -85q-160 0 -248 85zM385 1001l70 -174h-131l-145 174h206z" />
    <glyph glyph-name="Uacute" unicode="&#xda;" horiz-adv-x="771" 
d="M138 70q-88 85 -88 259v431h229v-439q0 -66 30 -96t77 -30t76.5 30t29.5 96v439h229v-431q0 -174 -88 -259t-247 -85q-160 0 -248 85zM446 827h-131l70 174h206z" />
    <glyph glyph-name="Ucircumflex" unicode="&#xdb;" horiz-adv-x="771" 
d="M138 70q-88 85 -88 259v431h229v-439q0 -66 30 -96t77 -30t76.5 30t29.5 96v439h229v-431q0 -174 -88 -259t-247 -85q-160 0 -248 85zM445 832l-60 83l-61 -83h-155l153 169h125l153 -169h-155z" />
    <glyph glyph-name="Udieresis" unicode="&#xdc;" horiz-adv-x="771" 
d="M138 70q-88 85 -88 259v431h229v-439q0 -66 30 -96t77 -30t76.5 30t29.5 96v439h229v-431q0 -174 -88 -259t-247 -85q-160 0 -248 85zM196 866.5q-27 27.5 -27 65.5q0 39 27 66t65 27t65.5 -27t27.5 -66q0 -38 -27.5 -65.5t-65.5 -27.5t-65 27.5zM444.5 866.5
q-27.5 27.5 -27.5 65.5q0 39 27.5 66t65.5 27t65 -27t27 -66q0 -38 -27 -65.5t-65 -27.5t-65.5 27.5z" />
    <glyph glyph-name="Yacute" unicode="&#xdd;" horiz-adv-x="699" 
d="M714 760l-379 -760h-236l147 294l-256 466h246l116 -253l126 253h236zM413 827h-131l70 174h206z" />
    <glyph glyph-name="Thorn" unicode="&#xde;" horiz-adv-x="698" 
d="M590.5 592.5q77.5 -74.5 77.5 -202.5q0 -84 -34.5 -146.5t-101 -96.5t-160.5 -34h-91v-113h-228v760h228v-93h91q141 0 218.5 -74.5zM407.5 317.5q26.5 29.5 26.5 72.5t-26.5 72.5t-81.5 29.5h-45v-204h45q55 0 81.5 29.5z" />
    <glyph glyph-name="germandbls" unicode="&#xdf;" horiz-adv-x="637" 
d="M555.5 350q41.5 -54 41.5 -131q0 -68 -32 -121.5t-85.5 -83t-115.5 -29.5q-46 0 -96 15l12 134q12 -4 30 -4q44 0 72.5 26t28.5 68q0 43 -29 69t-73 26h-17v145q27 18 40.5 42t13.5 51q0 30 -14 49t-41 19q-56 0 -56 -83v-542h-185v513q0 132 59 197t168 65
q106 0 171.5 -52t65.5 -141q0 -88 -71 -151q71 -27 112.5 -81z" />
    <glyph glyph-name="agrave" unicode="&#xe0;" horiz-adv-x="699" 
d="M651 520v-520h-205l-15 83q-55 -98 -165 -98q-62 0 -114.5 31t-84 93t-31.5 150q0 83 29 145.5t79.5 96.5t114.5 34q61 0 104.5 -30.5t67.5 -75.5v91h220zM411.5 184.5q24.5 29.5 24.5 75.5t-24 75t-64 29t-64 -29t-24 -75q0 -47 24 -76t64 -29q39 0 63.5 29.5zM340 761
l70 -174h-131l-145 174h206z" />
    <glyph glyph-name="aacute" unicode="&#xe1;" horiz-adv-x="699" 
d="M651 520v-520h-205l-15 83q-55 -98 -165 -98q-62 0 -114.5 31t-84 93t-31.5 150q0 83 29 145.5t79.5 96.5t114.5 34q61 0 104.5 -30.5t67.5 -75.5v91h220zM411.5 184.5q24.5 29.5 24.5 75.5t-24 75t-64 29t-64 -29t-24 -75q0 -47 24 -76t64 -29q39 0 63.5 29.5zM401 587
h-131l70 174h206z" />
    <glyph glyph-name="acircumflex" unicode="&#xe2;" horiz-adv-x="699" 
d="M651 520v-520h-205l-15 83q-55 -98 -165 -98q-62 0 -114.5 31t-84 93t-31.5 150q0 83 29 145.5t79.5 96.5t114.5 34q61 0 104.5 -30.5t67.5 -75.5v91h220zM411.5 184.5q24.5 29.5 24.5 75.5t-24 75t-64 29t-64 -29t-24 -75q0 -47 24 -76t64 -29q39 0 63.5 29.5zM400 592
l-60 83l-61 -83h-155l153 169h125l153 -169h-155z" />
    <glyph glyph-name="atilde" unicode="&#xe3;" horiz-adv-x="699" 
d="M651 520v-520h-205l-15 83q-55 -98 -165 -98q-62 0 -114.5 31t-84 93t-31.5 150q0 83 29 145.5t79.5 96.5t114.5 34q61 0 104.5 -30.5t67.5 -75.5v91h220zM411.5 184.5q24.5 29.5 24.5 75.5t-24 75t-64 29t-64 -29t-24 -75q0 -47 24 -76t64 -29q39 0 63.5 29.5z
M364.5 606.5q-22.5 8.5 -51.5 23.5q-21 11 -36 17t-29 6q-37 0 -69 -39l-71 63q24 52 62.5 83t93.5 31q29 0 51.5 -8.5t51.5 -23.5q23 -12 37.5 -17.5t29.5 -5.5q35 0 67 39l71 -62q-22 -51 -62 -83t-95 -32q-28 0 -50.5 8.5z" />
    <glyph glyph-name="adieresis" unicode="&#xe4;" horiz-adv-x="699" 
d="M651 520v-520h-205l-15 83q-55 -98 -165 -98q-62 0 -114.5 31t-84 93t-31.5 150q0 83 29 145.5t79.5 96.5t114.5 34q61 0 104.5 -30.5t67.5 -75.5v91h220zM411.5 184.5q24.5 29.5 24.5 75.5t-24 75t-64 29t-64 -29t-24 -75q0 -47 24 -76t64 -29q39 0 63.5 29.5z
M151 626.5q-27 27.5 -27 65.5q0 39 27 66t65 27t65.5 -27t27.5 -66q0 -38 -27.5 -65.5t-65.5 -27.5t-65 27.5zM399.5 626.5q-27.5 27.5 -27.5 65.5q0 39 27.5 66t65.5 27t65 -27t27 -66q0 -38 -27 -65.5t-65 -27.5t-65.5 27.5z" />
    <glyph glyph-name="aring" unicode="&#xe5;" horiz-adv-x="699" 
d="M651 520v-520h-205l-15 83q-55 -98 -165 -98q-62 0 -114.5 31t-84 93t-31.5 150q0 83 29 145.5t79.5 96.5t114.5 34q61 0 104.5 -30.5t67.5 -75.5v91h220zM411.5 184.5q24.5 29.5 24.5 75.5t-24 75t-64 29t-64 -29t-24 -75q0 -47 24 -76t64 -29q39 0 63.5 29.5z
M276 595.5q-29 17.5 -46 46.5t-17 63t17 63t46 46t64 17q34 0 63 -17t46 -46t17 -63t-17 -63t-46 -46.5t-63 -17.5q-35 0 -64 17.5zM378 665q15 16 15 40t-15 40t-38 16t-38.5 -16t-15.5 -40t15.5 -40t38.5 -16t38 16z" />
    <glyph glyph-name="ae" unicode="&#xe6;" horiz-adv-x="982" 
d="M944 207h-365q4 -36 28.5 -59t57.5 -23q53 0 74 43l196 -14q-74 -169 -274 -169q-68 0 -120 22t-87 63q-59 -85 -202 -85q-102 0 -157 41t-55 119t63 119t173 41h116v16q0 73 -74 73q-25 0 -44 -12t-26 -32l-187 14q13 42 45 81t86.5 64.5t128.5 25.5q114 0 179 -45
q65 45 160 45q134 0 210 -74.5t76 -210.5q0 -30 -2 -43zM606.5 370q-22.5 -25 -27.5 -65h173q-4 40 -26 65t-60 25q-37 0 -59.5 -25zM367 126.5q25 22.5 25 65.5v15h-83q-45 0 -63 -13t-18 -39q0 -27 20 -39t51 -12q43 0 68 22.5z" />
    <glyph glyph-name="ccedilla" unicode="&#xe7;" horiz-adv-x="662" 
d="M169.5 21.5q-67.5 36.5 -100.5 98.5t-33 139q0 78 34 140.5t102.5 99t168.5 36.5q125 0 197 -57.5t89 -156.5l-210 -16q-20 59 -76 59q-39 0 -63 -29t-24 -76t23 -75.5t62 -28.5q31 0 52 16t30 46l207 -15q-18 -97 -91.5 -157t-201.5 -60q-98 0 -165.5 36.5zM435.5 -59.5
q26.5 -22.5 26.5 -61.5q0 -45 -32.5 -72t-92.5 -27q-58 0 -99 24l26 63q26 -14 49 -14q16 0 26 8.5t10 24.5q0 12 -8 19t-21 7q-18 0 -34 -14l-32 21l31 110h78l-13 -67q5 1 16 1q43 0 69.5 -22.5z" />
    <glyph glyph-name="egrave" unicode="&#xe8;" horiz-adv-x="681" 
d="M642 207h-387q6 -37 29.5 -59.5t58.5 -22.5q24 0 42.5 12t28.5 30l216 -15q-69 -167 -294 -167q-95 0 -162.5 35.5t-102.5 97.5t-35 141t34.5 141.5t102 98.5t162.5 36q149 0 229.5 -73t80.5 -209q0 -25 -3 -46zM283 370.5q-23 -23.5 -28 -65.5h174q-3 43 -25 66t-61 23
q-37 0 -60 -23.5zM336 761l70 -174h-131l-145 174h206z" />
    <glyph glyph-name="eacute" unicode="&#xe9;" horiz-adv-x="681" 
d="M642 207h-387q6 -37 29.5 -59.5t58.5 -22.5q24 0 42.5 12t28.5 30l216 -15q-69 -167 -294 -167q-95 0 -162.5 35.5t-102.5 97.5t-35 141t34.5 141.5t102 98.5t162.5 36q149 0 229.5 -73t80.5 -209q0 -25 -3 -46zM283 370.5q-23 -23.5 -28 -65.5h174q-3 43 -25 66t-61 23
q-37 0 -60 -23.5zM397 587h-131l70 174h206z" />
    <glyph glyph-name="ecircumflex" unicode="&#xea;" horiz-adv-x="681" 
d="M642 207h-387q6 -37 29.5 -59.5t58.5 -22.5q24 0 42.5 12t28.5 30l216 -15q-69 -167 -294 -167q-95 0 -162.5 35.5t-102.5 97.5t-35 141t34.5 141.5t102 98.5t162.5 36q149 0 229.5 -73t80.5 -209q0 -25 -3 -46zM283 370.5q-23 -23.5 -28 -65.5h174q-3 43 -25 66t-61 23
q-37 0 -60 -23.5zM396 592l-60 83l-61 -83h-155l153 169h125l153 -169h-155z" />
    <glyph glyph-name="edieresis" unicode="&#xeb;" horiz-adv-x="681" 
d="M642 207h-387q6 -37 29.5 -59.5t58.5 -22.5q24 0 42.5 12t28.5 30l216 -15q-69 -167 -294 -167q-95 0 -162.5 35.5t-102.5 97.5t-35 141t34.5 141.5t102 98.5t162.5 36q149 0 229.5 -73t80.5 -209q0 -25 -3 -46zM283 370.5q-23 -23.5 -28 -65.5h174q-3 43 -25 66t-61 23
q-37 0 -60 -23.5zM147 626.5q-27 27.5 -27 65.5q0 39 27 66t65 27t65.5 -27t27.5 -66q0 -38 -27.5 -65.5t-65.5 -27.5t-65 27.5zM395.5 626.5q-27.5 27.5 -27.5 65.5q0 39 27.5 66t65.5 27t65 -27t27 -66q0 -38 -27 -65.5t-65 -27.5t-65.5 27.5z" />
    <glyph glyph-name="igrave" unicode="&#xec;" horiz-adv-x="324" 
d="M52 520h220v-520h-220v520zM162 761l70 -174h-131l-145 174h206z" />
    <glyph glyph-name="iacute" unicode="&#xed;" horiz-adv-x="324" 
d="M52 520h220v-520h-220v520zM223 587h-131l70 174h206z" />
    <glyph glyph-name="icircumflex" unicode="&#xee;" horiz-adv-x="324" 
d="M52 520h220v-520h-220v520zM196 592l-34 102l-35 -102h-151l123 169h125l123 -169h-151z" />
    <glyph glyph-name="idieresis" unicode="&#xef;" horiz-adv-x="324" 
d="M52 520h220v-520h-220v520zM-27 626.5q-27 27.5 -27 65.5q0 39 27 66t65 27t65.5 -27t27.5 -66q0 -38 -27.5 -65.5t-65.5 -27.5t-65 27.5zM221.5 626.5q-27.5 27.5 -27.5 65.5q0 39 27.5 66t65.5 27t65 -27t27 -66q0 -38 -27 -65.5t-65 -27.5t-65.5 27.5z" />
    <glyph glyph-name="eth" unicode="&#xf0;" horiz-adv-x="709" 
d="M649.5 509.5q24.5 -72.5 24.5 -151.5q0 -115 -40.5 -199.5t-115.5 -129t-177 -44.5q-94 0 -163 32t-105.5 89.5t-36.5 131.5q0 114 78 179t215 65q67 0 114 -14q-6 49 -34 87l-97 -48l-40 80l61 30q-39 19 -97 28l32 130q140 -7 236 -73l85 42l40 -79l-53 -26
q49 -57 73.5 -129.5zM406.5 184q24.5 29 24.5 74t-24.5 73t-63.5 28q-38 0 -62.5 -28t-24.5 -73t24.5 -74t62.5 -29q39 0 63.5 29z" />
    <glyph glyph-name="ntilde" unicode="&#xf1;" horiz-adv-x="663" 
d="M574.5 475.5q44.5 -59.5 44.5 -162.5v-313h-220v272q0 56 -14.5 79t-47.5 23q-69 0 -69 -104v-270h-220v520h196l23 -74q28 43 72 66t100 23q91 0 135.5 -59.5zM346.5 606.5q-22.5 8.5 -51.5 23.5q-21 11 -36 17t-29 6q-37 0 -69 -39l-71 63q24 52 62.5 83t93.5 31
q29 0 51.5 -8.5t51.5 -23.5q23 -12 37.5 -17.5t29.5 -5.5q35 0 67 39l71 -62q-22 -51 -62 -83t-95 -32q-28 0 -50.5 8.5z" />
    <glyph glyph-name="ograve" unicode="&#xf2;" horiz-adv-x="684" 
d="M171 21.5q-69 36.5 -102 98.5t-33 140t33 140t102 98.5t171 36.5t170.5 -36.5t102 -98.5t33.5 -140t-33.5 -140t-102 -98.5t-170.5 -36.5t-171 36.5zM404.5 184q24.5 29 24.5 76q0 46 -24.5 75t-62.5 29q-39 0 -63.5 -29t-24.5 -75q0 -47 24.5 -76t63.5 -29q38 0 62.5 29
zM342 761l70 -174h-131l-145 174h206z" />
    <glyph glyph-name="oacute" unicode="&#xf3;" horiz-adv-x="684" 
d="M171 21.5q-69 36.5 -102 98.5t-33 140t33 140t102 98.5t171 36.5t170.5 -36.5t102 -98.5t33.5 -140t-33.5 -140t-102 -98.5t-170.5 -36.5t-171 36.5zM404.5 184q24.5 29 24.5 76q0 46 -24.5 75t-62.5 29q-39 0 -63.5 -29t-24.5 -75q0 -47 24.5 -76t63.5 -29q38 0 62.5 29
zM403 587h-131l70 174h206z" />
    <glyph glyph-name="ocircumflex" unicode="&#xf4;" horiz-adv-x="684" 
d="M171 21.5q-69 36.5 -102 98.5t-33 140t33 140t102 98.5t171 36.5t170.5 -36.5t102 -98.5t33.5 -140t-33.5 -140t-102 -98.5t-170.5 -36.5t-171 36.5zM404.5 184q24.5 29 24.5 76q0 46 -24.5 75t-62.5 29q-39 0 -63.5 -29t-24.5 -75q0 -47 24.5 -76t63.5 -29q38 0 62.5 29
zM402 592l-60 83l-61 -83h-155l153 169h125l153 -169h-155z" />
    <glyph glyph-name="otilde" unicode="&#xf5;" horiz-adv-x="684" 
d="M171 21.5q-69 36.5 -102 98.5t-33 140t33 140t102 98.5t171 36.5t170.5 -36.5t102 -98.5t33.5 -140t-33.5 -140t-102 -98.5t-170.5 -36.5t-171 36.5zM404.5 184q24.5 29 24.5 76q0 46 -24.5 75t-62.5 29q-39 0 -63.5 -29t-24.5 -75q0 -47 24.5 -76t63.5 -29q38 0 62.5 29
zM366.5 606.5q-22.5 8.5 -51.5 23.5q-21 11 -36 17t-29 6q-37 0 -69 -39l-71 63q24 52 62.5 83t93.5 31q29 0 51.5 -8.5t51.5 -23.5q23 -12 37.5 -17.5t29.5 -5.5q35 0 67 39l71 -62q-22 -51 -62 -83t-95 -32q-28 0 -50.5 8.5z" />
    <glyph glyph-name="odieresis" unicode="&#xf6;" horiz-adv-x="684" 
d="M171 21.5q-69 36.5 -102 98.5t-33 140t33 140t102 98.5t171 36.5t170.5 -36.5t102 -98.5t33.5 -140t-33.5 -140t-102 -98.5t-170.5 -36.5t-171 36.5zM404.5 184q24.5 29 24.5 76q0 46 -24.5 75t-62.5 29q-39 0 -63.5 -29t-24.5 -75q0 -47 24.5 -76t63.5 -29q38 0 62.5 29
zM153 626.5q-27 27.5 -27 65.5q0 39 27 66t65 27t65.5 -27t27.5 -66q0 -38 -27.5 -65.5t-65.5 -27.5t-65 27.5zM401.5 626.5q-27.5 27.5 -27.5 65.5q0 39 27.5 66t65.5 27t65 -27t27 -66q0 -38 -27 -65.5t-65 -27.5t-65.5 27.5z" />
    <glyph glyph-name="divide" unicode="&#xf7;" horiz-adv-x="616" 
d="M247 396q-26 26 -26 62t26 61.5t62 25.5t61.5 -25.5t25.5 -61.5t-25.5 -62t-61.5 -26t-62 26zM80 343h456v-149h-456v149zM247 16.5q-26 25.5 -26 61.5t26 61.5t62 25.5t61.5 -25.5t25.5 -61.5t-25.5 -61.5t-61.5 -25.5t-62 25.5z" />
    <glyph glyph-name="oslash" unicode="&#xf8;" horiz-adv-x="684" 
d="M621.5 386.5q26.5 -57.5 26.5 -126.5q0 -78 -33.5 -140t-102 -98.5t-170.5 -36.5q-69 0 -128 19l-16 -24h-92l39 57q-54 37 -81.5 94.5t-27.5 128.5q0 78 33 140t102 98.5t171 36.5q74 0 132 -20l16 24h92l-40 -58q53 -37 79.5 -94.5zM254 195l123 180q-16 6 -35 6
q-45 0 -73.5 -33.5t-28.5 -87.5q0 -37 14 -65zM415.5 172q28.5 34 28.5 88q0 34 -12 61l-122 -178q17 -5 32 -5q45 0 73.5 34z" />
    <glyph glyph-name="ugrave" unicode="&#xf9;" horiz-adv-x="658" 
d="M610 520v-520h-196l-22 74q-27 -43 -68.5 -66t-93.5 -23q-186 0 -186 211v324h220v-279q0 -54 14 -74.5t45 -20.5q67 0 67 104v270h220zM328 761l70 -174h-131l-145 174h206z" />
    <glyph glyph-name="uacute" unicode="&#xfa;" horiz-adv-x="658" 
d="M610 520v-520h-196l-22 74q-27 -43 -68.5 -66t-93.5 -23q-186 0 -186 211v324h220v-279q0 -54 14 -74.5t45 -20.5q67 0 67 104v270h220zM389 587h-131l70 174h206z" />
    <glyph glyph-name="ucircumflex" unicode="&#xfb;" horiz-adv-x="658" 
d="M610 520v-520h-196l-22 74q-27 -43 -68.5 -66t-93.5 -23q-186 0 -186 211v324h220v-279q0 -54 14 -74.5t45 -20.5q67 0 67 104v270h220zM388 592l-60 83l-61 -83h-155l153 169h125l153 -169h-155z" />
    <glyph glyph-name="udieresis" unicode="&#xfc;" horiz-adv-x="658" 
d="M610 520v-520h-196l-22 74q-27 -43 -68.5 -66t-93.5 -23q-186 0 -186 211v324h220v-279q0 -54 14 -74.5t45 -20.5q67 0 67 104v270h220zM139 626.5q-27 27.5 -27 65.5q0 39 27 66t65 27t65.5 -27t27.5 -66q0 -38 -27.5 -65.5t-65.5 -27.5t-65 27.5zM387.5 626.5
q-27.5 27.5 -27.5 65.5q0 39 27.5 66t65.5 27t65 -27t27 -66q0 -38 -27 -65.5t-65 -27.5t-65.5 27.5z" />
    <glyph glyph-name="yacute" unicode="&#xfd;" horiz-adv-x="660" 
d="M612 520v-490q0 -123 -77.5 -186.5t-211.5 -63.5q-238 0 -283 165l223 18q7 -24 21 -35t40 -11q38 0 53 25t15 77v69q-27 -41 -68 -63t-92 -22q-186 0 -186 211v306h220v-261q0 -54 14 -74.5t46 -20.5q66 0 66 104v252h220zM393 587h-131l70 174h206z" />
    <glyph glyph-name="thorn" unicode="&#xfe;" horiz-adv-x="701" 
d="M554 503q51 -32 81 -94.5t30 -148.5q0 -88 -31 -150t-83.5 -93.5t-114.5 -31.5q-57 0 -99 25.5t-67 70.5v-286h-220v965h220v-333q25 51 68.5 79.5t102.5 28.5q62 0 113 -32zM416 184q24 29 24 76q0 46 -24 75t-63 29q-40 0 -64 -29t-24 -75t24.5 -75.5t63.5 -29.5t63 29
z" />
    <glyph glyph-name="ydieresis" unicode="&#xff;" horiz-adv-x="660" 
d="M612 520v-490q0 -123 -77.5 -186.5t-211.5 -63.5q-238 0 -283 165l223 18q7 -24 21 -35t40 -11q38 0 53 25t15 77v69q-27 -41 -68 -63t-92 -22q-186 0 -186 211v306h220v-261q0 -54 14 -74.5t46 -20.5q66 0 66 104v252h220zM143 626.5q-27 27.5 -27 65.5q0 39 27 66
t65 27t65.5 -27t27.5 -66q0 -38 -27.5 -65.5t-65.5 -27.5t-65 27.5zM391.5 626.5q-27.5 27.5 -27.5 65.5q0 39 27.5 66t65.5 27t65 -27t27 -66q0 -38 -27 -65.5t-65 -27.5t-65.5 27.5z" />
    <glyph glyph-name="Amacron" unicode="&#x100;" horiz-adv-x="751" 
d="M487 96h-223l-25 -96h-239l245 760h261l245 -760h-239zM447 254l-71 281l-72 -281h143zM222 996h305v-113h-305v113z" />
    <glyph glyph-name="amacron" unicode="&#x101;" horiz-adv-x="699" 
d="M651 520v-520h-205l-15 83q-55 -98 -165 -98q-62 0 -114.5 31t-84 93t-31.5 150q0 83 29 145.5t79.5 96.5t114.5 34q61 0 104.5 -30.5t67.5 -75.5v91h220zM411.5 184.5q24.5 29.5 24.5 75.5t-24 75t-64 29t-64 -29t-24 -75q0 -47 24 -76t64 -29q39 0 63.5 29.5zM187 756
h305v-113h-305v113z" />
    <glyph glyph-name="Abreve" unicode="&#x102;" horiz-adv-x="751" 
d="M487 96h-223l-25 -96h-239l245 760h261l245 -760h-239zM447 254l-71 281l-72 -281h143zM249.5 871q-47.5 48 -52.5 130h114q2 -34 18 -54t46 -20t46 20t18 54h114q-5 -82 -52.5 -130t-125.5 -48t-125.5 48z" />
    <glyph glyph-name="abreve" unicode="&#x103;" horiz-adv-x="699" 
d="M651 520v-520h-205l-15 83q-55 -98 -165 -98q-62 0 -114.5 31t-84 93t-31.5 150q0 83 29 145.5t79.5 96.5t114.5 34q61 0 104.5 -30.5t67.5 -75.5v91h220zM411.5 184.5q24.5 29.5 24.5 75.5t-24 75t-64 29t-64 -29t-24 -75q0 -47 24 -76t64 -29q39 0 63.5 29.5z
M214.5 631q-47.5 48 -52.5 130h114q2 -34 18 -54t46 -20t46 20t18 54h114q-5 -82 -52.5 -130t-125.5 -48t-125.5 48z" />
    <glyph glyph-name="Aogonek" unicode="&#x104;" horiz-adv-x="751" 
d="M487 96h-223l-25 -96h-239l245 760h261l245 -760h-239zM447 254l-71 281l-72 -281h143zM566 -15.5q-19 -16.5 -19 -46.5q0 -31 19.5 -48t52.5 -17q19 0 44 6l5 -75q-19 -11 -45 -17.5t-53 -6.5q-59 0 -97.5 32.5t-38.5 90.5t43 99t123 47l11 -41q-26 -7 -45 -23.5z" />
    <glyph glyph-name="aogonek" unicode="&#x105;" horiz-adv-x="699" 
d="M651 520v-520h-205l-15 83q-55 -98 -165 -98q-62 0 -114.5 31t-84 93t-31.5 150q0 83 29 145.5t79.5 96.5t114.5 34q61 0 104.5 -30.5t67.5 -75.5v91h220zM411.5 184.5q24.5 29.5 24.5 75.5t-24 75t-64 29t-64 -29t-24 -75q0 -47 24 -76t64 -29q39 0 63.5 29.5z
M520 -15.5q-19 -16.5 -19 -46.5q0 -31 19.5 -48t52.5 -17q19 0 44 6l5 -75q-19 -11 -45 -17.5t-53 -6.5q-59 0 -97.5 32.5t-38.5 90.5t43 99t123 47l11 -41q-26 -7 -45 -23.5z" />
    <glyph glyph-name="Cacute" unicode="&#x106;" horiz-adv-x="837" 
d="M224 36q-91 51 -141.5 141t-50.5 201t49.5 201.5t140 143t208.5 52.5q101 0 181 -39t131.5 -109t69.5 -162l-236 -17q-14 56 -53.5 88.5t-95.5 32.5q-73 0 -116.5 -52.5t-43.5 -133.5q0 -57 21.5 -99.5t58.5 -65.5t82 -23q55 0 95 33t54 86l234 -18q-18 -92 -68 -162
t-129.5 -109.5t-182.5 -39.5q-117 0 -208 51zM497 827h-131l70 174h206z" />
    <glyph glyph-name="cacute" unicode="&#x107;" horiz-adv-x="662" 
d="M169.5 21.5q-67.5 36.5 -100.5 98.5t-33 139q0 78 34 140.5t102.5 99t168.5 36.5q125 0 197 -57.5t89 -156.5l-210 -16q-20 59 -76 59q-39 0 -63 -29t-24 -76t23 -75.5t62 -28.5q31 0 52 16t30 46l207 -15q-18 -97 -91.5 -157t-201.5 -60q-98 0 -165.5 36.5zM399 587
h-131l70 174h206z" />
    <glyph glyph-name="Ccircumflex" unicode="&#x108;" horiz-adv-x="837" 
d="M224 36q-91 51 -141.5 141t-50.5 201t49.5 201.5t140 143t208.5 52.5q101 0 181 -39t131.5 -109t69.5 -162l-236 -17q-14 56 -53.5 88.5t-95.5 32.5q-73 0 -116.5 -52.5t-43.5 -133.5q0 -57 21.5 -99.5t58.5 -65.5t82 -23q55 0 95 33t54 86l234 -18q-18 -92 -68 -162
t-129.5 -109.5t-182.5 -39.5q-117 0 -208 51zM496 832l-60 83l-61 -83h-155l153 169h125l153 -169h-155z" />
    <glyph glyph-name="ccircumflex" unicode="&#x109;" horiz-adv-x="662" 
d="M169.5 21.5q-67.5 36.5 -100.5 98.5t-33 139q0 78 34 140.5t102.5 99t168.5 36.5q125 0 197 -57.5t89 -156.5l-210 -16q-20 59 -76 59q-39 0 -63 -29t-24 -76t23 -75.5t62 -28.5q31 0 52 16t30 46l207 -15q-18 -97 -91.5 -157t-201.5 -60q-98 0 -165.5 36.5zM398 592
l-60 83l-61 -83h-155l153 169h125l153 -169h-155z" />
    <glyph glyph-name="Cdotaccent" unicode="&#x10a;" horiz-adv-x="837" 
d="M224 36q-91 51 -141.5 141t-50.5 201t49.5 201.5t140 143t208.5 52.5q101 0 181 -39t131.5 -109t69.5 -162l-236 -17q-14 56 -53.5 88.5t-95.5 32.5q-73 0 -116.5 -52.5t-43.5 -133.5q0 -57 21.5 -99.5t58.5 -65.5t82 -23q55 0 95 33t54 86l234 -18q-18 -92 -68 -162
t-129.5 -109.5t-182.5 -39.5q-117 0 -208 51zM361 850q-31 31 -31 75t31 75t75 31t75 -31t31 -75t-31 -75t-75 -31t-75 31z" />
    <glyph glyph-name="cdotaccent" unicode="&#x10b;" horiz-adv-x="662" 
d="M169.5 21.5q-67.5 36.5 -100.5 98.5t-33 139q0 78 34 140.5t102.5 99t168.5 36.5q125 0 197 -57.5t89 -156.5l-210 -16q-20 59 -76 59q-39 0 -63 -29t-24 -76t23 -75.5t62 -28.5q31 0 52 16t30 46l207 -15q-18 -97 -91.5 -157t-201.5 -60q-98 0 -165.5 36.5zM263 610
q-31 31 -31 75t31 75t75 31t75 -31t31 -75t-31 -75t-75 -31t-75 31z" />
    <glyph glyph-name="Ccaron" unicode="&#x10c;" horiz-adv-x="837" 
d="M224 36q-91 51 -141.5 141t-50.5 201t49.5 201.5t140 143t208.5 52.5q101 0 181 -39t131.5 -109t69.5 -162l-236 -17q-14 56 -53.5 88.5t-95.5 32.5q-73 0 -116.5 -52.5t-43.5 -133.5q0 -57 21.5 -99.5t58.5 -65.5t82 -23q55 0 95 33t54 86l234 -18q-18 -92 -68 -162
t-129.5 -109.5t-182.5 -39.5q-117 0 -208 51zM651 1001l-153 -169h-125l-153 169h155l61 -83l60 83h155z" />
    <glyph glyph-name="ccaron" unicode="&#x10d;" horiz-adv-x="662" 
d="M169.5 21.5q-67.5 36.5 -100.5 98.5t-33 139q0 78 34 140.5t102.5 99t168.5 36.5q125 0 197 -57.5t89 -156.5l-210 -16q-20 59 -76 59q-39 0 -63 -29t-24 -76t23 -75.5t62 -28.5q31 0 52 16t30 46l207 -15q-18 -97 -91.5 -157t-201.5 -60q-98 0 -165.5 36.5zM553 761
l-153 -169h-125l-153 169h155l61 -83l60 83h155z" />
    <glyph glyph-name="Dcaron" unicode="&#x10e;" horiz-adv-x="794" 
d="M566.5 709.5q95.5 -50.5 145.5 -137t50 -192.5t-50 -192.5t-145.5 -137t-224.5 -50.5h-289v760h289q129 0 224.5 -50.5zM471 232q53 48 53 149t-53 148t-150 47h-40v-392h40q97 0 150 48zM548 1001l-153 -169h-125l-153 169h155l61 -83l60 83h155z" />
    <glyph glyph-name="dcaron" unicode="&#x10f;" horiz-adv-x="950" 
d="M431 760h220v-760h-205l-15 83q-55 -98 -165 -98q-62 0 -114.5 31t-84 93t-31.5 150q0 83 29 145.5t79.5 96.5t114.5 34q61 0 104.5 -30t67.5 -75v330zM940 760l-84 -174h-113l8 174h189zM411.5 184.5q24.5 29.5 24.5 75.5t-24 75t-64 29t-64 -29t-24 -75q0 -47 24.5 -76
t63.5 -29t63.5 29.5z" />
    <glyph glyph-name="Dcroat" unicode="&#x110;" horiz-adv-x="829" 
d="M601.5 709.5q95.5 -50.5 145.5 -137t50 -192.5t-50 -192.5t-145.5 -137t-224.5 -50.5h-289v323h-78v149h78v288h289q129 0 224.5 -50.5zM506 232q53 48 53 149t-53 148t-150 47h-40v-104h111v-149h-111v-139h40q97 0 150 48z" />
    <glyph glyph-name="dcroat" unicode="&#x111;" horiz-adv-x="739" 
d="M734 584h-83v-584h-205l-15 83q-55 -98 -165 -98q-62 0 -114.5 31t-84 93t-31.5 150q0 83 29 145.5t79.5 96.5t114.5 34q61 0 104.5 -30t67.5 -75v154h-175v109h175v67h220v-67h83v-109zM411.5 184.5q24.5 29.5 24.5 75.5t-24 75t-64 29t-64 -29t-24 -75q0 -47 24.5 -76
t63.5 -29t63.5 29.5z" />
    <glyph glyph-name="Emacron" unicode="&#x112;" horiz-adv-x="574" 
d="M534 184v-184h-481v760h480v-184h-252v-95h239v-176h-239v-121h253zM142 996h305v-113h-305v113z" />
    <glyph glyph-name="emacron" unicode="&#x113;" horiz-adv-x="681" 
d="M642 207h-387q6 -37 29.5 -59.5t58.5 -22.5q24 0 42.5 12t28.5 30l216 -15q-69 -167 -294 -167q-95 0 -162.5 35.5t-102.5 97.5t-35 141t34.5 141.5t102 98.5t162.5 36q149 0 229.5 -73t80.5 -209q0 -25 -3 -46zM283 370.5q-23 -23.5 -28 -65.5h174q-3 43 -25 66t-61 23
q-37 0 -60 -23.5zM183 756h305v-113h-305v113z" />
    <glyph glyph-name="Ebreve" unicode="&#x114;" horiz-adv-x="574" 
d="M534 184v-184h-481v760h480v-184h-252v-95h239v-176h-239v-121h253zM169.5 871q-47.5 48 -52.5 130h114q2 -34 18 -54t46 -20t46 20t18 54h114q-5 -82 -52.5 -130t-125.5 -48t-125.5 48z" />
    <glyph glyph-name="ebreve" unicode="&#x115;" horiz-adv-x="681" 
d="M642 207h-387q6 -37 29.5 -59.5t58.5 -22.5q24 0 42.5 12t28.5 30l216 -15q-69 -167 -294 -167q-95 0 -162.5 35.5t-102.5 97.5t-35 141t34.5 141.5t102 98.5t162.5 36q149 0 229.5 -73t80.5 -209q0 -25 -3 -46zM283 370.5q-23 -23.5 -28 -65.5h174q-3 43 -25 66t-61 23
q-37 0 -60 -23.5zM210.5 631q-47.5 48 -52.5 130h114q2 -34 18 -54t46 -20t46 20t18 54h114q-5 -82 -52.5 -130t-125.5 -48t-125.5 48z" />
    <glyph glyph-name="Edotaccent" unicode="&#x116;" horiz-adv-x="574" 
d="M534 184v-184h-481v760h480v-184h-252v-95h239v-176h-239v-121h253zM220 850q-31 31 -31 75t31 75t75 31t75 -31t31 -75t-31 -75t-75 -31t-75 31z" />
    <glyph glyph-name="edotaccent" unicode="&#x117;" horiz-adv-x="681" 
d="M642 207h-387q6 -37 29.5 -59.5t58.5 -22.5q24 0 42.5 12t28.5 30l216 -15q-69 -167 -294 -167q-95 0 -162.5 35.5t-102.5 97.5t-35 141t34.5 141.5t102 98.5t162.5 36q149 0 229.5 -73t80.5 -209q0 -25 -3 -46zM283 370.5q-23 -23.5 -28 -65.5h174q-3 43 -25 66t-61 23
q-37 0 -60 -23.5zM261 610q-31 31 -31 75t31 75t75 31t75 -31t31 -75t-31 -75t-75 -31t-75 31z" />
    <glyph glyph-name="Eogonek" unicode="&#x118;" horiz-adv-x="574" 
d="M534 184v-184h-481v760h480v-184h-252v-95h239v-176h-239v-121h253zM443 -15.5q-19 -16.5 -19 -46.5q0 -31 19.5 -48t52.5 -17q19 0 44 6l5 -75q-19 -11 -45 -17.5t-53 -6.5q-59 0 -97.5 32.5t-38.5 90.5t43 99t123 47l11 -41q-26 -7 -45 -23.5z" />
    <glyph glyph-name="eogonek" unicode="&#x119;" horiz-adv-x="681" 
d="M642 207h-387q6 -37 29.5 -59.5t58.5 -22.5q24 0 42.5 12t28.5 30l216 -15q-69 -167 -294 -167q-95 0 -162.5 35.5t-102.5 97.5t-35 141t34.5 141.5t102 98.5t162.5 36q149 0 229.5 -73t80.5 -209q0 -25 -3 -46zM283 370.5q-23 -23.5 -28 -65.5h174q-3 43 -25 66t-61 23
q-37 0 -60 -23.5zM436 -15.5q-19 -16.5 -19 -46.5q0 -31 19.5 -48t52.5 -17q19 0 44 6l5 -75q-19 -11 -45 -17.5t-53 -6.5q-59 0 -97.5 32.5t-38.5 90.5t43 99t123 47l11 -41q-26 -7 -45 -23.5z" />
    <glyph glyph-name="Ecaron" unicode="&#x11a;" horiz-adv-x="574" 
d="M534 184v-184h-481v760h480v-184h-252v-95h239v-176h-239v-121h253zM510 1001l-153 -169h-125l-153 169h155l61 -83l60 83h155z" />
    <glyph glyph-name="ecaron" unicode="&#x11b;" horiz-adv-x="681" 
d="M642 207h-387q6 -37 29.5 -59.5t58.5 -22.5q24 0 42.5 12t28.5 30l216 -15q-69 -167 -294 -167q-95 0 -162.5 35.5t-102.5 97.5t-35 141t34.5 141.5t102 98.5t162.5 36q149 0 229.5 -73t80.5 -209q0 -25 -3 -46zM283 370.5q-23 -23.5 -28 -65.5h174q-3 43 -25 66t-61 23
q-37 0 -60 -23.5zM551 761l-153 -169h-125l-153 169h155l61 -83l60 83h155z" />
    <glyph glyph-name="Gcircumflex" unicode="&#x11c;" horiz-adv-x="833" 
d="M420 433h367v-323q-59 -56 -148.5 -90.5t-195.5 -34.5q-128 0 -221 52.5t-141.5 141.5t-48.5 198q0 114 50.5 204.5t139.5 142t200 51.5q108 0 185.5 -39.5t122.5 -98.5t63 -121l-242 -17q-14 27 -46.5 48.5t-82.5 21.5q-72 0 -113.5 -51t-41.5 -141q0 -92 45 -144.5
t134 -52.5q38 0 72.5 9t60.5 25v65h-159v154zM480 832l-60 83l-61 -83h-155l153 169h125l153 -169h-155z" />
    <glyph glyph-name="gcircumflex" unicode="&#x11d;" horiz-adv-x="699" 
d="M651 520v-490q0 -121 -76.5 -185.5t-219.5 -64.5q-123 0 -194.5 44.5t-94.5 122.5l222 16q14 -46 67 -46q41 0 58.5 24t17.5 76v79q-54 -94 -165 -94q-62 0 -114.5 30t-84 88.5t-31.5 138.5q0 83 29 145.5t80 96.5t114 34q61 0 104 -29.5t67 -74.5l16 89h205zM412 187
q24 29 24 75q0 45 -24.5 73.5t-63.5 28.5t-63.5 -28.5t-24.5 -73.5q0 -46 24.5 -75t63.5 -29q40 0 64 29zM410 592l-60 83l-61 -83h-155l153 169h125l153 -169h-155z" />
    <glyph glyph-name="Gbreve" unicode="&#x11e;" horiz-adv-x="833" 
d="M420 433h367v-323q-59 -56 -148.5 -90.5t-195.5 -34.5q-128 0 -221 52.5t-141.5 141.5t-48.5 198q0 114 50.5 204.5t139.5 142t200 51.5q108 0 185.5 -39.5t122.5 -98.5t63 -121l-242 -17q-14 27 -46.5 48.5t-82.5 21.5q-72 0 -113.5 -51t-41.5 -141q0 -92 45 -144.5
t134 -52.5q38 0 72.5 9t60.5 25v65h-159v154zM294.5 871q-47.5 48 -52.5 130h114q2 -34 18 -54t46 -20t46 20t18 54h114q-5 -82 -52.5 -130t-125.5 -48t-125.5 48z" />
    <glyph glyph-name="gbreve" unicode="&#x11f;" horiz-adv-x="699" 
d="M651 520v-490q0 -121 -76.5 -185.5t-219.5 -64.5q-123 0 -194.5 44.5t-94.5 122.5l222 16q14 -46 67 -46q41 0 58.5 24t17.5 76v79q-54 -94 -165 -94q-62 0 -114.5 30t-84 88.5t-31.5 138.5q0 83 29 145.5t80 96.5t114 34q61 0 104 -29.5t67 -74.5l16 89h205zM412 187
q24 29 24 75q0 45 -24.5 73.5t-63.5 28.5t-63.5 -28.5t-24.5 -73.5q0 -46 24.5 -75t63.5 -29q40 0 64 29zM224.5 631q-47.5 48 -52.5 130h114q2 -34 18 -54t46 -20t46 20t18 54h114q-5 -82 -52.5 -130t-125.5 -48t-125.5 48z" />
    <glyph glyph-name="Gdotaccent" unicode="&#x120;" horiz-adv-x="833" 
d="M420 433h367v-323q-59 -56 -148.5 -90.5t-195.5 -34.5q-128 0 -221 52.5t-141.5 141.5t-48.5 198q0 114 50.5 204.5t139.5 142t200 51.5q108 0 185.5 -39.5t122.5 -98.5t63 -121l-242 -17q-14 27 -46.5 48.5t-82.5 21.5q-72 0 -113.5 -51t-41.5 -141q0 -92 45 -144.5
t134 -52.5q38 0 72.5 9t60.5 25v65h-159v154zM345 850q-31 31 -31 75t31 75t75 31t75 -31t31 -75t-31 -75t-75 -31t-75 31z" />
    <glyph glyph-name="gdotaccent" unicode="&#x121;" horiz-adv-x="699" 
d="M651 520v-490q0 -121 -76.5 -185.5t-219.5 -64.5q-123 0 -194.5 44.5t-94.5 122.5l222 16q14 -46 67 -46q41 0 58.5 24t17.5 76v79q-54 -94 -165 -94q-62 0 -114.5 30t-84 88.5t-31.5 138.5q0 83 29 145.5t80 96.5t114 34q61 0 104 -29.5t67 -74.5l16 89h205zM412 187
q24 29 24 75q0 45 -24.5 73.5t-63.5 28.5t-63.5 -28.5t-24.5 -73.5q0 -46 24.5 -75t63.5 -29q40 0 64 29zM275 610q-31 31 -31 75t31 75t75 31t75 -31t31 -75t-31 -75t-75 -31t-75 31z" />
    <glyph glyph-name="Gcommaaccent" unicode="&#x122;" horiz-adv-x="833" 
d="M420 433h367v-323q-59 -56 -148.5 -90.5t-195.5 -34.5q-128 0 -221 52.5t-141.5 141.5t-48.5 198q0 114 50.5 204.5t139.5 142t200 51.5q108 0 185.5 -39.5t122.5 -98.5t63 -121l-242 -17q-14 27 -46.5 48.5t-82.5 21.5q-72 0 -113.5 -51t-41.5 -141q0 -92 45 -144.5
t134 -52.5q38 0 72.5 9t60.5 25v65h-159v154zM432 -220h-131l59 159h206z" />
    <glyph glyph-name="gcommaaccent" unicode="&#x123;" horiz-adv-x="698" 
d="M651 520v-490q0 -121 -76.5 -185.5t-219.5 -64.5q-123 0 -194.5 44.5t-94.5 122.5l222 16q14 -46 67 -46q41 0 58.5 24t17.5 76v79q-54 -94 -165 -94q-62 0 -114.5 30t-84 88.5t-31.5 138.5q0 83 29 145.5t80 96.5t114 34q61 0 104 -29.5t67 -74.5l16 89h205zM412 187
q24 29 24 75q0 45 -24.5 73.5t-63.5 28.5t-63.5 -28.5t-24.5 -73.5q0 -46 24.5 -75t63.5 -29q40 0 64 29zM350 759h131l-59 -159h-206z" />
    <glyph glyph-name="Hcircumflex" unicode="&#x124;" horiz-adv-x="755" 
d="M702 760v-760h-228v299h-193v-299h-228v760h228v-277h193v277h228zM438 832l-60 83l-61 -83h-155l153 169h125l153 -169h-155z" />
    <glyph glyph-name="hcircumflex" unicode="&#x125;" horiz-adv-x="665" 
d="M577 475.5q44 -59.5 44 -162.5v-313h-220v272q0 56 -14 79t-47 23q-38 0 -54 -28t-16 -76v-270h-220v760h220v-313q29 42 72.5 65t98.5 23q92 0 136 -59.5zM416 832l-60 83l-61 -83h-155l153 169h125l153 -169h-155z" />
    <glyph glyph-name="Hbar" unicode="&#x126;" horiz-adv-x="851" 
d="M841 541h-91v-541h-228v299h-193v-299h-228v541h-91v149h91v70h228v-70h193v70h228v-70h91v-149zM522 541h-193v-58h193v58z" />
    <glyph glyph-name="hbar" unicode="&#x127;" horiz-adv-x="701" 
d="M613 475.5q44 -59.5 44 -162.5v-313h-220v272q0 56 -14 79t-47 23q-38 0 -54 -28t-16 -76v-270h-220v584h-81v109h81v67h220v-67h177v-109h-177v-137q29 42 72.5 65t98.5 23q92 0 136 -59.5z" />
    <glyph glyph-name="Itilde" unicode="&#x128;" horiz-adv-x="334" 
d="M53 760h228v-760h-228v760zM191.5 846.5q-22.5 8.5 -51.5 23.5q-21 11 -36 17t-29 6q-37 0 -69 -39l-71 63q24 52 62.5 83t93.5 31q29 0 51.5 -8.5t51.5 -23.5q23 -12 37.5 -17.5t29.5 -5.5q35 0 67 39l71 -62q-22 -51 -62 -83t-95 -32q-28 0 -50.5 8.5z" />
    <glyph glyph-name="itilde" unicode="&#x129;" horiz-adv-x="324" 
d="M52 520h220v-520h-220v520zM186.5 606.5q-22.5 8.5 -51.5 23.5q-21 11 -36 17t-29 6q-37 0 -69 -39l-71 63q24 52 62.5 83t93.5 31q29 0 51.5 -8.5t51.5 -23.5q23 -12 37.5 -17.5t29.5 -5.5q35 0 67 39l71 -62q-22 -51 -62 -83t-95 -32q-28 0 -50.5 8.5z" />
    <glyph glyph-name="Imacron" unicode="&#x12a;" horiz-adv-x="334" 
d="M53 760h228v-760h-228v760zM14 996h305v-113h-305v113z" />
    <glyph glyph-name="imacron" unicode="&#x12b;" horiz-adv-x="324" 
d="M52 520h220v-520h-220v520zM9 756h305v-113h-305v113z" />
    <glyph glyph-name="Ibreve" unicode="&#x12c;" horiz-adv-x="334" 
d="M53 760h228v-760h-228v760zM41.5 871q-47.5 48 -52.5 130h114q2 -34 18 -54t46 -20t46 20t18 54h114q-5 -82 -52.5 -130t-125.5 -48t-125.5 48z" />
    <glyph glyph-name="ibreve" unicode="&#x12d;" horiz-adv-x="324" 
d="M52 520h220v-520h-220v520zM36.5 631q-47.5 48 -52.5 130h114q2 -34 18 -54t46 -20t46 20t18 54h114q-5 -82 -52.5 -130t-125.5 -48t-125.5 48z" />
    <glyph glyph-name="Iogonek" unicode="&#x12e;" horiz-adv-x="334" 
d="M53 760h228v-760h-228v760zM104 -15.5q-19 -16.5 -19 -46.5q0 -31 19.5 -48t52.5 -17q19 0 44 6l5 -75q-19 -11 -45 -17.5t-53 -6.5q-59 0 -97.5 32.5t-38.5 90.5t43 99t123 47l11 -41q-26 -7 -45 -23.5z" />
    <glyph glyph-name="iogonek" unicode="&#x12f;" horiz-adv-x="324" 
d="M52 520h220v-520h-220v520zM87 610q-31 31 -31 75t31 75t75 31t75 -31t31 -75t-31 -75t-75 -31t-75 31zM110 -15.5q-19 -16.5 -19 -46.5q0 -31 19.5 -48t52.5 -17q19 0 44 6l5 -75q-19 -11 -45 -17.5t-53 -6.5q-59 0 -97.5 32.5t-38.5 90.5t43 99t123 47l11 -41
q-26 -7 -45 -23.5z" />
    <glyph glyph-name="Idotaccent" unicode="&#x130;" horiz-adv-x="334" 
d="M53 760h228v-760h-228v760zM92 850q-31 31 -31 75t31 75t75 31t75 -31t31 -75t-31 -75t-75 -31t-75 31z" />
    <glyph glyph-name="dotlessi" unicode="&#x131;" horiz-adv-x="324" 
d="M52 520h220v-520h-220v520z" />
    <glyph glyph-name="IJ" unicode="&#x132;" horiz-adv-x="790" 
d="M53 760h228v-484h-228v484zM328 1q-55 16 -87 36l69 174q21 -10 48.5 -18t52.5 -8q45 0 73 30t28 99v446h228v-456q0 -105 -38 -177t-104.5 -107t-152.5 -35q-62 0 -117 16z" />
    <glyph glyph-name="ij" unicode="&#x133;" horiz-adv-x="666" 
d="M80 618q-34 34 -34 82t34 81.5t82 33.5t81.5 -33.5t33.5 -81.5t-33.5 -82t-81.5 -34t-82 34zM52 520h220v-520h-220v520zM421 618q-34 34 -34 82t34 81.5t82 33.5t82 -33.5t34 -81.5t-34 -82t-82 -34t-82 34zM329 -215q-37 5 -65 13l12 156q32 -7 56 -7q37 0 50 17.5
t13 60.5v495h218v-526q0 -109 -52.5 -161.5t-162.5 -52.5q-32 0 -69 5z" />
    <glyph glyph-name="Jcircumflex" unicode="&#x134;" horiz-adv-x="707" 
d="M186 17q-69 32 -110.5 96t-45.5 157l227 15q4 -46 26.5 -68t57.5 -22q88 0 88 107v458h228v-455q0 -106 -40 -177.5t-111 -107t-164 -35.5q-87 0 -156 32zM604 832l-60 83l-61 -83h-155l153 169h125l153 -169h-155z" />
    <glyph glyph-name="jcircumflex" unicode="&#x135;" horiz-adv-x="341" 
d="M5 -215q-37 5 -65 13l12 156q32 -7 56 -7q37 0 50 17.5t13 60.5v495h218v-526q0 -109 -52.5 -161.5t-162.5 -52.5q-32 0 -69 5zM212 592l-34 102l-35 -102h-151l123 169h125l123 -169h-151z" />
    <glyph glyph-name="Kcommaaccent" unicode="&#x136;" horiz-adv-x="714" 
d="M332 281l-51 -66v-215h-228v760h228v-233l162 233h261l-239 -308l264 -452h-245zM348 -220h-131l59 159h206z" />
    <glyph glyph-name="kcommaaccent" unicode="&#x137;" horiz-adv-x="621" 
d="M295 195l-29 -29v-166h-216v760h216v-359l99 119h250l-196 -199l217 -321h-217zM296 -220h-131l59 159h206z" />
    <glyph glyph-name="kgreenlandic" unicode="&#x138;" horiz-adv-x="607" 
d="M296 199l-33 -31v-168h-215v520h215v-113l19 20q50 53 92 73t114 20h61v-166h-39q-28 0 -48 -8t-40 -27l200 -319h-215z" />
    <glyph glyph-name="Lacute" unicode="&#x139;" horiz-adv-x="533" 
d="M513 184v-184h-460v760h228v-576h232zM234 827h-131l70 174h206z" />
    <glyph glyph-name="lacute" unicode="&#x13a;" horiz-adv-x="384" 
d="M145 8q-50 23 -72.5 76.5t-22.5 149.5v526h218v-530q0 -40 18.5 -58.5t60.5 -18.5h15l12 -161q-35 -7 -91 -7q-88 0 -138 23zM225 827h-131l70 174h206z" />
    <glyph glyph-name="Lcommaaccent" unicode="&#x13b;" horiz-adv-x="533" 
d="M513 184v-184h-460v760h228v-576h232zM273 -220h-131l59 159h206z" />
    <glyph glyph-name="lcommaaccent" unicode="&#x13c;" horiz-adv-x="384" 
d="M145 8q-50 23 -72.5 76.5t-22.5 149.5v526h218v-530q0 -40 18.5 -58.5t60.5 -18.5h15l12 -161q-35 -7 -91 -7q-88 0 -138 23zM199 -220h-131l59 159h206z" />
    <glyph glyph-name="Lcaron" unicode="&#x13d;" horiz-adv-x="601" 
d="M281 184h232v-184h-460v760h228v-576zM492 570h-111l8 190h187z" />
    <glyph glyph-name="lcaron" unicode="&#x13e;" horiz-adv-x="570" 
d="M145 8q-50 23 -72.5 76.5t-22.5 149.5v526h218v-530q0 -40 18.5 -58.5t60.5 -18.5h15l12 -161q-35 -7 -91 -7q-88 0 -138 23zM476 586h-112l8 174h188z" />
    <glyph glyph-name="Ldot" unicode="&#x13f;" horiz-adv-x="586" 
d="M513 184v-184h-460v760h228v-576h232zM388 338q-29 29 -29 69q0 41 29 69.5t69 28.5q41 0 70 -28.5t29 -69.5t-29 -69.5t-70 -28.5q-40 0 -69 29z" />
    <glyph glyph-name="ldot" unicode="&#x140;" horiz-adv-x="536" 
d="M358 338q-29 29 -29 69q0 41 29 69.5t69 28.5q41 0 70 -28.5t29 -69.5t-29 -69.5t-70 -28.5q-40 0 -69 29zM145 8q-50 23 -72.5 76.5t-22.5 149.5v526h218v-530q0 -40 18.5 -58.5t60.5 -18.5h15l12 -161q-35 -7 -91 -7q-88 0 -138 23z" />
    <glyph glyph-name="Lslash" unicode="&#x141;" horiz-adv-x="603" 
d="M583 184v-184h-460v257l-60 -29l-58 119l118 57v356h228v-245l130 63l57 -119l-187 -91v-184h232z" />
    <glyph glyph-name="lslash" unicode="&#x142;" horiz-adv-x="534" 
d="M446 153l12 -161q-35 -7 -91 -7q-88 0 -138 23t-72.5 76.5t-22.5 149.5v34l-72 -35l-52 105l124 60v362h218v-255l120 58l52 -106l-172 -83v-144q0 -40 18.5 -58.5t60.5 -18.5h15z" />
    <glyph glyph-name="Nacute" unicode="&#x143;" horiz-adv-x="765" 
d="M712 760v-760h-226l-207 429v-429h-226v760h226l207 -429v429h226zM432 827h-131l70 174h206z" />
    <glyph glyph-name="nacute" unicode="&#x144;" horiz-adv-x="663" 
d="M574.5 475.5q44.5 -59.5 44.5 -162.5v-313h-220v272q0 56 -14.5 79t-47.5 23q-69 0 -69 -104v-270h-220v520h196l23 -74q28 43 72 66t100 23q91 0 135.5 -59.5zM383 587h-131l70 174h206z" />
    <glyph glyph-name="Ncommaaccent" unicode="&#x145;" horiz-adv-x="765" 
d="M712 760v-760h-226l-207 429v-429h-226v760h226l207 -429v429h226zM367 -220h-131l59 159h206z" />
    <glyph glyph-name="ncommaaccent" unicode="&#x146;" horiz-adv-x="663" 
d="M574.5 475.5q44.5 -59.5 44.5 -162.5v-313h-220v272q0 56 -14.5 79t-47.5 23q-69 0 -69 -104v-270h-220v520h196l23 -74q28 43 72 66t100 23q91 0 135.5 -59.5zM333 -220h-131l59 159h206z" />
    <glyph glyph-name="Ncaron" unicode="&#x147;" horiz-adv-x="765" 
d="M712 760v-760h-226l-207 429v-429h-226v760h226l207 -429v429h226zM586 1001l-153 -169h-125l-153 169h155l61 -83l60 83h155z" />
    <glyph glyph-name="ncaron" unicode="&#x148;" horiz-adv-x="663" 
d="M574.5 475.5q44.5 -59.5 44.5 -162.5v-313h-220v272q0 56 -14.5 79t-47.5 23q-69 0 -69 -104v-270h-220v520h196l23 -74q28 43 72 66t100 23q91 0 135.5 -59.5zM537 761l-153 -169h-125l-153 169h155l61 -83l60 83h155z" />
    <glyph glyph-name="napostrophe" unicode="&#x149;" horiz-adv-x="791" 
d="M259 760l-146 -174h-113l70 174h189zM702.5 475.5q44.5 -59.5 44.5 -162.5v-313h-220v272q0 56 -14.5 79t-47.5 23q-69 0 -69 -104v-270h-220v520h196l23 -74q28 43 72 66t100 23q91 0 135.5 -59.5z" />
    <glyph glyph-name="Eng" unicode="&#x14a;" horiz-adv-x="765" 
d="M712 760v-651q0 -153 -82 -241t-235 -88q-44 0 -78 6l13 171q22 -4 53 -4q44 0 73.5 29t29.5 84v32l-207 368v-466h-226v760h226l207 -367v367h226z" />
    <glyph glyph-name="eng" unicode="&#x14b;" horiz-adv-x="663" 
d="M574.5 475.5q44.5 -59.5 44.5 -162.5v-319q0 -109 -53 -161.5t-163 -52.5q-65 0 -133 18l12 156q30 -7 57 -7q35 0 47.5 17.5t12.5 60.5v247q0 56 -14.5 79t-47.5 23q-69 0 -69 -104v-270h-220v520h196l23 -74q28 43 72 66t100 23q91 0 135.5 -59.5z" />
    <glyph glyph-name="Omacron" unicode="&#x14c;" horiz-adv-x="857" 
d="M221 37.5q-90 52.5 -139.5 142.5t-49.5 200t49.5 200t139.5 142.5t208 52.5q117 0 207 -52.5t139.5 -143t49.5 -199.5t-49.5 -199.5t-139.5 -143t-207 -52.5q-118 0 -208 52.5zM510 218q37 23 58 65t21 97t-21 97t-58 65t-81 23q-45 0 -81.5 -23t-58 -65t-21.5 -97
t21.5 -97t58 -65t81.5 -23q44 0 81 23zM276 996h305v-113h-305v113z" />
    <glyph glyph-name="omacron" unicode="&#x14d;" horiz-adv-x="684" 
d="M171 21.5q-69 36.5 -102 98.5t-33 140t33 140t102 98.5t171 36.5t170.5 -36.5t102 -98.5t33.5 -140t-33.5 -140t-102 -98.5t-170.5 -36.5t-171 36.5zM404.5 184q24.5 29 24.5 76q0 46 -24.5 75t-62.5 29q-39 0 -63.5 -29t-24.5 -75q0 -47 24.5 -76t63.5 -29q38 0 62.5 29
zM189 756h305v-113h-305v113z" />
    <glyph glyph-name="Obreve" unicode="&#x14e;" horiz-adv-x="857" 
d="M221 37.5q-90 52.5 -139.5 142.5t-49.5 200t49.5 200t139.5 142.5t208 52.5q117 0 207 -52.5t139.5 -143t49.5 -199.5t-49.5 -199.5t-139.5 -143t-207 -52.5q-118 0 -208 52.5zM510 218q37 23 58 65t21 97t-21 97t-58 65t-81 23q-45 0 -81.5 -23t-58 -65t-21.5 -97
t21.5 -97t58 -65t81.5 -23q44 0 81 23zM303.5 871q-47.5 48 -52.5 130h114q2 -34 18 -54t46 -20t46 20t18 54h114q-5 -82 -52.5 -130t-125.5 -48t-125.5 48z" />
    <glyph glyph-name="obreve" unicode="&#x14f;" horiz-adv-x="684" 
d="M171 21.5q-69 36.5 -102 98.5t-33 140t33 140t102 98.5t171 36.5t170.5 -36.5t102 -98.5t33.5 -140t-33.5 -140t-102 -98.5t-170.5 -36.5t-171 36.5zM404.5 184q24.5 29 24.5 76q0 46 -24.5 75t-62.5 29q-39 0 -63.5 -29t-24.5 -75q0 -47 24.5 -76t63.5 -29q38 0 62.5 29
zM216.5 631q-47.5 48 -52.5 130h114q2 -34 18 -54t46 -20t46 20t18 54h114q-5 -82 -52.5 -130t-125.5 -48t-125.5 48z" />
    <glyph glyph-name="Ohungarumlaut" unicode="&#x150;" horiz-adv-x="857" 
d="M221 37.5q-90 52.5 -139.5 142.5t-49.5 200t49.5 200t139.5 142.5t208 52.5q117 0 207 -52.5t139.5 -143t49.5 -199.5t-49.5 -199.5t-139.5 -143t-207 -52.5q-118 0 -208 52.5zM510 218q37 23 58 65t21 97t-21 97t-58 65t-81 23q-45 0 -81.5 -23t-58 -65t-21.5 -97
t21.5 -97t58 -65t81.5 -23q44 0 81 23zM356 827h-131l70 174h206zM599 827h-131l70 174h206z" />
    <glyph glyph-name="ohungarumlaut" unicode="&#x151;" horiz-adv-x="684" 
d="M171 21.5q-69 36.5 -102 98.5t-33 140t33 140t102 98.5t171 36.5t170.5 -36.5t102 -98.5t33.5 -140t-33.5 -140t-102 -98.5t-170.5 -36.5t-171 36.5zM404.5 184q24.5 29 24.5 76q0 46 -24.5 75t-62.5 29q-39 0 -63.5 -29t-24.5 -75q0 -47 24.5 -76t63.5 -29q38 0 62.5 29
zM269 587h-131l70 174h206zM512 587h-131l70 174h206z" />
    <glyph glyph-name="OE" unicode="&#x152;" horiz-adv-x="1114" 
d="M221 37.5q-90 52.5 -139.5 142.5t-49.5 200t49.5 200t139.5 142.5t208 52.5q117 0 207 -52.5t139.5 -143t49.5 -199.5t-49.5 -199.5t-139.5 -143t-207 -52.5q-118 0 -208 52.5zM510 218q37 23 58 65t21 97t-21 97t-58 65t-81 23q-45 0 -81.5 -23t-58 -65t-21.5 -97
t21.5 -97t58 -65t81.5 -23q44 0 81 23zM1074 184v-184h-481v760h480v-184h-252v-95h239v-176h-239v-121h253z" />
    <glyph glyph-name="oe" unicode="&#x153;" horiz-adv-x="1076" 
d="M171 21.5q-69 36.5 -102 98.5t-33 140t33 140t102 98.5t171 36.5t170.5 -36.5t102 -98.5t33.5 -140t-33.5 -140t-102 -98.5t-170.5 -36.5t-171 36.5zM404.5 184q24.5 29 24.5 76q0 46 -24.5 75t-62.5 29q-39 0 -63.5 -29t-24.5 -75q0 -47 24.5 -76t63.5 -29q38 0 62.5 29
zM1037 207h-387q6 -37 29.5 -59.5t58.5 -22.5q24 0 42.5 12t28.5 30l216 -15q-69 -167 -294 -167q-95 0 -162.5 35.5t-102.5 97.5t-35 141t34.5 141.5t102 98.5t162.5 36q149 0 229.5 -73t80.5 -209q0 -25 -3 -46zM678 370.5q-23 -23.5 -28 -65.5h174q-3 43 -25 66t-61 23
q-37 0 -60 -23.5z" />
    <glyph glyph-name="Racute" unicode="&#x154;" horiz-adv-x="708" 
d="M363 205h-82v-205h-228v760h318q142 0 219.5 -74.5t77.5 -202.5q0 -75 -27.5 -133t-81.5 -95l134 -255h-233zM281 380h48q55 0 81.5 29.5t26.5 73.5t-26.5 73t-82.5 29h-47v-205zM385 827h-131l70 174h206z" />
    <glyph glyph-name="racute" unicode="&#x155;" horiz-adv-x="476" 
d="M466 528l-15 -193q-47 9 -76 9q-51 0 -79 -30.5t-28 -90.5v-223h-220v520h192l27 -99q25 57 64 85.5t87 28.5q27 0 48 -7zM294 587h-131l70 174h206z" />
    <glyph glyph-name="Rcommaaccent" unicode="&#x156;" horiz-adv-x="708" 
d="M363 205h-82v-205h-228v760h318q142 0 219.5 -74.5t77.5 -202.5q0 -75 -27.5 -133t-81.5 -95l134 -255h-233zM281 380h48q55 0 81.5 29.5t26.5 73.5t-26.5 73t-82.5 29h-47v-205zM340 -220h-131l59 159h206z" />
    <glyph glyph-name="rcommaaccent" unicode="&#x157;" horiz-adv-x="476" 
d="M466 528l-15 -193q-47 9 -76 9q-51 0 -79 -30.5t-28 -90.5v-223h-220v520h192l27 -99q25 57 64 85.5t87 28.5q27 0 48 -7zM180 -220h-131l59 159h206z" />
    <glyph glyph-name="Rcaron" unicode="&#x158;" horiz-adv-x="708" 
d="M363 205h-82v-205h-228v760h318q142 0 219.5 -74.5t77.5 -202.5q0 -75 -27.5 -133t-81.5 -95l134 -255h-233zM281 380h48q55 0 81.5 29.5t26.5 73.5t-26.5 73t-82.5 29h-47v-205zM539 1001l-153 -169h-125l-153 169h155l61 -83l60 83h155z" />
    <glyph glyph-name="rcaron" unicode="&#x159;" horiz-adv-x="476" 
d="M466 528l-15 -193q-47 9 -76 9q-51 0 -79 -30.5t-28 -90.5v-223h-220v520h192l27 -99q25 57 64 85.5t87 28.5q27 0 48 -7zM448 761l-153 -169h-125l-153 169h155l61 -83l60 83h155z" />
    <glyph glyph-name="Sacute" unicode="&#x15a;" horiz-adv-x="717" 
d="M134 51.5q-86 66.5 -102 176.5l235 16q9 -92 98 -92q38 0 60 14.5t22 42.5q0 23 -16 36t-54 25l-86 27q-89 28 -142.5 60t-80 77.5t-26.5 111.5q0 78 40 129.5t106.5 75.5t146.5 24q106 0 178 -35t108.5 -87t44.5 -106l-235 -17q-14 80 -84 80q-30 0 -48 -13.5t-18 -36.5
t17 -38t63 -29l90 -27q77 -23 127.5 -51.5t78.5 -74t28 -112.5q0 -117 -86 -180t-230 -63q-149 0 -235 66.5zM407 827h-131l70 174h206z" />
    <glyph glyph-name="sacute" unicode="&#x15b;" horiz-adv-x="589" 
d="M15 145l225 15q1 -28 16.5 -42t38.5 -14q53 0 53 41q0 18 -19 27.5t-75 23.5l-48 12q-90 23 -134.5 57.5t-44.5 104.5q0 165 259 165q118 0 185.5 -35t83.5 -108l-213 -14q-2 19 -15.5 30t-35.5 11q-21 0 -33 -8.5t-12 -23.5q0 -13 16 -21t57 -18l50 -12
q69 -17 110.5 -35.5t65.5 -52t24 -89.5q0 -174 -277 -174q-245 0 -277 160zM348 587h-131l70 174h206z" />
    <glyph glyph-name="Scircumflex" unicode="&#x15c;" horiz-adv-x="717" 
d="M134 51.5q-86 66.5 -102 176.5l235 16q9 -92 98 -92q38 0 60 14.5t22 42.5q0 23 -16 36t-54 25l-86 27q-89 28 -142.5 60t-80 77.5t-26.5 111.5q0 78 40 129.5t106.5 75.5t146.5 24q106 0 178 -35t108.5 -87t44.5 -106l-235 -17q-14 80 -84 80q-30 0 -48 -13.5t-18 -36.5
t17 -38t63 -29l90 -27q77 -23 127.5 -51.5t78.5 -74t28 -112.5q0 -117 -86 -180t-230 -63q-149 0 -235 66.5zM406 832l-60 83l-61 -83h-155l153 169h125l153 -169h-155z" />
    <glyph glyph-name="scircumflex" unicode="&#x15d;" horiz-adv-x="589" 
d="M15 145l225 15q1 -28 16.5 -42t38.5 -14q53 0 53 41q0 18 -19 27.5t-75 23.5l-48 12q-90 23 -134.5 57.5t-44.5 104.5q0 165 259 165q118 0 185.5 -35t83.5 -108l-213 -14q-2 19 -15.5 30t-35.5 11q-21 0 -33 -8.5t-12 -23.5q0 -13 16 -21t57 -18l50 -12
q69 -17 110.5 -35.5t65.5 -52t24 -89.5q0 -174 -277 -174q-245 0 -277 160zM347 592l-60 83l-61 -83h-155l153 169h125l153 -169h-155z" />
    <glyph glyph-name="Scedilla" unicode="&#x15e;" horiz-adv-x="717" 
d="M134 51.5q-86 66.5 -102 176.5l235 16q9 -92 98 -92q38 0 60 14.5t22 42.5q0 23 -16 36t-54 25l-86 27q-89 28 -142.5 60t-80 77.5t-26.5 111.5q0 78 40 129.5t106.5 75.5t146.5 24q106 0 178 -35t108.5 -87t44.5 -106l-235 -17q-14 80 -84 80q-30 0 -48 -13.5t-18 -36.5
t17 -38t63 -29l90 -27q77 -23 127.5 -51.5t78.5 -74t28 -112.5q0 -117 -86 -180t-230 -63q-149 0 -235 66.5zM467.5 -59.5q26.5 -22.5 26.5 -61.5q0 -45 -32.5 -72t-92.5 -27q-58 0 -99 24l26 63q26 -14 49 -14q16 0 26 8.5t10 24.5q0 12 -8 19t-21 7q-18 0 -34 -14l-32 21
l31 110h78l-13 -67q5 1 16 1q43 0 69.5 -22.5z" />
    <glyph glyph-name="scedilla" unicode="&#x15f;" horiz-adv-x="589" 
d="M15 145l225 15q1 -28 16.5 -42t38.5 -14q53 0 53 41q0 18 -19 27.5t-75 23.5l-48 12q-90 23 -134.5 57.5t-44.5 104.5q0 165 259 165q118 0 185.5 -35t83.5 -108l-213 -14q-2 19 -15.5 30t-35.5 11q-21 0 -33 -8.5t-12 -23.5q0 -13 16 -21t57 -18l50 -12
q69 -17 110.5 -35.5t65.5 -52t24 -89.5q0 -174 -277 -174q-245 0 -277 160zM381.5 -59.5q26.5 -22.5 26.5 -61.5q0 -45 -32.5 -72t-92.5 -27q-58 0 -99 24l26 63q26 -14 49 -14q16 0 26 8.5t10 24.5q0 12 -8 19t-21 7q-18 0 -34 -14l-32 21l31 110h78l-13 -67q5 1 16 1
q43 0 69.5 -22.5z" />
    <glyph glyph-name="Scaron" unicode="&#x160;" horiz-adv-x="717" 
d="M134 51.5q-86 66.5 -102 176.5l235 16q9 -92 98 -92q38 0 60 14.5t22 42.5q0 23 -16 36t-54 25l-86 27q-89 28 -142.5 60t-80 77.5t-26.5 111.5q0 78 40 129.5t106.5 75.5t146.5 24q106 0 178 -35t108.5 -87t44.5 -106l-235 -17q-14 80 -84 80q-30 0 -48 -13.5t-18 -36.5
t17 -38t63 -29l90 -27q77 -23 127.5 -51.5t78.5 -74t28 -112.5q0 -117 -86 -180t-230 -63q-149 0 -235 66.5zM561 1001l-153 -169h-125l-153 169h155l61 -83l60 83h155z" />
    <glyph glyph-name="scaron" unicode="&#x161;" horiz-adv-x="589" 
d="M15 145l225 15q1 -28 16.5 -42t38.5 -14q53 0 53 41q0 18 -19 27.5t-75 23.5l-48 12q-90 23 -134.5 57.5t-44.5 104.5q0 165 259 165q118 0 185.5 -35t83.5 -108l-213 -14q-2 19 -15.5 30t-35.5 11q-21 0 -33 -8.5t-12 -23.5q0 -13 16 -21t57 -18l50 -12
q69 -17 110.5 -35.5t65.5 -52t24 -89.5q0 -174 -277 -174q-245 0 -277 160zM502 761l-153 -169h-125l-153 169h155l61 -83l60 83h155z" />
    <glyph glyph-name="uni0162" unicode="&#x162;" horiz-adv-x="643" 
d="M623 576h-187v-576h-229v576h-187v184h603v-184zM419.5 -59.5q26.5 -22.5 26.5 -61.5q0 -45 -32.5 -72t-92.5 -27q-58 0 -99 24l26 63q26 -14 49 -14q16 0 26 8.5t10 24.5q0 12 -8 19t-21 7q-18 0 -34 -14l-32 21l31 110h78l-13 -67q5 1 16 1q43 0 69.5 -22.5z" />
    <glyph glyph-name="uni0163" unicode="&#x163;" horiz-adv-x="470" 
d="M440 -3q-67 -12 -143 -12q-114 0 -164.5 52.5t-50.5 169.5v147h-77l11 166h66v129h218v-129h129v-166h-129v-125q0 -40 14.5 -58t53.5 -18q30 0 60 6zM365.5 -59.5q26.5 -22.5 26.5 -61.5q0 -45 -32.5 -72t-92.5 -27q-58 0 -99 24l26 63q26 -14 49 -14q16 0 26 8.5
t10 24.5q0 12 -8 19t-21 7q-18 0 -34 -14l-32 21l31 110h78l-13 -67q5 1 16 1q43 0 69.5 -22.5z" />
    <glyph glyph-name="Tcaron" unicode="&#x164;" horiz-adv-x="643" 
d="M623 576h-187v-576h-229v576h-187v184h603v-184zM537 1001l-153 -169h-125l-153 169h155l61 -83l60 83h155z" />
    <glyph glyph-name="tcaron" unicode="&#x165;" horiz-adv-x="610" 
d="M610 760l-145 -174h-113l70 174h188zM428 159l12 -162q-67 -12 -143 -12q-114 0 -164.5 52.5t-50.5 169.5v147h-77l11 166h66v129h218v-129h129v-166h-129v-125q0 -40 14.5 -58t53.5 -18q30 0 60 6z" />
    <glyph glyph-name="Tbar" unicode="&#x166;" horiz-adv-x="643" 
d="M436 576v-127h118v-149h-118v-300h-229v300h-118v149h118v127h-187v184h603v-184h-187z" />
    <glyph glyph-name="tbar" unicode="&#x167;" horiz-adv-x="470" 
d="M440 -3q-70 -12 -144 -12q-114 0 -164 52.5t-50 169.5v23h-77v96h77v46h-76l10 148h66v129h218v-129h129v-148h-129v-46h122v-96h-122v-1q0 -40 14 -58t53 -18q31 0 61 6z" />
    <glyph glyph-name="Utilde" unicode="&#x168;" horiz-adv-x="771" 
d="M138 70q-88 85 -88 259v431h229v-439q0 -66 30 -96t77 -30t76.5 30t29.5 96v439h229v-431q0 -174 -88 -259t-247 -85q-160 0 -248 85zM409.5 846.5q-22.5 8.5 -51.5 23.5q-21 11 -36 17t-29 6q-37 0 -69 -39l-71 63q24 52 62.5 83t93.5 31q29 0 51.5 -8.5t51.5 -23.5
q23 -12 37.5 -17.5t29.5 -5.5q35 0 67 39l71 -62q-22 -51 -62 -83t-95 -32q-28 0 -50.5 8.5z" />
    <glyph glyph-name="utilde" unicode="&#x169;" horiz-adv-x="658" 
d="M610 520v-520h-196l-22 74q-27 -43 -68.5 -66t-93.5 -23q-186 0 -186 211v324h220v-279q0 -54 14 -74.5t45 -20.5q67 0 67 104v270h220zM352.5 606.5q-22.5 8.5 -51.5 23.5q-21 11 -36 17t-29 6q-37 0 -69 -39l-71 63q24 52 62.5 83t93.5 31q29 0 51.5 -8.5t51.5 -23.5
q23 -12 37.5 -17.5t29.5 -5.5q35 0 67 39l71 -62q-22 -51 -62 -83t-95 -32q-28 0 -50.5 8.5z" />
    <glyph glyph-name="Umacron" unicode="&#x16a;" horiz-adv-x="771" 
d="M138 70q-88 85 -88 259v431h229v-439q0 -66 30 -96t77 -30t76.5 30t29.5 96v439h229v-431q0 -174 -88 -259t-247 -85q-160 0 -248 85zM232 996h305v-113h-305v113z" />
    <glyph glyph-name="umacron" unicode="&#x16b;" horiz-adv-x="658" 
d="M610 520v-520h-196l-22 74q-27 -43 -68.5 -66t-93.5 -23q-186 0 -186 211v324h220v-279q0 -54 14 -74.5t45 -20.5q67 0 67 104v270h220zM175 756h305v-113h-305v113z" />
    <glyph glyph-name="Ubreve" unicode="&#x16c;" horiz-adv-x="771" 
d="M138 70q-88 85 -88 259v431h229v-439q0 -66 30 -96t77 -30t76.5 30t29.5 96v439h229v-431q0 -174 -88 -259t-247 -85q-160 0 -248 85zM259.5 871q-47.5 48 -52.5 130h114q2 -34 18 -54t46 -20t46 20t18 54h114q-5 -82 -52.5 -130t-125.5 -48t-125.5 48z" />
    <glyph glyph-name="ubreve" unicode="&#x16d;" horiz-adv-x="658" 
d="M610 520v-520h-196l-22 74q-27 -43 -68.5 -66t-93.5 -23q-186 0 -186 211v324h220v-279q0 -54 14 -74.5t45 -20.5q67 0 67 104v270h220zM202.5 631q-47.5 48 -52.5 130h114q2 -34 18 -54t46 -20t46 20t18 54h114q-5 -82 -52.5 -130t-125.5 -48t-125.5 48z" />
    <glyph glyph-name="Uring" unicode="&#x16e;" horiz-adv-x="771" 
d="M138 70q-88 85 -88 259v431h229v-439q0 -66 30 -96t77 -30t76.5 30t29.5 96v439h229v-431q0 -174 -88 -259t-247 -85q-160 0 -248 85zM321 835.5q-29 17.5 -46 46.5t-17 63t17 63t46 46t64 17q34 0 63 -17t46 -46t17 -63t-17 -63t-46 -46.5t-63 -17.5q-35 0 -64 17.5z
M423 905q15 16 15 40t-15 40t-38 16t-38.5 -16t-15.5 -40t15.5 -40t38.5 -16t38 16z" />
    <glyph glyph-name="uring" unicode="&#x16f;" horiz-adv-x="658" 
d="M610 520v-520h-196l-22 74q-27 -43 -68.5 -66t-93.5 -23q-186 0 -186 211v324h220v-279q0 -54 14 -74.5t45 -20.5q67 0 67 104v270h220zM264 595.5q-29 17.5 -46 46.5t-17 63t17 63t46 46t64 17q34 0 63 -17t46 -46t17 -63t-17 -63t-46 -46.5t-63 -17.5q-35 0 -64 17.5z
M366 665q15 16 15 40t-15 40t-38 16t-38.5 -16t-15.5 -40t15.5 -40t38.5 -16t38 16z" />
    <glyph glyph-name="Uhungarumlaut" unicode="&#x170;" horiz-adv-x="771" 
d="M138 70q-88 85 -88 259v431h229v-439q0 -66 30 -96t77 -30t76.5 30t29.5 96v439h229v-431q0 -174 -88 -259t-247 -85q-160 0 -248 85zM312 827h-131l70 174h206zM555 827h-131l70 174h206z" />
    <glyph glyph-name="uhungarumlaut" unicode="&#x171;" horiz-adv-x="658" 
d="M610 520v-520h-196l-22 74q-27 -43 -68.5 -66t-93.5 -23q-186 0 -186 211v324h220v-279q0 -54 14 -74.5t45 -20.5q67 0 67 104v270h220zM255 587h-131l70 174h206zM498 587h-131l70 174h206z" />
    <glyph glyph-name="Uogonek" unicode="&#x172;" horiz-adv-x="771" 
d="M138 70q-88 85 -88 259v431h229v-439q0 -66 30 -96t77 -30t76.5 30t29.5 96v439h229v-431q0 -174 -88 -259t-247 -85q-160 0 -248 85zM487 -15.5q-19 -16.5 -19 -46.5q0 -31 19.5 -48t52.5 -17q19 0 44 6l5 -75q-19 -11 -45 -17.5t-53 -6.5q-59 0 -97.5 32.5t-38.5 90.5
t43 99t123 47l11 -41q-26 -7 -45 -23.5z" />
    <glyph glyph-name="uogonek" unicode="&#x173;" horiz-adv-x="658" 
d="M610 520v-520h-196l-22 74q-27 -43 -68.5 -66t-93.5 -23q-186 0 -186 211v324h220v-279q0 -54 14 -74.5t45 -20.5q67 0 67 104v270h220zM486 -15.5q-19 -16.5 -19 -46.5q0 -31 19.5 -48t52.5 -17q19 0 44 6l5 -75q-19 -11 -45 -17.5t-53 -6.5q-59 0 -97.5 32.5
t-38.5 90.5t43 99t123 47l11 -41q-26 -7 -45 -23.5z" />
    <glyph glyph-name="Wcircumflex" unicode="&#x174;" horiz-adv-x="1080" 
d="M1070 760l-194 -760h-234l-102 443l-103 -443h-234l-193 760h238l87 -530l104 530h201l105 -532l87 532h238zM600 832l-60 83l-61 -83h-155l153 169h125l153 -169h-155z" />
    <glyph glyph-name="wcircumflex" unicode="&#x175;" horiz-adv-x="887" 
d="M887 520l-170 -520h-210l-63 265l-64 -265h-210l-170 520h233l59 -322l66 322h171l67 -322l58 322h233zM504 592l-60 83l-61 -83h-155l153 169h125l153 -169h-155z" />
    <glyph glyph-name="Ycircumflex" unicode="&#x176;" horiz-adv-x="699" 
d="M714 760l-379 -760h-236l147 294l-256 466h246l116 -253l126 253h236zM412 832l-60 83l-61 -83h-155l153 169h125l153 -169h-155z" />
    <glyph glyph-name="ycircumflex" unicode="&#x177;" horiz-adv-x="660" 
d="M612 520v-490q0 -123 -77.5 -186.5t-211.5 -63.5q-238 0 -283 165l223 18q7 -24 21 -35t40 -11q38 0 53 25t15 77v69q-27 -41 -68 -63t-92 -22q-186 0 -186 211v306h220v-261q0 -54 14 -74.5t46 -20.5q66 0 66 104v252h220zM392 592l-60 83l-61 -83h-155l153 169h125
l153 -169h-155z" />
    <glyph glyph-name="Ydieresis" unicode="&#x178;" horiz-adv-x="699" 
d="M714 760l-379 -760h-236l147 294l-256 466h246l116 -253l126 253h236zM163 866.5q-27 27.5 -27 65.5q0 39 27 66t65 27t65.5 -27t27.5 -66q0 -38 -27.5 -65.5t-65.5 -27.5t-65 27.5zM411.5 866.5q-27.5 27.5 -27.5 65.5q0 39 27.5 66t65.5 27t65 -27t27 -66
q0 -38 -27 -65.5t-65 -27.5t-65.5 27.5z" />
    <glyph glyph-name="Zacute" unicode="&#x179;" horiz-adv-x="686" 
d="M355 184h302v-184h-642l316 576h-271v184h611zM433 827h-131l70 174h206z" />
    <glyph glyph-name="zacute" unicode="&#x17a;" horiz-adv-x="569" 
d="M327 162h218v-162h-535l219 359h-191l11 161h500zM353 587h-131l70 174h206z" />
    <glyph glyph-name="Zdotaccent" unicode="&#x17b;" horiz-adv-x="686" 
d="M355 184h302v-184h-642l316 576h-271v184h611zM297 850q-31 31 -31 75t31 75t75 31t75 -31t31 -75t-31 -75t-75 -31t-75 31z" />
    <glyph glyph-name="zdotaccent" unicode="&#x17c;" horiz-adv-x="569" 
d="M327 162h218v-162h-535l219 359h-191l11 161h500zM217 610q-31 31 -31 75t31 75t75 31t75 -31t31 -75t-31 -75t-75 -31t-75 31z" />
    <glyph glyph-name="Zcaron" unicode="&#x17d;" horiz-adv-x="686" 
d="M355 184h302v-184h-642l316 576h-271v184h611zM587 1001l-153 -169h-125l-153 169h155l61 -83l60 83h155z" />
    <glyph glyph-name="zcaron" unicode="&#x17e;" horiz-adv-x="569" 
d="M327 162h218v-162h-535l219 359h-191l11 161h500zM507 761l-153 -169h-125l-153 169h155l61 -83l60 83h155z" />
    <glyph glyph-name="longs" unicode="&#x17f;" horiz-adv-x="392" 
d="M382 767.5q49 -7.5 70 -14.5l-10 -141q-38 8 -77 8q-38 0 -53.5 -17.5t-15.5 -60.5v-542h-218v354h-73l13 166h60v39q0 110 52.5 163t163.5 53q39 0 88 -7.5z" />
    <glyph glyph-name="uni018F" unicode="&#x18f;" horiz-adv-x="857" 
d="M634.5 722.5q91.5 -52.5 141 -142.5t49.5 -200q0 -109 -49.5 -199.5t-139.5 -143t-207 -52.5q-118 0 -208 53t-139.5 143.5t-49.5 200.5v65h547q-16 54 -57.5 86t-93.5 32q-37 0 -68 -15t-52 -45l-245 27q41 112 135.5 177.5t224.5 65.5q120 0 211.5 -52.5zM518.5 224
q39.5 29 57.5 79h-296q17 -52 57 -80t92 -28q50 0 89.5 29z" />
    <glyph glyph-name="florin" unicode="&#x192;" horiz-adv-x="650" 
d="M488 571q-20 -23 -25 -67l-4 -42h82v-105h-93l-33 -312q-14 -132 -77.5 -191t-181.5 -59h-76l16 166q46 0 66 23t25 67l32 306h-51v105h62l5 50q14 131 77 189.5t182 58.5h76l-18 -166q-44 0 -64 -23z" />
    <glyph glyph-name="uni019D" unicode="&#x19d;" horiz-adv-x="765" 
d="M712 760v-760h-226l-207 429v-320q0 -153 -82 -241t-235 -88q-43 0 -77 6l13 171q20 -4 52 -4q45 0 74 27.5t29 85.5v694h226l207 -429v429h226z" />
    <glyph glyph-name="uni01CD" unicode="&#x1cd;" horiz-adv-x="751" 
d="M487 96h-223l-25 -96h-239l245 760h261l245 -760h-239zM447 254l-71 281l-72 -281h143zM590 1001l-153 -169h-125l-153 169h155l61 -83l60 83h155z" />
    <glyph glyph-name="uni01CE" unicode="&#x1ce;" horiz-adv-x="699" 
d="M651 520v-520h-205l-15 83q-55 -98 -165 -98q-62 0 -114.5 31t-84 93t-31.5 150q0 83 29 145.5t79.5 96.5t114.5 34q61 0 104.5 -30.5t67.5 -75.5v91h220zM411.5 184.5q24.5 29.5 24.5 75.5t-24 75t-64 29t-64 -29t-24 -75q0 -47 24 -76t64 -29q39 0 63.5 29.5zM555 761
l-153 -169h-125l-153 169h155l61 -83l60 83h155z" />
    <glyph glyph-name="Gcaron" unicode="&#x1e6;" horiz-adv-x="833" 
d="M420 433h367v-323q-59 -56 -148.5 -90.5t-195.5 -34.5q-128 0 -221 52.5t-141.5 141.5t-48.5 198q0 114 50.5 204.5t139.5 142t200 51.5q108 0 185.5 -39.5t122.5 -98.5t63 -121l-242 -17q-14 27 -46.5 48.5t-82.5 21.5q-72 0 -113.5 -51t-41.5 -141q0 -92 45 -144.5
t134 -52.5q38 0 72.5 9t60.5 25v65h-159v154zM635 1001l-153 -169h-125l-153 169h155l61 -83l60 83h155z" />
    <glyph glyph-name="gcaron" unicode="&#x1e7;" horiz-adv-x="699" 
d="M651 520v-490q0 -121 -76.5 -185.5t-219.5 -64.5q-123 0 -194.5 44.5t-94.5 122.5l222 16q14 -46 67 -46q41 0 58.5 24t17.5 76v79q-54 -94 -165 -94q-62 0 -114.5 30t-84 88.5t-31.5 138.5q0 83 29 145.5t80 96.5t114 34q61 0 104 -29.5t67 -74.5l16 89h205zM412 187
q24 29 24 75q0 45 -24.5 73.5t-63.5 28.5t-63.5 -28.5t-24.5 -73.5q0 -46 24.5 -75t63.5 -29q40 0 64 29zM565 761l-153 -169h-125l-153 169h155l61 -83l60 83h155z" />
    <glyph glyph-name="Aringacute" unicode="&#x1fa;" horiz-adv-x="751" 
d="M487 96h-223l-25 -96h-239l245 760h261l245 -760h-239zM447 254l-71 281l-72 -281h143zM311 835.5q-29 17.5 -46 46.5t-17 63t17 63t46 46t64 17q34 0 63 -17t46 -46t17 -63t-17 -63t-46 -46.5t-63 -17.5q-35 0 -64 17.5zM413 905q15 16 15 40t-15 40t-38 16t-38.5 -16
t-15.5 -40t15.5 -40t38.5 -16t38 16zM436 1107h-131l70 174h206z" />
    <glyph glyph-name="aringacute" unicode="&#x1fb;" horiz-adv-x="699" 
d="M651 520v-520h-205l-15 83q-55 -98 -165 -98q-62 0 -114.5 31t-84 93t-31.5 150q0 83 29 145.5t79.5 96.5t114.5 34q61 0 104.5 -30.5t67.5 -75.5v91h220zM411.5 184.5q24.5 29.5 24.5 75.5t-24 75t-64 29t-64 -29t-24 -75q0 -47 24 -76t64 -29q39 0 63.5 29.5z
M276 595.5q-29 17.5 -46 46.5t-17 63t17 63t46 46t64 17q34 0 63 -17t46 -46t17 -63t-17 -63t-46 -46.5t-63 -17.5q-35 0 -64 17.5zM378 665q15 16 15 40t-15 40t-38 16t-38.5 -16t-15.5 -40t15.5 -40t38.5 -16t38 16zM401 867h-131l70 174h206z" />
    <glyph glyph-name="AEacute" unicode="&#x1fc;" horiz-adv-x="1027" 
d="M987 184v-184h-467v127h-226l-62 -127h-237l423 760h568v-184h-237v-95h225v-175h-225v-122h238zM520 285v300l-148 -300h148zM797 827h-131l70 174h206z" />
    <glyph glyph-name="aeacute" unicode="&#x1fd;" horiz-adv-x="982" 
d="M944 207h-365q4 -36 28.5 -59t57.5 -23q53 0 74 43l196 -14q-74 -169 -274 -169q-68 0 -120 22t-87 63q-59 -85 -202 -85q-102 0 -157 41t-55 119t63 119t173 41h116v16q0 73 -74 73q-25 0 -44 -12t-26 -32l-187 14q13 42 45 81t86.5 64.5t128.5 25.5q114 0 179 -45
q65 45 160 45q134 0 210 -74.5t76 -210.5q0 -30 -2 -43zM606.5 370q-22.5 -25 -27.5 -65h173q-4 40 -26 65t-60 25q-37 0 -59.5 -25zM367 126.5q25 22.5 25 65.5v15h-83q-45 0 -63 -13t-18 -39q0 -27 20 -39t51 -12q43 0 68 22.5zM555 587h-131l70 174h206z" />
    <glyph glyph-name="Oslashacute" unicode="&#x1fe;" horiz-adv-x="857" 
d="M797 534q28 -72 28 -154q0 -109 -49.5 -199.5t-139.5 -143t-207 -52.5q-80 0 -155 27l-28 -41h-173l80 117q-58 54 -89.5 129.5t-31.5 162.5q0 110 49.5 200t139.5 142.5t208 52.5q93 0 170 -34l33 48h173l-88 -129q52 -54 80 -126zM275 267l213 311q-32 10 -59 10
q-50 0 -91 -26t-65 -73.5t-24 -108.5q0 -63 26 -113zM519.5 198q40.5 26 64.5 73.5t24 108.5q0 53 -18 95l-203 -298q22 -5 42 -5q50 0 90.5 26zM500 827h-131l70 174h206z" />
    <glyph glyph-name="oslashacute" unicode="&#x1ff;" horiz-adv-x="684" 
d="M621.5 386.5q26.5 -57.5 26.5 -126.5q0 -78 -33.5 -140t-102 -98.5t-170.5 -36.5q-69 0 -128 19l-16 -24h-92l39 57q-54 37 -81.5 94.5t-27.5 128.5q0 78 33 140t102 98.5t171 36.5q74 0 132 -20l16 24h92l-40 -58q53 -37 79.5 -94.5zM254 195l123 180q-16 6 -35 6
q-45 0 -73.5 -33.5t-28.5 -87.5q0 -37 14 -65zM415.5 172q28.5 34 28.5 88q0 34 -12 61l-122 -178q17 -5 32 -5q45 0 73.5 34zM403 587h-131l70 174h206z" />
    <glyph glyph-name="Scommaaccent" unicode="&#x218;" horiz-adv-x="717" 
d="M134 51.5q-86 66.5 -102 176.5l235 16q9 -92 98 -92q38 0 60 14.5t22 42.5q0 23 -16 36t-54 25l-86 27q-89 28 -142.5 60t-80 77.5t-26.5 111.5q0 78 40 129.5t106.5 75.5t146.5 24q106 0 178 -35t108.5 -87t44.5 -106l-235 -17q-14 80 -84 80q-30 0 -48 -13.5t-18 -36.5
t17 -38t63 -29l90 -27q77 -23 127.5 -51.5t78.5 -74t28 -112.5q0 -117 -86 -180t-230 -63q-149 0 -235 66.5zM375 -220h-131l59 159h206z" />
    <glyph glyph-name="scommaaccent" unicode="&#x219;" horiz-adv-x="589" 
d="M15 145l225 15q1 -28 16.5 -42t38.5 -14q53 0 53 41q0 18 -19 27.5t-75 23.5l-48 12q-90 23 -134.5 57.5t-44.5 104.5q0 165 259 165q118 0 185.5 -35t83.5 -108l-213 -14q-2 19 -15.5 30t-35.5 11q-21 0 -33 -8.5t-12 -23.5q0 -13 16 -21t57 -18l50 -12
q69 -17 110.5 -35.5t65.5 -52t24 -89.5q0 -174 -277 -174q-245 0 -277 160zM289 -220h-131l59 159h206z" />
    <glyph glyph-name="uni021A" unicode="&#x21a;" horiz-adv-x="643" 
d="M623 576h-187v-576h-229v576h-187v184h603v-184zM327 -220h-131l59 159h206z" />
    <glyph glyph-name="uni021B" unicode="&#x21b;" horiz-adv-x="470" 
d="M440 -3q-67 -12 -143 -12q-114 0 -164.5 52.5t-50.5 169.5v147h-77l11 166h66v129h218v-129h129v-166h-129v-125q0 -40 14.5 -58t53.5 -18q30 0 60 6zM273 -220h-131l59 159h206z" />
    <glyph glyph-name="uni0232" unicode="&#x232;" horiz-adv-x="699" 
d="M714 760l-379 -760h-236l147 294l-256 466h246l116 -253l126 253h236zM199 996h305v-113h-305v113z" />
    <glyph glyph-name="uni0233" unicode="&#x233;" horiz-adv-x="660" 
d="M612 520v-490q0 -123 -77.5 -186.5t-211.5 -63.5q-238 0 -283 165l223 18q7 -24 21 -35t40 -11q38 0 53 25t15 77v69q-27 -41 -68 -63t-92 -22q-186 0 -186 211v306h220v-261q0 -54 14 -74.5t46 -20.5q66 0 66 104v252h220zM179 756h305v-113h-305v113z" />
    <glyph glyph-name="uni0237" unicode="&#x237;" horiz-adv-x="341" 
d="M5 -215q-37 5 -65 13l12 156q32 -7 56 -7q37 0 50 17.5t13 60.5v495h218v-526q0 -109 -52.5 -161.5t-162.5 -52.5q-32 0 -69 5z" />
    <glyph glyph-name="uni0259" unicode="&#x259;" horiz-adv-x="681" 
d="M39 313h387q-6 37 -29.5 59.5t-58.5 22.5q-24 0 -42.5 -12t-28.5 -30l-216 15q69 167 294 167q95 0 162.5 -35.5t102.5 -97.5t35 -141t-34.5 -141.5t-102 -98.5t-162.5 -36q-149 0 -229.5 73t-80.5 209q0 25 3 46zM398 149.5q23 23.5 28 65.5h-174q3 -43 25 -66t61 -23
q37 0 60 23.5z" />
    <glyph glyph-name="uni0272" unicode="&#x272;" horiz-adv-x="684" 
d="M596 475.5q44 -59.5 44 -162.5v-313h-220v272q0 56 -14 79t-47 23q-38 0 -54 -28t-16 -76v-276q0 -109 -52.5 -161.5t-162.5 -52.5q-31 0 -67.5 5t-66.5 13l12 156q33 -7 57 -7q35 0 47.5 17.5t12.5 60.5v495h197l22 -75q28 43 72 66.5t100 23.5q92 0 136 -59.5z" />
    <glyph glyph-name="circumflex" unicode="&#x2c6;" horiz-adv-x="531" 
d="M326 591l-60 83l-61 -83h-155l153 169h125l153 -169h-155z" />
    <glyph glyph-name="caron" unicode="&#x2c7;" horiz-adv-x="531" 
d="M481 760l-153 -169h-125l-153 169h155l61 -83l60 83h155z" />
    <glyph glyph-name="breve" unicode="&#x2d8;" horiz-adv-x="456" 
d="M102.5 630q-47.5 48 -52.5 130h114q2 -34 18 -54t46 -20t46 20t18 54h114q-5 -82 -52.5 -130t-125.5 -48t-125.5 48z" />
    <glyph glyph-name="dotaccent" unicode="&#x2d9;" horiz-adv-x="312" 
d="M81 609q-31 31 -31 75t31 75t75 31t75 -31t31 -75t-31 -75t-75 -31t-75 31z" />
    <glyph glyph-name="ring" unicode="&#x2da;" horiz-adv-x="353" 
d="M113 594.5q-29 17.5 -46 46.5t-17 63t17 63t46 46t64 17q34 0 63 -17t46 -46t17 -63t-17 -63t-46 -46.5t-63 -17.5q-35 0 -64 17.5zM215 664q15 16 15 40t-15 40t-38 16t-38.5 -16t-15.5 -40t15.5 -40t38.5 -16t38 16z" />
    <glyph glyph-name="ogonek" unicode="&#x2db;" horiz-adv-x="334" 
d="M182 -15.5q-19 -16.5 -19 -46.5q0 -31 19.5 -48t52.5 -17q19 0 44 6l5 -75q-19 -11 -45 -17.5t-53 -6.5q-59 0 -97.5 32.5t-38.5 90.5t43 99t123 47l11 -41q-26 -7 -45 -23.5z" />
    <glyph glyph-name="tilde" unicode="&#x2dc;" horiz-adv-x="564" 
d="M306.5 605.5q-22.5 8.5 -51.5 23.5q-21 11 -36 17t-29 6q-37 0 -69 -39l-71 63q24 52 62.5 83t93.5 31q29 0 51.5 -8.5t51.5 -23.5q23 -12 37.5 -17.5t29.5 -5.5q35 0 67 39l71 -62q-22 -51 -62 -83t-95 -32q-28 0 -50.5 8.5z" />
    <glyph glyph-name="hungarumlaut" unicode="&#x2dd;" horiz-adv-x="619" 
d="M181 586h-131l70 174h206zM424 586h-131l70 174h206z" />
    <glyph glyph-name="gravecomb" unicode="&#x300;" 
d="M-120 760l70 -174h-131l-145 174h206z" />
    <glyph glyph-name="acutecomb" unicode="&#x301;" 
d="M-195 586h-131l70 174h206z" />
    <glyph glyph-name="uni0302" unicode="&#x302;" 
d="M-205 591l-60 83l-61 -83h-155l153 169h125l153 -169h-155z" />
    <glyph glyph-name="tildecomb" unicode="&#x303;" 
d="M-257.5 605.5q-22.5 8.5 -51.5 23.5q-21 11 -36 17t-29 6q-37 0 -69 -39l-71 63q24 52 62.5 83t93.5 31q29 0 51.5 -8.5t51.5 -23.5q23 -12 37.5 -17.5t29.5 -5.5q35 0 67 39l71 -62q-22 -51 -62 -83t-95 -32q-28 0 -50.5 8.5z" />
    <glyph glyph-name="uni0304" unicode="&#x304;" 
d="M-355 755h305v-113h-305v113z" />
    <glyph glyph-name="uni0306" unicode="&#x306;" 
d="M-353.5 630q-47.5 48 -52.5 130h114q2 -34 18 -54t46 -20t46 20t18 54h114q-5 -82 -52.5 -130t-125.5 -48t-125.5 48z" />
    <glyph glyph-name="uni0307" unicode="&#x307;" 
d="M-231 609q-31 31 -31 75t31 75t75 31t75 -31t31 -75t-31 -75t-75 -31t-75 31z" />
    <glyph glyph-name="uni0308" unicode="&#x308;" 
d="M-456 625.5q-27 27.5 -27 65.5q0 39 27 66t65 27t65.5 -27t27.5 -66q0 -38 -27.5 -65.5t-65.5 -27.5t-65 27.5zM-207.5 625.5q-27.5 27.5 -27.5 65.5q0 39 27.5 66t65.5 27t65 -27t27 -66q0 -38 -27 -65.5t-65 -27.5t-65.5 27.5z" />
    <glyph glyph-name="uni030A" unicode="&#x30a;" 
d="M-240 594.5q-29 17.5 -46 46.5t-17 63t17 63t46 46t64 17q34 0 63 -17t46 -46t17 -63t-17 -63t-46 -46.5t-63 -17.5q-35 0 -64 17.5zM-138 664q15 16 15 40t-15 40t-38 16t-38.5 -16t-15.5 -40t15.5 -40t38.5 -16t38 16z" />
    <glyph glyph-name="uni030B" unicode="&#x30b;" 
d="M-438 586h-131l70 174h206zM-195 586h-131l70 174h206z" />
    <glyph glyph-name="uni030C" unicode="&#x30c;" 
d="M-50 760l-153 -169h-125l-153 169h155l61 -83l60 83h155z" />
    <glyph glyph-name="uni0326" unicode="&#x326;" 
d="M-184 -220h-131l59 159h206z" />
    <glyph glyph-name="uni0327" unicode="&#x327;" 
d="M-76.5 -59.5q26.5 -22.5 26.5 -61.5q0 -45 -32.5 -72t-92.5 -27q-58 0 -99 24l26 63q26 -14 49 -14q16 0 26 8.5t10 24.5q0 12 -8 19t-21 7q-18 0 -34 -14l-32 21l31 110h78l-13 -67q5 1 16 1q43 0 69.5 -22.5z" />
    <glyph glyph-name="uni0328" unicode="&#x328;" 
d="M-152 -15.5q-19 -16.5 -19 -46.5q0 -31 19.5 -48t52.5 -17q19 0 44 6l5 -75q-19 -11 -45 -17.5t-53 -6.5q-59 0 -97.5 32.5t-38.5 90.5t43 99t123 47l11 -41q-26 -7 -45 -23.5z" />
    <glyph glyph-name="tonos" unicode="&#x384;" horiz-adv-x="375" 
d="M120 760h205l-144 -170h-131z" />
    <glyph glyph-name="dieresistonos" unicode="&#x385;" horiz-adv-x="616" 
d="M267 817h180l-138 -231h-105zM73.5 635.5q-23.5 23.5 -23.5 56.5q0 34 23.5 57t55.5 23q33 0 56.5 -23t23.5 -57q0 -33 -23.5 -56.5t-56.5 -23.5q-32 0 -55.5 23.5zM430.5 634.5q-23.5 23.5 -23.5 56.5q0 34 23.5 57t56.5 23t56 -23t23 -57q0 -33 -23.5 -56.5
t-55.5 -23.5q-33 0 -56.5 23.5z" />
    <glyph glyph-name="Alphatonos" unicode="&#x386;" horiz-adv-x="751" 
d="M487 96h-223l-25 -96h-239l245 760h261l245 -760h-239zM447 254l-71 281l-72 -281h143zM-20 760h205l-144 -170h-131z" />
    <glyph glyph-name="anoteleia" unicode="&#x387;" horiz-adv-x="316" 
d="M81.5 343.5q-31.5 31.5 -31.5 76.5q0 44 31.5 76t76.5 32t76.5 -32t31.5 -76q0 -45 -31.5 -76.5t-76.5 -31.5t-76.5 31.5z" />
    <glyph glyph-name="Epsilontonos" unicode="&#x388;" horiz-adv-x="574" 
d="M534 184v-184h-481v760h480v-184h-252v-95h239v-176h-239v-121h253zM-180 760h205l-144 -170h-131z" />
    <glyph glyph-name="Etatonos" unicode="&#x389;" horiz-adv-x="755" 
d="M702 760v-760h-228v299h-193v-299h-228v760h228v-277h193v277h228zM-180 760h205l-144 -170h-131z" />
    <glyph glyph-name="Iotatonos" unicode="&#x38a;" horiz-adv-x="334" 
d="M53 760h228v-760h-228v760zM-180 760h205l-144 -170h-131z" />
    <glyph glyph-name="Omicrontonos" unicode="&#x38c;" horiz-adv-x="857" 
d="M221 37.5q-90 52.5 -139.5 142.5t-49.5 200t49.5 200t139.5 142.5t208 52.5q117 0 207 -52.5t139.5 -143t49.5 -199.5t-49.5 -199.5t-139.5 -143t-207 -52.5q-118 0 -208 52.5zM510 218q37 23 58 65t21 97t-21 97t-58 65t-81 23q-45 0 -81.5 -23t-58 -65t-21.5 -97
t21.5 -97t58 -65t81.5 -23q44 0 81 23zM-70 760h205l-144 -170h-131z" />
    <glyph glyph-name="Upsilontonos" unicode="&#x38e;" horiz-adv-x="699" 
d="M714 760l-379 -760h-236l147 294l-256 466h246l116 -253l126 253h236zM-240 760h205l-144 -170h-131z" />
    <glyph glyph-name="Omegatonos" unicode="&#x38f;" horiz-adv-x="854" 
d="M788.5 280q-35.5 -67 -103.5 -101h139v-179h-332v223q42 25 70 66.5t28 102.5q0 50 -22 89.5t-59.5 61.5t-81.5 22t-81.5 -22t-59.5 -61.5t-22 -89.5q0 -61 28 -102.5t70 -66.5v-223h-332v179h139q-68 34 -103.5 101t-35.5 155q0 96 51 174t141.5 122t204.5 44t204.5 -44
t141.5 -122t51 -174q0 -88 -35.5 -155zM-93 760h205l-144 -170h-131z" />
    <glyph glyph-name="iotadieresistonos" unicode="&#x390;" horiz-adv-x="369" 
d="M140 8q-50 23 -72.5 77t-22.5 150v285h218v-289q0 -40 18.5 -58.5t60.5 -18.5h15l12 -161q-35 -8 -91 -8q-88 0 -138 23zM118 817h180l-138 -231h-105zM-75.5 635.5q-23.5 23.5 -23.5 56.5q0 34 23.5 57t55.5 23q33 0 56.5 -23t23.5 -57q0 -33 -23.5 -56.5t-56.5 -23.5
q-32 0 -55.5 23.5zM281.5 634.5q-23.5 23.5 -23.5 56.5q0 34 23.5 57t56.5 23t56 -23t23 -57q0 -33 -23.5 -56.5t-55.5 -23.5q-33 0 -56.5 23.5z" />
    <glyph glyph-name="Alpha" unicode="&#x391;" horiz-adv-x="751" 
d="M487 96h-223l-25 -96h-239l245 760h261l245 -760h-239zM447 254l-71 281l-72 -281h143z" />
    <glyph glyph-name="Beta" unicode="&#x392;" horiz-adv-x="676" 
d="M656 230q0 -107 -74.5 -168.5t-201.5 -61.5h-327v760h322q128 0 191 -52.5t63 -139.5q0 -105 -91 -158q118 -46 118 -180zM273 593v-128h69q35 0 53 19t18 47q0 29 -18.5 45.5t-54.5 16.5h-67zM415 192q23 22 23 60q0 35 -23 56t-65 21h-77v-159h77q42 0 65 22z" />
    <glyph glyph-name="Gamma" unicode="&#x393;" horiz-adv-x="545" 
d="M281 0h-228v760h462v-184h-234v-576z" />
    <glyph glyph-name="uni0394" unicode="&#x394;" horiz-adv-x="798" 
d="M798 0h-798l269 760h260zM515 160l-116 410l-117 -410h233z" />
    <glyph glyph-name="Epsilon" unicode="&#x395;" horiz-adv-x="574" 
d="M534 184v-184h-481v760h480v-184h-252v-95h239v-176h-239v-121h253z" />
    <glyph glyph-name="Zeta" unicode="&#x396;" horiz-adv-x="686" 
d="M355 184h302v-184h-642l316 576h-271v184h611z" />
    <glyph glyph-name="Eta" unicode="&#x397;" horiz-adv-x="755" 
d="M702 760v-760h-228v299h-193v-299h-228v760h228v-277h193v277h228z" />
    <glyph glyph-name="Theta" unicode="&#x398;" horiz-adv-x="857" 
d="M221 37.5q-90 52.5 -139.5 142.5t-49.5 200t49.5 200t139.5 142.5t208 52.5q117 0 207 -52.5t139.5 -143t49.5 -199.5t-49.5 -199.5t-139.5 -143t-207 -52.5q-118 0 -208 52.5zM512.5 213q37.5 24 59.5 67.5t22 99.5t-22 99.5t-59.5 67.5t-83.5 24t-84 -24t-60 -67.5
t-22 -99.5t22 -99.5t60 -67.5t84 -24t83.5 24zM343 472h171v-175h-171v175z" />
    <glyph glyph-name="Iota" unicode="&#x399;" horiz-adv-x="334" 
d="M53 760h228v-760h-228v760z" />
    <glyph glyph-name="Kappa" unicode="&#x39a;" horiz-adv-x="714" 
d="M332 281l-51 -66v-215h-228v760h228v-233l162 233h261l-239 -308l264 -452h-245z" />
    <glyph glyph-name="Lambda" unicode="&#x39b;" horiz-adv-x="751" 
d="M512 0l-136 535l-137 -535h-239l245 760h261l245 -760h-239z" />
    <glyph glyph-name="Mu" unicode="&#x39c;" horiz-adv-x="940" 
d="M671 0l-23 382l-128 -382h-100l-128 382l-23 -382h-239l60 760h252l128 -394l128 394h252l60 -760h-239z" />
    <glyph glyph-name="Nu" unicode="&#x39d;" horiz-adv-x="765" 
d="M712 760v-760h-226l-207 429v-429h-226v760h226l207 -429v429h226z" />
    <glyph glyph-name="Xi" unicode="&#x39e;" horiz-adv-x="702" 
d="M55 760h592v-184h-592v184zM103 481h498v-176h-498v176zM40 184h622v-184h-622v184z" />
    <glyph glyph-name="Omicron" unicode="&#x39f;" horiz-adv-x="857" 
d="M221 37.5q-90 52.5 -139.5 142.5t-49.5 200t49.5 200t139.5 142.5t208 52.5q117 0 207 -52.5t139.5 -143t49.5 -199.5t-49.5 -199.5t-139.5 -143t-207 -52.5q-118 0 -208 52.5zM510 218q37 23 58 65t21 97t-21 97t-58 65t-81 23q-45 0 -81.5 -23t-58 -65t-21.5 -97
t21.5 -97t58 -65t81.5 -23q44 0 81 23z" />
    <glyph glyph-name="Pi" unicode="&#x3a0;" horiz-adv-x="766" 
d="M713 0h-228v576h-204v-576h-228v760h660v-760z" />
    <glyph glyph-name="Rho" unicode="&#x3a1;" horiz-adv-x="698" 
d="M590.5 685.5q77.5 -74.5 77.5 -202.5q0 -84 -34.5 -146.5t-101 -97t-160.5 -34.5h-91v-205h-228v760h318q142 0 219.5 -74.5zM410.5 409.5q26.5 29.5 26.5 73.5t-26.5 73t-82.5 29h-47v-205h48q55 0 81.5 29.5z" />
    <glyph glyph-name="Sigma" unicode="&#x3a3;" horiz-adv-x="653" 
d="M231 404l-226 356h628v-184h-285l119 -170l-123 -222h304v-184h-642z" />
    <glyph glyph-name="Tau" unicode="&#x3a4;" horiz-adv-x="643" 
d="M623 576h-187v-576h-229v576h-187v184h603v-184z" />
    <glyph glyph-name="Upsilon" unicode="&#x3a5;" horiz-adv-x="699" 
d="M714 760l-379 -760h-236l147 294l-256 466h246l116 -253l126 253h236z" />
    <glyph glyph-name="Phi" unicode="&#x3a6;" horiz-adv-x="975" 
d="M857.5 177q-87.5 -85 -255.5 -103v-74h-228v74q-168 17 -256 102.5t-88 213.5q0 83 41 151.5t119 113t184 57.5v48h228v-48q106 -13 183.5 -57.5t118.5 -113t41 -151.5q0 -128 -87.5 -213zM279.5 291.5q34.5 -38.5 94.5 -53.5v301q-55 -11 -92 -53.5t-37 -96.5
q0 -59 34.5 -97.5zM696 292q34 38 34 97q0 54 -37 96t-91 54v-301q60 16 94 54z" />
    <glyph glyph-name="Chi" unicode="&#x3a7;" horiz-adv-x="744" 
d="M493 0l-121 212l-121 -212h-251l256 396l-239 364h253l102 -195l102 195h253l-237 -364l254 -396h-251z" />
    <glyph glyph-name="Psi" unicode="&#x3a8;" horiz-adv-x="960" 
d="M920 760v-186q0 -156 -81 -249t-245 -117v-208h-228v208q-164 24 -245 117t-81 249v186h229v-207q0 -64 21 -100.5t76 -52.5v360h228v-360q55 16 76 52.5t21 100.5v207h229z" />
    <glyph glyph-name="uni03A9" unicode="&#x3a9;" horiz-adv-x="854" 
d="M788.5 280q-35.5 -67 -103.5 -101h139v-179h-332v223q42 25 70 66.5t28 102.5q0 50 -22 89.5t-59.5 61.5t-81.5 22t-81.5 -22t-59.5 -61.5t-22 -89.5q0 -61 28 -102.5t70 -66.5v-223h-332v179h139q-68 34 -103.5 101t-35.5 155q0 96 51 174t141.5 122t204.5 44t204.5 -44
t141.5 -122t51 -174q0 -88 -35.5 -155z" />
    <glyph glyph-name="Iotadieresis" unicode="&#x3aa;" horiz-adv-x="334" 
d="M53 760h228v-760h-228v760zM-22 866.5q-27 27.5 -27 65.5q0 39 27 66t65 27t65.5 -27t27.5 -66q0 -38 -27.5 -65.5t-65.5 -27.5t-65 27.5zM226.5 866.5q-27.5 27.5 -27.5 65.5q0 39 27.5 66t65.5 27t65 -27t27 -66q0 -38 -27 -65.5t-65 -27.5t-65.5 27.5z" />
    <glyph glyph-name="Upsilondieresis" unicode="&#x3ab;" horiz-adv-x="699" 
d="M714 760l-379 -760h-236l147 294l-256 466h246l116 -253l126 253h236zM161 866.5q-27 27.5 -27 65.5q0 39 27 66t65 27t65.5 -27t27.5 -66q0 -38 -27.5 -65.5t-65.5 -27.5t-65 27.5zM409.5 866.5q-27.5 27.5 -27.5 65.5q0 39 27.5 66t65.5 27t65 -27t27 -66
q0 -38 -27 -65.5t-65 -27.5t-65.5 27.5z" />
    <glyph glyph-name="alphatonos" unicode="&#x3ac;" horiz-adv-x="726" 
d="M151.5 16.5q-52.5 31.5 -84 93t-31.5 149.5q0 82 29 145t79.5 97t114.5 34q61 0 104.5 -30.5t67.5 -75.5v91h216v-326q0 -20 11.5 -30t30.5 -10h15l12 -161q-40 -8 -75 -8q-60 0 -97 13t-58 39t-35 70q-54 -122 -185 -122q-62 0 -114.5 31.5zM411.5 185.5
q24.5 29.5 24.5 74.5t-24.5 74t-63.5 29t-63.5 -29t-24.5 -74q0 -46 24 -75t64 -29q39 0 63.5 29.5zM354 760h205l-144 -170h-131z" />
    <glyph glyph-name="epsilontonos" unicode="&#x3ad;" horiz-adv-x="620" 
d="M146.5 5.5q-56.5 20.5 -84 54t-27.5 73.5q0 37 24 75.5t91 54.5v3q-59 13 -85.5 41t-26.5 66q0 41 28.5 78t87 60.5t143.5 23.5q105 0 176 -39t94 -119l-205 -45q-5 16 -22 24.5t-37 8.5t-33 -8.5t-13 -22.5q0 -26 52 -26h34v-95h-44q-25 0 -37 -8.5t-12 -20.5
q0 -15 17 -23t41 -8q33 0 57 14t27 35l208 -13q-12 -104 -98.5 -154t-214.5 -50q-84 0 -140.5 20.5zM282 760h205l-144 -170h-131z" />
    <glyph glyph-name="etatonos" unicode="&#x3ae;" horiz-adv-x="666" 
d="M576.5 475.5q44.5 -59.5 44.5 -162.5v-518h-220v477q0 56 -14.5 79t-47.5 23q-69 0 -69 -104v-270h-220v520h196l23 -74q28 43 72 66t100 23q91 0 135.5 -59.5zM345 760h205l-144 -170h-131z" />
    <glyph glyph-name="iotatonos" unicode="&#x3af;" horiz-adv-x="369" 
d="M140 8q-50 23 -72.5 77t-22.5 150v285h218v-289q0 -40 18.5 -58.5t60.5 -18.5h15l12 -161q-35 -8 -91 -8q-88 0 -138 23zM141 760h205l-144 -170h-131z" />
    <glyph glyph-name="upsilondieresistonos" unicode="&#x3b0;" horiz-adv-x="658" 
d="M181.5 4.5q-61.5 19.5 -99 73t-37.5 150.5v292h220v-285q0 -43 16.5 -62.5t47.5 -19.5t47.5 19.5t16.5 62.5v285h220v-292q0 -97 -37.5 -150.5t-99 -73t-147.5 -19.5t-147.5 19.5zM288 817h180l-138 -231h-105zM94.5 635.5q-23.5 23.5 -23.5 56.5q0 34 23.5 57t55.5 23
q33 0 56.5 -23t23.5 -57q0 -33 -23.5 -56.5t-56.5 -23.5q-32 0 -55.5 23.5zM451.5 634.5q-23.5 23.5 -23.5 56.5q0 34 23.5 57t56.5 23t56 -23t23 -57q0 -33 -23.5 -56.5t-55.5 -23.5q-33 0 -56.5 23.5z" />
    <glyph glyph-name="alpha" unicode="&#x3b1;" horiz-adv-x="726" 
d="M151.5 16.5q-52.5 31.5 -84 93t-31.5 149.5q0 82 29 145t79.5 97t114.5 34q61 0 104.5 -30.5t67.5 -75.5v91h216v-326q0 -20 11.5 -30t30.5 -10h15l12 -161q-40 -8 -75 -8q-60 0 -97 13t-58 39t-35 70q-54 -122 -185 -122q-62 0 -114.5 31.5zM411.5 185.5
q24.5 29.5 24.5 74.5t-24.5 74t-63.5 29t-63.5 -29t-24.5 -74q0 -46 24 -75t64 -29q39 0 63.5 29.5z" />
    <glyph glyph-name="beta" unicode="&#x3b2;" horiz-adv-x="695" 
d="M620 361q45 -64 45 -141q0 -63 -28.5 -117t-80 -86t-117.5 -32q-104 0 -169 88v-278h-220v692q0 78 32 143.5t98 105t164 39.5q79 0 136 -26t86.5 -68.5t29.5 -90.5q0 -52 -32 -92t-86 -50q97 -23 142 -87zM422 185q23 29 23 72q0 49 -31 77.5t-87 28.5h-13v136h9
q28 0 42.5 18t14.5 38q0 21 -14.5 35.5t-38.5 14.5q-30 0 -45 -21t-15 -51v-280q0 -45 23.5 -71t64.5 -26q44 0 67 29z" />
    <glyph glyph-name="gamma" unicode="&#x3b3;" horiz-adv-x="635" 
d="M635 520l-207 -494v-231h-220v229l-208 496h233l85 -315l84 315h233z" />
    <glyph glyph-name="delta" unicode="&#x3b4;" horiz-adv-x="679" 
d="M174.5 17.5q-67.5 32.5 -103 90.5t-35.5 134q0 75 37.5 139t119.5 92q30 10 65 15l-175 151v121h516v-161h-205l136 -120q61 -54 87 -108.5t26 -119.5q0 -85 -39 -144.5t-109 -90.5t-160 -31q-93 0 -160.5 32.5zM402 183q25 28 25 75q0 41 -20.5 73t-67.5 32
q-40 0 -63.5 -30.5t-23.5 -81.5q0 -45 25.5 -70.5t60.5 -25.5q39 0 64 28z" />
    <glyph glyph-name="epsilon" unicode="&#x3b5;" horiz-adv-x="620" 
d="M146.5 5.5q-56.5 20.5 -84 54t-27.5 73.5q0 37 24 75.5t91 54.5v3q-59 13 -85.5 41t-26.5 66q0 41 28.5 78t87 60.5t143.5 23.5q105 0 176 -39t94 -119l-205 -45q-5 16 -22 24.5t-37 8.5t-33 -8.5t-13 -22.5q0 -26 52 -26h34v-95h-44q-25 0 -37 -8.5t-12 -20.5
q0 -15 17 -23t41 -8q33 0 57 14t27 35l208 -13q-12 -104 -98.5 -154t-214.5 -50q-84 0 -140.5 20.5z" />
    <glyph glyph-name="zeta" unicode="&#x3b6;" horiz-adv-x="527" 
d="M104.5 405q74.5 100 184.5 195h-228l11 160h475v-123q-63 -54 -132 -130t-116 -147t-47 -113q0 -26 17.5 -41t66.5 -39l55 -27q55 -27 80 -48.5t25 -56.5q0 -44 -35.5 -109.5t-80.5 -115.5l-146 63q49 76 49 98q0 7 -8.5 12.5t-30.5 16.5l-37 18q-67 33 -105 61.5t-55 60
t-17 73.5q0 92 74.5 192z" />
    <glyph glyph-name="eta" unicode="&#x3b7;" horiz-adv-x="666" 
d="M576.5 475.5q44.5 -59.5 44.5 -162.5v-518h-220v477q0 56 -14.5 79t-47.5 23q-69 0 -69 -104v-270h-220v520h196l23 -74q28 43 72 66t100 23q91 0 135.5 -59.5z" />
    <glyph glyph-name="theta" unicode="&#x3b8;" horiz-adv-x="684" 
d="M575 666q74 -109 74 -286t-73.5 -286t-233.5 -109t-233.5 109t-73.5 286t74 286t233 109t233 -109zM282 572q-22 -35 -29 -108h178q-7 73 -29 108t-60 35t-60 -35zM431 304h-178q15 -152 89 -152t89 152z" />
    <glyph glyph-name="iota" unicode="&#x3b9;" horiz-adv-x="369" 
d="M140 8q-50 23 -72.5 77t-22.5 150v285h218v-289q0 -40 18.5 -58.5t60.5 -18.5h15l12 -161q-35 -8 -91 -8q-88 0 -138 23z" />
    <glyph glyph-name="kappa" unicode="&#x3ba;" horiz-adv-x="621" 
d="M295 195l-29 -29v-166h-216v520h216v-118l98 118h250l-195 -199l217 -321h-217z" />
    <glyph glyph-name="lambda" unicode="&#x3bb;" horiz-adv-x="631" 
d="M641 10q-15 -10 -53 -17.5t-56 -7.5q-46 0 -75 10.5t-48.5 36.5t-34.5 75l-63 203l-92 -310h-229l227 508l-17 48q-12 32 -26 41t-50 9h-18l-13 160q72 9 111 9q59 0 97.5 -18t67 -59.5t55.5 -117.5l142 -397q9 -24 19 -31t31 -7h13z" />
    <glyph glyph-name="uni03BC" unicode="&#x3bc;" horiz-adv-x="666" 
d="M616 520v-520h-196l-22 74q-46 -72 -128 -86v-193h-220v725h220v-279q0 -54 14 -74.5t45 -20.5q67 0 67 104v270h220z" />
    <glyph glyph-name="nu" unicode="&#x3bd;" horiz-adv-x="625" 
d="M635 520l-210 -520h-224l-211 520h233l90 -336l89 336h233z" />
    <glyph glyph-name="xi" unicode="&#x3be;" horiz-adv-x="575" 
d="M299 -127q49 73 49 95q0 11 -9.5 19t-30.5 17l-90 41q-95 43 -141.5 86.5t-46.5 111.5q0 59 45 108t131 66q-84 11 -124.5 55t-40.5 95q0 64 34.5 111t95.5 72t140 25q107 0 175 -50t79 -150l-198 -22q-6 27 -20 39t-33 12q-24 0 -37 -15t-13 -42q0 -70 87 -70h95v-147
h-125q-35 0 -53.5 -14t-18.5 -37q0 -26 21 -42t75 -41l133 -62q49 -23 67.5 -44.5t18.5 -53.5q0 -42 -38 -110.5t-81 -115.5z" />
    <glyph glyph-name="omicron" unicode="&#x3bf;" horiz-adv-x="684" 
d="M171 21.5q-69 36.5 -102 98.5t-33 140t33 140t102 98.5t171 36.5t170.5 -36.5t102 -98.5t33.5 -140t-33.5 -140t-102 -98.5t-170.5 -36.5t-171 36.5zM404.5 184q24.5 29 24.5 76q0 46 -24.5 75t-62.5 29q-39 0 -63.5 -29t-24.5 -75q0 -47 24.5 -76t63.5 -29q38 0 62.5 29
z" />
    <glyph glyph-name="pi" unicode="&#x3c0;" horiz-adv-x="667" 
d="M397 354h-127v-354h-220v520h567v-520h-220v354z" />
    <glyph glyph-name="rho" unicode="&#x3c1;" horiz-adv-x="698" 
d="M553.5 19.5q52.5 34.5 80.5 94.5t28 135q0 80 -33 145t-100 103t-163 38q-98 0 -169.5 -39.5t-109 -110t-37.5 -161.5v-429h220v274q26 -48 70.5 -66t90.5 -18q70 0 122.5 34.5zM417.5 185q-24.5 -29 -62.5 -29q-39 0 -63.5 29t-24.5 75t24.5 75t63.5 29q38 0 62.5 -29
t24.5 -75t-24.5 -75z" />
    <glyph glyph-name="uni03C2" unicode="&#x3c2;" horiz-adv-x="621" 
d="M274 -127q49 73 49 95q0 11 -9.5 19t-30.5 17l-65 28q-68 29 -107 58t-57 68.5t-18 99.5q0 128 77.5 202.5t222.5 74.5q69 0 130 -23t100.5 -71.5t44.5 -121.5l-207 -19q-13 63 -77 63q-31 0 -53.5 -20.5t-22.5 -59.5q0 -56 73 -89l129 -60q50 -23 68 -44.5t18 -53.5
q0 -42 -38 -110.5t-81 -115.5z" />
    <glyph glyph-name="sigma" unicode="&#x3c3;" horiz-adv-x="673" 
d="M166.5 19q-66.5 34 -98.5 93t-32 135q0 75 35 137t104 99t168 37h320v-166h-126q39 -16 61.5 -59.5t22.5 -82.5q0 -63 -31.5 -114.5t-96.5 -82t-160 -30.5q-100 0 -166.5 34zM396.5 177.5q21.5 27.5 21.5 74.5q0 44 -23.5 71.5t-61.5 27.5t-61.5 -27.5t-23.5 -71.5
q0 -46 23.5 -74t61.5 -28q42 0 63.5 27.5z" />
    <glyph glyph-name="tau" unicode="&#x3c4;" horiz-adv-x="534" 
d="M352 -15q-114 0 -164.5 52.5t-50.5 169.5v147h-132l11 166h498v-166h-159v-125q0 -40 14.5 -58t53.5 -18q30 0 60 6l12 -162q-67 -12 -143 -12z" />
    <glyph glyph-name="upsilon" unicode="&#x3c5;" horiz-adv-x="658" 
d="M181.5 4.5q-61.5 19.5 -99 73t-37.5 150.5v292h220v-285q0 -43 16.5 -62.5t47.5 -19.5t47.5 19.5t16.5 62.5v285h220v-292q0 -97 -37.5 -150.5t-99 -73t-147.5 -19.5t-147.5 19.5z" />
    <glyph glyph-name="phi" unicode="&#x3c6;" horiz-adv-x="890" 
d="M333 -12q-106 9 -172.5 50.5t-95.5 99.5t-29 119q0 54 22 104t67.5 88t113.5 53l64 -126q-28 -21 -42.5 -54.5t-14.5 -64.5q0 -42 25 -76t62 -46v385h161q184 0 272 -72t88 -187q0 -78 -38.5 -137.5t-106.5 -94.5t-156 -41v-193h-220v193zM594 160.5q21 14.5 35.5 40
t14.5 58.5q0 45 -26.5 77t-64.5 39v-232q20 3 41 17.5z" />
    <glyph glyph-name="chi" unicode="&#x3c7;" horiz-adv-x="595" 
d="M394.5 -191.5q-32.5 28.5 -47.5 70.5l-60 165l-74 -249h-233l200 377l-73 143q-13 25 -20.5 36t-20 16.5t-34.5 5.5h-9l-11 153q29 4 66 6.5t59 2.5q56 0 91 -21t52 -70l42 -117l64 193h229l-182 -341l91 -188q12 -23 23.5 -30t35.5 -7h8l16 -151q-24 -9 -63 -16t-64 -7
q-53 0 -85.5 28.5z" />
    <glyph glyph-name="psi" unicode="&#x3c8;" horiz-adv-x="872" 
d="M827 520v-241q0 -129 -73.5 -203.5t-207.5 -95.5v-185h-220v185q-134 21 -207.5 95.5t-73.5 203.5v241h215v-279q0 -70 66 -92v371h220v-371q66 22 66 92v279h215z" />
    <glyph glyph-name="omega" unicode="&#x3c9;" horiz-adv-x="878" 
d="M87 58.5q-52 73.5 -52 184.5q0 123 67 206t227 86l24 -155q-49 -7 -73.5 -43t-24.5 -91q0 -41 13 -67.5t36 -26.5q17 0 30 15.5t13 56.5v101h184v-101q0 -41 13 -56.5t30 -15.5q23 0 36 26.5t13 67.5q0 55 -24.5 91t-73.5 43l24 155q160 -3 227 -86t67 -206
q0 -111 -52 -184.5t-165 -73.5q-75 0 -119 37t-68 116q-24 -79 -68 -116t-119 -37q-113 0 -165 73.5z" />
    <glyph glyph-name="iotadieresis" unicode="&#x3ca;" horiz-adv-x="369" 
d="M140 8q-50 23 -72.5 77t-22.5 150v285h218v-289q0 -40 18.5 -58.5t60.5 -18.5h15l12 -161q-35 -8 -91 -8q-88 0 -138 23zM-30 626.5q-27 27.5 -27 65.5q0 39 27 66t65 27t65.5 -27t27.5 -66q0 -38 -27.5 -65.5t-65.5 -27.5t-65 27.5zM218.5 626.5q-27.5 27.5 -27.5 65.5
q0 39 27.5 66t65.5 27t65 -27t27 -66q0 -38 -27 -65.5t-65 -27.5t-65.5 27.5z" />
    <glyph glyph-name="upsilondieresis" unicode="&#x3cb;" horiz-adv-x="658" 
d="M181.5 4.5q-61.5 19.5 -99 73t-37.5 150.5v292h220v-285q0 -43 16.5 -62.5t47.5 -19.5t47.5 19.5t16.5 62.5v285h220v-292q0 -97 -37.5 -150.5t-99 -73t-147.5 -19.5t-147.5 19.5zM140 626.5q-27 27.5 -27 65.5q0 39 27 66t65 27t65.5 -27t27.5 -66q0 -38 -27.5 -65.5
t-65.5 -27.5t-65 27.5zM388.5 626.5q-27.5 27.5 -27.5 65.5q0 39 27.5 66t65.5 27t65 -27t27 -66q0 -38 -27 -65.5t-65 -27.5t-65.5 27.5z" />
    <glyph glyph-name="omicrontonos" unicode="&#x3cc;" horiz-adv-x="684" 
d="M171 21.5q-69 36.5 -102 98.5t-33 140t33 140t102 98.5t171 36.5t170.5 -36.5t102 -98.5t33.5 -140t-33.5 -140t-102 -98.5t-170.5 -36.5t-171 36.5zM404.5 184q24.5 29 24.5 76q0 46 -24.5 75t-62.5 29q-39 0 -63.5 -29t-24.5 -75q0 -47 24.5 -76t63.5 -29q38 0 62.5 29
zM324 760h205l-144 -170h-131z" />
    <glyph glyph-name="upsilontonos" unicode="&#x3cd;" horiz-adv-x="658" 
d="M181.5 4.5q-61.5 19.5 -99 73t-37.5 150.5v292h220v-285q0 -43 16.5 -62.5t47.5 -19.5t47.5 19.5t16.5 62.5v285h220v-292q0 -97 -37.5 -150.5t-99 -73t-147.5 -19.5t-147.5 19.5zM311 760h205l-144 -170h-131z" />
    <glyph glyph-name="omegatonos" unicode="&#x3ce;" horiz-adv-x="878" 
d="M87 58.5q-52 73.5 -52 184.5q0 123 67 206t227 86l24 -155q-49 -7 -73.5 -43t-24.5 -91q0 -41 13 -67.5t36 -26.5q17 0 30 15.5t13 56.5v101h184v-101q0 -41 13 -56.5t30 -15.5q23 0 36 26.5t13 67.5q0 55 -24.5 91t-73.5 43l24 155q160 -3 227 -86t67 -206
q0 -111 -52 -184.5t-165 -73.5q-75 0 -119 37t-68 116q-24 -79 -68 -116t-119 -37q-113 0 -165 73.5zM423 760h205l-144 -170h-131z" />
    <glyph glyph-name="uni0400" unicode="&#x400;" horiz-adv-x="574" 
d="M534 184v-184h-481v760h480v-184h-252v-95h239v-176h-239v-121h253zM295 1001l70 -174h-131l-145 174h206z" />
    <glyph glyph-name="uni0401" unicode="&#x401;" horiz-adv-x="574" 
d="M534 184v-184h-481v760h480v-184h-252v-95h239v-176h-239v-121h253zM106 866.5q-27 27.5 -27 65.5q0 39 27 66t65 27t65.5 -27t27.5 -66q0 -38 -27.5 -65.5t-65.5 -27.5t-65 27.5zM354.5 866.5q-27.5 27.5 -27.5 65.5q0 39 27.5 66t65.5 27t65 -27t27 -66
q0 -38 -27 -65.5t-65 -27.5t-65.5 27.5z" />
    <glyph glyph-name="uni0402" unicode="&#x402;" horiz-adv-x="855" 
d="M699.5 430.5q62.5 -29.5 94 -80.5t31.5 -114q0 -68 -32.5 -125t-97 -91.5t-156.5 -34.5l-12 158q32 2 51 19t19 48q0 32 -27.5 49t-76.5 17h-81v-276h-228v576h-164v184h631v-184h-239v-116h136q89 0 151.5 -29.5z" />
    <glyph glyph-name="uni0403" unicode="&#x403;" horiz-adv-x="537" 
d="M517 576h-236v-576h-228v760h464v-184zM340 827h-131l70 174h206z" />
    <glyph glyph-name="uni0404" unicode="&#x404;" horiz-adv-x="844" 
d="M224 722.5q-92 -52.5 -142 -142.5t-50 -200t50 -200t142 -142.5t214 -52.5q96 0 174 38.5t129.5 108t69.5 160.5l-218 17q-17 -60 -60 -91.5t-107 -31.5q-61 0 -105.5 33.5t-60.5 95.5h268v130h-268q16 62 60.5 95.5t105.5 33.5q64 0 106.5 -31t60.5 -90l219 17
q-19 90 -70.5 159t-129.5 107.5t-174 38.5q-122 0 -214 -52.5z" />
    <glyph glyph-name="uni0405" unicode="&#x405;" horiz-adv-x="717" 
d="M134 51.5q-86 66.5 -102 176.5l235 16q9 -92 98 -92q38 0 60 14.5t22 42.5q0 23 -16 36t-54 25l-86 27q-89 28 -142.5 60t-80 77.5t-26.5 111.5q0 78 40 129.5t106.5 75.5t146.5 24q106 0 178 -35t108.5 -87t44.5 -106l-235 -17q-14 80 -84 80q-30 0 -48 -13.5t-18 -36.5
t17 -38t63 -29l90 -27q77 -23 127.5 -51.5t78.5 -74t28 -112.5q0 -117 -86 -180t-230 -63q-149 0 -235 66.5z" />
    <glyph glyph-name="uni0406" unicode="&#x406;" horiz-adv-x="334" 
d="M53 760h228v-760h-228v760z" />
    <glyph glyph-name="uni0407" unicode="&#x407;" horiz-adv-x="334" 
d="M53 760h228v-760h-228v760zM-22 866.5q-27 27.5 -27 65.5q0 39 27 66t65 27t65.5 -27t27.5 -66q0 -38 -27.5 -65.5t-65.5 -27.5t-65 27.5zM226.5 866.5q-27.5 27.5 -27.5 65.5q0 39 27.5 66t65.5 27t65 -27t27 -66q0 -38 -27 -65.5t-65 -27.5t-65.5 27.5z" />
    <glyph glyph-name="uni0408" unicode="&#x408;" horiz-adv-x="707" 
d="M186 17q-69 32 -110.5 96t-45.5 157l227 15q4 -46 26.5 -68t57.5 -22q88 0 88 107v458h228v-455q0 -106 -40 -177.5t-111 -107t-164 -35.5q-87 0 -156 32z" />
    <glyph glyph-name="uni0409" unicode="&#x409;" horiz-adv-x="1160" 
d="M994.5 512q66.5 -34 101 -96t34.5 -143q0 -82 -34.5 -143.5t-101.5 -95.5t-161 -34h-318v555l-273 -555h-237l423 760h315v-214h91q94 0 160.5 -34zM872.5 203.5q26.5 28.5 26.5 69.5q0 40 -26.5 69t-81.5 29h-48v-196h47q56 0 82.5 28.5z" />
    <glyph glyph-name="uni040A" unicode="&#x40a;" horiz-adv-x="1092" 
d="M926.5 512q66.5 -34 101 -96t34.5 -143q0 -82 -34.5 -143.5t-101.5 -95.5t-161 -34h-318v308h-166v-308h-228v760h228v-268h166v268h228v-214h91q94 0 160.5 -34zM804.5 203.5q26.5 28.5 26.5 69.5q0 40 -26.5 69t-81.5 29h-48v-196h47q56 0 82.5 28.5z" />
    <glyph glyph-name="uni040B" unicode="&#x40b;" horiz-adv-x="867" 
d="M748 394.5q84 -65.5 84 -205.5v-189h-229v168q0 59 -22.5 83.5t-79.5 24.5h-88v-276h-229v576h-164v184h631v-184h-238v-116h125q126 0 210 -65.5z" />
    <glyph glyph-name="uni040C" unicode="&#x40c;" horiz-adv-x="714" 
d="M332 281l-51 -66v-215h-228v760h228v-233l162 233h261l-239 -308l264 -452h-245zM417 827h-131l70 174h206z" />
    <glyph glyph-name="uni040D" unicode="&#x40d;" horiz-adv-x="765" 
d="M712 760v-760h-228v424l-203 -424h-228v760h228v-424l203 424h228zM384 1001l70 -174h-131l-145 174h206z" />
    <glyph glyph-name="uni040E" unicode="&#x40e;" horiz-adv-x="700" 
d="M715 760l-349 -760h-236l112 243l-252 517h246l113 -283l130 283h236zM225 874.5q-51 51.5 -56 140.5h127q4 -72 65 -72q60 0 65 72h127q-5 -89 -56 -140.5t-136 -51.5t-136 51.5z" />
    <glyph glyph-name="uni040F" unicode="&#x40f;" horiz-adv-x="751" 
d="M698 760v-760h-225l-9 -160h-177l-9 160h-225v760h228v-576h188v576h229z" />
    <glyph glyph-name="uni0410" unicode="&#x410;" horiz-adv-x="751" 
d="M487 96h-223l-25 -96h-239l245 760h261l245 -760h-239zM447 254l-71 281l-72 -281h143z" />
    <glyph glyph-name="uni0411" unicode="&#x411;" horiz-adv-x="689" 
d="M523.5 467q66.5 -31 101 -86t34.5 -125q0 -71 -34.5 -129t-102 -92.5t-160.5 -34.5h-309v760h542v-180h-314v-82h82q94 0 160.5 -31zM405.5 205.5q22.5 21.5 22.5 54.5t-22.5 54.5t-76.5 21.5h-48v-152h47q55 0 77.5 21.5z" />
    <glyph glyph-name="uni0412" unicode="&#x412;" horiz-adv-x="676" 
d="M656 230q0 -107 -74.5 -168.5t-201.5 -61.5h-327v760h322q128 0 191 -52.5t63 -139.5q0 -105 -91 -158q118 -46 118 -180zM273 593v-128h69q35 0 53 19t18 47q0 29 -18.5 45.5t-54.5 16.5h-67zM415 192q23 22 23 60q0 35 -23 56t-65 21h-77v-159h77q42 0 65 22z" />
    <glyph glyph-name="uni0413" unicode="&#x413;" horiz-adv-x="537" 
d="M517 576h-236v-576h-228v760h464v-184z" />
    <glyph glyph-name="uni0414" unicode="&#x414;" horiz-adv-x="784" 
d="M779 184v-324h-181l-8 140h-396l-8 -140h-181v324h71l186 576h260l186 -576h71zM482 184l-90 353l-91 -353h181z" />
    <glyph glyph-name="uni0415" unicode="&#x415;" horiz-adv-x="574" 
d="M534 184v-184h-481v760h480v-184h-252v-95h239v-176h-239v-121h253z" />
    <glyph glyph-name="uni0416" unicode="&#x416;" horiz-adv-x="1113" 
d="M720 313l-53 -62v-251h-220v251l-53 63l-148 -314h-241l258 468l-248 292h261l171 -250v250h220v-249l170 249h261l-247 -292l257 -468h-241z" />
    <glyph glyph-name="uni0417" unicode="&#x417;" horiz-adv-x="660" 
d="M609 337q31 -45 31 -113q0 -111 -76.5 -175t-243.5 -64q-89 0 -157 27.5t-105.5 79.5t-37.5 124l214 15q0 -36 22.5 -55t62.5 -19q41 0 64 20t23 59q0 78 -128 78h-98v163h95q55 0 79 19.5t24 51.5q0 57 -69 57q-73 0 -73 -62l-210 5q0 67 34 118.5t101 80t163 28.5
q157 0 223.5 -55t66.5 -142q0 -52 -24.5 -97t-74.5 -74q63 -25 94 -70z" />
    <glyph glyph-name="uni0418" unicode="&#x418;" horiz-adv-x="765" 
d="M712 760v-760h-228v424l-203 -424h-228v760h228v-424l203 424h228z" />
    <glyph glyph-name="uni0419" unicode="&#x419;" horiz-adv-x="765" 
d="M712 760v-760h-228v424l-203 -424h-228v760h228v-424l203 424h228zM248 874.5q-51 51.5 -56 140.5h127q4 -72 65 -72q60 0 65 72h127q-5 -89 -56 -140.5t-136 -51.5t-136 51.5z" />
    <glyph glyph-name="uni041A" unicode="&#x41a;" horiz-adv-x="714" 
d="M332 281l-51 -66v-215h-228v760h228v-233l162 233h261l-239 -308l264 -452h-245z" />
    <glyph glyph-name="uni041B" unicode="&#x41b;" horiz-adv-x="751" 
d="M512 0l-137 537l-138 -537h-237l245 760h260l246 -760h-239z" />
    <glyph glyph-name="uni041C" unicode="&#x41c;" horiz-adv-x="926" 
d="M682 0l-26 437l-145 -437h-96l-145 436l-26 -436h-214l62 760h228l143 -431l142 431h228l63 -760h-214z" />
    <glyph glyph-name="uni041D" unicode="&#x41d;" horiz-adv-x="755" 
d="M702 760v-760h-228v299h-193v-299h-228v760h228v-277h193v277h228z" />
    <glyph glyph-name="uni041E" unicode="&#x41e;" horiz-adv-x="857" 
d="M221 37.5q-90 52.5 -139.5 142.5t-49.5 200t49.5 200t139.5 142.5t208 52.5q117 0 207 -52.5t139.5 -143t49.5 -199.5t-49.5 -199.5t-139.5 -143t-207 -52.5q-118 0 -208 52.5zM510 218q37 23 58 65t21 97t-21 97t-58 65t-81 23q-45 0 -81.5 -23t-58 -65t-21.5 -97
t21.5 -97t58 -65t81.5 -23q44 0 81 23z" />
    <glyph glyph-name="uni041F" unicode="&#x41f;" horiz-adv-x="751" 
d="M698 0h-229v576h-188v-576h-228v760h645v-760z" />
    <glyph glyph-name="uni0420" unicode="&#x420;" horiz-adv-x="698" 
d="M590.5 685.5q77.5 -74.5 77.5 -202.5q0 -84 -34.5 -146.5t-101 -97t-160.5 -34.5h-91v-205h-228v760h318q142 0 219.5 -74.5zM410.5 409.5q26.5 29.5 26.5 73.5t-26.5 73t-82.5 29h-47v-205h48q55 0 81.5 29.5z" />
    <glyph glyph-name="uni0421" unicode="&#x421;" horiz-adv-x="837" 
d="M224 36q-91 51 -141.5 141t-50.5 201t49.5 201.5t140 143t208.5 52.5q101 0 181 -39t131.5 -109t69.5 -162l-236 -17q-14 56 -53.5 88.5t-95.5 32.5q-73 0 -116.5 -52.5t-43.5 -133.5q0 -57 21.5 -99.5t58.5 -65.5t82 -23q55 0 95 33t54 86l234 -18q-18 -92 -68 -162
t-129.5 -109.5t-182.5 -39.5q-117 0 -208 51z" />
    <glyph glyph-name="uni0422" unicode="&#x422;" horiz-adv-x="643" 
d="M623 576h-187v-576h-229v576h-187v184h603v-184z" />
    </font>
</defs>
</svg>
