<?xml version="1.0" standalone="no"?>
<!DOCTYPE svg PUBLIC "-//W3C//DTD SVG 1.1//EN" "http://www.w3.org/Graphics/SVG/1.1/DTD/svg11.dtd" >
<svg xmlns="http://www.w3.org/2000/svg" xmlns:xlink="http://www.w3.org/1999/xlink" version="1.1">
<metadata>
Created by FontForge 20170731 at Wed Nov 22 21:10:26 2017
 By Aleksey,,,
Copyright (c) 2017 by Andreu Balius. All rights reserved.
</metadata>
<defs>
<font id="SeatBcn-Web-CondensedItalic" horiz-adv-x="507" >
  <font-face 
    font-family="Seat Bcn - Web Condensed"
    font-weight="400"
    font-style="italic"
    font-stretch="condensed"
    units-per-em="1000"
    panose-1="0 0 5 6 0 0 0 0 0 0"
    ascent="760"
    descent="-240"
    x-height="515"
    cap-height="760"
    bbox="-325 -220 1029 1296"
    underline-thickness="50"
    underline-position="-150"
    slope="-8"
    unicode-range="U+000D-FB02"
  />
<missing-glyph horiz-adv-x="699" 
d="M163 705h400v-705h-400v705zM501 62v581h-276v-581h276z" />
    <glyph glyph-name="fi" unicode="fi" horiz-adv-x="510" 
d="M409 0h-85l62 442h-197l-62 -442h-85l62 442h-68l16 73h62l4 27q18 127 72.5 177.5t138.5 50.5q78 0 140 -44l-31 -64q-57 34 -109 34q-104 0 -124 -141l-6 -40h282z" />
    <glyph glyph-name="fl" unicode="fl" horiz-adv-x="547" 
d="M441 76q13 -11 45 -11h8l-5 -75h-22q-62 0 -94 28.5t-32 83.5q0 26 4 50l75 528q-43 16 -90 16q-104 0 -124 -141l-6 -40h111l-10 -73h-111l-62 -442h-85l62 442h-69l16 73h63l4 27q18 127 72.5 177.5t138.5 50.5q101 0 180 -53l-79 -561q-3 -22 -3 -39q0 -30 13 -41z
" />
    <glyph glyph-name="f_f" unicode="ff" horiz-adv-x="570" 
d="M519 671.5q-19 -23.5 -27 -79.5l-11 -77h112l-10 -73h-112l-62 -442h-85l62 442h-197l-62 -442h-85l62 442h-68l16 73h62l12 82q13 91 52 132t104 41q27 0 50.5 -6t34.5 -15l-15 -70q-29 16 -63 16q-33 0 -52 -23.5t-27 -79.5l-11 -77h197l12 82q13 91 52 132t104 41
q27 0 50.5 -6t34.5 -15l-15 -70q-29 16 -63 16q-33 0 -52 -23.5z" />
    <glyph glyph-name="f_f_i" unicode="ffi" horiz-adv-x="792" 
d="M691 0h-85l62 442h-197l-62 -442h-85l62 442h-197l-62 -442h-85l62 442h-68l16 73h62l12 82q13 91 52 132t104 41q27 0 50.5 -6t34.5 -15l-15 -70q-29 16 -63 16q-33 0 -52 -23.5t-27 -79.5l-11 -77h197l4 27q18 127 72.5 177.5t138.5 50.5q78 0 140 -44l-31 -64
q-57 34 -109 34q-104 0 -124 -141l-6 -40h282z" />
    <glyph glyph-name="f_f_l" unicode="ffl" horiz-adv-x="828" 
d="M722 76q13 -11 45 -11h8l-5 -75h-22q-62 0 -94 28.5t-32 83.5q0 26 4 50l75 528q-43 16 -90 16q-104 0 -124 -141l-6 -40h112l-10 -73h-112l-62 -442h-85l62 442h-197l-62 -442h-85l62 442h-68l16 73h62l12 82q13 91 52 132t104 41q27 0 50.5 -6t34.5 -15l-15 -70
q-29 16 -63 16q-33 0 -52 -23.5t-27 -79.5l-11 -77h197l4 27q18 127 72.5 177.5t138.5 50.5q101 0 180 -53l-79 -561q-3 -22 -3 -39q0 -30 13 -41z" />
    <glyph glyph-name="uni04570457.liga" unicode="&#x457;&#x457;" horiz-adv-x="470" 
d="M39 641q-16 16 -16 39t16 39.5t39 16.5t39 -16.5t16 -39.5q0 -22 -16 -38.5t-39 -16.5t-39 16zM180 641q-16 16 -16 39t16 39.5t39 16.5q22 0 38 -16.5t16 -39.5t-16 -39t-38 -16q-23 0 -39 16zM326 641q-16 16 -16 39t16 39.5t39 16.5t39 -16.5t16 -39.5
q0 -22 -16 -38.5t-39 -16.5t-39 16zM467 641q-16 16 -16 39t16 39.5t39 16.5q22 0 38 -16.5t16 -39.5t-16 -39t-38 -16q-23 0 -39 16zM85 515h85l-72 -515h-85zM372 515h85l-72 -515h-85z" />
    <glyph glyph-name=".notdef" horiz-adv-x="699" 
d="M163 705h400v-705h-400v705zM501 62v581h-276v-581h276z" />
    <glyph glyph-name=".null" horiz-adv-x="510" 
 />
    <glyph glyph-name="nonmarkingreturn" unicode="&#xd;" horiz-adv-x="510" 
 />
    <glyph glyph-name="space" unicode=" " horiz-adv-x="180" 
 />
    <glyph glyph-name="exclam" unicode="!" horiz-adv-x="255" 
d="M156 760h84l-87 -550h-66zM51.5 10q-19.5 20 -19.5 47q0 28 19.5 47.5t47.5 19.5t47.5 -19.5t19.5 -47.5q0 -27 -19.5 -47t-47.5 -20t-47.5 20z" />
    <glyph glyph-name="quotedbl" unicode="&#x22;" horiz-adv-x="351" 
d="M114 640l17 120h80l-17 -120l-36 -156h-52zM265 640l17 120h80l-17 -120l-36 -156h-52z" />
    <glyph glyph-name="numbersign" unicode="#" horiz-adv-x="711" 
d="M575 492l-77 -214h73l-10 -72h-89l-74 -206h-88l74 206h-149l-74 -206h-88l74 206h-74l10 72h90l77 214h-75l10 72h91l71 196h88l-71 -196h149l71 196h88l-71 -196h73l-10 -72h-89zM487 492h-149l-77 -214h149z" />
    <glyph glyph-name="dollar" unicode="$" horiz-adv-x="636" 
d="M509 539v16q0 53 -24.5 88.5t-70.5 45.5l-37 -260l23 -10q148 -63 148 -185q0 -69 -29 -122t-82 -84.5t-121 -36.5l-17 -118h-81l17 121q-81 14 -121 68t-40 140v16l86 3v-22q0 -105 86 -127l43 308q-138 65 -138 177q0 86 52.5 142.5t140.5 67.5l16 114h81l-16 -113
q87 -12 130 -72t41 -153zM254 506.5q15 -24.5 47 -43.5l32 224q-44 -12 -69 -45.5t-25 -78.5q0 -32 15 -56.5zM327 69q58 9 95.5 52t37.5 106q0 47 -25 74t-69 46z" />
    <glyph glyph-name="percent" unicode="%" horiz-adv-x="801" 
d="M150.5 414q-29.5 39 -29.5 105q0 62 18.5 118.5t55.5 92t88 35.5t80.5 -39t29.5 -105q0 -62 -18.5 -118.5t-55.5 -92t-88 -35.5t-80.5 39zM660 760h99l-572 -760h-99zM283 469.5q18 30.5 27.5 75.5t9.5 86q0 37 -11.5 53.5t-33.5 16.5q-26 0 -44 -30.5t-27.5 -75.5
t-9.5 -86q0 -37 11.5 -53.5t33.5 -16.5q26 0 44 30.5zM472.5 34q-29.5 39 -29.5 105q0 62 18.5 118.5t55.5 92t88 35.5t80.5 -39t29.5 -105q0 -62 -18.5 -118.5t-55.5 -92t-88 -35.5t-80.5 39zM605 89.5q18 30.5 27.5 75.5t9.5 86q0 37 -11.5 53.5t-33.5 16.5
q-26 0 -44 -30.5t-27.5 -75.5t-9.5 -86q0 -37 11.5 -53.5t33.5 -16.5q26 0 44 30.5z" />
    <glyph glyph-name="ampersand" unicode="&#x26;" horiz-adv-x="643" 
d="M495 118l72 -118h-93l-34 56q-77 -66 -184 -66q-57 0 -99.5 25.5t-64.5 67.5t-22 92q0 68 41.5 135.5t107.5 108.5q-24 42 -38.5 80t-14.5 77q0 54 23 98t64.5 70t92.5 26q65 0 102 -40.5t37 -97.5q0 -66 -44 -124.5t-118 -106.5l126 -207q38 71 51 168h83
q-22 -149 -88 -244zM275.5 659.5q-24.5 -33.5 -24.5 -83.5q0 -58 37 -118q54 34 83 78.5t29 90.5q0 32 -15.5 49t-43.5 17q-41 0 -65.5 -33.5zM398 125l-142 233q-47 -33 -72.5 -84t-25.5 -95q0 -52 30.5 -82t84.5 -30q68 0 125 58z" />
    <glyph glyph-name="quotesingle" unicode="'" horiz-adv-x="200" 
d="M114 640l17 120h80l-17 -120l-36 -156h-52z" />
    <glyph glyph-name="parenleft" unicode="(" horiz-adv-x="336" 
d="M112 -33.5q-36 36.5 -36 100.5q0 15 4 45l79 566q13 97 56 139.5t126 42.5l-11 -76q-42 0 -63 -32t-27 -80l-78 -554q-3 -21 -3 -43q0 -32 13.5 -50.5t48.5 -18.5l-11 -76q-62 0 -98 36.5z" />
    <glyph glyph-name="parenright" unicode=")" horiz-adv-x="336" 
d="M263 823.5q36 -36.5 36 -100.5q0 -15 -4 -45l-79 -566q-13 -97 -56 -139.5t-126 -42.5l11 76q42 0 63 32t27 80l78 554q3 21 3 43q0 32 -13.5 50.5t-48.5 18.5l11 76q62 0 98 -36.5z" />
    <glyph glyph-name="asterisk" unicode="*" horiz-adv-x="509" 
d="M344 524l68 -111l-76 -54l-48 132l-87 -132l-61 54l101 110l-119 33l40 89l108 -59l8 147h86l-32 -147l123 59l16 -89z" />
    <glyph glyph-name="plus" unicode="+" horiz-adv-x="505" 
d="M421 228h-138l-23 -164h-69l23 164h-138l10 72h138l23 164h69l-23 -164h138z" />
    <glyph glyph-name="comma" unicode="," horiz-adv-x="239" 
d="M139.5 103.5q18.5 -20.5 18.5 -58.5q0 -49 -32 -95.5t-85 -73.5l-18 25q24 20 39.5 41.5t22.5 49.5q-25 2 -43.5 21.5t-18.5 44.5q0 27 20 46.5t49 19.5t47.5 -20.5z" />
    <glyph glyph-name="hyphen" unicode="-" horiz-adv-x="385" 
d="M66 300h265l-10 -72h-265z" />
    <glyph glyph-name="period" unicode="." horiz-adv-x="235" 
d="M41.5 10q-19.5 20 -19.5 47q0 28 19.5 47.5t47.5 19.5t47.5 -19.5t19.5 -47.5q0 -27 -19.5 -47t-47.5 -20t-47.5 20z" />
    <glyph glyph-name="slash" unicode="/" horiz-adv-x="414" 
d="M341 760h94l-327 -760h-94z" />
    <glyph glyph-name="zero" unicode="0" horiz-adv-x="614" 
d="M161 23.5q-46 33.5 -71 96t-25 147.5q0 127 35 242t105.5 188t173.5 73q62 0 108 -33.5t71 -96t25 -147.5q0 -127 -35 -242t-105.5 -188t-173.5 -73q-62 0 -108 33.5zM395 132.5q49 65.5 74.5 163.5t25.5 192q0 99 -33 152t-94 53q-66 0 -115 -65.5t-74.5 -163.5
t-25.5 -192q0 -99 33 -152t94 -53q66 0 115 65.5z" />
    <glyph glyph-name="one" unicode="1" horiz-adv-x="360" 
d="M311 760l-107 -760h-86l85 609q-50 -9 -115 -9l10 67q58 0 92 22.5t51 70.5h70z" />
    <glyph glyph-name="two" unicode="2" horiz-adv-x="502" 
d="M149 202q-33 -56 -45 -126h321l-10 -76h-411l6 45q15 108 58.5 186.5t129.5 135.5l111 73q45 29 73.5 71t28.5 88q0 43 -25.5 68.5t-71.5 25.5t-83.5 -30t-56.5 -75l-87 6q33 85 96 130.5t144 45.5q54 0 93 -22.5t59 -59.5t20 -80q0 -74 -40.5 -135t-119.5 -113l-101 -66
q-56 -36 -89 -92z" />
    <glyph glyph-name="three" unicode="3" horiz-adv-x="528" 
d="M446.5 339.5q26.5 -42.5 26.5 -97.5q0 -68 -33.5 -126t-92 -92t-130.5 -34q-54 0 -95 26t-64 69.5t-24 93.5l81 8q6 -64 34.5 -92t80.5 -28q44 0 79.5 23.5t55.5 63t20 84.5q0 59 -36.5 93t-107.5 34h-43l11 76h41q49 0 85.5 21.5t56 57t19.5 76.5q0 43 -24 70t-69 27
q-44 0 -80.5 -28.5t-54.5 -76.5l-86 6q33 86 94.5 131t137.5 45q53 0 91.5 -23t58.5 -61t20 -83q0 -60 -33 -112.5t-89 -83.5q43 -25 69.5 -67.5z" />
    <glyph glyph-name="four" unicode="4" horiz-adv-x="555" 
d="M535 183h-89l-26 -183h-86l26 183h-320l10 76l174 501h90l-175 -501h231l36 256h86l-36 -256h89z" />
    <glyph glyph-name="five" unicode="5" horiz-adv-x="543" 
d="M213 683l-28 -203q57 25 123 25q59 0 102.5 -27.5t66.5 -74t23 -101.5q0 -90 -34.5 -161t-97.5 -111t-145 -40q-87 0 -135.5 55.5t-53.5 135.5l85 6q4 -61 35.5 -90.5t83.5 -29.5t91.5 31t61 82.5t21.5 110.5q0 66 -31.5 102t-92.5 36q-38 0 -74 -15t-72 -38l-56 17
l52 367h379l-11 -77h-293z" />
    <glyph glyph-name="six" unicode="6" horiz-adv-x="578" 
d="M445 477.5q43 -27.5 67 -74.5t24 -102q0 -82 -36.5 -153.5t-99 -114.5t-136.5 -43q-97 0 -150.5 66.5t-53.5 182.5q0 103 30 226t101.5 214t185.5 91q72 0 121.5 -43t60.5 -127l-83 -6q-13 54 -38 76.5t-66 22.5q-73 0 -126 -74.5t-80 -199.5q36 43 83 64.5t98 21.5
q55 0 98 -27.5zM358 98q40 32 65 83t25 105q0 66 -33.5 104t-89.5 38q-50 0 -90.5 -29.5t-63.5 -78.5t-23 -103q0 -67 35.5 -109t90.5 -42q44 0 84 32z" />
    <glyph glyph-name="seven" unicode="7" horiz-adv-x="456" 
d="M532 760l-444 -760h-97l396 683h-312l11 77h446z" />
    <glyph glyph-name="eight" unicode="8" horiz-adv-x="561" 
d="M481 321q28 -41 28 -92q0 -69 -34.5 -123.5t-95.5 -85t-139 -30.5q-59 0 -105.5 24t-72.5 66t-26 92q0 80 42.5 144.5t114.5 99.5q-34 30 -55 70.5t-21 79.5q0 58 31 104.5t85 73t120 26.5q61 0 104.5 -23.5t65.5 -60.5t22 -77q0 -63 -39 -121t-101 -96q48 -30 76 -71z
M245.5 660.5q-40.5 -34.5 -40.5 -89.5q0 -37 21 -68.5t72 -56.5l41 -20q118 76 118 176q0 45 -29 69t-85 24q-57 0 -97.5 -34.5zM335 86q39 21 62.5 56t23.5 74q0 82 -91 125l-74 35q-66 -31 -100 -83t-34 -109t36 -88t94 -31q44 0 83 21z" />
    <glyph glyph-name="nine" unicode="9" horiz-adv-x="579" 
d="M499.5 703.5q53.5 -66.5 53.5 -182.5q0 -103 -30 -226t-101.5 -214t-185.5 -91q-76 0 -128 43t-64 127l83 6q14 -54 41.5 -76.5t72.5 -22.5q73 0 126 74.5t80 199.5q-36 -43 -83 -64.5t-98 -21.5q-55 0 -98 27.5t-67 74.5t-24 102q0 82 36.5 153.5t99 114.5t136.5 43
q97 0 150.5 -66.5zM378.5 361.5q40.5 29.5 63.5 78.5t23 103q0 67 -35.5 109t-90.5 42q-44 0 -84 -32t-65 -83t-25 -105q0 -66 33.5 -104t89.5 -38q50 0 90.5 29.5z" />
    <glyph glyph-name="colon" unicode=":" horiz-adv-x="237" 
d="M43.5 10q-19.5 20 -19.5 47q0 28 19.5 47.5t47.5 19.5t47.5 -19.5t19.5 -47.5q0 -27 -19.5 -47t-47.5 -20t-47.5 20zM91.5 360q-19.5 20 -19.5 47q0 28 19.5 47.5t47.5 19.5t47.5 -19.5t19.5 -47.5q0 -27 -19.5 -47t-47.5 -20t-47.5 20z" />
    <glyph glyph-name="semicolon" unicode=";" horiz-adv-x="240" 
d="M91.5 360q-19.5 20 -19.5 47q0 28 19.5 47.5t47.5 19.5t47.5 -19.5t19.5 -47.5q0 -27 -19.5 -47t-47.5 -20t-47.5 20zM140.5 103.5q18.5 -20.5 18.5 -58.5q0 -49 -32 -95.5t-85 -73.5l-18 25q24 20 39.5 41.5t22.5 49.5q-25 2 -43.5 21.5t-18.5 44.5q0 27 20 46.5
t49 19.5t47.5 -20.5z" />
    <glyph glyph-name="less" unicode="&#x3c;" horiz-adv-x="499" 
d="M444 432l-297 -167l250 -166l-12 -83l-310 208l13 92l368 207z" />
    <glyph glyph-name="equal" unicode="=" horiz-adv-x="505" 
d="M99 394h345l-10 -72h-345zM73 206h345l-10 -72h-345z" />
    <glyph glyph-name="greater" unicode="&#x3e;" horiz-adv-x="500" 
d="M59 107l297 167l-250 166l12 83l310 -208l-13 -92l-368 -207z" />
    <glyph glyph-name="question" unicode="?" horiz-adv-x="513" 
d="M173 238q9 62 22.5 99t40.5 65.5t78 59.5l23 14q77 48 77 129q0 89 -90 89q-48 0 -80.5 -27t-60.5 -74l-71 34q36 68 91.5 105.5t130.5 37.5q51 0 89 -21t58 -56.5t20 -79.5q0 -127 -129 -203l-24 -14q-75 -44 -88 -152l-4 -34h-87zM157.5 10q-19.5 20 -19.5 47
q0 28 19.5 47.5t47.5 19.5t47.5 -19.5t19.5 -47.5q0 -27 -19.5 -47t-47.5 -20t-47.5 20z" />
    <glyph glyph-name="at" unicode="@" horiz-adv-x="916" 
d="M709.5 724.5q70.5 -45.5 108.5 -121t38 -160.5q0 -92 -25 -168.5t-72.5 -122t-112.5 -45.5q-41 0 -66.5 21t-33.5 54q-28 -34 -68 -54.5t-83 -20.5q-40 0 -72.5 24.5t-51 65.5t-18.5 88q0 64 33 129.5t88.5 108.5t117.5 43q35 0 62 -14.5t44 -41.5l12 47h84l-69 -283
q-4 -19 -4 -40q0 -54 46 -54q33 0 58.5 41.5t39 101t13.5 109.5q0 80 -29 140.5t-84.5 93.5t-130.5 33q-104 0 -190 -66.5t-135.5 -174.5t-49.5 -225q0 -82 29.5 -143.5t85.5 -95t132 -33.5q55 0 98 10.5t88 34.5l18 -64q-53 -29 -103 -40.5t-117 -11.5q-92 0 -162 45
t-108 122t-38 172q0 143 61 267.5t167 199t236 74.5q93 0 163.5 -45.5zM492 213.5q35 31.5 55.5 79.5t20.5 96q0 47 -20.5 75t-58.5 28q-40 0 -76.5 -30.5t-58.5 -77.5t-22 -93q0 -48 22.5 -78.5t62.5 -30.5t75 31.5z" />
    <glyph glyph-name="A" unicode="A" horiz-adv-x="530" 
d="M386 136h-270l-53 -136h-94l318 760h98l104 -760h-88zM377 212l-51 457l-180 -457h231z" />
    <glyph glyph-name="B" unicode="B" horiz-adv-x="528" 
d="M471.5 339q22.5 -39 22.5 -86q0 -71 -30 -128.5t-85.5 -91t-127.5 -33.5h-217l107 760h207q82 0 127.5 -45t45.5 -114q0 -65 -28.5 -118t-82.5 -84q39 -21 61.5 -60zM216 684l-35 -250h109q66 0 104.5 44t38.5 110q0 43 -24.5 69.5t-75.5 26.5h-117zM336.5 99
q33.5 23 51.5 62t18 85q0 50 -27 81t-79 31h-130l-39 -282h126q46 0 79.5 23z" />
    <glyph glyph-name="C" unicode="C" horiz-adv-x="716" 
d="M618.5 699q68.5 -71 87.5 -190l-88 -10q-12 91 -60 142.5t-130 51.5t-146.5 -55t-100 -143.5t-35.5 -183.5q0 -110 51.5 -177t142.5 -67q77 0 144.5 54.5t100.5 141.5l85 -11q-47 -124 -135.5 -193t-204.5 -69q-85 0 -146.5 41.5t-93.5 113.5t-32 162q0 121 48 227.5
t135 171t197 64.5q112 0 180.5 -71z" />
    <glyph glyph-name="D" unicode="D" horiz-adv-x="665" 
d="M515.5 720q61.5 -40 94 -109.5t32.5 -156.5q0 -121 -48 -225t-134.5 -166.5t-197.5 -62.5h-228l107 760h229q84 0 145.5 -40zM415.5 129q65.5 53 102 139.5t36.5 181.5q0 106 -53 170t-146 64h-139l-85 -608h137q82 0 147.5 53z" />
    <glyph glyph-name="E" unicode="E" horiz-adv-x="488" 
d="M216 684l-35 -250h269l-11 -76h-269l-39 -282h276l-10 -76h-363l107 760h359l-11 -76h-273z" />
    <glyph glyph-name="F" unicode="F" horiz-adv-x="452" 
d="M216 684l-35 -250h252l-11 -76h-252l-50 -358h-86l107 760h342l-11 -76h-256z" />
    <glyph glyph-name="G" unicode="G" horiz-adv-x="707" 
d="M348 405h312l-45 -316q-126 -99 -274 -99q-91 0 -155 43t-96 115t-32 159q0 121 47.5 227.5t132.5 171t192 64.5q97 0 162 -59t95 -155l-91 -10q-14 61 -59 104t-118 43q-77 0 -139.5 -56.5t-98 -146t-35.5 -183.5q0 -110 52.5 -175t153.5 -65q56 0 99 16t83 43l29 203
h-226z" />
    <glyph glyph-name="H" unicode="H" horiz-adv-x="594" 
d="M595 760l-107 -760h-86l50 358h-282l-50 -358h-86l107 760h86l-46 -326h282l46 326h86z" />
    <glyph glyph-name="I" unicode="I" horiz-adv-x="226" 
d="M141 760h86l-107 -760h-86z" />
    <glyph glyph-name="J" unicode="J" horiz-adv-x="506" 
d="M76 46q-48 56 -48 160l87 6q-1 -9 -1 -25q0 -59 26 -89.5t70 -30.5q50 0 90 42t51 123l75 528h86l-74 -525q-17 -119 -82 -182t-156 -63q-76 0 -124 56z" />
    <glyph glyph-name="K" unicode="K" horiz-adv-x="538" 
d="M327 431l160 -431h-86l-129 359l-124 -158l-28 -201h-86l107 760h86l-58 -410l315 410h100z" />
    <glyph glyph-name="L" unicode="L" horiz-adv-x="432" 
d="M386 76l-10 -76h-342l107 760h86l-96 -684h255z" />
    <glyph glyph-name="M" unicode="M" horiz-adv-x="754" 
d="M715 760l-42 -760h-85l44 641l-260 -641h-63l-79 641l-136 -641h-85l172 760h101l75 -629l252 629h106z" />
    <glyph glyph-name="N" unicode="N" horiz-adv-x="595" 
d="M596 760l-107 -760h-85l-199 609l-86 -609h-85l107 760h85l199 -609l86 609h85z" />
    <glyph glyph-name="O" unicode="O" horiz-adv-x="733" 
d="M183.5 31.5q-61.5 41.5 -93.5 113.5t-32 162q0 121 48 227.5t135 171t197 64.5q84 0 145.5 -41t94 -113t32.5 -162q0 -123 -48 -229.5t-134.5 -170.5t-197.5 -64q-85 0 -146.5 41.5zM484.5 121.5q64.5 54.5 101 143t36.5 185.5q0 110 -51.5 176.5t-142.5 66.5
q-82 0 -146.5 -55t-100 -143.5t-35.5 -183.5q0 -110 51.5 -177t142.5 -67q80 0 144.5 54.5z" />
    <glyph glyph-name="P" unicode="P" horiz-adv-x="557" 
d="M500.5 703.5q54.5 -56.5 54.5 -144.5q0 -93 -33 -165t-97 -113t-153 -41h-118l-34 -240h-86l107 760h203q102 0 156.5 -56.5zM415 380q52 64 52 168q0 68 -34.5 102t-109.5 34h-107l-52 -368h107q92 0 144 64z" />
    <glyph glyph-name="Q" unicode="Q" horiz-adv-x="733" 
d="M660.5 220q-49.5 -108 -136.5 -169l54 -133l-73 -45l-56 138q-60 -21 -119 -21q-85 0 -146.5 41.5t-93.5 113.5t-32 162q0 121 48 227.5t135 171t197 64.5q84 0 145.5 -41t94 -113t32.5 -162q0 -126 -49.5 -234zM420 82l-94 230l74 43l92 -227q60 53 95 140t35 182
q0 110 -51.5 176.5t-142.5 66.5q-82 0 -146.5 -55t-100 -143.5t-35.5 -183.5q0 -110 51.5 -177t142.5 -67q43 0 80 15z" />
    <glyph glyph-name="R" unicode="R" horiz-adv-x="557" 
d="M513 376.5q-42 -77.5 -120 -112.5l87 -264h-95l-79 242q-22 -2 -34 -2h-118l-34 -240h-86l107 760h203q102 0 156.5 -56.5t54.5 -144.5q0 -105 -42 -182.5zM415 380q52 64 52 168q0 68 -34.5 102t-109.5 34h-107l-52 -368h107q92 0 144 64z" />
    <glyph glyph-name="S" unicode="S" horiz-adv-x="570" 
d="M92 46.5q-53 56.5 -53 155.5v16l86 3v-22q0 -76 39.5 -104.5t96.5 -28.5q45 0 82.5 20.5t59.5 57t22 83.5t-25 74t-69 46l-63 27q-152 65 -152 183q0 63 29.5 111.5t83 75t122.5 26.5q107 0 159.5 -62t50.5 -165l-87 -4v16q0 63 -34.5 100.5t-97.5 37.5q-62 0 -100 -37
t-38 -93q0 -39 23 -67t74 -50l64 -27q148 -63 148 -185q0 -73 -33 -128.5t-92 -85.5t-134 -30q-109 0 -162 56.5z" />
    <glyph glyph-name="T" unicode="T" horiz-adv-x="515" 
d="M550 684h-189l-96 -684h-86l96 684h-190l11 76h465z" />
    <glyph glyph-name="U" unicode="U" horiz-adv-x="600" 
d="M112 50.5q-49 60.5 -49 160.5q0 29 5 67l68 482h86l-70 -492q-5 -37 -5 -60q0 -141 126 -141q71 0 117 51t60 150l70 492h86l-68 -482q-20 -146 -88 -217t-188 -71q-101 0 -150 60.5z" />
    <glyph glyph-name="V" unicode="V" horiz-adv-x="536" 
d="M602 760l-322 -760h-97l-107 760h88l78 -663l266 663h94z" />
    <glyph glyph-name="W" unicode="W" horiz-adv-x="829" 
d="M885 760l-277 -760h-92l-47 637l-228 -637h-91l-64 760h88l36 -657l234 657h79l49 -652l219 652h94z" />
    <glyph glyph-name="X" unicode="X" horiz-adv-x="515" 
d="M322 387l152 -387h-90l-115 310l-208 -310h-92l261 387l-145 373h89l109 -296l196 296h93z" />
    <glyph glyph-name="Y" unicode="Y" horiz-adv-x="495" 
d="M566 760l-433 -760h-93l183 322l-142 438h87l108 -346l197 346h93z" />
    <glyph glyph-name="Z" unicode="Z" horiz-adv-x="521" 
d="M137 76h318l-10 -76h-451l424 684h-301l11 76h434z" />
    <glyph glyph-name="bracketleft" unicode="[" horiz-adv-x="364" 
d="M257 788l-111 -786h102l-10 -72h-184l131 930h180l-10 -72h-98z" />
    <glyph glyph-name="backslash" unicode="\" horiz-adv-x="628" 
d="M215 760h-94l327 -760h94z" />
    <glyph glyph-name="bracketright" unicode="]" horiz-adv-x="364" 
d="M146 2l111 786h-102l10 72h184l-131 -930h-180l10 72h98z" />
    <glyph glyph-name="asciicircum" unicode="^" horiz-adv-x="462" 
d="M323 400l-48 155l-93 -155h-82l139 217h87l76 -217h-79z" />
    <glyph glyph-name="underscore" unicode="_" horiz-adv-x="528" 
d="M-18 -84h468l-10 -72h-468z" />
    <glyph glyph-name="grave" unicode="`" horiz-adv-x="312" 
d="M225 760l84 -170h-63l-125 170h104z" />
    <glyph glyph-name="a" unicode="a" horiz-adv-x="553" 
d="M524 515l-72 -515h-77l7 85q-31 -47 -74 -71t-90 -24q-53 0 -94 29t-63 78.5t-22 109.5q0 79 33.5 152.5t90.5 119.5t125 46q48 0 85 -25.5t55 -69.5l12 85h84zM328.5 99q38.5 34 60.5 88t22 111q0 67 -31.5 109.5t-84.5 42.5q-49 0 -88.5 -34t-61 -88.5t-21.5 -112.5
q0 -69 31 -109.5t87 -40.5q48 0 86.5 34z" />
    <glyph glyph-name="b" unicode="b" horiz-adv-x="553" 
d="M429 496q41 -29 63 -78.5t22 -109.5q0 -79 -33.5 -152.5t-90.5 -119.5t-125 -46q-49 0 -86.5 26.5t-55.5 72.5l-16 -89h-78l107 760h85l-46 -325q31 44 73 67t87 23q53 0 94 -29zM346.5 99q39.5 34 61 88.5t21.5 112.5q0 69 -31 109.5t-87 40.5q-48 0 -86.5 -34
t-60.5 -88t-22 -111q0 -67 31.5 -109.5t84.5 -42.5q49 0 88.5 34z" />
    <glyph glyph-name="c" unicode="c" horiz-adv-x="517" 
d="M128 19q-43 29 -65.5 77.5t-22.5 106.5q0 86 32.5 160t93 118t139.5 44q78 0 125 -46t58 -127l-85 -9q-7 52 -34.5 79.5t-74.5 27.5q-49 0 -87.5 -35t-60 -90.5t-21.5 -113.5q0 -69 30.5 -107.5t84.5 -38.5q45 0 83.5 31.5t59.5 83.5l82 -9q-33 -88 -93 -134.5
t-143 -46.5q-58 0 -101 29z" />
    <glyph glyph-name="d" unicode="d" horiz-adv-x="554" 
d="M560 760l-107 -760h-78l7 85q-31 -47 -74 -71t-90 -24q-53 0 -94 29t-63 78.5t-22 109.5q0 79 33.5 152.5t90.5 119.5t125 46q48 0 85 -25.5t55 -69.5l47 330h85zM328.5 99q38.5 34 60.5 88t22 111q0 67 -31.5 109.5t-84.5 42.5q-49 0 -88.5 -34t-61 -88.5t-21.5 -112.5
q0 -69 31 -109.5t87 -40.5q48 0 86.5 34z" />
    <glyph glyph-name="e" unicode="e" horiz-adv-x="522" 
d="M127 214v-3q0 -69 30.5 -107.5t84.5 -38.5q43 0 78 26t56 70l83 -10q-33 -76 -91.5 -118.5t-138.5 -42.5q-58 0 -101 29t-65.5 77.5t-22.5 106.5q0 86 32 160t91.5 118t137.5 44q88 0 135 -60.5t47 -153.5q0 -16 -3 -42.5t-6 -45.5h-347v-9zM194 405.5
q-40 -44.5 -57 -112.5h261q1 8 1 23q0 66 -27.5 100t-81.5 34q-56 0 -96 -44.5z" />
    <glyph glyph-name="f" unicode="f" horiz-adv-x="288" 
d="M237 671.5q-19 -23.5 -27 -79.5l-11 -77h112l-10 -73h-112l-62 -442h-85l62 442h-68l16 73h62l12 82q13 91 52 132t104 41q27 0 50.5 -6t34.5 -15l-15 -70q-29 16 -63 16q-33 0 -52 -23.5z" />
    <glyph glyph-name="g" unicode="g" horiz-adv-x="554" 
d="M525 515l-64 -459q-17 -120 -82.5 -190.5t-170.5 -70.5q-69 0 -114.5 33t-59.5 85l84 16q21 -64 98 -64q63 0 106.5 51t53.5 140l3 26q-31 -45 -73 -68.5t-88 -23.5q-53 0 -94 29t-63 78.5t-22 109.5q0 79 33.5 152.5t90.5 119.5t125 46q49 0 86.5 -26.5t55.5 -72.5
l17 89h78zM328.5 99q38.5 34 60.5 88t22 111q0 67 -31.5 109.5t-84.5 42.5q-49 0 -88.5 -34t-61 -88.5t-21.5 -112.5q0 -69 31 -109.5t87 -40.5q48 0 86.5 34z" />
    <glyph glyph-name="h" unicode="h" horiz-adv-x="515" 
d="M434 481.5q34 -43.5 34 -111.5q0 -21 -3 -42l-46 -328h-85l43 308q4 34 4 49q0 46 -20 71t-66 25q-55 0 -91 -48t-49 -112l-41 -293h-85l107 760h85l-45 -321q30 42 70.5 64t86.5 22q67 0 101 -43.5z" />
    <glyph glyph-name="i" unicode="i" horiz-adv-x="226" 
d="M126 632q-19 19 -19 46q0 28 19 47t46 19t46 -19t19 -47q0 -27 -19 -46t-46 -19t-46 19zM107 515h85l-72 -515h-85z" />
    <glyph glyph-name="j" unicode="j" horiz-adv-x="220" 
d="M120 632q-19 19 -19 46q0 28 19 47t46 19t46 -19t19 -47q0 -27 -19 -46t-46 -19t-46 19zM-90 -200q-23 5 -38 12l15 70q34 -12 64 -12q32 0 48.5 21.5t24.5 72.5l77 551h85l-78 -559q-12 -87 -51.5 -124t-100.5 -37q-23 0 -46 5z" />
    <glyph glyph-name="k" unicode="k" horiz-adv-x="441" 
d="M272 319l133 -319h-85l-105 258l-76 -83l-25 -175h-85l107 760h85l-64 -457l193 212h105z" />
    <glyph glyph-name="l" unicode="l" horiz-adv-x="252" 
d="M78 18.5q-32 28.5 -32 83.5q0 26 4 50l86 608h85l-85 -604q-3 -22 -3 -39q0 -30 13 -41t45 -11h8l-5 -75h-22q-62 0 -94 28.5z" />
    <glyph glyph-name="m" unicode="m" horiz-adv-x="763" 
d="M683.5 482q31.5 -43 31.5 -112q0 -22 -3 -45l-45 -325h-85l43 306q4 34 4 49q0 45 -16.5 71.5t-53.5 26.5q-57 0 -89 -56t-41 -127l-38 -270h-85l43 305q4 32 4 48q0 46 -17 73t-54 27q-51 0 -82.5 -48t-44.5 -112l-41 -293h-85l72 515h77l-4 -72q27 41 62.5 61.5
t75.5 20.5q49 0 79.5 -29t41.5 -77q29 52 69 79t85 27q65 0 96.5 -43z" />
    <glyph glyph-name="n" unicode="n" horiz-adv-x="515" 
d="M434 481.5q34 -43.5 34 -111.5q0 -21 -3 -42l-46 -328h-85l43 308q4 34 4 49q0 46 -20 71t-66 25q-56 0 -92 -49t-48 -114l-41 -290h-85l72 515h77l-5 -79q31 44 72.5 66.5t87.5 22.5q67 0 101 -43.5z" />
    <glyph glyph-name="o" unicode="o" horiz-adv-x="534" 
d="M128 19q-43 29 -65.5 77.5t-22.5 106.5q0 86 32.5 160t93 118t139.5 44q58 0 101 -29t65.5 -77.5t22.5 -106.5q0 -86 -32.5 -160t-93 -118t-139.5 -44q-58 0 -101 29zM327.5 100q38.5 35 60 90.5t21.5 113.5q0 69 -30.5 107.5t-84.5 38.5q-49 0 -87.5 -35t-60 -90.5
t-21.5 -113.5q0 -69 30.5 -107.5t84.5 -38.5q49 0 87.5 35z" />
    <glyph glyph-name="p" unicode="p" horiz-adv-x="553" 
d="M429 496q41 -29 63 -78.5t22 -109.5q0 -79 -33.5 -152.5t-90.5 -119.5t-125 -46q-48 0 -85 25.5t-55 69.5l-39 -280h-85l100 710h78l-7 -85q31 47 74 71t89 24q53 0 94 -29zM346.5 99q39.5 34 61 88.5t21.5 112.5q0 69 -31 109.5t-87 40.5q-48 0 -86.5 -34t-60.5 -88
t-22 -111q0 -67 31.5 -109.5t84.5 -42.5q49 0 88.5 34z" />
    <glyph glyph-name="q" unicode="q" horiz-adv-x="549" 
d="M525 515l-100 -710h-85l38 275q-31 -44 -73 -67t-87 -23q-53 0 -94 29t-63 78.5t-22 109.5q0 79 33.5 152.5t90.5 119.5t125 46q49 0 86.5 -26.5t55.5 -72.5l17 89h78zM328.5 99q38.5 34 60.5 88t22 111q0 67 -31.5 109.5t-84.5 42.5q-49 0 -88.5 -34t-61 -88.5
t-21.5 -112.5q0 -69 31 -109.5t87 -40.5q48 0 86.5 34z" />
    <glyph glyph-name="r" unicode="r" horiz-adv-x="328" 
d="M345 523l-17 -89q-22 5 -41 5q-56 0 -92 -56t-47 -141l-34 -242h-85l72 515h76l-4 -86q30 47 66.5 71.5t76.5 24.5q19 0 29 -2z" />
    <glyph glyph-name="s" unicode="s" horiz-adv-x="430" 
d="M62 34.5q-42 44.5 -42 115.5l84 10q-3 -48 16.5 -72t72.5 -24q42 0 71.5 22.5t29.5 65.5q0 30 -19 47t-65 36l-17 7q-119 50 -119 141q0 63 48.5 102.5t129.5 39.5q70 0 114 -41.5t46 -107.5l-85 -10q0 86 -83 86q-32 0 -58.5 -20.5t-26.5 -51.5q0 -20 15.5 -36.5
t54.5 -32.5l20 -8q64 -26 97.5 -59.5t33.5 -81.5q0 -80 -54.5 -126t-139.5 -46q-82 0 -124 44.5z" />
    <glyph glyph-name="t" unicode="t" horiz-adv-x="307" 
d="M148 149q-3 -21 -3 -36q0 -28 11 -39t35 -11q30 0 55 7l-5 -70q-35 -10 -75 -10q-51 0 -79 31.5t-28 80.5q0 14 4 46l41 294h-68l15 73h63l18 125h85l-18 -125h102l-10 -73h-102z" />
    <glyph glyph-name="u" unicode="u" 
d="M478 515l-72 -515h-77l6 78q-29 -43 -69 -65.5t-84 -22.5q-67 0 -101 43.5t-34 111.5q0 21 3 42l46 328h85l-43 -308q-4 -34 -4 -49q0 -46 20 -71t66 -25q52 0 86 48t46 111l41 294h85z" />
    <glyph glyph-name="v" unicode="v" horiz-adv-x="444" 
d="M480 515l-247 -515h-94l-103 515h87l72 -426l189 426h96z" />
    <glyph glyph-name="w" unicode="w" horiz-adv-x="675" 
d="M701 515l-209 -515h-90l-42 408l-159 -408h-91l-64 515h86l38 -427l166 427h75l43 -424l155 424h92z" />
    <glyph glyph-name="x" unicode="x" horiz-adv-x="420" 
d="M257 264l122 -264h-88l-84 196l-138 -196h-100l198 268l-118 247l92 2l76 -182l126 180h100z" />
    <glyph glyph-name="y" unicode="y" 
d="M478 515l-66 -468q-17 -119 -77 -185.5t-155 -66.5q-65 0 -105.5 32.5t-53.5 85.5l84 16q5 -31 26 -47.5t57 -16.5q59 0 93 45.5t46 135.5l4 30q-29 -40 -67 -60.5t-81 -20.5q-67 0 -101 43.5t-34 111.5q0 21 3 42l45 323h85l-42 -303q-4 -34 -4 -49q0 -46 20 -71t66 -25
q50 0 83.5 45.5t46.5 106.5l42 296h85z" />
    <glyph glyph-name="z" unicode="z" horiz-adv-x="426" 
d="M135 73h230l-10 -73h-366l300 442h-215l15 73h348z" />
    <glyph glyph-name="braceleft" unicode="{" horiz-adv-x="413" 
d="M418 860l-10 -70q-76 0 -89 -94l-26 -180q-14 -90 -76 -125q20 -15 32 -37.5t12 -50.5q0 -8 -2 -28l-25 -181q-2 -11 -2 -30q0 -32 15 -48t50 -16l-10 -70h-21q-53 0 -84.5 34.5t-31.5 91.5q0 28 4 55l23 164q2 18 2 25q0 29 -15 44.5t-50 15.5l8 57l2 13q39 0 60 23.5
t27 62.5l23 162q14 95 52 138.5t111 43.5h21z" />
    <glyph glyph-name="bar" unicode="|" horiz-adv-x="327" 
d="M191 760h87l-135 -955h-87z" />
    <glyph glyph-name="braceright" unicode="}" horiz-adv-x="414" 
d="M34 -70l10 70q76 0 89 94l26 180q14 90 76 125q-20 15 -32 37.5t-12 50.5q0 8 2 28l25 181q2 11 2 30q0 32 -15 48t-50 16l10 70h21q53 0 84.5 -34.5t31.5 -91.5q0 -28 -4 -55l-23 -164q-2 -18 -2 -25q0 -29 15 -44.5t50 -15.5l-8 -57l-2 -13q-39 0 -60 -23.5t-27 -62.5
l-23 -162q-14 -95 -52 -138.5t-111 -43.5h-21z" />
    <glyph glyph-name="asciitilde" unicode="~" horiz-adv-x="528" 
d="M329 404q-21 7 -46 20q-52 27 -87 27q-53 0 -94 -39l11 78q40 35 95 35q24 0 43.5 -7t47.5 -21q25 -13 45 -19.5t43 -6.5q57 0 97 40l-11 -79q-18 -16 -44.5 -25.5t-54.5 -9.5q-24 0 -45 7z" />
    <glyph glyph-name="uni00A0" unicode="&#xa0;" horiz-adv-x="180" 
 />
    <glyph glyph-name="exclamdown" unicode="&#xa1;" horiz-adv-x="255" 
d="M210.5 555q19.5 -20 19.5 -47q0 -28 -19.5 -47.5t-47.5 -19.5t-47.5 19.5t-19.5 47.5q0 27 19.5 47t47.5 20t47.5 -20zM106 -195h-84l87 550h66z" />
    <glyph glyph-name="cent" unicode="&#xa2;" horiz-adv-x="594" 
d="M373.5 108q29.5 29 46.5 72l82 -9q-29 -79 -81 -125t-123 -54l-17 -119h-81l17 123q-66 17 -103 74t-37 133t26 143.5t74.5 113.5t112.5 60l17 118h81l-16 -115q65 -9 104 -53.5t49 -117.5l-85 -9q-5 42 -25 69t-54 35l-53 -378q36 10 65.5 39zM179 125q17 -35 49 -50
l51 364q-53 -25 -85 -90t-32 -138q0 -51 17 -86z" />
    <glyph glyph-name="sterling" unicode="&#xa3;" horiz-adv-x="569" 
d="M247 76h216l-10 -76h-396l10 76h78q77 91 77 177q0 9 -2 33h-114l10 74h81q-3 6 -19 34q-23 38 -38.5 82.5t-15.5 81.5q0 55 28 103.5t79 78.5t118 30q79 0 128 -51t54 -142l-84 -6q-4 58 -30.5 90t-76.5 32q-34 0 -63.5 -18.5t-47 -48t-17.5 -62.5q0 -32 9.5 -62.5
t32.5 -66.5q22 -36 38 -75h164l-10 -74h-136v-10q0 -109 -63 -200z" />
    <glyph glyph-name="currency" unicode="&#xa4;" horiz-adv-x="726" 
d="M607 296.5q-17 -47.5 -48 -85.5l66 -76l-65 -59l-66 78q-69 -44 -155 -44q-77 0 -132 41l-88 -78l-55 68l86 74q-26 47 -26 104q0 53 17.5 101t49.5 86l-60 70l64 59l62 -72q68 42 152 42q79 0 136 -44l89 80l56 -68l-90 -78q24 -43 24 -99q0 -52 -17 -99.5zM248 223
q39 -38 102 -38q47 0 91 27t71 73.5t27 102.5q0 66 -39 104t-102 38q-47 0 -91 -27t-71 -73.5t-27 -102.5q0 -66 39 -104z" />
    <glyph glyph-name="yen" unicode="&#xa5;" horiz-adv-x="632" 
d="M410 401h115l-10 -74h-145l-10 -70h145l-10 -74h-145l-26 -183h-87l26 183h-146l10 74h146l10 70h-146l10 74h117l-113 359h87l97 -339l192 339h96z" />
    <glyph glyph-name="brokenbar" unicode="&#xa6;" horiz-adv-x="327" 
d="M191 760h87l-47 -335h-87zM103 140h87l-47 -335h-87z" />
    <glyph glyph-name="section" unicode="&#xa7;" horiz-adv-x="587" 
d="M459 185.5q-23 -40.5 -66 -68.5q56 -49 56 -125q0 -57 -27 -102t-76 -70t-113 -25q-89 0 -135.5 56.5t-52.5 156.5l83 10q0 -68 29 -107t86 -39q54 0 86 32.5t32 81.5q0 41 -22 66t-76 53l-46 24q-108 56 -108 162q0 49 23 89.5t66 68.5q-56 49 -56 125q0 57 27 101.5
t76 69.5t113 25q89 0 137 -57.5t54 -154.5l-87 -10q0 66 -27.5 105.5t-86.5 39.5q-53 0 -85.5 -32t-32.5 -81q0 -41 22 -66t76 -53l46 -24q108 -56 108 -162q0 -49 -23 -89.5zM396 276q0 34 -18 55.5t-64 46.5l-49 26l-6 3q-64 -51 -64 -117q0 -34 18 -55.5t64 -46.5l49 -26
l6 -3q64 51 64 117z" />
    <glyph glyph-name="dieresis" unicode="&#xa8;" horiz-adv-x="383" 
d="M126.5 639q-16.5 17 -16.5 41q0 25 16.5 42t41.5 17q24 0 41 -17t17 -42q0 -24 -17 -41t-41 -17q-25 0 -41.5 17zM293.5 639q-16.5 17 -16.5 41q0 25 16.5 42t41.5 17q24 0 40.5 -17t16.5 -42q0 -24 -16.5 -41t-40.5 -17q-25 0 -41.5 17z" />
    <glyph glyph-name="copyright" unicode="&#xa9;" horiz-adv-x="986" 
d="M297.5 42q-93.5 52 -145 141.5t-51.5 196.5t51.5 196.5t145 141.5t212.5 52t212.5 -52t145 -141.5t51.5 -196.5t-51.5 -196.5t-145 -141.5t-212.5 -52t-212.5 52zM686.5 97q77.5 44 120.5 119t43 164t-43 164t-120.5 119t-176.5 44t-176.5 -44t-120.5 -119t-43 -164
t43 -164t120.5 -119t176.5 -44t176.5 44zM404.5 168q-45.5 31 -70 86t-24.5 126t24.5 126.5t70 86.5t106.5 31q74 0 124 -42.5t68 -115.5l-77 -8q-13 46 -42.5 71.5t-72.5 25.5q-56 0 -89.5 -47t-33.5 -128q0 -79 34 -126.5t89 -47.5q44 0 74 27t44 77l74 -8
q-18 -77 -67.5 -121t-124.5 -44q-61 0 -106.5 31z" />
    <glyph glyph-name="ordfeminine" unicode="&#xaa;" horiz-adv-x="453" 
d="M464 760l-51 -361h-63l3 51q-48 -58 -113 -58q-38 0 -69.5 21t-49.5 56.5t-18 78.5q0 56 25 107.5t68 83t93 31.5q33 0 58.5 -16t41.5 -45l7 51h68zM308.5 475.5q26.5 19.5 43.5 54t17 77.5q0 46 -22 72.5t-56 26.5q-31 0 -58 -20t-43.5 -54t-16.5 -74q0 -44 24 -73
t59 -29q26 0 52.5 19.5z" />
    <glyph glyph-name="guillemotleft" unicode="&#xab;" horiz-adv-x="461" 
d="M183 480h84l-124 -208l63 -208h-75l-69 208zM348 480h84l-124 -208l63 -208h-75l-69 208z" />
    <glyph glyph-name="logicalnot" unicode="&#xac;" horiz-adv-x="556" 
d="M497 409l-30 -215h-76l20 143h-320l10 72h396z" />
    <glyph glyph-name="uni00AD" unicode="&#xad;" horiz-adv-x="385" 
d="M66 300h265l-10 -72h-265z" />
    <glyph glyph-name="registered" unicode="&#xae;" horiz-adv-x="707" 
d="M529.5 735.5q61.5 -34.5 96 -93.5t34.5 -130t-34.5 -130t-96 -94t-140.5 -35t-140.5 35t-96 94t-34.5 130t34.5 130t96 93.5t140.5 34.5t140.5 -34.5zM497.5 337.5q47.5 26.5 73.5 72.5t26 102q0 55 -26 101t-73.5 73t-108.5 27t-108.5 -27t-74 -73t-26.5 -101
q0 -56 26.5 -102t74 -72.5t108.5 -26.5t108.5 26.5zM444 485l42 -92h-64l-35 80h-12v-80h-60v253h78q45 0 68 -22.5t23 -63.5q0 -54 -40 -75zM375 526h15q34 0 34 34q0 33 -34 33h-15v-67z" />
    <glyph glyph-name="macron" unicode="&#xaf;" horiz-adv-x="337" 
d="M115 722h237l-9 -67h-237z" />
    <glyph glyph-name="degree" unicode="&#xb0;" horiz-adv-x="419" 
d="M199 529.5q-30 17.5 -47 47t-17 64.5t17 64.5t47 47t65 17.5t64.5 -17.5t46.5 -47t17 -64.5t-17 -64.5t-46.5 -47t-64.5 -17.5t-65 17.5zM313.5 591q20.5 21 20.5 50t-20.5 49.5t-49.5 20.5t-50 -20.5t-21 -49.5t21 -50t50 -21t49.5 21z" />
    <glyph glyph-name="plusminus" unicode="&#xb1;" horiz-adv-x="518" 
d="M455 377h-138l-23 -164h-69l23 164h-138l10 72h138l23 164h69l-23 -164h138zM58 99h345l-10 -72h-345z" />
    <glyph glyph-name="uni00B2" unicode="&#xb2;" horiz-adv-x="403" 
d="M183 445h166l-9 -64h-243l5 30q10 57 33.5 95t76.5 71l42 26q24 15 36 30t12 35q0 16 -10 25.5t-28 9.5q-19 0 -33.5 -10t-19.5 -26l-71 5q15 43 51.5 68t83.5 25q32 0 54.5 -13.5t34 -34t11.5 -41.5q0 -40 -20.5 -67t-61.5 -55l-48 -33q-50 -33 -62 -76z" />
    <glyph glyph-name="uni00B3" unicode="&#xb3;" horiz-adv-x="402" 
d="M343 546.5q12 -20.5 12 -42.5q0 -54 -39 -90.5t-96 -36.5q-46 0 -75.5 25t-34.5 67l70 5q2 -16 13 -25.5t31 -9.5q26 0 43 20t17 47q0 44 -59 44h-36l8 55h25q72 0 72 63q0 15 -9 25t-27 10q-36 0 -52 -35l-68 5q16 43 50.5 67.5t81.5 24.5q41 0 68 -27t27 -62
q0 -29 -14.5 -54.5t-41.5 -41.5q22 -13 34 -33.5z" />
    <glyph glyph-name="acute" unicode="&#xb4;" horiz-adv-x="264" 
d="M160 590h-63l84 170h104z" />
    <glyph glyph-name="uni00B5" unicode="&#xb5;" horiz-adv-x="557" 
d="M513 515l-72 -515h-79l6 81q-31 -45 -74 -68.5t-92 -23.5q-42 0 -71 18l-28 -202h-86l49 351q2 23 4 33l46 326h86l-43 -305q-3 -22 -3 -42q0 -52 21.5 -79t62.5 -27q38 0 70 28.5t53 71t26 82.5l38 271h86z" />
    <glyph glyph-name="paragraph" unicode="&#xb6;" horiz-adv-x="698" 
d="M679 690h-66l-125 -885h-72l125 885h-119l-125 -885h-72l67 473q-51 0 -91.5 26t-63.5 72t-23 103q0 71 34 136t90.5 105t121.5 40h329z" />
    <glyph glyph-name="periodcentered" unicode="&#xb7;" horiz-adv-x="235" 
d="M88.5 340q-19.5 20 -19.5 47q0 28 19.5 47.5t47.5 19.5t47.5 -19.5t19.5 -47.5q0 -27 -19.5 -47t-47.5 -20t-47.5 20z" />
    <glyph glyph-name="cedilla" unicode="&#xb8;" horiz-adv-x="266" 
d="M143.5 -57q20.5 -20 20.5 -51q0 -42 -30 -69.5t-75 -27.5q-44 0 -72 17l22 44q22 -9 41 -9q17 0 29.5 13t12.5 30q0 11 -6.5 17.5t-17.5 6.5q-19 0 -34 -12l-20 14l40 104h52l-18 -57h7q28 0 48.5 -20z" />
    <glyph glyph-name="uni00B9" unicode="&#xb9;" horiz-adv-x="297" 
d="M288 760l-54 -380h-73l40 281q-22 -7 -65 -7l8 62q39 0 62.5 10t30.5 34h51z" />
    <glyph glyph-name="ordmasculine" unicode="&#xba;" horiz-adv-x="448" 
d="M170 413q-32 21 -49.5 56.5t-17.5 77.5q0 60 25 111t69 81.5t99 30.5q41 0 73 -21t49.5 -56.5t17.5 -77.5q0 -60 -24.5 -111t-68.5 -81.5t-100 -30.5q-41 0 -73 21zM309.5 476q26.5 20 41.5 55t15 77q0 44 -21.5 71t-57.5 27q-34 0 -60 -22.5t-40.5 -58t-14.5 -71.5
q0 -44 21.5 -71t58.5 -27q31 0 57.5 20z" />
    <glyph glyph-name="guillemotright" unicode="&#xbb;" horiz-adv-x="461" 
d="M282 64h-84l124 208l-63 208h75l69 -208zM117 64h-84l124 208l-63 208h75l69 -208z" />
    <glyph glyph-name="onequarter" unicode="&#xbc;" horiz-adv-x="897" 
d="M288 760l-54 -380h-73l40 281q-22 -7 -65 -7l8 62q39 0 62.5 10t30.5 34h51zM630 760h99l-572 -760h-99zM795 98h-52l-14 -97h-69l14 97h-164l9 64l91 218h73l-91 -218h91l14 101h69l-14 -101h52z" />
    <glyph glyph-name="onehalf" unicode="&#xbd;" horiz-adv-x="878" 
d="M288 760l-54 -380h-73l40 281q-22 -7 -65 -7l8 62q39 0 62.5 10t30.5 34h51zM605 65h166l-9 -64h-243l5 30q10 57 33.5 95t76.5 71l42 26q24 15 36 30t12 35q0 16 -10 25.5t-28 9.5q-19 0 -33.5 -10t-19.5 -26l-71 5q15 43 51.5 68t83.5 25q32 0 54.5 -13.5t34 -34
t11.5 -41.5q0 -40 -20.5 -67t-61.5 -55l-48 -33q-50 -33 -62 -76zM630 760h99l-572 -760h-99z" />
    <glyph glyph-name="threequarters" unicode="&#xbe;" horiz-adv-x="948" 
d="M343 546.5q12 -20.5 12 -42.5q0 -54 -39 -90.5t-96 -36.5q-46 0 -75.5 25t-34.5 67l70 5q2 -16 13 -25.5t31 -9.5q26 0 43 20t17 47q0 44 -59 44h-36l8 55h25q72 0 72 63q0 15 -9 25t-27 10q-36 0 -52 -35l-68 5q16 43 50.5 67.5t81.5 24.5q41 0 68 -27t27 -62
q0 -29 -14.5 -54.5t-41.5 -41.5q22 -13 34 -33.5zM681 760h99l-572 -760h-99zM846 98h-52l-14 -97h-69l14 97h-164l9 64l91 218h73l-91 -218h91l14 101h69l-14 -101h52z" />
    <glyph glyph-name="questiondown" unicode="&#xbf;" horiz-adv-x="513" 
d="M362.5 555q19.5 -20 19.5 -47q0 -28 -19.5 -47.5t-47.5 -19.5t-47.5 19.5t-19.5 47.5q0 27 19.5 47t47.5 20t47.5 -20zM347 327q-9 -62 -22.5 -99t-40.5 -65.5t-78 -59.5l-23 -14q-77 -48 -77 -129q0 -89 90 -89q48 0 80.5 27t60.5 74l71 -34q-36 -68 -91.5 -105.5
t-130.5 -37.5q-51 0 -89 21t-58 56.5t-20 79.5q0 127 129 203l24 14q75 44 88 152l4 34h87z" />
    <glyph glyph-name="Agrave" unicode="&#xc0;" horiz-adv-x="530" 
d="M386 136h-270l-53 -136h-94l318 760h98l104 -760h-88zM377 212l-51 457l-180 -457h231zM277 1005l84 -170h-63l-125 170h104z" />
    <glyph glyph-name="Aacute" unicode="&#xc1;" horiz-adv-x="530" 
d="M386 136h-270l-53 -136h-94l318 760h98l104 -760h-88zM377 212l-51 457l-180 -457h231zM376 835h-63l84 170h104z" />
    <glyph glyph-name="Acircumflex" unicode="&#xc2;" horiz-adv-x="530" 
d="M386 136h-270l-53 -136h-94l318 760h98l104 -760h-88zM377 212l-51 457l-180 -457h231zM420 837l-53 107l-82 -107h-94l147 168h68l99 -168h-85z" />
    <glyph glyph-name="Atilde" unicode="&#xc3;" horiz-adv-x="530" 
d="M386 136h-270l-53 -136h-94l318 760h98l104 -760h-88zM377 212l-51 457l-180 -457h231zM371.5 891.5q-14.5 8.5 -29.5 23.5q-22 22 -42 22q-11 0 -23.5 -10t-23.5 -28l-50 33q41 69 109 69q41 0 71 -34q19 -21 41 -21q10 0 23 10t24 28l52 -27q-23 -36 -52.5 -55
t-63.5 -19q-21 0 -35.5 8.5z" />
    <glyph glyph-name="Adieresis" unicode="&#xc4;" horiz-adv-x="530" 
d="M386 136h-270l-53 -136h-94l318 760h98l104 -760h-88zM377 212l-51 457l-180 -457h231zM232.5 884q-16.5 17 -16.5 41q0 25 16.5 42t41.5 17q24 0 41 -17t17 -42q0 -24 -17 -41t-41 -17q-25 0 -41.5 17zM399.5 884q-16.5 17 -16.5 41q0 25 16.5 42t41.5 17q24 0 40.5 -17
t16.5 -42q0 -24 -16.5 -41t-40.5 -17q-25 0 -41.5 17z" />
    <glyph glyph-name="Aring" unicode="&#xc5;" horiz-adv-x="530" 
d="M386 136h-270l-53 -136h-94l318 760h98l104 -760h-88zM377 212l-51 457l-180 -457h231zM283 864q-32 32 -32 78q0 45 32 77t78 32t77.5 -32t31.5 -77q0 -46 -31.5 -78t-77.5 -32t-78 32zM402.5 898q17.5 18 17.5 44q0 25 -17.5 43t-41.5 18q-25 0 -42.5 -18t-17.5 -43
q0 -26 17.5 -44t42.5 -18q24 0 41.5 18z" />
    <glyph glyph-name="AE" unicode="&#xc6;" horiz-adv-x="800" 
d="M537 686l-36 -253h261l-11 -74h-260l-41 -285h269l-10 -74h-355l25 178h-223l-106 -178h-91l457 760h396l-11 -74h-264zM389 252l59 416l-248 -416h189z" />
    <glyph glyph-name="Ccedilla" unicode="&#xc7;" horiz-adv-x="716" 
d="M618.5 699q68.5 -71 87.5 -190l-88 -10q-12 91 -60 142.5t-130 51.5t-146.5 -55t-100 -143.5t-35.5 -183.5q0 -110 51.5 -177t142.5 -67q77 0 144.5 54.5t100.5 141.5l85 -11q-47 -124 -135.5 -193t-204.5 -69q-85 0 -146.5 41.5t-93.5 113.5t-32 162q0 121 48 227.5
t135 171t197 64.5q112 0 180.5 -71zM376.5 -57q20.5 -20 20.5 -51q0 -42 -30 -69.5t-75 -27.5q-44 0 -72 17l22 44q22 -9 41 -9q17 0 29.5 13t12.5 30q0 11 -6.5 17.5t-17.5 6.5q-19 0 -34 -12l-20 14l40 104h52l-18 -57h7q28 0 48.5 -20z" />
    <glyph glyph-name="Egrave" unicode="&#xc8;" horiz-adv-x="488" 
d="M216 684l-35 -250h269l-11 -76h-269l-39 -282h276l-10 -76h-363l107 760h359l-11 -76h-273zM260 1005l84 -170h-63l-125 170h104z" />
    <glyph glyph-name="Eacute" unicode="&#xc9;" horiz-adv-x="488" 
d="M216 684l-35 -250h269l-11 -76h-269l-39 -282h276l-10 -76h-363l107 760h359l-11 -76h-273zM359 835h-63l84 170h104z" />
    <glyph glyph-name="Ecircumflex" unicode="&#xca;" horiz-adv-x="488" 
d="M216 684l-35 -250h269l-11 -76h-269l-39 -282h276l-10 -76h-363l107 760h359l-11 -76h-273zM403 837l-53 107l-82 -107h-94l147 168h68l99 -168h-85z" />
    <glyph glyph-name="Edieresis" unicode="&#xcb;" horiz-adv-x="488" 
d="M216 684l-35 -250h269l-11 -76h-269l-39 -282h276l-10 -76h-363l107 760h359l-11 -76h-273zM215.5 884q-16.5 17 -16.5 41q0 25 16.5 42t41.5 17q24 0 41 -17t17 -42q0 -24 -17 -41t-41 -17q-25 0 -41.5 17zM382.5 884q-16.5 17 -16.5 41q0 25 16.5 42t41.5 17
q24 0 40.5 -17t16.5 -42q0 -24 -16.5 -41t-40.5 -17q-25 0 -41.5 17z" />
    <glyph glyph-name="Igrave" unicode="&#xcc;" horiz-adv-x="226" 
d="M141 760h86l-107 -760h-86zM124 1005l84 -170h-63l-125 170h104z" />
    <glyph glyph-name="Iacute" unicode="&#xcd;" horiz-adv-x="226" 
d="M141 760h86l-107 -760h-86zM223 835h-63l84 170h104z" />
    <glyph glyph-name="Icircumflex" unicode="&#xce;" horiz-adv-x="226" 
d="M141 760h86l-107 -760h-86zM244 837l-31 113l-63 -113h-87l122 168h67l74 -168h-82z" />
    <glyph glyph-name="Idieresis" unicode="&#xcf;" horiz-adv-x="226" 
d="M141 760h86l-107 -760h-86zM79.5 884q-16.5 17 -16.5 41q0 25 16.5 42t41.5 17q24 0 41 -17t17 -42q0 -24 -17 -41t-41 -17q-25 0 -41.5 17zM246.5 884q-16.5 17 -16.5 41q0 25 16.5 42t41.5 17q24 0 40.5 -17t16.5 -42q0 -24 -16.5 -41t-40.5 -17q-25 0 -41.5 17z" />
    <glyph glyph-name="Eth" unicode="&#xd0;" horiz-adv-x="696" 
d="M546.5 720q61.5 -40 94 -109.5t32.5 -156.5q0 -121 -48 -225t-134.5 -166.5t-197.5 -62.5h-228l51 359h-92l11 74h91l46 327h229q84 0 145.5 -40zM446.5 129q65.5 53 102 139.5t36.5 181.5q0 106 -53 170t-146 64h-139l-35 -251h188l-11 -74h-187l-40 -283h137
q82 0 147.5 53z" />
    <glyph glyph-name="Ntilde" unicode="&#xd1;" horiz-adv-x="595" 
d="M596 760l-107 -760h-85l-199 609l-86 -609h-85l107 760h85l199 -609l86 609h85zM402.5 891.5q-14.5 8.5 -29.5 23.5q-22 22 -42 22q-11 0 -23.5 -10t-23.5 -28l-50 33q41 69 109 69q41 0 71 -34q19 -21 41 -21q10 0 23 10t24 28l52 -27q-23 -36 -52.5 -55t-63.5 -19
q-21 0 -35.5 8.5z" />
    <glyph glyph-name="Ograve" unicode="&#xd2;" horiz-adv-x="733" 
d="M183.5 31.5q-61.5 41.5 -93.5 113.5t-32 162q0 121 48 227.5t135 171t197 64.5q84 0 145.5 -41t94 -113t32.5 -162q0 -123 -48 -229.5t-134.5 -170.5t-197.5 -64q-85 0 -146.5 41.5zM484.5 121.5q64.5 54.5 101 143t36.5 185.5q0 110 -51.5 176.5t-142.5 66.5
q-82 0 -146.5 -55t-100 -143.5t-35.5 -183.5q0 -110 51.5 -177t142.5 -67q80 0 144.5 54.5zM378 1005l84 -170h-63l-125 170h104z" />
    <glyph glyph-name="Oacute" unicode="&#xd3;" horiz-adv-x="733" 
d="M183.5 31.5q-61.5 41.5 -93.5 113.5t-32 162q0 121 48 227.5t135 171t197 64.5q84 0 145.5 -41t94 -113t32.5 -162q0 -123 -48 -229.5t-134.5 -170.5t-197.5 -64q-85 0 -146.5 41.5zM484.5 121.5q64.5 54.5 101 143t36.5 185.5q0 110 -51.5 176.5t-142.5 66.5
q-82 0 -146.5 -55t-100 -143.5t-35.5 -183.5q0 -110 51.5 -177t142.5 -67q80 0 144.5 54.5zM477 835h-63l84 170h104z" />
    <glyph glyph-name="Ocircumflex" unicode="&#xd4;" horiz-adv-x="733" 
d="M183.5 31.5q-61.5 41.5 -93.5 113.5t-32 162q0 121 48 227.5t135 171t197 64.5q84 0 145.5 -41t94 -113t32.5 -162q0 -123 -48 -229.5t-134.5 -170.5t-197.5 -64q-85 0 -146.5 41.5zM484.5 121.5q64.5 54.5 101 143t36.5 185.5q0 110 -51.5 176.5t-142.5 66.5
q-82 0 -146.5 -55t-100 -143.5t-35.5 -183.5q0 -110 51.5 -177t142.5 -67q80 0 144.5 54.5zM521 837l-53 107l-82 -107h-94l147 168h68l99 -168h-85z" />
    <glyph glyph-name="Otilde" unicode="&#xd5;" horiz-adv-x="733" 
d="M183.5 31.5q-61.5 41.5 -93.5 113.5t-32 162q0 121 48 227.5t135 171t197 64.5q84 0 145.5 -41t94 -113t32.5 -162q0 -123 -48 -229.5t-134.5 -170.5t-197.5 -64q-85 0 -146.5 41.5zM484.5 121.5q64.5 54.5 101 143t36.5 185.5q0 110 -51.5 176.5t-142.5 66.5
q-82 0 -146.5 -55t-100 -143.5t-35.5 -183.5q0 -110 51.5 -177t142.5 -67q80 0 144.5 54.5zM472.5 891.5q-14.5 8.5 -29.5 23.5q-22 22 -42 22q-11 0 -23.5 -10t-23.5 -28l-50 33q41 69 109 69q41 0 71 -34q19 -21 41 -21q10 0 23 10t24 28l52 -27q-23 -36 -52.5 -55
t-63.5 -19q-21 0 -35.5 8.5z" />
    <glyph glyph-name="Odieresis" unicode="&#xd6;" horiz-adv-x="733" 
d="M183.5 31.5q-61.5 41.5 -93.5 113.5t-32 162q0 121 48 227.5t135 171t197 64.5q84 0 145.5 -41t94 -113t32.5 -162q0 -123 -48 -229.5t-134.5 -170.5t-197.5 -64q-85 0 -146.5 41.5zM484.5 121.5q64.5 54.5 101 143t36.5 185.5q0 110 -51.5 176.5t-142.5 66.5
q-82 0 -146.5 -55t-100 -143.5t-35.5 -183.5q0 -110 51.5 -177t142.5 -67q80 0 144.5 54.5zM333.5 884q-16.5 17 -16.5 41q0 25 16.5 42t41.5 17q24 0 41 -17t17 -42q0 -24 -17 -41t-41 -17q-25 0 -41.5 17zM500.5 884q-16.5 17 -16.5 41q0 25 16.5 42t41.5 17
q24 0 40.5 -17t16.5 -42q0 -24 -16.5 -41t-40.5 -17q-25 0 -41.5 17z" />
    <glyph glyph-name="multiply" unicode="&#xd7;" horiz-adv-x="479" 
d="M286 261l94 -131l-53 -46l-91 127l-128 -128l-45 54l131 131l-91 126l53 47l88 -123l129 129l45 -54z" />
    <glyph glyph-name="Oslash" unicode="&#xd8;" horiz-adv-x="733" 
d="M644 672q32 -42 49 -97.5t17 -120.5q0 -123 -48 -229.5t-134.5 -170.5t-197.5 -64q-85 0 -147 42l-38 -52h-89l73 101q-35 43 -53 101t-18 125q0 121 48 227.5t135 171t197 64.5q90 0 154 -47l41 57h89zM183 156l360 499q-49 38 -115 38q-82 0 -146.5 -55t-100 -143.5
t-35.5 -183.5q0 -92 37 -155zM590 597l-358 -497q46 -33 108 -33q80 0 144.5 54.5t101 143t36.5 185.5q0 86 -32 147z" />
    <glyph glyph-name="Ugrave" unicode="&#xd9;" horiz-adv-x="600" 
d="M112 50.5q-49 60.5 -49 160.5q0 29 5 67l68 482h86l-70 -492q-5 -37 -5 -60q0 -141 126 -141q71 0 117 51t60 150l70 492h86l-68 -482q-20 -146 -88 -217t-188 -71q-101 0 -150 60.5zM311 1005l84 -170h-63l-125 170h104z" />
    <glyph glyph-name="Uacute" unicode="&#xda;" horiz-adv-x="600" 
d="M112 50.5q-49 60.5 -49 160.5q0 29 5 67l68 482h86l-70 -492q-5 -37 -5 -60q0 -141 126 -141q71 0 117 51t60 150l70 492h86l-68 -482q-20 -146 -88 -217t-188 -71q-101 0 -150 60.5zM410 835h-63l84 170h104z" />
    <glyph glyph-name="Ucircumflex" unicode="&#xdb;" horiz-adv-x="600" 
d="M112 50.5q-49 60.5 -49 160.5q0 29 5 67l68 482h86l-70 -492q-5 -37 -5 -60q0 -141 126 -141q71 0 117 51t60 150l70 492h86l-68 -482q-20 -146 -88 -217t-188 -71q-101 0 -150 60.5zM454 837l-53 107l-82 -107h-94l147 168h68l99 -168h-85z" />
    <glyph glyph-name="Udieresis" unicode="&#xdc;" horiz-adv-x="600" 
d="M112 50.5q-49 60.5 -49 160.5q0 29 5 67l68 482h86l-70 -492q-5 -37 -5 -60q0 -141 126 -141q71 0 117 51t60 150l70 492h86l-68 -482q-20 -146 -88 -217t-188 -71q-101 0 -150 60.5zM266.5 884q-16.5 17 -16.5 41q0 25 16.5 42t41.5 17q24 0 41 -17t17 -42
q0 -24 -17 -41t-41 -17q-25 0 -41.5 17zM433.5 884q-16.5 17 -16.5 41q0 25 16.5 42t41.5 17q24 0 40.5 -17t16.5 -42q0 -24 -16.5 -41t-40.5 -17q-25 0 -41.5 17z" />
    <glyph glyph-name="Yacute" unicode="&#xdd;" horiz-adv-x="495" 
d="M566 760l-433 -760h-93l183 322l-142 438h87l108 -346l197 346h93zM367 835h-63l84 170h104z" />
    <glyph glyph-name="Thorn" unicode="&#xde;" horiz-adv-x="556" 
d="M442.5 623.5q47.5 -26.5 71.5 -72t24 -102.5q0 -93 -33 -165t-97 -113t-153 -41h-117l-18 -130h-86l107 760h86l-15 -110h115q68 0 115.5 -26.5zM398 270q52 64 52 168q0 68 -34.5 102t-109.5 34h-105l-52 -368h105q92 0 144 64z" />
    <glyph glyph-name="germandbls" unicode="&#xdf;" horiz-adv-x="516" 
d="M433 352q33 -50 33 -110q0 -67 -31.5 -125t-84 -92.5t-113.5 -34.5q-44 0 -85 15l22 67q30 -9 61 -9q38 0 72.5 23.5t55.5 63.5t21 85q0 64 -35.5 101t-91.5 37h-26l7 49l3 22q62 17 97.5 62.5t35.5 108.5q0 38 -18.5 59t-56.5 21q-41 0 -70 -41.5t-38 -105.5l-77 -548
h-85l77 547q16 117 70.5 170t133.5 53q46 0 79 -20t49.5 -52t16.5 -68q0 -64 -29.5 -117t-80.5 -88q55 -23 88 -73z" />
    <glyph glyph-name="agrave" unicode="&#xe0;" horiz-adv-x="553" 
d="M524 515l-72 -515h-77l7 85q-31 -47 -74 -71t-90 -24q-53 0 -94 29t-63 78.5t-22 109.5q0 79 33.5 152.5t90.5 119.5t125 46q48 0 85 -25.5t55 -69.5l12 85h84zM328.5 99q38.5 34 60.5 88t22 111q0 67 -31.5 109.5t-84.5 42.5q-49 0 -88.5 -34t-61 -88.5t-21.5 -112.5
q0 -69 31 -109.5t87 -40.5q48 0 86.5 34zM239 760l84 -170h-63l-125 170h104z" />
    <glyph glyph-name="aacute" unicode="&#xe1;" horiz-adv-x="553" 
d="M524 515l-72 -515h-77l7 85q-31 -47 -74 -71t-90 -24q-53 0 -94 29t-63 78.5t-22 109.5q0 79 33.5 152.5t90.5 119.5t125 46q48 0 85 -25.5t55 -69.5l12 85h84zM328.5 99q38.5 34 60.5 88t22 111q0 67 -31.5 109.5t-84.5 42.5q-49 0 -88.5 -34t-61 -88.5t-21.5 -112.5
q0 -69 31 -109.5t87 -40.5q48 0 86.5 34zM338 590h-63l84 170h104z" />
    <glyph glyph-name="acircumflex" unicode="&#xe2;" horiz-adv-x="553" 
d="M524 515l-72 -515h-77l7 85q-31 -47 -74 -71t-90 -24q-53 0 -94 29t-63 78.5t-22 109.5q0 79 33.5 152.5t90.5 119.5t125 46q48 0 85 -25.5t55 -69.5l12 85h84zM328.5 99q38.5 34 60.5 88t22 111q0 67 -31.5 109.5t-84.5 42.5q-49 0 -88.5 -34t-61 -88.5t-21.5 -112.5
q0 -69 31 -109.5t87 -40.5q48 0 86.5 34zM382 592l-53 107l-82 -107h-94l147 168h68l99 -168h-85z" />
    <glyph glyph-name="atilde" unicode="&#xe3;" horiz-adv-x="553" 
d="M524 515l-72 -515h-77l7 85q-31 -47 -74 -71t-90 -24q-53 0 -94 29t-63 78.5t-22 109.5q0 79 33.5 152.5t90.5 119.5t125 46q48 0 85 -25.5t55 -69.5l12 85h84zM328.5 99q38.5 34 60.5 88t22 111q0 67 -31.5 109.5t-84.5 42.5q-49 0 -88.5 -34t-61 -88.5t-21.5 -112.5
q0 -69 31 -109.5t87 -40.5q48 0 86.5 34zM333.5 646.5q-14.5 8.5 -29.5 23.5q-22 22 -42 22q-11 0 -23.5 -10t-23.5 -28l-50 33q41 69 109 69q41 0 71 -34q19 -21 41 -21q10 0 23 10t24 28l52 -27q-23 -36 -52.5 -55t-63.5 -19q-21 0 -35.5 8.5z" />
    <glyph glyph-name="adieresis" unicode="&#xe4;" horiz-adv-x="553" 
d="M524 515l-72 -515h-77l7 85q-31 -47 -74 -71t-90 -24q-53 0 -94 29t-63 78.5t-22 109.5q0 79 33.5 152.5t90.5 119.5t125 46q48 0 85 -25.5t55 -69.5l12 85h84zM328.5 99q38.5 34 60.5 88t22 111q0 67 -31.5 109.5t-84.5 42.5q-49 0 -88.5 -34t-61 -88.5t-21.5 -112.5
q0 -69 31 -109.5t87 -40.5q48 0 86.5 34zM194.5 639q-16.5 17 -16.5 41q0 25 16.5 42t41.5 17q24 0 41 -17t17 -42q0 -24 -17 -41t-41 -17q-25 0 -41.5 17zM361.5 639q-16.5 17 -16.5 41q0 25 16.5 42t41.5 17q24 0 40.5 -17t16.5 -42q0 -24 -16.5 -41t-40.5 -17
q-25 0 -41.5 17z" />
    <glyph glyph-name="aring" unicode="&#xe5;" horiz-adv-x="553" 
d="M524 515l-72 -515h-77l7 85q-31 -47 -74 -71t-90 -24q-53 0 -94 29t-63 78.5t-22 109.5q0 79 33.5 152.5t90.5 119.5t125 46q48 0 85 -25.5t55 -69.5l12 85h84zM328.5 99q38.5 34 60.5 88t22 111q0 67 -31.5 109.5t-84.5 42.5q-49 0 -88.5 -34t-61 -88.5t-21.5 -112.5
q0 -69 31 -109.5t87 -40.5q48 0 86.5 34zM245 619q-32 32 -32 78q0 45 32 77t78 32t77.5 -32t31.5 -77q0 -46 -31.5 -78t-77.5 -32t-78 32zM364.5 653q17.5 18 17.5 44q0 25 -17.5 43t-41.5 18q-25 0 -42.5 -18t-17.5 -43q0 -26 17.5 -44t42.5 -18q24 0 41.5 18z" />
    <glyph glyph-name="ae" unicode="&#xe6;" horiz-adv-x="827" 
d="M433 213v-2q0 -69 30.5 -107.5t84.5 -38.5q43 0 78 26t56 70l83 -10q-33 -76 -91.5 -118.5t-138.5 -42.5q-61 0 -102.5 28t-61.5 77q-32 -50 -83 -77.5t-121 -27.5q-61 0 -102 36t-41 98q0 89 56.5 134.5t156.5 45.5h123l1 9q3 20 3 35q0 55 -26 78.5t-64 23.5
q-78 0 -123 -80l-79 11q31 69 86 106.5t127 37.5q47 0 85 -20.5t58 -64.5q33 40 78.5 62.5t100.5 22.5q88 0 135 -60.5t47 -153.5q0 -14 -2.5 -37t-6.5 -40h-346q-1 -7 -1 -21zM503 409q-39 -41 -57 -105h259v12q0 66 -27.5 100t-81.5 34t-93 -41zM292 97.5
q44 39.5 54 109.5l3 22l1 5h-114q-62 0 -96.5 -25t-34.5 -75q0 -35 23.5 -55.5t63.5 -20.5q56 0 100 39.5z" />
    <glyph glyph-name="ccedilla" unicode="&#xe7;" horiz-adv-x="517" 
d="M128 19q-43 29 -65.5 77.5t-22.5 106.5q0 86 32.5 160t93 118t139.5 44q78 0 125 -46t58 -127l-85 -9q-7 52 -34.5 79.5t-74.5 27.5q-49 0 -87.5 -35t-60 -90.5t-21.5 -113.5q0 -69 30.5 -107.5t84.5 -38.5q45 0 83.5 31.5t59.5 83.5l82 -9q-33 -88 -93 -134.5
t-143 -46.5q-58 0 -101 29zM286.5 -57q20.5 -20 20.5 -51q0 -42 -30 -69.5t-75 -27.5q-44 0 -72 17l22 44q22 -9 41 -9q17 0 29.5 13t12.5 30q0 11 -6.5 17.5t-17.5 6.5q-19 0 -34 -12l-20 14l40 104h52l-18 -57h7q28 0 48.5 -20z" />
    <glyph glyph-name="egrave" unicode="&#xe8;" horiz-adv-x="522" 
d="M127 214v-3q0 -69 30.5 -107.5t84.5 -38.5q43 0 78 26t56 70l83 -10q-33 -76 -91.5 -118.5t-138.5 -42.5q-58 0 -101 29t-65.5 77.5t-22.5 106.5q0 86 32 160t91.5 118t137.5 44q88 0 135 -60.5t47 -153.5q0 -16 -3 -42.5t-6 -45.5h-347v-9zM194 405.5
q-40 -44.5 -57 -112.5h261q1 8 1 23q0 66 -27.5 100t-81.5 34q-56 0 -96 -44.5zM236 760l84 -170h-63l-125 170h104z" />
    <glyph glyph-name="eacute" unicode="&#xe9;" horiz-adv-x="522" 
d="M127 214v-3q0 -69 30.5 -107.5t84.5 -38.5q43 0 78 26t56 70l83 -10q-33 -76 -91.5 -118.5t-138.5 -42.5q-58 0 -101 29t-65.5 77.5t-22.5 106.5q0 86 32 160t91.5 118t137.5 44q88 0 135 -60.5t47 -153.5q0 -16 -3 -42.5t-6 -45.5h-347v-9zM194 405.5
q-40 -44.5 -57 -112.5h261q1 8 1 23q0 66 -27.5 100t-81.5 34q-56 0 -96 -44.5zM335 590h-63l84 170h104z" />
    <glyph glyph-name="ecircumflex" unicode="&#xea;" horiz-adv-x="522" 
d="M127 214v-3q0 -69 30.5 -107.5t84.5 -38.5q43 0 78 26t56 70l83 -10q-33 -76 -91.5 -118.5t-138.5 -42.5q-58 0 -101 29t-65.5 77.5t-22.5 106.5q0 86 32 160t91.5 118t137.5 44q88 0 135 -60.5t47 -153.5q0 -16 -3 -42.5t-6 -45.5h-347v-9zM194 405.5
q-40 -44.5 -57 -112.5h261q1 8 1 23q0 66 -27.5 100t-81.5 34q-56 0 -96 -44.5zM379 592l-53 107l-82 -107h-94l147 168h68l99 -168h-85z" />
    <glyph glyph-name="edieresis" unicode="&#xeb;" horiz-adv-x="522" 
d="M127 214v-3q0 -69 30.5 -107.5t84.5 -38.5q43 0 78 26t56 70l83 -10q-33 -76 -91.5 -118.5t-138.5 -42.5q-58 0 -101 29t-65.5 77.5t-22.5 106.5q0 86 32 160t91.5 118t137.5 44q88 0 135 -60.5t47 -153.5q0 -16 -3 -42.5t-6 -45.5h-347v-9zM194 405.5
q-40 -44.5 -57 -112.5h261q1 8 1 23q0 66 -27.5 100t-81.5 34q-56 0 -96 -44.5zM191.5 639q-16.5 17 -16.5 41q0 25 16.5 42t41.5 17q24 0 41 -17t17 -42q0 -24 -17 -41t-41 -17q-25 0 -41.5 17zM358.5 639q-16.5 17 -16.5 41q0 25 16.5 42t41.5 17q24 0 40.5 -17t16.5 -42
q0 -24 -16.5 -41t-40.5 -17q-25 0 -41.5 17z" />
    <glyph glyph-name="igrave" unicode="&#xec;" horiz-adv-x="215" 
d="M101 515h85l-72 -515h-85zM84 760l84 -170h-63l-125 170h104z" />
    <glyph glyph-name="iacute" unicode="&#xed;" horiz-adv-x="215" 
d="M101 515h85l-72 -515h-85zM183 590h-63l84 170h104z" />
    <glyph glyph-name="icircumflex" unicode="&#xee;" horiz-adv-x="215" 
d="M101 515h85l-72 -515h-85zM204 592l-31 113l-63 -113h-87l122 168h67l74 -168h-82z" />
    <glyph glyph-name="idieresis" unicode="&#xef;" horiz-adv-x="215" 
d="M101 515h85l-72 -515h-85zM39.5 639q-16.5 17 -16.5 41q0 25 16.5 42t41.5 17q24 0 41 -17t17 -42q0 -24 -17 -41t-41 -17q-25 0 -41.5 17zM206.5 639q-16.5 17 -16.5 41q0 25 16.5 42t41.5 17q24 0 40.5 -17t16.5 -42q0 -24 -16.5 -41t-40.5 -17q-25 0 -41.5 17z" />
    <glyph glyph-name="eth" unicode="&#xf0;" horiz-adv-x="546" 
d="M471 636q47 -81 47 -198q0 -118 -32.5 -220t-98.5 -165t-161 -63q-55 0 -97.5 27.5t-66.5 75t-24 105.5q0 80 31.5 148t89.5 108.5t133 40.5q47 0 85.5 -21t61.5 -62q1 11 1 30q0 94 -35 161l-93 -47l-22 59l77 39q-40 39 -95 54l26 62q84 -25 136 -82l91 46l23 -59z
M323 96.5q39 31.5 62 81.5t23 103q0 64 -34 101.5t-86 37.5q-48 0 -86 -32t-58.5 -81.5t-20.5 -100.5q0 -65 31.5 -103t83.5 -38q46 0 85 31.5z" />
    <glyph glyph-name="ntilde" unicode="&#xf1;" horiz-adv-x="515" 
d="M434 481.5q34 -43.5 34 -111.5q0 -21 -3 -42l-46 -328h-85l43 308q4 34 4 49q0 46 -20 71t-66 25q-56 0 -92 -49t-48 -114l-41 -290h-85l72 515h77l-5 -79q31 44 72.5 66.5t87.5 22.5q67 0 101 -43.5zM338.5 646.5q-14.5 8.5 -29.5 23.5q-22 22 -42 22q-11 0 -23.5 -10
t-23.5 -28l-50 33q41 69 109 69q41 0 71 -34q19 -21 41 -21q10 0 23 10t24 28l52 -27q-23 -36 -52.5 -55t-63.5 -19q-21 0 -35.5 8.5z" />
    <glyph glyph-name="ograve" unicode="&#xf2;" horiz-adv-x="534" 
d="M128 19q-43 29 -65.5 77.5t-22.5 106.5q0 86 32.5 160t93 118t139.5 44q58 0 101 -29t65.5 -77.5t22.5 -106.5q0 -86 -32.5 -160t-93 -118t-139.5 -44q-58 0 -101 29zM327.5 100q38.5 35 60 90.5t21.5 113.5q0 69 -30.5 107.5t-84.5 38.5q-49 0 -87.5 -35t-60 -90.5
t-21.5 -113.5q0 -69 30.5 -107.5t84.5 -38.5q49 0 87.5 35zM248 760l84 -170h-63l-125 170h104z" />
    <glyph glyph-name="oacute" unicode="&#xf3;" horiz-adv-x="534" 
d="M128 19q-43 29 -65.5 77.5t-22.5 106.5q0 86 32.5 160t93 118t139.5 44q58 0 101 -29t65.5 -77.5t22.5 -106.5q0 -86 -32.5 -160t-93 -118t-139.5 -44q-58 0 -101 29zM327.5 100q38.5 35 60 90.5t21.5 113.5q0 69 -30.5 107.5t-84.5 38.5q-49 0 -87.5 -35t-60 -90.5
t-21.5 -113.5q0 -69 30.5 -107.5t84.5 -38.5q49 0 87.5 35zM347 590h-63l84 170h104z" />
    <glyph glyph-name="ocircumflex" unicode="&#xf4;" horiz-adv-x="534" 
d="M128 19q-43 29 -65.5 77.5t-22.5 106.5q0 86 32.5 160t93 118t139.5 44q58 0 101 -29t65.5 -77.5t22.5 -106.5q0 -86 -32.5 -160t-93 -118t-139.5 -44q-58 0 -101 29zM327.5 100q38.5 35 60 90.5t21.5 113.5q0 69 -30.5 107.5t-84.5 38.5q-49 0 -87.5 -35t-60 -90.5
t-21.5 -113.5q0 -69 30.5 -107.5t84.5 -38.5q49 0 87.5 35zM391 592l-53 107l-82 -107h-94l147 168h68l99 -168h-85z" />
    <glyph glyph-name="otilde" unicode="&#xf5;" horiz-adv-x="534" 
d="M128 19q-43 29 -65.5 77.5t-22.5 106.5q0 86 32.5 160t93 118t139.5 44q58 0 101 -29t65.5 -77.5t22.5 -106.5q0 -86 -32.5 -160t-93 -118t-139.5 -44q-58 0 -101 29zM327.5 100q38.5 35 60 90.5t21.5 113.5q0 69 -30.5 107.5t-84.5 38.5q-49 0 -87.5 -35t-60 -90.5
t-21.5 -113.5q0 -69 30.5 -107.5t84.5 -38.5q49 0 87.5 35zM342.5 646.5q-14.5 8.5 -29.5 23.5q-22 22 -42 22q-11 0 -23.5 -10t-23.5 -28l-50 33q41 69 109 69q41 0 71 -34q19 -21 41 -21q10 0 23 10t24 28l52 -27q-23 -36 -52.5 -55t-63.5 -19q-21 0 -35.5 8.5z" />
    <glyph glyph-name="odieresis" unicode="&#xf6;" horiz-adv-x="534" 
d="M128 19q-43 29 -65.5 77.5t-22.5 106.5q0 86 32.5 160t93 118t139.5 44q58 0 101 -29t65.5 -77.5t22.5 -106.5q0 -86 -32.5 -160t-93 -118t-139.5 -44q-58 0 -101 29zM327.5 100q38.5 35 60 90.5t21.5 113.5q0 69 -30.5 107.5t-84.5 38.5q-49 0 -87.5 -35t-60 -90.5
t-21.5 -113.5q0 -69 30.5 -107.5t84.5 -38.5q49 0 87.5 35zM203.5 639q-16.5 17 -16.5 41q0 25 16.5 42t41.5 17q24 0 41 -17t17 -42q0 -24 -17 -41t-41 -17q-25 0 -41.5 17zM370.5 639q-16.5 17 -16.5 41q0 25 16.5 42t41.5 17q24 0 40.5 -17t16.5 -42q0 -24 -16.5 -41
t-40.5 -17q-25 0 -41.5 17z" />
    <glyph glyph-name="divide" unicode="&#xf7;" horiz-adv-x="505" 
d="M226 383.5q-18 18.5 -18 44.5t18 44.5t44 18.5t44.5 -18.5t18.5 -44.5t-18.5 -44.5t-44.5 -18.5t-44 18.5zM86 300h345l-10 -72h-345zM192 48.5q-18 18.5 -18 44.5t18 44t44 18t44.5 -18t18.5 -44t-18.5 -44.5t-44.5 -18.5t-44 18.5z" />
    <glyph glyph-name="oslash" unicode="&#xf8;" horiz-adv-x="534" 
d="M447 458q23 -28 35 -66t12 -80q0 -86 -32.5 -160t-93 -118t-139.5 -44q-55 0 -98 27l-27 -37h-73l56 77q-23 29 -35 66.5t-12 79.5q0 86 32.5 160t93 118t139.5 44q54 0 98 -27l26 37h73zM139 131l216 302q-26 17 -61 17q-49 0 -87.5 -35t-60 -90.5t-21.5 -113.5
q0 -46 14 -80zM394 385l-216 -302q26 -18 62 -18q49 0 87.5 35t60 90.5t21.5 113.5q0 48 -15 81z" />
    <glyph glyph-name="ugrave" unicode="&#xf9;" 
d="M478 515l-72 -515h-77l6 78q-29 -43 -69 -65.5t-84 -22.5q-67 0 -101 43.5t-34 111.5q0 21 3 42l46 328h85l-43 -308q-4 -34 -4 -49q0 -46 20 -71t66 -25q52 0 86 48t46 111l41 294h85zM227 760l84 -170h-63l-125 170h104z" />
    <glyph glyph-name="uacute" unicode="&#xfa;" 
d="M478 515l-72 -515h-77l6 78q-29 -43 -69 -65.5t-84 -22.5q-67 0 -101 43.5t-34 111.5q0 21 3 42l46 328h85l-43 -308q-4 -34 -4 -49q0 -46 20 -71t66 -25q52 0 86 48t46 111l41 294h85zM326 590h-63l84 170h104z" />
    <glyph glyph-name="ucircumflex" unicode="&#xfb;" 
d="M478 515l-72 -515h-77l6 78q-29 -43 -69 -65.5t-84 -22.5q-67 0 -101 43.5t-34 111.5q0 21 3 42l46 328h85l-43 -308q-4 -34 -4 -49q0 -46 20 -71t66 -25q52 0 86 48t46 111l41 294h85zM370 592l-53 107l-82 -107h-94l147 168h68l99 -168h-85z" />
    <glyph glyph-name="udieresis" unicode="&#xfc;" 
d="M478 515l-72 -515h-77l6 78q-29 -43 -69 -65.5t-84 -22.5q-67 0 -101 43.5t-34 111.5q0 21 3 42l46 328h85l-43 -308q-4 -34 -4 -49q0 -46 20 -71t66 -25q52 0 86 48t46 111l41 294h85zM182.5 639q-16.5 17 -16.5 41q0 25 16.5 42t41.5 17q24 0 41 -17t17 -42
q0 -24 -17 -41t-41 -17q-25 0 -41.5 17zM349.5 639q-16.5 17 -16.5 41q0 25 16.5 42t41.5 17q24 0 40.5 -17t16.5 -42q0 -24 -16.5 -41t-40.5 -17q-25 0 -41.5 17z" />
    <glyph glyph-name="yacute" unicode="&#xfd;" 
d="M478 515l-66 -468q-17 -119 -77 -185.5t-155 -66.5q-65 0 -105.5 32.5t-53.5 85.5l84 16q5 -31 26 -47.5t57 -16.5q59 0 93 45.5t46 135.5l4 30q-29 -40 -67 -60.5t-81 -20.5q-67 0 -101 43.5t-34 111.5q0 21 3 42l45 323h85l-42 -303q-4 -34 -4 -49q0 -46 20 -71t66 -25
q50 0 83.5 45.5t46.5 106.5l42 296h85zM335 590h-63l84 170h104z" />
    <glyph glyph-name="thorn" unicode="&#xfe;" horiz-adv-x="553" 
d="M429 496q41 -29 63 -78.5t22 -109.5q0 -79 -33.5 -152.5t-90.5 -119.5t-125 -46q-48 0 -85 25.5t-55 69.5l-39 -280h-85l135 955h85l-46 -325q31 44 73 67t87 23q53 0 94 -29zM346.5 99q39.5 34 61 88.5t21.5 112.5q0 69 -31 109.5t-87 40.5q-48 0 -86.5 -34t-60.5 -88
t-22 -111q0 -67 31.5 -109.5t84.5 -42.5q49 0 88.5 34z" />
    <glyph glyph-name="ydieresis" unicode="&#xff;" 
d="M478 515l-66 -468q-17 -119 -77 -185.5t-155 -66.5q-65 0 -105.5 32.5t-53.5 85.5l84 16q5 -31 26 -47.5t57 -16.5q59 0 93 45.5t46 135.5l4 30q-29 -40 -67 -60.5t-81 -20.5q-67 0 -101 43.5t-34 111.5q0 21 3 42l45 323h85l-42 -303q-4 -34 -4 -49q0 -46 20 -71t66 -25
q50 0 83.5 45.5t46.5 106.5l42 296h85zM191.5 639q-16.5 17 -16.5 41q0 25 16.5 42t41.5 17q24 0 41 -17t17 -42q0 -24 -17 -41t-41 -17q-25 0 -41.5 17zM358.5 639q-16.5 17 -16.5 41q0 25 16.5 42t41.5 17q24 0 40.5 -17t16.5 -42q0 -24 -16.5 -41t-40.5 -17
q-25 0 -41.5 17z" />
    <glyph glyph-name="Amacron" unicode="&#x100;" horiz-adv-x="530" 
d="M386 136h-270l-53 -136h-94l318 760h98l104 -760h-88zM377 212l-51 457l-180 -457h231zM248 967h237l-9 -67h-237z" />
    <glyph glyph-name="amacron" unicode="&#x101;" horiz-adv-x="553" 
d="M524 515l-72 -515h-77l7 85q-31 -47 -74 -71t-90 -24q-53 0 -94 29t-63 78.5t-22 109.5q0 79 33.5 152.5t90.5 119.5t125 46q48 0 85 -25.5t55 -69.5l12 85h84zM328.5 99q38.5 34 60.5 88t22 111q0 67 -31.5 109.5t-84.5 42.5q-49 0 -88.5 -34t-61 -88.5t-21.5 -112.5
q0 -69 31 -109.5t87 -40.5q48 0 86.5 34zM210 722h237l-9 -67h-237z" />
    <glyph glyph-name="Abreve" unicode="&#x102;" horiz-adv-x="530" 
d="M386 136h-270l-53 -136h-94l318 760h98l104 -760h-88zM377 212l-51 457l-180 -457h231zM260 880q-34 47 -34 125h60q0 -56 20.5 -81.5t60.5 -25.5q33 0 57 26t34 81h60q-11 -90 -54.5 -131t-106.5 -41t-97 47z" />
    <glyph glyph-name="abreve" unicode="&#x103;" horiz-adv-x="553" 
d="M524 515l-72 -515h-77l7 85q-31 -47 -74 -71t-90 -24q-53 0 -94 29t-63 78.5t-22 109.5q0 79 33.5 152.5t90.5 119.5t125 46q48 0 85 -25.5t55 -69.5l12 85h84zM328.5 99q38.5 34 60.5 88t22 111q0 67 -31.5 109.5t-84.5 42.5q-49 0 -88.5 -34t-61 -88.5t-21.5 -112.5
q0 -69 31 -109.5t87 -40.5q48 0 86.5 34zM222 635q-34 47 -34 125h60q0 -56 20.5 -81.5t60.5 -25.5q33 0 57 26t34 81h60q-11 -90 -54.5 -131t-106.5 -41t-97 47z" />
    <glyph glyph-name="Aogonek" unicode="&#x104;" horiz-adv-x="530" 
d="M386 136h-270l-53 -136h-94l318 760h98l104 -760h-88zM377 212l-51 457l-180 -457h231zM377.5 -31q-20.5 -23 -20.5 -54q0 -23 15 -35.5t43 -12.5q14 0 38 6l-7 -67q-24 -11 -62 -11q-42 0 -69 27.5t-27 64.5q0 62 41 102t99 47l3 -31q-33 -13 -53.5 -36z" />
    <glyph glyph-name="aogonek" unicode="&#x105;" horiz-adv-x="553" 
d="M524 515l-72 -515h-77l7 85q-31 -47 -74 -71t-90 -24q-53 0 -94 29t-63 78.5t-22 109.5q0 79 33.5 152.5t90.5 119.5t125 46q48 0 85 -25.5t55 -69.5l12 85h84zM328.5 99q38.5 34 60.5 88t22 111q0 67 -31.5 109.5t-84.5 42.5q-49 0 -88.5 -34t-61 -88.5t-21.5 -112.5
q0 -69 31 -109.5t87 -40.5q48 0 86.5 34zM385.5 -31q-20.5 -23 -20.5 -54q0 -23 15 -35.5t43 -12.5q14 0 38 6l-7 -67q-24 -11 -62 -11q-42 0 -69 27.5t-27 64.5q0 62 41 102t99 47l3 -31q-33 -13 -53.5 -36z" />
    <glyph glyph-name="Cacute" unicode="&#x106;" horiz-adv-x="716" 
d="M618.5 699q68.5 -71 87.5 -190l-88 -10q-12 91 -60 142.5t-130 51.5t-146.5 -55t-100 -143.5t-35.5 -183.5q0 -110 51.5 -177t142.5 -67q77 0 144.5 54.5t100.5 141.5l85 -11q-47 -124 -135.5 -193t-204.5 -69q-85 0 -146.5 41.5t-93.5 113.5t-32 162q0 121 48 227.5
t135 171t197 64.5q112 0 180.5 -71zM477 835h-63l84 170h104z" />
    <glyph glyph-name="cacute" unicode="&#x107;" horiz-adv-x="517" 
d="M128 19q-43 29 -65.5 77.5t-22.5 106.5q0 86 32.5 160t93 118t139.5 44q78 0 125 -46t58 -127l-85 -9q-7 52 -34.5 79.5t-74.5 27.5q-49 0 -87.5 -35t-60 -90.5t-21.5 -113.5q0 -69 30.5 -107.5t84.5 -38.5q45 0 83.5 31.5t59.5 83.5l82 -9q-33 -88 -93 -134.5
t-143 -46.5q-58 0 -101 29zM335 590h-63l84 170h104z" />
    <glyph glyph-name="Ccircumflex" unicode="&#x108;" horiz-adv-x="716" 
d="M618.5 699q68.5 -71 87.5 -190l-88 -10q-12 91 -60 142.5t-130 51.5t-146.5 -55t-100 -143.5t-35.5 -183.5q0 -110 51.5 -177t142.5 -67q77 0 144.5 54.5t100.5 141.5l85 -11q-47 -124 -135.5 -193t-204.5 -69q-85 0 -146.5 41.5t-93.5 113.5t-32 162q0 121 48 227.5
t135 171t197 64.5q112 0 180.5 -71zM521 837l-53 107l-82 -107h-94l147 168h68l99 -168h-85z" />
    <glyph glyph-name="ccircumflex" unicode="&#x109;" horiz-adv-x="517" 
d="M128 19q-43 29 -65.5 77.5t-22.5 106.5q0 86 32.5 160t93 118t139.5 44q78 0 125 -46t58 -127l-85 -9q-7 52 -34.5 79.5t-74.5 27.5q-49 0 -87.5 -35t-60 -90.5t-21.5 -113.5q0 -69 30.5 -107.5t84.5 -38.5q45 0 83.5 31.5t59.5 83.5l82 -9q-33 -88 -93 -134.5
t-143 -46.5q-58 0 -101 29zM379 592l-53 107l-82 -107h-94l147 168h68l99 -168h-85z" />
    <glyph glyph-name="Cdotaccent" unicode="&#x10a;" horiz-adv-x="716" 
d="M618.5 699q68.5 -71 87.5 -190l-88 -10q-12 91 -60 142.5t-130 51.5t-146.5 -55t-100 -143.5t-35.5 -183.5q0 -110 51.5 -177t142.5 -67q77 0 144.5 54.5t100.5 141.5l85 -11q-47 -124 -135.5 -193t-204.5 -69q-85 0 -146.5 41.5t-93.5 113.5t-32 162q0 121 48 227.5
t135 171t197 64.5q112 0 180.5 -71zM404 877q-19 19 -19 46q0 28 19 47t46 19t46 -19t19 -47q0 -27 -19 -46t-46 -19t-46 19z" />
    <glyph glyph-name="cdotaccent" unicode="&#x10b;" horiz-adv-x="517" 
d="M128 19q-43 29 -65.5 77.5t-22.5 106.5q0 86 32.5 160t93 118t139.5 44q78 0 125 -46t58 -127l-85 -9q-7 52 -34.5 79.5t-74.5 27.5q-49 0 -87.5 -35t-60 -90.5t-21.5 -113.5q0 -69 30.5 -107.5t84.5 -38.5q45 0 83.5 31.5t59.5 83.5l82 -9q-33 -88 -93 -134.5
t-143 -46.5q-58 0 -101 29zM262 632q-19 19 -19 46q0 28 19 47t46 19t46 -19t19 -47q0 -27 -19 -46t-46 -19t-46 19z" />
    <glyph glyph-name="Ccaron" unicode="&#x10c;" horiz-adv-x="716" 
d="M618.5 699q68.5 -71 87.5 -190l-88 -10q-12 91 -60 142.5t-130 51.5t-146.5 -55t-100 -143.5t-35.5 -183.5q0 -110 51.5 -177t142.5 -67q77 0 144.5 54.5t100.5 141.5l85 -11q-47 -124 -135.5 -193t-204.5 -69q-85 0 -146.5 41.5t-93.5 113.5t-32 162q0 121 48 227.5
t135 171t197 64.5q112 0 180.5 -71zM618 1005l-147 -168h-68l-99 168h85l53 -107l82 107h94z" />
    <glyph glyph-name="ccaron" unicode="&#x10d;" horiz-adv-x="517" 
d="M128 19q-43 29 -65.5 77.5t-22.5 106.5q0 86 32.5 160t93 118t139.5 44q78 0 125 -46t58 -127l-85 -9q-7 52 -34.5 79.5t-74.5 27.5q-49 0 -87.5 -35t-60 -90.5t-21.5 -113.5q0 -69 30.5 -107.5t84.5 -38.5q45 0 83.5 31.5t59.5 83.5l82 -9q-33 -88 -93 -134.5
t-143 -46.5q-58 0 -101 29zM476 760l-147 -168h-68l-99 168h85l53 -107l82 107h94z" />
    <glyph glyph-name="Dcaron" unicode="&#x10e;" horiz-adv-x="665" 
d="M515.5 720q61.5 -40 94 -109.5t32.5 -156.5q0 -121 -48 -225t-134.5 -166.5t-197.5 -62.5h-228l107 760h229q84 0 145.5 -40zM415.5 129q65.5 53 102 139.5t36.5 181.5q0 106 -53 170t-146 64h-139l-85 -608h137q82 0 147.5 53zM553 1005l-147 -168h-68l-99 168h85
l53 -107l82 107h94z" />
    <glyph glyph-name="dcaron" unicode="&#x10f;" horiz-adv-x="691" 
d="M475 760h85l-107 -760h-78l7 85q-31 -47 -74 -71t-90 -24q-53 0 -94 29t-63 78.5t-22 109.5q0 79 33.5 152.5t90.5 119.5t125 46q48 0 85 -25.5t55 -69.5zM742 760l-74 -170h-61l32 170h103zM328.5 99q38.5 34 60.5 88t22 111q0 67 -31.5 109.5t-84.5 42.5
q-49 0 -88.5 -34t-61 -88.5t-21.5 -112.5q0 -69 31 -109.5t87 -40.5q48 0 86.5 34z" />
    <glyph glyph-name="Dcroat" unicode="&#x110;" horiz-adv-x="696" 
d="M546.5 720q61.5 -40 94 -109.5t32.5 -156.5q0 -121 -48 -225t-134.5 -166.5t-197.5 -62.5h-228l51 359h-92l11 74h91l46 327h229q84 0 145.5 -40zM446.5 129q65.5 53 102 139.5t36.5 181.5q0 106 -53 170t-146 64h-139l-35 -251h188l-11 -74h-187l-40 -283h137
q82 0 147.5 53z" />
    <glyph glyph-name="dcroat" unicode="&#x111;" horiz-adv-x="568" 
d="M618 613h-79l-86 -613h-78l7 85q-31 -47 -74 -71t-90 -24q-53 0 -94 29t-63 78.5t-22 109.5q0 79 33.5 152.5t90.5 119.5t125 46q48 0 85 -25.5t55 -69.5l26 183h-207l10 70h207l11 77h85l-11 -77h79zM328.5 99q38.5 34 60.5 88t22 111q0 67 -31.5 109.5t-84.5 42.5
q-49 0 -88.5 -34t-61 -88.5t-21.5 -112.5q0 -69 31 -109.5t87 -40.5q48 0 86.5 34z" />
    <glyph glyph-name="Emacron" unicode="&#x112;" horiz-adv-x="488" 
d="M216 684l-35 -250h269l-11 -76h-269l-39 -282h276l-10 -76h-363l107 760h359l-11 -76h-273zM231 967h237l-9 -67h-237z" />
    <glyph glyph-name="emacron" unicode="&#x113;" horiz-adv-x="522" 
d="M127 214v-3q0 -69 30.5 -107.5t84.5 -38.5q43 0 78 26t56 70l83 -10q-33 -76 -91.5 -118.5t-138.5 -42.5q-58 0 -101 29t-65.5 77.5t-22.5 106.5q0 86 32 160t91.5 118t137.5 44q88 0 135 -60.5t47 -153.5q0 -16 -3 -42.5t-6 -45.5h-347v-9zM194 405.5
q-40 -44.5 -57 -112.5h261q1 8 1 23q0 66 -27.5 100t-81.5 34q-56 0 -96 -44.5zM207 722h237l-9 -67h-237z" />
    <glyph glyph-name="Ebreve" unicode="&#x114;" horiz-adv-x="488" 
d="M216 684l-35 -250h269l-11 -76h-269l-39 -282h276l-10 -76h-363l107 760h359l-11 -76h-273zM243 880q-34 47 -34 125h60q0 -56 20.5 -81.5t60.5 -25.5q33 0 57 26t34 81h60q-11 -90 -54.5 -131t-106.5 -41t-97 47z" />
    <glyph glyph-name="ebreve" unicode="&#x115;" horiz-adv-x="522" 
d="M127 214v-3q0 -69 30.5 -107.5t84.5 -38.5q43 0 78 26t56 70l83 -10q-33 -76 -91.5 -118.5t-138.5 -42.5q-58 0 -101 29t-65.5 77.5t-22.5 106.5q0 86 32 160t91.5 118t137.5 44q88 0 135 -60.5t47 -153.5q0 -16 -3 -42.5t-6 -45.5h-347v-9zM194 405.5
q-40 -44.5 -57 -112.5h261q1 8 1 23q0 66 -27.5 100t-81.5 34q-56 0 -96 -44.5zM219 635q-34 47 -34 125h60q0 -56 20.5 -81.5t60.5 -25.5q33 0 57 26t34 81h60q-11 -90 -54.5 -131t-106.5 -41t-97 47z" />
    <glyph glyph-name="Edotaccent" unicode="&#x116;" horiz-adv-x="488" 
d="M216 684l-35 -250h269l-11 -76h-269l-39 -282h276l-10 -76h-363l107 760h359l-11 -76h-273zM286 877q-19 19 -19 46q0 28 19 47t46 19t46 -19t19 -47q0 -27 -19 -46t-46 -19t-46 19z" />
    <glyph glyph-name="edotaccent" unicode="&#x117;" horiz-adv-x="522" 
d="M127 214v-3q0 -69 30.5 -107.5t84.5 -38.5q43 0 78 26t56 70l83 -10q-33 -76 -91.5 -118.5t-138.5 -42.5q-58 0 -101 29t-65.5 77.5t-22.5 106.5q0 86 32 160t91.5 118t137.5 44q88 0 135 -60.5t47 -153.5q0 -16 -3 -42.5t-6 -45.5h-347v-9zM194 405.5
q-40 -44.5 -57 -112.5h261q1 8 1 23q0 66 -27.5 100t-81.5 34q-56 0 -96 -44.5zM262 632q-19 19 -19 46q0 28 19 47t46 19t46 -19t19 -47q0 -27 -19 -46t-46 -19t-46 19z" />
    <glyph glyph-name="Eogonek" unicode="&#x118;" horiz-adv-x="488" 
d="M216 684l-35 -250h269l-11 -76h-269l-39 -282h276l-10 -76h-363l107 760h359l-11 -76h-273zM302.5 -31q-20.5 -23 -20.5 -54q0 -23 15 -35.5t43 -12.5q14 0 38 6l-7 -67q-24 -11 -62 -11q-42 0 -69 27.5t-27 64.5q0 62 41 102t99 47l3 -31q-33 -13 -53.5 -36z" />
    <glyph glyph-name="eogonek" unicode="&#x119;" horiz-adv-x="522" 
d="M127 214v-3q0 -69 30.5 -107.5t84.5 -38.5q43 0 78 26t56 70l83 -10q-33 -76 -91.5 -118.5t-138.5 -42.5q-58 0 -101 29t-65.5 77.5t-22.5 106.5q0 86 32 160t91.5 118t137.5 44q88 0 135 -60.5t47 -153.5q0 -16 -3 -42.5t-6 -45.5h-347v-9zM194 405.5
q-40 -44.5 -57 -112.5h261q1 8 1 23q0 66 -27.5 100t-81.5 34q-56 0 -96 -44.5zM259.5 -31q-20.5 -23 -20.5 -54q0 -23 15 -35.5t43 -12.5q14 0 38 6l-7 -67q-24 -11 -62 -11q-42 0 -69 27.5t-27 64.5q0 62 41 102t99 47l3 -31q-33 -13 -53.5 -36z" />
    <glyph glyph-name="Ecaron" unicode="&#x11a;" horiz-adv-x="488" 
d="M216 684l-35 -250h269l-11 -76h-269l-39 -282h276l-10 -76h-363l107 760h359l-11 -76h-273zM500 1005l-147 -168h-68l-99 168h85l53 -107l82 107h94z" />
    <glyph glyph-name="ecaron" unicode="&#x11b;" horiz-adv-x="522" 
d="M127 214v-3q0 -69 30.5 -107.5t84.5 -38.5q43 0 78 26t56 70l83 -10q-33 -76 -91.5 -118.5t-138.5 -42.5q-58 0 -101 29t-65.5 77.5t-22.5 106.5q0 86 32 160t91.5 118t137.5 44q88 0 135 -60.5t47 -153.5q0 -16 -3 -42.5t-6 -45.5h-347v-9zM194 405.5
q-40 -44.5 -57 -112.5h261q1 8 1 23q0 66 -27.5 100t-81.5 34q-56 0 -96 -44.5zM476 760l-147 -168h-68l-99 168h85l53 -107l82 107h94z" />
    <glyph glyph-name="Gcircumflex" unicode="&#x11c;" horiz-adv-x="707" 
d="M348 405h312l-45 -316q-126 -99 -274 -99q-91 0 -155 43t-96 115t-32 159q0 121 47.5 227.5t132.5 171t192 64.5q97 0 162 -59t95 -155l-91 -10q-14 61 -59 104t-118 43q-77 0 -139.5 -56.5t-98 -146t-35.5 -183.5q0 -110 52.5 -175t153.5 -65q56 0 99 16t83 43l29 203
h-226zM513 837l-53 107l-82 -107h-94l147 168h68l99 -168h-85z" />
    <glyph glyph-name="gcircumflex" unicode="&#x11d;" horiz-adv-x="554" 
d="M525 515l-64 -459q-17 -120 -82.5 -190.5t-170.5 -70.5q-69 0 -114.5 33t-59.5 85l84 16q21 -64 98 -64q63 0 106.5 51t53.5 140l3 26q-31 -45 -73 -68.5t-88 -23.5q-53 0 -94 29t-63 78.5t-22 109.5q0 79 33.5 152.5t90.5 119.5t125 46q49 0 86.5 -26.5t55.5 -72.5
l17 89h78zM328.5 99q38.5 34 60.5 88t22 111q0 67 -31.5 109.5t-84.5 42.5q-49 0 -88.5 -34t-61 -88.5t-21.5 -112.5q0 -69 31 -109.5t87 -40.5q48 0 86.5 34zM382 592l-53 107l-82 -107h-94l147 168h68l99 -168h-85z" />
    <glyph glyph-name="Gbreve" unicode="&#x11e;" horiz-adv-x="707" 
d="M348 405h312l-45 -316q-126 -99 -274 -99q-91 0 -155 43t-96 115t-32 159q0 121 47.5 227.5t132.5 171t192 64.5q97 0 162 -59t95 -155l-91 -10q-14 61 -59 104t-118 43q-77 0 -139.5 -56.5t-98 -146t-35.5 -183.5q0 -110 52.5 -175t153.5 -65q56 0 99 16t83 43l29 203
h-226zM353 880q-34 47 -34 125h60q0 -56 20.5 -81.5t60.5 -25.5q33 0 57 26t34 81h60q-11 -90 -54.5 -131t-106.5 -41t-97 47z" />
    <glyph glyph-name="gbreve" unicode="&#x11f;" horiz-adv-x="554" 
d="M525 515l-64 -459q-17 -120 -82.5 -190.5t-170.5 -70.5q-69 0 -114.5 33t-59.5 85l84 16q21 -64 98 -64q63 0 106.5 51t53.5 140l3 26q-31 -45 -73 -68.5t-88 -23.5q-53 0 -94 29t-63 78.5t-22 109.5q0 79 33.5 152.5t90.5 119.5t125 46q49 0 86.5 -26.5t55.5 -72.5
l17 89h78zM328.5 99q38.5 34 60.5 88t22 111q0 67 -31.5 109.5t-84.5 42.5q-49 0 -88.5 -34t-61 -88.5t-21.5 -112.5q0 -69 31 -109.5t87 -40.5q48 0 86.5 34zM222 635q-34 47 -34 125h60q0 -56 20.5 -81.5t60.5 -25.5q33 0 57 26t34 81h60q-11 -90 -54.5 -131t-106.5 -41
t-97 47z" />
    <glyph glyph-name="Gdotaccent" unicode="&#x120;" horiz-adv-x="707" 
d="M348 405h312l-45 -316q-126 -99 -274 -99q-91 0 -155 43t-96 115t-32 159q0 121 47.5 227.5t132.5 171t192 64.5q97 0 162 -59t95 -155l-91 -10q-14 61 -59 104t-118 43q-77 0 -139.5 -56.5t-98 -146t-35.5 -183.5q0 -110 52.5 -175t153.5 -65q56 0 99 16t83 43l29 203
h-226zM396 877q-19 19 -19 46q0 28 19 47t46 19t46 -19t19 -47q0 -27 -19 -46t-46 -19t-46 19z" />
    <glyph glyph-name="gdotaccent" unicode="&#x121;" horiz-adv-x="554" 
d="M525 515l-64 -459q-17 -120 -82.5 -190.5t-170.5 -70.5q-69 0 -114.5 33t-59.5 85l84 16q21 -64 98 -64q63 0 106.5 51t53.5 140l3 26q-31 -45 -73 -68.5t-88 -23.5q-53 0 -94 29t-63 78.5t-22 109.5q0 79 33.5 152.5t90.5 119.5t125 46q49 0 86.5 -26.5t55.5 -72.5
l17 89h78zM328.5 99q38.5 34 60.5 88t22 111q0 67 -31.5 109.5t-84.5 42.5q-49 0 -88.5 -34t-61 -88.5t-21.5 -112.5q0 -69 31 -109.5t87 -40.5q48 0 86.5 34zM265 632q-19 19 -19 46q0 28 19 47t46 19t46 -19t19 -47q0 -27 -19 -46t-46 -19t-46 19z" />
    <glyph glyph-name="Gcommaaccent" unicode="&#x122;" horiz-adv-x="707" 
d="M348 405h312l-45 -316q-126 -99 -274 -99q-91 0 -155 43t-96 115t-32 159q0 121 47.5 227.5t132.5 171t192 64.5q97 0 162 -59t95 -155l-91 -10q-14 61 -59 104t-118 43q-77 0 -139.5 -56.5t-98 -146t-35.5 -183.5q0 -110 52.5 -175t153.5 -65q56 0 99 16t83 43l29 203
h-226zM284 -220h-63l67 150h103z" />
    <glyph glyph-name="gcommaaccent" unicode="&#x123;" horiz-adv-x="554" 
d="M525 515l-64 -459q-17 -120 -82.5 -190.5t-170.5 -70.5q-69 0 -114.5 33t-59.5 85l84 16q21 -64 98 -64q63 0 106.5 51t53.5 140l3 26q-31 -45 -73 -68.5t-88 -23.5q-53 0 -94 29t-63 78.5t-22 109.5q0 79 33.5 152.5t90.5 119.5t125 46q49 0 86.5 -26.5t55.5 -72.5
l17 89h78zM328.5 99q38.5 34 60.5 88t22 111q0 67 -31.5 109.5t-84.5 42.5q-49 0 -88.5 -34t-61 -88.5t-21.5 -112.5q0 -69 31 -109.5t87 -40.5q48 0 86.5 34zM359 755h63l-67 -150h-103z" />
    <glyph glyph-name="Hcircumflex" unicode="&#x124;" horiz-adv-x="594" 
d="M595 760l-107 -760h-86l50 358h-282l-50 -358h-86l107 760h86l-46 -326h282l46 326h86zM451 837l-53 107l-82 -107h-94l147 168h68l99 -168h-85z" />
    <glyph glyph-name="hcircumflex" unicode="&#x125;" horiz-adv-x="515" 
d="M434 481.5q34 -43.5 34 -111.5q0 -21 -3 -42l-46 -328h-85l43 308q4 34 4 49q0 46 -20 71t-66 25q-55 0 -91 -48t-49 -112l-41 -293h-85l107 760h85l-45 -321q30 42 70.5 64t86.5 22q67 0 101 -43.5zM424 837l-53 107l-82 -107h-94l147 168h68l99 -168h-85z" />
    <glyph glyph-name="Hbar" unicode="&#x126;" horiz-adv-x="582" 
d="M613 551h-52l-78 -551h-86l50 358h-282l-50 -358h-86l78 551h-56l11 74h55l19 135h86l-19 -135h282l19 135h86l-19 -135h53zM475 551h-282l-17 -117h282z" />
    <glyph glyph-name="hbar" unicode="&#x127;" horiz-adv-x="548" 
d="M467 481.5q34 -43.5 34 -111.5q0 -21 -3 -42l-46 -328h-85l43 308q4 34 4 49q0 46 -20 71t-66 25q-55 0 -91 -48t-49 -112l-41 -293h-85l86 613h-98l10 70h98l11 77h85l-11 -77h188l-10 -70h-188l-24 -174q30 42 70.5 64t86.5 22q67 0 101 -43.5z" />
    <glyph glyph-name="Itilde" unicode="&#x128;" horiz-adv-x="226" 
d="M141 760h86l-107 -760h-86zM218.5 891.5q-14.5 8.5 -29.5 23.5q-22 22 -42 22q-11 0 -23.5 -10t-23.5 -28l-50 33q41 69 109 69q41 0 71 -34q19 -21 41 -21q10 0 23 10t24 28l52 -27q-23 -36 -52.5 -55t-63.5 -19q-21 0 -35.5 8.5z" />
    <glyph glyph-name="itilde" unicode="&#x129;" horiz-adv-x="215" 
d="M101 515h85l-72 -515h-85zM178.5 646.5q-14.5 8.5 -29.5 23.5q-22 22 -42 22q-11 0 -23.5 -10t-23.5 -28l-50 33q41 69 109 69q41 0 71 -34q19 -21 41 -21q10 0 23 10t24 28l52 -27q-23 -36 -52.5 -55t-63.5 -19q-21 0 -35.5 8.5z" />
    <glyph glyph-name="Imacron" unicode="&#x12a;" horiz-adv-x="226" 
d="M141 760h86l-107 -760h-86zM95 967h237l-9 -67h-237z" />
    <glyph glyph-name="imacron" unicode="&#x12b;" horiz-adv-x="215" 
d="M101 515h85l-72 -515h-85zM55 722h237l-9 -67h-237z" />
    <glyph glyph-name="Ibreve" unicode="&#x12c;" horiz-adv-x="226" 
d="M141 760h86l-107 -760h-86zM107 880q-34 47 -34 125h60q0 -56 20.5 -81.5t60.5 -25.5q33 0 57 26t34 81h60q-11 -90 -54.5 -131t-106.5 -41t-97 47z" />
    <glyph glyph-name="ibreve" unicode="&#x12d;" horiz-adv-x="215" 
d="M101 515h85l-72 -515h-85zM67 635q-34 47 -34 125h60q0 -56 20.5 -81.5t60.5 -25.5q33 0 57 26t34 81h60q-11 -90 -54.5 -131t-106.5 -41t-97 47z" />
    <glyph glyph-name="Iogonek" unicode="&#x12e;" horiz-adv-x="226" 
d="M141 760h86l-107 -760h-86zM34.5 -31q-20.5 -23 -20.5 -54q0 -23 15 -35.5t43 -12.5q14 0 38 6l-7 -67q-24 -11 -62 -11q-42 0 -69 27.5t-27 64.5q0 62 41 102t99 47l3 -31q-33 -13 -53.5 -36z" />
    <glyph glyph-name="iogonek" unicode="&#x12f;" horiz-adv-x="215" 
d="M101 515h85l-72 -515h-85zM110 632q-19 19 -19 46q0 28 19 47t46 19t46 -19t19 -47q0 -27 -19 -46t-46 -19t-46 19zM22.5 -31q-20.5 -23 -20.5 -54q0 -23 15 -35.5t43 -12.5q14 0 38 6l-7 -67q-24 -11 -62 -11q-42 0 -69 27.5t-27 64.5q0 62 41 102t99 47l3 -31
q-33 -13 -53.5 -36z" />
    <glyph glyph-name="Idotaccent" unicode="&#x130;" horiz-adv-x="226" 
d="M141 760h86l-107 -760h-86zM150 877q-19 19 -19 46q0 28 19 47t46 19t46 -19t19 -47q0 -27 -19 -46t-46 -19t-46 19z" />
    <glyph glyph-name="dotlessi" unicode="&#x131;" horiz-adv-x="215" 
d="M101 515h85l-72 -515h-85z" />
    <glyph glyph-name="IJ" unicode="&#x132;" horiz-adv-x="529" 
d="M168 2q-33 12 -55 32l42 64q18 -14 41 -22.5t47 -8.5q47 0 83 40.5t47 118.5l75 535h87l-75 -532q-16 -115 -77 -177t-145 -62q-37 0 -70 12zM141 760h86l-72 -510h-86z" />
    <glyph glyph-name="ij" unicode="&#x133;" horiz-adv-x="446" 
d="M126 632q-19 19 -19 46q0 28 19 47t46 19t46 -19t19 -47q0 -27 -19 -46t-46 -19t-46 19zM107 515h85l-72 -515h-85zM346 632q-19 19 -19 46q0 28 19 47t46 19t46 -19t19 -47q0 -27 -19 -46t-46 -19t-46 19zM136 -200q-23 5 -38 12l15 70q34 -12 64 -12q32 0 48.5 21.5
t24.5 72.5l77 551h85l-78 -559q-12 -87 -51.5 -124t-100.5 -37q-23 0 -46 5z" />
    <glyph glyph-name="Jcircumflex" unicode="&#x134;" horiz-adv-x="506" 
d="M76 46q-48 56 -48 160l87 6q-1 -9 -1 -25q0 -59 26 -89.5t70 -30.5q50 0 90 42t51 123l75 528h86l-74 -525q-17 -119 -82 -182t-156 -63q-76 0 -124 56zM529 837l-31 113l-63 -113h-87l122 168h67l74 -168h-82z" />
    <glyph glyph-name="jcircumflex" unicode="&#x135;" horiz-adv-x="215" 
d="M-90 -200q-23 5 -38 12l15 70q34 -12 64 -12q32 0 48.5 21.5t24.5 72.5l77 551h85l-78 -559q-12 -87 -51.5 -124t-100.5 -37q-23 0 -46 5zM203 592l-31 113l-63 -113h-87l122 168h67l74 -168h-82z" />
    <glyph glyph-name="Kcommaaccent" unicode="&#x136;" horiz-adv-x="538" 
d="M327 431l160 -431h-86l-129 359l-124 -158l-28 -201h-86l107 760h86l-58 -410l315 410h100zM178 -220h-63l67 150h103z" />
    <glyph glyph-name="kcommaaccent" unicode="&#x137;" horiz-adv-x="441" 
d="M272 319l133 -319h-85l-105 258l-76 -83l-25 -175h-85l107 760h85l-64 -457l193 212h105zM134 -220h-63l67 150h103z" />
    <glyph glyph-name="kgreenlandic" unicode="&#x138;" horiz-adv-x="448" 
d="M441 515l-10 -73h-19q-21 0 -38 -10.5t-38 -33.5l-61 -68l137 -330h-85l-109 267l-79 -88l-25 -179h-85l72 515h85l-30 -214l141 159q50 55 122 55h22z" />
    <glyph glyph-name="Lacute" unicode="&#x139;" horiz-adv-x="432" 
d="M386 76l-10 -76h-342l107 760h86l-96 -684h255zM231 835h-63l84 170h104z" />
    <glyph glyph-name="lacute" unicode="&#x13a;" horiz-adv-x="252" 
d="M78 18.5q-32 28.5 -32 83.5q0 26 4 50l86 608h85l-85 -604q-3 -22 -3 -39q0 -30 13 -41t45 -11h8l-5 -75h-22q-62 0 -94 28.5zM216 835h-63l84 170h104z" />
    <glyph glyph-name="Lcommaaccent" unicode="&#x13b;" horiz-adv-x="432" 
d="M386 76l-10 -76h-342l107 760h86l-96 -684h255zM143 -220h-63l67 150h103z" />
    <glyph glyph-name="lcommaaccent" unicode="&#x13c;" horiz-adv-x="252" 
d="M78 18.5q-32 28.5 -32 83.5q0 26 4 50l86 608h85l-85 -604q-3 -22 -3 -39q0 -30 13 -41t45 -11h8l-5 -75h-22q-62 0 -94 28.5zM38 -220h-63l67 150h103z" />
    <glyph glyph-name="Lcaron" unicode="&#x13d;" horiz-adv-x="432" 
d="M131 76h255l-10 -76h-342l107 760h86zM363 570h-54l35 190h95z" />
    <glyph glyph-name="lcaron" unicode="&#x13e;" horiz-adv-x="341" 
d="M78 18.5q-32 28.5 -32 83.5q0 26 4 50l86 608h85l-85 -604q-3 -22 -3 -39q0 -30 13 -41t45 -11h8l-5 -75h-22q-62 0 -94 28.5zM319 590h-54l32 170h95z" />
    <glyph glyph-name="Ldot" unicode="&#x13f;" horiz-adv-x="444" 
d="M386 76l-10 -76h-342l107 760h86l-96 -684h255zM327.5 340q-19.5 20 -19.5 47q0 28 19.5 47.5t47.5 19.5t47.5 -19.5t19.5 -47.5q0 -27 -19.5 -47t-47.5 -20t-47.5 20z" />
    <glyph glyph-name="ldot" unicode="&#x140;" horiz-adv-x="365" 
d="M78 18.5q-32 28.5 -32 83.5q0 26 4 50l86 608h85l-85 -604q-3 -22 -3 -39q0 -30 13 -41t45 -11h8l-5 -75h-22q-62 0 -94 28.5zM268.5 340q-19.5 20 -19.5 47q0 28 19.5 47.5t47.5 19.5t47.5 -19.5t19.5 -47.5q0 -27 -19.5 -47t-47.5 -20t-47.5 20z" />
    <glyph glyph-name="Lslash" unicode="&#x141;" horiz-adv-x="476" 
d="M430 76l-10 -76h-342l44 312l-75 -38l-25 69l112 58l51 359h86l-44 -312l140 72l25 -69l-177 -91l-40 -284h255z" />
    <glyph glyph-name="lslash" unicode="&#x142;" horiz-adv-x="327" 
d="M189 76q13 -11 45 -11h8l-5 -75h-22q-62 0 -94 28.5t-32 83.5q0 26 4 50l23 160l-72 -36l-22 66l105 53l52 365h85l-45 -319l100 50l22 -66l-134 -67l-28 -202q-3 -22 -3 -39q0 -30 13 -41z" />
    <glyph glyph-name="Nacute" unicode="&#x143;" horiz-adv-x="595" 
d="M596 760l-107 -760h-85l-199 609l-86 -609h-85l107 760h85l199 -609l86 609h85zM407 835h-63l84 170h104z" />
    <glyph glyph-name="nacute" unicode="&#x144;" horiz-adv-x="515" 
d="M434 481.5q34 -43.5 34 -111.5q0 -21 -3 -42l-46 -328h-85l43 308q4 34 4 49q0 46 -20 71t-66 25q-56 0 -92 -49t-48 -114l-41 -290h-85l72 515h77l-5 -79q31 44 72.5 66.5t87.5 22.5q67 0 101 -43.5zM343 590h-63l84 170h104z" />
    <glyph glyph-name="Ncommaaccent" unicode="&#x145;" horiz-adv-x="595" 
d="M596 760l-107 -760h-85l-199 609l-86 -609h-85l107 760h85l199 -609l86 609h85zM203 -220h-63l67 150h103z" />
    <glyph glyph-name="ncommaaccent" unicode="&#x146;" horiz-adv-x="515" 
d="M434 481.5q34 -43.5 34 -111.5q0 -21 -3 -42l-46 -328h-85l43 308q4 34 4 49q0 46 -20 71t-66 25q-56 0 -92 -49t-48 -114l-41 -290h-85l72 515h77l-5 -79q31 44 72.5 66.5t87.5 22.5q67 0 101 -43.5zM161 -220h-63l67 150h103z" />
    <glyph glyph-name="Ncaron" unicode="&#x147;" horiz-adv-x="595" 
d="M596 760l-107 -760h-85l-199 609l-86 -609h-85l107 760h85l199 -609l86 609h85zM548 1005l-147 -168h-68l-99 168h85l53 -107l82 107h94z" />
    <glyph glyph-name="ncaron" unicode="&#x148;" horiz-adv-x="515" 
d="M434 481.5q34 -43.5 34 -111.5q0 -21 -3 -42l-46 -328h-85l43 308q4 34 4 49q0 46 -20 71t-66 25q-56 0 -92 -49t-48 -114l-41 -290h-85l72 515h77l-5 -79q31 44 72.5 66.5t87.5 22.5q67 0 101 -43.5zM484 760l-147 -168h-68l-99 168h85l53 -107l82 107h94z" />
    <glyph glyph-name="napostrophe" unicode="&#x149;" horiz-adv-x="552" 
d="M118 590h-61l84 170h102zM471 481.5q34 -43.5 34 -111.5q0 -21 -3 -42l-46 -328h-85l43 308q4 34 4 49q0 46 -20 71t-66 25q-56 0 -92 -49t-48 -114l-41 -290h-85l72 515h77l-5 -79q31 44 72.5 66.5t87.5 22.5q67 0 101 -43.5z" />
    <glyph glyph-name="Eng" unicode="&#x14a;" horiz-adv-x="595" 
d="M596 760l-102 -722q-18 -126 -81 -184.5t-158 -58.5q-19 0 -37 3l17 77q14 -3 30 -3q48 0 84.5 33t53.5 99l-198 605l-86 -609h-85l107 760h85l199 -609l86 609h85z" />
    <glyph glyph-name="eng" unicode="&#x14b;" horiz-adv-x="515" 
d="M465 328l-33 -235l-19 -137q-12 -87 -51.5 -124t-100.5 -37q-23 0 -46 5t-38 12l15 70q34 -12 64 -12q32 0 49 21.5t24 72.5l5 36l17 118l13 97l13 93q4 34 4 49q0 46 -20 71t-66 25q-56 0 -92 -49t-48 -114l-41 -290h-85l72 515h77l-5 -79q31 44 72.5 66.5t87.5 22.5
q67 0 101 -43.5t34 -111.5q0 -21 -3 -42z" />
    <glyph glyph-name="Omacron" unicode="&#x14c;" horiz-adv-x="733" 
d="M183.5 31.5q-61.5 41.5 -93.5 113.5t-32 162q0 121 48 227.5t135 171t197 64.5q84 0 145.5 -41t94 -113t32.5 -162q0 -123 -48 -229.5t-134.5 -170.5t-197.5 -64q-85 0 -146.5 41.5zM484.5 121.5q64.5 54.5 101 143t36.5 185.5q0 110 -51.5 176.5t-142.5 66.5
q-82 0 -146.5 -55t-100 -143.5t-35.5 -183.5q0 -110 51.5 -177t142.5 -67q80 0 144.5 54.5zM349 967h237l-9 -67h-237z" />
    <glyph glyph-name="omacron" unicode="&#x14d;" horiz-adv-x="534" 
d="M128 19q-43 29 -65.5 77.5t-22.5 106.5q0 86 32.5 160t93 118t139.5 44q58 0 101 -29t65.5 -77.5t22.5 -106.5q0 -86 -32.5 -160t-93 -118t-139.5 -44q-58 0 -101 29zM327.5 100q38.5 35 60 90.5t21.5 113.5q0 69 -30.5 107.5t-84.5 38.5q-49 0 -87.5 -35t-60 -90.5
t-21.5 -113.5q0 -69 30.5 -107.5t84.5 -38.5q49 0 87.5 35zM219 722h237l-9 -67h-237z" />
    <glyph glyph-name="Obreve" unicode="&#x14e;" horiz-adv-x="733" 
d="M183.5 31.5q-61.5 41.5 -93.5 113.5t-32 162q0 121 48 227.5t135 171t197 64.5q84 0 145.5 -41t94 -113t32.5 -162q0 -123 -48 -229.5t-134.5 -170.5t-197.5 -64q-85 0 -146.5 41.5zM484.5 121.5q64.5 54.5 101 143t36.5 185.5q0 110 -51.5 176.5t-142.5 66.5
q-82 0 -146.5 -55t-100 -143.5t-35.5 -183.5q0 -110 51.5 -177t142.5 -67q80 0 144.5 54.5zM361 880q-34 47 -34 125h60q0 -56 20.5 -81.5t60.5 -25.5q33 0 57 26t34 81h60q-11 -90 -54.5 -131t-106.5 -41t-97 47z" />
    <glyph glyph-name="obreve" unicode="&#x14f;" horiz-adv-x="534" 
d="M128 19q-43 29 -65.5 77.5t-22.5 106.5q0 86 32.5 160t93 118t139.5 44q58 0 101 -29t65.5 -77.5t22.5 -106.5q0 -86 -32.5 -160t-93 -118t-139.5 -44q-58 0 -101 29zM327.5 100q38.5 35 60 90.5t21.5 113.5q0 69 -30.5 107.5t-84.5 38.5q-49 0 -87.5 -35t-60 -90.5
t-21.5 -113.5q0 -69 30.5 -107.5t84.5 -38.5q49 0 87.5 35zM231 635q-34 47 -34 125h60q0 -56 20.5 -81.5t60.5 -25.5q33 0 57 26t34 81h60q-11 -90 -54.5 -131t-106.5 -41t-97 47z" />
    <glyph glyph-name="Ohungarumlaut" unicode="&#x150;" horiz-adv-x="733" 
d="M183.5 31.5q-61.5 41.5 -93.5 113.5t-32 162q0 121 48 227.5t135 171t197 64.5q84 0 145.5 -41t94 -113t32.5 -162q0 -123 -48 -229.5t-134.5 -170.5t-197.5 -64q-85 0 -146.5 41.5zM484.5 121.5q64.5 54.5 101 143t36.5 185.5q0 110 -51.5 176.5t-142.5 66.5
q-82 0 -146.5 -55t-100 -143.5t-35.5 -183.5q0 -110 51.5 -177t142.5 -67q80 0 144.5 54.5zM393 835h-63l84 170h104zM551 835h-63l84 170h104z" />
    <glyph glyph-name="ohungarumlaut" unicode="&#x151;" horiz-adv-x="534" 
d="M128 19q-43 29 -65.5 77.5t-22.5 106.5q0 86 32.5 160t93 118t139.5 44q58 0 101 -29t65.5 -77.5t22.5 -106.5q0 -86 -32.5 -160t-93 -118t-139.5 -44q-58 0 -101 29zM327.5 100q38.5 35 60 90.5t21.5 113.5q0 69 -30.5 107.5t-84.5 38.5q-49 0 -87.5 -35t-60 -90.5
t-21.5 -113.5q0 -69 30.5 -107.5t84.5 -38.5q49 0 87.5 35zM263 590h-63l84 170h104zM421 590h-63l84 170h104z" />
    <glyph glyph-name="OE" unicode="&#x152;" horiz-adv-x="1017" 
d="M183.5 31.5q-61.5 41.5 -93.5 113.5t-32 162q0 121 48 227.5t135 171t197 64.5q84 0 145.5 -41t94 -113t32.5 -162q0 -123 -48 -229.5t-134.5 -170.5t-197.5 -64q-85 0 -146.5 41.5zM484.5 121.5q64.5 54.5 101 143t36.5 185.5q0 110 -51.5 176.5t-142.5 66.5
q-82 0 -146.5 -55t-100 -143.5t-35.5 -183.5q0 -110 51.5 -177t142.5 -67q80 0 144.5 54.5zM745 684l-35 -250h269l-11 -76h-269l-39 -282h276l-10 -76h-363l107 760h359l-11 -76h-273z" />
    <glyph glyph-name="oe" unicode="&#x153;" horiz-adv-x="883" 
d="M128 19q-43 29 -65.5 77.5t-22.5 106.5q0 86 32.5 160t93 118t139.5 44q58 0 101 -29t65.5 -77.5t22.5 -106.5q0 -86 -32.5 -160t-93 -118t-139.5 -44q-58 0 -101 29zM327.5 100q38.5 35 60 90.5t21.5 113.5q0 69 -30.5 107.5t-84.5 38.5q-49 0 -87.5 -35t-60 -90.5
t-21.5 -113.5q0 -69 30.5 -107.5t84.5 -38.5q49 0 87.5 35zM488 214v-3q0 -69 30.5 -107.5t84.5 -38.5q43 0 78 26t56 70l83 -10q-33 -76 -91.5 -118.5t-138.5 -42.5q-58 0 -101 29t-65.5 77.5t-22.5 106.5q0 86 32 160t91.5 118t137.5 44q88 0 135 -60.5t47 -153.5
q0 -16 -3 -42.5t-6 -45.5h-347v-9zM555 405.5q-40 -44.5 -57 -112.5h261q1 8 1 23q0 66 -27.5 100t-81.5 34q-56 0 -96 -44.5z" />
    <glyph glyph-name="Racute" unicode="&#x154;" horiz-adv-x="557" 
d="M513 376.5q-42 -77.5 -120 -112.5l87 -264h-95l-79 242q-22 -2 -34 -2h-118l-34 -240h-86l107 760h203q102 0 156.5 -56.5t54.5 -144.5q0 -105 -42 -182.5zM415 380q52 64 52 168q0 68 -34.5 102t-109.5 34h-107l-52 -368h107q92 0 144 64zM364 835h-63l84 170h104z" />
    <glyph glyph-name="racute" unicode="&#x155;" horiz-adv-x="328" 
d="M345 523l-17 -89q-22 5 -41 5q-56 0 -92 -56t-47 -141l-34 -242h-85l72 515h76l-4 -86q30 47 66.5 71.5t76.5 24.5q19 0 29 -2zM249 590h-63l84 170h104z" />
    <glyph glyph-name="Rcommaaccent" unicode="&#x156;" horiz-adv-x="557" 
d="M513 376.5q-42 -77.5 -120 -112.5l87 -264h-95l-79 242q-22 -2 -34 -2h-118l-34 -240h-86l107 760h203q102 0 156.5 -56.5t54.5 -144.5q0 -105 -42 -182.5zM415 380q52 64 52 168q0 68 -34.5 102t-109.5 34h-107l-52 -368h107q92 0 144 64zM177 -220h-63l67 150h103z" />
    <glyph glyph-name="rcommaaccent" unicode="&#x157;" horiz-adv-x="328" 
d="M345 523l-17 -89q-22 5 -41 5q-56 0 -92 -56t-47 -141l-34 -242h-85l72 515h76l-4 -86q30 47 66.5 71.5t76.5 24.5q19 0 29 -2zM45 -220h-63l67 150h103z" />
    <glyph glyph-name="Rcaron" unicode="&#x158;" horiz-adv-x="557" 
d="M513 376.5q-42 -77.5 -120 -112.5l87 -264h-95l-79 242q-22 -2 -34 -2h-118l-34 -240h-86l107 760h203q102 0 156.5 -56.5t54.5 -144.5q0 -105 -42 -182.5zM415 380q52 64 52 168q0 68 -34.5 102t-109.5 34h-107l-52 -368h107q92 0 144 64zM505 1005l-147 -168h-68
l-99 168h85l53 -107l82 107h94z" />
    <glyph glyph-name="rcaron" unicode="&#x159;" horiz-adv-x="328" 
d="M345 523l-17 -89q-22 5 -41 5q-56 0 -92 -56t-47 -141l-34 -242h-85l72 515h76l-4 -86q30 47 66.5 71.5t76.5 24.5q19 0 29 -2zM390 760l-147 -168h-68l-99 168h85l53 -107l82 107h94z" />
    <glyph glyph-name="Sacute" unicode="&#x15a;" horiz-adv-x="570" 
d="M92 46.5q-53 56.5 -53 155.5v16l86 3v-22q0 -76 39.5 -104.5t96.5 -28.5q45 0 82.5 20.5t59.5 57t22 83.5t-25 74t-69 46l-63 27q-152 65 -152 183q0 63 29.5 111.5t83 75t122.5 26.5q107 0 159.5 -62t50.5 -165l-87 -4v16q0 63 -34.5 100.5t-97.5 37.5q-62 0 -100 -37
t-38 -93q0 -39 23 -67t74 -50l64 -27q148 -63 148 -185q0 -73 -33 -128.5t-92 -85.5t-134 -30q-109 0 -162 56.5zM375 835h-63l84 170h104z" />
    <glyph glyph-name="sacute" unicode="&#x15b;" horiz-adv-x="430" 
d="M62 34.5q-42 44.5 -42 115.5l84 10q-3 -48 16.5 -72t72.5 -24q42 0 71.5 22.5t29.5 65.5q0 30 -19 47t-65 36l-17 7q-119 50 -119 141q0 63 48.5 102.5t129.5 39.5q70 0 114 -41.5t46 -107.5l-85 -10q0 86 -83 86q-32 0 -58.5 -20.5t-26.5 -51.5q0 -20 15.5 -36.5
t54.5 -32.5l20 -8q64 -26 97.5 -59.5t33.5 -81.5q0 -80 -54.5 -126t-139.5 -46q-82 0 -124 44.5zM289 590h-63l84 170h104z" />
    <glyph glyph-name="Scircumflex" unicode="&#x15c;" horiz-adv-x="570" 
d="M92 46.5q-53 56.5 -53 155.5v16l86 3v-22q0 -76 39.5 -104.5t96.5 -28.5q45 0 82.5 20.5t59.5 57t22 83.5t-25 74t-69 46l-63 27q-152 65 -152 183q0 63 29.5 111.5t83 75t122.5 26.5q107 0 159.5 -62t50.5 -165l-87 -4v16q0 63 -34.5 100.5t-97.5 37.5q-62 0 -100 -37
t-38 -93q0 -39 23 -67t74 -50l64 -27q148 -63 148 -185q0 -73 -33 -128.5t-92 -85.5t-134 -30q-109 0 -162 56.5zM419 837l-53 107l-82 -107h-94l147 168h68l99 -168h-85z" />
    <glyph glyph-name="scircumflex" unicode="&#x15d;" horiz-adv-x="430" 
d="M62 34.5q-42 44.5 -42 115.5l84 10q-3 -48 16.5 -72t72.5 -24q42 0 71.5 22.5t29.5 65.5q0 30 -19 47t-65 36l-17 7q-119 50 -119 141q0 63 48.5 102.5t129.5 39.5q70 0 114 -41.5t46 -107.5l-85 -10q0 86 -83 86q-32 0 -58.5 -20.5t-26.5 -51.5q0 -20 15.5 -36.5
t54.5 -32.5l20 -8q64 -26 97.5 -59.5t33.5 -81.5q0 -80 -54.5 -126t-139.5 -46q-82 0 -124 44.5zM333 592l-53 107l-82 -107h-94l147 168h68l99 -168h-85z" />
    <glyph glyph-name="Scedilla" unicode="&#x15e;" horiz-adv-x="570" 
d="M92 46.5q-53 56.5 -53 155.5v16l86 3v-22q0 -76 39.5 -104.5t96.5 -28.5q45 0 82.5 20.5t59.5 57t22 83.5t-25 74t-69 46l-63 27q-152 65 -152 183q0 63 29.5 111.5t83 75t122.5 26.5q107 0 159.5 -62t50.5 -165l-87 -4v16q0 63 -34.5 100.5t-97.5 37.5q-62 0 -100 -37
t-38 -93q0 -39 23 -67t74 -50l64 -27q148 -63 148 -185q0 -73 -33 -128.5t-92 -85.5t-134 -30q-109 0 -162 56.5zM305.5 -57q20.5 -20 20.5 -51q0 -42 -30 -69.5t-75 -27.5q-44 0 -72 17l22 44q22 -9 41 -9q17 0 29.5 13t12.5 30q0 11 -6.5 17.5t-17.5 6.5q-19 0 -34 -12
l-20 14l40 104h52l-18 -57h7q28 0 48.5 -20z" />
    <glyph glyph-name="scedilla" unicode="&#x15f;" horiz-adv-x="430" 
d="M62 34.5q-42 44.5 -42 115.5l84 10q-3 -48 16.5 -72t72.5 -24q42 0 71.5 22.5t29.5 65.5q0 30 -19 47t-65 36l-17 7q-119 50 -119 141q0 63 48.5 102.5t129.5 39.5q70 0 114 -41.5t46 -107.5l-85 -10q0 86 -83 86q-32 0 -58.5 -20.5t-26.5 -51.5q0 -20 15.5 -36.5
t54.5 -32.5l20 -8q64 -26 97.5 -59.5t33.5 -81.5q0 -80 -54.5 -126t-139.5 -46q-82 0 -124 44.5zM225.5 -57q20.5 -20 20.5 -51q0 -42 -30 -69.5t-75 -27.5q-44 0 -72 17l22 44q22 -9 41 -9q17 0 29.5 13t12.5 30q0 11 -6.5 17.5t-17.5 6.5q-19 0 -34 -12l-20 14l40 104h52
l-18 -57h7q28 0 48.5 -20z" />
    <glyph glyph-name="Scaron" unicode="&#x160;" horiz-adv-x="570" 
d="M92 46.5q-53 56.5 -53 155.5v16l86 3v-22q0 -76 39.5 -104.5t96.5 -28.5q45 0 82.5 20.5t59.5 57t22 83.5t-25 74t-69 46l-63 27q-152 65 -152 183q0 63 29.5 111.5t83 75t122.5 26.5q107 0 159.5 -62t50.5 -165l-87 -4v16q0 63 -34.5 100.5t-97.5 37.5q-62 0 -100 -37
t-38 -93q0 -39 23 -67t74 -50l64 -27q148 -63 148 -185q0 -73 -33 -128.5t-92 -85.5t-134 -30q-109 0 -162 56.5zM516 1005l-147 -168h-68l-99 168h85l53 -107l82 107h94z" />
    <glyph glyph-name="scaron" unicode="&#x161;" horiz-adv-x="430" 
d="M62 34.5q-42 44.5 -42 115.5l84 10q-3 -48 16.5 -72t72.5 -24q42 0 71.5 22.5t29.5 65.5q0 30 -19 47t-65 36l-17 7q-119 50 -119 141q0 63 48.5 102.5t129.5 39.5q70 0 114 -41.5t46 -107.5l-85 -10q0 86 -83 86q-32 0 -58.5 -20.5t-26.5 -51.5q0 -20 15.5 -36.5
t54.5 -32.5l20 -8q64 -26 97.5 -59.5t33.5 -81.5q0 -80 -54.5 -126t-139.5 -46q-82 0 -124 44.5zM430 760l-147 -168h-68l-99 168h85l53 -107l82 107h94z" />
    <glyph glyph-name="uni0162" unicode="&#x162;" horiz-adv-x="515" 
d="M550 684h-189l-96 -684h-86l96 684h-190l11 76h465zM276.5 -57q20.5 -20 20.5 -51q0 -42 -30 -69.5t-75 -27.5q-44 0 -72 17l22 44q22 -9 41 -9q17 0 29.5 13t12.5 30q0 11 -6.5 17.5t-17.5 6.5q-19 0 -34 -12l-20 14l40 104h52l-18 -57h7q28 0 48.5 -20z" />
    <glyph glyph-name="uni0163" unicode="&#x163;" horiz-adv-x="307" 
d="M148 149q-3 -21 -3 -36q0 -28 11 -39t35 -11q30 0 55 7l-5 -70q-35 -10 -75 -10q-51 0 -79 31.5t-28 80.5q0 14 4 46l41 294h-68l15 73h63l18 125h85l-18 -125h102l-10 -73h-102zM192.5 -57q20.5 -20 20.5 -51q0 -42 -30 -69.5t-75 -27.5q-44 0 -72 17l22 44q22 -9 41 -9
q17 0 29.5 13t12.5 30q0 11 -6.5 17.5t-17.5 6.5q-19 0 -34 -12l-20 14l40 104h52l-18 -57h7q28 0 48.5 -20z" />
    <glyph glyph-name="Tcaron" unicode="&#x164;" horiz-adv-x="515" 
d="M550 684h-189l-96 -684h-86l96 684h-190l11 76h465zM509 1005l-147 -168h-68l-99 168h85l53 -107l82 107h94z" />
    <glyph glyph-name="tcaron" unicode="&#x165;" horiz-adv-x="378" 
d="M449 760l-125 -170h-61l84 170h102zM199 515h102l-10 -73h-102l-41 -293q-3 -21 -3 -36q0 -28 11 -39t35 -11q30 0 55 7l-5 -70q-35 -10 -75 -10q-51 0 -79 31.5t-28 80.5q0 14 4 46l41 294h-68l15 73h63l18 125h85z" />
    <glyph glyph-name="Tbar" unicode="&#x166;" horiz-adv-x="515" 
d="M361 684l-35 -249h141l-10 -74h-141l-51 -361h-86l51 361h-142l10 74h142l35 249h-190l11 76h465l-11 -76h-189z" />
    <glyph glyph-name="tbar" unicode="&#x167;" horiz-adv-x="307" 
d="M189 442l-17 -125h91l-9 -70h-92l-14 -98q-3 -21 -3 -36q0 -28 11 -39t35 -11q30 0 55 7l-5 -70q-35 -10 -75 -10q-51 0 -79 31.5t-28 80.5q0 14 4 46l14 99h-66l9 70h67l17 125h-68l15 73h63l18 125h85l-18 -125h102l-10 -73h-102z" />
    <glyph glyph-name="Utilde" unicode="&#x168;" horiz-adv-x="600" 
d="M112 50.5q-49 60.5 -49 160.5q0 29 5 67l68 482h86l-70 -492q-5 -37 -5 -60q0 -141 126 -141q71 0 117 51t60 150l70 492h86l-68 -482q-20 -146 -88 -217t-188 -71q-101 0 -150 60.5zM405.5 891.5q-14.5 8.5 -29.5 23.5q-22 22 -42 22q-11 0 -23.5 -10t-23.5 -28l-50 33
q41 69 109 69q41 0 71 -34q19 -21 41 -21q10 0 23 10t24 28l52 -27q-23 -36 -52.5 -55t-63.5 -19q-21 0 -35.5 8.5z" />
    <glyph glyph-name="utilde" unicode="&#x169;" 
d="M478 515l-72 -515h-77l6 78q-29 -43 -69 -65.5t-84 -22.5q-67 0 -101 43.5t-34 111.5q0 21 3 42l46 328h85l-43 -308q-4 -34 -4 -49q0 -46 20 -71t66 -25q52 0 86 48t46 111l41 294h85zM321.5 646.5q-14.5 8.5 -29.5 23.5q-22 22 -42 22q-11 0 -23.5 -10t-23.5 -28
l-50 33q41 69 109 69q41 0 71 -34q19 -21 41 -21q10 0 23 10t24 28l52 -27q-23 -36 -52.5 -55t-63.5 -19q-21 0 -35.5 8.5z" />
    <glyph glyph-name="Umacron" unicode="&#x16a;" horiz-adv-x="600" 
d="M112 50.5q-49 60.5 -49 160.5q0 29 5 67l68 482h86l-70 -492q-5 -37 -5 -60q0 -141 126 -141q71 0 117 51t60 150l70 492h86l-68 -482q-20 -146 -88 -217t-188 -71q-101 0 -150 60.5zM282 967h237l-9 -67h-237z" />
    <glyph glyph-name="umacron" unicode="&#x16b;" 
d="M478 515l-72 -515h-77l6 78q-29 -43 -69 -65.5t-84 -22.5q-67 0 -101 43.5t-34 111.5q0 21 3 42l46 328h85l-43 -308q-4 -34 -4 -49q0 -46 20 -71t66 -25q52 0 86 48t46 111l41 294h85zM198 722h237l-9 -67h-237z" />
    <glyph glyph-name="Ubreve" unicode="&#x16c;" horiz-adv-x="600" 
d="M112 50.5q-49 60.5 -49 160.5q0 29 5 67l68 482h86l-70 -492q-5 -37 -5 -60q0 -141 126 -141q71 0 117 51t60 150l70 492h86l-68 -482q-20 -146 -88 -217t-188 -71q-101 0 -150 60.5zM294 880q-34 47 -34 125h60q0 -56 20.5 -81.5t60.5 -25.5q33 0 57 26t34 81h60
q-11 -90 -54.5 -131t-106.5 -41t-97 47z" />
    <glyph glyph-name="ubreve" unicode="&#x16d;" 
d="M478 515l-72 -515h-77l6 78q-29 -43 -69 -65.5t-84 -22.5q-67 0 -101 43.5t-34 111.5q0 21 3 42l46 328h85l-43 -308q-4 -34 -4 -49q0 -46 20 -71t66 -25q52 0 86 48t46 111l41 294h85zM210 635q-34 47 -34 125h60q0 -56 20.5 -81.5t60.5 -25.5q33 0 57 26t34 81h60
q-11 -90 -54.5 -131t-106.5 -41t-97 47z" />
    <glyph glyph-name="Uring" unicode="&#x16e;" horiz-adv-x="600" 
d="M112 50.5q-49 60.5 -49 160.5q0 29 5 67l68 482h86l-70 -492q-5 -37 -5 -60q0 -141 126 -141q71 0 117 51t60 150l70 492h86l-68 -482q-20 -146 -88 -217t-188 -71q-101 0 -150 60.5zM317 864q-32 32 -32 78q0 45 32 77t78 32t77.5 -32t31.5 -77q0 -46 -31.5 -78
t-77.5 -32t-78 32zM436.5 898q17.5 18 17.5 44q0 25 -17.5 43t-41.5 18q-25 0 -42.5 -18t-17.5 -43q0 -26 17.5 -44t42.5 -18q24 0 41.5 18z" />
    <glyph glyph-name="uring" unicode="&#x16f;" 
d="M478 515l-72 -515h-77l6 78q-29 -43 -69 -65.5t-84 -22.5q-67 0 -101 43.5t-34 111.5q0 21 3 42l46 328h85l-43 -308q-4 -34 -4 -49q0 -46 20 -71t66 -25q52 0 86 48t46 111l41 294h85zM233 619q-32 32 -32 78q0 45 32 77t78 32t77.5 -32t31.5 -77q0 -46 -31.5 -78
t-77.5 -32t-78 32zM352.5 653q17.5 18 17.5 44q0 25 -17.5 43t-41.5 18q-25 0 -42.5 -18t-17.5 -43q0 -26 17.5 -44t42.5 -18q24 0 41.5 18z" />
    <glyph glyph-name="Uhungarumlaut" unicode="&#x170;" horiz-adv-x="600" 
d="M112 50.5q-49 60.5 -49 160.5q0 29 5 67l68 482h86l-70 -492q-5 -37 -5 -60q0 -141 126 -141q71 0 117 51t60 150l70 492h86l-68 -482q-20 -146 -88 -217t-188 -71q-101 0 -150 60.5zM326 835h-63l84 170h104zM484 835h-63l84 170h104z" />
    <glyph glyph-name="uhungarumlaut" unicode="&#x171;" 
d="M478 515l-72 -515h-77l6 78q-29 -43 -69 -65.5t-84 -22.5q-67 0 -101 43.5t-34 111.5q0 21 3 42l46 328h85l-43 -308q-4 -34 -4 -49q0 -46 20 -71t66 -25q52 0 86 48t46 111l41 294h85zM242 590h-63l84 170h104zM400 590h-63l84 170h104z" />
    <glyph glyph-name="Uogonek" unicode="&#x172;" horiz-adv-x="600" 
d="M112 50.5q-49 60.5 -49 160.5q0 29 5 67l68 482h86l-70 -492q-5 -37 -5 -60q0 -141 126 -141q71 0 117 51t60 150l70 492h86l-68 -482q-20 -146 -88 -217t-188 -71q-101 0 -150 60.5zM299.5 -31q-20.5 -23 -20.5 -54q0 -23 15 -35.5t43 -12.5q14 0 38 6l-7 -67
q-24 -11 -62 -11q-42 0 -69 27.5t-27 64.5q0 62 41 102t99 47l3 -31q-33 -13 -53.5 -36z" />
    <glyph glyph-name="uogonek" unicode="&#x173;" 
d="M478 515l-72 -515h-77l6 78q-29 -43 -69 -65.5t-84 -22.5q-67 0 -101 43.5t-34 111.5q0 21 3 42l46 328h85l-43 -308q-4 -34 -4 -49q0 -46 20 -71t66 -25q52 0 86 48t46 111l41 294h85zM335.5 -31q-20.5 -23 -20.5 -54q0 -23 15 -35.5t43 -12.5q14 0 38 6l-7 -67
q-24 -11 -62 -11q-42 0 -69 27.5t-27 64.5q0 62 41 102t99 47l3 -31q-33 -13 -53.5 -36z" />
    <glyph glyph-name="Wcircumflex" unicode="&#x174;" horiz-adv-x="829" 
d="M885 760l-277 -760h-92l-47 637l-228 -637h-91l-64 760h88l36 -657l234 657h79l49 -652l219 652h94zM569 837l-53 107l-82 -107h-94l147 168h68l99 -168h-85z" />
    <glyph glyph-name="wcircumflex" unicode="&#x175;" horiz-adv-x="675" 
d="M701 515l-209 -515h-90l-42 408l-159 -408h-91l-64 515h86l38 -427l166 427h75l43 -424l155 424h92zM456 592l-53 107l-82 -107h-94l147 168h68l99 -168h-85z" />
    <glyph glyph-name="Ycircumflex" unicode="&#x176;" horiz-adv-x="495" 
d="M566 760l-433 -760h-93l183 322l-142 438h87l108 -346l197 346h93zM411 837l-53 107l-82 -107h-94l147 168h68l99 -168h-85z" />
    <glyph glyph-name="ycircumflex" unicode="&#x177;" 
d="M478 515l-66 -468q-17 -119 -77 -185.5t-155 -66.5q-65 0 -105.5 32.5t-53.5 85.5l84 16q5 -31 26 -47.5t57 -16.5q59 0 93 45.5t46 135.5l4 30q-29 -40 -67 -60.5t-81 -20.5q-67 0 -101 43.5t-34 111.5q0 21 3 42l45 323h85l-42 -303q-4 -34 -4 -49q0 -46 20 -71t66 -25
q50 0 83.5 45.5t46.5 106.5l42 296h85zM379 592l-53 107l-82 -107h-94l147 168h68l99 -168h-85z" />
    <glyph glyph-name="Ydieresis" unicode="&#x178;" horiz-adv-x="495" 
d="M566 760l-433 -760h-93l183 322l-142 438h87l108 -346l197 346h93zM223.5 884q-16.5 17 -16.5 41q0 25 16.5 42t41.5 17q24 0 41 -17t17 -42q0 -24 -17 -41t-41 -17q-25 0 -41.5 17zM390.5 884q-16.5 17 -16.5 41q0 25 16.5 42t41.5 17q24 0 40.5 -17t16.5 -42
q0 -24 -16.5 -41t-40.5 -17q-25 0 -41.5 17z" />
    <glyph glyph-name="Zacute" unicode="&#x179;" horiz-adv-x="521" 
d="M137 76h318l-10 -76h-451l424 684h-301l11 76h434zM388 835h-63l84 170h104z" />
    <glyph glyph-name="zacute" unicode="&#x17a;" horiz-adv-x="426" 
d="M135 73h230l-10 -73h-366l300 442h-215l15 73h348zM297 590h-63l84 170h104z" />
    <glyph glyph-name="Zdotaccent" unicode="&#x17b;" horiz-adv-x="521" 
d="M137 76h318l-10 -76h-451l424 684h-301l11 76h434zM315 877q-19 19 -19 46q0 28 19 47t46 19t46 -19t19 -47q0 -27 -19 -46t-46 -19t-46 19z" />
    <glyph glyph-name="zdotaccent" unicode="&#x17c;" horiz-adv-x="426" 
d="M135 73h230l-10 -73h-366l300 442h-215l15 73h348zM224 632q-19 19 -19 46q0 28 19 47t46 19t46 -19t19 -47q0 -27 -19 -46t-46 -19t-46 19z" />
    <glyph glyph-name="Zcaron" unicode="&#x17d;" horiz-adv-x="521" 
d="M137 76h318l-10 -76h-451l424 684h-301l11 76h434zM529 1005l-147 -168h-68l-99 168h85l53 -107l82 107h94z" />
    <glyph glyph-name="zcaron" unicode="&#x17e;" horiz-adv-x="426" 
d="M135 73h230l-10 -73h-366l300 442h-215l15 73h348zM438 760l-147 -168h-68l-99 168h85l53 -107l82 107h94z" />
    <glyph glyph-name="longs" unicode="&#x17f;" horiz-adv-x="243" 
d="M332.5 764q23.5 -6 34.5 -15l-15 -70q-29 16 -63 16q-33 0 -52 -23.5t-27 -79.5l-83 -592h-85l62 443h-68l16 73h63l11 81q13 91 52 132t104 41q27 0 50.5 -6z" />
    <glyph glyph-name="uni018F" unicode="&#x18f;" horiz-adv-x="734" 
d="M584.5 729q61.5 -41 94 -113t32.5 -162q0 -123 -48 -229.5t-134.5 -170.5t-197.5 -64q-85 0 -147 41.5t-94 113.5t-32 162q0 55 10 107h554q1 12 1 36q0 110 -51.5 176.5t-142.5 66.5q-145 0 -231 -170l-88 12q51 109 135.5 172t192.5 63q85 0 146.5 -41zM460.5 103
q55.5 36 94 97.5t55.5 137.5h-463q-1 -9 -1 -27q0 -110 51.5 -177t143.5 -67q64 0 119.5 36z" />
    <glyph glyph-name="florin" unicode="&#x192;" horiz-adv-x="497" 
d="M404.5 659q-25.5 -31 -39.5 -92l-27 -118h86l-10 -74h-94l-86 -372q-24 -102 -68.5 -150t-128.5 -48h-21l17 70q49 2 74 32.5t39 89.5l87 378h-51l10 74h58l27 116q23 102 69.5 148.5t124.5 46.5h17l-16 -70q-42 0 -67.5 -31z" />
    <glyph glyph-name="uni019D" unicode="&#x19d;" horiz-adv-x="598" 
d="M599 760l-107 -760h-86l-199 609l-81 -571q-18 -126 -81 -184.5t-158 -58.5q-19 0 -37 3l17 77q14 -3 30 -3q54 0 93.5 41.5t50.5 123.5l102 723h85l199 -609l86 609h86z" />
    <glyph glyph-name="uni01CD" unicode="&#x1cd;" horiz-adv-x="530" 
d="M386 136h-270l-53 -136h-94l318 760h98l104 -760h-88zM377 212l-51 457l-180 -457h231zM517 1005l-147 -168h-68l-99 168h85l53 -107l82 107h94z" />
    <glyph glyph-name="uni01CE" unicode="&#x1ce;" horiz-adv-x="553" 
d="M524 515l-72 -515h-77l7 85q-31 -47 -74 -71t-90 -24q-53 0 -94 29t-63 78.5t-22 109.5q0 79 33.5 152.5t90.5 119.5t125 46q48 0 85 -25.5t55 -69.5l12 85h84zM328.5 99q38.5 34 60.5 88t22 111q0 67 -31.5 109.5t-84.5 42.5q-49 0 -88.5 -34t-61 -88.5t-21.5 -112.5
q0 -69 31 -109.5t87 -40.5q48 0 86.5 34zM479 760l-147 -168h-68l-99 168h85l53 -107l82 107h94z" />
    <glyph glyph-name="Gcaron" unicode="&#x1e6;" horiz-adv-x="707" 
d="M348 405h312l-45 -316q-126 -99 -274 -99q-91 0 -155 43t-96 115t-32 159q0 121 47.5 227.5t132.5 171t192 64.5q97 0 162 -59t95 -155l-91 -10q-14 61 -59 104t-118 43q-77 0 -139.5 -56.5t-98 -146t-35.5 -183.5q0 -110 52.5 -175t153.5 -65q56 0 99 16t83 43l29 203
h-226zM610 1005l-147 -168h-68l-99 168h85l53 -107l82 107h94z" />
    <glyph glyph-name="gcaron" unicode="&#x1e7;" horiz-adv-x="554" 
d="M525 515l-64 -459q-17 -120 -82.5 -190.5t-170.5 -70.5q-69 0 -114.5 33t-59.5 85l84 16q21 -64 98 -64q63 0 106.5 51t53.5 140l3 26q-31 -45 -73 -68.5t-88 -23.5q-53 0 -94 29t-63 78.5t-22 109.5q0 79 33.5 152.5t90.5 119.5t125 46q49 0 86.5 -26.5t55.5 -72.5
l17 89h78zM328.5 99q38.5 34 60.5 88t22 111q0 67 -31.5 109.5t-84.5 42.5q-49 0 -88.5 -34t-61 -88.5t-21.5 -112.5q0 -69 31 -109.5t87 -40.5q48 0 86.5 34zM479 760l-147 -168h-68l-99 168h85l53 -107l82 107h94z" />
    <glyph glyph-name="Aringacute" unicode="&#x1fa;" horiz-adv-x="530" 
d="M386 136h-270l-53 -136h-94l318 760h98l104 -760h-88zM377 212l-51 457l-180 -457h231zM283 864q-32 32 -32 78q0 45 32 77t78 32t77.5 -32t31.5 -77q0 -46 -31.5 -78t-77.5 -32t-78 32zM402.5 898q17.5 18 17.5 44q0 25 -17.5 43t-41.5 18q-25 0 -42.5 -18t-17.5 -43
q0 -26 17.5 -44t42.5 -18q24 0 41.5 18zM415 1126h-63l84 170h104z" />
    <glyph glyph-name="aringacute" unicode="&#x1fb;" horiz-adv-x="553" 
d="M524 515l-72 -515h-77l7 85q-31 -47 -74 -71t-90 -24q-53 0 -94 29t-63 78.5t-22 109.5q0 79 33.5 152.5t90.5 119.5t125 46q48 0 85 -25.5t55 -69.5l12 85h84zM328.5 99q38.5 34 60.5 88t22 111q0 67 -31.5 109.5t-84.5 42.5q-49 0 -88.5 -34t-61 -88.5t-21.5 -112.5
q0 -69 31 -109.5t87 -40.5q48 0 86.5 34zM245 619q-32 32 -32 78q0 45 32 77t78 32t77.5 -32t31.5 -77q0 -46 -31.5 -78t-77.5 -32t-78 32zM364.5 653q17.5 18 17.5 44q0 25 -17.5 43t-41.5 18q-25 0 -42.5 -18t-17.5 -43q0 -26 17.5 -44t42.5 -18q24 0 41.5 18zM377 881
h-63l84 170h104z" />
    <glyph glyph-name="AEacute" unicode="&#x1fc;" horiz-adv-x="800" 
d="M537 686l-36 -253h261l-11 -74h-260l-41 -285h269l-10 -74h-355l25 178h-223l-106 -178h-91l457 760h396l-11 -74h-264zM389 252l59 416l-248 -416h189zM664 835h-63l84 170h104z" />
    <glyph glyph-name="aeacute" unicode="&#x1fd;" horiz-adv-x="827" 
d="M433 213v-2q0 -69 30.5 -107.5t84.5 -38.5q43 0 78 26t56 70l83 -10q-33 -76 -91.5 -118.5t-138.5 -42.5q-61 0 -102.5 28t-61.5 77q-32 -50 -83 -77.5t-121 -27.5q-61 0 -102 36t-41 98q0 89 56.5 134.5t156.5 45.5h123l1 9q3 20 3 35q0 55 -26 78.5t-64 23.5
q-78 0 -123 -80l-79 11q31 69 86 106.5t127 37.5q47 0 85 -20.5t58 -64.5q33 40 78.5 62.5t100.5 22.5q88 0 135 -60.5t47 -153.5q0 -14 -2.5 -37t-6.5 -40h-346q-1 -7 -1 -21zM503 409q-39 -41 -57 -105h259v12q0 66 -27.5 100t-81.5 34t-93 -41zM292 97.5
q44 39.5 54 109.5l3 22l1 5h-114q-62 0 -96.5 -25t-34.5 -75q0 -35 23.5 -55.5t63.5 -20.5q56 0 100 39.5zM484 590h-63l84 170h104z" />
    <glyph glyph-name="Oslashacute" unicode="&#x1fe;" horiz-adv-x="733" 
d="M644 672q32 -42 49 -97.5t17 -120.5q0 -123 -48 -229.5t-134.5 -170.5t-197.5 -64q-85 0 -147 42l-38 -52h-89l73 101q-35 43 -53 101t-18 125q0 121 48 227.5t135 171t197 64.5q90 0 154 -47l41 57h89zM183 156l360 499q-49 38 -115 38q-82 0 -146.5 -55t-100 -143.5
t-35.5 -183.5q0 -92 37 -155zM590 597l-358 -497q46 -33 108 -33q80 0 144.5 54.5t101 143t36.5 185.5q0 86 -32 147zM477 835h-63l84 170h104z" />
    <glyph glyph-name="oslashacute" unicode="&#x1ff;" horiz-adv-x="534" 
d="M447 458q23 -28 35 -66t12 -80q0 -86 -32.5 -160t-93 -118t-139.5 -44q-55 0 -98 27l-27 -37h-73l56 77q-23 29 -35 66.5t-12 79.5q0 86 32.5 160t93 118t139.5 44q54 0 98 -27l26 37h73zM139 131l216 302q-26 17 -61 17q-49 0 -87.5 -35t-60 -90.5t-21.5 -113.5
q0 -46 14 -80zM394 385l-216 -302q26 -18 62 -18q49 0 87.5 35t60 90.5t21.5 113.5q0 48 -15 81zM341 590h-63l84 170h104z" />
    <glyph glyph-name="Scommaaccent" unicode="&#x218;" horiz-adv-x="570" 
d="M92 46.5q-53 56.5 -53 155.5v16l86 3v-22q0 -76 39.5 -104.5t96.5 -28.5q45 0 82.5 20.5t59.5 57t22 83.5t-25 74t-69 46l-63 27q-152 65 -152 183q0 63 29.5 111.5t83 75t122.5 26.5q107 0 159.5 -62t50.5 -165l-87 -4v16q0 63 -34.5 100.5t-97.5 37.5q-62 0 -100 -37
t-38 -93q0 -39 23 -67t74 -50l64 -27q148 -63 148 -185q0 -73 -33 -128.5t-92 -85.5t-134 -30q-109 0 -162 56.5zM193 -220h-63l67 150h103z" />
    <glyph glyph-name="scommaaccent" unicode="&#x219;" horiz-adv-x="430" 
d="M62 34.5q-42 44.5 -42 115.5l84 10q-3 -48 16.5 -72t72.5 -24q42 0 71.5 22.5t29.5 65.5q0 30 -19 47t-65 36l-17 7q-119 50 -119 141q0 63 48.5 102.5t129.5 39.5q70 0 114 -41.5t46 -107.5l-85 -10q0 86 -83 86q-32 0 -58.5 -20.5t-26.5 -51.5q0 -20 15.5 -36.5
t54.5 -32.5l20 -8q64 -26 97.5 -59.5t33.5 -81.5q0 -80 -54.5 -126t-139.5 -46q-82 0 -124 44.5zM113 -220h-63l67 150h103z" />
    <glyph glyph-name="uni021A" unicode="&#x21a;" horiz-adv-x="515" 
d="M550 684h-189l-96 -684h-86l96 684h-190l11 76h465zM164 -220h-63l67 150h103z" />
    <glyph glyph-name="uni021B" unicode="&#x21b;" horiz-adv-x="307" 
d="M148 149q-3 -21 -3 -36q0 -28 11 -39t35 -11q30 0 55 7l-5 -70q-35 -10 -75 -10q-51 0 -79 31.5t-28 80.5q0 14 4 46l41 294h-68l15 73h63l18 125h85l-18 -125h102l-10 -73h-102zM80 -220h-63l67 150h103z" />
    <glyph glyph-name="uni0232" unicode="&#x232;" horiz-adv-x="495" 
d="M566 760l-433 -760h-93l183 322l-142 438h87l108 -346l197 346h93zM239 967h237l-9 -67h-237z" />
    <glyph glyph-name="uni0233" unicode="&#x233;" 
d="M478 515l-66 -468q-17 -119 -77 -185.5t-155 -66.5q-65 0 -105.5 32.5t-53.5 85.5l84 16q5 -31 26 -47.5t57 -16.5q59 0 93 45.5t46 135.5l4 30q-29 -40 -67 -60.5t-81 -20.5q-67 0 -101 43.5t-34 111.5q0 21 3 42l45 323h85l-42 -303q-4 -34 -4 -49q0 -46 20 -71t66 -25
q50 0 83.5 45.5t46.5 106.5l42 296h85zM207 722h237l-9 -67h-237z" />
    <glyph glyph-name="uni0237" unicode="&#x237;" horiz-adv-x="215" 
d="M-90 -200q-23 5 -38 12l15 70q34 -12 64 -12q32 0 48.5 21.5t24.5 72.5l77 551h85l-78 -559q-12 -87 -51.5 -124t-100.5 -37q-23 0 -46 5z" />
    <glyph glyph-name="uni0259" unicode="&#x259;" horiz-adv-x="522" 
d="M395 301v3q0 69 -30.5 107.5t-84.5 38.5q-43 0 -78 -26t-56 -70l-83 10q33 76 91.5 118.5t138.5 42.5q58 0 101 -29t65.5 -77.5t22.5 -106.5q0 -86 -32 -160t-91.5 -118t-137.5 -44q-88 0 -135 60.5t-47 153.5q0 16 3 42.5t6 45.5h347v9zM328 109.5q40 44.5 57 112.5
h-261q-1 -8 -1 -23q0 -66 27.5 -100t81.5 -34q56 0 96 44.5z" />
    <glyph glyph-name="uni0272" unicode="&#x272;" horiz-adv-x="515" 
d="M434 481.5q34 -43.5 34 -111.5q0 -21 -3 -42l-46 -328h-85l43 308q4 34 4 49q0 46 -20 71t-66 25q-56 0 -92 -49t-48 -114l-26 -185l-21 -149q-12 -87 -51.5 -124t-100.5 -37q-23 0 -46 5t-38 12l15 70q34 -12 64 -12q32 0 49 21.5t24 72.5l5 36l8 55l22 160l42 300h77
l-5 -79q31 44 72.5 66.5t87.5 22.5q67 0 101 -43.5z" />
    <glyph glyph-name="circumflex" unicode="&#x2c6;" horiz-adv-x="414" 
d="M326 592l-53 107l-82 -107h-94l147 168h68l99 -168h-85z" />
    <glyph glyph-name="caron" unicode="&#x2c7;" horiz-adv-x="414" 
d="M435 760l-147 -168h-68l-99 168h85l53 -107l82 107h94z" />
    <glyph glyph-name="breve" unicode="&#x2d8;" horiz-adv-x="392" 
d="M155 635q-34 47 -34 125h60q0 -56 20.5 -81.5t60.5 -25.5q33 0 57 26t34 81h60q-11 -90 -54.5 -131t-106.5 -41t-97 47z" />
    <glyph glyph-name="dotaccent" unicode="&#x2d9;" horiz-adv-x="232" 
d="M129 632q-19 19 -19 46q0 28 19 47t46 19t46 -19t19 -47q0 -27 -19 -46t-46 -19t-46 19z" />
    <glyph glyph-name="ring" unicode="&#x2da;" horiz-adv-x="321" 
d="M145 619q-32 32 -32 78q0 45 32 77t78 32t77.5 -32t31.5 -77q0 -46 -31.5 -78t-77.5 -32t-78 32zM264.5 653q17.5 18 17.5 44q0 25 -17.5 43t-41.5 18q-25 0 -42.5 -18t-17.5 -43q0 -26 17.5 -44t42.5 -18q24 0 41.5 18z" />
    <glyph glyph-name="ogonek" unicode="&#x2db;" horiz-adv-x="271" 
d="M89.5 -31q-20.5 -23 -20.5 -54q0 -23 15 -35.5t43 -12.5q14 0 38 6l-7 -67q-24 -11 -62 -11q-42 0 -69 27.5t-27 64.5q0 62 41 102t99 47l3 -31q-33 -13 -53.5 -36z" />
    <glyph glyph-name="tilde" unicode="&#x2dc;" horiz-adv-x="416" 
d="M278.5 646.5q-14.5 8.5 -29.5 23.5q-22 22 -42 22q-11 0 -23.5 -10t-23.5 -28l-50 33q41 69 109 69q41 0 71 -34q19 -21 41 -21q10 0 23 10t24 28l52 -27q-23 -36 -52.5 -55t-63.5 -19q-21 0 -35.5 8.5z" />
    <glyph glyph-name="hungarumlaut" unicode="&#x2dd;" horiz-adv-x="422" 
d="M160 590h-63l84 170h104zM318 590h-63l84 170h104z" />
    <glyph glyph-name="gravecomb" unicode="&#x300;" horiz-adv-x="0" 
d="M-87 760l84 -170h-63l-125 170h104z" />
    <glyph glyph-name="acutecomb" unicode="&#x301;" horiz-adv-x="0" 
d="M-104 590h-63l84 170h104z" />
    <glyph glyph-name="uni0302" unicode="&#x302;" horiz-adv-x="0" 
d="M-88 592l-53 107l-82 -107h-94l147 168h68l99 -168h-85z" />
    <glyph glyph-name="tildecomb" unicode="&#x303;" horiz-adv-x="0" 
d="M-137.5 646.5q-14.5 8.5 -29.5 23.5q-22 22 -42 22q-11 0 -23.5 -10t-23.5 -28l-50 33q41 69 109 69q41 0 71 -34q19 -21 41 -21q10 0 23 10t24 28l52 -27q-23 -36 -52.5 -55t-63.5 -19q-21 0 -35.5 8.5z" />
    <glyph glyph-name="uni0304" unicode="&#x304;" horiz-adv-x="0" 
d="M-222 722h237l-9 -67h-237z" />
    <glyph glyph-name="uni0306" unicode="&#x306;" horiz-adv-x="0" 
d="M-237 635q-34 47 -34 125h60q0 -56 20.5 -81.5t60.5 -25.5q33 0 57 26t34 81h60q-11 -90 -54.5 -131t-106.5 -41t-97 47z" />
    <glyph glyph-name="uni0307" unicode="&#x307;" horiz-adv-x="0" 
d="M-103 632q-19 19 -19 46q0 28 19 47t46 19t46 -19t19 -47q0 -27 -19 -46t-46 -19t-46 19z" />
    <glyph glyph-name="uni0308" unicode="&#x308;" horiz-adv-x="0" 
d="M-256.5 639q-16.5 17 -16.5 41q0 25 16.5 42t41.5 17q24 0 41 -17t17 -42q0 -24 -17 -41t-41 -17q-25 0 -41.5 17zM-89.5 639q-16.5 17 -16.5 41q0 25 16.5 42t41.5 17q24 0 40.5 -17t16.5 -42q0 -24 -16.5 -41t-40.5 -17q-25 0 -41.5 17z" />
    <glyph glyph-name="uni030A" unicode="&#x30a;" horiz-adv-x="0" 
d="M-176 619q-32 32 -32 78q0 45 32 77t78 32t77.5 -32t31.5 -77q0 -46 -31.5 -78t-77.5 -32t-78 32zM-56.5 653q17.5 18 17.5 44q0 25 -17.5 43t-41.5 18q-25 0 -42.5 -18t-17.5 -43q0 -26 17.5 -44t42.5 -18q24 0 41.5 18z" />
    <glyph glyph-name="uni030B" unicode="&#x30b;" horiz-adv-x="0" 
d="M-262 590h-63l84 170h104zM-104 590h-63l84 170h104z" />
    <glyph glyph-name="uni030C" unicode="&#x30c;" horiz-adv-x="0" 
d="M21 760l-147 -168h-68l-99 168h85l53 -107l82 107h94z" />
    <glyph glyph-name="uni0326" unicode="&#x326;" horiz-adv-x="0" 
d="M-203 -220h-63l67 150h103z" />
    <glyph glyph-name="uni0327" unicode="&#x327;" horiz-adv-x="0" 
d="M-122.5 -57q20.5 -20 20.5 -51q0 -42 -30 -69.5t-75 -27.5q-44 0 -72 17l22 44q22 -9 41 -9q17 0 29.5 13t12.5 30q0 11 -6.5 17.5t-17.5 6.5q-19 0 -34 -12l-20 14l40 104h52l-18 -57h7q28 0 48.5 -20z" />
    <glyph glyph-name="uni0328" unicode="&#x328;" horiz-adv-x="0" 
d="M-181.5 -31q-20.5 -23 -20.5 -54q0 -23 15 -35.5t43 -12.5q14 0 38 6l-7 -67q-24 -11 -62 -11q-42 0 -69 27.5t-27 64.5q0 62 41 102t99 47l3 -31q-33 -13 -53.5 -36z" />
    <glyph glyph-name="tonos" unicode="&#x384;" horiz-adv-x="264" 
d="M160 590h-63l84 170h104z" />
    <glyph glyph-name="dieresistonos" unicode="&#x385;" horiz-adv-x="470" 
d="M280 760h104l-105 -170h-63zM126.5 639q-16.5 17 -16.5 41q0 25 16.5 42t41.5 17q24 0 40.5 -17t16.5 -42q0 -24 -16.5 -41t-40.5 -17q-25 0 -41.5 17zM380.5 639q-16.5 17 -16.5 41q0 25 16.5 42t41.5 17q24 0 40.5 -17t16.5 -42q0 -24 -16.5 -41t-40.5 -17
q-25 0 -41.5 17z" />
    <glyph glyph-name="Alphatonos" unicode="&#x386;" horiz-adv-x="530" 
d="M386 136h-270l-53 -136h-94l318 760h98l104 -760h-88zM377 212l-51 457l-180 -457h231zM67 760h104l-125 -170h-63z" />
    <glyph glyph-name="anoteleia" unicode="&#x387;" horiz-adv-x="236" 
d="M91.5 360q-19.5 20 -19.5 47q0 28 19.5 47.5t47.5 19.5t47.5 -19.5t19.5 -47.5q0 -27 -19.5 -47t-47.5 -20t-47.5 20z" />
    <glyph glyph-name="Epsilontonos" unicode="&#x388;" horiz-adv-x="488" 
d="M216 684l-35 -250h269l-11 -76h-269l-39 -282h276l-10 -76h-363l107 760h359l-11 -76h-273zM-34 760h104l-125 -170h-63z" />
    <glyph glyph-name="Etatonos" unicode="&#x389;" horiz-adv-x="594" 
d="M595 760l-107 -760h-86l50 358h-282l-50 -358h-86l107 760h86l-46 -326h282l46 326h86zM-34 760h104l-125 -170h-63z" />
    <glyph glyph-name="Iotatonos" unicode="&#x38a;" horiz-adv-x="226" 
d="M141 760h86l-107 -760h-86zM-34 760h104l-125 -170h-63z" />
    <glyph glyph-name="Omicrontonos" unicode="&#x38c;" horiz-adv-x="733" 
d="M183.5 31.5q-61.5 41.5 -93.5 113.5t-32 162q0 121 48 227.5t135 171t197 64.5q84 0 145.5 -41t94 -113t32.5 -162q0 -123 -48 -229.5t-134.5 -170.5t-197.5 -64q-85 0 -146.5 41.5zM484.5 121.5q64.5 54.5 101 143t36.5 185.5q0 110 -51.5 176.5t-142.5 66.5
q-82 0 -146.5 -55t-100 -143.5t-35.5 -183.5q0 -110 51.5 -177t142.5 -67q80 0 144.5 54.5zM6 760h104l-125 -170h-63z" />
    <glyph glyph-name="Upsilontonos" unicode="&#x38e;" horiz-adv-x="495" 
d="M566 760l-433 -760h-93l183 322l-142 438h87l108 -346l197 346h93zM-64 760h104l-125 -170h-63z" />
    <glyph glyph-name="Omegatonos" unicode="&#x38f;" horiz-adv-x="748" 
d="M674.5 236.5q-46.5 -100.5 -127.5 -160.5h130l-11 -76h-263l10 62q73 32 122.5 94t73.5 137t24 148q0 69 -23.5 126.5t-70.5 91.5t-114 34q-79 0 -142 -47.5t-98.5 -130.5t-35.5 -187q0 -87 33 -159t101 -107l-11 -62h-257l12 76h131q-48 44 -72.5 108t-24.5 143
q0 127 49 228t134.5 158t189.5 57q87 0 152 -42.5t100 -116t35 -162.5q0 -112 -46.5 -212.5zM-13 760h104l-125 -170h-63z" />
    <glyph glyph-name="iotadieresistonos" unicode="&#x390;" horiz-adv-x="233" 
d="M67 13q-23 23 -23 66q0 16 3 41l54 395h86l-51 -374q-3 -19 -3 -35q0 -24 9 -31.5t33 -7.5h7l-6 -75q-22 -2 -34 -2q-52 0 -75 23zM148 760h104l-105 -170h-63zM-5.5 639q-16.5 17 -16.5 41q0 25 16.5 42t41.5 17q24 0 40.5 -17t16.5 -42q0 -24 -16.5 -41t-40.5 -17
q-25 0 -41.5 17zM248.5 639q-16.5 17 -16.5 41q0 25 16.5 42t41.5 17q24 0 40.5 -17t16.5 -42q0 -24 -16.5 -41t-40.5 -17q-25 0 -41.5 17z" />
    <glyph glyph-name="Alpha" unicode="&#x391;" horiz-adv-x="530" 
d="M386 136h-270l-53 -136h-94l318 760h98l104 -760h-88zM377 212l-51 457l-180 -457h231z" />
    <glyph glyph-name="Beta" unicode="&#x392;" horiz-adv-x="528" 
d="M471.5 339q22.5 -39 22.5 -86q0 -71 -30 -128.5t-85.5 -91t-127.5 -33.5h-217l107 760h207q82 0 127.5 -45t45.5 -114q0 -65 -28.5 -118t-82.5 -84q39 -21 61.5 -60zM216 684l-35 -250h109q66 0 104.5 44t38.5 110q0 43 -24.5 69.5t-75.5 26.5h-117zM336.5 99
q33.5 23 51.5 62t18 85q0 50 -27 81t-79 31h-130l-39 -282h126q46 0 79.5 23z" />
    <glyph glyph-name="Gamma" unicode="&#x393;" horiz-adv-x="437" 
d="M122 0h-87l106 760h342l-11 -76h-255z" />
    <glyph glyph-name="uni0394" unicode="&#x394;" horiz-adv-x="557" 
d="M516 0h-547l332 760h98zM416 76l-79 597l-247 -597h326z" />
    <glyph glyph-name="Epsilon" unicode="&#x395;" horiz-adv-x="488" 
d="M216 684l-35 -250h269l-11 -76h-269l-39 -282h276l-10 -76h-363l107 760h359l-11 -76h-273z" />
    <glyph glyph-name="Zeta" unicode="&#x396;" horiz-adv-x="521" 
d="M137 76h318l-10 -76h-451l424 684h-301l11 76h434z" />
    <glyph glyph-name="Eta" unicode="&#x397;" horiz-adv-x="594" 
d="M595 760l-107 -760h-86l50 358h-282l-50 -358h-86l107 760h86l-46 -326h282l46 326h86z" />
    <glyph glyph-name="Theta" unicode="&#x398;" horiz-adv-x="733" 
d="M189 30.5q-62 40.5 -96 115t-34 172.5q0 123 51 227t137.5 164.5t187.5 60.5q82 0 144 -40.5t96 -115t34 -172.5q0 -123 -51 -227t-137.5 -164.5t-187.5 -60.5q-82 0 -144 40.5zM480 118.5q65 51.5 103 138t38 185.5q0 75 -23 132t-66.5 88t-101.5 31q-77 0 -142 -51.5
t-103 -138t-38 -185.5q0 -75 23 -132t66.5 -88t101.5 -31q77 0 142 51.5zM250 434h279l-12 -76h-278z" />
    <glyph glyph-name="Iota" unicode="&#x399;" horiz-adv-x="226" 
d="M141 760h86l-107 -760h-86z" />
    <glyph glyph-name="Kappa" unicode="&#x39a;" horiz-adv-x="538" 
d="M327 431l160 -431h-86l-129 359l-124 -158l-28 -201h-86l107 760h86l-58 -410l315 410h100z" />
    <glyph glyph-name="Lambda" unicode="&#x39b;" horiz-adv-x="554" 
d="M423 0l-87 674l-277 -674h-90l330 760h98l116 -760h-90z" />
    <glyph glyph-name="Mu" unicode="&#x39c;" horiz-adv-x="754" 
d="M715 760l-42 -760h-85l44 641l-260 -641h-63l-79 641l-136 -641h-85l172 760h101l75 -629l252 629h106z" />
    <glyph glyph-name="Nu" unicode="&#x39d;" horiz-adv-x="595" 
d="M596 760l-107 -760h-85l-199 609l-86 -609h-85l107 760h85l199 -609l86 609h85z" />
    <glyph glyph-name="Xi" unicode="&#x39e;" horiz-adv-x="547" 
d="M122 760h454l-12 -76h-455zM102 435h405l-12 -76h-405zM15 76h480l-12 -76h-480z" />
    <glyph glyph-name="Omicron" unicode="&#x39f;" horiz-adv-x="733" 
d="M183.5 31.5q-61.5 41.5 -93.5 113.5t-32 162q0 121 48 227.5t135 171t197 64.5q84 0 145.5 -41t94 -113t32.5 -162q0 -123 -48 -229.5t-134.5 -170.5t-197.5 -64q-85 0 -146.5 41.5zM484.5 121.5q64.5 54.5 101 143t36.5 185.5q0 110 -51.5 176.5t-142.5 66.5
q-82 0 -146.5 -55t-100 -143.5t-35.5 -183.5q0 -110 51.5 -177t142.5 -67q80 0 144.5 54.5z" />
    <glyph glyph-name="Pi" unicode="&#x3a0;" horiz-adv-x="611" 
d="M141 760h470l-106 -760h-87l96 684h-297l-95 -684h-87z" />
    <glyph glyph-name="Rho" unicode="&#x3a1;" horiz-adv-x="557" 
d="M500.5 703.5q54.5 -56.5 54.5 -144.5q0 -93 -33 -165t-97 -113t-153 -41h-118l-34 -240h-86l107 760h203q102 0 156.5 -56.5zM415 380q52 64 52 168q0 68 -34.5 102t-109.5 34h-107l-52 -368h107q92 0 144 64z" />
    <glyph glyph-name="Sigma" unicode="&#x3a3;" horiz-adv-x="496" 
d="M233 409l-151 351h456l-12 -76h-324l120 -281l-206 -327h344l-12 -76h-474z" />
    <glyph glyph-name="Tau" unicode="&#x3a4;" horiz-adv-x="515" 
d="M550 684h-189l-96 -684h-86l96 684h-190l11 76h465z" />
    <glyph glyph-name="Upsilon" unicode="&#x3a5;" horiz-adv-x="495" 
d="M566 760l-433 -760h-93l183 322l-142 438h87l108 -346l197 346h93z" />
    <glyph glyph-name="Phi" unicode="&#x3a6;" horiz-adv-x="783" 
d="M720 267.5q-45 -76.5 -125 -120.5t-184 -51l-13 -96h-87l13 96q-78 6 -138.5 40t-94 91.5t-33.5 130.5q0 99 45.5 176.5t125.5 123t182 52.5l7 50h87l-7 -50q78 -7 138.5 -42t94.5 -92t34 -130q0 -102 -45 -178.5zM194 233q50 -52 141 -60l65 460q-76 -6 -134 -41
t-90 -93t-32 -132q0 -82 50 -134zM609.5 255.5q69.5 71.5 69.5 182.5q0 82 -51.5 133.5t-140.5 60.5l-65 -459q118 11 187.5 82.5z" />
    <glyph glyph-name="Chi" unicode="&#x3a7;" horiz-adv-x="515" 
d="M322 387l152 -387h-90l-115 310l-208 -310h-92l261 387l-145 373h89l109 -296l196 296h93z" />
    <glyph glyph-name="Psi" unicode="&#x3a8;" horiz-adv-x="685" 
d="M705 760l-34 -243q-19 -131 -91 -208t-197 -81l-32 -228h-87l32 230q-102 6 -157 66.5t-55 162.5q0 30 4 61l33 240h86l-31 -230q-4 -27 -4 -62q0 -152 135 -160l63 452h87l-63 -453q85 4 132 62t61 157l32 234h86z" />
    <glyph glyph-name="uni03A9" unicode="&#x3a9;" horiz-adv-x="748" 
d="M674.5 236.5q-46.5 -100.5 -127.5 -160.5h130l-11 -76h-263l10 62q73 32 122.5 94t73.5 137t24 148q0 69 -23.5 126.5t-70.5 91.5t-114 34q-79 0 -142 -47.5t-98.5 -130.5t-35.5 -187q0 -87 33 -159t101 -107l-11 -62h-257l12 76h131q-48 44 -72.5 108t-24.5 143
q0 127 49 228t134.5 158t189.5 57q87 0 152 -42.5t100 -116t35 -162.5q0 -112 -46.5 -212.5z" />
    <glyph glyph-name="Iotadieresis" unicode="&#x3aa;" horiz-adv-x="226" 
d="M141 760h86l-107 -760h-86zM79.5 884q-16.5 17 -16.5 41q0 25 16.5 42t41.5 17q24 0 41 -17t17 -42q0 -24 -17 -41t-41 -17q-25 0 -41.5 17zM246.5 884q-16.5 17 -16.5 41q0 25 16.5 42t41.5 17q24 0 40.5 -17t16.5 -42q0 -24 -16.5 -41t-40.5 -17q-25 0 -41.5 17z" />
    <glyph glyph-name="Upsilondieresis" unicode="&#x3ab;" horiz-adv-x="495" 
d="M566 760l-433 -760h-93l183 322l-142 438h87l108 -346l197 346h93zM246.5 884q-16.5 17 -16.5 41q0 25 16.5 42t41.5 17q24 0 41 -17t17 -42q0 -24 -17 -41t-41 -17q-25 0 -41.5 17zM413.5 884q-16.5 17 -16.5 41q0 25 16.5 42t41.5 17q24 0 40.5 -17t16.5 -42
q0 -24 -16.5 -41t-40.5 -17q-25 0 -41.5 17z" />
    <glyph glyph-name="alphatonos" unicode="&#x3ac;" horiz-adv-x="562" 
d="M478 74.5q9 -7.5 31 -7.5h7l-6 -75q-18 -2 -33 -2q-95 0 -95 81v14q-33 -46 -76.5 -70.5t-91.5 -24.5q-51 0 -90.5 28t-61 79t-21.5 118q0 86 34.5 157t89.5 112t114 41q56 0 95 -24.5t56 -69.5l12 84h82l-53 -380q-2 -11 -2 -30q0 -23 9 -30.5zM326.5 97
q38.5 32 61.5 85t23 113q0 70 -31.5 112.5t-84.5 42.5q-47 0 -85.5 -31t-61 -84t-22.5 -114q0 -71 31 -113.5t87 -42.5q44 0 82.5 32zM319 590h-63l84 170h104z" />
    <glyph glyph-name="epsilontonos" unicode="&#x3ad;" horiz-adv-x="430" 
d="M66 28q-43 39 -43 98q0 47 28 90t74 57v3q-25 5 -43 28.5t-18 54.5q0 45 25 83t70 60.5t102 22.5q65 0 107 -37t47 -91l-81 -18q-3 29 -23 49t-60 20q-52 0 -77 -25t-25 -58q0 -26 18 -40t40 -14h65l-10 -70h-53q-50 0 -75.5 -26.5t-25.5 -70.5q0 -34 23 -56t73 -22
q44 0 74 23.5t38 55.5l82 -9q-17 -67 -72.5 -107t-136.5 -40q-80 0 -123 39zM286 590h-63l84 170h104z" />
    <glyph glyph-name="etatonos" unicode="&#x3ae;" horiz-adv-x="515" 
d="M433.5 481q34.5 -44 34.5 -113q0 -15 -5 -53l-72 -510h-86l71 503q4 32 4 47q0 49 -19 73.5t-62 24.5q-54 0 -92.5 -50.5t-51.5 -113.5l-40 -289h-86l72 515h77l-4 -84q29 46 70 70t89 24q66 0 100.5 -44zM337 590h-63l84 170h104z" />
    <glyph glyph-name="iotatonos" unicode="&#x3af;" horiz-adv-x="233" 
d="M67 13q-23 23 -23 66q0 16 3 41l54 395h86l-51 -374q-3 -19 -3 -35q0 -24 9 -31.5t33 -7.5h7l-6 -75q-22 -2 -34 -2q-52 0 -75 23zM180 590h-63l84 170h104z" />
    <glyph glyph-name="upsilondieresistonos" unicode="&#x3b0;" horiz-adv-x="505" 
d="M95 34.5q-44 44.5 -44 130.5q0 27 4 59l42 291h85l-42 -299q-3 -24 -3 -45q0 -52 21.5 -79t68.5 -27q52 0 83.5 37.5t41.5 109.5l43 303h86l-43 -303q-16 -110 -70.5 -166t-146.5 -56q-82 0 -126 44.5zM290 760h104l-105 -170h-63zM136.5 639q-16.5 17 -16.5 41
q0 25 16.5 42t41.5 17q24 0 40.5 -17t16.5 -42q0 -24 -16.5 -41t-40.5 -17q-25 0 -41.5 17zM390.5 639q-16.5 17 -16.5 41q0 25 16.5 42t41.5 17q24 0 40.5 -17t16.5 -42q0 -24 -16.5 -41t-40.5 -17q-25 0 -41.5 17z" />
    <glyph glyph-name="alpha" unicode="&#x3b1;" horiz-adv-x="562" 
d="M478 74.5q9 -7.5 31 -7.5h7l-6 -75q-18 -2 -33 -2q-95 0 -95 81v14q-33 -46 -76.5 -70.5t-91.5 -24.5q-51 0 -90.5 28t-61 79t-21.5 118q0 86 34.5 157t89.5 112t114 41q56 0 95 -24.5t56 -69.5l12 84h82l-53 -380q-2 -11 -2 -30q0 -23 9 -30.5zM326.5 97
q38.5 32 61.5 85t23 113q0 70 -31.5 112.5t-84.5 42.5q-47 0 -85.5 -31t-61 -84t-22.5 -114q0 -71 31 -113.5t87 -42.5q44 0 82.5 32z" />
    <glyph glyph-name="beta" unicode="&#x3b2;" horiz-adv-x="529" 
d="M104 537q14 104 76 168.5t154 64.5q73 0 116 -42t43 -111q0 -64 -34 -111t-81 -60q49 -10 82 -56t33 -119q0 -69 -30 -134t-85 -106t-127 -41q-92 0 -126 84l-38 -269h-86zM330 91.5q36 26.5 57 73.5t21 106q0 70 -37 102t-92 32h-20l11 69h21q44 0 70.5 23.5t36.5 54
t10 54.5q0 44 -24 66.5t-61 22.5q-65 0 -96.5 -47t-40.5 -110l-41 -287q-2 -17 -2 -42q0 -61 27 -102.5t81 -41.5q43 0 79 26.5z" />
    <glyph glyph-name="gamma" unicode="&#x3b3;" horiz-adv-x="450" 
d="M476 515l-238 -469l-34 -241h-87l34 237l-105 473h84l77 -369l181 369h88z" />
    <glyph glyph-name="delta" unicode="&#x3b4;" horiz-adv-x="518" 
d="M122.5 16.5q-41.5 26.5 -63 72t-21.5 101.5q0 78 27 142t78 102t121 38q27 0 42 -2l-161 235l8 55h354l-11 -74h-244l148 -203q38 -53 55.5 -101.5t17.5 -107.5q0 -85 -32 -149.5t-89 -99.5t-130 -35q-58 0 -99.5 26.5zM313.5 95.5q35.5 28.5 55 74t19.5 96.5
q0 60 -26 101t-78 41q-50 0 -86.5 -31.5t-55.5 -80t-19 -97.5q0 -55 29 -93.5t80 -38.5q46 0 81.5 28.5z" />
    <glyph glyph-name="epsilon" unicode="&#x3b5;" horiz-adv-x="430" 
d="M66 28q-43 39 -43 98q0 47 28 90t74 57v3q-25 5 -43 28.5t-18 54.5q0 45 25 83t70 60.5t102 22.5q65 0 107 -37t47 -91l-81 -18q-3 29 -23 49t-60 20q-52 0 -77 -25t-25 -58q0 -26 18 -40t40 -14h65l-10 -70h-53q-50 0 -75.5 -26.5t-25.5 -70.5q0 -34 23 -56t73 -22
q44 0 74 23.5t38 55.5l82 -9q-17 -67 -72.5 -107t-136.5 -40q-80 0 -123 39z" />
    <glyph glyph-name="zeta" unicode="&#x3b6;" horiz-adv-x="383" 
d="M174 -124q65 82 65 109q0 8 -5.5 15.5t-20.5 16.5l-44 26q-54 32 -79.5 51t-40 46t-14.5 69q0 100 106 233.5t231 244.5h-254l17 73h349l-7 -46q-113 -114 -187.5 -197t-122 -158t-47.5 -129q0 -36 20.5 -62.5t70.5 -55.5l50 -29q41 -23 57 -41t16 -40q0 -37 -38.5 -88
t-69.5 -77z" />
    <glyph glyph-name="eta" unicode="&#x3b7;" horiz-adv-x="515" 
d="M433.5 481q34.5 -44 34.5 -113q0 -15 -5 -53l-72 -510h-86l71 503q4 32 4 47q0 49 -19 73.5t-62 24.5q-54 0 -92.5 -50.5t-51.5 -113.5l-40 -289h-86l72 515h77l-4 -84q29 46 70 70t89 24q66 0 100.5 -44z" />
    <glyph glyph-name="theta" unicode="&#x3b8;" horiz-adv-x="533" 
d="M468.5 700q43.5 -70 43.5 -193q0 -143 -33 -260.5t-97.5 -186.5t-154.5 -69q-88 0 -130 71.5t-42 191.5q0 134 31.5 252t95 191t154.5 73q89 0 132.5 -70zM219 621q-44 -74 -64 -188h270q2 44 2 66q0 90 -25 143t-77 53q-62 0 -106 -74zM351.5 148.5
q46.5 82.5 65.5 208.5h-273q-4 -62 -4 -91q0 -200 95 -200q70 0 116.5 82.5z" />
    <glyph glyph-name="iota" unicode="&#x3b9;" horiz-adv-x="233" 
d="M67 13q-23 23 -23 66q0 16 3 41l54 395h86l-51 -374q-3 -19 -3 -35q0 -24 9 -31.5t33 -7.5h7l-6 -75q-22 -2 -34 -2q-52 0 -75 23z" />
    <glyph glyph-name="kappa" unicode="&#x3ba;" horiz-adv-x="438" 
d="M274 319l128 -319h-90l-99 255l-73 -78l-25 -177h-86l72 515h86l-31 -220l204 220h97z" />
    <glyph glyph-name="lambda" unicode="&#x3bb;" horiz-adv-x="463" 
d="M432 63l-6 -70q-22 -3 -44 -3q-30 0 -49.5 19t-25.5 51l-60 322l-183 -382h-95l252 489l-29 158q-5 26 -12.5 35.5t-30.5 9.5h-14l5 75q20 3 46 3q33 0 52 -17.5t26 -55.5l120 -597q4 -23 12 -30t29 -7h7z" />
    <glyph glyph-name="uni03BC" unicode="&#x3bc;" horiz-adv-x="527" 
d="M498 515l-72 -515h-79l6 81q-31 -45 -74 -68.5t-92 -23.5q-42 0 -71 18l-28 -202h-86l49 351q2 23 4 33l46 326h86l-43 -305q-3 -22 -3 -42q0 -52 21.5 -79t62.5 -27q38 0 70 28.5t53 71t26 82.5l38 271h86z" />
    <glyph glyph-name="nu" unicode="&#x3bd;" horiz-adv-x="444" 
d="M480 515l-247 -515h-94l-103 515h87l72 -426l189 426h96z" />
    <glyph glyph-name="xi" unicode="&#x3be;" horiz-adv-x="415" 
d="M223 -135q20 32 37.5 67t17.5 50q0 17 -30 29l-51 19q-82 31 -124 74.5t-42 110.5q0 48 21.5 93t58.5 78.5t81 47.5q-47 15 -74 50t-27 81q0 62 31 108.5t80.5 71.5t103.5 25q70 0 113.5 -40.5t42.5 -105.5l-84 -9q1 33 -20 56.5t-63 23.5q-52 0 -85.5 -35t-33.5 -90
q0 -53 31 -77.5t79 -24.5h81l-11 -72h-89q-48 0 -82.5 -25.5t-52 -64.5t-17.5 -80q0 -43 27.5 -70.5t86.5 -50.5l59 -23q45 -18 62 -35t17 -42q0 -38 -31 -90t-57 -81z" />
    <glyph glyph-name="omicron" unicode="&#x3bf;" horiz-adv-x="534" 
d="M128 19q-43 29 -65.5 77.5t-22.5 106.5q0 86 32.5 160t93 118t139.5 44q58 0 101 -29t65.5 -77.5t22.5 -106.5q0 -86 -32.5 -160t-93 -118t-139.5 -44q-58 0 -101 29zM327.5 100q38.5 35 60 90.5t21.5 113.5q0 69 -30.5 107.5t-84.5 38.5q-49 0 -87.5 -35t-60 -90.5
t-21.5 -113.5q0 -69 30.5 -107.5t84.5 -38.5q49 0 87.5 35z" />
    <glyph glyph-name="pi" unicode="&#x3c0;" horiz-adv-x="531" 
d="M101 515h401l-72 -515h-86l62 442h-230l-61 -442h-86z" />
    <glyph glyph-name="rho" unicode="&#x3c1;" horiz-adv-x="552" 
d="M389 32q57 42 89.5 114t32.5 157q0 62 -22 112.5t-64.5 80t-102.5 29.5q-108 0 -177.5 -78t-86.5 -202l-62 -440h86l37 265q21 -38 59.5 -59t83.5 -21q70 0 127 42zM396.5 405.5q29.5 -42.5 29.5 -109.5q0 -66 -23 -118t-61 -81.5t-82 -29.5q-59 0 -87.5 41.5
t-28.5 105.5q0 63 21.5 117t60 85.5t84.5 31.5q57 0 86.5 -42.5z" />
    <glyph glyph-name="uni03C2" unicode="&#x3c2;" horiz-adv-x="455" 
d="M185 -124q26 32 46.5 63t20.5 46q0 8 -6 15.5t-22 16.5l-46 26q-72 41 -103 81t-31 109q0 85 32 151.5t87 103.5t123 37q74 0 117.5 -40.5t43.5 -105.5l-84 -9q-1 34 -20.5 56t-65.5 22q-38 0 -72 -24.5t-55 -73t-21 -115.5q0 -39 20.5 -65.5t70.5 -54.5l55 -31
q39 -22 54 -41.5t15 -43.5q0 -37 -37.5 -86t-69.5 -76z" />
    <glyph glyph-name="sigma" unicode="&#x3c3;" horiz-adv-x="520" 
d="M129.5 17.5q-42.5 27.5 -66 77.5t-23.5 113q0 89 33.5 159t93 109t133.5 39h246l-11 -73h-104q54 -53 54 -145q0 -89 -33 -159t-92 -109t-133 -39q-55 0 -97.5 27.5zM317 93q38 28 60.5 79.5t22.5 118.5q0 71 -29.5 110t-78.5 39q-44 0 -82.5 -28t-61.5 -79.5t-23 -118.5
q0 -71 30 -110t80 -39q44 0 82 28z" />
    <glyph glyph-name="tau" unicode="&#x3c4;" horiz-adv-x="366" 
d="M102 99q0 17 5 49l40 294h-116l16 73h330l-11 -73h-133l-40 -293q-4 -32 -4 -46q0 -22 11 -31t35 -9q30 0 67 15l-5 -70q-45 -18 -88 -18q-107 0 -107 109z" />
    <glyph glyph-name="upsilon" unicode="&#x3c5;" horiz-adv-x="505" 
d="M95 34.5q-44 44.5 -44 130.5q0 27 4 59l42 291h85l-42 -299q-3 -24 -3 -45q0 -52 21.5 -79t68.5 -27q52 0 83.5 37.5t41.5 109.5l43 303h86l-43 -303q-16 -110 -70.5 -166t-146.5 -56q-82 0 -126 44.5z" />
    <glyph glyph-name="phi" unicode="&#x3c6;" horiz-adv-x="651" 
d="M244 -11q-62 3 -108.5 35.5t-71 82.5t-24.5 106q0 111 60.5 189.5t157.5 103.5l14 -67q-69 -22 -108 -82t-39 -135q0 -69 33.5 -112.5t96.5 -46.5l63 452h71q101 0 160.5 -61.5t59.5 -163.5q0 -85 -37 -150.5t-100.5 -104t-141.5 -45.5l-26 -185h-86zM438.5 102.5
q41.5 31.5 63.5 80t22 104.5q0 65 -32 108.5t-98 47.5l-53 -379q56 7 97.5 38.5z" />
    <glyph glyph-name="chi" unicode="&#x3c7;" horiz-adv-x="428" 
d="M286 -189q-17 16 -27 53l-62 243l-170 -301h-95l236 394l-61 207q-7 24 -17.5 34.5t-32.5 10.5h-11l10 70q23 3 45 3q34 0 51 -17t27 -54l43 -173l132 234h96l-198 -327l82 -287q6 -21 15.5 -27.5t24.5 -6.5h9l-5 -69q-22 -3 -47 -3q-28 0 -45 16z" />
    <glyph glyph-name="psi" unicode="&#x3c8;" horiz-adv-x="626" 
d="M232 -8q-84 8 -132 57.5t-48 129.5q0 17 3 36l41 300h86l-41 -299q-2 -18 -2 -34q0 -48 26.5 -78t78.5 -37l62 448h86l-62 -448q62 9 99.5 47.5t45.5 101.5l41 299h86l-42 -303q-13 -99 -75.5 -155.5t-166.5 -64.5l-26 -187h-86z" />
    <glyph glyph-name="omega" unicode="&#x3c9;" horiz-adv-x="711" 
d="M75.5 42q-35.5 51 -35.5 138q0 144 60.5 236t177.5 109l2 -75q-73 -11 -114 -83.5t-41 -177.5q0 -56 18 -88.5t57 -32.5q41 0 69 39.5t35 87.5l20 150h86l-20 -150q-2 -16 -2 -25q0 -42 17.5 -72t52.5 -30q38 0 66.5 34t43.5 87.5t15 112.5q0 65 -24.5 104.5t-74.5 47.5
l25 71q76 -12 117.5 -73t41.5 -148q0 -82 -25 -153.5t-72.5 -115.5t-113.5 -44q-53 0 -85 31t-39 75q-21 -46 -59.5 -76t-92.5 -30q-70 0 -105.5 51z" />
    <glyph glyph-name="iotadieresis" unicode="&#x3ca;" horiz-adv-x="233" 
d="M67 13q-23 23 -23 66q0 16 3 41l54 395h86l-51 -374q-3 -19 -3 -35q0 -24 9 -31.5t33 -7.5h7l-6 -75q-22 -2 -34 -2q-52 0 -75 23zM41.5 639q-16.5 17 -16.5 41q0 25 16.5 42t41.5 17q24 0 41 -17t17 -42q0 -24 -17 -41t-41 -17q-25 0 -41.5 17zM208.5 639
q-16.5 17 -16.5 41q0 25 16.5 42t41.5 17q24 0 40.5 -17t16.5 -42q0 -24 -16.5 -41t-40.5 -17q-25 0 -41.5 17z" />
    <glyph glyph-name="upsilondieresis" unicode="&#x3cb;" horiz-adv-x="505" 
d="M95 34.5q-44 44.5 -44 130.5q0 27 4 59l42 291h85l-42 -299q-3 -24 -3 -45q0 -52 21.5 -79t68.5 -27q52 0 83.5 37.5t41.5 109.5l43 303h86l-43 -303q-16 -110 -70.5 -166t-146.5 -56q-82 0 -126 44.5zM183.5 639q-16.5 17 -16.5 41q0 25 16.5 42t41.5 17q24 0 41 -17
t17 -42q0 -24 -17 -41t-41 -17q-25 0 -41.5 17zM350.5 639q-16.5 17 -16.5 41q0 25 16.5 42t41.5 17q24 0 40.5 -17t16.5 -42q0 -24 -16.5 -41t-40.5 -17q-25 0 -41.5 17z" />
    <glyph glyph-name="omicrontonos" unicode="&#x3cc;" horiz-adv-x="534" 
d="M128 19q-43 29 -65.5 77.5t-22.5 106.5q0 86 32.5 160t93 118t139.5 44q58 0 101 -29t65.5 -77.5t22.5 -106.5q0 -86 -32.5 -160t-93 -118t-139.5 -44q-58 0 -101 29zM327.5 100q38.5 35 60 90.5t21.5 113.5q0 69 -30.5 107.5t-84.5 38.5q-49 0 -87.5 -35t-60 -90.5
t-21.5 -113.5q0 -69 30.5 -107.5t84.5 -38.5q49 0 87.5 35zM371 590h-63l84 170h104z" />
    <glyph glyph-name="upsilontonos" unicode="&#x3cd;" horiz-adv-x="505" 
d="M95 34.5q-44 44.5 -44 130.5q0 27 4 59l42 291h85l-42 -299q-3 -24 -3 -45q0 -52 21.5 -79t68.5 -27q52 0 83.5 37.5t41.5 109.5l43 303h86l-43 -303q-16 -110 -70.5 -166t-146.5 -56q-82 0 -126 44.5zM322 590h-63l84 170h104z" />
    <glyph glyph-name="omegatonos" unicode="&#x3ce;" horiz-adv-x="711" 
d="M75.5 42q-35.5 51 -35.5 138q0 144 60.5 236t177.5 109l2 -75q-73 -11 -114 -83.5t-41 -177.5q0 -56 18 -88.5t57 -32.5q41 0 69 39.5t35 87.5l20 150h86l-20 -150q-2 -16 -2 -25q0 -42 17.5 -72t52.5 -30q38 0 66.5 34t43.5 87.5t15 112.5q0 65 -24.5 104.5t-74.5 47.5
l25 71q76 -12 117.5 -73t41.5 -148q0 -82 -25 -153.5t-72.5 -115.5t-113.5 -44q-53 0 -85 31t-39 75q-21 -46 -59.5 -76t-92.5 -30q-70 0 -105.5 51zM426 590h-63l84 170h104z" />
    <glyph glyph-name="uni0400" unicode="&#x400;" horiz-adv-x="488" 
d="M216 684l-35 -250h269l-11 -76h-269l-39 -282h276l-10 -76h-363l107 760h359l-11 -76h-273zM260 1005l84 -170h-63l-125 170h104z" />
    <glyph glyph-name="uni0401" unicode="&#x401;" horiz-adv-x="488" 
d="M216 684l-35 -250h269l-11 -76h-269l-39 -282h276l-10 -76h-363l107 760h359l-11 -76h-273zM215.5 884q-16.5 17 -16.5 41q0 25 16.5 42t41.5 17q24 0 41 -17t17 -42q0 -24 -17 -41t-41 -17q-25 0 -41.5 17zM382.5 884q-16.5 17 -16.5 41q0 25 16.5 42t41.5 17
q24 0 40.5 -17t16.5 -42q0 -24 -16.5 -41t-40.5 -17q-25 0 -41.5 17z" />
    <glyph glyph-name="uni0402" unicode="&#x402;" horiz-adv-x="692" 
d="M559 460q47 -25 73 -69t26 -100q0 -77 -30 -141t-85 -106t-128 -54l-2 78q72 13 114.5 73.5t42.5 144.5q0 63 -36.5 93t-102.5 30h-135l-57 -409h-86l95 684h-163l12 76h466l-12 -76h-217l-27 -199h143q62 0 109 -25z" />
    <glyph glyph-name="uni0403" unicode="&#x403;" horiz-adv-x="432" 
d="M472 684h-256l-95 -684h-86l106 760h342zM359 835h-63l84 170h104z" />
    <glyph glyph-name="uni0404" unicode="&#x404;" horiz-adv-x="716" 
d="M189.5 33.5q-62.5 43.5 -97 117.5t-34.5 164q0 121 50.5 226t137.5 167t189 62q72 0 129.5 -33.5t93.5 -93.5t45 -137l-85 -7q-13 89 -63.5 141.5t-125.5 52.5q-64 0 -120 -37t-95.5 -100.5t-56.5 -140.5h326l-11 -76h-325q-1 -8 -1 -23q0 -73 23.5 -129.5t67 -88
t100.5 -31.5q77 0 143 53.5t104 142.5l85 -14q-48 -120 -137 -189.5t-199 -69.5q-81 0 -143.5 43.5z" />
    <glyph glyph-name="uni0405" unicode="&#x405;" horiz-adv-x="570" 
d="M92 46.5q-53 56.5 -53 155.5v16l86 3v-22q0 -76 39.5 -104.5t96.5 -28.5q45 0 82.5 20.5t59.5 57t22 83.5t-25 74t-69 46l-63 27q-152 65 -152 183q0 63 29.5 111.5t83 75t122.5 26.5q107 0 159.5 -62t50.5 -165l-87 -4v16q0 63 -34.5 100.5t-97.5 37.5q-62 0 -100 -37
t-38 -93q0 -39 23 -67t74 -50l64 -27q148 -63 148 -185q0 -73 -33 -128.5t-92 -85.5t-134 -30q-109 0 -162 56.5z" />
    <glyph glyph-name="uni0406" unicode="&#x406;" horiz-adv-x="226" 
d="M141 760h86l-107 -760h-86z" />
    <glyph glyph-name="uni0407" unicode="&#x407;" horiz-adv-x="226" 
d="M141 760h86l-107 -760h-86zM79.5 884q-16.5 17 -16.5 41q0 25 16.5 42t41.5 17q24 0 41 -17t17 -42q0 -24 -17 -41t-41 -17q-25 0 -41.5 17zM246.5 884q-16.5 17 -16.5 41q0 25 16.5 42t41.5 17q24 0 40.5 -17t16.5 -42q0 -24 -16.5 -41t-40.5 -17q-25 0 -41.5 17z" />
    <glyph glyph-name="uni0408" unicode="&#x408;" horiz-adv-x="506" 
d="M76 46q-48 56 -48 160l87 6q-1 -9 -1 -25q0 -59 26 -89.5t70 -30.5q50 0 90 42t51 123l75 528h86l-74 -525q-17 -119 -82 -182t-156 -63q-76 0 -124 56z" />
    <glyph glyph-name="uni0409" unicode="&#x409;" horiz-adv-x="912" 
d="M786.5 477.5q45.5 -27.5 68.5 -74.5t23 -106q0 -91 -33 -158t-93.5 -103t-142.5 -36h-216l97 694h-16l-414 -694h-91l453 760h163l-36 -255h128q64 0 109.5 -27.5zM740.5 135.5q49.5 59.5 49.5 159.5q0 63 -32.5 98.5t-99.5 35.5h-119l-49 -353h117q84 0 133.5 59.5z" />
    <glyph glyph-name="uni040A" unicode="&#x40a;" horiz-adv-x="901" 
d="M775.5 477.5q45.5 -27.5 68.5 -74.5t23 -106q0 -91 -33 -158t-93.5 -103t-142.5 -36h-216l50 358h-261l-50 -358h-86l106 760h86l-45 -326h261l45 326h86l-36 -255h128q64 0 109.5 -27.5zM729.5 135.5q49.5 59.5 49.5 159.5q0 63 -32.5 98.5t-99.5 35.5h-119l-49 -353
h117q84 0 133.5 59.5z" />
    <glyph glyph-name="uni040B" unicode="&#x40b;" horiz-adv-x="678" 
d="M589 435.5q51 -49.5 51 -132.5q0 -14 -4 -52l-34 -251h-86l32 235q5 38 5 57q0 64 -29.5 90.5t-96.5 26.5h-131l-57 -409h-86l95 684h-163l12 76h466l-12 -76h-217l-27 -199h141q90 0 141 -49.5z" />
    <glyph glyph-name="uni040C" unicode="&#x40c;" horiz-adv-x="538" 
d="M327 431l160 -431h-86l-129 359l-124 -158l-28 -201h-86l107 760h86l-58 -410l315 410h100zM382 835h-63l84 170h104z" />
    <glyph glyph-name="uni040D" unicode="&#x40d;" horiz-adv-x="604" 
d="M604 760l-106 -760h-86l83 593l-374 -593h-86l106 760h86l-83 -592l374 592h86zM308 1005l84 -170h-63l-125 170h104z" />
    <glyph glyph-name="uni040E" unicode="&#x40e;" horiz-adv-x="495" 
d="M566 760l-411 -760h-91l157 291l-140 469h86l107 -373l201 373h91zM248 880q-34 47 -34 125h60q0 -55 20.5 -80t60.5 -25q33 0 57 25.5t34 79.5h60q-11 -90 -54.5 -131t-106.5 -41t-97 47z" />
    <glyph glyph-name="uni040F" unicode="&#x40f;" horiz-adv-x="587" 
d="M587 760l-106 -760h-177l-26 -150h-76l15 150h-182l106 760h86l-95 -684h274l95 684h86z" />
    <glyph glyph-name="uni0410" unicode="&#x410;" horiz-adv-x="530" 
d="M386 136h-270l-53 -136h-94l318 760h98l104 -760h-88zM377 212l-51 457l-180 -457h231z" />
    <glyph glyph-name="uni0411" unicode="&#x411;" horiz-adv-x="554" 
d="M216 684l-25 -179h127q62 0 107.5 -27.5t70 -75t24.5 -105.5q0 -92 -33.5 -159t-95 -102.5t-141.5 -35.5h-215l106 760h395l-11 -76h-309zM181 429l-49 -353h117q86 0 134.5 59t48.5 159q0 64 -32.5 99.5t-100.5 35.5h-118z" />
    <glyph glyph-name="uni0412" unicode="&#x412;" horiz-adv-x="528" 
d="M471.5 339q22.5 -39 22.5 -86q0 -71 -30 -128.5t-85.5 -91t-127.5 -33.5h-217l107 760h207q82 0 127.5 -45t45.5 -114q0 -65 -28.5 -118t-82.5 -84q39 -21 61.5 -60zM216 684l-35 -250h109q66 0 104.5 44t38.5 110q0 43 -24.5 69.5t-75.5 26.5h-117zM336.5 99
q33.5 23 51.5 62t18 85q0 50 -27 81t-79 31h-130l-39 -282h126q46 0 79.5 23z" />
    <glyph glyph-name="uni0413" unicode="&#x413;" horiz-adv-x="432" 
d="M472 684h-256l-95 -684h-86l106 760h342z" />
    <glyph glyph-name="uni0414" unicode="&#x414;" horiz-adv-x="604" 
d="M568 76l-32 -216h-77l16 140h-419l-26 -140h-76l31 216h51l287 684h97l94 -684h54zM427 76l-67 584l-231 -584h298z" />
    <glyph glyph-name="uni0415" unicode="&#x415;" horiz-adv-x="488" 
d="M216 684l-35 -250h269l-11 -76h-269l-39 -282h276l-10 -76h-363l107 760h359l-11 -76h-273z" />
    <glyph glyph-name="uni0416" unicode="&#x416;" horiz-adv-x="812" 
d="M614 449l152 -449h-85l-124 378l-110 -137l-34 -241h-86l36 259l-68 131l-228 -390h-93l278 471l-150 289h88l190 -378l53 378h86l-53 -380l299 380h100z" />
    <glyph glyph-name="uni0417" unicode="&#x417;" horiz-adv-x="503" 
d="M448 339.5q21 -41.5 21 -86.5q0 -79 -32.5 -138.5t-90 -92t-132.5 -32.5q-96 0 -147 50t-51 131q0 15 2 37l84 4q-2 -20 -2 -31q0 -53 29 -84t88 -31q47 0 84.5 22.5t58.5 64.5t21 97q0 53 -27 83t-82 30h-106l11 76h82q42 0 76 20.5t53.5 57.5t19.5 84q0 41 -25 67
t-78 26q-65 0 -100.5 -37.5t-44.5 -97.5l-83 9q13 88 74 145t162 57q58 0 99 -22t62.5 -59.5t21.5 -83.5q0 -65 -28.5 -119t-77.5 -82q37 -23 58 -64.5z" />
    <glyph glyph-name="uni0418" unicode="&#x418;" horiz-adv-x="604" 
d="M604 760l-106 -760h-86l83 593l-374 -593h-86l106 760h86l-83 -592l374 592h86z" />
    <glyph glyph-name="uni0419" unicode="&#x419;" horiz-adv-x="604" 
d="M604 760l-106 -760h-86l83 593l-374 -593h-86l106 760h86l-83 -592l374 592h86zM290 880q-34 47 -34 125h60q0 -55 20.5 -80t60.5 -25q33 0 57 25.5t34 79.5h60q-11 -90 -54.5 -131t-106.5 -41t-97 47z" />
    <glyph glyph-name="uni041A" unicode="&#x41a;" horiz-adv-x="538" 
d="M327 431l160 -431h-86l-129 359l-124 -158l-28 -201h-86l107 760h86l-58 -410l315 410h100z" />
    <glyph glyph-name="uni041B" unicode="&#x41b;" horiz-adv-x="530" 
d="M404 0l-80 663l-264 -663h-91l317 760h98l105 -760h-85z" />
    <glyph glyph-name="uni041C" unicode="&#x41c;" horiz-adv-x="754" 
d="M715 760l-42 -760h-85l44 641l-260 -641h-63l-79 641l-136 -641h-85l172 760h101l75 -629l252 629h106z" />
    <glyph glyph-name="uni041D" unicode="&#x41d;" horiz-adv-x="594" 
d="M595 760l-107 -760h-86l50 358h-282l-50 -358h-86l107 760h86l-46 -326h282l46 326h86z" />
    <glyph glyph-name="uni041E" unicode="&#x41e;" horiz-adv-x="733" 
d="M183.5 31.5q-61.5 41.5 -93.5 113.5t-32 162q0 121 48 227.5t135 171t197 64.5q84 0 145.5 -41t94 -113t32.5 -162q0 -123 -48 -229.5t-134.5 -170.5t-197.5 -64q-85 0 -146.5 41.5zM484.5 121.5q64.5 54.5 101 143t36.5 185.5q0 110 -51.5 176.5t-142.5 66.5
q-82 0 -146.5 -55t-100 -143.5t-35.5 -183.5q0 -110 51.5 -177t142.5 -67q80 0 144.5 54.5z" />
    <glyph glyph-name="uni041F" unicode="&#x41f;" horiz-adv-x="587" 
d="M481 0h-86l95 684h-274l-95 -684h-86l106 760h446z" />
    <glyph glyph-name="uni0420" unicode="&#x420;" horiz-adv-x="557" 
d="M500.5 703.5q54.5 -56.5 54.5 -144.5q0 -93 -33 -165t-97 -113t-153 -41h-118l-34 -240h-86l107 760h203q102 0 156.5 -56.5zM415 380q52 64 52 168q0 68 -34.5 102t-109.5 34h-107l-52 -368h107q92 0 144 64z" />
    <glyph glyph-name="uni0421" unicode="&#x421;" horiz-adv-x="716" 
d="M618.5 699q68.5 -71 87.5 -190l-88 -10q-12 91 -60 142.5t-130 51.5t-146.5 -55t-100 -143.5t-35.5 -183.5q0 -110 51.5 -177t142.5 -67q77 0 144.5 54.5t100.5 141.5l85 -11q-47 -124 -135.5 -193t-204.5 -69q-85 0 -146.5 41.5t-93.5 113.5t-32 162q0 121 48 227.5
t135 171t197 64.5q112 0 180.5 -71z" />
    <glyph glyph-name="uni0422" unicode="&#x422;" horiz-adv-x="515" 
d="M550 684h-189l-96 -684h-86l96 684h-190l11 76h465z" />
    <glyph glyph-name="uni0423" unicode="&#x423;" horiz-adv-x="495" 
d="M566 760l-411 -760h-91l157 291l-140 469h86l107 -373l201 373h91z" />
    <glyph glyph-name="uni0424" unicode="&#x424;" horiz-adv-x="737" 
d="M676 248q-41 -79 -116 -122.5t-173 -45.5l-13 -90h-86l13 90q-72 3 -127.5 33.5t-87 85t-31.5 127.5q0 107 41 186t116 122.5t173 45.5l13 90h86l-13 -90q72 -3 127.5 -33.5t87 -85t31.5 -127.5q0 -107 -41 -186zM567.5 234q61.5 73 61.5 199q0 164 -169 170l-62 -446
q108 4 169.5 77zM374 603q-108 -4 -169.5 -77t-61.5 -199q0 -164 169 -170z" />
    <glyph glyph-name="uni0425" unicode="&#x425;" horiz-adv-x="515" 
d="M322 387l152 -387h-90l-115 310l-208 -310h-92l261 387l-145 373h89l109 -296l196 296h93z" />
    <glyph glyph-name="uni0426" unicode="&#x426;" horiz-adv-x="586" 
d="M555 76l-32 -216h-76l14 140h-427l107 760h86l-96 -684h269l96 684h86l-96 -684h69z" />
    <glyph glyph-name="uni0427" unicode="&#x427;" horiz-adv-x="544" 
d="M544 760l-106 -760h-86l41 294h-112q-59 0 -105 26t-71.5 74.5t-25.5 112.5q0 22 3 46l29 207h86l-29 -208q-3 -24 -3 -44q0 -70 33.5 -104t103.5 -34h102l54 390h86z" />
    <glyph glyph-name="uni0428" unicode="&#x428;" horiz-adv-x="851" 
d="M851 760l-106 -760h-710l106 760h86l-95 -684h226l95 684h86l-95 -684h226l95 684h86z" />
    <glyph glyph-name="uni0429" unicode="&#x429;" horiz-adv-x="855" 
d="M824 76l-31 -216h-75l14 140h-697l106 760h86l-95 -684h226l95 684h86l-95 -684h226l95 684h86l-95 -684h68z" />
    <glyph glyph-name="uni042A" unicode="&#x42a;" horiz-adv-x="652" 
d="M526.5 477.5q45.5 -27.5 68.5 -74.5t23 -106q0 -91 -33 -158t-93.5 -103t-142.5 -36h-216l95 684h-143l12 76h228l-36 -255h128q64 0 109.5 -27.5zM480.5 135.5q49.5 59.5 49.5 159.5q0 63 -32.5 98.5t-99.5 35.5h-119l-49 -353h117q84 0 133.5 59.5z" />
    <glyph glyph-name="uni042B" unicode="&#x42b;" horiz-adv-x="751" 
d="M428.5 477.5q45.5 -27.5 68.5 -74.5t23 -106q0 -91 -33 -158t-93.5 -103t-142.5 -36h-216l106 760h86l-36 -255h128q64 0 109.5 -27.5zM752 760l-107 -760h-85l106 760h86zM382.5 135.5q49.5 59.5 49.5 159.5q0 63 -32.5 98.5t-99.5 35.5h-119l-49 -353h117
q84 0 133.5 59.5z" />
    <glyph glyph-name="uni042C" unicode="&#x42c;" horiz-adv-x="554" 
d="M428.5 477.5q45.5 -27.5 68.5 -74.5t23 -106q0 -91 -33 -158t-93.5 -103t-142.5 -36h-216l106 760h86l-36 -255h128q64 0 109.5 -27.5zM382.5 135.5q49.5 59.5 49.5 159.5q0 63 -32.5 98.5t-99.5 35.5h-119l-49 -353h117q84 0 133.5 59.5z" />
    <glyph glyph-name="uni042D" unicode="&#x42d;" horiz-adv-x="716" 
d="M560.5 726.5q62.5 -43.5 97 -117.5t34.5 -164q0 -121 -50.5 -226t-137.5 -167t-189 -62q-72 0 -129.5 33.5t-93.5 93.5t-45 137l85 7q13 -89 63.5 -141.5t125.5 -52.5q64 0 120 37t95.5 100.5t56.5 140.5h-326l11 76h325q1 8 1 23q0 73 -23.5 129.5t-67 88t-100.5 31.5
q-77 0 -143 -53.5t-104 -142.5l-85 14q48 120 137 189.5t199 69.5q81 0 143.5 -43.5z" />
    <glyph glyph-name="uni042E" unicode="&#x42e;" horiz-adv-x="929" 
d="M776 729q61 -41 95 -114t34 -165q0 -124 -48.5 -229.5t-132 -168t-184.5 -62.5q-77 0 -138 41t-95 114t-34 165q0 16 2 48h-104l-50 -358h-86l106 760h86l-45 -326h104q22 96 72.5 172.5t123 120t156.5 43.5q77 0 138 -41zM682.5 120.5q62.5 53.5 98.5 142t36 187.5
q0 73 -23.5 128t-65 85t-95.5 30q-75 0 -137.5 -53.5t-98.5 -142t-36 -187.5q0 -73 23.5 -128t65 -85t95.5 -30q75 0 137.5 53.5z" />
    <glyph glyph-name="uni042F" unicode="&#x42f;" horiz-adv-x="554" 
d="M448 0h-86l33 240h-128h-1l-147 -240h-100l158 258q-53 23 -81.5 73.5t-28.5 118.5q0 94 33 164t94 108t145 38h215zM457 684h-116q-87 0 -136.5 -63t-49.5 -166q0 -66 32.5 -102.5t100.5 -36.5h118z" />
    <glyph glyph-name="uni0430" unicode="&#x430;" horiz-adv-x="553" 
d="M524 515l-72 -515h-77l7 85q-31 -47 -74 -71t-90 -24q-53 0 -94 29t-63 78.5t-22 109.5q0 79 33.5 152.5t90.5 119.5t125 46q48 0 85 -25.5t55 -69.5l12 85h84zM328.5 99q38.5 34 60.5 88t22 111q0 67 -31.5 109.5t-84.5 42.5q-49 0 -88.5 -34t-61 -88.5t-21.5 -112.5
q0 -69 31 -109.5t87 -40.5q48 0 86.5 34z" />
    <glyph glyph-name="uni0431" unicode="&#x431;" horiz-adv-x="534" 
d="M265.5 647.5q-44.5 -28.5 -71 -80t-45.5 -133.5q58 91 163 91q55 0 96 -28t63 -78.5t22 -114.5q0 -88 -34.5 -160t-94.5 -113t-134 -41q-84 0 -133.5 61t-49.5 181q0 46 10 111q20 137 56 224t101 134t167 52l138 7l-18 -76l-121 -5q-70 -3 -114.5 -31.5zM209.5 418.5
q-39.5 -31.5 -62 -85.5t-22.5 -118q0 -71 31 -110.5t82 -39.5q49 0 88 33.5t60.5 88.5t21.5 116q0 69 -30.5 108t-80.5 39q-48 0 -87.5 -31.5z" />
    <glyph glyph-name="uni0432" unicode="&#x432;" horiz-adv-x="425" 
d="M371 230.5q15 -26.5 15 -60.5q0 -75 -48 -122.5t-131 -47.5h-178l72 515h172q63 0 96.5 -31.5t33.5 -80.5q0 -43 -19 -78t-57 -53q29 -15 44 -41.5zM176 445l-19 -139h73q39 0 63.5 26t24.5 65q0 48 -59 48h-83zM276 98.5q26 28.5 26 75.5q0 29 -17 45.5t-52 16.5h-86
l-23 -166h83q43 0 69 28.5z" />
    <glyph glyph-name="uni0433" unicode="&#x433;" horiz-adv-x="340" 
d="M350 442h-174l-62 -442h-85l72 515h260z" />
    <glyph glyph-name="uni0434" unicode="&#x434;" horiz-adv-x="494" 
d="M458 73l-30 -203h-77l13 130h-305l-26 -130h-77l30 203h44l205 442h95l81 -442h47zM330 73l-56 360l-156 -360h212z" />
    <glyph glyph-name="uni0435" unicode="&#x435;" horiz-adv-x="522" 
d="M127 214v-3q0 -69 30.5 -107.5t84.5 -38.5q43 0 78 26t56 70l83 -10q-33 -76 -91.5 -118.5t-138.5 -42.5q-58 0 -101 29t-65.5 77.5t-22.5 106.5q0 86 32 160t91.5 118t137.5 44q88 0 135 -60.5t47 -153.5q0 -16 -3 -42.5t-6 -45.5h-347v-9zM194 405.5
q-40 -44.5 -57 -112.5h261q1 8 1 23q0 66 -27.5 100t-81.5 34q-56 0 -96 -44.5z" />
    <glyph glyph-name="uni0436" unicode="&#x436;" horiz-adv-x="628" 
d="M464 317l123 -317h-86l-95 254l-60 -65l-26 -189h-83l29 201l-35 53l-166 -254h-96l215 327l-123 188h91l129 -204l29 204h82l-29 -208l178 208h105z" />
    <glyph glyph-name="uni0437" unicode="&#x437;" horiz-adv-x="377" 
d="M318.5 230q18.5 -28 18.5 -66q0 -77 -48.5 -125.5t-138.5 -48.5q-72 0 -112 36t-40 91q0 16 1 24l81 2q-1 -5 -1 -16q0 -32 18.5 -49.5t55.5 -17.5q46 0 74.5 29t28.5 76q0 29 -19.5 47.5t-58.5 18.5h-57l10 73h47q42 0 69 27t27 68q0 26 -16 41t-49 15
q-40 0 -63.5 -21.5t-28.5 -57.5l-77 7q10 65 53.5 103.5t121.5 38.5q65 0 102.5 -34t37.5 -85q0 -41 -23 -79t-63 -55q31 -14 49.5 -42z" />
    <glyph glyph-name="uni0438" unicode="&#x438;" horiz-adv-x="484" 
d="M455 515l-72 -515h-85l51 367l-235 -367h-85l72 515h85l-51 -367l235 367h85z" />
    <glyph glyph-name="uni0439" unicode="&#x439;" horiz-adv-x="484" 
d="M455 515l-72 -515h-85l51 367l-235 -367h-85l72 515h85l-51 -367l235 367h85zM205 635q-34 47 -34 125h60q0 -55 20.5 -80t60.5 -25q33 0 57 25.5t34 79.5h60q-11 -90 -54.5 -131t-106.5 -41t-97 47z" />
    <glyph glyph-name="uni043A" unicode="&#x43a;" horiz-adv-x="426" 
d="M251 294l134 -294h-84l-107 233l-56 -60l-24 -173h-85l72 515h85l-30 -214l194 214h106z" />
    <glyph glyph-name="uni043B" unicode="&#x43b;" horiz-adv-x="438" 
d="M314 0l-67 433l-188 -433h-90l239 515h95l94 -515h-83z" />
    <glyph glyph-name="uni043C" unicode="&#x43c;" horiz-adv-x="556" 
d="M517 515l-27 -515h-80l20 365l-161 -365h-53l-57 366l-83 -366h-82l117 515h91l58 -371l166 371h91z" />
    <glyph glyph-name="uni043D" unicode="&#x43d;" horiz-adv-x="484" 
d="M455 515l-72 -515h-85l33 233h-184l-33 -233h-85l72 515h85l-29 -209h184l29 209h85z" />
    <glyph glyph-name="uni043E" unicode="&#x43e;" horiz-adv-x="534" 
d="M128 19q-43 29 -65.5 77.5t-22.5 106.5q0 86 32.5 160t93 118t139.5 44q58 0 101 -29t65.5 -77.5t22.5 -106.5q0 -86 -32.5 -160t-93 -118t-139.5 -44q-58 0 -101 29zM327.5 100q38.5 35 60 90.5t21.5 113.5q0 69 -30.5 107.5t-84.5 38.5q-49 0 -87.5 -35t-60 -90.5
t-21.5 -113.5q0 -69 30.5 -107.5t84.5 -38.5q49 0 87.5 35z" />
    <glyph glyph-name="uni043F" unicode="&#x43f;" horiz-adv-x="481" 
d="M380 0h-85l62 442h-181l-62 -442h-85l72 515h351z" />
    <glyph glyph-name="uni0440" unicode="&#x440;" horiz-adv-x="553" 
d="M429 496q41 -29 63 -78.5t22 -109.5q0 -79 -33.5 -152.5t-90.5 -119.5t-125 -46q-48 0 -85 25.5t-55 69.5l-39 -280h-85l100 710h78l-7 -85q31 47 74 71t89 24q53 0 94 -29zM346.5 99q39.5 34 61 88.5t21.5 112.5q0 69 -31 109.5t-87 40.5q-48 0 -86.5 -34t-60.5 -88
t-22 -111q0 -67 31.5 -109.5t84.5 -42.5q49 0 88.5 34z" />
    <glyph glyph-name="uni0441" unicode="&#x441;" horiz-adv-x="517" 
d="M128 19q-43 29 -65.5 77.5t-22.5 106.5q0 86 32.5 160t93 118t139.5 44q78 0 125 -46t58 -127l-85 -9q-7 52 -34.5 79.5t-74.5 27.5q-49 0 -87.5 -35t-60 -90.5t-21.5 -113.5q0 -69 30.5 -107.5t84.5 -38.5q45 0 83.5 31.5t59.5 83.5l82 -9q-33 -88 -93 -134.5
t-143 -46.5q-58 0 -101 29z" />
    <glyph glyph-name="uni0442" unicode="&#x442;" horiz-adv-x="379" 
d="M389 442h-129l-62 -442h-85l62 442h-134l11 73h348z" />
    <glyph glyph-name="uni0443" unicode="&#x443;" 
d="M478 515l-66 -468q-17 -119 -77 -185.5t-155 -66.5q-65 0 -105.5 32.5t-53.5 85.5l84 16q5 -31 26 -47.5t57 -16.5q59 0 93 45.5t46 135.5l4 30q-29 -40 -67 -60.5t-81 -20.5q-67 0 -101 43.5t-34 111.5q0 21 3 42l45 323h85l-42 -303q-4 -34 -4 -49q0 -46 20 -71t66 -25
q50 0 83.5 45.5t46.5 106.5l42 296h85z" />
    <glyph glyph-name="uni0444" unicode="&#x444;" horiz-adv-x="622" 
d="M547 144.5q-34 -71.5 -94.5 -113t-136.5 -41.5l-26 -185h-85l26 185q-52 1 -95.5 29.5t-69 78.5t-25.5 113q0 88 34 159.5t94.5 113t136.5 41.5l33 235h85l-33 -235q52 -1 95.5 -29.5t69 -78.5t25.5 -113q0 -88 -34 -159.5zM414 100q39 34 60.5 88t21.5 115
q0 68 -31.5 107t-84.5 40l-54 -385q49 1 88 35zM295 450q-49 -1 -87.5 -35t-60 -88t-21.5 -115q0 -68 31.5 -107t83.5 -40z" />
    <glyph glyph-name="uni0445" unicode="&#x445;" horiz-adv-x="420" 
d="M257 264l122 -264h-88l-84 196l-138 -196h-100l198 268l-118 247l92 2l76 -182l126 180h100z" />
    <glyph glyph-name="uni0446" unicode="&#x446;" horiz-adv-x="485" 
d="M419 -130h-76l13 130h-327l72 515h85l-62 -442h176l62 442h85l-62 -442h64z" />
    <glyph glyph-name="uni0447" unicode="&#x447;" horiz-adv-x="436" 
d="M407 515l-73 -515h-85l27 190h-68q-71 0 -112.5 41t-41.5 108q0 19 3 35l20 141h85l-20 -140q-2 -14 -2 -28q0 -84 83 -84h63l36 252h85z" />
    <glyph glyph-name="uni0448" unicode="&#x448;" horiz-adv-x="682" 
d="M653 515l-73 -515h-551l72 515h84l-62 -442h150l62 442h84l-62 -442h150l62 442h84z" />
    <glyph glyph-name="uni0449" unicode="&#x449;" horiz-adv-x="690" 
d="M654 73l-30 -203h-73l13 130h-535l72 515h85l-62 -442h149l62 442h84l-62 -442h149l62 442h85l-63 -442h64z" />
    <glyph glyph-name="uni044A" unicode="&#x44a;" horiz-adv-x="489" 
d="M412 317q42 -42 42 -106q0 -101 -56 -156t-149 -55h-166l62 443h-104l11 72h188l-22 -156h84q68 0 110 -42zM336 109q33 36 33 95q0 38 -22 60t-66 22h-73l-30 -213h70q55 0 88 36z" />
    <glyph glyph-name="uni044B" unicode="&#x44b;" horiz-adv-x="630" 
d="M358 317q42 -42 42 -106q0 -101 -56 -156t-149 -55h-166l72 515h85l-22 -156h84q68 0 110 -42zM601 515l-72 -515h-85l72 515h85zM282 109q33 36 33 95q0 38 -22 60t-66 22h-73l-30 -213h70q55 0 88 36z" />
    <glyph glyph-name="uni044C" unicode="&#x44c;" horiz-adv-x="435" 
d="M358 317q42 -42 42 -106q0 -101 -56 -156t-149 -55h-166l72 515h85l-22 -156h84q68 0 110 -42zM282 109q33 36 33 95q0 38 -22 60t-66 22h-73l-30 -213h70q55 0 88 36z" />
    <glyph glyph-name="uni044D" unicode="&#x44d;" horiz-adv-x="528" 
d="M394.5 496.5q44.5 -28.5 68.5 -78.5t24 -114q0 -88 -34 -160t-94 -113t-134 -41q-80 0 -132 53t-59 140l81 5q6 -58 36.5 -90.5t76.5 -32.5q59 0 102.5 44.5t61.5 114.5h-202l11 72h201v7q0 69 -31.5 108t-84.5 39q-47 0 -86.5 -32.5t-62.5 -89.5l-82 12
q32 88 94.5 136.5t140.5 48.5q60 0 104.5 -28.5z" />
    <glyph glyph-name="uni044E" unicode="&#x44e;" horiz-adv-x="701" 
d="M570 496.5q43 -28.5 67 -78.5t24 -115q0 -85 -34 -157t-93.5 -114t-131.5 -42q-57 0 -100 28.5t-67 78.5t-24 115q0 14 1 21h-65l-33 -233h-85l72 515h85l-29 -211h65q24 98 91.5 159.5t156.5 61.5q57 0 100 -28.5zM493.5 98.5q38.5 33.5 60.5 88.5t22 117
q0 68 -30.5 107t-80.5 39q-48 0 -86.5 -33.5t-60.5 -88.5t-22 -117q0 -68 30.5 -107t80.5 -39q48 0 86.5 33.5z" />
    <glyph glyph-name="uni044F" unicode="&#x44f;" horiz-adv-x="444" 
d="M343 0h-84l21 146h-85h-13l-78 -146h-93l96 168q-63 38 -63 128q0 103 53.5 161t152.5 58h165zM290 219l32 223h-72q-58 0 -90 -38.5t-32 -101.5q0 -39 21.5 -61t65.5 -22h75z" />
    <glyph glyph-name="uni0450" unicode="&#x450;" horiz-adv-x="522" 
d="M127 214v-3q0 -69 30.5 -107.5t84.5 -38.5q43 0 78 26t56 70l83 -10q-33 -76 -91.5 -118.5t-138.5 -42.5q-58 0 -101 29t-65.5 77.5t-22.5 106.5q0 86 32 160t91.5 118t137.5 44q88 0 135 -60.5t47 -153.5q0 -16 -3 -42.5t-6 -45.5h-347v-9zM194 405.5
q-40 -44.5 -57 -112.5h261q1 8 1 23q0 66 -27.5 100t-81.5 34q-56 0 -96 -44.5zM236 760l84 -170h-63l-125 170h104z" />
    <glyph glyph-name="uni0451" unicode="&#x451;" horiz-adv-x="522" 
d="M127 214v-3q0 -69 30.5 -107.5t84.5 -38.5q43 0 78 26t56 70l83 -10q-33 -76 -91.5 -118.5t-138.5 -42.5q-58 0 -101 29t-65.5 77.5t-22.5 106.5q0 86 32 160t91.5 118t137.5 44q88 0 135 -60.5t47 -153.5q0 -16 -3 -42.5t-6 -45.5h-347v-9zM194 405.5
q-40 -44.5 -57 -112.5h261q1 8 1 23q0 66 -27.5 100t-81.5 34q-56 0 -96 -44.5zM191.5 639q-16.5 17 -16.5 41q0 25 16.5 42t41.5 17q24 0 41 -17t17 -42q0 -24 -17 -41t-41 -17q-25 0 -41.5 17zM358.5 639q-16.5 17 -16.5 41q0 25 16.5 42t41.5 17q24 0 40.5 -17t16.5 -42
q0 -24 -16.5 -41t-40.5 -17q-25 0 -41.5 17z" />
    <glyph glyph-name="uni0452" unicode="&#x452;" horiz-adv-x="557" 
d="M476 481.5q34 -43.5 34 -111.5q0 -21 -3 -42l-54 -372q-13 -88 -51 -124.5t-97 -36.5q-49 0 -83 15l16 72q33 -12 60 -12q34 0 50 21.5t24 80.5l47 336q4 34 4 49q0 46 -20 71t-66 25q-55 0 -91 -48t-49 -112l-41 -293h-85l86 613h-92l10 70h92l11 77h85l-11 -77h161
l-10 -70h-161l-24 -174q30 42 70.5 64t86.5 22q67 0 101 -43.5z" />
    <glyph glyph-name="uni0453" unicode="&#x453;" horiz-adv-x="340" 
d="M350 442h-174l-62 -442h-85l72 515h260zM262 590h-63l84 170h104z" />
    <glyph glyph-name="uni0454" unicode="&#x454;" horiz-adv-x="528" 
d="M133.5 18.5q-44.5 28.5 -68.5 78.5t-24 114q0 88 34 160t94 113t134 41q80 0 132 -53t59 -140l-81 -5q-6 58 -36.5 90.5t-76.5 32.5q-59 0 -102.5 -44.5t-61.5 -114.5h202l-11 -72h-201v-7q0 -69 31.5 -108t84.5 -39q47 0 86.5 32.5t62.5 89.5l82 -12
q-32 -88 -94.5 -136.5t-140.5 -48.5q-60 0 -104.5 28.5z" />
    <glyph glyph-name="uni0455" unicode="&#x455;" horiz-adv-x="430" 
d="M62 34.5q-42 44.5 -42 115.5l84 10q-3 -48 16.5 -72t72.5 -24q42 0 71.5 22.5t29.5 65.5q0 30 -19 47t-65 36l-17 7q-119 50 -119 141q0 63 48.5 102.5t129.5 39.5q70 0 114 -41.5t46 -107.5l-85 -10q0 86 -83 86q-32 0 -58.5 -20.5t-26.5 -51.5q0 -20 15.5 -36.5
t54.5 -32.5l20 -8q64 -26 97.5 -59.5t33.5 -81.5q0 -80 -54.5 -126t-139.5 -46q-82 0 -124 44.5z" />
    <glyph glyph-name="uni0456" unicode="&#x456;" horiz-adv-x="226" 
d="M126 632q-19 19 -19 46q0 28 19 47t46 19t46 -19t19 -47q0 -27 -19 -46t-46 -19t-46 19zM107 515h85l-72 -515h-85z" />
    <glyph glyph-name="uni0457" unicode="&#x457;" horiz-adv-x="215" 
d="M101 515h85l-72 -515h-85zM39.5 639q-16.5 17 -16.5 41q0 25 16.5 42t41.5 17q24 0 41 -17t17 -42q0 -24 -17 -41t-41 -17q-25 0 -41.5 17zM206.5 639q-16.5 17 -16.5 41q0 25 16.5 42t41.5 17q24 0 40.5 -17t16.5 -42q0 -24 -16.5 -41t-40.5 -17q-25 0 -41.5 17z" />
    <glyph glyph-name="uni0458" unicode="&#x458;" horiz-adv-x="220" 
d="M120 632q-19 19 -19 46q0 28 19 47t46 19t46 -19t19 -47q0 -27 -19 -46t-46 -19t-46 19zM-90 -200q-23 5 -38 12l15 70q34 -12 64 -12q32 0 48.5 21.5t24.5 72.5l77 551h85l-78 -559q-12 -87 -51.5 -124t-100.5 -37q-23 0 -46 5z" />
    <glyph glyph-name="uni0459" unicode="&#x459;" horiz-adv-x="676" 
d="M599 317q42 -42 42 -106q0 -101 -56 -156t-149 -55h-166l61 435h-15l-256 -435h-91l303 515h155l-22 -156h84q68 0 110 -42zM523 109q33 36 33 95q0 38 -22 60t-66 22h-73l-30 -213h70q55 0 88 36z" />
    <glyph glyph-name="uni045A" unicode="&#x45a;" horiz-adv-x="711" 
d="M634 317q42 -42 42 -106q0 -101 -56 -156t-149 -55h-166l33 233h-191l-33 -233h-85l72 515h85l-29 -209h191l29 209h85l-22 -156h84q68 0 110 -42zM558 109q33 36 33 95q0 38 -22 60t-66 22h-73l-30 -213h70q55 0 88 36z" />
    <glyph glyph-name="uni045B" unicode="&#x45b;" horiz-adv-x="556" 
d="M475 481.5q34 -43.5 34 -111.5q0 -21 -3 -42l-46 -328h-85l43 308q4 34 4 49q0 46 -20 71t-66 25q-55 0 -91 -48t-49 -112l-41 -293h-85l86 613h-91l10 70h91l11 77h85l-11 -77h162l-10 -70h-162l-24 -174q30 42 70.5 64t86.5 22q67 0 101 -43.5z" />
    <glyph glyph-name="uni045C" unicode="&#x45c;" horiz-adv-x="426" 
d="M251 294l134 -294h-84l-107 233l-56 -60l-24 -173h-85l72 515h85l-30 -214l194 214h106zM299 590h-63l84 170h104z" />
    <glyph glyph-name="uni045D" unicode="&#x45d;" horiz-adv-x="484" 
d="M455 515l-72 -515h-85l51 367l-235 -367h-85l72 515h85l-51 -367l235 367h85zM223 760l84 -170h-63l-125 170h104z" />
    <glyph glyph-name="uni045E" unicode="&#x45e;" 
d="M478 515l-66 -468q-17 -119 -77 -185.5t-155 -66.5q-65 0 -105.5 32.5t-53.5 85.5l84 16q5 -31 26 -47.5t57 -16.5q59 0 93 45.5t46 135.5l4 30q-29 -40 -67 -60.5t-81 -20.5q-67 0 -101 43.5t-34 111.5q0 21 3 42l45 323h85l-42 -303q-4 -34 -4 -49q0 -46 20 -71t66 -25
q50 0 83.5 45.5t46.5 106.5l42 296h85zM218 635q-34 47 -34 125h60q0 -55 20.5 -80t60.5 -25q33 0 57 25.5t34 79.5h60q-11 -90 -54.5 -131t-106.5 -41t-97 47z" />
    <glyph glyph-name="uni045F" unicode="&#x45f;" horiz-adv-x="481" 
d="M452 515l-72 -515h-123l-25 -140h-80l14 140h-137l72 515h85l-62 -442h181l62 442h85z" />
    <glyph glyph-name="uni0462" unicode="&#x462;" horiz-adv-x="632" 
d="M545 438q52 -57 52 -149q0 -87 -33 -152.5t-93.5 -101t-142.5 -35.5h-216l84 600h-133l12 76h131l12 84h86l-12 -84h193l-12 -76h-191l-15 -105h129q97 0 149 -57zM459.5 133.5q49.5 57.5 49.5 150.5q0 135 -132 135h-121l-47 -343h117q84 0 133.5 57.5z" />
    <glyph glyph-name="uni0463" unicode="&#x463;" horiz-adv-x="471" 
d="M394 317q42 -42 42 -106q0 -101 -56 -156t-149 -55h-166l62 445h-86l10 70h86l34 245h84l-34 -245h168l-10 -70h-168l-12 -86h85q68 0 110 -42zM318 109q33 36 33 95q0 38 -22 60t-66 22h-74l-30 -213h71q55 0 88 36z" />
    <glyph glyph-name="uni0472" unicode="&#x472;" horiz-adv-x="733" 
d="M583.5 729q61.5 -41 94 -113t32.5 -162q0 -123 -48 -229.5t-134.5 -170.5t-197.5 -64q-85 0 -146.5 41.5t-93.5 113.5t-32 162q0 121 48 227.5t135 171t197 64.5q84 0 145.5 -41zM307 656.5q-55 -36.5 -93 -98.5t-55 -137h462q1 10 1 29q0 110 -51.5 176.5t-142.5 66.5
q-66 0 -121 -36.5zM461.5 104q55.5 37 94 100.5t55.5 140.5h-464q-1 -11 -1 -34q0 -110 51.5 -177t142.5 -67q66 0 121.5 37z" />
    <glyph glyph-name="uni0473" unicode="&#x473;" horiz-adv-x="534" 
d="M406 496q43 -29 65.5 -77.5t22.5 -106.5q0 -86 -32.5 -160t-93 -118t-139.5 -44q-58 0 -101 29t-65.5 77.5t-22.5 106.5q0 86 32.5 160t93 118t139.5 44q58 0 101 -29zM196 405.5q-42 -44.5 -60 -111.5h273v10q0 69 -30.5 107.5t-84.5 38.5q-56 0 -98 -44.5zM338 110
q42 45 60 112h-273v-11q0 -69 30.5 -107.5t84.5 -38.5q56 0 98 45z" />
    <glyph glyph-name="uni0474" unicode="&#x474;" horiz-adv-x="561" 
d="M632 760l-18 -76h-13q-18 0 -31 -12t-28 -49l-262 -623h-97l-107 760h86l80 -663l228 567q23 58 55 77t87 19h20z" />
    <glyph glyph-name="uni0475" unicode="&#x475;" horiz-adv-x="446" 
d="M482 515l-17 -76h-8q-31 0 -49 -41l-180 -398h-94l-93 515h86l65 -413l143 337q19 45 49.5 60.5t87.5 15.5h10z" />
    <glyph glyph-name="uni048A" unicode="&#x48a;" horiz-adv-x="613" 
d="M290 880q-34 47 -34 125h60q0 -55 20.5 -80t60.5 -25q33 0 57 25.5t34 79.5h60q-11 -90 -54.5 -131t-106.5 -41t-97 47zM582 76l-102 -216h-76l56 140h-48l83 593l-374 -593h-86l106 760h86l-83 -592l374 592h86l-95 -684h73z" />
    <glyph glyph-name="uni048B" unicode="&#x48b;" horiz-adv-x="499" 
d="M200 635q-34 47 -34 125h60q0 -55 20.5 -80t60.5 -25q33 0 57 25.5t34 79.5h60q-11 -90 -54.5 -131t-106.5 -41t-97 47zM368 -130h-75l53 130h-48l51 367l-235 -367h-85l72 515h85l-51 -367l235 367h85l-62 -442h70z" />
    <glyph glyph-name="uni048C" unicode="&#x48c;" horiz-adv-x="632" 
d="M545 438q52 -57 52 -149q0 -87 -33 -152.5t-93.5 -101t-142.5 -35.5h-216l84 600h-133l12 76h131l12 84h86l-12 -84h193l-12 -76h-191l-15 -105h129q97 0 149 -57zM459.5 133.5q49.5 57.5 49.5 150.5q0 135 -132 135h-121l-47 -343h117q84 0 133.5 57.5z" />
    <glyph glyph-name="uni048D" unicode="&#x48d;" horiz-adv-x="471" 
d="M394 317q42 -42 42 -106q0 -101 -56 -156t-149 -55h-166l62 445h-86l10 70h86l34 245h84l-34 -245h168l-10 -70h-168l-12 -86h85q68 0 110 -42zM318 109q33 36 33 95q0 38 -22 60t-66 22h-74l-30 -213h71q55 0 88 36z" />
    <glyph glyph-name="uni048E" unicode="&#x48e;" horiz-adv-x="561" 
d="M519.5 381q-38.5 -74 -110.5 -111l41 -115l-71 -34l-44 124q-32 -5 -61 -5h-120l-34 -240h-86l107 760h205q104 0 158 -57.5t54 -151.5q0 -96 -38.5 -170zM449 425q23 51 23 116q0 73 -34.5 108t-109.5 35h-112l-52 -368h112q12 0 34 2l-44 125l71 34l46 -131
q43 28 66 79z" />
    <glyph glyph-name="uni048F" unicode="&#x48f;" horiz-adv-x="553" 
d="M478.5 150.5q-35.5 -75.5 -94.5 -119.5l37 -105l-64 -34l-38 106q-27 -8 -54 -8q-48 0 -85 25.5t-55 69.5l-39 -280h-85l100 710h78l-7 -85q31 47 74 71t89 24q53 0 94 -29t63 -78.5t22 -109.5q0 -82 -35.5 -157.5zM294 70l-45 125l64 34l43 -121q34 33 53.5 85t19.5 107
q0 69 -31 109.5t-87 40.5q-48 0 -86.5 -34t-60.5 -88t-22 -111q0 -67 31.5 -109.5t84.5 -42.5q16 0 36 5z" />
    <glyph glyph-name="uni0490" unicode="&#x490;" horiz-adv-x="433" 
d="M502 890l-30 -206h-256l-95 -684h-86l106 760h260l25 130h76z" />
    <glyph glyph-name="uni0491" unicode="&#x491;" horiz-adv-x="341" 
d="M376 610l-26 -168h-174l-62 -442h-85l72 515h178l19 95h78z" />
    <glyph glyph-name="uni0492" unicode="&#x492;" horiz-adv-x="500" 
d="M284 684l-39 -284h168l-12 -76h-167l-45 -324h-86l45 324h-119l12 76h118l50 360h342l-11 -76h-256z" />
    <glyph glyph-name="uni0493" unicode="&#x493;" horiz-adv-x="373" 
d="M209 442l-20 -144h103l-10 -70h-103l-32 -228h-85l32 228h-78l10 70h78l30 217h260l-11 -73h-174z" />
    <glyph glyph-name="uni0494" unicode="&#x494;" horiz-adv-x="557" 
d="M452 424.5q62 -60.5 62 -177.5q0 -104 -31.5 -204.5t-93 -169t-145.5 -78.5l-1 78q58 10 99.5 66.5t62.5 138t21 166.5q0 82 -37.5 123.5t-123.5 41.5h-87l-57 -409h-86l106 760h342l-11 -76h-256l-27 -199h93q108 0 170 -60.5z" />
    <glyph glyph-name="uni0495" unicode="&#x495;" horiz-adv-x="454" 
d="M357.5 274q48.5 -46 48.5 -138q0 -134 -56.5 -226.5t-168.5 -114.5l2 76q71 18 104.5 88t33.5 171q0 63 -25.5 90t-83.5 27h-63l-35 -247h-85l72 515h263l-11 -73h-177l-17 -122h66q84 0 132.5 -46z" />
    <glyph glyph-name="uni0496" unicode="&#x496;" horiz-adv-x="825" 
d="M614 449l152 -449h-85l-124 378l-110 -137l-34 -241h-86l36 259l-68 131l-228 -390h-93l278 471l-150 289h88l190 -378l53 378h86l-53 -380l299 380h100zM767 -140h-76l14 140h-24l12 76h106z" />
    <glyph glyph-name="uni0497" unicode="&#x497;" horiz-adv-x="647" 
d="M464 317l123 -317h-86l-95 254l-60 -65l-26 -189h-83l29 201l-35 53l-166 -254h-96l215 327l-123 188h91l129 -204l29 204h82l-29 -208l178 208h105zM586 -130h-76l13 130h-22l11 73h104z" />
    <glyph glyph-name="uni0498" unicode="&#x498;" horiz-adv-x="503" 
d="M448 339.5q21 -41.5 21 -86.5q0 -106 -56.5 -175.5t-151.5 -83.5l-25 -144h-77l13 143q-76 11 -116 59t-40 119q0 15 2 37l84 4q-2 -20 -2 -31q0 -53 29 -84t88 -31q47 0 84.5 22.5t58.5 64.5t21 97q0 53 -27 83t-82 30h-106l11 76h82q42 0 76 20.5t53.5 57.5t19.5 84
q0 41 -25 67t-78 26q-65 0 -100.5 -37.5t-44.5 -97.5l-83 9q13 88 74 145t162 57q58 0 99 -22t62.5 -59.5t21.5 -83.5q0 -65 -28.5 -119t-77.5 -82q37 -23 58 -64.5z" />
    <glyph glyph-name="uni0499" unicode="&#x499;" horiz-adv-x="377" 
d="M318.5 230q18.5 -28 18.5 -66q0 -65 -34.5 -110t-99.5 -59l-26 -135h-74l12 133q-56 8 -86.5 42t-30.5 82q0 16 1 24l81 2q-1 -5 -1 -16q0 -32 18.5 -49.5t55.5 -17.5q46 0 74.5 29t28.5 76q0 29 -19.5 47.5t-58.5 18.5h-57l10 73h47q42 0 69 27t27 68q0 26 -16 41
t-49 15q-40 0 -63.5 -21.5t-28.5 -57.5l-77 7q10 65 53.5 103.5t121.5 38.5q65 0 102.5 -34t37.5 -85q0 -41 -23 -79t-63 -55q31 -14 49.5 -42z" />
    <glyph glyph-name="uni049A" unicode="&#x49a;" horiz-adv-x="545" 
d="M327 431l160 -431h-86l-129 359l-124 -158l-28 -201h-86l107 760h86l-58 -410l315 410h100zM487 -140h-76l14 140h-24l12 76h106z" />
    <glyph glyph-name="uni049B" unicode="&#x49b;" horiz-adv-x="447" 
d="M251 294l134 -294h-84l-107 233l-56 -60l-24 -173h-85l72 515h85l-30 -214l194 214h106zM386 -130h-76l13 130h-22l11 73h104z" />
    <glyph glyph-name="uni049C" unicode="&#x49c;" horiz-adv-x="597" 
d="M394 490l157 -490h-83l-136 425l-33 -35l-27 -190h-81l15 106l-50 -53l-35 -253h-86l106 760h86l-53 -377l50 50l28 197h81l-15 -108l225 238h108z" />
    <glyph glyph-name="uni049D" unicode="&#x49d;" horiz-adv-x="492" 
d="M302 325l149 -325h-84l-118 259l-20 -139h-70l14 99l-33 -32l-26 -187h-85l72 515h85l-31 -221l33 30l20 136h70l-10 -68l128 123h113z" />
    <glyph glyph-name="uni049E" unicode="&#x49e;" horiz-adv-x="601" 
d="M394 434l161 -434h-84l-134 362l-131 -164l-28 -198h-86l84 600h-113l11 76h113l12 84h86l-12 -84h113l-12 -76h-112l-35 -251l327 411h100z" />
    <glyph glyph-name="uni049F" unicode="&#x49f;" horiz-adv-x="462" 
d="M287 294l134 -294h-84l-107 233l-56 -60l-24 -173h-85l86 613h-86l10 70h86l11 77h85l-11 -77h168l-11 -70h-167l-44 -312l194 214h106z" />
    <glyph glyph-name="uni04A0" unicode="&#x4a0;" horiz-adv-x="652" 
d="M446 431l160 -431h-86l-129 359l-124 -158l-28 -201h-86l96 684h-164l12 76h249l-58 -410l315 410h100z" />
    <glyph glyph-name="uni04A1" unicode="&#x4a1;" horiz-adv-x="530" 
d="M355 294l134 -294h-84l-107 233l-56 -60l-24 -173h-85l62 443h-154l11 72h238l-30 -214l194 214h106z" />
    <glyph glyph-name="uni04A2" unicode="&#x4a2;" horiz-adv-x="599" 
d="M595 760l-107 -760h-86l50 358h-282l-50 -358h-86l107 760h86l-46 -326h282l46 326h86zM536 -140h-76l14 140h-24l12 76h106z" />
    <glyph glyph-name="uni04A3" unicode="&#x4a3;" horiz-adv-x="493" 
d="M455 515l-72 -515h-85l33 233h-184l-33 -233h-85l72 515h85l-29 -209h184l29 209h85zM427 -130h-76l13 130h-22l11 73h104z" />
    <glyph glyph-name="uni04A4" unicode="&#x4a4;" horiz-adv-x="800" 
d="M840 684h-256l-95 -684h-86l106 760h342zM595 760l-107 -760h-86l50 358h-282l-50 -358h-86l107 760h86l-46 -326h282l46 326h86z" />
    <glyph glyph-name="uni04A5" unicode="&#x4a5;" horiz-adv-x="609" 
d="M455 515l-72 -515h-85l33 233h-184l-33 -233h-85l72 515h85l-29 -209h184l29 209h85zM619 442h-174l-62 -442h-85l72 515h260z" />
    <glyph glyph-name="uni04A6" unicode="&#x4a6;" horiz-adv-x="917" 
d="M812 424.5q62 -60.5 62 -177.5q0 -104 -31.5 -204.5t-93 -169t-145.5 -78.5l-1 78q58 10 99.5 66.5t62.5 138t21 166.5q0 82 -37.5 123.5t-123.5 41.5h-87l-57 -409h-86l95 684h-274l-95 -684h-86l106 760h446l-38 -275h93q108 0 170 -60.5z" />
    <glyph glyph-name="uni04A7" unicode="&#x4a7;" horiz-adv-x="714" 
d="M617.5 274q48.5 -46 48.5 -138q0 -134 -56.5 -226.5t-168.5 -114.5l2 76q71 18 104.5 88t33.5 171q0 63 -25.5 90t-83.5 27h-57l-35 -247h-85l62 442h-181l-62 -442h-85l72 515h351l-27 -195h60q84 0 132.5 -46z" />
    <glyph glyph-name="uni04A8" unicode="&#x4a8;" horiz-adv-x="785" 
d="M610 64q32 0 64 6.5t56 16.5l-5 -77q-54 -20 -119 -20q-67 0 -126 25q-64 -25 -130 -25q-91 0 -158.5 43.5t-104 121.5t-36.5 177q0 88 29.5 172.5t90.5 154.5t152 111l-4 -88q-90 -52 -135.5 -145.5t-45.5 -202.5q0 -125 58 -196.5t160 -71.5q20 0 39 3q-51 47 -80 121
t-29 174q0 108 34 201t99.5 149t155.5 56q98 0 149.5 -69t51.5 -196q0 -134 -55 -251t-148 -187q18 -3 37 -3zM403.5 194.5q29.5 -64.5 79.5 -96.5q93 51 149 163t56 247q0 94 -29.5 139.5t-88.5 45.5q-63 0 -107.5 -48t-66.5 -125t-22 -162q0 -99 29.5 -163.5z" />
    <glyph glyph-name="uni04A9" unicode="&#x4a9;" horiz-adv-x="590" 
d="M453 55q34 0 76 12v-66q-31 -11 -76 -11q-53 0 -100 21q-55 -21 -107 -21q-66 0 -115 30.5t-75.5 85t-26.5 123.5q0 70 26.5 132t73.5 105.5t107 58.5l-3 -76q-56 -28 -88.5 -87t-32.5 -136q0 -84 39 -126.5t105 -42.5q10 0 28 2q-34 35 -53.5 86t-19.5 115
q0 73 25.5 133.5t72.5 96t111 35.5q78 0 115.5 -47.5t37.5 -131.5q0 -85 -39 -162t-104 -128q8 -1 23 -1zM358 85q60 36 96 106.5t36 152.5q0 57 -19 82.5t-56 25.5q-59 0 -90 -59.5t-31 -142.5q0 -116 64 -165z" />
    <glyph glyph-name="uni04AA" unicode="&#x4aa;" horiz-adv-x="716" 
d="M484.5 121.5q67.5 54.5 100.5 141.5l85 -11q-43 -113 -121 -181t-180 -79l-26 -142h-76l13 144q-105 18 -163.5 103.5t-58.5 209.5q0 121 48 227.5t135 171t197 64.5q112 0 180.5 -71t87.5 -190l-88 -10q-12 91 -60 142.5t-130 51.5t-146.5 -55t-100 -143.5t-35.5 -183.5
q0 -110 51.5 -177t142.5 -67q77 0 144.5 54.5z" />
    <glyph glyph-name="uni04AB" unicode="&#x4ab;" horiz-adv-x="517" 
d="M323.5 96.5q38.5 31.5 59.5 83.5l82 -9q-28 -75 -75.5 -120t-112.5 -57l-26 -134h-74l12 134q-69 14 -109 72.5t-40 136.5q0 86 32.5 160t93 118t139.5 44q78 0 125 -46t58 -127l-85 -9q-7 52 -34.5 79.5t-74.5 27.5q-49 0 -87.5 -35t-60 -90.5t-21.5 -113.5
q0 -69 30.5 -107.5t84.5 -38.5q45 0 83.5 31.5z" />
    <glyph glyph-name="uni04AC" unicode="&#x4ac;" horiz-adv-x="515" 
d="M550 684h-189l-96 -684h-86l96 684h-190l11 76h465zM313 -140h-76l14 140h-24l12 76h106z" />
    <glyph glyph-name="uni04AD" unicode="&#x4ad;" horiz-adv-x="379" 
d="M389 442h-129l-62 -442h-85l62 442h-134l11 73h348zM242 -130h-76l13 130h-22l11 73h104z" />
    <glyph glyph-name="uni04AE" unicode="&#x4ae;" horiz-adv-x="506" 
d="M305 324l-46 -324h-87l46 329l-147 431h83l116 -349l215 349h92z" />
    <glyph glyph-name="uni04AF" unicode="&#x4af;" horiz-adv-x="444" 
d="M230 17l-30 -212h-85l30 215l-109 495h83l78 -409l193 409h90z" />
    <glyph glyph-name="uni04B0" unicode="&#x4b0;" horiz-adv-x="506" 
d="M352 400h127l-12 -76h-162l-46 -324h-87l46 324h-161l12 76h125l-123 360h83l116 -349l215 349h92z" />
    <glyph glyph-name="uni04B1" unicode="&#x4b1;" horiz-adv-x="444" 
d="M257 70h110l-10 -70h-129l-28 -195h-85l28 195h-127l10 70h108l-98 445h83l78 -409l193 409h90z" />
    <glyph glyph-name="uni04B2" unicode="&#x4b2;" horiz-adv-x="535" 
d="M322 387l152 -387h-90l-115 310l-208 -310h-92l261 387l-145 373h89l109 -296l196 296h93zM472 -140h-76l14 140h-24l12 76h106z" />
    <glyph glyph-name="uni04B3" unicode="&#x4b3;" horiz-adv-x="437" 
d="M257 264l122 -264h-88l-84 196l-138 -196h-100l198 268l-118 247l92 2l76 -182l126 180h100zM376 -130h-76l13 130h-22l11 73h104z" />
    <glyph glyph-name="uni04B4" unicode="&#x4b4;" horiz-adv-x="727" 
d="M696 76l-32 -216h-76l14 140h-433l95 684h-179l12 76h443l-12 -76h-178l-84 -608h275l95 684h86l-95 -684h69z" />
    <glyph glyph-name="uni04B5" unicode="&#x4b5;" horiz-adv-x="565" 
d="M529 73l-30 -203h-76l13 130h-335l63 443h-123l10 72h330l-10 -72h-123l-52 -370h184l62 442h85l-62 -442h64z" />
    <glyph glyph-name="uni04B6" unicode="&#x4b6;" horiz-adv-x="549" 
d="M544 760l-106 -760h-86l41 294h-112q-59 0 -105 26t-71.5 74.5t-25.5 112.5q0 22 3 46l29 207h86l-29 -208q-3 -24 -3 -44q0 -70 33.5 -104t103.5 -34h102l54 390h86zM486 -140h-76l14 140h-24l12 76h106z" />
    <glyph glyph-name="uni04B7" unicode="&#x4b7;" horiz-adv-x="444" 
d="M407 515l-73 -515h-85l27 190h-68q-71 0 -112.5 41t-41.5 108q0 19 3 35l20 141h85l-20 -140q-2 -14 -2 -28q0 -84 83 -84h63l36 252h85zM378 -130h-76l13 130h-22l11 73h104z" />
    <glyph glyph-name="uni04B8" unicode="&#x4b8;" horiz-adv-x="554" 
d="M554 760l-106 -760h-86l41 294h-93l-22 -154h-80l23 159q-70 15 -111 70t-41 138q0 22 3 46l29 207h86l-29 -208q-3 -24 -3 -44q0 -105 77 -130l22 152h80l-23 -160h93l54 390h86z" />
    <glyph glyph-name="uni04B9" unicode="&#x4b9;" horiz-adv-x="443" 
d="M414 515l-73 -515h-85l27 190h-48l-13 -90h-61l13 93q-56 10 -88 49t-32 97q0 19 3 35l20 141h85l-20 -140q-2 -14 -2 -28q0 -61 45 -78l16 111h61l-17 -117h48l36 252h85z" />
    <glyph glyph-name="uni04BA" unicode="&#x4ba;" horiz-adv-x="549" 
d="M408.5 439q46.5 -27 72 -75.5t25.5 -110.5q0 -16 -4 -46l-29 -207h-86l29 208q3 24 3 44q0 138 -137 138h-106l-54 -390h-87l106 760h87l-41 -294h116q59 0 105.5 -27z" />
    <glyph glyph-name="uni04BB" unicode="&#x4bb;" horiz-adv-x="515" 
d="M434 481.5q34 -43.5 34 -111.5q0 -21 -3 -42l-46 -328h-85l43 308q4 34 4 49q0 46 -20 71t-66 25q-55 0 -91 -48t-49 -112l-41 -293h-85l107 760h85l-45 -321q30 42 70.5 64t86.5 22q67 0 101 -43.5z" />
    <glyph glyph-name="uni04BC" unicode="&#x4bc;" horiz-adv-x="826" 
d="M241 345q-1 -10 -1 -31q0 -73 24 -129t67.5 -87t100.5 -31q72 0 134 44.5t99 127.5l87 -16q-53 -109 -138.5 -171t-186.5 -62q-81 0 -143 42t-96 116t-34 167q0 21 1 31q-55 4 -83 32.5t-28 77.5q0 25 9.5 62.5t20.5 60.5l75 -9q-11 -30 -17.5 -54.5t-6.5 -48.5
q0 -21 9 -31t31 -13q20 97 73.5 176.5t129 125t160.5 45.5q81 0 143 -43.5t96.5 -118.5t34.5 -166q0 -31 -2.5 -51.5t-7.5 -45.5h-551zM404.5 657q-55.5 -36 -95 -98t-57.5 -138h462v21q0 74 -23 131t-66 88.5t-101 31.5q-64 0 -119.5 -36z" />
    <glyph glyph-name="uni04BD" unicode="&#x4bd;" horiz-adv-x="607" 
d="M212 214v-3q0 -69 30.5 -107.5t84.5 -38.5q43 0 78 26t56 70l83 -10q-33 -76 -91.5 -118.5t-138.5 -42.5q-58 0 -101 29t-65.5 77.5t-22.5 106.5q0 14 1 22q-100 11 -100 100q0 28 9 65t20 61l68 -9q-11 -31 -16.5 -54.5t-5.5 -49.5q0 -20 7.5 -29.5t26.5 -13.5
q23 102 89 166t162 64q88 0 135 -60.5t47 -153.5q0 -16 -3 -42.5t-6 -45.5h-347v-9zM279 405.5q-40 -44.5 -57 -112.5h261q1 8 1 23q0 66 -27.5 100t-81.5 34q-56 0 -96 -44.5z" />
    <glyph glyph-name="uni04BE" unicode="&#x4be;" horiz-adv-x="826" 
d="M241 345q-1 -10 -1 -31q0 -73 24 -129t67.5 -87t100.5 -31q72 0 134 44.5t99 127.5l87 -16q-46 -95 -118 -155t-158 -74l-26 -144h-76l13 143q-70 10 -123 53.5t-81.5 113t-28.5 155.5q0 21 1 31q-55 4 -83 32.5t-28 77.5q0 25 9.5 62.5t20.5 60.5l75 -9
q-11 -30 -17.5 -54.5t-6.5 -48.5q0 -21 9 -31t31 -13q20 97 73.5 176.5t129 125t160.5 45.5q81 0 143 -43.5t96.5 -118.5t34.5 -166q0 -31 -2.5 -51.5t-7.5 -45.5h-551zM404.5 657q-55.5 -36 -95 -98t-57.5 -138h462v21q0 74 -23 131t-66 88.5t-101 31.5q-64 0 -119.5 -36z
" />
    <glyph glyph-name="uni04BF" unicode="&#x4bf;" horiz-adv-x="607" 
d="M212 214v-3q0 -69 30.5 -107.5t84.5 -38.5q43 0 78 26t56 70l83 -10q-27 -63 -71 -102.5t-104 -52.5l-26 -136h-74l11 133q-72 12 -113.5 71t-41.5 139q0 14 1 22q-100 11 -100 100q0 28 9 65t20 61l68 -9q-11 -31 -16.5 -54.5t-5.5 -49.5q0 -20 7.5 -29.5t26.5 -13.5
q23 102 89 166t162 64q88 0 135 -60.5t47 -153.5q0 -16 -3 -42.5t-6 -45.5h-347v-9zM279 405.5q-40 -44.5 -57 -112.5h261q1 8 1 23q0 66 -27.5 100t-81.5 34q-56 0 -96 -44.5z" />
    <glyph glyph-name="uni04C0" unicode="&#x4c0;" horiz-adv-x="226" 
d="M141 760h86l-107 -760h-86z" />
    <glyph glyph-name="uni04C1" unicode="&#x4c1;" horiz-adv-x="812" 
d="M614 449l152 -449h-85l-124 378l-110 -137l-34 -241h-86l36 259l-68 131l-228 -390h-93l278 471l-150 289h88l190 -378l53 378h86l-53 -380l299 380h100zM398 880q-34 47 -34 125h60q0 -55 20.5 -80t60.5 -25q33 0 57 25.5t34 79.5h60q-11 -90 -54.5 -131t-106.5 -41
t-97 47z" />
    <glyph glyph-name="uni04C2" unicode="&#x4c2;" horiz-adv-x="628" 
d="M464 317l123 -317h-86l-95 254l-60 -65l-26 -189h-83l29 201l-35 53l-166 -254h-96l215 327l-123 188h91l129 -204l29 204h82l-29 -208l178 208h105zM273 635q-34 47 -34 125h60q0 -55 20.5 -80t60.5 -25q33 0 57 25.5t34 79.5h60q-11 -90 -54.5 -131t-106.5 -41t-97 47z
" />
    <glyph glyph-name="uni04C3" unicode="&#x4c3;" horiz-adv-x="540" 
d="M472 309q39 -66 39 -154t-32 -164.5t-90 -128t-133 -67.5v78q81 28 124 103t43 177q0 70 -27 120.5t-85 111.5l-166 -216l-24 -169h-86l106 760h86l-61 -438l336 438h98l-242 -314q75 -71 114 -137z" />
    <glyph glyph-name="uni04C4" unicode="&#x4c4;" horiz-adv-x="439" 
d="M357.5 184.5q34.5 -59.5 34.5 -130.5t-29 -126.5t-79 -89t-113 -43.5l2 77q64 16 99 64.5t35 123.5q0 53 -24.5 95t-74.5 90l-70 -76l-24 -169h-85l72 515h85l-31 -223l194 223h107l-198 -215q65 -56 99.5 -115.5z" />
    <glyph glyph-name="uni04C5" unicode="&#x4c5;" horiz-adv-x="584" 
d="M460 -140h-79l62 140h-39l-80 663l-264 -663h-91l317 760h98l95 -684h89z" />
    <glyph glyph-name="uni04C6" unicode="&#x4c6;" horiz-adv-x="479" 
d="M448 73l-96 -203h-75l53 130h-16l-67 433l-188 -433h-90l239 515h95l81 -442h64z" />
    <glyph glyph-name="uni04C7" unicode="&#x4c7;" horiz-adv-x="596" 
d="M596 760l-101 -722q-17 -124 -80.5 -183.5t-155.5 -59.5q-14 0 -19 1l-1 78q16 -2 23 -2q55 0 95.5 42.5t51.5 124.5l44 319h-281l-50 -358h-87l106 760h87l-45 -326h281l45 326h87z" />
    <glyph glyph-name="uni04C8" unicode="&#x4c8;" horiz-adv-x="484" 
d="M383 0l-6 -43q-13 -92 -50 -127t-99 -35q-45 0 -81 18l12 68q30 -11 58 -11q36 0 52 20.5t24 75.5l5 34l33 233h-184l-33 -233h-85l72 515h85l-29 -209h184l29 209h85z" />
    <glyph glyph-name="uni04C9" unicode="&#x4c9;" horiz-adv-x="594" 
d="M573 76l-102 -216h-76l56 140h-49l50 358h-282l-50 -358h-86l107 760h86l-46 -326h282l46 326h86l-96 -684h74z" />
    <glyph glyph-name="uni04CA" unicode="&#x4ca;" horiz-adv-x="499" 
d="M368 -130h-75l53 130h-48l33 233h-184l-33 -233h-85l72 515h85l-29 -209h184l29 209h85l-62 -442h70z" />
    <glyph glyph-name="uni04CB" unicode="&#x4cb;" horiz-adv-x="544" 
d="M544 760l-106 -760h-66l-26 -140h-77l30 216h64l30 218h-112q-59 0 -105 26t-71.5 74.5t-25.5 112.5q0 22 3 46l29 207h86l-29 -208q-3 -24 -3 -44q0 -70 33.5 -104t103.5 -34h102l54 390h86z" />
    <glyph glyph-name="uni04CC" unicode="&#x4cc;" horiz-adv-x="436" 
d="M407 515l-73 -515h-70l-24 -130h-73l29 203h63l17 117h-68q-71 0 -112.5 41t-41.5 108q0 19 3 35l20 141h85l-20 -140q-2 -14 -2 -28q0 -84 83 -84h63l36 252h85z" />
    <glyph glyph-name="uni04CD" unicode="&#x4cd;" horiz-adv-x="784" 
d="M645 -140h-79l62 140h-40l44 641l-260 -641h-63l-79 641l-136 -641h-85l172 760h101l75 -629l252 629h106l-38 -684h76z" />
    <glyph glyph-name="uni04CE" unicode="&#x4ce;" horiz-adv-x="584" 
d="M462 -130h-75l53 130h-30l20 365l-161 -365h-53l-57 366l-83 -366h-82l117 515h91l58 -371l166 371h91l-23 -442h64z" />
    <glyph glyph-name="uni04CF" unicode="&#x4cf;" horiz-adv-x="216" 
d="M136 760h85l-106 -760h-85z" />
    <glyph glyph-name="uni04D0" unicode="&#x4d0;" horiz-adv-x="530" 
d="M386 136h-270l-53 -136h-94l318 760h98l104 -760h-88zM377 212l-51 457l-180 -457h231zM259 880q-34 47 -34 125h60q0 -55 20.5 -80t60.5 -25q33 0 57 25.5t34 79.5h60q-11 -90 -54.5 -131t-106.5 -41t-97 47z" />
    <glyph glyph-name="uni04D1" unicode="&#x4d1;" horiz-adv-x="553" 
d="M524 515l-72 -515h-77l7 85q-31 -47 -74 -71t-90 -24q-53 0 -94 29t-63 78.5t-22 109.5q0 79 33.5 152.5t90.5 119.5t125 46q48 0 85 -25.5t55 -69.5l12 85h84zM328.5 99q38.5 34 60.5 88t22 111q0 67 -31.5 109.5t-84.5 42.5q-49 0 -88.5 -34t-61 -88.5t-21.5 -112.5
q0 -69 31 -109.5t87 -40.5q48 0 86.5 34zM221 635q-34 47 -34 125h60q0 -55 20.5 -80t60.5 -25q33 0 57 25.5t34 79.5h60q-11 -90 -54.5 -131t-106.5 -41t-97 47z" />
    <glyph glyph-name="uni04D2" unicode="&#x4d2;" horiz-adv-x="530" 
d="M386 136h-270l-53 -136h-94l318 760h98l104 -760h-88zM377 212l-51 457l-180 -457h231zM232.5 884q-16.5 17 -16.5 41q0 25 16.5 42t41.5 17q24 0 41 -17t17 -42q0 -24 -17 -41t-41 -17q-25 0 -41.5 17zM399.5 884q-16.5 17 -16.5 41q0 25 16.5 42t41.5 17q24 0 40.5 -17
t16.5 -42q0 -24 -16.5 -41t-40.5 -17q-25 0 -41.5 17z" />
    <glyph glyph-name="uni04D3" unicode="&#x4d3;" horiz-adv-x="553" 
d="M524 515l-72 -515h-77l7 85q-31 -47 -74 -71t-90 -24q-53 0 -94 29t-63 78.5t-22 109.5q0 79 33.5 152.5t90.5 119.5t125 46q48 0 85 -25.5t55 -69.5l12 85h84zM328.5 99q38.5 34 60.5 88t22 111q0 67 -31.5 109.5t-84.5 42.5q-49 0 -88.5 -34t-61 -88.5t-21.5 -112.5
q0 -69 31 -109.5t87 -40.5q48 0 86.5 34zM194.5 639q-16.5 17 -16.5 41q0 25 16.5 42t41.5 17q24 0 41 -17t17 -42q0 -24 -17 -41t-41 -17q-25 0 -41.5 17zM361.5 639q-16.5 17 -16.5 41q0 25 16.5 42t41.5 17q24 0 40.5 -17t16.5 -42q0 -24 -16.5 -41t-40.5 -17
q-25 0 -41.5 17z" />
    <glyph glyph-name="uni04D4" unicode="&#x4d4;" horiz-adv-x="800" 
d="M537 686l-36 -253h261l-11 -74h-260l-41 -285h269l-10 -74h-355l25 178h-223l-106 -178h-91l457 760h396l-11 -74h-264zM389 252l59 416l-248 -416h189z" />
    <glyph glyph-name="uni04D5" unicode="&#x4d5;" horiz-adv-x="827" 
d="M433 213v-2q0 -69 30.5 -107.5t84.5 -38.5q43 0 78 26t56 70l83 -10q-33 -76 -91.5 -118.5t-138.5 -42.5q-61 0 -102.5 28t-61.5 77q-32 -50 -83 -77.5t-121 -27.5q-61 0 -102 36t-41 98q0 89 56.5 134.5t156.5 45.5h123l1 9q3 20 3 35q0 55 -26 78.5t-64 23.5
q-78 0 -123 -80l-79 11q31 69 86 106.5t127 37.5q47 0 85 -20.5t58 -64.5q33 40 78.5 62.5t100.5 22.5q88 0 135 -60.5t47 -153.5q0 -14 -2.5 -37t-6.5 -40h-346q-1 -7 -1 -21zM503 409q-39 -41 -57 -105h259v12q0 66 -27.5 100t-81.5 34t-93 -41zM292 97.5
q44 39.5 54 109.5l3 22l1 5h-114q-62 0 -96.5 -25t-34.5 -75q0 -35 23.5 -55.5t63.5 -20.5q56 0 100 39.5z" />
    <glyph glyph-name="uni04D6" unicode="&#x4d6;" horiz-adv-x="488" 
d="M216 684l-35 -250h269l-11 -76h-269l-39 -282h276l-10 -76h-363l107 760h359l-11 -76h-273zM242 880q-34 47 -34 125h60q0 -55 20.5 -80t60.5 -25q33 0 57 25.5t34 79.5h60q-11 -90 -54.5 -131t-106.5 -41t-97 47z" />
    <glyph glyph-name="uni04D7" unicode="&#x4d7;" horiz-adv-x="522" 
d="M127 214v-3q0 -69 30.5 -107.5t84.5 -38.5q43 0 78 26t56 70l83 -10q-33 -76 -91.5 -118.5t-138.5 -42.5q-58 0 -101 29t-65.5 77.5t-22.5 106.5q0 86 32 160t91.5 118t137.5 44q88 0 135 -60.5t47 -153.5q0 -16 -3 -42.5t-6 -45.5h-347v-9zM194 405.5
q-40 -44.5 -57 -112.5h261q1 8 1 23q0 66 -27.5 100t-81.5 34q-56 0 -96 -44.5zM218 635q-34 47 -34 125h60q0 -55 20.5 -80t60.5 -25q33 0 57 25.5t34 79.5h60q-11 -90 -54.5 -131t-106.5 -41t-97 47z" />
    <glyph glyph-name="uni04D8" unicode="&#x4d8;" horiz-adv-x="731" 
d="M577 728q62 -42 96 -116t34 -167q0 -121 -51 -226t-137 -167t-186 -62q-81 0 -143 43.5t-96.5 118.5t-34.5 166q0 34 2.5 56t7.5 49h551q1 8 1 23q0 73 -24 129t-67.5 87t-100.5 31q-72 0 -134 -44.5t-99 -127.5l-87 16q53 109 138.5 171t186.5 62q81 0 143 -42z
M458 104.5q56 37.5 95.5 101t56.5 141.5h-462q-1 -10 -1 -29q0 -74 23 -131t66 -88.5t101 -31.5q65 0 121 37.5z" />
    <glyph glyph-name="uni04D9" unicode="&#x4d9;" horiz-adv-x="506" 
d="M386 496q43 -29 65.5 -77.5t22.5 -106.5q0 -86 -32 -160t-91.5 -118t-137.5 -44q-88 0 -135 60.5t-47 153.5q0 15 2.5 40.5t6.5 44.5h347v12v3q0 69 -30.5 107.5t-84.5 38.5q-43 0 -78 -26t-56 -70l-83 10q33 76 91.5 118.5t138.5 42.5q58 0 101 -29zM318.5 108
q39.5 43 57.5 109h-261v-18q0 -66 27.5 -100t81.5 -34q55 0 94.5 43z" />
    <glyph glyph-name="uni04DA" unicode="&#x4da;" horiz-adv-x="731" 
d="M577 728q62 -42 96 -116t34 -167q0 -121 -51 -226t-137 -167t-186 -62q-81 0 -143 43.5t-96.5 118.5t-34.5 166q0 34 2.5 56t7.5 49h551q1 8 1 23q0 73 -24 129t-67.5 87t-100.5 31q-72 0 -134 -44.5t-99 -127.5l-87 16q53 109 138.5 171t186.5 62q81 0 143 -42z
M458 104.5q56 37.5 95.5 101t56.5 141.5h-462q-1 -10 -1 -29q0 -74 23 -131t66 -88.5t101 -31.5q65 0 121 37.5zM329.5 884q-16.5 17 -16.5 41q0 25 16.5 42t41.5 17q24 0 41 -17t17 -42q0 -24 -17 -41t-41 -17q-25 0 -41.5 17zM496.5 884q-16.5 17 -16.5 41q0 25 16.5 42
t41.5 17q24 0 40.5 -17t16.5 -42q0 -24 -16.5 -41t-40.5 -17q-25 0 -41.5 17z" />
    <glyph glyph-name="uni04DB" unicode="&#x4db;" horiz-adv-x="506" 
d="M386 496q43 -29 65.5 -77.5t22.5 -106.5q0 -86 -32 -160t-91.5 -118t-137.5 -44q-88 0 -135 60.5t-47 153.5q0 15 2.5 40.5t6.5 44.5h347v12v3q0 69 -30.5 107.5t-84.5 38.5q-43 0 -78 -26t-56 -70l-83 10q33 76 91.5 118.5t138.5 42.5q58 0 101 -29zM318.5 108
q39.5 43 57.5 109h-261v-18q0 -66 27.5 -100t81.5 -34q55 0 94.5 43zM176.5 639q-16.5 17 -16.5 41q0 25 16.5 42t41.5 17q24 0 41 -17t17 -42q0 -24 -17 -41t-41 -17q-25 0 -41.5 17zM343.5 639q-16.5 17 -16.5 41q0 25 16.5 42t41.5 17q24 0 40.5 -17t16.5 -42
q0 -24 -16.5 -41t-40.5 -17q-25 0 -41.5 17z" />
    <glyph glyph-name="uni04DC" unicode="&#x4dc;" horiz-adv-x="812" 
d="M614 449l152 -449h-85l-124 378l-110 -137l-34 -241h-86l36 259l-68 131l-228 -390h-93l278 471l-150 289h88l190 -378l53 378h86l-53 -380l299 380h100zM371.5 884q-16.5 17 -16.5 41q0 25 16.5 42t41.5 17q24 0 41 -17t17 -42q0 -24 -17 -41t-41 -17q-25 0 -41.5 17z
M538.5 884q-16.5 17 -16.5 41q0 25 16.5 42t41.5 17q24 0 40.5 -17t16.5 -42q0 -24 -16.5 -41t-40.5 -17q-25 0 -41.5 17z" />
    <glyph glyph-name="uni04DD" unicode="&#x4dd;" horiz-adv-x="628" 
d="M464 317l123 -317h-86l-95 254l-60 -65l-26 -189h-83l29 201l-35 53l-166 -254h-96l215 327l-123 188h91l129 -204l29 204h82l-29 -208l178 208h105zM246.5 639q-16.5 17 -16.5 41q0 25 16.5 42t41.5 17q24 0 41 -17t17 -42q0 -24 -17 -41t-41 -17q-25 0 -41.5 17z
M413.5 639q-16.5 17 -16.5 41q0 25 16.5 42t41.5 17q24 0 40.5 -17t16.5 -42q0 -24 -16.5 -41t-40.5 -17q-25 0 -41.5 17z" />
    <glyph glyph-name="uni04DE" unicode="&#x4de;" horiz-adv-x="503" 
d="M448 339.5q21 -41.5 21 -86.5q0 -79 -32.5 -138.5t-90 -92t-132.5 -32.5q-96 0 -147 50t-51 131q0 15 2 37l84 4q-2 -20 -2 -31q0 -53 29 -84t88 -31q47 0 84.5 22.5t58.5 64.5t21 97q0 53 -27 83t-82 30h-106l11 76h82q42 0 76 20.5t53.5 57.5t19.5 84q0 41 -25 67
t-78 26q-65 0 -100.5 -37.5t-44.5 -97.5l-83 9q13 88 74 145t162 57q58 0 99 -22t62.5 -59.5t21.5 -83.5q0 -65 -28.5 -119t-77.5 -82q37 -23 58 -64.5zM208.5 884q-16.5 17 -16.5 41q0 25 16.5 42t41.5 17q24 0 41 -17t17 -42q0 -24 -17 -41t-41 -17q-25 0 -41.5 17z
M375.5 884q-16.5 17 -16.5 41q0 25 16.5 42t41.5 17q24 0 40.5 -17t16.5 -42q0 -24 -16.5 -41t-40.5 -17q-25 0 -41.5 17z" />
    <glyph glyph-name="uni04DF" unicode="&#x4df;" horiz-adv-x="377" 
d="M318.5 230q18.5 -28 18.5 -66q0 -77 -48.5 -125.5t-138.5 -48.5q-72 0 -112 36t-40 91q0 16 1 24l81 2q-1 -5 -1 -16q0 -32 18.5 -49.5t55.5 -17.5q46 0 74.5 29t28.5 76q0 29 -19.5 47.5t-58.5 18.5h-57l10 73h47q42 0 69 27t27 68q0 26 -16 41t-49 15
q-40 0 -63.5 -21.5t-28.5 -57.5l-77 7q10 65 53.5 103.5t121.5 38.5q65 0 102.5 -34t37.5 -85q0 -41 -23 -79t-63 -55q31 -14 49.5 -42zM114.5 639q-16.5 17 -16.5 41q0 25 16.5 42t41.5 17q24 0 41 -17t17 -42q0 -24 -17 -41t-41 -17q-25 0 -41.5 17zM281.5 639
q-16.5 17 -16.5 41q0 25 16.5 42t41.5 17q24 0 40.5 -17t16.5 -42q0 -24 -16.5 -41t-40.5 -17q-25 0 -41.5 17z" />
    <glyph glyph-name="uni04E0" unicode="&#x4e0;" horiz-adv-x="502" 
d="M419.5 406.5q50.5 -49.5 50.5 -135.5q0 -83 -32 -147t-90 -99t-134 -35q-62 0 -107 23.5t-68.5 65t-23.5 93.5q0 20 3 36l85 4q-3 -13 -3 -28q0 -54 29.5 -86t87.5 -32q48 0 85.5 25t58.5 70t21 102t-30 88.5t-91 31.5h-78l10 76l182 225h-265l11 76h416l-249 -301
q81 -3 131.5 -52.5z" />
    <glyph glyph-name="uni04E1" unicode="&#x4e1;" horiz-adv-x="446" 
d="M345 173q48 -46 48 -124q0 -76 -29.5 -133.5t-83 -89t-125.5 -31.5q-84 0 -133 43.5t-49 110.5q0 9 2 27h77l-1 -18q0 -44 27.5 -68.5t77.5 -24.5q69 0 112 50t43 130q0 54 -31.5 81.5t-93.5 27.5q-35 0 -75 -4l6 69h1l184 224h-229l11 72h377l-242 -291q78 -5 126 -51z
" />
    <glyph glyph-name="uni04E2" unicode="&#x4e2;" horiz-adv-x="604" 
d="M604 760l-106 -760h-86l83 593l-374 -593h-86l106 760h86l-83 -592l374 592h86zM279 967h237l-9 -67h-237z" />
    <glyph glyph-name="uni04E3" unicode="&#x4e3;" horiz-adv-x="484" 
d="M455 515l-72 -515h-85l51 367l-235 -367h-85l72 515h85l-51 -367l235 367h85zM194 722h237l-9 -67h-237z" />
    <glyph glyph-name="uni04E4" unicode="&#x4e4;" horiz-adv-x="604" 
d="M604 760l-106 -760h-86l83 593l-374 -593h-86l106 760h86l-83 -592l374 592h86zM263.5 884q-16.5 17 -16.5 41q0 25 16.5 42t41.5 17q24 0 41 -17t17 -42q0 -24 -17 -41t-41 -17q-25 0 -41.5 17zM430.5 884q-16.5 17 -16.5 41q0 25 16.5 42t41.5 17q24 0 40.5 -17
t16.5 -42q0 -24 -16.5 -41t-40.5 -17q-25 0 -41.5 17z" />
    <glyph glyph-name="uni04E5" unicode="&#x4e5;" horiz-adv-x="484" 
d="M455 515l-72 -515h-85l51 367l-235 -367h-85l72 515h85l-51 -367l235 367h85zM178.5 639q-16.5 17 -16.5 41q0 25 16.5 42t41.5 17q24 0 41 -17t17 -42q0 -24 -17 -41t-41 -17q-25 0 -41.5 17zM345.5 639q-16.5 17 -16.5 41q0 25 16.5 42t41.5 17q24 0 40.5 -17t16.5 -42
q0 -24 -16.5 -41t-40.5 -17q-25 0 -41.5 17z" />
    <glyph glyph-name="uni04E6" unicode="&#x4e6;" horiz-adv-x="733" 
d="M183.5 31.5q-61.5 41.5 -93.5 113.5t-32 162q0 121 48 227.5t135 171t197 64.5q84 0 145.5 -41t94 -113t32.5 -162q0 -123 -48 -229.5t-134.5 -170.5t-197.5 -64q-85 0 -146.5 41.5zM484.5 121.5q64.5 54.5 101 143t36.5 185.5q0 110 -51.5 176.5t-142.5 66.5
q-82 0 -146.5 -55t-100 -143.5t-35.5 -183.5q0 -110 51.5 -177t142.5 -67q80 0 144.5 54.5zM332.5 884q-16.5 17 -16.5 41q0 25 16.5 42t41.5 17q24 0 41 -17t17 -42q0 -24 -17 -41t-41 -17q-25 0 -41.5 17zM499.5 884q-16.5 17 -16.5 41q0 25 16.5 42t41.5 17
q24 0 40.5 -17t16.5 -42q0 -24 -16.5 -41t-40.5 -17q-25 0 -41.5 17z" />
    <glyph glyph-name="uni04E7" unicode="&#x4e7;" horiz-adv-x="534" 
d="M128 19q-43 29 -65.5 77.5t-22.5 106.5q0 86 32.5 160t93 118t139.5 44q58 0 101 -29t65.5 -77.5t22.5 -106.5q0 -86 -32.5 -160t-93 -118t-139.5 -44q-58 0 -101 29zM327.5 100q38.5 35 60 90.5t21.5 113.5q0 69 -30.5 107.5t-84.5 38.5q-49 0 -87.5 -35t-60 -90.5
t-21.5 -113.5q0 -69 30.5 -107.5t84.5 -38.5q49 0 87.5 35zM203.5 639q-16.5 17 -16.5 41q0 25 16.5 42t41.5 17q24 0 41 -17t17 -42q0 -24 -17 -41t-41 -17q-25 0 -41.5 17zM370.5 639q-16.5 17 -16.5 41q0 25 16.5 42t41.5 17q24 0 40.5 -17t16.5 -42q0 -24 -16.5 -41
t-40.5 -17q-25 0 -41.5 17z" />
    <glyph glyph-name="uni04E8" unicode="&#x4e8;" horiz-adv-x="733" 
d="M583.5 729q61.5 -41 94 -113t32.5 -162q0 -123 -48 -229.5t-134.5 -170.5t-197.5 -64q-85 0 -146.5 41.5t-93.5 113.5t-32 162q0 121 48 227.5t135 171t197 64.5q84 0 145.5 -41zM307 656.5q-55 -36.5 -93 -98.5t-55 -137h462q1 10 1 29q0 110 -51.5 176.5t-142.5 66.5
q-66 0 -121 -36.5zM461.5 104q55.5 37 94 100.5t55.5 140.5h-464q-1 -11 -1 -34q0 -110 51.5 -177t142.5 -67q66 0 121.5 37z" />
    <glyph glyph-name="uni04E9" unicode="&#x4e9;" horiz-adv-x="534" 
d="M406 496q43 -29 65.5 -77.5t22.5 -106.5q0 -86 -32.5 -160t-93 -118t-139.5 -44q-58 0 -101 29t-65.5 77.5t-22.5 106.5q0 86 32.5 160t93 118t139.5 44q58 0 101 -29zM196 405.5q-42 -44.5 -60 -111.5h273v10q0 69 -30.5 107.5t-84.5 38.5q-56 0 -98 -44.5zM338 110
q42 45 60 112h-273v-11q0 -69 30.5 -107.5t84.5 -38.5q56 0 98 45z" />
    <glyph glyph-name="uni04EA" unicode="&#x4ea;" horiz-adv-x="733" 
d="M583.5 729q61.5 -41 94 -113t32.5 -162q0 -123 -48 -229.5t-134.5 -170.5t-197.5 -64q-85 0 -146.5 41.5t-93.5 113.5t-32 162q0 121 48 227.5t135 171t197 64.5q84 0 145.5 -41zM307 656.5q-55 -36.5 -93 -98.5t-55 -137h462q1 10 1 29q0 110 -51.5 176.5t-142.5 66.5
q-66 0 -121 -36.5zM461.5 104q55.5 37 94 100.5t55.5 140.5h-464q-1 -11 -1 -34q0 -110 51.5 -177t142.5 -67q66 0 121.5 37zM333.5 884q-16.5 17 -16.5 41q0 25 16.5 42t41.5 17q24 0 41 -17t17 -42q0 -24 -17 -41t-41 -17q-25 0 -41.5 17zM500.5 884q-16.5 17 -16.5 41
q0 25 16.5 42t41.5 17q24 0 40.5 -17t16.5 -42q0 -24 -16.5 -41t-40.5 -17q-25 0 -41.5 17z" />
    <glyph glyph-name="uni04EB" unicode="&#x4eb;" horiz-adv-x="534" 
d="M406 496q43 -29 65.5 -77.5t22.5 -106.5q0 -86 -32.5 -160t-93 -118t-139.5 -44q-58 0 -101 29t-65.5 77.5t-22.5 106.5q0 86 32.5 160t93 118t139.5 44q58 0 101 -29zM196 405.5q-42 -44.5 -60 -111.5h273v10q0 69 -30.5 107.5t-84.5 38.5q-56 0 -98 -44.5zM338 110
q42 45 60 112h-273v-11q0 -69 30.5 -107.5t84.5 -38.5q56 0 98 45zM198.5 639q-16.5 17 -16.5 41q0 25 16.5 42t41.5 17q24 0 41 -17t17 -42q0 -24 -17 -41t-41 -17q-25 0 -41.5 17zM365.5 639q-16.5 17 -16.5 41q0 25 16.5 42t41.5 17q24 0 40.5 -17t16.5 -42
q0 -24 -16.5 -41t-40.5 -17q-25 0 -41.5 17z" />
    <glyph glyph-name="uni04EC" unicode="&#x4ec;" horiz-adv-x="716" 
d="M560.5 726.5q62.5 -43.5 97 -117.5t34.5 -164q0 -121 -50.5 -226t-137.5 -167t-189 -62q-72 0 -129.5 33.5t-93.5 93.5t-45 137l85 7q13 -89 63.5 -141.5t125.5 -52.5q64 0 120 37t95.5 100.5t56.5 140.5h-326l11 76h325q1 8 1 23q0 73 -23.5 129.5t-67 88t-100.5 31.5
q-77 0 -143 -53.5t-104 -142.5l-85 14q48 120 137 189.5t199 69.5q81 0 143.5 -43.5zM315.5 884q-16.5 17 -16.5 41q0 25 16.5 42t41.5 17q24 0 41 -17t17 -42q0 -24 -17 -41t-41 -17q-25 0 -41.5 17zM482.5 884q-16.5 17 -16.5 41q0 25 16.5 42t41.5 17q24 0 40.5 -17
t16.5 -42q0 -24 -16.5 -41t-40.5 -17q-25 0 -41.5 17z" />
    <glyph glyph-name="uni04ED" unicode="&#x4ed;" horiz-adv-x="528" 
d="M394.5 496.5q44.5 -28.5 68.5 -78.5t24 -114q0 -88 -34 -160t-94 -113t-134 -41q-80 0 -132 53t-59 140l81 5q6 -58 36.5 -90.5t76.5 -32.5q59 0 102.5 44.5t61.5 114.5h-202l11 72h201v7q0 69 -31.5 108t-84.5 39q-47 0 -86.5 -32.5t-62.5 -89.5l-82 12
q32 88 94.5 136.5t140.5 48.5q60 0 104.5 -28.5zM188.5 639q-16.5 17 -16.5 41q0 25 16.5 42t41.5 17q24 0 41 -17t17 -42q0 -24 -17 -41t-41 -17q-25 0 -41.5 17zM355.5 639q-16.5 17 -16.5 41q0 25 16.5 42t41.5 17q24 0 40.5 -17t16.5 -42q0 -24 -16.5 -41t-40.5 -17
q-25 0 -41.5 17z" />
    <glyph glyph-name="uni04EE" unicode="&#x4ee;" horiz-adv-x="495" 
d="M566 760l-411 -760h-91l157 291l-140 469h86l107 -373l201 373h91zM237 967h237l-9 -67h-237z" />
    <glyph glyph-name="uni04EF" unicode="&#x4ef;" 
d="M478 515l-66 -468q-17 -119 -77 -185.5t-155 -66.5q-65 0 -105.5 32.5t-53.5 85.5l84 16q5 -31 26 -47.5t57 -16.5q59 0 93 45.5t46 135.5l4 30q-29 -40 -67 -60.5t-81 -20.5q-67 0 -101 43.5t-34 111.5q0 21 3 42l45 323h85l-42 -303q-4 -34 -4 -49q0 -46 20 -71t66 -25
q50 0 83.5 45.5t46.5 106.5l42 296h85zM207 722h237l-9 -67h-237z" />
    <glyph glyph-name="uni04F0" unicode="&#x4f0;" horiz-adv-x="495" 
d="M566 760l-411 -760h-91l157 291l-140 469h86l107 -373l201 373h91zM221.5 884q-16.5 17 -16.5 41q0 25 16.5 42t41.5 17q24 0 41 -17t17 -42q0 -24 -17 -41t-41 -17q-25 0 -41.5 17zM388.5 884q-16.5 17 -16.5 41q0 25 16.5 42t41.5 17q24 0 40.5 -17t16.5 -42
q0 -24 -16.5 -41t-40.5 -17q-25 0 -41.5 17z" />
    <glyph glyph-name="uni04F1" unicode="&#x4f1;" 
d="M478 515l-66 -468q-17 -119 -77 -185.5t-155 -66.5q-65 0 -105.5 32.5t-53.5 85.5l84 16q5 -31 26 -47.5t57 -16.5q59 0 93 45.5t46 135.5l4 30q-29 -40 -67 -60.5t-81 -20.5q-67 0 -101 43.5t-34 111.5q0 21 3 42l45 323h85l-42 -303q-4 -34 -4 -49q0 -46 20 -71t66 -25
q50 0 83.5 45.5t46.5 106.5l42 296h85zM191.5 639q-16.5 17 -16.5 41q0 25 16.5 42t41.5 17q24 0 41 -17t17 -42q0 -24 -17 -41t-41 -17q-25 0 -41.5 17zM358.5 639q-16.5 17 -16.5 41q0 25 16.5 42t41.5 17q24 0 40.5 -17t16.5 -42q0 -24 -16.5 -41t-40.5 -17
q-25 0 -41.5 17z" />
    <glyph glyph-name="uni04F2" unicode="&#x4f2;" horiz-adv-x="495" 
d="M566 760l-411 -760h-91l157 291l-140 469h86l107 -373l201 373h91zM281 835h-63l84 170h104zM439 835h-63l84 170h104z" />
    <glyph glyph-name="uni04F3" unicode="&#x4f3;" 
d="M478 515l-66 -468q-17 -119 -77 -185.5t-155 -66.5q-65 0 -105.5 32.5t-53.5 85.5l84 16q5 -31 26 -47.5t57 -16.5q59 0 93 45.5t46 135.5l4 30q-29 -40 -67 -60.5t-81 -20.5q-67 0 -101 43.5t-34 111.5q0 21 3 42l45 323h85l-42 -303q-4 -34 -4 -49q0 -46 20 -71t66 -25
q50 0 83.5 45.5t46.5 106.5l42 296h85zM251 590h-63l84 170h104zM409 590h-63l84 170h104z" />
    <glyph glyph-name="uni04F4" unicode="&#x4f4;" horiz-adv-x="544" 
d="M544 760l-106 -760h-86l41 294h-112q-59 0 -105 26t-71.5 74.5t-25.5 112.5q0 22 3 46l29 207h86l-29 -208q-3 -24 -3 -44q0 -70 33.5 -104t103.5 -34h102l54 390h86zM218.5 884q-16.5 17 -16.5 41q0 25 16.5 42t41.5 17q24 0 41 -17t17 -42q0 -24 -17 -41t-41 -17
q-25 0 -41.5 17zM385.5 884q-16.5 17 -16.5 41q0 25 16.5 42t41.5 17q24 0 40.5 -17t16.5 -42q0 -24 -16.5 -41t-40.5 -17q-25 0 -41.5 17z" />
    <glyph glyph-name="uni04F5" unicode="&#x4f5;" horiz-adv-x="436" 
d="M407 515l-73 -515h-85l27 190h-68q-71 0 -112.5 41t-41.5 108q0 19 3 35l20 141h85l-20 -140q-2 -14 -2 -28q0 -84 83 -84h63l36 252h85zM138.5 639q-16.5 17 -16.5 41q0 25 16.5 42t41.5 17q24 0 41 -17t17 -42q0 -24 -17 -41t-41 -17q-25 0 -41.5 17zM305.5 639
q-16.5 17 -16.5 41q0 25 16.5 42t41.5 17q24 0 40.5 -17t16.5 -42q0 -24 -16.5 -41t-40.5 -17q-25 0 -41.5 17z" />
    <glyph glyph-name="uni04F6" unicode="&#x4f6;" horiz-adv-x="432" 
d="M472 684h-256l-95 -684h-86l106 760h342zM169 -140h-76l14 140h-24l12 76h106z" />
    <glyph glyph-name="uni04F7" unicode="&#x4f7;" horiz-adv-x="340" 
d="M350 442h-174l-62 -442h-85l72 515h260zM158 -130h-76l13 130h-22l11 73h104z" />
    <glyph glyph-name="uni04F8" unicode="&#x4f8;" horiz-adv-x="751" 
d="M428.5 477.5q45.5 -27.5 68.5 -74.5t23 -106q0 -91 -33 -158t-93.5 -103t-142.5 -36h-216l106 760h86l-36 -255h128q64 0 109.5 -27.5zM752 760l-107 -760h-85l106 760h86zM382.5 135.5q49.5 59.5 49.5 159.5q0 63 -32.5 98.5t-99.5 35.5h-119l-49 -353h117
q84 0 133.5 59.5zM338.5 884q-16.5 17 -16.5 41q0 25 16.5 42t41.5 17q24 0 41 -17t17 -42q0 -24 -17 -41t-41 -17q-25 0 -41.5 17zM505.5 884q-16.5 17 -16.5 41q0 25 16.5 42t41.5 17q24 0 40.5 -17t16.5 -42q0 -24 -16.5 -41t-40.5 -17q-25 0 -41.5 17z" />
    <glyph glyph-name="uni04F9" unicode="&#x4f9;" horiz-adv-x="630" 
d="M358 317q42 -42 42 -106q0 -101 -56 -156t-149 -55h-166l72 515h85l-22 -156h84q68 0 110 -42zM601 515l-72 -515h-85l72 515h85zM282 109q33 36 33 95q0 38 -22 60t-66 22h-73l-30 -213h70q55 0 88 36zM245.5 639q-16.5 17 -16.5 41q0 25 16.5 42t41.5 17q24 0 41 -17
t17 -42q0 -24 -17 -41t-41 -17q-25 0 -41.5 17zM412.5 639q-16.5 17 -16.5 41q0 25 16.5 42t41.5 17q24 0 40.5 -17t16.5 -42q0 -24 -16.5 -41t-40.5 -17q-25 0 -41.5 17z" />
    <glyph glyph-name="uni04FC" unicode="&#x4fc;" horiz-adv-x="506" 
d="M413 143q28 -77 28 -133q0 -65 -28.5 -113.5t-77 -75t-107.5 -26.5l-1 76q54 0 93.5 35t39.5 102q0 52 -20 107l-70 191l-206 -306h-95l262 387l-145 373h84l114 -293l188 293h100l-249 -373z" />
    <glyph glyph-name="uni04FD" unicode="&#x4fd;" horiz-adv-x="414" 
d="M310 144q21 -47 31 -80t10 -68q0 -62 -28.5 -108t-76 -69.5t-102.5 -23.5l3 77q51 0 87.5 33.5t36.5 91.5q0 49 -32 117l-36 78l-132 -192h-102l195 270l-113 245h89l79 -182l125 182h101l-184 -255z" />
    <glyph glyph-name="uni0510" unicode="&#x510;" horiz-adv-x="500" 
d="M424.5 748q42.5 -22 65 -59t22.5 -81q0 -27 -1 -40l-89 -9q2 18 2 27q0 49 -25.5 78.5t-80.5 29.5q-63 0 -101 -38.5t-38 -96.5q0 -54 30.5 -87t82.5 -33h82l-10 -76h-86q-88 0 -130.5 -46.5t-42.5 -123.5q0 -59 31 -93t94 -34q126 0 156 146l82 -4q-19 -108 -84.5 -163
t-166.5 -55q-57 0 -102.5 23t-71.5 66.5t-26 103.5q0 75 36 138.5t108 88.5q-70 45 -70 144q0 60 28 109t81 78t125 29q57 0 99.5 -22z" />
    <glyph glyph-name="uni0511" unicode="&#x511;" horiz-adv-x="376" 
d="M293 379q1 35 -17.5 55.5t-52.5 20.5q-41 0 -62.5 -23t-21.5 -63q0 -29 18 -47t52 -18h50l-11 -73h-56q-51 0 -77 -30t-26 -75q0 -31 18.5 -48.5t55.5 -17.5q75 0 103 87l78 -10q-37 -147 -187 -147q-70 0 -109.5 36.5t-39.5 95.5q0 56 27.5 96.5t76.5 58.5
q-26 15 -40 40.5t-14 56.5q0 63 41.5 107t122.5 44q69 0 109.5 -41.5t39.5 -104.5h-78z" />
    <glyph glyph-name="uni0512" unicode="&#x512;" horiz-adv-x="527" 
d="M485 10q0 -63 -29 -112t-78 -76t-109 -27l-1 76q57 0 95 37t38 100q0 17 -1 23l-76 632l-264 -663h-91l317 760h98l98 -710q3 -19 3 -40z" />
    <glyph glyph-name="uni0513" unicode="&#x513;" horiz-adv-x="440" 
d="M396 -6q0 -58 -28.5 -103.5t-76.5 -70.5t-104 -25l3 77q33 0 61.5 15t46 42t17.5 60q0 22 -6 55l-62 380l-187 -424h-91l240 515h95l82 -436q10 -57 10 -85z" />
    <glyph glyph-name="uni051C" unicode="&#x51c;" horiz-adv-x="829" 
d="M885 760l-277 -760h-92l-47 637l-228 -637h-91l-64 760h88l36 -657l234 657h79l49 -652l219 652h94z" />
    <glyph glyph-name="uni051D" unicode="&#x51d;" horiz-adv-x="675" 
d="M701 515l-209 -515h-90l-42 408l-159 -408h-91l-64 515h86l38 -427l166 427h75l43 -424l155 424h92z" />
    <glyph glyph-name="uni0524" unicode="&#x524;" horiz-adv-x="592" 
d="M481 0h-86l95 684h-274l-95 -684h-86l106 760h446zM529 -140h-76l14 140h-24l12 76h106z" />
    <glyph glyph-name="uni0525" unicode="&#x525;" horiz-adv-x="490" 
d="M380 0h-85l62 442h-181l-62 -442h-85l72 515h351zM424 -130h-76l13 130h-22l11 73h104z" />
    </font>
</defs>
</svg>
