<?xml version="1.0" standalone="no"?>
<!DOCTYPE svg PUBLIC "-//W3C//DTD SVG 1.1//EN" "http://www.w3.org/Graphics/SVG/1.1/DTD/svg11.dtd" >
<svg xmlns="http://www.w3.org/2000/svg" xmlns:xlink="http://www.w3.org/1999/xlink" version="1.1">
<metadata>
Created by FontForge 20170731 at Wed Nov 22 21:06:52 2017
 By Aleksey,,,
Copyright (c) 2017 by Andreu Balius. All rights reserved.
</metadata>
<defs>
<font id="SeatBcn-Web-LightItalic" horiz-adv-x="547" >
  <font-face 
    font-family="Seat Bcn - Web Light"
    font-weight="300"
    font-style="italic"
    font-stretch="normal"
    units-per-em="1000"
    panose-1="0 0 4 0 0 0 0 0 0 0"
    ascent="760"
    descent="-240"
    x-height="507"
    cap-height="760"
    bbox="-343 -210 1215 1261"
    underline-thickness="50"
    underline-position="-150"
    slope="-8"
    unicode-range="U+000D-FB02"
  />
<missing-glyph horiz-adv-x="700" 
d="M164 705h401v-705h-401v705zM503 62v581h-277v-581h277z" />
    <glyph glyph-name="fi" unicode="fi" horiz-adv-x="539" 
d="M500 463l-65 -463h-50l65 463h-285l-65 -463h-50l65 463h-70l12 44h64l8 59q15 107 72.5 155t146.5 48q86 0 155 -42l-20 -39q-69 37 -137 37t-111.5 -38t-54.5 -117l-9 -63h335z" />
    <glyph glyph-name="fl" unicode="fl" horiz-adv-x="597" 
d="M538 36l-3 -45h-9q-61 0 -93 22t-32 77q0 25 3 47l77 556q-64 32 -134 32q-69 0 -112.5 -37.5t-54.5 -116.5l-9 -64h160l-7 -44h-159l-65 -463h-50l65 463h-70l12 44h64l8 59q28 203 222 203q100 0 183 -54l-79 -575q-3 -22 -3 -39q0 -40 18.5 -52.5t62.5 -12.5h5z" />
    <glyph glyph-name="f_f" unicode="ff" horiz-adv-x="634" 
d="M556 697q-27 -28 -36 -93l-14 -97h150l-7 -44h-149l-65 -463h-50l65 463h-284l-65 -463h-50l65 463h-71l12 44h65l14 101q23 161 159 161q53 0 92 -22l-11 -42q-38 19 -80 19q-47 0 -74 -27.5t-36 -92.5l-14 -97h284l14 101q23 161 159 161q53 0 92 -22l-11 -42
q-40 20 -81 20q-46 0 -73 -28z" />
    <glyph glyph-name="f_f_i" unicode="ffi" horiz-adv-x="873" 
d="M770 0h-50l65 463h-285l-65 -463h-50l65 463h-284l-65 -463h-50l65 463h-71l12 44h65l14 101q23 161 159 161q53 0 92 -22l-11 -42q-38 19 -80 19q-47 0 -74 -27.5t-36 -93.5l-14 -96h284l8 59q15 107 72.5 155t146.5 48q85 0 156 -42l-21 -39q-67 37 -137 37
q-68 0 -111 -37.5t-55 -117.5l-9 -63h335z" />
    <glyph glyph-name="f_f_l" unicode="ffl" horiz-adv-x="933" 
d="M873 36l-3 -45h-9q-61 0 -93 22t-32 77q0 17 4 47l77 556q-66 32 -135 32t-112 -37.5t-55 -116.5l-9 -64h159l-7 -44h-158l-65 -463h-50l65 463h-284l-65 -463h-50l65 463h-71l12 44h65l14 101q23 161 159 161q53 0 92 -22l-11 -42q-38 19 -80 19q-47 0 -74 -27.5
t-36 -93.5l-14 -96h284l8 59q28 203 222 203q100 0 184 -54l-80 -575q-3 -22 -3 -39q0 -40 18.5 -52.5t62.5 -12.5h5z" />
    <glyph glyph-name="uni04570457.liga" unicode="&#x457;&#x457;" horiz-adv-x="390" 
d="M41.5 631.5q-11.5 11.5 -11.5 28.5t11.5 29t28.5 12t29 -12t12 -29t-12 -28.5t-29 -11.5t-28.5 11.5zM161 631.5q-12 11.5 -12 28.5t12 29t29 12t28.5 -12t11.5 -29q0 -16 -11.5 -28t-28.5 -12t-29 11.5zM287 631.5q-12 11.5 -12 28.5t12 29t29 12t29 -12t12 -29
q0 -16 -12 -28t-29 -12t-29 11.5zM407 631.5q-12 11.5 -12 28.5t12 29t29 12t28.5 -12t11.5 -29q0 -16 -11.5 -28t-28.5 -12t-29 11.5zM83 507h50l-71 -507h-50zM329 507h50l-71 -507h-50z" />
    <glyph glyph-name=".notdef" horiz-adv-x="700" 
d="M164 705h401v-705h-401v705zM503 62v581h-277v-581h277z" />
    <glyph glyph-name=".null" horiz-adv-x="600" 
 />
    <glyph glyph-name="nonmarkingreturn" unicode="&#xd;" horiz-adv-x="600" 
 />
    <glyph glyph-name="space" unicode=" " horiz-adv-x="225" 
 />
    <glyph glyph-name="exclam" unicode="!" horiz-adv-x="216" 
d="M151 760h53l-91 -581h-41zM44.5 5.5q-14.5 14.5 -14.5 33.5t14 33t34 14t34 -14t14 -33t-14 -33.5t-34 -14.5q-19 0 -33.5 14.5z" />
    <glyph glyph-name="quotedbl" unicode="&#x22;" horiz-adv-x="312" 
d="M115 640l17 120h52l-18 -120l-31 -156h-32zM255 640l17 120h52l-18 -120l-31 -156h-32z" />
    <glyph glyph-name="numbersign" unicode="#" horiz-adv-x="762" 
d="M612 507l-97 -243h96l-7 -43h-107l-88 -221h-52l88 221h-221l-88 -221h-53l88 221h-95l6 43h107l97 243h-97l6 43h108l84 210h53l-84 -210h221l84 210h52l-84 -210h95l-7 -43h-105zM560 507h-221l-97 -243h221z" />
    <glyph glyph-name="dollar" unicode="$" horiz-adv-x="675" 
d="M512 361q37 -22 57 -56t20 -86q0 -103 -70.5 -163.5t-190.5 -64.5l-17 -118h-49l17 119q-102 7 -154 61.5t-52 149.5l50 5q0 -158 162 -170l48 342l-26 9q-92 31 -132 73t-40 108q0 59 31 104t88 70t133 25l16 117h50l-17 -119q92 -11 141 -62t51 -130l-50 -6
q-2 63 -38.5 103t-109.5 49l-43 -307l25 -9q63 -22 100 -44zM340 430l40 293q-86 -3 -139.5 -42.5t-53.5 -108.5q0 -50 32 -80.5t112 -58.5zM483.5 89.5q53.5 47.5 53.5 126.5q0 41 -16 66.5t-46 42t-83 35.5l-12 4l-46 -327q96 5 149.5 52.5z" />
    <glyph glyph-name="percent" unicode="%" horiz-adv-x="834" 
d="M155.5 434.5q-31.5 38.5 -31.5 110.5q0 63 21.5 113.5t58.5 78.5t82 28q51 0 83 -39t32 -109q0 -63 -21.5 -113.5t-58.5 -79t-82 -28.5q-52 0 -83.5 38.5zM726 760h57l-660 -760h-57zM301 460q26 26 40.5 68t14.5 89q0 55 -19.5 82.5t-53.5 27.5t-60 -25.5t-40 -68
t-14 -90.5q0 -53 19.5 -81t53.5 -28q33 0 59 26zM499.5 34q-31.5 39 -31.5 110q0 63 21.5 113.5t58 78.5t81.5 28q52 0 84 -38.5t32 -109.5q0 -63 -21.5 -113.5t-58.5 -79t-83 -28.5q-51 0 -82.5 39zM645 58.5q26 25.5 40.5 67.5t14.5 89q0 55 -20 83t-54 28
q-33 0 -59 -25.5t-40 -68t-14 -90.5q0 -54 19.5 -81.5t53.5 -27.5q33 0 59 25.5z" />
    <glyph glyph-name="ampersand" unicode="&#x26;" horiz-adv-x="694" 
d="M527 114l81 -114h-60l-54 76q-85 -85 -208 -85q-98 0 -155.5 53t-57.5 141q0 76 43.5 134.5t131.5 103.5q-31 45 -49 85.5t-18 84.5q0 76 46.5 126t128.5 50q67 0 107 -36.5t40 -95.5q0 -127 -188 -226l185 -259q48 73 65 177h48q-20 -129 -86 -215zM265 687
q-33 -37 -33 -95q0 -35 15 -70.5t44 -76.5q161 84 161 188q0 42 -27 66.5t-72 24.5q-55 0 -88 -37zM468 113l-196 277q-74 -40 -111 -88.5t-37 -112.5q0 -73 46 -112.5t122 -39.5q105 0 176 76z" />
    <glyph glyph-name="quotesingle" unicode="'" horiz-adv-x="172" 
d="M115 640l17 120h52l-18 -120l-31 -156h-32z" />
    <glyph glyph-name="parenleft" unicode="(" horiz-adv-x="321" 
d="M106.5 -28q-31.5 31 -31.5 87q0 17 3 38l84 596q11 79 50.5 118t112.5 39l-7 -46q-51 0 -75 -29.5t-32 -84.5l-83 -590q-3 -30 -3 -37q0 -38 18.5 -57.5t60.5 -19.5l-7 -46q-59 1 -90.5 32z" />
    <glyph glyph-name="parenright" unicode=")" horiz-adv-x="321" 
d="M254.5 817q31.5 -31 31.5 -87q0 -17 -3 -38l-84 -596q-11 -79 -50.5 -118t-112.5 -39l7 46q51 0 75 29.5t32 84.5l83 590q3 30 3 37q0 38 -18.5 57.5t-60.5 19.5l7 46q59 -1 90.5 -32z" />
    <glyph glyph-name="asterisk" unicode="*" horiz-adv-x="525" 
d="M335 532l81 -122l-45 -30l-71 134l-109 -134l-38 30l117 121l-145 44l25 51l139 -58l14 158h52l-29 -158l155 56l9 -50z" />
    <glyph glyph-name="plus" unicode="+" horiz-adv-x="523" 
d="M442 245h-159l-23 -161h-44l23 161h-160l6 43h160l22 160h44l-22 -160h159z" />
    <glyph glyph-name="comma" unicode="," horiz-adv-x="201" 
d="M105 72.5q14 -13.5 14 -35.5q0 -42 -29.5 -82.5t-74.5 -63.5l-10 17q28 20 42.5 40t21.5 44q-19 1 -32 14.5t-13 31.5q0 20 13.5 34t33.5 14t34 -13.5z" />
    <glyph glyph-name="hyphen" unicode="-" horiz-adv-x="424" 
d="M65 288h303l-6 -43h-303z" />
    <glyph glyph-name="period" unicode="." horiz-adv-x="196" 
d="M34.5 5.5q-14.5 14.5 -14.5 33.5t14 33t34 14t34 -14t14 -33t-14 -33.5t-34 -14.5q-19 0 -33.5 14.5z" />
    <glyph glyph-name="slash" unicode="/" horiz-adv-x="404" 
d="M373 760h53l-359 -760h-52z" />
    <glyph glyph-name="zero" unicode="0" horiz-adv-x="676" 
d="M178.5 26q-52.5 35 -80.5 102t-28 159q0 126 40 236.5t117 178t183 67.5q71 0 123 -35t80.5 -101.5t28.5 -158.5q0 -128 -40 -238.5t-117.5 -177.5t-183.5 -67q-70 0 -122.5 35zM460 99.5q64 62.5 97.5 162t33.5 206.5q0 123 -49 189t-137 66q-89 0 -153 -62.5
t-97.5 -162t-33.5 -206.5q0 -122 49.5 -188.5t136.5 -66.5q89 0 153 62.5z" />
    <glyph glyph-name="one" unicode="1" horiz-adv-x="355" 
d="M301 759l-107 -759h-51l92 652q-27 -12 -61.5 -16.5t-79.5 -4.5l6 41q53 0 84 8t48 26.5t25 52.5h44z" />
    <glyph glyph-name="two" unicode="2" horiz-adv-x="543" 
d="M123 199q-40 -64 -52 -154h392l-7 -45h-445l4 26q16 113 62.5 189.5t141.5 131.5l126 72q66 38 99.5 82.5t33.5 101.5q0 56 -38 88t-106 32t-116.5 -33.5t-71.5 -84.5l-51 3q33 78 97 119.5t147 41.5q91 0 141 -45.5t50 -115.5q0 -73 -43.5 -128.5t-124.5 -103.5
l-119 -67q-80 -46 -120 -110z" />
    <glyph glyph-name="three" unicode="3" horiz-adv-x="571" 
d="M478 339q32 -48 32 -111q0 -71 -32 -125t-90 -83t-132 -29q-92 0 -152 44.5t-68 130.5l49 4q9 -74 58.5 -103.5t116.5 -29.5q57 0 102 22t71 64.5t26 100.5q0 73 -48 115t-143 42h-48l7 45h40q62 0 111 23t76.5 63.5t27.5 91.5q0 54 -36.5 86.5t-104.5 32.5
q-67 0 -114 -32.5t-71 -85.5l-52 3q33 79 95.5 120t145.5 41q88 0 138.5 -45t50.5 -116q0 -70 -41.5 -122t-110.5 -79q64 -20 96 -68z" />
    <glyph glyph-name="four" unicode="4" horiz-adv-x="610" 
d="M586 198h-117l-28 -198h-51l28 198h-370l6 45l200 517h52l-200 -517h318l37 264h51l-37 -264h118z" />
    <glyph glyph-name="five" unicode="5" horiz-adv-x="585" 
d="M186 715l-38 -265q77 47 172 47q104 0 161 -59t57 -154q0 -83 -36 -150t-102 -105t-150 -38q-85 0 -144 45t-70 131l49 4q9 -74 58 -104.5t111 -30.5q68 0 121 32.5t82 88t29 123.5q0 83 -48 127.5t-128 44.5q-50 0 -98.5 -17t-88.5 -46l-32 13l50 358h407l-7 -45h-355z
" />
    <glyph glyph-name="six" unicode="6" horiz-adv-x="629" 
d="M479 470q50 -27 76.5 -76t26.5 -111q0 -84 -38.5 -151t-105 -104t-145.5 -37q-106 0 -168 67t-62 198q0 35 7 82q27 198 110 314.5t226 116.5q76 0 128.5 -40t66.5 -119l-49 -3q-28 116 -151 116q-111 0 -181.5 -96.5t-95.5 -256.5q38 61 102 94t137 33q66 0 116 -27z
M411 67q54 31 87 86t33 124q0 81 -48 128t-129 47q-62 0 -116.5 -29t-87.5 -81.5t-33 -118.5q0 -83 48.5 -135t130.5 -52q61 0 115 31z" />
    <glyph glyph-name="seven" unicode="7" horiz-adv-x="512" 
d="M586 760l-514 -760h-58l484 715h-416l7 45h497z" />
    <glyph glyph-name="eight" unicode="8" horiz-adv-x="606" 
d="M519.5 323q33.5 -40 33.5 -97q0 -63 -33.5 -117t-98.5 -86t-155 -32q-72 0 -123 26t-77 69.5t-26 94.5q0 79 48 138.5t131 96.5q-51 27 -75 66.5t-24 85.5q0 52 28.5 98t86 74.5t140.5 28.5q68 0 115.5 -23t71.5 -60.5t24 -81.5q0 -67 -46 -122t-121 -91
q67 -28 100.5 -68zM205.5 489q33.5 -34 105.5 -59l59 -21q82 38 123.5 84.5t41.5 105.5q0 55 -43.5 90t-121.5 35q-90 0 -144 -41t-54 -111q0 -49 33.5 -83zM387.5 60.5q52.5 24.5 83 67t30.5 95.5q0 93 -142 140l-83 28q-6 2 -10 4q-84 -33 -129.5 -86t-45.5 -124
q0 -68 50 -108.5t131 -40.5q63 0 115.5 24.5z" />
    <glyph glyph-name="nine" unicode="9" horiz-adv-x="629" 
d="M541 701.5q61 -67.5 61 -196.5q0 -44 -7 -83q-27 -199 -109.5 -315t-226.5 -116q-78 0 -132 39.5t-69 119.5l51 3q14 -61 54 -88.5t99 -27.5q113 0 183 95.5t96 257.5q-38 -61 -102.5 -94t-138.5 -33q-66 0 -115.5 27t-75.5 75.5t-26 111.5q0 85 38.5 151.5t105.5 103.5
t148 37q105 0 166 -67.5zM427 337.5q55 29.5 88 81.5t33 118q0 84 -48.5 135.5t-129.5 51.5q-63 0 -117 -30.5t-86.5 -85.5t-32.5 -127q0 -82 47.5 -127.5t127.5 -45.5q63 0 118 29.5z" />
    <glyph glyph-name="colon" unicode=":" horiz-adv-x="197" 
d="M35.5 5.5q-14.5 14.5 -14.5 33.5t14 33t34 14t34 -14t14 -33t-14 -33.5t-34 -14.5q-19 0 -33.5 14.5zM83.5 355.5q-14.5 14.5 -14.5 33.5t14 33t34 14t34 -14t14 -33t-14 -33.5t-34 -14.5q-19 0 -33.5 14.5z" />
    <glyph glyph-name="semicolon" unicode=";" horiz-adv-x="202" 
d="M106 72.5q14 -13.5 14 -35.5q0 -42 -29.5 -82.5t-74.5 -63.5l-10 17q28 20 42.5 40t21.5 44q-19 1 -32 14.5t-13 31.5q0 20 13.5 34t33.5 14t34 -13.5zM88.5 355.5q-14.5 14.5 -14.5 33.5t14 33t34 14t34 -14t14 -33t-14 -33.5t-34 -14.5q-19 0 -33.5 14.5z" />
    <glyph glyph-name="less" unicode="&#x3c;" horiz-adv-x="522" 
d="M467 436l-344 -166l297 -171l-7 -50l-335 194l8 54l388 193z" />
    <glyph glyph-name="equal" unicode="=" horiz-adv-x="524" 
d="M98 375h363l-7 -44h-363zM73 201h363l-5 -43h-363z" />
    <glyph glyph-name="greater" unicode="&#x3e;" horiz-adv-x="522" 
d="M59 104l344 166l-297 171l7 50l335 -194l-8 -54l-388 -193z" />
    <glyph glyph-name="question" unicode="?" horiz-adv-x="559" 
d="M209 201q7 57 20.5 96.5t41.5 73t78 59.5l43 23q103 54 103 150q0 62 -40.5 91t-105.5 29q-118 0 -193 -92l-40 23q91 115 237 115q90 0 141.5 -43t51.5 -121q0 -64 -35.5 -111t-102.5 -82l-39 -21q-51 -27 -74 -67t-33 -112l-5 -33h-51zM189.5 5.5
q-14.5 14.5 -14.5 33.5t14 33t34 14t34 -14t14 -33t-14 -33.5t-34 -14.5q-19 0 -33.5 14.5z" />
    <glyph glyph-name="at" unicode="@" horiz-adv-x="1029" 
d="M796.5 726.5q81.5 -42.5 127 -119.5t45.5 -175q0 -80 -26.5 -154.5t-76 -121t-114.5 -46.5q-46 0 -73.5 26t-27.5 71v9q-35 -50 -87.5 -78t-116.5 -28q-74 0 -119.5 45.5t-45.5 120.5q0 77 39 144t103 107t134 40q55 0 92.5 -24.5t54.5 -70.5l20 86h51l-73 -295
q-6 -24 -6 -37q0 -36 18 -54.5t48 -18.5q46 0 82 42.5t55.5 106t19.5 123.5q0 90 -39.5 158t-111.5 105.5t-165 37.5q-130 0 -238 -65t-171 -176.5t-63 -243.5q0 -92 38 -162.5t108.5 -109t165.5 -38.5q116 0 236 63l13 -39q-134 -67 -259 -67q-105 0 -184.5 45t-122.5 124
t-43 180q0 148 70 270t190.5 192t265.5 70q105 0 186.5 -42.5zM569 187.5q51 33.5 81 89t30 118.5q0 58 -34.5 92.5t-92.5 34.5t-109.5 -33t-82.5 -87.5t-31 -114.5q0 -61 34.5 -97t95.5 -36q58 0 109 33.5z" />
    <glyph glyph-name="A" unicode="A" horiz-adv-x="581" 
d="M461 150h-368l-70 -150h-53l363 760h58l149 -760h-51zM452 195l-97 516l-241 -516h338z" />
    <glyph glyph-name="B" unicode="B" horiz-adv-x="572" 
d="M504.5 338q29.5 -42 29.5 -98q0 -69 -29.5 -123.5t-88.5 -85.5t-143 -31h-233l107 760h216q99 0 148.5 -44t49.5 -115q0 -69 -36.5 -123t-106.5 -78q57 -20 86.5 -62zM191 715l-42 -294h162q98 0 148 50.5t50 125.5q0 54 -36.5 86t-115.5 32h-166zM433 98.5
q50 53.5 50 139.5q0 62 -43 100t-125 38h-172l-47 -331h184q103 0 153 53.5z" />
    <glyph glyph-name="C" unicode="C" horiz-adv-x="815" 
d="M217.5 32q-72.5 41 -112.5 117t-40 177q0 118 57 220t154.5 162.5t213.5 60.5q125 0 207.5 -68t105.5 -183l-52 -6q-22 99 -90.5 155t-172.5 56q-102 0 -187 -54.5t-135 -146t-50 -194.5q0 -88 33.5 -154t95 -101.5t142.5 -35.5q106 0 192.5 58t135.5 155l51 -6
q-56 -117 -156 -185t-226 -68q-94 0 -166.5 41z" />
    <glyph glyph-name="D" unicode="D" horiz-adv-x="747" 
d="M560 718.5q76 -41.5 117 -113.5t41 -162q0 -127 -56 -228t-156 -158t-225 -57h-241l107 760h235q102 0 178 -41.5zM480.5 97q87.5 52 137 141t49.5 198q0 82 -34.5 145t-101 98.5t-158.5 35.5h-182l-95 -670h187q110 0 197.5 52z" />
    <glyph glyph-name="E" unicode="E" horiz-adv-x="543" 
d="M191 715l-42 -294h351l-7 -45h-350l-47 -331h360l-7 -45h-409l107 760h404l-7 -45h-353z" />
    <glyph glyph-name="F" unicode="F" horiz-adv-x="497" 
d="M191 715l-42 -294h326l-7 -45h-325l-53 -376h-50l107 760h379l-7 -45h-328z" />
    <glyph glyph-name="G" unicode="G" horiz-adv-x="800" 
d="M400 386h347l-43 -304q-60 -40 -135 -65.5t-163 -25.5q-106 0 -182.5 40t-117.5 116t-41 180q0 117 55.5 219t152 162.5t214.5 60.5q119 0 193 -59.5t98 -146.5l-51 -6q-20 68 -82.5 117t-161.5 49q-104 0 -188 -55.5t-131.5 -147t-47.5 -193.5q0 -139 77.5 -214.5
t217.5 -75.5q133 0 246 68l33 236h-296z" />
    <glyph glyph-name="H" unicode="H" horiz-adv-x="655" 
d="M651 760l-107 -760h-50l53 376h-404l-53 -376h-50l107 760h50l-48 -339h404l48 339h50z" />
    <glyph glyph-name="I" unicode="I" horiz-adv-x="201" 
d="M147 760h50l-107 -760h-50z" />
    <glyph glyph-name="J" unicode="J" horiz-adv-x="529" 
d="M76 40.5q-49 49.5 -49 140.5l50 4q0 -148 140 -148q77 0 125.5 46.5t62.5 151.5l74 525h50l-74 -528q-18 -125 -78 -183t-162 -58q-90 0 -139 49.5z" />
    <glyph glyph-name="K" unicode="K" horiz-adv-x="574" 
d="M334 434l189 -434h-53l-171 393l-183 -207l-26 -186h-50l107 760h50l-70 -498l437 498h57z" />
    <glyph glyph-name="L" unicode="L" horiz-adv-x="483" 
d="M428 45l-7 -45h-381l107 760h50l-101 -715h332z" />
    <glyph glyph-name="M" unicode="M" horiz-adv-x="831" 
d="M771 760l-23 -760h-49l23 684l-319 -684h-43l-128 687l-169 -687h-51l191 760h58l129 -693l322 693h59z" />
    <glyph glyph-name="N" unicode="N" horiz-adv-x="655" 
d="M651 760l-107 -760h-50l-308 680l-96 -680h-50l107 760h50v-2l308 -678l96 680h50z" />
    <glyph glyph-name="O" unicode="O" horiz-adv-x="840" 
d="M216 33q-72 42 -111.5 118t-39.5 176q0 119 57.5 220.5t155.5 161.5t214 60q95 0 167 -41.5t112 -118t40 -177.5q0 -118 -57.5 -219.5t-156 -161.5t-214.5 -60q-95 0 -167 42zM573 91.5q86 54.5 136 145.5t50 195q0 87 -33 153t-94 102t-143 36q-102 0 -187.5 -55
t-135.5 -146t-50 -195q0 -87 33 -153t94 -101.5t142 -35.5q102 0 188 54.5z" />
    <glyph glyph-name="P" unicode="P" horiz-adv-x="615" 
d="M551.5 703.5q58.5 -56.5 58.5 -159.5q0 -83 -35 -148.5t-101 -103t-154 -37.5h-194l-36 -255h-50l107 760h227q119 0 177.5 -56.5zM449.5 332q53.5 32 81.5 86.5t28 122.5q0 86 -45 130t-149 44h-174l-59 -415h191q73 0 126.5 32z" />
    <glyph glyph-name="Q" unicode="Q" horiz-adv-x="840" 
d="M761 226q-50 -96 -136 -157l102 -159l-41 -29l-104 161q-94 -51 -199 -51q-95 0 -167 42t-111.5 118t-39.5 176q0 119 57.5 220.5t155.5 161.5t214 60q95 0 167 -41.5t112 -118t40 -177.5q0 -110 -50 -206zM557 82l-153 238l42 28l153 -239q74 56 117 141.5t43 181.5
q0 87 -33 153t-94 102t-143 36q-102 0 -187.5 -55t-135.5 -146t-50 -195q0 -87 33 -153t94 -101.5t142 -35.5q93 0 172 45z" />
    <glyph glyph-name="R" unicode="R" horiz-adv-x="615" 
d="M557.5 369.5q-52.5 -74.5 -144.5 -101.5l107 -268h-56l-103 258q-21 -3 -43 -3h-192l-36 -255h-50l107 760h227q119 0 177.5 -56.5t58.5 -159.5q0 -100 -52.5 -174.5zM449.5 332q53.5 32 81.5 86.5t28 122.5q0 86 -45 130t-149 44h-174l-59 -415h191q73 0 126.5 32z" />
    <glyph glyph-name="S" unicode="S" horiz-adv-x="619" 
d="M103.5 46q-60.5 55 -60.5 157l50 5q0 -171 191 -171q105 0 164 47.5t59 131.5q0 41 -16 66.5t-46 42t-83 35.5l-85 29q-92 31 -132 73t-40 108q0 59 31.5 104.5t89.5 70t135 24.5q114 0 174.5 -53t62.5 -141l-50 -6q-2 71 -48 112.5t-138 41.5q-90 0 -147.5 -40
t-57.5 -111q0 -50 32 -80.5t112 -58.5l81 -28q63 -22 100 -44t57 -56t20 -86q0 -106 -75 -167t-202 -61q-118 0 -178.5 55z" />
    <glyph glyph-name="T" unicode="T" horiz-adv-x="580" 
d="M617 715h-236l-101 -715h-51l101 715h-238l7 45h525z" />
    <glyph glyph-name="U" unicode="U" horiz-adv-x="657" 
d="M127.5 47q-60.5 56 -60.5 160q0 25 5 62l70 491h50l-70 -496q-5 -32 -5 -56q0 -83 47.5 -127t134.5 -44q101 0 161.5 57t76.5 166l71 500h50l-70 -496q-19 -136 -91 -204.5t-201 -68.5q-108 0 -168.5 56z" />
    <glyph glyph-name="V" unicode="V" horiz-adv-x="586" 
d="M652 760l-365 -760h-59l-151 760h51l136 -709l333 709h55z" />
    <glyph glyph-name="W" unicode="W" horiz-adv-x="942" 
d="M998 760l-315 -760h-58l-95 684l-283 -684h-57l-103 760h50l89 -700l290 700h49l96 -702l283 702h54z" />
    <glyph glyph-name="X" unicode="X" horiz-adv-x="546" 
d="M319 386l186 -386h-52l-165 343l-262 -343h-56l295 387l-179 373h53l158 -329l250 329h56z" />
    <glyph glyph-name="Y" unicode="Y" horiz-adv-x="539" 
d="M608 760l-499 -760h-54l214 326l-185 434h53l162 -389l255 389h54z" />
    <glyph glyph-name="Z" unicode="Z" horiz-adv-x="576" 
d="M88 44h418l-6 -44h-500l519 716h-393l7 44h474z" />
    <glyph glyph-name="bracketleft" unicode="[" horiz-adv-x="357" 
d="M228 806l-115 -822h126l-6 -44h-176l127 910h171l-5 -44h-122z" />
    <glyph glyph-name="backslash" unicode="\" horiz-adv-x="619" 
d="M175 760h-53l359 -760h52z" />
    <glyph glyph-name="bracketright" unicode="]" horiz-adv-x="357" 
d="M169 -20l115 822h-126l6 44h176l-127 -910h-171l5 44h122z" />
    <glyph glyph-name="asciicircum" unicode="^" horiz-adv-x="461" 
d="M352 400l-75 174l-124 -174h-52l152 211h55l93 -211h-49z" />
    <glyph glyph-name="underscore" unicode="_" horiz-adv-x="610" 
d="M-20 -99h550l-5 -43h-550z" />
    <glyph glyph-name="grave" unicode="`" horiz-adv-x="299" 
d="M187 760l109 -169h-39l-135 169h65z" />
    <glyph glyph-name="a" unicode="a" horiz-adv-x="609" 
d="M577 507l-71 -507h-45l14 120q-34 -60 -92.5 -94.5t-128.5 -34.5q-60 0 -108 28t-75 79t-27 118q0 85 38 153.5t102.5 107.5t141.5 39q69 0 117.5 -33t67.5 -93l16 117h50zM381.5 71q53.5 35 84 94t30.5 127q0 83 -45.5 131t-123.5 48q-64 0 -117.5 -32.5t-84.5 -90
t-31 -128.5q0 -86 46 -135t123 -49q65 0 118.5 35z" />
    <glyph glyph-name="b" unicode="b" horiz-adv-x="609" 
d="M465 487.5q48 -28.5 74.5 -78.5t26.5 -114q0 -88 -37.5 -157.5t-102.5 -108t-143 -38.5q-69 0 -118 33.5t-68 92.5l-20 -117h-45l107 760h50l-53 -369q36 59 93 92t127 33q61 0 109 -28.5zM400.5 68.5q53.5 32.5 84.5 91t31 132.5q0 83 -46 131t-124 48
q-66 0 -119.5 -34.5t-83.5 -93t-30 -127.5q0 -83 46 -131.5t124 -48.5q64 0 117.5 32.5z" />
    <glyph glyph-name="c" unicode="c" horiz-adv-x="570" 
d="M145.5 19q-48.5 28 -75 78t-26.5 115q0 88 37 157.5t102.5 108t146.5 38.5q79 0 135 -41.5t73 -113.5l-51 -6q-15 56 -57 86t-101 30q-69 0 -122.5 -33t-83 -90.5t-29.5 -129.5q0 -85 45 -133.5t124 -48.5q64 0 119.5 35t83.5 96l48 -5q-33 -80 -101 -125.5t-155 -45.5
q-64 0 -112.5 28z" />
    <glyph glyph-name="d" unicode="d" horiz-adv-x="610" 
d="M613 760l-107 -760h-45l14 121q-34 -61 -92 -95.5t-128 -34.5q-61 0 -109 27.5t-75 78.5t-27 118q0 86 38 154.5t102.5 107.5t141.5 39q69 0 117.5 -33t67.5 -93l52 370h50zM381 71q54 35 84.5 94t30.5 128q0 82 -45.5 130t-124.5 48q-64 0 -117 -32.5t-84 -90
t-31 -129.5q0 -85 46 -134t122 -49q65 0 119 35z" />
    <glyph glyph-name="e" unicode="e" horiz-adv-x="573" 
d="M94 238q-1 -8 -1 -25q0 -83 46.5 -130t122.5 -47q64 0 113 30t81 85l49 -6q-39 -74 -102.5 -114t-144.5 -40q-63 0 -112 28t-76 78t-27 114q0 84 36 153.5t100.5 110.5t145.5 41q95 0 150.5 -57.5t55.5 -152.5q0 -15 -1.5 -33.5t-4.5 -34.5h-431zM180.5 418
q-60.5 -53 -79.5 -137h379q1 7 1 22q0 82 -43 125t-115 43q-82 0 -142.5 -53z" />
    <glyph glyph-name="f" unicode="f" horiz-adv-x="299" 
d="M222 696.5q-27 -27.5 -36 -93.5l-14 -96h150l-7 -44h-149l-65 -463h-50l65 463h-71l12 44h65l14 101q23 161 159 161q53 0 92 -22l-11 -42q-38 19 -80 19q-47 0 -74 -27.5z" />
    <glyph glyph-name="g" unicode="g" horiz-adv-x="610" 
d="M577 507l-63 -447q-18 -134 -86 -198t-183 -64q-84 0 -135 33.5t-65 82.5l50 9q13 -36 51 -59.5t101 -23.5q187 0 217 214l8 61q-35 -58 -92 -91t-125 -33q-61 0 -109 28t-75 78.5t-27 116.5q0 86 37.5 155t102.5 108t143 39q68 0 117 -34t68 -95l20 120h45zM381.5 70.5
q53.5 34.5 84 94t30.5 129.5q0 81 -46 129t-122 48q-65 0 -118.5 -33t-84.5 -90.5t-31 -128.5q0 -85 46 -134t124 -49q64 0 117.5 34.5z" />
    <glyph glyph-name="h" unicode="h" horiz-adv-x="560" 
d="M462.5 473q45.5 -43 45.5 -119q0 -23 -3 -44l-44 -310h-50l43 306q4 28 4 40q0 62 -33.5 94.5t-99.5 32.5q-81 0 -134.5 -54t-69.5 -139l-39 -280h-50l107 760h50l-51 -363q34 59 86 89t115 30q78 0 123.5 -43z" />
    <glyph glyph-name="i" unicode="i" horiz-adv-x="187" 
d="M118.5 627q-13.5 13 -13.5 32q0 20 13.5 33t32.5 13t32 -13.5t13 -32.5t-13 -32t-32 -13t-32.5 13zM104 507h50l-71 -507h-50z" />
    <glyph glyph-name="j" unicode="j" horiz-adv-x="200" 
d="M131.5 627q-13.5 13 -13.5 32q0 20 13.5 33t32.5 13t32 -13.5t13 -32.5t-13 -32t-32 -13t-32.5 13zM-150 -186l10 44q37 -16 75 -16q46 0 71.5 28.5t34.5 92.5l76 544h50l-77 -553q-23 -156 -155 -156q-51 0 -85 16z" />
    <glyph glyph-name="k" unicode="k" horiz-adv-x="474" 
d="M273 321l163 -321h-52l-148 288l-131 -123l-23 -165h-50l107 760h50l-74 -525l293 272h64z" />
    <glyph glyph-name="l" unicode="l" horiz-adv-x="244" 
d="M79 13.5q-31 22.5 -31 78.5q0 21 3 45l88 623h50l-87 -620q-3 -22 -3 -39q0 -39 18.5 -52t60.5 -13h7l-3 -45h-11q-61 0 -92 22.5z" />
    <glyph glyph-name="m" unicode="m" horiz-adv-x="869" 
d="M773 475.5q45 -40.5 45 -119.5q0 -18 -3 -41l-44 -315h-50l43 306q4 28 4 42q0 60 -30 92.5t-88 32.5q-74 0 -122.5 -57t-62.5 -143l-39 -273h-50l43 306q4 28 4 43q0 60 -31 92t-88 32q-72 0 -119.5 -55t-62.5 -137l-40 -281h-50l71 507h45l-11 -109q31 58 78 88t103 30
q63 0 105 -35t49 -97q32 65 81 98.5t107 33.5q68 0 113 -40.5z" />
    <glyph glyph-name="n" unicode="n" horiz-adv-x="560" 
d="M462.5 473q45.5 -43 45.5 -119q0 -23 -3 -44l-44 -310h-50l43 306q4 28 4 40q0 62 -33.5 94.5t-99.5 32.5q-81 0 -134 -54t-69 -138l-40 -281h-50l71 507h45l-11 -112q33 60 85.5 90.5t116.5 30.5q78 0 123.5 -43z" />
    <glyph glyph-name="o" unicode="o" horiz-adv-x="591" 
d="M147 18.5q-49 27.5 -76 78t-27 118.5q0 85 37.5 154t103 108t146.5 39q64 0 113 -27.5t76 -78t27 -117.5q0 -86 -37.5 -155t-103 -108t-146.5 -39q-64 0 -113 27.5zM381 69q54 33 85 91t31 130q0 86 -45.5 133.5t-122.5 47.5q-66 0 -119.5 -33t-84.5 -90.5t-31 -129.5
q0 -86 45.5 -134t122.5 -48q65 0 119 33z" />
    <glyph glyph-name="p" unicode="p" horiz-adv-x="610" 
d="M465.5 488.5q47.5 -27.5 74 -78t26.5 -115.5q0 -88 -38 -157.5t-102.5 -108t-142.5 -38.5q-68 0 -116 32.5t-68 90.5l-44 -307h-50l98 700h45l-14 -123q35 63 93 97.5t130 34.5q61 0 108.5 -27.5zM401 69q53 33 84 91.5t31 130.5q0 85 -46.5 132.5t-123.5 47.5
q-66 0 -119.5 -34.5t-83.5 -93t-30 -127.5q0 -83 46.5 -131.5t125.5 -48.5q63 0 116 33z" />
    <glyph glyph-name="q" unicode="q" horiz-adv-x="607" 
d="M577 507l-98 -700h-50l45 313q-34 -61 -92 -95t-127 -34q-61 0 -109 28t-75 79t-27 118q0 86 38 154.5t102.5 107t141.5 38.5q70 0 119 -34.5t67 -95.5l20 121h45zM381.5 71q53.5 35 84 94t30.5 128q0 82 -45.5 130t-124.5 48q-64 0 -117 -32.5t-84 -90t-31 -129.5
q0 -85 46 -134t123 -49q65 0 118.5 35z" />
    <glyph glyph-name="r" unicode="r" horiz-adv-x="349" 
d="M363 514l-11 -52q-16 4 -44 4q-71 0 -121.5 -58t-68.5 -152l-36 -256h-50l71 507h45l-12 -120q33 63 82 96t104 33q29 0 41 -2z" />
    <glyph glyph-name="s" unicode="s" horiz-adv-x="455" 
d="M65.5 28q-43.5 37 -43.5 108l50 5q0 -56 30 -80.5t94 -24.5q71 0 112.5 28.5t41.5 86.5q0 25 -14 41t-37 26.5t-67 24.5l-36 11q-68 22 -101.5 48t-33.5 75q0 65 51 102t138 37q76 0 122 -34t47 -95l-50 -6q-2 43 -33 66.5t-91 23.5q-62 0 -98 -25t-36 -68
q0 -30 24.5 -46.5t76.5 -33.5l40 -13q51 -16 81 -31t48.5 -39t18.5 -61q0 -80 -56 -121.5t-148 -41.5q-87 0 -130.5 37z" />
    <glyph glyph-name="t" unicode="t" horiz-adv-x="324" 
d="M121 147q-3 -19 -3 -37q0 -40 18 -57.5t55 -17.5t71 9l-4 -42q-35 -11 -77 -11q-53 0 -83 28t-30 85q0 20 3 42l44 317h-70l9 44h67l19 133h50l-19 -133h143l-6 -44h-143z" />
    <glyph glyph-name="u" unicode="u" 
d="M515 507l-71 -507h-45l12 112q-33 -60 -84.5 -90.5t-113.5 -30.5q-73 0 -117.5 42.5t-44.5 115.5q0 20 3 41l44 317h50l-43 -313q-3 -21 -3 -39q0 -61 34 -91t95 -30q81 0 132.5 59t64.5 149l37 265h50z" />
    <glyph glyph-name="v" unicode="v" horiz-adv-x="483" 
d="M516 507l-281 -507h-58l-139 507h52l121 -460l250 460h55z" />
    <glyph glyph-name="w" unicode="w" horiz-adv-x="772" 
d="M795 507l-240 -507h-56l-86 444l-210 -444h-57l-98 507h50l83 -455l216 455h48l89 -454l208 454h53z" />
    <glyph glyph-name="x" unicode="x" horiz-adv-x="438" 
d="M249 258l146 -258h-53l-125 221l-187 -221h-58l222 263l-138 244h53l117 -207l174 207h59z" />
    <glyph glyph-name="y" unicode="y" 
d="M515 507l-65 -462q-16 -122 -78 -184.5t-165 -62.5q-78 0 -122.5 31t-55.5 82l49 10q8 -38 40.5 -59.5t91.5 -21.5q162 0 190 204l9 64q-33 -58 -84 -87.5t-112 -29.5q-73 0 -117.5 42.5t-44.5 115.5q0 20 3 41l44 317h50l-43 -313q-3 -21 -3 -39q0 -61 34 -91t95 -30
q78 0 129 55.5t66 140.5l39 277h50z" />
    <glyph glyph-name="z" unicode="z" horiz-adv-x="454" 
d="M88 44h301l-7 -44h-387l366 463h-282l10 44h365z" />
    <glyph glyph-name="braceleft" unicode="{" horiz-adv-x="419" 
d="M422 850l-6 -43q-51 0 -76 -25t-33 -81l-26 -182q-13 -92 -81 -123q49 -26 49 -92q0 -23 -2 -37l-26 -178l-2 -31q0 -40 18.5 -57.5t62.5 -17.5l-5 -43h-9q-57 0 -87 30.5t-30 82.5q0 23 4 46l23 167q3 21 3 37q0 37 -19 54t-62 17l4 35l1 7q51 0 75.5 24.5t32.5 78.5
l25 174q11 82 47 119.5t107 37.5h12z" />
    <glyph glyph-name="bar" unicode="|" horiz-adv-x="290" 
d="M192 760h50l-134 -953h-51z" />
    <glyph glyph-name="braceright" unicode="}" horiz-adv-x="419" 
d="M37 -61l6 43q51 0 76 25t33 81l26 182q13 92 81 123q-49 26 -49 92q0 23 2 37l26 178l2 31q0 40 -18.5 57.5t-62.5 17.5l5 43h9q57 0 87 -30.5t30 -82.5q0 -23 -4 -46l-23 -167q-3 -21 -3 -37q0 -37 19 -54t62 -17l-4 -35l-1 -7q-51 0 -75.5 -24.5t-32.5 -78.5l-25 -174
q-11 -82 -47 -119.5t-107 -37.5h-12z" />
    <glyph glyph-name="asciitilde" unicode="~" horiz-adv-x="587" 
d="M369 425q-24 7 -53 20q-34 14 -54.5 20.5t-47.5 6.5q-33 0 -59 -11t-50 -33l7 49q44 39 109 39q28 0 51 -7t55 -20q30 -13 53.5 -20t49.5 -7q65 0 113 45l-7 -50q-22 -18 -51.5 -28.5t-62.5 -10.5q-29 0 -53 7z" />
    <glyph glyph-name="uni00A0" unicode="&#xa0;" horiz-adv-x="225" 
 />
    <glyph glyph-name="exclamdown" unicode="&#xa1;" horiz-adv-x="217" 
d="M181 562q14 -14 14 -34q0 -19 -14 -33t-34 -14t-34 14t-14 33q0 20 14.5 34t33.5 14q20 0 34 -14zM74 -193h-53l91 581h41z" />
    <glyph glyph-name="cent" unicode="&#xa2;" horiz-adv-x="641" 
d="M424.5 76.5q49.5 34.5 75.5 90.5l48 -5q-31 -76 -94 -121t-144 -50l-17 -118h-49l17 120q-84 10 -133.5 69.5t-49.5 149.5q0 83 32.5 149t91 106.5t132.5 47.5l17 123h49l-17 -123q72 -4 122 -45.5t67 -108.5l-51 -6q-14 52 -52 82t-92 34l-61 -434q59 5 108.5 39.5z
M165 94.5q37 -47.5 102 -56.5l60 431q-60 -8 -105 -42.5t-69.5 -88.5t-24.5 -120q0 -76 37 -123.5z" />
    <glyph glyph-name="sterling" unicode="&#xa3;" horiz-adv-x="613" 
d="M264.5 702.5q-41.5 -20.5 -65.5 -57t-24 -84.5q0 -36 15 -68t46 -73q31 -42 48 -77h206l-6 -44h-183q6 -24 6 -50q0 -54 -24.5 -108.5t-65.5 -96.5h286l-7 -44h-432l7 44h83q104 97 104 197q0 29 -10 58h-144l7 44h117q-14 26 -37 56q-31 40 -48.5 78t-17.5 80
q0 60 29 108t83 76t125 28q83 0 137 -44.5t68 -123.5l-50 -4q-13 57 -52.5 91.5t-105.5 34.5q-53 0 -94.5 -20.5z" />
    <glyph glyph-name="currency" unicode="&#xa4;" horiz-adv-x="695" 
d="M600 389q0 -53 -19 -101.5t-53 -86.5l68 -79l-40 -36l-67 79q-73 -54 -163 -54q-44 0 -81.5 13.5t-64.5 38.5l-86 -76l-31 36l87 75q-33 52 -33 120q0 55 19.5 104.5t54.5 86.5l-64 76l40 36l65 -76q72 51 159 51q91 0 149 -55l89 79l31 -36l-91 -80q31 -48 31 -115z
M441 186q50 30 79 83t29 117q0 76 -45 120.5t-118 44.5q-62 0 -111.5 -31t-78 -83.5t-28.5 -115.5q0 -76 45 -120.5t118 -44.5q60 0 110 30z" />
    <glyph glyph-name="yen" unicode="&#xa5;" horiz-adv-x="654" 
d="M389 381h164l-7 -44h-181l-13 -92h181l-6 -45h-182l-28 -200h-51l28 200h-181l6 45h182l13 92h-183l7 44h163l-149 379h52l140 -370l246 370h56z" />
    <glyph glyph-name="brokenbar" unicode="&#xa6;" horiz-adv-x="291" 
d="M192 760h50l-46 -332h-51zM104 139h50l-46 -332h-51z" />
    <glyph glyph-name="section" unicode="&#xa7;" horiz-adv-x="603" 
d="M240.5 684.5q-44.5 -38.5 -44.5 -104.5q0 -81 110 -122l46 -19q77 -30 113.5 -65t36.5 -88q0 -51 -25.5 -95t-72.5 -75q63 -45 63 -117q0 -58 -26 -103.5t-77 -71.5t-123 -26q-90 0 -143 48t-56 135l50 6q8 -144 152 -144q77 0 124.5 40t47.5 108q0 80 -110 121l-46 19
q-77 30 -113.5 65t-36.5 88q0 51 25.5 95t73.5 75q-64 49 -64 121q0 89 58.5 141.5t164.5 52.5q89 0 144 -49.5t57 -134.5l-50 -6q-3 68 -43.5 106t-112.5 38q-78 0 -122.5 -38.5zM285 414q-23 9 -36 16q-40 -23 -64 -61t-24 -78t28.5 -66.5t95.5 -52.5l42 -16
q26 -10 37 -16q40 23 63 61t23 78t-28.5 67t-94.5 52z" />
    <glyph glyph-name="dieresis" unicode="&#xa8;" horiz-adv-x="343" 
d="M119.5 630.5q-12.5 12.5 -12.5 29.5q0 18 12.5 30t30.5 12q17 0 29.5 -12t12.5 -30q0 -17 -12.5 -29.5t-29.5 -12.5q-18 0 -30.5 12.5zM279 630.5q-12 12.5 -12 29.5q0 18 12 30t30 12q17 0 29 -12t12 -30q0 -17 -12 -29.5t-29 -12.5q-18 0 -30 12.5z" />
    <glyph glyph-name="copyright" unicode="&#xa9;" horiz-adv-x="973" 
d="M298.5 43q-91.5 52 -144 141t-52.5 196t52.5 196t144 141t205.5 52t206 -52t144.5 -141t52.5 -196t-52.5 -196t-144.5 -141t-206 -52t-205.5 52zM688 77q83 47 130 127.5t47 175.5t-47 175.5t-130 127.5t-184 47t-183.5 -47t-129.5 -127.5t-47 -175.5t47 -175.5
t129.5 -127.5t183.5 -47t184 47zM392 172q-51 30 -80 84t-29 125t29.5 125t81 83.5t115.5 29.5q73 0 127.5 -38t79.5 -103l-47 -5q-21 50 -63.5 77.5t-97.5 27.5q-51 0 -91.5 -24t-64 -69t-23.5 -104q0 -60 23.5 -104.5t64 -68.5t91.5 -24q59 0 103.5 31.5t63.5 86.5l44 -5
q-22 -71 -78.5 -113t-132.5 -42q-65 0 -116 30z" />
    <glyph glyph-name="ordfeminine" unicode="&#xaa;" horiz-adv-x="461" 
d="M472 760l-46 -325h-40l6 60q-26 -31 -62.5 -48.5t-77.5 -17.5q-66 0 -105.5 42t-39.5 107q0 54 26.5 98t70 68.5t93.5 24.5q42 0 74.5 -18t49.5 -51l9 60h42zM333.5 486.5q33.5 19.5 53.5 54t20 76.5q0 51 -31 82t-80 31q-38 0 -71.5 -18.5t-54 -52t-20.5 -75.5
q0 -52 30 -84.5t81 -32.5q39 0 72.5 19.5z" />
    <glyph glyph-name="guillemotleft" unicode="&#xab;" horiz-adv-x="423" 
d="M199 480h54l-140 -209l81 -207h-50l-81 210zM340 480h54l-140 -209l81 -207h-50l-81 210z" />
    <glyph glyph-name="logicalnot" unicode="&#xac;" horiz-adv-x="600" 
d="M540 395l-26 -187h-47l20 144h-393l6 43h440z" />
    <glyph glyph-name="uni00AD" unicode="&#xad;" horiz-adv-x="424" 
d="M65 288h303l-6 -43h-303z" />
    <glyph glyph-name="registered" unicode="&#xae;" horiz-adv-x="696" 
d="M522 735.5q61 -33.5 94.5 -91.5t33.5 -128t-34 -128.5t-94.5 -92.5t-137.5 -34t-137.5 34t-94 92.5t-33.5 128.5t33.5 128t94 91.5t137.5 33.5t138 -33.5zM501.5 327q51.5 29 80 78.5t28.5 110.5q0 60 -28.5 109.5t-80 78.5t-117.5 29t-117.5 -29t-80 -78.5t-28.5 -109.5
q0 -61 28.5 -110.5t80 -78.5t117.5 -29t117.5 29zM464 526.5q-13 -19.5 -35 -29.5l46 -97h-43l-42 90h-40v-90h-39v250h80q39 0 62.5 -22.5t23.5 -56.5q0 -25 -13 -44.5zM424 538q14 13 14 33q0 19 -14 32t-36 13h-38v-91h37q23 0 37 13z" />
    <glyph glyph-name="macron" unicode="&#xaf;" horiz-adv-x="372" 
d="M112 696h272l-5 -39h-272z" />
    <glyph glyph-name="degree" unicode="&#xb0;" horiz-adv-x="415" 
d="M173 552q-37 37 -37 90t37 90t89 37q34 0 63.5 -17t46.5 -46.5t17 -63.5t-17 -63.5t-46.5 -46.5t-63.5 -17q-52 0 -89 37zM326 578.5q26 26.5 26 63.5q0 38 -26 64t-64 26q-37 0 -63.5 -26t-26.5 -64q0 -37 26.5 -63.5t63.5 -26.5q38 0 64 26.5z" />
    <glyph glyph-name="plusminus" unicode="&#xb1;" horiz-adv-x="535" 
d="M461 377h-159l-23 -161h-44l23 161h-160l6 43h160l22 160h44l-22 -160h159zM70 94h363l-6 -43h-363z" />
    <glyph glyph-name="uni00B2" unicode="&#xb2;" horiz-adv-x="407" 
d="M181.5 499q-19.5 -24 -26.5 -56h199l-7 -38h-245l3 19q8 52 33.5 87.5t79.5 65.5l53 28q32 18 46 34.5t14 41.5q0 22 -16 35t-46 13q-26 0 -48 -11.5t-31 -29.5l-47 4q19 36 53 55.5t79 19.5q50 0 76.5 -23.5t26.5 -58.5q0 -36 -21.5 -61t-61.5 -49l-54 -30
q-40 -22 -59.5 -46z" />
    <glyph glyph-name="uni00B3" unicode="&#xb3;" horiz-adv-x="408" 
d="M349.5 561.5q14.5 -21.5 14.5 -48.5q0 -52 -39 -83.5t-98 -31.5q-47 0 -77 20t-39 55l46 4q6 -19 23.5 -30t47.5 -11q40 0 65.5 21.5t25.5 57.5q0 29 -21.5 44.5t-64.5 15.5h-34l5 34h24q46 0 72 20t26 52q0 22 -15.5 35t-43.5 13q-25 0 -46 -11t-31 -29l-45 3
q18 35 51.5 55t77.5 20q46 0 72 -22.5t26 -58.5q0 -30 -17.5 -54t-49.5 -38q30 -11 44.5 -32.5z" />
    <glyph glyph-name="acute" unicode="&#xb4;" horiz-adv-x="251" 
d="M137 591h-39l109 169h65z" />
    <glyph glyph-name="uni00B5" unicode="&#xb5;" horiz-adv-x="585" 
d="M540 507l-71 -507h-47l13 108q-36 -57 -89.5 -87t-111.5 -30q-43 0 -77 14.5t-56 42.5l-34 -241h-50l53 374q0 8 1 12l9 63l34 242h1l1 9h50l-43 -305q-3 -18 -3 -37q0 -63 34.5 -97t97.5 -34q52 0 95 28t70.5 76t35.5 106h1l36 263h50z" />
    <glyph glyph-name="paragraph" unicode="&#xb6;" horiz-adv-x="713" 
d="M698 718h-92l-128 -911h-42l127 911h-147l-128 -911h-43l70 497q-57 0 -102 26t-70.5 70.5t-25.5 99.5q0 68 36.5 128t97 96t128.5 36h326z" />
    <glyph glyph-name="periodcentered" unicode="&#xb7;" horiz-adv-x="196" 
d="M82.5 349q-14.5 14 -14.5 33q0 20 14.5 34t34.5 14q19 0 33 -14t14 -34q0 -19 -14 -33t-33 -14q-20 0 -34.5 14z" />
    <glyph glyph-name="cedilla" unicode="&#xb8;" horiz-adv-x="267" 
d="M144.5 -61.5q20.5 -17.5 20.5 -49.5q0 -44 -30 -67.5t-76 -23.5q-20 0 -39.5 4.5t-30.5 11.5l15 29q22 -12 49 -12q30 0 47 15t17 40q0 18 -11 28t-31 10q-24 0 -44 -13l-17 12l37 89h38l-22 -58q14 2 23 2q34 0 54.5 -17.5z" />
    <glyph glyph-name="uni00B9" unicode="&#xb9;" horiz-adv-x="279" 
d="M270 760l-51 -358h-46l40 289q-13 -6 -29.5 -7.5t-43.5 -1.5l5 37q46 0 65 9t25 32h35z" />
    <glyph glyph-name="ordmasculine" unicode="&#xba;" horiz-adv-x="458" 
d="M148.5 470.5q-40.5 41.5 -40.5 106.5q0 53 25.5 97t69.5 69.5t96 25.5q67 0 108 -42t41 -106q0 -54 -26 -98t-70 -69t-96 -25q-67 0 -107.5 41.5zM332.5 486.5q33.5 19.5 53 54t19.5 77.5q0 50 -30.5 81t-79.5 31q-38 0 -71 -19t-53.5 -53.5t-20.5 -77.5q0 -49 30.5 -81
t80.5 -32q38 0 71.5 19.5z" />
    <glyph glyph-name="guillemotright" unicode="&#xbb;" horiz-adv-x="423" 
d="M229 64h-54l140 209l-81 207h50l81 -210zM88 64h-54l140 209l-81 207h50l81 -210z" />
    <glyph glyph-name="onequarter" unicode="&#xbc;" horiz-adv-x="890" 
d="M270 760l-51 -358h-46l40 289q-13 -6 -29.5 -7.5t-43.5 -1.5l5 37q46 0 65 9t25 32h35zM707 760h57l-660 -760h-57zM787 96h-62l-14 -96h-44l14 96h-189l6 38l100 224h45l-100 -224h143l17 114h44l-17 -114h63z" />
    <glyph glyph-name="onehalf" unicode="&#xbd;" horiz-adv-x="853" 
d="M270 760l-51 -358h-46l40 289q-13 -6 -29.5 -7.5t-43.5 -1.5l5 37q46 0 65 9t25 32h35zM570.5 95q-19.5 -24 -26.5 -56h199l-7 -38h-245l3 19q8 52 33.5 87.5t79.5 65.5l53 28q32 18 46 34.5t14 41.5q0 22 -16 35t-46 13q-26 0 -48 -11.5t-31 -29.5l-47 4q19 36 53 55.5
t79 19.5q50 0 76.5 -23.5t26.5 -58.5q0 -36 -21.5 -61t-61.5 -49l-54 -30q-40 -22 -59.5 -46zM707 760h57l-660 -760h-57z" />
    <glyph glyph-name="threequarters" unicode="&#xbe;" horiz-adv-x="944" 
d="M349.5 561.5q14.5 -21.5 14.5 -48.5q0 -52 -39 -83.5t-98 -31.5q-47 0 -77 20t-39 55l46 4q6 -19 23.5 -30t47.5 -11q40 0 65.5 21.5t25.5 57.5q0 29 -21.5 44.5t-64.5 15.5h-34l5 34h24q46 0 72 20t26 52q0 22 -15.5 35t-43.5 13q-25 0 -46 -11t-31 -29l-45 3
q18 35 51.5 55t77.5 20q46 0 72 -22.5t26 -58.5q0 -30 -17.5 -54t-49.5 -38q30 -11 44.5 -32.5zM761 760h57l-660 -760h-57zM841 96h-62l-14 -96h-44l14 96h-189l6 38l100 224h45l-100 -224h143l17 114h44l-17 -114h63z" />
    <glyph glyph-name="questiondown" unicode="&#xbf;" horiz-adv-x="559" 
d="M358 366q-7 -57 -20.5 -96.5t-41.5 -73t-78 -59.5l-43 -23q-103 -54 -103 -150q0 -62 40.5 -91t105.5 -29q118 0 193 92l40 -23q-91 -115 -237 -115q-90 0 -141.5 43t-51.5 121q0 64 35.5 111t102.5 82l39 21q51 27 74 67t33 112l5 33h51zM377.5 561.5
q14.5 -14.5 14.5 -33.5t-14 -33t-34 -14t-34 14t-14 33t14 33.5t34 14.5q19 0 33.5 -14.5z" />
    <glyph glyph-name="Agrave" unicode="&#xc0;" horiz-adv-x="581" 
d="M461 150h-368l-70 -150h-53l363 760h58l149 -760h-51zM452 195l-97 516l-241 -516h338zM295 1013l109 -169h-39l-135 169h65z" />
    <glyph glyph-name="Aacute" unicode="&#xc1;" horiz-adv-x="581" 
d="M461 150h-368l-70 -150h-53l363 760h58l149 -760h-51zM452 195l-97 516l-241 -516h338zM388 844h-39l109 169h65z" />
    <glyph glyph-name="Acircumflex" unicode="&#xc2;" horiz-adv-x="581" 
d="M461 150h-368l-70 -150h-53l363 760h58l149 -760h-51zM452 195l-97 516l-241 -516h338zM477 844l-90 133l-128 -133h-62l169 169h45l123 -169h-57z" />
    <glyph glyph-name="Atilde" unicode="&#xc3;" horiz-adv-x="581" 
d="M461 150h-368l-70 -150h-53l363 760h58l149 -760h-51zM452 195l-97 516l-241 -516h338zM407 896.5q-18 9.5 -37 25.5q-17 15 -29.5 22t-26.5 7q-18 0 -37 -12t-34 -35l-34 17q44 68 111 68q23 0 42 -9.5t39 -25.5q16 -14 29 -21.5t27 -7.5q19 0 38.5 12.5t35.5 35.5
l34 -15q-25 -34 -55 -52.5t-62 -18.5q-23 0 -41 9.5z" />
    <glyph glyph-name="Adieresis" unicode="&#xc4;" horiz-adv-x="581" 
d="M461 150h-368l-70 -150h-53l363 760h58l149 -760h-51zM452 195l-97 516l-241 -516h338zM274.5 883.5q-12.5 12.5 -12.5 29.5q0 18 12.5 30t30.5 12q17 0 29.5 -12t12.5 -30q0 -17 -12.5 -29.5t-29.5 -12.5q-18 0 -30.5 12.5zM434 883.5q-12 12.5 -12 29.5q0 18 12 30
t30 12q17 0 29 -12t12 -30q0 -17 -12 -29.5t-29 -12.5q-18 0 -30 12.5z" />
    <glyph glyph-name="Aring" unicode="&#xc5;" horiz-adv-x="581" 
d="M461 150h-368l-70 -150h-53l363 760h58l149 -760h-51zM452 195l-97 516l-241 -516h338zM305.5 865.5q-30.5 30.5 -30.5 74.5t30.5 74t74.5 30q43 0 73.5 -30t30.5 -74t-30.5 -74.5t-73.5 -30.5q-44 0 -74.5 30.5zM431.5 887q20.5 21 20.5 53q0 31 -20.5 52.5t-51.5 21.5
t-52 -21.5t-21 -52.5q0 -32 21 -53t52 -21t51.5 21z" />
    <glyph glyph-name="AE" unicode="&#xc6;" horiz-adv-x="887" 
d="M550 716l-42 -296h335l-6 -44h-335l-47 -332h345l-7 -44h-394l28 196h-280l-134 -196h-53l519 760h416l-7 -44h-338zM433 240l66 474l-322 -474h256z" />
    <glyph glyph-name="Ccedilla" unicode="&#xc7;" horiz-adv-x="815" 
d="M217.5 32q-72.5 41 -112.5 117t-40 177q0 118 57 220t154.5 162.5t213.5 60.5q125 0 207.5 -68t105.5 -183l-52 -6q-22 99 -90.5 155t-172.5 56q-102 0 -187 -54.5t-135 -146t-50 -194.5q0 -88 33.5 -154t95 -101.5t142.5 -35.5q106 0 192.5 58t135.5 155l51 -6
q-56 -117 -156 -185t-226 -68q-94 0 -166.5 41zM438.5 -61.5q20.5 -17.5 20.5 -49.5q0 -44 -30 -67.5t-76 -23.5q-20 0 -39.5 4.5t-30.5 11.5l15 29q22 -12 49 -12q30 0 47 15t17 40q0 18 -11 28t-31 10q-24 0 -44 -13l-17 12l37 89h38l-22 -58q14 2 23 2q34 0 54.5 -17.5z
" />
    <glyph glyph-name="Egrave" unicode="&#xc8;" horiz-adv-x="543" 
d="M191 715l-42 -294h351l-7 -45h-350l-47 -331h360l-7 -45h-409l107 760h404l-7 -45h-353zM279 1013l109 -169h-39l-135 169h65z" />
    <glyph glyph-name="Eacute" unicode="&#xc9;" horiz-adv-x="543" 
d="M191 715l-42 -294h351l-7 -45h-350l-47 -331h360l-7 -45h-409l107 760h404l-7 -45h-353zM372 844h-39l109 169h65z" />
    <glyph glyph-name="Ecircumflex" unicode="&#xca;" horiz-adv-x="543" 
d="M191 715l-42 -294h351l-7 -45h-350l-47 -331h360l-7 -45h-409l107 760h404l-7 -45h-353zM461 844l-90 133l-128 -133h-62l169 169h45l123 -169h-57z" />
    <glyph glyph-name="Edieresis" unicode="&#xcb;" horiz-adv-x="543" 
d="M191 715l-42 -294h351l-7 -45h-350l-47 -331h360l-7 -45h-409l107 760h404l-7 -45h-353zM258.5 883.5q-12.5 12.5 -12.5 29.5q0 18 12.5 30t30.5 12q17 0 29.5 -12t12.5 -30q0 -17 -12.5 -29.5t-29.5 -12.5q-18 0 -30.5 12.5zM418 883.5q-12 12.5 -12 29.5q0 18 12 30
t30 12q17 0 29 -12t12 -30q0 -17 -12 -29.5t-29 -12.5q-18 0 -30 12.5z" />
    <glyph glyph-name="Igrave" unicode="&#xcc;" horiz-adv-x="201" 
d="M147 760h50l-107 -760h-50zM105 1013l109 -169h-39l-135 169h65z" />
    <glyph glyph-name="Iacute" unicode="&#xcd;" horiz-adv-x="201" 
d="M147 760h50l-107 -760h-50zM198 844h-39l109 169h65z" />
    <glyph glyph-name="Icircumflex" unicode="&#xce;" horiz-adv-x="201" 
d="M147 760h50l-107 -760h-50zM287 844l-90 133l-128 -133h-62l169 169h45l123 -169h-57z" />
    <glyph glyph-name="Idieresis" unicode="&#xcf;" horiz-adv-x="201" 
d="M147 760h50l-107 -760h-50zM84.5 883.5q-12.5 12.5 -12.5 29.5q0 18 12.5 30t30.5 12q17 0 29.5 -12t12.5 -30q0 -17 -12.5 -29.5t-29.5 -12.5q-18 0 -30.5 12.5zM244 883.5q-12 12.5 -12 29.5q0 18 12 30t30 12q17 0 29 -12t12 -30q0 -17 -12 -29.5t-29 -12.5
q-18 0 -30 12.5z" />
    <glyph glyph-name="Eth" unicode="&#xd0;" horiz-adv-x="788" 
d="M601 718.5q76 -41.5 117 -113.5t41 -162q0 -127 -56 -228t-156 -158t-225 -57h-241l53 376h-101l6 44h101l48 340h235q102 0 178 -41.5zM521.5 97q87.5 52 137 141t49.5 198q0 82 -34.5 145t-101 98.5t-158.5 35.5h-182l-42 -295h269l-6 -44h-269l-47 -331h187
q110 0 197.5 52z" />
    <glyph glyph-name="Ntilde" unicode="&#xd1;" horiz-adv-x="655" 
d="M651 760l-107 -760h-50l-308 680l-96 -680h-50l107 760h50v-2l308 -678l96 680h50zM444 896.5q-18 9.5 -37 25.5q-17 15 -29.5 22t-26.5 7q-18 0 -37 -12t-34 -35l-34 17q44 68 111 68q23 0 42 -9.5t39 -25.5q16 -14 29 -21.5t27 -7.5q19 0 38.5 12.5t35.5 35.5l34 -15
q-25 -34 -55 -52.5t-62 -18.5q-23 0 -41 9.5z" />
    <glyph glyph-name="Ograve" unicode="&#xd2;" horiz-adv-x="840" 
d="M216 33q-72 42 -111.5 118t-39.5 176q0 119 57.5 220.5t155.5 161.5t214 60q95 0 167 -41.5t112 -118t40 -177.5q0 -118 -57.5 -219.5t-156 -161.5t-214.5 -60q-95 0 -167 42zM573 91.5q86 54.5 136 145.5t50 195q0 87 -33 153t-94 102t-143 36q-102 0 -187.5 -55
t-135.5 -146t-50 -195q0 -87 33 -153t94 -101.5t142 -35.5q102 0 188 54.5zM428 1013l109 -169h-39l-135 169h65z" />
    <glyph glyph-name="Oacute" unicode="&#xd3;" horiz-adv-x="840" 
d="M216 33q-72 42 -111.5 118t-39.5 176q0 119 57.5 220.5t155.5 161.5t214 60q95 0 167 -41.5t112 -118t40 -177.5q0 -118 -57.5 -219.5t-156 -161.5t-214.5 -60q-95 0 -167 42zM573 91.5q86 54.5 136 145.5t50 195q0 87 -33 153t-94 102t-143 36q-102 0 -187.5 -55
t-135.5 -146t-50 -195q0 -87 33 -153t94 -101.5t142 -35.5q102 0 188 54.5zM521 844h-39l109 169h65z" />
    <glyph glyph-name="Ocircumflex" unicode="&#xd4;" horiz-adv-x="840" 
d="M216 33q-72 42 -111.5 118t-39.5 176q0 119 57.5 220.5t155.5 161.5t214 60q95 0 167 -41.5t112 -118t40 -177.5q0 -118 -57.5 -219.5t-156 -161.5t-214.5 -60q-95 0 -167 42zM573 91.5q86 54.5 136 145.5t50 195q0 87 -33 153t-94 102t-143 36q-102 0 -187.5 -55
t-135.5 -146t-50 -195q0 -87 33 -153t94 -101.5t142 -35.5q102 0 188 54.5zM610 844l-90 133l-128 -133h-62l169 169h45l123 -169h-57z" />
    <glyph glyph-name="Otilde" unicode="&#xd5;" horiz-adv-x="840" 
d="M216 33q-72 42 -111.5 118t-39.5 176q0 119 57.5 220.5t155.5 161.5t214 60q95 0 167 -41.5t112 -118t40 -177.5q0 -118 -57.5 -219.5t-156 -161.5t-214.5 -60q-95 0 -167 42zM573 91.5q86 54.5 136 145.5t50 195q0 87 -33 153t-94 102t-143 36q-102 0 -187.5 -55
t-135.5 -146t-50 -195q0 -87 33 -153t94 -101.5t142 -35.5q102 0 188 54.5zM540 896.5q-18 9.5 -37 25.5q-17 15 -29.5 22t-26.5 7q-18 0 -37 -12t-34 -35l-34 17q44 68 111 68q23 0 42 -9.5t39 -25.5q16 -14 29 -21.5t27 -7.5q19 0 38.5 12.5t35.5 35.5l34 -15
q-25 -34 -55 -52.5t-62 -18.5q-23 0 -41 9.5z" />
    <glyph glyph-name="Odieresis" unicode="&#xd6;" horiz-adv-x="840" 
d="M216 33q-72 42 -111.5 118t-39.5 176q0 119 57.5 220.5t155.5 161.5t214 60q95 0 167 -41.5t112 -118t40 -177.5q0 -118 -57.5 -219.5t-156 -161.5t-214.5 -60q-95 0 -167 42zM573 91.5q86 54.5 136 145.5t50 195q0 87 -33 153t-94 102t-143 36q-102 0 -187.5 -55
t-135.5 -146t-50 -195q0 -87 33 -153t94 -101.5t142 -35.5q102 0 188 54.5zM428.006 883.5q-12.2715 12.5 -11.9609 29.5q0.328125 18 13.0469 30q12.7197 12 30.7197 12q17 0 29.2803 -12q12.2812 -12 11.9531 -30q-0.310547 -17 -13.0391 -29.5
q-12.7275 -12.5 -29.7275 -12.5q-18 0 -30.2725 12.5zM587.506 883.5q-11.7715 12.5 -11.4609 29.5q0.328125 18 12.5469 30q12.2197 12 30.2197 12q17 0 28.7803 -12q11.7812 -12 11.4531 -30q-0.310547 -17 -12.5391 -29.5q-12.2275 -12.5 -29.2275 -12.5
q-18 0 -29.7725 12.5z" />
    <glyph glyph-name="multiply" unicode="&#xd7;" horiz-adv-x="483" 
d="M274 266l112 -131l-34 -30l-113 131l-149 -131l-26 30l150 131l-113 131l34 31l113 -132l149 131l26 -30z" />
    <glyph glyph-name="Oslash" unicode="&#xd8;" horiz-adv-x="840" 
d="M786 576.5q25 -64.5 25 -144.5q0 -118 -57.5 -219.5t-156 -161.5t-214.5 -60q-111 0 -193 58l-49 -59h-54l71 86q-45 45 -69 109t-24 142q0 119 57.5 220.5t155.5 161.5t214 60q112 0 191 -57l48 58h53l-69 -84q46 -45 71 -109.5zM135 208q19 -54 55 -93l462 559
q-67 49 -163 49q-102 0 -187.5 -54.5t-135.5 -146t-50 -195.5q0 -65 19 -119zM573.5 91.5q85.5 54.5 135.5 145.5t50 195q0 67 -19.5 121.5t-56.5 93.5l-462 -559q68 -51 164 -51q103 0 188.5 54.5z" />
    <glyph glyph-name="Ugrave" unicode="&#xd9;" horiz-adv-x="657" 
d="M127.5 47q-60.5 56 -60.5 160q0 25 5 62l70 491h50l-70 -496q-5 -32 -5 -56q0 -83 47.5 -127t134.5 -44q101 0 161.5 57t76.5 166l71 500h50l-70 -496q-19 -136 -91 -204.5t-201 -68.5q-108 0 -168.5 56zM328 1013l109 -169h-39l-135 169h65z" />
    <glyph glyph-name="Uacute" unicode="&#xda;" horiz-adv-x="657" 
d="M127.5 47q-60.5 56 -60.5 160q0 25 5 62l70 491h50l-70 -496q-5 -32 -5 -56q0 -83 47.5 -127t134.5 -44q101 0 161.5 57t76.5 166l71 500h50l-70 -496q-19 -136 -91 -204.5t-201 -68.5q-108 0 -168.5 56zM421 844h-39l109 169h65z" />
    <glyph glyph-name="Ucircumflex" unicode="&#xdb;" horiz-adv-x="657" 
d="M127.5 47q-60.5 56 -60.5 160q0 25 5 62l70 491h50l-70 -496q-5 -32 -5 -56q0 -83 47.5 -127t134.5 -44q101 0 161.5 57t76.5 166l71 500h50l-70 -496q-19 -136 -91 -204.5t-201 -68.5q-108 0 -168.5 56zM510 844l-90 133l-128 -133h-62l169 169h45l123 -169h-57z" />
    <glyph glyph-name="Udieresis" unicode="&#xdc;" horiz-adv-x="657" 
d="M127.5 47q-60.5 56 -60.5 160q0 25 5 62l70 491h50l-70 -496q-5 -32 -5 -56q0 -83 47.5 -127t134.5 -44q101 0 161.5 57t76.5 166l71 500h50l-70 -496q-19 -136 -91 -204.5t-201 -68.5q-108 0 -168.5 56zM307.5 883.5q-12.5 12.5 -12.5 29.5q0 18 12.5 30t30.5 12
q17 0 29.5 -12t12.5 -30q0 -17 -12.5 -29.5t-29.5 -12.5q-18 0 -30.5 12.5zM467 883.5q-12 12.5 -12 29.5q0 18 12 30t30 12q17 0 29 -12t12 -30q0 -17 -12 -29.5t-29 -12.5q-18 0 -30 12.5z" />
    <glyph glyph-name="Yacute" unicode="&#xdd;" horiz-adv-x="539" 
d="M608 760l-499 -760h-54l214 326l-185 434h53l162 -389l255 389h54zM364 844h-39l109 169h65z" />
    <glyph glyph-name="Thorn" unicode="&#xde;" horiz-adv-x="615" 
d="M533.5 583.5q58.5 -56.5 58.5 -160.5q0 -82 -35.5 -148t-101 -103.5t-153.5 -37.5h-193l-19 -134h-50l107 760h50l-17 -120h176q119 0 177.5 -56.5zM431.5 211q53.5 32 81.5 87t28 123q0 85 -45.5 129t-148.5 44h-173l-59 -415h190q73 0 126.5 32z" />
    <glyph glyph-name="germandbls" unicode="&#xdf;" horiz-adv-x="560" 
d="M463 356.5q44 -50.5 44 -127.5q0 -71 -33.5 -125t-90.5 -83.5t-124 -29.5q-62 0 -110 20l15 40q41 -16 94 -16t98.5 22.5t73 65.5t27.5 101q0 79 -51.5 121.5t-139.5 42.5h-21l5 34l1 8q79 14 133 65.5t54 119.5q0 49 -30.5 79t-85.5 30q-65 0 -106 -41t-52 -116
l-82 -567h-50l83 574q14 97 71.5 146t140.5 49q73 0 117 -40.5t44 -106.5q0 -63 -38.5 -116.5t-105.5 -83.5q75 -15 119 -65.5z" />
    <glyph glyph-name="agrave" unicode="&#xe0;" horiz-adv-x="609" 
d="M577 507l-71 -507h-45l14 120q-34 -60 -92.5 -94.5t-128.5 -34.5q-60 0 -108 28t-75 79t-27 118q0 85 38 153.5t102.5 107.5t141.5 39q69 0 117.5 -33t67.5 -93l16 117h50zM381.5 71q53.5 35 84 94t30.5 127q0 83 -45.5 131t-123.5 48q-64 0 -117.5 -32.5t-84.5 -90
t-31 -128.5q0 -86 46 -135t123 -49q65 0 118.5 35zM264 760l109 -169h-39l-135 169h65z" />
    <glyph glyph-name="aacute" unicode="&#xe1;" horiz-adv-x="609" 
d="M577 507l-71 -507h-45l14 120q-34 -60 -92.5 -94.5t-128.5 -34.5q-60 0 -108 28t-75 79t-27 118q0 85 38 153.5t102.5 107.5t141.5 39q69 0 117.5 -33t67.5 -93l16 117h50zM381.5 71q53.5 35 84 94t30.5 127q0 83 -45.5 131t-123.5 48q-64 0 -117.5 -32.5t-84.5 -90
t-31 -128.5q0 -86 46 -135t123 -49q65 0 118.5 35zM357 591h-39l109 169h65z" />
    <glyph glyph-name="acircumflex" unicode="&#xe2;" horiz-adv-x="609" 
d="M577 507l-71 -507h-45l14 120q-34 -60 -92.5 -94.5t-128.5 -34.5q-60 0 -108 28t-75 79t-27 118q0 85 38 153.5t102.5 107.5t141.5 39q69 0 117.5 -33t67.5 -93l16 117h50zM381.5 71q53.5 35 84 94t30.5 127q0 83 -45.5 131t-123.5 48q-64 0 -117.5 -32.5t-84.5 -90
t-31 -128.5q0 -86 46 -135t123 -49q65 0 118.5 35zM446 591l-90 133l-128 -133h-62l169 169h45l123 -169h-57z" />
    <glyph glyph-name="atilde" unicode="&#xe3;" horiz-adv-x="609" 
d="M577 507l-71 -507h-45l14 120q-34 -60 -92.5 -94.5t-128.5 -34.5q-60 0 -108 28t-75 79t-27 118q0 85 38 153.5t102.5 107.5t141.5 39q69 0 117.5 -33t67.5 -93l16 117h50zM381.5 71q53.5 35 84 94t30.5 127q0 83 -45.5 131t-123.5 48q-64 0 -117.5 -32.5t-84.5 -90
t-31 -128.5q0 -86 46 -135t123 -49q65 0 118.5 35zM376 643.5q-18 9.5 -37 25.5q-17 15 -29.5 22t-26.5 7q-18 0 -37 -12t-34 -35l-34 17q44 68 111 68q23 0 42 -9.5t39 -25.5q16 -14 29 -21.5t27 -7.5q19 0 38.5 12.5t35.5 35.5l34 -15q-25 -34 -55 -52.5t-62 -18.5
q-23 0 -41 9.5z" />
    <glyph glyph-name="adieresis" unicode="&#xe4;" horiz-adv-x="609" 
d="M577 507l-71 -507h-45l14 120q-34 -60 -92.5 -94.5t-128.5 -34.5q-60 0 -108 28t-75 79t-27 118q0 85 38 153.5t102.5 107.5t141.5 39q69 0 117.5 -33t67.5 -93l16 117h50zM381.5 71q53.5 35 84 94t30.5 127q0 83 -45.5 131t-123.5 48q-64 0 -117.5 -32.5t-84.5 -90
t-31 -128.5q0 -86 46 -135t123 -49q65 0 118.5 35zM243.5 630.5q-12.5 12.5 -12.5 29.5q0 18 12.5 30t30.5 12q17 0 29.5 -12t12.5 -30q0 -17 -12.5 -29.5t-29.5 -12.5q-18 0 -30.5 12.5zM403 630.5q-12 12.5 -12 29.5q0 18 12 30t30 12q17 0 29 -12t12 -30q0 -17 -12 -29.5
t-29 -12.5q-18 0 -30 12.5z" />
    <glyph glyph-name="aring" unicode="&#xe5;" horiz-adv-x="609" 
d="M577 507l-71 -507h-45l14 120q-34 -60 -92.5 -94.5t-128.5 -34.5q-60 0 -108 28t-75 79t-27 118q0 85 38 153.5t102.5 107.5t141.5 39q69 0 117.5 -33t67.5 -93l16 117h50zM381.5 71q53.5 35 84 94t30.5 127q0 83 -45.5 131t-123.5 48q-64 0 -117.5 -32.5t-84.5 -90
t-31 -128.5q0 -86 46 -135t123 -49q65 0 118.5 35zM274.5 612.5q-30.5 30.5 -30.5 74.5t30.5 74t74.5 30q43 0 73.5 -30t30.5 -74t-30.5 -74.5t-73.5 -30.5q-44 0 -74.5 30.5zM400.5 634q20.5 21 20.5 53q0 31 -20.5 52.5t-51.5 21.5t-52 -21.5t-21 -52.5q0 -32 21 -53
t52 -21t51.5 21z" />
    <glyph glyph-name="ae" unicode="&#xe6;" horiz-adv-x="941" 
d="M480 230q-1 -6 -1 -20q0 -82 44.5 -128t119.5 -46q120 0 183 116l49 -6q-38 -75 -98 -115t-140 -40q-74 0 -126 37t-72 102q-32 -66 -97.5 -102.5t-145.5 -36.5q-75 0 -121 34t-46 98q0 88 62 127t166 39h181q5 43 5 56q0 62 -38.5 94t-102.5 32q-102 0 -168 -85l-49 10
q39 57 93.5 88.5t133.5 31.5q67 0 114.5 -29.5t61.5 -88.5q37 55 92.5 86.5t122.5 31.5q89 0 141.5 -56t52.5 -147q0 -33 -5 -66h-410q-2 -10 -2 -17zM564 420q-55 -51 -75 -131h357q1 7 1 21q0 78 -42 119.5t-109 41.5q-77 0 -132 -51zM305 54q49 22 82 63t40 96l4 25
q0 6 1 9h-181q-89 0 -130.5 -30t-41.5 -88q0 -47 33.5 -72t91.5 -25q52 0 101 22z" />
    <glyph glyph-name="ccedilla" unicode="&#xe7;" horiz-adv-x="570" 
d="M145.5 19q-48.5 28 -75 78t-26.5 115q0 88 37 157.5t102.5 108t146.5 38.5q79 0 135 -41.5t73 -113.5l-51 -6q-15 56 -57 86t-101 30q-69 0 -122.5 -33t-83 -90.5t-29.5 -129.5q0 -85 45 -133.5t124 -48.5q64 0 119.5 35t83.5 96l48 -5q-33 -80 -101 -125.5t-155 -45.5
q-64 0 -112.5 28zM313.5 -61.5q20.5 -17.5 20.5 -49.5q0 -44 -30 -67.5t-76 -23.5q-20 0 -39.5 4.5t-30.5 11.5l15 29q22 -12 49 -12q30 0 47 15t17 40q0 18 -11 28t-31 10q-24 0 -44 -13l-17 12l37 89h38l-22 -58q14 2 23 2q34 0 54.5 -17.5z" />
    <glyph glyph-name="egrave" unicode="&#xe8;" horiz-adv-x="573" 
d="M94 238q-1 -8 -1 -25q0 -83 46.5 -130t122.5 -47q64 0 113 30t81 85l49 -6q-39 -74 -102.5 -114t-144.5 -40q-63 0 -112 28t-76 78t-27 114q0 84 36 153.5t100.5 110.5t145.5 41q95 0 150.5 -57.5t55.5 -152.5q0 -15 -1.5 -33.5t-4.5 -34.5h-431zM180.5 418
q-60.5 -53 -79.5 -137h379q1 7 1 22q0 82 -43 125t-115 43q-82 0 -142.5 -53zM260 760l109 -169h-39l-135 169h65z" />
    <glyph glyph-name="eacute" unicode="&#xe9;" horiz-adv-x="573" 
d="M94 238q-1 -8 -1 -25q0 -83 46.5 -130t122.5 -47q64 0 113 30t81 85l49 -6q-39 -74 -102.5 -114t-144.5 -40q-63 0 -112 28t-76 78t-27 114q0 84 36 153.5t100.5 110.5t145.5 41q95 0 150.5 -57.5t55.5 -152.5q0 -15 -1.5 -33.5t-4.5 -34.5h-431zM180.5 418
q-60.5 -53 -79.5 -137h379q1 7 1 22q0 82 -43 125t-115 43q-82 0 -142.5 -53zM353 591h-39l109 169h65z" />
    <glyph glyph-name="ecircumflex" unicode="&#xea;" horiz-adv-x="573" 
d="M94 238q-1 -8 -1 -25q0 -83 46.5 -130t122.5 -47q64 0 113 30t81 85l49 -6q-39 -74 -102.5 -114t-144.5 -40q-63 0 -112 28t-76 78t-27 114q0 84 36 153.5t100.5 110.5t145.5 41q95 0 150.5 -57.5t55.5 -152.5q0 -15 -1.5 -33.5t-4.5 -34.5h-431zM180.5 418
q-60.5 -53 -79.5 -137h379q1 7 1 22q0 82 -43 125t-115 43q-82 0 -142.5 -53zM442 591l-90 133l-128 -133h-62l169 169h45l123 -169h-57z" />
    <glyph glyph-name="edieresis" unicode="&#xeb;" horiz-adv-x="573" 
d="M94 238q-1 -8 -1 -25q0 -83 46.5 -130t122.5 -47q64 0 113 30t81 85l49 -6q-39 -74 -102.5 -114t-144.5 -40q-63 0 -112 28t-76 78t-27 114q0 84 36 153.5t100.5 110.5t145.5 41q95 0 150.5 -57.5t55.5 -152.5q0 -15 -1.5 -33.5t-4.5 -34.5h-431zM180.5 418
q-60.5 -53 -79.5 -137h379q1 7 1 22q0 82 -43 125t-115 43q-82 0 -142.5 -53zM239.5 630.5q-12.5 12.5 -12.5 29.5q0 18 12.5 30t30.5 12q17 0 29.5 -12t12.5 -30q0 -17 -12.5 -29.5t-29.5 -12.5q-18 0 -30.5 12.5zM399 630.5q-12 12.5 -12 29.5q0 18 12 30t30 12
q17 0 29 -12t12 -30q0 -17 -12 -29.5t-29 -12.5q-18 0 -30 12.5z" />
    <glyph glyph-name="igrave" unicode="&#xec;" horiz-adv-x="187" 
d="M104 507h50l-71 -507h-50zM62 760l109 -169h-39l-135 169h65z" />
    <glyph glyph-name="iacute" unicode="&#xed;" horiz-adv-x="187" 
d="M104 507h50l-71 -507h-50zM155 591h-39l109 169h65z" />
    <glyph glyph-name="icircumflex" unicode="&#xee;" horiz-adv-x="187" 
d="M104 507h50l-71 -507h-50zM213 591l-57 130l-93 -130h-60l134 169h45l88 -169h-57z" />
    <glyph glyph-name="idieresis" unicode="&#xef;" horiz-adv-x="187" 
d="M104 507h50l-71 -507h-50zM41.5 630.5q-12.5 12.5 -12.5 29.5q0 18 12.5 30t30.5 12q17 0 29.5 -12t12.5 -30q0 -17 -12.5 -29.5t-29.5 -12.5q-18 0 -30.5 12.5zM201 630.5q-12 12.5 -12 29.5q0 18 12 30t30 12q17 0 29 -12t12 -30q0 -17 -12 -29.5t-29 -12.5
q-18 0 -30 12.5z" />
    <glyph glyph-name="eth" unicode="&#xf0;" horiz-adv-x="604" 
d="M511 643q56 -88 56 -224q0 -117 -36.5 -214.5t-107.5 -155.5t-172 -58q-58 0 -106 26.5t-75.5 75.5t-27.5 114q0 78 36 144t99.5 104.5t141.5 38.5q71 0 124.5 -34t73.5 -97q4 31 4 61q0 119 -55 199l-130 -58l-12 36l117 52q-52 56 -137 77l17 39q105 -24 166 -95
l103 46l13 -36zM373.5 70.5q53.5 34.5 85 91.5t31.5 119q0 77 -48.5 123t-122.5 46q-64 0 -116 -32t-81.5 -87t-29.5 -121q0 -54 22 -93.5t60.5 -60t85.5 -20.5q60 0 113.5 34.5z" />
    <glyph glyph-name="ntilde" unicode="&#xf1;" horiz-adv-x="560" 
d="M462.5 473q45.5 -43 45.5 -119q0 -23 -3 -44l-44 -310h-50l43 306q4 28 4 40q0 62 -33.5 94.5t-99.5 32.5q-81 0 -134 -54t-69 -138l-40 -281h-50l71 507h45l-11 -112q33 60 85.5 90.5t116.5 30.5q78 0 123.5 -43zM370 643.5q-18 9.5 -37 25.5q-17 15 -29.5 22t-26.5 7
q-18 0 -37 -12t-34 -35l-34 17q44 68 111 68q23 0 42 -9.5t39 -25.5q16 -14 29 -21.5t27 -7.5q19 0 38.5 12.5t35.5 35.5l34 -15q-25 -34 -55 -52.5t-62 -18.5q-23 0 -41 9.5z" />
    <glyph glyph-name="ograve" unicode="&#xf2;" horiz-adv-x="591" 
d="M147 18.5q-49 27.5 -76 78t-27 118.5q0 85 37.5 154t103 108t146.5 39q64 0 113 -27.5t76 -78t27 -117.5q0 -86 -37.5 -155t-103 -108t-146.5 -39q-64 0 -113 27.5zM381 69q54 33 85 91t31 130q0 86 -45.5 133.5t-122.5 47.5q-66 0 -119.5 -33t-84.5 -90.5t-31 -129.5
q0 -86 45.5 -134t122.5 -48q65 0 119 33zM264 761l109 -169h-39l-135 169h65z" />
    <glyph glyph-name="oacute" unicode="&#xf3;" horiz-adv-x="591" 
d="M147 18.5q-49 27.5 -76 78t-27 118.5q0 85 37.5 154t103 108t146.5 39q64 0 113 -27.5t76 -78t27 -117.5q0 -86 -37.5 -155t-103 -108t-146.5 -39q-64 0 -113 27.5zM381 69q54 33 85 91t31 130q0 86 -45.5 133.5t-122.5 47.5q-66 0 -119.5 -33t-84.5 -90.5t-31 -129.5
q0 -86 45.5 -134t122.5 -48q65 0 119 33zM357 592h-39l109 169h65z" />
    <glyph glyph-name="ocircumflex" unicode="&#xf4;" horiz-adv-x="591" 
d="M147 18.5q-49 27.5 -76 78t-27 118.5q0 85 37.5 154t103 108t146.5 39q64 0 113 -27.5t76 -78t27 -117.5q0 -86 -37.5 -155t-103 -108t-146.5 -39q-64 0 -113 27.5zM381 69q54 33 85 91t31 130q0 86 -45.5 133.5t-122.5 47.5q-66 0 -119.5 -33t-84.5 -90.5t-31 -129.5
q0 -86 45.5 -134t122.5 -48q65 0 119 33zM446 592l-90 133l-128 -133h-62l169 169h45l123 -169h-57z" />
    <glyph glyph-name="otilde" unicode="&#xf5;" horiz-adv-x="591" 
d="M147 18.5q-49 27.5 -76 78t-27 118.5q0 85 37.5 154t103 108t146.5 39q64 0 113 -27.5t76 -78t27 -117.5q0 -86 -37.5 -155t-103 -108t-146.5 -39q-64 0 -113 27.5zM381 69q54 33 85 91t31 130q0 86 -45.5 133.5t-122.5 47.5q-66 0 -119.5 -33t-84.5 -90.5t-31 -129.5
q0 -86 45.5 -134t122.5 -48q65 0 119 33zM376 644.5q-18 9.5 -37 25.5q-17 15 -29.5 22t-26.5 7q-18 0 -37 -12t-34 -35l-34 17q44 68 111 68q23 0 42 -9.5t39 -25.5q16 -14 29 -21.5t27 -7.5q19 0 38.5 12.5t35.5 35.5l34 -15q-25 -34 -55 -52.5t-62 -18.5q-23 0 -41 9.5z
" />
    <glyph glyph-name="odieresis" unicode="&#xf6;" horiz-adv-x="591" 
d="M147 18.5q-49 27.5 -76 78t-27 118.5q0 85 37.5 154t103 108t146.5 39q64 0 113 -27.5t76 -78t27 -117.5q0 -86 -37.5 -155t-103 -108t-146.5 -39q-64 0 -113 27.5zM381 69q54 33 85 91t31 130q0 86 -45.5 133.5t-122.5 47.5q-66 0 -119.5 -33t-84.5 -90.5t-31 -129.5
q0 -86 45.5 -134t122.5 -48q65 0 119 33zM243.5 631.5q-12.5 12.5 -12.5 29.5q0 18 12.5 30t30.5 12q17 0 29.5 -12t12.5 -30q0 -17 -12.5 -29.5t-29.5 -12.5q-18 0 -30.5 12.5zM403 631.5q-12 12.5 -12 29.5q0 18 12 30t30 12q17 0 29 -12t12 -30q0 -17 -12 -29.5
t-29 -12.5q-18 0 -30 12.5z" />
    <glyph glyph-name="divide" unicode="&#xf7;" horiz-adv-x="524" 
d="M241.5 382q-12.5 13 -12.5 31q0 19 12.5 32t31.5 13t31.5 -13t12.5 -32q0 -18 -12.5 -31t-31.5 -13t-31.5 13zM85 288h363l-5 -43h-363zM221.5 84.5q-12.5 12.5 -12.5 31.5q0 18 12.5 31t31.5 13t31.5 -13t12.5 -31q0 -19 -12.5 -31.5t-31.5 -12.5t-31.5 12.5z" />
    <glyph glyph-name="oslash" unicode="&#xf8;" horiz-adv-x="591" 
d="M547 293q0 -86 -37.5 -155t-103 -108t-146.5 -39q-71 0 -126 36l-30 -37h-51l51 62q-29 30 -44.5 71.5t-15.5 91.5q0 85 37.5 154t103 108t146.5 39q74 0 126 -35l30 36h52l-51 -62q59 -62 59 -162zM135 89l292 355q-41 27 -98 27q-66 0 -119.5 -33t-84.5 -90.5
t-31 -129.5q0 -80 41 -129zM381 69q54 33 85 91t31 130q0 79 -40 127l-293 -354q40 -27 98 -27q65 0 119 33z" />
    <glyph glyph-name="ugrave" unicode="&#xf9;" 
d="M515 507l-71 -507h-45l12 112q-33 -60 -84.5 -90.5t-113.5 -30.5q-73 0 -117.5 42.5t-44.5 115.5q0 20 3 41l44 317h50l-43 -313q-3 -21 -3 -39q0 -61 34 -91t95 -30q81 0 132.5 59t64.5 149l37 265h50zM242 760l109 -169h-39l-135 169h65z" />
    <glyph glyph-name="uacute" unicode="&#xfa;" 
d="M515 507l-71 -507h-45l12 112q-33 -60 -84.5 -90.5t-113.5 -30.5q-73 0 -117.5 42.5t-44.5 115.5q0 20 3 41l44 317h50l-43 -313q-3 -21 -3 -39q0 -61 34 -91t95 -30q81 0 132.5 59t64.5 149l37 265h50zM335 591h-39l109 169h65z" />
    <glyph glyph-name="ucircumflex" unicode="&#xfb;" 
d="M515 507l-71 -507h-45l12 112q-33 -60 -84.5 -90.5t-113.5 -30.5q-73 0 -117.5 42.5t-44.5 115.5q0 20 3 41l44 317h50l-43 -313q-3 -21 -3 -39q0 -61 34 -91t95 -30q81 0 132.5 59t64.5 149l37 265h50zM424 591l-90 133l-128 -133h-62l169 169h45l123 -169h-57z" />
    <glyph glyph-name="udieresis" unicode="&#xfc;" 
d="M515 507l-71 -507h-45l12 112q-33 -60 -84.5 -90.5t-113.5 -30.5q-73 0 -117.5 42.5t-44.5 115.5q0 20 3 41l44 317h50l-43 -313q-3 -21 -3 -39q0 -61 34 -91t95 -30q81 0 132.5 59t64.5 149l37 265h50zM221.5 630.5q-12.5 12.5 -12.5 29.5q0 18 12.5 30t30.5 12
q17 0 29.5 -12t12.5 -30q0 -17 -12.5 -29.5t-29.5 -12.5q-18 0 -30.5 12.5zM381 630.5q-12 12.5 -12 29.5q0 18 12 30t30 12q17 0 29 -12t12 -30q0 -17 -12 -29.5t-29 -12.5q-18 0 -30 12.5z" />
    <glyph glyph-name="yacute" unicode="&#xfd;" 
d="M515 507l-65 -462q-16 -122 -78 -184.5t-165 -62.5q-78 0 -122.5 31t-55.5 82l49 10q8 -38 40.5 -59.5t91.5 -21.5q162 0 190 204l9 64q-33 -58 -84 -87.5t-112 -29.5q-73 0 -117.5 42.5t-44.5 115.5q0 20 3 41l44 317h50l-43 -313q-3 -21 -3 -39q0 -61 34 -91t95 -30
q78 0 129 55.5t66 140.5l39 277h50zM337 591h-39l109 169h65z" />
    <glyph glyph-name="thorn" unicode="&#xfe;" horiz-adv-x="609" 
d="M465.5 488.5q47.5 -27.5 74 -77.5t26.5 -116q0 -87 -37.5 -156.5t-102.5 -108.5t-143 -39q-68 0 -116.5 32.5t-68.5 90.5l-43 -307h-50l134 953h50l-53 -370q36 59 94 92.5t127 33.5q61 0 108.5 -27.5zM400.5 69q53.5 33 84.5 91t31 131q0 85 -46.5 132.5t-123.5 47.5
q-66 0 -119.5 -34.5t-83.5 -93t-30 -127.5q0 -83 46 -131.5t124 -48.5q64 0 117.5 33z" />
    <glyph glyph-name="ydieresis" unicode="&#xff;" 
d="M515 507l-65 -462q-16 -122 -78 -184.5t-165 -62.5q-78 0 -122.5 31t-55.5 82l49 10q8 -38 40.5 -59.5t91.5 -21.5q162 0 190 204l9 64q-33 -58 -84 -87.5t-112 -29.5q-73 0 -117.5 42.5t-44.5 115.5q0 20 3 41l44 317h50l-43 -313q-3 -21 -3 -39q0 -61 34 -91t95 -30
q78 0 129 55.5t66 140.5l39 277h50zM223.5 630.5q-12.5 12.5 -12.5 29.5q0 18 12.5 30t30.5 12q17 0 29.5 -12t12.5 -30q0 -17 -12.5 -29.5t-29.5 -12.5q-18 0 -30.5 12.5zM383 630.5q-12 12.5 -12 29.5q0 18 12 30t30 12q17 0 29 -12t12 -30q0 -17 -12 -29.5t-29 -12.5
q-18 0 -30 12.5z" />
    <glyph glyph-name="Amacron" unicode="&#x100;" horiz-adv-x="581" 
d="M461 150h-368l-70 -150h-53l363 760h58l149 -760h-51zM452 195l-97 516l-241 -516h338zM253 949h272l-5 -39h-272z" />
    <glyph glyph-name="amacron" unicode="&#x101;" horiz-adv-x="609" 
d="M577 507l-71 -507h-45l14 120q-34 -60 -92.5 -94.5t-128.5 -34.5q-60 0 -108 28t-75 79t-27 118q0 85 38 153.5t102.5 107.5t141.5 39q69 0 117.5 -33t67.5 -93l16 117h50zM381.5 71q53.5 35 84 94t30.5 127q0 83 -45.5 131t-123.5 48q-64 0 -117.5 -32.5t-84.5 -90
t-31 -128.5q0 -86 46 -135t123 -49q65 0 118.5 35zM222 696h272l-5 -39h-272z" />
    <glyph glyph-name="Abreve" unicode="&#x102;" horiz-adv-x="581" 
d="M461 150h-368l-70 -150h-53l363 760h58l149 -760h-51zM452 195l-97 516l-241 -516h338zM271.5 894.5q-35.5 41.5 -35.5 118.5h39q0 -58 27.5 -89t77.5 -31q49 0 84.5 31t50.5 89h40q-17 -77 -63.5 -118.5t-115.5 -41.5t-104.5 41.5z" />
    <glyph glyph-name="abreve" unicode="&#x103;" horiz-adv-x="609" 
d="M577 507l-71 -507h-45l14 120q-34 -60 -92.5 -94.5t-128.5 -34.5q-60 0 -108 28t-75 79t-27 118q0 85 38 153.5t102.5 107.5t141.5 39q69 0 117.5 -33t67.5 -93l16 117h50zM381.5 71q53.5 35 84 94t30.5 127q0 83 -45.5 131t-123.5 48q-64 0 -117.5 -32.5t-84.5 -90
t-31 -128.5q0 -86 46 -135t123 -49q65 0 118.5 35zM240.5 641.5q-35.5 41.5 -35.5 118.5h39q0 -58 27.5 -89t77.5 -31q49 0 84.5 31t50.5 89h40q-17 -77 -63.5 -118.5t-115.5 -41.5t-104.5 41.5z" />
    <glyph glyph-name="Aogonek" unicode="&#x104;" horiz-adv-x="581" 
d="M461 150h-368l-70 -150h-53l363 760h58l149 -760h-51zM452 195l-97 516l-241 -516h338zM444 -36q-28 -26 -28 -66q0 -29 19 -44.5t55 -15.5q24 0 51 9l-3 -36q-30 -13 -63 -13q-48 0 -76.5 23t-28.5 64q0 54 39.5 89t101.5 50l3 -22q-42 -12 -70 -38z" />
    <glyph glyph-name="aogonek" unicode="&#x105;" horiz-adv-x="609" 
d="M577 507l-71 -507h-45l14 120q-34 -60 -92.5 -94.5t-128.5 -34.5q-60 0 -108 28t-75 79t-27 118q0 85 38 153.5t102.5 107.5t141.5 39q69 0 117.5 -33t67.5 -93l16 117h50zM381.5 71q53.5 35 84 94t30.5 127q0 83 -45.5 131t-123.5 48q-64 0 -117.5 -32.5t-84.5 -90
t-31 -128.5q0 -86 46 -135t123 -49q65 0 118.5 35zM426 -36q-28 -26 -28 -66q0 -29 19 -44.5t55 -15.5q24 0 51 9l-3 -36q-30 -13 -63 -13q-48 0 -76.5 23t-28.5 64q0 54 39.5 89t101.5 50l3 -22q-42 -12 -70 -38z" />
    <glyph glyph-name="Cacute" unicode="&#x106;" horiz-adv-x="815" 
d="M217.5 32q-72.5 41 -112.5 117t-40 177q0 118 57 220t154.5 162.5t213.5 60.5q125 0 207.5 -68t105.5 -183l-52 -6q-22 99 -90.5 155t-172.5 56q-102 0 -187 -54.5t-135 -146t-50 -194.5q0 -88 33.5 -154t95 -101.5t142.5 -35.5q106 0 192.5 58t135.5 155l51 -6
q-56 -117 -156 -185t-226 -68q-94 0 -166.5 41zM514 844h-39l109 169h65z" />
    <glyph glyph-name="cacute" unicode="&#x107;" horiz-adv-x="570" 
d="M145.5 19q-48.5 28 -75 78t-26.5 115q0 88 37 157.5t102.5 108t146.5 38.5q79 0 135 -41.5t73 -113.5l-51 -6q-15 56 -57 86t-101 30q-69 0 -122.5 -33t-83 -90.5t-29.5 -129.5q0 -85 45 -133.5t124 -48.5q64 0 119.5 35t83.5 96l48 -5q-33 -80 -101 -125.5t-155 -45.5
q-64 0 -112.5 28zM352 591h-39l109 169h65z" />
    <glyph glyph-name="Ccircumflex" unicode="&#x108;" horiz-adv-x="815" 
d="M217.5 32q-72.5 41 -112.5 117t-40 177q0 118 57 220t154.5 162.5t213.5 60.5q125 0 207.5 -68t105.5 -183l-52 -6q-22 99 -90.5 155t-172.5 56q-102 0 -187 -54.5t-135 -146t-50 -194.5q0 -88 33.5 -154t95 -101.5t142.5 -35.5q106 0 192.5 58t135.5 155l51 -6
q-56 -117 -156 -185t-226 -68q-94 0 -166.5 41zM603 844l-90 133l-128 -133h-62l169 169h45l123 -169h-57z" />
    <glyph glyph-name="ccircumflex" unicode="&#x109;" horiz-adv-x="570" 
d="M145.5 19q-48.5 28 -75 78t-26.5 115q0 88 37 157.5t102.5 108t146.5 38.5q79 0 135 -41.5t73 -113.5l-51 -6q-15 56 -57 86t-101 30q-69 0 -122.5 -33t-83 -90.5t-29.5 -129.5q0 -85 45 -133.5t124 -48.5q64 0 119.5 35t83.5 96l48 -5q-33 -80 -101 -125.5t-155 -45.5
q-64 0 -112.5 28zM441 591l-90 133l-128 -133h-62l169 169h45l123 -169h-57z" />
    <glyph glyph-name="Cdotaccent" unicode="&#x10a;" horiz-adv-x="815" 
d="M217.5 32q-72.5 41 -112.5 117t-40 177q0 118 57 220t154.5 162.5t213.5 60.5q125 0 207.5 -68t105.5 -183l-52 -6q-22 99 -90.5 155t-172.5 56q-102 0 -187 -54.5t-135 -146t-50 -194.5q0 -88 33.5 -154t95 -101.5t142.5 -35.5q106 0 192.5 58t135.5 155l51 -6
q-56 -117 -156 -185t-226 -68q-94 0 -166.5 41zM476.5 880q-13.5 13 -13.5 32t13.5 32.5t32.5 13.5t32 -13.5t13 -32.5t-13 -32t-32 -13t-32.5 13z" />
    <glyph glyph-name="cdotaccent" unicode="&#x10b;" horiz-adv-x="570" 
d="M145.5 19q-48.5 28 -75 78t-26.5 115q0 88 37 157.5t102.5 108t146.5 38.5q79 0 135 -41.5t73 -113.5l-51 -6q-15 56 -57 86t-101 30q-69 0 -122.5 -33t-83 -90.5t-29.5 -129.5q0 -85 45 -133.5t124 -48.5q64 0 119.5 35t83.5 96l48 -5q-33 -80 -101 -125.5t-155 -45.5
q-64 0 -112.5 28zM314.5 627q-13.5 13 -13.5 32t13.5 32.5t32.5 13.5t32 -13.5t13 -32.5t-13 -32t-32 -13t-32.5 13z" />
    <glyph glyph-name="Ccaron" unicode="&#x10c;" horiz-adv-x="815" 
d="M217.5 32q-72.5 41 -112.5 117t-40 177q0 118 57 220t154.5 162.5t213.5 60.5q125 0 207.5 -68t105.5 -183l-52 -6q-22 99 -90.5 155t-172.5 56q-102 0 -187 -54.5t-135 -146t-50 -194.5q0 -88 33.5 -154t95 -101.5t142.5 -35.5q106 0 192.5 58t135.5 155l51 -6
q-56 -117 -156 -185t-226 -68q-94 0 -166.5 41zM687 1013l-169 -169h-45l-123 169h57l90 -133l128 133h62z" />
    <glyph glyph-name="ccaron" unicode="&#x10d;" horiz-adv-x="570" 
d="M145.5 19q-48.5 28 -75 78t-26.5 115q0 88 37 157.5t102.5 108t146.5 38.5q79 0 135 -41.5t73 -113.5l-51 -6q-15 56 -57 86t-101 30q-69 0 -122.5 -33t-83 -90.5t-29.5 -129.5q0 -85 45 -133.5t124 -48.5q64 0 119.5 35t83.5 96l48 -5q-33 -80 -101 -125.5t-155 -45.5
q-64 0 -112.5 28zM525 760l-169 -169h-45l-123 169h57l90 -133l128 133h62z" />
    <glyph glyph-name="Dcaron" unicode="&#x10e;" horiz-adv-x="747" 
d="M560 718.5q76 -41.5 117 -113.5t41 -162q0 -127 -56 -228t-156 -158t-225 -57h-241l107 760h235q102 0 178 -41.5zM480.5 97q87.5 52 137 141t49.5 198q0 82 -34.5 145t-101 98.5t-158.5 35.5h-182l-95 -670h187q110 0 197.5 52zM586 1013l-169 -169h-45l-123 169h57
l90 -133l128 133h62z" />
    <glyph glyph-name="dcaron" unicode="&#x10f;" horiz-adv-x="733" 
d="M563 760h50l-107 -760h-45l14 121q-34 -61 -92 -95.5t-128 -34.5q-61 0 -109 27.5t-75 78.5t-27 118q0 86 38 154.5t102.5 107.5t141.5 39q69 0 117.5 -33t67.5 -93zM784 760l-60 -169h-40l35 169h65zM381 71q54 35 84.5 94t30.5 128q0 82 -45.5 130t-124.5 48
q-64 0 -117 -32.5t-84 -90t-31 -129.5q0 -85 46 -134t122 -49q65 0 119 35z" />
    <glyph glyph-name="Dcroat" unicode="&#x110;" horiz-adv-x="788" 
d="M601 718.5q76 -41.5 117 -113.5t41 -162q0 -127 -56 -228t-156 -158t-225 -57h-241l53 376h-101l6 44h101l48 340h235q102 0 178 -41.5zM521.5 97q87.5 52 137 141t49.5 198q0 82 -34.5 145t-101 98.5t-158.5 35.5h-182l-42 -295h269l-6 -44h-269l-47 -331h187
q110 0 197.5 52z" />
    <glyph glyph-name="dcroat" unicode="&#x111;" horiz-adv-x="655" 
d="M706 621h-113l-87 -621h-45l14 121q-34 -61 -92 -95.5t-128 -34.5q-61 0 -109 27.5t-75 78.5t-27 118q0 86 38 154.5t102.5 107.5t141.5 39q69 0 117.5 -33t67.5 -93l32 231h-240l6 42h240l14 97h50l-14 -97h114zM381 71q54 35 84.5 94t30.5 128q0 82 -45.5 130
t-124.5 48q-64 0 -117 -32.5t-84 -90t-31 -129.5q0 -85 46 -134t122 -49q65 0 119 35z" />
    <glyph glyph-name="Emacron" unicode="&#x112;" horiz-adv-x="543" 
d="M191 715l-42 -294h351l-7 -45h-350l-47 -331h360l-7 -45h-409l107 760h404l-7 -45h-353zM237 949h272l-5 -39h-272z" />
    <glyph glyph-name="emacron" unicode="&#x113;" horiz-adv-x="573" 
d="M94 238q-1 -8 -1 -25q0 -83 46.5 -130t122.5 -47q64 0 113 30t81 85l49 -6q-39 -74 -102.5 -114t-144.5 -40q-63 0 -112 28t-76 78t-27 114q0 84 36 153.5t100.5 110.5t145.5 41q95 0 150.5 -57.5t55.5 -152.5q0 -15 -1.5 -33.5t-4.5 -34.5h-431zM180.5 418
q-60.5 -53 -79.5 -137h379q1 7 1 22q0 82 -43 125t-115 43q-82 0 -142.5 -53zM218 696h272l-5 -39h-272z" />
    <glyph glyph-name="Ebreve" unicode="&#x114;" horiz-adv-x="543" 
d="M191 715l-42 -294h351l-7 -45h-350l-47 -331h360l-7 -45h-409l107 760h404l-7 -45h-353zM255.5 894.5q-35.5 41.5 -35.5 118.5h39q0 -58 27.5 -89t77.5 -31q49 0 84.5 31t50.5 89h40q-17 -77 -63.5 -118.5t-115.5 -41.5t-104.5 41.5z" />
    <glyph glyph-name="ebreve" unicode="&#x115;" horiz-adv-x="573" 
d="M94 238q-1 -8 -1 -25q0 -83 46.5 -130t122.5 -47q64 0 113 30t81 85l49 -6q-39 -74 -102.5 -114t-144.5 -40q-63 0 -112 28t-76 78t-27 114q0 84 36 153.5t100.5 110.5t145.5 41q95 0 150.5 -57.5t55.5 -152.5q0 -15 -1.5 -33.5t-4.5 -34.5h-431zM180.5 418
q-60.5 -53 -79.5 -137h379q1 7 1 22q0 82 -43 125t-115 43q-82 0 -142.5 -53zM236.5 641.5q-35.5 41.5 -35.5 118.5h39q0 -58 27.5 -89t77.5 -31q49 0 84.5 31t50.5 89h40q-17 -77 -63.5 -118.5t-115.5 -41.5t-104.5 41.5z" />
    <glyph glyph-name="Edotaccent" unicode="&#x116;" horiz-adv-x="543" 
d="M191 715l-42 -294h351l-7 -45h-350l-47 -331h360l-7 -45h-409l107 760h404l-7 -45h-353zM334.5 880q-13.5 13 -13.5 32t13.5 32.5t32.5 13.5t32 -13.5t13 -32.5t-13 -32t-32 -13t-32.5 13z" />
    <glyph glyph-name="edotaccent" unicode="&#x117;" horiz-adv-x="573" 
d="M94 238q-1 -8 -1 -25q0 -83 46.5 -130t122.5 -47q64 0 113 30t81 85l49 -6q-39 -74 -102.5 -114t-144.5 -40q-63 0 -112 28t-76 78t-27 114q0 84 36 153.5t100.5 110.5t145.5 41q95 0 150.5 -57.5t55.5 -152.5q0 -15 -1.5 -33.5t-4.5 -34.5h-431zM180.5 418
q-60.5 -53 -79.5 -137h379q1 7 1 22q0 82 -43 125t-115 43q-82 0 -142.5 -53zM315.5 627q-13.5 13 -13.5 32t13.5 32.5t32.5 13.5t32 -13.5t13 -32.5t-13 -32t-32 -13t-32.5 13z" />
    <glyph glyph-name="Eogonek" unicode="&#x118;" horiz-adv-x="543" 
d="M191 715l-42 -294h351l-7 -45h-350l-47 -331h360l-7 -45h-409l107 760h404l-7 -45h-353zM332 -36q-28 -26 -28 -66q0 -29 19 -44.5t55 -15.5q24 0 51 9l-3 -36q-30 -13 -63 -13q-48 0 -76.5 23t-28.5 64q0 54 39.5 89t101.5 50l3 -22q-42 -12 -70 -38z" />
    <glyph glyph-name="eogonek" unicode="&#x119;" horiz-adv-x="573" 
d="M94 238q-1 -8 -1 -25q0 -83 46.5 -130t122.5 -47q64 0 113 30t81 85l49 -6q-39 -74 -102.5 -114t-144.5 -40q-63 0 -112 28t-76 78t-27 114q0 84 36 153.5t100.5 110.5t145.5 41q95 0 150.5 -57.5t55.5 -152.5q0 -15 -1.5 -33.5t-4.5 -34.5h-431zM180.5 418
q-60.5 -53 -79.5 -137h379q1 7 1 22q0 82 -43 125t-115 43q-82 0 -142.5 -53zM265 -36q-28 -26 -28 -66q0 -29 19 -44.5t55 -15.5q24 0 51 9l-3 -36q-30 -13 -63 -13q-48 0 -76.5 23t-28.5 64q0 54 39.5 89t101.5 50l3 -22q-42 -12 -70 -38z" />
    <glyph glyph-name="Ecaron" unicode="&#x11a;" horiz-adv-x="543" 
d="M191 715l-42 -294h351l-7 -45h-350l-47 -331h360l-7 -45h-409l107 760h404l-7 -45h-353zM545 1013l-169 -169h-45l-123 169h57l90 -133l128 133h62z" />
    <glyph glyph-name="ecaron" unicode="&#x11b;" horiz-adv-x="573" 
d="M94 238q-1 -8 -1 -25q0 -83 46.5 -130t122.5 -47q64 0 113 30t81 85l49 -6q-39 -74 -102.5 -114t-144.5 -40q-63 0 -112 28t-76 78t-27 114q0 84 36 153.5t100.5 110.5t145.5 41q95 0 150.5 -57.5t55.5 -152.5q0 -15 -1.5 -33.5t-4.5 -34.5h-431zM180.5 418
q-60.5 -53 -79.5 -137h379q1 7 1 22q0 82 -43 125t-115 43q-82 0 -142.5 -53zM526 760l-169 -169h-45l-123 169h57l90 -133l128 133h62z" />
    <glyph glyph-name="Gcircumflex" unicode="&#x11c;" horiz-adv-x="800" 
d="M400 386h347l-43 -304q-60 -40 -135 -65.5t-163 -25.5q-106 0 -182.5 40t-117.5 116t-41 180q0 117 55.5 219t152 162.5t214.5 60.5q119 0 193 -59.5t98 -146.5l-51 -6q-20 68 -82.5 117t-161.5 49q-104 0 -188 -55.5t-131.5 -147t-47.5 -193.5q0 -139 77.5 -214.5
t217.5 -75.5q133 0 246 68l33 236h-296zM604 844l-90 133l-128 -133h-62l169 169h45l123 -169h-57z" />
    <glyph glyph-name="gcircumflex" unicode="&#x11d;" horiz-adv-x="610" 
d="M577 507l-63 -447q-18 -134 -86 -198t-183 -64q-84 0 -135 33.5t-65 82.5l50 9q13 -36 51 -59.5t101 -23.5q187 0 217 214l8 61q-35 -58 -92 -91t-125 -33q-61 0 -109 28t-75 78.5t-27 116.5q0 86 37.5 155t102.5 108t143 39q68 0 117 -34t68 -95l20 120h45zM381.5 70.5
q53.5 34.5 84 94t30.5 129.5q0 81 -46 129t-122 48q-65 0 -118.5 -33t-84.5 -90.5t-31 -128.5q0 -85 46 -134t124 -49q64 0 117.5 34.5zM444 591l-90 133l-128 -133h-62l169 169h45l123 -169h-57z" />
    <glyph glyph-name="Gbreve" unicode="&#x11e;" horiz-adv-x="800" 
d="M400 386h347l-43 -304q-60 -40 -135 -65.5t-163 -25.5q-106 0 -182.5 40t-117.5 116t-41 180q0 117 55.5 219t152 162.5t214.5 60.5q119 0 193 -59.5t98 -146.5l-51 -6q-20 68 -82.5 117t-161.5 49q-104 0 -188 -55.5t-131.5 -147t-47.5 -193.5q0 -139 77.5 -214.5
t217.5 -75.5q133 0 246 68l33 236h-296zM398.5 894.5q-35.5 41.5 -35.5 118.5h39q0 -58 27.5 -89t77.5 -31q49 0 84.5 31t50.5 89h40q-17 -77 -63.5 -118.5t-115.5 -41.5t-104.5 41.5z" />
    <glyph glyph-name="gbreve" unicode="&#x11f;" horiz-adv-x="610" 
d="M577 507l-63 -447q-18 -134 -86 -198t-183 -64q-84 0 -135 33.5t-65 82.5l50 9q13 -36 51 -59.5t101 -23.5q187 0 217 214l8 61q-35 -58 -92 -91t-125 -33q-61 0 -109 28t-75 78.5t-27 116.5q0 86 37.5 155t102.5 108t143 39q68 0 117 -34t68 -95l20 120h45zM381.5 70.5
q53.5 34.5 84 94t30.5 129.5q0 81 -46 129t-122 48q-65 0 -118.5 -33t-84.5 -90.5t-31 -128.5q0 -85 46 -134t124 -49q64 0 117.5 34.5zM238.5 641.5q-35.5 41.5 -35.5 118.5h39q0 -58 27.5 -89t77.5 -31q49 0 84.5 31t50.5 89h40q-17 -77 -63.5 -118.5t-115.5 -41.5
t-104.5 41.5z" />
    <glyph glyph-name="Gdotaccent" unicode="&#x120;" horiz-adv-x="800" 
d="M400 386h347l-43 -304q-60 -40 -135 -65.5t-163 -25.5q-106 0 -182.5 40t-117.5 116t-41 180q0 117 55.5 219t152 162.5t214.5 60.5q119 0 193 -59.5t98 -146.5l-51 -6q-20 68 -82.5 117t-161.5 49q-104 0 -188 -55.5t-131.5 -147t-47.5 -193.5q0 -139 77.5 -214.5
t217.5 -75.5q133 0 246 68l33 236h-296zM477.5 880q-13.5 13 -13.5 32t13.5 32.5t32.5 13.5t32 -13.5t13 -32.5t-13 -32t-32 -13t-32.5 13z" />
    <glyph glyph-name="gdotaccent" unicode="&#x121;" horiz-adv-x="610" 
d="M577 507l-63 -447q-18 -134 -86 -198t-183 -64q-84 0 -135 33.5t-65 82.5l50 9q13 -36 51 -59.5t101 -23.5q187 0 217 214l8 61q-35 -58 -92 -91t-125 -33q-61 0 -109 28t-75 78.5t-27 116.5q0 86 37.5 155t102.5 108t143 39q68 0 117 -34t68 -95l20 120h45zM381.5 70.5
q53.5 34.5 84 94t30.5 129.5q0 81 -46 129t-122 48q-65 0 -118.5 -33t-84.5 -90.5t-31 -128.5q0 -85 46 -134t124 -49q64 0 117.5 34.5zM317.5 627q-13.5 13 -13.5 32t13.5 32.5t32.5 13.5t32 -13.5t13 -32.5t-13 -32t-32 -13t-32.5 13z" />
    <glyph glyph-name="Gcommaaccent" unicode="&#x122;" horiz-adv-x="800" 
d="M400 386h347l-43 -304q-60 -40 -135 -65.5t-163 -25.5q-106 0 -182.5 40t-117.5 116t-41 180q0 117 55.5 219t152 162.5t214.5 60.5q119 0 193 -59.5t98 -146.5l-51 -6q-20 68 -82.5 117t-161.5 49q-104 0 -188 -55.5t-131.5 -147t-47.5 -193.5q0 -139 77.5 -214.5
t217.5 -75.5q133 0 246 68l33 236h-296zM334 -210h-40l79 140h65z" />
    <glyph glyph-name="gcommaaccent" unicode="&#x123;" horiz-adv-x="609" 
d="M577 507l-63 -447q-18 -134 -86 -198t-183 -64q-84 0 -135 33.5t-65 82.5l50 9q13 -36 51 -59.5t101 -23.5q187 0 217 214l8 61q-35 -58 -92 -91t-125 -33q-61 0 -109 28t-75 78.5t-27 116.5q0 86 37.5 155t102.5 108t143 39q68 0 117 -34t68 -95l20 120h45zM381.5 70.5
q53.5 34.5 84 94t30.5 129.5q0 81 -46 129t-122 48q-65 0 -118.5 -33t-84.5 -90.5t-31 -128.5q0 -85 46 -134t124 -49q64 0 117.5 34.5zM405 737h40l-79 -140h-65z" />
    <glyph glyph-name="Hcircumflex" unicode="&#x124;" horiz-adv-x="655" 
d="M651 760l-107 -760h-50l53 376h-404l-53 -376h-50l107 760h50l-48 -339h404l48 339h50zM514 844l-90 133l-128 -133h-62l169 169h45l123 -169h-57z" />
    <glyph glyph-name="hcircumflex" unicode="&#x125;" horiz-adv-x="560" 
d="M462.5 473q45.5 -43 45.5 -119q0 -23 -3 -44l-44 -310h-50l43 306q4 28 4 40q0 62 -33.5 94.5t-99.5 32.5q-81 0 -134.5 -54t-69.5 -139l-39 -280h-50l107 760h50l-51 -363q34 59 86 89t115 30q78 0 123.5 -43zM478 844l-90 133l-128 -133h-62l169 169h45l123 -169h-57z
" />
    <glyph glyph-name="Hbar" unicode="&#x126;" horiz-adv-x="661" 
d="M692 552h-67l-78 -552h-50l53 376h-404l-53 -376h-50l78 552h-69l6 44h69l23 164h50l-23 -164h404l23 164h50l-23 -164h67zM575 552h-404l-19 -131h404z" />
    <glyph glyph-name="hbar" unicode="&#x127;" horiz-adv-x="605" 
d="M508.5 473q45.5 -43 45.5 -119q0 -23 -3 -44l-44 -310h-50l43 306q4 28 4 40q0 62 -33.5 94.5t-99.5 32.5q-81 0 -134.5 -54t-69.5 -139l-39 -280h-50l87 621h-113l6 42h113l14 97h50l-14 -97h241l-7 -42h-240l-31 -224q34 59 86 89t115 30q78 0 123.5 -43z" />
    <glyph glyph-name="Itilde" unicode="&#x128;" horiz-adv-x="201" 
d="M147 760h50l-107 -760h-50zM217 896.5q-18 9.5 -37 25.5q-17 15 -29.5 22t-26.5 7q-18 0 -37 -12t-34 -35l-34 17q44 68 111 68q23 0 42 -9.5t39 -25.5q16 -14 29 -21.5t27 -7.5q19 0 38.5 12.5t35.5 35.5l34 -15q-25 -34 -55 -52.5t-62 -18.5q-23 0 -41 9.5z" />
    <glyph glyph-name="itilde" unicode="&#x129;" horiz-adv-x="187" 
d="M104 507h50l-71 -507h-50zM174 643.5q-18 9.5 -37 25.5q-17 15 -29.5 22t-26.5 7q-18 0 -37 -12t-34 -35l-34 17q44 68 111 68q23 0 42 -9.5t39 -25.5q16 -14 29 -21.5t27 -7.5q19 0 38.5 12.5t35.5 35.5l34 -15q-25 -34 -55 -52.5t-62 -18.5q-23 0 -41 9.5z" />
    <glyph glyph-name="Imacron" unicode="&#x12a;" horiz-adv-x="201" 
d="M147 760h50l-107 -760h-50zM63 949h272l-5 -39h-272z" />
    <glyph glyph-name="imacron" unicode="&#x12b;" horiz-adv-x="187" 
d="M104 507h50l-71 -507h-50zM20 696h272l-5 -39h-272z" />
    <glyph glyph-name="Ibreve" unicode="&#x12c;" horiz-adv-x="201" 
d="M147 760h50l-107 -760h-50zM81.5 894.5q-35.5 41.5 -35.5 118.5h39q0 -58 27.5 -89t77.5 -31q49 0 84.5 31t50.5 89h40q-17 -77 -63.5 -118.5t-115.5 -41.5t-104.5 41.5z" />
    <glyph glyph-name="ibreve" unicode="&#x12d;" horiz-adv-x="187" 
d="M104 507h50l-71 -507h-50zM38.5 641.5q-35.5 41.5 -35.5 118.5h39q0 -58 27.5 -89t77.5 -31q49 0 84.5 31t50.5 89h40q-17 -77 -63.5 -118.5t-115.5 -41.5t-104.5 41.5z" />
    <glyph glyph-name="Iogonek" unicode="&#x12e;" horiz-adv-x="201" 
d="M147 760h50l-107 -760h-50zM9 -36q-28 -26 -28 -66q0 -29 19 -44.5t55 -15.5q24 0 51 9l-3 -36q-30 -13 -63 -13q-48 0 -76.5 23t-28.5 64q0 54 39.5 89t101.5 50l3 -22q-42 -12 -70 -38z" />
    <glyph glyph-name="iogonek" unicode="&#x12f;" horiz-adv-x="187" 
d="M104 507h50l-71 -507h-50zM117.5 627q-13.5 13 -13.5 32t13.5 32.5t32.5 13.5t32 -13.5t13 -32.5t-13 -32t-32 -13t-32.5 13zM2 -36q-28 -26 -28 -66q0 -29 19 -44.5t55 -15.5q24 0 51 9l-3 -36q-30 -13 -63 -13q-48 0 -76.5 23t-28.5 64q0 54 39.5 89t101.5 50l3 -22
q-42 -12 -70 -38z" />
    <glyph glyph-name="Idotaccent" unicode="&#x130;" horiz-adv-x="201" 
d="M147 760h50l-107 -760h-50zM160.5 880q-13.5 13 -13.5 32t13.5 32.5t32.5 13.5t32 -13.5t13 -32.5t-13 -32t-32 -13t-32.5 13z" />
    <glyph glyph-name="dotlessi" unicode="&#x131;" horiz-adv-x="187" 
d="M104 507h50l-71 -507h-50z" />
    <glyph glyph-name="IJ" unicode="&#x132;" horiz-adv-x="530" 
d="M147 760h50l-73 -520h-51zM164 2.5q-36 11.5 -61 30.5l27 38q48 -34 111 -34q64 0 107.5 41.5t54.5 127.5l78 554h51l-80 -562q-14 -100 -70.5 -153.5t-141.5 -53.5q-40 0 -76 11.5z" />
    <glyph glyph-name="ij" unicode="&#x133;" horiz-adv-x="387" 
d="M118.5 627q-13.5 13 -13.5 32q0 20 13.5 33t32.5 13t32 -13.5t13 -32.5t-13 -32t-32 -13t-32.5 13zM104 507h50l-71 -507h-50zM318.5 627q-13.5 13 -13.5 32q0 20 13.5 33t32.5 13t32 -13.5t13 -32.5t-13 -32t-32 -13t-32.5 13zM37 -186l10 44q37 -16 75 -16
q46 0 71.5 28.5t34.5 92.5l76 544h50l-77 -553q-23 -156 -155 -156q-51 0 -85 16z" />
    <glyph glyph-name="Jcircumflex" unicode="&#x134;" horiz-adv-x="529" 
d="M76 40.5q-49 49.5 -49 140.5l50 4q0 -148 140 -148q77 0 125.5 46.5t62.5 151.5l74 525h50l-74 -528q-18 -125 -78 -183t-162 -58q-90 0 -139 49.5zM618 844l-90 133l-128 -133h-62l169 169h45l123 -169h-57z" />
    <glyph glyph-name="jcircumflex" unicode="&#x135;" horiz-adv-x="200" 
d="M-150 -186l10 44q37 -16 76 -16q46 0 71 28t34 92l76 545h50l-77 -553q-23 -156 -154 -156q-52 0 -86 16zM226 591l-57 130l-93 -130h-60l134 169h45l88 -169h-57z" />
    <glyph glyph-name="Kcommaaccent" unicode="&#x136;" horiz-adv-x="574" 
d="M334 434l189 -434h-53l-171 393l-183 -207l-26 -186h-50l107 760h50l-70 -498l437 498h57zM185 -210h-40l79 140h65z" />
    <glyph glyph-name="kcommaaccent" unicode="&#x137;" horiz-adv-x="474" 
d="M273 321l163 -321h-52l-148 288l-131 -123l-23 -165h-50l107 760h50l-74 -525l293 272h64zM154 -210h-40l79 140h65z" />
    <glyph glyph-name="kgreenlandic" unicode="&#x138;" horiz-adv-x="474" 
d="M472 507l-7 -44h-16q-24 0 -42 -11t-46 -37l-91 -87l166 -328h-52l-151 293l-127 -122l-24 -171h-50l71 507h50l-37 -267l225 214q54 53 115 53h16z" />
    <glyph glyph-name="Lacute" unicode="&#x139;" horiz-adv-x="483" 
d="M428 45l-7 -45h-381l107 760h50l-101 -715h332zM210 844h-39l109 169h65z" />
    <glyph glyph-name="lacute" unicode="&#x13a;" horiz-adv-x="244" 
d="M79 13.5q-31 22.5 -31 78.5q0 21 3 45l88 623h50l-87 -620q-3 -22 -3 -39q0 -39 18.5 -52t60.5 -13h7l-3 -45h-11q-61 0 -92 22.5zM190 844h-39l109 169h65z" />
    <glyph glyph-name="Lcommaaccent" unicode="&#x13b;" horiz-adv-x="483" 
d="M428 45l-7 -45h-381l107 760h50l-101 -715h332zM165 -210h-40l79 140h65z" />
    <glyph glyph-name="lcommaaccent" unicode="&#x13c;" horiz-adv-x="244" 
d="M79 13.5q-31 22.5 -31 78.5q0 21 3 45l88 623h50l-87 -620q-3 -22 -3 -39q0 -39 18.5 -52t60.5 -13h7l-3 -45h-11q-61 0 -92 22.5zM24 -210h-40l79 140h65z" />
    <glyph glyph-name="Lcaron" unicode="&#x13d;" horiz-adv-x="483" 
d="M96 45h332l-7 -45h-381l107 760h50zM401 570h-35l38 190h60z" />
    <glyph glyph-name="lcaron" unicode="&#x13e;" horiz-adv-x="304" 
d="M79 13.5q-31 22.5 -31 78.5q0 21 3 45l88 623h50l-87 -620q-3 -22 -3 -39q0 -39 18.5 -52t60.5 -13h7l-3 -45h-11q-61 0 -92 22.5zM296 591h-35l35 169h60z" />
    <glyph glyph-name="Ldot" unicode="&#x13f;" horiz-adv-x="483" 
d="M428 45l-7 -45h-381l107 760h50l-101 -715h332zM325.685 349q-14.0117 14 -13.3486 33q0.699219 20 15.6875 34t34.9883 14q19 0 32.5117 -14t12.8125 -34q-0.663086 -19 -15.1514 -33q-14.4893 -14 -33.4893 -14q-20 0 -34.0107 14z" />
    <glyph glyph-name="ldot" unicode="&#x140;" horiz-adv-x="330" 
d="M239.685 349q-14.0117 14 -13.3486 33q0.699219 20 15.6875 34t34.9883 14q19 0 32.5117 -14t12.8125 -34q-0.663086 -19 -15.1514 -33q-14.4893 -14 -33.4893 -14q-20 0 -34.0107 14zM79 13.5q-31 22.5 -31 78.5q0 21 3 45l88 623h50l-87 -620q-3 -22 -3 -39
q0 -39 18.5 -52t60.5 -13h7l-3 -45h-11q-61 0 -92 22.5z" />
    <glyph glyph-name="Lslash" unicode="&#x141;" horiz-adv-x="528" 
d="M473 45l-7 -45h-381l47 336l-91 -42l-14 40l112 51l53 375h50l-49 -350l219 100l14 -40l-240 -110l-45 -315h332z" />
    <glyph glyph-name="lslash" unicode="&#x142;" horiz-adv-x="315" 
d="M152.5 49q18.5 -13 60.5 -13h7l-3 -45h-11q-61 0 -92 22.5t-31 78.5q0 21 3 45l27 194l-77 -36l-15 39l99 45l54 381h50l-50 -356l143 65l13 -39l-163 -75l-30 -215q-3 -22 -3 -39q0 -39 18.5 -52z" />
    <glyph glyph-name="Nacute" unicode="&#x143;" horiz-adv-x="655" 
d="M651 760l-107 -760h-50l-308 680l-96 -680h-50l107 760h50v-2l308 -678l96 680h50zM425 844h-39l109 169h65z" />
    <glyph glyph-name="nacute" unicode="&#x144;" horiz-adv-x="560" 
d="M462.5 473q45.5 -43 45.5 -119q0 -23 -3 -44l-44 -310h-50l43 306q4 28 4 40q0 62 -33.5 94.5t-99.5 32.5q-81 0 -134 -54t-69 -138l-40 -281h-50l71 507h45l-11 -112q33 60 85.5 90.5t116.5 30.5q78 0 123.5 -43zM351 591h-39l109 169h65z" />
    <glyph glyph-name="Ncommaaccent" unicode="&#x145;" horiz-adv-x="655" 
d="M651 760l-107 -760h-50l-308 680l-96 -680h-50l107 760h50v-2l308 -678l96 680h50zM226 -210h-40l79 140h65z" />
    <glyph glyph-name="ncommaaccent" unicode="&#x146;" horiz-adv-x="560" 
d="M462.5 473q45.5 -43 45.5 -119q0 -23 -3 -44l-44 -310h-50l43 306q4 28 4 40q0 62 -33.5 94.5t-99.5 32.5q-81 0 -134 -54t-69 -138l-40 -281h-50l71 507h45l-11 -112q33 60 85.5 90.5t116.5 30.5q78 0 123.5 -43zM175 -210h-40l79 140h65z" />
    <glyph glyph-name="Ncaron" unicode="&#x147;" horiz-adv-x="655" 
d="M651 760l-107 -760h-50l-308 680l-96 -680h-50l107 760h50v-2l308 -678l96 680h50zM598 1013l-169 -169h-45l-123 169h57l90 -133l128 133h62z" />
    <glyph glyph-name="ncaron" unicode="&#x148;" horiz-adv-x="560" 
d="M462.5 473q45.5 -43 45.5 -119q0 -23 -3 -44l-44 -310h-50l43 306q4 28 4 40q0 62 -33.5 94.5t-99.5 32.5q-81 0 -134 -54t-69 -138l-40 -281h-50l71 507h45l-11 -112q33 60 85.5 90.5t116.5 30.5q78 0 123.5 -43zM524 760l-169 -169h-45l-123 169h57l90 -133l128 133h62
z" />
    <glyph glyph-name="napostrophe" unicode="&#x149;" horiz-adv-x="584" 
d="M88 590h-40l109 170h66zM486.5 473q45.5 -43 45.5 -119q0 -23 -3 -44l-44 -310h-50l43 306q4 28 4 40q0 62 -33.5 94.5t-99.5 32.5q-81 0 -134 -54t-69 -138l-40 -281h-50l71 507h45l-11 -112q33 60 85.5 90.5t116.5 30.5q78 0 123.5 -43z" />
    <glyph glyph-name="Eng" unicode="&#x14a;" horiz-adv-x="655" 
d="M651 760l-103 -733q-16 -114 -79 -171.5t-163 -57.5q-23 0 -34 2l10 45q20 -2 30 -2q70 0 117.5 38.5t64.5 119.5l-309 677l-95 -678h-50l107 760h50l309 -677l95 677h50z" />
    <glyph glyph-name="eng" unicode="&#x14b;" horiz-adv-x="560" 
d="M505 310l-30 -211l-20 -145q-11 -81 -51.5 -118.5t-103.5 -37.5q-51 0 -85 16l10 44q37 -16 77 -16q45 0 70 27.5t34 88.5l6 42h-1l43 306q4 28 4 40q0 62 -33.5 94.5t-99.5 32.5q-84 0 -138.5 -59t-67.5 -149l-37 -265h-50l71 507h45l-12 -114q34 61 86.5 92t116.5 31
q78 0 123.5 -43t45.5 -119q0 -23 -3 -44z" />
    <glyph glyph-name="Omacron" unicode="&#x14c;" horiz-adv-x="840" 
d="M216 33q-72 42 -111.5 118t-39.5 176q0 119 57.5 220.5t155.5 161.5t214 60q95 0 167 -41.5t112 -118t40 -177.5q0 -118 -57.5 -219.5t-156 -161.5t-214.5 -60q-95 0 -167 42zM573 91.5q86 54.5 136 145.5t50 195q0 87 -33 153t-94 102t-143 36q-102 0 -187.5 -55
t-135.5 -146t-50 -195q0 -87 33 -153t94 -101.5t142 -35.5q102 0 188 54.5zM386 949h272l-5 -39h-272z" />
    <glyph glyph-name="omacron" unicode="&#x14d;" horiz-adv-x="591" 
d="M147 18.5q-49 27.5 -76 78t-27 118.5q0 85 37.5 154t103 108t146.5 39q64 0 113 -27.5t76 -78t27 -117.5q0 -86 -37.5 -155t-103 -108t-146.5 -39q-64 0 -113 27.5zM381 69q54 33 85 91t31 130q0 86 -45.5 133.5t-122.5 47.5q-66 0 -119.5 -33t-84.5 -90.5t-31 -129.5
q0 -86 45.5 -134t122.5 -48q65 0 119 33zM222 697h272l-5 -39h-272z" />
    <glyph glyph-name="Obreve" unicode="&#x14e;" horiz-adv-x="840" 
d="M216 33q-72 42 -111.5 118t-39.5 176q0 119 57.5 220.5t155.5 161.5t214 60q95 0 167 -41.5t112 -118t40 -177.5q0 -118 -57.5 -219.5t-156 -161.5t-214.5 -60q-95 0 -167 42zM573 91.5q86 54.5 136 145.5t50 195q0 87 -33 153t-94 102t-143 36q-102 0 -187.5 -55
t-135.5 -146t-50 -195q0 -87 33 -153t94 -101.5t142 -35.5q102 0 188 54.5zM404.5 894.5q-35.5 41.5 -35.5 118.5h39q0 -58 27.5 -89t77.5 -31q49 0 84.5 31t50.5 89h40q-17 -77 -63.5 -118.5t-115.5 -41.5t-104.5 41.5z" />
    <glyph glyph-name="obreve" unicode="&#x14f;" horiz-adv-x="591" 
d="M147 18.5q-49 27.5 -76 78t-27 118.5q0 85 37.5 154t103 108t146.5 39q64 0 113 -27.5t76 -78t27 -117.5q0 -86 -37.5 -155t-103 -108t-146.5 -39q-64 0 -113 27.5zM381 69q54 33 85 91t31 130q0 86 -45.5 133.5t-122.5 47.5q-66 0 -119.5 -33t-84.5 -90.5t-31 -129.5
q0 -86 45.5 -134t122.5 -48q65 0 119 33zM240.5 642.5q-35.5 41.5 -35.5 118.5h39q0 -58 27.5 -89t77.5 -31q49 0 84.5 31t50.5 89h40q-17 -77 -63.5 -118.5t-115.5 -41.5t-104.5 41.5z" />
    <glyph glyph-name="Ohungarumlaut" unicode="&#x150;" horiz-adv-x="840" 
d="M216 33q-72 42 -111.5 118t-39.5 176q0 119 57.5 220.5t155.5 161.5t214 60q95 0 167 -41.5t112 -118t40 -177.5q0 -118 -57.5 -219.5t-156 -161.5t-214.5 -60q-95 0 -167 42zM573 91.5q86 54.5 136 145.5t50 195q0 87 -33 153t-94 102t-143 36q-102 0 -187.5 -55
t-135.5 -146t-50 -195q0 -87 33 -153t94 -101.5t142 -35.5q102 0 188 54.5zM406 844h-39l109 169h65zM595 844h-39l109 169h65z" />
    <glyph glyph-name="ohungarumlaut" unicode="&#x151;" horiz-adv-x="591" 
d="M147 18.5q-49 27.5 -76 78t-27 118.5q0 85 37.5 154t103 108t146.5 39q64 0 113 -27.5t76 -78t27 -117.5q0 -86 -37.5 -155t-103 -108t-146.5 -39q-64 0 -113 27.5zM381 69q54 33 85 91t31 130q0 86 -45.5 133.5t-122.5 47.5q-66 0 -119.5 -33t-84.5 -90.5t-31 -129.5
q0 -86 45.5 -134t122.5 -48q65 0 119 33zM242 592h-39l109 169h65zM431 592h-39l109 169h65z" />
    <glyph glyph-name="OE" unicode="&#x152;" horiz-adv-x="1207" 
d="M216 33q-72 42 -111.5 118t-39.5 176q0 119 57.5 220.5t155.5 161.5t214 60q95 0 167 -41.5t112 -118t40 -177.5q0 -118 -57.5 -219.5t-156 -161.5t-214.5 -60q-95 0 -167 42zM573 91.5q86 54.5 136 145.5t50 195q0 87 -33 153t-94 102t-143 36q-102 0 -187.5 -55
t-135.5 -146t-50 -195q0 -87 33 -153t94 -101.5t142 -35.5q102 0 188 54.5zM855 715l-42 -294h351l-7 -45h-350l-47 -331h360l-7 -45h-409l107 760h404l-7 -45h-353z" />
    <glyph glyph-name="oe" unicode="&#x153;" horiz-adv-x="1022" 
d="M147 18.5q-49 27.5 -76 78t-27 118.5q0 85 37.5 154t103 108t146.5 39q64 0 113 -27.5t76 -78t27 -117.5q0 -86 -37.5 -155t-103 -108t-146.5 -39q-64 0 -113 27.5zM381 69q54 33 85 91t31 130q0 86 -45.5 133.5t-122.5 47.5q-66 0 -119.5 -33t-84.5 -90.5t-31 -129.5
q0 -86 45.5 -134t122.5 -48q65 0 119 33zM543 238q-1 -8 -1 -25q0 -83 46.5 -130t122.5 -47q64 0 113 30t81 85l49 -6q-39 -74 -102.5 -114t-144.5 -40q-63 0 -112 28t-76 78t-27 114q0 84 36 153.5t100.5 110.5t145.5 41q95 0 150.5 -57.5t55.5 -152.5q0 -15 -1.5 -33.5
t-4.5 -34.5h-431zM629.5 418q-60.5 -53 -79.5 -137h379q1 7 1 22q0 82 -43 125t-115 43q-82 0 -142.5 -53z" />
    <glyph glyph-name="Racute" unicode="&#x154;" horiz-adv-x="615" 
d="M557.5 369.5q-52.5 -74.5 -144.5 -101.5l107 -268h-56l-103 258q-21 -3 -43 -3h-192l-36 -255h-50l107 760h227q119 0 177.5 -56.5t58.5 -159.5q0 -100 -52.5 -174.5zM449.5 332q53.5 32 81.5 86.5t28 122.5q0 86 -45 130t-149 44h-174l-59 -415h191q73 0 126.5 32z
M381 844h-39l109 169h65z" />
    <glyph glyph-name="racute" unicode="&#x155;" horiz-adv-x="349" 
d="M363 514l-11 -52q-16 4 -44 4q-71 0 -121.5 -58t-68.5 -152l-36 -256h-50l71 507h45l-12 -120q33 63 82 96t104 33q29 0 41 -2zM239 591h-39l109 169h65z" />
    <glyph glyph-name="Rcommaaccent" unicode="&#x156;" horiz-adv-x="615" 
d="M557.5 369.5q-52.5 -74.5 -144.5 -101.5l107 -268h-56l-103 258q-21 -3 -43 -3h-192l-36 -255h-50l107 760h227q119 0 177.5 -56.5t58.5 -159.5q0 -100 -52.5 -174.5zM449.5 332q53.5 32 81.5 86.5t28 122.5q0 86 -45 130t-149 44h-174l-59 -415h191q73 0 126.5 32z
M191 -210h-40l79 140h65z" />
    <glyph glyph-name="rcommaaccent" unicode="&#x157;" horiz-adv-x="349" 
d="M363 514l-11 -52q-16 4 -44 4q-71 0 -121.5 -58t-68.5 -152l-36 -256h-50l71 507h45l-12 -120q33 63 82 96t104 33q29 0 41 -2zM36 -210h-40l79 140h65z" />
    <glyph glyph-name="Rcaron" unicode="&#x158;" horiz-adv-x="615" 
d="M557.5 369.5q-52.5 -74.5 -144.5 -101.5l107 -268h-56l-103 258q-21 -3 -43 -3h-192l-36 -255h-50l107 760h227q119 0 177.5 -56.5t58.5 -159.5q0 -100 -52.5 -174.5zM449.5 332q53.5 32 81.5 86.5t28 122.5q0 86 -45 130t-149 44h-174l-59 -415h191q73 0 126.5 32z
M554 1013l-169 -169h-45l-123 169h57l90 -133l128 133h62z" />
    <glyph glyph-name="rcaron" unicode="&#x159;" horiz-adv-x="349" 
d="M363 514l-11 -52q-16 4 -44 4q-71 0 -121.5 -58t-68.5 -152l-36 -256h-50l71 507h45l-12 -120q33 63 82 96t104 33q29 0 41 -2zM412 760l-169 -169h-45l-123 169h57l90 -133l128 133h62z" />
    <glyph glyph-name="Sacute" unicode="&#x15a;" horiz-adv-x="619" 
d="M103.5 46q-60.5 55 -60.5 157l50 5q0 -171 191 -171q105 0 164 47.5t59 131.5q0 41 -16 66.5t-46 42t-83 35.5l-85 29q-92 31 -132 73t-40 108q0 59 31.5 104.5t89.5 70t135 24.5q114 0 174.5 -53t62.5 -141l-50 -6q-2 71 -48 112.5t-138 41.5q-90 0 -147.5 -40
t-57.5 -111q0 -50 32 -80.5t112 -58.5l81 -28q63 -22 100 -44t57 -56t20 -86q0 -106 -75 -167t-202 -61q-118 0 -178.5 55zM397 844h-39l109 169h65z" />
    <glyph glyph-name="sacute" unicode="&#x15b;" horiz-adv-x="455" 
d="M65.5 28q-43.5 37 -43.5 108l50 5q0 -56 30 -80.5t94 -24.5q71 0 112.5 28.5t41.5 86.5q0 25 -14 41t-37 26.5t-67 24.5l-36 11q-68 22 -101.5 48t-33.5 75q0 65 51 102t138 37q76 0 122 -34t47 -95l-50 -6q-2 43 -33 66.5t-91 23.5q-62 0 -98 -25t-36 -68
q0 -30 24.5 -46.5t76.5 -33.5l40 -13q51 -16 81 -31t48.5 -39t18.5 -61q0 -80 -56 -121.5t-148 -41.5q-87 0 -130.5 37zM279 591h-39l109 169h65z" />
    <glyph glyph-name="Scircumflex" unicode="&#x15c;" horiz-adv-x="619" 
d="M103.5 46q-60.5 55 -60.5 157l50 5q0 -171 191 -171q105 0 164 47.5t59 131.5q0 41 -16 66.5t-46 42t-83 35.5l-85 29q-92 31 -132 73t-40 108q0 59 31.5 104.5t89.5 70t135 24.5q114 0 174.5 -53t62.5 -141l-50 -6q-2 71 -48 112.5t-138 41.5q-90 0 -147.5 -40
t-57.5 -111q0 -50 32 -80.5t112 -58.5l81 -28q63 -22 100 -44t57 -56t20 -86q0 -106 -75 -167t-202 -61q-118 0 -178.5 55zM486 844l-90 133l-128 -133h-62l169 169h45l123 -169h-57z" />
    <glyph glyph-name="scircumflex" unicode="&#x15d;" horiz-adv-x="455" 
d="M65.5 28q-43.5 37 -43.5 108l50 5q0 -56 30 -80.5t94 -24.5q71 0 112.5 28.5t41.5 86.5q0 25 -14 41t-37 26.5t-67 24.5l-36 11q-68 22 -101.5 48t-33.5 75q0 65 51 102t138 37q76 0 122 -34t47 -95l-50 -6q-2 43 -33 66.5t-91 23.5q-62 0 -98 -25t-36 -68
q0 -30 24.5 -46.5t76.5 -33.5l40 -13q51 -16 81 -31t48.5 -39t18.5 -61q0 -80 -56 -121.5t-148 -41.5q-87 0 -130.5 37zM368 591l-90 133l-128 -133h-62l169 169h45l123 -169h-57z" />
    <glyph glyph-name="Scedilla" unicode="&#x15e;" horiz-adv-x="619" 
d="M103.5 46q-60.5 55 -60.5 157l50 5q0 -171 191 -171q105 0 164 47.5t59 131.5q0 41 -16 66.5t-46 42t-83 35.5l-85 29q-92 31 -132 73t-40 108q0 59 31.5 104.5t89.5 70t135 24.5q114 0 174.5 -53t62.5 -141l-50 -6q-2 71 -48 112.5t-138 41.5q-90 0 -147.5 -40
t-57.5 -111q0 -50 32 -80.5t112 -58.5l81 -28q63 -22 100 -44t57 -56t20 -86q0 -106 -75 -167t-202 -61q-118 0 -178.5 55zM349.5 -61.5q20.5 -17.5 20.5 -49.5q0 -44 -30 -67.5t-76 -23.5q-20 0 -39.5 4.5t-30.5 11.5l15 29q22 -12 49 -12q30 0 47 15t17 40q0 18 -11 28
t-31 10q-24 0 -44 -13l-17 12l37 89h38l-22 -58q14 2 23 2q34 0 54.5 -17.5z" />
    <glyph glyph-name="scedilla" unicode="&#x15f;" horiz-adv-x="455" 
d="M65.5 28q-43.5 37 -43.5 108l50 5q0 -56 30 -80.5t94 -24.5q71 0 112.5 28.5t41.5 86.5q0 25 -14 41t-37 26.5t-67 24.5l-36 11q-68 22 -101.5 48t-33.5 75q0 65 51 102t138 37q76 0 122 -34t47 -95l-50 -6q-2 43 -33 66.5t-91 23.5q-62 0 -98 -25t-36 -68
q0 -30 24.5 -46.5t76.5 -33.5l40 -13q51 -16 81 -31t48.5 -39t18.5 -61q0 -80 -56 -121.5t-148 -41.5q-87 0 -130.5 37zM262.5 -61.5q20.5 -17.5 20.5 -49.5q0 -44 -30 -67.5t-76 -23.5q-20 0 -39.5 4.5t-30.5 11.5l15 29q22 -12 49 -12q30 0 47 15t17 40q0 18 -11 28
t-31 10q-24 0 -44 -13l-17 12l37 89h38l-22 -58q14 2 23 2q34 0 54.5 -17.5z" />
    <glyph glyph-name="Scaron" unicode="&#x160;" horiz-adv-x="619" 
d="M103.5 46q-60.5 55 -60.5 157l50 5q0 -171 191 -171q105 0 164 47.5t59 131.5q0 41 -16 66.5t-46 42t-83 35.5l-85 29q-92 31 -132 73t-40 108q0 59 31.5 104.5t89.5 70t135 24.5q114 0 174.5 -53t62.5 -141l-50 -6q-2 71 -48 112.5t-138 41.5q-90 0 -147.5 -40
t-57.5 -111q0 -50 32 -80.5t112 -58.5l81 -28q63 -22 100 -44t57 -56t20 -86q0 -106 -75 -167t-202 -61q-118 0 -178.5 55zM570 1013l-169 -169h-45l-123 169h57l90 -133l128 133h62z" />
    <glyph glyph-name="scaron" unicode="&#x161;" horiz-adv-x="455" 
d="M65.5 28q-43.5 37 -43.5 108l50 5q0 -56 30 -80.5t94 -24.5q71 0 112.5 28.5t41.5 86.5q0 25 -14 41t-37 26.5t-67 24.5l-36 11q-68 22 -101.5 48t-33.5 75q0 65 51 102t138 37q76 0 122 -34t47 -95l-50 -6q-2 43 -33 66.5t-91 23.5q-62 0 -98 -25t-36 -68
q0 -30 24.5 -46.5t76.5 -33.5l40 -13q51 -16 81 -31t48.5 -39t18.5 -61q0 -80 -56 -121.5t-148 -41.5q-87 0 -130.5 37zM452 760l-169 -169h-45l-123 169h57l90 -133l128 133h62z" />
    <glyph glyph-name="uni0162" unicode="&#x162;" horiz-adv-x="580" 
d="M617 715h-236l-101 -715h-51l101 715h-238l7 45h525zM327.5 -61.5q20.5 -17.5 20.5 -49.5q0 -44 -30 -67.5t-76 -23.5q-20 0 -39.5 4.5t-30.5 11.5l15 29q22 -12 49 -12q30 0 47 15t17 40q0 18 -11 28t-31 10q-24 0 -44 -13l-17 12l37 89h38l-22 -58q14 2 23 2
q34 0 54.5 -17.5z" />
    <glyph glyph-name="uni0163" unicode="&#x163;" horiz-adv-x="324" 
d="M121 147q-3 -19 -3 -37q0 -40 18 -57.5t55 -17.5t71 9l-4 -42q-35 -11 -77 -11q-53 0 -83 28t-30 85q0 20 3 42l44 317h-70l9 44h67l19 133h50l-19 -133h143l-6 -44h-143zM207.5 -61.5q20.5 -17.5 20.5 -49.5q0 -44 -30 -67.5t-76 -23.5q-20 0 -39.5 4.5t-30.5 11.5
l15 29q22 -12 49 -12q30 0 47 15t17 40q0 18 -11 28t-31 10q-24 0 -44 -13l-17 12l37 89h38l-22 -58q14 2 23 2q34 0 54.5 -17.5z" />
    <glyph glyph-name="Tcaron" unicode="&#x164;" horiz-adv-x="580" 
d="M617 715h-236l-101 -715h-51l101 715h-238l7 45h525zM563 1013l-169 -169h-45l-123 169h57l90 -133l128 133h62z" />
    <glyph glyph-name="tcaron" unicode="&#x165;" horiz-adv-x="360" 
d="M297 591h-40l110 169h65zM171 507h143l-6 -44h-143l-44 -316q-3 -19 -3 -37q0 -40 18 -57.5t55 -17.5t71 9l-4 -42q-35 -11 -77 -11q-53 0 -83 28t-30 85q0 20 3 42l44 317h-70l9 44h67l19 133h50z" />
    <glyph glyph-name="Tbar" unicode="&#x166;" horiz-adv-x="580" 
d="M381 715l-41 -288h192l-7 -45h-191l-54 -382h-51l54 382h-188l7 45h187l41 288h-238l7 45h525l-7 -45h-236z" />
    <glyph glyph-name="tbar" unicode="&#x167;" horiz-adv-x="324" 
d="M165 463l-23 -163h143l-6 -42h-142l-16 -111q-3 -19 -3 -37q0 -40 18 -57.5t55 -17.5t71 9l-4 -42q-35 -11 -77 -11q-53 0 -83 28t-30 85q0 20 3 42l16 112h-64l6 42h64l22 163h-70l9 44h67l19 133h50l-19 -133h143l-6 -44h-143z" />
    <glyph glyph-name="Utilde" unicode="&#x168;" horiz-adv-x="657" 
d="M127.5 47q-60.5 56 -60.5 160q0 25 5 62l70 491h50l-70 -496q-5 -32 -5 -56q0 -83 47.5 -127t134.5 -44q101 0 161.5 57t76.5 166l71 500h50l-70 -496q-19 -136 -91 -204.5t-201 -68.5q-108 0 -168.5 56zM440 896.5q-18 9.5 -37 25.5q-17 15 -29.5 22t-26.5 7
q-18 0 -37 -12t-34 -35l-34 17q44 68 111 68q23 0 42 -9.5t39 -25.5q16 -14 29 -21.5t27 -7.5q19 0 38.5 12.5t35.5 35.5l34 -15q-25 -34 -55 -52.5t-62 -18.5q-23 0 -41 9.5z" />
    <glyph glyph-name="utilde" unicode="&#x169;" 
d="M515 507l-71 -507h-45l12 112q-33 -60 -84.5 -90.5t-113.5 -30.5q-73 0 -117.5 42.5t-44.5 115.5q0 20 3 41l44 317h50l-43 -313q-3 -21 -3 -39q0 -61 34 -91t95 -30q81 0 132.5 59t64.5 149l37 265h50zM354 643.5q-18 9.5 -37 25.5q-17 15 -29.5 22t-26.5 7
q-18 0 -37 -12t-34 -35l-34 17q44 68 111 68q23 0 42 -9.5t39 -25.5q16 -14 29 -21.5t27 -7.5q19 0 38.5 12.5t35.5 35.5l34 -15q-25 -34 -55 -52.5t-62 -18.5q-23 0 -41 9.5z" />
    <glyph glyph-name="Umacron" unicode="&#x16a;" horiz-adv-x="657" 
d="M127.5 47q-60.5 56 -60.5 160q0 25 5 62l70 491h50l-70 -496q-5 -32 -5 -56q0 -83 47.5 -127t134.5 -44q101 0 161.5 57t76.5 166l71 500h50l-70 -496q-19 -136 -91 -204.5t-201 -68.5q-108 0 -168.5 56zM286 949h272l-5 -39h-272z" />
    <glyph glyph-name="umacron" unicode="&#x16b;" 
d="M515 507l-71 -507h-45l12 112q-33 -60 -84.5 -90.5t-113.5 -30.5q-73 0 -117.5 42.5t-44.5 115.5q0 20 3 41l44 317h50l-43 -313q-3 -21 -3 -39q0 -61 34 -91t95 -30q81 0 132.5 59t64.5 149l37 265h50zM200 696h272l-5 -39h-272z" />
    <glyph glyph-name="Ubreve" unicode="&#x16c;" horiz-adv-x="657" 
d="M127.5 47q-60.5 56 -60.5 160q0 25 5 62l70 491h50l-70 -496q-5 -32 -5 -56q0 -83 47.5 -127t134.5 -44q101 0 161.5 57t76.5 166l71 500h50l-70 -496q-19 -136 -91 -204.5t-201 -68.5q-108 0 -168.5 56zM304.5 894.5q-35.5 41.5 -35.5 118.5h39q0 -58 27.5 -89t77.5 -31
q49 0 84.5 31t50.5 89h40q-17 -77 -63.5 -118.5t-115.5 -41.5t-104.5 41.5z" />
    <glyph glyph-name="ubreve" unicode="&#x16d;" 
d="M515 507l-71 -507h-45l12 112q-33 -60 -84.5 -90.5t-113.5 -30.5q-73 0 -117.5 42.5t-44.5 115.5q0 20 3 41l44 317h50l-43 -313q-3 -21 -3 -39q0 -61 34 -91t95 -30q81 0 132.5 59t64.5 149l37 265h50zM218.5 641.5q-35.5 41.5 -35.5 118.5h39q0 -58 27.5 -89t77.5 -31
q49 0 84.5 31t50.5 89h40q-17 -77 -63.5 -118.5t-115.5 -41.5t-104.5 41.5z" />
    <glyph glyph-name="Uring" unicode="&#x16e;" horiz-adv-x="657" 
d="M127.5 47q-60.5 56 -60.5 160q0 25 5 62l70 491h50l-70 -496q-5 -32 -5 -56q0 -83 47.5 -127t134.5 -44q101 0 161.5 57t76.5 166l71 500h50l-70 -496q-19 -136 -91 -204.5t-201 -68.5q-108 0 -168.5 56zM338.5 865.5q-30.5 30.5 -30.5 74.5t30.5 74t74.5 30
q43 0 73.5 -30t30.5 -74t-30.5 -74.5t-73.5 -30.5q-44 0 -74.5 30.5zM464.5 887q20.5 21 20.5 53q0 31 -20.5 52.5t-51.5 21.5t-52 -21.5t-21 -52.5q0 -32 21 -53t52 -21t51.5 21z" />
    <glyph glyph-name="uring" unicode="&#x16f;" 
d="M515 507l-71 -507h-45l12 112q-33 -60 -84.5 -90.5t-113.5 -30.5q-73 0 -117.5 42.5t-44.5 115.5q0 20 3 41l44 317h50l-43 -313q-3 -21 -3 -39q0 -61 34 -91t95 -30q81 0 132.5 59t64.5 149l37 265h50zM252.5 612.5q-30.5 30.5 -30.5 74.5t30.5 74t74.5 30
q43 0 73.5 -30t30.5 -74t-30.5 -74.5t-73.5 -30.5q-44 0 -74.5 30.5zM378.5 634q20.5 21 20.5 53q0 31 -20.5 52.5t-51.5 21.5t-52 -21.5t-21 -52.5q0 -32 21 -53t52 -21t51.5 21z" />
    <glyph glyph-name="Uhungarumlaut" unicode="&#x170;" horiz-adv-x="657" 
d="M127.5 47q-60.5 56 -60.5 160q0 25 5 62l70 491h50l-70 -496q-5 -32 -5 -56q0 -83 47.5 -127t134.5 -44q101 0 161.5 57t76.5 166l71 500h50l-70 -496q-19 -136 -91 -204.5t-201 -68.5q-108 0 -168.5 56zM306 844h-39l109 169h65zM495 844h-39l109 169h65z" />
    <glyph glyph-name="uhungarumlaut" unicode="&#x171;" 
d="M515 507l-71 -507h-45l12 112q-33 -60 -84.5 -90.5t-113.5 -30.5q-73 0 -117.5 42.5t-44.5 115.5q0 20 3 41l44 317h50l-43 -313q-3 -21 -3 -39q0 -61 34 -91t95 -30q81 0 132.5 59t64.5 149l37 265h50zM220 591h-39l109 169h65zM409 591h-39l109 169h65z" />
    <glyph glyph-name="Uogonek" unicode="&#x172;" horiz-adv-x="657" 
d="M127.5 47q-60.5 56 -60.5 160q0 25 5 62l70 491h50l-70 -496q-5 -32 -5 -56q0 -83 47.5 -127t134.5 -44q101 0 161.5 57t76.5 166l71 500h50l-70 -496q-19 -136 -91 -204.5t-201 -68.5q-108 0 -168.5 56zM315 -36q-28 -26 -28 -66q0 -29 19 -44.5t55 -15.5q24 0 51 9
l-3 -36q-30 -13 -63 -13q-48 0 -76.5 23t-28.5 64q0 54 39.5 89t101.5 50l3 -22q-42 -12 -70 -38z" />
    <glyph glyph-name="uogonek" unicode="&#x173;" 
d="M515 507l-71 -507h-45l12 112q-33 -60 -84.5 -90.5t-113.5 -30.5q-73 0 -117.5 42.5t-44.5 115.5q0 20 3 41l44 317h50l-43 -313q-3 -21 -3 -39q0 -61 34 -91t95 -30q81 0 132.5 59t64.5 149l37 265h50zM368 -36q-28 -26 -28 -66q0 -29 19 -44.5t55 -15.5q24 0 51 9
l-3 -36q-30 -13 -63 -13q-48 0 -76.5 23t-28.5 64q0 54 39.5 89t101.5 50l3 -22q-42 -12 -70 -38z" />
    <glyph glyph-name="Wcircumflex" unicode="&#x174;" horiz-adv-x="942" 
d="M998 760l-315 -760h-58l-95 684l-283 -684h-57l-103 760h50l89 -700l290 700h49l96 -702l283 702h54zM658 844l-90 133l-128 -133h-62l169 169h45l123 -169h-57z" />
    <glyph glyph-name="wcircumflex" unicode="&#x175;" horiz-adv-x="772" 
d="M795 507l-240 -507h-56l-86 444l-210 -444h-57l-98 507h50l83 -455l216 455h48l89 -454l208 454h53zM537 591l-90 133l-128 -133h-62l169 169h45l123 -169h-57z" />
    <glyph glyph-name="Ycircumflex" unicode="&#x176;" horiz-adv-x="539" 
d="M608 760l-499 -760h-54l214 326l-185 434h53l162 -389l255 389h54zM453 844l-90 133l-128 -133h-62l169 169h45l123 -169h-57z" />
    <glyph glyph-name="ycircumflex" unicode="&#x177;" 
d="M515 507l-65 -462q-16 -122 -78 -184.5t-165 -62.5q-78 0 -122.5 31t-55.5 82l49 10q8 -38 40.5 -59.5t91.5 -21.5q162 0 190 204l9 64q-33 -58 -84 -87.5t-112 -29.5q-73 0 -117.5 42.5t-44.5 115.5q0 20 3 41l44 317h50l-43 -313q-3 -21 -3 -39q0 -61 34 -91t95 -30
q78 0 129 55.5t66 140.5l39 277h50zM426 591l-90 133l-128 -133h-62l169 169h45l123 -169h-57z" />
    <glyph glyph-name="Ydieresis" unicode="&#x178;" horiz-adv-x="539" 
d="M608 760l-499 -760h-54l214 326l-185 434h53l162 -389l255 389h54zM250.5 883.5q-12.5 12.5 -12.5 29.5q0 18 12.5 30t30.5 12q17 0 29.5 -12t12.5 -30q0 -17 -12.5 -29.5t-29.5 -12.5q-18 0 -30.5 12.5zM410 883.5q-12 12.5 -12 29.5q0 18 12 30t30 12q17 0 29 -12
t12 -30q0 -17 -12 -29.5t-29 -12.5q-18 0 -30 12.5z" />
    <glyph glyph-name="Zacute" unicode="&#x179;" horiz-adv-x="576" 
d="M88 44h418l-6 -44h-500l519 716h-393l7 44h474zM389 844h-39l109 169h65z" />
    <glyph glyph-name="zacute" unicode="&#x17a;" horiz-adv-x="454" 
d="M88 44h301l-7 -44h-387l366 463h-282l10 44h365zM294 591h-39l109 169h65z" />
    <glyph glyph-name="Zdotaccent" unicode="&#x17b;" horiz-adv-x="576" 
d="M88 44h418l-6 -44h-500l519 716h-393l7 44h474zM351.5 880q-13.5 13 -13.5 32t13.5 32.5t32.5 13.5t32 -13.5t13 -32.5t-13 -32t-32 -13t-32.5 13z" />
    <glyph glyph-name="zdotaccent" unicode="&#x17c;" horiz-adv-x="454" 
d="M88 44h301l-7 -44h-387l366 463h-282l10 44h365zM256.5 627q-13.5 13 -13.5 32t13.5 32.5t32.5 13.5t32 -13.5t13 -32.5t-13 -32t-32 -13t-32.5 13z" />
    <glyph glyph-name="Zcaron" unicode="&#x17d;" horiz-adv-x="576" 
d="M88 44h418l-6 -44h-500l519 716h-393l7 44h474zM562 1013l-169 -169h-45l-123 169h57l90 -133l128 133h62z" />
    <glyph glyph-name="zcaron" unicode="&#x17e;" horiz-adv-x="454" 
d="M88 44h301l-7 -44h-387l366 463h-282l10 44h365zM467 760l-169 -169h-45l-123 169h57l90 -133l128 133h62z" />
    <glyph glyph-name="longs" unicode="&#x17f;" horiz-adv-x="247" 
d="M387 747l-11 -42q-38 19 -81 19q-46 0 -73 -27.5t-36 -93.5l-85 -603h-50l65 463h-71l12 44h65l14 101q12 86 53.5 123.5t107.5 37.5q51 0 90 -22z" />
    <glyph glyph-name="uni018F" unicode="&#x18f;" horiz-adv-x="840" 
d="M659.5 727q72.5 -42 112 -117.5t39.5 -173.5q0 -120 -58 -222.5t-156.5 -162.5t-214.5 -60q-96 0 -167.5 42t-110.5 118t-39 174q0 33 5 70h687q2 24 2 36q0 87 -33.5 153t-94 102.5t-140.5 36.5q-100 0 -184 -51t-135 -138l-50 8q57 103 155.5 165t215.5 62
q94 0 166.5 -42zM552 79q77 42 129 113.5t70 157.5h-634q-1 -7 -1 -20q0 -87 33 -153.5t93.5 -103t142.5 -36.5q90 0 167 42z" />
    <glyph glyph-name="florin" unicode="&#x192;" horiz-adv-x="516" 
d="M412 685.5q-30 -28.5 -47 -97.5l-37 -151h101l-7 -44h-105l-103 -417q-22 -89 -68 -129t-122 -40h-7l10 45q58 0 88.5 29t47.5 97l103 415h-78l7 44h82l39 156q22 88 66.5 127.5t118.5 39.5h7l-11 -46q-55 0 -85 -28.5z" />
    <glyph glyph-name="uni019D" unicode="&#x19d;" horiz-adv-x="656" 
d="M652 760l-107 -760h-50l-308 680l-92 -653q-16 -114 -79 -171.5t-163 -57.5q-23 0 -34 2l10 45q20 -2 30 -2q75 0 124 45t62 138l103 734h50l308 -680l96 680h50z" />
    <glyph glyph-name="uni01CD" unicode="&#x1cd;" horiz-adv-x="581" 
d="M461 150h-368l-70 -150h-53l363 760h58l149 -760h-51zM452 195l-97 516l-241 -516h338zM561 1013l-169 -169h-45l-123 169h57l90 -133l128 133h62z" />
    <glyph glyph-name="uni01CE" unicode="&#x1ce;" horiz-adv-x="609" 
d="M577 507l-71 -507h-45l14 120q-34 -60 -92.5 -94.5t-128.5 -34.5q-60 0 -108 28t-75 79t-27 118q0 85 38 153.5t102.5 107.5t141.5 39q69 0 117.5 -33t67.5 -93l16 117h50zM381.5 71q53.5 35 84 94t30.5 127q0 83 -45.5 131t-123.5 48q-64 0 -117.5 -32.5t-84.5 -90
t-31 -128.5q0 -86 46 -135t123 -49q65 0 118.5 35zM530 760l-169 -169h-45l-123 169h57l90 -133l128 133h62z" />
    <glyph glyph-name="Gcaron" unicode="&#x1e6;" horiz-adv-x="800" 
d="M400 386h347l-43 -304q-60 -40 -135 -65.5t-163 -25.5q-106 0 -182.5 40t-117.5 116t-41 180q0 117 55.5 219t152 162.5t214.5 60.5q119 0 193 -59.5t98 -146.5l-51 -6q-20 68 -82.5 117t-161.5 49q-104 0 -188 -55.5t-131.5 -147t-47.5 -193.5q0 -139 77.5 -214.5
t217.5 -75.5q133 0 246 68l33 236h-296zM688 1013l-169 -169h-45l-123 169h57l90 -133l128 133h62z" />
    <glyph glyph-name="gcaron" unicode="&#x1e7;" horiz-adv-x="610" 
d="M577 507l-63 -447q-18 -134 -86 -198t-183 -64q-84 0 -135 33.5t-65 82.5l50 9q13 -36 51 -59.5t101 -23.5q187 0 217 214l8 61q-35 -58 -92 -91t-125 -33q-61 0 -109 28t-75 78.5t-27 116.5q0 86 37.5 155t102.5 108t143 39q68 0 117 -34t68 -95l20 120h45zM381.5 70.5
q53.5 34.5 84 94t30.5 129.5q0 81 -46 129t-122 48q-65 0 -118.5 -33t-84.5 -90.5t-31 -128.5q0 -85 46 -134t124 -49q64 0 117.5 34.5zM528 760l-169 -169h-45l-123 169h57l90 -133l128 133h62z" />
    <glyph glyph-name="Aringacute" unicode="&#x1fa;" horiz-adv-x="581" 
d="M461 150h-368l-70 -150h-53l363 760h58l149 -760h-51zM452 195l-97 516l-241 -516h338zM305.5 865.5q-30.5 30.5 -30.5 74.5t30.5 74t74.5 30q43 0 73.5 -30t30.5 -74t-30.5 -74.5t-73.5 -30.5q-44 0 -74.5 30.5zM431.5 887q20.5 21 20.5 53q0 31 -20.5 52.5t-51.5 21.5
t-52 -21.5t-21 -52.5q0 -32 21 -53t52 -21t51.5 21zM409 1092h-39l109 169h65z" />
    <glyph glyph-name="aringacute" unicode="&#x1fb;" horiz-adv-x="609" 
d="M577 507l-71 -507h-45l14 120q-34 -60 -92.5 -94.5t-128.5 -34.5q-60 0 -108 28t-75 79t-27 118q0 85 38 153.5t102.5 107.5t141.5 39q69 0 117.5 -33t67.5 -93l16 117h50zM381.5 71q53.5 35 84 94t30.5 127q0 83 -45.5 131t-123.5 48q-64 0 -117.5 -32.5t-84.5 -90
t-31 -128.5q0 -86 46 -135t123 -49q65 0 118.5 35zM274.5 612.5q-30.5 30.5 -30.5 74.5t30.5 74t74.5 30q43 0 73.5 -30t30.5 -74t-30.5 -74.5t-73.5 -30.5q-44 0 -74.5 30.5zM400.5 634q20.5 21 20.5 53q0 31 -20.5 52.5t-51.5 21.5t-52 -21.5t-21 -52.5q0 -32 21 -53
t52 -21t51.5 21zM378 839h-39l109 169h65z" />
    <glyph glyph-name="AEacute" unicode="&#x1fc;" horiz-adv-x="887" 
d="M550 716l-42 -296h335l-6 -44h-335l-47 -332h345l-7 -44h-394l28 196h-280l-134 -196h-53l519 760h416l-7 -44h-338zM433 240l66 474l-322 -474h256zM702 844h-39l109 169h65z" />
    <glyph glyph-name="aeacute" unicode="&#x1fd;" horiz-adv-x="941" 
d="M480 230q-1 -6 -1 -20q0 -82 44.5 -128t119.5 -46q120 0 183 116l49 -6q-38 -75 -98 -115t-140 -40q-74 0 -126 37t-72 102q-32 -66 -97.5 -102.5t-145.5 -36.5q-75 0 -121 34t-46 98q0 88 62 127t166 39h181q5 43 5 56q0 62 -38.5 94t-102.5 32q-102 0 -168 -85l-49 10
q39 57 93.5 88.5t133.5 31.5q67 0 114.5 -29.5t61.5 -88.5q37 55 92.5 86.5t122.5 31.5q89 0 141.5 -56t52.5 -147q0 -33 -5 -66h-410q-2 -10 -2 -17zM564 420q-55 -51 -75 -131h357q1 7 1 21q0 78 -42 119.5t-109 41.5q-77 0 -132 -51zM305 54q49 22 82 63t40 96l4 25
q0 6 1 9h-181q-89 0 -130.5 -30t-41.5 -88q0 -47 33.5 -72t91.5 -25q52 0 101 22zM534 591h-39l109 169h65z" />
    <glyph glyph-name="Oslashacute" unicode="&#x1fe;" horiz-adv-x="840" 
d="M786 576.5q25 -64.5 25 -144.5q0 -118 -57.5 -219.5t-156 -161.5t-214.5 -60q-111 0 -193 58l-49 -59h-54l71 86q-45 45 -69 109t-24 142q0 119 57.5 220.5t155.5 161.5t214 60q112 0 191 -57l48 58h53l-69 -84q46 -45 71 -109.5zM135 208q19 -54 55 -93l462 559
q-67 49 -163 49q-102 0 -187.5 -54.5t-135.5 -146t-50 -195.5q0 -65 19 -119zM573.5 91.5q85.5 54.5 135.5 145.5t50 195q0 67 -19.5 121.5t-56.5 93.5l-462 -559q68 -51 164 -51q103 0 188.5 54.5zM517 844h-39l109 169h65z" />
    <glyph glyph-name="oslashacute" unicode="&#x1ff;" horiz-adv-x="591" 
d="M547 293q0 -86 -37.5 -155t-103 -108t-146.5 -39q-71 0 -126 36l-30 -37h-51l51 62q-29 30 -44.5 71.5t-15.5 91.5q0 85 37.5 154t103 108t146.5 39q74 0 126 -35l30 36h52l-51 -62q59 -62 59 -162zM135 89l292 355q-41 27 -98 27q-66 0 -119.5 -33t-84.5 -90.5
t-31 -129.5q0 -80 41 -129zM381 69q54 33 85 91t31 130q0 79 -40 127l-293 -354q40 -27 98 -27q65 0 119 33zM357 591h-39l109 169h65z" />
    <glyph glyph-name="Scommaaccent" unicode="&#x218;" horiz-adv-x="619" 
d="M103.5 46q-60.5 55 -60.5 157l50 5q0 -171 191 -171q105 0 164 47.5t59 131.5q0 41 -16 66.5t-46 42t-83 35.5l-85 29q-92 31 -132 73t-40 108q0 59 31.5 104.5t89.5 70t135 24.5q114 0 174.5 -53t62.5 -141l-50 -6q-2 71 -48 112.5t-138 41.5q-90 0 -147.5 -40
t-57.5 -111q0 -50 32 -80.5t112 -58.5l81 -28q63 -22 100 -44t57 -56t20 -86q0 -106 -75 -167t-202 -61q-118 0 -178.5 55zM225 -210h-40l79 140h65z" />
    <glyph glyph-name="scommaaccent" unicode="&#x219;" horiz-adv-x="455" 
d="M65.5 28q-43.5 37 -43.5 108l50 5q0 -56 30 -80.5t94 -24.5q71 0 112.5 28.5t41.5 86.5q0 25 -14 41t-37 26.5t-67 24.5l-36 11q-68 22 -101.5 48t-33.5 75q0 65 51 102t138 37q76 0 122 -34t47 -95l-50 -6q-2 43 -33 66.5t-91 23.5q-62 0 -98 -25t-36 -68
q0 -30 24.5 -46.5t76.5 -33.5l40 -13q51 -16 81 -31t48.5 -39t18.5 -61q0 -80 -56 -121.5t-148 -41.5q-87 0 -130.5 37zM138 -210h-40l79 140h65z" />
    <glyph glyph-name="uni021A" unicode="&#x21a;" horiz-adv-x="580" 
d="M617 715h-236l-101 -715h-51l101 715h-238l7 45h525zM203 -210h-40l79 140h65z" />
    <glyph glyph-name="uni021B" unicode="&#x21b;" horiz-adv-x="324" 
d="M121 147q-3 -19 -3 -37q0 -40 18 -57.5t55 -17.5t71 9l-4 -42q-35 -11 -77 -11q-53 0 -83 28t-30 85q0 20 3 42l44 317h-70l9 44h67l19 133h50l-19 -133h143l-6 -44h-143zM83 -210h-40l79 140h65z" />
    <glyph glyph-name="uni0232" unicode="&#x232;" horiz-adv-x="539" 
d="M608 760l-499 -760h-54l214 326l-185 434h53l162 -389l255 389h54zM229 949h272l-5 -39h-272z" />
    <glyph glyph-name="uni0233" unicode="&#x233;" 
d="M515 507l-65 -462q-16 -122 -78 -184.5t-165 -62.5q-78 0 -122.5 31t-55.5 82l49 10q8 -38 40.5 -59.5t91.5 -21.5q162 0 190 204l9 64q-33 -58 -84 -87.5t-112 -29.5q-73 0 -117.5 42.5t-44.5 115.5q0 20 3 41l44 317h50l-43 -313q-3 -21 -3 -39q0 -61 34 -91t95 -30
q78 0 129 55.5t66 140.5l39 277h50zM202 696h272l-5 -39h-272z" />
    <glyph glyph-name="uni0237" unicode="&#x237;" horiz-adv-x="200" 
d="M-150 -186l10 44q37 -16 76 -16q46 0 71 28t34 92l76 545h50l-77 -553q-23 -156 -154 -156q-52 0 -86 16z" />
    <glyph glyph-name="uni0259" unicode="&#x259;" horiz-adv-x="573" 
d="M479 269q1 8 1 25q0 83 -46.5 130t-122.5 47q-64 0 -113 -30t-81 -85l-49 6q39 74 102.5 114t144.5 40q63 0 112 -28t76 -78t27 -114q0 -84 -36 -153.5t-100.5 -110.5t-145.5 -41q-95 0 -150.5 57.5t-55.5 152.5q0 15 1.5 33.5t4.5 34.5h431zM392.5 89q60.5 53 79.5 137
h-379q-1 -7 -1 -22q0 -82 43 -125t115 -43q82 0 142.5 53z" />
    <glyph glyph-name="uni0272" unicode="&#x272;" horiz-adv-x="573" 
d="M476.5 473q45.5 -43 45.5 -119q0 -16 -4 -44l-43 -310h-50l43 306q3 21 3 40q0 127 -133 127q-84 0 -138 -58.5t-67 -149.5l-34 -243l-9 -68q-11 -81 -52 -118.5t-103 -37.5q-51 0 -85 16l10 44q37 -16 76 -16q45 0 70 27.5t34 88.5l13 94l64 455h45l-12 -111
q34 60 86.5 90t116.5 30q78 0 123.5 -43z" />
    <glyph glyph-name="circumflex" unicode="&#x2c6;" horiz-adv-x="437" 
d="M378 591l-90 133l-128 -133h-62l169 169h45l123 -169h-57z" />
    <glyph glyph-name="caron" unicode="&#x2c7;" horiz-adv-x="437" 
d="M458 760l-169 -169h-45l-123 169h57l90 -133l128 133h62z" />
    <glyph glyph-name="breve" unicode="&#x2d8;" horiz-adv-x="419" 
d="M157.5 641.5q-35.5 41.5 -35.5 118.5h39q0 -58 27.5 -89t77.5 -31q49 0 84.5 31t50.5 89h40q-17 -77 -63.5 -118.5t-115.5 -41.5t-104.5 41.5z" />
    <glyph glyph-name="dotaccent" unicode="&#x2d9;" horiz-adv-x="192" 
d="M120.5 627q-13.5 13 -13.5 32t13.5 32.5t32.5 13.5t32 -13.5t13 -32.5t-13 -32t-32 -13t-32.5 13z" />
    <glyph glyph-name="ring" unicode="&#x2da;" horiz-adv-x="311" 
d="M142.5 612.5q-30.5 30.5 -30.5 74.5t30.5 74t74.5 30q43 0 73.5 -30t30.5 -74t-30.5 -74.5t-73.5 -30.5q-44 0 -74.5 30.5zM268.5 634q20.5 21 20.5 53q0 31 -20.5 52.5t-51.5 21.5t-52 -21.5t-21 -52.5q0 -32 21 -53t52 -21t51.5 21z" />
    <glyph glyph-name="ogonek" unicode="&#x2db;" horiz-adv-x="279" 
d="M73 -36q-28 -26 -28 -66q0 -29 19 -44.5t55 -15.5q24 0 51 9l-3 -36q-30 -13 -63 -13q-48 0 -76.5 23t-28.5 64q0 54 39.5 89t101.5 50l3 -22q-42 -12 -70 -38z" />
    <glyph glyph-name="tilde" unicode="&#x2dc;" horiz-adv-x="451" 
d="M306 643.5q-18 9.5 -37 25.5q-17 15 -29.5 22t-26.5 7q-18 0 -37 -12t-34 -35l-34 17q44 68 111 68q23 0 42 -9.5t39 -25.5q16 -14 29 -21.5t27 -7.5q19 0 38.5 12.5t35.5 35.5l34 -15q-25 -34 -55 -52.5t-62 -18.5q-23 0 -41 9.5z" />
    <glyph glyph-name="hungarumlaut" unicode="&#x2dd;" horiz-adv-x="439" 
d="M137 591h-39l109 169h65zM326 591h-39l109 169h65z" />
    <glyph glyph-name="gravecomb" unicode="&#x300;" horiz-adv-x="0" 
d="M-112 760l109 -169h-39l-135 169h65z" />
    <glyph glyph-name="acutecomb" unicode="&#x301;" horiz-adv-x="0" 
d="M-114 591h-39l109 169h65z" />
    <glyph glyph-name="uni0302" unicode="&#x302;" horiz-adv-x="0" 
d="M-59 591l-90 133l-128 -133h-62l169 169h45l123 -169h-57z" />
    <glyph glyph-name="tildecomb" unicode="&#x303;" horiz-adv-x="0" 
d="M-145 643.5q-18 9.5 -37 25.5q-17 15 -29.5 22t-26.5 7q-18 0 -37 -12t-34 -35l-34 17q44 68 111 68q23 0 42 -9.5t39 -25.5q16 -14 29 -21.5t27 -7.5q19 0 38.5 12.5t35.5 35.5l34 -15q-25 -34 -55 -52.5t-62 -18.5q-23 0 -41 9.5z" />
    <glyph glyph-name="uni0304" unicode="&#x304;" horiz-adv-x="0" 
d="M-260 696h272l-5 -39h-272z" />
    <glyph glyph-name="uni0306" unicode="&#x306;" horiz-adv-x="0" 
d="M-261.5 641.5q-35.5 41.5 -35.5 118.5h39q0 -58 27.5 -89t77.5 -31q49 0 84.5 31t50.5 89h40q-17 -77 -63.5 -118.5t-115.5 -41.5t-104.5 41.5z" />
    <glyph glyph-name="uni0307" unicode="&#x307;" horiz-adv-x="0" 
d="M-71.5 627q-13.5 13 -13.5 32t13.5 32.5t32.5 13.5t32 -13.5t13 -32.5t-13 -32t-32 -13t-32.5 13z" />
    <glyph glyph-name="uni0308" unicode="&#x308;" horiz-adv-x="0" 
d="M-223.5 630.5q-12.5 12.5 -12.5 29.5q0 18 12.5 30t30.5 12q17 0 29.5 -12t12.5 -30q0 -17 -12.5 -29.5t-29.5 -12.5q-18 0 -30.5 12.5zM-64 630.5q-12 12.5 -12 29.5q0 18 12 30t30 12q17 0 29 -12t12 -30q0 -17 -12 -29.5t-29 -12.5q-18 0 -30 12.5z" />
    <glyph glyph-name="uni030A" unicode="&#x30a;" horiz-adv-x="0" 
d="M-168.5 612.5q-30.5 30.5 -30.5 74.5t30.5 74t74.5 30q43 0 73.5 -30t30.5 -74t-30.5 -74.5t-73.5 -30.5q-44 0 -74.5 30.5zM-42.5 634q20.5 21 20.5 53q0 31 -20.5 52.5t-51.5 21.5t-52 -21.5t-21 -52.5q0 -32 21 -53t52 -21t51.5 21z" />
    <glyph glyph-name="uni030B" unicode="&#x30b;" horiz-adv-x="0" 
d="M-302 591h-39l109 169h65zM-113 591h-39l109 169h65z" />
    <glyph glyph-name="uni030C" unicode="&#x30c;" horiz-adv-x="0" 
d="M21 760l-169 -169h-45l-123 169h57l90 -133l128 133h62z" />
    <glyph glyph-name="uni0326" unicode="&#x326;" horiz-adv-x="0" 
d="M-199 -210h-40l79 140h65z" />
    <glyph glyph-name="uni0327" unicode="&#x327;" horiz-adv-x="0" 
d="M-122.5 -61.5q20.5 -17.5 20.5 -49.5q0 -44 -30 -67.5t-76 -23.5q-20 0 -39.5 4.5t-30.5 11.5l15 29q22 -12 49 -12q30 0 47 15t17 40q0 18 -11 28t-31 10q-24 0 -44 -13l-17 12l37 89h38l-22 -58q14 2 23 2q34 0 54.5 -17.5z" />
    <glyph glyph-name="uni0328" unicode="&#x328;" horiz-adv-x="0" 
d="M-206 -36q-28 -26 -28 -66q0 -29 19 -44.5t55 -15.5q24 0 51 9l-3 -36q-30 -13 -63 -13q-48 0 -76.5 23t-28.5 64q0 54 39.5 89t101.5 50l3 -22q-42 -12 -70 -38z" />
    <glyph glyph-name="tonos" unicode="&#x384;" horiz-adv-x="251" 
d="M98 590l109 170h65l-135 -170h-39z" />
    <glyph glyph-name="dieresistonos" unicode="&#x385;" horiz-adv-x="394" 
d="M292 760h65l-135 -169h-40zM119.5 630.5q-12.5 12.5 -12.5 29.5q0 18 12.5 30t30.5 12q17 0 29.5 -12t12.5 -30q0 -17 -12.5 -29.5t-29.5 -12.5q-18 0 -30.5 12.5zM330 630.5q-12 12.5 -12 29.5q0 18 12 30t30 12q17 0 29 -12t12 -30q0 -17 -12 -29.5t-29 -12.5
q-18 0 -30 12.5z" />
    <glyph glyph-name="Alphatonos" unicode="&#x386;" horiz-adv-x="581" 
d="M461 150h-368l-70 -150h-53l363 760h58l149 -760h-51zM452 195l-97 516l-241 -516h338zM2 590l109 170h65l-135 -170h-39z" />
    <glyph glyph-name="anoteleia" unicode="&#x387;" horiz-adv-x="197" 
d="M83.5 355q-14.5 14 -14.5 34q0 19 14.5 33t34.5 14t33.5 -13.5t13.5 -33.5t-14 -34t-33 -14q-20 0 -34.5 14z" />
    <glyph glyph-name="Epsilontonos" unicode="&#x388;" horiz-adv-x="543" 
d="M191 715l-42 -294h351l-7 -45h-350l-47 -331h360l-7 -45h-409l107 760h404l-7 -45h-353zM-104 590l109 170h65l-135 -170h-39z" />
    <glyph glyph-name="Etatonos" unicode="&#x389;" horiz-adv-x="655" 
d="M651 760l-107 -760h-50l53 376h-404l-53 -376h-50l107 760h50l-48 -339h404l48 339h50zM-103 590l109 170h65l-135 -170h-39z" />
    <glyph glyph-name="Iotatonos" unicode="&#x38a;" horiz-adv-x="201" 
d="M147 760h50l-107 -760h-50zM-102 590l109 170h65l-135 -170h-39z" />
    <glyph glyph-name="Omicrontonos" unicode="&#x38c;" horiz-adv-x="840" 
d="M216 33q-72 42 -111.5 118t-39.5 176q0 119 57.5 220.5t155.5 161.5t214 60q95 0 167 -41.5t112 -118t40 -177.5q0 -118 -57.5 -219.5t-156 -161.5t-214.5 -60q-95 0 -167 42zM573 91.5q86 54.5 136 145.5t50 195q0 87 -33 153t-94 102t-143 36q-102 0 -187.5 -55
t-135.5 -146t-50 -195q0 -87 33 -153t94 -101.5t142 -35.5q102 0 188 54.5zM-45 590l109 170h65l-135 -170h-39z" />
    <glyph glyph-name="Upsilontonos" unicode="&#x38e;" horiz-adv-x="539" 
d="M608 760l-499 -760h-54l214 326l-185 434h53l162 -389l255 389h54zM-134 590l109 170h65l-135 -170h-39z" />
    <glyph glyph-name="Omegatonos" unicode="&#x38f;" horiz-adv-x="849" 
d="M788 278q-31 -78 -87 -138.5t-129 -94.5h191l-6 -45h-283l6 41q87 27 152.5 87.5t100.5 140.5t35 167q0 81 -32.5 146t-95.5 103t-149 38q-102 0 -188 -52.5t-136.5 -143t-50.5 -199.5q0 -101 51.5 -179t146.5 -108l-5 -41h-283l6 45h192q-77 40 -118 112.5t-41 168.5
q0 123 58.5 224.5t157 160t214.5 58.5q97 0 170.5 -42.5t113.5 -117t40 -167.5q0 -86 -31 -164zM-45 590l109 170h65l-135 -170h-39z" />
    <glyph glyph-name="iotadieresistonos" unicode="&#x390;" horiz-adv-x="236" 
d="M75 14q-24 23 -24 70q0 17 3 38l55 385h50l-53 -374q-3 -22 -3 -34q0 -38 16.5 -50t52.5 -12h11l-3 -45l-23 -1q-58 0 -82 23zM196 760h65l-135 -169h-40zM23.5 630.5q-12.5 12.5 -12.5 29.5q0 18 12.5 30t30.5 12q17 0 29.5 -12t12.5 -30q0 -17 -12.5 -29.5t-29.5 -12.5
q-18 0 -30.5 12.5zM234 630.5q-12 12.5 -12 29.5q0 18 12 30t30 12q17 0 29 -12t12 -30q0 -17 -12 -29.5t-29 -12.5q-18 0 -30 12.5z" />
    <glyph glyph-name="Alpha" unicode="&#x391;" horiz-adv-x="581" 
d="M461 150h-368l-70 -150h-53l363 760h58l149 -760h-51zM452 195l-97 516l-241 -516h338z" />
    <glyph glyph-name="Beta" unicode="&#x392;" horiz-adv-x="572" 
d="M504.5 338q29.5 -42 29.5 -98q0 -69 -29.5 -123.5t-88.5 -85.5t-143 -31h-233l107 760h216q99 0 148.5 -44t49.5 -115q0 -69 -36.5 -123t-106.5 -78q57 -20 86.5 -62zM191 715l-42 -294h162q98 0 148 50.5t50 125.5q0 54 -36.5 86t-115.5 32h-166zM433 98.5
q50 53.5 50 139.5q0 62 -43 100t-125 38h-172l-47 -331h184q103 0 153 53.5z" />
    <glyph glyph-name="Gamma" unicode="&#x393;" horiz-adv-x="486" 
d="M92 0h-51l106 760h379l-6 -45h-329z" />
    <glyph glyph-name="uni0394" unicode="&#x394;" horiz-adv-x="605" 
d="M565 0h-595l375 760h58zM503 45l-135 667l-324 -667h459z" />
    <glyph glyph-name="Epsilon" unicode="&#x395;" horiz-adv-x="543" 
d="M191 715l-42 -294h351l-7 -45h-350l-47 -331h360l-7 -45h-409l107 760h404l-7 -45h-353z" />
    <glyph glyph-name="Zeta" unicode="&#x396;" horiz-adv-x="576" 
d="M88 44h418l-6 -44h-500l519 716h-393l7 44h474z" />
    <glyph glyph-name="Eta" unicode="&#x397;" horiz-adv-x="655" 
d="M651 760l-107 -760h-50l53 376h-404l-53 -376h-50l107 760h50l-48 -339h404l48 339h50z" />
    <glyph glyph-name="Theta" unicode="&#x398;" horiz-adv-x="840" 
d="M216 33q-72 42 -111.5 118t-39.5 176q0 119 57.5 220.5t155.5 161.5t214 60q95 0 167 -41.5t112 -118t40 -177.5q0 -118 -57.5 -219.5t-156 -161.5t-214.5 -60q-95 0 -167 42zM573 91.5q86 54.5 136 145.5t50 195q0 87 -33 153t-94 102t-143 36q-102 0 -187.5 -55
t-135.5 -146t-50 -195q0 -87 33 -153t94 -101.5t142 -35.5q102 0 188 54.5zM274 421h341l-6 -45h-341z" />
    <glyph glyph-name="Iota" unicode="&#x399;" horiz-adv-x="201" 
d="M147 760h50l-107 -760h-50z" />
    <glyph glyph-name="Kappa" unicode="&#x39a;" horiz-adv-x="574" 
d="M334 434l189 -434h-53l-171 393l-183 -207l-26 -186h-50l107 760h50l-70 -498l437 498h57z" />
    <glyph glyph-name="Lambda" unicode="&#x39b;" horiz-adv-x="605" 
d="M512 0l-144 712l-346 -712h-52l375 760h58l162 -760h-53z" />
    <glyph glyph-name="Mu" unicode="&#x39c;" horiz-adv-x="831" 
d="M771 760l-23 -760h-49l23 684l-319 -684h-43l-128 687l-169 -687h-51l191 760h58l129 -693l322 693h59z" />
    <glyph glyph-name="Nu" unicode="&#x39d;" horiz-adv-x="655" 
d="M651 760l-107 -760h-50l-308 680l-96 -680h-50l107 760h50v-2l308 -678l96 680h50z" />
    <glyph glyph-name="Xi" unicode="&#x39e;" horiz-adv-x="637" 
d="M136 760h506l-6 -45h-506zM115 421h453l-6 -45h-453zM21 45h536l-6 -45h-536z" />
    <glyph glyph-name="Omicron" unicode="&#x39f;" horiz-adv-x="840" 
d="M216 33q-72 42 -111.5 118t-39.5 176q0 119 57.5 220.5t155.5 161.5t214 60q95 0 167 -41.5t112 -118t40 -177.5q0 -118 -57.5 -219.5t-156 -161.5t-214.5 -60q-95 0 -167 42zM573 91.5q86 54.5 136 145.5t50 195q0 87 -33 153t-94 102t-143 36q-102 0 -187.5 -55
t-135.5 -146t-50 -195q0 -87 33 -153t94 -101.5t142 -35.5q102 0 188 54.5z" />
    <glyph glyph-name="Pi" unicode="&#x3a0;" horiz-adv-x="671" 
d="M560 0h-51l101 715h-419l-100 -715h-50l106 760h519z" />
    <glyph glyph-name="Rho" unicode="&#x3a1;" horiz-adv-x="615" 
d="M551.5 703.5q58.5 -56.5 58.5 -159.5q0 -83 -35 -148.5t-101 -103t-154 -37.5h-194l-36 -255h-50l107 760h227q119 0 177.5 -56.5zM449.5 332q53.5 32 81.5 86.5t28 122.5q0 86 -45 130t-149 44h-174l-59 -415h191q73 0 126.5 32z" />
    <glyph glyph-name="Sigma" unicode="&#x3a3;" horiz-adv-x="577" 
d="M281 405l-182 355h496l-6 -45h-413l161 -313l-256 -357h443l-6 -45h-528z" />
    <glyph glyph-name="Tau" unicode="&#x3a4;" horiz-adv-x="580" 
d="M617 715h-236l-101 -715h-51l101 715h-238l7 45h525z" />
    <glyph glyph-name="Upsilon" unicode="&#x3a5;" horiz-adv-x="539" 
d="M608 760l-499 -760h-54l214 326l-185 434h53l162 -389l255 389h54z" />
    <glyph glyph-name="Phi" unicode="&#x3a6;" horiz-adv-x="861" 
d="M786.5 267.5q-52.5 -76.5 -144.5 -122t-207 -50.5l-13 -95h-51l13 95q-94 4 -166.5 39t-113 94.5t-40.5 135.5q0 96 53 173t145.5 123t207.5 50l7 50h51l-7 -51q93 -4 165 -39t112.5 -94.5t40.5 -134.5q0 -97 -52.5 -173.5zM464 665q-99 -4 -179 -44t-125.5 -106
t-45.5 -147q0 -65 33.5 -115t96 -79.5t147.5 -32.5zM620 186q79 40 123.5 105.5t44.5 145.5q0 64 -33.5 114t-95 79.5t-144.5 33.5l-73 -523q99 5 178 45z" />
    <glyph glyph-name="Chi" unicode="&#x3a7;" horiz-adv-x="546" 
d="M319 386l186 -386h-52l-165 343l-262 -343h-56l295 387l-179 373h53l158 -329l250 329h56z" />
    <glyph glyph-name="Psi" unicode="&#x3a8;" horiz-adv-x="740" 
d="M752 760l-34 -242q-39 -271 -325 -279l-33 -239h-51l34 240q-120 4 -184 64t-64 164q0 29 4 54l34 238h51l-34 -238q-4 -34 -4 -52q0 -84 49.5 -132t153.5 -52l66 474h51l-66 -474q122 3 186.5 64t80.5 173l34 237h51z" />
    <glyph glyph-name="uni03A9" unicode="&#x3a9;" horiz-adv-x="849" 
d="M788 278q-31 -78 -87 -138.5t-129 -94.5h191l-6 -45h-283l6 41q87 27 152.5 87.5t100.5 140.5t35 167q0 81 -32.5 146t-95.5 103t-149 38q-102 0 -188 -52.5t-136.5 -143t-50.5 -199.5q0 -101 51.5 -179t146.5 -108l-5 -41h-283l6 45h192q-77 40 -118 112.5t-41 168.5
q0 123 58.5 224.5t157 160t214.5 58.5q97 0 170.5 -42.5t113.5 -117t40 -167.5q0 -86 -31 -164z" />
    <glyph glyph-name="Iotadieresis" unicode="&#x3aa;" horiz-adv-x="201" 
d="M147 760h50l-107 -760h-50zM84.5 883.5q-12.5 12.5 -12.5 29.5q0 18 12.5 30t30.5 12q17 0 29.5 -12t12.5 -30q0 -17 -12.5 -29.5t-29.5 -12.5q-18 0 -30.5 12.5zM244 883.5q-12 12.5 -12 29.5q0 18 12 30t30 12q17 0 29 -12t12 -30q0 -17 -12 -29.5t-29 -12.5
q-18 0 -30 12.5z" />
    <glyph glyph-name="Upsilondieresis" unicode="&#x3ab;" horiz-adv-x="539" 
d="M608 760l-499 -760h-54l214 326l-185 434h53l162 -389l255 389h54zM253.5 883.5q-12.5 12.5 -12.5 29.5q0 18 12.5 30t30.5 12q17 0 29.5 -12t12.5 -30q0 -17 -12.5 -29.5t-29.5 -12.5q-18 0 -30.5 12.5zM413 883.5q-12 12.5 -12 29.5q0 18 12 30t30 12q17 0 29 -12
t12 -30q0 -17 -12 -29.5t-29 -12.5q-18 0 -30 12.5z" />
    <glyph glyph-name="alphatonos" unicode="&#x3ac;" horiz-adv-x="651" 
d="M143.5 19q-47.5 28 -73.5 78.5t-26 117.5q0 87 38.5 155.5t102 107t135.5 38.5q73 0 123 -34t67 -96l17 121h49l-52 -367q-3 -22 -3 -39q0 -40 16.5 -52t48.5 -12h11l-3 -44q-16 -2 -26 -2q-96 0 -99 89q0 19 5 42q-36 -62 -93 -96.5t-128 -34.5q-62 0 -109.5 28zM382 71
q53 35 83.5 94t30.5 127q0 82 -46 130.5t-124 48.5q-66 0 -119.5 -34t-83.5 -92.5t-30 -127.5q0 -83 46.5 -132t125.5 -49q64 0 117 35zM303 590l109 170h65l-135 -170h-39z" />
    <glyph glyph-name="epsilontonos" unicode="&#x3ad;" horiz-adv-x="470" 
d="M71.5 28.5q-45.5 37.5 -45.5 93.5q0 45 29.5 89t94.5 58v3q-41 9 -60 34t-19 57q0 42 27 77t74.5 55.5t107.5 20.5q70 0 113.5 -28t54.5 -82l-48 -12q-9 37 -39.5 57t-84.5 20q-51 0 -86 -16.5t-52 -41t-17 -49.5q0 -37 30.5 -54t66.5 -17h79l-6 -42h-63
q-71 0 -111.5 -33.5t-40.5 -84.5q0 -42 33.5 -70t105.5 -28q65 0 109 28t62 77l49 -7q-22 -68 -81.5 -105t-145.5 -37q-91 0 -136.5 37.5zM241 590l109 170h65l-135 -170h-39z" />
    <glyph glyph-name="etatonos" unicode="&#x3ae;" horiz-adv-x="560" 
d="M462.5 473q45.5 -43 45.5 -119q0 -23 -3 -44l-71 -503h-50l70 499q3 21 3 40q0 63 -33 95t-99 32q-84 0 -138 -58.5t-67 -149.5l-37 -265h-51l71 507h45l-11 -112q33 60 85.5 90.5t116.5 30.5q78 0 123.5 -43zM291 590l109 170h65l-135 -170h-39z" />
    <glyph glyph-name="iotatonos" unicode="&#x3af;" horiz-adv-x="236" 
d="M75 14q-24 23 -24 70q0 17 3 38l55 385h50l-53 -374q-3 -22 -3 -34q0 -38 16.5 -50t52.5 -12h11l-3 -45l-23 -1q-58 0 -82 23zM106 590l109 170h65l-135 -170h-39z" />
    <glyph glyph-name="upsilondieresistonos" unicode="&#x3b0;" horiz-adv-x="543" 
d="M102.5 34.5q-49.5 43.5 -49.5 128.5q0 21 3 46l43 298h50l-43 -302q-3 -19 -3 -38q0 -62 35 -96.5t102 -34.5q79 0 125 43.5t58 127.5l43 300h50l-42 -301q-16 -111 -80.5 -163t-158.5 -52q-83 0 -132.5 43.5zM368 760h65l-135 -169h-40zM195.5 630.5
q-12.5 12.5 -12.5 29.5q0 18 12.5 30t30.5 12q17 0 29.5 -12t12.5 -30q0 -17 -12.5 -29.5t-29.5 -12.5q-18 0 -30.5 12.5zM406 630.5q-12 12.5 -12 29.5q0 18 12 30t30 12q17 0 29 -12t12 -30q0 -17 -12 -29.5t-29 -12.5q-18 0 -30 12.5z" />
    <glyph glyph-name="alpha" unicode="&#x3b1;" horiz-adv-x="651" 
d="M143.5 19q-47.5 28 -73.5 78.5t-26 117.5q0 87 38.5 155.5t102 107t135.5 38.5q73 0 123 -34t67 -96l17 121h49l-52 -367q-3 -22 -3 -39q0 -40 16.5 -52t48.5 -12h11l-3 -44q-16 -2 -26 -2q-96 0 -99 89q0 19 5 42q-36 -62 -93 -96.5t-128 -34.5q-62 0 -109.5 28zM382 71
q53 35 83.5 94t30.5 127q0 82 -46 130.5t-124 48.5q-66 0 -119.5 -34t-83.5 -92.5t-30 -127.5q0 -83 46.5 -132t125.5 -49q64 0 117 35z" />
    <glyph glyph-name="beta" unicode="&#x3b2;" horiz-adv-x="579" 
d="M495.5 386q39.5 -48 39.5 -122q0 -68 -32.5 -131t-93.5 -102.5t-142 -39.5q-62 0 -106.5 28t-63.5 83l-41 -295h-51l104 736q15 106 79 165.5t162 59.5q81 0 129 -41t48 -109q0 -64 -39 -113.5t-100 -59.5q68 -11 107.5 -59zM382.5 69q49.5 33 76 85.5t26.5 110.5
q0 80 -51 118t-125 38h-20l6 42h21q64 0 99.5 27t48.5 61.5t13 62.5q0 51 -37.5 80.5t-93.5 29.5q-92 0 -136 -57t-54 -130l-42 -295q-3 -21 -3 -41q0 -69 40.5 -117t116.5 -48q65 0 114.5 33z" />
    <glyph glyph-name="gamma" unicode="&#x3b3;" horiz-adv-x="480" 
d="M505 507l-270 -465l-33 -236h-51l33 233l-139 468h51l118 -414l238 414h53z" />
    <glyph glyph-name="delta" unicode="&#x3b4;" horiz-adv-x="575" 
d="M137 17.5q-48 26.5 -72.5 72t-24.5 101.5q0 80 35.5 145.5t98.5 103t142 37.5q52 0 83 -22l-239 271l4 34h391l-6 -44h-320l206 -230q48 -55 71 -104t23 -109q0 -81 -35.5 -145.5t-98.5 -100.5t-143 -36q-67 0 -115 26.5zM371 67.5q51 31.5 79.5 84.5t28.5 115
q0 72 -40 121t-120 49q-71 0 -123 -36t-79 -91.5t-27 -112.5q0 -71 43 -116t123 -45q64 0 115 31.5z" />
    <glyph glyph-name="epsilon" unicode="&#x3b5;" horiz-adv-x="470" 
d="M71.5 28.5q-45.5 37.5 -45.5 93.5q0 45 29.5 89t94.5 58v3q-41 9 -60 34t-19 57q0 42 27 77t74.5 55.5t107.5 20.5q70 0 113.5 -28t54.5 -82l-48 -12q-9 37 -39.5 57t-84.5 20q-51 0 -86 -16.5t-52 -41t-17 -49.5q0 -37 30.5 -54t66.5 -17h79l-6 -42h-63
q-71 0 -111.5 -33.5t-40.5 -84.5q0 -42 33.5 -70t105.5 -28q65 0 109 28t62 77l49 -7q-22 -68 -81.5 -105t-145.5 -37q-91 0 -136.5 37.5z" />
    <glyph glyph-name="zeta" unicode="&#x3b6;" horiz-adv-x="445" 
d="M236 -142q80 84 80 109q0 19 -55 46l-74 36q-56 27 -84.5 45t-44.5 43.5t-16 63.5q0 75 71.5 172t167.5 186.5t184 156.5h-330l11 44h394l-4 -30q-182 -147 -313 -288.5t-131 -230.5q0 -38 26.5 -63t88.5 -55l78 -39q50 -24 68 -41.5t18 -36.5q0 -28 -31 -66t-72 -77z
" />
    <glyph glyph-name="eta" unicode="&#x3b7;" horiz-adv-x="560" 
d="M462.5 473q45.5 -43 45.5 -119q0 -23 -3 -44l-71 -503h-50l70 499q3 21 3 40q0 63 -33 95t-99 32q-84 0 -138 -58.5t-67 -149.5l-37 -265h-51l71 507h45l-11 -112q33 60 85.5 90.5t116.5 30.5q78 0 123.5 -43z" />
    <glyph glyph-name="theta" unicode="&#x3b8;" horiz-adv-x="568" 
d="M500.5 697.5q47.5 -71.5 47.5 -197.5q0 -135 -34.5 -251t-103 -186.5t-164.5 -70.5q-97 0 -144 72.5t-47 196.5q0 131 33.5 247t101.5 188.5t165 72.5q98 0 145.5 -71.5zM202 638q-59 -86 -83 -217h376q3 39 3 76q0 109 -37 168t-110 59q-90 0 -149 -86zM409 134
q61 98 81 243h-378q-7 -52 -7 -110q0 -110 37 -170.5t108 -60.5q98 0 159 98z" />
    <glyph glyph-name="iota" unicode="&#x3b9;" horiz-adv-x="236" 
d="M75 14q-24 23 -24 70q0 17 3 38l55 385h50l-53 -374q-3 -22 -3 -34q0 -38 16.5 -50t52.5 -12h11l-3 -45l-23 -1q-58 0 -82 23z" />
    <glyph glyph-name="kappa" unicode="&#x3ba;" horiz-adv-x="464" 
d="M272 321l162 -321h-54l-143 288l-132 -122l-23 -166h-50l71 507h50l-38 -274l295 274h62z" />
    <glyph glyph-name="lambda" unicode="&#x3bb;" horiz-adv-x="504" 
d="M479 35l-3 -42l-28 -2q-31 0 -47 15.5t-25 50.5l-102 383l-245 -440h-57l285 499l-46 173q-8 31 -20 41t-41 10h-14l3 44l34 2q35 0 52 -14.5t26 -48.5l167 -619q7 -24 13 -35t14.5 -14t23.5 -3h10z" />
    <glyph glyph-name="uni03BC" unicode="&#x3bc;" horiz-adv-x="561" 
d="M528 507l-71 -507h-47l13 108q-36 -57 -89.5 -87t-111.5 -30q-43 0 -77 14.5t-56 42.5l-34 -241h-50l53 374q0 8 1 12l9 63l34 242h1l1 9h50l-43 -305q-3 -18 -3 -37q0 -63 34.5 -97t97.5 -34q52 0 95 28t70.5 76t35.5 106h1l36 263h50z" />
    <glyph glyph-name="nu" unicode="&#x3bd;" horiz-adv-x="483" 
d="M516 507l-281 -507h-58l-139 507h52l121 -460l250 460h55z" />
    <glyph glyph-name="xi" unicode="&#x3be;" horiz-adv-x="465" 
d="M283 -147q30 35 51.5 66.5t21.5 45.5q0 9 -14 19t-52 25l-54 20q-101 38 -148 77.5t-47 103.5q0 46 23 91.5t65.5 80.5t98.5 49q-60 15 -91 50.5t-31 85.5q0 60 33.5 106t86.5 71t110 25q77 0 122 -36.5t51 -92.5l-49 -7q-6 37 -38 64t-93 27q-46 0 -85.5 -19.5
t-63.5 -55t-24 -79.5q0 -60 47 -89t114 -29h81l-6 -43h-85q-64 0 -113.5 -28.5t-76.5 -73t-27 -91.5q0 -35 19.5 -60t52.5 -42.5t90 -39.5l59 -22q57 -21 78 -37t21 -37q0 -29 -29.5 -70t-63.5 -76z" />
    <glyph glyph-name="omicron" unicode="&#x3bf;" horiz-adv-x="591" 
d="M147 18.5q-49 27.5 -76 78t-27 118.5q0 85 37.5 154t103 108t146.5 39q64 0 113 -27.5t76 -78t27 -117.5q0 -86 -37.5 -155t-103 -108t-146.5 -39q-64 0 -113 27.5zM381 69q54 33 85 91t31 130q0 86 -45.5 133.5t-122.5 47.5q-66 0 -119.5 -33t-84.5 -90.5t-31 -129.5
q0 -86 45.5 -134t122.5 -48q65 0 119 33z" />
    <glyph glyph-name="pi" unicode="&#x3c0;" horiz-adv-x="568" 
d="M479 463h-332l-64 -463h-51l71 507h433l-71 -507h-51z" />
    <glyph glyph-name="rho" unicode="&#x3c1;" horiz-adv-x="608" 
d="M425 31.5q65 40.5 102.5 110t37.5 153.5q0 62 -24.5 112.5t-73.5 79.5t-119 29q-81 0 -142 -36t-97.5 -96t-46.5 -133l-62 -443h50l44 313q20 -66 71.5 -98t114.5 -32q80 0 145 40.5zM471.5 421.5q43.5 -49.5 43.5 -129.5q0 -74 -31.5 -132t-85 -91t-115.5 -33
q-55 0 -94 24t-58.5 64.5t-19.5 88.5q0 71 30.5 130t83.5 93.5t118 34.5q85 0 128.5 -49.5z" />
    <glyph glyph-name="uni03C2" unicode="&#x3c2;" horiz-adv-x="496" 
d="M227 -142q80 84 80 109q0 9 -11 17.5t-43 23.5l-65 30q-51 24 -81 47.5t-46 57t-16 82.5q0 81 33.5 147.5t93.5 105t135 38.5q77 0 122.5 -37t49.5 -94l-49 -6q-5 38 -35.5 65t-91.5 27q-58 0 -105.5 -31.5t-75 -87.5t-27.5 -127q0 -52 27.5 -84t91.5 -62l65 -31
q46 -22 64.5 -37.5t18.5 -34.5q0 -45 -104 -143z" />
    <glyph glyph-name="sigma" unicode="&#x3c3;" horiz-adv-x="594" 
d="M143 19q-48 28 -74 77.5t-26 112.5q0 84 37.5 152t102.5 107t142 39h285l-7 -44h-156q51 -23 73.5 -70.5t22.5 -102.5q0 -84 -37 -152t-102.5 -107.5t-147.5 -39.5q-65 0 -113 28zM378.5 69q53.5 33 84 90.5t30.5 127.5q0 81 -45 128.5t-123 47.5q-62 0 -115.5 -32.5
t-85 -89.5t-31.5 -129q0 -80 44.5 -128t122.5 -48q65 0 118.5 33z" />
    <glyph glyph-name="tau" unicode="&#x3c4;" horiz-adv-x="417" 
d="M148 102q0 22 3 44l46 317h-152l9 44h369l-6 -44h-171l-45 -316q-3 -21 -3 -36q0 -41 18 -58.5t55 -17.5q40 0 79 13l-3 -43q-44 -14 -86 -14q-113 0 -113 111z" />
    <glyph glyph-name="upsilon" unicode="&#x3c5;" horiz-adv-x="543" 
d="M102.5 34.5q-49.5 43.5 -49.5 128.5q0 21 3 46l43 298h50l-43 -302q-3 -19 -3 -38q0 -62 35 -96.5t102 -34.5q79 0 125 43.5t58 127.5l43 300h50l-42 -301q-16 -111 -80.5 -163t-158.5 -52q-83 0 -132.5 43.5z" />
    <glyph glyph-name="phi" unicode="&#x3c6;" horiz-adv-x="709" 
d="M291 -13q-80 4 -136 34.5t-84.5 80t-28.5 109.5q0 67 29 125.5t80 100t115 60.5l9 -40q-85 -28 -134 -95t-49 -146t54 -130t151 -54l67 477h44q78 0 136 -28t89.5 -78.5t31.5 -117.5q0 -80 -40 -146.5t-114 -107t-170 -43.5l-25 -180h-50zM490.5 71q60.5 36 92.5 92
t32 119q0 78 -51 128.5t-156 55.5l-61 -434q83 3 143.5 39z" />
    <glyph glyph-name="chi" unicode="&#x3c7;" horiz-adv-x="474" 
d="M363 -185.5q-17 13.5 -29 46.5l-106 281l-231 -335h-58l271 386l-90 226q-12 31 -25.5 41t-40.5 10h-9l5 42q20 2 30 2q32 0 49.5 -14.5t29.5 -46.5l82 -216l185 270h58l-225 -320l116 -297q11 -28 22.5 -37t33.5 -9h8l-3 -41q-9 -2 -27 -2q-29 0 -46 13.5z" />
    <glyph glyph-name="psi" unicode="&#x3c8;" horiz-adv-x="664" 
d="M269 -8q-100 4 -156.5 55.5t-56.5 140.5q0 17 3 41l40 278h50l-40 -278q-3 -36 -3 -39q0 -68 43 -109t127 -44l66 470h50l-66 -470q98 4 153.5 52.5t67.5 131.5l40 286h50l-40 -289q-15 -110 -89 -166t-189 -60l-25 -184h-50z" />
    <glyph glyph-name="omega" unicode="&#x3c9;" horiz-adv-x="799" 
d="M84 41.5q-41 49.5 -41 135.5q0 83 28.5 154.5t83 120t129.5 63.5l4 -45q-60 -13 -104 -55.5t-67.5 -103t-23.5 -128.5q0 -69 29 -108.5t88 -39.5q45 0 78.5 24t53 60t24.5 74l18 131h50l-19 -131q-2 -18 -2 -28q0 -53 28 -91.5t85 -38.5q55 0 94.5 35.5t59.5 93.5t20 124
q0 73 -32.5 121.5t-95.5 62.5l16 43q79 -17 120.5 -76t41.5 -151q0 -79 -26.5 -147t-77.5 -108.5t-121 -40.5q-60 0 -97 31t-49 87q-26 -56 -71 -87t-105 -31q-78 0 -119 49.5z" />
    <glyph glyph-name="iotadieresis" unicode="&#x3ca;" horiz-adv-x="236" 
d="M75 14q-24 23 -24 70q0 17 3 38l55 385h50l-53 -374q-3 -22 -3 -34q0 -38 16.5 -50t52.5 -12h11l-3 -45l-23 -1q-58 0 -82 23zM47.5 630.5q-12.5 12.5 -12.5 29.5q0 18 12.5 30t30.5 12q17 0 29.5 -12t12.5 -30q0 -17 -12.5 -29.5t-29.5 -12.5q-18 0 -30.5 12.5z
M207 630.5q-12 12.5 -12 29.5q0 18 12 30t30 12q17 0 29 -12t12 -30q0 -17 -12 -29.5t-29 -12.5q-18 0 -30 12.5z" />
    <glyph glyph-name="upsilondieresis" unicode="&#x3cb;" horiz-adv-x="543" 
d="M102.5 34.5q-49.5 43.5 -49.5 128.5q0 21 3 46l43 298h50l-43 -302q-3 -19 -3 -38q0 -62 35 -96.5t102 -34.5q79 0 125 43.5t58 127.5l43 300h50l-42 -301q-16 -111 -80.5 -163t-158.5 -52q-83 0 -132.5 43.5zM219.5 630.5q-12.5 12.5 -12.5 29.5q0 18 12.5 30t30.5 12
q17 0 29.5 -12t12.5 -30q0 -17 -12.5 -29.5t-29.5 -12.5q-18 0 -30.5 12.5zM379 630.5q-12 12.5 -12 29.5q0 18 12 30t30 12q17 0 29 -12t12 -30q0 -17 -12 -29.5t-29 -12.5q-18 0 -30 12.5z" />
    <glyph glyph-name="omicrontonos" unicode="&#x3cc;" horiz-adv-x="591" 
d="M147 18.5q-49 27.5 -76 78t-27 118.5q0 85 37.5 154t103 108t146.5 39q64 0 113 -27.5t76 -78t27 -117.5q0 -86 -37.5 -155t-103 -108t-146.5 -39q-64 0 -113 27.5zM381 69q54 33 85 91t31 130q0 86 -45.5 133.5t-122.5 47.5q-66 0 -119.5 -33t-84.5 -90.5t-31 -129.5
q0 -86 45.5 -134t122.5 -48q65 0 119 33zM302 590l109 170h65l-135 -170h-39z" />
    <glyph glyph-name="upsilontonos" unicode="&#x3cd;" horiz-adv-x="543" 
d="M102.5 34.5q-49.5 43.5 -49.5 128.5q0 21 3 46l43 298h50l-43 -302q-3 -19 -3 -38q0 -62 35 -96.5t102 -34.5q79 0 125 43.5t58 127.5l43 300h50l-42 -301q-16 -111 -80.5 -163t-158.5 -52q-83 0 -132.5 43.5zM278 590l109 170h65l-135 -170h-39z" />
    <glyph glyph-name="omegatonos" unicode="&#x3ce;" horiz-adv-x="799" 
d="M84 41.5q-41 49.5 -41 135.5q0 83 28.5 154.5t83 120t129.5 63.5l4 -45q-60 -13 -104 -55.5t-67.5 -103t-23.5 -128.5q0 -69 29 -108.5t88 -39.5q45 0 78.5 24t53 60t24.5 74l18 131h50l-19 -131q-2 -18 -2 -28q0 -53 28 -91.5t85 -38.5q55 0 94.5 35.5t59.5 93.5t20 124
q0 73 -32.5 121.5t-95.5 62.5l16 43q79 -17 120.5 -76t41.5 -151q0 -79 -26.5 -147t-77.5 -108.5t-121 -40.5q-60 0 -97 31t-49 87q-26 -56 -71 -87t-105 -31q-78 0 -119 49.5zM406 590l109 170h65l-135 -170h-39z" />
    <glyph glyph-name="uni0400" unicode="&#x400;" horiz-adv-x="543" 
d="M191 715l-42 -294h351l-7 -45h-350l-47 -331h360l-7 -45h-409l107 760h404l-7 -45h-353zM282 1013l109 -169h-39l-135 169h65z" />
    <glyph glyph-name="uni0401" unicode="&#x401;" horiz-adv-x="543" 
d="M191 715l-42 -294h351l-7 -45h-350l-47 -331h360l-7 -45h-409l107 760h404l-7 -45h-353zM261.5 883.5q-12.5 12.5 -12.5 29.5q0 18 12.5 30t30.5 12q17 0 29.5 -12t12.5 -30q0 -17 -12.5 -29.5t-29.5 -12.5q-18 0 -30.5 12.5zM421 883.5q-12 12.5 -12 29.5q0 18 12 30
t30 12q17 0 29 -12t12 -30q0 -17 -12 -29.5t-29 -12.5q-18 0 -30 12.5z" />
    <glyph glyph-name="uni0402" unicode="&#x402;" horiz-adv-x="790" 
d="M682.5 425q65.5 -52 65.5 -143q0 -74 -33.5 -135.5t-92.5 -101.5t-134 -54l-1 46q95 21 152.5 86t57.5 156q0 73 -52 113t-150 40h-186l-61 -432h-50l100 715h-205l6 45h533l-6 -45h-277l-34 -238h190q112 0 177.5 -52z" />
    <glyph glyph-name="uni0403" unicode="&#x403;" horiz-adv-x="478" 
d="M520 715h-329l-100 -715h-50l106 760h379zM371 844h-39l109 169h65z" />
    <glyph glyph-name="uni0404" unicode="&#x404;" horiz-adv-x="817" 
d="M217.5 34.5q-72.5 43.5 -113 120t-40.5 171.5q0 117 57.5 219t155.5 163t213 61q80 0 146 -32t109.5 -89.5t57.5 -132.5l-51 -5q-21 97 -92 155t-173 58q-89 0 -166.5 -43.5t-129 -117.5t-68.5 -162h448l-7 -45h-447q-1 -9 -1 -28q0 -85 33.5 -151t95 -102.5t142.5 -36.5
q103 0 190 57.5t136 154.5l51 -8q-55 -114 -156.5 -182t-223.5 -68q-94 0 -166.5 43.5z" />
    <glyph glyph-name="uni0405" unicode="&#x405;" horiz-adv-x="619" 
d="M103.5 46q-60.5 55 -60.5 157l50 5q0 -171 191 -171q105 0 164 47.5t59 131.5q0 41 -16 66.5t-46 42t-83 35.5l-85 29q-92 31 -132 73t-40 108q0 59 31.5 104.5t89.5 70t135 24.5q114 0 174.5 -53t62.5 -141l-50 -6q-2 71 -48 112.5t-138 41.5q-90 0 -147.5 -40
t-57.5 -111q0 -50 32 -80.5t112 -58.5l81 -28q63 -22 100 -44t57 -56t20 -86q0 -106 -75 -167t-202 -61q-118 0 -178.5 55z" />
    <glyph glyph-name="uni0406" unicode="&#x406;" horiz-adv-x="201" 
d="M147 760h50l-107 -760h-50z" />
    <glyph glyph-name="uni0407" unicode="&#x407;" horiz-adv-x="201" 
d="M147 760h50l-107 -760h-50zM84.5 883.5q-12.5 12.5 -12.5 29.5q0 18 12.5 30t30.5 12q17 0 29.5 -12t12.5 -30q0 -17 -12.5 -29.5t-29.5 -12.5q-18 0 -30.5 12.5zM244 883.5q-12 12.5 -12 29.5q0 18 12 30t30 12q17 0 29 -12t12 -30q0 -17 -12 -29.5t-29 -12.5
q-18 0 -30 12.5z" />
    <glyph glyph-name="uni0408" unicode="&#x408;" horiz-adv-x="529" 
d="M76 40.5q-49 49.5 -49 140.5l50 4q0 -148 140 -148q77 0 125.5 46.5t62.5 151.5l74 525h50l-74 -528q-18 -125 -78 -183t-162 -58q-90 0 -139 49.5z" />
    <glyph glyph-name="uni0409" unicode="&#x409;" horiz-adv-x="1000" 
d="M899 434.5q59 -57.5 59 -150.5q0 -84 -37 -148.5t-104 -100t-155 -35.5h-237l101 719h-12l-490 -719h-54l515 760h97l-37 -268h184q111 0 170 -57.5zM790 75.5q56 30.5 86.5 84.5t30.5 124q0 75 -46.5 119t-139.5 44h-183l-56 -402h179q73 0 129 30.5z" />
    <glyph glyph-name="uni040A" unicode="&#x40a;" horiz-adv-x="1055" 
d="M954 434.5q59 -57.5 59 -150.5q0 -84 -37 -148.5t-104 -100t-155 -35.5h-237l53 377h-389l-53 -377h-51l107 760h50l-47 -338h389l48 338h50l-37 -268h184q111 0 170 -57.5zM845 75.5q56 30.5 86.5 84.5t30.5 124q0 75 -46.5 119t-139.5 44h-183l-56 -402h179
q73 0 129 30.5z" />
    <glyph glyph-name="uni040B" unicode="&#x40b;" horiz-adv-x="780" 
d="M727 294q0 -29 -4 -53l-33 -241h-51l33 233q4 27 4 56q0 77 -42 110t-136 33h-189l-61 -432h-50l100 715h-205l6 45h533l-6 -45h-277l-34 -238h197q215 0 215 -183z" />
    <glyph glyph-name="uni040C" unicode="&#x40c;" horiz-adv-x="574" 
d="M334 434l189 -434h-53l-171 393l-183 -207l-26 -186h-50l107 760h50l-70 -498l437 498h57zM382 844h-39l109 169h65z" />
    <glyph glyph-name="uni040D" unicode="&#x40d;" horiz-adv-x="665" 
d="M661 760l-106 -760h-51l95 676l-508 -676h-51l107 760h50l-94 -675l508 675h50zM342 1013l109 -169h-39l-135 169h65z" />
    <glyph glyph-name="uni040E" unicode="&#x40e;" horiz-adv-x="545" 
d="M614 760l-472 -760h-55l182 293l-180 467h52l158 -418l260 418h55zM258.5 894.5q-35.5 41.5 -35.5 118.5h39q0 -58 27.5 -89t77.5 -31q49 0 84.5 31t50.5 89h40q-17 -77 -63.5 -118.5t-115.5 -41.5t-104.5 41.5z" />
    <glyph glyph-name="uni040F" unicode="&#x40f;" horiz-adv-x="645" 
d="M641 760l-107 -760h-221l-23 -145h-46l17 145h-221l106 760h51l-101 -715h394l100 715h51z" />
    <glyph glyph-name="uni0410" unicode="&#x410;" horiz-adv-x="581" 
d="M461 150h-368l-70 -150h-53l363 760h58l149 -760h-51zM452 195l-97 516l-241 -516h338z" />
    <glyph glyph-name="uni0411" unicode="&#x411;" horiz-adv-x="616" 
d="M192 715l-32 -223h184q110 0 170 -57.5t60 -149.5q0 -85 -37.5 -149.5t-105 -100t-154.5 -35.5h-237l107 760h434l-6 -45h-383zM154 447l-57 -402h179q74 0 130 30.5t86.5 84.5t30.5 124q0 74 -47 118.5t-140 44.5h-182z" />
    <glyph glyph-name="uni0412" unicode="&#x412;" horiz-adv-x="572" 
d="M504.5 338q29.5 -42 29.5 -98q0 -69 -29.5 -123.5t-88.5 -85.5t-143 -31h-233l107 760h216q99 0 148.5 -44t49.5 -115q0 -69 -36.5 -123t-106.5 -78q57 -20 86.5 -62zM191 715l-42 -294h162q98 0 148 50.5t50 125.5q0 54 -36.5 86t-115.5 32h-166zM433 98.5
q50 53.5 50 139.5q0 62 -43 100t-125 38h-172l-47 -331h184q103 0 153 53.5z" />
    <glyph glyph-name="uni0413" unicode="&#x413;" horiz-adv-x="478" 
d="M520 715h-329l-100 -715h-50l106 760h379z" />
    <glyph glyph-name="uni0414" unicode="&#x414;" horiz-adv-x="669" 
d="M629 45l-26 -185h-45l16 140h-551l-23 -140h-45l25 185h51l-2 -14l347 729h58l143 -731l2 16h50zM525 45l-125 664l-311 -664h436z" />
    <glyph glyph-name="uni0415" unicode="&#x415;" horiz-adv-x="543" 
d="M191 715l-42 -294h351l-7 -45h-350l-47 -331h360l-7 -45h-409l107 760h404l-7 -45h-353z" />
    <glyph glyph-name="uni0416" unicode="&#x416;" horiz-adv-x="909" 
d="M669 461l192 -461h-51l-176 423l-154 -170l-36 -253h-50l37 264l-104 166l-293 -430h-57l323 472l-181 288h54l267 -429l60 429h51l-61 -432l388 432h62z" />
    <glyph glyph-name="uni0417" unicode="&#x417;" horiz-adv-x="566" 
d="M498.5 341q29.5 -42 29.5 -103q0 -74 -35.5 -130t-99 -86.5t-146.5 -30.5q-109 0 -166.5 49t-57.5 128q0 13 2 33l50 3q-2 -20 -2 -29q0 -63 44 -101t131 -38q67 0 119 25t81 70.5t29 105.5q0 66 -42 103.5t-125 37.5h-103l5 45h92q59 0 105 22t71 62t25 92
q0 58 -38.5 91.5t-118.5 33.5q-93 0 -146 -44.5t-63 -116.5l-50 4q12 88 79.5 145t182.5 57q102 0 153.5 -46.5t51.5 -122.5q0 -70 -38.5 -122.5t-104.5 -75.5q56 -19 85.5 -61z" />
    <glyph glyph-name="uni0418" unicode="&#x418;" horiz-adv-x="665" 
d="M661 760l-106 -760h-51l95 676l-508 -676h-51l107 760h50l-94 -675l508 675h50z" />
    <glyph glyph-name="uni0419" unicode="&#x419;" horiz-adv-x="665" 
d="M661 760l-106 -760h-51l95 676l-508 -676h-51l107 760h50l-94 -675l508 675h50zM321.5 894.5q-35.5 41.5 -35.5 118.5h39q0 -58 27.5 -89t77.5 -31q49 0 84.5 31t50.5 89h40q-17 -77 -63.5 -118.5t-115.5 -41.5t-104.5 41.5z" />
    <glyph glyph-name="uni041A" unicode="&#x41a;" horiz-adv-x="574" 
d="M334 434l189 -434h-53l-171 393l-183 -207l-26 -186h-50l107 760h50l-70 -498l437 498h57z" />
    <glyph glyph-name="uni041B" unicode="&#x41b;" horiz-adv-x="581" 
d="M490 0l-135 708l-331 -708h-54l362 760h58l150 -760h-50z" />
    <glyph glyph-name="uni041C" unicode="&#x41c;" horiz-adv-x="831" 
d="M771 760l-23 -760h-49l23 684l-319 -684h-43l-128 687l-169 -687h-51l191 760h58l129 -693l322 693h59z" />
    <glyph glyph-name="uni041D" unicode="&#x41d;" horiz-adv-x="655" 
d="M651 760l-107 -760h-50l53 376h-404l-53 -376h-50l107 760h50l-48 -339h404l48 339h50z" />
    <glyph glyph-name="uni041E" unicode="&#x41e;" horiz-adv-x="840" 
d="M216 33q-72 42 -111.5 118t-39.5 176q0 119 57.5 220.5t155.5 161.5t214 60q95 0 167 -41.5t112 -118t40 -177.5q0 -118 -57.5 -219.5t-156 -161.5t-214.5 -60q-95 0 -167 42zM573 91.5q86 54.5 136 145.5t50 195q0 87 -33 153t-94 102t-143 36q-102 0 -187.5 -55
t-135.5 -146t-50 -195q0 -87 33 -153t94 -101.5t142 -35.5q102 0 188 54.5z" />
    <glyph glyph-name="uni041F" unicode="&#x41f;" horiz-adv-x="645" 
d="M535 0h-51l101 715h-394l-100 -715h-51l107 760h494z" />
    <glyph glyph-name="uni0420" unicode="&#x420;" horiz-adv-x="615" 
d="M551.5 703.5q58.5 -56.5 58.5 -159.5q0 -83 -35 -148.5t-101 -103t-154 -37.5h-194l-36 -255h-50l107 760h227q119 0 177.5 -56.5zM449.5 332q53.5 32 81.5 86.5t28 122.5q0 86 -45 130t-149 44h-174l-59 -415h191q73 0 126.5 32z" />
    <glyph glyph-name="uni0421" unicode="&#x421;" horiz-adv-x="815" 
d="M217.5 32q-72.5 41 -112.5 117t-40 177q0 118 57 220t154.5 162.5t213.5 60.5q125 0 207.5 -68t105.5 -183l-52 -6q-22 99 -90.5 155t-172.5 56q-102 0 -187 -54.5t-135 -146t-50 -194.5q0 -88 33.5 -154t95 -101.5t142.5 -35.5q106 0 192.5 58t135.5 155l51 -6
q-56 -117 -156 -185t-226 -68q-94 0 -166.5 41z" />
    <glyph glyph-name="uni0422" unicode="&#x422;" horiz-adv-x="580" 
d="M617 715h-236l-101 -715h-51l101 715h-238l7 45h525z" />
    <glyph glyph-name="uni0423" unicode="&#x423;" horiz-adv-x="545" 
d="M614 760l-472 -760h-55l182 293l-180 467h52l158 -418l260 418h55z" />
    <glyph glyph-name="uni0424" unicode="&#x424;" horiz-adv-x="827" 
d="M751.5 242.5q-47.5 -75.5 -134 -115.5t-201.5 -41l-14 -96h-51l14 96q-139 2 -220 65.5t-81 185.5q0 105 47.5 180.5t134 115.5t201.5 41l14 96h51l-14 -96q139 -2 220 -65.5t81 -185.5q0 -105 -47.5 -180.5zM594.5 167q73.5 34 113.5 99t40 155q0 105 -68 155t-188 52
l-70 -496q99 1 172.5 35zM441 628q-99 -1 -172.5 -35t-113.5 -99t-40 -155q0 -105 68 -155t188 -52z" />
    <glyph glyph-name="uni0425" unicode="&#x425;" horiz-adv-x="546" 
d="M319 383l186 -383h-52l-165 340l-260 -340h-58l295 386l-179 374h52l159 -329l249 329h58z" />
    <glyph glyph-name="uni0426" unicode="&#x426;" horiz-adv-x="650" 
d="M574 -140h-46l16 140h-504l107 760h50l-101 -715h391l101 715h50l-101 -715h63z" />
    <glyph glyph-name="uni0427" unicode="&#x427;" horiz-adv-x="602" 
d="M598 760l-106 -760h-51l43 304h-162q-105 0 -167.5 56t-62.5 153q0 21 3 43l29 204h51l-29 -204q-3 -22 -3 -42q0 -80 48.5 -122.5t139.5 -42.5h159l58 411h50z" />
    <glyph glyph-name="uni0428" unicode="&#x428;" horiz-adv-x="920" 
d="M916 760l-107 -760h-769l107 760h50l-100 -715h308l101 715h50l-100 -715h309l100 715h51z" />
    <glyph glyph-name="uni0429" unicode="&#x429;" horiz-adv-x="928" 
d="M852 -140h-46l16 140h-782l107 760h50l-100 -715h308l101 715h50l-100 -715h309l100 715h51l-101 -715h63z" />
    <glyph glyph-name="uni042A" unicode="&#x42a;" horiz-adv-x="733" 
d="M632 434.5q59 -57.5 59 -150.5q0 -84 -37 -148.5t-104 -100t-155 -35.5h-237l101 715h-167l7 45h216l-37 -268h184q111 0 170 -57.5zM523 75.5q56 30.5 86.5 84.5t30.5 124q0 75 -46.5 119t-139.5 44h-183l-56 -402h179q73 0 129 30.5z" />
    <glyph glyph-name="uni042B" unicode="&#x42b;" horiz-adv-x="798" 
d="M514 434.5q59 -57.5 59 -150.5q0 -84 -37 -148.5t-104 -100t-155 -35.5h-237l107 760h50l-37 -268h184q111 0 170 -57.5zM794 760l-106 -760h-51l107 760h50zM405 75.5q56 30.5 86.5 84.5t30.5 124q0 75 -46.5 119t-139.5 44h-183l-56 -402h179q73 0 129 30.5z" />
    <glyph glyph-name="uni042C" unicode="&#x42c;" horiz-adv-x="615" 
d="M514 434.5q59 -57.5 59 -150.5q0 -84 -37 -148.5t-104 -100t-155 -35.5h-237l107 760h50l-37 -268h184q111 0 170 -57.5zM405 75.5q56 30.5 86.5 84.5t30.5 124q0 75 -46.5 119t-139.5 44h-183l-56 -402h179q73 0 129 30.5z" />
    <glyph glyph-name="uni042D" unicode="&#x42d;" horiz-adv-x="817" 
d="M634.5 725.5q72.5 -43.5 113 -120t40.5 -171.5q0 -117 -57.5 -219t-155.5 -163t-213 -61q-80 0 -146 32t-109.5 89.5t-57.5 132.5l51 5q21 -97 92 -155t173 -58q89 0 166.5 43.5t129 117.5t68.5 162h-448l7 45h447q1 9 1 28q0 85 -33.5 151t-95 102.5t-142.5 36.5
q-103 0 -190 -57.5t-136 -154.5l-51 8q55 114 156.5 182t223.5 68q94 0 166.5 -43.5z" />
    <glyph glyph-name="uni042E" unicode="&#x42e;" horiz-adv-x="1040" 
d="M861.5 727.5q70.5 -41.5 110 -117t39.5 -173.5q0 -119 -56.5 -221.5t-152 -163.5t-207.5 -61q-89 0 -159.5 42t-110 117.5t-39.5 172.5q0 28 3 53h-146l-52 -376h-51l107 760h50l-47 -339h147q21 97 80 176.5t144 125.5t181 46q89 0 159.5 -41.5zM779.5 92.5
q83.5 55.5 132 147.5t48.5 196q0 86 -32.5 151t-91.5 100.5t-136 35.5q-99 0 -182 -55.5t-131.5 -148t-48.5 -196.5q0 -86 32.5 -151t91.5 -100t135 -35q99 0 182.5 55.5z" />
    <glyph glyph-name="uni042F" unicode="&#x42f;" horiz-adv-x="618" 
d="M507 0h-51l35 249h-180q-25 0 -47 3l-159 -252h-59l166 263q-67 22 -101.5 73.5t-34.5 129.5q0 89 36.5 155.5t106.5 102.5t166 36h228zM498 295l59 420h-173q-81 0 -139 -31.5t-87.5 -87.5t-29.5 -129q0 -172 191 -172h179z" />
    <glyph glyph-name="uni0430" unicode="&#x430;" horiz-adv-x="609" 
d="M577 507l-71 -507h-45l14 120q-34 -60 -92.5 -94.5t-128.5 -34.5q-60 0 -108 28t-75 79t-27 118q0 85 38 153.5t102.5 107.5t141.5 39q69 0 117.5 -33t67.5 -93l16 117h50zM381.5 71q53.5 35 84 94t30.5 127q0 83 -45.5 131t-123.5 48q-64 0 -117.5 -32.5t-84.5 -90
t-31 -128.5q0 -86 46 -135t123 -49q65 0 118.5 35z" />
    <glyph glyph-name="uni0431" unicode="&#x431;" horiz-adv-x="599" 
d="M266.5 667q-60.5 -37 -93.5 -105.5t-55 -181.5q37 69 95 102.5t129 33.5q63 0 111.5 -27.5t75.5 -77t27 -114.5q0 -84 -37.5 -154t-104 -111t-148.5 -41q-95 0 -153 60.5t-58 171.5q0 20 6 72q22 157 56.5 250.5t108 147.5t204.5 60l148 7l-10 -45l-139 -6
q-102 -5 -162.5 -42zM216.5 435.5q-53.5 -35.5 -84 -95t-30.5 -129.5q0 -81 46.5 -128t122.5 -47q67 0 121 36t84 95.5t30 128.5q0 81 -46.5 128t-122.5 47q-67 0 -120.5 -35.5z" />
    <glyph glyph-name="uni0432" unicode="&#x432;" horiz-adv-x="446" 
d="M381 225.5q21 -28.5 21 -66.5q0 -45 -23 -81t-68 -57t-108 -21h-171l71 507h168q75 0 111 -30.5t36 -79.5q0 -45 -24.5 -80t-74.5 -50q41 -13 62 -41.5zM147 465l-25 -178h112q64 0 99 31t35 77q0 32 -24.5 51t-77.5 19h-119zM312.5 75.5q39.5 33.5 39.5 86.5
q0 37 -29 60t-87 23h-120l-28 -203h117q68 0 107.5 33.5z" />
    <glyph glyph-name="uni0433" unicode="&#x433;" horiz-adv-x="370" 
d="M377 463h-230l-65 -463h-50l71 507h280z" />
    <glyph glyph-name="uni0434" unicode="&#x434;" horiz-adv-x="542" 
d="M478 -130h-46l15 130h-422l-22 -130h-46l24 174h50l247 463h58l116 -463h51zM403 44l-100 419l-218 -419h318z" />
    <glyph glyph-name="uni0435" unicode="&#x435;" horiz-adv-x="573" 
d="M94 238q-1 -8 -1 -25q0 -83 46.5 -130t122.5 -47q64 0 113 30t81 85l49 -6q-39 -74 -102.5 -114t-144.5 -40q-63 0 -112 28t-76 78t-27 114q0 84 36 153.5t100.5 110.5t145.5 41q95 0 150.5 -57.5t55.5 -152.5q0 -15 -1.5 -33.5t-4.5 -34.5h-431zM180.5 418
q-60.5 -53 -79.5 -137h379q1 7 1 22q0 82 -43 125t-115 43q-82 0 -142.5 -53z" />
    <glyph glyph-name="uni0436" unicode="&#x436;" horiz-adv-x="662" 
d="M483 312l136 -312h-52l-120 277l-100 -99l-25 -178h-50l26 187l-68 93l-199 -280h-59l228 319l-139 188h57l189 -260l36 260h50l-37 -261l259 261h66z" />
    <glyph glyph-name="uni0437" unicode="&#x437;" horiz-adv-x="415" 
d="M348 227q22 -29 22 -68q0 -75 -52 -121.5t-150 -46.5q-79 0 -123 34t-44 89q0 6 2 20l48 1q-1 -5 -1 -16q0 -40 30 -63t89 -23q70 0 110.5 34.5t40.5 89.5q0 40 -29.5 63.5t-87.5 23.5h-58l6 44h52q60 0 97.5 32t37.5 82q0 32 -25 52t-78 20q-59 0 -95 -24.5t-45 -65.5
l-47 4q12 58 60 93t130 35q76 0 113 -31t37 -80q0 -46 -27.5 -83.5t-75.5 -52.5q41 -13 63 -42z" />
    <glyph glyph-name="uni0438" unicode="&#x438;" horiz-adv-x="513" 
d="M481 507l-71 -507h-50l60 432l-337 -432l-1 1v-1h-50l71 507h50l-61 -433l339 433h50z" />
    <glyph glyph-name="uni0439" unicode="&#x439;" horiz-adv-x="513" 
d="M481 507l-71 -507h-50l60 432l-337 -432l-1 1v-1h-50l71 507h50l-61 -433l339 433h50zM205.5 641.5q-35.5 41.5 -35.5 118.5h39q0 -58 27.5 -89t77.5 -31q49 0 84.5 31t50.5 89h40q-17 -77 -63.5 -118.5t-115.5 -41.5t-104.5 41.5z" />
    <glyph glyph-name="uni043A" unicode="&#x43a;" horiz-adv-x="436" 
d="M234 289l158 -289h-51l-141 256l-95 -92l-23 -164h-50l71 507h50l-38 -272l280 272h66z" />
    <glyph glyph-name="uni043B" unicode="&#x43b;" horiz-adv-x="467" 
d="M376 0l-111 462l-241 -462h-54l271 507h57l128 -507h-50z" />
    <glyph glyph-name="uni043C" unicode="&#x43c;" horiz-adv-x="604" 
d="M548 507l-12 -507h-48l11 430l-215 -430h-35l-92 432l-110 -432h-50l130 507h54l95 -434l217 434h55z" />
    <glyph glyph-name="uni043D" unicode="&#x43d;" horiz-adv-x="512" 
d="M480 507l-71 -507h-50l34 245h-277l-34 -245h-50l71 507h50l-31 -218h277l31 218h50z" />
    <glyph glyph-name="uni043E" unicode="&#x43e;" horiz-adv-x="591" 
d="M147 18.5q-49 27.5 -76 78t-27 118.5q0 85 37.5 154t103 108t146.5 39q64 0 113 -27.5t76 -78t27 -117.5q0 -86 -37.5 -155t-103 -108t-146.5 -39q-64 0 -113 27.5zM381 69q54 33 85 91t31 130q0 86 -45.5 133.5t-122.5 47.5q-66 0 -119.5 -33t-84.5 -90.5t-31 -129.5
q0 -86 45.5 -134t122.5 -48q65 0 119 33z" />
    <glyph glyph-name="uni043F" unicode="&#x43f;" horiz-adv-x="507" 
d="M404 0h-50l65 463h-272l-65 -463h-50l71 507h372z" />
    <glyph glyph-name="uni0440" unicode="&#x440;" horiz-adv-x="610" 
d="M465.5 488.5q47.5 -27.5 74 -78t26.5 -115.5q0 -88 -38 -157.5t-102.5 -108t-142.5 -38.5q-68 0 -116 32.5t-68 90.5l-44 -307h-50l98 700h45l-14 -123q35 63 93 97.5t130 34.5q61 0 108.5 -27.5zM401 69q53 33 84 91.5t31 130.5q0 85 -46.5 132.5t-123.5 47.5
q-66 0 -119.5 -34.5t-83.5 -93t-30 -127.5q0 -83 46.5 -131.5t125.5 -48.5q63 0 116 33z" />
    <glyph glyph-name="uni0441" unicode="&#x441;" horiz-adv-x="570" 
d="M145.5 19q-48.5 28 -75 78t-26.5 115q0 88 37 157.5t102.5 108t146.5 38.5q79 0 135 -41.5t73 -113.5l-51 -6q-15 56 -57 86t-101 30q-69 0 -122.5 -33t-83 -90.5t-29.5 -129.5q0 -85 45 -133.5t124 -48.5q64 0 119.5 35t83.5 96l48 -5q-33 -80 -101 -125.5t-155 -45.5
q-64 0 -112.5 28z" />
    <glyph glyph-name="uni0442" unicode="&#x442;" horiz-adv-x="429" 
d="M436 463h-167l-65 -463h-50l65 463h-167l6 44h384z" />
    <glyph glyph-name="uni0443" unicode="&#x443;" 
d="M515 507l-65 -462q-16 -122 -78 -184.5t-165 -62.5q-78 0 -122.5 31t-55.5 82l49 10q8 -38 40.5 -59.5t91.5 -21.5q162 0 190 204l9 64q-33 -58 -84 -87.5t-112 -29.5q-73 0 -117.5 42.5t-44.5 115.5q0 20 3 41l44 317h50l-43 -313q-3 -21 -3 -39q0 -61 34 -91t95 -30
q78 0 129 55.5t66 140.5l39 277h50z" />
    <glyph glyph-name="uni0444" unicode="&#x444;" horiz-adv-x="655" 
d="M573 140.5q-38 -69.5 -105.5 -109.5t-151.5 -40l-26 -184h-50l26 184q-66 0 -116.5 27.5t-78.5 77.5t-28 115q0 86 38.5 155.5t106 109.5t151.5 40l34 244h50l-34 -244q101 -2 161.5 -61.5t60.5 -158.5q0 -86 -38 -155.5zM446.5 72.5q54.5 35.5 84.5 94.5t30 129
q0 82 -48 128.5t-130 46.5l-61 -435q70 1 124.5 36.5zM333 471q-70 -1 -125 -36t-85 -94.5t-30 -129.5q0 -82 48.5 -128.5t130.5 -46.5z" />
    <glyph glyph-name="uni0445" unicode="&#x445;" horiz-adv-x="438" 
d="M249 258l146 -258h-53l-125 221l-187 -221h-58l222 263l-138 244h53l117 -207l174 207h59z" />
    <glyph glyph-name="uni0446" unicode="&#x446;" horiz-adv-x="514" 
d="M437 -130h-46l15 130h-374l71 507h50l-65 -463h266l65 463h50l-65 -463h57z" />
    <glyph glyph-name="uni0447" unicode="&#x447;" horiz-adv-x="467" 
d="M435 507l-71 -507h-50l28 199h-104q-79 0 -124.5 38.5t-45.5 106.5q0 19 2 30l19 133h50l-19 -133q-2 -18 -2 -27q0 -50 32 -77t95 -27h103l37 264h50z" />
    <glyph glyph-name="uni0448" unicode="&#x448;" horiz-adv-x="711" 
d="M678 507l-70 -507h-576l71 507h50l-65 -463h213l65 463h50l-65 -463h213l64 463h50z" />
    <glyph glyph-name="uni0449" unicode="&#x449;" horiz-adv-x="724" 
d="M647 -130h-46l15 130h-584l71 507h50l-65 -463h213l65 463h50l-65 -463h213l64 463h50l-64 -463h57z" />
    <glyph glyph-name="uni044A" unicode="&#x44a;" horiz-adv-x="539" 
d="M453 303.5q44 -39.5 44 -104.5q0 -95 -59.5 -147t-161.5 -52h-171l65 464h-118l6 43h168l-23 -164h121q85 0 129 -39.5zM401.5 85q45.5 41 45.5 111q0 48 -33 75.5t-99 27.5h-118l-36 -255h116q79 0 124.5 41z" />
    <glyph glyph-name="uni044B" unicode="&#x44b;" horiz-adv-x="643" 
d="M380 303.5q44 -39.5 44 -104.5q0 -95 -59.5 -147t-161.5 -52h-171l71 507h50l-23 -164h121q85 0 129 -39.5zM611 507l-71 -507h-50l71 507h50zM328.5 85q45.5 41 45.5 111q0 48 -33 75.5t-99 27.5h-118l-36 -255h116q79 0 124.5 41z" />
    <glyph glyph-name="uni044C" unicode="&#x44c;" horiz-adv-x="467" 
d="M380 303.5q44 -39.5 44 -104.5q0 -95 -59.5 -147t-161.5 -52h-171l71 507h50l-23 -164h121q85 0 129 -39.5zM328.5 85q45.5 41 45.5 111q0 48 -33 75.5t-99 27.5h-118l-36 -255h116q79 0 124.5 41z" />
    <glyph glyph-name="uni044D" unicode="&#x44d;" horiz-adv-x="576" 
d="M428.5 488.5q49.5 -27.5 77 -77.5t27.5 -114q0 -85 -37.5 -155t-103 -110.5t-146.5 -40.5q-83 0 -142 49t-70 128l49 4q10 -62 55.5 -99t109.5 -37q57 0 105 26t79.5 71t43.5 101h-292l6 44h292q1 6 1 18q0 81 -46.5 128t-122.5 47q-65 0 -121 -36.5t-84 -97.5l-50 7
q35 80 103.5 126t152.5 46q64 0 113.5 -27.5z" />
    <glyph glyph-name="uni044E" unicode="&#x44e;" horiz-adv-x="759" 
d="M612 488.5q49 -27.5 76.5 -77.5t27.5 -115q0 -82 -37.5 -152t-102.5 -111.5t-145 -41.5q-63 0 -112 27.5t-76 77.5t-27 115q0 12 2 34h-102l-34 -245h-50l71 507h50l-31 -219h103q16 65 55 117t96 81.5t124 29.5q63 0 112 -27.5zM552 72q53 36 83.5 96t30.5 129
q0 80 -46.5 127t-120.5 47q-66 0 -119 -36t-83.5 -96t-30.5 -129q0 -80 46.5 -127t120.5 -47q66 0 119 36z" />
    <glyph glyph-name="uni044F" unicode="&#x44f;" horiz-adv-x="478" 
d="M375 0h-50l22 157h-123q-14 0 -38 2l-99 -159h-56l108 171q-42 16 -64.5 50t-22.5 81q0 96 58 150.5t163 54.5h173zM353 201l37 262h-117q-81 0 -126 -42.5t-45 -116.5q0 -49 32.5 -76t99.5 -27h119z" />
    <glyph glyph-name="uni0450" unicode="&#x450;" horiz-adv-x="573" 
d="M94 238q-1 -8 -1 -25q0 -83 46.5 -130t122.5 -47q64 0 113 30t81 85l49 -6q-39 -74 -102.5 -114t-144.5 -40q-63 0 -112 28t-76 78t-27 114q0 84 36 153.5t100.5 110.5t145.5 41q95 0 150.5 -57.5t55.5 -152.5q0 -15 -1.5 -33.5t-4.5 -34.5h-431zM180.5 418
q-60.5 -53 -79.5 -137h379q1 7 1 22q0 82 -43 125t-115 43q-82 0 -142.5 -53zM260 760l109 -169h-39l-135 169h65z" />
    <glyph glyph-name="uni0451" unicode="&#x451;" horiz-adv-x="573" 
d="M94 238q-1 -8 -1 -25q0 -83 46.5 -130t122.5 -47q64 0 113 30t81 85l49 -6q-39 -74 -102.5 -114t-144.5 -40q-63 0 -112 28t-76 78t-27 114q0 84 36 153.5t100.5 110.5t145.5 41q95 0 150.5 -57.5t55.5 -152.5q0 -15 -1.5 -33.5t-4.5 -34.5h-431zM180.5 418
q-60.5 -53 -79.5 -137h379q1 7 1 22q0 82 -43 125t-115 43q-82 0 -142.5 -53zM239.5 630.5q-12.5 12.5 -12.5 29.5q0 18 12.5 30t30.5 12q17 0 29.5 -12t12.5 -30q0 -17 -12.5 -29.5t-29.5 -12.5q-18 0 -30.5 12.5zM399 630.5q-12 12.5 -12 29.5q0 18 12 30t30 12
q17 0 29 -12t12 -30q0 -17 -12 -29.5t-29 -12.5q-18 0 -30 12.5z" />
    <glyph glyph-name="uni0452" unicode="&#x452;" horiz-adv-x="625" 
d="M528.5 473q45.5 -43 45.5 -119q0 -16 -4 -44l-50 -356q-23 -156 -155 -156q-51 0 -85 16l10 44q37 -16 75 -16q46 0 71.5 28.5t34.5 92.5l49 343q3 21 3 40q0 127 -133 127q-82 0 -135 -54.5t-69 -141.5l-39 -277h-50l87 621h-112l6 42h112l14 97h50l-14 -97h201l-6 -42
h-201l-31 -224q34 59 86 89t115 30q79 0 124.5 -43z" />
    <glyph glyph-name="uni0453" unicode="&#x453;" horiz-adv-x="370" 
d="M377 463h-230l-65 -463h-50l71 507h280zM264 591h-39l109 169h65z" />
    <glyph glyph-name="uni0454" unicode="&#x454;" horiz-adv-x="576" 
d="M147.5 18.5q-49.5 27.5 -77 77.5t-27.5 114q0 85 37.5 155t103 110.5t146.5 40.5q83 0 142 -49t70 -128l-49 -4q-10 62 -55.5 99t-109.5 37q-57 0 -105 -26t-79.5 -71t-43.5 -101h292l-6 -44h-292q-1 -6 -1 -18q0 -81 46.5 -128t122.5 -47q65 0 121 36.5t84 97.5l50 -7
q-35 -80 -103.5 -126t-152.5 -46q-64 0 -113.5 27.5z" />
    <glyph glyph-name="uni0455" unicode="&#x455;" horiz-adv-x="455" 
d="M65.5 28q-43.5 37 -43.5 108l50 5q0 -56 30 -80.5t94 -24.5q71 0 112.5 28.5t41.5 86.5q0 25 -14 41t-37 26.5t-67 24.5l-36 11q-68 22 -101.5 48t-33.5 75q0 65 51 102t138 37q76 0 122 -34t47 -95l-50 -6q-2 43 -33 66.5t-91 23.5q-62 0 -98 -25t-36 -68
q0 -30 24.5 -46.5t76.5 -33.5l40 -13q51 -16 81 -31t48.5 -39t18.5 -61q0 -80 -56 -121.5t-148 -41.5q-87 0 -130.5 37z" />
    <glyph glyph-name="uni0456" unicode="&#x456;" horiz-adv-x="187" 
d="M118.5 627q-13.5 13 -13.5 32q0 20 13.5 33t32.5 13t32 -13.5t13 -32.5t-13 -32t-32 -13t-32.5 13zM104 507h50l-71 -507h-50z" />
    <glyph glyph-name="uni0457" unicode="&#x457;" horiz-adv-x="187" 
d="M104 507h50l-71 -507h-50zM41.5 630.5q-12.5 12.5 -12.5 29.5q0 18 12.5 30t30.5 12q17 0 29.5 -12t12.5 -30q0 -17 -12.5 -29.5t-29.5 -12.5q-18 0 -30.5 12.5zM201 630.5q-12 12.5 -12 29.5q0 18 12 30t30 12q17 0 29 -12t12 -30q0 -17 -12 -29.5t-29 -12.5
q-18 0 -30 12.5z" />
    <glyph glyph-name="uni0458" unicode="&#x458;" horiz-adv-x="200" 
d="M131.5 627q-13.5 13 -13.5 32q0 20 13.5 33t32.5 13t32 -13.5t13 -32.5t-13 -32t-32 -13t-32.5 13zM-150 -186l10 44q37 -16 75 -16q46 0 71.5 28.5t34.5 92.5l76 544h50l-77 -553q-23 -156 -155 -156q-51 0 -85 16z" />
    <glyph glyph-name="uni0459" unicode="&#x459;" horiz-adv-x="719" 
d="M632 303.5q44 -39.5 44 -104.5q0 -95 -59.5 -147t-161.5 -52h-171l64 460h-7l-316 -460h-55l346 507h89l-23 -164h121q85 0 129 -39.5zM580.5 85q45.5 41 45.5 111q0 48 -33 75.5t-99 27.5h-118l-36 -255h116q79 0 124.5 41z" />
    <glyph glyph-name="uni045A" unicode="&#x45a;" horiz-adv-x="792" 
d="M705 303.5q44 -39.5 44 -104.5q0 -95 -59.5 -147t-161.5 -52h-171l35 247h-275l-35 -247h-50l71 507h50l-30 -216h275l30 216h50l-23 -164h121q85 0 129 -39.5zM653.5 85q45.5 41 45.5 111q0 48 -33 75.5t-99 27.5h-118l-36 -255h116q79 0 124.5 41z" />
    <glyph glyph-name="uni045B" unicode="&#x45b;" horiz-adv-x="625" 
d="M527.5 473q45.5 -43 45.5 -119q0 -23 -3 -44l-44 -310h-50l43 306q4 28 4 40q0 62 -33.5 94.5t-99.5 32.5q-81 0 -134.5 -54t-69.5 -139l-39 -280h-50l87 621h-112l6 42h112l14 97h50l-14 -97h201l-6 -42h-201l-31 -224q34 59 86 89t115 30q78 0 123.5 -43z" />
    <glyph glyph-name="uni045C" unicode="&#x45c;" horiz-adv-x="436" 
d="M234 289l158 -289h-51l-141 256l-95 -92l-23 -164h-50l71 507h50l-38 -272l280 272h66zM294 591h-39l109 169h65z" />
    <glyph glyph-name="uni045D" unicode="&#x45d;" horiz-adv-x="513" 
d="M481 507l-71 -507h-50l60 432l-337 -432l-1 1v-1h-50l71 507h50l-61 -433l339 433h50zM226 760l109 -169h-39l-135 169h65z" />
    <glyph glyph-name="uni045E" unicode="&#x45e;" 
d="M515 507l-65 -462q-16 -122 -78 -184.5t-165 -62.5q-78 0 -122.5 31t-55.5 82l49 10q8 -38 40.5 -59.5t91.5 -21.5q162 0 190 204l9 64q-33 -58 -84 -87.5t-112 -29.5q-73 0 -117.5 42.5t-44.5 115.5q0 20 3 41l44 317h50l-43 -313q-3 -21 -3 -39q0 -61 34 -91t95 -30
q78 0 129 55.5t66 140.5l39 277h50zM222.5 641.5q-35.5 41.5 -35.5 118.5h39q0 -58 27.5 -89t77.5 -31q49 0 84.5 31t50.5 89h40q-17 -77 -63.5 -118.5t-115.5 -41.5t-104.5 41.5z" />
    <glyph glyph-name="uni045F" unicode="&#x45f;" horiz-adv-x="507" 
d="M475 507l-71 -507h-157l-23 -140h-48l17 140h-161l71 507h50l-65 -463h272l65 463h50z" />
    <glyph glyph-name="uni0462" unicode="&#x462;" horiz-adv-x="717" 
d="M616 430q59 -57 59 -148q0 -85 -37.5 -149t-104.5 -98.5t-154 -34.5h-237l84 605h-154l6 45h155l15 110h51l-15 -110h230l-7 -45h-230l-16 -118h185q111 0 170 -57zM507.5 75q55.5 30 86 83t30.5 121q0 75 -46 119t-140 44h-184l-56 -397h181q73 0 128.5 30z" />
    <glyph glyph-name="uni0463" unicode="&#x463;" horiz-adv-x="535" 
d="M447.5 303.5q43.5 -39.5 43.5 -104.5q0 -95 -59 -147t-161 -52h-171l65 465h-113l6 42h113l35 253h50l-35 -253h200l-5 -42h-201l-17 -122h121q85 0 128.5 -39.5zM396 84q45 41 45 112q0 49 -32.5 76.5t-98.5 27.5h-118l-36 -257h116q79 0 124 41z" />
    <glyph glyph-name="uni0472" unicode="&#x472;" horiz-adv-x="840" 
d="M659 727.5q72 -41.5 112 -118t40 -177.5q0 -118 -57.5 -219.5t-156 -161.5t-214.5 -60q-95 0 -167 42t-111.5 118t-39.5 176q0 119 57.5 220.5t155.5 161.5t214 60q95 0 167 -41.5zM322.5 680.5q-77.5 -42.5 -129.5 -115t-69 -160.5h634q1 9 1 27q0 87 -33 153t-94 102
t-143 36q-89 0 -166.5 -42.5zM553.5 80q78.5 43 130.5 117t68 163h-635q-1 -11 -1 -33q0 -87 33 -153t94 -101.5t142 -35.5q90 0 168.5 43z" />
    <glyph glyph-name="uni0473" unicode="&#x473;" horiz-adv-x="591" 
d="M444 488.5q49 -27.5 76 -78t27 -117.5q0 -86 -37.5 -155t-103 -108t-146.5 -39q-64 0 -113 27.5t-76 78t-27 118.5q0 85 37.5 154t103 108t146.5 39q64 0 113 -27.5zM180.5 417q-63.5 -54 -80.5 -140h397v13q0 86 -45.5 133.5t-122.5 47.5q-85 0 -148.5 -54zM411 90.5
q64 54.5 81 142.5h-398v-15q0 -86 45.5 -134t122.5 -48q85 0 149 54.5z" />
    <glyph glyph-name="uni0474" unicode="&#x474;" horiz-adv-x="629" 
d="M701 760l-10 -45h-21q-21 0 -35.5 -10.5t-28.5 -39.5l-320 -665h-58l-151 760h51l134 -707l303 636q19 42 45 56.5t66 14.5h25z" />
    <glyph glyph-name="uni0475" unicode="&#x475;" horiz-adv-x="489" 
d="M524 507l-10 -45h-6q-34 0 -56 -40l-225 -422h-58l-129 507h51l112 -459l208 399q17 33 40.5 46.5t63.5 13.5h9z" />
    <glyph glyph-name="uni048A" unicode="&#x48a;" horiz-adv-x="668" 
d="M321.5 894.5q-35.5 41.5 -35.5 118.5h39q0 -58 27.5 -89t77.5 -31q49 0 84.5 31t50.5 89h40q-17 -77 -63.5 -118.5t-115.5 -41.5t-104.5 41.5zM532 -140h-48l66 140h-46l95 676l-508 -676h-51l107 760h50l-94 -675l508 675h50l-100 -715h64z" />
    <glyph glyph-name="uni048B" unicode="&#x48b;" horiz-adv-x="530" 
d="M205.5 641.5q-35.5 41.5 -35.5 118.5h39q0 -58 27.5 -89t77.5 -31q49 0 84.5 31t50.5 89h40q-17 -77 -63.5 -118.5t-115.5 -41.5t-104.5 41.5zM481 507l-65 -463h61l-87 -174h-48l61 130h-43l60 432l-337 -432l-1 1v-1h-50l71 507h50l-61 -433l339 433h50z" />
    <glyph glyph-name="uni048C" unicode="&#x48c;" horiz-adv-x="717" 
d="M616 430q59 -57 59 -148q0 -85 -37.5 -149t-104.5 -98.5t-154 -34.5h-237l84 605h-154l6 45h155l15 110h51l-15 -110h230l-7 -45h-230l-16 -118h185q111 0 170 -57zM507.5 75q55.5 30 86 83t30.5 121q0 75 -46 119t-140 44h-184l-56 -397h181q73 0 128.5 30z" />
    <glyph glyph-name="uni048D" unicode="&#x48d;" horiz-adv-x="535" 
d="M447.5 303.5q43.5 -39.5 43.5 -104.5q0 -95 -59 -147t-161 -52h-171l65 465h-113l6 42h113l35 253h50l-35 -253h200l-5 -42h-201l-17 -122h121q85 0 128.5 -39.5zM396 84q45 41 45 112q0 49 -32.5 76.5t-98.5 27.5h-118l-36 -257h116q79 0 124 41z" />
    <glyph glyph-name="uni048E" unicode="&#x48e;" horiz-adv-x="615" 
d="M565 379q-45 -71 -125 -102l57 -130l-41 -21l-60 137q-38 -8 -76 -8h-194l-36 -255h-50l107 760h227q119 0 177.5 -56.5t58.5 -159.5q0 -94 -45 -165zM522.5 404.5q35.5 59.5 35.5 136.5q0 86 -45 130t-148 44h-174l-59 -415h191q27 0 55 5l-62 142l41 21l65 -150
q65 27 100.5 86.5z" />
    <glyph glyph-name="uni048F" unicode="&#x48f;" horiz-adv-x="610" 
d="M527 136q-39 -70 -105 -109l46 -105l-40 -22l-47 108q-46 -17 -98 -17q-68 0 -116 32.5t-68 90.5l-44 -307h-50l98 700h45l-14 -123q35 63 93 97.5t130 34.5q61 0 108.5 -27.5t74 -78t26.5 -115.5q0 -89 -39 -159zM485.5 161q30.5 58 30.5 130q0 85 -46.5 132.5
t-123.5 47.5q-66 0 -119.5 -34.5t-83.5 -93t-30 -127.5q0 -83 46.5 -131.5t125.5 -48.5q41 0 78 14l-63 146l40 20l63 -146q52 33 82.5 91z" />
    <glyph glyph-name="uni0490" unicode="&#x490;" horiz-adv-x="478" 
d="M526 760l-6 -45h-329l-100 -715h-50l106 760h330l20 120h46z" />
    <glyph glyph-name="uni0491" unicode="&#x491;" horiz-adv-x="370" 
d="M395 595l-18 -132h-230l-65 -463h-50l71 507h232l15 88h45z" />
    <glyph glyph-name="uni0492" unicode="&#x492;" horiz-adv-x="575" 
d="M289 715l-47 -334h215l-5 -45h-216l-47 -336h-50l47 336h-146l6 45h146l53 379h379l-6 -45h-329z" />
    <glyph glyph-name="uni0493" unicode="&#x493;" horiz-adv-x="411" 
d="M188 463l-25 -177h152l-5 -42h-153l-34 -244h-50l34 244h-87l5 42h88l31 221h280l-6 -44h-230z" />
    <glyph glyph-name="uni0494" unicode="&#x494;" horiz-adv-x="616" 
d="M566 238q0 -96 -34 -194t-99 -167t-152 -79v45q72 13 125 74.5t81 147.5t28 172q0 101 -58.5 148t-179.5 47h-126l-60 -432h-51l107 760h379l-6 -45h-329l-33 -238h127q281 0 281 -239z" />
    <glyph glyph-name="uni0495" unicode="&#x495;" horiz-adv-x="487" 
d="M431 132q0 -78 -26 -150.5t-76.5 -122.5t-122.5 -61v45q58 11 97.5 54.5t58.5 104.5t19 127q0 77 -40 109.5t-122 32.5h-99l-38 -271h-50l71 507h280l-6 -44h-230l-21 -148h99q206 0 206 -183z" />
    <glyph glyph-name="uni0496" unicode="&#x496;" horiz-adv-x="948" 
d="M669 461l192 -461h-51l-176 423l-154 -170l-36 -253h-50l37 264l-104 166l-293 -430h-57l323 472l-181 288h54l267 -429l60 429h51l-61 -432l388 432h62zM883 -140h-46l15 140h-38l6 45h88z" />
    <glyph glyph-name="uni0497" unicode="&#x497;" horiz-adv-x="697" 
d="M483 312l136 -312h-52l-120 277l-100 -99l-25 -178h-50l26 187l-68 93l-199 -280h-59l228 319l-139 188h57l189 -260l36 260h50l-37 -261l259 261h66zM635 -130h-46l15 130h-36l5 44h87z" />
    <glyph glyph-name="uni0498" unicode="&#x498;" horiz-adv-x="566" 
d="M498.5 341q29.5 -42 29.5 -103q0 -70 -32 -124t-90 -86t-134 -36l-22 -142h-47l16 142q-96 7 -146 55t-50 121q0 13 2 33l50 3q-2 -20 -2 -29q0 -63 44 -101t131 -38q67 0 119 25t81 70.5t29 105.5q0 66 -42 103.5t-125 37.5h-103l5 45h92q59 0 105 22t71 62t25 92
q0 58 -38.5 91.5t-118.5 33.5q-93 0 -146 -44.5t-63 -116.5l-50 4q12 88 79.5 145t182.5 57q102 0 153.5 -46.5t51.5 -122.5q0 -70 -38.5 -122.5t-104.5 -75.5q56 -19 85.5 -61z" />
    <glyph glyph-name="uni0499" unicode="&#x499;" horiz-adv-x="415" 
d="M348 227q22 -29 22 -68q0 -69 -44.5 -114.5t-128.5 -52.5l-23 -132h-44l15 132q-68 5 -106 38t-38 84q0 6 2 20l48 1q-1 -5 -1 -16q0 -40 30 -63t89 -23q70 0 110.5 34.5t40.5 89.5q0 40 -29.5 63.5t-87.5 23.5h-58l6 44h52q60 0 97.5 32t37.5 82q0 32 -25 52t-78 20
q-59 0 -95 -24.5t-45 -65.5l-47 4q12 58 60 93t130 35q76 0 113 -31t37 -80q0 -46 -27.5 -83.5t-75.5 -52.5q41 -13 63 -42z" />
    <glyph glyph-name="uni049A" unicode="&#x49a;" horiz-adv-x="610" 
d="M334 434l189 -434h-53l-171 393l-183 -207l-26 -186h-50l107 760h50l-70 -498l437 498h57zM545 -140h-46l15 140h-38l6 45h88z" />
    <glyph glyph-name="uni049B" unicode="&#x49b;" horiz-adv-x="469" 
d="M234 289l158 -289h-51l-141 256l-95 -92l-23 -164h-50l71 507h50l-38 -272l280 272h66zM407 -130h-46l15 130h-36l5 44h87z" />
    <glyph glyph-name="uni049C" unicode="&#x49c;" horiz-adv-x="605" 
d="M364 459l193 -459h-51l-178 422l-39 -40l-26 -187h-48l20 144l-114 -121l-30 -218h-51l107 760h50l-65 -467l114 120l26 186h47l-20 -141l290 302h66z" />
    <glyph glyph-name="uni049D" unicode="&#x49d;" horiz-adv-x="472" 
d="M260 305l169 -305h-52l-152 274l-9 -8l-21 -149h-42l16 113l-62 -55l-25 -175h-50l71 507h50l-37 -268l62 55l19 137h43l-14 -101l193 177h70z" />
    <glyph glyph-name="uni049E" unicode="&#x49e;" horiz-adv-x="651" 
d="M412 432l191 -432h-52l-172 394l-183 -207l-26 -187h-51l85 605h-132l6 45h133l15 110h51l-15 -110h142l-6 -45h-143l-47 -337l432 492h61z" />
    <glyph glyph-name="uni049F" unicode="&#x49f;" horiz-adv-x="501" 
d="M300 289l158 -289h-51l-141 256l-96 -92l-23 -164h-50l87 621h-112l6 42h112l14 97h50l-14 -97h191l-6 -42h-191l-54 -386l281 272h65z" />
    <glyph glyph-name="uni04A0" unicode="&#x4a0;" horiz-adv-x="731" 
d="M493 434l189 -434h-53l-171 393l-183 -207l-26 -186h-50l101 715h-207l6 45h257l-70 -498l437 498h57z" />
    <glyph glyph-name="uni04A1" unicode="&#x4a1;" horiz-adv-x="553" 
d="M351 289l158 -289h-51l-141 256l-95 -92l-23 -164h-50l65 464h-162l6 43h212l-38 -272l280 272h66z" />
    <glyph glyph-name="uni04A2" unicode="&#x4a2;" horiz-adv-x="655" 
d="M651 760l-107 -760h-50l53 376h-404l-53 -376h-50l107 760h50l-48 -339h404l48 339h50zM584 -140h-46l15 140h-38l6 45h88z" />
    <glyph glyph-name="uni04A3" unicode="&#x4a3;" horiz-adv-x="527" 
d="M480 507l-71 -507h-50l34 245h-277l-34 -245h-50l71 507h50l-31 -218h277l31 218h50zM449 -130h-46l15 130h-36l5 44h87z" />
    <glyph glyph-name="uni04A4" unicode="&#x4a4;" horiz-adv-x="931" 
d="M651 760l-107 -760h-50l53 376h-404l-53 -376h-50l107 760h50l-48 -339h404l48 339h50zM974 715h-329l-100 -715h-50l106 760h379z" />
    <glyph glyph-name="uni04A5" unicode="&#x4a5;" horiz-adv-x="697" 
d="M480 507l-71 -507h-50l34 245h-277l-34 -245h-50l71 507h50l-31 -218h277l31 218h50zM704 463h-230l-65 -463h-50l71 507h280z" />
    <glyph glyph-name="uni04A6" unicode="&#x4a6;" horiz-adv-x="1058" 
d="M1008 238q0 -97 -34 -195t-98.5 -166t-151.5 -79l-1 45q73 13 126 74t80.5 147.5t27.5 172.5q0 101 -58 148t-179 47h-125l-60 -432h-51l101 715h-394l-100 -715h-51l107 760h494l-39 -283h125q281 0 281 -239z" />
    <glyph glyph-name="uni04A7" unicode="&#x4a7;" horiz-adv-x="808" 
d="M751 132q0 -78 -25.5 -150.5t-76.5 -122.5t-122 -61v45q57 11 96.5 54.5t58.5 104.5t19 127q0 77 -40 109.5t-122 32.5h-97l-38 -271h-50l65 463h-272l-65 -463h-50l71 507h372l-27 -192h98q205 0 205 -183z" />
    <glyph glyph-name="uni04A8" unicode="&#x4a8;" horiz-adv-x="877" 
d="M691 35q60 0 123 18l-2 -46q-61 -16 -124 -16q-81 0 -149 25q-72 -25 -148 -25q-98 0 -173 40.5t-116.5 117t-41.5 180.5q0 103 40.5 194.5t111.5 155.5t159 88l-2 -47q-75 -26 -133.5 -84.5t-91.5 -138.5t-33 -167q0 -90 35.5 -157t99.5 -102.5t148 -35.5q46 0 85 10
q-76 46 -119.5 127t-43.5 196q0 106 37.5 197.5t110.5 147.5t174 56q109 0 168 -68t59 -198q0 -97 -32.5 -186t-92 -160t-137.5 -113q42 -9 88 -9zM413.5 175.5q46.5 -75.5 127.5 -111.5q81 34 143 101t96 155t34 184q0 110 -46.5 164.5t-131.5 54.5q-86 0 -147 -51
t-91.5 -133t-30.5 -174q0 -114 46.5 -189.5z" />
    <glyph glyph-name="uni04A9" unicode="&#x4a9;" horiz-adv-x="638" 
d="M486 31q43 0 87 11v-41q-39 -10 -88 -10q-55 0 -101 18q-51 -18 -108 -18q-70 0 -124.5 27.5t-85 78.5t-30.5 120t28 132t78 107t114 59v-45q-52 -15 -91 -53t-59.5 -90t-20.5 -107q0 -89 53.5 -138.5t142.5 -49.5q23 0 51 5q-49 34 -76.5 88.5t-27.5 124.5
q0 73 26.5 134t76.5 96.5t118 35.5q78 0 120 -48t42 -132q0 -94 -47 -174.5t-125 -126.5q20 -4 47 -4zM305.5 125.5q28.5 -48.5 79.5 -72.5q79 33 128 110t49 171q0 68 -29 103t-85 35q-55 0 -93.5 -31.5t-58 -83.5t-19.5 -113q0 -70 28.5 -118.5z" />
    <glyph glyph-name="uni04AA" unicode="&#x4aa;" horiz-adv-x="815" 
d="M579.5 95q86.5 58 135.5 155l51 -6q-54 -113 -150 -181t-217 -72l-22 -141h-46l17 143q-85 7 -149 50t-99 115.5t-35 167.5q0 118 57 220t154.5 162.5t213.5 60.5q125 0 207.5 -68t105.5 -183l-52 -6q-22 99 -90.5 155t-172.5 56q-102 0 -187 -54.5t-135 -146t-50 -194.5
q0 -88 33.5 -154t95 -101.5t142.5 -35.5q106 0 192.5 58z" />
    <glyph glyph-name="uni04AB" unicode="&#x4ab;" horiz-adv-x="570" 
d="M382.5 71q55.5 35 83.5 96l48 -5q-31 -74 -91.5 -118.5t-139.5 -51.5l-22 -132h-45l16 132q-86 9 -137 68.5t-51 151.5q0 88 37 157.5t102.5 108t146.5 38.5q79 0 135 -41.5t73 -113.5l-51 -6q-15 56 -57 86t-101 30q-69 0 -122.5 -33t-83 -90.5t-29.5 -129.5
q0 -85 45 -133.5t124 -48.5q64 0 119.5 35z" />
    <glyph glyph-name="uni04AC" unicode="&#x4ac;" horiz-adv-x="580" 
d="M617 715h-236l-101 -715h-51l101 715h-238l7 45h525zM324 -140h-46l15 140h-38l6 45h88z" />
    <glyph glyph-name="uni04AD" unicode="&#x4ad;" horiz-adv-x="429" 
d="M436 463h-167l-65 -463h-50l65 463h-167l6 44h384zM244 -130h-46l15 130h-36l5 44h87z" />
    <glyph glyph-name="uni04AE" unicode="&#x4ae;" horiz-adv-x="534" 
d="M305 340l-48 -340h-51l48 339l-182 421h50l160 -374l267 374h57z" />
    <glyph glyph-name="uni04AF" unicode="&#x4af;" horiz-adv-x="469" 
d="M224 9l-28 -202h-50l29 205l-137 495h50l117 -449l242 449h55z" />
    <glyph glyph-name="uni04B0" unicode="&#x4b0;" horiz-adv-x="534" 
d="M335 381h169l-6 -45h-193l-48 -336h-51l48 336h-191l5 45h168l-164 379h50l160 -374l267 374h57z" />
    <glyph glyph-name="uni04B1" unicode="&#x4b1;" horiz-adv-x="469" 
d="M243 42h138l-5 -42h-153l-27 -193h-50l27 193h-150l5 42h139l-129 465h50l117 -449l242 449h55z" />
    <glyph glyph-name="uni04B2" unicode="&#x4b2;" horiz-adv-x="591" 
d="M319 383l186 -383h-52l-165 340l-260 -340h-58l295 386l-179 374h52l159 -329l249 329h58zM526 -140h-46l15 140h-38l6 45h88z" />
    <glyph glyph-name="uni04B3" unicode="&#x4b3;" horiz-adv-x="471" 
d="M249 258l146 -258h-53l-125 221l-187 -221h-58l222 263l-138 244h53l117 -207l174 207h59zM409 -130h-46l15 130h-36l5 44h87z" />
    <glyph glyph-name="uni04B4" unicode="&#x4b4;" horiz-adv-x="834" 
d="M758 -140h-45l16 140h-505l101 715h-232l6 45h514l-7 -45h-231l-94 -670h390l101 715h50l-100 -715h62z" />
    <glyph glyph-name="uni04B5" unicode="&#x4b5;" horiz-adv-x="632" 
d="M555 -130h-46l14 130h-374l65 464h-162l6 43h374l-5 -43h-163l-59 -420h266l65 463h50l-65 -463h58z" />
    <glyph glyph-name="uni04B6" unicode="&#x4b6;" horiz-adv-x="611" 
d="M598 760l-106 -760h-51l43 304h-162q-105 0 -167.5 56t-62.5 153q0 21 3 43l29 204h51l-29 -204q-3 -22 -3 -42q0 -80 48.5 -122.5t139.5 -42.5h159l58 411h50zM535 -140h-46l15 140h-38l6 45h88z" />
    <glyph glyph-name="uni04B7" unicode="&#x4b7;" horiz-adv-x="483" 
d="M435 507l-71 -507h-50l28 199h-104q-79 0 -124.5 38.5t-45.5 106.5q0 19 2 30l19 133h50l-19 -133q-2 -18 -2 -27q0 -50 32 -77t95 -27h103l37 264h50zM405 -130h-46l15 130h-36l5 44h87z" />
    <glyph glyph-name="uni04B8" unicode="&#x4b8;" horiz-adv-x="602" 
d="M598 760l-106 -760h-51l43 304h-153l-26 -180h-47l26 182q-89 10 -140.5 64.5t-51.5 142.5q0 21 3 43l29 204h51l-29 -204q-3 -22 -3 -41q0 -70 38 -112t109 -51l25 178h48l-26 -181h153l58 411h50z" />
    <glyph glyph-name="uni04B9" unicode="&#x4b9;" horiz-adv-x="467" 
d="M435 507l-71 -507h-50l28 199h-96l-16 -114h-42l16 116q-64 8 -100 45.5t-36 97.5q0 19 2 30l19 133h50l-19 -133q-2 -18 -2 -27q0 -42 23.5 -68.5t68.5 -33.5l20 140h43l-20 -142h95l37 264h50z" />
    <glyph glyph-name="uni04BA" unicode="&#x4ba;" horiz-adv-x="610" 
d="M485.5 399q64.5 -56 64.5 -154q0 -21 -3 -42l-28 -203h-51l29 203q3 23 3 41q0 81 -51.5 123.5t-149.5 42.5h-151l-57 -410h-51l107 760h50l-43 -305h155q112 0 176.5 -56z" />
    <glyph glyph-name="uni04BB" unicode="&#x4bb;" horiz-adv-x="560" 
d="M462.5 473q45.5 -43 45.5 -119q0 -23 -3 -44l-44 -310h-50l43 306q4 28 4 40q0 62 -33.5 94.5t-99.5 32.5q-81 0 -134.5 -54t-69.5 -139l-39 -280h-50l107 760h50l-51 -363q34 59 86 89t115 30q78 0 123.5 -43z" />
    <glyph glyph-name="uni04BC" unicode="&#x4bc;" horiz-adv-x="954" 
d="M230 364q-2 -24 -2 -37q0 -86 33.5 -151.5t95.5 -102t144 -36.5q95 0 179.5 51.5t134.5 137.5l51 -9q-58 -105 -155.5 -165.5t-211.5 -60.5q-95 0 -167.5 42.5t-113 119t-40.5 173.5q0 14 2 38q-65 4 -96.5 30.5t-31.5 73.5q0 25 9 58t22 55l46 -6q-30 -56 -30 -99
q0 -32 20.5 -47.5t66.5 -18.5q19 100 79.5 182t149 129.5t189.5 47.5q93 0 166 -43t114 -118.5t41 -167.5q0 -28 -6 -76h-689zM437.5 681q-76.5 -42 -129 -113.5t-71.5 -157.5h636q1 10 1 29q0 82 -34 146.5t-95.5 101t-143.5 36.5q-87 0 -163.5 -42z" />
    <glyph glyph-name="uni04BD" unicode="&#x4bd;" horiz-adv-x="682" 
d="M202 213q0 -83 46.5 -130t122.5 -47q64 0 113 30t81 85l49 -6q-39 -74 -102.5 -114t-144.5 -40q-63 0 -112 28t-76 78t-27 114q0 19 1 28q-119 9 -119 103q0 26 9 58t22 52l44 -5q-27 -52 -27 -98q0 -32 18 -47.5t59 -19.5q14 67 52.5 120.5t96 83.5t126.5 30
q95 0 150.5 -57.5t55.5 -152.5q0 -15 -1.5 -33.5t-4.5 -34.5h-431q-1 -8 -1 -25zM289.5 418q-60.5 -53 -79.5 -137h379q1 7 1 22q0 82 -43 125t-115 43q-82 0 -142.5 -53z" />
    <glyph glyph-name="uni04BE" unicode="&#x4be;" horiz-adv-x="954" 
d="M230 364q-2 -24 -2 -37q0 -86 33.5 -151.5t95.5 -102t144 -36.5q95 0 179.5 51.5t134.5 137.5l51 -9q-55 -99 -146 -159t-197 -66l-23 -142h-45l16 142q-87 6 -153.5 50.5t-103 118t-36.5 165.5q0 14 2 38q-65 4 -96.5 30.5t-31.5 73.5q0 25 9 58t22 55l46 -6
q-30 -56 -30 -99q0 -32 20.5 -47.5t66.5 -18.5q19 100 79.5 182t149 129.5t189.5 47.5q93 0 166 -43t114 -118.5t41 -167.5q0 -28 -6 -76h-689zM437.5 681q-76.5 -42 -129 -113.5t-71.5 -157.5h636q1 10 1 29q0 82 -34 146.5t-95.5 101t-143.5 36.5q-87 0 -163.5 -42z" />
    <glyph glyph-name="uni04BF" unicode="&#x4bf;" horiz-adv-x="682" 
d="M202 213q0 -83 46.5 -130t122.5 -47q64 0 113 30t81 85l49 -6q-35 -69 -93 -108.5t-131 -44.5l-22 -132h-45l15 133q-84 9 -135 69t-51 149q0 19 1 28q-119 9 -119 103q0 26 9 58t22 52l44 -5q-27 -52 -27 -98q0 -32 18 -47.5t59 -19.5q14 67 52.5 120.5t96 83.5
t126.5 30q95 0 150.5 -57.5t55.5 -152.5q0 -15 -1.5 -33.5t-4.5 -34.5h-431q-1 -8 -1 -25zM289.5 418q-60.5 -53 -79.5 -137h379q1 7 1 22q0 82 -43 125t-115 43q-82 0 -142.5 -53z" />
    <glyph glyph-name="uni04C0" unicode="&#x4c0;" horiz-adv-x="201" 
d="M147 760h50l-107 -760h-50z" />
    <glyph glyph-name="uni04C1" unicode="&#x4c1;" horiz-adv-x="909" 
d="M669 461l192 -461h-51l-176 423l-154 -170l-36 -253h-50l37 264l-104 166l-293 -430h-57l323 472l-181 288h54l267 -429l60 429h51l-61 -432l388 432h62zM438.5 894.5q-35.5 41.5 -35.5 118.5h39q0 -58 27.5 -89t77.5 -31q49 0 84.5 31t50.5 89h40q-17 -77 -63.5 -118.5
t-115.5 -41.5t-104.5 41.5z" />
    <glyph glyph-name="uni04C2" unicode="&#x4c2;" horiz-adv-x="662" 
d="M483 312l136 -312h-52l-120 277l-100 -99l-25 -178h-50l26 187l-68 93l-199 -280h-59l228 319l-139 188h57l189 -260l36 260h50l-37 -261l259 261h66zM280.5 641.5q-35.5 41.5 -35.5 118.5h39q0 -58 27.5 -89t77.5 -31q49 0 84.5 31t50.5 89h40q-17 -77 -63.5 -118.5
t-115.5 -41.5t-104.5 41.5z" />
    <glyph glyph-name="uni04C3" unicode="&#x4c3;" horiz-adv-x="588" 
d="M494.5 306.5q49.5 -66.5 49.5 -159.5q0 -81 -33.5 -156.5t-93 -127.5t-133.5 -65l-1 45q64 16 111.5 62t72.5 109t25 132q0 79 -42 137t-129 124l-206 -235l-24 -172h-51l107 760h50l-71 -506l444 506h61l-280 -319q94 -68 143.5 -134.5z" />
    <glyph glyph-name="uni04C4" unicode="&#x4c4;" horiz-adv-x="462" 
d="M360 182q41 -55 41 -128q0 -63 -27.5 -118.5t-75.5 -92.5t-107 -45v45q73 15 116.5 75.5t43.5 138.5q0 63 -35 108t-109 97l-102 -98l-23 -164h-50l71 507h50l-39 -275l280 275h67l-221 -213q79 -57 120 -112z" />
    <glyph glyph-name="uni04C5" unicode="&#x4c5;" horiz-adv-x="643" 
d="M513 -140h-48l66 140h-41l-135 708l-331 -708h-54l362 760h58l141 -715h75z" />
    <glyph glyph-name="uni04C6" unicode="&#x4c6;" horiz-adv-x="525" 
d="M403 -130h-48l61 130h-40l-111 462l-241 -462h-54l271 507h57l117 -463h75z" />
    <glyph glyph-name="uni04C7" unicode="&#x4c7;" horiz-adv-x="656" 
d="M651 760l-102 -734q-17 -116 -79.5 -172t-161.5 -56q-18 0 -25 1l-1 46q18 -2 27 -2q77 0 126.5 45.5t62.5 138.5l49 349h-404l-52 -376h-50l106 760h50l-47 -339h403l48 339h50z" />
    <glyph glyph-name="uni04C8" unicode="&#x4c8;" horiz-adv-x="512" 
d="M423 101l-14 -101l-7 -47q-12 -84 -51 -119.5t-101 -35.5q-24 0 -47 5t-40 13l8 41q35 -15 74 -15q47 0 73 27.5t35 89.5l20 139l20 147h-277l-34 -245h-50l71 507h50l-31 -218h277l31 218h50l-56 -400z" />
    <glyph glyph-name="uni04C9" unicode="&#x4c9;" horiz-adv-x="653" 
d="M522 -140h-48l66 140h-46l53 376h-404l-53 -376h-50l107 760h50l-48 -339h404l48 339h50l-101 -715h65z" />
    <glyph glyph-name="uni04CA" unicode="&#x4ca;" horiz-adv-x="528" 
d="M388 -130h-47l61 130h-43l6 44l28 201h-277l-34 -245h-50l71 507h50l-31 -218h277l31 218h50l-65 -463h61z" />
    <glyph glyph-name="uni04CB" unicode="&#x4cb;" horiz-adv-x="602" 
d="M598 760l-106 -760h-51v3l-12 -2l-24 -141h-46l26 185h51v-2l11 2l37 259h-162q-105 0 -167.5 56t-62.5 153q0 21 3 43l29 204h51l-29 -204q-3 -22 -3 -42q0 -80 48.5 -122.5t139.5 -42.5h159l58 411h50z" />
    <glyph glyph-name="uni04CC" unicode="&#x4cc;" horiz-adv-x="467" 
d="M435 507l-71 -507h-61l-22 -130h-45l25 174h59l22 155h-104q-79 0 -124.5 38.5t-45.5 106.5q0 19 2 30l19 133h50l-19 -133q-2 -18 -2 -27q0 -50 32 -77t95 -27h103l37 264h50z" />
    <glyph glyph-name="uni04CD" unicode="&#x4cd;" horiz-adv-x="855" 
d="M722 -140h-47l66 140h-42l23 684l-319 -684h-43l-128 687l-169 -687h-51l191 760h58l129 -693l322 693h59l-22 -715h67z" />
    <glyph glyph-name="uni04CE" unicode="&#x4ce;" horiz-adv-x="634" 
d="M512 -130h-48l61 130h-37l11 430l-215 -430h-35l-92 432l-110 -432h-50l130 507h54l95 -434l217 434h55l-11 -463h62z" />
    <glyph glyph-name="uni04CF" unicode="&#x4cf;" horiz-adv-x="186" 
d="M139 760h50l-106 -760h-50z" />
    <glyph glyph-name="uni04D0" unicode="&#x4d0;" horiz-adv-x="581" 
d="M461 150h-368l-70 -150h-53l363 760h58l149 -760h-51zM452 195l-97 516l-241 -516h338zM274.5 894.5q-35.5 41.5 -35.5 118.5h39q0 -58 27.5 -89t77.5 -31q49 0 84.5 31t50.5 89h40q-17 -77 -63.5 -118.5t-115.5 -41.5t-104.5 41.5z" />
    <glyph glyph-name="uni04D1" unicode="&#x4d1;" horiz-adv-x="609" 
d="M577 507l-71 -507h-45l14 120q-34 -60 -92.5 -94.5t-128.5 -34.5q-60 0 -108 28t-75 79t-27 118q0 85 38 153.5t102.5 107.5t141.5 39q69 0 117.5 -33t67.5 -93l16 117h50zM381.5 71q53.5 35 84 94t30.5 127q0 83 -45.5 131t-123.5 48q-64 0 -117.5 -32.5t-84.5 -90
t-31 -128.5q0 -86 46 -135t123 -49q65 0 118.5 35zM243.5 641.5q-35.5 41.5 -35.5 118.5h39q0 -58 27.5 -89t77.5 -31q49 0 84.5 31t50.5 89h40q-17 -77 -63.5 -118.5t-115.5 -41.5t-104.5 41.5z" />
    <glyph glyph-name="uni04D2" unicode="&#x4d2;" horiz-adv-x="581" 
d="M461 150h-368l-70 -150h-53l363 760h58l149 -760h-51zM452 195l-97 516l-241 -516h338zM274.5 883.5q-12.5 12.5 -12.5 29.5q0 18 12.5 30t30.5 12q17 0 29.5 -12t12.5 -30q0 -17 -12.5 -29.5t-29.5 -12.5q-18 0 -30.5 12.5zM434 883.5q-12 12.5 -12 29.5q0 18 12 30
t30 12q17 0 29 -12t12 -30q0 -17 -12 -29.5t-29 -12.5q-18 0 -30 12.5z" />
    <glyph glyph-name="uni04D3" unicode="&#x4d3;" horiz-adv-x="609" 
d="M577 507l-71 -507h-45l14 120q-34 -60 -92.5 -94.5t-128.5 -34.5q-60 0 -108 28t-75 79t-27 118q0 85 38 153.5t102.5 107.5t141.5 39q69 0 117.5 -33t67.5 -93l16 117h50zM381.5 71q53.5 35 84 94t30.5 127q0 83 -45.5 131t-123.5 48q-64 0 -117.5 -32.5t-84.5 -90
t-31 -128.5q0 -86 46 -135t123 -49q65 0 118.5 35zM243.5 630.5q-12.5 12.5 -12.5 29.5q0 18 12.5 30t30.5 12q17 0 29.5 -12t12.5 -30q0 -17 -12.5 -29.5t-29.5 -12.5q-18 0 -30.5 12.5zM403 630.5q-12 12.5 -12 29.5q0 18 12 30t30 12q17 0 29 -12t12 -30q0 -17 -12 -29.5
t-29 -12.5q-18 0 -30 12.5z" />
    <glyph glyph-name="uni04D4" unicode="&#x4d4;" horiz-adv-x="887" 
d="M550 716l-42 -296h335l-6 -44h-335l-47 -332h345l-7 -44h-394l28 196h-280l-134 -196h-53l519 760h416l-7 -44h-338zM433 240l66 474l-322 -474h256z" />
    <glyph glyph-name="uni04D5" unicode="&#x4d5;" horiz-adv-x="935" 
d="M475 230q-1 -6 -1 -20q0 -82 44.5 -128t119.5 -46q120 0 183 116l49 -6q-38 -75 -98 -115t-140 -40q-74 0 -126 37t-72 102q-32 -66 -97.5 -102.5t-145.5 -36.5q-75 0 -121 34t-46 98q0 88 62 127t166 39h181q5 43 5 56q0 62 -38.5 94t-102.5 32q-102 0 -168 -85l-49 10
q39 57 93.5 88.5t133.5 31.5q67 0 114.5 -29.5t61.5 -88.5q37 55 92.5 86.5t122.5 31.5q89 0 141.5 -56t52.5 -147q0 -33 -5 -66h-410q-2 -10 -2 -17zM559 420q-55 -51 -75 -131h357q1 7 1 21q0 78 -42 119.5t-109 41.5q-77 0 -132 -51zM300 54q49 22 82 63t40 96l4 25
q0 6 1 9h-181q-89 0 -130.5 -30t-41.5 -88q0 -47 33.5 -72t91.5 -25q52 0 101 22z" />
    <glyph glyph-name="uni04D6" unicode="&#x4d6;" horiz-adv-x="543" 
d="M191 715l-42 -294h351l-7 -45h-350l-47 -331h360l-7 -45h-409l107 760h404l-7 -45h-353zM261.5 894.5q-35.5 41.5 -35.5 118.5h39q0 -58 27.5 -89t77.5 -31q49 0 84.5 31t50.5 89h40q-17 -77 -63.5 -118.5t-115.5 -41.5t-104.5 41.5z" />
    <glyph glyph-name="uni04D7" unicode="&#x4d7;" horiz-adv-x="573" 
d="M94 238q-1 -8 -1 -25q0 -83 46.5 -130t122.5 -47q64 0 113 30t81 85l49 -6q-39 -74 -102.5 -114t-144.5 -40q-63 0 -112 28t-76 78t-27 114q0 84 36 153.5t100.5 110.5t145.5 41q95 0 150.5 -57.5t55.5 -152.5q0 -15 -1.5 -33.5t-4.5 -34.5h-431zM180.5 418
q-60.5 -53 -79.5 -137h379q1 7 1 22q0 82 -43 125t-115 43q-82 0 -142.5 -53zM239.5 641.5q-35.5 41.5 -35.5 118.5h39q0 -58 27.5 -89t77.5 -31q49 0 84.5 31t50.5 89h40q-17 -77 -63.5 -118.5t-115.5 -41.5t-104.5 41.5z" />
    <glyph glyph-name="uni04D8" unicode="&#x4d8;" horiz-adv-x="841" 
d="M658.5 726q72.5 -43 113 -118t40.5 -168q0 -120 -58 -223.5t-156 -164.5t-212 -61q-94 0 -167 43t-113.5 118t-40.5 167q0 45 7 87l688 -1q1 11 1 34q0 82 -33.5 146.5t-95 101t-143.5 36.5q-97 0 -180.5 -51t-133.5 -138l-52 9q56 104 154.5 165t214.5 61
q94 0 166.5 -43zM554 80.5q77 43.5 129.5 117.5t69.5 163h-635q-1 -13 -1 -39q0 -82 34 -146.5t95.5 -101.5t142.5 -37q88 0 165 43.5z" />
    <glyph glyph-name="uni04D9" unicode="&#x4d9;" horiz-adv-x="574" 
d="M428.5 488q48.5 -28 75 -78t26.5 -113q0 -84 -36 -154t-100 -111t-146 -41q-95 0 -150.5 57.5t-55.5 152.5q0 39 7 74h430q1 7 1 21q0 81 -46 128t-121 47q-66 0 -115 -30t-80 -84l-50 5q39 74 102.5 114t145.5 40q64 0 112.5 -28zM395 90q61 54 79 142h-381
q-1 -9 -1 -29q0 -81 43 -124t115 -43q84 0 145 54z" />
    <glyph glyph-name="uni04DA" unicode="&#x4da;" horiz-adv-x="841" 
d="M658.5 726q72.5 -43 113 -118t40.5 -168q0 -120 -58 -223.5t-156 -164.5t-212 -61q-94 0 -167 43t-113.5 118t-40.5 167q0 45 7 87l688 -1q1 11 1 34q0 82 -33.5 146.5t-95 101t-143.5 36.5q-97 0 -180.5 -51t-133.5 -138l-52 9q56 104 154.5 165t214.5 61
q94 0 166.5 -43zM554 80.5q77 43.5 129.5 117.5t69.5 163h-635q-1 -13 -1 -39q0 -82 34 -146.5t95.5 -101.5t142.5 -37q88 0 165 43.5zM403.5 883.5q-12.5 12.5 -12.5 29.5q0 18 12.5 30t30.5 12q17 0 29.5 -12t12.5 -30q0 -17 -12.5 -29.5t-29.5 -12.5q-18 0 -30.5 12.5z
M563 883.5q-12 12.5 -12 29.5q0 18 12 30t30 12q17 0 29 -12t12 -30q0 -17 -12 -29.5t-29 -12.5q-18 0 -30 12.5z" />
    <glyph glyph-name="uni04DB" unicode="&#x4db;" horiz-adv-x="574" 
d="M428.5 488q48.5 -28 75 -78t26.5 -113q0 -84 -36 -154t-100 -111t-146 -41q-95 0 -150.5 57.5t-55.5 152.5q0 39 7 74h430q1 7 1 21q0 81 -46 128t-121 47q-66 0 -115 -30t-80 -84l-50 5q39 74 102.5 114t145.5 40q64 0 112.5 -28zM395 90q61 54 79 142h-381
q-1 -9 -1 -29q0 -81 43 -124t115 -43q84 0 145 54zM225.5 630.5q-12.5 12.5 -12.5 29.5q0 18 12.5 30t30.5 12q17 0 29.5 -12t12.5 -30q0 -17 -12.5 -29.5t-29.5 -12.5q-18 0 -30.5 12.5zM385 630.5q-12 12.5 -12 29.5q0 18 12 30t30 12q17 0 29 -12t12 -30q0 -17 -12 -29.5
t-29 -12.5q-18 0 -30 12.5z" />
    <glyph glyph-name="uni04DC" unicode="&#x4dc;" horiz-adv-x="909" 
d="M669 461l192 -461h-51l-176 423l-154 -170l-36 -253h-50l37 264l-104 166l-293 -430h-57l323 472l-181 288h54l267 -429l60 429h51l-61 -432l388 432h62zM438.5 883.5q-12.5 12.5 -12.5 29.5q0 18 12.5 30t30.5 12q17 0 29.5 -12t12.5 -30q0 -17 -12.5 -29.5t-29.5 -12.5
q-18 0 -30.5 12.5zM598 883.5q-12 12.5 -12 29.5q0 18 12 30t30 12q17 0 29 -12t12 -30q0 -17 -12 -29.5t-29 -12.5q-18 0 -30 12.5z" />
    <glyph glyph-name="uni04DD" unicode="&#x4dd;" horiz-adv-x="662" 
d="M483 312l136 -312h-52l-120 277l-100 -99l-25 -178h-50l26 187l-68 93l-199 -280h-59l228 319l-139 188h57l189 -260l36 260h50l-37 -261l259 261h66zM280.5 630.5q-12.5 12.5 -12.5 29.5q0 18 12.5 30t30.5 12q17 0 29.5 -12t12.5 -30q0 -17 -12.5 -29.5t-29.5 -12.5
q-18 0 -30.5 12.5zM440 630.5q-12 12.5 -12 29.5q0 18 12 30t30 12q17 0 29 -12t12 -30q0 -17 -12 -29.5t-29 -12.5q-18 0 -30 12.5z" />
    <glyph glyph-name="uni04DE" unicode="&#x4de;" horiz-adv-x="566" 
d="M498.5 341q29.5 -42 29.5 -103q0 -74 -35.5 -130t-99 -86.5t-146.5 -30.5q-109 0 -166.5 49t-57.5 128q0 13 2 33l50 3q-2 -20 -2 -29q0 -63 44 -101t131 -38q67 0 119 25t81 70.5t29 105.5q0 66 -42 103.5t-125 37.5h-103l5 45h92q59 0 105 22t71 62t25 92
q0 58 -38.5 91.5t-118.5 33.5q-93 0 -146 -44.5t-63 -116.5l-50 4q12 88 79.5 145t182.5 57q102 0 153.5 -46.5t51.5 -122.5q0 -70 -38.5 -122.5t-104.5 -75.5q56 -19 85.5 -61zM262.5 883.5q-12.5 12.5 -12.5 29.5q0 18 12.5 30t30.5 12q17 0 29.5 -12t12.5 -30
q0 -17 -12.5 -29.5t-29.5 -12.5q-18 0 -30.5 12.5zM422 883.5q-12 12.5 -12 29.5q0 18 12 30t30 12q17 0 29 -12t12 -30q0 -17 -12 -29.5t-29 -12.5q-18 0 -30 12.5z" />
    <glyph glyph-name="uni04DF" unicode="&#x4df;" horiz-adv-x="415" 
d="M348 227q22 -29 22 -68q0 -75 -52 -121.5t-150 -46.5q-79 0 -123 34t-44 89q0 6 2 20l48 1q-1 -5 -1 -16q0 -40 30 -63t89 -23q70 0 110.5 34.5t40.5 89.5q0 40 -29.5 63.5t-87.5 23.5h-58l6 44h52q60 0 97.5 32t37.5 82q0 32 -25 52t-78 20q-59 0 -95 -24.5t-45 -65.5
l-47 4q12 58 60 93t130 35q76 0 113 -31t37 -80q0 -46 -27.5 -83.5t-75.5 -52.5q41 -13 63 -42zM148.5 630.5q-12.5 12.5 -12.5 29.5q0 18 12.5 30t30.5 12q17 0 29.5 -12t12.5 -30q0 -17 -12.5 -29.5t-29.5 -12.5q-18 0 -30.5 12.5zM308 630.5q-12 12.5 -12 29.5
q0 18 12 30t30 12q17 0 29 -12t12 -30q0 -17 -12 -29.5t-29 -12.5q-18 0 -30 12.5z" />
    <glyph glyph-name="uni04E0" unicode="&#x4e0;" horiz-adv-x="567" 
d="M469.5 400.5q60.5 -48.5 60.5 -137.5q0 -80 -36 -142t-101 -96t-149 -34q-106 0 -163.5 50t-57.5 129q0 21 2 32l50 1q-2 -18 -2 -27q0 -64 44 -102t129 -38q69 0 121.5 28.5t82 79.5t29.5 116q0 67 -44 105t-132 38h-66l5 46h1l255 266h-374l5 45h475l-299 -311h3
q101 0 161.5 -48.5z" />
    <glyph glyph-name="uni04E1" unicode="&#x4e1;" horiz-adv-x="484" 
d="M363.5 172q60.5 -43 60.5 -130q0 -72 -31.5 -127.5t-89.5 -86t-135 -30.5q-59 0 -101.5 18.5t-64.5 50.5t-22 71q0 11 1 17h47q-1 -4 -1 -12q0 -46 37 -74.5t105 -28.5q62 0 108.5 25.5t71.5 71t25 103.5q0 67 -45.5 99.5t-124.5 32.5q-41 0 -75 -3l3 42h1l248 253h-305
l6 43h403l-285 -292h11q92 0 152.5 -43z" />
    <glyph glyph-name="uni04E2" unicode="&#x4e2;" horiz-adv-x="665" 
d="M661 760l-106 -760h-51l95 676l-508 -676h-51l107 760h50l-94 -675l508 675h50zM300 949h272l-5 -39h-272z" />
    <glyph glyph-name="uni04E3" unicode="&#x4e3;" horiz-adv-x="513" 
d="M481 507l-71 -507h-50l60 432l-337 -432l-1 1v-1h-50l71 507h50l-61 -433l339 433h50zM184 696h272l-5 -39h-272z" />
    <glyph glyph-name="uni04E4" unicode="&#x4e4;" horiz-adv-x="665" 
d="M661 760l-106 -760h-51l95 676l-508 -676h-51l107 760h50l-94 -675l508 675h50zM321.5 883.5q-12.5 12.5 -12.5 29.5q0 18 12.5 30t30.5 12q17 0 29.5 -12t12.5 -30q0 -17 -12.5 -29.5t-29.5 -12.5q-18 0 -30.5 12.5zM481 883.5q-12 12.5 -12 29.5q0 18 12 30t30 12
q17 0 29 -12t12 -30q0 -17 -12 -29.5t-29 -12.5q-18 0 -30 12.5z" />
    <glyph glyph-name="uni04E5" unicode="&#x4e5;" horiz-adv-x="513" 
d="M481 507l-71 -507h-50l60 432l-337 -432l-1 1v-1h-50l71 507h50l-61 -433l339 433h50zM205.5 630.5q-12.5 12.5 -12.5 29.5q0 18 12.5 30t30.5 12q17 0 29.5 -12t12.5 -30q0 -17 -12.5 -29.5t-29.5 -12.5q-18 0 -30.5 12.5zM365 630.5q-12 12.5 -12 29.5q0 18 12 30
t30 12q17 0 29 -12t12 -30q0 -17 -12 -29.5t-29 -12.5q-18 0 -30 12.5z" />
    <glyph glyph-name="uni04E6" unicode="&#x4e6;" horiz-adv-x="840" 
d="M216 33q-72 42 -111.5 118t-39.5 176q0 119 57.5 220.5t155.5 161.5t214 60q95 0 167 -41.5t112 -118t40 -177.5q0 -118 -57.5 -219.5t-156 -161.5t-214.5 -60q-95 0 -167 42zM573 91.5q86 54.5 136 145.5t50 195q0 87 -33 153t-94 102t-143 36q-102 0 -187.5 -55
t-135.5 -146t-50 -195q0 -87 33 -153t94 -101.5t142 -35.5q102 0 188 54.5zM399.5 883.5q-12.5 12.5 -12.5 29.5q0 18 12.5 30t30.5 12q17 0 29.5 -12t12.5 -30q0 -17 -12.5 -29.5t-29.5 -12.5q-18 0 -30.5 12.5zM559 883.5q-12 12.5 -12 29.5q0 18 12 30t30 12q17 0 29 -12
t12 -30q0 -17 -12 -29.5t-29 -12.5q-18 0 -30 12.5z" />
    <glyph glyph-name="uni04E7" unicode="&#x4e7;" horiz-adv-x="591" 
d="M147 18.5q-49 27.5 -76 78t-27 118.5q0 85 37.5 154t103 108t146.5 39q64 0 113 -27.5t76 -78t27 -117.5q0 -86 -37.5 -155t-103 -108t-146.5 -39q-64 0 -113 27.5zM381 69q54 33 85 91t31 130q0 86 -45.5 133.5t-122.5 47.5q-66 0 -119.5 -33t-84.5 -90.5t-31 -129.5
q0 -86 45.5 -134t122.5 -48q65 0 119 33zM243.5 631.5q-12.5 12.5 -12.5 29.5q0 18 12.5 30t30.5 12q17 0 29.5 -12t12.5 -30q0 -17 -12.5 -29.5t-29.5 -12.5q-18 0 -30.5 12.5zM403 631.5q-12 12.5 -12 29.5q0 18 12 30t30 12q17 0 29 -12t12 -30q0 -17 -12 -29.5
t-29 -12.5q-18 0 -30 12.5z" />
    <glyph glyph-name="uni04E8" unicode="&#x4e8;" horiz-adv-x="840" 
d="M659 727.5q72 -41.5 112 -118t40 -177.5q0 -118 -57.5 -219.5t-156 -161.5t-214.5 -60q-95 0 -167 42t-111.5 118t-39.5 176q0 119 57.5 220.5t155.5 161.5t214 60q95 0 167 -41.5zM322.5 680.5q-77.5 -42.5 -129.5 -115t-69 -160.5h634q1 9 1 27q0 87 -33 153t-94 102
t-143 36q-89 0 -166.5 -42.5zM553.5 80q78.5 43 130.5 117t68 163h-635q-1 -11 -1 -33q0 -87 33 -153t94 -101.5t142 -35.5q90 0 168.5 43z" />
    <glyph glyph-name="uni04E9" unicode="&#x4e9;" horiz-adv-x="591" 
d="M444 488.5q49 -27.5 76 -78t27 -117.5q0 -86 -37.5 -155t-103 -108t-146.5 -39q-64 0 -113 27.5t-76 78t-27 118.5q0 85 37.5 154t103 108t146.5 39q64 0 113 -27.5zM180.5 417q-63.5 -54 -80.5 -140h397v13q0 86 -45.5 133.5t-122.5 47.5q-85 0 -148.5 -54zM411 90.5
q64 54.5 81 142.5h-398v-15q0 -86 45.5 -134t122.5 -48q85 0 149 54.5z" />
    <glyph glyph-name="uni04EA" unicode="&#x4ea;" horiz-adv-x="840" 
d="M659 727.5q72 -41.5 112 -118t40 -177.5q0 -118 -57.5 -219.5t-156 -161.5t-214.5 -60q-95 0 -167 42t-111.5 118t-39.5 176q0 119 57.5 220.5t155.5 161.5t214 60q95 0 167 -41.5zM322.5 680.5q-77.5 -42.5 -129.5 -115t-69 -160.5h634q1 9 1 27q0 87 -33 153t-94 102
t-143 36q-89 0 -166.5 -42.5zM553.5 80q78.5 43 130.5 117t68 163h-635q-1 -11 -1 -33q0 -87 33 -153t94 -101.5t142 -35.5q90 0 168.5 43zM406.5 883.5q-12.5 12.5 -12.5 29.5q0 18 12.5 30t30.5 12q17 0 29.5 -12t12.5 -30q0 -17 -12.5 -29.5t-29.5 -12.5
q-18 0 -30.5 12.5zM566 883.5q-12 12.5 -12 29.5q0 18 12 30t30 12q17 0 29 -12t12 -30q0 -17 -12 -29.5t-29 -12.5q-18 0 -30 12.5z" />
    <glyph glyph-name="uni04EB" unicode="&#x4eb;" horiz-adv-x="591" 
d="M444 488.5q49 -27.5 76 -78t27 -117.5q0 -86 -37.5 -155t-103 -108t-146.5 -39q-64 0 -113 27.5t-76 78t-27 118.5q0 85 37.5 154t103 108t146.5 39q64 0 113 -27.5zM180.5 417q-63.5 -54 -80.5 -140h397v13q0 86 -45.5 133.5t-122.5 47.5q-85 0 -148.5 -54zM411 90.5
q64 54.5 81 142.5h-398v-15q0 -86 45.5 -134t122.5 -48q85 0 149 54.5zM242.5 630.5q-12.5 12.5 -12.5 29.5q0 18 12.5 30t30.5 12q17 0 29.5 -12t12.5 -30q0 -17 -12.5 -29.5t-29.5 -12.5q-18 0 -30.5 12.5zM402 630.5q-12 12.5 -12 29.5q0 18 12 30t30 12q17 0 29 -12
t12 -30q0 -17 -12 -29.5t-29 -12.5q-18 0 -30 12.5z" />
    <glyph glyph-name="uni04EC" unicode="&#x4ec;" horiz-adv-x="817" 
d="M634.5 725.5q72.5 -43.5 113 -120t40.5 -171.5q0 -117 -57.5 -219t-155.5 -163t-213 -61q-80 0 -146 32t-109.5 89.5t-57.5 132.5l51 5q21 -97 92 -155t173 -58q89 0 166.5 43.5t129 117.5t68.5 162h-448l7 45h447q1 9 1 28q0 85 -33.5 151t-95 102.5t-142.5 36.5
q-103 0 -190 -57.5t-136 -154.5l-51 8q55 114 156.5 182t223.5 68q94 0 166.5 -43.5zM386.5 883.5q-12.5 12.5 -12.5 29.5q0 18 12.5 30t30.5 12q17 0 29.5 -12t12.5 -30q0 -17 -12.5 -29.5t-29.5 -12.5q-18 0 -30.5 12.5zM546 883.5q-12 12.5 -12 29.5q0 18 12 30t30 12
q17 0 29 -12t12 -30q0 -17 -12 -29.5t-29 -12.5q-18 0 -30 12.5z" />
    <glyph glyph-name="uni04ED" unicode="&#x4ed;" horiz-adv-x="576" 
d="M428.5 488.5q49.5 -27.5 77 -77.5t27.5 -114q0 -85 -37.5 -155t-103 -110.5t-146.5 -40.5q-83 0 -142 49t-70 128l49 4q10 -62 55.5 -99t109.5 -37q57 0 105 26t79.5 71t43.5 101h-292l6 44h292q1 6 1 18q0 81 -46.5 128t-122.5 47q-65 0 -121 -36.5t-84 -97.5l-50 7
q35 80 103.5 126t152.5 46q64 0 113.5 -27.5zM227.5 630.5q-12.5 12.5 -12.5 29.5q0 18 12.5 30t30.5 12q17 0 29.5 -12t12.5 -30q0 -17 -12.5 -29.5t-29.5 -12.5q-18 0 -30.5 12.5zM387 630.5q-12 12.5 -12 29.5q0 18 12 30t30 12q17 0 29 -12t12 -30q0 -17 -12 -29.5
t-29 -12.5q-18 0 -30 12.5z" />
    <glyph glyph-name="uni04EE" unicode="&#x4ee;" horiz-adv-x="545" 
d="M614 760l-472 -760h-55l182 293l-180 467h52l158 -418l260 418h55zM237 949h272l-5 -39h-272z" />
    <glyph glyph-name="uni04EF" unicode="&#x4ef;" 
d="M515 507l-65 -462q-16 -122 -78 -184.5t-165 -62.5q-78 0 -122.5 31t-55.5 82l49 10q8 -38 40.5 -59.5t91.5 -21.5q162 0 190 204l9 64q-33 -58 -84 -87.5t-112 -29.5q-73 0 -117.5 42.5t-44.5 115.5q0 20 3 41l44 317h50l-43 -313q-3 -21 -3 -39q0 -61 34 -91t95 -30
q78 0 129 55.5t66 140.5l39 277h50zM201 696h272l-5 -39h-272z" />
    <glyph glyph-name="uni04F0" unicode="&#x4f0;" horiz-adv-x="545" 
d="M614 760l-472 -760h-55l182 293l-180 467h52l158 -418l260 418h55zM258.5 883.5q-12.5 12.5 -12.5 29.5q0 18 12.5 30t30.5 12q17 0 29.5 -12t12.5 -30q0 -17 -12.5 -29.5t-29.5 -12.5q-18 0 -30.5 12.5zM418 883.5q-12 12.5 -12 29.5q0 18 12 30t30 12q17 0 29 -12
t12 -30q0 -17 -12 -29.5t-29 -12.5q-18 0 -30 12.5z" />
    <glyph glyph-name="uni04F1" unicode="&#x4f1;" 
d="M515 507l-65 -462q-16 -122 -78 -184.5t-165 -62.5q-78 0 -122.5 31t-55.5 82l49 10q8 -38 40.5 -59.5t91.5 -21.5q162 0 190 204l9 64q-33 -58 -84 -87.5t-112 -29.5q-73 0 -117.5 42.5t-44.5 115.5q0 20 3 41l44 317h50l-43 -313q-3 -21 -3 -39q0 -61 34 -91t95 -30
q78 0 129 55.5t66 140.5l39 277h50zM222.5 630.5q-12.5 12.5 -12.5 29.5q0 18 12.5 30t30.5 12q17 0 29.5 -12t12.5 -30q0 -17 -12.5 -29.5t-29.5 -12.5q-18 0 -30.5 12.5zM382 630.5q-12 12.5 -12 29.5q0 18 12 30t30 12q17 0 29 -12t12 -30q0 -17 -12 -29.5t-29 -12.5
q-18 0 -30 12.5z" />
    <glyph glyph-name="uni04F2" unicode="&#x4f2;" horiz-adv-x="545" 
d="M614 760l-472 -760h-55l182 293l-180 467h52l158 -418l260 418h55zM257 844h-39l109 169h65zM446 844h-39l109 169h65z" />
    <glyph glyph-name="uni04F3" unicode="&#x4f3;" 
d="M515 507l-65 -462q-16 -122 -78 -184.5t-165 -62.5q-78 0 -122.5 31t-55.5 82l49 10q8 -38 40.5 -59.5t91.5 -21.5q162 0 190 204l9 64q-33 -58 -84 -87.5t-112 -29.5q-73 0 -117.5 42.5t-44.5 115.5q0 20 3 41l44 317h50l-43 -313q-3 -21 -3 -39q0 -61 34 -91t95 -30
q78 0 129 55.5t66 140.5l39 277h50zM221 591h-39l109 169h65zM410 591h-39l109 169h65z" />
    <glyph glyph-name="uni04F4" unicode="&#x4f4;" horiz-adv-x="602" 
d="M598 760l-106 -760h-51l43 304h-162q-105 0 -167.5 56t-62.5 153q0 21 3 43l29 204h51l-29 -204q-3 -22 -3 -42q0 -80 48.5 -122.5t139.5 -42.5h159l58 411h50zM274.5 883.5q-12.5 12.5 -12.5 29.5q0 18 12.5 30t30.5 12q17 0 29.5 -12t12.5 -30q0 -17 -12.5 -29.5
t-29.5 -12.5q-18 0 -30.5 12.5zM434 883.5q-12 12.5 -12 29.5q0 18 12 30t30 12q17 0 29 -12t12 -30q0 -17 -12 -29.5t-29 -12.5q-18 0 -30 12.5z" />
    </font>
</defs>
</svg>
